G04 #@! TF.GenerationSoftware,KiCad,Pcbnew,(5.99.0-8491-gb8dfcb34c4)*
G04 #@! TF.CreationDate,2021-01-19T19:45:49+01:00*
G04 #@! TF.ProjectId,TMC2209_Driver,544d4332-3230-4395-9f44-72697665722e,rev?*
G04 #@! TF.SameCoordinates,PX67f3540PY6cb8080*
G04 #@! TF.FileFunction,Paste,Top*
G04 #@! TF.FilePolarity,Positive*
%FSLAX46Y46*%
G04 Gerber Fmt 4.6, Leading zero omitted, Abs format (unit mm)*
G04 Created by KiCad (PCBNEW (5.99.0-8491-gb8dfcb34c4)) date 2021-01-19 19:45:49*
%MOMM*%
%LPD*%
G01*
G04 APERTURE LIST*
G04 Aperture macros list*
%AMRoundRect*
0 Rectangle with rounded corners*
0 $1 Rounding radius*
0 $2 $3 $4 $5 $6 $7 $8 $9 X,Y pos of 4 corners*
0 Add a 4 corners polygon primitive as box body*
4,1,4,$2,$3,$4,$5,$6,$7,$8,$9,$2,$3,0*
0 Add four circle primitives for the rounded corners*
1,1,$1+$1,$2,$3*
1,1,$1+$1,$4,$5*
1,1,$1+$1,$6,$7*
1,1,$1+$1,$8,$9*
0 Add four rect primitives between the rounded corners*
20,1,$1+$1,$2,$3,$4,$5,0*
20,1,$1+$1,$4,$5,$6,$7,0*
20,1,$1+$1,$6,$7,$8,$9,0*
20,1,$1+$1,$8,$9,$2,$3,0*%
G04 Aperture macros list end*
%ADD10R,0.875000X0.950000*%
%ADD11R,0.590000X0.640000*%
%ADD12R,1.250000X1.750000*%
%ADD13R,0.800000X0.250000*%
%ADD14R,0.250000X0.800000*%
%ADD15R,3.700000X3.700000*%
%ADD16RoundRect,0.250000X0.375000X1.075000X-0.375000X1.075000X-0.375000X-1.075000X0.375000X-1.075000X0*%
%ADD17RoundRect,0.250000X-0.375000X-1.075000X0.375000X-1.075000X0.375000X1.075000X-0.375000X1.075000X0*%
%ADD18R,0.650000X0.400000*%
%ADD19RoundRect,0.250000X-1.500000X-0.550000X1.500000X-0.550000X1.500000X0.550000X-1.500000X0.550000X0*%
%ADD20R,0.700000X0.500000*%
%ADD21R,0.700000X0.650000*%
%ADD22R,1.400000X0.700000*%
%ADD23R,0.680000X0.300000*%
G04 APERTURE END LIST*
D10*
X22800500Y20401000D03*
X24375500Y20401000D03*
X12361000Y18623000D03*
X13936000Y18623000D03*
X10710000Y22814000D03*
X12285000Y22814000D03*
X10735500Y21163000D03*
X12310500Y21163000D03*
D11*
X21856000Y26878000D03*
X22826000Y26878000D03*
X13428000Y26878000D03*
X12458000Y26878000D03*
D12*
X7208000Y27640000D03*
X4408000Y27640000D03*
X29046000Y27640000D03*
X31846000Y27640000D03*
D10*
X12412000Y10876000D03*
X13987000Y10876000D03*
D13*
X15182500Y24441000D03*
X15182500Y23941001D03*
X15182500Y23440999D03*
X15182500Y22941000D03*
X15182500Y22441001D03*
X15182500Y21940999D03*
X15182500Y21441000D03*
D14*
X16182500Y20441000D03*
X16682499Y20441000D03*
X17182501Y20441000D03*
X17682500Y20441000D03*
X18182499Y20441000D03*
X18682501Y20441000D03*
X19182500Y20441000D03*
D13*
X20182500Y21441000D03*
X20182500Y21940999D03*
X20182500Y22441001D03*
X20182500Y22941000D03*
X20182500Y23440999D03*
X20182500Y23941001D03*
X20182500Y24441000D03*
D14*
X19182500Y25441000D03*
X18682501Y25441000D03*
X18182499Y25441000D03*
X17682500Y25441000D03*
X17182501Y25441000D03*
X16682499Y25441000D03*
X16182500Y25441000D03*
D15*
X17682500Y22941000D03*
D10*
X26407500Y36530000D03*
X24832500Y36530000D03*
X26407500Y35006000D03*
X24832500Y35006000D03*
X8830500Y36530000D03*
X10405500Y36530000D03*
D16*
X24991000Y30738800D03*
X22191000Y30738800D03*
D17*
X10250000Y30713400D03*
X13050000Y30713400D03*
D10*
X8805000Y34879000D03*
X10380000Y34879000D03*
D18*
X8985500Y12415000D03*
X8985500Y11765000D03*
X8985500Y11115000D03*
X10885500Y11115000D03*
X10885500Y12415000D03*
D10*
X10850000Y14051000D03*
X9275000Y14051000D03*
X5909700Y14965400D03*
X4334700Y14965400D03*
D19*
X29050000Y11750000D03*
X34450000Y11750000D03*
D20*
X4436400Y13331800D03*
D21*
X4436400Y12431800D03*
D22*
X4436400Y12831800D03*
D23*
X3076400Y13581800D03*
X3076400Y13081800D03*
X3076400Y12581800D03*
X3076400Y12081800D03*
X5796400Y12081800D03*
X5796400Y12581800D03*
X5796400Y13081800D03*
X5796400Y13581800D03*
M02*
