M48
; DRILL file {KiCad 5.99.0-unknown-9aa2d7e101~106~ubuntu20.04.1} date Thu Dec 31 18:47:42 2020
; FORMAT={-:-/ absolute / metric / decimal}
; #@! TF.CreationDate,2020-12-31T18:47:42-08:00
; #@! TF.GenerationSoftware,Kicad,Pcbnew,5.99.0-unknown-9aa2d7e101~106~ubuntu20.04.1
; #@! TF.FileFunction,Plated,1,2,PTH
FMAT,2
METRIC
T1C0.300
T2C0.400
T3C0.500
T4C1.000
%
G90
G05
T1
X3.081Y11.532
X3.497Y14.991
X4.055Y12.4
X6.519Y11.028
X7.261Y9.199
X7.833Y10.758
X8.475Y13.987
X8.653Y7.98
X8.662Y10.998
X9.019Y8.759
X9.604Y8.138
X9.669Y6.822
X9.694Y23.805
X9.813Y10.998
X11.269Y26.878
X11.269Y18.623
X11.654Y11.799
X12.285Y6.38
X12.541Y11.742
X12.996Y25.583
X12.996Y24.541
X13.149Y6.38
X13.53Y11.867
X13.682Y24.541
X13.707Y25.583
X14.114Y6.418
X14.115Y9.899
X14.393Y25.583
X14.8Y11.867
X15.003Y6.533
X15.526Y12.893
X15.755Y10.933
X15.769Y9.694
X15.968Y32.72
X16.44Y15.6
X16.451Y23.576
X16.451Y22.306
X16.476Y9.217
X16.552Y7.388
X17.06Y32.72
X17.086Y24.211
X17.086Y22.941
X17.086Y21.671
X17.111Y28.224
X17.183Y16.94
X17.238Y26.497
X17.314Y15.778
X17.352Y7.095
X17.544Y14.948
X17.721Y23.576
X17.721Y22.306
X18.127Y26.497
X18.152Y8.667
X18.159Y7.815
X18.173Y15.68
X18.254Y28.224
X18.33Y32.72
X18.356Y24.211
X18.356Y22.941
X18.356Y21.671
X18.5Y17.5
X18.927Y23.576
X18.927Y22.306
X19.193Y14.874
X19.422Y32.72
X20.0Y17.75
X20.773Y14.931
X20.972Y25.633
X21.0Y19.5
X21.491Y7.706
X21.658Y24.592
X21.683Y25.633
X21.714Y8.977
X21.886Y10.292
X22.343Y24.567
X22.369Y25.633
X22.699Y9.987
X22.851Y14.813
X24.375Y26.853
X25.493Y20.401
X25.849Y22.687
X26.795Y21.011
T2
X35.5Y13.0
X35.5Y10.5
T3
X1.998Y33.228
X1.998Y30.942
X4.03Y33.228
X4.03Y30.942
X5.808Y33.228
X5.808Y30.942
X7.586Y33.228
X7.586Y30.942
X18.317Y6.825
X28.414Y33.228
X28.414Y30.942
X30.446Y33.228
X30.446Y30.942
X32.224Y33.228
X32.224Y30.942
X34.002Y33.228
X34.002Y30.942
T4
X13.809Y35.438
X16.349Y35.438
X18.889Y35.438
X21.429Y35.438
T0
M30
