G04 #@! TF.GenerationSoftware,KiCad,Pcbnew,5.99.0-unknown-43a4cf795~104~ubuntu20.04.1*
G04 #@! TF.CreationDate,2020-11-14T20:39:32-08:00*
G04 #@! TF.ProjectId,TMC2130_Driver,544d4332-3133-4305-9f44-72697665722e,rev?*
G04 #@! TF.SameCoordinates,PX67f3540PY6cb8080*
G04 #@! TF.FileFunction,Soldermask,Bot*
G04 #@! TF.FilePolarity,Negative*
%FSLAX46Y46*%
G04 Gerber Fmt 4.6, Leading zero omitted, Abs format (unit mm)*
G04 Created by KiCad (PCBNEW 5.99.0-unknown-43a4cf795~104~ubuntu20.04.1) date 2020-11-14 20:39:32*
%MOMM*%
%LPD*%
G01*
G04 APERTURE LIST*
%ADD10C,2.700000*%
%ADD11O,0.650000X0.650000*%
%ADD12R,0.650000X3.600000*%
%ADD13R,0.650000X4.600000*%
%ADD14R,1.778000X1.778000*%
%ADD15C,1.778000*%
%ADD16R,2.400000X2.400000*%
%ADD17C,2.400000*%
G04 APERTURE END LIST*
D10*
X2800000Y3256000D03*
X33750000Y3256000D03*
D11*
X12652800Y1014800D03*
X22652800Y1014800D03*
X17652800Y1014800D03*
X13652800Y1014800D03*
X15652800Y1014800D03*
X10652800Y1014800D03*
X25652800Y1014800D03*
X26652800Y1014800D03*
X21652800Y1014800D03*
X18652800Y1014800D03*
X24652800Y1014800D03*
X27652800Y1014800D03*
X9652800Y1014800D03*
X23652800Y1014800D03*
X11652800Y1014800D03*
X16652800Y1014800D03*
X14652800Y1014800D03*
D12*
X8652800Y3814800D03*
D13*
X9652800Y3314800D03*
X10652800Y3314800D03*
X11652800Y3314800D03*
X12652800Y3314800D03*
X13652800Y3314800D03*
X14652800Y3314800D03*
X15652800Y3314800D03*
X16652800Y3314800D03*
X17652800Y3314800D03*
X18652800Y3314800D03*
X21652800Y3314800D03*
X22652800Y3314800D03*
X23652800Y3314800D03*
X24652800Y3314800D03*
X25652800Y3314800D03*
X26652800Y3314800D03*
X27652800Y3314800D03*
D14*
X11440000Y35000000D03*
D15*
X13980000Y35000000D03*
X16520000Y35000000D03*
X19060000Y35000000D03*
D16*
X29250000Y35000000D03*
D17*
X25750000Y35000000D03*
G36*
X17731694Y30731694D02*
G01*
X17750000Y30687500D01*
X17750000Y14312500D01*
X17731694Y14268306D01*
X17687500Y14250000D01*
X11562500Y14250000D01*
X11518306Y14268306D01*
X11500000Y14312500D01*
X11500000Y30687500D01*
X11518306Y30731694D01*
X11562500Y30750000D01*
X17687500Y30750000D01*
X17731694Y30731694D01*
G37*
M02*
