M48
; DRILL file {KiCad 5.99.0-unknown-43a4cf795~104~ubuntu20.04.1} date Sat Nov 14 20:39:37 2020
; FORMAT={-:-/ absolute / metric / decimal}
; #@! TF.CreationDate,2020-11-14T20:39:37-08:00
; #@! TF.GenerationSoftware,Kicad,Pcbnew,5.99.0-unknown-43a4cf795~104~ubuntu20.04.1
; #@! TF.FileFunction,Plated,1,2,PTH
FMAT,2
METRIC
T1C0.300
T2C0.400
T3C1.000
T4C1.200
%
G90
G05
T1
X1.15Y29.15
X3.05Y18.75
X3.25Y31.75
X3.25Y29.25
X4.25Y30.25
X7.75Y30.75
X8.0Y33.25
X8.25Y23.0
X8.25Y20.5
X8.75Y8.25
X9.0Y23.0
X9.0Y20.5
X9.5Y19.25
X9.75Y9.512
X10.01Y8.304
X10.511Y7.614
X11.25Y19.3
X11.25Y18.25
X11.326Y7.863
X11.725Y10.117
X12.25Y31.3
X12.435Y6.696
X12.723Y7.904
X13.553Y7.254
X14.114Y8.937
X14.419Y27.881
X14.5Y19.5
X14.787Y7.206
X14.888Y10.063
X15.688Y9.407
X15.696Y12.312
X16.0Y13.75
X16.25Y31.0
X17.0Y30.0
X17.759Y12.497
X18.0Y13.5
X18.5Y15.5
X19.0Y19.25
X19.55Y12.75
X19.75Y19.25
X20.25Y9.311
X20.4Y23.0
X20.5Y20.5
X21.0Y15.51
X21.0Y10.25
X21.2Y23.0
X21.25Y20.5
X21.25Y13.75
X22.157Y7.392
X22.727Y25.5
X22.75Y23.34
X23.25Y33.0
X23.359Y9.415
X23.554Y32.0
X23.586Y8.577
X24.096Y31.221
X27.55Y30.624
X27.75Y28.5
X28.5Y29.5
X28.75Y19.5
X29.5Y23.75
X32.0Y22.5
T2
X1.5Y9.0
X3.25Y34.5
X4.75Y38.25
X5.0Y14.25
X7.25Y28.75
X8.5Y35.25
X9.5Y15.0
X12.75Y24.5
X12.75Y23.25
X14.0Y24.5
X14.0Y23.25
X15.0Y33.0
X15.25Y24.5
X15.25Y23.25
X16.5Y24.5
X16.5Y23.25
X17.323Y9.356
X17.45Y7.6
X21.0Y35.5
X21.5Y33.0
X26.5Y24.25
X29.0Y28.25
X29.0Y15.5
X29.75Y30.0
X30.75Y29.0
X30.75Y17.0
X31.0Y25.75
X31.25Y10.5
X31.25Y8.5
X32.5Y27.5
X32.5Y25.25
X32.5Y24.25
X33.0Y38.5
X34.75Y10.5
X34.75Y8.5
X35.75Y16.75
T3
X11.44Y35.0
X13.98Y35.0
X16.52Y35.0
X19.06Y35.0
T4
X25.75Y35.0
X29.25Y35.0
T0
M30
