G04 #@! TF.GenerationSoftware,KiCad,Pcbnew,(5.99.0-8491-gb8dfcb34c4)*
G04 #@! TF.CreationDate,2021-01-19T19:49:40+01:00*
G04 #@! TF.ProjectId,TMC2130_Driver,544d4332-3133-4305-9f44-72697665722e,rev?*
G04 #@! TF.SameCoordinates,PX67f3540PY6cb8080*
G04 #@! TF.FileFunction,Legend,Bot*
G04 #@! TF.FilePolarity,Positive*
%FSLAX46Y46*%
G04 Gerber Fmt 4.6, Leading zero omitted, Abs format (unit mm)*
G04 Created by KiCad (PCBNEW (5.99.0-8491-gb8dfcb34c4)) date 2021-01-19 19:49:40*
%MOMM*%
%LPD*%
G01*
G04 APERTURE LIST*
%ADD10C,0.150000*%
%ADD11C,0.010000*%
G04 APERTURE END LIST*
D10*
X29642857Y37678572D02*
X28880952Y37678572D01*
X29261904Y37297620D02*
X29261904Y38059524D01*
X26119047Y37678572D02*
X25357142Y37678572D01*
X29690476Y31852620D02*
X30261904Y31852620D01*
X29976190Y31852620D02*
X29976190Y32852620D01*
X30071428Y32709762D01*
X30166666Y32614524D01*
X30261904Y32566905D01*
X29309523Y32757381D02*
X29261904Y32805000D01*
X29166666Y32852620D01*
X28928571Y32852620D01*
X28833333Y32805000D01*
X28785714Y32757381D01*
X28738095Y32662143D01*
X28738095Y32566905D01*
X28785714Y32424048D01*
X29357142Y31852620D01*
X28738095Y31852620D01*
X28309523Y32233572D02*
X27547619Y32233572D01*
X26642857Y32519286D02*
X26642857Y31852620D01*
X26880952Y32900239D02*
X27119047Y32185953D01*
X26500000Y32185953D01*
X26166666Y32757381D02*
X26119047Y32805000D01*
X26023809Y32852620D01*
X25785714Y32852620D01*
X25690476Y32805000D01*
X25642857Y32757381D01*
X25595238Y32662143D01*
X25595238Y32566905D01*
X25642857Y32424048D01*
X26214285Y31852620D01*
X25595238Y31852620D01*
X25309523Y32852620D02*
X24976190Y31852620D01*
X24642857Y32852620D01*
X28261904Y30242620D02*
X28261904Y31242620D01*
X28023809Y31242620D01*
X27880952Y31195000D01*
X27785714Y31099762D01*
X27738095Y31004524D01*
X27690476Y30814048D01*
X27690476Y30671191D01*
X27738095Y30480715D01*
X27785714Y30385477D01*
X27880952Y30290239D01*
X28023809Y30242620D01*
X28261904Y30242620D01*
X26690476Y30337858D02*
X26738095Y30290239D01*
X26880952Y30242620D01*
X26976190Y30242620D01*
X27119047Y30290239D01*
X27214285Y30385477D01*
X27261904Y30480715D01*
X27309523Y30671191D01*
X27309523Y30814048D01*
X27261904Y31004524D01*
X27214285Y31099762D01*
X27119047Y31195000D01*
X26976190Y31242620D01*
X26880952Y31242620D01*
X26738095Y31195000D01*
X26690476Y31147381D01*
D11*
X24720167Y10791337D02*
X24717952Y10753150D01*
X24717952Y10753150D02*
X24716216Y10695114D01*
X24716216Y10695114D02*
X24715101Y10621820D01*
X24715101Y10621820D02*
X24714743Y10544945D01*
X24714743Y10544945D02*
X24714743Y10284804D01*
X24714743Y10284804D02*
X24760674Y10238873D01*
X24760674Y10238873D02*
X24792325Y10210571D01*
X24792325Y10210571D02*
X24820110Y10199107D01*
X24820110Y10199107D02*
X24858085Y10199832D01*
X24858085Y10199832D02*
X24873160Y10201679D01*
X24873160Y10201679D02*
X24920274Y10207052D01*
X24920274Y10207052D02*
X24959244Y10210131D01*
X24959244Y10210131D02*
X24968743Y10210415D01*
X24968743Y10210415D02*
X25000767Y10208555D01*
X25000767Y10208555D02*
X25046568Y10203886D01*
X25046568Y10203886D02*
X25064326Y10201679D01*
X25064326Y10201679D02*
X25107943Y10198265D01*
X25107943Y10198265D02*
X25137255Y10205680D01*
X25137255Y10205680D02*
X25166320Y10228573D01*
X25166320Y10228573D02*
X25176812Y10238873D01*
X25176812Y10238873D02*
X25222743Y10284804D01*
X25222743Y10284804D02*
X25222743Y10771398D01*
X25222743Y10771398D02*
X25185774Y10788242D01*
X25185774Y10788242D02*
X25153941Y10800718D01*
X25153941Y10800718D02*
X25135317Y10805086D01*
X25135317Y10805086D02*
X25130542Y10791282D01*
X25130542Y10791282D02*
X25126079Y10752714D01*
X25126079Y10752714D02*
X25122225Y10693644D01*
X25122225Y10693644D02*
X25119278Y10618337D01*
X25119278Y10618337D02*
X25117857Y10554714D01*
X25117857Y10554714D02*
X25113886Y10304343D01*
X25113886Y10304343D02*
X25079241Y10299444D01*
X25079241Y10299444D02*
X25047732Y10302869D01*
X25047732Y10302869D02*
X25032292Y10313959D01*
X25032292Y10313959D02*
X25027977Y10334692D01*
X25027977Y10334692D02*
X25024292Y10378855D01*
X25024292Y10378855D02*
X25021531Y10440854D01*
X25021531Y10440854D02*
X25019988Y10515091D01*
X25019988Y10515091D02*
X25019765Y10553294D01*
X25019765Y10553294D02*
X25019543Y10773217D01*
X25019543Y10773217D02*
X24973834Y10789151D01*
X24973834Y10789151D02*
X24941482Y10799985D01*
X24941482Y10799985D02*
X24923885Y10805038D01*
X24923885Y10805038D02*
X24923377Y10805086D01*
X24923377Y10805086D02*
X24921612Y10791352D01*
X24921612Y10791352D02*
X24919671Y10753270D01*
X24919671Y10753270D02*
X24917718Y10695518D01*
X24917718Y10695518D02*
X24915916Y10622773D01*
X24915916Y10622773D02*
X24914657Y10554714D01*
X24914657Y10554714D02*
X24910686Y10304343D01*
X24910686Y10304343D02*
X24823600Y10304343D01*
X24823600Y10304343D02*
X24819604Y10532760D01*
X24819604Y10532760D02*
X24815608Y10761178D01*
X24815608Y10761178D02*
X24773153Y10783132D01*
X24773153Y10783132D02*
X24741808Y10798207D01*
X24741808Y10798207D02*
X24723256Y10805049D01*
X24723256Y10805049D02*
X24722721Y10805086D01*
X24722721Y10805086D02*
X24720167Y10791337D01*
X24720167Y10791337D02*
X24720167Y10791337D01*
G36*
X25153941Y10800718D02*
G01*
X25185774Y10788242D01*
X25222743Y10771398D01*
X25222743Y10284804D01*
X25176812Y10238873D01*
X25166320Y10228573D01*
X25137255Y10205680D01*
X25107943Y10198265D01*
X25064326Y10201679D01*
X25046568Y10203886D01*
X25000767Y10208555D01*
X24968743Y10210415D01*
X24959244Y10210131D01*
X24920274Y10207052D01*
X24873160Y10201679D01*
X24858085Y10199832D01*
X24820110Y10199107D01*
X24792325Y10210571D01*
X24760674Y10238873D01*
X24714743Y10284804D01*
X24714743Y10544945D01*
X24715101Y10621820D01*
X24716216Y10695114D01*
X24717952Y10753150D01*
X24720167Y10791337D01*
X24722721Y10805086D01*
X24723256Y10805049D01*
X24741808Y10798207D01*
X24773153Y10783132D01*
X24815608Y10761178D01*
X24819604Y10532760D01*
X24823600Y10304343D01*
X24910686Y10304343D01*
X24914657Y10554714D01*
X24915916Y10622773D01*
X24917718Y10695518D01*
X24919671Y10753270D01*
X24921612Y10791352D01*
X24923377Y10805086D01*
X24923885Y10805038D01*
X24941482Y10799985D01*
X24973834Y10789151D01*
X25019543Y10773217D01*
X25019765Y10553294D01*
X25019988Y10515091D01*
X25021531Y10440854D01*
X25024292Y10378855D01*
X25027977Y10334692D01*
X25032292Y10313959D01*
X25047732Y10302869D01*
X25079241Y10299444D01*
X25113886Y10304343D01*
X25117857Y10554714D01*
X25119278Y10618337D01*
X25122225Y10693644D01*
X25126079Y10752714D01*
X25130542Y10791282D01*
X25135317Y10805086D01*
X25153941Y10800718D01*
G37*
X25153941Y10800718D02*
X25185774Y10788242D01*
X25222743Y10771398D01*
X25222743Y10284804D01*
X25176812Y10238873D01*
X25166320Y10228573D01*
X25137255Y10205680D01*
X25107943Y10198265D01*
X25064326Y10201679D01*
X25046568Y10203886D01*
X25000767Y10208555D01*
X24968743Y10210415D01*
X24959244Y10210131D01*
X24920274Y10207052D01*
X24873160Y10201679D01*
X24858085Y10199832D01*
X24820110Y10199107D01*
X24792325Y10210571D01*
X24760674Y10238873D01*
X24714743Y10284804D01*
X24714743Y10544945D01*
X24715101Y10621820D01*
X24716216Y10695114D01*
X24717952Y10753150D01*
X24720167Y10791337D01*
X24722721Y10805086D01*
X24723256Y10805049D01*
X24741808Y10798207D01*
X24773153Y10783132D01*
X24815608Y10761178D01*
X24819604Y10532760D01*
X24823600Y10304343D01*
X24910686Y10304343D01*
X24914657Y10554714D01*
X24915916Y10622773D01*
X24917718Y10695518D01*
X24919671Y10753270D01*
X24921612Y10791352D01*
X24923377Y10805086D01*
X24923885Y10805038D01*
X24941482Y10799985D01*
X24973834Y10789151D01*
X25019543Y10773217D01*
X25019765Y10553294D01*
X25019988Y10515091D01*
X25021531Y10440854D01*
X25024292Y10378855D01*
X25027977Y10334692D01*
X25032292Y10313959D01*
X25047732Y10302869D01*
X25079241Y10299444D01*
X25113886Y10304343D01*
X25117857Y10554714D01*
X25119278Y10618337D01*
X25122225Y10693644D01*
X25126079Y10752714D01*
X25130542Y10791282D01*
X25135317Y10805086D01*
X25153941Y10800718D01*
X23847400Y10791248D02*
X23830052Y10783666D01*
X23830052Y10783666D02*
X23788644Y10750872D01*
X23788644Y10750872D02*
X23753235Y10703453D01*
X23753235Y10703453D02*
X23731336Y10652849D01*
X23731336Y10652849D02*
X23727771Y10627902D01*
X23727771Y10627902D02*
X23739721Y10593073D01*
X23739721Y10593073D02*
X23765933Y10574643D01*
X23765933Y10574643D02*
X23794036Y10563484D01*
X23794036Y10563484D02*
X23806905Y10561428D01*
X23806905Y10561428D02*
X23813171Y10576351D01*
X23813171Y10576351D02*
X23825544Y10608825D01*
X23825544Y10608825D02*
X23830972Y10623498D01*
X23830972Y10623498D02*
X23861410Y10674256D01*
X23861410Y10674256D02*
X23905480Y10699573D01*
X23905480Y10699573D02*
X23961990Y10698794D01*
X23961990Y10698794D02*
X23966175Y10697797D01*
X23966175Y10697797D02*
X23996345Y10683493D01*
X23996345Y10683493D02*
X24018524Y10655607D01*
X24018524Y10655607D02*
X24033673Y10610713D01*
X24033673Y10610713D02*
X24042750Y10545385D01*
X24042750Y10545385D02*
X24046714Y10456196D01*
X24046714Y10456196D02*
X24047086Y10408739D01*
X24047086Y10408739D02*
X24047270Y10333929D01*
X24047270Y10333929D02*
X24048478Y10282931D01*
X24048478Y10282931D02*
X24051691Y10250529D01*
X24051691Y10250529D02*
X24057891Y10231505D01*
X24057891Y10231505D02*
X24068060Y10220644D01*
X24068060Y10220644D02*
X24083181Y10212728D01*
X24083181Y10212728D02*
X24084054Y10212330D01*
X24084054Y10212330D02*
X24113172Y10200019D01*
X24113172Y10200019D02*
X24127597Y10195486D01*
X24127597Y10195486D02*
X24129814Y10209191D01*
X24129814Y10209191D02*
X24131711Y10247075D01*
X24131711Y10247075D02*
X24133153Y10304285D01*
X24133153Y10304285D02*
X24134002Y10375973D01*
X24134002Y10375973D02*
X24134171Y10428435D01*
X24134171Y10428435D02*
X24133308Y10529953D01*
X24133308Y10529953D02*
X24129930Y10606968D01*
X24129930Y10606968D02*
X24122858Y10663977D01*
X24122858Y10663977D02*
X24110912Y10705474D01*
X24110912Y10705474D02*
X24092910Y10735957D01*
X24092910Y10735957D02*
X24067673Y10759920D01*
X24067673Y10759920D02*
X24042753Y10776645D01*
X24042753Y10776645D02*
X23982829Y10798903D01*
X23982829Y10798903D02*
X23913089Y10803924D01*
X23913089Y10803924D02*
X23847400Y10791248D01*
X23847400Y10791248D02*
X23847400Y10791248D01*
G36*
X23982829Y10798903D02*
G01*
X24042753Y10776645D01*
X24067673Y10759920D01*
X24092910Y10735957D01*
X24110912Y10705474D01*
X24122858Y10663977D01*
X24129930Y10606968D01*
X24133308Y10529953D01*
X24134171Y10428435D01*
X24134002Y10375973D01*
X24133153Y10304285D01*
X24131711Y10247075D01*
X24129814Y10209191D01*
X24127597Y10195486D01*
X24113172Y10200019D01*
X24084054Y10212330D01*
X24083181Y10212728D01*
X24068060Y10220644D01*
X24057891Y10231505D01*
X24051691Y10250529D01*
X24048478Y10282931D01*
X24047270Y10333929D01*
X24047086Y10408739D01*
X24046714Y10456196D01*
X24042750Y10545385D01*
X24033673Y10610713D01*
X24018524Y10655607D01*
X23996345Y10683493D01*
X23966175Y10697797D01*
X23961990Y10698794D01*
X23905480Y10699573D01*
X23861410Y10674256D01*
X23830972Y10623498D01*
X23825544Y10608825D01*
X23813171Y10576351D01*
X23806905Y10561428D01*
X23794036Y10563484D01*
X23765933Y10574643D01*
X23739721Y10593073D01*
X23727771Y10627902D01*
X23731336Y10652849D01*
X23753235Y10703453D01*
X23788644Y10750872D01*
X23830052Y10783666D01*
X23847400Y10791248D01*
X23913089Y10803924D01*
X23982829Y10798903D01*
G37*
X23982829Y10798903D02*
X24042753Y10776645D01*
X24067673Y10759920D01*
X24092910Y10735957D01*
X24110912Y10705474D01*
X24122858Y10663977D01*
X24129930Y10606968D01*
X24133308Y10529953D01*
X24134171Y10428435D01*
X24134002Y10375973D01*
X24133153Y10304285D01*
X24131711Y10247075D01*
X24129814Y10209191D01*
X24127597Y10195486D01*
X24113172Y10200019D01*
X24084054Y10212330D01*
X24083181Y10212728D01*
X24068060Y10220644D01*
X24057891Y10231505D01*
X24051691Y10250529D01*
X24048478Y10282931D01*
X24047270Y10333929D01*
X24047086Y10408739D01*
X24046714Y10456196D01*
X24042750Y10545385D01*
X24033673Y10610713D01*
X24018524Y10655607D01*
X23996345Y10683493D01*
X23966175Y10697797D01*
X23961990Y10698794D01*
X23905480Y10699573D01*
X23861410Y10674256D01*
X23830972Y10623498D01*
X23825544Y10608825D01*
X23813171Y10576351D01*
X23806905Y10561428D01*
X23794036Y10563484D01*
X23765933Y10574643D01*
X23739721Y10593073D01*
X23727771Y10627902D01*
X23731336Y10652849D01*
X23753235Y10703453D01*
X23788644Y10750872D01*
X23830052Y10783666D01*
X23847400Y10791248D01*
X23913089Y10803924D01*
X23982829Y10798903D01*
X27124114Y10898711D02*
X27119861Y10839387D01*
X27119861Y10839387D02*
X27114975Y10804428D01*
X27114975Y10804428D02*
X27108205Y10789180D01*
X27108205Y10789180D02*
X27098298Y10788985D01*
X27098298Y10788985D02*
X27095086Y10790805D01*
X27095086Y10790805D02*
X27052356Y10803985D01*
X27052356Y10803985D02*
X26996773Y10803215D01*
X26996773Y10803215D02*
X26940263Y10789667D01*
X26940263Y10789667D02*
X26904918Y10772139D01*
X26904918Y10772139D02*
X26868679Y10744139D01*
X26868679Y10744139D02*
X26842187Y10712451D01*
X26842187Y10712451D02*
X26824001Y10672187D01*
X26824001Y10672187D02*
X26812678Y10618457D01*
X26812678Y10618457D02*
X26806778Y10546374D01*
X26806778Y10546374D02*
X26804857Y10451049D01*
X26804857Y10451049D02*
X26804823Y10432763D01*
X26804823Y10432763D02*
X26804800Y10227354D01*
X26804800Y10227354D02*
X26850509Y10211420D01*
X26850509Y10211420D02*
X26882973Y10200580D01*
X26882973Y10200580D02*
X26900785Y10195532D01*
X26900785Y10195532D02*
X26901309Y10195486D01*
X26901309Y10195486D02*
X26903063Y10209172D01*
X26903063Y10209172D02*
X26904556Y10246924D01*
X26904556Y10246924D02*
X26905674Y10303776D01*
X26905674Y10303776D02*
X26906303Y10374766D01*
X26906303Y10374766D02*
X26906400Y10417927D01*
X26906400Y10417927D02*
X26906602Y10503027D01*
X26906602Y10503027D02*
X26907642Y10564019D01*
X26907642Y10564019D02*
X26910169Y10605823D01*
X26910169Y10605823D02*
X26914836Y10633358D01*
X26914836Y10633358D02*
X26922293Y10651544D01*
X26922293Y10651544D02*
X26933189Y10665302D01*
X26933189Y10665302D02*
X26939993Y10671927D01*
X26939993Y10671927D02*
X26986728Y10698625D01*
X26986728Y10698625D02*
X27037728Y10700625D01*
X27037728Y10700625D02*
X27083999Y10678045D01*
X27083999Y10678045D02*
X27092556Y10669893D01*
X27092556Y10669893D02*
X27105107Y10654564D01*
X27105107Y10654564D02*
X27113812Y10636382D01*
X27113812Y10636382D02*
X27119369Y10610091D01*
X27119369Y10610091D02*
X27122474Y10570438D01*
X27122474Y10570438D02*
X27123824Y10512168D01*
X27123824Y10512168D02*
X27124114Y10431827D01*
X27124114Y10431827D02*
X27124114Y10227354D01*
X27124114Y10227354D02*
X27169823Y10211420D01*
X27169823Y10211420D02*
X27202287Y10200580D01*
X27202287Y10200580D02*
X27220099Y10195532D01*
X27220099Y10195532D02*
X27220623Y10195486D01*
X27220623Y10195486D02*
X27221963Y10209377D01*
X27221963Y10209377D02*
X27223172Y10248561D01*
X27223172Y10248561D02*
X27224199Y10309300D01*
X27224199Y10309300D02*
X27224998Y10387859D01*
X27224998Y10387859D02*
X27225519Y10480502D01*
X27225519Y10480502D02*
X27225714Y10583491D01*
X27225714Y10583491D02*
X27225714Y10980658D01*
X27225714Y10980658D02*
X27178543Y11000556D01*
X27178543Y11000556D02*
X27131371Y11020453D01*
X27131371Y11020453D02*
X27124114Y10898711D01*
X27124114Y10898711D02*
X27124114Y10898711D01*
G36*
X27178543Y11000556D02*
G01*
X27225714Y10980658D01*
X27225714Y10583491D01*
X27225519Y10480502D01*
X27224998Y10387859D01*
X27224199Y10309300D01*
X27223172Y10248561D01*
X27221963Y10209377D01*
X27220623Y10195486D01*
X27220099Y10195532D01*
X27202287Y10200580D01*
X27169823Y10211420D01*
X27124114Y10227354D01*
X27124114Y10431827D01*
X27123824Y10512168D01*
X27122474Y10570438D01*
X27119369Y10610091D01*
X27113812Y10636382D01*
X27105107Y10654564D01*
X27092556Y10669893D01*
X27083999Y10678045D01*
X27037728Y10700625D01*
X26986728Y10698625D01*
X26939993Y10671927D01*
X26933189Y10665302D01*
X26922293Y10651544D01*
X26914836Y10633358D01*
X26910169Y10605823D01*
X26907642Y10564019D01*
X26906602Y10503027D01*
X26906400Y10417927D01*
X26906303Y10374766D01*
X26905674Y10303776D01*
X26904556Y10246924D01*
X26903063Y10209172D01*
X26901309Y10195486D01*
X26900785Y10195532D01*
X26882973Y10200580D01*
X26850509Y10211420D01*
X26804800Y10227354D01*
X26804823Y10432763D01*
X26804857Y10451049D01*
X26806778Y10546374D01*
X26812678Y10618457D01*
X26824001Y10672187D01*
X26842187Y10712451D01*
X26868679Y10744139D01*
X26904918Y10772139D01*
X26940263Y10789667D01*
X26996773Y10803215D01*
X27052356Y10803985D01*
X27095086Y10790805D01*
X27098298Y10788985D01*
X27108205Y10789180D01*
X27114975Y10804428D01*
X27119861Y10839387D01*
X27124114Y10898711D01*
X27131371Y11020453D01*
X27178543Y11000556D01*
G37*
X27178543Y11000556D02*
X27225714Y10980658D01*
X27225714Y10583491D01*
X27225519Y10480502D01*
X27224998Y10387859D01*
X27224199Y10309300D01*
X27223172Y10248561D01*
X27221963Y10209377D01*
X27220623Y10195486D01*
X27220099Y10195532D01*
X27202287Y10200580D01*
X27169823Y10211420D01*
X27124114Y10227354D01*
X27124114Y10431827D01*
X27123824Y10512168D01*
X27122474Y10570438D01*
X27119369Y10610091D01*
X27113812Y10636382D01*
X27105107Y10654564D01*
X27092556Y10669893D01*
X27083999Y10678045D01*
X27037728Y10700625D01*
X26986728Y10698625D01*
X26939993Y10671927D01*
X26933189Y10665302D01*
X26922293Y10651544D01*
X26914836Y10633358D01*
X26910169Y10605823D01*
X26907642Y10564019D01*
X26906602Y10503027D01*
X26906400Y10417927D01*
X26906303Y10374766D01*
X26905674Y10303776D01*
X26904556Y10246924D01*
X26903063Y10209172D01*
X26901309Y10195486D01*
X26900785Y10195532D01*
X26882973Y10200580D01*
X26850509Y10211420D01*
X26804800Y10227354D01*
X26804823Y10432763D01*
X26804857Y10451049D01*
X26806778Y10546374D01*
X26812678Y10618457D01*
X26824001Y10672187D01*
X26842187Y10712451D01*
X26868679Y10744139D01*
X26904918Y10772139D01*
X26940263Y10789667D01*
X26996773Y10803215D01*
X27052356Y10803985D01*
X27095086Y10790805D01*
X27098298Y10788985D01*
X27108205Y10789180D01*
X27114975Y10804428D01*
X27119861Y10839387D01*
X27124114Y10898711D01*
X27131371Y11020453D01*
X27178543Y11000556D01*
X23346405Y10783034D02*
X23288979Y10745503D01*
X23288979Y10745503D02*
X23261281Y10711904D01*
X23261281Y10711904D02*
X23239338Y10650936D01*
X23239338Y10650936D02*
X23237595Y10602692D01*
X23237595Y10602692D02*
X23241543Y10538184D01*
X23241543Y10538184D02*
X23390314Y10473066D01*
X23390314Y10473066D02*
X23462651Y10439798D01*
X23462651Y10439798D02*
X23509916Y10413036D01*
X23509916Y10413036D02*
X23534493Y10389856D01*
X23534493Y10389856D02*
X23538763Y10367333D01*
X23538763Y10367333D02*
X23525111Y10342545D01*
X23525111Y10342545D02*
X23510057Y10326114D01*
X23510057Y10326114D02*
X23466254Y10299765D01*
X23466254Y10299765D02*
X23418611Y10297919D01*
X23418611Y10297919D02*
X23374855Y10318454D01*
X23374855Y10318454D02*
X23342711Y10359248D01*
X23342711Y10359248D02*
X23336962Y10373653D01*
X23336962Y10373653D02*
X23309424Y10418644D01*
X23309424Y10418644D02*
X23277742Y10437818D01*
X23277742Y10437818D02*
X23234286Y10454221D01*
X23234286Y10454221D02*
X23234286Y10392034D01*
X23234286Y10392034D02*
X23238128Y10349717D01*
X23238128Y10349717D02*
X23253177Y10314031D01*
X23253177Y10314031D02*
X23284720Y10273057D01*
X23284720Y10273057D02*
X23289408Y10267733D01*
X23289408Y10267733D02*
X23324494Y10231280D01*
X23324494Y10231280D02*
X23354653Y10211717D01*
X23354653Y10211717D02*
X23392385Y10202717D01*
X23392385Y10202717D02*
X23423665Y10199770D01*
X23423665Y10199770D02*
X23479615Y10199035D01*
X23479615Y10199035D02*
X23519445Y10208340D01*
X23519445Y10208340D02*
X23544292Y10222154D01*
X23544292Y10222154D02*
X23583344Y10252533D01*
X23583344Y10252533D02*
X23610375Y10285387D01*
X23610375Y10285387D02*
X23627483Y10326706D01*
X23627483Y10326706D02*
X23636762Y10382479D01*
X23636762Y10382479D02*
X23640307Y10458695D01*
X23640307Y10458695D02*
X23640590Y10497378D01*
X23640590Y10497378D02*
X23639628Y10543753D01*
X23639628Y10543753D02*
X23551993Y10543753D01*
X23551993Y10543753D02*
X23550977Y10518874D01*
X23550977Y10518874D02*
X23548444Y10514800D01*
X23548444Y10514800D02*
X23531726Y10520335D01*
X23531726Y10520335D02*
X23495751Y10534983D01*
X23495751Y10534983D02*
X23447669Y10555810D01*
X23447669Y10555810D02*
X23437614Y10560286D01*
X23437614Y10560286D02*
X23376848Y10591186D01*
X23376848Y10591186D02*
X23343368Y10618343D01*
X23343368Y10618343D02*
X23336010Y10643780D01*
X23336010Y10643780D02*
X23353609Y10669519D01*
X23353609Y10669519D02*
X23368144Y10680891D01*
X23368144Y10680891D02*
X23420590Y10703636D01*
X23420590Y10703636D02*
X23469678Y10699878D01*
X23469678Y10699878D02*
X23510773Y10672116D01*
X23510773Y10672116D02*
X23539242Y10622848D01*
X23539242Y10622848D02*
X23548369Y10583743D01*
X23548369Y10583743D02*
X23551993Y10543753D01*
X23551993Y10543753D02*
X23639628Y10543753D01*
X23639628Y10543753D02*
X23638715Y10587751D01*
X23638715Y10587751D02*
X23631804Y10654616D01*
X23631804Y10654616D02*
X23618116Y10703305D01*
X23618116Y10703305D02*
X23595904Y10739151D01*
X23595904Y10739151D02*
X23563426Y10767487D01*
X23563426Y10767487D02*
X23549267Y10776645D01*
X23549267Y10776645D02*
X23484947Y10800493D01*
X23484947Y10800493D02*
X23414527Y10801994D01*
X23414527Y10801994D02*
X23346405Y10783034D01*
X23346405Y10783034D02*
X23346405Y10783034D01*
G36*
X23640307Y10458695D02*
G01*
X23636762Y10382479D01*
X23627483Y10326706D01*
X23610375Y10285387D01*
X23583344Y10252533D01*
X23544292Y10222154D01*
X23519445Y10208340D01*
X23479615Y10199035D01*
X23423665Y10199770D01*
X23392385Y10202717D01*
X23354653Y10211717D01*
X23324494Y10231280D01*
X23289408Y10267733D01*
X23284720Y10273057D01*
X23253177Y10314031D01*
X23238128Y10349717D01*
X23234286Y10392034D01*
X23234286Y10454221D01*
X23277742Y10437818D01*
X23309424Y10418644D01*
X23336962Y10373653D01*
X23342711Y10359248D01*
X23374855Y10318454D01*
X23418611Y10297919D01*
X23466254Y10299765D01*
X23510057Y10326114D01*
X23525111Y10342545D01*
X23538763Y10367333D01*
X23534493Y10389856D01*
X23509916Y10413036D01*
X23462651Y10439798D01*
X23390314Y10473066D01*
X23241543Y10538184D01*
X23237595Y10602692D01*
X23239079Y10643780D01*
X23336010Y10643780D01*
X23343368Y10618343D01*
X23376848Y10591186D01*
X23437614Y10560286D01*
X23447669Y10555810D01*
X23495751Y10534983D01*
X23531726Y10520335D01*
X23548444Y10514800D01*
X23550977Y10518874D01*
X23551993Y10543753D01*
X23548369Y10583743D01*
X23539242Y10622848D01*
X23510773Y10672116D01*
X23469678Y10699878D01*
X23420590Y10703636D01*
X23368144Y10680891D01*
X23353609Y10669519D01*
X23336010Y10643780D01*
X23239079Y10643780D01*
X23239338Y10650936D01*
X23261281Y10711904D01*
X23288979Y10745503D01*
X23346405Y10783034D01*
X23414527Y10801994D01*
X23484947Y10800493D01*
X23549267Y10776645D01*
X23563426Y10767487D01*
X23595904Y10739151D01*
X23618116Y10703305D01*
X23631804Y10654616D01*
X23638715Y10587751D01*
X23639628Y10543753D01*
X23640590Y10497378D01*
X23640307Y10458695D01*
G37*
X23640307Y10458695D02*
X23636762Y10382479D01*
X23627483Y10326706D01*
X23610375Y10285387D01*
X23583344Y10252533D01*
X23544292Y10222154D01*
X23519445Y10208340D01*
X23479615Y10199035D01*
X23423665Y10199770D01*
X23392385Y10202717D01*
X23354653Y10211717D01*
X23324494Y10231280D01*
X23289408Y10267733D01*
X23284720Y10273057D01*
X23253177Y10314031D01*
X23238128Y10349717D01*
X23234286Y10392034D01*
X23234286Y10454221D01*
X23277742Y10437818D01*
X23309424Y10418644D01*
X23336962Y10373653D01*
X23342711Y10359248D01*
X23374855Y10318454D01*
X23418611Y10297919D01*
X23466254Y10299765D01*
X23510057Y10326114D01*
X23525111Y10342545D01*
X23538763Y10367333D01*
X23534493Y10389856D01*
X23509916Y10413036D01*
X23462651Y10439798D01*
X23390314Y10473066D01*
X23241543Y10538184D01*
X23237595Y10602692D01*
X23239079Y10643780D01*
X23336010Y10643780D01*
X23343368Y10618343D01*
X23376848Y10591186D01*
X23437614Y10560286D01*
X23447669Y10555810D01*
X23495751Y10534983D01*
X23531726Y10520335D01*
X23548444Y10514800D01*
X23550977Y10518874D01*
X23551993Y10543753D01*
X23548369Y10583743D01*
X23539242Y10622848D01*
X23510773Y10672116D01*
X23469678Y10699878D01*
X23420590Y10703636D01*
X23368144Y10680891D01*
X23353609Y10669519D01*
X23336010Y10643780D01*
X23239079Y10643780D01*
X23239338Y10650936D01*
X23261281Y10711904D01*
X23288979Y10745503D01*
X23346405Y10783034D01*
X23414527Y10801994D01*
X23484947Y10800493D01*
X23549267Y10776645D01*
X23563426Y10767487D01*
X23595904Y10739151D01*
X23618116Y10703305D01*
X23631804Y10654616D01*
X23638715Y10587751D01*
X23639628Y10543753D01*
X23640590Y10497378D01*
X23640307Y10458695D01*
X25970074Y10800245D02*
X25904142Y10775916D01*
X25904142Y10775916D02*
X25850727Y10732883D01*
X25850727Y10732883D02*
X25829836Y10702591D01*
X25829836Y10702591D02*
X25807061Y10647006D01*
X25807061Y10647006D02*
X25807534Y10606814D01*
X25807534Y10606814D02*
X25831438Y10579783D01*
X25831438Y10579783D02*
X25840283Y10575187D01*
X25840283Y10575187D02*
X25878470Y10560856D01*
X25878470Y10560856D02*
X25897972Y10564528D01*
X25897972Y10564528D02*
X25904578Y10588593D01*
X25904578Y10588593D02*
X25904914Y10601886D01*
X25904914Y10601886D02*
X25917008Y10650790D01*
X25917008Y10650790D02*
X25948529Y10685001D01*
X25948529Y10685001D02*
X25992341Y10701524D01*
X25992341Y10701524D02*
X26041305Y10697366D01*
X26041305Y10697366D02*
X26081106Y10675773D01*
X26081106Y10675773D02*
X26094550Y10663456D01*
X26094550Y10663456D02*
X26104079Y10648513D01*
X26104079Y10648513D02*
X26110515Y10625925D01*
X26110515Y10625925D02*
X26114683Y10590672D01*
X26114683Y10590672D02*
X26117403Y10537734D01*
X26117403Y10537734D02*
X26119498Y10462093D01*
X26119498Y10462093D02*
X26120040Y10438143D01*
X26120040Y10438143D02*
X26122019Y10356210D01*
X26122019Y10356210D02*
X26124269Y10298545D01*
X26124269Y10298545D02*
X26127643Y10260392D01*
X26127643Y10260392D02*
X26132994Y10236996D01*
X26132994Y10236996D02*
X26141176Y10223602D01*
X26141176Y10223602D02*
X26153041Y10215455D01*
X26153041Y10215455D02*
X26160638Y10211856D01*
X26160638Y10211856D02*
X26192898Y10199548D01*
X26192898Y10199548D02*
X26211889Y10195486D01*
X26211889Y10195486D02*
X26218164Y10209052D01*
X26218164Y10209052D02*
X26221994Y10250066D01*
X26221994Y10250066D02*
X26223400Y10319001D01*
X26223400Y10319001D02*
X26222402Y10416331D01*
X26222402Y10416331D02*
X26222092Y10431343D01*
X26222092Y10431343D02*
X26219899Y10520141D01*
X26219899Y10520141D02*
X26217307Y10584981D01*
X26217307Y10584981D02*
X26213618Y10630933D01*
X26213618Y10630933D02*
X26208136Y10663065D01*
X26208136Y10663065D02*
X26200165Y10686447D01*
X26200165Y10686447D02*
X26189007Y10706148D01*
X26189007Y10706148D02*
X26183170Y10714590D01*
X26183170Y10714590D02*
X26149704Y10751943D01*
X26149704Y10751943D02*
X26112273Y10780997D01*
X26112273Y10780997D02*
X26107691Y10783533D01*
X26107691Y10783533D02*
X26040574Y10803557D01*
X26040574Y10803557D02*
X25970074Y10800245D01*
X25970074Y10800245D02*
X25970074Y10800245D01*
G36*
X26107691Y10783533D02*
G01*
X26112273Y10780997D01*
X26149704Y10751943D01*
X26183170Y10714590D01*
X26189007Y10706148D01*
X26200165Y10686447D01*
X26208136Y10663065D01*
X26213618Y10630933D01*
X26217307Y10584981D01*
X26219899Y10520141D01*
X26222092Y10431343D01*
X26222402Y10416331D01*
X26223400Y10319001D01*
X26221994Y10250066D01*
X26218164Y10209052D01*
X26211889Y10195486D01*
X26192898Y10199548D01*
X26160638Y10211856D01*
X26153041Y10215455D01*
X26141176Y10223602D01*
X26132994Y10236996D01*
X26127643Y10260392D01*
X26124269Y10298545D01*
X26122019Y10356210D01*
X26120040Y10438143D01*
X26119498Y10462093D01*
X26117403Y10537734D01*
X26114683Y10590672D01*
X26110515Y10625925D01*
X26104079Y10648513D01*
X26094550Y10663456D01*
X26081106Y10675773D01*
X26041305Y10697366D01*
X25992341Y10701524D01*
X25948529Y10685001D01*
X25917008Y10650790D01*
X25904914Y10601886D01*
X25904578Y10588593D01*
X25897972Y10564528D01*
X25878470Y10560856D01*
X25840283Y10575187D01*
X25831438Y10579783D01*
X25807534Y10606814D01*
X25807061Y10647006D01*
X25829836Y10702591D01*
X25850727Y10732883D01*
X25904142Y10775916D01*
X25970074Y10800245D01*
X26040574Y10803557D01*
X26107691Y10783533D01*
G37*
X26107691Y10783533D02*
X26112273Y10780997D01*
X26149704Y10751943D01*
X26183170Y10714590D01*
X26189007Y10706148D01*
X26200165Y10686447D01*
X26208136Y10663065D01*
X26213618Y10630933D01*
X26217307Y10584981D01*
X26219899Y10520141D01*
X26222092Y10431343D01*
X26222402Y10416331D01*
X26223400Y10319001D01*
X26221994Y10250066D01*
X26218164Y10209052D01*
X26211889Y10195486D01*
X26192898Y10199548D01*
X26160638Y10211856D01*
X26153041Y10215455D01*
X26141176Y10223602D01*
X26132994Y10236996D01*
X26127643Y10260392D01*
X26124269Y10298545D01*
X26122019Y10356210D01*
X26120040Y10438143D01*
X26119498Y10462093D01*
X26117403Y10537734D01*
X26114683Y10590672D01*
X26110515Y10625925D01*
X26104079Y10648513D01*
X26094550Y10663456D01*
X26081106Y10675773D01*
X26041305Y10697366D01*
X25992341Y10701524D01*
X25948529Y10685001D01*
X25917008Y10650790D01*
X25904914Y10601886D01*
X25904578Y10588593D01*
X25897972Y10564528D01*
X25878470Y10560856D01*
X25840283Y10575187D01*
X25831438Y10579783D01*
X25807534Y10606814D01*
X25807061Y10647006D01*
X25829836Y10702591D01*
X25850727Y10732883D01*
X25904142Y10775916D01*
X25970074Y10800245D01*
X26040574Y10803557D01*
X26107691Y10783533D01*
X26460256Y10799032D02*
X26403384Y10777913D01*
X26403384Y10777913D02*
X26402733Y10777507D01*
X26402733Y10777507D02*
X26367560Y10751620D01*
X26367560Y10751620D02*
X26341593Y10721367D01*
X26341593Y10721367D02*
X26323330Y10681942D01*
X26323330Y10681942D02*
X26311268Y10628538D01*
X26311268Y10628538D02*
X26303904Y10556349D01*
X26303904Y10556349D02*
X26299736Y10460568D01*
X26299736Y10460568D02*
X26299371Y10446922D01*
X26299371Y10446922D02*
X26294124Y10241158D01*
X26294124Y10241158D02*
X26338284Y10218322D01*
X26338284Y10218322D02*
X26370237Y10202890D01*
X26370237Y10202890D02*
X26389530Y10195577D01*
X26389530Y10195577D02*
X26390422Y10195486D01*
X26390422Y10195486D02*
X26393761Y10208978D01*
X26393761Y10208978D02*
X26396413Y10245374D01*
X26396413Y10245374D02*
X26398044Y10298548D01*
X26398044Y10298548D02*
X26398400Y10341607D01*
X26398400Y10341607D02*
X26398408Y10411359D01*
X26398408Y10411359D02*
X26401597Y10455163D01*
X26401597Y10455163D02*
X26412712Y10476056D01*
X26412712Y10476056D02*
X26436499Y10477075D01*
X26436499Y10477075D02*
X26477704Y10461259D01*
X26477704Y10461259D02*
X26539914Y10432185D01*
X26539914Y10432185D02*
X26585659Y10408037D01*
X26585659Y10408037D02*
X26609187Y10387087D01*
X26609187Y10387087D02*
X26616104Y10364253D01*
X26616104Y10364253D02*
X26616114Y10363123D01*
X26616114Y10363123D02*
X26604701Y10323788D01*
X26604701Y10323788D02*
X26570908Y10302538D01*
X26570908Y10302538D02*
X26519191Y10299461D01*
X26519191Y10299461D02*
X26481939Y10299994D01*
X26481939Y10299994D02*
X26462297Y10289265D01*
X26462297Y10289265D02*
X26450048Y10263495D01*
X26450048Y10263495D02*
X26442998Y10230663D01*
X26442998Y10230663D02*
X26453158Y10212034D01*
X26453158Y10212034D02*
X26456983Y10209368D01*
X26456983Y10209368D02*
X26492999Y10198660D01*
X26492999Y10198660D02*
X26543434Y10197144D01*
X26543434Y10197144D02*
X26595374Y10204241D01*
X26595374Y10204241D02*
X26632178Y10217212D01*
X26632178Y10217212D02*
X26683062Y10260415D01*
X26683062Y10260415D02*
X26711986Y10320554D01*
X26711986Y10320554D02*
X26717714Y10367538D01*
X26717714Y10367538D02*
X26713343Y10409918D01*
X26713343Y10409918D02*
X26697525Y10444512D01*
X26697525Y10444512D02*
X26666203Y10475237D01*
X26666203Y10475237D02*
X26615322Y10506010D01*
X26615322Y10506010D02*
X26540824Y10540748D01*
X26540824Y10540748D02*
X26536286Y10542712D01*
X26536286Y10542712D02*
X26469179Y10573713D01*
X26469179Y10573713D02*
X26427768Y10599138D01*
X26427768Y10599138D02*
X26410019Y10621986D01*
X26410019Y10621986D02*
X26413893Y10645255D01*
X26413893Y10645255D02*
X26437357Y10671944D01*
X26437357Y10671944D02*
X26444373Y10678086D01*
X26444373Y10678086D02*
X26491370Y10701900D01*
X26491370Y10701900D02*
X26540067Y10700897D01*
X26540067Y10700897D02*
X26582478Y10677549D01*
X26582478Y10677549D02*
X26610616Y10634325D01*
X26610616Y10634325D02*
X26613231Y10625840D01*
X26613231Y10625840D02*
X26638692Y10584692D01*
X26638692Y10584692D02*
X26670999Y10564872D01*
X26670999Y10564872D02*
X26717714Y10545230D01*
X26717714Y10545230D02*
X26717714Y10596050D01*
X26717714Y10596050D02*
X26703504Y10669918D01*
X26703504Y10669918D02*
X26661325Y10737673D01*
X26661325Y10737673D02*
X26639376Y10760339D01*
X26639376Y10760339D02*
X26589483Y10789431D01*
X26589483Y10789431D02*
X26526033Y10802600D01*
X26526033Y10802600D02*
X26460256Y10799032D01*
X26460256Y10799032D02*
X26460256Y10799032D01*
G36*
X26589483Y10789431D02*
G01*
X26639376Y10760339D01*
X26661325Y10737673D01*
X26703504Y10669918D01*
X26717714Y10596050D01*
X26717714Y10545230D01*
X26670999Y10564872D01*
X26638692Y10584692D01*
X26613231Y10625840D01*
X26610616Y10634325D01*
X26582478Y10677549D01*
X26540067Y10700897D01*
X26491370Y10701900D01*
X26444373Y10678086D01*
X26437357Y10671944D01*
X26413893Y10645255D01*
X26410019Y10621986D01*
X26427768Y10599138D01*
X26469179Y10573713D01*
X26536286Y10542712D01*
X26540824Y10540748D01*
X26615322Y10506010D01*
X26666203Y10475237D01*
X26697525Y10444512D01*
X26713343Y10409918D01*
X26717714Y10367538D01*
X26711986Y10320554D01*
X26683062Y10260415D01*
X26632178Y10217212D01*
X26595374Y10204241D01*
X26543434Y10197144D01*
X26492999Y10198660D01*
X26456983Y10209368D01*
X26453158Y10212034D01*
X26442998Y10230663D01*
X26450048Y10263495D01*
X26462297Y10289265D01*
X26481939Y10299994D01*
X26519191Y10299461D01*
X26570908Y10302538D01*
X26604701Y10323788D01*
X26616114Y10363123D01*
X26616104Y10364253D01*
X26609187Y10387087D01*
X26585659Y10408037D01*
X26539914Y10432185D01*
X26477704Y10461259D01*
X26436499Y10477075D01*
X26412712Y10476056D01*
X26401597Y10455163D01*
X26398408Y10411359D01*
X26398400Y10341607D01*
X26398044Y10298548D01*
X26396413Y10245374D01*
X26393761Y10208978D01*
X26390422Y10195486D01*
X26389530Y10195577D01*
X26370237Y10202890D01*
X26338284Y10218322D01*
X26294124Y10241158D01*
X26299371Y10446922D01*
X26299736Y10460568D01*
X26303904Y10556349D01*
X26311268Y10628538D01*
X26323330Y10681942D01*
X26341593Y10721367D01*
X26367560Y10751620D01*
X26402733Y10777507D01*
X26403384Y10777913D01*
X26460256Y10799032D01*
X26526033Y10802600D01*
X26589483Y10789431D01*
G37*
X26589483Y10789431D02*
X26639376Y10760339D01*
X26661325Y10737673D01*
X26703504Y10669918D01*
X26717714Y10596050D01*
X26717714Y10545230D01*
X26670999Y10564872D01*
X26638692Y10584692D01*
X26613231Y10625840D01*
X26610616Y10634325D01*
X26582478Y10677549D01*
X26540067Y10700897D01*
X26491370Y10701900D01*
X26444373Y10678086D01*
X26437357Y10671944D01*
X26413893Y10645255D01*
X26410019Y10621986D01*
X26427768Y10599138D01*
X26469179Y10573713D01*
X26536286Y10542712D01*
X26540824Y10540748D01*
X26615322Y10506010D01*
X26666203Y10475237D01*
X26697525Y10444512D01*
X26713343Y10409918D01*
X26717714Y10367538D01*
X26711986Y10320554D01*
X26683062Y10260415D01*
X26632178Y10217212D01*
X26595374Y10204241D01*
X26543434Y10197144D01*
X26492999Y10198660D01*
X26456983Y10209368D01*
X26453158Y10212034D01*
X26442998Y10230663D01*
X26450048Y10263495D01*
X26462297Y10289265D01*
X26481939Y10299994D01*
X26519191Y10299461D01*
X26570908Y10302538D01*
X26604701Y10323788D01*
X26616114Y10363123D01*
X26616104Y10364253D01*
X26609187Y10387087D01*
X26585659Y10408037D01*
X26539914Y10432185D01*
X26477704Y10461259D01*
X26436499Y10477075D01*
X26412712Y10476056D01*
X26401597Y10455163D01*
X26398408Y10411359D01*
X26398400Y10341607D01*
X26398044Y10298548D01*
X26396413Y10245374D01*
X26393761Y10208978D01*
X26390422Y10195486D01*
X26389530Y10195577D01*
X26370237Y10202890D01*
X26338284Y10218322D01*
X26294124Y10241158D01*
X26299371Y10446922D01*
X26299736Y10460568D01*
X26303904Y10556349D01*
X26311268Y10628538D01*
X26323330Y10681942D01*
X26341593Y10721367D01*
X26367560Y10751620D01*
X26402733Y10777507D01*
X26403384Y10777913D01*
X26460256Y10799032D01*
X26526033Y10802600D01*
X26589483Y10789431D01*
X27783907Y10822220D02*
X27737328Y10795277D01*
X27737328Y10795277D02*
X27704943Y10768534D01*
X27704943Y10768534D02*
X27681258Y10740516D01*
X27681258Y10740516D02*
X27664941Y10706252D01*
X27664941Y10706252D02*
X27654661Y10660773D01*
X27654661Y10660773D02*
X27649086Y10599108D01*
X27649086Y10599108D02*
X27646884Y10516289D01*
X27646884Y10516289D02*
X27646629Y10456754D01*
X27646629Y10456754D02*
X27646629Y10237609D01*
X27646629Y10237609D02*
X27708314Y10209956D01*
X27708314Y10209956D02*
X27770000Y10182303D01*
X27770000Y10182303D02*
X27777257Y10422330D01*
X27777257Y10422330D02*
X27780256Y10511972D01*
X27780256Y10511972D02*
X27783402Y10577038D01*
X27783402Y10577038D02*
X27787299Y10621974D01*
X27787299Y10621974D02*
X27792553Y10651230D01*
X27792553Y10651230D02*
X27799769Y10669252D01*
X27799769Y10669252D02*
X27809550Y10680489D01*
X27809550Y10680489D02*
X27812688Y10682921D01*
X27812688Y10682921D02*
X27860239Y10701917D01*
X27860239Y10701917D02*
X27908303Y10694400D01*
X27908303Y10694400D02*
X27936914Y10674457D01*
X27936914Y10674457D02*
X27948553Y10660325D01*
X27948553Y10660325D02*
X27956609Y10641780D01*
X27956609Y10641780D02*
X27961729Y10613666D01*
X27961729Y10613666D02*
X27964559Y10570827D01*
X27964559Y10570827D02*
X27965744Y10508105D01*
X27965744Y10508105D02*
X27965943Y10442739D01*
X27965943Y10442739D02*
X27965982Y10360732D01*
X27965982Y10360732D02*
X27967386Y10302684D01*
X27967386Y10302684D02*
X27972086Y10263535D01*
X27972086Y10263535D02*
X27982013Y10238220D01*
X27982013Y10238220D02*
X27999097Y10221677D01*
X27999097Y10221677D02*
X28025268Y10208844D01*
X28025268Y10208844D02*
X28060225Y10195509D01*
X28060225Y10195509D02*
X28098404Y10180993D01*
X28098404Y10180993D02*
X28093859Y10438611D01*
X28093859Y10438611D02*
X28092029Y10531481D01*
X28092029Y10531481D02*
X28089888Y10600111D01*
X28089888Y10600111D02*
X28086819Y10649289D01*
X28086819Y10649289D02*
X28082206Y10683802D01*
X28082206Y10683802D02*
X28075432Y10708438D01*
X28075432Y10708438D02*
X28065881Y10727984D01*
X28065881Y10727984D02*
X28054366Y10745230D01*
X28054366Y10745230D02*
X27998810Y10800320D01*
X27998810Y10800320D02*
X27931020Y10832178D01*
X27931020Y10832178D02*
X27857287Y10839809D01*
X27857287Y10839809D02*
X27783907Y10822220D01*
X27783907Y10822220D02*
X27783907Y10822220D01*
G36*
X27931020Y10832178D02*
G01*
X27998810Y10800320D01*
X28054366Y10745230D01*
X28065881Y10727984D01*
X28075432Y10708438D01*
X28082206Y10683802D01*
X28086819Y10649289D01*
X28089888Y10600111D01*
X28092029Y10531481D01*
X28093859Y10438611D01*
X28098404Y10180993D01*
X28060225Y10195509D01*
X28025268Y10208844D01*
X27999097Y10221677D01*
X27982013Y10238220D01*
X27972086Y10263535D01*
X27967386Y10302684D01*
X27965982Y10360732D01*
X27965943Y10442739D01*
X27965744Y10508105D01*
X27964559Y10570827D01*
X27961729Y10613666D01*
X27956609Y10641780D01*
X27948553Y10660325D01*
X27936914Y10674457D01*
X27908303Y10694400D01*
X27860239Y10701917D01*
X27812688Y10682921D01*
X27809550Y10680489D01*
X27799769Y10669252D01*
X27792553Y10651230D01*
X27787299Y10621974D01*
X27783402Y10577038D01*
X27780256Y10511972D01*
X27777257Y10422330D01*
X27770000Y10182303D01*
X27708314Y10209956D01*
X27646629Y10237609D01*
X27646629Y10456754D01*
X27646884Y10516289D01*
X27649086Y10599108D01*
X27654661Y10660773D01*
X27664941Y10706252D01*
X27681258Y10740516D01*
X27704943Y10768534D01*
X27737328Y10795277D01*
X27783907Y10822220D01*
X27857287Y10839809D01*
X27931020Y10832178D01*
G37*
X27931020Y10832178D02*
X27998810Y10800320D01*
X28054366Y10745230D01*
X28065881Y10727984D01*
X28075432Y10708438D01*
X28082206Y10683802D01*
X28086819Y10649289D01*
X28089888Y10600111D01*
X28092029Y10531481D01*
X28093859Y10438611D01*
X28098404Y10180993D01*
X28060225Y10195509D01*
X28025268Y10208844D01*
X27999097Y10221677D01*
X27982013Y10238220D01*
X27972086Y10263535D01*
X27967386Y10302684D01*
X27965982Y10360732D01*
X27965943Y10442739D01*
X27965744Y10508105D01*
X27964559Y10570827D01*
X27961729Y10613666D01*
X27956609Y10641780D01*
X27948553Y10660325D01*
X27936914Y10674457D01*
X27908303Y10694400D01*
X27860239Y10701917D01*
X27812688Y10682921D01*
X27809550Y10680489D01*
X27799769Y10669252D01*
X27792553Y10651230D01*
X27787299Y10621974D01*
X27783402Y10577038D01*
X27780256Y10511972D01*
X27777257Y10422330D01*
X27770000Y10182303D01*
X27708314Y10209956D01*
X27646629Y10237609D01*
X27646629Y10456754D01*
X27646884Y10516289D01*
X27649086Y10599108D01*
X27654661Y10660773D01*
X27664941Y10706252D01*
X27681258Y10740516D01*
X27704943Y10768534D01*
X27737328Y10795277D01*
X27783907Y10822220D01*
X27857287Y10839809D01*
X27931020Y10832178D01*
X26396090Y15507652D02*
X26317546Y15507222D01*
X26317546Y15507222D02*
X26260702Y15506058D01*
X26260702Y15506058D02*
X26221895Y15503793D01*
X26221895Y15503793D02*
X26197462Y15500060D01*
X26197462Y15500060D02*
X26183738Y15494494D01*
X26183738Y15494494D02*
X26177060Y15486727D01*
X26177060Y15486727D02*
X26173764Y15476395D01*
X26173764Y15476395D02*
X26173444Y15475057D01*
X26173444Y15475057D02*
X26168438Y15450921D01*
X26168438Y15450921D02*
X26159171Y15403299D01*
X26159171Y15403299D02*
X26146608Y15337259D01*
X26146608Y15337259D02*
X26131713Y15257872D01*
X26131713Y15257872D02*
X26115449Y15170204D01*
X26115449Y15170204D02*
X26114881Y15167125D01*
X26114881Y15167125D02*
X26098590Y15081211D01*
X26098590Y15081211D02*
X26083348Y15005304D01*
X26083348Y15005304D02*
X26070139Y14943955D01*
X26070139Y14943955D02*
X26059946Y14901718D01*
X26059946Y14901718D02*
X26053752Y14883145D01*
X26053752Y14883145D02*
X26053457Y14882816D01*
X26053457Y14882816D02*
X26035212Y14873747D01*
X26035212Y14873747D02*
X25997595Y14858633D01*
X25997595Y14858633D02*
X25948729Y14840738D01*
X25948729Y14840738D02*
X25948457Y14840642D01*
X25948457Y14840642D02*
X25886907Y14817507D01*
X25886907Y14817507D02*
X25814343Y14788035D01*
X25814343Y14788035D02*
X25745943Y14758403D01*
X25745943Y14758403D02*
X25742706Y14756938D01*
X25742706Y14756938D02*
X25631298Y14706374D01*
X25631298Y14706374D02*
X25384601Y14874840D01*
X25384601Y14874840D02*
X25308923Y14926197D01*
X25308923Y14926197D02*
X25240369Y14972111D01*
X25240369Y14972111D02*
X25182912Y15009970D01*
X25182912Y15009970D02*
X25140524Y15037163D01*
X25140524Y15037163D02*
X25117175Y15051079D01*
X25117175Y15051079D02*
X25114958Y15052111D01*
X25114958Y15052111D02*
X25097990Y15047516D01*
X25097990Y15047516D02*
X25066299Y15025345D01*
X25066299Y15025345D02*
X25018648Y14984553D01*
X25018648Y14984553D02*
X24953802Y14924095D01*
X24953802Y14924095D02*
X24887603Y14859773D01*
X24887603Y14859773D02*
X24823786Y14796388D01*
X24823786Y14796388D02*
X24766671Y14738549D01*
X24766671Y14738549D02*
X24719695Y14689825D01*
X24719695Y14689825D02*
X24686297Y14653790D01*
X24686297Y14653790D02*
X24669915Y14634016D01*
X24669915Y14634016D02*
X24669306Y14632998D01*
X24669306Y14632998D02*
X24667495Y14619428D01*
X24667495Y14619428D02*
X24674317Y14597267D01*
X24674317Y14597267D02*
X24691460Y14563522D01*
X24691460Y14563522D02*
X24720607Y14515200D01*
X24720607Y14515200D02*
X24763445Y14449308D01*
X24763445Y14449308D02*
X24820552Y14364483D01*
X24820552Y14364483D02*
X24871234Y14289823D01*
X24871234Y14289823D02*
X24916539Y14222860D01*
X24916539Y14222860D02*
X24953850Y14167484D01*
X24953850Y14167484D02*
X24980548Y14127580D01*
X24980548Y14127580D02*
X24994015Y14107038D01*
X24994015Y14107038D02*
X24994863Y14105644D01*
X24994863Y14105644D02*
X24993219Y14085962D01*
X24993219Y14085962D02*
X24980755Y14047707D01*
X24980755Y14047707D02*
X24959952Y13998111D01*
X24959952Y13998111D02*
X24952538Y13982272D01*
X24952538Y13982272D02*
X24920186Y13911710D01*
X24920186Y13911710D02*
X24885672Y13831647D01*
X24885672Y13831647D02*
X24857635Y13762371D01*
X24857635Y13762371D02*
X24837432Y13710955D01*
X24837432Y13710955D02*
X24821385Y13671881D01*
X24821385Y13671881D02*
X24812112Y13651459D01*
X24812112Y13651459D02*
X24810959Y13649886D01*
X24810959Y13649886D02*
X24793904Y13647279D01*
X24793904Y13647279D02*
X24753702Y13640137D01*
X24753702Y13640137D02*
X24695698Y13629477D01*
X24695698Y13629477D02*
X24625237Y13616315D01*
X24625237Y13616315D02*
X24547665Y13601667D01*
X24547665Y13601667D02*
X24468328Y13586551D01*
X24468328Y13586551D02*
X24392569Y13571982D01*
X24392569Y13571982D02*
X24325736Y13558978D01*
X24325736Y13558978D02*
X24273172Y13548555D01*
X24273172Y13548555D02*
X24240224Y13541730D01*
X24240224Y13541730D02*
X24232143Y13539801D01*
X24232143Y13539801D02*
X24223795Y13535038D01*
X24223795Y13535038D02*
X24217494Y13524282D01*
X24217494Y13524282D02*
X24212955Y13503902D01*
X24212955Y13503902D02*
X24209896Y13470266D01*
X24209896Y13470266D02*
X24208033Y13419745D01*
X24208033Y13419745D02*
X24207082Y13348708D01*
X24207082Y13348708D02*
X24206760Y13253524D01*
X24206760Y13253524D02*
X24206743Y13214508D01*
X24206743Y13214508D02*
X24206743Y12897201D01*
X24206743Y12897201D02*
X24282943Y12882161D01*
X24282943Y12882161D02*
X24325337Y12874005D01*
X24325337Y12874005D02*
X24388600Y12862101D01*
X24388600Y12862101D02*
X24465038Y12847884D01*
X24465038Y12847884D02*
X24546957Y12832790D01*
X24546957Y12832790D02*
X24569600Y12828645D01*
X24569600Y12828645D02*
X24645194Y12813947D01*
X24645194Y12813947D02*
X24711047Y12799495D01*
X24711047Y12799495D02*
X24761634Y12786625D01*
X24761634Y12786625D02*
X24791426Y12776678D01*
X24791426Y12776678D02*
X24796388Y12773713D01*
X24796388Y12773713D02*
X24808574Y12752717D01*
X24808574Y12752717D02*
X24826047Y12712033D01*
X24826047Y12712033D02*
X24845423Y12659678D01*
X24845423Y12659678D02*
X24849266Y12648400D01*
X24849266Y12648400D02*
X24874661Y12578477D01*
X24874661Y12578477D02*
X24906183Y12499582D01*
X24906183Y12499582D02*
X24937031Y12428734D01*
X24937031Y12428734D02*
X24937183Y12428405D01*
X24937183Y12428405D02*
X24988553Y12317267D01*
X24988553Y12317267D02*
X24819601Y12068747D01*
X24819601Y12068747D02*
X24650648Y11820228D01*
X24650648Y11820228D02*
X24867571Y11602942D01*
X24867571Y11602942D02*
X24933181Y11538274D01*
X24933181Y11538274D02*
X24993021Y11481267D01*
X24993021Y11481267D02*
X25043733Y11434967D01*
X25043733Y11434967D02*
X25081954Y11402416D01*
X25081954Y11402416D02*
X25104325Y11386657D01*
X25104325Y11386657D02*
X25107534Y11385657D01*
X25107534Y11385657D02*
X25126374Y11393531D01*
X25126374Y11393531D02*
X25164820Y11415422D01*
X25164820Y11415422D02*
X25218670Y11448733D01*
X25218670Y11448733D02*
X25283724Y11490869D01*
X25283724Y11490869D02*
X25354060Y11538057D01*
X25354060Y11538057D02*
X25425445Y11586190D01*
X25425445Y11586190D02*
X25489092Y11628072D01*
X25489092Y11628072D02*
X25540959Y11661129D01*
X25540959Y11661129D02*
X25577005Y11682782D01*
X25577005Y11682782D02*
X25593133Y11690457D01*
X25593133Y11690457D02*
X25612811Y11683963D01*
X25612811Y11683963D02*
X25650125Y11666850D01*
X25650125Y11666850D02*
X25697379Y11642674D01*
X25697379Y11642674D02*
X25702388Y11639987D01*
X25702388Y11639987D02*
X25766023Y11608073D01*
X25766023Y11608073D02*
X25809659Y11592421D01*
X25809659Y11592421D02*
X25836798Y11592255D01*
X25836798Y11592255D02*
X25850943Y11606796D01*
X25850943Y11606796D02*
X25851025Y11607000D01*
X25851025Y11607000D02*
X25858095Y11624221D01*
X25858095Y11624221D02*
X25874958Y11665101D01*
X25874958Y11665101D02*
X25900305Y11726475D01*
X25900305Y11726475D02*
X25932829Y11805181D01*
X25932829Y11805181D02*
X25971222Y11898053D01*
X25971222Y11898053D02*
X26014178Y12001928D01*
X26014178Y12001928D02*
X26055778Y12102498D01*
X26055778Y12102498D02*
X26101496Y12213484D01*
X26101496Y12213484D02*
X26143474Y12316297D01*
X26143474Y12316297D02*
X26180452Y12407785D01*
X26180452Y12407785D02*
X26211173Y12484799D01*
X26211173Y12484799D02*
X26234378Y12544185D01*
X26234378Y12544185D02*
X26248810Y12582791D01*
X26248810Y12582791D02*
X26253257Y12597200D01*
X26253257Y12597200D02*
X26242104Y12613728D01*
X26242104Y12613728D02*
X26212931Y12640070D01*
X26212931Y12640070D02*
X26174029Y12669113D01*
X26174029Y12669113D02*
X26063243Y12760961D01*
X26063243Y12760961D02*
X25976649Y12866241D01*
X25976649Y12866241D02*
X25915284Y12982734D01*
X25915284Y12982734D02*
X25880185Y13108224D01*
X25880185Y13108224D02*
X25872392Y13240493D01*
X25872392Y13240493D02*
X25878057Y13301543D01*
X25878057Y13301543D02*
X25908922Y13428205D01*
X25908922Y13428205D02*
X25962080Y13540059D01*
X25962080Y13540059D02*
X26034233Y13635999D01*
X26034233Y13635999D02*
X26122083Y13714924D01*
X26122083Y13714924D02*
X26222335Y13775730D01*
X26222335Y13775730D02*
X26331690Y13817313D01*
X26331690Y13817313D02*
X26446853Y13838572D01*
X26446853Y13838572D02*
X26564525Y13838401D01*
X26564525Y13838401D02*
X26681410Y13815699D01*
X26681410Y13815699D02*
X26794211Y13769362D01*
X26794211Y13769362D02*
X26899631Y13698287D01*
X26899631Y13698287D02*
X26943632Y13658089D01*
X26943632Y13658089D02*
X27028021Y13554871D01*
X27028021Y13554871D02*
X27086778Y13442075D01*
X27086778Y13442075D02*
X27120296Y13322990D01*
X27120296Y13322990D02*
X27128965Y13200905D01*
X27128965Y13200905D02*
X27113177Y13079107D01*
X27113177Y13079107D02*
X27073322Y12960884D01*
X27073322Y12960884D02*
X27009793Y12849525D01*
X27009793Y12849525D02*
X26922979Y12748316D01*
X26922979Y12748316D02*
X26825971Y12669113D01*
X26825971Y12669113D02*
X26785563Y12638838D01*
X26785563Y12638838D02*
X26757018Y12612781D01*
X26757018Y12612781D02*
X26746743Y12597175D01*
X26746743Y12597175D02*
X26752123Y12580157D01*
X26752123Y12580157D02*
X26767425Y12539500D01*
X26767425Y12539500D02*
X26791388Y12478358D01*
X26791388Y12478358D02*
X26822756Y12399881D01*
X26822756Y12399881D02*
X26860268Y12307220D01*
X26860268Y12307220D02*
X26902667Y12203528D01*
X26902667Y12203528D02*
X26944337Y12102474D01*
X26944337Y12102474D02*
X26990310Y11991393D01*
X26990310Y11991393D02*
X27032893Y11888459D01*
X27032893Y11888459D02*
X27070779Y11796835D01*
X27070779Y11796835D02*
X27102660Y11719684D01*
X27102660Y11719684D02*
X27127229Y11660169D01*
X27127229Y11660169D02*
X27143180Y11621456D01*
X27143180Y11621456D02*
X27149090Y11607000D01*
X27149090Y11607000D02*
X27163052Y11592315D01*
X27163052Y11592315D02*
X27190060Y11592358D01*
X27190060Y11592358D02*
X27233587Y11607901D01*
X27233587Y11607901D02*
X27297110Y11639716D01*
X27297110Y11639716D02*
X27297612Y11639987D01*
X27297612Y11639987D02*
X27345440Y11664677D01*
X27345440Y11664677D02*
X27384103Y11682662D01*
X27384103Y11682662D02*
X27405905Y11690386D01*
X27405905Y11690386D02*
X27406867Y11690457D01*
X27406867Y11690457D02*
X27423279Y11682622D01*
X27423279Y11682622D02*
X27459513Y11660835D01*
X27459513Y11660835D02*
X27511526Y11627672D01*
X27511526Y11627672D02*
X27575275Y11585709D01*
X27575275Y11585709D02*
X27645940Y11538057D01*
X27645940Y11538057D02*
X27717884Y11489809D01*
X27717884Y11489809D02*
X27782726Y11447849D01*
X27782726Y11447849D02*
X27836265Y11414773D01*
X27836265Y11414773D02*
X27874303Y11393179D01*
X27874303Y11393179D02*
X27892467Y11385657D01*
X27892467Y11385657D02*
X27909192Y11395543D01*
X27909192Y11395543D02*
X27942820Y11423174D01*
X27942820Y11423174D02*
X27989990Y11465505D01*
X27989990Y11465505D02*
X28047342Y11519495D01*
X28047342Y11519495D02*
X28111516Y11582101D01*
X28111516Y11582101D02*
X28132503Y11603017D01*
X28132503Y11603017D02*
X28349501Y11820377D01*
X28349501Y11820377D02*
X28184332Y12062780D01*
X28184332Y12062780D02*
X28134136Y12137219D01*
X28134136Y12137219D02*
X28090081Y12204028D01*
X28090081Y12204028D02*
X28054638Y12259335D01*
X28054638Y12259335D02*
X28030281Y12299271D01*
X28030281Y12299271D02*
X28019478Y12319964D01*
X28019478Y12319964D02*
X28019162Y12321437D01*
X28019162Y12321437D02*
X28024857Y12340942D01*
X28024857Y12340942D02*
X28040174Y12380178D01*
X28040174Y12380178D02*
X28062463Y12432570D01*
X28062463Y12432570D02*
X28078107Y12467645D01*
X28078107Y12467645D02*
X28107359Y12534799D01*
X28107359Y12534799D02*
X28134906Y12602642D01*
X28134906Y12602642D02*
X28156263Y12659966D01*
X28156263Y12659966D02*
X28162065Y12677428D01*
X28162065Y12677428D02*
X28178548Y12724062D01*
X28178548Y12724062D02*
X28194660Y12760095D01*
X28194660Y12760095D02*
X28203510Y12773713D01*
X28203510Y12773713D02*
X28223040Y12782048D01*
X28223040Y12782048D02*
X28265666Y12793863D01*
X28265666Y12793863D02*
X28325855Y12807819D01*
X28325855Y12807819D02*
X28398078Y12822578D01*
X28398078Y12822578D02*
X28430400Y12828645D01*
X28430400Y12828645D02*
X28512478Y12843727D01*
X28512478Y12843727D02*
X28591205Y12858331D01*
X28591205Y12858331D02*
X28658891Y12871020D01*
X28658891Y12871020D02*
X28707840Y12880358D01*
X28707840Y12880358D02*
X28717057Y12882161D01*
X28717057Y12882161D02*
X28793257Y12897201D01*
X28793257Y12897201D02*
X28793257Y13214508D01*
X28793257Y13214508D02*
X28793086Y13318846D01*
X28793086Y13318846D02*
X28792384Y13397787D01*
X28792384Y13397787D02*
X28790866Y13454962D01*
X28790866Y13454962D02*
X28788251Y13494001D01*
X28788251Y13494001D02*
X28784254Y13518535D01*
X28784254Y13518535D02*
X28778591Y13532195D01*
X28778591Y13532195D02*
X28770980Y13538611D01*
X28770980Y13538611D02*
X28767857Y13539801D01*
X28767857Y13539801D02*
X28749022Y13544020D01*
X28749022Y13544020D02*
X28707412Y13552438D01*
X28707412Y13552438D02*
X28648370Y13564039D01*
X28648370Y13564039D02*
X28577243Y13577805D01*
X28577243Y13577805D02*
X28499375Y13592720D01*
X28499375Y13592720D02*
X28420113Y13607768D01*
X28420113Y13607768D02*
X28344802Y13621931D01*
X28344802Y13621931D02*
X28278787Y13634194D01*
X28278787Y13634194D02*
X28227413Y13643539D01*
X28227413Y13643539D02*
X28196025Y13648950D01*
X28196025Y13648950D02*
X28189041Y13649886D01*
X28189041Y13649886D02*
X28182715Y13662404D01*
X28182715Y13662404D02*
X28168710Y13695754D01*
X28168710Y13695754D02*
X28149645Y13743623D01*
X28149645Y13743623D02*
X28142366Y13762371D01*
X28142366Y13762371D02*
X28113004Y13834805D01*
X28113004Y13834805D02*
X28078429Y13914830D01*
X28078429Y13914830D02*
X28047463Y13982272D01*
X28047463Y13982272D02*
X28024677Y14033841D01*
X28024677Y14033841D02*
X28009518Y14076215D01*
X28009518Y14076215D02*
X28004458Y14102166D01*
X28004458Y14102166D02*
X28005264Y14105644D01*
X28005264Y14105644D02*
X28015959Y14122064D01*
X28015959Y14122064D02*
X28040380Y14158583D01*
X28040380Y14158583D02*
X28075905Y14211313D01*
X28075905Y14211313D02*
X28119913Y14276365D01*
X28119913Y14276365D02*
X28169783Y14349849D01*
X28169783Y14349849D02*
X28179644Y14364355D01*
X28179644Y14364355D02*
X28237508Y14450296D01*
X28237508Y14450296D02*
X28280044Y14515739D01*
X28280044Y14515739D02*
X28308946Y14563696D01*
X28308946Y14563696D02*
X28325910Y14597180D01*
X28325910Y14597180D02*
X28332633Y14619205D01*
X28332633Y14619205D02*
X28330810Y14632783D01*
X28330810Y14632783D02*
X28330764Y14632869D01*
X28330764Y14632869D02*
X28316414Y14650703D01*
X28316414Y14650703D02*
X28284677Y14685183D01*
X28284677Y14685183D02*
X28238990Y14732732D01*
X28238990Y14732732D02*
X28182796Y14789778D01*
X28182796Y14789778D02*
X28119532Y14852745D01*
X28119532Y14852745D02*
X28112398Y14859773D01*
X28112398Y14859773D02*
X28032670Y14936980D01*
X28032670Y14936980D02*
X27971143Y14993670D01*
X27971143Y14993670D02*
X27926579Y15030890D01*
X27926579Y15030890D02*
X27897743Y15049685D01*
X27897743Y15049685D02*
X27885042Y15052111D01*
X27885042Y15052111D02*
X27866506Y15041529D01*
X27866506Y15041529D02*
X27828039Y15017084D01*
X27828039Y15017084D02*
X27773614Y14981388D01*
X27773614Y14981388D02*
X27707202Y14937053D01*
X27707202Y14937053D02*
X27632775Y14886689D01*
X27632775Y14886689D02*
X27615399Y14874840D01*
X27615399Y14874840D02*
X27368703Y14706374D01*
X27368703Y14706374D02*
X27257294Y14756938D01*
X27257294Y14756938D02*
X27189543Y14786405D01*
X27189543Y14786405D02*
X27116817Y14816041D01*
X27116817Y14816041D02*
X27054297Y14839670D01*
X27054297Y14839670D02*
X27051543Y14840642D01*
X27051543Y14840642D02*
X27002640Y14858543D01*
X27002640Y14858543D02*
X26964943Y14873680D01*
X26964943Y14873680D02*
X26946575Y14882790D01*
X26946575Y14882790D02*
X26946544Y14882816D01*
X26946544Y14882816D02*
X26940715Y14899283D01*
X26940715Y14899283D02*
X26930808Y14939781D01*
X26930808Y14939781D02*
X26917805Y14999758D01*
X26917805Y14999758D02*
X26902691Y15074660D01*
X26902691Y15074660D02*
X26886448Y15159936D01*
X26886448Y15159936D02*
X26885119Y15167125D01*
X26885119Y15167125D02*
X26868825Y15254986D01*
X26868825Y15254986D02*
X26853867Y15334740D01*
X26853867Y15334740D02*
X26841209Y15401319D01*
X26841209Y15401319D02*
X26831814Y15449653D01*
X26831814Y15449653D02*
X26826646Y15474675D01*
X26826646Y15474675D02*
X26826556Y15475057D01*
X26826556Y15475057D02*
X26823411Y15485701D01*
X26823411Y15485701D02*
X26817296Y15493738D01*
X26817296Y15493738D02*
X26804547Y15499533D01*
X26804547Y15499533D02*
X26781500Y15503453D01*
X26781500Y15503453D02*
X26744491Y15505865D01*
X26744491Y15505865D02*
X26689856Y15507135D01*
X26689856Y15507135D02*
X26613933Y15507629D01*
X26613933Y15507629D02*
X26513056Y15507714D01*
X26513056Y15507714D02*
X26500000Y15507714D01*
X26500000Y15507714D02*
X26396090Y15507652D01*
X26396090Y15507652D02*
X26396090Y15507652D01*
G36*
X26613933Y15507629D02*
G01*
X26689856Y15507135D01*
X26744491Y15505865D01*
X26781500Y15503453D01*
X26804547Y15499533D01*
X26817296Y15493738D01*
X26823411Y15485701D01*
X26826556Y15475057D01*
X26826646Y15474675D01*
X26831814Y15449653D01*
X26841209Y15401319D01*
X26853867Y15334740D01*
X26868825Y15254986D01*
X26885119Y15167125D01*
X26886448Y15159936D01*
X26902691Y15074660D01*
X26917805Y14999758D01*
X26930808Y14939781D01*
X26940715Y14899283D01*
X26946544Y14882816D01*
X26946575Y14882790D01*
X26964943Y14873680D01*
X27002640Y14858543D01*
X27051543Y14840642D01*
X27054297Y14839670D01*
X27116817Y14816041D01*
X27189543Y14786405D01*
X27257294Y14756938D01*
X27368703Y14706374D01*
X27615399Y14874840D01*
X27632775Y14886689D01*
X27707202Y14937053D01*
X27773614Y14981388D01*
X27828039Y15017084D01*
X27866506Y15041529D01*
X27885042Y15052111D01*
X27897743Y15049685D01*
X27926579Y15030890D01*
X27971143Y14993670D01*
X28032670Y14936980D01*
X28112398Y14859773D01*
X28119532Y14852745D01*
X28182796Y14789778D01*
X28238990Y14732732D01*
X28284677Y14685183D01*
X28316414Y14650703D01*
X28330764Y14632869D01*
X28330810Y14632783D01*
X28332633Y14619205D01*
X28325910Y14597180D01*
X28308946Y14563696D01*
X28280044Y14515739D01*
X28237508Y14450296D01*
X28179644Y14364355D01*
X28169783Y14349849D01*
X28119913Y14276365D01*
X28075905Y14211313D01*
X28040380Y14158583D01*
X28015959Y14122064D01*
X28005264Y14105644D01*
X28004458Y14102166D01*
X28009518Y14076215D01*
X28024677Y14033841D01*
X28047463Y13982272D01*
X28078429Y13914830D01*
X28113004Y13834805D01*
X28142366Y13762371D01*
X28149645Y13743623D01*
X28168710Y13695754D01*
X28182715Y13662404D01*
X28189041Y13649886D01*
X28196025Y13648950D01*
X28227413Y13643539D01*
X28278787Y13634194D01*
X28344802Y13621931D01*
X28420113Y13607768D01*
X28499375Y13592720D01*
X28577243Y13577805D01*
X28648370Y13564039D01*
X28707412Y13552438D01*
X28749022Y13544020D01*
X28767857Y13539801D01*
X28770980Y13538611D01*
X28778591Y13532195D01*
X28784254Y13518535D01*
X28788251Y13494001D01*
X28790866Y13454962D01*
X28792384Y13397787D01*
X28793086Y13318846D01*
X28793257Y13214508D01*
X28793257Y12897201D01*
X28717057Y12882161D01*
X28707840Y12880358D01*
X28658891Y12871020D01*
X28591205Y12858331D01*
X28512478Y12843727D01*
X28430400Y12828645D01*
X28398078Y12822578D01*
X28325855Y12807819D01*
X28265666Y12793863D01*
X28223040Y12782048D01*
X28203510Y12773713D01*
X28194660Y12760095D01*
X28178548Y12724062D01*
X28162065Y12677428D01*
X28156263Y12659966D01*
X28134906Y12602642D01*
X28107359Y12534799D01*
X28078107Y12467645D01*
X28062463Y12432570D01*
X28040174Y12380178D01*
X28024857Y12340942D01*
X28019162Y12321437D01*
X28019478Y12319964D01*
X28030281Y12299271D01*
X28054638Y12259335D01*
X28090081Y12204028D01*
X28134136Y12137219D01*
X28184332Y12062780D01*
X28349501Y11820377D01*
X28132503Y11603017D01*
X28111516Y11582101D01*
X28047342Y11519495D01*
X27989990Y11465505D01*
X27942820Y11423174D01*
X27909192Y11395543D01*
X27892467Y11385657D01*
X27874303Y11393179D01*
X27836265Y11414773D01*
X27782726Y11447849D01*
X27717884Y11489809D01*
X27645940Y11538057D01*
X27575275Y11585709D01*
X27511526Y11627672D01*
X27459513Y11660835D01*
X27423279Y11682622D01*
X27406867Y11690457D01*
X27405905Y11690386D01*
X27384103Y11682662D01*
X27345440Y11664677D01*
X27297612Y11639987D01*
X27297110Y11639716D01*
X27233587Y11607901D01*
X27190060Y11592358D01*
X27163052Y11592315D01*
X27149090Y11607000D01*
X27143180Y11621456D01*
X27127229Y11660169D01*
X27102660Y11719684D01*
X27070779Y11796835D01*
X27032893Y11888459D01*
X26990310Y11991393D01*
X26944337Y12102474D01*
X26902667Y12203528D01*
X26860268Y12307220D01*
X26822756Y12399881D01*
X26791388Y12478358D01*
X26767425Y12539500D01*
X26752123Y12580157D01*
X26746743Y12597175D01*
X26757018Y12612781D01*
X26785563Y12638838D01*
X26825971Y12669113D01*
X26922979Y12748316D01*
X27009793Y12849525D01*
X27073322Y12960884D01*
X27113177Y13079107D01*
X27128965Y13200905D01*
X27120296Y13322990D01*
X27086778Y13442075D01*
X27028021Y13554871D01*
X26943632Y13658089D01*
X26899631Y13698287D01*
X26794211Y13769362D01*
X26681410Y13815699D01*
X26564525Y13838401D01*
X26446853Y13838572D01*
X26331690Y13817313D01*
X26222335Y13775730D01*
X26122083Y13714924D01*
X26034233Y13635999D01*
X25962080Y13540059D01*
X25908922Y13428205D01*
X25878057Y13301543D01*
X25872392Y13240493D01*
X25880185Y13108224D01*
X25915284Y12982734D01*
X25976649Y12866241D01*
X26063243Y12760961D01*
X26174029Y12669113D01*
X26212931Y12640070D01*
X26242104Y12613728D01*
X26253257Y12597200D01*
X26248810Y12582791D01*
X26234378Y12544185D01*
X26211173Y12484799D01*
X26180452Y12407785D01*
X26143474Y12316297D01*
X26101496Y12213484D01*
X26055778Y12102498D01*
X26014178Y12001928D01*
X25971222Y11898053D01*
X25932829Y11805181D01*
X25900305Y11726475D01*
X25874958Y11665101D01*
X25858095Y11624221D01*
X25851025Y11607000D01*
X25850943Y11606796D01*
X25836798Y11592255D01*
X25809659Y11592421D01*
X25766023Y11608073D01*
X25702388Y11639987D01*
X25697379Y11642674D01*
X25650125Y11666850D01*
X25612811Y11683963D01*
X25593133Y11690457D01*
X25577005Y11682782D01*
X25540959Y11661129D01*
X25489092Y11628072D01*
X25425445Y11586190D01*
X25354060Y11538057D01*
X25283724Y11490869D01*
X25218670Y11448733D01*
X25164820Y11415422D01*
X25126374Y11393531D01*
X25107534Y11385657D01*
X25104325Y11386657D01*
X25081954Y11402416D01*
X25043733Y11434967D01*
X24993021Y11481267D01*
X24933181Y11538274D01*
X24867571Y11602942D01*
X24650648Y11820228D01*
X24819601Y12068747D01*
X24988553Y12317267D01*
X24937183Y12428405D01*
X24937031Y12428734D01*
X24906183Y12499582D01*
X24874661Y12578477D01*
X24849266Y12648400D01*
X24845423Y12659678D01*
X24826047Y12712033D01*
X24808574Y12752717D01*
X24796388Y12773713D01*
X24791426Y12776678D01*
X24761634Y12786625D01*
X24711047Y12799495D01*
X24645194Y12813947D01*
X24569600Y12828645D01*
X24546957Y12832790D01*
X24465038Y12847884D01*
X24388600Y12862101D01*
X24325337Y12874005D01*
X24282943Y12882161D01*
X24206743Y12897201D01*
X24206743Y13214508D01*
X24206760Y13253524D01*
X24207082Y13348708D01*
X24208033Y13419745D01*
X24209896Y13470266D01*
X24212955Y13503902D01*
X24217494Y13524282D01*
X24223795Y13535038D01*
X24232143Y13539801D01*
X24240224Y13541730D01*
X24273172Y13548555D01*
X24325736Y13558978D01*
X24392569Y13571982D01*
X24468328Y13586551D01*
X24547665Y13601667D01*
X24625237Y13616315D01*
X24695698Y13629477D01*
X24753702Y13640137D01*
X24793904Y13647279D01*
X24810959Y13649886D01*
X24812112Y13651459D01*
X24821385Y13671881D01*
X24837432Y13710955D01*
X24857635Y13762371D01*
X24885672Y13831647D01*
X24920186Y13911710D01*
X24952538Y13982272D01*
X24959952Y13998111D01*
X24980755Y14047707D01*
X24993219Y14085962D01*
X24994863Y14105644D01*
X24994015Y14107038D01*
X24980548Y14127580D01*
X24953850Y14167484D01*
X24916539Y14222860D01*
X24871234Y14289823D01*
X24820552Y14364483D01*
X24763445Y14449308D01*
X24720607Y14515200D01*
X24691460Y14563522D01*
X24674317Y14597267D01*
X24667495Y14619428D01*
X24669306Y14632998D01*
X24669915Y14634016D01*
X24686297Y14653790D01*
X24719695Y14689825D01*
X24766671Y14738549D01*
X24823786Y14796388D01*
X24887603Y14859773D01*
X24953802Y14924095D01*
X25018648Y14984553D01*
X25066299Y15025345D01*
X25097990Y15047516D01*
X25114958Y15052111D01*
X25117175Y15051079D01*
X25140524Y15037163D01*
X25182912Y15009970D01*
X25240369Y14972111D01*
X25308923Y14926197D01*
X25384601Y14874840D01*
X25631298Y14706374D01*
X25742706Y14756938D01*
X25745943Y14758403D01*
X25814343Y14788035D01*
X25886907Y14817507D01*
X25948457Y14840642D01*
X25948729Y14840738D01*
X25997595Y14858633D01*
X26035212Y14873747D01*
X26053457Y14882816D01*
X26053752Y14883145D01*
X26059946Y14901718D01*
X26070139Y14943955D01*
X26083348Y15005304D01*
X26098590Y15081211D01*
X26114881Y15167125D01*
X26115449Y15170204D01*
X26131713Y15257872D01*
X26146608Y15337259D01*
X26159171Y15403299D01*
X26168438Y15450921D01*
X26173444Y15475057D01*
X26173764Y15476395D01*
X26177060Y15486727D01*
X26183738Y15494494D01*
X26197462Y15500060D01*
X26221895Y15503793D01*
X26260702Y15506058D01*
X26317546Y15507222D01*
X26396090Y15507652D01*
X26500000Y15507714D01*
X26513056Y15507714D01*
X26613933Y15507629D01*
G37*
X26613933Y15507629D02*
X26689856Y15507135D01*
X26744491Y15505865D01*
X26781500Y15503453D01*
X26804547Y15499533D01*
X26817296Y15493738D01*
X26823411Y15485701D01*
X26826556Y15475057D01*
X26826646Y15474675D01*
X26831814Y15449653D01*
X26841209Y15401319D01*
X26853867Y15334740D01*
X26868825Y15254986D01*
X26885119Y15167125D01*
X26886448Y15159936D01*
X26902691Y15074660D01*
X26917805Y14999758D01*
X26930808Y14939781D01*
X26940715Y14899283D01*
X26946544Y14882816D01*
X26946575Y14882790D01*
X26964943Y14873680D01*
X27002640Y14858543D01*
X27051543Y14840642D01*
X27054297Y14839670D01*
X27116817Y14816041D01*
X27189543Y14786405D01*
X27257294Y14756938D01*
X27368703Y14706374D01*
X27615399Y14874840D01*
X27632775Y14886689D01*
X27707202Y14937053D01*
X27773614Y14981388D01*
X27828039Y15017084D01*
X27866506Y15041529D01*
X27885042Y15052111D01*
X27897743Y15049685D01*
X27926579Y15030890D01*
X27971143Y14993670D01*
X28032670Y14936980D01*
X28112398Y14859773D01*
X28119532Y14852745D01*
X28182796Y14789778D01*
X28238990Y14732732D01*
X28284677Y14685183D01*
X28316414Y14650703D01*
X28330764Y14632869D01*
X28330810Y14632783D01*
X28332633Y14619205D01*
X28325910Y14597180D01*
X28308946Y14563696D01*
X28280044Y14515739D01*
X28237508Y14450296D01*
X28179644Y14364355D01*
X28169783Y14349849D01*
X28119913Y14276365D01*
X28075905Y14211313D01*
X28040380Y14158583D01*
X28015959Y14122064D01*
X28005264Y14105644D01*
X28004458Y14102166D01*
X28009518Y14076215D01*
X28024677Y14033841D01*
X28047463Y13982272D01*
X28078429Y13914830D01*
X28113004Y13834805D01*
X28142366Y13762371D01*
X28149645Y13743623D01*
X28168710Y13695754D01*
X28182715Y13662404D01*
X28189041Y13649886D01*
X28196025Y13648950D01*
X28227413Y13643539D01*
X28278787Y13634194D01*
X28344802Y13621931D01*
X28420113Y13607768D01*
X28499375Y13592720D01*
X28577243Y13577805D01*
X28648370Y13564039D01*
X28707412Y13552438D01*
X28749022Y13544020D01*
X28767857Y13539801D01*
X28770980Y13538611D01*
X28778591Y13532195D01*
X28784254Y13518535D01*
X28788251Y13494001D01*
X28790866Y13454962D01*
X28792384Y13397787D01*
X28793086Y13318846D01*
X28793257Y13214508D01*
X28793257Y12897201D01*
X28717057Y12882161D01*
X28707840Y12880358D01*
X28658891Y12871020D01*
X28591205Y12858331D01*
X28512478Y12843727D01*
X28430400Y12828645D01*
X28398078Y12822578D01*
X28325855Y12807819D01*
X28265666Y12793863D01*
X28223040Y12782048D01*
X28203510Y12773713D01*
X28194660Y12760095D01*
X28178548Y12724062D01*
X28162065Y12677428D01*
X28156263Y12659966D01*
X28134906Y12602642D01*
X28107359Y12534799D01*
X28078107Y12467645D01*
X28062463Y12432570D01*
X28040174Y12380178D01*
X28024857Y12340942D01*
X28019162Y12321437D01*
X28019478Y12319964D01*
X28030281Y12299271D01*
X28054638Y12259335D01*
X28090081Y12204028D01*
X28134136Y12137219D01*
X28184332Y12062780D01*
X28349501Y11820377D01*
X28132503Y11603017D01*
X28111516Y11582101D01*
X28047342Y11519495D01*
X27989990Y11465505D01*
X27942820Y11423174D01*
X27909192Y11395543D01*
X27892467Y11385657D01*
X27874303Y11393179D01*
X27836265Y11414773D01*
X27782726Y11447849D01*
X27717884Y11489809D01*
X27645940Y11538057D01*
X27575275Y11585709D01*
X27511526Y11627672D01*
X27459513Y11660835D01*
X27423279Y11682622D01*
X27406867Y11690457D01*
X27405905Y11690386D01*
X27384103Y11682662D01*
X27345440Y11664677D01*
X27297612Y11639987D01*
X27297110Y11639716D01*
X27233587Y11607901D01*
X27190060Y11592358D01*
X27163052Y11592315D01*
X27149090Y11607000D01*
X27143180Y11621456D01*
X27127229Y11660169D01*
X27102660Y11719684D01*
X27070779Y11796835D01*
X27032893Y11888459D01*
X26990310Y11991393D01*
X26944337Y12102474D01*
X26902667Y12203528D01*
X26860268Y12307220D01*
X26822756Y12399881D01*
X26791388Y12478358D01*
X26767425Y12539500D01*
X26752123Y12580157D01*
X26746743Y12597175D01*
X26757018Y12612781D01*
X26785563Y12638838D01*
X26825971Y12669113D01*
X26922979Y12748316D01*
X27009793Y12849525D01*
X27073322Y12960884D01*
X27113177Y13079107D01*
X27128965Y13200905D01*
X27120296Y13322990D01*
X27086778Y13442075D01*
X27028021Y13554871D01*
X26943632Y13658089D01*
X26899631Y13698287D01*
X26794211Y13769362D01*
X26681410Y13815699D01*
X26564525Y13838401D01*
X26446853Y13838572D01*
X26331690Y13817313D01*
X26222335Y13775730D01*
X26122083Y13714924D01*
X26034233Y13635999D01*
X25962080Y13540059D01*
X25908922Y13428205D01*
X25878057Y13301543D01*
X25872392Y13240493D01*
X25880185Y13108224D01*
X25915284Y12982734D01*
X25976649Y12866241D01*
X26063243Y12760961D01*
X26174029Y12669113D01*
X26212931Y12640070D01*
X26242104Y12613728D01*
X26253257Y12597200D01*
X26248810Y12582791D01*
X26234378Y12544185D01*
X26211173Y12484799D01*
X26180452Y12407785D01*
X26143474Y12316297D01*
X26101496Y12213484D01*
X26055778Y12102498D01*
X26014178Y12001928D01*
X25971222Y11898053D01*
X25932829Y11805181D01*
X25900305Y11726475D01*
X25874958Y11665101D01*
X25858095Y11624221D01*
X25851025Y11607000D01*
X25850943Y11606796D01*
X25836798Y11592255D01*
X25809659Y11592421D01*
X25766023Y11608073D01*
X25702388Y11639987D01*
X25697379Y11642674D01*
X25650125Y11666850D01*
X25612811Y11683963D01*
X25593133Y11690457D01*
X25577005Y11682782D01*
X25540959Y11661129D01*
X25489092Y11628072D01*
X25425445Y11586190D01*
X25354060Y11538057D01*
X25283724Y11490869D01*
X25218670Y11448733D01*
X25164820Y11415422D01*
X25126374Y11393531D01*
X25107534Y11385657D01*
X25104325Y11386657D01*
X25081954Y11402416D01*
X25043733Y11434967D01*
X24993021Y11481267D01*
X24933181Y11538274D01*
X24867571Y11602942D01*
X24650648Y11820228D01*
X24819601Y12068747D01*
X24988553Y12317267D01*
X24937183Y12428405D01*
X24937031Y12428734D01*
X24906183Y12499582D01*
X24874661Y12578477D01*
X24849266Y12648400D01*
X24845423Y12659678D01*
X24826047Y12712033D01*
X24808574Y12752717D01*
X24796388Y12773713D01*
X24791426Y12776678D01*
X24761634Y12786625D01*
X24711047Y12799495D01*
X24645194Y12813947D01*
X24569600Y12828645D01*
X24546957Y12832790D01*
X24465038Y12847884D01*
X24388600Y12862101D01*
X24325337Y12874005D01*
X24282943Y12882161D01*
X24206743Y12897201D01*
X24206743Y13214508D01*
X24206760Y13253524D01*
X24207082Y13348708D01*
X24208033Y13419745D01*
X24209896Y13470266D01*
X24212955Y13503902D01*
X24217494Y13524282D01*
X24223795Y13535038D01*
X24232143Y13539801D01*
X24240224Y13541730D01*
X24273172Y13548555D01*
X24325736Y13558978D01*
X24392569Y13571982D01*
X24468328Y13586551D01*
X24547665Y13601667D01*
X24625237Y13616315D01*
X24695698Y13629477D01*
X24753702Y13640137D01*
X24793904Y13647279D01*
X24810959Y13649886D01*
X24812112Y13651459D01*
X24821385Y13671881D01*
X24837432Y13710955D01*
X24857635Y13762371D01*
X24885672Y13831647D01*
X24920186Y13911710D01*
X24952538Y13982272D01*
X24959952Y13998111D01*
X24980755Y14047707D01*
X24993219Y14085962D01*
X24994863Y14105644D01*
X24994015Y14107038D01*
X24980548Y14127580D01*
X24953850Y14167484D01*
X24916539Y14222860D01*
X24871234Y14289823D01*
X24820552Y14364483D01*
X24763445Y14449308D01*
X24720607Y14515200D01*
X24691460Y14563522D01*
X24674317Y14597267D01*
X24667495Y14619428D01*
X24669306Y14632998D01*
X24669915Y14634016D01*
X24686297Y14653790D01*
X24719695Y14689825D01*
X24766671Y14738549D01*
X24823786Y14796388D01*
X24887603Y14859773D01*
X24953802Y14924095D01*
X25018648Y14984553D01*
X25066299Y15025345D01*
X25097990Y15047516D01*
X25114958Y15052111D01*
X25117175Y15051079D01*
X25140524Y15037163D01*
X25182912Y15009970D01*
X25240369Y14972111D01*
X25308923Y14926197D01*
X25384601Y14874840D01*
X25631298Y14706374D01*
X25742706Y14756938D01*
X25745943Y14758403D01*
X25814343Y14788035D01*
X25886907Y14817507D01*
X25948457Y14840642D01*
X25948729Y14840738D01*
X25997595Y14858633D01*
X26035212Y14873747D01*
X26053457Y14882816D01*
X26053752Y14883145D01*
X26059946Y14901718D01*
X26070139Y14943955D01*
X26083348Y15005304D01*
X26098590Y15081211D01*
X26114881Y15167125D01*
X26115449Y15170204D01*
X26131713Y15257872D01*
X26146608Y15337259D01*
X26159171Y15403299D01*
X26168438Y15450921D01*
X26173444Y15475057D01*
X26173764Y15476395D01*
X26177060Y15486727D01*
X26183738Y15494494D01*
X26197462Y15500060D01*
X26221895Y15503793D01*
X26260702Y15506058D01*
X26317546Y15507222D01*
X26396090Y15507652D01*
X26500000Y15507714D01*
X26513056Y15507714D01*
X26613933Y15507629D01*
X28900256Y10830082D02*
X28844799Y10802432D01*
X28844799Y10802432D02*
X28795852Y10751520D01*
X28795852Y10751520D02*
X28782371Y10732662D01*
X28782371Y10732662D02*
X28767686Y10707985D01*
X28767686Y10707985D02*
X28758158Y10681184D01*
X28758158Y10681184D02*
X28752707Y10645413D01*
X28752707Y10645413D02*
X28750253Y10593831D01*
X28750253Y10593831D02*
X28749714Y10525733D01*
X28749714Y10525733D02*
X28752148Y10432412D01*
X28752148Y10432412D02*
X28760606Y10362343D01*
X28760606Y10362343D02*
X28776826Y10310069D01*
X28776826Y10310069D02*
X28802546Y10270131D01*
X28802546Y10270131D02*
X28839503Y10237071D01*
X28839503Y10237071D02*
X28842218Y10235114D01*
X28842218Y10235114D02*
X28878640Y10215092D01*
X28878640Y10215092D02*
X28922498Y10205185D01*
X28922498Y10205185D02*
X28978276Y10202743D01*
X28978276Y10202743D02*
X29068952Y10202743D01*
X29068952Y10202743D02*
X29068990Y10114717D01*
X29068990Y10114717D02*
X29069834Y10065692D01*
X29069834Y10065692D02*
X29074976Y10036935D01*
X29074976Y10036935D02*
X29088413Y10019689D01*
X29088413Y10019689D02*
X29114142Y10005192D01*
X29114142Y10005192D02*
X29120321Y10002231D01*
X29120321Y10002231D02*
X29149236Y9988352D01*
X29149236Y9988352D02*
X29171624Y9979586D01*
X29171624Y9979586D02*
X29188271Y9978829D01*
X29188271Y9978829D02*
X29199964Y9988977D01*
X29199964Y9988977D02*
X29207490Y10012927D01*
X29207490Y10012927D02*
X29211634Y10053574D01*
X29211634Y10053574D02*
X29213185Y10113814D01*
X29213185Y10113814D02*
X29212929Y10196545D01*
X29212929Y10196545D02*
X29211651Y10304661D01*
X29211651Y10304661D02*
X29211252Y10337000D01*
X29211252Y10337000D02*
X29209815Y10448476D01*
X29209815Y10448476D02*
X29208528Y10521397D01*
X29208528Y10521397D02*
X29069029Y10521397D01*
X29069029Y10521397D02*
X29068245Y10459501D01*
X29068245Y10459501D02*
X29064760Y10419003D01*
X29064760Y10419003D02*
X29056876Y10392292D01*
X29056876Y10392292D02*
X29042895Y10371756D01*
X29042895Y10371756D02*
X29033403Y10361740D01*
X29033403Y10361740D02*
X28994596Y10332433D01*
X28994596Y10332433D02*
X28960237Y10330048D01*
X28960237Y10330048D02*
X28924784Y10354250D01*
X28924784Y10354250D02*
X28923886Y10355143D01*
X28923886Y10355143D02*
X28909461Y10373847D01*
X28909461Y10373847D02*
X28900687Y10399268D01*
X28900687Y10399268D02*
X28896261Y10438416D01*
X28896261Y10438416D02*
X28894882Y10498303D01*
X28894882Y10498303D02*
X28894857Y10511570D01*
X28894857Y10511570D02*
X28898188Y10594099D01*
X28898188Y10594099D02*
X28909031Y10651309D01*
X28909031Y10651309D02*
X28928660Y10686234D01*
X28928660Y10686234D02*
X28958350Y10701906D01*
X28958350Y10701906D02*
X28975509Y10703486D01*
X28975509Y10703486D02*
X29016234Y10696074D01*
X29016234Y10696074D02*
X29044168Y10671670D01*
X29044168Y10671670D02*
X29060983Y10627020D01*
X29060983Y10627020D02*
X29068350Y10558870D01*
X29068350Y10558870D02*
X29069029Y10521397D01*
X29069029Y10521397D02*
X29208528Y10521397D01*
X29208528Y10521397D02*
X29208292Y10534755D01*
X29208292Y10534755D02*
X29206323Y10599667D01*
X29206323Y10599667D02*
X29203550Y10647042D01*
X29203550Y10647042D02*
X29199612Y10680710D01*
X29199612Y10680710D02*
X29194151Y10704502D01*
X29194151Y10704502D02*
X29186808Y10722247D01*
X29186808Y10722247D02*
X29177223Y10737776D01*
X29177223Y10737776D02*
X29173113Y10743619D01*
X29173113Y10743619D02*
X29118595Y10798815D01*
X29118595Y10798815D02*
X29049664Y10830110D01*
X29049664Y10830110D02*
X28969928Y10838835D01*
X28969928Y10838835D02*
X28900256Y10830082D01*
X28900256Y10830082D02*
X28900256Y10830082D01*
G36*
X29211252Y10337000D02*
G01*
X29211651Y10304661D01*
X29212929Y10196545D01*
X29213185Y10113814D01*
X29211634Y10053574D01*
X29207490Y10012927D01*
X29199964Y9988977D01*
X29188271Y9978829D01*
X29171624Y9979586D01*
X29149236Y9988352D01*
X29120321Y10002231D01*
X29114142Y10005192D01*
X29088413Y10019689D01*
X29074976Y10036935D01*
X29069834Y10065692D01*
X29068990Y10114717D01*
X29068952Y10202743D01*
X28978276Y10202743D01*
X28922498Y10205185D01*
X28878640Y10215092D01*
X28842218Y10235114D01*
X28839503Y10237071D01*
X28802546Y10270131D01*
X28776826Y10310069D01*
X28760606Y10362343D01*
X28752148Y10432412D01*
X28750083Y10511570D01*
X28894857Y10511570D01*
X28894882Y10498303D01*
X28896261Y10438416D01*
X28900687Y10399268D01*
X28909461Y10373847D01*
X28923886Y10355143D01*
X28924784Y10354250D01*
X28960237Y10330048D01*
X28994596Y10332433D01*
X29033403Y10361740D01*
X29042895Y10371756D01*
X29056876Y10392292D01*
X29064760Y10419003D01*
X29068245Y10459501D01*
X29069029Y10521397D01*
X29068350Y10558870D01*
X29060983Y10627020D01*
X29044168Y10671670D01*
X29016234Y10696074D01*
X28975509Y10703486D01*
X28958350Y10701906D01*
X28928660Y10686234D01*
X28909031Y10651309D01*
X28898188Y10594099D01*
X28894857Y10511570D01*
X28750083Y10511570D01*
X28749714Y10525733D01*
X28750253Y10593831D01*
X28752707Y10645413D01*
X28758158Y10681184D01*
X28767686Y10707985D01*
X28782371Y10732662D01*
X28795852Y10751520D01*
X28844799Y10802432D01*
X28900256Y10830082D01*
X28969928Y10838835D01*
X29049664Y10830110D01*
X29118595Y10798815D01*
X29173113Y10743619D01*
X29177223Y10737776D01*
X29186808Y10722247D01*
X29194151Y10704502D01*
X29199612Y10680710D01*
X29203550Y10647042D01*
X29206323Y10599667D01*
X29208292Y10534755D01*
X29208528Y10521397D01*
X29209815Y10448476D01*
X29211252Y10337000D01*
G37*
X29211252Y10337000D02*
X29211651Y10304661D01*
X29212929Y10196545D01*
X29213185Y10113814D01*
X29211634Y10053574D01*
X29207490Y10012927D01*
X29199964Y9988977D01*
X29188271Y9978829D01*
X29171624Y9979586D01*
X29149236Y9988352D01*
X29120321Y10002231D01*
X29114142Y10005192D01*
X29088413Y10019689D01*
X29074976Y10036935D01*
X29069834Y10065692D01*
X29068990Y10114717D01*
X29068952Y10202743D01*
X28978276Y10202743D01*
X28922498Y10205185D01*
X28878640Y10215092D01*
X28842218Y10235114D01*
X28839503Y10237071D01*
X28802546Y10270131D01*
X28776826Y10310069D01*
X28760606Y10362343D01*
X28752148Y10432412D01*
X28750083Y10511570D01*
X28894857Y10511570D01*
X28894882Y10498303D01*
X28896261Y10438416D01*
X28900687Y10399268D01*
X28909461Y10373847D01*
X28923886Y10355143D01*
X28924784Y10354250D01*
X28960237Y10330048D01*
X28994596Y10332433D01*
X29033403Y10361740D01*
X29042895Y10371756D01*
X29056876Y10392292D01*
X29064760Y10419003D01*
X29068245Y10459501D01*
X29069029Y10521397D01*
X29068350Y10558870D01*
X29060983Y10627020D01*
X29044168Y10671670D01*
X29016234Y10696074D01*
X28975509Y10703486D01*
X28958350Y10701906D01*
X28928660Y10686234D01*
X28909031Y10651309D01*
X28898188Y10594099D01*
X28894857Y10511570D01*
X28750083Y10511570D01*
X28749714Y10525733D01*
X28750253Y10593831D01*
X28752707Y10645413D01*
X28758158Y10681184D01*
X28767686Y10707985D01*
X28782371Y10732662D01*
X28795852Y10751520D01*
X28844799Y10802432D01*
X28900256Y10830082D01*
X28969928Y10838835D01*
X29049664Y10830110D01*
X29118595Y10798815D01*
X29173113Y10743619D01*
X29177223Y10737776D01*
X29186808Y10722247D01*
X29194151Y10704502D01*
X29199612Y10680710D01*
X29203550Y10647042D01*
X29206323Y10599667D01*
X29208292Y10534755D01*
X29208528Y10521397D01*
X29209815Y10448476D01*
X29211252Y10337000D01*
X29458885Y10828038D02*
X29390855Y10792267D01*
X29390855Y10792267D02*
X29340649Y10734699D01*
X29340649Y10734699D02*
X29322815Y10697688D01*
X29322815Y10697688D02*
X29308937Y10642118D01*
X29308937Y10642118D02*
X29301833Y10571904D01*
X29301833Y10571904D02*
X29301160Y10495273D01*
X29301160Y10495273D02*
X29306573Y10420448D01*
X29306573Y10420448D02*
X29317730Y10355658D01*
X29317730Y10355658D02*
X29334286Y10309127D01*
X29334286Y10309127D02*
X29339374Y10301113D01*
X29339374Y10301113D02*
X29399645Y10241293D01*
X29399645Y10241293D02*
X29471231Y10205465D01*
X29471231Y10205465D02*
X29548908Y10194980D01*
X29548908Y10194980D02*
X29627452Y10211190D01*
X29627452Y10211190D02*
X29649311Y10220908D01*
X29649311Y10220908D02*
X29691878Y10250857D01*
X29691878Y10250857D02*
X29729237Y10290567D01*
X29729237Y10290567D02*
X29732768Y10295603D01*
X29732768Y10295603D02*
X29747119Y10319876D01*
X29747119Y10319876D02*
X29756606Y10345822D01*
X29756606Y10345822D02*
X29762210Y10379978D01*
X29762210Y10379978D02*
X29764914Y10428881D01*
X29764914Y10428881D02*
X29765701Y10499065D01*
X29765701Y10499065D02*
X29765714Y10514800D01*
X29765714Y10514800D02*
X29765678Y10519808D01*
X29765678Y10519808D02*
X29620571Y10519808D01*
X29620571Y10519808D02*
X29619727Y10453570D01*
X29619727Y10453570D02*
X29616404Y10409614D01*
X29616404Y10409614D02*
X29609417Y10381221D01*
X29609417Y10381221D02*
X29597584Y10361675D01*
X29597584Y10361675D02*
X29591543Y10355143D01*
X29591543Y10355143D02*
X29556814Y10330320D01*
X29556814Y10330320D02*
X29523097Y10331452D01*
X29523097Y10331452D02*
X29489005Y10352984D01*
X29489005Y10352984D02*
X29468671Y10375971D01*
X29468671Y10375971D02*
X29456629Y10409522D01*
X29456629Y10409522D02*
X29449866Y10462431D01*
X29449866Y10462431D02*
X29449402Y10468601D01*
X29449402Y10468601D02*
X29448248Y10564487D01*
X29448248Y10564487D02*
X29460312Y10635701D01*
X29460312Y10635701D02*
X29485430Y10681806D01*
X29485430Y10681806D02*
X29523440Y10702365D01*
X29523440Y10702365D02*
X29537008Y10703486D01*
X29537008Y10703486D02*
X29572636Y10697848D01*
X29572636Y10697848D02*
X29597006Y10678314D01*
X29597006Y10678314D02*
X29611907Y10640958D01*
X29611907Y10640958D02*
X29619125Y10581850D01*
X29619125Y10581850D02*
X29620571Y10519808D01*
X29620571Y10519808D02*
X29765678Y10519808D01*
X29765678Y10519808D02*
X29765174Y10589587D01*
X29765174Y10589587D02*
X29762904Y10641841D01*
X29762904Y10641841D02*
X29757932Y10678051D01*
X29757932Y10678051D02*
X29749287Y10704701D01*
X29749287Y10704701D02*
X29735995Y10728278D01*
X29735995Y10728278D02*
X29733057Y10732662D01*
X29733057Y10732662D02*
X29683687Y10791751D01*
X29683687Y10791751D02*
X29629891Y10826053D01*
X29629891Y10826053D02*
X29564398Y10839669D01*
X29564398Y10839669D02*
X29542158Y10840335D01*
X29542158Y10840335D02*
X29458885Y10828038D01*
X29458885Y10828038D02*
X29458885Y10828038D01*
G36*
X29765701Y10499065D02*
G01*
X29764914Y10428881D01*
X29762210Y10379978D01*
X29756606Y10345822D01*
X29747119Y10319876D01*
X29732768Y10295603D01*
X29729237Y10290567D01*
X29691878Y10250857D01*
X29649311Y10220908D01*
X29627452Y10211190D01*
X29548908Y10194980D01*
X29471231Y10205465D01*
X29399645Y10241293D01*
X29339374Y10301113D01*
X29334286Y10309127D01*
X29317730Y10355658D01*
X29306573Y10420448D01*
X29301160Y10495273D01*
X29301768Y10564487D01*
X29448248Y10564487D01*
X29449402Y10468601D01*
X29449866Y10462431D01*
X29456629Y10409522D01*
X29468671Y10375971D01*
X29489005Y10352984D01*
X29523097Y10331452D01*
X29556814Y10330320D01*
X29591543Y10355143D01*
X29597584Y10361675D01*
X29609417Y10381221D01*
X29616404Y10409614D01*
X29619727Y10453570D01*
X29620571Y10519808D01*
X29619125Y10581850D01*
X29611907Y10640958D01*
X29597006Y10678314D01*
X29572636Y10697848D01*
X29537008Y10703486D01*
X29523440Y10702365D01*
X29485430Y10681806D01*
X29460312Y10635701D01*
X29448248Y10564487D01*
X29301768Y10564487D01*
X29301833Y10571904D01*
X29308937Y10642118D01*
X29322815Y10697688D01*
X29340649Y10734699D01*
X29390855Y10792267D01*
X29458885Y10828038D01*
X29542158Y10840335D01*
X29564398Y10839669D01*
X29629891Y10826053D01*
X29683687Y10791751D01*
X29733057Y10732662D01*
X29735995Y10728278D01*
X29749287Y10704701D01*
X29757932Y10678051D01*
X29762904Y10641841D01*
X29765174Y10589587D01*
X29765678Y10519808D01*
X29765714Y10514800D01*
X29765701Y10499065D01*
G37*
X29765701Y10499065D02*
X29764914Y10428881D01*
X29762210Y10379978D01*
X29756606Y10345822D01*
X29747119Y10319876D01*
X29732768Y10295603D01*
X29729237Y10290567D01*
X29691878Y10250857D01*
X29649311Y10220908D01*
X29627452Y10211190D01*
X29548908Y10194980D01*
X29471231Y10205465D01*
X29399645Y10241293D01*
X29339374Y10301113D01*
X29334286Y10309127D01*
X29317730Y10355658D01*
X29306573Y10420448D01*
X29301160Y10495273D01*
X29301768Y10564487D01*
X29448248Y10564487D01*
X29449402Y10468601D01*
X29449866Y10462431D01*
X29456629Y10409522D01*
X29468671Y10375971D01*
X29489005Y10352984D01*
X29523097Y10331452D01*
X29556814Y10330320D01*
X29591543Y10355143D01*
X29597584Y10361675D01*
X29609417Y10381221D01*
X29616404Y10409614D01*
X29619727Y10453570D01*
X29620571Y10519808D01*
X29619125Y10581850D01*
X29611907Y10640958D01*
X29597006Y10678314D01*
X29572636Y10697848D01*
X29537008Y10703486D01*
X29523440Y10702365D01*
X29485430Y10681806D01*
X29460312Y10635701D01*
X29448248Y10564487D01*
X29301768Y10564487D01*
X29301833Y10571904D01*
X29308937Y10642118D01*
X29322815Y10697688D01*
X29340649Y10734699D01*
X29390855Y10792267D01*
X29458885Y10828038D01*
X29542158Y10840335D01*
X29564398Y10839669D01*
X29629891Y10826053D01*
X29683687Y10791751D01*
X29733057Y10732662D01*
X29735995Y10728278D01*
X29749287Y10704701D01*
X29757932Y10678051D01*
X29762904Y10641841D01*
X29765174Y10589587D01*
X29765678Y10519808D01*
X29765714Y10514800D01*
X29765701Y10499065D01*
X28331697Y10818761D02*
X28274473Y10780265D01*
X28274473Y10780265D02*
X28230251Y10724665D01*
X28230251Y10724665D02*
X28203833Y10653914D01*
X28203833Y10653914D02*
X28198490Y10601838D01*
X28198490Y10601838D02*
X28199097Y10580107D01*
X28199097Y10580107D02*
X28204178Y10563469D01*
X28204178Y10563469D02*
X28218145Y10548563D01*
X28218145Y10548563D02*
X28245411Y10532027D01*
X28245411Y10532027D02*
X28290388Y10510502D01*
X28290388Y10510502D02*
X28357489Y10480626D01*
X28357489Y10480626D02*
X28357829Y10480476D01*
X28357829Y10480476D02*
X28419593Y10452187D01*
X28419593Y10452187D02*
X28470241Y10427067D01*
X28470241Y10427067D02*
X28504596Y10407821D01*
X28504596Y10407821D02*
X28517482Y10397152D01*
X28517482Y10397152D02*
X28517486Y10397066D01*
X28517486Y10397066D02*
X28506128Y10373834D01*
X28506128Y10373834D02*
X28479569Y10348226D01*
X28479569Y10348226D02*
X28449077Y10329779D01*
X28449077Y10329779D02*
X28433630Y10326114D01*
X28433630Y10326114D02*
X28391485Y10338788D01*
X28391485Y10338788D02*
X28355192Y10370529D01*
X28355192Y10370529D02*
X28337483Y10405428D01*
X28337483Y10405428D02*
X28320448Y10431155D01*
X28320448Y10431155D02*
X28287078Y10460454D01*
X28287078Y10460454D02*
X28247851Y10485765D01*
X28247851Y10485765D02*
X28213244Y10499529D01*
X28213244Y10499529D02*
X28206007Y10500286D01*
X28206007Y10500286D02*
X28197861Y10487840D01*
X28197861Y10487840D02*
X28197370Y10456028D01*
X28197370Y10456028D02*
X28203357Y10413134D01*
X28203357Y10413134D02*
X28214643Y10367442D01*
X28214643Y10367442D02*
X28230050Y10327239D01*
X28230050Y10327239D02*
X28230829Y10325678D01*
X28230829Y10325678D02*
X28277196Y10260938D01*
X28277196Y10260938D02*
X28337289Y10216903D01*
X28337289Y10216903D02*
X28405535Y10195289D01*
X28405535Y10195289D02*
X28476362Y10197815D01*
X28476362Y10197815D02*
X28544196Y10226196D01*
X28544196Y10226196D02*
X28547212Y10228192D01*
X28547212Y10228192D02*
X28600573Y10276552D01*
X28600573Y10276552D02*
X28635660Y10339648D01*
X28635660Y10339648D02*
X28655078Y10422613D01*
X28655078Y10422613D02*
X28657684Y10445922D01*
X28657684Y10445922D02*
X28662299Y10555945D01*
X28662299Y10555945D02*
X28656767Y10607252D01*
X28656767Y10607252D02*
X28517486Y10607252D01*
X28517486Y10607252D02*
X28515676Y10575247D01*
X28515676Y10575247D02*
X28505778Y10565907D01*
X28505778Y10565907D02*
X28481102Y10572895D01*
X28481102Y10572895D02*
X28442205Y10589413D01*
X28442205Y10589413D02*
X28398725Y10610119D01*
X28398725Y10610119D02*
X28397644Y10610667D01*
X28397644Y10610667D02*
X28360791Y10630051D01*
X28360791Y10630051D02*
X28346000Y10642987D01*
X28346000Y10642987D02*
X28349647Y10656549D01*
X28349647Y10656549D02*
X28365005Y10674368D01*
X28365005Y10674368D02*
X28404077Y10700155D01*
X28404077Y10700155D02*
X28446154Y10702050D01*
X28446154Y10702050D02*
X28483897Y10683283D01*
X28483897Y10683283D02*
X28509966Y10647085D01*
X28509966Y10647085D02*
X28517486Y10607252D01*
X28517486Y10607252D02*
X28656767Y10607252D01*
X28656767Y10607252D02*
X28652806Y10643973D01*
X28652806Y10643973D02*
X28628450Y10713788D01*
X28628450Y10713788D02*
X28594544Y10762698D01*
X28594544Y10762698D02*
X28533347Y10812122D01*
X28533347Y10812122D02*
X28465937Y10836641D01*
X28465937Y10836641D02*
X28397120Y10838203D01*
X28397120Y10838203D02*
X28331697Y10818761D01*
X28331697Y10818761D02*
X28331697Y10818761D01*
G36*
X28657684Y10445922D02*
G01*
X28655078Y10422613D01*
X28635660Y10339648D01*
X28600573Y10276552D01*
X28547212Y10228192D01*
X28544196Y10226196D01*
X28476362Y10197815D01*
X28405535Y10195289D01*
X28337289Y10216903D01*
X28277196Y10260938D01*
X28230829Y10325678D01*
X28230050Y10327239D01*
X28214643Y10367442D01*
X28203357Y10413134D01*
X28197370Y10456028D01*
X28197861Y10487840D01*
X28206007Y10500286D01*
X28213244Y10499529D01*
X28247851Y10485765D01*
X28287078Y10460454D01*
X28320448Y10431155D01*
X28337483Y10405428D01*
X28355192Y10370529D01*
X28391485Y10338788D01*
X28433630Y10326114D01*
X28449077Y10329779D01*
X28479569Y10348226D01*
X28506128Y10373834D01*
X28517486Y10397066D01*
X28517482Y10397152D01*
X28504596Y10407821D01*
X28470241Y10427067D01*
X28419593Y10452187D01*
X28357829Y10480476D01*
X28357489Y10480626D01*
X28290388Y10510502D01*
X28245411Y10532027D01*
X28218145Y10548563D01*
X28204178Y10563469D01*
X28199097Y10580107D01*
X28198490Y10601838D01*
X28202712Y10642987D01*
X28346000Y10642987D01*
X28360791Y10630051D01*
X28397644Y10610667D01*
X28398725Y10610119D01*
X28442205Y10589413D01*
X28481102Y10572895D01*
X28505778Y10565907D01*
X28515676Y10575247D01*
X28517486Y10607252D01*
X28509966Y10647085D01*
X28483897Y10683283D01*
X28446154Y10702050D01*
X28404077Y10700155D01*
X28365005Y10674368D01*
X28349647Y10656549D01*
X28346000Y10642987D01*
X28202712Y10642987D01*
X28203833Y10653914D01*
X28230251Y10724665D01*
X28274473Y10780265D01*
X28331697Y10818761D01*
X28397120Y10838203D01*
X28465937Y10836641D01*
X28533347Y10812122D01*
X28594544Y10762698D01*
X28628450Y10713788D01*
X28652806Y10643973D01*
X28656767Y10607252D01*
X28662299Y10555945D01*
X28657684Y10445922D01*
G37*
X28657684Y10445922D02*
X28655078Y10422613D01*
X28635660Y10339648D01*
X28600573Y10276552D01*
X28547212Y10228192D01*
X28544196Y10226196D01*
X28476362Y10197815D01*
X28405535Y10195289D01*
X28337289Y10216903D01*
X28277196Y10260938D01*
X28230829Y10325678D01*
X28230050Y10327239D01*
X28214643Y10367442D01*
X28203357Y10413134D01*
X28197370Y10456028D01*
X28197861Y10487840D01*
X28206007Y10500286D01*
X28213244Y10499529D01*
X28247851Y10485765D01*
X28287078Y10460454D01*
X28320448Y10431155D01*
X28337483Y10405428D01*
X28355192Y10370529D01*
X28391485Y10338788D01*
X28433630Y10326114D01*
X28449077Y10329779D01*
X28479569Y10348226D01*
X28506128Y10373834D01*
X28517486Y10397066D01*
X28517482Y10397152D01*
X28504596Y10407821D01*
X28470241Y10427067D01*
X28419593Y10452187D01*
X28357829Y10480476D01*
X28357489Y10480626D01*
X28290388Y10510502D01*
X28245411Y10532027D01*
X28218145Y10548563D01*
X28204178Y10563469D01*
X28199097Y10580107D01*
X28198490Y10601838D01*
X28202712Y10642987D01*
X28346000Y10642987D01*
X28360791Y10630051D01*
X28397644Y10610667D01*
X28398725Y10610119D01*
X28442205Y10589413D01*
X28481102Y10572895D01*
X28505778Y10565907D01*
X28515676Y10575247D01*
X28517486Y10607252D01*
X28509966Y10647085D01*
X28483897Y10683283D01*
X28446154Y10702050D01*
X28404077Y10700155D01*
X28365005Y10674368D01*
X28349647Y10656549D01*
X28346000Y10642987D01*
X28202712Y10642987D01*
X28203833Y10653914D01*
X28230251Y10724665D01*
X28274473Y10780265D01*
X28331697Y10818761D01*
X28397120Y10838203D01*
X28465937Y10836641D01*
X28533347Y10812122D01*
X28594544Y10762698D01*
X28628450Y10713788D01*
X28652806Y10643973D01*
X28656767Y10607252D01*
X28662299Y10555945D01*
X28657684Y10445922D01*
X25309883Y10684642D02*
X25310067Y10576163D01*
X25310067Y10576163D02*
X25310781Y10492713D01*
X25310781Y10492713D02*
X25312325Y10430296D01*
X25312325Y10430296D02*
X25314999Y10384915D01*
X25314999Y10384915D02*
X25319106Y10352571D01*
X25319106Y10352571D02*
X25324945Y10329267D01*
X25324945Y10329267D02*
X25332818Y10311005D01*
X25332818Y10311005D02*
X25338779Y10300582D01*
X25338779Y10300582D02*
X25388145Y10244055D01*
X25388145Y10244055D02*
X25450736Y10208623D01*
X25450736Y10208623D02*
X25519987Y10195910D01*
X25519987Y10195910D02*
X25589332Y10207537D01*
X25589332Y10207537D02*
X25630625Y10228432D01*
X25630625Y10228432D02*
X25673975Y10264578D01*
X25673975Y10264578D02*
X25703519Y10308724D01*
X25703519Y10308724D02*
X25721345Y10366538D01*
X25721345Y10366538D02*
X25729537Y10443687D01*
X25729537Y10443687D02*
X25730698Y10500286D01*
X25730698Y10500286D02*
X25730542Y10504353D01*
X25730542Y10504353D02*
X25629143Y10504353D01*
X25629143Y10504353D02*
X25628524Y10439450D01*
X25628524Y10439450D02*
X25625686Y10396486D01*
X25625686Y10396486D02*
X25619160Y10368378D01*
X25619160Y10368378D02*
X25607477Y10348047D01*
X25607477Y10348047D02*
X25593517Y10332712D01*
X25593517Y10332712D02*
X25546635Y10303110D01*
X25546635Y10303110D02*
X25496299Y10300581D01*
X25496299Y10300581D02*
X25448724Y10325295D01*
X25448724Y10325295D02*
X25445021Y10328644D01*
X25445021Y10328644D02*
X25429217Y10346065D01*
X25429217Y10346065D02*
X25419307Y10366791D01*
X25419307Y10366791D02*
X25413942Y10397638D01*
X25413942Y10397638D02*
X25411772Y10445423D01*
X25411772Y10445423D02*
X25411429Y10498252D01*
X25411429Y10498252D02*
X25412173Y10564619D01*
X25412173Y10564619D02*
X25415252Y10608894D01*
X25415252Y10608894D02*
X25421939Y10637991D01*
X25421939Y10637991D02*
X25433504Y10658827D01*
X25433504Y10658827D02*
X25442987Y10669893D01*
X25442987Y10669893D02*
X25487040Y10697802D01*
X25487040Y10697802D02*
X25537776Y10701157D01*
X25537776Y10701157D02*
X25586204Y10679841D01*
X25586204Y10679841D02*
X25595550Y10671927D01*
X25595550Y10671927D02*
X25611460Y10654353D01*
X25611460Y10654353D02*
X25621390Y10633413D01*
X25621390Y10633413D02*
X25626722Y10602218D01*
X25626722Y10602218D02*
X25628837Y10553878D01*
X25628837Y10553878D02*
X25629143Y10504353D01*
X25629143Y10504353D02*
X25730542Y10504353D01*
X25730542Y10504353D02*
X25727190Y10591432D01*
X25727190Y10591432D02*
X25715274Y10659914D01*
X25715274Y10659914D02*
X25692865Y10711400D01*
X25692865Y10711400D02*
X25657876Y10751557D01*
X25657876Y10751557D02*
X25630625Y10772139D01*
X25630625Y10772139D02*
X25581093Y10794375D01*
X25581093Y10794375D02*
X25523684Y10804696D01*
X25523684Y10804696D02*
X25470318Y10801933D01*
X25470318Y10801933D02*
X25440457Y10790788D01*
X25440457Y10790788D02*
X25428739Y10787617D01*
X25428739Y10787617D02*
X25420963Y10799443D01*
X25420963Y10799443D02*
X25415535Y10831134D01*
X25415535Y10831134D02*
X25411429Y10879407D01*
X25411429Y10879407D02*
X25406933Y10933171D01*
X25406933Y10933171D02*
X25400687Y10965518D01*
X25400687Y10965518D02*
X25389324Y10984015D01*
X25389324Y10984015D02*
X25369472Y10996230D01*
X25369472Y10996230D02*
X25357000Y11001638D01*
X25357000Y11001638D02*
X25309829Y11021399D01*
X25309829Y11021399D02*
X25309883Y10684642D01*
X25309883Y10684642D02*
X25309883Y10684642D01*
G36*
X25729537Y10443687D02*
G01*
X25721345Y10366538D01*
X25703519Y10308724D01*
X25673975Y10264578D01*
X25630625Y10228432D01*
X25589332Y10207537D01*
X25519987Y10195910D01*
X25450736Y10208623D01*
X25388145Y10244055D01*
X25338779Y10300582D01*
X25332818Y10311005D01*
X25324945Y10329267D01*
X25319106Y10352571D01*
X25314999Y10384915D01*
X25312325Y10430296D01*
X25310781Y10492713D01*
X25310734Y10498252D01*
X25411429Y10498252D01*
X25411772Y10445423D01*
X25413942Y10397638D01*
X25419307Y10366791D01*
X25429217Y10346065D01*
X25445021Y10328644D01*
X25448724Y10325295D01*
X25496299Y10300581D01*
X25546635Y10303110D01*
X25593517Y10332712D01*
X25607477Y10348047D01*
X25619160Y10368378D01*
X25625686Y10396486D01*
X25628524Y10439450D01*
X25629143Y10504353D01*
X25628837Y10553878D01*
X25626722Y10602218D01*
X25621390Y10633413D01*
X25611460Y10654353D01*
X25595550Y10671927D01*
X25586204Y10679841D01*
X25537776Y10701157D01*
X25487040Y10697802D01*
X25442987Y10669893D01*
X25433504Y10658827D01*
X25421939Y10637991D01*
X25415252Y10608894D01*
X25412173Y10564619D01*
X25411429Y10498252D01*
X25310734Y10498252D01*
X25310067Y10576163D01*
X25309883Y10684642D01*
X25309829Y11021399D01*
X25357000Y11001638D01*
X25369472Y10996230D01*
X25389324Y10984015D01*
X25400687Y10965518D01*
X25406933Y10933171D01*
X25411429Y10879407D01*
X25415535Y10831134D01*
X25420963Y10799443D01*
X25428739Y10787617D01*
X25440457Y10790788D01*
X25470318Y10801933D01*
X25523684Y10804696D01*
X25581093Y10794375D01*
X25630625Y10772139D01*
X25657876Y10751557D01*
X25692865Y10711400D01*
X25715274Y10659914D01*
X25727190Y10591432D01*
X25730542Y10504353D01*
X25730698Y10500286D01*
X25729537Y10443687D01*
G37*
X25729537Y10443687D02*
X25721345Y10366538D01*
X25703519Y10308724D01*
X25673975Y10264578D01*
X25630625Y10228432D01*
X25589332Y10207537D01*
X25519987Y10195910D01*
X25450736Y10208623D01*
X25388145Y10244055D01*
X25338779Y10300582D01*
X25332818Y10311005D01*
X25324945Y10329267D01*
X25319106Y10352571D01*
X25314999Y10384915D01*
X25312325Y10430296D01*
X25310781Y10492713D01*
X25310734Y10498252D01*
X25411429Y10498252D01*
X25411772Y10445423D01*
X25413942Y10397638D01*
X25419307Y10366791D01*
X25429217Y10346065D01*
X25445021Y10328644D01*
X25448724Y10325295D01*
X25496299Y10300581D01*
X25546635Y10303110D01*
X25593517Y10332712D01*
X25607477Y10348047D01*
X25619160Y10368378D01*
X25625686Y10396486D01*
X25628524Y10439450D01*
X25629143Y10504353D01*
X25628837Y10553878D01*
X25626722Y10602218D01*
X25621390Y10633413D01*
X25611460Y10654353D01*
X25595550Y10671927D01*
X25586204Y10679841D01*
X25537776Y10701157D01*
X25487040Y10697802D01*
X25442987Y10669893D01*
X25433504Y10658827D01*
X25421939Y10637991D01*
X25415252Y10608894D01*
X25412173Y10564619D01*
X25411429Y10498252D01*
X25310734Y10498252D01*
X25310067Y10576163D01*
X25309883Y10684642D01*
X25309829Y11021399D01*
X25357000Y11001638D01*
X25369472Y10996230D01*
X25389324Y10984015D01*
X25400687Y10965518D01*
X25406933Y10933171D01*
X25411429Y10879407D01*
X25415535Y10831134D01*
X25420963Y10799443D01*
X25428739Y10787617D01*
X25440457Y10790788D01*
X25470318Y10801933D01*
X25523684Y10804696D01*
X25581093Y10794375D01*
X25630625Y10772139D01*
X25657876Y10751557D01*
X25692865Y10711400D01*
X25715274Y10659914D01*
X25727190Y10591432D01*
X25730542Y10504353D01*
X25730698Y10500286D01*
X25729537Y10443687D01*
X24355124Y10793665D02*
X24313333Y10774656D01*
X24313333Y10774656D02*
X24280531Y10751622D01*
X24280531Y10751622D02*
X24256497Y10725867D01*
X24256497Y10725867D02*
X24239903Y10692642D01*
X24239903Y10692642D02*
X24229423Y10647200D01*
X24229423Y10647200D02*
X24223729Y10584793D01*
X24223729Y10584793D02*
X24221493Y10500673D01*
X24221493Y10500673D02*
X24221257Y10445279D01*
X24221257Y10445279D02*
X24221257Y10229174D01*
X24221257Y10229174D02*
X24258226Y10212330D01*
X24258226Y10212330D02*
X24287344Y10200019D01*
X24287344Y10200019D02*
X24301769Y10195486D01*
X24301769Y10195486D02*
X24304528Y10208975D01*
X24304528Y10208975D02*
X24306718Y10245347D01*
X24306718Y10245347D02*
X24308058Y10298458D01*
X24308058Y10298458D02*
X24308343Y10340628D01*
X24308343Y10340628D02*
X24309566Y10401553D01*
X24309566Y10401553D02*
X24312864Y10449885D01*
X24312864Y10449885D02*
X24317679Y10479482D01*
X24317679Y10479482D02*
X24321504Y10485771D01*
X24321504Y10485771D02*
X24347217Y10479348D01*
X24347217Y10479348D02*
X24387582Y10462875D01*
X24387582Y10462875D02*
X24434321Y10440542D01*
X24434321Y10440542D02*
X24479155Y10416543D01*
X24479155Y10416543D02*
X24513807Y10395070D01*
X24513807Y10395070D02*
X24529998Y10380315D01*
X24529998Y10380315D02*
X24530062Y10380155D01*
X24530062Y10380155D02*
X24528670Y10352848D01*
X24528670Y10352848D02*
X24516182Y10326781D01*
X24516182Y10326781D02*
X24494257Y10305608D01*
X24494257Y10305608D02*
X24462257Y10298526D01*
X24462257Y10298526D02*
X24434908Y10299351D01*
X24434908Y10299351D02*
X24396174Y10299958D01*
X24396174Y10299958D02*
X24375842Y10290884D01*
X24375842Y10290884D02*
X24363631Y10266908D01*
X24363631Y10266908D02*
X24362091Y10262387D01*
X24362091Y10262387D02*
X24356797Y10228194D01*
X24356797Y10228194D02*
X24370953Y10207432D01*
X24370953Y10207432D02*
X24407852Y10197538D01*
X24407852Y10197538D02*
X24447711Y10195708D01*
X24447711Y10195708D02*
X24519438Y10209273D01*
X24519438Y10209273D02*
X24556568Y10228645D01*
X24556568Y10228645D02*
X24602424Y10274155D01*
X24602424Y10274155D02*
X24626744Y10330017D01*
X24626744Y10330017D02*
X24628927Y10389043D01*
X24628927Y10389043D02*
X24608371Y10444047D01*
X24608371Y10444047D02*
X24577451Y10478514D01*
X24577451Y10478514D02*
X24546580Y10497811D01*
X24546580Y10497811D02*
X24498058Y10522241D01*
X24498058Y10522241D02*
X24441515Y10547015D01*
X24441515Y10547015D02*
X24432090Y10550801D01*
X24432090Y10550801D02*
X24369981Y10578209D01*
X24369981Y10578209D02*
X24334178Y10602366D01*
X24334178Y10602366D02*
X24322663Y10626381D01*
X24322663Y10626381D02*
X24333420Y10653365D01*
X24333420Y10653365D02*
X24351886Y10674457D01*
X24351886Y10674457D02*
X24395531Y10700428D01*
X24395531Y10700428D02*
X24443554Y10702376D01*
X24443554Y10702376D02*
X24487594Y10682363D01*
X24487594Y10682363D02*
X24519291Y10642449D01*
X24519291Y10642449D02*
X24523451Y10632152D01*
X24523451Y10632152D02*
X24547673Y10594276D01*
X24547673Y10594276D02*
X24583035Y10566158D01*
X24583035Y10566158D02*
X24627657Y10543083D01*
X24627657Y10543083D02*
X24627657Y10608515D01*
X24627657Y10608515D02*
X24625031Y10648494D01*
X24625031Y10648494D02*
X24613770Y10680003D01*
X24613770Y10680003D02*
X24588801Y10713622D01*
X24588801Y10713622D02*
X24564831Y10739516D01*
X24564831Y10739516D02*
X24527559Y10776183D01*
X24527559Y10776183D02*
X24498599Y10795879D01*
X24498599Y10795879D02*
X24467495Y10803780D01*
X24467495Y10803780D02*
X24432287Y10805086D01*
X24432287Y10805086D02*
X24355124Y10793665D01*
X24355124Y10793665D02*
X24355124Y10793665D01*
G36*
X24467495Y10803780D02*
G01*
X24498599Y10795879D01*
X24527559Y10776183D01*
X24564831Y10739516D01*
X24588801Y10713622D01*
X24613770Y10680003D01*
X24625031Y10648494D01*
X24627657Y10608515D01*
X24627657Y10543083D01*
X24583035Y10566158D01*
X24547673Y10594276D01*
X24523451Y10632152D01*
X24519291Y10642449D01*
X24487594Y10682363D01*
X24443554Y10702376D01*
X24395531Y10700428D01*
X24351886Y10674457D01*
X24333420Y10653365D01*
X24322663Y10626381D01*
X24334178Y10602366D01*
X24369981Y10578209D01*
X24432090Y10550801D01*
X24441515Y10547015D01*
X24498058Y10522241D01*
X24546580Y10497811D01*
X24577451Y10478514D01*
X24608371Y10444047D01*
X24628927Y10389043D01*
X24626744Y10330017D01*
X24602424Y10274155D01*
X24556568Y10228645D01*
X24519438Y10209273D01*
X24447711Y10195708D01*
X24407852Y10197538D01*
X24370953Y10207432D01*
X24356797Y10228194D01*
X24362091Y10262387D01*
X24363631Y10266908D01*
X24375842Y10290884D01*
X24396174Y10299958D01*
X24434908Y10299351D01*
X24462257Y10298526D01*
X24494257Y10305608D01*
X24516182Y10326781D01*
X24528670Y10352848D01*
X24530062Y10380155D01*
X24529998Y10380315D01*
X24513807Y10395070D01*
X24479155Y10416543D01*
X24434321Y10440542D01*
X24387582Y10462875D01*
X24347217Y10479348D01*
X24321504Y10485771D01*
X24317679Y10479482D01*
X24312864Y10449885D01*
X24309566Y10401553D01*
X24308343Y10340628D01*
X24308058Y10298458D01*
X24306718Y10245347D01*
X24304528Y10208975D01*
X24301769Y10195486D01*
X24287344Y10200019D01*
X24258226Y10212330D01*
X24221257Y10229174D01*
X24221257Y10445279D01*
X24221493Y10500673D01*
X24223729Y10584793D01*
X24229423Y10647200D01*
X24239903Y10692642D01*
X24256497Y10725867D01*
X24280531Y10751622D01*
X24313333Y10774656D01*
X24355124Y10793665D01*
X24432287Y10805086D01*
X24467495Y10803780D01*
G37*
X24467495Y10803780D02*
X24498599Y10795879D01*
X24527559Y10776183D01*
X24564831Y10739516D01*
X24588801Y10713622D01*
X24613770Y10680003D01*
X24625031Y10648494D01*
X24627657Y10608515D01*
X24627657Y10543083D01*
X24583035Y10566158D01*
X24547673Y10594276D01*
X24523451Y10632152D01*
X24519291Y10642449D01*
X24487594Y10682363D01*
X24443554Y10702376D01*
X24395531Y10700428D01*
X24351886Y10674457D01*
X24333420Y10653365D01*
X24322663Y10626381D01*
X24334178Y10602366D01*
X24369981Y10578209D01*
X24432090Y10550801D01*
X24441515Y10547015D01*
X24498058Y10522241D01*
X24546580Y10497811D01*
X24577451Y10478514D01*
X24608371Y10444047D01*
X24628927Y10389043D01*
X24626744Y10330017D01*
X24602424Y10274155D01*
X24556568Y10228645D01*
X24519438Y10209273D01*
X24447711Y10195708D01*
X24407852Y10197538D01*
X24370953Y10207432D01*
X24356797Y10228194D01*
X24362091Y10262387D01*
X24363631Y10266908D01*
X24375842Y10290884D01*
X24396174Y10299958D01*
X24434908Y10299351D01*
X24462257Y10298526D01*
X24494257Y10305608D01*
X24516182Y10326781D01*
X24528670Y10352848D01*
X24530062Y10380155D01*
X24529998Y10380315D01*
X24513807Y10395070D01*
X24479155Y10416543D01*
X24434321Y10440542D01*
X24387582Y10462875D01*
X24347217Y10479348D01*
X24321504Y10485771D01*
X24317679Y10479482D01*
X24312864Y10449885D01*
X24309566Y10401553D01*
X24308343Y10340628D01*
X24308058Y10298458D01*
X24306718Y10245347D01*
X24304528Y10208975D01*
X24301769Y10195486D01*
X24287344Y10200019D01*
X24258226Y10212330D01*
X24221257Y10229174D01*
X24221257Y10445279D01*
X24221493Y10500673D01*
X24223729Y10584793D01*
X24229423Y10647200D01*
X24239903Y10692642D01*
X24256497Y10725867D01*
X24280531Y10751622D01*
X24313333Y10774656D01*
X24355124Y10793665D01*
X24432287Y10805086D01*
X24467495Y10803780D01*
M02*
