G04 #@! TF.GenerationSoftware,KiCad,Pcbnew,(5.1.0-1558-g0ba0c1724)*
G04 #@! TF.CreationDate,2019-11-25T19:03:30-08:00*
G04 #@! TF.ProjectId,MP-Power,4d502d50-6f77-4657-922e-6b696361645f,rev?*
G04 #@! TF.SameCoordinates,Original*
G04 #@! TF.FileFunction,Copper,L1,Top*
G04 #@! TF.FilePolarity,Positive*
%FSLAX46Y46*%
G04 Gerber Fmt 4.6, Leading zero omitted, Abs format (unit mm)*
G04 Created by KiCad (PCBNEW (5.1.0-1558-g0ba0c1724)) date 2019-11-25 19:03:30*
%MOMM*%
%LPD*%
G04 APERTURE LIST*
%ADD10R,3.200000X2.514000*%
%ADD11C,0.500000*%
%ADD12C,0.100000*%
%ADD13C,0.600000*%
%ADD14C,0.875000*%
%ADD15R,1.500000X2.500000*%
%ADD16R,1.800000X2.500000*%
%ADD17C,0.975000*%
%ADD18C,1.250000*%
%ADD19C,0.508000*%
%ADD20C,0.800000*%
%ADD21C,0.381000*%
%ADD22C,0.250000*%
%ADD23C,0.254000*%
%ADD24C,0.152400*%
G04 APERTURE END LIST*
D10*
X114000000Y-78500000D03*
D11*
X115000000Y-77800000D03*
X115000000Y-79200000D03*
X114000000Y-77800000D03*
X114000000Y-79200000D03*
X113000000Y-77800000D03*
X113000000Y-79200000D03*
D12*
G36*
X116112403Y-75061418D02*
G01*
X116161066Y-75093934D01*
X116193582Y-75142597D01*
X116205000Y-75200000D01*
X116205000Y-76525000D01*
X116193582Y-76582403D01*
X116161066Y-76631066D01*
X116112403Y-76663582D01*
X116055000Y-76675000D01*
X115755000Y-76675000D01*
X115697597Y-76663582D01*
X115648934Y-76631066D01*
X115616418Y-76582403D01*
X115605000Y-76525000D01*
X115605000Y-75200000D01*
X115616418Y-75142597D01*
X115648934Y-75093934D01*
X115697597Y-75061418D01*
X115755000Y-75050000D01*
X116055000Y-75050000D01*
X116112403Y-75061418D01*
X116112403Y-75061418D01*
G37*
D13*
X115905000Y-75862500D03*
D12*
G36*
X114842403Y-75061418D02*
G01*
X114891066Y-75093934D01*
X114923582Y-75142597D01*
X114935000Y-75200000D01*
X114935000Y-76525000D01*
X114923582Y-76582403D01*
X114891066Y-76631066D01*
X114842403Y-76663582D01*
X114785000Y-76675000D01*
X114485000Y-76675000D01*
X114427597Y-76663582D01*
X114378934Y-76631066D01*
X114346418Y-76582403D01*
X114335000Y-76525000D01*
X114335000Y-75200000D01*
X114346418Y-75142597D01*
X114378934Y-75093934D01*
X114427597Y-75061418D01*
X114485000Y-75050000D01*
X114785000Y-75050000D01*
X114842403Y-75061418D01*
X114842403Y-75061418D01*
G37*
D13*
X114635000Y-75862500D03*
D12*
G36*
X113572403Y-75061418D02*
G01*
X113621066Y-75093934D01*
X113653582Y-75142597D01*
X113665000Y-75200000D01*
X113665000Y-76525000D01*
X113653582Y-76582403D01*
X113621066Y-76631066D01*
X113572403Y-76663582D01*
X113515000Y-76675000D01*
X113215000Y-76675000D01*
X113157597Y-76663582D01*
X113108934Y-76631066D01*
X113076418Y-76582403D01*
X113065000Y-76525000D01*
X113065000Y-75200000D01*
X113076418Y-75142597D01*
X113108934Y-75093934D01*
X113157597Y-75061418D01*
X113215000Y-75050000D01*
X113515000Y-75050000D01*
X113572403Y-75061418D01*
X113572403Y-75061418D01*
G37*
D13*
X113365000Y-75862500D03*
D12*
G36*
X112302403Y-75061418D02*
G01*
X112351066Y-75093934D01*
X112383582Y-75142597D01*
X112395000Y-75200000D01*
X112395000Y-76525000D01*
X112383582Y-76582403D01*
X112351066Y-76631066D01*
X112302403Y-76663582D01*
X112245000Y-76675000D01*
X111945000Y-76675000D01*
X111887597Y-76663582D01*
X111838934Y-76631066D01*
X111806418Y-76582403D01*
X111795000Y-76525000D01*
X111795000Y-75200000D01*
X111806418Y-75142597D01*
X111838934Y-75093934D01*
X111887597Y-75061418D01*
X111945000Y-75050000D01*
X112245000Y-75050000D01*
X112302403Y-75061418D01*
X112302403Y-75061418D01*
G37*
D13*
X112095000Y-75862500D03*
D12*
G36*
X112302403Y-80336418D02*
G01*
X112351066Y-80368934D01*
X112383582Y-80417597D01*
X112395000Y-80475000D01*
X112395000Y-81800000D01*
X112383582Y-81857403D01*
X112351066Y-81906066D01*
X112302403Y-81938582D01*
X112245000Y-81950000D01*
X111945000Y-81950000D01*
X111887597Y-81938582D01*
X111838934Y-81906066D01*
X111806418Y-81857403D01*
X111795000Y-81800000D01*
X111795000Y-80475000D01*
X111806418Y-80417597D01*
X111838934Y-80368934D01*
X111887597Y-80336418D01*
X111945000Y-80325000D01*
X112245000Y-80325000D01*
X112302403Y-80336418D01*
X112302403Y-80336418D01*
G37*
D13*
X112095000Y-81137500D03*
D12*
G36*
X113572403Y-80336418D02*
G01*
X113621066Y-80368934D01*
X113653582Y-80417597D01*
X113665000Y-80475000D01*
X113665000Y-81800000D01*
X113653582Y-81857403D01*
X113621066Y-81906066D01*
X113572403Y-81938582D01*
X113515000Y-81950000D01*
X113215000Y-81950000D01*
X113157597Y-81938582D01*
X113108934Y-81906066D01*
X113076418Y-81857403D01*
X113065000Y-81800000D01*
X113065000Y-80475000D01*
X113076418Y-80417597D01*
X113108934Y-80368934D01*
X113157597Y-80336418D01*
X113215000Y-80325000D01*
X113515000Y-80325000D01*
X113572403Y-80336418D01*
X113572403Y-80336418D01*
G37*
D13*
X113365000Y-81137500D03*
D12*
G36*
X114842403Y-80336418D02*
G01*
X114891066Y-80368934D01*
X114923582Y-80417597D01*
X114935000Y-80475000D01*
X114935000Y-81800000D01*
X114923582Y-81857403D01*
X114891066Y-81906066D01*
X114842403Y-81938582D01*
X114785000Y-81950000D01*
X114485000Y-81950000D01*
X114427597Y-81938582D01*
X114378934Y-81906066D01*
X114346418Y-81857403D01*
X114335000Y-81800000D01*
X114335000Y-80475000D01*
X114346418Y-80417597D01*
X114378934Y-80368934D01*
X114427597Y-80336418D01*
X114485000Y-80325000D01*
X114785000Y-80325000D01*
X114842403Y-80336418D01*
X114842403Y-80336418D01*
G37*
D13*
X114635000Y-81137500D03*
D12*
G36*
X116112403Y-80336418D02*
G01*
X116161066Y-80368934D01*
X116193582Y-80417597D01*
X116205000Y-80475000D01*
X116205000Y-81800000D01*
X116193582Y-81857403D01*
X116161066Y-81906066D01*
X116112403Y-81938582D01*
X116055000Y-81950000D01*
X115755000Y-81950000D01*
X115697597Y-81938582D01*
X115648934Y-81906066D01*
X115616418Y-81857403D01*
X115605000Y-81800000D01*
X115605000Y-80475000D01*
X115616418Y-80417597D01*
X115648934Y-80368934D01*
X115697597Y-80336418D01*
X115755000Y-80325000D01*
X116055000Y-80325000D01*
X116112403Y-80336418D01*
X116112403Y-80336418D01*
G37*
D13*
X115905000Y-81137500D03*
D12*
G36*
X125239962Y-83166651D02*
G01*
X125310930Y-83214070D01*
X125358349Y-83285038D01*
X125375000Y-83368750D01*
X125375000Y-83806250D01*
X125358349Y-83889962D01*
X125310930Y-83960930D01*
X125239962Y-84008349D01*
X125156250Y-84025000D01*
X124643750Y-84025000D01*
X124560038Y-84008349D01*
X124489070Y-83960930D01*
X124441651Y-83889962D01*
X124425000Y-83806250D01*
X124425000Y-83368750D01*
X124441651Y-83285038D01*
X124489070Y-83214070D01*
X124560038Y-83166651D01*
X124643750Y-83150000D01*
X125156250Y-83150000D01*
X125239962Y-83166651D01*
X125239962Y-83166651D01*
G37*
D14*
X124900000Y-83587500D03*
D12*
G36*
X125239962Y-81591651D02*
G01*
X125310930Y-81639070D01*
X125358349Y-81710038D01*
X125375000Y-81793750D01*
X125375000Y-82231250D01*
X125358349Y-82314962D01*
X125310930Y-82385930D01*
X125239962Y-82433349D01*
X125156250Y-82450000D01*
X124643750Y-82450000D01*
X124560038Y-82433349D01*
X124489070Y-82385930D01*
X124441651Y-82314962D01*
X124425000Y-82231250D01*
X124425000Y-81793750D01*
X124441651Y-81710038D01*
X124489070Y-81639070D01*
X124560038Y-81591651D01*
X124643750Y-81575000D01*
X125156250Y-81575000D01*
X125239962Y-81591651D01*
X125239962Y-81591651D01*
G37*
D14*
X124900000Y-82012500D03*
D12*
G36*
X114589962Y-73541651D02*
G01*
X114660930Y-73589070D01*
X114708349Y-73660038D01*
X114725000Y-73743750D01*
X114725000Y-74256250D01*
X114708349Y-74339962D01*
X114660930Y-74410930D01*
X114589962Y-74458349D01*
X114506250Y-74475000D01*
X114068750Y-74475000D01*
X113985038Y-74458349D01*
X113914070Y-74410930D01*
X113866651Y-74339962D01*
X113850000Y-74256250D01*
X113850000Y-73743750D01*
X113866651Y-73660038D01*
X113914070Y-73589070D01*
X113985038Y-73541651D01*
X114068750Y-73525000D01*
X114506250Y-73525000D01*
X114589962Y-73541651D01*
X114589962Y-73541651D01*
G37*
D14*
X114287500Y-74000000D03*
D12*
G36*
X113014962Y-73541651D02*
G01*
X113085930Y-73589070D01*
X113133349Y-73660038D01*
X113150000Y-73743750D01*
X113150000Y-74256250D01*
X113133349Y-74339962D01*
X113085930Y-74410930D01*
X113014962Y-74458349D01*
X112931250Y-74475000D01*
X112493750Y-74475000D01*
X112410038Y-74458349D01*
X112339070Y-74410930D01*
X112291651Y-74339962D01*
X112275000Y-74256250D01*
X112275000Y-73743750D01*
X112291651Y-73660038D01*
X112339070Y-73589070D01*
X112410038Y-73541651D01*
X112493750Y-73525000D01*
X112931250Y-73525000D01*
X113014962Y-73541651D01*
X113014962Y-73541651D01*
G37*
D14*
X112712500Y-74000000D03*
D15*
X121600000Y-77000000D03*
X117900000Y-77000000D03*
D12*
G36*
X110839962Y-73541651D02*
G01*
X110910930Y-73589070D01*
X110958349Y-73660038D01*
X110975000Y-73743750D01*
X110975000Y-74181250D01*
X110958349Y-74264962D01*
X110910930Y-74335930D01*
X110839962Y-74383349D01*
X110756250Y-74400000D01*
X110243750Y-74400000D01*
X110160038Y-74383349D01*
X110089070Y-74335930D01*
X110041651Y-74264962D01*
X110025000Y-74181250D01*
X110025000Y-73743750D01*
X110041651Y-73660038D01*
X110089070Y-73589070D01*
X110160038Y-73541651D01*
X110243750Y-73525000D01*
X110756250Y-73525000D01*
X110839962Y-73541651D01*
X110839962Y-73541651D01*
G37*
D14*
X110500000Y-73962500D03*
D12*
G36*
X110839962Y-75116651D02*
G01*
X110910930Y-75164070D01*
X110958349Y-75235038D01*
X110975000Y-75318750D01*
X110975000Y-75756250D01*
X110958349Y-75839962D01*
X110910930Y-75910930D01*
X110839962Y-75958349D01*
X110756250Y-75975000D01*
X110243750Y-75975000D01*
X110160038Y-75958349D01*
X110089070Y-75910930D01*
X110041651Y-75839962D01*
X110025000Y-75756250D01*
X110025000Y-75318750D01*
X110041651Y-75235038D01*
X110089070Y-75164070D01*
X110160038Y-75116651D01*
X110243750Y-75100000D01*
X110756250Y-75100000D01*
X110839962Y-75116651D01*
X110839962Y-75116651D01*
G37*
D14*
X110500000Y-75537500D03*
D12*
G36*
X109339962Y-75116651D02*
G01*
X109410930Y-75164070D01*
X109458349Y-75235038D01*
X109475000Y-75318750D01*
X109475000Y-75756250D01*
X109458349Y-75839962D01*
X109410930Y-75910930D01*
X109339962Y-75958349D01*
X109256250Y-75975000D01*
X108743750Y-75975000D01*
X108660038Y-75958349D01*
X108589070Y-75910930D01*
X108541651Y-75839962D01*
X108525000Y-75756250D01*
X108525000Y-75318750D01*
X108541651Y-75235038D01*
X108589070Y-75164070D01*
X108660038Y-75116651D01*
X108743750Y-75100000D01*
X109256250Y-75100000D01*
X109339962Y-75116651D01*
X109339962Y-75116651D01*
G37*
D14*
X109000000Y-75537500D03*
D12*
G36*
X109339962Y-73541651D02*
G01*
X109410930Y-73589070D01*
X109458349Y-73660038D01*
X109475000Y-73743750D01*
X109475000Y-74181250D01*
X109458349Y-74264962D01*
X109410930Y-74335930D01*
X109339962Y-74383349D01*
X109256250Y-74400000D01*
X108743750Y-74400000D01*
X108660038Y-74383349D01*
X108589070Y-74335930D01*
X108541651Y-74264962D01*
X108525000Y-74181250D01*
X108525000Y-73743750D01*
X108541651Y-73660038D01*
X108589070Y-73589070D01*
X108660038Y-73541651D01*
X108743750Y-73525000D01*
X109256250Y-73525000D01*
X109339962Y-73541651D01*
X109339962Y-73541651D01*
G37*
D14*
X109000000Y-73962500D03*
D12*
G36*
X117589962Y-73041651D02*
G01*
X117660930Y-73089070D01*
X117708349Y-73160038D01*
X117725000Y-73243750D01*
X117725000Y-73756250D01*
X117708349Y-73839962D01*
X117660930Y-73910930D01*
X117589962Y-73958349D01*
X117506250Y-73975000D01*
X117068750Y-73975000D01*
X116985038Y-73958349D01*
X116914070Y-73910930D01*
X116866651Y-73839962D01*
X116850000Y-73756250D01*
X116850000Y-73243750D01*
X116866651Y-73160038D01*
X116914070Y-73089070D01*
X116985038Y-73041651D01*
X117068750Y-73025000D01*
X117506250Y-73025000D01*
X117589962Y-73041651D01*
X117589962Y-73041651D01*
G37*
D14*
X117287500Y-73500000D03*
D12*
G36*
X116014962Y-73041651D02*
G01*
X116085930Y-73089070D01*
X116133349Y-73160038D01*
X116150000Y-73243750D01*
X116150000Y-73756250D01*
X116133349Y-73839962D01*
X116085930Y-73910930D01*
X116014962Y-73958349D01*
X115931250Y-73975000D01*
X115493750Y-73975000D01*
X115410038Y-73958349D01*
X115339070Y-73910930D01*
X115291651Y-73839962D01*
X115275000Y-73756250D01*
X115275000Y-73243750D01*
X115291651Y-73160038D01*
X115339070Y-73089070D01*
X115410038Y-73041651D01*
X115493750Y-73025000D01*
X115931250Y-73025000D01*
X116014962Y-73041651D01*
X116014962Y-73041651D01*
G37*
D14*
X115712500Y-73500000D03*
D12*
G36*
X111414962Y-82541651D02*
G01*
X111485930Y-82589070D01*
X111533349Y-82660038D01*
X111550000Y-82743750D01*
X111550000Y-83256250D01*
X111533349Y-83339962D01*
X111485930Y-83410930D01*
X111414962Y-83458349D01*
X111331250Y-83475000D01*
X110893750Y-83475000D01*
X110810038Y-83458349D01*
X110739070Y-83410930D01*
X110691651Y-83339962D01*
X110675000Y-83256250D01*
X110675000Y-82743750D01*
X110691651Y-82660038D01*
X110739070Y-82589070D01*
X110810038Y-82541651D01*
X110893750Y-82525000D01*
X111331250Y-82525000D01*
X111414962Y-82541651D01*
X111414962Y-82541651D01*
G37*
D14*
X111112500Y-83000000D03*
D12*
G36*
X112989962Y-82541651D02*
G01*
X113060930Y-82589070D01*
X113108349Y-82660038D01*
X113125000Y-82743750D01*
X113125000Y-83256250D01*
X113108349Y-83339962D01*
X113060930Y-83410930D01*
X112989962Y-83458349D01*
X112906250Y-83475000D01*
X112468750Y-83475000D01*
X112385038Y-83458349D01*
X112314070Y-83410930D01*
X112266651Y-83339962D01*
X112250000Y-83256250D01*
X112250000Y-82743750D01*
X112266651Y-82660038D01*
X112314070Y-82589070D01*
X112385038Y-82541651D01*
X112468750Y-82525000D01*
X112906250Y-82525000D01*
X112989962Y-82541651D01*
X112989962Y-82541651D01*
G37*
D14*
X112687500Y-83000000D03*
D16*
X120300000Y-85200000D03*
X120300000Y-81200000D03*
D12*
G36*
X123649529Y-83218554D02*
G01*
X123728607Y-83271393D01*
X123781446Y-83350471D01*
X123800000Y-83443750D01*
X123800000Y-83931250D01*
X123781446Y-84024529D01*
X123728607Y-84103607D01*
X123649529Y-84156446D01*
X123556250Y-84175000D01*
X122643750Y-84175000D01*
X122550471Y-84156446D01*
X122471393Y-84103607D01*
X122418554Y-84024529D01*
X122400000Y-83931250D01*
X122400000Y-83443750D01*
X122418554Y-83350471D01*
X122471393Y-83271393D01*
X122550471Y-83218554D01*
X122643750Y-83200000D01*
X123556250Y-83200000D01*
X123649529Y-83218554D01*
X123649529Y-83218554D01*
G37*
D17*
X123100000Y-83687500D03*
D12*
G36*
X123649529Y-81343554D02*
G01*
X123728607Y-81396393D01*
X123781446Y-81475471D01*
X123800000Y-81568750D01*
X123800000Y-82056250D01*
X123781446Y-82149529D01*
X123728607Y-82228607D01*
X123649529Y-82281446D01*
X123556250Y-82300000D01*
X122643750Y-82300000D01*
X122550471Y-82281446D01*
X122471393Y-82228607D01*
X122418554Y-82149529D01*
X122400000Y-82056250D01*
X122400000Y-81568750D01*
X122418554Y-81475471D01*
X122471393Y-81396393D01*
X122550471Y-81343554D01*
X122643750Y-81325000D01*
X123556250Y-81325000D01*
X123649529Y-81343554D01*
X123649529Y-81343554D01*
G37*
D17*
X123100000Y-81812500D03*
D12*
G36*
X118039962Y-81566651D02*
G01*
X118110930Y-81614070D01*
X118158349Y-81685038D01*
X118175000Y-81768750D01*
X118175000Y-82206250D01*
X118158349Y-82289962D01*
X118110930Y-82360930D01*
X118039962Y-82408349D01*
X117956250Y-82425000D01*
X117443750Y-82425000D01*
X117360038Y-82408349D01*
X117289070Y-82360930D01*
X117241651Y-82289962D01*
X117225000Y-82206250D01*
X117225000Y-81768750D01*
X117241651Y-81685038D01*
X117289070Y-81614070D01*
X117360038Y-81566651D01*
X117443750Y-81550000D01*
X117956250Y-81550000D01*
X118039962Y-81566651D01*
X118039962Y-81566651D01*
G37*
D14*
X117700000Y-81987500D03*
D12*
G36*
X118039962Y-79991651D02*
G01*
X118110930Y-80039070D01*
X118158349Y-80110038D01*
X118175000Y-80193750D01*
X118175000Y-80631250D01*
X118158349Y-80714962D01*
X118110930Y-80785930D01*
X118039962Y-80833349D01*
X117956250Y-80850000D01*
X117443750Y-80850000D01*
X117360038Y-80833349D01*
X117289070Y-80785930D01*
X117241651Y-80714962D01*
X117225000Y-80631250D01*
X117225000Y-80193750D01*
X117241651Y-80110038D01*
X117289070Y-80039070D01*
X117360038Y-79991651D01*
X117443750Y-79975000D01*
X117956250Y-79975000D01*
X118039962Y-79991651D01*
X118039962Y-79991651D01*
G37*
D14*
X117700000Y-80412500D03*
D12*
G36*
X117470671Y-84144030D02*
G01*
X117551777Y-84198223D01*
X117605970Y-84279329D01*
X117625000Y-84375000D01*
X117625000Y-85625000D01*
X117605970Y-85720671D01*
X117551777Y-85801777D01*
X117470671Y-85855970D01*
X117375000Y-85875000D01*
X116625000Y-85875000D01*
X116529329Y-85855970D01*
X116448223Y-85801777D01*
X116394030Y-85720671D01*
X116375000Y-85625000D01*
X116375000Y-84375000D01*
X116394030Y-84279329D01*
X116448223Y-84198223D01*
X116529329Y-84144030D01*
X116625000Y-84125000D01*
X117375000Y-84125000D01*
X117470671Y-84144030D01*
X117470671Y-84144030D01*
G37*
D18*
X117000000Y-85000000D03*
D12*
G36*
X114670671Y-84144030D02*
G01*
X114751777Y-84198223D01*
X114805970Y-84279329D01*
X114825000Y-84375000D01*
X114825000Y-85625000D01*
X114805970Y-85720671D01*
X114751777Y-85801777D01*
X114670671Y-85855970D01*
X114575000Y-85875000D01*
X113825000Y-85875000D01*
X113729329Y-85855970D01*
X113648223Y-85801777D01*
X113594030Y-85720671D01*
X113575000Y-85625000D01*
X113575000Y-84375000D01*
X113594030Y-84279329D01*
X113648223Y-84198223D01*
X113729329Y-84144030D01*
X113825000Y-84125000D01*
X114575000Y-84125000D01*
X114670671Y-84144030D01*
X114670671Y-84144030D01*
G37*
D18*
X114200000Y-85000000D03*
D19*
X110050000Y-77500000D03*
X110050000Y-78250000D03*
X110050000Y-79000000D03*
X110050000Y-79750000D03*
X109300000Y-79750000D03*
X108550000Y-79750000D03*
X108550000Y-79000000D03*
X108550000Y-78250000D03*
X108550000Y-77500000D03*
X109300000Y-77500000D03*
X109300000Y-78250000D03*
X109300000Y-79000000D03*
X110800000Y-77500000D03*
X110800000Y-78250000D03*
X110800000Y-79000000D03*
X110800000Y-79750000D03*
D20*
X109000000Y-73100000D03*
X125222600Y-80900000D03*
D19*
X115750000Y-83500000D03*
X116500000Y-83500000D03*
X117250000Y-83500000D03*
X118000000Y-83500000D03*
X118750000Y-83500000D03*
X119750000Y-83500000D03*
X120500000Y-83500000D03*
X121250000Y-83500000D03*
X121750000Y-84000000D03*
X121750000Y-85500000D03*
X118750000Y-85500000D03*
X118750000Y-84500000D03*
X124250000Y-84000000D03*
X115750000Y-85000000D03*
X115750000Y-82750000D03*
D21*
X114287500Y-74000000D02*
X115212500Y-74000000D01*
X115212500Y-74000000D02*
X115712500Y-73500000D01*
D22*
X113365000Y-81137500D02*
X113365000Y-82322500D01*
X113365000Y-82322500D02*
X112687500Y-83000000D01*
D23*
X116275710Y-81508210D02*
X116275710Y-81675710D01*
X115905000Y-81137500D02*
X116275710Y-81508210D01*
X116587500Y-81987500D02*
X117700000Y-81987500D01*
X116275710Y-81675710D02*
X116587500Y-81987500D01*
D21*
X113365000Y-74652500D02*
X113365000Y-75862500D01*
X112712500Y-74000000D02*
X113365000Y-74652500D01*
X110825000Y-75862500D02*
X110500000Y-75537500D01*
X112095000Y-75862500D02*
X110825000Y-75862500D01*
X110500000Y-75537500D02*
X109000000Y-75537500D01*
X109000000Y-73962500D02*
X109000000Y-73100000D01*
D23*
G36*
X115590785Y-82200605D02*
G01*
X115745528Y-82231386D01*
X116064472Y-82231386D01*
X116219215Y-82200605D01*
X116224052Y-82197373D01*
X116251951Y-82225273D01*
X116262074Y-82246354D01*
X116316795Y-82290116D01*
X116333144Y-82306466D01*
X116352271Y-82318487D01*
X116406565Y-82361908D01*
X116429834Y-82367238D01*
X116450065Y-82379953D01*
X116519746Y-82387830D01*
X116541883Y-82392900D01*
X116564593Y-82392900D01*
X116633851Y-82400730D01*
X116656273Y-82392900D01*
X116979125Y-82392900D01*
X116979730Y-82395942D01*
X117089610Y-82560390D01*
X117254057Y-82670269D01*
X117435625Y-82706386D01*
X117964375Y-82706386D01*
X118145943Y-82670269D01*
X118221600Y-82619717D01*
X118221600Y-82817123D01*
X118257035Y-82945093D01*
X118362679Y-83047274D01*
X118488054Y-83078638D01*
X121443017Y-83029389D01*
X121458577Y-83044950D01*
X121583412Y-83078400D01*
X125474000Y-83078400D01*
X125474000Y-86721600D01*
X115478400Y-86721600D01*
X115478400Y-82125512D01*
X115590785Y-82200605D01*
X115590785Y-82200605D01*
G37*
X115590785Y-82200605D02*
X115745528Y-82231386D01*
X116064472Y-82231386D01*
X116219215Y-82200605D01*
X116224052Y-82197373D01*
X116251951Y-82225273D01*
X116262074Y-82246354D01*
X116316795Y-82290116D01*
X116333144Y-82306466D01*
X116352271Y-82318487D01*
X116406565Y-82361908D01*
X116429834Y-82367238D01*
X116450065Y-82379953D01*
X116519746Y-82387830D01*
X116541883Y-82392900D01*
X116564593Y-82392900D01*
X116633851Y-82400730D01*
X116656273Y-82392900D01*
X116979125Y-82392900D01*
X116979730Y-82395942D01*
X117089610Y-82560390D01*
X117254057Y-82670269D01*
X117435625Y-82706386D01*
X117964375Y-82706386D01*
X118145943Y-82670269D01*
X118221600Y-82619717D01*
X118221600Y-82817123D01*
X118257035Y-82945093D01*
X118362679Y-83047274D01*
X118488054Y-83078638D01*
X121443017Y-83029389D01*
X121458577Y-83044950D01*
X121583412Y-83078400D01*
X125474000Y-83078400D01*
X125474000Y-86721600D01*
X115478400Y-86721600D01*
X115478400Y-82125512D01*
X115590785Y-82200605D01*
G36*
X108620253Y-72528400D02*
G01*
X108460253Y-72673733D01*
X108351278Y-72871549D01*
X108312254Y-73093998D01*
X108347390Y-73317094D01*
X108387429Y-73392874D01*
X108279731Y-73554057D01*
X108243614Y-73735625D01*
X108243614Y-74189375D01*
X108279731Y-74370943D01*
X108389610Y-74535390D01*
X108554057Y-74645269D01*
X108735625Y-74681386D01*
X109264375Y-74681386D01*
X109445943Y-74645269D01*
X109610390Y-74535390D01*
X109720269Y-74370943D01*
X109756386Y-74189375D01*
X109756386Y-73735625D01*
X109720269Y-73554057D01*
X109614514Y-73395782D01*
X109676645Y-73223678D01*
X109678701Y-72988150D01*
X109605567Y-72773936D01*
X109467300Y-72595361D01*
X109365555Y-72528400D01*
X118874000Y-72528400D01*
X118874000Y-74214130D01*
X116070815Y-74230240D01*
X116120943Y-74220269D01*
X116285390Y-74110390D01*
X116395269Y-73945943D01*
X116431386Y-73764375D01*
X116431386Y-73235625D01*
X116395269Y-73054057D01*
X116285390Y-72889610D01*
X116120943Y-72779731D01*
X115939375Y-72743614D01*
X115485625Y-72743614D01*
X115304057Y-72779731D01*
X115139610Y-72889610D01*
X115029731Y-73054057D01*
X114993614Y-73235625D01*
X114993614Y-73531100D01*
X114954930Y-73531100D01*
X114860390Y-73389610D01*
X114695943Y-73279731D01*
X114514375Y-73243614D01*
X114060625Y-73243614D01*
X113879057Y-73279731D01*
X113714610Y-73389610D01*
X113604731Y-73554057D01*
X113568614Y-73735625D01*
X113568614Y-74192989D01*
X113431386Y-74055762D01*
X113431386Y-73735625D01*
X113395269Y-73554057D01*
X113285390Y-73389610D01*
X113120943Y-73279731D01*
X112939375Y-73243614D01*
X112485625Y-73243614D01*
X112304057Y-73279731D01*
X112139610Y-73389610D01*
X112029731Y-73554057D01*
X111993614Y-73735625D01*
X111993614Y-74264375D01*
X112029731Y-74445943D01*
X112139610Y-74610390D01*
X112304057Y-74720269D01*
X112485625Y-74756386D01*
X112805762Y-74756386D01*
X112896100Y-74846725D01*
X112896100Y-74913504D01*
X112814395Y-75035785D01*
X112783614Y-75190528D01*
X112783614Y-76534472D01*
X112814395Y-76689215D01*
X112909079Y-76830921D01*
X113050785Y-76925605D01*
X113205528Y-76956386D01*
X113524472Y-76956386D01*
X113679215Y-76925605D01*
X113820921Y-76830921D01*
X113915605Y-76689215D01*
X113946386Y-76534472D01*
X113946386Y-75190528D01*
X113915605Y-75035785D01*
X113833900Y-74913504D01*
X113833900Y-74690096D01*
X113879057Y-74720269D01*
X114060625Y-74756386D01*
X114514375Y-74756386D01*
X114695943Y-74720269D01*
X114860390Y-74610390D01*
X114954930Y-74468900D01*
X115128838Y-74468900D01*
X115121600Y-74495912D01*
X115121600Y-74939994D01*
X115090921Y-74894079D01*
X114949215Y-74799395D01*
X114794472Y-74768614D01*
X114475528Y-74768614D01*
X114320785Y-74799395D01*
X114179079Y-74894079D01*
X114084395Y-75035785D01*
X114053614Y-75190528D01*
X114053614Y-76534472D01*
X114084395Y-76689215D01*
X114179079Y-76830921D01*
X114320785Y-76925605D01*
X114475528Y-76956386D01*
X114794472Y-76956386D01*
X114949215Y-76925605D01*
X115090921Y-76830921D01*
X115121600Y-76785006D01*
X115121600Y-76916588D01*
X115155050Y-77041423D01*
X115258577Y-77144950D01*
X115383412Y-77178400D01*
X116421600Y-77178400D01*
X116421600Y-80259892D01*
X116360921Y-80169079D01*
X116219215Y-80074395D01*
X116064472Y-80043614D01*
X115745528Y-80043614D01*
X115590785Y-80074395D01*
X115478400Y-80149488D01*
X115478400Y-79983412D01*
X115444950Y-79858577D01*
X115341423Y-79755050D01*
X115216588Y-79721600D01*
X113983412Y-79721600D01*
X113858577Y-79755050D01*
X113755050Y-79858577D01*
X113721600Y-79983412D01*
X113721600Y-80102715D01*
X113679215Y-80074395D01*
X113524472Y-80043614D01*
X113205528Y-80043614D01*
X113050785Y-80074395D01*
X112909079Y-80169079D01*
X112814395Y-80310785D01*
X112783614Y-80465528D01*
X112783614Y-81809472D01*
X112814395Y-81964215D01*
X112909079Y-82105921D01*
X112961601Y-82141014D01*
X112961601Y-82155405D01*
X112873393Y-82243614D01*
X112460625Y-82243614D01*
X112279057Y-82279731D01*
X112114610Y-82389610D01*
X112004731Y-82554057D01*
X111968614Y-82735625D01*
X111968614Y-83264375D01*
X112004731Y-83445943D01*
X112114610Y-83610390D01*
X112131387Y-83621600D01*
X107783412Y-83621600D01*
X107778400Y-83622943D01*
X107778400Y-75310625D01*
X108243614Y-75310625D01*
X108243614Y-75764375D01*
X108279731Y-75945943D01*
X108389610Y-76110390D01*
X108554057Y-76220269D01*
X108735625Y-76256386D01*
X109264375Y-76256386D01*
X109445943Y-76220269D01*
X109610390Y-76110390D01*
X109679873Y-76006400D01*
X109820127Y-76006400D01*
X109889610Y-76110390D01*
X110054057Y-76220269D01*
X110235625Y-76256386D01*
X110550597Y-76256386D01*
X110590622Y-76269390D01*
X110653206Y-76310034D01*
X110850089Y-76341217D01*
X110886728Y-76331400D01*
X111513614Y-76331400D01*
X111513614Y-76534472D01*
X111544395Y-76689215D01*
X111639079Y-76830921D01*
X111780785Y-76925605D01*
X111935528Y-76956386D01*
X112254472Y-76956386D01*
X112409215Y-76925605D01*
X112550921Y-76830921D01*
X112645605Y-76689215D01*
X112676386Y-76534472D01*
X112676386Y-75190528D01*
X112645605Y-75035785D01*
X112550921Y-74894079D01*
X112409215Y-74799395D01*
X112254472Y-74768614D01*
X111935528Y-74768614D01*
X111780785Y-74799395D01*
X111639079Y-74894079D01*
X111544395Y-75035785D01*
X111513614Y-75190528D01*
X111513614Y-75393600D01*
X111256386Y-75393600D01*
X111256386Y-75310625D01*
X111220269Y-75129057D01*
X111110390Y-74964610D01*
X110945943Y-74854731D01*
X110764375Y-74818614D01*
X110235625Y-74818614D01*
X110054057Y-74854731D01*
X109889610Y-74964610D01*
X109820127Y-75068600D01*
X109679873Y-75068600D01*
X109610390Y-74964610D01*
X109445943Y-74854731D01*
X109264375Y-74818614D01*
X108735625Y-74818614D01*
X108554057Y-74854731D01*
X108389610Y-74964610D01*
X108279731Y-75129057D01*
X108243614Y-75310625D01*
X107778400Y-75310625D01*
X107778400Y-72528400D01*
X108620253Y-72528400D01*
X108620253Y-72528400D01*
G37*
X108620253Y-72528400D02*
X108460253Y-72673733D01*
X108351278Y-72871549D01*
X108312254Y-73093998D01*
X108347390Y-73317094D01*
X108387429Y-73392874D01*
X108279731Y-73554057D01*
X108243614Y-73735625D01*
X108243614Y-74189375D01*
X108279731Y-74370943D01*
X108389610Y-74535390D01*
X108554057Y-74645269D01*
X108735625Y-74681386D01*
X109264375Y-74681386D01*
X109445943Y-74645269D01*
X109610390Y-74535390D01*
X109720269Y-74370943D01*
X109756386Y-74189375D01*
X109756386Y-73735625D01*
X109720269Y-73554057D01*
X109614514Y-73395782D01*
X109676645Y-73223678D01*
X109678701Y-72988150D01*
X109605567Y-72773936D01*
X109467300Y-72595361D01*
X109365555Y-72528400D01*
X118874000Y-72528400D01*
X118874000Y-74214130D01*
X116070815Y-74230240D01*
X116120943Y-74220269D01*
X116285390Y-74110390D01*
X116395269Y-73945943D01*
X116431386Y-73764375D01*
X116431386Y-73235625D01*
X116395269Y-73054057D01*
X116285390Y-72889610D01*
X116120943Y-72779731D01*
X115939375Y-72743614D01*
X115485625Y-72743614D01*
X115304057Y-72779731D01*
X115139610Y-72889610D01*
X115029731Y-73054057D01*
X114993614Y-73235625D01*
X114993614Y-73531100D01*
X114954930Y-73531100D01*
X114860390Y-73389610D01*
X114695943Y-73279731D01*
X114514375Y-73243614D01*
X114060625Y-73243614D01*
X113879057Y-73279731D01*
X113714610Y-73389610D01*
X113604731Y-73554057D01*
X113568614Y-73735625D01*
X113568614Y-74192989D01*
X113431386Y-74055762D01*
X113431386Y-73735625D01*
X113395269Y-73554057D01*
X113285390Y-73389610D01*
X113120943Y-73279731D01*
X112939375Y-73243614D01*
X112485625Y-73243614D01*
X112304057Y-73279731D01*
X112139610Y-73389610D01*
X112029731Y-73554057D01*
X111993614Y-73735625D01*
X111993614Y-74264375D01*
X112029731Y-74445943D01*
X112139610Y-74610390D01*
X112304057Y-74720269D01*
X112485625Y-74756386D01*
X112805762Y-74756386D01*
X112896100Y-74846725D01*
X112896100Y-74913504D01*
X112814395Y-75035785D01*
X112783614Y-75190528D01*
X112783614Y-76534472D01*
X112814395Y-76689215D01*
X112909079Y-76830921D01*
X113050785Y-76925605D01*
X113205528Y-76956386D01*
X113524472Y-76956386D01*
X113679215Y-76925605D01*
X113820921Y-76830921D01*
X113915605Y-76689215D01*
X113946386Y-76534472D01*
X113946386Y-75190528D01*
X113915605Y-75035785D01*
X113833900Y-74913504D01*
X113833900Y-74690096D01*
X113879057Y-74720269D01*
X114060625Y-74756386D01*
X114514375Y-74756386D01*
X114695943Y-74720269D01*
X114860390Y-74610390D01*
X114954930Y-74468900D01*
X115128838Y-74468900D01*
X115121600Y-74495912D01*
X115121600Y-74939994D01*
X115090921Y-74894079D01*
X114949215Y-74799395D01*
X114794472Y-74768614D01*
X114475528Y-74768614D01*
X114320785Y-74799395D01*
X114179079Y-74894079D01*
X114084395Y-75035785D01*
X114053614Y-75190528D01*
X114053614Y-76534472D01*
X114084395Y-76689215D01*
X114179079Y-76830921D01*
X114320785Y-76925605D01*
X114475528Y-76956386D01*
X114794472Y-76956386D01*
X114949215Y-76925605D01*
X115090921Y-76830921D01*
X115121600Y-76785006D01*
X115121600Y-76916588D01*
X115155050Y-77041423D01*
X115258577Y-77144950D01*
X115383412Y-77178400D01*
X116421600Y-77178400D01*
X116421600Y-80259892D01*
X116360921Y-80169079D01*
X116219215Y-80074395D01*
X116064472Y-80043614D01*
X115745528Y-80043614D01*
X115590785Y-80074395D01*
X115478400Y-80149488D01*
X115478400Y-79983412D01*
X115444950Y-79858577D01*
X115341423Y-79755050D01*
X115216588Y-79721600D01*
X113983412Y-79721600D01*
X113858577Y-79755050D01*
X113755050Y-79858577D01*
X113721600Y-79983412D01*
X113721600Y-80102715D01*
X113679215Y-80074395D01*
X113524472Y-80043614D01*
X113205528Y-80043614D01*
X113050785Y-80074395D01*
X112909079Y-80169079D01*
X112814395Y-80310785D01*
X112783614Y-80465528D01*
X112783614Y-81809472D01*
X112814395Y-81964215D01*
X112909079Y-82105921D01*
X112961601Y-82141014D01*
X112961601Y-82155405D01*
X112873393Y-82243614D01*
X112460625Y-82243614D01*
X112279057Y-82279731D01*
X112114610Y-82389610D01*
X112004731Y-82554057D01*
X111968614Y-82735625D01*
X111968614Y-83264375D01*
X112004731Y-83445943D01*
X112114610Y-83610390D01*
X112131387Y-83621600D01*
X107783412Y-83621600D01*
X107778400Y-83622943D01*
X107778400Y-75310625D01*
X108243614Y-75310625D01*
X108243614Y-75764375D01*
X108279731Y-75945943D01*
X108389610Y-76110390D01*
X108554057Y-76220269D01*
X108735625Y-76256386D01*
X109264375Y-76256386D01*
X109445943Y-76220269D01*
X109610390Y-76110390D01*
X109679873Y-76006400D01*
X109820127Y-76006400D01*
X109889610Y-76110390D01*
X110054057Y-76220269D01*
X110235625Y-76256386D01*
X110550597Y-76256386D01*
X110590622Y-76269390D01*
X110653206Y-76310034D01*
X110850089Y-76341217D01*
X110886728Y-76331400D01*
X111513614Y-76331400D01*
X111513614Y-76534472D01*
X111544395Y-76689215D01*
X111639079Y-76830921D01*
X111780785Y-76925605D01*
X111935528Y-76956386D01*
X112254472Y-76956386D01*
X112409215Y-76925605D01*
X112550921Y-76830921D01*
X112645605Y-76689215D01*
X112676386Y-76534472D01*
X112676386Y-75190528D01*
X112645605Y-75035785D01*
X112550921Y-74894079D01*
X112409215Y-74799395D01*
X112254472Y-74768614D01*
X111935528Y-74768614D01*
X111780785Y-74799395D01*
X111639079Y-74894079D01*
X111544395Y-75035785D01*
X111513614Y-75190528D01*
X111513614Y-75393600D01*
X111256386Y-75393600D01*
X111256386Y-75310625D01*
X111220269Y-75129057D01*
X111110390Y-74964610D01*
X110945943Y-74854731D01*
X110764375Y-74818614D01*
X110235625Y-74818614D01*
X110054057Y-74854731D01*
X109889610Y-74964610D01*
X109820127Y-75068600D01*
X109679873Y-75068600D01*
X109610390Y-74964610D01*
X109445943Y-74854731D01*
X109264375Y-74818614D01*
X108735625Y-74818614D01*
X108554057Y-74854731D01*
X108389610Y-74964610D01*
X108279731Y-75129057D01*
X108243614Y-75310625D01*
X107778400Y-75310625D01*
X107778400Y-72528400D01*
X108620253Y-72528400D01*
D24*
G36*
X115124800Y-86724800D02*
G01*
X107875200Y-86724800D01*
X107875200Y-83975200D01*
X113248870Y-83975200D01*
X114075200Y-82115959D01*
X114075200Y-80075200D01*
X115124800Y-80075200D01*
X115124800Y-86724800D01*
X115124800Y-86724800D01*
G37*
X115124800Y-86724800D02*
X107875200Y-86724800D01*
X107875200Y-83975200D01*
X113248870Y-83975200D01*
X114075200Y-82115959D01*
X114075200Y-80075200D01*
X115124800Y-80075200D01*
X115124800Y-86724800D01*
D23*
G36*
X119624000Y-79126000D02*
G01*
X121321600Y-79126000D01*
X121321600Y-82626955D01*
X118626000Y-82671882D01*
X118626000Y-81074000D01*
X116826000Y-81074000D01*
X116826000Y-76774000D01*
X115526000Y-76774000D01*
X115526000Y-74637778D01*
X119624000Y-74614226D01*
X119624000Y-79126000D01*
X119624000Y-79126000D01*
G37*
X119624000Y-79126000D02*
X121321600Y-79126000D01*
X121321600Y-82626955D01*
X118626000Y-82671882D01*
X118626000Y-81074000D01*
X116826000Y-81074000D01*
X116826000Y-76774000D01*
X115526000Y-76774000D01*
X115526000Y-74637778D01*
X119624000Y-74614226D01*
X119624000Y-79126000D01*
G36*
X125521601Y-82674000D02*
G01*
X121726000Y-82674000D01*
X121726000Y-78673998D01*
X120823285Y-78674010D01*
X120825533Y-72528400D01*
X125521600Y-72528400D01*
X125521601Y-82674000D01*
X125521601Y-82674000D01*
G37*
X125521601Y-82674000D02*
X121726000Y-82674000D01*
X121726000Y-78673998D01*
X120823285Y-78674010D01*
X120825533Y-72528400D01*
X125521600Y-72528400D01*
X125521601Y-82674000D01*
M02*
