G04 #@! TF.GenerationSoftware,KiCad,Pcbnew,(5.1.0-1558-g0ba0c1724)*
G04 #@! TF.CreationDate,2019-11-25T17:22:07-08:00*
G04 #@! TF.ProjectId,MP-Power,4d502d50-6f77-4657-922e-6b696361645f,rev?*
G04 #@! TF.SameCoordinates,Original*
G04 #@! TF.FileFunction,Soldermask,Top*
G04 #@! TF.FilePolarity,Negative*
%FSLAX46Y46*%
G04 Gerber Fmt 4.6, Leading zero omitted, Abs format (unit mm)*
G04 Created by KiCad (PCBNEW (5.1.0-1558-g0ba0c1724)) date 2019-11-25 17:22:07*
%MOMM*%
%LPD*%
G04 APERTURE LIST*
%ADD10C,0.100000*%
G04 APERTURE END LIST*
D10*
G36*
X121219899Y-83901959D02*
G01*
X121236769Y-83913231D01*
X121248041Y-83930101D01*
X121254448Y-83962312D01*
X121254448Y-86437688D01*
X121251999Y-86450000D01*
X121248041Y-86469899D01*
X121236769Y-86486769D01*
X121219899Y-86498041D01*
X121200000Y-86501999D01*
X121187688Y-86504448D01*
X119412312Y-86504448D01*
X119380101Y-86498041D01*
X119363231Y-86486769D01*
X119351959Y-86469899D01*
X119345552Y-86437688D01*
X119345552Y-83962312D01*
X119351959Y-83930101D01*
X119363231Y-83913231D01*
X119380101Y-83901959D01*
X119412312Y-83895552D01*
X121187688Y-83895552D01*
X121219899Y-83901959D01*
X121219899Y-83901959D01*
G37*
G36*
X117461756Y-84086764D02*
G01*
X117473228Y-84092289D01*
X117481286Y-84093795D01*
X117498543Y-84104480D01*
X117543638Y-84126197D01*
X117563738Y-84144847D01*
X117576964Y-84153036D01*
X117587264Y-84166676D01*
X117610265Y-84188017D01*
X117632617Y-84226732D01*
X117644781Y-84242840D01*
X117646750Y-84251212D01*
X117654506Y-84264646D01*
X117673419Y-84364603D01*
X117676883Y-84379331D01*
X117676883Y-84382910D01*
X117678194Y-84389839D01*
X117678194Y-85612516D01*
X117663236Y-85711756D01*
X117657711Y-85723228D01*
X117656205Y-85731286D01*
X117645520Y-85748543D01*
X117623803Y-85793638D01*
X117605153Y-85813738D01*
X117596964Y-85826964D01*
X117583324Y-85837264D01*
X117561983Y-85860265D01*
X117523268Y-85882617D01*
X117507160Y-85894781D01*
X117498788Y-85896750D01*
X117485354Y-85904506D01*
X117385397Y-85923419D01*
X117370669Y-85926883D01*
X117367090Y-85926883D01*
X117360161Y-85928194D01*
X116637484Y-85928194D01*
X116538244Y-85913236D01*
X116526772Y-85907711D01*
X116518714Y-85906205D01*
X116501457Y-85895520D01*
X116456362Y-85873803D01*
X116436262Y-85855153D01*
X116423036Y-85846964D01*
X116412736Y-85833324D01*
X116389735Y-85811983D01*
X116367383Y-85773268D01*
X116355219Y-85757160D01*
X116353250Y-85748788D01*
X116345494Y-85735354D01*
X116326581Y-85635397D01*
X116323117Y-85620669D01*
X116323117Y-85617090D01*
X116321806Y-85610161D01*
X116321806Y-84387484D01*
X116336764Y-84288244D01*
X116342289Y-84276772D01*
X116343795Y-84268714D01*
X116354480Y-84251457D01*
X116376197Y-84206362D01*
X116394847Y-84186262D01*
X116403036Y-84173036D01*
X116416676Y-84162736D01*
X116438017Y-84139735D01*
X116476732Y-84117383D01*
X116492840Y-84105219D01*
X116501212Y-84103250D01*
X116514646Y-84095494D01*
X116614603Y-84076581D01*
X116629331Y-84073117D01*
X116632910Y-84073117D01*
X116639839Y-84071806D01*
X117362516Y-84071806D01*
X117461756Y-84086764D01*
X117461756Y-84086764D01*
G37*
G36*
X114661756Y-84086764D02*
G01*
X114673228Y-84092289D01*
X114681286Y-84093795D01*
X114698543Y-84104480D01*
X114743638Y-84126197D01*
X114763738Y-84144847D01*
X114776964Y-84153036D01*
X114787264Y-84166676D01*
X114810265Y-84188017D01*
X114832617Y-84226732D01*
X114844781Y-84242840D01*
X114846750Y-84251212D01*
X114854506Y-84264646D01*
X114873419Y-84364603D01*
X114876883Y-84379331D01*
X114876883Y-84382910D01*
X114878194Y-84389839D01*
X114878194Y-85612516D01*
X114863236Y-85711756D01*
X114857711Y-85723228D01*
X114856205Y-85731286D01*
X114845520Y-85748543D01*
X114823803Y-85793638D01*
X114805153Y-85813738D01*
X114796964Y-85826964D01*
X114783324Y-85837264D01*
X114761983Y-85860265D01*
X114723268Y-85882617D01*
X114707160Y-85894781D01*
X114698788Y-85896750D01*
X114685354Y-85904506D01*
X114585397Y-85923419D01*
X114570669Y-85926883D01*
X114567090Y-85926883D01*
X114560161Y-85928194D01*
X113837484Y-85928194D01*
X113738244Y-85913236D01*
X113726772Y-85907711D01*
X113718714Y-85906205D01*
X113701457Y-85895520D01*
X113656362Y-85873803D01*
X113636262Y-85855153D01*
X113623036Y-85846964D01*
X113612736Y-85833324D01*
X113589735Y-85811983D01*
X113567383Y-85773268D01*
X113555219Y-85757160D01*
X113553250Y-85748788D01*
X113545494Y-85735354D01*
X113526581Y-85635397D01*
X113523117Y-85620669D01*
X113523117Y-85617090D01*
X113521806Y-85610161D01*
X113521806Y-84387484D01*
X113536764Y-84288244D01*
X113542289Y-84276772D01*
X113543795Y-84268714D01*
X113554480Y-84251457D01*
X113576197Y-84206362D01*
X113594847Y-84186262D01*
X113603036Y-84173036D01*
X113616676Y-84162736D01*
X113638017Y-84139735D01*
X113676732Y-84117383D01*
X113692840Y-84105219D01*
X113701212Y-84103250D01*
X113714646Y-84095494D01*
X113814603Y-84076581D01*
X113829331Y-84073117D01*
X113832910Y-84073117D01*
X113839839Y-84071806D01*
X114562516Y-84071806D01*
X114661756Y-84086764D01*
X114661756Y-84086764D01*
G37*
G36*
X127976652Y-84148117D02*
G01*
X127977027Y-84148117D01*
X127979106Y-84148506D01*
X128070430Y-84162970D01*
X128078513Y-84167088D01*
X128085347Y-84168366D01*
X128105453Y-84180815D01*
X128153620Y-84205357D01*
X128167488Y-84219225D01*
X128179039Y-84226377D01*
X128192607Y-84244344D01*
X128219643Y-84271380D01*
X128233374Y-84298328D01*
X128245447Y-84314316D01*
X128248814Y-84328632D01*
X128262030Y-84354570D01*
X128276701Y-84447200D01*
X128276883Y-84447973D01*
X128276883Y-84448348D01*
X128278194Y-84456625D01*
X128278194Y-85343375D01*
X128276883Y-85351652D01*
X128276883Y-85352027D01*
X128276494Y-85354106D01*
X128262030Y-85445430D01*
X128257912Y-85453513D01*
X128256634Y-85460347D01*
X128244185Y-85480453D01*
X128219643Y-85528620D01*
X128205775Y-85542488D01*
X128198623Y-85554039D01*
X128180656Y-85567607D01*
X128153620Y-85594643D01*
X128126672Y-85608374D01*
X128110684Y-85620447D01*
X128096368Y-85623814D01*
X128070430Y-85637030D01*
X127977800Y-85651701D01*
X127977027Y-85651883D01*
X127976652Y-85651883D01*
X127968375Y-85653194D01*
X127506625Y-85653194D01*
X127498348Y-85651883D01*
X127497973Y-85651883D01*
X127495894Y-85651494D01*
X127404570Y-85637030D01*
X127396487Y-85632912D01*
X127389653Y-85631634D01*
X127369547Y-85619185D01*
X127321380Y-85594643D01*
X127307512Y-85580775D01*
X127295961Y-85573623D01*
X127282393Y-85555656D01*
X127255357Y-85528620D01*
X127241626Y-85501672D01*
X127229553Y-85485684D01*
X127226186Y-85471368D01*
X127212970Y-85445430D01*
X127198299Y-85352800D01*
X127198117Y-85352027D01*
X127198117Y-85351652D01*
X127196806Y-85343375D01*
X127196806Y-84456625D01*
X127198117Y-84448348D01*
X127198117Y-84447973D01*
X127198506Y-84445894D01*
X127212970Y-84354570D01*
X127217088Y-84346487D01*
X127218366Y-84339653D01*
X127230815Y-84319547D01*
X127255357Y-84271380D01*
X127269225Y-84257512D01*
X127276377Y-84245961D01*
X127294344Y-84232393D01*
X127321380Y-84205357D01*
X127348328Y-84191626D01*
X127364316Y-84179553D01*
X127378632Y-84176186D01*
X127404570Y-84162970D01*
X127497200Y-84148299D01*
X127497973Y-84148117D01*
X127498348Y-84148117D01*
X127506625Y-84146806D01*
X127968375Y-84146806D01*
X127976652Y-84148117D01*
X127976652Y-84148117D01*
G37*
G36*
X126101652Y-84148117D02*
G01*
X126102027Y-84148117D01*
X126104106Y-84148506D01*
X126195430Y-84162970D01*
X126203513Y-84167088D01*
X126210347Y-84168366D01*
X126230453Y-84180815D01*
X126278620Y-84205357D01*
X126292488Y-84219225D01*
X126304039Y-84226377D01*
X126317607Y-84244344D01*
X126344643Y-84271380D01*
X126358374Y-84298328D01*
X126370447Y-84314316D01*
X126373814Y-84328632D01*
X126387030Y-84354570D01*
X126401701Y-84447200D01*
X126401883Y-84447973D01*
X126401883Y-84448348D01*
X126403194Y-84456625D01*
X126403194Y-85343375D01*
X126401883Y-85351652D01*
X126401883Y-85352027D01*
X126401494Y-85354106D01*
X126387030Y-85445430D01*
X126382912Y-85453513D01*
X126381634Y-85460347D01*
X126369185Y-85480453D01*
X126344643Y-85528620D01*
X126330775Y-85542488D01*
X126323623Y-85554039D01*
X126305656Y-85567607D01*
X126278620Y-85594643D01*
X126251672Y-85608374D01*
X126235684Y-85620447D01*
X126221368Y-85623814D01*
X126195430Y-85637030D01*
X126102800Y-85651701D01*
X126102027Y-85651883D01*
X126101652Y-85651883D01*
X126093375Y-85653194D01*
X125631625Y-85653194D01*
X125623348Y-85651883D01*
X125622973Y-85651883D01*
X125620894Y-85651494D01*
X125529570Y-85637030D01*
X125521487Y-85632912D01*
X125514653Y-85631634D01*
X125494547Y-85619185D01*
X125446380Y-85594643D01*
X125432512Y-85580775D01*
X125420961Y-85573623D01*
X125407393Y-85555656D01*
X125380357Y-85528620D01*
X125366626Y-85501672D01*
X125354553Y-85485684D01*
X125351186Y-85471368D01*
X125337970Y-85445430D01*
X125323299Y-85352800D01*
X125323117Y-85352027D01*
X125323117Y-85351652D01*
X125321806Y-85343375D01*
X125321806Y-84456625D01*
X125323117Y-84448348D01*
X125323117Y-84447973D01*
X125323506Y-84445894D01*
X125337970Y-84354570D01*
X125342088Y-84346487D01*
X125343366Y-84339653D01*
X125355815Y-84319547D01*
X125380357Y-84271380D01*
X125394225Y-84257512D01*
X125401377Y-84245961D01*
X125419344Y-84232393D01*
X125446380Y-84205357D01*
X125473328Y-84191626D01*
X125489316Y-84179553D01*
X125503632Y-84176186D01*
X125529570Y-84162970D01*
X125622200Y-84148299D01*
X125622973Y-84148117D01*
X125623348Y-84148117D01*
X125631625Y-84146806D01*
X126093375Y-84146806D01*
X126101652Y-84148117D01*
X126101652Y-84148117D01*
G37*
G36*
X111326231Y-82473001D02*
G01*
X111326964Y-82473001D01*
X111329829Y-82473571D01*
X111412918Y-82486731D01*
X111423760Y-82492255D01*
X111432215Y-82493937D01*
X111448768Y-82504998D01*
X111489054Y-82525524D01*
X111508316Y-82544786D01*
X111521443Y-82553557D01*
X111530214Y-82566684D01*
X111549476Y-82585946D01*
X111570002Y-82626232D01*
X111581063Y-82642785D01*
X111582745Y-82651240D01*
X111588269Y-82662082D01*
X111601429Y-82745171D01*
X111601999Y-82748036D01*
X111601999Y-82748769D01*
X111603194Y-82756314D01*
X111603194Y-83243686D01*
X111601999Y-83251231D01*
X111601999Y-83251964D01*
X111601429Y-83254829D01*
X111588269Y-83337918D01*
X111582745Y-83348760D01*
X111581063Y-83357215D01*
X111570002Y-83373768D01*
X111549476Y-83414054D01*
X111530214Y-83433316D01*
X111521443Y-83446443D01*
X111508316Y-83455214D01*
X111489054Y-83474476D01*
X111448768Y-83495002D01*
X111432215Y-83506063D01*
X111423760Y-83507745D01*
X111412918Y-83513269D01*
X111329829Y-83526429D01*
X111326964Y-83526999D01*
X111326231Y-83526999D01*
X111318686Y-83528194D01*
X110906314Y-83528194D01*
X110898769Y-83526999D01*
X110898036Y-83526999D01*
X110895171Y-83526429D01*
X110812082Y-83513269D01*
X110801240Y-83507745D01*
X110792785Y-83506063D01*
X110776232Y-83495002D01*
X110735946Y-83474476D01*
X110716684Y-83455214D01*
X110703557Y-83446443D01*
X110694786Y-83433316D01*
X110675524Y-83414054D01*
X110654998Y-83373768D01*
X110643937Y-83357215D01*
X110642255Y-83348760D01*
X110636731Y-83337918D01*
X110623571Y-83254829D01*
X110623001Y-83251964D01*
X110623001Y-83251231D01*
X110621806Y-83243686D01*
X110621806Y-82756314D01*
X110623001Y-82748769D01*
X110623001Y-82748036D01*
X110623571Y-82745171D01*
X110636731Y-82662082D01*
X110642255Y-82651240D01*
X110643937Y-82642785D01*
X110654998Y-82626232D01*
X110675524Y-82585946D01*
X110694786Y-82566684D01*
X110703557Y-82553557D01*
X110716684Y-82544786D01*
X110735946Y-82525524D01*
X110776232Y-82504998D01*
X110792785Y-82493937D01*
X110801240Y-82492255D01*
X110812082Y-82486731D01*
X110895171Y-82473571D01*
X110898036Y-82473001D01*
X110898769Y-82473001D01*
X110906314Y-82471806D01*
X111318686Y-82471806D01*
X111326231Y-82473001D01*
X111326231Y-82473001D01*
G37*
G36*
X112901231Y-82473001D02*
G01*
X112901964Y-82473001D01*
X112904829Y-82473571D01*
X112987918Y-82486731D01*
X112998760Y-82492255D01*
X113007215Y-82493937D01*
X113023768Y-82504998D01*
X113064054Y-82525524D01*
X113083316Y-82544786D01*
X113096443Y-82553557D01*
X113105214Y-82566684D01*
X113124476Y-82585946D01*
X113145002Y-82626232D01*
X113156063Y-82642785D01*
X113157745Y-82651240D01*
X113163269Y-82662082D01*
X113176429Y-82745171D01*
X113176999Y-82748036D01*
X113176999Y-82748769D01*
X113178194Y-82756314D01*
X113178194Y-83243686D01*
X113176999Y-83251231D01*
X113176999Y-83251964D01*
X113176429Y-83254829D01*
X113163269Y-83337918D01*
X113157745Y-83348760D01*
X113156063Y-83357215D01*
X113145002Y-83373768D01*
X113124476Y-83414054D01*
X113105214Y-83433316D01*
X113096443Y-83446443D01*
X113083316Y-83455214D01*
X113064054Y-83474476D01*
X113023768Y-83495002D01*
X113007215Y-83506063D01*
X112998760Y-83507745D01*
X112987918Y-83513269D01*
X112904829Y-83526429D01*
X112901964Y-83526999D01*
X112901231Y-83526999D01*
X112893686Y-83528194D01*
X112481314Y-83528194D01*
X112473769Y-83526999D01*
X112473036Y-83526999D01*
X112470171Y-83526429D01*
X112387082Y-83513269D01*
X112376240Y-83507745D01*
X112367785Y-83506063D01*
X112351232Y-83495002D01*
X112310946Y-83474476D01*
X112291684Y-83455214D01*
X112278557Y-83446443D01*
X112269786Y-83433316D01*
X112250524Y-83414054D01*
X112229998Y-83373768D01*
X112218937Y-83357215D01*
X112217255Y-83348760D01*
X112211731Y-83337918D01*
X112198571Y-83254829D01*
X112198001Y-83251964D01*
X112198001Y-83251231D01*
X112196806Y-83243686D01*
X112196806Y-82756314D01*
X112198001Y-82748769D01*
X112198001Y-82748036D01*
X112198571Y-82745171D01*
X112211731Y-82662082D01*
X112217255Y-82651240D01*
X112218937Y-82642785D01*
X112229998Y-82626232D01*
X112250524Y-82585946D01*
X112269786Y-82566684D01*
X112278557Y-82553557D01*
X112291684Y-82544786D01*
X112310946Y-82525524D01*
X112351232Y-82504998D01*
X112367785Y-82493937D01*
X112376240Y-82492255D01*
X112387082Y-82486731D01*
X112470171Y-82473571D01*
X112473036Y-82473001D01*
X112473769Y-82473001D01*
X112481314Y-82471806D01*
X112893686Y-82471806D01*
X112901231Y-82473001D01*
X112901231Y-82473001D01*
G37*
G36*
X121219899Y-79901959D02*
G01*
X121236769Y-79913231D01*
X121248041Y-79930101D01*
X121254448Y-79962312D01*
X121254448Y-82437688D01*
X121251999Y-82450000D01*
X121248041Y-82469899D01*
X121236769Y-82486769D01*
X121219899Y-82498041D01*
X121200000Y-82501999D01*
X121187688Y-82504448D01*
X119412312Y-82504448D01*
X119380101Y-82498041D01*
X119363231Y-82486769D01*
X119351959Y-82469899D01*
X119345552Y-82437688D01*
X119345552Y-79962312D01*
X119351959Y-79930101D01*
X119363231Y-79913231D01*
X119380101Y-79901959D01*
X119412312Y-79895552D01*
X121187688Y-79895552D01*
X121219899Y-79901959D01*
X121219899Y-79901959D01*
G37*
G36*
X117951231Y-81498001D02*
G01*
X117951964Y-81498001D01*
X117954829Y-81498571D01*
X118037918Y-81511731D01*
X118048760Y-81517255D01*
X118057215Y-81518937D01*
X118073768Y-81529998D01*
X118114054Y-81550524D01*
X118133316Y-81569786D01*
X118146443Y-81578557D01*
X118155214Y-81591684D01*
X118174476Y-81610946D01*
X118195002Y-81651232D01*
X118206063Y-81667785D01*
X118207745Y-81676240D01*
X118213269Y-81687082D01*
X118226429Y-81770171D01*
X118226999Y-81773036D01*
X118226999Y-81773769D01*
X118228194Y-81781314D01*
X118228194Y-82193686D01*
X118226999Y-82201231D01*
X118226999Y-82201964D01*
X118226429Y-82204829D01*
X118213269Y-82287918D01*
X118207745Y-82298760D01*
X118206063Y-82307215D01*
X118195002Y-82323768D01*
X118174476Y-82364054D01*
X118155214Y-82383316D01*
X118146443Y-82396443D01*
X118133316Y-82405214D01*
X118114054Y-82424476D01*
X118073768Y-82445002D01*
X118057215Y-82456063D01*
X118048760Y-82457745D01*
X118037918Y-82463269D01*
X117954829Y-82476429D01*
X117951964Y-82476999D01*
X117951231Y-82476999D01*
X117943686Y-82478194D01*
X117456314Y-82478194D01*
X117448769Y-82476999D01*
X117448036Y-82476999D01*
X117445171Y-82476429D01*
X117362082Y-82463269D01*
X117351240Y-82457745D01*
X117342785Y-82456063D01*
X117326232Y-82445002D01*
X117285946Y-82424476D01*
X117266684Y-82405214D01*
X117253557Y-82396443D01*
X117244786Y-82383316D01*
X117225524Y-82364054D01*
X117204998Y-82323768D01*
X117193937Y-82307215D01*
X117192255Y-82298760D01*
X117186731Y-82287918D01*
X117173571Y-82204829D01*
X117173001Y-82201964D01*
X117173001Y-82201231D01*
X117171806Y-82193686D01*
X117171806Y-81781314D01*
X117173001Y-81773769D01*
X117173001Y-81773036D01*
X117173571Y-81770171D01*
X117186731Y-81687082D01*
X117192255Y-81676240D01*
X117193937Y-81667785D01*
X117204998Y-81651232D01*
X117225524Y-81610946D01*
X117244786Y-81591684D01*
X117253557Y-81578557D01*
X117266684Y-81569786D01*
X117285946Y-81550524D01*
X117326232Y-81529998D01*
X117342785Y-81518937D01*
X117351240Y-81517255D01*
X117362082Y-81511731D01*
X117445171Y-81498571D01*
X117448036Y-81498001D01*
X117448769Y-81498001D01*
X117456314Y-81496806D01*
X117943686Y-81496806D01*
X117951231Y-81498001D01*
X117951231Y-81498001D01*
G37*
G36*
X116051483Y-80273001D02*
G01*
X116052061Y-80273001D01*
X116056575Y-80273899D01*
X116122492Y-80285522D01*
X116126426Y-80287793D01*
X116130487Y-80288601D01*
X116147405Y-80299905D01*
X116183879Y-80320963D01*
X116190207Y-80328504D01*
X116196974Y-80333026D01*
X116208598Y-80350422D01*
X116225797Y-80370920D01*
X116228142Y-80379673D01*
X116241399Y-80399513D01*
X116256999Y-80477939D01*
X116256999Y-80487367D01*
X116258715Y-80493771D01*
X116258715Y-81786751D01*
X116256999Y-81796483D01*
X116256999Y-81797061D01*
X116256101Y-81801575D01*
X116244478Y-81867492D01*
X116242207Y-81871426D01*
X116241399Y-81875487D01*
X116230095Y-81892405D01*
X116209037Y-81928879D01*
X116201496Y-81935207D01*
X116196974Y-81941974D01*
X116179578Y-81953598D01*
X116159080Y-81970797D01*
X116150327Y-81973142D01*
X116130487Y-81986399D01*
X116052061Y-82001999D01*
X116042633Y-82001999D01*
X116036229Y-82003715D01*
X115768249Y-82003715D01*
X115758517Y-82001999D01*
X115757939Y-82001999D01*
X115753425Y-82001101D01*
X115687508Y-81989478D01*
X115683574Y-81987207D01*
X115679513Y-81986399D01*
X115662595Y-81975095D01*
X115626121Y-81954037D01*
X115619793Y-81946496D01*
X115613026Y-81941974D01*
X115601402Y-81924578D01*
X115584203Y-81904080D01*
X115581858Y-81895327D01*
X115568601Y-81875487D01*
X115553001Y-81797061D01*
X115553001Y-81787633D01*
X115551285Y-81781229D01*
X115551285Y-80488249D01*
X115553001Y-80478517D01*
X115553001Y-80477939D01*
X115553899Y-80473425D01*
X115565522Y-80407508D01*
X115567793Y-80403574D01*
X115568601Y-80399513D01*
X115579905Y-80382595D01*
X115600963Y-80346121D01*
X115608504Y-80339793D01*
X115613026Y-80333026D01*
X115630422Y-80321402D01*
X115650920Y-80304203D01*
X115659673Y-80301858D01*
X115679513Y-80288601D01*
X115757939Y-80273001D01*
X115767367Y-80273001D01*
X115773771Y-80271285D01*
X116041751Y-80271285D01*
X116051483Y-80273001D01*
X116051483Y-80273001D01*
G37*
G36*
X114781483Y-80273001D02*
G01*
X114782061Y-80273001D01*
X114786575Y-80273899D01*
X114852492Y-80285522D01*
X114856426Y-80287793D01*
X114860487Y-80288601D01*
X114877405Y-80299905D01*
X114913879Y-80320963D01*
X114920207Y-80328504D01*
X114926974Y-80333026D01*
X114938598Y-80350422D01*
X114955797Y-80370920D01*
X114958142Y-80379673D01*
X114971399Y-80399513D01*
X114986999Y-80477939D01*
X114986999Y-80487367D01*
X114988715Y-80493771D01*
X114988715Y-81786751D01*
X114986999Y-81796483D01*
X114986999Y-81797061D01*
X114986101Y-81801575D01*
X114974478Y-81867492D01*
X114972207Y-81871426D01*
X114971399Y-81875487D01*
X114960095Y-81892405D01*
X114939037Y-81928879D01*
X114931496Y-81935207D01*
X114926974Y-81941974D01*
X114909578Y-81953598D01*
X114889080Y-81970797D01*
X114880327Y-81973142D01*
X114860487Y-81986399D01*
X114782061Y-82001999D01*
X114772633Y-82001999D01*
X114766229Y-82003715D01*
X114498249Y-82003715D01*
X114488517Y-82001999D01*
X114487939Y-82001999D01*
X114483425Y-82001101D01*
X114417508Y-81989478D01*
X114413574Y-81987207D01*
X114409513Y-81986399D01*
X114392595Y-81975095D01*
X114356121Y-81954037D01*
X114349793Y-81946496D01*
X114343026Y-81941974D01*
X114331402Y-81924578D01*
X114314203Y-81904080D01*
X114311858Y-81895327D01*
X114298601Y-81875487D01*
X114283001Y-81797061D01*
X114283001Y-81787633D01*
X114281285Y-81781229D01*
X114281285Y-80488249D01*
X114283001Y-80478517D01*
X114283001Y-80477939D01*
X114283899Y-80473425D01*
X114295522Y-80407508D01*
X114297793Y-80403574D01*
X114298601Y-80399513D01*
X114309905Y-80382595D01*
X114330963Y-80346121D01*
X114338504Y-80339793D01*
X114343026Y-80333026D01*
X114360422Y-80321402D01*
X114380920Y-80304203D01*
X114389673Y-80301858D01*
X114409513Y-80288601D01*
X114487939Y-80273001D01*
X114497367Y-80273001D01*
X114503771Y-80271285D01*
X114771751Y-80271285D01*
X114781483Y-80273001D01*
X114781483Y-80273001D01*
G37*
G36*
X113511483Y-80273001D02*
G01*
X113512061Y-80273001D01*
X113516575Y-80273899D01*
X113582492Y-80285522D01*
X113586426Y-80287793D01*
X113590487Y-80288601D01*
X113607405Y-80299905D01*
X113643879Y-80320963D01*
X113650207Y-80328504D01*
X113656974Y-80333026D01*
X113668598Y-80350422D01*
X113685797Y-80370920D01*
X113688142Y-80379673D01*
X113701399Y-80399513D01*
X113716999Y-80477939D01*
X113716999Y-80487367D01*
X113718715Y-80493771D01*
X113718715Y-81786751D01*
X113716999Y-81796483D01*
X113716999Y-81797061D01*
X113716101Y-81801575D01*
X113704478Y-81867492D01*
X113702207Y-81871426D01*
X113701399Y-81875487D01*
X113690095Y-81892405D01*
X113669037Y-81928879D01*
X113661496Y-81935207D01*
X113656974Y-81941974D01*
X113639578Y-81953598D01*
X113619080Y-81970797D01*
X113610327Y-81973142D01*
X113590487Y-81986399D01*
X113512061Y-82001999D01*
X113502633Y-82001999D01*
X113496229Y-82003715D01*
X113228249Y-82003715D01*
X113218517Y-82001999D01*
X113217939Y-82001999D01*
X113213425Y-82001101D01*
X113147508Y-81989478D01*
X113143574Y-81987207D01*
X113139513Y-81986399D01*
X113122595Y-81975095D01*
X113086121Y-81954037D01*
X113079793Y-81946496D01*
X113073026Y-81941974D01*
X113061402Y-81924578D01*
X113044203Y-81904080D01*
X113041858Y-81895327D01*
X113028601Y-81875487D01*
X113013001Y-81797061D01*
X113013001Y-81787633D01*
X113011285Y-81781229D01*
X113011285Y-80488249D01*
X113013001Y-80478517D01*
X113013001Y-80477939D01*
X113013899Y-80473425D01*
X113025522Y-80407508D01*
X113027793Y-80403574D01*
X113028601Y-80399513D01*
X113039905Y-80382595D01*
X113060963Y-80346121D01*
X113068504Y-80339793D01*
X113073026Y-80333026D01*
X113090422Y-80321402D01*
X113110920Y-80304203D01*
X113119673Y-80301858D01*
X113139513Y-80288601D01*
X113217939Y-80273001D01*
X113227367Y-80273001D01*
X113233771Y-80271285D01*
X113501751Y-80271285D01*
X113511483Y-80273001D01*
X113511483Y-80273001D01*
G37*
G36*
X112241483Y-80273001D02*
G01*
X112242061Y-80273001D01*
X112246575Y-80273899D01*
X112312492Y-80285522D01*
X112316426Y-80287793D01*
X112320487Y-80288601D01*
X112337405Y-80299905D01*
X112373879Y-80320963D01*
X112380207Y-80328504D01*
X112386974Y-80333026D01*
X112398598Y-80350422D01*
X112415797Y-80370920D01*
X112418142Y-80379673D01*
X112431399Y-80399513D01*
X112446999Y-80477939D01*
X112446999Y-80487367D01*
X112448715Y-80493771D01*
X112448715Y-81786751D01*
X112446999Y-81796483D01*
X112446999Y-81797061D01*
X112446101Y-81801575D01*
X112434478Y-81867492D01*
X112432207Y-81871426D01*
X112431399Y-81875487D01*
X112420095Y-81892405D01*
X112399037Y-81928879D01*
X112391496Y-81935207D01*
X112386974Y-81941974D01*
X112369578Y-81953598D01*
X112349080Y-81970797D01*
X112340327Y-81973142D01*
X112320487Y-81986399D01*
X112242061Y-82001999D01*
X112232633Y-82001999D01*
X112226229Y-82003715D01*
X111958249Y-82003715D01*
X111948517Y-82001999D01*
X111947939Y-82001999D01*
X111943425Y-82001101D01*
X111877508Y-81989478D01*
X111873574Y-81987207D01*
X111869513Y-81986399D01*
X111852595Y-81975095D01*
X111816121Y-81954037D01*
X111809793Y-81946496D01*
X111803026Y-81941974D01*
X111791402Y-81924578D01*
X111774203Y-81904080D01*
X111771858Y-81895327D01*
X111758601Y-81875487D01*
X111743001Y-81797061D01*
X111743001Y-81787633D01*
X111741285Y-81781229D01*
X111741285Y-80488249D01*
X111743001Y-80478517D01*
X111743001Y-80477939D01*
X111743899Y-80473425D01*
X111755522Y-80407508D01*
X111757793Y-80403574D01*
X111758601Y-80399513D01*
X111769905Y-80382595D01*
X111790963Y-80346121D01*
X111798504Y-80339793D01*
X111803026Y-80333026D01*
X111820422Y-80321402D01*
X111840920Y-80304203D01*
X111849673Y-80301858D01*
X111869513Y-80288601D01*
X111947939Y-80273001D01*
X111957367Y-80273001D01*
X111963771Y-80271285D01*
X112231751Y-80271285D01*
X112241483Y-80273001D01*
X112241483Y-80273001D01*
G37*
G36*
X127426652Y-80498117D02*
G01*
X127427027Y-80498117D01*
X127429106Y-80498506D01*
X127520430Y-80512970D01*
X127528513Y-80517088D01*
X127535347Y-80518366D01*
X127555453Y-80530815D01*
X127603620Y-80555357D01*
X127617488Y-80569225D01*
X127629039Y-80576377D01*
X127642607Y-80594344D01*
X127669643Y-80621380D01*
X127683374Y-80648328D01*
X127695447Y-80664316D01*
X127698814Y-80678632D01*
X127712030Y-80704570D01*
X127726701Y-80797200D01*
X127726883Y-80797973D01*
X127726883Y-80798348D01*
X127728194Y-80806625D01*
X127728194Y-81693375D01*
X127726883Y-81701652D01*
X127726883Y-81702027D01*
X127726494Y-81704106D01*
X127712030Y-81795430D01*
X127707912Y-81803513D01*
X127706634Y-81810347D01*
X127694185Y-81830453D01*
X127669643Y-81878620D01*
X127655775Y-81892488D01*
X127648623Y-81904039D01*
X127630656Y-81917607D01*
X127603620Y-81944643D01*
X127576672Y-81958374D01*
X127560684Y-81970447D01*
X127546368Y-81973814D01*
X127520430Y-81987030D01*
X127427800Y-82001701D01*
X127427027Y-82001883D01*
X127426652Y-82001883D01*
X127418375Y-82003194D01*
X126956625Y-82003194D01*
X126948348Y-82001883D01*
X126947973Y-82001883D01*
X126945894Y-82001494D01*
X126854570Y-81987030D01*
X126846487Y-81982912D01*
X126839653Y-81981634D01*
X126819547Y-81969185D01*
X126771380Y-81944643D01*
X126757512Y-81930775D01*
X126745961Y-81923623D01*
X126732393Y-81905656D01*
X126705357Y-81878620D01*
X126691626Y-81851672D01*
X126679553Y-81835684D01*
X126676186Y-81821368D01*
X126662970Y-81795430D01*
X126648299Y-81702800D01*
X126648117Y-81702027D01*
X126648117Y-81701652D01*
X126646806Y-81693375D01*
X126646806Y-80806625D01*
X126648117Y-80798348D01*
X126648117Y-80797973D01*
X126648506Y-80795894D01*
X126662970Y-80704570D01*
X126667088Y-80696487D01*
X126668366Y-80689653D01*
X126680815Y-80669547D01*
X126705357Y-80621380D01*
X126719225Y-80607512D01*
X126726377Y-80595961D01*
X126744344Y-80582393D01*
X126771380Y-80555357D01*
X126798328Y-80541626D01*
X126814316Y-80529553D01*
X126828632Y-80526186D01*
X126854570Y-80512970D01*
X126947200Y-80498299D01*
X126947973Y-80498117D01*
X126948348Y-80498117D01*
X126956625Y-80496806D01*
X127418375Y-80496806D01*
X127426652Y-80498117D01*
X127426652Y-80498117D01*
G37*
G36*
X125551652Y-80498117D02*
G01*
X125552027Y-80498117D01*
X125554106Y-80498506D01*
X125645430Y-80512970D01*
X125653513Y-80517088D01*
X125660347Y-80518366D01*
X125680453Y-80530815D01*
X125728620Y-80555357D01*
X125742488Y-80569225D01*
X125754039Y-80576377D01*
X125767607Y-80594344D01*
X125794643Y-80621380D01*
X125808374Y-80648328D01*
X125820447Y-80664316D01*
X125823814Y-80678632D01*
X125837030Y-80704570D01*
X125851701Y-80797200D01*
X125851883Y-80797973D01*
X125851883Y-80798348D01*
X125853194Y-80806625D01*
X125853194Y-81693375D01*
X125851883Y-81701652D01*
X125851883Y-81702027D01*
X125851494Y-81704106D01*
X125837030Y-81795430D01*
X125832912Y-81803513D01*
X125831634Y-81810347D01*
X125819185Y-81830453D01*
X125794643Y-81878620D01*
X125780775Y-81892488D01*
X125773623Y-81904039D01*
X125755656Y-81917607D01*
X125728620Y-81944643D01*
X125701672Y-81958374D01*
X125685684Y-81970447D01*
X125671368Y-81973814D01*
X125645430Y-81987030D01*
X125552800Y-82001701D01*
X125552027Y-82001883D01*
X125551652Y-82001883D01*
X125543375Y-82003194D01*
X125081625Y-82003194D01*
X125073348Y-82001883D01*
X125072973Y-82001883D01*
X125070894Y-82001494D01*
X124979570Y-81987030D01*
X124971487Y-81982912D01*
X124964653Y-81981634D01*
X124944547Y-81969185D01*
X124896380Y-81944643D01*
X124882512Y-81930775D01*
X124870961Y-81923623D01*
X124857393Y-81905656D01*
X124830357Y-81878620D01*
X124816626Y-81851672D01*
X124804553Y-81835684D01*
X124801186Y-81821368D01*
X124787970Y-81795430D01*
X124773299Y-81702800D01*
X124773117Y-81702027D01*
X124773117Y-81701652D01*
X124771806Y-81693375D01*
X124771806Y-80806625D01*
X124773117Y-80798348D01*
X124773117Y-80797973D01*
X124773506Y-80795894D01*
X124787970Y-80704570D01*
X124792088Y-80696487D01*
X124793366Y-80689653D01*
X124805815Y-80669547D01*
X124830357Y-80621380D01*
X124844225Y-80607512D01*
X124851377Y-80595961D01*
X124869344Y-80582393D01*
X124896380Y-80555357D01*
X124923328Y-80541626D01*
X124939316Y-80529553D01*
X124953632Y-80526186D01*
X124979570Y-80512970D01*
X125072200Y-80498299D01*
X125072973Y-80498117D01*
X125073348Y-80498117D01*
X125081625Y-80496806D01*
X125543375Y-80496806D01*
X125551652Y-80498117D01*
X125551652Y-80498117D01*
G37*
G36*
X117951231Y-79923001D02*
G01*
X117951964Y-79923001D01*
X117954829Y-79923571D01*
X118037918Y-79936731D01*
X118048760Y-79942255D01*
X118057215Y-79943937D01*
X118073768Y-79954998D01*
X118114054Y-79975524D01*
X118133316Y-79994786D01*
X118146443Y-80003557D01*
X118155214Y-80016684D01*
X118174476Y-80035946D01*
X118195002Y-80076232D01*
X118206063Y-80092785D01*
X118207745Y-80101240D01*
X118213269Y-80112082D01*
X118226429Y-80195171D01*
X118226999Y-80198036D01*
X118226999Y-80198769D01*
X118228194Y-80206314D01*
X118228194Y-80618686D01*
X118226999Y-80626231D01*
X118226999Y-80626964D01*
X118226429Y-80629829D01*
X118213269Y-80712918D01*
X118207745Y-80723760D01*
X118206063Y-80732215D01*
X118195002Y-80748768D01*
X118174476Y-80789054D01*
X118155214Y-80808316D01*
X118146443Y-80821443D01*
X118133316Y-80830214D01*
X118114054Y-80849476D01*
X118073768Y-80870002D01*
X118057215Y-80881063D01*
X118048760Y-80882745D01*
X118037918Y-80888269D01*
X117954829Y-80901429D01*
X117951964Y-80901999D01*
X117951231Y-80901999D01*
X117943686Y-80903194D01*
X117456314Y-80903194D01*
X117448769Y-80901999D01*
X117448036Y-80901999D01*
X117445171Y-80901429D01*
X117362082Y-80888269D01*
X117351240Y-80882745D01*
X117342785Y-80881063D01*
X117326232Y-80870002D01*
X117285946Y-80849476D01*
X117266684Y-80830214D01*
X117253557Y-80821443D01*
X117244786Y-80808316D01*
X117225524Y-80789054D01*
X117204998Y-80748768D01*
X117193937Y-80732215D01*
X117192255Y-80723760D01*
X117186731Y-80712918D01*
X117173571Y-80629829D01*
X117173001Y-80626964D01*
X117173001Y-80626231D01*
X117171806Y-80618686D01*
X117171806Y-80206314D01*
X117173001Y-80198769D01*
X117173001Y-80198036D01*
X117173571Y-80195171D01*
X117186731Y-80112082D01*
X117192255Y-80101240D01*
X117193937Y-80092785D01*
X117204998Y-80076232D01*
X117225524Y-80035946D01*
X117244786Y-80016684D01*
X117253557Y-80003557D01*
X117266684Y-79994786D01*
X117285946Y-79975524D01*
X117326232Y-79954998D01*
X117342785Y-79943937D01*
X117351240Y-79942255D01*
X117362082Y-79936731D01*
X117445171Y-79923571D01*
X117448036Y-79923001D01*
X117448769Y-79923001D01*
X117456314Y-79921806D01*
X117943686Y-79921806D01*
X117951231Y-79923001D01*
X117951231Y-79923001D01*
G37*
G36*
X115436756Y-77204764D02*
G01*
X115448227Y-77210288D01*
X115456287Y-77211795D01*
X115473547Y-77222482D01*
X115518638Y-77244197D01*
X115538738Y-77262847D01*
X115551964Y-77271036D01*
X115562265Y-77284676D01*
X115585264Y-77306016D01*
X115607614Y-77344727D01*
X115619781Y-77360839D01*
X115621751Y-77369213D01*
X115629506Y-77382646D01*
X115648419Y-77482601D01*
X115651883Y-77497330D01*
X115651883Y-77500909D01*
X115653194Y-77507838D01*
X115653194Y-79494517D01*
X115638236Y-79593756D01*
X115632712Y-79605227D01*
X115631205Y-79613287D01*
X115620518Y-79630547D01*
X115598803Y-79675638D01*
X115580153Y-79695738D01*
X115571964Y-79708964D01*
X115558324Y-79719265D01*
X115536984Y-79742264D01*
X115498273Y-79764614D01*
X115482161Y-79776781D01*
X115473787Y-79778751D01*
X115460354Y-79786506D01*
X115360399Y-79805419D01*
X115345670Y-79808883D01*
X115342091Y-79808883D01*
X115335162Y-79810194D01*
X112662483Y-79810194D01*
X112563244Y-79795236D01*
X112551773Y-79789712D01*
X112543713Y-79788205D01*
X112526453Y-79777518D01*
X112481362Y-79755803D01*
X112461262Y-79737153D01*
X112448036Y-79728964D01*
X112437735Y-79715324D01*
X112414736Y-79693984D01*
X112392386Y-79655273D01*
X112380219Y-79639161D01*
X112378249Y-79630787D01*
X112370494Y-79617354D01*
X112351581Y-79517399D01*
X112348117Y-79502670D01*
X112348117Y-79499091D01*
X112346806Y-79492162D01*
X112346806Y-77505483D01*
X112361764Y-77406244D01*
X112367288Y-77394773D01*
X112368795Y-77386713D01*
X112379482Y-77369453D01*
X112401197Y-77324362D01*
X112419847Y-77304262D01*
X112428036Y-77291036D01*
X112441676Y-77280735D01*
X112463016Y-77257736D01*
X112501727Y-77235386D01*
X112517839Y-77223219D01*
X112526213Y-77221249D01*
X112539646Y-77213494D01*
X112639601Y-77194581D01*
X112654330Y-77191117D01*
X112657909Y-77191117D01*
X112664838Y-77189806D01*
X115337517Y-77189806D01*
X115436756Y-77204764D01*
X115436756Y-77204764D01*
G37*
G36*
X114781483Y-74998001D02*
G01*
X114782061Y-74998001D01*
X114786575Y-74998899D01*
X114852492Y-75010522D01*
X114856426Y-75012793D01*
X114860487Y-75013601D01*
X114877405Y-75024905D01*
X114913879Y-75045963D01*
X114920207Y-75053504D01*
X114926974Y-75058026D01*
X114938598Y-75075422D01*
X114955797Y-75095920D01*
X114958142Y-75104673D01*
X114971399Y-75124513D01*
X114986999Y-75202939D01*
X114986999Y-75212367D01*
X114988715Y-75218771D01*
X114988715Y-76511751D01*
X114986999Y-76521483D01*
X114986999Y-76522061D01*
X114986101Y-76526575D01*
X114974478Y-76592492D01*
X114972207Y-76596426D01*
X114971399Y-76600487D01*
X114960095Y-76617405D01*
X114939037Y-76653879D01*
X114931496Y-76660207D01*
X114926974Y-76666974D01*
X114909578Y-76678598D01*
X114889080Y-76695797D01*
X114880327Y-76698142D01*
X114860487Y-76711399D01*
X114782061Y-76726999D01*
X114772633Y-76726999D01*
X114766229Y-76728715D01*
X114498249Y-76728715D01*
X114488517Y-76726999D01*
X114487939Y-76726999D01*
X114483425Y-76726101D01*
X114417508Y-76714478D01*
X114413574Y-76712207D01*
X114409513Y-76711399D01*
X114392595Y-76700095D01*
X114356121Y-76679037D01*
X114349793Y-76671496D01*
X114343026Y-76666974D01*
X114331402Y-76649578D01*
X114314203Y-76629080D01*
X114311858Y-76620327D01*
X114298601Y-76600487D01*
X114283001Y-76522061D01*
X114283001Y-76512633D01*
X114281285Y-76506229D01*
X114281285Y-75213249D01*
X114283001Y-75203517D01*
X114283001Y-75202939D01*
X114283899Y-75198425D01*
X114295522Y-75132508D01*
X114297793Y-75128574D01*
X114298601Y-75124513D01*
X114309905Y-75107595D01*
X114330963Y-75071121D01*
X114338504Y-75064793D01*
X114343026Y-75058026D01*
X114360422Y-75046402D01*
X114380920Y-75029203D01*
X114389673Y-75026858D01*
X114409513Y-75013601D01*
X114487939Y-74998001D01*
X114497367Y-74998001D01*
X114503771Y-74996285D01*
X114771751Y-74996285D01*
X114781483Y-74998001D01*
X114781483Y-74998001D01*
G37*
G36*
X116051483Y-74998001D02*
G01*
X116052061Y-74998001D01*
X116056575Y-74998899D01*
X116122492Y-75010522D01*
X116126426Y-75012793D01*
X116130487Y-75013601D01*
X116147405Y-75024905D01*
X116183879Y-75045963D01*
X116190207Y-75053504D01*
X116196974Y-75058026D01*
X116208598Y-75075422D01*
X116225797Y-75095920D01*
X116228142Y-75104673D01*
X116241399Y-75124513D01*
X116256999Y-75202939D01*
X116256999Y-75212367D01*
X116258715Y-75218771D01*
X116258715Y-76511751D01*
X116256999Y-76521483D01*
X116256999Y-76522061D01*
X116256101Y-76526575D01*
X116244478Y-76592492D01*
X116242207Y-76596426D01*
X116241399Y-76600487D01*
X116230095Y-76617405D01*
X116209037Y-76653879D01*
X116201496Y-76660207D01*
X116196974Y-76666974D01*
X116179578Y-76678598D01*
X116159080Y-76695797D01*
X116150327Y-76698142D01*
X116130487Y-76711399D01*
X116052061Y-76726999D01*
X116042633Y-76726999D01*
X116036229Y-76728715D01*
X115768249Y-76728715D01*
X115758517Y-76726999D01*
X115757939Y-76726999D01*
X115753425Y-76726101D01*
X115687508Y-76714478D01*
X115683574Y-76712207D01*
X115679513Y-76711399D01*
X115662595Y-76700095D01*
X115626121Y-76679037D01*
X115619793Y-76671496D01*
X115613026Y-76666974D01*
X115601402Y-76649578D01*
X115584203Y-76629080D01*
X115581858Y-76620327D01*
X115568601Y-76600487D01*
X115553001Y-76522061D01*
X115553001Y-76512633D01*
X115551285Y-76506229D01*
X115551285Y-75213249D01*
X115553001Y-75203517D01*
X115553001Y-75202939D01*
X115553899Y-75198425D01*
X115565522Y-75132508D01*
X115567793Y-75128574D01*
X115568601Y-75124513D01*
X115579905Y-75107595D01*
X115600963Y-75071121D01*
X115608504Y-75064793D01*
X115613026Y-75058026D01*
X115630422Y-75046402D01*
X115650920Y-75029203D01*
X115659673Y-75026858D01*
X115679513Y-75013601D01*
X115757939Y-74998001D01*
X115767367Y-74998001D01*
X115773771Y-74996285D01*
X116041751Y-74996285D01*
X116051483Y-74998001D01*
X116051483Y-74998001D01*
G37*
G36*
X112241483Y-74998001D02*
G01*
X112242061Y-74998001D01*
X112246575Y-74998899D01*
X112312492Y-75010522D01*
X112316426Y-75012793D01*
X112320487Y-75013601D01*
X112337405Y-75024905D01*
X112373879Y-75045963D01*
X112380207Y-75053504D01*
X112386974Y-75058026D01*
X112398598Y-75075422D01*
X112415797Y-75095920D01*
X112418142Y-75104673D01*
X112431399Y-75124513D01*
X112446999Y-75202939D01*
X112446999Y-75212367D01*
X112448715Y-75218771D01*
X112448715Y-76511751D01*
X112446999Y-76521483D01*
X112446999Y-76522061D01*
X112446101Y-76526575D01*
X112434478Y-76592492D01*
X112432207Y-76596426D01*
X112431399Y-76600487D01*
X112420095Y-76617405D01*
X112399037Y-76653879D01*
X112391496Y-76660207D01*
X112386974Y-76666974D01*
X112369578Y-76678598D01*
X112349080Y-76695797D01*
X112340327Y-76698142D01*
X112320487Y-76711399D01*
X112242061Y-76726999D01*
X112232633Y-76726999D01*
X112226229Y-76728715D01*
X111958249Y-76728715D01*
X111948517Y-76726999D01*
X111947939Y-76726999D01*
X111943425Y-76726101D01*
X111877508Y-76714478D01*
X111873574Y-76712207D01*
X111869513Y-76711399D01*
X111852595Y-76700095D01*
X111816121Y-76679037D01*
X111809793Y-76671496D01*
X111803026Y-76666974D01*
X111791402Y-76649578D01*
X111774203Y-76629080D01*
X111771858Y-76620327D01*
X111758601Y-76600487D01*
X111743001Y-76522061D01*
X111743001Y-76512633D01*
X111741285Y-76506229D01*
X111741285Y-75213249D01*
X111743001Y-75203517D01*
X111743001Y-75202939D01*
X111743899Y-75198425D01*
X111755522Y-75132508D01*
X111757793Y-75128574D01*
X111758601Y-75124513D01*
X111769905Y-75107595D01*
X111790963Y-75071121D01*
X111798504Y-75064793D01*
X111803026Y-75058026D01*
X111820422Y-75046402D01*
X111840920Y-75029203D01*
X111849673Y-75026858D01*
X111869513Y-75013601D01*
X111947939Y-74998001D01*
X111957367Y-74998001D01*
X111963771Y-74996285D01*
X112231751Y-74996285D01*
X112241483Y-74998001D01*
X112241483Y-74998001D01*
G37*
G36*
X113511483Y-74998001D02*
G01*
X113512061Y-74998001D01*
X113516575Y-74998899D01*
X113582492Y-75010522D01*
X113586426Y-75012793D01*
X113590487Y-75013601D01*
X113607405Y-75024905D01*
X113643879Y-75045963D01*
X113650207Y-75053504D01*
X113656974Y-75058026D01*
X113668598Y-75075422D01*
X113685797Y-75095920D01*
X113688142Y-75104673D01*
X113701399Y-75124513D01*
X113716999Y-75202939D01*
X113716999Y-75212367D01*
X113718715Y-75218771D01*
X113718715Y-76511751D01*
X113716999Y-76521483D01*
X113716999Y-76522061D01*
X113716101Y-76526575D01*
X113704478Y-76592492D01*
X113702207Y-76596426D01*
X113701399Y-76600487D01*
X113690095Y-76617405D01*
X113669037Y-76653879D01*
X113661496Y-76660207D01*
X113656974Y-76666974D01*
X113639578Y-76678598D01*
X113619080Y-76695797D01*
X113610327Y-76698142D01*
X113590487Y-76711399D01*
X113512061Y-76726999D01*
X113502633Y-76726999D01*
X113496229Y-76728715D01*
X113228249Y-76728715D01*
X113218517Y-76726999D01*
X113217939Y-76726999D01*
X113213425Y-76726101D01*
X113147508Y-76714478D01*
X113143574Y-76712207D01*
X113139513Y-76711399D01*
X113122595Y-76700095D01*
X113086121Y-76679037D01*
X113079793Y-76671496D01*
X113073026Y-76666974D01*
X113061402Y-76649578D01*
X113044203Y-76629080D01*
X113041858Y-76620327D01*
X113028601Y-76600487D01*
X113013001Y-76522061D01*
X113013001Y-76512633D01*
X113011285Y-76506229D01*
X113011285Y-75213249D01*
X113013001Y-75203517D01*
X113013001Y-75202939D01*
X113013899Y-75198425D01*
X113025522Y-75132508D01*
X113027793Y-75128574D01*
X113028601Y-75124513D01*
X113039905Y-75107595D01*
X113060963Y-75071121D01*
X113068504Y-75064793D01*
X113073026Y-75058026D01*
X113090422Y-75046402D01*
X113110920Y-75029203D01*
X113119673Y-75026858D01*
X113139513Y-75013601D01*
X113217939Y-74998001D01*
X113227367Y-74998001D01*
X113233771Y-74996285D01*
X113501751Y-74996285D01*
X113511483Y-74998001D01*
X113511483Y-74998001D01*
G37*
G36*
X130219899Y-70251959D02*
G01*
X130236769Y-70263231D01*
X130248041Y-70280101D01*
X130254448Y-70312312D01*
X130254448Y-75687688D01*
X130251999Y-75700000D01*
X130248041Y-75719899D01*
X130236769Y-75736769D01*
X130219899Y-75748041D01*
X130200000Y-75751999D01*
X130187688Y-75754448D01*
X127312312Y-75754448D01*
X127280101Y-75748041D01*
X127263231Y-75736769D01*
X127251959Y-75719899D01*
X127245552Y-75687688D01*
X127245552Y-70312312D01*
X127251959Y-70280101D01*
X127263231Y-70263231D01*
X127280101Y-70251959D01*
X127312312Y-70245552D01*
X130187688Y-70245552D01*
X130219899Y-70251959D01*
X130219899Y-70251959D01*
G37*
G36*
X120319899Y-70251959D02*
G01*
X120336769Y-70263231D01*
X120348041Y-70280101D01*
X120354448Y-70312312D01*
X120354448Y-75687688D01*
X120351999Y-75700000D01*
X120348041Y-75719899D01*
X120336769Y-75736769D01*
X120319899Y-75748041D01*
X120300000Y-75751999D01*
X120287688Y-75754448D01*
X117412312Y-75754448D01*
X117380101Y-75748041D01*
X117363231Y-75736769D01*
X117351959Y-75719899D01*
X117345552Y-75687688D01*
X117345552Y-70312312D01*
X117351959Y-70280101D01*
X117363231Y-70263231D01*
X117380101Y-70251959D01*
X117412312Y-70245552D01*
X120287688Y-70245552D01*
X120319899Y-70251959D01*
X120319899Y-70251959D01*
G37*
G36*
X112251231Y-73498001D02*
G01*
X112251964Y-73498001D01*
X112254829Y-73498571D01*
X112337918Y-73511731D01*
X112348760Y-73517255D01*
X112357215Y-73518937D01*
X112373768Y-73529998D01*
X112414054Y-73550524D01*
X112433316Y-73569786D01*
X112446443Y-73578557D01*
X112455214Y-73591684D01*
X112474476Y-73610946D01*
X112495002Y-73651232D01*
X112506063Y-73667785D01*
X112507745Y-73676240D01*
X112513269Y-73687082D01*
X112526429Y-73770171D01*
X112526999Y-73773036D01*
X112526999Y-73773769D01*
X112528194Y-73781314D01*
X112528194Y-74193686D01*
X112526999Y-74201231D01*
X112526999Y-74201964D01*
X112526429Y-74204829D01*
X112513269Y-74287918D01*
X112507745Y-74298760D01*
X112506063Y-74307215D01*
X112495002Y-74323768D01*
X112474476Y-74364054D01*
X112455214Y-74383316D01*
X112446443Y-74396443D01*
X112433316Y-74405214D01*
X112414054Y-74424476D01*
X112373768Y-74445002D01*
X112357215Y-74456063D01*
X112348760Y-74457745D01*
X112337918Y-74463269D01*
X112254829Y-74476429D01*
X112251964Y-74476999D01*
X112251231Y-74476999D01*
X112243686Y-74478194D01*
X111756314Y-74478194D01*
X111748769Y-74476999D01*
X111748036Y-74476999D01*
X111745171Y-74476429D01*
X111662082Y-74463269D01*
X111651240Y-74457745D01*
X111642785Y-74456063D01*
X111626232Y-74445002D01*
X111585946Y-74424476D01*
X111566684Y-74405214D01*
X111553557Y-74396443D01*
X111544786Y-74383316D01*
X111525524Y-74364054D01*
X111504998Y-74323768D01*
X111493937Y-74307215D01*
X111492255Y-74298760D01*
X111486731Y-74287918D01*
X111473571Y-74204829D01*
X111473001Y-74201964D01*
X111473001Y-74201231D01*
X111471806Y-74193686D01*
X111471806Y-73781314D01*
X111473001Y-73773769D01*
X111473001Y-73773036D01*
X111473571Y-73770171D01*
X111486731Y-73687082D01*
X111492255Y-73676240D01*
X111493937Y-73667785D01*
X111504998Y-73651232D01*
X111525524Y-73610946D01*
X111544786Y-73591684D01*
X111553557Y-73578557D01*
X111566684Y-73569786D01*
X111585946Y-73550524D01*
X111626232Y-73529998D01*
X111642785Y-73518937D01*
X111651240Y-73517255D01*
X111662082Y-73511731D01*
X111745171Y-73498571D01*
X111748036Y-73498001D01*
X111748769Y-73498001D01*
X111756314Y-73496806D01*
X112243686Y-73496806D01*
X112251231Y-73498001D01*
X112251231Y-73498001D01*
G37*
G36*
X113751231Y-73498001D02*
G01*
X113751964Y-73498001D01*
X113754829Y-73498571D01*
X113837918Y-73511731D01*
X113848760Y-73517255D01*
X113857215Y-73518937D01*
X113873768Y-73529998D01*
X113914054Y-73550524D01*
X113933316Y-73569786D01*
X113946443Y-73578557D01*
X113955214Y-73591684D01*
X113974476Y-73610946D01*
X113995002Y-73651232D01*
X114006063Y-73667785D01*
X114007745Y-73676240D01*
X114013269Y-73687082D01*
X114026429Y-73770171D01*
X114026999Y-73773036D01*
X114026999Y-73773769D01*
X114028194Y-73781314D01*
X114028194Y-74193686D01*
X114026999Y-74201231D01*
X114026999Y-74201964D01*
X114026429Y-74204829D01*
X114013269Y-74287918D01*
X114007745Y-74298760D01*
X114006063Y-74307215D01*
X113995002Y-74323768D01*
X113974476Y-74364054D01*
X113955214Y-74383316D01*
X113946443Y-74396443D01*
X113933316Y-74405214D01*
X113914054Y-74424476D01*
X113873768Y-74445002D01*
X113857215Y-74456063D01*
X113848760Y-74457745D01*
X113837918Y-74463269D01*
X113754829Y-74476429D01*
X113751964Y-74476999D01*
X113751231Y-74476999D01*
X113743686Y-74478194D01*
X113256314Y-74478194D01*
X113248769Y-74476999D01*
X113248036Y-74476999D01*
X113245171Y-74476429D01*
X113162082Y-74463269D01*
X113151240Y-74457745D01*
X113142785Y-74456063D01*
X113126232Y-74445002D01*
X113085946Y-74424476D01*
X113066684Y-74405214D01*
X113053557Y-74396443D01*
X113044786Y-74383316D01*
X113025524Y-74364054D01*
X113004998Y-74323768D01*
X112993937Y-74307215D01*
X112992255Y-74298760D01*
X112986731Y-74287918D01*
X112973571Y-74204829D01*
X112973001Y-74201964D01*
X112973001Y-74201231D01*
X112971806Y-74193686D01*
X112971806Y-73781314D01*
X112973001Y-73773769D01*
X112973001Y-73773036D01*
X112973571Y-73770171D01*
X112986731Y-73687082D01*
X112992255Y-73676240D01*
X112993937Y-73667785D01*
X113004998Y-73651232D01*
X113025524Y-73610946D01*
X113044786Y-73591684D01*
X113053557Y-73578557D01*
X113066684Y-73569786D01*
X113085946Y-73550524D01*
X113126232Y-73529998D01*
X113142785Y-73518937D01*
X113151240Y-73517255D01*
X113162082Y-73511731D01*
X113245171Y-73498571D01*
X113248036Y-73498001D01*
X113248769Y-73498001D01*
X113256314Y-73496806D01*
X113743686Y-73496806D01*
X113751231Y-73498001D01*
X113751231Y-73498001D01*
G37*
G36*
X113751231Y-71923001D02*
G01*
X113751964Y-71923001D01*
X113754829Y-71923571D01*
X113837918Y-71936731D01*
X113848760Y-71942255D01*
X113857215Y-71943937D01*
X113873768Y-71954998D01*
X113914054Y-71975524D01*
X113933316Y-71994786D01*
X113946443Y-72003557D01*
X113955214Y-72016684D01*
X113974476Y-72035946D01*
X113995002Y-72076232D01*
X114006063Y-72092785D01*
X114007745Y-72101240D01*
X114013269Y-72112082D01*
X114026429Y-72195171D01*
X114026999Y-72198036D01*
X114026999Y-72198769D01*
X114028194Y-72206314D01*
X114028194Y-72618686D01*
X114026999Y-72626231D01*
X114026999Y-72626964D01*
X114026429Y-72629829D01*
X114013269Y-72712918D01*
X114007745Y-72723760D01*
X114006063Y-72732215D01*
X113995002Y-72748768D01*
X113974476Y-72789054D01*
X113955214Y-72808316D01*
X113946443Y-72821443D01*
X113933316Y-72830214D01*
X113914054Y-72849476D01*
X113873768Y-72870002D01*
X113857215Y-72881063D01*
X113848760Y-72882745D01*
X113837918Y-72888269D01*
X113754829Y-72901429D01*
X113751964Y-72901999D01*
X113751231Y-72901999D01*
X113743686Y-72903194D01*
X113256314Y-72903194D01*
X113248769Y-72901999D01*
X113248036Y-72901999D01*
X113245171Y-72901429D01*
X113162082Y-72888269D01*
X113151240Y-72882745D01*
X113142785Y-72881063D01*
X113126232Y-72870002D01*
X113085946Y-72849476D01*
X113066684Y-72830214D01*
X113053557Y-72821443D01*
X113044786Y-72808316D01*
X113025524Y-72789054D01*
X113004998Y-72748768D01*
X112993937Y-72732215D01*
X112992255Y-72723760D01*
X112986731Y-72712918D01*
X112973571Y-72629829D01*
X112973001Y-72626964D01*
X112973001Y-72626231D01*
X112971806Y-72618686D01*
X112971806Y-72206314D01*
X112973001Y-72198769D01*
X112973001Y-72198036D01*
X112973571Y-72195171D01*
X112986731Y-72112082D01*
X112992255Y-72101240D01*
X112993937Y-72092785D01*
X113004998Y-72076232D01*
X113025524Y-72035946D01*
X113044786Y-72016684D01*
X113053557Y-72003557D01*
X113066684Y-71994786D01*
X113085946Y-71975524D01*
X113126232Y-71954998D01*
X113142785Y-71943937D01*
X113151240Y-71942255D01*
X113162082Y-71936731D01*
X113245171Y-71923571D01*
X113248036Y-71923001D01*
X113248769Y-71923001D01*
X113256314Y-71921806D01*
X113743686Y-71921806D01*
X113751231Y-71923001D01*
X113751231Y-71923001D01*
G37*
G36*
X112251231Y-71923001D02*
G01*
X112251964Y-71923001D01*
X112254829Y-71923571D01*
X112337918Y-71936731D01*
X112348760Y-71942255D01*
X112357215Y-71943937D01*
X112373768Y-71954998D01*
X112414054Y-71975524D01*
X112433316Y-71994786D01*
X112446443Y-72003557D01*
X112455214Y-72016684D01*
X112474476Y-72035946D01*
X112495002Y-72076232D01*
X112506063Y-72092785D01*
X112507745Y-72101240D01*
X112513269Y-72112082D01*
X112526429Y-72195171D01*
X112526999Y-72198036D01*
X112526999Y-72198769D01*
X112528194Y-72206314D01*
X112528194Y-72618686D01*
X112526999Y-72626231D01*
X112526999Y-72626964D01*
X112526429Y-72629829D01*
X112513269Y-72712918D01*
X112507745Y-72723760D01*
X112506063Y-72732215D01*
X112495002Y-72748768D01*
X112474476Y-72789054D01*
X112455214Y-72808316D01*
X112446443Y-72821443D01*
X112433316Y-72830214D01*
X112414054Y-72849476D01*
X112373768Y-72870002D01*
X112357215Y-72881063D01*
X112348760Y-72882745D01*
X112337918Y-72888269D01*
X112254829Y-72901429D01*
X112251964Y-72901999D01*
X112251231Y-72901999D01*
X112243686Y-72903194D01*
X111756314Y-72903194D01*
X111748769Y-72901999D01*
X111748036Y-72901999D01*
X111745171Y-72901429D01*
X111662082Y-72888269D01*
X111651240Y-72882745D01*
X111642785Y-72881063D01*
X111626232Y-72870002D01*
X111585946Y-72849476D01*
X111566684Y-72830214D01*
X111553557Y-72821443D01*
X111544786Y-72808316D01*
X111525524Y-72789054D01*
X111504998Y-72748768D01*
X111493937Y-72732215D01*
X111492255Y-72723760D01*
X111486731Y-72712918D01*
X111473571Y-72629829D01*
X111473001Y-72626964D01*
X111473001Y-72626231D01*
X111471806Y-72618686D01*
X111471806Y-72206314D01*
X111473001Y-72198769D01*
X111473001Y-72198036D01*
X111473571Y-72195171D01*
X111486731Y-72112082D01*
X111492255Y-72101240D01*
X111493937Y-72092785D01*
X111504998Y-72076232D01*
X111525524Y-72035946D01*
X111544786Y-72016684D01*
X111553557Y-72003557D01*
X111566684Y-71994786D01*
X111585946Y-71975524D01*
X111626232Y-71954998D01*
X111642785Y-71943937D01*
X111651240Y-71942255D01*
X111662082Y-71936731D01*
X111745171Y-71923571D01*
X111748036Y-71923001D01*
X111748769Y-71923001D01*
X111756314Y-71921806D01*
X112243686Y-71921806D01*
X112251231Y-71923001D01*
X112251231Y-71923001D01*
G37*
G36*
X113751231Y-70498001D02*
G01*
X113751964Y-70498001D01*
X113754829Y-70498571D01*
X113837918Y-70511731D01*
X113848760Y-70517255D01*
X113857215Y-70518937D01*
X113873768Y-70529998D01*
X113914054Y-70550524D01*
X113933316Y-70569786D01*
X113946443Y-70578557D01*
X113955214Y-70591684D01*
X113974476Y-70610946D01*
X113995002Y-70651232D01*
X114006063Y-70667785D01*
X114007745Y-70676240D01*
X114013269Y-70687082D01*
X114026429Y-70770171D01*
X114026999Y-70773036D01*
X114026999Y-70773769D01*
X114028194Y-70781314D01*
X114028194Y-71193686D01*
X114026999Y-71201231D01*
X114026999Y-71201964D01*
X114026429Y-71204829D01*
X114013269Y-71287918D01*
X114007745Y-71298760D01*
X114006063Y-71307215D01*
X113995002Y-71323768D01*
X113974476Y-71364054D01*
X113955214Y-71383316D01*
X113946443Y-71396443D01*
X113933316Y-71405214D01*
X113914054Y-71424476D01*
X113873768Y-71445002D01*
X113857215Y-71456063D01*
X113848760Y-71457745D01*
X113837918Y-71463269D01*
X113754829Y-71476429D01*
X113751964Y-71476999D01*
X113751231Y-71476999D01*
X113743686Y-71478194D01*
X113256314Y-71478194D01*
X113248769Y-71476999D01*
X113248036Y-71476999D01*
X113245171Y-71476429D01*
X113162082Y-71463269D01*
X113151240Y-71457745D01*
X113142785Y-71456063D01*
X113126232Y-71445002D01*
X113085946Y-71424476D01*
X113066684Y-71405214D01*
X113053557Y-71396443D01*
X113044786Y-71383316D01*
X113025524Y-71364054D01*
X113004998Y-71323768D01*
X112993937Y-71307215D01*
X112992255Y-71298760D01*
X112986731Y-71287918D01*
X112973571Y-71204829D01*
X112973001Y-71201964D01*
X112973001Y-71201231D01*
X112971806Y-71193686D01*
X112971806Y-70781314D01*
X112973001Y-70773769D01*
X112973001Y-70773036D01*
X112973571Y-70770171D01*
X112986731Y-70687082D01*
X112992255Y-70676240D01*
X112993937Y-70667785D01*
X113004998Y-70651232D01*
X113025524Y-70610946D01*
X113044786Y-70591684D01*
X113053557Y-70578557D01*
X113066684Y-70569786D01*
X113085946Y-70550524D01*
X113126232Y-70529998D01*
X113142785Y-70518937D01*
X113151240Y-70517255D01*
X113162082Y-70511731D01*
X113245171Y-70498571D01*
X113248036Y-70498001D01*
X113248769Y-70498001D01*
X113256314Y-70496806D01*
X113743686Y-70496806D01*
X113751231Y-70498001D01*
X113751231Y-70498001D01*
G37*
G36*
X112251231Y-70498001D02*
G01*
X112251964Y-70498001D01*
X112254829Y-70498571D01*
X112337918Y-70511731D01*
X112348760Y-70517255D01*
X112357215Y-70518937D01*
X112373768Y-70529998D01*
X112414054Y-70550524D01*
X112433316Y-70569786D01*
X112446443Y-70578557D01*
X112455214Y-70591684D01*
X112474476Y-70610946D01*
X112495002Y-70651232D01*
X112506063Y-70667785D01*
X112507745Y-70676240D01*
X112513269Y-70687082D01*
X112526429Y-70770171D01*
X112526999Y-70773036D01*
X112526999Y-70773769D01*
X112528194Y-70781314D01*
X112528194Y-71193686D01*
X112526999Y-71201231D01*
X112526999Y-71201964D01*
X112526429Y-71204829D01*
X112513269Y-71287918D01*
X112507745Y-71298760D01*
X112506063Y-71307215D01*
X112495002Y-71323768D01*
X112474476Y-71364054D01*
X112455214Y-71383316D01*
X112446443Y-71396443D01*
X112433316Y-71405214D01*
X112414054Y-71424476D01*
X112373768Y-71445002D01*
X112357215Y-71456063D01*
X112348760Y-71457745D01*
X112337918Y-71463269D01*
X112254829Y-71476429D01*
X112251964Y-71476999D01*
X112251231Y-71476999D01*
X112243686Y-71478194D01*
X111756314Y-71478194D01*
X111748769Y-71476999D01*
X111748036Y-71476999D01*
X111745171Y-71476429D01*
X111662082Y-71463269D01*
X111651240Y-71457745D01*
X111642785Y-71456063D01*
X111626232Y-71445002D01*
X111585946Y-71424476D01*
X111566684Y-71405214D01*
X111553557Y-71396443D01*
X111544786Y-71383316D01*
X111525524Y-71364054D01*
X111504998Y-71323768D01*
X111493937Y-71307215D01*
X111492255Y-71298760D01*
X111486731Y-71287918D01*
X111473571Y-71204829D01*
X111473001Y-71201964D01*
X111473001Y-71201231D01*
X111471806Y-71193686D01*
X111471806Y-70781314D01*
X111473001Y-70773769D01*
X111473001Y-70773036D01*
X111473571Y-70770171D01*
X111486731Y-70687082D01*
X111492255Y-70676240D01*
X111493937Y-70667785D01*
X111504998Y-70651232D01*
X111525524Y-70610946D01*
X111544786Y-70591684D01*
X111553557Y-70578557D01*
X111566684Y-70569786D01*
X111585946Y-70550524D01*
X111626232Y-70529998D01*
X111642785Y-70518937D01*
X111651240Y-70517255D01*
X111662082Y-70511731D01*
X111745171Y-70498571D01*
X111748036Y-70498001D01*
X111748769Y-70498001D01*
X111756314Y-70496806D01*
X112243686Y-70496806D01*
X112251231Y-70498001D01*
X112251231Y-70498001D01*
G37*
G36*
X113751231Y-68923001D02*
G01*
X113751964Y-68923001D01*
X113754829Y-68923571D01*
X113837918Y-68936731D01*
X113848760Y-68942255D01*
X113857215Y-68943937D01*
X113873768Y-68954998D01*
X113914054Y-68975524D01*
X113933316Y-68994786D01*
X113946443Y-69003557D01*
X113955214Y-69016684D01*
X113974476Y-69035946D01*
X113995002Y-69076232D01*
X114006063Y-69092785D01*
X114007745Y-69101240D01*
X114013269Y-69112082D01*
X114026429Y-69195171D01*
X114026999Y-69198036D01*
X114026999Y-69198769D01*
X114028194Y-69206314D01*
X114028194Y-69618686D01*
X114026999Y-69626231D01*
X114026999Y-69626964D01*
X114026429Y-69629829D01*
X114013269Y-69712918D01*
X114007745Y-69723760D01*
X114006063Y-69732215D01*
X113995002Y-69748768D01*
X113974476Y-69789054D01*
X113955214Y-69808316D01*
X113946443Y-69821443D01*
X113933316Y-69830214D01*
X113914054Y-69849476D01*
X113873768Y-69870002D01*
X113857215Y-69881063D01*
X113848760Y-69882745D01*
X113837918Y-69888269D01*
X113754829Y-69901429D01*
X113751964Y-69901999D01*
X113751231Y-69901999D01*
X113743686Y-69903194D01*
X113256314Y-69903194D01*
X113248769Y-69901999D01*
X113248036Y-69901999D01*
X113245171Y-69901429D01*
X113162082Y-69888269D01*
X113151240Y-69882745D01*
X113142785Y-69881063D01*
X113126232Y-69870002D01*
X113085946Y-69849476D01*
X113066684Y-69830214D01*
X113053557Y-69821443D01*
X113044786Y-69808316D01*
X113025524Y-69789054D01*
X113004998Y-69748768D01*
X112993937Y-69732215D01*
X112992255Y-69723760D01*
X112986731Y-69712918D01*
X112973571Y-69629829D01*
X112973001Y-69626964D01*
X112973001Y-69626231D01*
X112971806Y-69618686D01*
X112971806Y-69206314D01*
X112973001Y-69198769D01*
X112973001Y-69198036D01*
X112973571Y-69195171D01*
X112986731Y-69112082D01*
X112992255Y-69101240D01*
X112993937Y-69092785D01*
X113004998Y-69076232D01*
X113025524Y-69035946D01*
X113044786Y-69016684D01*
X113053557Y-69003557D01*
X113066684Y-68994786D01*
X113085946Y-68975524D01*
X113126232Y-68954998D01*
X113142785Y-68943937D01*
X113151240Y-68942255D01*
X113162082Y-68936731D01*
X113245171Y-68923571D01*
X113248036Y-68923001D01*
X113248769Y-68923001D01*
X113256314Y-68921806D01*
X113743686Y-68921806D01*
X113751231Y-68923001D01*
X113751231Y-68923001D01*
G37*
G36*
X112251231Y-68923001D02*
G01*
X112251964Y-68923001D01*
X112254829Y-68923571D01*
X112337918Y-68936731D01*
X112348760Y-68942255D01*
X112357215Y-68943937D01*
X112373768Y-68954998D01*
X112414054Y-68975524D01*
X112433316Y-68994786D01*
X112446443Y-69003557D01*
X112455214Y-69016684D01*
X112474476Y-69035946D01*
X112495002Y-69076232D01*
X112506063Y-69092785D01*
X112507745Y-69101240D01*
X112513269Y-69112082D01*
X112526429Y-69195171D01*
X112526999Y-69198036D01*
X112526999Y-69198769D01*
X112528194Y-69206314D01*
X112528194Y-69618686D01*
X112526999Y-69626231D01*
X112526999Y-69626964D01*
X112526429Y-69629829D01*
X112513269Y-69712918D01*
X112507745Y-69723760D01*
X112506063Y-69732215D01*
X112495002Y-69748768D01*
X112474476Y-69789054D01*
X112455214Y-69808316D01*
X112446443Y-69821443D01*
X112433316Y-69830214D01*
X112414054Y-69849476D01*
X112373768Y-69870002D01*
X112357215Y-69881063D01*
X112348760Y-69882745D01*
X112337918Y-69888269D01*
X112254829Y-69901429D01*
X112251964Y-69901999D01*
X112251231Y-69901999D01*
X112243686Y-69903194D01*
X111756314Y-69903194D01*
X111748769Y-69901999D01*
X111748036Y-69901999D01*
X111745171Y-69901429D01*
X111662082Y-69888269D01*
X111651240Y-69882745D01*
X111642785Y-69881063D01*
X111626232Y-69870002D01*
X111585946Y-69849476D01*
X111566684Y-69830214D01*
X111553557Y-69821443D01*
X111544786Y-69808316D01*
X111525524Y-69789054D01*
X111504998Y-69748768D01*
X111493937Y-69732215D01*
X111492255Y-69723760D01*
X111486731Y-69712918D01*
X111473571Y-69629829D01*
X111473001Y-69626964D01*
X111473001Y-69626231D01*
X111471806Y-69618686D01*
X111471806Y-69206314D01*
X111473001Y-69198769D01*
X111473001Y-69198036D01*
X111473571Y-69195171D01*
X111486731Y-69112082D01*
X111492255Y-69101240D01*
X111493937Y-69092785D01*
X111504998Y-69076232D01*
X111525524Y-69035946D01*
X111544786Y-69016684D01*
X111553557Y-69003557D01*
X111566684Y-68994786D01*
X111585946Y-68975524D01*
X111626232Y-68954998D01*
X111642785Y-68943937D01*
X111651240Y-68942255D01*
X111662082Y-68936731D01*
X111745171Y-68923571D01*
X111748036Y-68923001D01*
X111748769Y-68923001D01*
X111756314Y-68921806D01*
X112243686Y-68921806D01*
X112251231Y-68923001D01*
X112251231Y-68923001D01*
G37*
M02*
