G04 #@! TF.GenerationSoftware,KiCad,Pcbnew,(5.1.0-1558-g0ba0c1724)*
G04 #@! TF.CreationDate,2019-11-25T17:22:07-08:00*
G04 #@! TF.ProjectId,MP-Power,4d502d50-6f77-4657-922e-6b696361645f,rev?*
G04 #@! TF.SameCoordinates,Original*
G04 #@! TF.FileFunction,Copper,L1,Top*
G04 #@! TF.FilePolarity,Positive*
%FSLAX46Y46*%
G04 Gerber Fmt 4.6, Leading zero omitted, Abs format (unit mm)*
G04 Created by KiCad (PCBNEW (5.1.0-1558-g0ba0c1724)) date 2019-11-25 17:22:07*
%MOMM*%
%LPD*%
G04 APERTURE LIST*
%ADD10C,0.100000*%
%ADD11C,0.975000*%
%ADD12C,2.514000*%
%ADD13C,0.500000*%
%ADD14C,0.600000*%
%ADD15C,0.875000*%
%ADD16R,2.900000X5.400000*%
%ADD17R,1.800000X2.500000*%
%ADD18C,1.250000*%
%ADD19C,0.508000*%
%ADD20C,0.250000*%
%ADD21C,0.152400*%
%ADD22C,0.254000*%
G04 APERTURE END LIST*
D10*
G36*
X125649529Y-80568554D02*
G01*
X125728607Y-80621393D01*
X125781446Y-80700471D01*
X125800000Y-80793750D01*
X125800000Y-81706250D01*
X125781446Y-81799529D01*
X125728607Y-81878607D01*
X125649529Y-81931446D01*
X125556250Y-81950000D01*
X125068750Y-81950000D01*
X124975471Y-81931446D01*
X124896393Y-81878607D01*
X124843554Y-81799529D01*
X124825000Y-81706250D01*
X124825000Y-80793750D01*
X124843554Y-80700471D01*
X124896393Y-80621393D01*
X124975471Y-80568554D01*
X125068750Y-80550000D01*
X125556250Y-80550000D01*
X125649529Y-80568554D01*
X125649529Y-80568554D01*
G37*
D11*
X125312500Y-81250000D03*
D10*
G36*
X127524529Y-80568554D02*
G01*
X127603607Y-80621393D01*
X127656446Y-80700471D01*
X127675000Y-80793750D01*
X127675000Y-81706250D01*
X127656446Y-81799529D01*
X127603607Y-81878607D01*
X127524529Y-81931446D01*
X127431250Y-81950000D01*
X126943750Y-81950000D01*
X126850471Y-81931446D01*
X126771393Y-81878607D01*
X126718554Y-81799529D01*
X126700000Y-81706250D01*
X126700000Y-80793750D01*
X126718554Y-80700471D01*
X126771393Y-80621393D01*
X126850471Y-80568554D01*
X126943750Y-80550000D01*
X127431250Y-80550000D01*
X127524529Y-80568554D01*
X127524529Y-80568554D01*
G37*
D11*
X127187500Y-81250000D03*
D10*
G36*
X115445671Y-77262030D02*
G01*
X115526777Y-77316223D01*
X115580970Y-77397329D01*
X115600000Y-77492999D01*
X115600000Y-79507001D01*
X115580970Y-79602671D01*
X115526777Y-79683777D01*
X115445671Y-79737970D01*
X115350001Y-79757000D01*
X112649999Y-79757000D01*
X112554329Y-79737970D01*
X112473223Y-79683777D01*
X112419030Y-79602671D01*
X112400000Y-79507001D01*
X112400000Y-77492999D01*
X112419030Y-77397329D01*
X112473223Y-77316223D01*
X112554329Y-77262030D01*
X112649999Y-77243000D01*
X115350001Y-77243000D01*
X115445671Y-77262030D01*
X115445671Y-77262030D01*
G37*
D12*
X114000000Y-78500000D03*
D13*
X115000000Y-77800000D03*
X115000000Y-79200000D03*
X114000000Y-77800000D03*
X114000000Y-79200000D03*
X113000000Y-77800000D03*
X113000000Y-79200000D03*
D10*
G36*
X116112403Y-75061418D02*
G01*
X116161066Y-75093934D01*
X116193582Y-75142597D01*
X116205000Y-75200000D01*
X116205000Y-76525000D01*
X116193582Y-76582403D01*
X116161066Y-76631066D01*
X116112403Y-76663582D01*
X116055000Y-76675000D01*
X115755000Y-76675000D01*
X115697597Y-76663582D01*
X115648934Y-76631066D01*
X115616418Y-76582403D01*
X115605000Y-76525000D01*
X115605000Y-75200000D01*
X115616418Y-75142597D01*
X115648934Y-75093934D01*
X115697597Y-75061418D01*
X115755000Y-75050000D01*
X116055000Y-75050000D01*
X116112403Y-75061418D01*
X116112403Y-75061418D01*
G37*
D14*
X115905000Y-75862500D03*
D10*
G36*
X114842403Y-75061418D02*
G01*
X114891066Y-75093934D01*
X114923582Y-75142597D01*
X114935000Y-75200000D01*
X114935000Y-76525000D01*
X114923582Y-76582403D01*
X114891066Y-76631066D01*
X114842403Y-76663582D01*
X114785000Y-76675000D01*
X114485000Y-76675000D01*
X114427597Y-76663582D01*
X114378934Y-76631066D01*
X114346418Y-76582403D01*
X114335000Y-76525000D01*
X114335000Y-75200000D01*
X114346418Y-75142597D01*
X114378934Y-75093934D01*
X114427597Y-75061418D01*
X114485000Y-75050000D01*
X114785000Y-75050000D01*
X114842403Y-75061418D01*
X114842403Y-75061418D01*
G37*
D14*
X114635000Y-75862500D03*
D10*
G36*
X113572403Y-75061418D02*
G01*
X113621066Y-75093934D01*
X113653582Y-75142597D01*
X113665000Y-75200000D01*
X113665000Y-76525000D01*
X113653582Y-76582403D01*
X113621066Y-76631066D01*
X113572403Y-76663582D01*
X113515000Y-76675000D01*
X113215000Y-76675000D01*
X113157597Y-76663582D01*
X113108934Y-76631066D01*
X113076418Y-76582403D01*
X113065000Y-76525000D01*
X113065000Y-75200000D01*
X113076418Y-75142597D01*
X113108934Y-75093934D01*
X113157597Y-75061418D01*
X113215000Y-75050000D01*
X113515000Y-75050000D01*
X113572403Y-75061418D01*
X113572403Y-75061418D01*
G37*
D14*
X113365000Y-75862500D03*
D10*
G36*
X112302403Y-75061418D02*
G01*
X112351066Y-75093934D01*
X112383582Y-75142597D01*
X112395000Y-75200000D01*
X112395000Y-76525000D01*
X112383582Y-76582403D01*
X112351066Y-76631066D01*
X112302403Y-76663582D01*
X112245000Y-76675000D01*
X111945000Y-76675000D01*
X111887597Y-76663582D01*
X111838934Y-76631066D01*
X111806418Y-76582403D01*
X111795000Y-76525000D01*
X111795000Y-75200000D01*
X111806418Y-75142597D01*
X111838934Y-75093934D01*
X111887597Y-75061418D01*
X111945000Y-75050000D01*
X112245000Y-75050000D01*
X112302403Y-75061418D01*
X112302403Y-75061418D01*
G37*
D14*
X112095000Y-75862500D03*
D10*
G36*
X112302403Y-80336418D02*
G01*
X112351066Y-80368934D01*
X112383582Y-80417597D01*
X112395000Y-80475000D01*
X112395000Y-81800000D01*
X112383582Y-81857403D01*
X112351066Y-81906066D01*
X112302403Y-81938582D01*
X112245000Y-81950000D01*
X111945000Y-81950000D01*
X111887597Y-81938582D01*
X111838934Y-81906066D01*
X111806418Y-81857403D01*
X111795000Y-81800000D01*
X111795000Y-80475000D01*
X111806418Y-80417597D01*
X111838934Y-80368934D01*
X111887597Y-80336418D01*
X111945000Y-80325000D01*
X112245000Y-80325000D01*
X112302403Y-80336418D01*
X112302403Y-80336418D01*
G37*
D14*
X112095000Y-81137500D03*
D10*
G36*
X113572403Y-80336418D02*
G01*
X113621066Y-80368934D01*
X113653582Y-80417597D01*
X113665000Y-80475000D01*
X113665000Y-81800000D01*
X113653582Y-81857403D01*
X113621066Y-81906066D01*
X113572403Y-81938582D01*
X113515000Y-81950000D01*
X113215000Y-81950000D01*
X113157597Y-81938582D01*
X113108934Y-81906066D01*
X113076418Y-81857403D01*
X113065000Y-81800000D01*
X113065000Y-80475000D01*
X113076418Y-80417597D01*
X113108934Y-80368934D01*
X113157597Y-80336418D01*
X113215000Y-80325000D01*
X113515000Y-80325000D01*
X113572403Y-80336418D01*
X113572403Y-80336418D01*
G37*
D14*
X113365000Y-81137500D03*
D10*
G36*
X114842403Y-80336418D02*
G01*
X114891066Y-80368934D01*
X114923582Y-80417597D01*
X114935000Y-80475000D01*
X114935000Y-81800000D01*
X114923582Y-81857403D01*
X114891066Y-81906066D01*
X114842403Y-81938582D01*
X114785000Y-81950000D01*
X114485000Y-81950000D01*
X114427597Y-81938582D01*
X114378934Y-81906066D01*
X114346418Y-81857403D01*
X114335000Y-81800000D01*
X114335000Y-80475000D01*
X114346418Y-80417597D01*
X114378934Y-80368934D01*
X114427597Y-80336418D01*
X114485000Y-80325000D01*
X114785000Y-80325000D01*
X114842403Y-80336418D01*
X114842403Y-80336418D01*
G37*
D14*
X114635000Y-81137500D03*
D10*
G36*
X116112403Y-80336418D02*
G01*
X116161066Y-80368934D01*
X116193582Y-80417597D01*
X116205000Y-80475000D01*
X116205000Y-81800000D01*
X116193582Y-81857403D01*
X116161066Y-81906066D01*
X116112403Y-81938582D01*
X116055000Y-81950000D01*
X115755000Y-81950000D01*
X115697597Y-81938582D01*
X115648934Y-81906066D01*
X115616418Y-81857403D01*
X115605000Y-81800000D01*
X115605000Y-80475000D01*
X115616418Y-80417597D01*
X115648934Y-80368934D01*
X115697597Y-80336418D01*
X115755000Y-80325000D01*
X116055000Y-80325000D01*
X116112403Y-80336418D01*
X116112403Y-80336418D01*
G37*
D14*
X115905000Y-81137500D03*
D10*
G36*
X112339962Y-71991651D02*
G01*
X112410930Y-72039070D01*
X112458349Y-72110038D01*
X112475000Y-72193750D01*
X112475000Y-72631250D01*
X112458349Y-72714962D01*
X112410930Y-72785930D01*
X112339962Y-72833349D01*
X112256250Y-72850000D01*
X111743750Y-72850000D01*
X111660038Y-72833349D01*
X111589070Y-72785930D01*
X111541651Y-72714962D01*
X111525000Y-72631250D01*
X111525000Y-72193750D01*
X111541651Y-72110038D01*
X111589070Y-72039070D01*
X111660038Y-71991651D01*
X111743750Y-71975000D01*
X112256250Y-71975000D01*
X112339962Y-71991651D01*
X112339962Y-71991651D01*
G37*
D15*
X112000000Y-72412500D03*
D10*
G36*
X112339962Y-73566651D02*
G01*
X112410930Y-73614070D01*
X112458349Y-73685038D01*
X112475000Y-73768750D01*
X112475000Y-74206250D01*
X112458349Y-74289962D01*
X112410930Y-74360930D01*
X112339962Y-74408349D01*
X112256250Y-74425000D01*
X111743750Y-74425000D01*
X111660038Y-74408349D01*
X111589070Y-74360930D01*
X111541651Y-74289962D01*
X111525000Y-74206250D01*
X111525000Y-73768750D01*
X111541651Y-73685038D01*
X111589070Y-73614070D01*
X111660038Y-73566651D01*
X111743750Y-73550000D01*
X112256250Y-73550000D01*
X112339962Y-73566651D01*
X112339962Y-73566651D01*
G37*
D15*
X112000000Y-73987500D03*
D10*
G36*
X112339962Y-70566651D02*
G01*
X112410930Y-70614070D01*
X112458349Y-70685038D01*
X112475000Y-70768750D01*
X112475000Y-71206250D01*
X112458349Y-71289962D01*
X112410930Y-71360930D01*
X112339962Y-71408349D01*
X112256250Y-71425000D01*
X111743750Y-71425000D01*
X111660038Y-71408349D01*
X111589070Y-71360930D01*
X111541651Y-71289962D01*
X111525000Y-71206250D01*
X111525000Y-70768750D01*
X111541651Y-70685038D01*
X111589070Y-70614070D01*
X111660038Y-70566651D01*
X111743750Y-70550000D01*
X112256250Y-70550000D01*
X112339962Y-70566651D01*
X112339962Y-70566651D01*
G37*
D15*
X112000000Y-70987500D03*
D10*
G36*
X112339962Y-68991651D02*
G01*
X112410930Y-69039070D01*
X112458349Y-69110038D01*
X112475000Y-69193750D01*
X112475000Y-69631250D01*
X112458349Y-69714962D01*
X112410930Y-69785930D01*
X112339962Y-69833349D01*
X112256250Y-69850000D01*
X111743750Y-69850000D01*
X111660038Y-69833349D01*
X111589070Y-69785930D01*
X111541651Y-69714962D01*
X111525000Y-69631250D01*
X111525000Y-69193750D01*
X111541651Y-69110038D01*
X111589070Y-69039070D01*
X111660038Y-68991651D01*
X111743750Y-68975000D01*
X112256250Y-68975000D01*
X112339962Y-68991651D01*
X112339962Y-68991651D01*
G37*
D15*
X112000000Y-69412500D03*
D10*
G36*
X113839962Y-68991651D02*
G01*
X113910930Y-69039070D01*
X113958349Y-69110038D01*
X113975000Y-69193750D01*
X113975000Y-69631250D01*
X113958349Y-69714962D01*
X113910930Y-69785930D01*
X113839962Y-69833349D01*
X113756250Y-69850000D01*
X113243750Y-69850000D01*
X113160038Y-69833349D01*
X113089070Y-69785930D01*
X113041651Y-69714962D01*
X113025000Y-69631250D01*
X113025000Y-69193750D01*
X113041651Y-69110038D01*
X113089070Y-69039070D01*
X113160038Y-68991651D01*
X113243750Y-68975000D01*
X113756250Y-68975000D01*
X113839962Y-68991651D01*
X113839962Y-68991651D01*
G37*
D15*
X113500000Y-69412500D03*
D10*
G36*
X113839962Y-70566651D02*
G01*
X113910930Y-70614070D01*
X113958349Y-70685038D01*
X113975000Y-70768750D01*
X113975000Y-71206250D01*
X113958349Y-71289962D01*
X113910930Y-71360930D01*
X113839962Y-71408349D01*
X113756250Y-71425000D01*
X113243750Y-71425000D01*
X113160038Y-71408349D01*
X113089070Y-71360930D01*
X113041651Y-71289962D01*
X113025000Y-71206250D01*
X113025000Y-70768750D01*
X113041651Y-70685038D01*
X113089070Y-70614070D01*
X113160038Y-70566651D01*
X113243750Y-70550000D01*
X113756250Y-70550000D01*
X113839962Y-70566651D01*
X113839962Y-70566651D01*
G37*
D15*
X113500000Y-70987500D03*
D10*
G36*
X111414962Y-82541651D02*
G01*
X111485930Y-82589070D01*
X111533349Y-82660038D01*
X111550000Y-82743750D01*
X111550000Y-83256250D01*
X111533349Y-83339962D01*
X111485930Y-83410930D01*
X111414962Y-83458349D01*
X111331250Y-83475000D01*
X110893750Y-83475000D01*
X110810038Y-83458349D01*
X110739070Y-83410930D01*
X110691651Y-83339962D01*
X110675000Y-83256250D01*
X110675000Y-82743750D01*
X110691651Y-82660038D01*
X110739070Y-82589070D01*
X110810038Y-82541651D01*
X110893750Y-82525000D01*
X111331250Y-82525000D01*
X111414962Y-82541651D01*
X111414962Y-82541651D01*
G37*
D15*
X111112500Y-83000000D03*
D10*
G36*
X112989962Y-82541651D02*
G01*
X113060930Y-82589070D01*
X113108349Y-82660038D01*
X113125000Y-82743750D01*
X113125000Y-83256250D01*
X113108349Y-83339962D01*
X113060930Y-83410930D01*
X112989962Y-83458349D01*
X112906250Y-83475000D01*
X112468750Y-83475000D01*
X112385038Y-83458349D01*
X112314070Y-83410930D01*
X112266651Y-83339962D01*
X112250000Y-83256250D01*
X112250000Y-82743750D01*
X112266651Y-82660038D01*
X112314070Y-82589070D01*
X112385038Y-82541651D01*
X112468750Y-82525000D01*
X112906250Y-82525000D01*
X112989962Y-82541651D01*
X112989962Y-82541651D01*
G37*
D15*
X112687500Y-83000000D03*
D16*
X128750000Y-73000000D03*
X118850000Y-73000000D03*
D17*
X120300000Y-85200000D03*
X120300000Y-81200000D03*
D10*
G36*
X126199529Y-84218554D02*
G01*
X126278607Y-84271393D01*
X126331446Y-84350471D01*
X126350000Y-84443750D01*
X126350000Y-85356250D01*
X126331446Y-85449529D01*
X126278607Y-85528607D01*
X126199529Y-85581446D01*
X126106250Y-85600000D01*
X125618750Y-85600000D01*
X125525471Y-85581446D01*
X125446393Y-85528607D01*
X125393554Y-85449529D01*
X125375000Y-85356250D01*
X125375000Y-84443750D01*
X125393554Y-84350471D01*
X125446393Y-84271393D01*
X125525471Y-84218554D01*
X125618750Y-84200000D01*
X126106250Y-84200000D01*
X126199529Y-84218554D01*
X126199529Y-84218554D01*
G37*
D11*
X125862500Y-84900000D03*
D10*
G36*
X128074529Y-84218554D02*
G01*
X128153607Y-84271393D01*
X128206446Y-84350471D01*
X128225000Y-84443750D01*
X128225000Y-85356250D01*
X128206446Y-85449529D01*
X128153607Y-85528607D01*
X128074529Y-85581446D01*
X127981250Y-85600000D01*
X127493750Y-85600000D01*
X127400471Y-85581446D01*
X127321393Y-85528607D01*
X127268554Y-85449529D01*
X127250000Y-85356250D01*
X127250000Y-84443750D01*
X127268554Y-84350471D01*
X127321393Y-84271393D01*
X127400471Y-84218554D01*
X127493750Y-84200000D01*
X127981250Y-84200000D01*
X128074529Y-84218554D01*
X128074529Y-84218554D01*
G37*
D11*
X127737500Y-84900000D03*
D10*
G36*
X113839962Y-71991651D02*
G01*
X113910930Y-72039070D01*
X113958349Y-72110038D01*
X113975000Y-72193750D01*
X113975000Y-72631250D01*
X113958349Y-72714962D01*
X113910930Y-72785930D01*
X113839962Y-72833349D01*
X113756250Y-72850000D01*
X113243750Y-72850000D01*
X113160038Y-72833349D01*
X113089070Y-72785930D01*
X113041651Y-72714962D01*
X113025000Y-72631250D01*
X113025000Y-72193750D01*
X113041651Y-72110038D01*
X113089070Y-72039070D01*
X113160038Y-71991651D01*
X113243750Y-71975000D01*
X113756250Y-71975000D01*
X113839962Y-71991651D01*
X113839962Y-71991651D01*
G37*
D15*
X113500000Y-72412500D03*
D10*
G36*
X113839962Y-73566651D02*
G01*
X113910930Y-73614070D01*
X113958349Y-73685038D01*
X113975000Y-73768750D01*
X113975000Y-74206250D01*
X113958349Y-74289962D01*
X113910930Y-74360930D01*
X113839962Y-74408349D01*
X113756250Y-74425000D01*
X113243750Y-74425000D01*
X113160038Y-74408349D01*
X113089070Y-74360930D01*
X113041651Y-74289962D01*
X113025000Y-74206250D01*
X113025000Y-73768750D01*
X113041651Y-73685038D01*
X113089070Y-73614070D01*
X113160038Y-73566651D01*
X113243750Y-73550000D01*
X113756250Y-73550000D01*
X113839962Y-73566651D01*
X113839962Y-73566651D01*
G37*
D15*
X113500000Y-73987500D03*
D10*
G36*
X118039962Y-81566651D02*
G01*
X118110930Y-81614070D01*
X118158349Y-81685038D01*
X118175000Y-81768750D01*
X118175000Y-82206250D01*
X118158349Y-82289962D01*
X118110930Y-82360930D01*
X118039962Y-82408349D01*
X117956250Y-82425000D01*
X117443750Y-82425000D01*
X117360038Y-82408349D01*
X117289070Y-82360930D01*
X117241651Y-82289962D01*
X117225000Y-82206250D01*
X117225000Y-81768750D01*
X117241651Y-81685038D01*
X117289070Y-81614070D01*
X117360038Y-81566651D01*
X117443750Y-81550000D01*
X117956250Y-81550000D01*
X118039962Y-81566651D01*
X118039962Y-81566651D01*
G37*
D15*
X117700000Y-81987500D03*
D10*
G36*
X118039962Y-79991651D02*
G01*
X118110930Y-80039070D01*
X118158349Y-80110038D01*
X118175000Y-80193750D01*
X118175000Y-80631250D01*
X118158349Y-80714962D01*
X118110930Y-80785930D01*
X118039962Y-80833349D01*
X117956250Y-80850000D01*
X117443750Y-80850000D01*
X117360038Y-80833349D01*
X117289070Y-80785930D01*
X117241651Y-80714962D01*
X117225000Y-80631250D01*
X117225000Y-80193750D01*
X117241651Y-80110038D01*
X117289070Y-80039070D01*
X117360038Y-79991651D01*
X117443750Y-79975000D01*
X117956250Y-79975000D01*
X118039962Y-79991651D01*
X118039962Y-79991651D01*
G37*
D15*
X117700000Y-80412500D03*
D10*
G36*
X117470671Y-84144030D02*
G01*
X117551777Y-84198223D01*
X117605970Y-84279329D01*
X117625000Y-84375000D01*
X117625000Y-85625000D01*
X117605970Y-85720671D01*
X117551777Y-85801777D01*
X117470671Y-85855970D01*
X117375000Y-85875000D01*
X116625000Y-85875000D01*
X116529329Y-85855970D01*
X116448223Y-85801777D01*
X116394030Y-85720671D01*
X116375000Y-85625000D01*
X116375000Y-84375000D01*
X116394030Y-84279329D01*
X116448223Y-84198223D01*
X116529329Y-84144030D01*
X116625000Y-84125000D01*
X117375000Y-84125000D01*
X117470671Y-84144030D01*
X117470671Y-84144030D01*
G37*
D18*
X117000000Y-85000000D03*
D10*
G36*
X114670671Y-84144030D02*
G01*
X114751777Y-84198223D01*
X114805970Y-84279329D01*
X114825000Y-84375000D01*
X114825000Y-85625000D01*
X114805970Y-85720671D01*
X114751777Y-85801777D01*
X114670671Y-85855970D01*
X114575000Y-85875000D01*
X113825000Y-85875000D01*
X113729329Y-85855970D01*
X113648223Y-85801777D01*
X113594030Y-85720671D01*
X113575000Y-85625000D01*
X113575000Y-84375000D01*
X113594030Y-84279329D01*
X113648223Y-84198223D01*
X113729329Y-84144030D01*
X113825000Y-84125000D01*
X114575000Y-84125000D01*
X114670671Y-84144030D01*
X114670671Y-84144030D01*
G37*
D18*
X114200000Y-85000000D03*
D19*
X111250000Y-77500000D03*
X111250000Y-78250000D03*
X111250000Y-79000000D03*
X111250000Y-79750000D03*
X110500000Y-79750000D03*
X109750000Y-79750000D03*
X109750000Y-79000000D03*
X109750000Y-78250000D03*
X109750000Y-77500000D03*
X110500000Y-77500000D03*
X110500000Y-78250000D03*
X110500000Y-79000000D03*
X112000000Y-77500000D03*
X112000000Y-78250000D03*
X112000000Y-79000000D03*
X112000000Y-79750000D03*
X124750000Y-84250000D03*
X124750000Y-85000000D03*
X124750000Y-85750000D03*
X118250000Y-84250000D03*
X118250000Y-85000000D03*
X118250000Y-85750000D03*
X119250000Y-83500000D03*
X120000000Y-83500000D03*
X120750000Y-83500000D03*
X121500000Y-83500000D03*
X111250000Y-69500000D03*
X127750000Y-86500000D03*
X115750000Y-83250000D03*
X116500000Y-83250000D03*
X117250000Y-83250000D03*
X118000000Y-83250000D03*
X124750000Y-83500000D03*
X125500000Y-83500000D03*
X126250000Y-83500000D03*
D20*
X113365000Y-81137500D02*
X113365000Y-82322500D01*
X113365000Y-82322500D02*
X112687500Y-83000000D01*
X112095000Y-74082500D02*
X112000000Y-73987500D01*
X112095000Y-75862500D02*
X112095000Y-74082500D01*
X113500000Y-75727500D02*
X113365000Y-75862500D01*
X113500000Y-73987500D02*
X113500000Y-75727500D01*
X113500000Y-70987500D02*
X113500000Y-72412500D01*
D21*
X112457904Y-73529596D02*
X112000000Y-73987500D01*
X112703610Y-71691110D02*
X112703610Y-73283890D01*
X112703610Y-73283890D02*
X112457904Y-73529596D01*
X112000000Y-70987500D02*
X112703610Y-71691110D01*
D22*
X116275710Y-81508210D02*
X116275710Y-81675710D01*
X115905000Y-81137500D02*
X116275710Y-81508210D01*
X116587500Y-81987500D02*
X117700000Y-81987500D01*
X116275710Y-81675710D02*
X116587500Y-81987500D01*
X112000000Y-69412500D02*
X111337500Y-69412500D01*
X111337500Y-69412500D02*
X111250000Y-69500000D01*
G36*
X126124000Y-82876000D02*
G01*
X126674000Y-82876000D01*
X126674000Y-86721600D01*
X115478400Y-86721600D01*
X115478400Y-82125512D01*
X115590785Y-82200605D01*
X115745528Y-82231386D01*
X116064472Y-82231386D01*
X116219215Y-82200605D01*
X116224052Y-82197373D01*
X116251951Y-82225273D01*
X116262074Y-82246354D01*
X116316795Y-82290116D01*
X116333144Y-82306466D01*
X116352271Y-82318487D01*
X116406565Y-82361908D01*
X116429834Y-82367238D01*
X116450065Y-82379953D01*
X116519746Y-82387830D01*
X116541883Y-82392900D01*
X116564593Y-82392900D01*
X116633851Y-82400730D01*
X116656273Y-82392900D01*
X116874000Y-82392900D01*
X116874000Y-82926000D01*
X118250917Y-82926000D01*
X118255050Y-82941423D01*
X118358577Y-83044950D01*
X118483412Y-83078400D01*
X122016588Y-83078400D01*
X122141423Y-83044950D01*
X122244950Y-82941423D01*
X122249083Y-82926000D01*
X124626000Y-82926000D01*
X124626000Y-80376000D01*
X126124000Y-80376000D01*
X126124000Y-82876000D01*
X126124000Y-82876000D01*
G37*
X126124000Y-82876000D02*
X126674000Y-82876000D01*
X126674000Y-86721600D01*
X115478400Y-86721600D01*
X115478400Y-82125512D01*
X115590785Y-82200605D01*
X115745528Y-82231386D01*
X116064472Y-82231386D01*
X116219215Y-82200605D01*
X116224052Y-82197373D01*
X116251951Y-82225273D01*
X116262074Y-82246354D01*
X116316795Y-82290116D01*
X116333144Y-82306466D01*
X116352271Y-82318487D01*
X116406565Y-82361908D01*
X116429834Y-82367238D01*
X116450065Y-82379953D01*
X116519746Y-82387830D01*
X116541883Y-82392900D01*
X116564593Y-82392900D01*
X116633851Y-82400730D01*
X116656273Y-82392900D01*
X116874000Y-82392900D01*
X116874000Y-82926000D01*
X118250917Y-82926000D01*
X118255050Y-82941423D01*
X118358577Y-83044950D01*
X118483412Y-83078400D01*
X122016588Y-83078400D01*
X122141423Y-83044950D01*
X122244950Y-82941423D01*
X122249083Y-82926000D01*
X124626000Y-82926000D01*
X124626000Y-80376000D01*
X126124000Y-80376000D01*
X126124000Y-82876000D01*
G36*
X108778400Y-68376000D02*
G01*
X115121600Y-68376000D01*
X115121600Y-74939994D01*
X115090921Y-74894079D01*
X114949215Y-74799395D01*
X114794472Y-74768614D01*
X114475528Y-74768614D01*
X114320785Y-74799395D01*
X114179079Y-74894079D01*
X114084395Y-75035785D01*
X114053614Y-75190528D01*
X114053614Y-76534472D01*
X114084395Y-76689215D01*
X114179079Y-76830921D01*
X114320785Y-76925605D01*
X114475528Y-76956386D01*
X114794472Y-76956386D01*
X114949215Y-76925605D01*
X115090921Y-76830921D01*
X115121600Y-76785006D01*
X115121600Y-76916588D01*
X115155050Y-77041423D01*
X115258577Y-77144950D01*
X115383412Y-77178400D01*
X116421600Y-77178400D01*
X116421600Y-80259892D01*
X116360921Y-80169079D01*
X116219215Y-80074395D01*
X116064472Y-80043614D01*
X115745528Y-80043614D01*
X115590785Y-80074395D01*
X115478400Y-80149488D01*
X115478400Y-79983412D01*
X115444950Y-79858577D01*
X115341423Y-79755050D01*
X115216588Y-79721600D01*
X113983412Y-79721600D01*
X113858577Y-79755050D01*
X113755050Y-79858577D01*
X113721600Y-79983412D01*
X113721600Y-80102715D01*
X113679215Y-80074395D01*
X113524472Y-80043614D01*
X113205528Y-80043614D01*
X113050785Y-80074395D01*
X112909079Y-80169079D01*
X112814395Y-80310785D01*
X112783614Y-80465528D01*
X112783614Y-81809472D01*
X112814395Y-81964215D01*
X112909079Y-82105921D01*
X112961601Y-82141014D01*
X112961601Y-82155405D01*
X112873393Y-82243614D01*
X112460625Y-82243614D01*
X112279057Y-82279731D01*
X112114610Y-82389610D01*
X112004731Y-82554057D01*
X111968614Y-82735625D01*
X111968614Y-83264375D01*
X112004731Y-83445943D01*
X112114610Y-83610390D01*
X112131387Y-83621600D01*
X108778400Y-83621600D01*
X108778400Y-73760625D01*
X111243614Y-73760625D01*
X111243614Y-74214375D01*
X111279731Y-74395943D01*
X111389610Y-74560390D01*
X111554057Y-74670269D01*
X111691601Y-74697629D01*
X111691601Y-74858986D01*
X111639079Y-74894079D01*
X111544395Y-75035785D01*
X111513614Y-75190528D01*
X111513614Y-76534472D01*
X111544395Y-76689215D01*
X111639079Y-76830921D01*
X111780785Y-76925605D01*
X111935528Y-76956386D01*
X112254472Y-76956386D01*
X112409215Y-76925605D01*
X112550921Y-76830921D01*
X112645605Y-76689215D01*
X112676386Y-76534472D01*
X112676386Y-75190528D01*
X112645605Y-75035785D01*
X112550921Y-74894079D01*
X112498400Y-74858986D01*
X112498400Y-74635219D01*
X112610390Y-74560390D01*
X112720269Y-74395943D01*
X112750000Y-74246479D01*
X112779731Y-74395943D01*
X112889610Y-74560390D01*
X113054057Y-74670269D01*
X113096600Y-74678732D01*
X113096601Y-74790281D01*
X113050785Y-74799395D01*
X112909079Y-74894079D01*
X112814395Y-75035785D01*
X112783614Y-75190528D01*
X112783614Y-76534472D01*
X112814395Y-76689215D01*
X112909079Y-76830921D01*
X113050785Y-76925605D01*
X113205528Y-76956386D01*
X113524472Y-76956386D01*
X113679215Y-76925605D01*
X113820921Y-76830921D01*
X113915605Y-76689215D01*
X113946386Y-76534472D01*
X113946386Y-75190528D01*
X113915605Y-75035785D01*
X113903400Y-75017519D01*
X113903400Y-74678732D01*
X113945943Y-74670269D01*
X114110390Y-74560390D01*
X114220269Y-74395943D01*
X114256386Y-74214375D01*
X114256386Y-73760625D01*
X114220269Y-73579057D01*
X114110390Y-73414610D01*
X113945943Y-73304731D01*
X113764375Y-73268614D01*
X113235625Y-73268614D01*
X113058210Y-73303905D01*
X113058210Y-73096095D01*
X113235625Y-73131386D01*
X113764375Y-73131386D01*
X113945943Y-73095269D01*
X114110390Y-72985390D01*
X114220269Y-72820943D01*
X114256386Y-72639375D01*
X114256386Y-72185625D01*
X114220269Y-72004057D01*
X114110390Y-71839610D01*
X113945943Y-71729731D01*
X113903400Y-71721268D01*
X113903400Y-71678732D01*
X113945943Y-71670269D01*
X114110390Y-71560390D01*
X114220269Y-71395943D01*
X114256386Y-71214375D01*
X114256386Y-70760625D01*
X114220269Y-70579057D01*
X114110390Y-70414610D01*
X113945943Y-70304731D01*
X113764375Y-70268614D01*
X113235625Y-70268614D01*
X113054057Y-70304731D01*
X112889610Y-70414610D01*
X112779731Y-70579057D01*
X112750000Y-70728521D01*
X112720269Y-70579057D01*
X112610390Y-70414610D01*
X112445943Y-70304731D01*
X112264375Y-70268614D01*
X111735625Y-70268614D01*
X111554057Y-70304731D01*
X111389610Y-70414610D01*
X111279731Y-70579057D01*
X111243614Y-70760625D01*
X111243614Y-71214375D01*
X111279731Y-71395943D01*
X111389610Y-71560390D01*
X111554057Y-71670269D01*
X111735625Y-71706386D01*
X112217406Y-71706386D01*
X112349010Y-71837990D01*
X112349011Y-73137009D01*
X112242904Y-73243117D01*
X112242902Y-73243118D01*
X112217406Y-73268614D01*
X111735625Y-73268614D01*
X111554057Y-73304731D01*
X111389610Y-73414610D01*
X111279731Y-73579057D01*
X111243614Y-73760625D01*
X108778400Y-73760625D01*
X108778400Y-70760625D01*
X108778400Y-69605436D01*
X110717508Y-69605436D01*
X110798391Y-69801186D01*
X110948027Y-69951084D01*
X111143635Y-70032306D01*
X111355436Y-70032492D01*
X111420110Y-70005769D01*
X111554057Y-70095269D01*
X111735625Y-70131386D01*
X112264375Y-70131386D01*
X112445943Y-70095269D01*
X112610390Y-69985390D01*
X112720269Y-69820943D01*
X112756386Y-69639375D01*
X112756386Y-69185625D01*
X112720269Y-69004057D01*
X112610390Y-68839610D01*
X112445943Y-68729731D01*
X112264375Y-68693614D01*
X111735625Y-68693614D01*
X111554057Y-68729731D01*
X111389610Y-68839610D01*
X111304058Y-68967648D01*
X111144564Y-68967508D01*
X110948814Y-69048391D01*
X110798916Y-69198027D01*
X110717694Y-69393635D01*
X110717508Y-69605436D01*
X108778400Y-69605436D01*
X108778400Y-68376000D01*
X108778400Y-68376000D01*
G37*
X108778400Y-68376000D02*
X115121600Y-68376000D01*
X115121600Y-74939994D01*
X115090921Y-74894079D01*
X114949215Y-74799395D01*
X114794472Y-74768614D01*
X114475528Y-74768614D01*
X114320785Y-74799395D01*
X114179079Y-74894079D01*
X114084395Y-75035785D01*
X114053614Y-75190528D01*
X114053614Y-76534472D01*
X114084395Y-76689215D01*
X114179079Y-76830921D01*
X114320785Y-76925605D01*
X114475528Y-76956386D01*
X114794472Y-76956386D01*
X114949215Y-76925605D01*
X115090921Y-76830921D01*
X115121600Y-76785006D01*
X115121600Y-76916588D01*
X115155050Y-77041423D01*
X115258577Y-77144950D01*
X115383412Y-77178400D01*
X116421600Y-77178400D01*
X116421600Y-80259892D01*
X116360921Y-80169079D01*
X116219215Y-80074395D01*
X116064472Y-80043614D01*
X115745528Y-80043614D01*
X115590785Y-80074395D01*
X115478400Y-80149488D01*
X115478400Y-79983412D01*
X115444950Y-79858577D01*
X115341423Y-79755050D01*
X115216588Y-79721600D01*
X113983412Y-79721600D01*
X113858577Y-79755050D01*
X113755050Y-79858577D01*
X113721600Y-79983412D01*
X113721600Y-80102715D01*
X113679215Y-80074395D01*
X113524472Y-80043614D01*
X113205528Y-80043614D01*
X113050785Y-80074395D01*
X112909079Y-80169079D01*
X112814395Y-80310785D01*
X112783614Y-80465528D01*
X112783614Y-81809472D01*
X112814395Y-81964215D01*
X112909079Y-82105921D01*
X112961601Y-82141014D01*
X112961601Y-82155405D01*
X112873393Y-82243614D01*
X112460625Y-82243614D01*
X112279057Y-82279731D01*
X112114610Y-82389610D01*
X112004731Y-82554057D01*
X111968614Y-82735625D01*
X111968614Y-83264375D01*
X112004731Y-83445943D01*
X112114610Y-83610390D01*
X112131387Y-83621600D01*
X108778400Y-83621600D01*
X108778400Y-73760625D01*
X111243614Y-73760625D01*
X111243614Y-74214375D01*
X111279731Y-74395943D01*
X111389610Y-74560390D01*
X111554057Y-74670269D01*
X111691601Y-74697629D01*
X111691601Y-74858986D01*
X111639079Y-74894079D01*
X111544395Y-75035785D01*
X111513614Y-75190528D01*
X111513614Y-76534472D01*
X111544395Y-76689215D01*
X111639079Y-76830921D01*
X111780785Y-76925605D01*
X111935528Y-76956386D01*
X112254472Y-76956386D01*
X112409215Y-76925605D01*
X112550921Y-76830921D01*
X112645605Y-76689215D01*
X112676386Y-76534472D01*
X112676386Y-75190528D01*
X112645605Y-75035785D01*
X112550921Y-74894079D01*
X112498400Y-74858986D01*
X112498400Y-74635219D01*
X112610390Y-74560390D01*
X112720269Y-74395943D01*
X112750000Y-74246479D01*
X112779731Y-74395943D01*
X112889610Y-74560390D01*
X113054057Y-74670269D01*
X113096600Y-74678732D01*
X113096601Y-74790281D01*
X113050785Y-74799395D01*
X112909079Y-74894079D01*
X112814395Y-75035785D01*
X112783614Y-75190528D01*
X112783614Y-76534472D01*
X112814395Y-76689215D01*
X112909079Y-76830921D01*
X113050785Y-76925605D01*
X113205528Y-76956386D01*
X113524472Y-76956386D01*
X113679215Y-76925605D01*
X113820921Y-76830921D01*
X113915605Y-76689215D01*
X113946386Y-76534472D01*
X113946386Y-75190528D01*
X113915605Y-75035785D01*
X113903400Y-75017519D01*
X113903400Y-74678732D01*
X113945943Y-74670269D01*
X114110390Y-74560390D01*
X114220269Y-74395943D01*
X114256386Y-74214375D01*
X114256386Y-73760625D01*
X114220269Y-73579057D01*
X114110390Y-73414610D01*
X113945943Y-73304731D01*
X113764375Y-73268614D01*
X113235625Y-73268614D01*
X113058210Y-73303905D01*
X113058210Y-73096095D01*
X113235625Y-73131386D01*
X113764375Y-73131386D01*
X113945943Y-73095269D01*
X114110390Y-72985390D01*
X114220269Y-72820943D01*
X114256386Y-72639375D01*
X114256386Y-72185625D01*
X114220269Y-72004057D01*
X114110390Y-71839610D01*
X113945943Y-71729731D01*
X113903400Y-71721268D01*
X113903400Y-71678732D01*
X113945943Y-71670269D01*
X114110390Y-71560390D01*
X114220269Y-71395943D01*
X114256386Y-71214375D01*
X114256386Y-70760625D01*
X114220269Y-70579057D01*
X114110390Y-70414610D01*
X113945943Y-70304731D01*
X113764375Y-70268614D01*
X113235625Y-70268614D01*
X113054057Y-70304731D01*
X112889610Y-70414610D01*
X112779731Y-70579057D01*
X112750000Y-70728521D01*
X112720269Y-70579057D01*
X112610390Y-70414610D01*
X112445943Y-70304731D01*
X112264375Y-70268614D01*
X111735625Y-70268614D01*
X111554057Y-70304731D01*
X111389610Y-70414610D01*
X111279731Y-70579057D01*
X111243614Y-70760625D01*
X111243614Y-71214375D01*
X111279731Y-71395943D01*
X111389610Y-71560390D01*
X111554057Y-71670269D01*
X111735625Y-71706386D01*
X112217406Y-71706386D01*
X112349010Y-71837990D01*
X112349011Y-73137009D01*
X112242904Y-73243117D01*
X112242902Y-73243118D01*
X112217406Y-73268614D01*
X111735625Y-73268614D01*
X111554057Y-73304731D01*
X111389610Y-73414610D01*
X111279731Y-73579057D01*
X111243614Y-73760625D01*
X108778400Y-73760625D01*
X108778400Y-70760625D01*
X108778400Y-69605436D01*
X110717508Y-69605436D01*
X110798391Y-69801186D01*
X110948027Y-69951084D01*
X111143635Y-70032306D01*
X111355436Y-70032492D01*
X111420110Y-70005769D01*
X111554057Y-70095269D01*
X111735625Y-70131386D01*
X112264375Y-70131386D01*
X112445943Y-70095269D01*
X112610390Y-69985390D01*
X112720269Y-69820943D01*
X112756386Y-69639375D01*
X112756386Y-69185625D01*
X112720269Y-69004057D01*
X112610390Y-68839610D01*
X112445943Y-68729731D01*
X112264375Y-68693614D01*
X111735625Y-68693614D01*
X111554057Y-68729731D01*
X111389610Y-68839610D01*
X111304058Y-68967648D01*
X111144564Y-68967508D01*
X110948814Y-69048391D01*
X110798916Y-69198027D01*
X110717694Y-69393635D01*
X110717508Y-69605436D01*
X108778400Y-69605436D01*
X108778400Y-68376000D01*
D21*
G36*
X115124800Y-86724800D02*
G01*
X108727600Y-86724800D01*
X108727600Y-83975200D01*
X113248870Y-83975200D01*
X114075200Y-82115959D01*
X114075200Y-80075200D01*
X115124800Y-80075200D01*
X115124800Y-86724800D01*
X115124800Y-86724800D01*
G37*
X115124800Y-86724800D02*
X108727600Y-86724800D01*
X108727600Y-83975200D01*
X113248870Y-83975200D01*
X114075200Y-82115959D01*
X114075200Y-80075200D01*
X115124800Y-80075200D01*
X115124800Y-86724800D01*
D22*
G36*
X121874000Y-82674000D02*
G01*
X118626000Y-82674000D01*
X118626000Y-81074000D01*
X116826000Y-81074000D01*
X116826000Y-76774000D01*
X115526000Y-76774000D01*
X115526000Y-66526000D01*
X121874000Y-66526000D01*
X121874000Y-82674000D01*
X121874000Y-82674000D01*
G37*
X121874000Y-82674000D02*
X118626000Y-82674000D01*
X118626000Y-81074000D01*
X116826000Y-81074000D01*
X116826000Y-76774000D01*
X115526000Y-76774000D01*
X115526000Y-66526000D01*
X121874000Y-66526000D01*
X121874000Y-82674000D01*
G36*
X130721601Y-86721600D02*
G01*
X127126000Y-86721600D01*
X127126000Y-66278400D01*
X130721600Y-66278400D01*
X130721601Y-86721600D01*
X130721601Y-86721600D01*
G37*
X130721601Y-86721600D02*
X127126000Y-86721600D01*
X127126000Y-66278400D01*
X130721600Y-66278400D01*
X130721601Y-86721600D01*
M02*
