M48
; DRILL file {KiCad (5.1.0-1558-g0ba0c1724)} date Mon 25 Nov 2019 07:03:33 PM PST
; FORMAT={-:-/ absolute / metric / decimal}
; #@! TF.CreationDate,2019-11-25T19:03:33-08:00
; #@! TF.GenerationSoftware,Kicad,Pcbnew,(5.1.0-1558-g0ba0c1724)
; #@! TF.FileFunction,Plated,1,2,PTH
FMAT,2
METRIC
T1C0.200
T2C0.254
T3C0.400
%
G90
G05
T1
X113.0Y-77.8
X113.0Y-79.2
X114.0Y-77.8
X114.0Y-79.2
X115.0Y-77.8
X115.0Y-79.2
T2
X108.55Y-77.5
X108.55Y-78.25
X108.55Y-79.0
X108.55Y-79.75
X109.3Y-77.5
X109.3Y-78.25
X109.3Y-79.0
X109.3Y-79.75
X110.05Y-77.5
X110.05Y-78.25
X110.05Y-79.0
X110.05Y-79.75
X110.8Y-77.5
X110.8Y-78.25
X110.8Y-79.0
X110.8Y-79.75
X115.75Y-82.75
X115.75Y-83.5
X115.75Y-85.0
X116.5Y-83.5
X117.25Y-83.5
X118.0Y-83.5
X118.75Y-83.5
X118.75Y-84.5
X118.75Y-85.5
X119.75Y-83.5
X120.5Y-83.5
X121.25Y-83.5
X121.75Y-84.0
X121.75Y-85.5
X124.25Y-84.0
T3
X109.0Y-73.1
X125.223Y-80.9
T0
M30
