G04 #@! TF.GenerationSoftware,KiCad,Pcbnew,(5.1.0-1558-g0ba0c1724)*
G04 #@! TF.CreationDate,2019-11-25T17:22:07-08:00*
G04 #@! TF.ProjectId,MP-Power,4d502d50-6f77-4657-922e-6b696361645f,rev?*
G04 #@! TF.SameCoordinates,Original*
G04 #@! TF.FileFunction,Legend,Top*
G04 #@! TF.FilePolarity,Positive*
%FSLAX46Y46*%
G04 Gerber Fmt 4.6, Leading zero omitted, Abs format (unit mm)*
G04 Created by KiCad (PCBNEW (5.1.0-1558-g0ba0c1724)) date 2019-11-25 17:22:07*
%MOMM*%
%LPD*%
G04 APERTURE LIST*
%ADD10C,0.150000*%
%ADD11C,0.120000*%
G04 APERTURE END LIST*
D10*
X112797619Y-84476190D02*
X111797619Y-84809523D01*
X112797619Y-85142857D01*
X111797619Y-85476190D02*
X112464285Y-85476190D01*
X112797619Y-85476190D02*
X112750000Y-85428571D01*
X112702380Y-85476190D01*
X112750000Y-85523809D01*
X112797619Y-85476190D01*
X112702380Y-85476190D01*
X112464285Y-85952380D02*
X111797619Y-85952380D01*
X112369047Y-85952380D02*
X112416666Y-86000000D01*
X112464285Y-86095238D01*
X112464285Y-86238095D01*
X112416666Y-86333333D01*
X112321428Y-86380952D01*
X111797619Y-86380952D01*
X129452380Y-84690476D02*
X129452380Y-85166666D01*
X129928571Y-85214285D01*
X129880952Y-85166666D01*
X129833333Y-85071428D01*
X129833333Y-84833333D01*
X129880952Y-84738095D01*
X129928571Y-84690476D01*
X130023809Y-84642857D01*
X130261904Y-84642857D01*
X130357142Y-84690476D01*
X130404761Y-84738095D01*
X130452380Y-84833333D01*
X130452380Y-85071428D01*
X130404761Y-85166666D01*
X130357142Y-85214285D01*
X129452380Y-84357142D02*
X130452380Y-84023809D01*
X129452380Y-83690476D01*
X110000000Y-68488095D02*
X110047619Y-68392857D01*
X110047619Y-68250000D01*
X110000000Y-68107142D01*
X109904761Y-68011904D01*
X109809523Y-67964285D01*
X109619047Y-67916666D01*
X109476190Y-67916666D01*
X109285714Y-67964285D01*
X109190476Y-68011904D01*
X109095238Y-68107142D01*
X109047619Y-68250000D01*
X109047619Y-68345238D01*
X109095238Y-68488095D01*
X109142857Y-68535714D01*
X109476190Y-68535714D01*
X109476190Y-68345238D01*
X109047619Y-68964285D02*
X110047619Y-68964285D01*
X109047619Y-69535714D01*
X110047619Y-69535714D01*
X109047619Y-70011904D02*
X110047619Y-70011904D01*
X110047619Y-70250000D01*
X110000000Y-70392857D01*
X109904761Y-70488095D01*
X109809523Y-70535714D01*
X109619047Y-70583333D01*
X109476190Y-70583333D01*
X109285714Y-70535714D01*
X109190476Y-70488095D01*
X109095238Y-70392857D01*
X109047619Y-70250000D01*
X109047619Y-70011904D01*
X122988095Y-82250000D02*
X122892857Y-82202380D01*
X122750000Y-82202380D01*
X122607142Y-82250000D01*
X122511904Y-82345238D01*
X122464285Y-82440476D01*
X122416666Y-82630952D01*
X122416666Y-82773809D01*
X122464285Y-82964285D01*
X122511904Y-83059523D01*
X122607142Y-83154761D01*
X122750000Y-83202380D01*
X122845238Y-83202380D01*
X122988095Y-83154761D01*
X123035714Y-83107142D01*
X123035714Y-82773809D01*
X122845238Y-82773809D01*
X123464285Y-83202380D02*
X123464285Y-82202380D01*
X124035714Y-83202380D01*
X124035714Y-82202380D01*
X124511904Y-83202380D02*
X124511904Y-82202380D01*
X124750000Y-82202380D01*
X124892857Y-82250000D01*
X124988095Y-82345238D01*
X125035714Y-82440476D01*
X125083333Y-82630952D01*
X125083333Y-82773809D01*
X125035714Y-82964285D01*
X124988095Y-83059523D01*
X124892857Y-83154761D01*
X124750000Y-83202380D01*
X124511904Y-83202380D01*
D11*
X126508578Y-81960000D02*
X125991422Y-81960000D01*
X126508578Y-80540000D02*
X125991422Y-80540000D01*
X116560000Y-78500000D02*
X116560000Y-75050000D01*
X116560000Y-78500000D02*
X116560000Y-80450000D01*
X111440000Y-78500000D02*
X111440000Y-76550000D01*
X111440000Y-78500000D02*
X111440000Y-80450000D01*
X111490000Y-73362779D02*
X111490000Y-73037221D01*
X112510000Y-73362779D02*
X112510000Y-73037221D01*
X112510000Y-70037221D02*
X112510000Y-70362779D01*
X111490000Y-70037221D02*
X111490000Y-70362779D01*
X112990000Y-70362779D02*
X112990000Y-70037221D01*
X114010000Y-70362779D02*
X114010000Y-70037221D01*
X112062779Y-83510000D02*
X111737221Y-83510000D01*
X112062779Y-82490000D02*
X111737221Y-82490000D01*
X130100000Y-76300000D02*
X130100000Y-79300000D01*
X130100000Y-79300000D02*
X117500000Y-79300000D01*
X117500000Y-79300000D02*
X117500000Y-76300000D01*
X117500000Y-69700000D02*
X117500000Y-66700000D01*
X117500000Y-66700000D02*
X130100000Y-66700000D01*
X130100000Y-66700000D02*
X130100000Y-69700000D01*
X121950000Y-79800000D02*
X118650000Y-79800000D01*
X118650000Y-79800000D02*
X118650000Y-85200000D01*
X121950000Y-79800000D02*
X121950000Y-85200000D01*
X127058578Y-85610000D02*
X126541422Y-85610000D01*
X127058578Y-84190000D02*
X126541422Y-84190000D01*
X112990000Y-73362779D02*
X112990000Y-73037221D01*
X114010000Y-73362779D02*
X114010000Y-73037221D01*
X118210000Y-81037221D02*
X118210000Y-81362779D01*
X117190000Y-81037221D02*
X117190000Y-81362779D01*
X114997936Y-84090000D02*
X116202064Y-84090000D01*
X114997936Y-85910000D02*
X116202064Y-85910000D01*
M02*
