G04 #@! TF.GenerationSoftware,KiCad,Pcbnew,(5.1.0-1558-g0ba0c1724)*
G04 #@! TF.CreationDate,2019-11-25T19:03:30-08:00*
G04 #@! TF.ProjectId,MP-Power,4d502d50-6f77-4657-922e-6b696361645f,rev?*
G04 #@! TF.SameCoordinates,Original*
G04 #@! TF.FileFunction,Legend,Top*
G04 #@! TF.FilePolarity,Positive*
%FSLAX46Y46*%
G04 Gerber Fmt 4.6, Leading zero omitted, Abs format (unit mm)*
G04 Created by KiCad (PCBNEW (5.1.0-1558-g0ba0c1724)) date 2019-11-25 19:03:30*
%MOMM*%
%LPD*%
G04 APERTURE LIST*
%ADD10C,0.100000*%
%ADD11C,0.150000*%
%ADD12C,0.120000*%
G04 APERTURE END LIST*
D10*
X124725000Y-86171428D02*
X124689285Y-86242857D01*
X124689285Y-86350000D01*
X124725000Y-86457142D01*
X124796428Y-86528571D01*
X124867857Y-86564285D01*
X125010714Y-86600000D01*
X125117857Y-86600000D01*
X125260714Y-86564285D01*
X125332142Y-86528571D01*
X125403571Y-86457142D01*
X125439285Y-86350000D01*
X125439285Y-86278571D01*
X125403571Y-86171428D01*
X125367857Y-86135714D01*
X125117857Y-86135714D01*
X125117857Y-86278571D01*
X125439285Y-85814285D02*
X124689285Y-85814285D01*
X125439285Y-85385714D01*
X124689285Y-85385714D01*
X125439285Y-85028571D02*
X124689285Y-85028571D01*
X124689285Y-84850000D01*
X124725000Y-84742857D01*
X124796428Y-84671428D01*
X124867857Y-84635714D01*
X125010714Y-84600000D01*
X125117857Y-84600000D01*
X125260714Y-84635714D01*
X125332142Y-84671428D01*
X125403571Y-84742857D01*
X125439285Y-84850000D01*
X125439285Y-85028571D01*
D11*
X112047619Y-84276190D02*
X111047619Y-84609523D01*
X112047619Y-84942857D01*
X111047619Y-85276190D02*
X111714285Y-85276190D01*
X112047619Y-85276190D02*
X112000000Y-85228571D01*
X111952380Y-85276190D01*
X112000000Y-85323809D01*
X112047619Y-85276190D01*
X111952380Y-85276190D01*
X111714285Y-85752380D02*
X111047619Y-85752380D01*
X111619047Y-85752380D02*
X111666666Y-85800000D01*
X111714285Y-85895238D01*
X111714285Y-86038095D01*
X111666666Y-86133333D01*
X111571428Y-86180952D01*
X111047619Y-86180952D01*
X123552380Y-74390476D02*
X123552380Y-74866666D01*
X124028571Y-74914285D01*
X123980952Y-74866666D01*
X123933333Y-74771428D01*
X123933333Y-74533333D01*
X123980952Y-74438095D01*
X124028571Y-74390476D01*
X124123809Y-74342857D01*
X124361904Y-74342857D01*
X124457142Y-74390476D01*
X124504761Y-74438095D01*
X124552380Y-74533333D01*
X124552380Y-74771428D01*
X124504761Y-74866666D01*
X124457142Y-74914285D01*
X123552380Y-74057142D02*
X124552380Y-73723809D01*
X123552380Y-73390476D01*
D10*
X110875000Y-80428571D02*
X110910714Y-80357142D01*
X110910714Y-80250000D01*
X110875000Y-80142857D01*
X110803571Y-80071428D01*
X110732142Y-80035714D01*
X110589285Y-80000000D01*
X110482142Y-80000000D01*
X110339285Y-80035714D01*
X110267857Y-80071428D01*
X110196428Y-80142857D01*
X110160714Y-80250000D01*
X110160714Y-80321428D01*
X110196428Y-80428571D01*
X110232142Y-80464285D01*
X110482142Y-80464285D01*
X110482142Y-80321428D01*
X110160714Y-80785714D02*
X110910714Y-80785714D01*
X110160714Y-81214285D01*
X110910714Y-81214285D01*
X110160714Y-81571428D02*
X110910714Y-81571428D01*
X110910714Y-81750000D01*
X110875000Y-81857142D01*
X110803571Y-81928571D01*
X110732142Y-81964285D01*
X110589285Y-82000000D01*
X110482142Y-82000000D01*
X110339285Y-81964285D01*
X110267857Y-81928571D01*
X110196428Y-81857142D01*
X110160714Y-81750000D01*
X110160714Y-81571428D01*
D12*
X111440000Y-78500000D02*
X111440000Y-80450000D01*
X111440000Y-78500000D02*
X111440000Y-76550000D01*
X116560000Y-78500000D02*
X116560000Y-80450000D01*
X116560000Y-78500000D02*
X116560000Y-75050000D01*
X124390000Y-82637221D02*
X124390000Y-82962779D01*
X125410000Y-82637221D02*
X125410000Y-82962779D01*
X113337221Y-73490000D02*
X113662779Y-73490000D01*
X113337221Y-74510000D02*
X113662779Y-74510000D01*
D10*
X117375000Y-74775000D02*
X117375000Y-79225000D01*
X122125000Y-74775000D02*
X122125000Y-79225000D01*
X117375000Y-79225000D02*
X122125000Y-79225000D01*
X117375000Y-74775000D02*
X122125000Y-74775000D01*
D12*
X109990000Y-74912779D02*
X109990000Y-74587221D01*
X111010000Y-74912779D02*
X111010000Y-74587221D01*
X109510000Y-74587221D02*
X109510000Y-74912779D01*
X108490000Y-74587221D02*
X108490000Y-74912779D01*
X116337221Y-72990000D02*
X116662779Y-72990000D01*
X116337221Y-74010000D02*
X116662779Y-74010000D01*
X112062779Y-83510000D02*
X111737221Y-83510000D01*
X112062779Y-82490000D02*
X111737221Y-82490000D01*
X121950000Y-79800000D02*
X118650000Y-79800000D01*
X118650000Y-79800000D02*
X118650000Y-85200000D01*
X121950000Y-79800000D02*
X121950000Y-85200000D01*
X123810000Y-82491422D02*
X123810000Y-83008578D01*
X122390000Y-82491422D02*
X122390000Y-83008578D01*
X118210000Y-81037221D02*
X118210000Y-81362779D01*
X117190000Y-81037221D02*
X117190000Y-81362779D01*
X114997936Y-84090000D02*
X116202064Y-84090000D01*
X114997936Y-85910000D02*
X116202064Y-85910000D01*
M02*
