G04 #@! TF.GenerationSoftware,KiCad,Pcbnew,(5.1.0-1558-g0ba0c1724)*
G04 #@! TF.CreationDate,2019-11-25T17:22:07-08:00*
G04 #@! TF.ProjectId,MP-Power,4d502d50-6f77-4657-922e-6b696361645f,rev?*
G04 #@! TF.SameCoordinates,Original*
G04 #@! TF.FileFunction,Paste,Top*
G04 #@! TF.FilePolarity,Positive*
%FSLAX46Y46*%
G04 Gerber Fmt 4.6, Leading zero omitted, Abs format (unit mm)*
G04 Created by KiCad (PCBNEW (5.1.0-1558-g0ba0c1724)) date 2019-11-25 17:22:07*
%MOMM*%
%LPD*%
G04 APERTURE LIST*
%ADD10C,0.100000*%
%ADD11C,0.975000*%
%ADD12C,1.050000*%
%ADD13C,0.600000*%
%ADD14C,0.875000*%
%ADD15R,2.900000X5.400000*%
%ADD16R,1.800000X2.500000*%
%ADD17C,1.250000*%
G04 APERTURE END LIST*
D10*
G36*
X130750000Y-83250000D02*
G01*
X128000000Y-83250000D01*
X128000000Y-80000000D01*
X130750000Y-80000000D01*
X130750000Y-83250000D01*
G37*
X130750000Y-83250000D02*
X128000000Y-83250000D01*
X128000000Y-80000000D01*
X130750000Y-80000000D01*
X130750000Y-83250000D01*
G36*
X124250000Y-86500000D02*
G01*
X122250000Y-86500000D01*
X122250000Y-83500000D01*
X124250000Y-83500000D01*
X124250000Y-86500000D01*
G37*
X124250000Y-86500000D02*
X122250000Y-86500000D01*
X122250000Y-83500000D01*
X124250000Y-83500000D01*
X124250000Y-86500000D01*
G36*
X110750000Y-74750000D02*
G01*
X108750000Y-74750000D01*
X108750000Y-71000000D01*
X110750000Y-71000000D01*
X110750000Y-74750000D01*
G37*
X110750000Y-74750000D02*
X108750000Y-74750000D01*
X108750000Y-71000000D01*
X110750000Y-71000000D01*
X110750000Y-74750000D01*
G36*
X111500000Y-86750000D02*
G01*
X108750000Y-86750000D01*
X108750000Y-84000000D01*
X111500000Y-84000000D01*
X111500000Y-86750000D01*
G37*
X111500000Y-86750000D02*
X108750000Y-86750000D01*
X108750000Y-84000000D01*
X111500000Y-84000000D01*
X111500000Y-86750000D01*
G36*
X125649529Y-80568554D02*
G01*
X125728607Y-80621393D01*
X125781446Y-80700471D01*
X125800000Y-80793750D01*
X125800000Y-81706250D01*
X125781446Y-81799529D01*
X125728607Y-81878607D01*
X125649529Y-81931446D01*
X125556250Y-81950000D01*
X125068750Y-81950000D01*
X124975471Y-81931446D01*
X124896393Y-81878607D01*
X124843554Y-81799529D01*
X124825000Y-81706250D01*
X124825000Y-80793750D01*
X124843554Y-80700471D01*
X124896393Y-80621393D01*
X124975471Y-80568554D01*
X125068750Y-80550000D01*
X125556250Y-80550000D01*
X125649529Y-80568554D01*
X125649529Y-80568554D01*
G37*
D11*
X125312500Y-81250000D03*
D10*
G36*
X127524529Y-80568554D02*
G01*
X127603607Y-80621393D01*
X127656446Y-80700471D01*
X127675000Y-80793750D01*
X127675000Y-81706250D01*
X127656446Y-81799529D01*
X127603607Y-81878607D01*
X127524529Y-81931446D01*
X127431250Y-81950000D01*
X126943750Y-81950000D01*
X126850471Y-81931446D01*
X126771393Y-81878607D01*
X126718554Y-81799529D01*
X126700000Y-81706250D01*
X126700000Y-80793750D01*
X126718554Y-80700471D01*
X126771393Y-80621393D01*
X126850471Y-80568554D01*
X126943750Y-80550000D01*
X127431250Y-80550000D01*
X127524529Y-80568554D01*
X127524529Y-80568554D01*
G37*
D11*
X127187500Y-81250000D03*
D10*
G36*
X115315671Y-77364030D02*
G01*
X115396777Y-77418223D01*
X115450970Y-77499329D01*
X115470000Y-77594999D01*
X115470000Y-78145001D01*
X115450970Y-78240671D01*
X115396777Y-78321777D01*
X115315671Y-78375970D01*
X115220001Y-78395000D01*
X114379999Y-78395000D01*
X114284329Y-78375970D01*
X114203223Y-78321777D01*
X114149030Y-78240671D01*
X114130000Y-78145001D01*
X114130000Y-77594999D01*
X114149030Y-77499329D01*
X114203223Y-77418223D01*
X114284329Y-77364030D01*
X114379999Y-77345000D01*
X115220001Y-77345000D01*
X115315671Y-77364030D01*
X115315671Y-77364030D01*
G37*
D12*
X114800000Y-77870000D03*
D10*
G36*
X113715671Y-77364030D02*
G01*
X113796777Y-77418223D01*
X113850970Y-77499329D01*
X113870000Y-77594999D01*
X113870000Y-78145001D01*
X113850970Y-78240671D01*
X113796777Y-78321777D01*
X113715671Y-78375970D01*
X113620001Y-78395000D01*
X112779999Y-78395000D01*
X112684329Y-78375970D01*
X112603223Y-78321777D01*
X112549030Y-78240671D01*
X112530000Y-78145001D01*
X112530000Y-77594999D01*
X112549030Y-77499329D01*
X112603223Y-77418223D01*
X112684329Y-77364030D01*
X112779999Y-77345000D01*
X113620001Y-77345000D01*
X113715671Y-77364030D01*
X113715671Y-77364030D01*
G37*
D12*
X113200000Y-77870000D03*
D10*
G36*
X115315671Y-78624030D02*
G01*
X115396777Y-78678223D01*
X115450970Y-78759329D01*
X115470000Y-78854999D01*
X115470000Y-79405001D01*
X115450970Y-79500671D01*
X115396777Y-79581777D01*
X115315671Y-79635970D01*
X115220001Y-79655000D01*
X114379999Y-79655000D01*
X114284329Y-79635970D01*
X114203223Y-79581777D01*
X114149030Y-79500671D01*
X114130000Y-79405001D01*
X114130000Y-78854999D01*
X114149030Y-78759329D01*
X114203223Y-78678223D01*
X114284329Y-78624030D01*
X114379999Y-78605000D01*
X115220001Y-78605000D01*
X115315671Y-78624030D01*
X115315671Y-78624030D01*
G37*
D12*
X114800000Y-79130000D03*
D10*
G36*
X113715671Y-78624030D02*
G01*
X113796777Y-78678223D01*
X113850970Y-78759329D01*
X113870000Y-78854999D01*
X113870000Y-79405001D01*
X113850970Y-79500671D01*
X113796777Y-79581777D01*
X113715671Y-79635970D01*
X113620001Y-79655000D01*
X112779999Y-79655000D01*
X112684329Y-79635970D01*
X112603223Y-79581777D01*
X112549030Y-79500671D01*
X112530000Y-79405001D01*
X112530000Y-78854999D01*
X112549030Y-78759329D01*
X112603223Y-78678223D01*
X112684329Y-78624030D01*
X112779999Y-78605000D01*
X113620001Y-78605000D01*
X113715671Y-78624030D01*
X113715671Y-78624030D01*
G37*
D12*
X113200000Y-79130000D03*
D10*
G36*
X116112403Y-75061418D02*
G01*
X116161066Y-75093934D01*
X116193582Y-75142597D01*
X116205000Y-75200000D01*
X116205000Y-76525000D01*
X116193582Y-76582403D01*
X116161066Y-76631066D01*
X116112403Y-76663582D01*
X116055000Y-76675000D01*
X115755000Y-76675000D01*
X115697597Y-76663582D01*
X115648934Y-76631066D01*
X115616418Y-76582403D01*
X115605000Y-76525000D01*
X115605000Y-75200000D01*
X115616418Y-75142597D01*
X115648934Y-75093934D01*
X115697597Y-75061418D01*
X115755000Y-75050000D01*
X116055000Y-75050000D01*
X116112403Y-75061418D01*
X116112403Y-75061418D01*
G37*
D13*
X115905000Y-75862500D03*
D10*
G36*
X114842403Y-75061418D02*
G01*
X114891066Y-75093934D01*
X114923582Y-75142597D01*
X114935000Y-75200000D01*
X114935000Y-76525000D01*
X114923582Y-76582403D01*
X114891066Y-76631066D01*
X114842403Y-76663582D01*
X114785000Y-76675000D01*
X114485000Y-76675000D01*
X114427597Y-76663582D01*
X114378934Y-76631066D01*
X114346418Y-76582403D01*
X114335000Y-76525000D01*
X114335000Y-75200000D01*
X114346418Y-75142597D01*
X114378934Y-75093934D01*
X114427597Y-75061418D01*
X114485000Y-75050000D01*
X114785000Y-75050000D01*
X114842403Y-75061418D01*
X114842403Y-75061418D01*
G37*
D13*
X114635000Y-75862500D03*
D10*
G36*
X113572403Y-75061418D02*
G01*
X113621066Y-75093934D01*
X113653582Y-75142597D01*
X113665000Y-75200000D01*
X113665000Y-76525000D01*
X113653582Y-76582403D01*
X113621066Y-76631066D01*
X113572403Y-76663582D01*
X113515000Y-76675000D01*
X113215000Y-76675000D01*
X113157597Y-76663582D01*
X113108934Y-76631066D01*
X113076418Y-76582403D01*
X113065000Y-76525000D01*
X113065000Y-75200000D01*
X113076418Y-75142597D01*
X113108934Y-75093934D01*
X113157597Y-75061418D01*
X113215000Y-75050000D01*
X113515000Y-75050000D01*
X113572403Y-75061418D01*
X113572403Y-75061418D01*
G37*
D13*
X113365000Y-75862500D03*
D10*
G36*
X112302403Y-75061418D02*
G01*
X112351066Y-75093934D01*
X112383582Y-75142597D01*
X112395000Y-75200000D01*
X112395000Y-76525000D01*
X112383582Y-76582403D01*
X112351066Y-76631066D01*
X112302403Y-76663582D01*
X112245000Y-76675000D01*
X111945000Y-76675000D01*
X111887597Y-76663582D01*
X111838934Y-76631066D01*
X111806418Y-76582403D01*
X111795000Y-76525000D01*
X111795000Y-75200000D01*
X111806418Y-75142597D01*
X111838934Y-75093934D01*
X111887597Y-75061418D01*
X111945000Y-75050000D01*
X112245000Y-75050000D01*
X112302403Y-75061418D01*
X112302403Y-75061418D01*
G37*
D13*
X112095000Y-75862500D03*
D10*
G36*
X112302403Y-80336418D02*
G01*
X112351066Y-80368934D01*
X112383582Y-80417597D01*
X112395000Y-80475000D01*
X112395000Y-81800000D01*
X112383582Y-81857403D01*
X112351066Y-81906066D01*
X112302403Y-81938582D01*
X112245000Y-81950000D01*
X111945000Y-81950000D01*
X111887597Y-81938582D01*
X111838934Y-81906066D01*
X111806418Y-81857403D01*
X111795000Y-81800000D01*
X111795000Y-80475000D01*
X111806418Y-80417597D01*
X111838934Y-80368934D01*
X111887597Y-80336418D01*
X111945000Y-80325000D01*
X112245000Y-80325000D01*
X112302403Y-80336418D01*
X112302403Y-80336418D01*
G37*
D13*
X112095000Y-81137500D03*
D10*
G36*
X113572403Y-80336418D02*
G01*
X113621066Y-80368934D01*
X113653582Y-80417597D01*
X113665000Y-80475000D01*
X113665000Y-81800000D01*
X113653582Y-81857403D01*
X113621066Y-81906066D01*
X113572403Y-81938582D01*
X113515000Y-81950000D01*
X113215000Y-81950000D01*
X113157597Y-81938582D01*
X113108934Y-81906066D01*
X113076418Y-81857403D01*
X113065000Y-81800000D01*
X113065000Y-80475000D01*
X113076418Y-80417597D01*
X113108934Y-80368934D01*
X113157597Y-80336418D01*
X113215000Y-80325000D01*
X113515000Y-80325000D01*
X113572403Y-80336418D01*
X113572403Y-80336418D01*
G37*
D13*
X113365000Y-81137500D03*
D10*
G36*
X114842403Y-80336418D02*
G01*
X114891066Y-80368934D01*
X114923582Y-80417597D01*
X114935000Y-80475000D01*
X114935000Y-81800000D01*
X114923582Y-81857403D01*
X114891066Y-81906066D01*
X114842403Y-81938582D01*
X114785000Y-81950000D01*
X114485000Y-81950000D01*
X114427597Y-81938582D01*
X114378934Y-81906066D01*
X114346418Y-81857403D01*
X114335000Y-81800000D01*
X114335000Y-80475000D01*
X114346418Y-80417597D01*
X114378934Y-80368934D01*
X114427597Y-80336418D01*
X114485000Y-80325000D01*
X114785000Y-80325000D01*
X114842403Y-80336418D01*
X114842403Y-80336418D01*
G37*
D13*
X114635000Y-81137500D03*
D10*
G36*
X116112403Y-80336418D02*
G01*
X116161066Y-80368934D01*
X116193582Y-80417597D01*
X116205000Y-80475000D01*
X116205000Y-81800000D01*
X116193582Y-81857403D01*
X116161066Y-81906066D01*
X116112403Y-81938582D01*
X116055000Y-81950000D01*
X115755000Y-81950000D01*
X115697597Y-81938582D01*
X115648934Y-81906066D01*
X115616418Y-81857403D01*
X115605000Y-81800000D01*
X115605000Y-80475000D01*
X115616418Y-80417597D01*
X115648934Y-80368934D01*
X115697597Y-80336418D01*
X115755000Y-80325000D01*
X116055000Y-80325000D01*
X116112403Y-80336418D01*
X116112403Y-80336418D01*
G37*
D13*
X115905000Y-81137500D03*
D10*
G36*
X112339962Y-71991651D02*
G01*
X112410930Y-72039070D01*
X112458349Y-72110038D01*
X112475000Y-72193750D01*
X112475000Y-72631250D01*
X112458349Y-72714962D01*
X112410930Y-72785930D01*
X112339962Y-72833349D01*
X112256250Y-72850000D01*
X111743750Y-72850000D01*
X111660038Y-72833349D01*
X111589070Y-72785930D01*
X111541651Y-72714962D01*
X111525000Y-72631250D01*
X111525000Y-72193750D01*
X111541651Y-72110038D01*
X111589070Y-72039070D01*
X111660038Y-71991651D01*
X111743750Y-71975000D01*
X112256250Y-71975000D01*
X112339962Y-71991651D01*
X112339962Y-71991651D01*
G37*
D14*
X112000000Y-72412500D03*
D10*
G36*
X112339962Y-73566651D02*
G01*
X112410930Y-73614070D01*
X112458349Y-73685038D01*
X112475000Y-73768750D01*
X112475000Y-74206250D01*
X112458349Y-74289962D01*
X112410930Y-74360930D01*
X112339962Y-74408349D01*
X112256250Y-74425000D01*
X111743750Y-74425000D01*
X111660038Y-74408349D01*
X111589070Y-74360930D01*
X111541651Y-74289962D01*
X111525000Y-74206250D01*
X111525000Y-73768750D01*
X111541651Y-73685038D01*
X111589070Y-73614070D01*
X111660038Y-73566651D01*
X111743750Y-73550000D01*
X112256250Y-73550000D01*
X112339962Y-73566651D01*
X112339962Y-73566651D01*
G37*
D14*
X112000000Y-73987500D03*
D10*
G36*
X112339962Y-70566651D02*
G01*
X112410930Y-70614070D01*
X112458349Y-70685038D01*
X112475000Y-70768750D01*
X112475000Y-71206250D01*
X112458349Y-71289962D01*
X112410930Y-71360930D01*
X112339962Y-71408349D01*
X112256250Y-71425000D01*
X111743750Y-71425000D01*
X111660038Y-71408349D01*
X111589070Y-71360930D01*
X111541651Y-71289962D01*
X111525000Y-71206250D01*
X111525000Y-70768750D01*
X111541651Y-70685038D01*
X111589070Y-70614070D01*
X111660038Y-70566651D01*
X111743750Y-70550000D01*
X112256250Y-70550000D01*
X112339962Y-70566651D01*
X112339962Y-70566651D01*
G37*
D14*
X112000000Y-70987500D03*
D10*
G36*
X112339962Y-68991651D02*
G01*
X112410930Y-69039070D01*
X112458349Y-69110038D01*
X112475000Y-69193750D01*
X112475000Y-69631250D01*
X112458349Y-69714962D01*
X112410930Y-69785930D01*
X112339962Y-69833349D01*
X112256250Y-69850000D01*
X111743750Y-69850000D01*
X111660038Y-69833349D01*
X111589070Y-69785930D01*
X111541651Y-69714962D01*
X111525000Y-69631250D01*
X111525000Y-69193750D01*
X111541651Y-69110038D01*
X111589070Y-69039070D01*
X111660038Y-68991651D01*
X111743750Y-68975000D01*
X112256250Y-68975000D01*
X112339962Y-68991651D01*
X112339962Y-68991651D01*
G37*
D14*
X112000000Y-69412500D03*
D10*
G36*
X113839962Y-68991651D02*
G01*
X113910930Y-69039070D01*
X113958349Y-69110038D01*
X113975000Y-69193750D01*
X113975000Y-69631250D01*
X113958349Y-69714962D01*
X113910930Y-69785930D01*
X113839962Y-69833349D01*
X113756250Y-69850000D01*
X113243750Y-69850000D01*
X113160038Y-69833349D01*
X113089070Y-69785930D01*
X113041651Y-69714962D01*
X113025000Y-69631250D01*
X113025000Y-69193750D01*
X113041651Y-69110038D01*
X113089070Y-69039070D01*
X113160038Y-68991651D01*
X113243750Y-68975000D01*
X113756250Y-68975000D01*
X113839962Y-68991651D01*
X113839962Y-68991651D01*
G37*
D14*
X113500000Y-69412500D03*
D10*
G36*
X113839962Y-70566651D02*
G01*
X113910930Y-70614070D01*
X113958349Y-70685038D01*
X113975000Y-70768750D01*
X113975000Y-71206250D01*
X113958349Y-71289962D01*
X113910930Y-71360930D01*
X113839962Y-71408349D01*
X113756250Y-71425000D01*
X113243750Y-71425000D01*
X113160038Y-71408349D01*
X113089070Y-71360930D01*
X113041651Y-71289962D01*
X113025000Y-71206250D01*
X113025000Y-70768750D01*
X113041651Y-70685038D01*
X113089070Y-70614070D01*
X113160038Y-70566651D01*
X113243750Y-70550000D01*
X113756250Y-70550000D01*
X113839962Y-70566651D01*
X113839962Y-70566651D01*
G37*
D14*
X113500000Y-70987500D03*
D10*
G36*
X111414962Y-82541651D02*
G01*
X111485930Y-82589070D01*
X111533349Y-82660038D01*
X111550000Y-82743750D01*
X111550000Y-83256250D01*
X111533349Y-83339962D01*
X111485930Y-83410930D01*
X111414962Y-83458349D01*
X111331250Y-83475000D01*
X110893750Y-83475000D01*
X110810038Y-83458349D01*
X110739070Y-83410930D01*
X110691651Y-83339962D01*
X110675000Y-83256250D01*
X110675000Y-82743750D01*
X110691651Y-82660038D01*
X110739070Y-82589070D01*
X110810038Y-82541651D01*
X110893750Y-82525000D01*
X111331250Y-82525000D01*
X111414962Y-82541651D01*
X111414962Y-82541651D01*
G37*
D14*
X111112500Y-83000000D03*
D10*
G36*
X112989962Y-82541651D02*
G01*
X113060930Y-82589070D01*
X113108349Y-82660038D01*
X113125000Y-82743750D01*
X113125000Y-83256250D01*
X113108349Y-83339962D01*
X113060930Y-83410930D01*
X112989962Y-83458349D01*
X112906250Y-83475000D01*
X112468750Y-83475000D01*
X112385038Y-83458349D01*
X112314070Y-83410930D01*
X112266651Y-83339962D01*
X112250000Y-83256250D01*
X112250000Y-82743750D01*
X112266651Y-82660038D01*
X112314070Y-82589070D01*
X112385038Y-82541651D01*
X112468750Y-82525000D01*
X112906250Y-82525000D01*
X112989962Y-82541651D01*
X112989962Y-82541651D01*
G37*
D14*
X112687500Y-83000000D03*
D15*
X128750000Y-73000000D03*
X118850000Y-73000000D03*
D16*
X120300000Y-85200000D03*
X120300000Y-81200000D03*
D10*
G36*
X126199529Y-84218554D02*
G01*
X126278607Y-84271393D01*
X126331446Y-84350471D01*
X126350000Y-84443750D01*
X126350000Y-85356250D01*
X126331446Y-85449529D01*
X126278607Y-85528607D01*
X126199529Y-85581446D01*
X126106250Y-85600000D01*
X125618750Y-85600000D01*
X125525471Y-85581446D01*
X125446393Y-85528607D01*
X125393554Y-85449529D01*
X125375000Y-85356250D01*
X125375000Y-84443750D01*
X125393554Y-84350471D01*
X125446393Y-84271393D01*
X125525471Y-84218554D01*
X125618750Y-84200000D01*
X126106250Y-84200000D01*
X126199529Y-84218554D01*
X126199529Y-84218554D01*
G37*
D11*
X125862500Y-84900000D03*
D10*
G36*
X128074529Y-84218554D02*
G01*
X128153607Y-84271393D01*
X128206446Y-84350471D01*
X128225000Y-84443750D01*
X128225000Y-85356250D01*
X128206446Y-85449529D01*
X128153607Y-85528607D01*
X128074529Y-85581446D01*
X127981250Y-85600000D01*
X127493750Y-85600000D01*
X127400471Y-85581446D01*
X127321393Y-85528607D01*
X127268554Y-85449529D01*
X127250000Y-85356250D01*
X127250000Y-84443750D01*
X127268554Y-84350471D01*
X127321393Y-84271393D01*
X127400471Y-84218554D01*
X127493750Y-84200000D01*
X127981250Y-84200000D01*
X128074529Y-84218554D01*
X128074529Y-84218554D01*
G37*
D11*
X127737500Y-84900000D03*
D10*
G36*
X113839962Y-71991651D02*
G01*
X113910930Y-72039070D01*
X113958349Y-72110038D01*
X113975000Y-72193750D01*
X113975000Y-72631250D01*
X113958349Y-72714962D01*
X113910930Y-72785930D01*
X113839962Y-72833349D01*
X113756250Y-72850000D01*
X113243750Y-72850000D01*
X113160038Y-72833349D01*
X113089070Y-72785930D01*
X113041651Y-72714962D01*
X113025000Y-72631250D01*
X113025000Y-72193750D01*
X113041651Y-72110038D01*
X113089070Y-72039070D01*
X113160038Y-71991651D01*
X113243750Y-71975000D01*
X113756250Y-71975000D01*
X113839962Y-71991651D01*
X113839962Y-71991651D01*
G37*
D14*
X113500000Y-72412500D03*
D10*
G36*
X113839962Y-73566651D02*
G01*
X113910930Y-73614070D01*
X113958349Y-73685038D01*
X113975000Y-73768750D01*
X113975000Y-74206250D01*
X113958349Y-74289962D01*
X113910930Y-74360930D01*
X113839962Y-74408349D01*
X113756250Y-74425000D01*
X113243750Y-74425000D01*
X113160038Y-74408349D01*
X113089070Y-74360930D01*
X113041651Y-74289962D01*
X113025000Y-74206250D01*
X113025000Y-73768750D01*
X113041651Y-73685038D01*
X113089070Y-73614070D01*
X113160038Y-73566651D01*
X113243750Y-73550000D01*
X113756250Y-73550000D01*
X113839962Y-73566651D01*
X113839962Y-73566651D01*
G37*
D14*
X113500000Y-73987500D03*
D10*
G36*
X118039962Y-81566651D02*
G01*
X118110930Y-81614070D01*
X118158349Y-81685038D01*
X118175000Y-81768750D01*
X118175000Y-82206250D01*
X118158349Y-82289962D01*
X118110930Y-82360930D01*
X118039962Y-82408349D01*
X117956250Y-82425000D01*
X117443750Y-82425000D01*
X117360038Y-82408349D01*
X117289070Y-82360930D01*
X117241651Y-82289962D01*
X117225000Y-82206250D01*
X117225000Y-81768750D01*
X117241651Y-81685038D01*
X117289070Y-81614070D01*
X117360038Y-81566651D01*
X117443750Y-81550000D01*
X117956250Y-81550000D01*
X118039962Y-81566651D01*
X118039962Y-81566651D01*
G37*
D14*
X117700000Y-81987500D03*
D10*
G36*
X118039962Y-79991651D02*
G01*
X118110930Y-80039070D01*
X118158349Y-80110038D01*
X118175000Y-80193750D01*
X118175000Y-80631250D01*
X118158349Y-80714962D01*
X118110930Y-80785930D01*
X118039962Y-80833349D01*
X117956250Y-80850000D01*
X117443750Y-80850000D01*
X117360038Y-80833349D01*
X117289070Y-80785930D01*
X117241651Y-80714962D01*
X117225000Y-80631250D01*
X117225000Y-80193750D01*
X117241651Y-80110038D01*
X117289070Y-80039070D01*
X117360038Y-79991651D01*
X117443750Y-79975000D01*
X117956250Y-79975000D01*
X118039962Y-79991651D01*
X118039962Y-79991651D01*
G37*
D14*
X117700000Y-80412500D03*
D10*
G36*
X117470671Y-84144030D02*
G01*
X117551777Y-84198223D01*
X117605970Y-84279329D01*
X117625000Y-84375000D01*
X117625000Y-85625000D01*
X117605970Y-85720671D01*
X117551777Y-85801777D01*
X117470671Y-85855970D01*
X117375000Y-85875000D01*
X116625000Y-85875000D01*
X116529329Y-85855970D01*
X116448223Y-85801777D01*
X116394030Y-85720671D01*
X116375000Y-85625000D01*
X116375000Y-84375000D01*
X116394030Y-84279329D01*
X116448223Y-84198223D01*
X116529329Y-84144030D01*
X116625000Y-84125000D01*
X117375000Y-84125000D01*
X117470671Y-84144030D01*
X117470671Y-84144030D01*
G37*
D17*
X117000000Y-85000000D03*
D10*
G36*
X114670671Y-84144030D02*
G01*
X114751777Y-84198223D01*
X114805970Y-84279329D01*
X114825000Y-84375000D01*
X114825000Y-85625000D01*
X114805970Y-85720671D01*
X114751777Y-85801777D01*
X114670671Y-85855970D01*
X114575000Y-85875000D01*
X113825000Y-85875000D01*
X113729329Y-85855970D01*
X113648223Y-85801777D01*
X113594030Y-85720671D01*
X113575000Y-85625000D01*
X113575000Y-84375000D01*
X113594030Y-84279329D01*
X113648223Y-84198223D01*
X113729329Y-84144030D01*
X113825000Y-84125000D01*
X114575000Y-84125000D01*
X114670671Y-84144030D01*
X114670671Y-84144030D01*
G37*
D17*
X114200000Y-85000000D03*
M02*
