M48
; DRILL file {KiCad 5.99.0-unknown-43a4cf795~104~ubuntu20.04.1} date Sat Nov 14 20:18:34 2020
; FORMAT={-:-/ absolute / metric / decimal}
; #@! TF.CreationDate,2020-11-14T20:18:34-08:00
; #@! TF.GenerationSoftware,Kicad,Pcbnew,5.99.0-unknown-43a4cf795~104~ubuntu20.04.1
; #@! TF.FileFunction,NonPlated,1,2,NPTH
FMAT,2
METRIC
T1C0.500
T2C1.000
T3C1.152
T4C2.350
T5C3.200
%
G90
G05
T1
X145.036Y98.698
X145.036Y94.698
T2
X144.272Y86.235
X144.272Y78.255
T3
X7.786Y102.349
X146.886Y7.849
X147.186Y102.949
X7.786Y2.249
T4
X58.342Y18.181
X58.342Y9.031
X78.342Y18.181
X78.342Y9.031
X38.342Y18.181
X118.342Y18.181
X118.342Y9.031
X18.342Y18.181
X18.342Y9.031
X38.342Y9.031
X98.342Y18.181
X98.342Y9.031
T5
X58.342Y35.831
X58.342Y4.181
X145.034Y3.937
X3.81Y100.457
X78.342Y35.831
X78.342Y4.181
X38.342Y4.181
X118.342Y35.831
X118.342Y4.181
X38.342Y35.831
X18.342Y35.831
X18.342Y4.181
X3.81Y3.937
X98.342Y35.831
X98.342Y4.181
X134.874Y100.457
T0
M30
