G04 #@! TF.GenerationSoftware,KiCad,Pcbnew,5.99.0-unknown-d20d310~86~ubuntu19.10.1*
G04 #@! TF.CreationDate,2019-12-13T13:20:42-08:00*
G04 #@! TF.ProjectId,PrntrBoardV2,50726e74-7242-46f6-9172-6456322e6b69,rev?*
G04 #@! TF.SameCoordinates,Original*
G04 #@! TF.FileFunction,Paste,Top*
G04 #@! TF.FilePolarity,Positive*
%FSLAX46Y46*%
G04 Gerber Fmt 4.6, Leading zero omitted, Abs format (unit mm)*
G04 Created by KiCad (PCBNEW 5.99.0-unknown-d20d310~86~ubuntu19.10.1) date 2019-12-13 13:20:42*
%MOMM*%
%LPD*%
G04 APERTURE LIST*
%ADD10R,1.900000X2.500000*%
%ADD11R,1.800000X2.500000*%
%ADD12R,2.750000X3.050000*%
%ADD13R,1.200000X2.200000*%
%ADD14R,0.950000X0.875000*%
%ADD15R,0.450000X0.600000*%
%ADD16R,0.600000X0.900000*%
%ADD17R,0.900000X0.600000*%
%ADD18R,1.050000X0.600000*%
%ADD19R,0.875000X0.950000*%
%ADD20R,1.000000X1.700000*%
%ADD21R,0.450000X1.450000*%
%ADD22R,2.400000X2.000000*%
%ADD23R,0.820000X1.000000*%
%ADD24R,1.600000X0.700000*%
%ADD25R,1.400000X1.200000*%
%ADD26R,1.400000X1.600000*%
%ADD27R,2.200000X1.200000*%
%ADD28R,2.000000X1.500000*%
%ADD29R,2.000000X3.800000*%
%ADD30R,1.450000X0.450000*%
%ADD31R,0.800000X0.900000*%
%ADD32R,0.800000X0.500000*%
%ADD33R,0.800000X0.400000*%
%ADD34R,0.500000X0.800000*%
%ADD35R,0.400000X0.800000*%
%ADD36R,1.900000X1.800000*%
%ADD37R,1.900000X1.900000*%
%ADD38R,1.350000X0.400000*%
%ADD39R,3.810000X5.740000*%
%ADD40R,1.000000X1.000000*%
%ADD41R,2.500000X1.800000*%
%ADD42R,1.750000X1.250000*%
G04 APERTURE END LIST*
G36*
X38115671Y-111064030D02*
G01*
X38196777Y-111118223D01*
X38250970Y-111199329D01*
X38270000Y-111294999D01*
X38270000Y-111845001D01*
X38250970Y-111940671D01*
X38196777Y-112021777D01*
X38115671Y-112075970D01*
X38020001Y-112095000D01*
X37179999Y-112095000D01*
X37084329Y-112075970D01*
X37003223Y-112021777D01*
X36949030Y-111940671D01*
X36930000Y-111845001D01*
X36930000Y-111294999D01*
X36949030Y-111199329D01*
X37003223Y-111118223D01*
X37084329Y-111064030D01*
X37179999Y-111045000D01*
X38020001Y-111045000D01*
X38115671Y-111064030D01*
G37*
G36*
X36515671Y-111064030D02*
G01*
X36596777Y-111118223D01*
X36650970Y-111199329D01*
X36670000Y-111294999D01*
X36670000Y-111845001D01*
X36650970Y-111940671D01*
X36596777Y-112021777D01*
X36515671Y-112075970D01*
X36420001Y-112095000D01*
X35579999Y-112095000D01*
X35484329Y-112075970D01*
X35403223Y-112021777D01*
X35349030Y-111940671D01*
X35330000Y-111845001D01*
X35330000Y-111294999D01*
X35349030Y-111199329D01*
X35403223Y-111118223D01*
X35484329Y-111064030D01*
X35579999Y-111045000D01*
X36420001Y-111045000D01*
X36515671Y-111064030D01*
G37*
G36*
X38115671Y-112324030D02*
G01*
X38196777Y-112378223D01*
X38250970Y-112459329D01*
X38270000Y-112554999D01*
X38270000Y-113105001D01*
X38250970Y-113200671D01*
X38196777Y-113281777D01*
X38115671Y-113335970D01*
X38020001Y-113355000D01*
X37179999Y-113355000D01*
X37084329Y-113335970D01*
X37003223Y-113281777D01*
X36949030Y-113200671D01*
X36930000Y-113105001D01*
X36930000Y-112554999D01*
X36949030Y-112459329D01*
X37003223Y-112378223D01*
X37084329Y-112324030D01*
X37179999Y-112305000D01*
X38020001Y-112305000D01*
X38115671Y-112324030D01*
G37*
G36*
X36515671Y-112324030D02*
G01*
X36596777Y-112378223D01*
X36650970Y-112459329D01*
X36670000Y-112554999D01*
X36670000Y-113105001D01*
X36650970Y-113200671D01*
X36596777Y-113281777D01*
X36515671Y-113335970D01*
X36420001Y-113355000D01*
X35579999Y-113355000D01*
X35484329Y-113335970D01*
X35403223Y-113281777D01*
X35349030Y-113200671D01*
X35330000Y-113105001D01*
X35330000Y-112554999D01*
X35349030Y-112459329D01*
X35403223Y-112378223D01*
X35484329Y-112324030D01*
X35579999Y-112305000D01*
X36420001Y-112305000D01*
X36515671Y-112324030D01*
G37*
G36*
X38912403Y-108761418D02*
G01*
X38961066Y-108793934D01*
X38993582Y-108842597D01*
X39005000Y-108900000D01*
X39005000Y-110225000D01*
X38993582Y-110282403D01*
X38961066Y-110331066D01*
X38912403Y-110363582D01*
X38855000Y-110375000D01*
X38555000Y-110375000D01*
X38497597Y-110363582D01*
X38448934Y-110331066D01*
X38416418Y-110282403D01*
X38405000Y-110225000D01*
X38405000Y-108900000D01*
X38416418Y-108842597D01*
X38448934Y-108793934D01*
X38497597Y-108761418D01*
X38555000Y-108750000D01*
X38855000Y-108750000D01*
X38912403Y-108761418D01*
G37*
G36*
X37642403Y-108761418D02*
G01*
X37691066Y-108793934D01*
X37723582Y-108842597D01*
X37735000Y-108900000D01*
X37735000Y-110225000D01*
X37723582Y-110282403D01*
X37691066Y-110331066D01*
X37642403Y-110363582D01*
X37585000Y-110375000D01*
X37285000Y-110375000D01*
X37227597Y-110363582D01*
X37178934Y-110331066D01*
X37146418Y-110282403D01*
X37135000Y-110225000D01*
X37135000Y-108900000D01*
X37146418Y-108842597D01*
X37178934Y-108793934D01*
X37227597Y-108761418D01*
X37285000Y-108750000D01*
X37585000Y-108750000D01*
X37642403Y-108761418D01*
G37*
G36*
X36372403Y-108761418D02*
G01*
X36421066Y-108793934D01*
X36453582Y-108842597D01*
X36465000Y-108900000D01*
X36465000Y-110225000D01*
X36453582Y-110282403D01*
X36421066Y-110331066D01*
X36372403Y-110363582D01*
X36315000Y-110375000D01*
X36015000Y-110375000D01*
X35957597Y-110363582D01*
X35908934Y-110331066D01*
X35876418Y-110282403D01*
X35865000Y-110225000D01*
X35865000Y-108900000D01*
X35876418Y-108842597D01*
X35908934Y-108793934D01*
X35957597Y-108761418D01*
X36015000Y-108750000D01*
X36315000Y-108750000D01*
X36372403Y-108761418D01*
G37*
G36*
X35102403Y-108761418D02*
G01*
X35151066Y-108793934D01*
X35183582Y-108842597D01*
X35195000Y-108900000D01*
X35195000Y-110225000D01*
X35183582Y-110282403D01*
X35151066Y-110331066D01*
X35102403Y-110363582D01*
X35045000Y-110375000D01*
X34745000Y-110375000D01*
X34687597Y-110363582D01*
X34638934Y-110331066D01*
X34606418Y-110282403D01*
X34595000Y-110225000D01*
X34595000Y-108900000D01*
X34606418Y-108842597D01*
X34638934Y-108793934D01*
X34687597Y-108761418D01*
X34745000Y-108750000D01*
X35045000Y-108750000D01*
X35102403Y-108761418D01*
G37*
G36*
X35102403Y-114036418D02*
G01*
X35151066Y-114068934D01*
X35183582Y-114117597D01*
X35195000Y-114175000D01*
X35195000Y-115500000D01*
X35183582Y-115557403D01*
X35151066Y-115606066D01*
X35102403Y-115638582D01*
X35045000Y-115650000D01*
X34745000Y-115650000D01*
X34687597Y-115638582D01*
X34638934Y-115606066D01*
X34606418Y-115557403D01*
X34595000Y-115500000D01*
X34595000Y-114175000D01*
X34606418Y-114117597D01*
X34638934Y-114068934D01*
X34687597Y-114036418D01*
X34745000Y-114025000D01*
X35045000Y-114025000D01*
X35102403Y-114036418D01*
G37*
G36*
X36372403Y-114036418D02*
G01*
X36421066Y-114068934D01*
X36453582Y-114117597D01*
X36465000Y-114175000D01*
X36465000Y-115500000D01*
X36453582Y-115557403D01*
X36421066Y-115606066D01*
X36372403Y-115638582D01*
X36315000Y-115650000D01*
X36015000Y-115650000D01*
X35957597Y-115638582D01*
X35908934Y-115606066D01*
X35876418Y-115557403D01*
X35865000Y-115500000D01*
X35865000Y-114175000D01*
X35876418Y-114117597D01*
X35908934Y-114068934D01*
X35957597Y-114036418D01*
X36015000Y-114025000D01*
X36315000Y-114025000D01*
X36372403Y-114036418D01*
G37*
G36*
X37642403Y-114036418D02*
G01*
X37691066Y-114068934D01*
X37723582Y-114117597D01*
X37735000Y-114175000D01*
X37735000Y-115500000D01*
X37723582Y-115557403D01*
X37691066Y-115606066D01*
X37642403Y-115638582D01*
X37585000Y-115650000D01*
X37285000Y-115650000D01*
X37227597Y-115638582D01*
X37178934Y-115606066D01*
X37146418Y-115557403D01*
X37135000Y-115500000D01*
X37135000Y-114175000D01*
X37146418Y-114117597D01*
X37178934Y-114068934D01*
X37227597Y-114036418D01*
X37285000Y-114025000D01*
X37585000Y-114025000D01*
X37642403Y-114036418D01*
G37*
G36*
X38912403Y-114036418D02*
G01*
X38961066Y-114068934D01*
X38993582Y-114117597D01*
X39005000Y-114175000D01*
X39005000Y-115500000D01*
X38993582Y-115557403D01*
X38961066Y-115606066D01*
X38912403Y-115638582D01*
X38855000Y-115650000D01*
X38555000Y-115650000D01*
X38497597Y-115638582D01*
X38448934Y-115606066D01*
X38416418Y-115557403D01*
X38405000Y-115500000D01*
X38405000Y-114175000D01*
X38416418Y-114117597D01*
X38448934Y-114068934D01*
X38497597Y-114036418D01*
X38555000Y-114025000D01*
X38855000Y-114025000D01*
X38912403Y-114036418D01*
G37*
G36*
X33639962Y-108866651D02*
G01*
X33710930Y-108914070D01*
X33758349Y-108985038D01*
X33775000Y-109068750D01*
X33775000Y-109506250D01*
X33758349Y-109589962D01*
X33710930Y-109660930D01*
X33639962Y-109708349D01*
X33556250Y-109725000D01*
X33043750Y-109725000D01*
X32960038Y-109708349D01*
X32889070Y-109660930D01*
X32841651Y-109589962D01*
X32825000Y-109506250D01*
X32825000Y-109068750D01*
X32841651Y-108985038D01*
X32889070Y-108914070D01*
X32960038Y-108866651D01*
X33043750Y-108850000D01*
X33556250Y-108850000D01*
X33639962Y-108866651D01*
G37*
G36*
X33639962Y-107291651D02*
G01*
X33710930Y-107339070D01*
X33758349Y-107410038D01*
X33775000Y-107493750D01*
X33775000Y-107931250D01*
X33758349Y-108014962D01*
X33710930Y-108085930D01*
X33639962Y-108133349D01*
X33556250Y-108150000D01*
X33043750Y-108150000D01*
X32960038Y-108133349D01*
X32889070Y-108085930D01*
X32841651Y-108014962D01*
X32825000Y-107931250D01*
X32825000Y-107493750D01*
X32841651Y-107410038D01*
X32889070Y-107339070D01*
X32960038Y-107291651D01*
X33043750Y-107275000D01*
X33556250Y-107275000D01*
X33639962Y-107291651D01*
G37*
G36*
X32139962Y-108866651D02*
G01*
X32210930Y-108914070D01*
X32258349Y-108985038D01*
X32275000Y-109068750D01*
X32275000Y-109506250D01*
X32258349Y-109589962D01*
X32210930Y-109660930D01*
X32139962Y-109708349D01*
X32056250Y-109725000D01*
X31543750Y-109725000D01*
X31460038Y-109708349D01*
X31389070Y-109660930D01*
X31341651Y-109589962D01*
X31325000Y-109506250D01*
X31325000Y-109068750D01*
X31341651Y-108985038D01*
X31389070Y-108914070D01*
X31460038Y-108866651D01*
X31543750Y-108850000D01*
X32056250Y-108850000D01*
X32139962Y-108866651D01*
G37*
G36*
X32139962Y-107291651D02*
G01*
X32210930Y-107339070D01*
X32258349Y-107410038D01*
X32275000Y-107493750D01*
X32275000Y-107931250D01*
X32258349Y-108014962D01*
X32210930Y-108085930D01*
X32139962Y-108133349D01*
X32056250Y-108150000D01*
X31543750Y-108150000D01*
X31460038Y-108133349D01*
X31389070Y-108085930D01*
X31341651Y-108014962D01*
X31325000Y-107931250D01*
X31325000Y-107493750D01*
X31341651Y-107410038D01*
X31389070Y-107339070D01*
X31460038Y-107291651D01*
X31543750Y-107275000D01*
X32056250Y-107275000D01*
X32139962Y-107291651D01*
G37*
G36*
X38939962Y-105691651D02*
G01*
X39010930Y-105739070D01*
X39058349Y-105810038D01*
X39075000Y-105893750D01*
X39075000Y-106331250D01*
X39058349Y-106414962D01*
X39010930Y-106485930D01*
X38939962Y-106533349D01*
X38856250Y-106550000D01*
X38343750Y-106550000D01*
X38260038Y-106533349D01*
X38189070Y-106485930D01*
X38141651Y-106414962D01*
X38125000Y-106331250D01*
X38125000Y-105893750D01*
X38141651Y-105810038D01*
X38189070Y-105739070D01*
X38260038Y-105691651D01*
X38343750Y-105675000D01*
X38856250Y-105675000D01*
X38939962Y-105691651D01*
G37*
G36*
X38939962Y-107266651D02*
G01*
X39010930Y-107314070D01*
X39058349Y-107385038D01*
X39075000Y-107468750D01*
X39075000Y-107906250D01*
X39058349Y-107989962D01*
X39010930Y-108060930D01*
X38939962Y-108108349D01*
X38856250Y-108125000D01*
X38343750Y-108125000D01*
X38260038Y-108108349D01*
X38189070Y-108060930D01*
X38141651Y-107989962D01*
X38125000Y-107906250D01*
X38125000Y-107468750D01*
X38141651Y-107385038D01*
X38189070Y-107314070D01*
X38260038Y-107266651D01*
X38343750Y-107250000D01*
X38856250Y-107250000D01*
X38939962Y-107266651D01*
G37*
G36*
X34214962Y-116241651D02*
G01*
X34285930Y-116289070D01*
X34333349Y-116360038D01*
X34350000Y-116443750D01*
X34350000Y-116956250D01*
X34333349Y-117039962D01*
X34285930Y-117110930D01*
X34214962Y-117158349D01*
X34131250Y-117175000D01*
X33693750Y-117175000D01*
X33610038Y-117158349D01*
X33539070Y-117110930D01*
X33491651Y-117039962D01*
X33475000Y-116956250D01*
X33475000Y-116443750D01*
X33491651Y-116360038D01*
X33539070Y-116289070D01*
X33610038Y-116241651D01*
X33693750Y-116225000D01*
X34131250Y-116225000D01*
X34214962Y-116241651D01*
G37*
G36*
X35789962Y-116241651D02*
G01*
X35860930Y-116289070D01*
X35908349Y-116360038D01*
X35925000Y-116443750D01*
X35925000Y-116956250D01*
X35908349Y-117039962D01*
X35860930Y-117110930D01*
X35789962Y-117158349D01*
X35706250Y-117175000D01*
X35268750Y-117175000D01*
X35185038Y-117158349D01*
X35114070Y-117110930D01*
X35066651Y-117039962D01*
X35050000Y-116956250D01*
X35050000Y-116443750D01*
X35066651Y-116360038D01*
X35114070Y-116289070D01*
X35185038Y-116241651D01*
X35268750Y-116225000D01*
X35706250Y-116225000D01*
X35789962Y-116241651D01*
G37*
D10*
X44750000Y-110200000D03*
X40650000Y-110200000D03*
D11*
X43100000Y-118900000D03*
X43100000Y-114900000D03*
G36*
X42514962Y-105841651D02*
G01*
X42585930Y-105889070D01*
X42633349Y-105960038D01*
X42650000Y-106043750D01*
X42650000Y-106556250D01*
X42633349Y-106639962D01*
X42585930Y-106710930D01*
X42514962Y-106758349D01*
X42431250Y-106775000D01*
X41993750Y-106775000D01*
X41910038Y-106758349D01*
X41839070Y-106710930D01*
X41791651Y-106639962D01*
X41775000Y-106556250D01*
X41775000Y-106043750D01*
X41791651Y-105960038D01*
X41839070Y-105889070D01*
X41910038Y-105841651D01*
X41993750Y-105825000D01*
X42431250Y-105825000D01*
X42514962Y-105841651D01*
G37*
G36*
X44089962Y-105841651D02*
G01*
X44160930Y-105889070D01*
X44208349Y-105960038D01*
X44225000Y-106043750D01*
X44225000Y-106556250D01*
X44208349Y-106639962D01*
X44160930Y-106710930D01*
X44089962Y-106758349D01*
X44006250Y-106775000D01*
X43568750Y-106775000D01*
X43485038Y-106758349D01*
X43414070Y-106710930D01*
X43366651Y-106639962D01*
X43350000Y-106556250D01*
X43350000Y-106043750D01*
X43366651Y-105960038D01*
X43414070Y-105889070D01*
X43485038Y-105841651D01*
X43568750Y-105825000D01*
X44006250Y-105825000D01*
X44089962Y-105841651D01*
G37*
G36*
X46549529Y-116868554D02*
G01*
X46628607Y-116921393D01*
X46681446Y-117000471D01*
X46700000Y-117093750D01*
X46700000Y-117581250D01*
X46681446Y-117674529D01*
X46628607Y-117753607D01*
X46549529Y-117806446D01*
X46456250Y-117825000D01*
X45543750Y-117825000D01*
X45450471Y-117806446D01*
X45371393Y-117753607D01*
X45318554Y-117674529D01*
X45300000Y-117581250D01*
X45300000Y-117093750D01*
X45318554Y-117000471D01*
X45371393Y-116921393D01*
X45450471Y-116868554D01*
X45543750Y-116850000D01*
X46456250Y-116850000D01*
X46549529Y-116868554D01*
G37*
G36*
X46549529Y-114993554D02*
G01*
X46628607Y-115046393D01*
X46681446Y-115125471D01*
X46700000Y-115218750D01*
X46700000Y-115706250D01*
X46681446Y-115799529D01*
X46628607Y-115878607D01*
X46549529Y-115931446D01*
X46456250Y-115950000D01*
X45543750Y-115950000D01*
X45450471Y-115931446D01*
X45371393Y-115878607D01*
X45318554Y-115799529D01*
X45300000Y-115706250D01*
X45300000Y-115218750D01*
X45318554Y-115125471D01*
X45371393Y-115046393D01*
X45450471Y-114993554D01*
X45543750Y-114975000D01*
X46456250Y-114975000D01*
X46549529Y-114993554D01*
G37*
G36*
X37389962Y-107241651D02*
G01*
X37460930Y-107289070D01*
X37508349Y-107360038D01*
X37525000Y-107443750D01*
X37525000Y-107956250D01*
X37508349Y-108039962D01*
X37460930Y-108110930D01*
X37389962Y-108158349D01*
X37306250Y-108175000D01*
X36868750Y-108175000D01*
X36785038Y-108158349D01*
X36714070Y-108110930D01*
X36666651Y-108039962D01*
X36650000Y-107956250D01*
X36650000Y-107443750D01*
X36666651Y-107360038D01*
X36714070Y-107289070D01*
X36785038Y-107241651D01*
X36868750Y-107225000D01*
X37306250Y-107225000D01*
X37389962Y-107241651D01*
G37*
G36*
X35814962Y-107241651D02*
G01*
X35885930Y-107289070D01*
X35933349Y-107360038D01*
X35950000Y-107443750D01*
X35950000Y-107956250D01*
X35933349Y-108039962D01*
X35885930Y-108110930D01*
X35814962Y-108158349D01*
X35731250Y-108175000D01*
X35293750Y-108175000D01*
X35210038Y-108158349D01*
X35139070Y-108110930D01*
X35091651Y-108039962D01*
X35075000Y-107956250D01*
X35075000Y-107443750D01*
X35091651Y-107360038D01*
X35139070Y-107289070D01*
X35210038Y-107241651D01*
X35293750Y-107225000D01*
X35731250Y-107225000D01*
X35814962Y-107241651D01*
G37*
G36*
X40639962Y-115166651D02*
G01*
X40710930Y-115214070D01*
X40758349Y-115285038D01*
X40775000Y-115368750D01*
X40775000Y-115806250D01*
X40758349Y-115889962D01*
X40710930Y-115960930D01*
X40639962Y-116008349D01*
X40556250Y-116025000D01*
X40043750Y-116025000D01*
X39960038Y-116008349D01*
X39889070Y-115960930D01*
X39841651Y-115889962D01*
X39825000Y-115806250D01*
X39825000Y-115368750D01*
X39841651Y-115285038D01*
X39889070Y-115214070D01*
X39960038Y-115166651D01*
X40043750Y-115150000D01*
X40556250Y-115150000D01*
X40639962Y-115166651D01*
G37*
G36*
X40639962Y-113591651D02*
G01*
X40710930Y-113639070D01*
X40758349Y-113710038D01*
X40775000Y-113793750D01*
X40775000Y-114231250D01*
X40758349Y-114314962D01*
X40710930Y-114385930D01*
X40639962Y-114433349D01*
X40556250Y-114450000D01*
X40043750Y-114450000D01*
X39960038Y-114433349D01*
X39889070Y-114385930D01*
X39841651Y-114314962D01*
X39825000Y-114231250D01*
X39825000Y-113793750D01*
X39841651Y-113710038D01*
X39889070Y-113639070D01*
X39960038Y-113591651D01*
X40043750Y-113575000D01*
X40556250Y-113575000D01*
X40639962Y-113591651D01*
G37*
G36*
X40470671Y-116644030D02*
G01*
X40551777Y-116698223D01*
X40605970Y-116779329D01*
X40625000Y-116875000D01*
X40625000Y-118125000D01*
X40605970Y-118220671D01*
X40551777Y-118301777D01*
X40470671Y-118355970D01*
X40375000Y-118375000D01*
X39625000Y-118375000D01*
X39529329Y-118355970D01*
X39448223Y-118301777D01*
X39394030Y-118220671D01*
X39375000Y-118125000D01*
X39375000Y-116875000D01*
X39394030Y-116779329D01*
X39448223Y-116698223D01*
X39529329Y-116644030D01*
X39625000Y-116625000D01*
X40375000Y-116625000D01*
X40470671Y-116644030D01*
G37*
G36*
X37670671Y-116644030D02*
G01*
X37751777Y-116698223D01*
X37805970Y-116779329D01*
X37825000Y-116875000D01*
X37825000Y-118125000D01*
X37805970Y-118220671D01*
X37751777Y-118301777D01*
X37670671Y-118355970D01*
X37575000Y-118375000D01*
X36825000Y-118375000D01*
X36729329Y-118355970D01*
X36648223Y-118301777D01*
X36594030Y-118220671D01*
X36575000Y-118125000D01*
X36575000Y-116875000D01*
X36594030Y-116779329D01*
X36648223Y-116698223D01*
X36729329Y-116644030D01*
X36825000Y-116625000D01*
X37575000Y-116625000D01*
X37670671Y-116644030D01*
G37*
D12*
X163125000Y-149975000D03*
X160075000Y-146625000D03*
X160075000Y-149975000D03*
X163125000Y-146625000D03*
D13*
X163880000Y-154600000D03*
X159320000Y-154600000D03*
D14*
X155000000Y-155287500D03*
X155000000Y-153712500D03*
D15*
X156750000Y-155550000D03*
X156750000Y-153450000D03*
D16*
X156903000Y-99815000D03*
X156053000Y-99815000D03*
X157753000Y-99815000D03*
X156903000Y-102115000D03*
X156053000Y-102115000D03*
X157753000Y-102115000D03*
X157753000Y-100965000D03*
X156053000Y-100965000D03*
D17*
X159603000Y-99085000D03*
X159603000Y-102845000D03*
X159603000Y-100365000D03*
D18*
X153883000Y-100325000D03*
X153883000Y-99055000D03*
X153883000Y-101605000D03*
X153883000Y-102875000D03*
D17*
X159603000Y-101565000D03*
D16*
X156903000Y-100965000D03*
X156884000Y-108705000D03*
X156034000Y-108705000D03*
X157734000Y-108705000D03*
X156884000Y-111005000D03*
X156034000Y-111005000D03*
X157734000Y-111005000D03*
X157734000Y-109855000D03*
X156034000Y-109855000D03*
D17*
X159584000Y-107975000D03*
X159584000Y-111735000D03*
X159584000Y-109255000D03*
D18*
X153864000Y-109215000D03*
X153864000Y-107945000D03*
X153864000Y-110495000D03*
X153864000Y-111765000D03*
D17*
X159584000Y-110455000D03*
D16*
X156884000Y-109855000D03*
X156903000Y-91179000D03*
X156053000Y-91179000D03*
X157753000Y-91179000D03*
X156903000Y-93479000D03*
X156053000Y-93479000D03*
X157753000Y-93479000D03*
X157753000Y-92329000D03*
X156053000Y-92329000D03*
D17*
X159603000Y-90449000D03*
X159603000Y-94209000D03*
X159603000Y-91729000D03*
D18*
X153883000Y-91689000D03*
X153883000Y-90419000D03*
X153883000Y-92969000D03*
X153883000Y-94239000D03*
D17*
X159603000Y-92929000D03*
D16*
X156903000Y-92329000D03*
X156903000Y-117341000D03*
X156053000Y-117341000D03*
X157753000Y-117341000D03*
X156903000Y-119641000D03*
X156053000Y-119641000D03*
X157753000Y-119641000D03*
X157753000Y-118491000D03*
X156053000Y-118491000D03*
D17*
X159603000Y-116611000D03*
X159603000Y-120371000D03*
X159603000Y-117891000D03*
D18*
X153883000Y-117851000D03*
X153883000Y-116581000D03*
X153883000Y-119131000D03*
X153883000Y-120401000D03*
D17*
X159603000Y-119091000D03*
D16*
X156903000Y-118491000D03*
D19*
X82287500Y-120250000D03*
X80712500Y-120250000D03*
D14*
X77000000Y-106362500D03*
X77000000Y-107937500D03*
D19*
X34862500Y-121300000D03*
X36437500Y-121300000D03*
G36*
X83748403Y-83658418D02*
G01*
X83797066Y-83690934D01*
X83829582Y-83739597D01*
X83841000Y-83797000D01*
X83841000Y-84097000D01*
X83829582Y-84154403D01*
X83797066Y-84203066D01*
X83748403Y-84235582D01*
X83691000Y-84247000D01*
X82241000Y-84247000D01*
X82183597Y-84235582D01*
X82134934Y-84203066D01*
X82102418Y-84154403D01*
X82091000Y-84097000D01*
X82091000Y-83797000D01*
X82102418Y-83739597D01*
X82134934Y-83690934D01*
X82183597Y-83658418D01*
X82241000Y-83647000D01*
X83691000Y-83647000D01*
X83748403Y-83658418D01*
G37*
G36*
X83748403Y-84928418D02*
G01*
X83797066Y-84960934D01*
X83829582Y-85009597D01*
X83841000Y-85067000D01*
X83841000Y-85367000D01*
X83829582Y-85424403D01*
X83797066Y-85473066D01*
X83748403Y-85505582D01*
X83691000Y-85517000D01*
X82241000Y-85517000D01*
X82183597Y-85505582D01*
X82134934Y-85473066D01*
X82102418Y-85424403D01*
X82091000Y-85367000D01*
X82091000Y-85067000D01*
X82102418Y-85009597D01*
X82134934Y-84960934D01*
X82183597Y-84928418D01*
X82241000Y-84917000D01*
X83691000Y-84917000D01*
X83748403Y-84928418D01*
G37*
G36*
X83748403Y-86198418D02*
G01*
X83797066Y-86230934D01*
X83829582Y-86279597D01*
X83841000Y-86337000D01*
X83841000Y-86637000D01*
X83829582Y-86694403D01*
X83797066Y-86743066D01*
X83748403Y-86775582D01*
X83691000Y-86787000D01*
X82241000Y-86787000D01*
X82183597Y-86775582D01*
X82134934Y-86743066D01*
X82102418Y-86694403D01*
X82091000Y-86637000D01*
X82091000Y-86337000D01*
X82102418Y-86279597D01*
X82134934Y-86230934D01*
X82183597Y-86198418D01*
X82241000Y-86187000D01*
X83691000Y-86187000D01*
X83748403Y-86198418D01*
G37*
G36*
X83748403Y-87468418D02*
G01*
X83797066Y-87500934D01*
X83829582Y-87549597D01*
X83841000Y-87607000D01*
X83841000Y-87907000D01*
X83829582Y-87964403D01*
X83797066Y-88013066D01*
X83748403Y-88045582D01*
X83691000Y-88057000D01*
X82241000Y-88057000D01*
X82183597Y-88045582D01*
X82134934Y-88013066D01*
X82102418Y-87964403D01*
X82091000Y-87907000D01*
X82091000Y-87607000D01*
X82102418Y-87549597D01*
X82134934Y-87500934D01*
X82183597Y-87468418D01*
X82241000Y-87457000D01*
X83691000Y-87457000D01*
X83748403Y-87468418D01*
G37*
G36*
X78598403Y-87468418D02*
G01*
X78647066Y-87500934D01*
X78679582Y-87549597D01*
X78691000Y-87607000D01*
X78691000Y-87907000D01*
X78679582Y-87964403D01*
X78647066Y-88013066D01*
X78598403Y-88045582D01*
X78541000Y-88057000D01*
X77091000Y-88057000D01*
X77033597Y-88045582D01*
X76984934Y-88013066D01*
X76952418Y-87964403D01*
X76941000Y-87907000D01*
X76941000Y-87607000D01*
X76952418Y-87549597D01*
X76984934Y-87500934D01*
X77033597Y-87468418D01*
X77091000Y-87457000D01*
X78541000Y-87457000D01*
X78598403Y-87468418D01*
G37*
G36*
X78598403Y-86198418D02*
G01*
X78647066Y-86230934D01*
X78679582Y-86279597D01*
X78691000Y-86337000D01*
X78691000Y-86637000D01*
X78679582Y-86694403D01*
X78647066Y-86743066D01*
X78598403Y-86775582D01*
X78541000Y-86787000D01*
X77091000Y-86787000D01*
X77033597Y-86775582D01*
X76984934Y-86743066D01*
X76952418Y-86694403D01*
X76941000Y-86637000D01*
X76941000Y-86337000D01*
X76952418Y-86279597D01*
X76984934Y-86230934D01*
X77033597Y-86198418D01*
X77091000Y-86187000D01*
X78541000Y-86187000D01*
X78598403Y-86198418D01*
G37*
G36*
X78598403Y-84928418D02*
G01*
X78647066Y-84960934D01*
X78679582Y-85009597D01*
X78691000Y-85067000D01*
X78691000Y-85367000D01*
X78679582Y-85424403D01*
X78647066Y-85473066D01*
X78598403Y-85505582D01*
X78541000Y-85517000D01*
X77091000Y-85517000D01*
X77033597Y-85505582D01*
X76984934Y-85473066D01*
X76952418Y-85424403D01*
X76941000Y-85367000D01*
X76941000Y-85067000D01*
X76952418Y-85009597D01*
X76984934Y-84960934D01*
X77033597Y-84928418D01*
X77091000Y-84917000D01*
X78541000Y-84917000D01*
X78598403Y-84928418D01*
G37*
G36*
X78598403Y-83658418D02*
G01*
X78647066Y-83690934D01*
X78679582Y-83739597D01*
X78691000Y-83797000D01*
X78691000Y-84097000D01*
X78679582Y-84154403D01*
X78647066Y-84203066D01*
X78598403Y-84235582D01*
X78541000Y-84247000D01*
X77091000Y-84247000D01*
X77033597Y-84235582D01*
X76984934Y-84203066D01*
X76952418Y-84154403D01*
X76941000Y-84097000D01*
X76941000Y-83797000D01*
X76952418Y-83739597D01*
X76984934Y-83690934D01*
X77033597Y-83658418D01*
X77091000Y-83647000D01*
X78541000Y-83647000D01*
X78598403Y-83658418D01*
G37*
D20*
X33772000Y-66852000D03*
X29972000Y-66852000D03*
X33772000Y-73152000D03*
X29972000Y-73152000D03*
X40376000Y-66852000D03*
X36576000Y-66852000D03*
X40376000Y-73152000D03*
X36576000Y-73152000D03*
D21*
X115805500Y-116869000D03*
X115155500Y-116869000D03*
X114505500Y-116869000D03*
X113855500Y-116869000D03*
X113205500Y-116869000D03*
X112555500Y-116869000D03*
X111905500Y-116869000D03*
X111905500Y-110969000D03*
X112555500Y-110969000D03*
X113205500Y-110969000D03*
X113855500Y-110969000D03*
X114505500Y-110969000D03*
X115155500Y-110969000D03*
X115805500Y-110969000D03*
D22*
X77025500Y-104212000D03*
X77025500Y-100512000D03*
G36*
X29375671Y-126727030D02*
G01*
X29456777Y-126781223D01*
X29510970Y-126862329D01*
X29530000Y-126958000D01*
X29530000Y-128058000D01*
X29510970Y-128153671D01*
X29456777Y-128234777D01*
X29375671Y-128288970D01*
X29280000Y-128308000D01*
X26280000Y-128308000D01*
X26184329Y-128288970D01*
X26103223Y-128234777D01*
X26049030Y-128153671D01*
X26030000Y-128058000D01*
X26030000Y-126958000D01*
X26049030Y-126862329D01*
X26103223Y-126781223D01*
X26184329Y-126727030D01*
X26280000Y-126708000D01*
X29280000Y-126708000D01*
X29375671Y-126727030D01*
G37*
G36*
X34775671Y-126727030D02*
G01*
X34856777Y-126781223D01*
X34910970Y-126862329D01*
X34930000Y-126958000D01*
X34930000Y-128058000D01*
X34910970Y-128153671D01*
X34856777Y-128234777D01*
X34775671Y-128288970D01*
X34680000Y-128308000D01*
X31680000Y-128308000D01*
X31584329Y-128288970D01*
X31503223Y-128234777D01*
X31449030Y-128153671D01*
X31430000Y-128058000D01*
X31430000Y-126958000D01*
X31449030Y-126862329D01*
X31503223Y-126781223D01*
X31584329Y-126727030D01*
X31680000Y-126708000D01*
X34680000Y-126708000D01*
X34775671Y-126727030D01*
G37*
D23*
X141440000Y-115824000D03*
X143040000Y-115824000D03*
X141440000Y-114300000D03*
X143040000Y-114300000D03*
X141440000Y-112776000D03*
X143040000Y-112776000D03*
X141440000Y-111252000D03*
X143040000Y-111252000D03*
G36*
X131645671Y-159065030D02*
G01*
X131726777Y-159119223D01*
X131780970Y-159200329D01*
X131800000Y-159296000D01*
X131800000Y-162296000D01*
X131780970Y-162391671D01*
X131726777Y-162472777D01*
X131645671Y-162526970D01*
X131550000Y-162546000D01*
X130450000Y-162546000D01*
X130354329Y-162526970D01*
X130273223Y-162472777D01*
X130219030Y-162391671D01*
X130200000Y-162296000D01*
X130200000Y-159296000D01*
X130219030Y-159200329D01*
X130273223Y-159119223D01*
X130354329Y-159065030D01*
X130450000Y-159046000D01*
X131550000Y-159046000D01*
X131645671Y-159065030D01*
G37*
G36*
X131645671Y-153665030D02*
G01*
X131726777Y-153719223D01*
X131780970Y-153800329D01*
X131800000Y-153896000D01*
X131800000Y-156896000D01*
X131780970Y-156991671D01*
X131726777Y-157072777D01*
X131645671Y-157126970D01*
X131550000Y-157146000D01*
X130450000Y-157146000D01*
X130354329Y-157126970D01*
X130273223Y-157072777D01*
X130219030Y-156991671D01*
X130200000Y-156896000D01*
X130200000Y-153896000D01*
X130219030Y-153800329D01*
X130273223Y-153719223D01*
X130354329Y-153665030D01*
X130450000Y-153646000D01*
X131550000Y-153646000D01*
X131645671Y-153665030D01*
G37*
G36*
X91645671Y-159115830D02*
G01*
X91726777Y-159170023D01*
X91780970Y-159251129D01*
X91800000Y-159346800D01*
X91800000Y-162346800D01*
X91780970Y-162442471D01*
X91726777Y-162523577D01*
X91645671Y-162577770D01*
X91550000Y-162596800D01*
X90450000Y-162596800D01*
X90354329Y-162577770D01*
X90273223Y-162523577D01*
X90219030Y-162442471D01*
X90200000Y-162346800D01*
X90200000Y-159346800D01*
X90219030Y-159251129D01*
X90273223Y-159170023D01*
X90354329Y-159115830D01*
X90450000Y-159096800D01*
X91550000Y-159096800D01*
X91645671Y-159115830D01*
G37*
G36*
X91645671Y-153715830D02*
G01*
X91726777Y-153770023D01*
X91780970Y-153851129D01*
X91800000Y-153946800D01*
X91800000Y-156946800D01*
X91780970Y-157042471D01*
X91726777Y-157123577D01*
X91645671Y-157177770D01*
X91550000Y-157196800D01*
X90450000Y-157196800D01*
X90354329Y-157177770D01*
X90273223Y-157123577D01*
X90219030Y-157042471D01*
X90200000Y-156946800D01*
X90200000Y-153946800D01*
X90219030Y-153851129D01*
X90273223Y-153770023D01*
X90354329Y-153715830D01*
X90450000Y-153696800D01*
X91550000Y-153696800D01*
X91645671Y-153715830D01*
G37*
G36*
X111747271Y-159115830D02*
G01*
X111828377Y-159170023D01*
X111882570Y-159251129D01*
X111901600Y-159346800D01*
X111901600Y-162346800D01*
X111882570Y-162442471D01*
X111828377Y-162523577D01*
X111747271Y-162577770D01*
X111651600Y-162596800D01*
X110551600Y-162596800D01*
X110455929Y-162577770D01*
X110374823Y-162523577D01*
X110320630Y-162442471D01*
X110301600Y-162346800D01*
X110301600Y-159346800D01*
X110320630Y-159251129D01*
X110374823Y-159170023D01*
X110455929Y-159115830D01*
X110551600Y-159096800D01*
X111651600Y-159096800D01*
X111747271Y-159115830D01*
G37*
G36*
X111747271Y-153715830D02*
G01*
X111828377Y-153770023D01*
X111882570Y-153851129D01*
X111901600Y-153946800D01*
X111901600Y-156946800D01*
X111882570Y-157042471D01*
X111828377Y-157123577D01*
X111747271Y-157177770D01*
X111651600Y-157196800D01*
X110551600Y-157196800D01*
X110455929Y-157177770D01*
X110374823Y-157123577D01*
X110320630Y-157042471D01*
X110301600Y-156946800D01*
X110301600Y-153946800D01*
X110320630Y-153851129D01*
X110374823Y-153770023D01*
X110455929Y-153715830D01*
X110551600Y-153696800D01*
X111651600Y-153696800D01*
X111747271Y-153715830D01*
G37*
G36*
X71137671Y-159065030D02*
G01*
X71218777Y-159119223D01*
X71272970Y-159200329D01*
X71292000Y-159296000D01*
X71292000Y-162296000D01*
X71272970Y-162391671D01*
X71218777Y-162472777D01*
X71137671Y-162526970D01*
X71042000Y-162546000D01*
X69942000Y-162546000D01*
X69846329Y-162526970D01*
X69765223Y-162472777D01*
X69711030Y-162391671D01*
X69692000Y-162296000D01*
X69692000Y-159296000D01*
X69711030Y-159200329D01*
X69765223Y-159119223D01*
X69846329Y-159065030D01*
X69942000Y-159046000D01*
X71042000Y-159046000D01*
X71137671Y-159065030D01*
G37*
G36*
X71137671Y-153665030D02*
G01*
X71218777Y-153719223D01*
X71272970Y-153800329D01*
X71292000Y-153896000D01*
X71292000Y-156896000D01*
X71272970Y-156991671D01*
X71218777Y-157072777D01*
X71137671Y-157126970D01*
X71042000Y-157146000D01*
X69942000Y-157146000D01*
X69846329Y-157126970D01*
X69765223Y-157072777D01*
X69711030Y-156991671D01*
X69692000Y-156896000D01*
X69692000Y-153896000D01*
X69711030Y-153800329D01*
X69765223Y-153719223D01*
X69846329Y-153665030D01*
X69942000Y-153646000D01*
X71042000Y-153646000D01*
X71137671Y-153665030D01*
G37*
G36*
X51455171Y-152651530D02*
G01*
X51536277Y-152705723D01*
X51590470Y-152786829D01*
X51609500Y-152882500D01*
X51609500Y-155882500D01*
X51590470Y-155978171D01*
X51536277Y-156059277D01*
X51455171Y-156113470D01*
X51359500Y-156132500D01*
X50259500Y-156132500D01*
X50163829Y-156113470D01*
X50082723Y-156059277D01*
X50028530Y-155978171D01*
X50009500Y-155882500D01*
X50009500Y-152882500D01*
X50028530Y-152786829D01*
X50082723Y-152705723D01*
X50163829Y-152651530D01*
X50259500Y-152632500D01*
X51359500Y-152632500D01*
X51455171Y-152651530D01*
G37*
G36*
X51455171Y-147251530D02*
G01*
X51536277Y-147305723D01*
X51590470Y-147386829D01*
X51609500Y-147482500D01*
X51609500Y-150482500D01*
X51590470Y-150578171D01*
X51536277Y-150659277D01*
X51455171Y-150713470D01*
X51359500Y-150732500D01*
X50259500Y-150732500D01*
X50163829Y-150713470D01*
X50082723Y-150659277D01*
X50028530Y-150578171D01*
X50009500Y-150482500D01*
X50009500Y-147482500D01*
X50028530Y-147386829D01*
X50082723Y-147305723D01*
X50163829Y-147251530D01*
X50259500Y-147232500D01*
X51359500Y-147232500D01*
X51455171Y-147251530D01*
G37*
G36*
X31645671Y-152969030D02*
G01*
X31726777Y-153023223D01*
X31780970Y-153104329D01*
X31800000Y-153200000D01*
X31800000Y-156200000D01*
X31780970Y-156295671D01*
X31726777Y-156376777D01*
X31645671Y-156430970D01*
X31550000Y-156450000D01*
X30450000Y-156450000D01*
X30354329Y-156430970D01*
X30273223Y-156376777D01*
X30219030Y-156295671D01*
X30200000Y-156200000D01*
X30200000Y-153200000D01*
X30219030Y-153104329D01*
X30273223Y-153023223D01*
X30354329Y-152969030D01*
X30450000Y-152950000D01*
X31550000Y-152950000D01*
X31645671Y-152969030D01*
G37*
G36*
X31645671Y-147569030D02*
G01*
X31726777Y-147623223D01*
X31780970Y-147704329D01*
X31800000Y-147800000D01*
X31800000Y-150800000D01*
X31780970Y-150895671D01*
X31726777Y-150976777D01*
X31645671Y-151030970D01*
X31550000Y-151050000D01*
X30450000Y-151050000D01*
X30354329Y-151030970D01*
X30273223Y-150976777D01*
X30219030Y-150895671D01*
X30200000Y-150800000D01*
X30200000Y-147800000D01*
X30219030Y-147704329D01*
X30273223Y-147623223D01*
X30354329Y-147569030D01*
X30450000Y-147550000D01*
X31550000Y-147550000D01*
X31645671Y-147569030D01*
G37*
D24*
X156886000Y-80264000D03*
X156886000Y-79164000D03*
X156886000Y-78064000D03*
X156886000Y-81364000D03*
X156886000Y-82464000D03*
X156886000Y-83564000D03*
X156886000Y-85764000D03*
X156886000Y-84664000D03*
X156886000Y-86864000D03*
D25*
X157386000Y-88014000D03*
D26*
X157386000Y-73414000D03*
D27*
X166986000Y-88014000D03*
X166986000Y-72514000D03*
D28*
X57810000Y-113524000D03*
X57810000Y-118124000D03*
X57810000Y-115824000D03*
D29*
X64110000Y-115824000D03*
G36*
X91992701Y-95692909D02*
G01*
X92017033Y-95709167D01*
X92033291Y-95733499D01*
X92039000Y-95762200D01*
X92039000Y-97212200D01*
X92033291Y-97240901D01*
X92017033Y-97265233D01*
X91992701Y-97281491D01*
X91964000Y-97287200D01*
X91814000Y-97287200D01*
X91785299Y-97281491D01*
X91760967Y-97265233D01*
X91744709Y-97240901D01*
X91739000Y-97212200D01*
X91739000Y-95762200D01*
X91744709Y-95733499D01*
X91760967Y-95709167D01*
X91785299Y-95692909D01*
X91814000Y-95687200D01*
X91964000Y-95687200D01*
X91992701Y-95692909D01*
G37*
G36*
X92492701Y-95692909D02*
G01*
X92517033Y-95709167D01*
X92533291Y-95733499D01*
X92539000Y-95762200D01*
X92539000Y-97212200D01*
X92533291Y-97240901D01*
X92517033Y-97265233D01*
X92492701Y-97281491D01*
X92464000Y-97287200D01*
X92314000Y-97287200D01*
X92285299Y-97281491D01*
X92260967Y-97265233D01*
X92244709Y-97240901D01*
X92239000Y-97212200D01*
X92239000Y-95762200D01*
X92244709Y-95733499D01*
X92260967Y-95709167D01*
X92285299Y-95692909D01*
X92314000Y-95687200D01*
X92464000Y-95687200D01*
X92492701Y-95692909D01*
G37*
G36*
X92992701Y-95692909D02*
G01*
X93017033Y-95709167D01*
X93033291Y-95733499D01*
X93039000Y-95762200D01*
X93039000Y-97212200D01*
X93033291Y-97240901D01*
X93017033Y-97265233D01*
X92992701Y-97281491D01*
X92964000Y-97287200D01*
X92814000Y-97287200D01*
X92785299Y-97281491D01*
X92760967Y-97265233D01*
X92744709Y-97240901D01*
X92739000Y-97212200D01*
X92739000Y-95762200D01*
X92744709Y-95733499D01*
X92760967Y-95709167D01*
X92785299Y-95692909D01*
X92814000Y-95687200D01*
X92964000Y-95687200D01*
X92992701Y-95692909D01*
G37*
G36*
X93492701Y-95692909D02*
G01*
X93517033Y-95709167D01*
X93533291Y-95733499D01*
X93539000Y-95762200D01*
X93539000Y-97212200D01*
X93533291Y-97240901D01*
X93517033Y-97265233D01*
X93492701Y-97281491D01*
X93464000Y-97287200D01*
X93314000Y-97287200D01*
X93285299Y-97281491D01*
X93260967Y-97265233D01*
X93244709Y-97240901D01*
X93239000Y-97212200D01*
X93239000Y-95762200D01*
X93244709Y-95733499D01*
X93260967Y-95709167D01*
X93285299Y-95692909D01*
X93314000Y-95687200D01*
X93464000Y-95687200D01*
X93492701Y-95692909D01*
G37*
G36*
X93992701Y-95692909D02*
G01*
X94017033Y-95709167D01*
X94033291Y-95733499D01*
X94039000Y-95762200D01*
X94039000Y-97212200D01*
X94033291Y-97240901D01*
X94017033Y-97265233D01*
X93992701Y-97281491D01*
X93964000Y-97287200D01*
X93814000Y-97287200D01*
X93785299Y-97281491D01*
X93760967Y-97265233D01*
X93744709Y-97240901D01*
X93739000Y-97212200D01*
X93739000Y-95762200D01*
X93744709Y-95733499D01*
X93760967Y-95709167D01*
X93785299Y-95692909D01*
X93814000Y-95687200D01*
X93964000Y-95687200D01*
X93992701Y-95692909D01*
G37*
G36*
X94492701Y-95692909D02*
G01*
X94517033Y-95709167D01*
X94533291Y-95733499D01*
X94539000Y-95762200D01*
X94539000Y-97212200D01*
X94533291Y-97240901D01*
X94517033Y-97265233D01*
X94492701Y-97281491D01*
X94464000Y-97287200D01*
X94314000Y-97287200D01*
X94285299Y-97281491D01*
X94260967Y-97265233D01*
X94244709Y-97240901D01*
X94239000Y-97212200D01*
X94239000Y-95762200D01*
X94244709Y-95733499D01*
X94260967Y-95709167D01*
X94285299Y-95692909D01*
X94314000Y-95687200D01*
X94464000Y-95687200D01*
X94492701Y-95692909D01*
G37*
G36*
X94992701Y-95692909D02*
G01*
X95017033Y-95709167D01*
X95033291Y-95733499D01*
X95039000Y-95762200D01*
X95039000Y-97212200D01*
X95033291Y-97240901D01*
X95017033Y-97265233D01*
X94992701Y-97281491D01*
X94964000Y-97287200D01*
X94814000Y-97287200D01*
X94785299Y-97281491D01*
X94760967Y-97265233D01*
X94744709Y-97240901D01*
X94739000Y-97212200D01*
X94739000Y-95762200D01*
X94744709Y-95733499D01*
X94760967Y-95709167D01*
X94785299Y-95692909D01*
X94814000Y-95687200D01*
X94964000Y-95687200D01*
X94992701Y-95692909D01*
G37*
G36*
X95492701Y-95692909D02*
G01*
X95517033Y-95709167D01*
X95533291Y-95733499D01*
X95539000Y-95762200D01*
X95539000Y-97212200D01*
X95533291Y-97240901D01*
X95517033Y-97265233D01*
X95492701Y-97281491D01*
X95464000Y-97287200D01*
X95314000Y-97287200D01*
X95285299Y-97281491D01*
X95260967Y-97265233D01*
X95244709Y-97240901D01*
X95239000Y-97212200D01*
X95239000Y-95762200D01*
X95244709Y-95733499D01*
X95260967Y-95709167D01*
X95285299Y-95692909D01*
X95314000Y-95687200D01*
X95464000Y-95687200D01*
X95492701Y-95692909D01*
G37*
G36*
X95992701Y-95692909D02*
G01*
X96017033Y-95709167D01*
X96033291Y-95733499D01*
X96039000Y-95762200D01*
X96039000Y-97212200D01*
X96033291Y-97240901D01*
X96017033Y-97265233D01*
X95992701Y-97281491D01*
X95964000Y-97287200D01*
X95814000Y-97287200D01*
X95785299Y-97281491D01*
X95760967Y-97265233D01*
X95744709Y-97240901D01*
X95739000Y-97212200D01*
X95739000Y-95762200D01*
X95744709Y-95733499D01*
X95760967Y-95709167D01*
X95785299Y-95692909D01*
X95814000Y-95687200D01*
X95964000Y-95687200D01*
X95992701Y-95692909D01*
G37*
G36*
X96492701Y-95692909D02*
G01*
X96517033Y-95709167D01*
X96533291Y-95733499D01*
X96539000Y-95762200D01*
X96539000Y-97212200D01*
X96533291Y-97240901D01*
X96517033Y-97265233D01*
X96492701Y-97281491D01*
X96464000Y-97287200D01*
X96314000Y-97287200D01*
X96285299Y-97281491D01*
X96260967Y-97265233D01*
X96244709Y-97240901D01*
X96239000Y-97212200D01*
X96239000Y-95762200D01*
X96244709Y-95733499D01*
X96260967Y-95709167D01*
X96285299Y-95692909D01*
X96314000Y-95687200D01*
X96464000Y-95687200D01*
X96492701Y-95692909D01*
G37*
G36*
X96992701Y-95692909D02*
G01*
X97017033Y-95709167D01*
X97033291Y-95733499D01*
X97039000Y-95762200D01*
X97039000Y-97212200D01*
X97033291Y-97240901D01*
X97017033Y-97265233D01*
X96992701Y-97281491D01*
X96964000Y-97287200D01*
X96814000Y-97287200D01*
X96785299Y-97281491D01*
X96760967Y-97265233D01*
X96744709Y-97240901D01*
X96739000Y-97212200D01*
X96739000Y-95762200D01*
X96744709Y-95733499D01*
X96760967Y-95709167D01*
X96785299Y-95692909D01*
X96814000Y-95687200D01*
X96964000Y-95687200D01*
X96992701Y-95692909D01*
G37*
G36*
X97492701Y-95692909D02*
G01*
X97517033Y-95709167D01*
X97533291Y-95733499D01*
X97539000Y-95762200D01*
X97539000Y-97212200D01*
X97533291Y-97240901D01*
X97517033Y-97265233D01*
X97492701Y-97281491D01*
X97464000Y-97287200D01*
X97314000Y-97287200D01*
X97285299Y-97281491D01*
X97260967Y-97265233D01*
X97244709Y-97240901D01*
X97239000Y-97212200D01*
X97239000Y-95762200D01*
X97244709Y-95733499D01*
X97260967Y-95709167D01*
X97285299Y-95692909D01*
X97314000Y-95687200D01*
X97464000Y-95687200D01*
X97492701Y-95692909D01*
G37*
G36*
X97992701Y-95692909D02*
G01*
X98017033Y-95709167D01*
X98033291Y-95733499D01*
X98039000Y-95762200D01*
X98039000Y-97212200D01*
X98033291Y-97240901D01*
X98017033Y-97265233D01*
X97992701Y-97281491D01*
X97964000Y-97287200D01*
X97814000Y-97287200D01*
X97785299Y-97281491D01*
X97760967Y-97265233D01*
X97744709Y-97240901D01*
X97739000Y-97212200D01*
X97739000Y-95762200D01*
X97744709Y-95733499D01*
X97760967Y-95709167D01*
X97785299Y-95692909D01*
X97814000Y-95687200D01*
X97964000Y-95687200D01*
X97992701Y-95692909D01*
G37*
G36*
X98492701Y-95692909D02*
G01*
X98517033Y-95709167D01*
X98533291Y-95733499D01*
X98539000Y-95762200D01*
X98539000Y-97212200D01*
X98533291Y-97240901D01*
X98517033Y-97265233D01*
X98492701Y-97281491D01*
X98464000Y-97287200D01*
X98314000Y-97287200D01*
X98285299Y-97281491D01*
X98260967Y-97265233D01*
X98244709Y-97240901D01*
X98239000Y-97212200D01*
X98239000Y-95762200D01*
X98244709Y-95733499D01*
X98260967Y-95709167D01*
X98285299Y-95692909D01*
X98314000Y-95687200D01*
X98464000Y-95687200D01*
X98492701Y-95692909D01*
G37*
G36*
X98992701Y-95692909D02*
G01*
X99017033Y-95709167D01*
X99033291Y-95733499D01*
X99039000Y-95762200D01*
X99039000Y-97212200D01*
X99033291Y-97240901D01*
X99017033Y-97265233D01*
X98992701Y-97281491D01*
X98964000Y-97287200D01*
X98814000Y-97287200D01*
X98785299Y-97281491D01*
X98760967Y-97265233D01*
X98744709Y-97240901D01*
X98739000Y-97212200D01*
X98739000Y-95762200D01*
X98744709Y-95733499D01*
X98760967Y-95709167D01*
X98785299Y-95692909D01*
X98814000Y-95687200D01*
X98964000Y-95687200D01*
X98992701Y-95692909D01*
G37*
G36*
X99492701Y-95692909D02*
G01*
X99517033Y-95709167D01*
X99533291Y-95733499D01*
X99539000Y-95762200D01*
X99539000Y-97212200D01*
X99533291Y-97240901D01*
X99517033Y-97265233D01*
X99492701Y-97281491D01*
X99464000Y-97287200D01*
X99314000Y-97287200D01*
X99285299Y-97281491D01*
X99260967Y-97265233D01*
X99244709Y-97240901D01*
X99239000Y-97212200D01*
X99239000Y-95762200D01*
X99244709Y-95733499D01*
X99260967Y-95709167D01*
X99285299Y-95692909D01*
X99314000Y-95687200D01*
X99464000Y-95687200D01*
X99492701Y-95692909D01*
G37*
G36*
X99992701Y-95692909D02*
G01*
X100017033Y-95709167D01*
X100033291Y-95733499D01*
X100039000Y-95762200D01*
X100039000Y-97212200D01*
X100033291Y-97240901D01*
X100017033Y-97265233D01*
X99992701Y-97281491D01*
X99964000Y-97287200D01*
X99814000Y-97287200D01*
X99785299Y-97281491D01*
X99760967Y-97265233D01*
X99744709Y-97240901D01*
X99739000Y-97212200D01*
X99739000Y-95762200D01*
X99744709Y-95733499D01*
X99760967Y-95709167D01*
X99785299Y-95692909D01*
X99814000Y-95687200D01*
X99964000Y-95687200D01*
X99992701Y-95692909D01*
G37*
G36*
X100492701Y-95692909D02*
G01*
X100517033Y-95709167D01*
X100533291Y-95733499D01*
X100539000Y-95762200D01*
X100539000Y-97212200D01*
X100533291Y-97240901D01*
X100517033Y-97265233D01*
X100492701Y-97281491D01*
X100464000Y-97287200D01*
X100314000Y-97287200D01*
X100285299Y-97281491D01*
X100260967Y-97265233D01*
X100244709Y-97240901D01*
X100239000Y-97212200D01*
X100239000Y-95762200D01*
X100244709Y-95733499D01*
X100260967Y-95709167D01*
X100285299Y-95692909D01*
X100314000Y-95687200D01*
X100464000Y-95687200D01*
X100492701Y-95692909D01*
G37*
G36*
X100992701Y-95692909D02*
G01*
X101017033Y-95709167D01*
X101033291Y-95733499D01*
X101039000Y-95762200D01*
X101039000Y-97212200D01*
X101033291Y-97240901D01*
X101017033Y-97265233D01*
X100992701Y-97281491D01*
X100964000Y-97287200D01*
X100814000Y-97287200D01*
X100785299Y-97281491D01*
X100760967Y-97265233D01*
X100744709Y-97240901D01*
X100739000Y-97212200D01*
X100739000Y-95762200D01*
X100744709Y-95733499D01*
X100760967Y-95709167D01*
X100785299Y-95692909D01*
X100814000Y-95687200D01*
X100964000Y-95687200D01*
X100992701Y-95692909D01*
G37*
G36*
X101492701Y-95692909D02*
G01*
X101517033Y-95709167D01*
X101533291Y-95733499D01*
X101539000Y-95762200D01*
X101539000Y-97212200D01*
X101533291Y-97240901D01*
X101517033Y-97265233D01*
X101492701Y-97281491D01*
X101464000Y-97287200D01*
X101314000Y-97287200D01*
X101285299Y-97281491D01*
X101260967Y-97265233D01*
X101244709Y-97240901D01*
X101239000Y-97212200D01*
X101239000Y-95762200D01*
X101244709Y-95733499D01*
X101260967Y-95709167D01*
X101285299Y-95692909D01*
X101314000Y-95687200D01*
X101464000Y-95687200D01*
X101492701Y-95692909D01*
G37*
G36*
X101992701Y-95692909D02*
G01*
X102017033Y-95709167D01*
X102033291Y-95733499D01*
X102039000Y-95762200D01*
X102039000Y-97212200D01*
X102033291Y-97240901D01*
X102017033Y-97265233D01*
X101992701Y-97281491D01*
X101964000Y-97287200D01*
X101814000Y-97287200D01*
X101785299Y-97281491D01*
X101760967Y-97265233D01*
X101744709Y-97240901D01*
X101739000Y-97212200D01*
X101739000Y-95762200D01*
X101744709Y-95733499D01*
X101760967Y-95709167D01*
X101785299Y-95692909D01*
X101814000Y-95687200D01*
X101964000Y-95687200D01*
X101992701Y-95692909D01*
G37*
G36*
X102492701Y-95692909D02*
G01*
X102517033Y-95709167D01*
X102533291Y-95733499D01*
X102539000Y-95762200D01*
X102539000Y-97212200D01*
X102533291Y-97240901D01*
X102517033Y-97265233D01*
X102492701Y-97281491D01*
X102464000Y-97287200D01*
X102314000Y-97287200D01*
X102285299Y-97281491D01*
X102260967Y-97265233D01*
X102244709Y-97240901D01*
X102239000Y-97212200D01*
X102239000Y-95762200D01*
X102244709Y-95733499D01*
X102260967Y-95709167D01*
X102285299Y-95692909D01*
X102314000Y-95687200D01*
X102464000Y-95687200D01*
X102492701Y-95692909D01*
G37*
G36*
X102992701Y-95692909D02*
G01*
X103017033Y-95709167D01*
X103033291Y-95733499D01*
X103039000Y-95762200D01*
X103039000Y-97212200D01*
X103033291Y-97240901D01*
X103017033Y-97265233D01*
X102992701Y-97281491D01*
X102964000Y-97287200D01*
X102814000Y-97287200D01*
X102785299Y-97281491D01*
X102760967Y-97265233D01*
X102744709Y-97240901D01*
X102739000Y-97212200D01*
X102739000Y-95762200D01*
X102744709Y-95733499D01*
X102760967Y-95709167D01*
X102785299Y-95692909D01*
X102814000Y-95687200D01*
X102964000Y-95687200D01*
X102992701Y-95692909D01*
G37*
G36*
X103492701Y-95692909D02*
G01*
X103517033Y-95709167D01*
X103533291Y-95733499D01*
X103539000Y-95762200D01*
X103539000Y-97212200D01*
X103533291Y-97240901D01*
X103517033Y-97265233D01*
X103492701Y-97281491D01*
X103464000Y-97287200D01*
X103314000Y-97287200D01*
X103285299Y-97281491D01*
X103260967Y-97265233D01*
X103244709Y-97240901D01*
X103239000Y-97212200D01*
X103239000Y-95762200D01*
X103244709Y-95733499D01*
X103260967Y-95709167D01*
X103285299Y-95692909D01*
X103314000Y-95687200D01*
X103464000Y-95687200D01*
X103492701Y-95692909D01*
G37*
G36*
X103992701Y-95692909D02*
G01*
X104017033Y-95709167D01*
X104033291Y-95733499D01*
X104039000Y-95762200D01*
X104039000Y-97212200D01*
X104033291Y-97240901D01*
X104017033Y-97265233D01*
X103992701Y-97281491D01*
X103964000Y-97287200D01*
X103814000Y-97287200D01*
X103785299Y-97281491D01*
X103760967Y-97265233D01*
X103744709Y-97240901D01*
X103739000Y-97212200D01*
X103739000Y-95762200D01*
X103744709Y-95733499D01*
X103760967Y-95709167D01*
X103785299Y-95692909D01*
X103814000Y-95687200D01*
X103964000Y-95687200D01*
X103992701Y-95692909D01*
G37*
G36*
X106317701Y-98017909D02*
G01*
X106342033Y-98034167D01*
X106358291Y-98058499D01*
X106364000Y-98087200D01*
X106364000Y-98237200D01*
X106358291Y-98265901D01*
X106342033Y-98290233D01*
X106317701Y-98306491D01*
X106289000Y-98312200D01*
X104839000Y-98312200D01*
X104810299Y-98306491D01*
X104785967Y-98290233D01*
X104769709Y-98265901D01*
X104764000Y-98237200D01*
X104764000Y-98087200D01*
X104769709Y-98058499D01*
X104785967Y-98034167D01*
X104810299Y-98017909D01*
X104839000Y-98012200D01*
X106289000Y-98012200D01*
X106317701Y-98017909D01*
G37*
G36*
X106317701Y-98517909D02*
G01*
X106342033Y-98534167D01*
X106358291Y-98558499D01*
X106364000Y-98587200D01*
X106364000Y-98737200D01*
X106358291Y-98765901D01*
X106342033Y-98790233D01*
X106317701Y-98806491D01*
X106289000Y-98812200D01*
X104839000Y-98812200D01*
X104810299Y-98806491D01*
X104785967Y-98790233D01*
X104769709Y-98765901D01*
X104764000Y-98737200D01*
X104764000Y-98587200D01*
X104769709Y-98558499D01*
X104785967Y-98534167D01*
X104810299Y-98517909D01*
X104839000Y-98512200D01*
X106289000Y-98512200D01*
X106317701Y-98517909D01*
G37*
G36*
X106317701Y-99017909D02*
G01*
X106342033Y-99034167D01*
X106358291Y-99058499D01*
X106364000Y-99087200D01*
X106364000Y-99237200D01*
X106358291Y-99265901D01*
X106342033Y-99290233D01*
X106317701Y-99306491D01*
X106289000Y-99312200D01*
X104839000Y-99312200D01*
X104810299Y-99306491D01*
X104785967Y-99290233D01*
X104769709Y-99265901D01*
X104764000Y-99237200D01*
X104764000Y-99087200D01*
X104769709Y-99058499D01*
X104785967Y-99034167D01*
X104810299Y-99017909D01*
X104839000Y-99012200D01*
X106289000Y-99012200D01*
X106317701Y-99017909D01*
G37*
G36*
X106317701Y-99517909D02*
G01*
X106342033Y-99534167D01*
X106358291Y-99558499D01*
X106364000Y-99587200D01*
X106364000Y-99737200D01*
X106358291Y-99765901D01*
X106342033Y-99790233D01*
X106317701Y-99806491D01*
X106289000Y-99812200D01*
X104839000Y-99812200D01*
X104810299Y-99806491D01*
X104785967Y-99790233D01*
X104769709Y-99765901D01*
X104764000Y-99737200D01*
X104764000Y-99587200D01*
X104769709Y-99558499D01*
X104785967Y-99534167D01*
X104810299Y-99517909D01*
X104839000Y-99512200D01*
X106289000Y-99512200D01*
X106317701Y-99517909D01*
G37*
G36*
X106317701Y-100017909D02*
G01*
X106342033Y-100034167D01*
X106358291Y-100058499D01*
X106364000Y-100087200D01*
X106364000Y-100237200D01*
X106358291Y-100265901D01*
X106342033Y-100290233D01*
X106317701Y-100306491D01*
X106289000Y-100312200D01*
X104839000Y-100312200D01*
X104810299Y-100306491D01*
X104785967Y-100290233D01*
X104769709Y-100265901D01*
X104764000Y-100237200D01*
X104764000Y-100087200D01*
X104769709Y-100058499D01*
X104785967Y-100034167D01*
X104810299Y-100017909D01*
X104839000Y-100012200D01*
X106289000Y-100012200D01*
X106317701Y-100017909D01*
G37*
G36*
X106317701Y-100517909D02*
G01*
X106342033Y-100534167D01*
X106358291Y-100558499D01*
X106364000Y-100587200D01*
X106364000Y-100737200D01*
X106358291Y-100765901D01*
X106342033Y-100790233D01*
X106317701Y-100806491D01*
X106289000Y-100812200D01*
X104839000Y-100812200D01*
X104810299Y-100806491D01*
X104785967Y-100790233D01*
X104769709Y-100765901D01*
X104764000Y-100737200D01*
X104764000Y-100587200D01*
X104769709Y-100558499D01*
X104785967Y-100534167D01*
X104810299Y-100517909D01*
X104839000Y-100512200D01*
X106289000Y-100512200D01*
X106317701Y-100517909D01*
G37*
G36*
X106317701Y-101017909D02*
G01*
X106342033Y-101034167D01*
X106358291Y-101058499D01*
X106364000Y-101087200D01*
X106364000Y-101237200D01*
X106358291Y-101265901D01*
X106342033Y-101290233D01*
X106317701Y-101306491D01*
X106289000Y-101312200D01*
X104839000Y-101312200D01*
X104810299Y-101306491D01*
X104785967Y-101290233D01*
X104769709Y-101265901D01*
X104764000Y-101237200D01*
X104764000Y-101087200D01*
X104769709Y-101058499D01*
X104785967Y-101034167D01*
X104810299Y-101017909D01*
X104839000Y-101012200D01*
X106289000Y-101012200D01*
X106317701Y-101017909D01*
G37*
G36*
X106317701Y-101517909D02*
G01*
X106342033Y-101534167D01*
X106358291Y-101558499D01*
X106364000Y-101587200D01*
X106364000Y-101737200D01*
X106358291Y-101765901D01*
X106342033Y-101790233D01*
X106317701Y-101806491D01*
X106289000Y-101812200D01*
X104839000Y-101812200D01*
X104810299Y-101806491D01*
X104785967Y-101790233D01*
X104769709Y-101765901D01*
X104764000Y-101737200D01*
X104764000Y-101587200D01*
X104769709Y-101558499D01*
X104785967Y-101534167D01*
X104810299Y-101517909D01*
X104839000Y-101512200D01*
X106289000Y-101512200D01*
X106317701Y-101517909D01*
G37*
G36*
X106317701Y-102017909D02*
G01*
X106342033Y-102034167D01*
X106358291Y-102058499D01*
X106364000Y-102087200D01*
X106364000Y-102237200D01*
X106358291Y-102265901D01*
X106342033Y-102290233D01*
X106317701Y-102306491D01*
X106289000Y-102312200D01*
X104839000Y-102312200D01*
X104810299Y-102306491D01*
X104785967Y-102290233D01*
X104769709Y-102265901D01*
X104764000Y-102237200D01*
X104764000Y-102087200D01*
X104769709Y-102058499D01*
X104785967Y-102034167D01*
X104810299Y-102017909D01*
X104839000Y-102012200D01*
X106289000Y-102012200D01*
X106317701Y-102017909D01*
G37*
G36*
X106317701Y-102517909D02*
G01*
X106342033Y-102534167D01*
X106358291Y-102558499D01*
X106364000Y-102587200D01*
X106364000Y-102737200D01*
X106358291Y-102765901D01*
X106342033Y-102790233D01*
X106317701Y-102806491D01*
X106289000Y-102812200D01*
X104839000Y-102812200D01*
X104810299Y-102806491D01*
X104785967Y-102790233D01*
X104769709Y-102765901D01*
X104764000Y-102737200D01*
X104764000Y-102587200D01*
X104769709Y-102558499D01*
X104785967Y-102534167D01*
X104810299Y-102517909D01*
X104839000Y-102512200D01*
X106289000Y-102512200D01*
X106317701Y-102517909D01*
G37*
G36*
X106317701Y-103017909D02*
G01*
X106342033Y-103034167D01*
X106358291Y-103058499D01*
X106364000Y-103087200D01*
X106364000Y-103237200D01*
X106358291Y-103265901D01*
X106342033Y-103290233D01*
X106317701Y-103306491D01*
X106289000Y-103312200D01*
X104839000Y-103312200D01*
X104810299Y-103306491D01*
X104785967Y-103290233D01*
X104769709Y-103265901D01*
X104764000Y-103237200D01*
X104764000Y-103087200D01*
X104769709Y-103058499D01*
X104785967Y-103034167D01*
X104810299Y-103017909D01*
X104839000Y-103012200D01*
X106289000Y-103012200D01*
X106317701Y-103017909D01*
G37*
G36*
X106317701Y-103517909D02*
G01*
X106342033Y-103534167D01*
X106358291Y-103558499D01*
X106364000Y-103587200D01*
X106364000Y-103737200D01*
X106358291Y-103765901D01*
X106342033Y-103790233D01*
X106317701Y-103806491D01*
X106289000Y-103812200D01*
X104839000Y-103812200D01*
X104810299Y-103806491D01*
X104785967Y-103790233D01*
X104769709Y-103765901D01*
X104764000Y-103737200D01*
X104764000Y-103587200D01*
X104769709Y-103558499D01*
X104785967Y-103534167D01*
X104810299Y-103517909D01*
X104839000Y-103512200D01*
X106289000Y-103512200D01*
X106317701Y-103517909D01*
G37*
G36*
X106317701Y-104017909D02*
G01*
X106342033Y-104034167D01*
X106358291Y-104058499D01*
X106364000Y-104087200D01*
X106364000Y-104237200D01*
X106358291Y-104265901D01*
X106342033Y-104290233D01*
X106317701Y-104306491D01*
X106289000Y-104312200D01*
X104839000Y-104312200D01*
X104810299Y-104306491D01*
X104785967Y-104290233D01*
X104769709Y-104265901D01*
X104764000Y-104237200D01*
X104764000Y-104087200D01*
X104769709Y-104058499D01*
X104785967Y-104034167D01*
X104810299Y-104017909D01*
X104839000Y-104012200D01*
X106289000Y-104012200D01*
X106317701Y-104017909D01*
G37*
G36*
X106317701Y-104517909D02*
G01*
X106342033Y-104534167D01*
X106358291Y-104558499D01*
X106364000Y-104587200D01*
X106364000Y-104737200D01*
X106358291Y-104765901D01*
X106342033Y-104790233D01*
X106317701Y-104806491D01*
X106289000Y-104812200D01*
X104839000Y-104812200D01*
X104810299Y-104806491D01*
X104785967Y-104790233D01*
X104769709Y-104765901D01*
X104764000Y-104737200D01*
X104764000Y-104587200D01*
X104769709Y-104558499D01*
X104785967Y-104534167D01*
X104810299Y-104517909D01*
X104839000Y-104512200D01*
X106289000Y-104512200D01*
X106317701Y-104517909D01*
G37*
G36*
X106317701Y-105017909D02*
G01*
X106342033Y-105034167D01*
X106358291Y-105058499D01*
X106364000Y-105087200D01*
X106364000Y-105237200D01*
X106358291Y-105265901D01*
X106342033Y-105290233D01*
X106317701Y-105306491D01*
X106289000Y-105312200D01*
X104839000Y-105312200D01*
X104810299Y-105306491D01*
X104785967Y-105290233D01*
X104769709Y-105265901D01*
X104764000Y-105237200D01*
X104764000Y-105087200D01*
X104769709Y-105058499D01*
X104785967Y-105034167D01*
X104810299Y-105017909D01*
X104839000Y-105012200D01*
X106289000Y-105012200D01*
X106317701Y-105017909D01*
G37*
G36*
X106317701Y-105517909D02*
G01*
X106342033Y-105534167D01*
X106358291Y-105558499D01*
X106364000Y-105587200D01*
X106364000Y-105737200D01*
X106358291Y-105765901D01*
X106342033Y-105790233D01*
X106317701Y-105806491D01*
X106289000Y-105812200D01*
X104839000Y-105812200D01*
X104810299Y-105806491D01*
X104785967Y-105790233D01*
X104769709Y-105765901D01*
X104764000Y-105737200D01*
X104764000Y-105587200D01*
X104769709Y-105558499D01*
X104785967Y-105534167D01*
X104810299Y-105517909D01*
X104839000Y-105512200D01*
X106289000Y-105512200D01*
X106317701Y-105517909D01*
G37*
G36*
X106317701Y-106017909D02*
G01*
X106342033Y-106034167D01*
X106358291Y-106058499D01*
X106364000Y-106087200D01*
X106364000Y-106237200D01*
X106358291Y-106265901D01*
X106342033Y-106290233D01*
X106317701Y-106306491D01*
X106289000Y-106312200D01*
X104839000Y-106312200D01*
X104810299Y-106306491D01*
X104785967Y-106290233D01*
X104769709Y-106265901D01*
X104764000Y-106237200D01*
X104764000Y-106087200D01*
X104769709Y-106058499D01*
X104785967Y-106034167D01*
X104810299Y-106017909D01*
X104839000Y-106012200D01*
X106289000Y-106012200D01*
X106317701Y-106017909D01*
G37*
G36*
X106317701Y-106517909D02*
G01*
X106342033Y-106534167D01*
X106358291Y-106558499D01*
X106364000Y-106587200D01*
X106364000Y-106737200D01*
X106358291Y-106765901D01*
X106342033Y-106790233D01*
X106317701Y-106806491D01*
X106289000Y-106812200D01*
X104839000Y-106812200D01*
X104810299Y-106806491D01*
X104785967Y-106790233D01*
X104769709Y-106765901D01*
X104764000Y-106737200D01*
X104764000Y-106587200D01*
X104769709Y-106558499D01*
X104785967Y-106534167D01*
X104810299Y-106517909D01*
X104839000Y-106512200D01*
X106289000Y-106512200D01*
X106317701Y-106517909D01*
G37*
G36*
X106317701Y-107017909D02*
G01*
X106342033Y-107034167D01*
X106358291Y-107058499D01*
X106364000Y-107087200D01*
X106364000Y-107237200D01*
X106358291Y-107265901D01*
X106342033Y-107290233D01*
X106317701Y-107306491D01*
X106289000Y-107312200D01*
X104839000Y-107312200D01*
X104810299Y-107306491D01*
X104785967Y-107290233D01*
X104769709Y-107265901D01*
X104764000Y-107237200D01*
X104764000Y-107087200D01*
X104769709Y-107058499D01*
X104785967Y-107034167D01*
X104810299Y-107017909D01*
X104839000Y-107012200D01*
X106289000Y-107012200D01*
X106317701Y-107017909D01*
G37*
G36*
X106317701Y-107517909D02*
G01*
X106342033Y-107534167D01*
X106358291Y-107558499D01*
X106364000Y-107587200D01*
X106364000Y-107737200D01*
X106358291Y-107765901D01*
X106342033Y-107790233D01*
X106317701Y-107806491D01*
X106289000Y-107812200D01*
X104839000Y-107812200D01*
X104810299Y-107806491D01*
X104785967Y-107790233D01*
X104769709Y-107765901D01*
X104764000Y-107737200D01*
X104764000Y-107587200D01*
X104769709Y-107558499D01*
X104785967Y-107534167D01*
X104810299Y-107517909D01*
X104839000Y-107512200D01*
X106289000Y-107512200D01*
X106317701Y-107517909D01*
G37*
G36*
X106317701Y-108017909D02*
G01*
X106342033Y-108034167D01*
X106358291Y-108058499D01*
X106364000Y-108087200D01*
X106364000Y-108237200D01*
X106358291Y-108265901D01*
X106342033Y-108290233D01*
X106317701Y-108306491D01*
X106289000Y-108312200D01*
X104839000Y-108312200D01*
X104810299Y-108306491D01*
X104785967Y-108290233D01*
X104769709Y-108265901D01*
X104764000Y-108237200D01*
X104764000Y-108087200D01*
X104769709Y-108058499D01*
X104785967Y-108034167D01*
X104810299Y-108017909D01*
X104839000Y-108012200D01*
X106289000Y-108012200D01*
X106317701Y-108017909D01*
G37*
G36*
X106317701Y-108517909D02*
G01*
X106342033Y-108534167D01*
X106358291Y-108558499D01*
X106364000Y-108587200D01*
X106364000Y-108737200D01*
X106358291Y-108765901D01*
X106342033Y-108790233D01*
X106317701Y-108806491D01*
X106289000Y-108812200D01*
X104839000Y-108812200D01*
X104810299Y-108806491D01*
X104785967Y-108790233D01*
X104769709Y-108765901D01*
X104764000Y-108737200D01*
X104764000Y-108587200D01*
X104769709Y-108558499D01*
X104785967Y-108534167D01*
X104810299Y-108517909D01*
X104839000Y-108512200D01*
X106289000Y-108512200D01*
X106317701Y-108517909D01*
G37*
G36*
X106317701Y-109017909D02*
G01*
X106342033Y-109034167D01*
X106358291Y-109058499D01*
X106364000Y-109087200D01*
X106364000Y-109237200D01*
X106358291Y-109265901D01*
X106342033Y-109290233D01*
X106317701Y-109306491D01*
X106289000Y-109312200D01*
X104839000Y-109312200D01*
X104810299Y-109306491D01*
X104785967Y-109290233D01*
X104769709Y-109265901D01*
X104764000Y-109237200D01*
X104764000Y-109087200D01*
X104769709Y-109058499D01*
X104785967Y-109034167D01*
X104810299Y-109017909D01*
X104839000Y-109012200D01*
X106289000Y-109012200D01*
X106317701Y-109017909D01*
G37*
G36*
X106317701Y-109517909D02*
G01*
X106342033Y-109534167D01*
X106358291Y-109558499D01*
X106364000Y-109587200D01*
X106364000Y-109737200D01*
X106358291Y-109765901D01*
X106342033Y-109790233D01*
X106317701Y-109806491D01*
X106289000Y-109812200D01*
X104839000Y-109812200D01*
X104810299Y-109806491D01*
X104785967Y-109790233D01*
X104769709Y-109765901D01*
X104764000Y-109737200D01*
X104764000Y-109587200D01*
X104769709Y-109558499D01*
X104785967Y-109534167D01*
X104810299Y-109517909D01*
X104839000Y-109512200D01*
X106289000Y-109512200D01*
X106317701Y-109517909D01*
G37*
G36*
X106317701Y-110017909D02*
G01*
X106342033Y-110034167D01*
X106358291Y-110058499D01*
X106364000Y-110087200D01*
X106364000Y-110237200D01*
X106358291Y-110265901D01*
X106342033Y-110290233D01*
X106317701Y-110306491D01*
X106289000Y-110312200D01*
X104839000Y-110312200D01*
X104810299Y-110306491D01*
X104785967Y-110290233D01*
X104769709Y-110265901D01*
X104764000Y-110237200D01*
X104764000Y-110087200D01*
X104769709Y-110058499D01*
X104785967Y-110034167D01*
X104810299Y-110017909D01*
X104839000Y-110012200D01*
X106289000Y-110012200D01*
X106317701Y-110017909D01*
G37*
G36*
X103992701Y-111042909D02*
G01*
X104017033Y-111059167D01*
X104033291Y-111083499D01*
X104039000Y-111112200D01*
X104039000Y-112562200D01*
X104033291Y-112590901D01*
X104017033Y-112615233D01*
X103992701Y-112631491D01*
X103964000Y-112637200D01*
X103814000Y-112637200D01*
X103785299Y-112631491D01*
X103760967Y-112615233D01*
X103744709Y-112590901D01*
X103739000Y-112562200D01*
X103739000Y-111112200D01*
X103744709Y-111083499D01*
X103760967Y-111059167D01*
X103785299Y-111042909D01*
X103814000Y-111037200D01*
X103964000Y-111037200D01*
X103992701Y-111042909D01*
G37*
G36*
X103492701Y-111042909D02*
G01*
X103517033Y-111059167D01*
X103533291Y-111083499D01*
X103539000Y-111112200D01*
X103539000Y-112562200D01*
X103533291Y-112590901D01*
X103517033Y-112615233D01*
X103492701Y-112631491D01*
X103464000Y-112637200D01*
X103314000Y-112637200D01*
X103285299Y-112631491D01*
X103260967Y-112615233D01*
X103244709Y-112590901D01*
X103239000Y-112562200D01*
X103239000Y-111112200D01*
X103244709Y-111083499D01*
X103260967Y-111059167D01*
X103285299Y-111042909D01*
X103314000Y-111037200D01*
X103464000Y-111037200D01*
X103492701Y-111042909D01*
G37*
G36*
X102992701Y-111042909D02*
G01*
X103017033Y-111059167D01*
X103033291Y-111083499D01*
X103039000Y-111112200D01*
X103039000Y-112562200D01*
X103033291Y-112590901D01*
X103017033Y-112615233D01*
X102992701Y-112631491D01*
X102964000Y-112637200D01*
X102814000Y-112637200D01*
X102785299Y-112631491D01*
X102760967Y-112615233D01*
X102744709Y-112590901D01*
X102739000Y-112562200D01*
X102739000Y-111112200D01*
X102744709Y-111083499D01*
X102760967Y-111059167D01*
X102785299Y-111042909D01*
X102814000Y-111037200D01*
X102964000Y-111037200D01*
X102992701Y-111042909D01*
G37*
G36*
X102492701Y-111042909D02*
G01*
X102517033Y-111059167D01*
X102533291Y-111083499D01*
X102539000Y-111112200D01*
X102539000Y-112562200D01*
X102533291Y-112590901D01*
X102517033Y-112615233D01*
X102492701Y-112631491D01*
X102464000Y-112637200D01*
X102314000Y-112637200D01*
X102285299Y-112631491D01*
X102260967Y-112615233D01*
X102244709Y-112590901D01*
X102239000Y-112562200D01*
X102239000Y-111112200D01*
X102244709Y-111083499D01*
X102260967Y-111059167D01*
X102285299Y-111042909D01*
X102314000Y-111037200D01*
X102464000Y-111037200D01*
X102492701Y-111042909D01*
G37*
G36*
X101992701Y-111042909D02*
G01*
X102017033Y-111059167D01*
X102033291Y-111083499D01*
X102039000Y-111112200D01*
X102039000Y-112562200D01*
X102033291Y-112590901D01*
X102017033Y-112615233D01*
X101992701Y-112631491D01*
X101964000Y-112637200D01*
X101814000Y-112637200D01*
X101785299Y-112631491D01*
X101760967Y-112615233D01*
X101744709Y-112590901D01*
X101739000Y-112562200D01*
X101739000Y-111112200D01*
X101744709Y-111083499D01*
X101760967Y-111059167D01*
X101785299Y-111042909D01*
X101814000Y-111037200D01*
X101964000Y-111037200D01*
X101992701Y-111042909D01*
G37*
G36*
X101492701Y-111042909D02*
G01*
X101517033Y-111059167D01*
X101533291Y-111083499D01*
X101539000Y-111112200D01*
X101539000Y-112562200D01*
X101533291Y-112590901D01*
X101517033Y-112615233D01*
X101492701Y-112631491D01*
X101464000Y-112637200D01*
X101314000Y-112637200D01*
X101285299Y-112631491D01*
X101260967Y-112615233D01*
X101244709Y-112590901D01*
X101239000Y-112562200D01*
X101239000Y-111112200D01*
X101244709Y-111083499D01*
X101260967Y-111059167D01*
X101285299Y-111042909D01*
X101314000Y-111037200D01*
X101464000Y-111037200D01*
X101492701Y-111042909D01*
G37*
G36*
X100992701Y-111042909D02*
G01*
X101017033Y-111059167D01*
X101033291Y-111083499D01*
X101039000Y-111112200D01*
X101039000Y-112562200D01*
X101033291Y-112590901D01*
X101017033Y-112615233D01*
X100992701Y-112631491D01*
X100964000Y-112637200D01*
X100814000Y-112637200D01*
X100785299Y-112631491D01*
X100760967Y-112615233D01*
X100744709Y-112590901D01*
X100739000Y-112562200D01*
X100739000Y-111112200D01*
X100744709Y-111083499D01*
X100760967Y-111059167D01*
X100785299Y-111042909D01*
X100814000Y-111037200D01*
X100964000Y-111037200D01*
X100992701Y-111042909D01*
G37*
G36*
X100492701Y-111042909D02*
G01*
X100517033Y-111059167D01*
X100533291Y-111083499D01*
X100539000Y-111112200D01*
X100539000Y-112562200D01*
X100533291Y-112590901D01*
X100517033Y-112615233D01*
X100492701Y-112631491D01*
X100464000Y-112637200D01*
X100314000Y-112637200D01*
X100285299Y-112631491D01*
X100260967Y-112615233D01*
X100244709Y-112590901D01*
X100239000Y-112562200D01*
X100239000Y-111112200D01*
X100244709Y-111083499D01*
X100260967Y-111059167D01*
X100285299Y-111042909D01*
X100314000Y-111037200D01*
X100464000Y-111037200D01*
X100492701Y-111042909D01*
G37*
G36*
X99992701Y-111042909D02*
G01*
X100017033Y-111059167D01*
X100033291Y-111083499D01*
X100039000Y-111112200D01*
X100039000Y-112562200D01*
X100033291Y-112590901D01*
X100017033Y-112615233D01*
X99992701Y-112631491D01*
X99964000Y-112637200D01*
X99814000Y-112637200D01*
X99785299Y-112631491D01*
X99760967Y-112615233D01*
X99744709Y-112590901D01*
X99739000Y-112562200D01*
X99739000Y-111112200D01*
X99744709Y-111083499D01*
X99760967Y-111059167D01*
X99785299Y-111042909D01*
X99814000Y-111037200D01*
X99964000Y-111037200D01*
X99992701Y-111042909D01*
G37*
G36*
X99492701Y-111042909D02*
G01*
X99517033Y-111059167D01*
X99533291Y-111083499D01*
X99539000Y-111112200D01*
X99539000Y-112562200D01*
X99533291Y-112590901D01*
X99517033Y-112615233D01*
X99492701Y-112631491D01*
X99464000Y-112637200D01*
X99314000Y-112637200D01*
X99285299Y-112631491D01*
X99260967Y-112615233D01*
X99244709Y-112590901D01*
X99239000Y-112562200D01*
X99239000Y-111112200D01*
X99244709Y-111083499D01*
X99260967Y-111059167D01*
X99285299Y-111042909D01*
X99314000Y-111037200D01*
X99464000Y-111037200D01*
X99492701Y-111042909D01*
G37*
G36*
X98992701Y-111042909D02*
G01*
X99017033Y-111059167D01*
X99033291Y-111083499D01*
X99039000Y-111112200D01*
X99039000Y-112562200D01*
X99033291Y-112590901D01*
X99017033Y-112615233D01*
X98992701Y-112631491D01*
X98964000Y-112637200D01*
X98814000Y-112637200D01*
X98785299Y-112631491D01*
X98760967Y-112615233D01*
X98744709Y-112590901D01*
X98739000Y-112562200D01*
X98739000Y-111112200D01*
X98744709Y-111083499D01*
X98760967Y-111059167D01*
X98785299Y-111042909D01*
X98814000Y-111037200D01*
X98964000Y-111037200D01*
X98992701Y-111042909D01*
G37*
G36*
X98492701Y-111042909D02*
G01*
X98517033Y-111059167D01*
X98533291Y-111083499D01*
X98539000Y-111112200D01*
X98539000Y-112562200D01*
X98533291Y-112590901D01*
X98517033Y-112615233D01*
X98492701Y-112631491D01*
X98464000Y-112637200D01*
X98314000Y-112637200D01*
X98285299Y-112631491D01*
X98260967Y-112615233D01*
X98244709Y-112590901D01*
X98239000Y-112562200D01*
X98239000Y-111112200D01*
X98244709Y-111083499D01*
X98260967Y-111059167D01*
X98285299Y-111042909D01*
X98314000Y-111037200D01*
X98464000Y-111037200D01*
X98492701Y-111042909D01*
G37*
G36*
X97992701Y-111042909D02*
G01*
X98017033Y-111059167D01*
X98033291Y-111083499D01*
X98039000Y-111112200D01*
X98039000Y-112562200D01*
X98033291Y-112590901D01*
X98017033Y-112615233D01*
X97992701Y-112631491D01*
X97964000Y-112637200D01*
X97814000Y-112637200D01*
X97785299Y-112631491D01*
X97760967Y-112615233D01*
X97744709Y-112590901D01*
X97739000Y-112562200D01*
X97739000Y-111112200D01*
X97744709Y-111083499D01*
X97760967Y-111059167D01*
X97785299Y-111042909D01*
X97814000Y-111037200D01*
X97964000Y-111037200D01*
X97992701Y-111042909D01*
G37*
G36*
X97492701Y-111042909D02*
G01*
X97517033Y-111059167D01*
X97533291Y-111083499D01*
X97539000Y-111112200D01*
X97539000Y-112562200D01*
X97533291Y-112590901D01*
X97517033Y-112615233D01*
X97492701Y-112631491D01*
X97464000Y-112637200D01*
X97314000Y-112637200D01*
X97285299Y-112631491D01*
X97260967Y-112615233D01*
X97244709Y-112590901D01*
X97239000Y-112562200D01*
X97239000Y-111112200D01*
X97244709Y-111083499D01*
X97260967Y-111059167D01*
X97285299Y-111042909D01*
X97314000Y-111037200D01*
X97464000Y-111037200D01*
X97492701Y-111042909D01*
G37*
G36*
X96992701Y-111042909D02*
G01*
X97017033Y-111059167D01*
X97033291Y-111083499D01*
X97039000Y-111112200D01*
X97039000Y-112562200D01*
X97033291Y-112590901D01*
X97017033Y-112615233D01*
X96992701Y-112631491D01*
X96964000Y-112637200D01*
X96814000Y-112637200D01*
X96785299Y-112631491D01*
X96760967Y-112615233D01*
X96744709Y-112590901D01*
X96739000Y-112562200D01*
X96739000Y-111112200D01*
X96744709Y-111083499D01*
X96760967Y-111059167D01*
X96785299Y-111042909D01*
X96814000Y-111037200D01*
X96964000Y-111037200D01*
X96992701Y-111042909D01*
G37*
G36*
X96492701Y-111042909D02*
G01*
X96517033Y-111059167D01*
X96533291Y-111083499D01*
X96539000Y-111112200D01*
X96539000Y-112562200D01*
X96533291Y-112590901D01*
X96517033Y-112615233D01*
X96492701Y-112631491D01*
X96464000Y-112637200D01*
X96314000Y-112637200D01*
X96285299Y-112631491D01*
X96260967Y-112615233D01*
X96244709Y-112590901D01*
X96239000Y-112562200D01*
X96239000Y-111112200D01*
X96244709Y-111083499D01*
X96260967Y-111059167D01*
X96285299Y-111042909D01*
X96314000Y-111037200D01*
X96464000Y-111037200D01*
X96492701Y-111042909D01*
G37*
G36*
X95992701Y-111042909D02*
G01*
X96017033Y-111059167D01*
X96033291Y-111083499D01*
X96039000Y-111112200D01*
X96039000Y-112562200D01*
X96033291Y-112590901D01*
X96017033Y-112615233D01*
X95992701Y-112631491D01*
X95964000Y-112637200D01*
X95814000Y-112637200D01*
X95785299Y-112631491D01*
X95760967Y-112615233D01*
X95744709Y-112590901D01*
X95739000Y-112562200D01*
X95739000Y-111112200D01*
X95744709Y-111083499D01*
X95760967Y-111059167D01*
X95785299Y-111042909D01*
X95814000Y-111037200D01*
X95964000Y-111037200D01*
X95992701Y-111042909D01*
G37*
G36*
X95492701Y-111042909D02*
G01*
X95517033Y-111059167D01*
X95533291Y-111083499D01*
X95539000Y-111112200D01*
X95539000Y-112562200D01*
X95533291Y-112590901D01*
X95517033Y-112615233D01*
X95492701Y-112631491D01*
X95464000Y-112637200D01*
X95314000Y-112637200D01*
X95285299Y-112631491D01*
X95260967Y-112615233D01*
X95244709Y-112590901D01*
X95239000Y-112562200D01*
X95239000Y-111112200D01*
X95244709Y-111083499D01*
X95260967Y-111059167D01*
X95285299Y-111042909D01*
X95314000Y-111037200D01*
X95464000Y-111037200D01*
X95492701Y-111042909D01*
G37*
G36*
X94992701Y-111042909D02*
G01*
X95017033Y-111059167D01*
X95033291Y-111083499D01*
X95039000Y-111112200D01*
X95039000Y-112562200D01*
X95033291Y-112590901D01*
X95017033Y-112615233D01*
X94992701Y-112631491D01*
X94964000Y-112637200D01*
X94814000Y-112637200D01*
X94785299Y-112631491D01*
X94760967Y-112615233D01*
X94744709Y-112590901D01*
X94739000Y-112562200D01*
X94739000Y-111112200D01*
X94744709Y-111083499D01*
X94760967Y-111059167D01*
X94785299Y-111042909D01*
X94814000Y-111037200D01*
X94964000Y-111037200D01*
X94992701Y-111042909D01*
G37*
G36*
X94492701Y-111042909D02*
G01*
X94517033Y-111059167D01*
X94533291Y-111083499D01*
X94539000Y-111112200D01*
X94539000Y-112562200D01*
X94533291Y-112590901D01*
X94517033Y-112615233D01*
X94492701Y-112631491D01*
X94464000Y-112637200D01*
X94314000Y-112637200D01*
X94285299Y-112631491D01*
X94260967Y-112615233D01*
X94244709Y-112590901D01*
X94239000Y-112562200D01*
X94239000Y-111112200D01*
X94244709Y-111083499D01*
X94260967Y-111059167D01*
X94285299Y-111042909D01*
X94314000Y-111037200D01*
X94464000Y-111037200D01*
X94492701Y-111042909D01*
G37*
G36*
X93992701Y-111042909D02*
G01*
X94017033Y-111059167D01*
X94033291Y-111083499D01*
X94039000Y-111112200D01*
X94039000Y-112562200D01*
X94033291Y-112590901D01*
X94017033Y-112615233D01*
X93992701Y-112631491D01*
X93964000Y-112637200D01*
X93814000Y-112637200D01*
X93785299Y-112631491D01*
X93760967Y-112615233D01*
X93744709Y-112590901D01*
X93739000Y-112562200D01*
X93739000Y-111112200D01*
X93744709Y-111083499D01*
X93760967Y-111059167D01*
X93785299Y-111042909D01*
X93814000Y-111037200D01*
X93964000Y-111037200D01*
X93992701Y-111042909D01*
G37*
G36*
X93492701Y-111042909D02*
G01*
X93517033Y-111059167D01*
X93533291Y-111083499D01*
X93539000Y-111112200D01*
X93539000Y-112562200D01*
X93533291Y-112590901D01*
X93517033Y-112615233D01*
X93492701Y-112631491D01*
X93464000Y-112637200D01*
X93314000Y-112637200D01*
X93285299Y-112631491D01*
X93260967Y-112615233D01*
X93244709Y-112590901D01*
X93239000Y-112562200D01*
X93239000Y-111112200D01*
X93244709Y-111083499D01*
X93260967Y-111059167D01*
X93285299Y-111042909D01*
X93314000Y-111037200D01*
X93464000Y-111037200D01*
X93492701Y-111042909D01*
G37*
G36*
X92992701Y-111042909D02*
G01*
X93017033Y-111059167D01*
X93033291Y-111083499D01*
X93039000Y-111112200D01*
X93039000Y-112562200D01*
X93033291Y-112590901D01*
X93017033Y-112615233D01*
X92992701Y-112631491D01*
X92964000Y-112637200D01*
X92814000Y-112637200D01*
X92785299Y-112631491D01*
X92760967Y-112615233D01*
X92744709Y-112590901D01*
X92739000Y-112562200D01*
X92739000Y-111112200D01*
X92744709Y-111083499D01*
X92760967Y-111059167D01*
X92785299Y-111042909D01*
X92814000Y-111037200D01*
X92964000Y-111037200D01*
X92992701Y-111042909D01*
G37*
G36*
X92492701Y-111042909D02*
G01*
X92517033Y-111059167D01*
X92533291Y-111083499D01*
X92539000Y-111112200D01*
X92539000Y-112562200D01*
X92533291Y-112590901D01*
X92517033Y-112615233D01*
X92492701Y-112631491D01*
X92464000Y-112637200D01*
X92314000Y-112637200D01*
X92285299Y-112631491D01*
X92260967Y-112615233D01*
X92244709Y-112590901D01*
X92239000Y-112562200D01*
X92239000Y-111112200D01*
X92244709Y-111083499D01*
X92260967Y-111059167D01*
X92285299Y-111042909D01*
X92314000Y-111037200D01*
X92464000Y-111037200D01*
X92492701Y-111042909D01*
G37*
G36*
X91992701Y-111042909D02*
G01*
X92017033Y-111059167D01*
X92033291Y-111083499D01*
X92039000Y-111112200D01*
X92039000Y-112562200D01*
X92033291Y-112590901D01*
X92017033Y-112615233D01*
X91992701Y-112631491D01*
X91964000Y-112637200D01*
X91814000Y-112637200D01*
X91785299Y-112631491D01*
X91760967Y-112615233D01*
X91744709Y-112590901D01*
X91739000Y-112562200D01*
X91739000Y-111112200D01*
X91744709Y-111083499D01*
X91760967Y-111059167D01*
X91785299Y-111042909D01*
X91814000Y-111037200D01*
X91964000Y-111037200D01*
X91992701Y-111042909D01*
G37*
G36*
X90967701Y-110017909D02*
G01*
X90992033Y-110034167D01*
X91008291Y-110058499D01*
X91014000Y-110087200D01*
X91014000Y-110237200D01*
X91008291Y-110265901D01*
X90992033Y-110290233D01*
X90967701Y-110306491D01*
X90939000Y-110312200D01*
X89489000Y-110312200D01*
X89460299Y-110306491D01*
X89435967Y-110290233D01*
X89419709Y-110265901D01*
X89414000Y-110237200D01*
X89414000Y-110087200D01*
X89419709Y-110058499D01*
X89435967Y-110034167D01*
X89460299Y-110017909D01*
X89489000Y-110012200D01*
X90939000Y-110012200D01*
X90967701Y-110017909D01*
G37*
G36*
X90967701Y-109517909D02*
G01*
X90992033Y-109534167D01*
X91008291Y-109558499D01*
X91014000Y-109587200D01*
X91014000Y-109737200D01*
X91008291Y-109765901D01*
X90992033Y-109790233D01*
X90967701Y-109806491D01*
X90939000Y-109812200D01*
X89489000Y-109812200D01*
X89460299Y-109806491D01*
X89435967Y-109790233D01*
X89419709Y-109765901D01*
X89414000Y-109737200D01*
X89414000Y-109587200D01*
X89419709Y-109558499D01*
X89435967Y-109534167D01*
X89460299Y-109517909D01*
X89489000Y-109512200D01*
X90939000Y-109512200D01*
X90967701Y-109517909D01*
G37*
G36*
X90967701Y-109017909D02*
G01*
X90992033Y-109034167D01*
X91008291Y-109058499D01*
X91014000Y-109087200D01*
X91014000Y-109237200D01*
X91008291Y-109265901D01*
X90992033Y-109290233D01*
X90967701Y-109306491D01*
X90939000Y-109312200D01*
X89489000Y-109312200D01*
X89460299Y-109306491D01*
X89435967Y-109290233D01*
X89419709Y-109265901D01*
X89414000Y-109237200D01*
X89414000Y-109087200D01*
X89419709Y-109058499D01*
X89435967Y-109034167D01*
X89460299Y-109017909D01*
X89489000Y-109012200D01*
X90939000Y-109012200D01*
X90967701Y-109017909D01*
G37*
G36*
X90967701Y-108517909D02*
G01*
X90992033Y-108534167D01*
X91008291Y-108558499D01*
X91014000Y-108587200D01*
X91014000Y-108737200D01*
X91008291Y-108765901D01*
X90992033Y-108790233D01*
X90967701Y-108806491D01*
X90939000Y-108812200D01*
X89489000Y-108812200D01*
X89460299Y-108806491D01*
X89435967Y-108790233D01*
X89419709Y-108765901D01*
X89414000Y-108737200D01*
X89414000Y-108587200D01*
X89419709Y-108558499D01*
X89435967Y-108534167D01*
X89460299Y-108517909D01*
X89489000Y-108512200D01*
X90939000Y-108512200D01*
X90967701Y-108517909D01*
G37*
G36*
X90967701Y-108017909D02*
G01*
X90992033Y-108034167D01*
X91008291Y-108058499D01*
X91014000Y-108087200D01*
X91014000Y-108237200D01*
X91008291Y-108265901D01*
X90992033Y-108290233D01*
X90967701Y-108306491D01*
X90939000Y-108312200D01*
X89489000Y-108312200D01*
X89460299Y-108306491D01*
X89435967Y-108290233D01*
X89419709Y-108265901D01*
X89414000Y-108237200D01*
X89414000Y-108087200D01*
X89419709Y-108058499D01*
X89435967Y-108034167D01*
X89460299Y-108017909D01*
X89489000Y-108012200D01*
X90939000Y-108012200D01*
X90967701Y-108017909D01*
G37*
G36*
X90967701Y-107517909D02*
G01*
X90992033Y-107534167D01*
X91008291Y-107558499D01*
X91014000Y-107587200D01*
X91014000Y-107737200D01*
X91008291Y-107765901D01*
X90992033Y-107790233D01*
X90967701Y-107806491D01*
X90939000Y-107812200D01*
X89489000Y-107812200D01*
X89460299Y-107806491D01*
X89435967Y-107790233D01*
X89419709Y-107765901D01*
X89414000Y-107737200D01*
X89414000Y-107587200D01*
X89419709Y-107558499D01*
X89435967Y-107534167D01*
X89460299Y-107517909D01*
X89489000Y-107512200D01*
X90939000Y-107512200D01*
X90967701Y-107517909D01*
G37*
G36*
X90967701Y-107017909D02*
G01*
X90992033Y-107034167D01*
X91008291Y-107058499D01*
X91014000Y-107087200D01*
X91014000Y-107237200D01*
X91008291Y-107265901D01*
X90992033Y-107290233D01*
X90967701Y-107306491D01*
X90939000Y-107312200D01*
X89489000Y-107312200D01*
X89460299Y-107306491D01*
X89435967Y-107290233D01*
X89419709Y-107265901D01*
X89414000Y-107237200D01*
X89414000Y-107087200D01*
X89419709Y-107058499D01*
X89435967Y-107034167D01*
X89460299Y-107017909D01*
X89489000Y-107012200D01*
X90939000Y-107012200D01*
X90967701Y-107017909D01*
G37*
G36*
X90967701Y-106517909D02*
G01*
X90992033Y-106534167D01*
X91008291Y-106558499D01*
X91014000Y-106587200D01*
X91014000Y-106737200D01*
X91008291Y-106765901D01*
X90992033Y-106790233D01*
X90967701Y-106806491D01*
X90939000Y-106812200D01*
X89489000Y-106812200D01*
X89460299Y-106806491D01*
X89435967Y-106790233D01*
X89419709Y-106765901D01*
X89414000Y-106737200D01*
X89414000Y-106587200D01*
X89419709Y-106558499D01*
X89435967Y-106534167D01*
X89460299Y-106517909D01*
X89489000Y-106512200D01*
X90939000Y-106512200D01*
X90967701Y-106517909D01*
G37*
G36*
X90967701Y-106017909D02*
G01*
X90992033Y-106034167D01*
X91008291Y-106058499D01*
X91014000Y-106087200D01*
X91014000Y-106237200D01*
X91008291Y-106265901D01*
X90992033Y-106290233D01*
X90967701Y-106306491D01*
X90939000Y-106312200D01*
X89489000Y-106312200D01*
X89460299Y-106306491D01*
X89435967Y-106290233D01*
X89419709Y-106265901D01*
X89414000Y-106237200D01*
X89414000Y-106087200D01*
X89419709Y-106058499D01*
X89435967Y-106034167D01*
X89460299Y-106017909D01*
X89489000Y-106012200D01*
X90939000Y-106012200D01*
X90967701Y-106017909D01*
G37*
G36*
X90967701Y-105517909D02*
G01*
X90992033Y-105534167D01*
X91008291Y-105558499D01*
X91014000Y-105587200D01*
X91014000Y-105737200D01*
X91008291Y-105765901D01*
X90992033Y-105790233D01*
X90967701Y-105806491D01*
X90939000Y-105812200D01*
X89489000Y-105812200D01*
X89460299Y-105806491D01*
X89435967Y-105790233D01*
X89419709Y-105765901D01*
X89414000Y-105737200D01*
X89414000Y-105587200D01*
X89419709Y-105558499D01*
X89435967Y-105534167D01*
X89460299Y-105517909D01*
X89489000Y-105512200D01*
X90939000Y-105512200D01*
X90967701Y-105517909D01*
G37*
G36*
X90967701Y-105017909D02*
G01*
X90992033Y-105034167D01*
X91008291Y-105058499D01*
X91014000Y-105087200D01*
X91014000Y-105237200D01*
X91008291Y-105265901D01*
X90992033Y-105290233D01*
X90967701Y-105306491D01*
X90939000Y-105312200D01*
X89489000Y-105312200D01*
X89460299Y-105306491D01*
X89435967Y-105290233D01*
X89419709Y-105265901D01*
X89414000Y-105237200D01*
X89414000Y-105087200D01*
X89419709Y-105058499D01*
X89435967Y-105034167D01*
X89460299Y-105017909D01*
X89489000Y-105012200D01*
X90939000Y-105012200D01*
X90967701Y-105017909D01*
G37*
G36*
X90967701Y-104517909D02*
G01*
X90992033Y-104534167D01*
X91008291Y-104558499D01*
X91014000Y-104587200D01*
X91014000Y-104737200D01*
X91008291Y-104765901D01*
X90992033Y-104790233D01*
X90967701Y-104806491D01*
X90939000Y-104812200D01*
X89489000Y-104812200D01*
X89460299Y-104806491D01*
X89435967Y-104790233D01*
X89419709Y-104765901D01*
X89414000Y-104737200D01*
X89414000Y-104587200D01*
X89419709Y-104558499D01*
X89435967Y-104534167D01*
X89460299Y-104517909D01*
X89489000Y-104512200D01*
X90939000Y-104512200D01*
X90967701Y-104517909D01*
G37*
G36*
X90967701Y-104017909D02*
G01*
X90992033Y-104034167D01*
X91008291Y-104058499D01*
X91014000Y-104087200D01*
X91014000Y-104237200D01*
X91008291Y-104265901D01*
X90992033Y-104290233D01*
X90967701Y-104306491D01*
X90939000Y-104312200D01*
X89489000Y-104312200D01*
X89460299Y-104306491D01*
X89435967Y-104290233D01*
X89419709Y-104265901D01*
X89414000Y-104237200D01*
X89414000Y-104087200D01*
X89419709Y-104058499D01*
X89435967Y-104034167D01*
X89460299Y-104017909D01*
X89489000Y-104012200D01*
X90939000Y-104012200D01*
X90967701Y-104017909D01*
G37*
G36*
X90967701Y-103517909D02*
G01*
X90992033Y-103534167D01*
X91008291Y-103558499D01*
X91014000Y-103587200D01*
X91014000Y-103737200D01*
X91008291Y-103765901D01*
X90992033Y-103790233D01*
X90967701Y-103806491D01*
X90939000Y-103812200D01*
X89489000Y-103812200D01*
X89460299Y-103806491D01*
X89435967Y-103790233D01*
X89419709Y-103765901D01*
X89414000Y-103737200D01*
X89414000Y-103587200D01*
X89419709Y-103558499D01*
X89435967Y-103534167D01*
X89460299Y-103517909D01*
X89489000Y-103512200D01*
X90939000Y-103512200D01*
X90967701Y-103517909D01*
G37*
G36*
X90967701Y-103017909D02*
G01*
X90992033Y-103034167D01*
X91008291Y-103058499D01*
X91014000Y-103087200D01*
X91014000Y-103237200D01*
X91008291Y-103265901D01*
X90992033Y-103290233D01*
X90967701Y-103306491D01*
X90939000Y-103312200D01*
X89489000Y-103312200D01*
X89460299Y-103306491D01*
X89435967Y-103290233D01*
X89419709Y-103265901D01*
X89414000Y-103237200D01*
X89414000Y-103087200D01*
X89419709Y-103058499D01*
X89435967Y-103034167D01*
X89460299Y-103017909D01*
X89489000Y-103012200D01*
X90939000Y-103012200D01*
X90967701Y-103017909D01*
G37*
G36*
X90967701Y-102517909D02*
G01*
X90992033Y-102534167D01*
X91008291Y-102558499D01*
X91014000Y-102587200D01*
X91014000Y-102737200D01*
X91008291Y-102765901D01*
X90992033Y-102790233D01*
X90967701Y-102806491D01*
X90939000Y-102812200D01*
X89489000Y-102812200D01*
X89460299Y-102806491D01*
X89435967Y-102790233D01*
X89419709Y-102765901D01*
X89414000Y-102737200D01*
X89414000Y-102587200D01*
X89419709Y-102558499D01*
X89435967Y-102534167D01*
X89460299Y-102517909D01*
X89489000Y-102512200D01*
X90939000Y-102512200D01*
X90967701Y-102517909D01*
G37*
G36*
X90967701Y-102017909D02*
G01*
X90992033Y-102034167D01*
X91008291Y-102058499D01*
X91014000Y-102087200D01*
X91014000Y-102237200D01*
X91008291Y-102265901D01*
X90992033Y-102290233D01*
X90967701Y-102306491D01*
X90939000Y-102312200D01*
X89489000Y-102312200D01*
X89460299Y-102306491D01*
X89435967Y-102290233D01*
X89419709Y-102265901D01*
X89414000Y-102237200D01*
X89414000Y-102087200D01*
X89419709Y-102058499D01*
X89435967Y-102034167D01*
X89460299Y-102017909D01*
X89489000Y-102012200D01*
X90939000Y-102012200D01*
X90967701Y-102017909D01*
G37*
G36*
X90967701Y-101517909D02*
G01*
X90992033Y-101534167D01*
X91008291Y-101558499D01*
X91014000Y-101587200D01*
X91014000Y-101737200D01*
X91008291Y-101765901D01*
X90992033Y-101790233D01*
X90967701Y-101806491D01*
X90939000Y-101812200D01*
X89489000Y-101812200D01*
X89460299Y-101806491D01*
X89435967Y-101790233D01*
X89419709Y-101765901D01*
X89414000Y-101737200D01*
X89414000Y-101587200D01*
X89419709Y-101558499D01*
X89435967Y-101534167D01*
X89460299Y-101517909D01*
X89489000Y-101512200D01*
X90939000Y-101512200D01*
X90967701Y-101517909D01*
G37*
G36*
X90967701Y-101017909D02*
G01*
X90992033Y-101034167D01*
X91008291Y-101058499D01*
X91014000Y-101087200D01*
X91014000Y-101237200D01*
X91008291Y-101265901D01*
X90992033Y-101290233D01*
X90967701Y-101306491D01*
X90939000Y-101312200D01*
X89489000Y-101312200D01*
X89460299Y-101306491D01*
X89435967Y-101290233D01*
X89419709Y-101265901D01*
X89414000Y-101237200D01*
X89414000Y-101087200D01*
X89419709Y-101058499D01*
X89435967Y-101034167D01*
X89460299Y-101017909D01*
X89489000Y-101012200D01*
X90939000Y-101012200D01*
X90967701Y-101017909D01*
G37*
G36*
X90967701Y-100517909D02*
G01*
X90992033Y-100534167D01*
X91008291Y-100558499D01*
X91014000Y-100587200D01*
X91014000Y-100737200D01*
X91008291Y-100765901D01*
X90992033Y-100790233D01*
X90967701Y-100806491D01*
X90939000Y-100812200D01*
X89489000Y-100812200D01*
X89460299Y-100806491D01*
X89435967Y-100790233D01*
X89419709Y-100765901D01*
X89414000Y-100737200D01*
X89414000Y-100587200D01*
X89419709Y-100558499D01*
X89435967Y-100534167D01*
X89460299Y-100517909D01*
X89489000Y-100512200D01*
X90939000Y-100512200D01*
X90967701Y-100517909D01*
G37*
G36*
X90967701Y-100017909D02*
G01*
X90992033Y-100034167D01*
X91008291Y-100058499D01*
X91014000Y-100087200D01*
X91014000Y-100237200D01*
X91008291Y-100265901D01*
X90992033Y-100290233D01*
X90967701Y-100306491D01*
X90939000Y-100312200D01*
X89489000Y-100312200D01*
X89460299Y-100306491D01*
X89435967Y-100290233D01*
X89419709Y-100265901D01*
X89414000Y-100237200D01*
X89414000Y-100087200D01*
X89419709Y-100058499D01*
X89435967Y-100034167D01*
X89460299Y-100017909D01*
X89489000Y-100012200D01*
X90939000Y-100012200D01*
X90967701Y-100017909D01*
G37*
G36*
X90967701Y-99517909D02*
G01*
X90992033Y-99534167D01*
X91008291Y-99558499D01*
X91014000Y-99587200D01*
X91014000Y-99737200D01*
X91008291Y-99765901D01*
X90992033Y-99790233D01*
X90967701Y-99806491D01*
X90939000Y-99812200D01*
X89489000Y-99812200D01*
X89460299Y-99806491D01*
X89435967Y-99790233D01*
X89419709Y-99765901D01*
X89414000Y-99737200D01*
X89414000Y-99587200D01*
X89419709Y-99558499D01*
X89435967Y-99534167D01*
X89460299Y-99517909D01*
X89489000Y-99512200D01*
X90939000Y-99512200D01*
X90967701Y-99517909D01*
G37*
G36*
X90967701Y-99017909D02*
G01*
X90992033Y-99034167D01*
X91008291Y-99058499D01*
X91014000Y-99087200D01*
X91014000Y-99237200D01*
X91008291Y-99265901D01*
X90992033Y-99290233D01*
X90967701Y-99306491D01*
X90939000Y-99312200D01*
X89489000Y-99312200D01*
X89460299Y-99306491D01*
X89435967Y-99290233D01*
X89419709Y-99265901D01*
X89414000Y-99237200D01*
X89414000Y-99087200D01*
X89419709Y-99058499D01*
X89435967Y-99034167D01*
X89460299Y-99017909D01*
X89489000Y-99012200D01*
X90939000Y-99012200D01*
X90967701Y-99017909D01*
G37*
G36*
X90967701Y-98517909D02*
G01*
X90992033Y-98534167D01*
X91008291Y-98558499D01*
X91014000Y-98587200D01*
X91014000Y-98737200D01*
X91008291Y-98765901D01*
X90992033Y-98790233D01*
X90967701Y-98806491D01*
X90939000Y-98812200D01*
X89489000Y-98812200D01*
X89460299Y-98806491D01*
X89435967Y-98790233D01*
X89419709Y-98765901D01*
X89414000Y-98737200D01*
X89414000Y-98587200D01*
X89419709Y-98558499D01*
X89435967Y-98534167D01*
X89460299Y-98517909D01*
X89489000Y-98512200D01*
X90939000Y-98512200D01*
X90967701Y-98517909D01*
G37*
G36*
X90967701Y-98017909D02*
G01*
X90992033Y-98034167D01*
X91008291Y-98058499D01*
X91014000Y-98087200D01*
X91014000Y-98237200D01*
X91008291Y-98265901D01*
X90992033Y-98290233D01*
X90967701Y-98306491D01*
X90939000Y-98312200D01*
X89489000Y-98312200D01*
X89460299Y-98306491D01*
X89435967Y-98290233D01*
X89419709Y-98265901D01*
X89414000Y-98237200D01*
X89414000Y-98087200D01*
X89419709Y-98058499D01*
X89435967Y-98034167D01*
X89460299Y-98017909D01*
X89489000Y-98012200D01*
X90939000Y-98012200D01*
X90967701Y-98017909D01*
G37*
D30*
X117377000Y-85045000D03*
X117377000Y-85695000D03*
X117377000Y-86345000D03*
X117377000Y-86995000D03*
X117377000Y-87645000D03*
X117377000Y-88295000D03*
X117377000Y-88945000D03*
X111477000Y-88945000D03*
X111477000Y-88295000D03*
X111477000Y-87645000D03*
X111477000Y-86995000D03*
X111477000Y-86345000D03*
X111477000Y-85695000D03*
X111477000Y-85045000D03*
D31*
X89474000Y-69326000D03*
X91374000Y-69326000D03*
X90424000Y-67326000D03*
X80838000Y-69326000D03*
X82738000Y-69326000D03*
X81788000Y-67326000D03*
X72202000Y-69326000D03*
X74102000Y-69326000D03*
X73152000Y-67326000D03*
X63058000Y-69326000D03*
X64958000Y-69326000D03*
X64008000Y-67326000D03*
X98110000Y-69326000D03*
X100010000Y-69326000D03*
X99060000Y-67326000D03*
D32*
X154316000Y-87052000D03*
D33*
X154316000Y-86252000D03*
D32*
X154316000Y-84652000D03*
D33*
X154316000Y-85452000D03*
D32*
X152516000Y-87052000D03*
D33*
X152516000Y-85452000D03*
X152516000Y-86252000D03*
D32*
X152516000Y-84652000D03*
X154316000Y-80702000D03*
D33*
X154316000Y-79902000D03*
D32*
X154316000Y-78302000D03*
D33*
X154316000Y-79102000D03*
D32*
X152516000Y-80702000D03*
D33*
X152516000Y-79102000D03*
X152516000Y-79902000D03*
D32*
X152516000Y-78302000D03*
D34*
X41636800Y-93029200D03*
D35*
X40836800Y-93029200D03*
D34*
X39236800Y-93029200D03*
D35*
X40036800Y-93029200D03*
D34*
X41636800Y-94829200D03*
D35*
X40036800Y-94829200D03*
X40836800Y-94829200D03*
D34*
X39236800Y-94829200D03*
X60331200Y-92927600D03*
D35*
X59531200Y-92927600D03*
D34*
X57931200Y-92927600D03*
D35*
X58731200Y-92927600D03*
D34*
X60331200Y-94727600D03*
D35*
X58731200Y-94727600D03*
X59531200Y-94727600D03*
D34*
X57931200Y-94727600D03*
D19*
X87655500Y-69342000D03*
X86080500Y-69342000D03*
X89636500Y-70866000D03*
X91211500Y-70866000D03*
X146075500Y-118872000D03*
X144500500Y-118872000D03*
D14*
X111506000Y-121564500D03*
X111506000Y-119989500D03*
D19*
X79019500Y-69342000D03*
X77444500Y-69342000D03*
X81000500Y-70866000D03*
X82575500Y-70866000D03*
D14*
X113030000Y-121564500D03*
X113030000Y-119989500D03*
D19*
X70383500Y-69342000D03*
X68808500Y-69342000D03*
X72364500Y-70866000D03*
X73939500Y-70866000D03*
X146075500Y-120396000D03*
X144500500Y-120396000D03*
D14*
X112522000Y-106781500D03*
X112522000Y-108356500D03*
X114046000Y-106781500D03*
X114046000Y-108356500D03*
D19*
X61239500Y-69342000D03*
X59664500Y-69342000D03*
X63220500Y-70866000D03*
X64795500Y-70866000D03*
X146075500Y-117348000D03*
X144500500Y-117348000D03*
X146075500Y-121920000D03*
X144500500Y-121920000D03*
D14*
X114554000Y-121564500D03*
X114554000Y-119989500D03*
X115570000Y-106781500D03*
X115570000Y-108356500D03*
D19*
X96291500Y-69342000D03*
X94716500Y-69342000D03*
X98272500Y-70866000D03*
X99847500Y-70866000D03*
D14*
X116078000Y-121564500D03*
X116078000Y-119989500D03*
X117094000Y-106781500D03*
X117094000Y-108356500D03*
X33020000Y-143535500D03*
X33020000Y-141960500D03*
X102108000Y-117881500D03*
X102108000Y-116306500D03*
D19*
X112801500Y-104140000D03*
X111226500Y-104140000D03*
D14*
X35052000Y-89687500D03*
X35052000Y-88112500D03*
X42164000Y-89687500D03*
X42164000Y-88112500D03*
X30480000Y-88112500D03*
X30480000Y-89687500D03*
X37592000Y-88112500D03*
X37592000Y-89687500D03*
X48768000Y-72923500D03*
X48768000Y-71348500D03*
X49276000Y-89687500D03*
X49276000Y-88112500D03*
X56388000Y-89687500D03*
X56388000Y-88112500D03*
X44196000Y-71348500D03*
X44196000Y-72923500D03*
X44704000Y-88112500D03*
X44704000Y-89687500D03*
X51816000Y-88087000D03*
X51816000Y-89662000D03*
X55880000Y-72923500D03*
X55880000Y-71348500D03*
X63500000Y-89687500D03*
X63500000Y-88112500D03*
X70866000Y-89687500D03*
X70866000Y-88112500D03*
X51308000Y-71348500D03*
X51308000Y-72923500D03*
X58928000Y-88112500D03*
X58928000Y-89687500D03*
X66294000Y-88112500D03*
X66294000Y-89687500D03*
D19*
X147853500Y-68834000D03*
X146278500Y-68834000D03*
X121945500Y-68834000D03*
X120370500Y-68834000D03*
X147853500Y-67310000D03*
X146278500Y-67310000D03*
X121945500Y-67310000D03*
X120370500Y-67310000D03*
X139217500Y-68834000D03*
X137642500Y-68834000D03*
X113309500Y-68834000D03*
X111734500Y-68834000D03*
X139217500Y-67310000D03*
X137642500Y-67310000D03*
X113309500Y-67310000D03*
X111734500Y-67310000D03*
X130581500Y-68834000D03*
X129006500Y-68834000D03*
X104673500Y-68834000D03*
X103098500Y-68834000D03*
X130581500Y-67310000D03*
X129006500Y-67310000D03*
X104673500Y-67310000D03*
X103098500Y-67310000D03*
X146075500Y-115824000D03*
X144500500Y-115824000D03*
X146075500Y-114300000D03*
X144500500Y-114300000D03*
X146075500Y-112776000D03*
X144500500Y-112776000D03*
X146075500Y-111252000D03*
X144500500Y-111252000D03*
X163550500Y-63246000D03*
X165125500Y-63246000D03*
X165125500Y-66294000D03*
X163550500Y-66294000D03*
X165125500Y-67818000D03*
X163550500Y-67818000D03*
X165125500Y-64770000D03*
X163550500Y-64770000D03*
X36017000Y-75184000D03*
X37592000Y-75184000D03*
X89380500Y-87941800D03*
X87805500Y-87941800D03*
X89433500Y-86360000D03*
X87858500Y-86360000D03*
D14*
X97409000Y-118008500D03*
X97409000Y-116433500D03*
D19*
X81635500Y-104902000D03*
X83210500Y-104902000D03*
X34315500Y-75184000D03*
X32740500Y-75184000D03*
D14*
X81026000Y-101447500D03*
X81026000Y-103022500D03*
X94869000Y-92227500D03*
X94869000Y-90652500D03*
D36*
X170300400Y-62751200D03*
X170300400Y-70751200D03*
D37*
X170300400Y-65551200D03*
X170300400Y-67951200D03*
D38*
X167625400Y-65451200D03*
X167625400Y-66101200D03*
X167625400Y-66751200D03*
X167625400Y-67401200D03*
X167625400Y-68051200D03*
D39*
X155194000Y-148334000D03*
X155194000Y-140464000D03*
X149606000Y-125732000D03*
X149606000Y-133602000D03*
X155194000Y-125861000D03*
X155194000Y-133731000D03*
D19*
X165125500Y-69342000D03*
X163550500Y-69342000D03*
D40*
X87610000Y-67310000D03*
X85110000Y-67310000D03*
X161798000Y-102763000D03*
X161798000Y-105263000D03*
D23*
X141440000Y-118872000D03*
X143040000Y-118872000D03*
D40*
X78974000Y-67310000D03*
X76474000Y-67310000D03*
X70338000Y-67310000D03*
X67838000Y-67310000D03*
X161798000Y-111653000D03*
X161798000Y-114153000D03*
D23*
X141440000Y-120396000D03*
X143040000Y-120396000D03*
D40*
X61428000Y-67310000D03*
X58928000Y-67310000D03*
X161798000Y-94254000D03*
X161798000Y-96754000D03*
X159258000Y-122321000D03*
X159258000Y-124821000D03*
D23*
X141440000Y-117348000D03*
X143040000Y-117348000D03*
X141440000Y-121920000D03*
X143040000Y-121920000D03*
D40*
X96246000Y-67310000D03*
X93746000Y-67310000D03*
D23*
X33566000Y-89662000D03*
X31966000Y-89662000D03*
X40678000Y-89662000D03*
X39078000Y-89662000D03*
X47282000Y-72898000D03*
X45682000Y-72898000D03*
X47790000Y-89662000D03*
X46190000Y-89662000D03*
X54902000Y-89662000D03*
X53302000Y-89662000D03*
X54394000Y-72898000D03*
X52794000Y-72898000D03*
X62014000Y-89662000D03*
X60414000Y-89662000D03*
X69380000Y-89662000D03*
X67780000Y-89662000D03*
D31*
X150622000Y-69326000D03*
X149672000Y-67326000D03*
X151572000Y-67326000D03*
X124714000Y-69326000D03*
X123764000Y-67326000D03*
X125664000Y-67326000D03*
X141986000Y-69326000D03*
X141036000Y-67326000D03*
X142936000Y-67326000D03*
X116078000Y-69326000D03*
X115128000Y-67326000D03*
X117028000Y-67326000D03*
X133350000Y-69326000D03*
X132400000Y-67326000D03*
X134300000Y-67326000D03*
X107442000Y-69326000D03*
X106492000Y-67326000D03*
X108392000Y-67326000D03*
D41*
X161258000Y-70358000D03*
X157258000Y-70358000D03*
D14*
X119126000Y-117500500D03*
X119126000Y-115925500D03*
X117602000Y-117500500D03*
X117602000Y-115925500D03*
D42*
X151638000Y-104651000D03*
X151638000Y-101851000D03*
X151638000Y-113411000D03*
X151638000Y-110611000D03*
X151638000Y-96015000D03*
X151638000Y-93215000D03*
X159258000Y-126743000D03*
X159258000Y-129543000D03*
D19*
X33553500Y-88138000D03*
X31978500Y-88138000D03*
X40665500Y-88138000D03*
X39090500Y-88138000D03*
X47269500Y-71374000D03*
X45694500Y-71374000D03*
X47777500Y-88138000D03*
X46202500Y-88138000D03*
X54864000Y-88138000D03*
X53289000Y-88138000D03*
X54381500Y-71374000D03*
X52806500Y-71374000D03*
X62001500Y-88138000D03*
X60426500Y-88138000D03*
X69367500Y-88138000D03*
X67792500Y-88138000D03*
X147853500Y-70358000D03*
X146278500Y-70358000D03*
X121945500Y-70358000D03*
X120370500Y-70358000D03*
X139217500Y-70358000D03*
X137642500Y-70358000D03*
X113309500Y-70358000D03*
X111734500Y-70358000D03*
X130581500Y-70358000D03*
X129006500Y-70358000D03*
X104673500Y-70358000D03*
X103098500Y-70358000D03*
D14*
X53848000Y-117119500D03*
X53848000Y-115544500D03*
X66548000Y-118821000D03*
X66548000Y-120396000D03*
D19*
X64567000Y-120396000D03*
X62992000Y-120396000D03*
D14*
X55372000Y-118592500D03*
X55372000Y-120167500D03*
X53848000Y-118592500D03*
X53848000Y-120167500D03*
D19*
X163550500Y-61722000D03*
X165125500Y-61722000D03*
X154203500Y-82296000D03*
X152628500Y-82296000D03*
X117526000Y-81915000D03*
X115951000Y-81915000D03*
X117526000Y-83439000D03*
X115951000Y-83439000D03*
X86766500Y-108966000D03*
X85191500Y-108966000D03*
D14*
X105283000Y-116306500D03*
X105283000Y-117881500D03*
D19*
X86766500Y-106934000D03*
X85191500Y-106934000D03*
X90779500Y-93726000D03*
X92354500Y-93726000D03*
X86118500Y-82867500D03*
X87693500Y-82867500D03*
D14*
X92964000Y-115544500D03*
X92964000Y-117119500D03*
X108331000Y-96494500D03*
X108331000Y-98069500D03*
D19*
X86766500Y-103378000D03*
X85191500Y-103378000D03*
X83210500Y-107950000D03*
X81635500Y-107950000D03*
X83210500Y-106426000D03*
X81635500Y-106426000D03*
X109067500Y-99568000D03*
X110642500Y-99568000D03*
D14*
X77000000Y-98450000D03*
X77000000Y-96875000D03*
X103759000Y-116306500D03*
X103759000Y-117881500D03*
D19*
X31267500Y-75184000D03*
X29692500Y-75184000D03*
M02*
