M48
; DRILL file {KiCad 5.99.0-unknown-eb819a3b25~139~ubuntu20.04.1} date Sun 10 Oct 2021 07:22:47 PM PDT
; FORMAT={-:-/ absolute / metric / decimal}
; #@! TF.CreationDate,2021-10-10T19:22:47-07:00
; #@! TF.GenerationSoftware,Kicad,Pcbnew,5.99.0-unknown-eb819a3b25~139~ubuntu20.04.1
; #@! TF.FileFunction,NonPlated,1,2,NPTH
FMAT,2
METRIC
; #@! TA.AperFunction,NonPlated,NPTH,ComponentDrill
T1C0.500
; #@! TA.AperFunction,NonPlated,NPTH,ComponentDrill
T2C1.000
; #@! TA.AperFunction,NonPlated,NPTH,ComponentDrill
T3C1.152
; #@! TA.AperFunction,NonPlated,NPTH,ComponentDrill
T4C2.350
; #@! TA.AperFunction,NonPlated,NPTH,ComponentDrill
T5C3.200
; #@! TA.AperFunction,NonPlated,NPTH,ComponentDrill
T6C3.250
%
G90
G05
T1
X145.036Y98.698
X145.036Y94.698
T2
X1.986Y43.649
X1.986Y35.669
T3
X7.786Y102.349
X7.786Y2.249
X146.886Y7.849
X147.186Y102.949
T4
X18.342Y18.181
X18.342Y9.031
X38.342Y18.181
X38.342Y9.031
X58.342Y18.181
X58.342Y9.031
X78.342Y18.181
X78.342Y9.031
X98.342Y18.181
X98.342Y9.031
X118.342Y18.181
X118.342Y9.031
T5
X3.81Y100.457
X3.81Y3.937
X18.342Y35.831
X18.342Y4.181
X38.342Y35.831
X38.342Y4.181
X58.342Y35.831
X58.342Y4.181
X78.342Y35.831
X78.342Y4.181
X98.342Y35.831
X98.342Y4.181
X118.342Y35.831
X118.342Y4.181
X134.874Y100.457
X145.034Y3.937
T6
X141.286Y86.839
X141.286Y76.679
T0
M30
