M48
; DRILL file {KiCad 5.99.0-unknown-d20d310~86~ubuntu19.10.1} date Fri 13 Dec 2019 01:40:05 PM PST
; FORMAT={-:-/ absolute / metric / decimal}
; #@! TF.CreationDate,2019-12-13T13:40:05-08:00
; #@! TF.GenerationSoftware,Kicad,Pcbnew,5.99.0-unknown-d20d310~86~ubuntu19.10.1
; #@! TF.FileFunction,NonPlated,1,2,NPTH
FMAT,2
METRIC
T1C0.500
T2C1.000
T3C1.152
T4C2.350
T5C3.200
%
G90
G05
T1
X168.15Y-64.751
X168.15Y-68.751
T2
X167.386Y-77.214
X167.386Y-85.194
T3
X170.0Y-155.6
X170.3Y-60.5
X30.9Y-61.1
X30.9Y-161.2
T4
X101.456Y-145.268
X101.456Y-154.418
X141.456Y-145.268
X141.456Y-154.418
X41.456Y-145.268
X41.456Y-154.418
X121.456Y-145.268
X121.456Y-154.418
X81.456Y-145.268
X81.456Y-154.418
X61.456Y-145.268
X61.456Y-154.418
T5
X101.456Y-127.618
X101.456Y-159.268
X141.456Y-127.618
X141.456Y-159.268
X157.988Y-62.992
X41.456Y-127.618
X41.456Y-159.268
X121.456Y-127.618
X121.456Y-159.268
X81.456Y-127.618
X81.456Y-159.268
X168.148Y-159.512
X26.924Y-62.992
X61.456Y-127.618
X61.456Y-159.268
X26.924Y-159.512
T0
M30
