G04 #@! TF.GenerationSoftware,KiCad,Pcbnew,(5.1.0-1558-g0ba0c1724)*
G04 #@! TF.CreationDate,2019-10-27T15:20:38-07:00*
G04 #@! TF.ProjectId,PrntrBoardV2,50726e74-7242-46f6-9172-6456322e6b69,rev?*
G04 #@! TF.SameCoordinates,Original*
G04 #@! TF.FileFunction,Legend,Bot*
G04 #@! TF.FilePolarity,Positive*
%FSLAX46Y46*%
G04 Gerber Fmt 4.6, Leading zero omitted, Abs format (unit mm)*
G04 Created by KiCad (PCBNEW (5.1.0-1558-g0ba0c1724)) date 2019-10-27 15:20:38*
%MOMM*%
%LPD*%
G04 APERTURE LIST*
%ADD10C,0.150000*%
%ADD11C,0.120000*%
%ADD12C,0.200000*%
G04 APERTURE END LIST*
D10*
X52609476Y-157635380D02*
X53180904Y-157635380D01*
X52895190Y-157635380D02*
X52895190Y-156635380D01*
X52990428Y-156778238D01*
X53085666Y-156873476D01*
X53180904Y-156921095D01*
X52228523Y-156730619D02*
X52180904Y-156683000D01*
X52085666Y-156635380D01*
X51847571Y-156635380D01*
X51752333Y-156683000D01*
X51704714Y-156730619D01*
X51657095Y-156825857D01*
X51657095Y-156921095D01*
X51704714Y-157063952D01*
X52276142Y-157635380D01*
X51657095Y-157635380D01*
X51228523Y-157254428D02*
X50466619Y-157254428D01*
X50038047Y-156730619D02*
X49990428Y-156683000D01*
X49895190Y-156635380D01*
X49657095Y-156635380D01*
X49561857Y-156683000D01*
X49514238Y-156730619D01*
X49466619Y-156825857D01*
X49466619Y-156921095D01*
X49514238Y-157063952D01*
X50085666Y-157635380D01*
X49466619Y-157635380D01*
X48609476Y-156968714D02*
X48609476Y-157635380D01*
X48847571Y-156587761D02*
X49085666Y-157302047D01*
X48466619Y-157302047D01*
X48228523Y-156635380D02*
X47895190Y-157635380D01*
X47561857Y-156635380D01*
X52180904Y-158864428D02*
X51419000Y-158864428D01*
X51799952Y-159245380D02*
X51799952Y-158483476D01*
X49419000Y-158864428D02*
X48657095Y-158864428D01*
X152177476Y-157635380D02*
X152748904Y-157635380D01*
X152463190Y-157635380D02*
X152463190Y-156635380D01*
X152558428Y-156778238D01*
X152653666Y-156873476D01*
X152748904Y-156921095D01*
X151796523Y-156730619D02*
X151748904Y-156683000D01*
X151653666Y-156635380D01*
X151415571Y-156635380D01*
X151320333Y-156683000D01*
X151272714Y-156730619D01*
X151225095Y-156825857D01*
X151225095Y-156921095D01*
X151272714Y-157063952D01*
X151844142Y-157635380D01*
X151225095Y-157635380D01*
X150796523Y-157254428D02*
X150034619Y-157254428D01*
X149606047Y-156730619D02*
X149558428Y-156683000D01*
X149463190Y-156635380D01*
X149225095Y-156635380D01*
X149129857Y-156683000D01*
X149082238Y-156730619D01*
X149034619Y-156825857D01*
X149034619Y-156921095D01*
X149082238Y-157063952D01*
X149653666Y-157635380D01*
X149034619Y-157635380D01*
X148177476Y-156968714D02*
X148177476Y-157635380D01*
X148415571Y-156587761D02*
X148653666Y-157302047D01*
X148034619Y-157302047D01*
X147796523Y-156635380D02*
X147463190Y-157635380D01*
X147129857Y-156635380D01*
X151748904Y-158864428D02*
X150987000Y-158864428D01*
X151367952Y-159245380D02*
X151367952Y-158483476D01*
X148987000Y-158864428D02*
X148225095Y-158864428D01*
X131000476Y-144189380D02*
X131476666Y-144189380D01*
X131524285Y-144665571D01*
X131476666Y-144617952D01*
X131381428Y-144570333D01*
X131143333Y-144570333D01*
X131048095Y-144617952D01*
X131000476Y-144665571D01*
X130952857Y-144760809D01*
X130952857Y-144998904D01*
X131000476Y-145094142D01*
X131048095Y-145141761D01*
X131143333Y-145189380D01*
X131381428Y-145189380D01*
X131476666Y-145141761D01*
X131524285Y-145094142D01*
X130667142Y-144189380D02*
X130333809Y-145189380D01*
X130000476Y-144189380D01*
X132571904Y-146418428D02*
X131810000Y-146418428D01*
X132190952Y-146799380D02*
X132190952Y-146037476D01*
X129810000Y-146418428D02*
X129048095Y-146418428D01*
X71056476Y-144189380D02*
X71532666Y-144189380D01*
X71580285Y-144665571D01*
X71532666Y-144617952D01*
X71437428Y-144570333D01*
X71199333Y-144570333D01*
X71104095Y-144617952D01*
X71056476Y-144665571D01*
X71008857Y-144760809D01*
X71008857Y-144998904D01*
X71056476Y-145094142D01*
X71104095Y-145141761D01*
X71199333Y-145189380D01*
X71437428Y-145189380D01*
X71532666Y-145141761D01*
X71580285Y-145094142D01*
X70723142Y-144189380D02*
X70389809Y-145189380D01*
X70056476Y-144189380D01*
X72627904Y-146418428D02*
X71866000Y-146418428D01*
X72246952Y-146799380D02*
X72246952Y-146037476D01*
X69866000Y-146418428D02*
X69104095Y-146418428D01*
X55300571Y-103568666D02*
X55348190Y-103711523D01*
X55395809Y-103759142D01*
X55491047Y-103806761D01*
X55633904Y-103806761D01*
X55729142Y-103759142D01*
X55776761Y-103711523D01*
X55824380Y-103616285D01*
X55824380Y-103235333D01*
X54824380Y-103235333D01*
X54824380Y-103568666D01*
X54872000Y-103663904D01*
X54919619Y-103711523D01*
X55014857Y-103759142D01*
X55110095Y-103759142D01*
X55205333Y-103711523D01*
X55252952Y-103663904D01*
X55300571Y-103568666D01*
X55300571Y-103235333D01*
X55300571Y-104235333D02*
X55300571Y-104568666D01*
X55824380Y-104711523D02*
X55824380Y-104235333D01*
X54824380Y-104235333D01*
X54824380Y-104711523D01*
X55300571Y-105140095D02*
X55300571Y-105473428D01*
X55824380Y-105616285D02*
X55824380Y-105140095D01*
X54824380Y-105140095D01*
X54824380Y-105616285D01*
X55824380Y-106044857D02*
X54824380Y-106044857D01*
X54824380Y-106425809D01*
X54872000Y-106521047D01*
X54919619Y-106568666D01*
X55014857Y-106616285D01*
X55157714Y-106616285D01*
X55252952Y-106568666D01*
X55300571Y-106521047D01*
X55348190Y-106425809D01*
X55348190Y-106044857D01*
X57124000Y-102917904D02*
X57124000Y-103727428D01*
X58491380Y-103632190D02*
X58491380Y-103156000D01*
X57491380Y-103156000D01*
X57124000Y-103727428D02*
X57124000Y-104727428D01*
X58396142Y-104536952D02*
X58443761Y-104489333D01*
X58491380Y-104346476D01*
X58491380Y-104251238D01*
X58443761Y-104108380D01*
X58348523Y-104013142D01*
X58253285Y-103965523D01*
X58062809Y-103917904D01*
X57919952Y-103917904D01*
X57729476Y-103965523D01*
X57634238Y-104013142D01*
X57539000Y-104108380D01*
X57491380Y-104251238D01*
X57491380Y-104346476D01*
X57539000Y-104489333D01*
X57586619Y-104536952D01*
X57124000Y-104727428D02*
X57124000Y-105727428D01*
X58491380Y-104965523D02*
X57491380Y-104965523D01*
X57491380Y-105203619D01*
X57539000Y-105346476D01*
X57634238Y-105441714D01*
X57729476Y-105489333D01*
X57919952Y-105536952D01*
X58062809Y-105536952D01*
X58253285Y-105489333D01*
X58348523Y-105441714D01*
X58443761Y-105346476D01*
X58491380Y-105203619D01*
X58491380Y-104965523D01*
X57124000Y-105727428D02*
X57124000Y-106489333D01*
X58586619Y-105727428D02*
X58586619Y-106489333D01*
X57124000Y-106489333D02*
X57124000Y-107394095D01*
X57967571Y-106727428D02*
X57967571Y-107060761D01*
X58491380Y-107203619D02*
X58491380Y-106727428D01*
X57491380Y-106727428D01*
X57491380Y-107203619D01*
X63444380Y-103616380D02*
X63444380Y-103140190D01*
X62444380Y-103140190D01*
X63349142Y-104521142D02*
X63396761Y-104473523D01*
X63444380Y-104330666D01*
X63444380Y-104235428D01*
X63396761Y-104092571D01*
X63301523Y-103997333D01*
X63206285Y-103949714D01*
X63015809Y-103902095D01*
X62872952Y-103902095D01*
X62682476Y-103949714D01*
X62587238Y-103997333D01*
X62492000Y-104092571D01*
X62444380Y-104235428D01*
X62444380Y-104330666D01*
X62492000Y-104473523D01*
X62539619Y-104521142D01*
X63444380Y-104949714D02*
X62444380Y-104949714D01*
X62444380Y-105187809D01*
X62492000Y-105330666D01*
X62587238Y-105425904D01*
X62682476Y-105473523D01*
X62872952Y-105521142D01*
X63015809Y-105521142D01*
X63206285Y-105473523D01*
X63301523Y-105425904D01*
X63396761Y-105330666D01*
X63444380Y-105187809D01*
X63444380Y-104949714D01*
X63539619Y-105711619D02*
X63539619Y-106473523D01*
X63444380Y-106711619D02*
X62444380Y-106711619D01*
X62444380Y-106949714D01*
X62492000Y-107092571D01*
X62587238Y-107187809D01*
X62682476Y-107235428D01*
X62872952Y-107283047D01*
X63015809Y-107283047D01*
X63206285Y-107235428D01*
X63301523Y-107187809D01*
X63396761Y-107092571D01*
X63444380Y-106949714D01*
X63444380Y-106711619D01*
X62444380Y-108140190D02*
X62444380Y-107949714D01*
X62492000Y-107854476D01*
X62539619Y-107806857D01*
X62682476Y-107711619D01*
X62872952Y-107664000D01*
X63253904Y-107664000D01*
X63349142Y-107711619D01*
X63396761Y-107759238D01*
X63444380Y-107854476D01*
X63444380Y-108044952D01*
X63396761Y-108140190D01*
X63349142Y-108187809D01*
X63253904Y-108235428D01*
X63015809Y-108235428D01*
X62920571Y-108187809D01*
X62872952Y-108140190D01*
X62825333Y-108044952D01*
X62825333Y-107854476D01*
X62872952Y-107759238D01*
X62920571Y-107711619D01*
X63015809Y-107664000D01*
X60904380Y-103616380D02*
X60904380Y-103140190D01*
X59904380Y-103140190D01*
X60809142Y-104521142D02*
X60856761Y-104473523D01*
X60904380Y-104330666D01*
X60904380Y-104235428D01*
X60856761Y-104092571D01*
X60761523Y-103997333D01*
X60666285Y-103949714D01*
X60475809Y-103902095D01*
X60332952Y-103902095D01*
X60142476Y-103949714D01*
X60047238Y-103997333D01*
X59952000Y-104092571D01*
X59904380Y-104235428D01*
X59904380Y-104330666D01*
X59952000Y-104473523D01*
X59999619Y-104521142D01*
X60904380Y-104949714D02*
X59904380Y-104949714D01*
X59904380Y-105187809D01*
X59952000Y-105330666D01*
X60047238Y-105425904D01*
X60142476Y-105473523D01*
X60332952Y-105521142D01*
X60475809Y-105521142D01*
X60666285Y-105473523D01*
X60761523Y-105425904D01*
X60856761Y-105330666D01*
X60904380Y-105187809D01*
X60904380Y-104949714D01*
X60999619Y-105711619D02*
X60999619Y-106473523D01*
X60904380Y-106711619D02*
X59904380Y-106711619D01*
X59904380Y-106949714D01*
X59952000Y-107092571D01*
X60047238Y-107187809D01*
X60142476Y-107235428D01*
X60332952Y-107283047D01*
X60475809Y-107283047D01*
X60666285Y-107235428D01*
X60761523Y-107187809D01*
X60856761Y-107092571D01*
X60904380Y-106949714D01*
X60904380Y-106711619D01*
X60237714Y-108140190D02*
X60904380Y-108140190D01*
X59856761Y-107902095D02*
X60571047Y-107664000D01*
X60571047Y-108283047D01*
X63571380Y-93202380D02*
X63571380Y-92726190D01*
X62571380Y-92726190D01*
X63476142Y-94107142D02*
X63523761Y-94059523D01*
X63571380Y-93916666D01*
X63571380Y-93821428D01*
X63523761Y-93678571D01*
X63428523Y-93583333D01*
X63333285Y-93535714D01*
X63142809Y-93488095D01*
X62999952Y-93488095D01*
X62809476Y-93535714D01*
X62714238Y-93583333D01*
X62619000Y-93678571D01*
X62571380Y-93821428D01*
X62571380Y-93916666D01*
X62619000Y-94059523D01*
X62666619Y-94107142D01*
X63571380Y-94535714D02*
X62571380Y-94535714D01*
X62571380Y-94773809D01*
X62619000Y-94916666D01*
X62714238Y-95011904D01*
X62809476Y-95059523D01*
X62999952Y-95107142D01*
X63142809Y-95107142D01*
X63333285Y-95059523D01*
X63428523Y-95011904D01*
X63523761Y-94916666D01*
X63571380Y-94773809D01*
X63571380Y-94535714D01*
X63666619Y-95297619D02*
X63666619Y-96059523D01*
X63571380Y-96297619D02*
X62571380Y-96297619D01*
X62571380Y-96535714D01*
X62619000Y-96678571D01*
X62714238Y-96773809D01*
X62809476Y-96821428D01*
X62999952Y-96869047D01*
X63142809Y-96869047D01*
X63333285Y-96821428D01*
X63428523Y-96773809D01*
X63523761Y-96678571D01*
X63571380Y-96535714D01*
X63571380Y-96297619D01*
X62571380Y-97202380D02*
X62571380Y-97869047D01*
X63571380Y-97440476D01*
X61031380Y-93075380D02*
X61031380Y-92599190D01*
X60031380Y-92599190D01*
X60936142Y-93980142D02*
X60983761Y-93932523D01*
X61031380Y-93789666D01*
X61031380Y-93694428D01*
X60983761Y-93551571D01*
X60888523Y-93456333D01*
X60793285Y-93408714D01*
X60602809Y-93361095D01*
X60459952Y-93361095D01*
X60269476Y-93408714D01*
X60174238Y-93456333D01*
X60079000Y-93551571D01*
X60031380Y-93694428D01*
X60031380Y-93789666D01*
X60079000Y-93932523D01*
X60126619Y-93980142D01*
X61031380Y-94408714D02*
X60031380Y-94408714D01*
X60031380Y-94646809D01*
X60079000Y-94789666D01*
X60174238Y-94884904D01*
X60269476Y-94932523D01*
X60459952Y-94980142D01*
X60602809Y-94980142D01*
X60793285Y-94932523D01*
X60888523Y-94884904D01*
X60983761Y-94789666D01*
X61031380Y-94646809D01*
X61031380Y-94408714D01*
X61126619Y-95170619D02*
X61126619Y-95932523D01*
X61031380Y-96170619D02*
X60031380Y-96170619D01*
X60031380Y-96408714D01*
X60079000Y-96551571D01*
X60174238Y-96646809D01*
X60269476Y-96694428D01*
X60459952Y-96742047D01*
X60602809Y-96742047D01*
X60793285Y-96694428D01*
X60888523Y-96646809D01*
X60983761Y-96551571D01*
X61031380Y-96408714D01*
X61031380Y-96170619D01*
X60031380Y-97646809D02*
X60031380Y-97170619D01*
X60507571Y-97123000D01*
X60459952Y-97170619D01*
X60412333Y-97265857D01*
X60412333Y-97503952D01*
X60459952Y-97599190D01*
X60507571Y-97646809D01*
X60602809Y-97694428D01*
X60840904Y-97694428D01*
X60936142Y-97646809D01*
X60983761Y-97599190D01*
X61031380Y-97503952D01*
X61031380Y-97265857D01*
X60983761Y-97170619D01*
X60936142Y-97123000D01*
X58491380Y-92694380D02*
X58491380Y-92218190D01*
X57491380Y-92218190D01*
X58396142Y-93599142D02*
X58443761Y-93551523D01*
X58491380Y-93408666D01*
X58491380Y-93313428D01*
X58443761Y-93170571D01*
X58348523Y-93075333D01*
X58253285Y-93027714D01*
X58062809Y-92980095D01*
X57919952Y-92980095D01*
X57729476Y-93027714D01*
X57634238Y-93075333D01*
X57539000Y-93170571D01*
X57491380Y-93313428D01*
X57491380Y-93408666D01*
X57539000Y-93551523D01*
X57586619Y-93599142D01*
X58491380Y-94027714D02*
X57491380Y-94027714D01*
X57491380Y-94265809D01*
X57539000Y-94408666D01*
X57634238Y-94503904D01*
X57729476Y-94551523D01*
X57919952Y-94599142D01*
X58062809Y-94599142D01*
X58253285Y-94551523D01*
X58348523Y-94503904D01*
X58443761Y-94408666D01*
X58491380Y-94265809D01*
X58491380Y-94027714D01*
X58586619Y-94789619D02*
X58586619Y-95551523D01*
X58491380Y-96361047D02*
X58015190Y-96027714D01*
X58491380Y-95789619D02*
X57491380Y-95789619D01*
X57491380Y-96170571D01*
X57539000Y-96265809D01*
X57586619Y-96313428D01*
X57681857Y-96361047D01*
X57824714Y-96361047D01*
X57919952Y-96313428D01*
X57967571Y-96265809D01*
X58015190Y-96170571D01*
X58015190Y-95789619D01*
X58443761Y-96742000D02*
X58491380Y-96884857D01*
X58491380Y-97122952D01*
X58443761Y-97218190D01*
X58396142Y-97265809D01*
X58300904Y-97313428D01*
X58205666Y-97313428D01*
X58110428Y-97265809D01*
X58062809Y-97218190D01*
X58015190Y-97122952D01*
X57967571Y-96932476D01*
X57919952Y-96837238D01*
X57872333Y-96789619D01*
X57777095Y-96742000D01*
X57681857Y-96742000D01*
X57586619Y-96789619D01*
X57539000Y-96837238D01*
X57491380Y-96932476D01*
X57491380Y-97170571D01*
X57539000Y-97313428D01*
X55427571Y-92178523D02*
X55475190Y-92321380D01*
X55522809Y-92369000D01*
X55618047Y-92416619D01*
X55760904Y-92416619D01*
X55856142Y-92369000D01*
X55903761Y-92321380D01*
X55951380Y-92226142D01*
X55951380Y-91845190D01*
X54951380Y-91845190D01*
X54951380Y-92178523D01*
X54999000Y-92273761D01*
X55046619Y-92321380D01*
X55141857Y-92369000D01*
X55237095Y-92369000D01*
X55332333Y-92321380D01*
X55379952Y-92273761D01*
X55427571Y-92178523D01*
X55427571Y-91845190D01*
X54951380Y-92702333D02*
X54951380Y-93273761D01*
X55951380Y-92988047D02*
X54951380Y-92988047D01*
X55951380Y-93607095D02*
X54951380Y-93607095D01*
X55951380Y-94178523D01*
X54951380Y-94178523D01*
X56046619Y-94416619D02*
X56046619Y-95178523D01*
X55427571Y-95416619D02*
X55427571Y-95749952D01*
X55951380Y-95892809D02*
X55951380Y-95416619D01*
X54951380Y-95416619D01*
X54951380Y-95892809D01*
X55951380Y-96321380D02*
X54951380Y-96321380D01*
X55951380Y-96892809D01*
X54951380Y-96892809D01*
X55856142Y-97940428D02*
X55903761Y-97892809D01*
X55951380Y-97749952D01*
X55951380Y-97654714D01*
X55903761Y-97511857D01*
X55808523Y-97416619D01*
X55713285Y-97369000D01*
X55522809Y-97321380D01*
X55379952Y-97321380D01*
X55189476Y-97369000D01*
X55094238Y-97416619D01*
X54999000Y-97511857D01*
X54951380Y-97654714D01*
X54951380Y-97749952D01*
X54999000Y-97892809D01*
X55046619Y-97940428D01*
X65111380Y-96456523D02*
X65111380Y-95980333D01*
X65587571Y-95932714D01*
X65539952Y-95980333D01*
X65492333Y-96075571D01*
X65492333Y-96313666D01*
X65539952Y-96408904D01*
X65587571Y-96456523D01*
X65682809Y-96504142D01*
X65920904Y-96504142D01*
X66016142Y-96456523D01*
X66063761Y-96408904D01*
X66111380Y-96313666D01*
X66111380Y-96075571D01*
X66063761Y-95980333D01*
X66016142Y-95932714D01*
X65111380Y-96789857D02*
X66111380Y-97123190D01*
X65111380Y-97456523D01*
X65159000Y-103632095D02*
X65111380Y-103536857D01*
X65111380Y-103394000D01*
X65159000Y-103251142D01*
X65254238Y-103155904D01*
X65349476Y-103108285D01*
X65539952Y-103060666D01*
X65682809Y-103060666D01*
X65873285Y-103108285D01*
X65968523Y-103155904D01*
X66063761Y-103251142D01*
X66111380Y-103394000D01*
X66111380Y-103489238D01*
X66063761Y-103632095D01*
X66016142Y-103679714D01*
X65682809Y-103679714D01*
X65682809Y-103489238D01*
X66111380Y-104108285D02*
X65111380Y-104108285D01*
X66111380Y-104679714D01*
X65111380Y-104679714D01*
X66111380Y-105155904D02*
X65111380Y-105155904D01*
X65111380Y-105394000D01*
X65159000Y-105536857D01*
X65254238Y-105632095D01*
X65349476Y-105679714D01*
X65539952Y-105727333D01*
X65682809Y-105727333D01*
X65873285Y-105679714D01*
X65968523Y-105632095D01*
X66063761Y-105536857D01*
X66111380Y-105394000D01*
X66111380Y-105155904D01*
X43823000Y-103505095D02*
X43775380Y-103409857D01*
X43775380Y-103267000D01*
X43823000Y-103124142D01*
X43918238Y-103028904D01*
X44013476Y-102981285D01*
X44203952Y-102933666D01*
X44346809Y-102933666D01*
X44537285Y-102981285D01*
X44632523Y-103028904D01*
X44727761Y-103124142D01*
X44775380Y-103267000D01*
X44775380Y-103362238D01*
X44727761Y-103505095D01*
X44680142Y-103552714D01*
X44346809Y-103552714D01*
X44346809Y-103362238D01*
X44775380Y-103981285D02*
X43775380Y-103981285D01*
X44775380Y-104552714D01*
X43775380Y-104552714D01*
X44775380Y-105028904D02*
X43775380Y-105028904D01*
X43775380Y-105267000D01*
X43823000Y-105409857D01*
X43918238Y-105505095D01*
X44013476Y-105552714D01*
X44203952Y-105600333D01*
X44346809Y-105600333D01*
X44537285Y-105552714D01*
X44632523Y-105505095D01*
X44727761Y-105409857D01*
X44775380Y-105267000D01*
X44775380Y-105028904D01*
X39171571Y-102854380D02*
X39171571Y-103187714D01*
X39695380Y-103330571D02*
X39695380Y-102854380D01*
X38695380Y-102854380D01*
X38695380Y-103330571D01*
X39695380Y-103759142D02*
X38695380Y-103759142D01*
X39695380Y-104330571D01*
X38695380Y-104330571D01*
X39600142Y-105378190D02*
X39647761Y-105330571D01*
X39695380Y-105187714D01*
X39695380Y-105092476D01*
X39647761Y-104949619D01*
X39552523Y-104854380D01*
X39457285Y-104806761D01*
X39266809Y-104759142D01*
X39123952Y-104759142D01*
X38933476Y-104806761D01*
X38838238Y-104854380D01*
X38743000Y-104949619D01*
X38695380Y-105092476D01*
X38695380Y-105187714D01*
X38743000Y-105330571D01*
X38790619Y-105378190D01*
X39790619Y-105568666D02*
X39790619Y-106330571D01*
X39409666Y-106521047D02*
X39409666Y-106997238D01*
X39695380Y-106425809D02*
X38695380Y-106759142D01*
X39695380Y-107092476D01*
X36377571Y-102782952D02*
X36377571Y-103116285D01*
X36901380Y-103259142D02*
X36901380Y-102782952D01*
X35901380Y-102782952D01*
X35901380Y-103259142D01*
X36901380Y-103687714D02*
X35901380Y-103687714D01*
X36901380Y-104259142D01*
X35901380Y-104259142D01*
X36806142Y-105306761D02*
X36853761Y-105259142D01*
X36901380Y-105116285D01*
X36901380Y-105021047D01*
X36853761Y-104878190D01*
X36758523Y-104782952D01*
X36663285Y-104735333D01*
X36472809Y-104687714D01*
X36329952Y-104687714D01*
X36139476Y-104735333D01*
X36044238Y-104782952D01*
X35949000Y-104878190D01*
X35901380Y-105021047D01*
X35901380Y-105116285D01*
X35949000Y-105259142D01*
X35996619Y-105306761D01*
X36996619Y-105497238D02*
X36996619Y-106259142D01*
X36377571Y-106830571D02*
X36425190Y-106973428D01*
X36472809Y-107021047D01*
X36568047Y-107068666D01*
X36710904Y-107068666D01*
X36806142Y-107021047D01*
X36853761Y-106973428D01*
X36901380Y-106878190D01*
X36901380Y-106497238D01*
X35901380Y-106497238D01*
X35901380Y-106830571D01*
X35949000Y-106925809D01*
X35996619Y-106973428D01*
X36091857Y-107021047D01*
X36187095Y-107021047D01*
X36282333Y-106973428D01*
X36329952Y-106925809D01*
X36377571Y-106830571D01*
X36377571Y-106497238D01*
X34488380Y-102822571D02*
X33488380Y-102822571D01*
X34202666Y-103155904D01*
X33488380Y-103489238D01*
X34488380Y-103489238D01*
X34488380Y-103965428D02*
X33488380Y-103965428D01*
X34440761Y-104394000D02*
X34488380Y-104536857D01*
X34488380Y-104774952D01*
X34440761Y-104870190D01*
X34393142Y-104917809D01*
X34297904Y-104965428D01*
X34202666Y-104965428D01*
X34107428Y-104917809D01*
X34059809Y-104870190D01*
X34012190Y-104774952D01*
X33964571Y-104584476D01*
X33916952Y-104489238D01*
X33869333Y-104441619D01*
X33774095Y-104394000D01*
X33678857Y-104394000D01*
X33583619Y-104441619D01*
X33536000Y-104489238D01*
X33488380Y-104584476D01*
X33488380Y-104822571D01*
X33536000Y-104965428D01*
X33488380Y-105584476D02*
X33488380Y-105774952D01*
X33536000Y-105870190D01*
X33631238Y-105965428D01*
X33821714Y-106013047D01*
X34155047Y-106013047D01*
X34345523Y-105965428D01*
X34440761Y-105870190D01*
X34488380Y-105774952D01*
X34488380Y-105584476D01*
X34440761Y-105489238D01*
X34345523Y-105394000D01*
X34155047Y-105346380D01*
X33821714Y-105346380D01*
X33631238Y-105394000D01*
X33536000Y-105489238D01*
X33488380Y-105584476D01*
X34567761Y-95361285D02*
X34615380Y-95504142D01*
X34615380Y-95742238D01*
X34567761Y-95837476D01*
X34520142Y-95885095D01*
X34424904Y-95932714D01*
X34329666Y-95932714D01*
X34234428Y-95885095D01*
X34186809Y-95837476D01*
X34139190Y-95742238D01*
X34091571Y-95551761D01*
X34043952Y-95456523D01*
X33996333Y-95408904D01*
X33901095Y-95361285D01*
X33805857Y-95361285D01*
X33710619Y-95408904D01*
X33663000Y-95456523D01*
X33615380Y-95551761D01*
X33615380Y-95789857D01*
X33663000Y-95932714D01*
X34520142Y-96932714D02*
X34567761Y-96885095D01*
X34615380Y-96742238D01*
X34615380Y-96647000D01*
X34567761Y-96504142D01*
X34472523Y-96408904D01*
X34377285Y-96361285D01*
X34186809Y-96313666D01*
X34043952Y-96313666D01*
X33853476Y-96361285D01*
X33758238Y-96408904D01*
X33663000Y-96504142D01*
X33615380Y-96647000D01*
X33615380Y-96742238D01*
X33663000Y-96885095D01*
X33710619Y-96932714D01*
X34615380Y-97361285D02*
X33615380Y-97361285D01*
X34615380Y-97932714D02*
X34043952Y-97504142D01*
X33615380Y-97932714D02*
X34186809Y-97361285D01*
X35915000Y-93170666D02*
X35915000Y-94123047D01*
X37234761Y-93361142D02*
X37282380Y-93504000D01*
X37282380Y-93742095D01*
X37234761Y-93837333D01*
X37187142Y-93884952D01*
X37091904Y-93932571D01*
X36996666Y-93932571D01*
X36901428Y-93884952D01*
X36853809Y-93837333D01*
X36806190Y-93742095D01*
X36758571Y-93551619D01*
X36710952Y-93456380D01*
X36663333Y-93408761D01*
X36568095Y-93361142D01*
X36472857Y-93361142D01*
X36377619Y-93408761D01*
X36330000Y-93456380D01*
X36282380Y-93551619D01*
X36282380Y-93789714D01*
X36330000Y-93932571D01*
X35915000Y-94123047D02*
X35915000Y-95123047D01*
X37282380Y-94361142D02*
X36282380Y-94361142D01*
X36282380Y-94599238D01*
X36330000Y-94742095D01*
X36425238Y-94837333D01*
X36520476Y-94884952D01*
X36710952Y-94932571D01*
X36853809Y-94932571D01*
X37044285Y-94884952D01*
X37139523Y-94837333D01*
X37234761Y-94742095D01*
X37282380Y-94599238D01*
X37282380Y-94361142D01*
X35915000Y-95123047D02*
X35915000Y-95884952D01*
X37377619Y-95123047D02*
X37377619Y-95884952D01*
X35915000Y-95884952D02*
X35915000Y-96884952D01*
X37187142Y-96694476D02*
X37234761Y-96646857D01*
X37282380Y-96504000D01*
X37282380Y-96408761D01*
X37234761Y-96265904D01*
X37139523Y-96170666D01*
X37044285Y-96123047D01*
X36853809Y-96075428D01*
X36710952Y-96075428D01*
X36520476Y-96123047D01*
X36425238Y-96170666D01*
X36330000Y-96265904D01*
X36282380Y-96408761D01*
X36282380Y-96504000D01*
X36330000Y-96646857D01*
X36377619Y-96694476D01*
X35915000Y-96884952D02*
X35915000Y-97837333D01*
X37234761Y-97075428D02*
X37282380Y-97218285D01*
X37282380Y-97456380D01*
X37234761Y-97551619D01*
X37187142Y-97599238D01*
X37091904Y-97646857D01*
X36996666Y-97646857D01*
X36901428Y-97599238D01*
X36853809Y-97551619D01*
X36806190Y-97456380D01*
X36758571Y-97265904D01*
X36710952Y-97170666D01*
X36663333Y-97123047D01*
X36568095Y-97075428D01*
X36472857Y-97075428D01*
X36377619Y-97123047D01*
X36330000Y-97170666D01*
X36282380Y-97265904D01*
X36282380Y-97504000D01*
X36330000Y-97646857D01*
X39568380Y-94694571D02*
X38568380Y-94694571D01*
X39282666Y-95027904D01*
X38568380Y-95361238D01*
X39568380Y-95361238D01*
X38568380Y-96027904D02*
X38568380Y-96218380D01*
X38616000Y-96313619D01*
X38711238Y-96408857D01*
X38901714Y-96456476D01*
X39235047Y-96456476D01*
X39425523Y-96408857D01*
X39520761Y-96313619D01*
X39568380Y-96218380D01*
X39568380Y-96027904D01*
X39520761Y-95932666D01*
X39425523Y-95837428D01*
X39235047Y-95789809D01*
X38901714Y-95789809D01*
X38711238Y-95837428D01*
X38616000Y-95932666D01*
X38568380Y-96027904D01*
X39520761Y-96837428D02*
X39568380Y-96980285D01*
X39568380Y-97218380D01*
X39520761Y-97313619D01*
X39473142Y-97361238D01*
X39377904Y-97408857D01*
X39282666Y-97408857D01*
X39187428Y-97361238D01*
X39139809Y-97313619D01*
X39092190Y-97218380D01*
X39044571Y-97027904D01*
X38996952Y-96932666D01*
X38949333Y-96885047D01*
X38854095Y-96837428D01*
X38758857Y-96837428D01*
X38663619Y-96885047D01*
X38616000Y-96932666D01*
X38568380Y-97027904D01*
X38568380Y-97266000D01*
X38616000Y-97408857D01*
X39568380Y-97837428D02*
X38568380Y-97837428D01*
X40995000Y-93369095D02*
X40995000Y-94369095D01*
X42362380Y-94178619D02*
X41886190Y-93845285D01*
X42362380Y-93607190D02*
X41362380Y-93607190D01*
X41362380Y-93988142D01*
X41410000Y-94083380D01*
X41457619Y-94131000D01*
X41552857Y-94178619D01*
X41695714Y-94178619D01*
X41790952Y-94131000D01*
X41838571Y-94083380D01*
X41886190Y-93988142D01*
X41886190Y-93607190D01*
X40995000Y-94369095D02*
X40995000Y-95273857D01*
X41838571Y-94607190D02*
X41838571Y-94940523D01*
X42362380Y-95083380D02*
X42362380Y-94607190D01*
X41362380Y-94607190D01*
X41362380Y-95083380D01*
X40995000Y-95273857D02*
X40995000Y-96226238D01*
X42314761Y-95464333D02*
X42362380Y-95607190D01*
X42362380Y-95845285D01*
X42314761Y-95940523D01*
X42267142Y-95988142D01*
X42171904Y-96035761D01*
X42076666Y-96035761D01*
X41981428Y-95988142D01*
X41933809Y-95940523D01*
X41886190Y-95845285D01*
X41838571Y-95654809D01*
X41790952Y-95559571D01*
X41743333Y-95511952D01*
X41648095Y-95464333D01*
X41552857Y-95464333D01*
X41457619Y-95511952D01*
X41410000Y-95559571D01*
X41362380Y-95654809D01*
X41362380Y-95892904D01*
X41410000Y-96035761D01*
X40995000Y-96226238D02*
X40995000Y-97131000D01*
X41838571Y-96464333D02*
X41838571Y-96797666D01*
X42362380Y-96940523D02*
X42362380Y-96464333D01*
X41362380Y-96464333D01*
X41362380Y-96940523D01*
X40995000Y-97131000D02*
X40995000Y-97892904D01*
X41362380Y-97226238D02*
X41362380Y-97797666D01*
X42362380Y-97511952D02*
X41362380Y-97511952D01*
X44775380Y-95083476D02*
X43775380Y-95083476D01*
X44775380Y-95654904D02*
X44203952Y-95226333D01*
X43775380Y-95654904D02*
X44346809Y-95083476D01*
X44775380Y-96083476D02*
X43775380Y-96083476D01*
X44775380Y-97035857D02*
X44775380Y-96559666D01*
X43775380Y-96559666D01*
X44775380Y-97845380D02*
X44775380Y-97369190D01*
X43775380Y-97369190D01*
X140414333Y-84383571D02*
X140747666Y-84383571D01*
X140747666Y-84907380D02*
X140747666Y-83907380D01*
X140271476Y-83907380D01*
X139414333Y-83907380D02*
X139890523Y-83907380D01*
X139938142Y-84383571D01*
X139890523Y-84335952D01*
X139795285Y-84288333D01*
X139557190Y-84288333D01*
X139461952Y-84335952D01*
X139414333Y-84383571D01*
X139366714Y-84478809D01*
X139366714Y-84716904D01*
X139414333Y-84812142D01*
X139461952Y-84859761D01*
X139557190Y-84907380D01*
X139795285Y-84907380D01*
X139890523Y-84859761D01*
X139938142Y-84812142D01*
X140414333Y-87304571D02*
X140747666Y-87304571D01*
X140747666Y-87828380D02*
X140747666Y-86828380D01*
X140271476Y-86828380D01*
X139461952Y-87161714D02*
X139461952Y-87828380D01*
X139700047Y-86780761D02*
X139938142Y-87495047D01*
X139319095Y-87495047D01*
X140414333Y-90225571D02*
X140747666Y-90225571D01*
X140747666Y-90749380D02*
X140747666Y-89749380D01*
X140271476Y-89749380D01*
X139985761Y-89749380D02*
X139366714Y-89749380D01*
X139700047Y-90130333D01*
X139557190Y-90130333D01*
X139461952Y-90177952D01*
X139414333Y-90225571D01*
X139366714Y-90320809D01*
X139366714Y-90558904D01*
X139414333Y-90654142D01*
X139461952Y-90701761D01*
X139557190Y-90749380D01*
X139842904Y-90749380D01*
X139938142Y-90701761D01*
X139985761Y-90654142D01*
X140414333Y-93273571D02*
X140747666Y-93273571D01*
X140747666Y-93797380D02*
X140747666Y-92797380D01*
X140271476Y-92797380D01*
X139938142Y-92892619D02*
X139890523Y-92845000D01*
X139795285Y-92797380D01*
X139557190Y-92797380D01*
X139461952Y-92845000D01*
X139414333Y-92892619D01*
X139366714Y-92987857D01*
X139366714Y-93083095D01*
X139414333Y-93225952D01*
X139985761Y-93797380D01*
X139366714Y-93797380D01*
X140414333Y-96194571D02*
X140747666Y-96194571D01*
X140747666Y-96718380D02*
X140747666Y-95718380D01*
X140271476Y-95718380D01*
X139366714Y-96718380D02*
X139938142Y-96718380D01*
X139652428Y-96718380D02*
X139652428Y-95718380D01*
X139747666Y-95861238D01*
X139842904Y-95956476D01*
X139938142Y-96004095D01*
X140842904Y-99639380D02*
X140842904Y-98639380D01*
X140842904Y-99115571D02*
X140271476Y-99115571D01*
X140271476Y-99639380D02*
X140271476Y-98639380D01*
X139366714Y-98972714D02*
X139366714Y-99639380D01*
X139604809Y-98591761D02*
X139842904Y-99306047D01*
X139223857Y-99306047D01*
X140842904Y-102687380D02*
X140842904Y-101687380D01*
X140842904Y-102163571D02*
X140271476Y-102163571D01*
X140271476Y-102687380D02*
X140271476Y-101687380D01*
X139890523Y-101687380D02*
X139271476Y-101687380D01*
X139604809Y-102068333D01*
X139461952Y-102068333D01*
X139366714Y-102115952D01*
X139319095Y-102163571D01*
X139271476Y-102258809D01*
X139271476Y-102496904D01*
X139319095Y-102592142D01*
X139366714Y-102639761D01*
X139461952Y-102687380D01*
X139747666Y-102687380D01*
X139842904Y-102639761D01*
X139890523Y-102592142D01*
X140842904Y-105735380D02*
X140842904Y-104735380D01*
X140842904Y-105211571D02*
X140271476Y-105211571D01*
X140271476Y-105735380D02*
X140271476Y-104735380D01*
X139842904Y-104830619D02*
X139795285Y-104783000D01*
X139700047Y-104735380D01*
X139461952Y-104735380D01*
X139366714Y-104783000D01*
X139319095Y-104830619D01*
X139271476Y-104925857D01*
X139271476Y-105021095D01*
X139319095Y-105163952D01*
X139890523Y-105735380D01*
X139271476Y-105735380D01*
X140842904Y-108783380D02*
X140842904Y-107783380D01*
X140842904Y-108259571D02*
X140271476Y-108259571D01*
X140271476Y-108783380D02*
X140271476Y-107783380D01*
X139271476Y-108783380D02*
X139842904Y-108783380D01*
X139557190Y-108783380D02*
X139557190Y-107783380D01*
X139652428Y-107926238D01*
X139747666Y-108021476D01*
X139842904Y-108069095D01*
X95718380Y-80200523D02*
X95718380Y-79724333D01*
X96194571Y-79676714D01*
X96146952Y-79724333D01*
X96099333Y-79819571D01*
X96099333Y-80057666D01*
X96146952Y-80152904D01*
X96194571Y-80200523D01*
X96289809Y-80248142D01*
X96527904Y-80248142D01*
X96623142Y-80200523D01*
X96670761Y-80152904D01*
X96718380Y-80057666D01*
X96718380Y-79819571D01*
X96670761Y-79724333D01*
X96623142Y-79676714D01*
X95718380Y-80533857D02*
X96718380Y-80867190D01*
X95718380Y-81200523D01*
X93178380Y-79549809D02*
X93178380Y-80168857D01*
X93559333Y-79835523D01*
X93559333Y-79978380D01*
X93606952Y-80073619D01*
X93654571Y-80121238D01*
X93749809Y-80168857D01*
X93987904Y-80168857D01*
X94083142Y-80121238D01*
X94130761Y-80073619D01*
X94178380Y-79978380D01*
X94178380Y-79692666D01*
X94130761Y-79597428D01*
X94083142Y-79549809D01*
X94083142Y-80597428D02*
X94130761Y-80645047D01*
X94178380Y-80597428D01*
X94130761Y-80549809D01*
X94083142Y-80597428D01*
X94178380Y-80597428D01*
X93178380Y-80978380D02*
X93178380Y-81597428D01*
X93559333Y-81264095D01*
X93559333Y-81406952D01*
X93606952Y-81502190D01*
X93654571Y-81549809D01*
X93749809Y-81597428D01*
X93987904Y-81597428D01*
X94083142Y-81549809D01*
X94130761Y-81502190D01*
X94178380Y-81406952D01*
X94178380Y-81121238D01*
X94130761Y-81026000D01*
X94083142Y-80978380D01*
X93178380Y-81883142D02*
X94178380Y-82216476D01*
X93178380Y-82549809D01*
X90652000Y-79668809D02*
X90652000Y-80668809D01*
X91924142Y-80478333D02*
X91971761Y-80430714D01*
X92019380Y-80287857D01*
X92019380Y-80192619D01*
X91971761Y-80049761D01*
X91876523Y-79954523D01*
X91781285Y-79906904D01*
X91590809Y-79859285D01*
X91447952Y-79859285D01*
X91257476Y-79906904D01*
X91162238Y-79954523D01*
X91067000Y-80049761D01*
X91019380Y-80192619D01*
X91019380Y-80287857D01*
X91067000Y-80430714D01*
X91114619Y-80478333D01*
X90652000Y-80668809D02*
X90652000Y-81621190D01*
X91971761Y-80859285D02*
X92019380Y-81002142D01*
X92019380Y-81240238D01*
X91971761Y-81335476D01*
X91924142Y-81383095D01*
X91828904Y-81430714D01*
X91733666Y-81430714D01*
X91638428Y-81383095D01*
X91590809Y-81335476D01*
X91543190Y-81240238D01*
X91495571Y-81049761D01*
X91447952Y-80954523D01*
X91400333Y-80906904D01*
X91305095Y-80859285D01*
X91209857Y-80859285D01*
X91114619Y-80906904D01*
X91067000Y-80954523D01*
X91019380Y-81049761D01*
X91019380Y-81287857D01*
X91067000Y-81430714D01*
X86637761Y-79581523D02*
X86685380Y-79724380D01*
X86685380Y-79962476D01*
X86637761Y-80057714D01*
X86590142Y-80105333D01*
X86494904Y-80152952D01*
X86399666Y-80152952D01*
X86304428Y-80105333D01*
X86256809Y-80057714D01*
X86209190Y-79962476D01*
X86161571Y-79772000D01*
X86113952Y-79676761D01*
X86066333Y-79629142D01*
X85971095Y-79581523D01*
X85875857Y-79581523D01*
X85780619Y-79629142D01*
X85733000Y-79676761D01*
X85685380Y-79772000D01*
X85685380Y-80010095D01*
X85733000Y-80152952D01*
X86590142Y-81152952D02*
X86637761Y-81105333D01*
X86685380Y-80962476D01*
X86685380Y-80867238D01*
X86637761Y-80724380D01*
X86542523Y-80629142D01*
X86447285Y-80581523D01*
X86256809Y-80533904D01*
X86113952Y-80533904D01*
X85923476Y-80581523D01*
X85828238Y-80629142D01*
X85733000Y-80724380D01*
X85685380Y-80867238D01*
X85685380Y-80962476D01*
X85733000Y-81105333D01*
X85780619Y-81152952D01*
X86685380Y-82057714D02*
X86685380Y-81581523D01*
X85685380Y-81581523D01*
X89177761Y-79430714D02*
X89225380Y-79573571D01*
X89225380Y-79811666D01*
X89177761Y-79906904D01*
X89130142Y-79954523D01*
X89034904Y-80002142D01*
X88939666Y-80002142D01*
X88844428Y-79954523D01*
X88796809Y-79906904D01*
X88749190Y-79811666D01*
X88701571Y-79621190D01*
X88653952Y-79525952D01*
X88606333Y-79478333D01*
X88511095Y-79430714D01*
X88415857Y-79430714D01*
X88320619Y-79478333D01*
X88273000Y-79525952D01*
X88225380Y-79621190D01*
X88225380Y-79859285D01*
X88273000Y-80002142D01*
X89225380Y-80430714D02*
X88225380Y-80430714D01*
X88225380Y-80668809D01*
X88273000Y-80811666D01*
X88368238Y-80906904D01*
X88463476Y-80954523D01*
X88653952Y-81002142D01*
X88796809Y-81002142D01*
X88987285Y-80954523D01*
X89082523Y-80906904D01*
X89177761Y-80811666D01*
X89225380Y-80668809D01*
X89225380Y-80430714D01*
X88939666Y-81383095D02*
X88939666Y-81859285D01*
X89225380Y-81287857D02*
X88225380Y-81621190D01*
X89225380Y-81954523D01*
X89479380Y-72636142D02*
X89003190Y-72302809D01*
X89479380Y-72064714D02*
X88479380Y-72064714D01*
X88479380Y-72445666D01*
X88527000Y-72540904D01*
X88574619Y-72588523D01*
X88669857Y-72636142D01*
X88812714Y-72636142D01*
X88907952Y-72588523D01*
X88955571Y-72540904D01*
X89003190Y-72445666D01*
X89003190Y-72064714D01*
X88479380Y-72969476D02*
X89479380Y-73636142D01*
X88479380Y-73636142D02*
X89479380Y-72969476D01*
X88574619Y-73969476D02*
X88527000Y-74017095D01*
X88479380Y-74112333D01*
X88479380Y-74350428D01*
X88527000Y-74445666D01*
X88574619Y-74493285D01*
X88669857Y-74540904D01*
X88765095Y-74540904D01*
X88907952Y-74493285D01*
X89479380Y-73921857D01*
X89479380Y-74540904D01*
X85812380Y-72040904D02*
X85812380Y-72612333D01*
X86812380Y-72326619D02*
X85812380Y-72326619D01*
X85812380Y-72850428D02*
X86812380Y-73517095D01*
X85812380Y-73517095D02*
X86812380Y-72850428D01*
X85907619Y-73850428D02*
X85860000Y-73898047D01*
X85812380Y-73993285D01*
X85812380Y-74231380D01*
X85860000Y-74326619D01*
X85907619Y-74374238D01*
X86002857Y-74421857D01*
X86098095Y-74421857D01*
X86240952Y-74374238D01*
X86812380Y-73802809D01*
X86812380Y-74421857D01*
X90765380Y-72167904D02*
X90765380Y-72739333D01*
X91765380Y-72453619D02*
X90765380Y-72453619D01*
X90765380Y-72977428D02*
X91765380Y-73644095D01*
X90765380Y-73644095D02*
X91765380Y-72977428D01*
X91765380Y-74548857D02*
X91765380Y-73977428D01*
X91765380Y-74263142D02*
X90765380Y-74263142D01*
X90908238Y-74167904D01*
X91003476Y-74072666D01*
X91051095Y-73977428D01*
X94432380Y-72763142D02*
X93956190Y-72429809D01*
X94432380Y-72191714D02*
X93432380Y-72191714D01*
X93432380Y-72572666D01*
X93480000Y-72667904D01*
X93527619Y-72715523D01*
X93622857Y-72763142D01*
X93765714Y-72763142D01*
X93860952Y-72715523D01*
X93908571Y-72667904D01*
X93956190Y-72572666D01*
X93956190Y-72191714D01*
X93432380Y-73096476D02*
X94432380Y-73763142D01*
X93432380Y-73763142D02*
X94432380Y-73096476D01*
X94432380Y-74667904D02*
X94432380Y-74096476D01*
X94432380Y-74382190D02*
X93432380Y-74382190D01*
X93575238Y-74286952D01*
X93670476Y-74191714D01*
X93718095Y-74096476D01*
X96147000Y-72263095D02*
X96099380Y-72167857D01*
X96099380Y-72025000D01*
X96147000Y-71882142D01*
X96242238Y-71786904D01*
X96337476Y-71739285D01*
X96527952Y-71691666D01*
X96670809Y-71691666D01*
X96861285Y-71739285D01*
X96956523Y-71786904D01*
X97051761Y-71882142D01*
X97099380Y-72025000D01*
X97099380Y-72120238D01*
X97051761Y-72263095D01*
X97004142Y-72310714D01*
X96670809Y-72310714D01*
X96670809Y-72120238D01*
X97099380Y-72739285D02*
X96099380Y-72739285D01*
X97099380Y-73310714D01*
X96099380Y-73310714D01*
X97099380Y-73786904D02*
X96099380Y-73786904D01*
X96099380Y-74025000D01*
X96147000Y-74167857D01*
X96242238Y-74263095D01*
X96337476Y-74310714D01*
X96527952Y-74358333D01*
X96670809Y-74358333D01*
X96861285Y-74310714D01*
X96956523Y-74263095D01*
X97051761Y-74167857D01*
X97099380Y-74025000D01*
X97099380Y-73786904D01*
D11*
X148575071Y-64228857D02*
X148610785Y-64336000D01*
X148610785Y-64514571D01*
X148575071Y-64586000D01*
X148539357Y-64621714D01*
X148467928Y-64657428D01*
X148396500Y-64657428D01*
X148325071Y-64621714D01*
X148289357Y-64586000D01*
X148253642Y-64514571D01*
X148217928Y-64371714D01*
X148182214Y-64300285D01*
X148146500Y-64264571D01*
X148075071Y-64228857D01*
X148003642Y-64228857D01*
X147932214Y-64264571D01*
X147896500Y-64300285D01*
X147860785Y-64371714D01*
X147860785Y-64550285D01*
X147896500Y-64657428D01*
X148575071Y-65264571D02*
X148610785Y-65193142D01*
X148610785Y-65050285D01*
X148575071Y-64978857D01*
X148503642Y-64943142D01*
X148217928Y-64943142D01*
X148146500Y-64978857D01*
X148110785Y-65050285D01*
X148110785Y-65193142D01*
X148146500Y-65264571D01*
X148217928Y-65300285D01*
X148289357Y-65300285D01*
X148360785Y-64943142D01*
X148110785Y-65621714D02*
X148610785Y-65621714D01*
X148182214Y-65621714D02*
X148146500Y-65657428D01*
X148110785Y-65728857D01*
X148110785Y-65836000D01*
X148146500Y-65907428D01*
X148217928Y-65943142D01*
X148610785Y-65943142D01*
X148575071Y-66264571D02*
X148610785Y-66336000D01*
X148610785Y-66478857D01*
X148575071Y-66550285D01*
X148503642Y-66586000D01*
X148467928Y-66586000D01*
X148396500Y-66550285D01*
X148360785Y-66478857D01*
X148360785Y-66371714D01*
X148325071Y-66300285D01*
X148253642Y-66264571D01*
X148217928Y-66264571D01*
X148146500Y-66300285D01*
X148110785Y-66371714D01*
X148110785Y-66478857D01*
X148146500Y-66550285D01*
X148610785Y-67014571D02*
X148575071Y-66943142D01*
X148539357Y-66907428D01*
X148467928Y-66871714D01*
X148253642Y-66871714D01*
X148182214Y-66907428D01*
X148146500Y-66943142D01*
X148110785Y-67014571D01*
X148110785Y-67121714D01*
X148146500Y-67193142D01*
X148182214Y-67228857D01*
X148253642Y-67264571D01*
X148467928Y-67264571D01*
X148539357Y-67228857D01*
X148575071Y-67193142D01*
X148610785Y-67121714D01*
X148610785Y-67014571D01*
X148610785Y-67586000D02*
X148110785Y-67586000D01*
X148253642Y-67586000D02*
X148182214Y-67621714D01*
X148146500Y-67657428D01*
X148110785Y-67728857D01*
X148110785Y-67800285D01*
X150311500Y-64657428D02*
X150275785Y-64586000D01*
X150275785Y-64478857D01*
X150311500Y-64371714D01*
X150382928Y-64300285D01*
X150454357Y-64264571D01*
X150597214Y-64228857D01*
X150704357Y-64228857D01*
X150847214Y-64264571D01*
X150918642Y-64300285D01*
X150990071Y-64371714D01*
X151025785Y-64478857D01*
X151025785Y-64550285D01*
X150990071Y-64657428D01*
X150954357Y-64693142D01*
X150704357Y-64693142D01*
X150704357Y-64550285D01*
X151025785Y-65014571D02*
X150275785Y-65014571D01*
X151025785Y-65443142D01*
X150275785Y-65443142D01*
X151025785Y-65800285D02*
X150275785Y-65800285D01*
X150275785Y-65978857D01*
X150311500Y-66086000D01*
X150382928Y-66157428D01*
X150454357Y-66193142D01*
X150597214Y-66228857D01*
X150704357Y-66228857D01*
X150847214Y-66193142D01*
X150918642Y-66157428D01*
X150990071Y-66086000D01*
X151025785Y-65978857D01*
X151025785Y-65800285D01*
X139812071Y-64101857D02*
X139847785Y-64209000D01*
X139847785Y-64387571D01*
X139812071Y-64459000D01*
X139776357Y-64494714D01*
X139704928Y-64530428D01*
X139633500Y-64530428D01*
X139562071Y-64494714D01*
X139526357Y-64459000D01*
X139490642Y-64387571D01*
X139454928Y-64244714D01*
X139419214Y-64173285D01*
X139383500Y-64137571D01*
X139312071Y-64101857D01*
X139240642Y-64101857D01*
X139169214Y-64137571D01*
X139133500Y-64173285D01*
X139097785Y-64244714D01*
X139097785Y-64423285D01*
X139133500Y-64530428D01*
X139812071Y-65137571D02*
X139847785Y-65066142D01*
X139847785Y-64923285D01*
X139812071Y-64851857D01*
X139740642Y-64816142D01*
X139454928Y-64816142D01*
X139383500Y-64851857D01*
X139347785Y-64923285D01*
X139347785Y-65066142D01*
X139383500Y-65137571D01*
X139454928Y-65173285D01*
X139526357Y-65173285D01*
X139597785Y-64816142D01*
X139347785Y-65494714D02*
X139847785Y-65494714D01*
X139419214Y-65494714D02*
X139383500Y-65530428D01*
X139347785Y-65601857D01*
X139347785Y-65709000D01*
X139383500Y-65780428D01*
X139454928Y-65816142D01*
X139847785Y-65816142D01*
X139812071Y-66137571D02*
X139847785Y-66209000D01*
X139847785Y-66351857D01*
X139812071Y-66423285D01*
X139740642Y-66459000D01*
X139704928Y-66459000D01*
X139633500Y-66423285D01*
X139597785Y-66351857D01*
X139597785Y-66244714D01*
X139562071Y-66173285D01*
X139490642Y-66137571D01*
X139454928Y-66137571D01*
X139383500Y-66173285D01*
X139347785Y-66244714D01*
X139347785Y-66351857D01*
X139383500Y-66423285D01*
X139847785Y-66887571D02*
X139812071Y-66816142D01*
X139776357Y-66780428D01*
X139704928Y-66744714D01*
X139490642Y-66744714D01*
X139419214Y-66780428D01*
X139383500Y-66816142D01*
X139347785Y-66887571D01*
X139347785Y-66994714D01*
X139383500Y-67066142D01*
X139419214Y-67101857D01*
X139490642Y-67137571D01*
X139704928Y-67137571D01*
X139776357Y-67101857D01*
X139812071Y-67066142D01*
X139847785Y-66994714D01*
X139847785Y-66887571D01*
X139847785Y-67459000D02*
X139347785Y-67459000D01*
X139490642Y-67459000D02*
X139419214Y-67494714D01*
X139383500Y-67530428D01*
X139347785Y-67601857D01*
X139347785Y-67673285D01*
X141548500Y-64530428D02*
X141512785Y-64459000D01*
X141512785Y-64351857D01*
X141548500Y-64244714D01*
X141619928Y-64173285D01*
X141691357Y-64137571D01*
X141834214Y-64101857D01*
X141941357Y-64101857D01*
X142084214Y-64137571D01*
X142155642Y-64173285D01*
X142227071Y-64244714D01*
X142262785Y-64351857D01*
X142262785Y-64423285D01*
X142227071Y-64530428D01*
X142191357Y-64566142D01*
X141941357Y-64566142D01*
X141941357Y-64423285D01*
X142262785Y-64887571D02*
X141512785Y-64887571D01*
X142262785Y-65316142D01*
X141512785Y-65316142D01*
X142262785Y-65673285D02*
X141512785Y-65673285D01*
X141512785Y-65851857D01*
X141548500Y-65959000D01*
X141619928Y-66030428D01*
X141691357Y-66066142D01*
X141834214Y-66101857D01*
X141941357Y-66101857D01*
X142084214Y-66066142D01*
X142155642Y-66030428D01*
X142227071Y-65959000D01*
X142262785Y-65851857D01*
X142262785Y-65673285D01*
X131430071Y-63974857D02*
X131465785Y-64082000D01*
X131465785Y-64260571D01*
X131430071Y-64332000D01*
X131394357Y-64367714D01*
X131322928Y-64403428D01*
X131251500Y-64403428D01*
X131180071Y-64367714D01*
X131144357Y-64332000D01*
X131108642Y-64260571D01*
X131072928Y-64117714D01*
X131037214Y-64046285D01*
X131001500Y-64010571D01*
X130930071Y-63974857D01*
X130858642Y-63974857D01*
X130787214Y-64010571D01*
X130751500Y-64046285D01*
X130715785Y-64117714D01*
X130715785Y-64296285D01*
X130751500Y-64403428D01*
X131430071Y-65010571D02*
X131465785Y-64939142D01*
X131465785Y-64796285D01*
X131430071Y-64724857D01*
X131358642Y-64689142D01*
X131072928Y-64689142D01*
X131001500Y-64724857D01*
X130965785Y-64796285D01*
X130965785Y-64939142D01*
X131001500Y-65010571D01*
X131072928Y-65046285D01*
X131144357Y-65046285D01*
X131215785Y-64689142D01*
X130965785Y-65367714D02*
X131465785Y-65367714D01*
X131037214Y-65367714D02*
X131001500Y-65403428D01*
X130965785Y-65474857D01*
X130965785Y-65582000D01*
X131001500Y-65653428D01*
X131072928Y-65689142D01*
X131465785Y-65689142D01*
X131430071Y-66010571D02*
X131465785Y-66082000D01*
X131465785Y-66224857D01*
X131430071Y-66296285D01*
X131358642Y-66332000D01*
X131322928Y-66332000D01*
X131251500Y-66296285D01*
X131215785Y-66224857D01*
X131215785Y-66117714D01*
X131180071Y-66046285D01*
X131108642Y-66010571D01*
X131072928Y-66010571D01*
X131001500Y-66046285D01*
X130965785Y-66117714D01*
X130965785Y-66224857D01*
X131001500Y-66296285D01*
X131465785Y-66760571D02*
X131430071Y-66689142D01*
X131394357Y-66653428D01*
X131322928Y-66617714D01*
X131108642Y-66617714D01*
X131037214Y-66653428D01*
X131001500Y-66689142D01*
X130965785Y-66760571D01*
X130965785Y-66867714D01*
X131001500Y-66939142D01*
X131037214Y-66974857D01*
X131108642Y-67010571D01*
X131322928Y-67010571D01*
X131394357Y-66974857D01*
X131430071Y-66939142D01*
X131465785Y-66867714D01*
X131465785Y-66760571D01*
X131465785Y-67332000D02*
X130965785Y-67332000D01*
X131108642Y-67332000D02*
X131037214Y-67367714D01*
X131001500Y-67403428D01*
X130965785Y-67474857D01*
X130965785Y-67546285D01*
X133166500Y-64403428D02*
X133130785Y-64332000D01*
X133130785Y-64224857D01*
X133166500Y-64117714D01*
X133237928Y-64046285D01*
X133309357Y-64010571D01*
X133452214Y-63974857D01*
X133559357Y-63974857D01*
X133702214Y-64010571D01*
X133773642Y-64046285D01*
X133845071Y-64117714D01*
X133880785Y-64224857D01*
X133880785Y-64296285D01*
X133845071Y-64403428D01*
X133809357Y-64439142D01*
X133559357Y-64439142D01*
X133559357Y-64296285D01*
X133880785Y-64760571D02*
X133130785Y-64760571D01*
X133880785Y-65189142D01*
X133130785Y-65189142D01*
X133880785Y-65546285D02*
X133130785Y-65546285D01*
X133130785Y-65724857D01*
X133166500Y-65832000D01*
X133237928Y-65903428D01*
X133309357Y-65939142D01*
X133452214Y-65974857D01*
X133559357Y-65974857D01*
X133702214Y-65939142D01*
X133773642Y-65903428D01*
X133845071Y-65832000D01*
X133880785Y-65724857D01*
X133880785Y-65546285D01*
X122794071Y-63974857D02*
X122829785Y-64082000D01*
X122829785Y-64260571D01*
X122794071Y-64332000D01*
X122758357Y-64367714D01*
X122686928Y-64403428D01*
X122615500Y-64403428D01*
X122544071Y-64367714D01*
X122508357Y-64332000D01*
X122472642Y-64260571D01*
X122436928Y-64117714D01*
X122401214Y-64046285D01*
X122365500Y-64010571D01*
X122294071Y-63974857D01*
X122222642Y-63974857D01*
X122151214Y-64010571D01*
X122115500Y-64046285D01*
X122079785Y-64117714D01*
X122079785Y-64296285D01*
X122115500Y-64403428D01*
X122794071Y-65010571D02*
X122829785Y-64939142D01*
X122829785Y-64796285D01*
X122794071Y-64724857D01*
X122722642Y-64689142D01*
X122436928Y-64689142D01*
X122365500Y-64724857D01*
X122329785Y-64796285D01*
X122329785Y-64939142D01*
X122365500Y-65010571D01*
X122436928Y-65046285D01*
X122508357Y-65046285D01*
X122579785Y-64689142D01*
X122329785Y-65367714D02*
X122829785Y-65367714D01*
X122401214Y-65367714D02*
X122365500Y-65403428D01*
X122329785Y-65474857D01*
X122329785Y-65582000D01*
X122365500Y-65653428D01*
X122436928Y-65689142D01*
X122829785Y-65689142D01*
X122794071Y-66010571D02*
X122829785Y-66082000D01*
X122829785Y-66224857D01*
X122794071Y-66296285D01*
X122722642Y-66332000D01*
X122686928Y-66332000D01*
X122615500Y-66296285D01*
X122579785Y-66224857D01*
X122579785Y-66117714D01*
X122544071Y-66046285D01*
X122472642Y-66010571D01*
X122436928Y-66010571D01*
X122365500Y-66046285D01*
X122329785Y-66117714D01*
X122329785Y-66224857D01*
X122365500Y-66296285D01*
X122829785Y-66760571D02*
X122794071Y-66689142D01*
X122758357Y-66653428D01*
X122686928Y-66617714D01*
X122472642Y-66617714D01*
X122401214Y-66653428D01*
X122365500Y-66689142D01*
X122329785Y-66760571D01*
X122329785Y-66867714D01*
X122365500Y-66939142D01*
X122401214Y-66974857D01*
X122472642Y-67010571D01*
X122686928Y-67010571D01*
X122758357Y-66974857D01*
X122794071Y-66939142D01*
X122829785Y-66867714D01*
X122829785Y-66760571D01*
X122829785Y-67332000D02*
X122329785Y-67332000D01*
X122472642Y-67332000D02*
X122401214Y-67367714D01*
X122365500Y-67403428D01*
X122329785Y-67474857D01*
X122329785Y-67546285D01*
X124530500Y-64403428D02*
X124494785Y-64332000D01*
X124494785Y-64224857D01*
X124530500Y-64117714D01*
X124601928Y-64046285D01*
X124673357Y-64010571D01*
X124816214Y-63974857D01*
X124923357Y-63974857D01*
X125066214Y-64010571D01*
X125137642Y-64046285D01*
X125209071Y-64117714D01*
X125244785Y-64224857D01*
X125244785Y-64296285D01*
X125209071Y-64403428D01*
X125173357Y-64439142D01*
X124923357Y-64439142D01*
X124923357Y-64296285D01*
X125244785Y-64760571D02*
X124494785Y-64760571D01*
X125244785Y-65189142D01*
X124494785Y-65189142D01*
X125244785Y-65546285D02*
X124494785Y-65546285D01*
X124494785Y-65724857D01*
X124530500Y-65832000D01*
X124601928Y-65903428D01*
X124673357Y-65939142D01*
X124816214Y-65974857D01*
X124923357Y-65974857D01*
X125066214Y-65939142D01*
X125137642Y-65903428D01*
X125209071Y-65832000D01*
X125244785Y-65724857D01*
X125244785Y-65546285D01*
X114031071Y-63974857D02*
X114066785Y-64082000D01*
X114066785Y-64260571D01*
X114031071Y-64332000D01*
X113995357Y-64367714D01*
X113923928Y-64403428D01*
X113852500Y-64403428D01*
X113781071Y-64367714D01*
X113745357Y-64332000D01*
X113709642Y-64260571D01*
X113673928Y-64117714D01*
X113638214Y-64046285D01*
X113602500Y-64010571D01*
X113531071Y-63974857D01*
X113459642Y-63974857D01*
X113388214Y-64010571D01*
X113352500Y-64046285D01*
X113316785Y-64117714D01*
X113316785Y-64296285D01*
X113352500Y-64403428D01*
X114031071Y-65010571D02*
X114066785Y-64939142D01*
X114066785Y-64796285D01*
X114031071Y-64724857D01*
X113959642Y-64689142D01*
X113673928Y-64689142D01*
X113602500Y-64724857D01*
X113566785Y-64796285D01*
X113566785Y-64939142D01*
X113602500Y-65010571D01*
X113673928Y-65046285D01*
X113745357Y-65046285D01*
X113816785Y-64689142D01*
X113566785Y-65367714D02*
X114066785Y-65367714D01*
X113638214Y-65367714D02*
X113602500Y-65403428D01*
X113566785Y-65474857D01*
X113566785Y-65582000D01*
X113602500Y-65653428D01*
X113673928Y-65689142D01*
X114066785Y-65689142D01*
X114031071Y-66010571D02*
X114066785Y-66082000D01*
X114066785Y-66224857D01*
X114031071Y-66296285D01*
X113959642Y-66332000D01*
X113923928Y-66332000D01*
X113852500Y-66296285D01*
X113816785Y-66224857D01*
X113816785Y-66117714D01*
X113781071Y-66046285D01*
X113709642Y-66010571D01*
X113673928Y-66010571D01*
X113602500Y-66046285D01*
X113566785Y-66117714D01*
X113566785Y-66224857D01*
X113602500Y-66296285D01*
X114066785Y-66760571D02*
X114031071Y-66689142D01*
X113995357Y-66653428D01*
X113923928Y-66617714D01*
X113709642Y-66617714D01*
X113638214Y-66653428D01*
X113602500Y-66689142D01*
X113566785Y-66760571D01*
X113566785Y-66867714D01*
X113602500Y-66939142D01*
X113638214Y-66974857D01*
X113709642Y-67010571D01*
X113923928Y-67010571D01*
X113995357Y-66974857D01*
X114031071Y-66939142D01*
X114066785Y-66867714D01*
X114066785Y-66760571D01*
X114066785Y-67332000D02*
X113566785Y-67332000D01*
X113709642Y-67332000D02*
X113638214Y-67367714D01*
X113602500Y-67403428D01*
X113566785Y-67474857D01*
X113566785Y-67546285D01*
X115767500Y-64403428D02*
X115731785Y-64332000D01*
X115731785Y-64224857D01*
X115767500Y-64117714D01*
X115838928Y-64046285D01*
X115910357Y-64010571D01*
X116053214Y-63974857D01*
X116160357Y-63974857D01*
X116303214Y-64010571D01*
X116374642Y-64046285D01*
X116446071Y-64117714D01*
X116481785Y-64224857D01*
X116481785Y-64296285D01*
X116446071Y-64403428D01*
X116410357Y-64439142D01*
X116160357Y-64439142D01*
X116160357Y-64296285D01*
X116481785Y-64760571D02*
X115731785Y-64760571D01*
X116481785Y-65189142D01*
X115731785Y-65189142D01*
X116481785Y-65546285D02*
X115731785Y-65546285D01*
X115731785Y-65724857D01*
X115767500Y-65832000D01*
X115838928Y-65903428D01*
X115910357Y-65939142D01*
X116053214Y-65974857D01*
X116160357Y-65974857D01*
X116303214Y-65939142D01*
X116374642Y-65903428D01*
X116446071Y-65832000D01*
X116481785Y-65724857D01*
X116481785Y-65546285D01*
X105268071Y-63974857D02*
X105303785Y-64082000D01*
X105303785Y-64260571D01*
X105268071Y-64332000D01*
X105232357Y-64367714D01*
X105160928Y-64403428D01*
X105089500Y-64403428D01*
X105018071Y-64367714D01*
X104982357Y-64332000D01*
X104946642Y-64260571D01*
X104910928Y-64117714D01*
X104875214Y-64046285D01*
X104839500Y-64010571D01*
X104768071Y-63974857D01*
X104696642Y-63974857D01*
X104625214Y-64010571D01*
X104589500Y-64046285D01*
X104553785Y-64117714D01*
X104553785Y-64296285D01*
X104589500Y-64403428D01*
X105268071Y-65010571D02*
X105303785Y-64939142D01*
X105303785Y-64796285D01*
X105268071Y-64724857D01*
X105196642Y-64689142D01*
X104910928Y-64689142D01*
X104839500Y-64724857D01*
X104803785Y-64796285D01*
X104803785Y-64939142D01*
X104839500Y-65010571D01*
X104910928Y-65046285D01*
X104982357Y-65046285D01*
X105053785Y-64689142D01*
X104803785Y-65367714D02*
X105303785Y-65367714D01*
X104875214Y-65367714D02*
X104839500Y-65403428D01*
X104803785Y-65474857D01*
X104803785Y-65582000D01*
X104839500Y-65653428D01*
X104910928Y-65689142D01*
X105303785Y-65689142D01*
X105268071Y-66010571D02*
X105303785Y-66082000D01*
X105303785Y-66224857D01*
X105268071Y-66296285D01*
X105196642Y-66332000D01*
X105160928Y-66332000D01*
X105089500Y-66296285D01*
X105053785Y-66224857D01*
X105053785Y-66117714D01*
X105018071Y-66046285D01*
X104946642Y-66010571D01*
X104910928Y-66010571D01*
X104839500Y-66046285D01*
X104803785Y-66117714D01*
X104803785Y-66224857D01*
X104839500Y-66296285D01*
X105303785Y-66760571D02*
X105268071Y-66689142D01*
X105232357Y-66653428D01*
X105160928Y-66617714D01*
X104946642Y-66617714D01*
X104875214Y-66653428D01*
X104839500Y-66689142D01*
X104803785Y-66760571D01*
X104803785Y-66867714D01*
X104839500Y-66939142D01*
X104875214Y-66974857D01*
X104946642Y-67010571D01*
X105160928Y-67010571D01*
X105232357Y-66974857D01*
X105268071Y-66939142D01*
X105303785Y-66867714D01*
X105303785Y-66760571D01*
X105303785Y-67332000D02*
X104803785Y-67332000D01*
X104946642Y-67332000D02*
X104875214Y-67367714D01*
X104839500Y-67403428D01*
X104803785Y-67474857D01*
X104803785Y-67546285D01*
X107004500Y-64403428D02*
X106968785Y-64332000D01*
X106968785Y-64224857D01*
X107004500Y-64117714D01*
X107075928Y-64046285D01*
X107147357Y-64010571D01*
X107290214Y-63974857D01*
X107397357Y-63974857D01*
X107540214Y-64010571D01*
X107611642Y-64046285D01*
X107683071Y-64117714D01*
X107718785Y-64224857D01*
X107718785Y-64296285D01*
X107683071Y-64403428D01*
X107647357Y-64439142D01*
X107397357Y-64439142D01*
X107397357Y-64296285D01*
X107718785Y-64760571D02*
X106968785Y-64760571D01*
X107718785Y-65189142D01*
X106968785Y-65189142D01*
X107718785Y-65546285D02*
X106968785Y-65546285D01*
X106968785Y-65724857D01*
X107004500Y-65832000D01*
X107075928Y-65903428D01*
X107147357Y-65939142D01*
X107290214Y-65974857D01*
X107397357Y-65974857D01*
X107540214Y-65939142D01*
X107611642Y-65903428D01*
X107683071Y-65832000D01*
X107718785Y-65724857D01*
X107718785Y-65546285D01*
D10*
X112616904Y-89177761D02*
X112474047Y-89225380D01*
X112235952Y-89225380D01*
X112140714Y-89177761D01*
X112093095Y-89130142D01*
X112045476Y-89034904D01*
X112045476Y-88939666D01*
X112093095Y-88844428D01*
X112140714Y-88796809D01*
X112235952Y-88749190D01*
X112426428Y-88701571D01*
X112521666Y-88653952D01*
X112569285Y-88606333D01*
X112616904Y-88511095D01*
X112616904Y-88415857D01*
X112569285Y-88320619D01*
X112521666Y-88273000D01*
X112426428Y-88225380D01*
X112188333Y-88225380D01*
X112045476Y-88273000D01*
X111712142Y-88225380D02*
X111474047Y-89225380D01*
X111283571Y-88511095D01*
X111093095Y-89225380D01*
X110855000Y-88225380D01*
X110474047Y-89225380D02*
X110474047Y-88225380D01*
X110235952Y-88225380D01*
X110093095Y-88273000D01*
X109997857Y-88368238D01*
X109950238Y-88463476D01*
X109902619Y-88653952D01*
X109902619Y-88796809D01*
X109950238Y-88987285D01*
X109997857Y-89082523D01*
X110093095Y-89177761D01*
X110235952Y-89225380D01*
X110474047Y-89225380D01*
X108902619Y-89130142D02*
X108950238Y-89177761D01*
X109093095Y-89225380D01*
X109188333Y-89225380D01*
X109331190Y-89177761D01*
X109426428Y-89082523D01*
X109474047Y-88987285D01*
X109521666Y-88796809D01*
X109521666Y-88653952D01*
X109474047Y-88463476D01*
X109426428Y-88368238D01*
X109331190Y-88273000D01*
X109188333Y-88225380D01*
X109093095Y-88225380D01*
X108950238Y-88273000D01*
X108902619Y-88320619D01*
X107997857Y-89225380D02*
X108474047Y-89225380D01*
X108474047Y-88225380D01*
X107664523Y-89225380D02*
X107664523Y-88225380D01*
X107093095Y-89225380D02*
X107521666Y-88653952D01*
X107093095Y-88225380D02*
X107664523Y-88796809D01*
X111212047Y-86637761D02*
X111069190Y-86685380D01*
X110831095Y-86685380D01*
X110735857Y-86637761D01*
X110688238Y-86590142D01*
X110640619Y-86494904D01*
X110640619Y-86399666D01*
X110688238Y-86304428D01*
X110735857Y-86256809D01*
X110831095Y-86209190D01*
X111021571Y-86161571D01*
X111116809Y-86113952D01*
X111164428Y-86066333D01*
X111212047Y-85971095D01*
X111212047Y-85875857D01*
X111164428Y-85780619D01*
X111116809Y-85733000D01*
X111021571Y-85685380D01*
X110783476Y-85685380D01*
X110640619Y-85733000D01*
X110212047Y-86685380D02*
X110212047Y-85685380D01*
X109973952Y-85685380D01*
X109831095Y-85733000D01*
X109735857Y-85828238D01*
X109688238Y-85923476D01*
X109640619Y-86113952D01*
X109640619Y-86256809D01*
X109688238Y-86447285D01*
X109735857Y-86542523D01*
X109831095Y-86637761D01*
X109973952Y-86685380D01*
X110212047Y-86685380D01*
X109307285Y-85685380D02*
X109069190Y-86685380D01*
X108878714Y-85971095D01*
X108688238Y-86685380D01*
X108450142Y-85685380D01*
X108069190Y-86685380D02*
X108069190Y-85685380D01*
X107402523Y-85685380D02*
X107212047Y-85685380D01*
X107116809Y-85733000D01*
X107021571Y-85828238D01*
X106973952Y-86018714D01*
X106973952Y-86352047D01*
X107021571Y-86542523D01*
X107116809Y-86637761D01*
X107212047Y-86685380D01*
X107402523Y-86685380D01*
X107497761Y-86637761D01*
X107593000Y-86542523D01*
X107640619Y-86352047D01*
X107640619Y-86018714D01*
X107593000Y-85828238D01*
X107497761Y-85733000D01*
X107402523Y-85685380D01*
X111354904Y-82778000D02*
X110354904Y-82778000D01*
X110545380Y-84145380D02*
X110878714Y-83669190D01*
X111116809Y-84145380D02*
X111116809Y-83145380D01*
X110735857Y-83145380D01*
X110640619Y-83193000D01*
X110593000Y-83240619D01*
X110545380Y-83335857D01*
X110545380Y-83478714D01*
X110593000Y-83573952D01*
X110640619Y-83621571D01*
X110735857Y-83669190D01*
X111116809Y-83669190D01*
X110354904Y-82778000D02*
X109450142Y-82778000D01*
X110116809Y-83621571D02*
X109783476Y-83621571D01*
X109640619Y-84145380D02*
X110116809Y-84145380D01*
X110116809Y-83145380D01*
X109640619Y-83145380D01*
X109450142Y-82778000D02*
X108497761Y-82778000D01*
X109259666Y-84097761D02*
X109116809Y-84145380D01*
X108878714Y-84145380D01*
X108783476Y-84097761D01*
X108735857Y-84050142D01*
X108688238Y-83954904D01*
X108688238Y-83859666D01*
X108735857Y-83764428D01*
X108783476Y-83716809D01*
X108878714Y-83669190D01*
X109069190Y-83621571D01*
X109164428Y-83573952D01*
X109212047Y-83526333D01*
X109259666Y-83431095D01*
X109259666Y-83335857D01*
X109212047Y-83240619D01*
X109164428Y-83193000D01*
X109069190Y-83145380D01*
X108831095Y-83145380D01*
X108688238Y-83193000D01*
X108497761Y-82778000D02*
X107593000Y-82778000D01*
X108259666Y-83621571D02*
X107926333Y-83621571D01*
X107783476Y-84145380D02*
X108259666Y-84145380D01*
X108259666Y-83145380D01*
X107783476Y-83145380D01*
X107593000Y-82778000D02*
X106831095Y-82778000D01*
X107497761Y-83145380D02*
X106926333Y-83145380D01*
X107212047Y-84145380D02*
X107212047Y-83145380D01*
X104473190Y-80478380D02*
X103854142Y-80478380D01*
X104187476Y-80859333D01*
X104044619Y-80859333D01*
X103949380Y-80906952D01*
X103901761Y-80954571D01*
X103854142Y-81049809D01*
X103854142Y-81287904D01*
X103901761Y-81383142D01*
X103949380Y-81430761D01*
X104044619Y-81478380D01*
X104330333Y-81478380D01*
X104425571Y-81430761D01*
X104473190Y-81383142D01*
X103425571Y-81383142D02*
X103377952Y-81430761D01*
X103425571Y-81478380D01*
X103473190Y-81430761D01*
X103425571Y-81383142D01*
X103425571Y-81478380D01*
X103044619Y-80478380D02*
X102425571Y-80478380D01*
X102758904Y-80859333D01*
X102616047Y-80859333D01*
X102520809Y-80906952D01*
X102473190Y-80954571D01*
X102425571Y-81049809D01*
X102425571Y-81287904D01*
X102473190Y-81383142D01*
X102520809Y-81430761D01*
X102616047Y-81478380D01*
X102901761Y-81478380D01*
X102997000Y-81430761D01*
X103044619Y-81383142D01*
X102139857Y-80478380D02*
X101806523Y-81478380D01*
X101473190Y-80478380D01*
X109600904Y-77986000D02*
X109696142Y-77938380D01*
X109839000Y-77938380D01*
X109981857Y-77986000D01*
X110077095Y-78081238D01*
X110124714Y-78176476D01*
X110172333Y-78366952D01*
X110172333Y-78509809D01*
X110124714Y-78700285D01*
X110077095Y-78795523D01*
X109981857Y-78890761D01*
X109839000Y-78938380D01*
X109743761Y-78938380D01*
X109600904Y-78890761D01*
X109553285Y-78843142D01*
X109553285Y-78509809D01*
X109743761Y-78509809D01*
X109124714Y-78938380D02*
X109124714Y-77938380D01*
X108553285Y-78938380D01*
X108553285Y-77938380D01*
X108077095Y-78938380D02*
X108077095Y-77938380D01*
X107839000Y-77938380D01*
X107696142Y-77986000D01*
X107600904Y-78081238D01*
X107553285Y-78176476D01*
X107505666Y-78366952D01*
X107505666Y-78509809D01*
X107553285Y-78700285D01*
X107600904Y-78795523D01*
X107696142Y-78890761D01*
X107839000Y-78938380D01*
X108077095Y-78938380D01*
X115188904Y-102703380D02*
X114617476Y-102703380D01*
X114903190Y-103703380D02*
X114903190Y-102703380D01*
X114379380Y-102703380D02*
X113712714Y-103703380D01*
X113712714Y-102703380D02*
X114379380Y-103703380D01*
X114212666Y-101036380D02*
X114546000Y-100560190D01*
X114784095Y-101036380D02*
X114784095Y-100036380D01*
X114403142Y-100036380D01*
X114307904Y-100084000D01*
X114260285Y-100131619D01*
X114212666Y-100226857D01*
X114212666Y-100369714D01*
X114260285Y-100464952D01*
X114307904Y-100512571D01*
X114403142Y-100560190D01*
X114784095Y-100560190D01*
X113879333Y-100036380D02*
X113212666Y-101036380D01*
X113212666Y-100036380D02*
X113879333Y-101036380D01*
X114553904Y-97417000D02*
X114649142Y-97369380D01*
X114792000Y-97369380D01*
X114934857Y-97417000D01*
X115030095Y-97512238D01*
X115077714Y-97607476D01*
X115125333Y-97797952D01*
X115125333Y-97940809D01*
X115077714Y-98131285D01*
X115030095Y-98226523D01*
X114934857Y-98321761D01*
X114792000Y-98369380D01*
X114696761Y-98369380D01*
X114553904Y-98321761D01*
X114506285Y-98274142D01*
X114506285Y-97940809D01*
X114696761Y-97940809D01*
X114077714Y-98369380D02*
X114077714Y-97369380D01*
X113506285Y-98369380D01*
X113506285Y-97369380D01*
X113030095Y-98369380D02*
X113030095Y-97369380D01*
X112792000Y-97369380D01*
X112649142Y-97417000D01*
X112553904Y-97512238D01*
X112506285Y-97607476D01*
X112458666Y-97797952D01*
X112458666Y-97940809D01*
X112506285Y-98131285D01*
X112553904Y-98226523D01*
X112649142Y-98321761D01*
X112792000Y-98369380D01*
X113030095Y-98369380D01*
X114363476Y-94829380D02*
X114839666Y-94829380D01*
X114887285Y-95305571D01*
X114839666Y-95257952D01*
X114744428Y-95210333D01*
X114506333Y-95210333D01*
X114411095Y-95257952D01*
X114363476Y-95305571D01*
X114315857Y-95400809D01*
X114315857Y-95638904D01*
X114363476Y-95734142D01*
X114411095Y-95781761D01*
X114506333Y-95829380D01*
X114744428Y-95829380D01*
X114839666Y-95781761D01*
X114887285Y-95734142D01*
X114030142Y-94829380D02*
X113696809Y-95829380D01*
X113363476Y-94829380D01*
X44322904Y-64397000D02*
X44418142Y-64349380D01*
X44561000Y-64349380D01*
X44703857Y-64397000D01*
X44799095Y-64492238D01*
X44846714Y-64587476D01*
X44894333Y-64777952D01*
X44894333Y-64920809D01*
X44846714Y-65111285D01*
X44799095Y-65206523D01*
X44703857Y-65301761D01*
X44561000Y-65349380D01*
X44465761Y-65349380D01*
X44322904Y-65301761D01*
X44275285Y-65254142D01*
X44275285Y-64920809D01*
X44465761Y-64920809D01*
X43846714Y-65349380D02*
X43846714Y-64349380D01*
X43275285Y-65349380D01*
X43275285Y-64349380D01*
X42799095Y-65349380D02*
X42799095Y-64349380D01*
X42561000Y-64349380D01*
X42418142Y-64397000D01*
X42322904Y-64492238D01*
X42275285Y-64587476D01*
X42227666Y-64777952D01*
X42227666Y-64920809D01*
X42275285Y-65111285D01*
X42322904Y-65206523D01*
X42418142Y-65301761D01*
X42561000Y-65349380D01*
X42799095Y-65349380D01*
X44878333Y-67968761D02*
X44735476Y-68016380D01*
X44497380Y-68016380D01*
X44402142Y-67968761D01*
X44354523Y-67921142D01*
X44306904Y-67825904D01*
X44306904Y-67730666D01*
X44354523Y-67635428D01*
X44402142Y-67587809D01*
X44497380Y-67540190D01*
X44687857Y-67492571D01*
X44783095Y-67444952D01*
X44830714Y-67397333D01*
X44878333Y-67302095D01*
X44878333Y-67206857D01*
X44830714Y-67111619D01*
X44783095Y-67064000D01*
X44687857Y-67016380D01*
X44449761Y-67016380D01*
X44306904Y-67064000D01*
X43497380Y-67968761D02*
X43592619Y-68016380D01*
X43783095Y-68016380D01*
X43878333Y-67968761D01*
X43925952Y-67873523D01*
X43925952Y-67492571D01*
X43878333Y-67397333D01*
X43783095Y-67349714D01*
X43592619Y-67349714D01*
X43497380Y-67397333D01*
X43449761Y-67492571D01*
X43449761Y-67587809D01*
X43925952Y-67683047D01*
X43021190Y-67349714D02*
X43021190Y-68016380D01*
X43021190Y-67444952D02*
X42973571Y-67397333D01*
X42878333Y-67349714D01*
X42735476Y-67349714D01*
X42640238Y-67397333D01*
X42592619Y-67492571D01*
X42592619Y-68016380D01*
X42164047Y-67968761D02*
X42068809Y-68016380D01*
X41878333Y-68016380D01*
X41783095Y-67968761D01*
X41735476Y-67873523D01*
X41735476Y-67825904D01*
X41783095Y-67730666D01*
X41878333Y-67683047D01*
X42021190Y-67683047D01*
X42116428Y-67635428D01*
X42164047Y-67540190D01*
X42164047Y-67492571D01*
X42116428Y-67397333D01*
X42021190Y-67349714D01*
X41878333Y-67349714D01*
X41783095Y-67397333D01*
X41164047Y-68016380D02*
X41259285Y-67968761D01*
X41306904Y-67921142D01*
X41354523Y-67825904D01*
X41354523Y-67540190D01*
X41306904Y-67444952D01*
X41259285Y-67397333D01*
X41164047Y-67349714D01*
X41021190Y-67349714D01*
X40925952Y-67397333D01*
X40878333Y-67444952D01*
X40830714Y-67540190D01*
X40830714Y-67825904D01*
X40878333Y-67921142D01*
X40925952Y-67968761D01*
X41021190Y-68016380D01*
X41164047Y-68016380D01*
X40402142Y-68016380D02*
X40402142Y-67349714D01*
X40402142Y-67540190D02*
X40354523Y-67444952D01*
X40306904Y-67397333D01*
X40211666Y-67349714D01*
X40116428Y-67349714D01*
X44259476Y-61936380D02*
X44735666Y-61936380D01*
X44783285Y-62412571D01*
X44735666Y-62364952D01*
X44640428Y-62317333D01*
X44402333Y-62317333D01*
X44307095Y-62364952D01*
X44259476Y-62412571D01*
X44211857Y-62507809D01*
X44211857Y-62745904D01*
X44259476Y-62841142D01*
X44307095Y-62888761D01*
X44402333Y-62936380D01*
X44640428Y-62936380D01*
X44735666Y-62888761D01*
X44783285Y-62841142D01*
X43926142Y-61936380D02*
X43592809Y-62936380D01*
X43259476Y-61936380D01*
X31289333Y-84859761D02*
X31146476Y-84907380D01*
X30908380Y-84907380D01*
X30813142Y-84859761D01*
X30765523Y-84812142D01*
X30717904Y-84716904D01*
X30717904Y-84621666D01*
X30765523Y-84526428D01*
X30813142Y-84478809D01*
X30908380Y-84431190D01*
X31098857Y-84383571D01*
X31194095Y-84335952D01*
X31241714Y-84288333D01*
X31289333Y-84193095D01*
X31289333Y-84097857D01*
X31241714Y-84002619D01*
X31194095Y-83955000D01*
X31098857Y-83907380D01*
X30860761Y-83907380D01*
X30717904Y-83955000D01*
X29908380Y-84859761D02*
X30003619Y-84907380D01*
X30194095Y-84907380D01*
X30289333Y-84859761D01*
X30336952Y-84764523D01*
X30336952Y-84383571D01*
X30289333Y-84288333D01*
X30194095Y-84240714D01*
X30003619Y-84240714D01*
X29908380Y-84288333D01*
X29860761Y-84383571D01*
X29860761Y-84478809D01*
X30336952Y-84574047D01*
X29432190Y-84240714D02*
X29432190Y-84907380D01*
X29432190Y-84335952D02*
X29384571Y-84288333D01*
X29289333Y-84240714D01*
X29146476Y-84240714D01*
X29051238Y-84288333D01*
X29003619Y-84383571D01*
X29003619Y-84907380D01*
X28575047Y-84859761D02*
X28479809Y-84907380D01*
X28289333Y-84907380D01*
X28194095Y-84859761D01*
X28146476Y-84764523D01*
X28146476Y-84716904D01*
X28194095Y-84621666D01*
X28289333Y-84574047D01*
X28432190Y-84574047D01*
X28527428Y-84526428D01*
X28575047Y-84431190D01*
X28575047Y-84383571D01*
X28527428Y-84288333D01*
X28432190Y-84240714D01*
X28289333Y-84240714D01*
X28194095Y-84288333D01*
X27575047Y-84907380D02*
X27670285Y-84859761D01*
X27717904Y-84812142D01*
X27765523Y-84716904D01*
X27765523Y-84431190D01*
X27717904Y-84335952D01*
X27670285Y-84288333D01*
X27575047Y-84240714D01*
X27432190Y-84240714D01*
X27336952Y-84288333D01*
X27289333Y-84335952D01*
X27241714Y-84431190D01*
X27241714Y-84716904D01*
X27289333Y-84812142D01*
X27336952Y-84859761D01*
X27432190Y-84907380D01*
X27575047Y-84907380D01*
X26813142Y-84907380D02*
X26813142Y-84240714D01*
X26813142Y-84431190D02*
X26765523Y-84335952D01*
X26717904Y-84288333D01*
X26622666Y-84240714D01*
X26527428Y-84240714D01*
X30733904Y-81288000D02*
X30829142Y-81240380D01*
X30972000Y-81240380D01*
X31114857Y-81288000D01*
X31210095Y-81383238D01*
X31257714Y-81478476D01*
X31305333Y-81668952D01*
X31305333Y-81811809D01*
X31257714Y-82002285D01*
X31210095Y-82097523D01*
X31114857Y-82192761D01*
X30972000Y-82240380D01*
X30876761Y-82240380D01*
X30733904Y-82192761D01*
X30686285Y-82145142D01*
X30686285Y-81811809D01*
X30876761Y-81811809D01*
X30257714Y-82240380D02*
X30257714Y-81240380D01*
X29686285Y-82240380D01*
X29686285Y-81240380D01*
X29210095Y-82240380D02*
X29210095Y-81240380D01*
X28972000Y-81240380D01*
X28829142Y-81288000D01*
X28733904Y-81383238D01*
X28686285Y-81478476D01*
X28638666Y-81668952D01*
X28638666Y-81811809D01*
X28686285Y-82002285D01*
X28733904Y-82097523D01*
X28829142Y-82192761D01*
X28972000Y-82240380D01*
X29210095Y-82240380D01*
X30670476Y-78827380D02*
X31146666Y-78827380D01*
X31194285Y-79303571D01*
X31146666Y-79255952D01*
X31051428Y-79208333D01*
X30813333Y-79208333D01*
X30718095Y-79255952D01*
X30670476Y-79303571D01*
X30622857Y-79398809D01*
X30622857Y-79636904D01*
X30670476Y-79732142D01*
X30718095Y-79779761D01*
X30813333Y-79827380D01*
X31051428Y-79827380D01*
X31146666Y-79779761D01*
X31194285Y-79732142D01*
X30337142Y-78827380D02*
X30003809Y-79827380D01*
X29670476Y-78827380D01*
X142692380Y-79748238D02*
X141692380Y-79748238D01*
X141692380Y-80129190D01*
X141740000Y-80224428D01*
X141787619Y-80272047D01*
X141882857Y-80319666D01*
X142025714Y-80319666D01*
X142120952Y-80272047D01*
X142168571Y-80224428D01*
X142216190Y-80129190D01*
X142216190Y-79748238D01*
X141692380Y-80653000D02*
X142692380Y-80891095D01*
X141978095Y-81081571D01*
X142692380Y-81272047D01*
X141692380Y-81510142D01*
X142692380Y-81891095D02*
X141692380Y-81891095D01*
X142406666Y-82224428D01*
X141692380Y-82557761D01*
X142692380Y-82557761D01*
X144486380Y-81470523D02*
X144486380Y-80994333D01*
X144962571Y-80946714D01*
X144914952Y-80994333D01*
X144867333Y-81089571D01*
X144867333Y-81327666D01*
X144914952Y-81422904D01*
X144962571Y-81470523D01*
X145057809Y-81518142D01*
X145295904Y-81518142D01*
X145391142Y-81470523D01*
X145438761Y-81422904D01*
X145486380Y-81327666D01*
X145486380Y-81089571D01*
X145438761Y-80994333D01*
X145391142Y-80946714D01*
X144486380Y-81803857D02*
X145486380Y-82137190D01*
X144486380Y-82470523D01*
X146947000Y-80518095D02*
X146899380Y-80422857D01*
X146899380Y-80280000D01*
X146947000Y-80137142D01*
X147042238Y-80041904D01*
X147137476Y-79994285D01*
X147327952Y-79946666D01*
X147470809Y-79946666D01*
X147661285Y-79994285D01*
X147756523Y-80041904D01*
X147851761Y-80137142D01*
X147899380Y-80280000D01*
X147899380Y-80375238D01*
X147851761Y-80518095D01*
X147804142Y-80565714D01*
X147470809Y-80565714D01*
X147470809Y-80375238D01*
X147899380Y-80994285D02*
X146899380Y-80994285D01*
X147899380Y-81565714D01*
X146899380Y-81565714D01*
X147899380Y-82041904D02*
X146899380Y-82041904D01*
X146899380Y-82280000D01*
X146947000Y-82422857D01*
X147042238Y-82518095D01*
X147137476Y-82565714D01*
X147327952Y-82613333D01*
X147470809Y-82613333D01*
X147661285Y-82565714D01*
X147756523Y-82518095D01*
X147851761Y-82422857D01*
X147899380Y-82280000D01*
X147899380Y-82041904D01*
X123545000Y-122594809D02*
X123545000Y-123594809D01*
X124817142Y-123404333D02*
X124864761Y-123356714D01*
X124912380Y-123213857D01*
X124912380Y-123118619D01*
X124864761Y-122975761D01*
X124769523Y-122880523D01*
X124674285Y-122832904D01*
X124483809Y-122785285D01*
X124340952Y-122785285D01*
X124150476Y-122832904D01*
X124055238Y-122880523D01*
X123960000Y-122975761D01*
X123912380Y-123118619D01*
X123912380Y-123213857D01*
X123960000Y-123356714D01*
X124007619Y-123404333D01*
X123545000Y-123594809D02*
X123545000Y-124547190D01*
X124864761Y-123785285D02*
X124912380Y-123928142D01*
X124912380Y-124166238D01*
X124864761Y-124261476D01*
X124817142Y-124309095D01*
X124721904Y-124356714D01*
X124626666Y-124356714D01*
X124531428Y-124309095D01*
X124483809Y-124261476D01*
X124436190Y-124166238D01*
X124388571Y-123975761D01*
X124340952Y-123880523D01*
X124293333Y-123832904D01*
X124198095Y-123785285D01*
X124102857Y-123785285D01*
X124007619Y-123832904D01*
X123960000Y-123880523D01*
X123912380Y-123975761D01*
X123912380Y-124213857D01*
X123960000Y-124356714D01*
X127071380Y-122253571D02*
X126071380Y-122253571D01*
X126785666Y-122586904D01*
X126071380Y-122920238D01*
X127071380Y-122920238D01*
X127071380Y-123396428D02*
X126071380Y-123396428D01*
X127023761Y-123825000D02*
X127071380Y-123967857D01*
X127071380Y-124205952D01*
X127023761Y-124301190D01*
X126976142Y-124348809D01*
X126880904Y-124396428D01*
X126785666Y-124396428D01*
X126690428Y-124348809D01*
X126642809Y-124301190D01*
X126595190Y-124205952D01*
X126547571Y-124015476D01*
X126499952Y-123920238D01*
X126452333Y-123872619D01*
X126357095Y-123825000D01*
X126261857Y-123825000D01*
X126166619Y-123872619D01*
X126119000Y-123920238D01*
X126071380Y-124015476D01*
X126071380Y-124253571D01*
X126119000Y-124396428D01*
X126071380Y-125015476D02*
X126071380Y-125205952D01*
X126119000Y-125301190D01*
X126214238Y-125396428D01*
X126404714Y-125444047D01*
X126738047Y-125444047D01*
X126928523Y-125396428D01*
X127023761Y-125301190D01*
X127071380Y-125205952D01*
X127071380Y-125015476D01*
X127023761Y-124920238D01*
X126928523Y-124825000D01*
X126738047Y-124777380D01*
X126404714Y-124777380D01*
X126214238Y-124825000D01*
X126119000Y-124920238D01*
X126071380Y-125015476D01*
X129738380Y-122253571D02*
X128738380Y-122253571D01*
X129452666Y-122586904D01*
X128738380Y-122920238D01*
X129738380Y-122920238D01*
X128738380Y-123586904D02*
X128738380Y-123777380D01*
X128786000Y-123872619D01*
X128881238Y-123967857D01*
X129071714Y-124015476D01*
X129405047Y-124015476D01*
X129595523Y-123967857D01*
X129690761Y-123872619D01*
X129738380Y-123777380D01*
X129738380Y-123586904D01*
X129690761Y-123491666D01*
X129595523Y-123396428D01*
X129405047Y-123348809D01*
X129071714Y-123348809D01*
X128881238Y-123396428D01*
X128786000Y-123491666D01*
X128738380Y-123586904D01*
X129690761Y-124396428D02*
X129738380Y-124539285D01*
X129738380Y-124777380D01*
X129690761Y-124872619D01*
X129643142Y-124920238D01*
X129547904Y-124967857D01*
X129452666Y-124967857D01*
X129357428Y-124920238D01*
X129309809Y-124872619D01*
X129262190Y-124777380D01*
X129214571Y-124586904D01*
X129166952Y-124491666D01*
X129119333Y-124444047D01*
X129024095Y-124396428D01*
X128928857Y-124396428D01*
X128833619Y-124444047D01*
X128786000Y-124491666D01*
X128738380Y-124586904D01*
X128738380Y-124825000D01*
X128786000Y-124967857D01*
X129738380Y-125396428D02*
X128738380Y-125396428D01*
X132357761Y-122412285D02*
X132405380Y-122555142D01*
X132405380Y-122793238D01*
X132357761Y-122888476D01*
X132310142Y-122936095D01*
X132214904Y-122983714D01*
X132119666Y-122983714D01*
X132024428Y-122936095D01*
X131976809Y-122888476D01*
X131929190Y-122793238D01*
X131881571Y-122602761D01*
X131833952Y-122507523D01*
X131786333Y-122459904D01*
X131691095Y-122412285D01*
X131595857Y-122412285D01*
X131500619Y-122459904D01*
X131453000Y-122507523D01*
X131405380Y-122602761D01*
X131405380Y-122840857D01*
X131453000Y-122983714D01*
X132310142Y-123983714D02*
X132357761Y-123936095D01*
X132405380Y-123793238D01*
X132405380Y-123698000D01*
X132357761Y-123555142D01*
X132262523Y-123459904D01*
X132167285Y-123412285D01*
X131976809Y-123364666D01*
X131833952Y-123364666D01*
X131643476Y-123412285D01*
X131548238Y-123459904D01*
X131453000Y-123555142D01*
X131405380Y-123698000D01*
X131405380Y-123793238D01*
X131453000Y-123936095D01*
X131500619Y-123983714D01*
X132405380Y-124412285D02*
X131405380Y-124412285D01*
X132405380Y-124983714D02*
X131833952Y-124555142D01*
X131405380Y-124983714D02*
X131976809Y-124412285D01*
X133945380Y-122872523D02*
X133945380Y-122396333D01*
X134421571Y-122348714D01*
X134373952Y-122396333D01*
X134326333Y-122491571D01*
X134326333Y-122729666D01*
X134373952Y-122824904D01*
X134421571Y-122872523D01*
X134516809Y-122920142D01*
X134754904Y-122920142D01*
X134850142Y-122872523D01*
X134897761Y-122824904D01*
X134945380Y-122729666D01*
X134945380Y-122491571D01*
X134897761Y-122396333D01*
X134850142Y-122348714D01*
X133945380Y-123205857D02*
X134945380Y-123539190D01*
X133945380Y-123872523D01*
X136406000Y-122936095D02*
X136358380Y-122840857D01*
X136358380Y-122698000D01*
X136406000Y-122555142D01*
X136501238Y-122459904D01*
X136596476Y-122412285D01*
X136786952Y-122364666D01*
X136929809Y-122364666D01*
X137120285Y-122412285D01*
X137215523Y-122459904D01*
X137310761Y-122555142D01*
X137358380Y-122698000D01*
X137358380Y-122793238D01*
X137310761Y-122936095D01*
X137263142Y-122983714D01*
X136929809Y-122983714D01*
X136929809Y-122793238D01*
X137358380Y-123412285D02*
X136358380Y-123412285D01*
X137358380Y-123983714D01*
X136358380Y-123983714D01*
X137358380Y-124459904D02*
X136358380Y-124459904D01*
X136358380Y-124698000D01*
X136406000Y-124840857D01*
X136501238Y-124936095D01*
X136596476Y-124983714D01*
X136786952Y-125031333D01*
X136929809Y-125031333D01*
X137120285Y-124983714D01*
X137215523Y-124936095D01*
X137310761Y-124840857D01*
X137358380Y-124698000D01*
X137358380Y-124459904D01*
D12*
X167619071Y-134890285D02*
X167619071Y-134033142D01*
X167619071Y-134461714D02*
X166119071Y-134461714D01*
X166333357Y-134318857D01*
X166476214Y-134176000D01*
X166547642Y-134033142D01*
X166261928Y-135461714D02*
X166190500Y-135533142D01*
X166119071Y-135676000D01*
X166119071Y-136033142D01*
X166190500Y-136176000D01*
X166261928Y-136247428D01*
X166404785Y-136318857D01*
X166547642Y-136318857D01*
X166761928Y-136247428D01*
X167619071Y-135390285D01*
X167619071Y-136318857D01*
X167047642Y-136961714D02*
X167047642Y-138104571D01*
X166261928Y-138747428D02*
X166190500Y-138818857D01*
X166119071Y-138961714D01*
X166119071Y-139318857D01*
X166190500Y-139461714D01*
X166261928Y-139533142D01*
X166404785Y-139604571D01*
X166547642Y-139604571D01*
X166761928Y-139533142D01*
X167619071Y-138676000D01*
X167619071Y-139604571D01*
X166619071Y-140890285D02*
X167619071Y-140890285D01*
X166047642Y-140533142D02*
X167119071Y-140176000D01*
X167119071Y-141104571D01*
X166119071Y-141461714D02*
X167619071Y-141961714D01*
X166119071Y-142461714D01*
X169462642Y-134961714D02*
X169462642Y-136104571D01*
X170034071Y-135533142D02*
X168891214Y-135533142D01*
X169462642Y-140247428D02*
X169462642Y-141390285D01*
D10*
X161529380Y-121031380D02*
X160529380Y-121031380D01*
X161005571Y-121031380D02*
X161005571Y-121602809D01*
X161529380Y-121602809D02*
X160529380Y-121602809D01*
X161481761Y-122459952D02*
X161529380Y-122364714D01*
X161529380Y-122174238D01*
X161481761Y-122079000D01*
X161386523Y-122031380D01*
X161005571Y-122031380D01*
X160910333Y-122079000D01*
X160862714Y-122174238D01*
X160862714Y-122364714D01*
X160910333Y-122459952D01*
X161005571Y-122507571D01*
X161100809Y-122507571D01*
X161196047Y-122031380D01*
X161529380Y-123364714D02*
X161005571Y-123364714D01*
X160910333Y-123317095D01*
X160862714Y-123221857D01*
X160862714Y-123031380D01*
X160910333Y-122936142D01*
X161481761Y-123364714D02*
X161529380Y-123269476D01*
X161529380Y-123031380D01*
X161481761Y-122936142D01*
X161386523Y-122888523D01*
X161291285Y-122888523D01*
X161196047Y-122936142D01*
X161148428Y-123031380D01*
X161148428Y-123269476D01*
X161100809Y-123364714D01*
X160862714Y-123698047D02*
X160862714Y-124079000D01*
X160529380Y-123840904D02*
X161386523Y-123840904D01*
X161481761Y-123888523D01*
X161529380Y-123983761D01*
X161529380Y-124079000D01*
X161481761Y-124793285D02*
X161529380Y-124698047D01*
X161529380Y-124507571D01*
X161481761Y-124412333D01*
X161386523Y-124364714D01*
X161005571Y-124364714D01*
X160910333Y-124412333D01*
X160862714Y-124507571D01*
X160862714Y-124698047D01*
X160910333Y-124793285D01*
X161005571Y-124840904D01*
X161100809Y-124840904D01*
X161196047Y-124364714D01*
X161529380Y-125269476D02*
X160862714Y-125269476D01*
X161053190Y-125269476D02*
X160957952Y-125317095D01*
X160910333Y-125364714D01*
X160862714Y-125459952D01*
X160862714Y-125555190D01*
X161529380Y-127174238D02*
X161529380Y-126602809D01*
X161529380Y-126888523D02*
X160529380Y-126888523D01*
X160672238Y-126793285D01*
X160767476Y-126698047D01*
X160815095Y-126602809D01*
X163520333Y-122602809D02*
X163472714Y-122555190D01*
X163329857Y-122459952D01*
X163234619Y-122412333D01*
X163091761Y-122364714D01*
X162853666Y-122317095D01*
X162663190Y-122317095D01*
X162425095Y-122364714D01*
X162282238Y-122412333D01*
X162187000Y-122459952D01*
X162044142Y-122555190D01*
X161996523Y-122602809D01*
X163139380Y-122983761D02*
X162139380Y-122983761D01*
X162520333Y-122983761D02*
X162472714Y-123079000D01*
X162472714Y-123269476D01*
X162520333Y-123364714D01*
X162567952Y-123412333D01*
X162663190Y-123459952D01*
X162948904Y-123459952D01*
X163044142Y-123412333D01*
X163091761Y-123364714D01*
X163139380Y-123269476D01*
X163139380Y-123079000D01*
X163091761Y-122983761D01*
X163091761Y-124269476D02*
X163139380Y-124174238D01*
X163139380Y-123983761D01*
X163091761Y-123888523D01*
X162996523Y-123840904D01*
X162615571Y-123840904D01*
X162520333Y-123888523D01*
X162472714Y-123983761D01*
X162472714Y-124174238D01*
X162520333Y-124269476D01*
X162615571Y-124317095D01*
X162710809Y-124317095D01*
X162806047Y-123840904D01*
X163139380Y-125174238D02*
X162139380Y-125174238D01*
X163091761Y-125174238D02*
X163139380Y-125079000D01*
X163139380Y-124888523D01*
X163091761Y-124793285D01*
X163044142Y-124745666D01*
X162948904Y-124698047D01*
X162663190Y-124698047D01*
X162567952Y-124745666D01*
X162520333Y-124793285D01*
X162472714Y-124888523D01*
X162472714Y-125079000D01*
X162520333Y-125174238D01*
X163520333Y-125555190D02*
X163472714Y-125602809D01*
X163329857Y-125698047D01*
X163234619Y-125745666D01*
X163091761Y-125793285D01*
X162853666Y-125840904D01*
X162663190Y-125840904D01*
X162425095Y-125793285D01*
X162282238Y-125745666D01*
X162187000Y-125698047D01*
X162044142Y-125602809D01*
X161996523Y-125555190D01*
X164368428Y-121555190D02*
X164368428Y-122317095D01*
X164368428Y-125840904D02*
X164368428Y-126602809D01*
X164749380Y-126221857D02*
X163987476Y-126221857D01*
X162969380Y-108204380D02*
X161969380Y-108204380D01*
X162445571Y-108204380D02*
X162445571Y-108775809D01*
X162969380Y-108775809D02*
X161969380Y-108775809D01*
X162921761Y-109632952D02*
X162969380Y-109537714D01*
X162969380Y-109347238D01*
X162921761Y-109252000D01*
X162826523Y-109204380D01*
X162445571Y-109204380D01*
X162350333Y-109252000D01*
X162302714Y-109347238D01*
X162302714Y-109537714D01*
X162350333Y-109632952D01*
X162445571Y-109680571D01*
X162540809Y-109680571D01*
X162636047Y-109204380D01*
X162969380Y-110537714D02*
X162445571Y-110537714D01*
X162350333Y-110490095D01*
X162302714Y-110394857D01*
X162302714Y-110204380D01*
X162350333Y-110109142D01*
X162921761Y-110537714D02*
X162969380Y-110442476D01*
X162969380Y-110204380D01*
X162921761Y-110109142D01*
X162826523Y-110061523D01*
X162731285Y-110061523D01*
X162636047Y-110109142D01*
X162588428Y-110204380D01*
X162588428Y-110442476D01*
X162540809Y-110537714D01*
X162302714Y-110871047D02*
X162302714Y-111252000D01*
X161969380Y-111013904D02*
X162826523Y-111013904D01*
X162921761Y-111061523D01*
X162969380Y-111156761D01*
X162969380Y-111252000D01*
X162921761Y-111966285D02*
X162969380Y-111871047D01*
X162969380Y-111680571D01*
X162921761Y-111585333D01*
X162826523Y-111537714D01*
X162445571Y-111537714D01*
X162350333Y-111585333D01*
X162302714Y-111680571D01*
X162302714Y-111871047D01*
X162350333Y-111966285D01*
X162445571Y-112013904D01*
X162540809Y-112013904D01*
X162636047Y-111537714D01*
X162969380Y-112442476D02*
X162302714Y-112442476D01*
X162493190Y-112442476D02*
X162397952Y-112490095D01*
X162350333Y-112537714D01*
X162302714Y-112632952D01*
X162302714Y-112728190D01*
X162064619Y-113775809D02*
X162017000Y-113823428D01*
X161969380Y-113918666D01*
X161969380Y-114156761D01*
X162017000Y-114252000D01*
X162064619Y-114299619D01*
X162159857Y-114347238D01*
X162255095Y-114347238D01*
X162397952Y-114299619D01*
X162969380Y-113728190D01*
X162969380Y-114347238D01*
X164198428Y-109490095D02*
X164198428Y-110252000D01*
X164198428Y-112252000D02*
X164198428Y-113013904D01*
X164579380Y-112632952D02*
X163817476Y-112632952D01*
X162969380Y-99441380D02*
X161969380Y-99441380D01*
X162445571Y-99441380D02*
X162445571Y-100012809D01*
X162969380Y-100012809D02*
X161969380Y-100012809D01*
X162921761Y-100869952D02*
X162969380Y-100774714D01*
X162969380Y-100584238D01*
X162921761Y-100489000D01*
X162826523Y-100441380D01*
X162445571Y-100441380D01*
X162350333Y-100489000D01*
X162302714Y-100584238D01*
X162302714Y-100774714D01*
X162350333Y-100869952D01*
X162445571Y-100917571D01*
X162540809Y-100917571D01*
X162636047Y-100441380D01*
X162969380Y-101774714D02*
X162445571Y-101774714D01*
X162350333Y-101727095D01*
X162302714Y-101631857D01*
X162302714Y-101441380D01*
X162350333Y-101346142D01*
X162921761Y-101774714D02*
X162969380Y-101679476D01*
X162969380Y-101441380D01*
X162921761Y-101346142D01*
X162826523Y-101298523D01*
X162731285Y-101298523D01*
X162636047Y-101346142D01*
X162588428Y-101441380D01*
X162588428Y-101679476D01*
X162540809Y-101774714D01*
X162302714Y-102108047D02*
X162302714Y-102489000D01*
X161969380Y-102250904D02*
X162826523Y-102250904D01*
X162921761Y-102298523D01*
X162969380Y-102393761D01*
X162969380Y-102489000D01*
X162921761Y-103203285D02*
X162969380Y-103108047D01*
X162969380Y-102917571D01*
X162921761Y-102822333D01*
X162826523Y-102774714D01*
X162445571Y-102774714D01*
X162350333Y-102822333D01*
X162302714Y-102917571D01*
X162302714Y-103108047D01*
X162350333Y-103203285D01*
X162445571Y-103250904D01*
X162540809Y-103250904D01*
X162636047Y-102774714D01*
X162969380Y-103679476D02*
X162302714Y-103679476D01*
X162493190Y-103679476D02*
X162397952Y-103727095D01*
X162350333Y-103774714D01*
X162302714Y-103869952D01*
X162302714Y-103965190D01*
X161969380Y-104965190D02*
X161969380Y-105584238D01*
X162350333Y-105250904D01*
X162350333Y-105393761D01*
X162397952Y-105489000D01*
X162445571Y-105536619D01*
X162540809Y-105584238D01*
X162778904Y-105584238D01*
X162874142Y-105536619D01*
X162921761Y-105489000D01*
X162969380Y-105393761D01*
X162969380Y-105108047D01*
X162921761Y-105012809D01*
X162874142Y-104965190D01*
X164198428Y-100727095D02*
X164198428Y-101489000D01*
X164198428Y-103489000D02*
X164198428Y-104250904D01*
X164579380Y-103869952D02*
X163817476Y-103869952D01*
X162842380Y-91186380D02*
X161842380Y-91186380D01*
X162318571Y-91186380D02*
X162318571Y-91757809D01*
X162842380Y-91757809D02*
X161842380Y-91757809D01*
X162794761Y-92614952D02*
X162842380Y-92519714D01*
X162842380Y-92329238D01*
X162794761Y-92234000D01*
X162699523Y-92186380D01*
X162318571Y-92186380D01*
X162223333Y-92234000D01*
X162175714Y-92329238D01*
X162175714Y-92519714D01*
X162223333Y-92614952D01*
X162318571Y-92662571D01*
X162413809Y-92662571D01*
X162509047Y-92186380D01*
X162842380Y-93519714D02*
X162318571Y-93519714D01*
X162223333Y-93472095D01*
X162175714Y-93376857D01*
X162175714Y-93186380D01*
X162223333Y-93091142D01*
X162794761Y-93519714D02*
X162842380Y-93424476D01*
X162842380Y-93186380D01*
X162794761Y-93091142D01*
X162699523Y-93043523D01*
X162604285Y-93043523D01*
X162509047Y-93091142D01*
X162461428Y-93186380D01*
X162461428Y-93424476D01*
X162413809Y-93519714D01*
X162175714Y-93853047D02*
X162175714Y-94234000D01*
X161842380Y-93995904D02*
X162699523Y-93995904D01*
X162794761Y-94043523D01*
X162842380Y-94138761D01*
X162842380Y-94234000D01*
X162794761Y-94948285D02*
X162842380Y-94853047D01*
X162842380Y-94662571D01*
X162794761Y-94567333D01*
X162699523Y-94519714D01*
X162318571Y-94519714D01*
X162223333Y-94567333D01*
X162175714Y-94662571D01*
X162175714Y-94853047D01*
X162223333Y-94948285D01*
X162318571Y-94995904D01*
X162413809Y-94995904D01*
X162509047Y-94519714D01*
X162842380Y-95424476D02*
X162175714Y-95424476D01*
X162366190Y-95424476D02*
X162270952Y-95472095D01*
X162223333Y-95519714D01*
X162175714Y-95614952D01*
X162175714Y-95710190D01*
X162175714Y-97234000D02*
X162842380Y-97234000D01*
X161794761Y-96995904D02*
X162509047Y-96757809D01*
X162509047Y-97376857D01*
X164071428Y-92472095D02*
X164071428Y-93234000D01*
X164071428Y-95234000D02*
X164071428Y-95995904D01*
X164452380Y-95614952D02*
X163690476Y-95614952D01*
X97885047Y-64401571D02*
X98218380Y-64401571D01*
X98218380Y-64925380D02*
X98218380Y-63925380D01*
X97742190Y-63925380D01*
X96932666Y-64925380D02*
X96932666Y-64401571D01*
X96980285Y-64306333D01*
X97075523Y-64258714D01*
X97266000Y-64258714D01*
X97361238Y-64306333D01*
X96932666Y-64877761D02*
X97027904Y-64925380D01*
X97266000Y-64925380D01*
X97361238Y-64877761D01*
X97408857Y-64782523D01*
X97408857Y-64687285D01*
X97361238Y-64592047D01*
X97266000Y-64544428D01*
X97027904Y-64544428D01*
X96932666Y-64496809D01*
X96456476Y-64258714D02*
X96456476Y-64925380D01*
X96456476Y-64353952D02*
X96408857Y-64306333D01*
X96313619Y-64258714D01*
X96170761Y-64258714D01*
X96075523Y-64306333D01*
X96027904Y-64401571D01*
X96027904Y-64925380D01*
X94313619Y-63925380D02*
X94789809Y-63925380D01*
X94837428Y-64401571D01*
X94789809Y-64353952D01*
X94694571Y-64306333D01*
X94456476Y-64306333D01*
X94361238Y-64353952D01*
X94313619Y-64401571D01*
X94266000Y-64496809D01*
X94266000Y-64734904D01*
X94313619Y-64830142D01*
X94361238Y-64877761D01*
X94456476Y-64925380D01*
X94694571Y-64925380D01*
X94789809Y-64877761D01*
X94837428Y-64830142D01*
X98027904Y-66154428D02*
X97266000Y-66154428D01*
X95266000Y-66154428D02*
X94504095Y-66154428D01*
X94885047Y-66535380D02*
X94885047Y-65773476D01*
X89376047Y-64401571D02*
X89709380Y-64401571D01*
X89709380Y-64925380D02*
X89709380Y-63925380D01*
X89233190Y-63925380D01*
X88423666Y-64925380D02*
X88423666Y-64401571D01*
X88471285Y-64306333D01*
X88566523Y-64258714D01*
X88757000Y-64258714D01*
X88852238Y-64306333D01*
X88423666Y-64877761D02*
X88518904Y-64925380D01*
X88757000Y-64925380D01*
X88852238Y-64877761D01*
X88899857Y-64782523D01*
X88899857Y-64687285D01*
X88852238Y-64592047D01*
X88757000Y-64544428D01*
X88518904Y-64544428D01*
X88423666Y-64496809D01*
X87947476Y-64258714D02*
X87947476Y-64925380D01*
X87947476Y-64353952D02*
X87899857Y-64306333D01*
X87804619Y-64258714D01*
X87661761Y-64258714D01*
X87566523Y-64306333D01*
X87518904Y-64401571D01*
X87518904Y-64925380D01*
X85852238Y-64258714D02*
X85852238Y-64925380D01*
X86090333Y-63877761D02*
X86328428Y-64592047D01*
X85709380Y-64592047D01*
X89518904Y-66154428D02*
X88757000Y-66154428D01*
X86757000Y-66154428D02*
X85995095Y-66154428D01*
X86376047Y-66535380D02*
X86376047Y-65773476D01*
X80613047Y-64401571D02*
X80946380Y-64401571D01*
X80946380Y-64925380D02*
X80946380Y-63925380D01*
X80470190Y-63925380D01*
X79660666Y-64925380D02*
X79660666Y-64401571D01*
X79708285Y-64306333D01*
X79803523Y-64258714D01*
X79994000Y-64258714D01*
X80089238Y-64306333D01*
X79660666Y-64877761D02*
X79755904Y-64925380D01*
X79994000Y-64925380D01*
X80089238Y-64877761D01*
X80136857Y-64782523D01*
X80136857Y-64687285D01*
X80089238Y-64592047D01*
X79994000Y-64544428D01*
X79755904Y-64544428D01*
X79660666Y-64496809D01*
X79184476Y-64258714D02*
X79184476Y-64925380D01*
X79184476Y-64353952D02*
X79136857Y-64306333D01*
X79041619Y-64258714D01*
X78898761Y-64258714D01*
X78803523Y-64306333D01*
X78755904Y-64401571D01*
X78755904Y-64925380D01*
X77613047Y-63925380D02*
X76994000Y-63925380D01*
X77327333Y-64306333D01*
X77184476Y-64306333D01*
X77089238Y-64353952D01*
X77041619Y-64401571D01*
X76994000Y-64496809D01*
X76994000Y-64734904D01*
X77041619Y-64830142D01*
X77089238Y-64877761D01*
X77184476Y-64925380D01*
X77470190Y-64925380D01*
X77565428Y-64877761D01*
X77613047Y-64830142D01*
X80755904Y-66154428D02*
X79994000Y-66154428D01*
X77994000Y-66154428D02*
X77232095Y-66154428D01*
X77613047Y-66535380D02*
X77613047Y-65773476D01*
X71850047Y-64401571D02*
X72183380Y-64401571D01*
X72183380Y-64925380D02*
X72183380Y-63925380D01*
X71707190Y-63925380D01*
X70897666Y-64925380D02*
X70897666Y-64401571D01*
X70945285Y-64306333D01*
X71040523Y-64258714D01*
X71231000Y-64258714D01*
X71326238Y-64306333D01*
X70897666Y-64877761D02*
X70992904Y-64925380D01*
X71231000Y-64925380D01*
X71326238Y-64877761D01*
X71373857Y-64782523D01*
X71373857Y-64687285D01*
X71326238Y-64592047D01*
X71231000Y-64544428D01*
X70992904Y-64544428D01*
X70897666Y-64496809D01*
X70421476Y-64258714D02*
X70421476Y-64925380D01*
X70421476Y-64353952D02*
X70373857Y-64306333D01*
X70278619Y-64258714D01*
X70135761Y-64258714D01*
X70040523Y-64306333D01*
X69992904Y-64401571D01*
X69992904Y-64925380D01*
X68802428Y-64020619D02*
X68754809Y-63973000D01*
X68659571Y-63925380D01*
X68421476Y-63925380D01*
X68326238Y-63973000D01*
X68278619Y-64020619D01*
X68231000Y-64115857D01*
X68231000Y-64211095D01*
X68278619Y-64353952D01*
X68850047Y-64925380D01*
X68231000Y-64925380D01*
X71992904Y-66154428D02*
X71231000Y-66154428D01*
X69231000Y-66154428D02*
X68469095Y-66154428D01*
X68850047Y-66535380D02*
X68850047Y-65773476D01*
X63468047Y-64401571D02*
X63801380Y-64401571D01*
X63801380Y-64925380D02*
X63801380Y-63925380D01*
X63325190Y-63925380D01*
X62515666Y-64925380D02*
X62515666Y-64401571D01*
X62563285Y-64306333D01*
X62658523Y-64258714D01*
X62848999Y-64258714D01*
X62944238Y-64306333D01*
X62515666Y-64877761D02*
X62610904Y-64925380D01*
X62848999Y-64925380D01*
X62944238Y-64877761D01*
X62991857Y-64782523D01*
X62991857Y-64687285D01*
X62944238Y-64592047D01*
X62848999Y-64544428D01*
X62610904Y-64544428D01*
X62515666Y-64496809D01*
X62039476Y-64258714D02*
X62039476Y-64925380D01*
X62039476Y-64353952D02*
X61991857Y-64306333D01*
X61896619Y-64258714D01*
X61753761Y-64258714D01*
X61658523Y-64306333D01*
X61610904Y-64401571D01*
X61610904Y-64925380D01*
X59848999Y-64925380D02*
X60420428Y-64925380D01*
X60134714Y-64925380D02*
X60134714Y-63925380D01*
X60229952Y-64068238D01*
X60325190Y-64163476D01*
X60420428Y-64211095D01*
X63610904Y-66154428D02*
X62849000Y-66154428D01*
X60849000Y-66154428D02*
X60087095Y-66154428D01*
X60468047Y-66535380D02*
X60468047Y-65773476D01*
M02*
