M48
; DRILL file {KiCad (5.1.0-1558-g0ba0c1724)} date Sun 27 Oct 2019 12:28:44 AM PDT
; FORMAT={-:-/ absolute / metric / decimal}
; #@! TF.CreationDate,2019-10-27T00:28:44-07:00
; #@! TF.GenerationSoftware,Kicad,Pcbnew,(5.1.0-1558-g0ba0c1724)
; #@! TF.FileFunction,NonPlated,1,2,NPTH
FMAT,2
METRIC
T1C0.500
T2C1.000
T3C2.350
T4C3.200
%
G90
G05
T1
X168.157Y-64.745
X168.157Y-68.745
T2
X167.386Y-77.214
X167.386Y-85.194
T3
X61.456Y-145.268
X61.456Y-154.418
X141.456Y-145.268
X141.456Y-154.418
X41.456Y-145.268
X41.456Y-154.418
X81.456Y-145.268
X81.456Y-154.418
X121.456Y-145.268
X121.456Y-154.418
X101.456Y-145.268
X101.456Y-154.418
T4
X26.924Y-62.992
X168.148Y-159.512
X157.988Y-62.992
X61.456Y-127.618
X61.456Y-159.268
X26.924Y-159.512
X141.456Y-127.618
X141.456Y-159.268
X41.456Y-127.618
X41.456Y-159.268
X81.456Y-127.618
X81.456Y-159.268
X121.456Y-127.618
X121.456Y-159.268
X101.456Y-127.618
X101.456Y-159.268
T0
M30
