%TF.GenerationSoftware,KiCad,Pcbnew,5.99.0-unknown-eb819a3b25~139~ubuntu20.04.1*%
%TF.CreationDate,2021-10-10T19:22:44-07:00*%
%TF.ProjectId,PrntrBoardV2,50726e74-7242-46f6-9172-6456322e6b69,rev?*%
%TF.SameCoordinates,PX160b110PY9be08a8*%
%TF.FileFunction,Soldermask,Bot*%
%TF.FilePolarity,Negative*%
%FSLAX46Y46*%
G04 Gerber Fmt 4.6, Leading zero omitted, Abs format (unit mm)*
G04 Created by KiCad (PCBNEW 5.99.0-unknown-eb819a3b25~139~ubuntu20.04.1) date 2021-10-10 19:22:44*
%MOMM*%
%LPD*%
G01*
G04 APERTURE LIST*
G04 Aperture macros list*
%AMRoundRect*
0 Rectangle with rounded corners*
0 $1 Rounding radius*
0 $2 $3 $4 $5 $6 $7 $8 $9 X,Y pos of 4 corners*
0 Add a 4 corners polygon primitive as box body*
4,1,4,$2,$3,$4,$5,$6,$7,$8,$9,$2,$3,0*
0 Add four circle primitives for the rounded corners*
1,1,$1+$1,$2,$3*
1,1,$1+$1,$4,$5*
1,1,$1+$1,$6,$7*
1,1,$1+$1,$8,$9*
0 Add four rect primitives between the rounded corners*
20,1,$1+$1,$2,$3,$4,$5,0*
20,1,$1+$1,$4,$5,$6,$7,0*
20,1,$1+$1,$6,$7,$8,$9,0*
20,1,$1+$1,$8,$9,$2,$3,0*%
G04 Aperture macros list end*
%ADD10C,3.200000*%
%ADD11R,1.727200X1.727200*%
%ADD12O,1.727200X1.727200*%
%ADD13C,0.500000*%
%ADD14RoundRect,0.250000X-0.600000X-0.750000X0.600000X-0.750000X0.600000X0.750000X-0.600000X0.750000X0*%
%ADD15O,1.700000X2.000000*%
%ADD16R,2.600000X2.600000*%
%ADD17C,2.600000*%
%ADD18R,2.400000X2.400000*%
%ADD19C,2.400000*%
%ADD20R,1.700000X1.700000*%
%ADD21O,1.700000X1.700000*%
%ADD22R,2.500000X2.500000*%
%ADD23C,2.500000*%
%ADD24C,3.600000*%
%ADD25R,1.208000X1.208000*%
%ADD26C,1.208000*%
%ADD27C,2.350000*%
%ADD28RoundRect,0.250000X0.725000X-0.600000X0.725000X0.600000X-0.725000X0.600000X-0.725000X-0.600000X0*%
%ADD29O,1.950000X1.700000*%
%ADD30R,1.778000X1.778000*%
%ADD31C,1.778000*%
%ADD32RoundRect,0.250000X0.600000X0.750000X-0.600000X0.750000X-0.600000X-0.750000X0.600000X-0.750000X0*%
%ADD33RoundRect,0.250000X0.750000X-0.600000X0.750000X0.600000X-0.750000X0.600000X-0.750000X-0.600000X0*%
%ADD34O,2.000000X1.700000*%
%ADD35C,1.448000*%
%ADD36C,3.250000*%
%ADD37R,1.520000X1.520000*%
%ADD38C,1.520000*%
%ADD39R,1.600000X0.700000*%
%ADD40R,2.200000X1.200000*%
%ADD41R,1.400000X1.600000*%
%ADD42R,1.400000X1.200000*%
G04 APERTURE END LIST*
D10*
X3810000Y3937000D03*
X3810000Y100457000D03*
X134874000Y100457000D03*
D11*
X42418000Y64389000D03*
D12*
X42418000Y61849000D03*
X39878000Y64389000D03*
X39878000Y61849000D03*
X37338000Y64389000D03*
X37338000Y61849000D03*
X34798000Y64389000D03*
X34798000Y61849000D03*
X32258000Y64389000D03*
X32258000Y61849000D03*
D11*
X21031200Y64389000D03*
D12*
X21031200Y61849000D03*
X18491200Y64389000D03*
X18491200Y61849000D03*
X15951200Y64389000D03*
X15951200Y61849000D03*
X13411200Y64389000D03*
X13411200Y61849000D03*
X10871200Y64389000D03*
X10871200Y61849000D03*
D13*
X145036400Y98697800D03*
X145036400Y94697800D03*
D14*
X71882000Y101219000D03*
D15*
X74382000Y101219000D03*
D16*
X143786000Y39459000D03*
D17*
X143786000Y44539000D03*
D18*
X143886000Y67366000D03*
D19*
X143886000Y70866000D03*
D20*
X119150200Y55245000D03*
D21*
X121690200Y55245000D03*
X124230200Y55245000D03*
D20*
X119126000Y64389000D03*
D21*
X121666000Y64389000D03*
X124206000Y64389000D03*
D20*
X119126000Y73533000D03*
D21*
X121666000Y73533000D03*
X124206000Y73533000D03*
D20*
X119126000Y58293000D03*
D21*
X121666000Y58293000D03*
X124206000Y58293000D03*
D20*
X119126000Y67437000D03*
D21*
X121666000Y67437000D03*
X124206000Y67437000D03*
D20*
X119126000Y76581000D03*
D21*
X121666000Y76581000D03*
X124206000Y76581000D03*
D20*
X119126000Y61341000D03*
D21*
X121666000Y61341000D03*
X124206000Y61341000D03*
D20*
X119126000Y70485000D03*
D21*
X121666000Y70485000D03*
X124206000Y70485000D03*
D20*
X119126000Y79629000D03*
D21*
X121666000Y79629000D03*
X124206000Y79629000D03*
D14*
X37338000Y101219000D03*
D15*
X39838000Y101219000D03*
D18*
X143886000Y50546000D03*
D19*
X143886000Y54046000D03*
D14*
X45974000Y101219000D03*
D15*
X48474000Y101219000D03*
D14*
X54650000Y101219000D03*
D15*
X57150000Y101219000D03*
D18*
X143886000Y58928000D03*
D19*
X143886000Y62428000D03*
D14*
X63246000Y101219000D03*
D15*
X65746000Y101219000D03*
D22*
X140286000Y25449000D03*
D23*
X140286000Y31799000D03*
D20*
X94107000Y68072000D03*
D21*
X94107000Y65532000D03*
X94107000Y62992000D03*
X94107000Y60452000D03*
D24*
X18342000Y35831000D03*
X18342000Y4181000D03*
D25*
X19592000Y29831000D03*
D26*
X21592000Y28831000D03*
X19592000Y27831000D03*
X21592000Y26831000D03*
X19592000Y25831000D03*
X21592000Y24831000D03*
X19592000Y23831000D03*
X21592000Y22831000D03*
X19592000Y21831000D03*
X21592000Y20831000D03*
X19592000Y19831000D03*
X21592000Y16831000D03*
X19592000Y15831000D03*
X21592000Y14831000D03*
X19592000Y13831000D03*
X21592000Y12831000D03*
X19592000Y11831000D03*
X21592000Y10831000D03*
D25*
X17092000Y29831000D03*
D26*
X15092000Y28831000D03*
X17092000Y27831000D03*
X15092000Y26831000D03*
X17092000Y25831000D03*
X15092000Y24831000D03*
X17092000Y23831000D03*
X15092000Y22831000D03*
X17092000Y21831000D03*
X15092000Y20831000D03*
X17092000Y19831000D03*
X15092000Y16831000D03*
X17092000Y15831000D03*
X15092000Y14831000D03*
X17092000Y13831000D03*
X15092000Y12831000D03*
X17092000Y11831000D03*
X15092000Y10831000D03*
D27*
X18342000Y9031000D03*
X18342000Y18181000D03*
D24*
X38342000Y4181000D03*
X38342000Y35831000D03*
D25*
X39592000Y29831000D03*
D26*
X41592000Y28831000D03*
X39592000Y27831000D03*
X41592000Y26831000D03*
X39592000Y25831000D03*
X41592000Y24831000D03*
X39592000Y23831000D03*
X41592000Y22831000D03*
X39592000Y21831000D03*
X41592000Y20831000D03*
X39592000Y19831000D03*
X41592000Y16831000D03*
X39592000Y15831000D03*
X41592000Y14831000D03*
X39592000Y13831000D03*
X41592000Y12831000D03*
X39592000Y11831000D03*
X41592000Y10831000D03*
D25*
X37092000Y29831000D03*
D26*
X35092000Y28831000D03*
X37092000Y27831000D03*
X35092000Y26831000D03*
X37092000Y25831000D03*
X35092000Y24831000D03*
X37092000Y23831000D03*
X35092000Y22831000D03*
X37092000Y21831000D03*
X35092000Y20831000D03*
X37092000Y19831000D03*
X35092000Y16831000D03*
X37092000Y15831000D03*
X35092000Y14831000D03*
X37092000Y13831000D03*
X35092000Y12831000D03*
X37092000Y11831000D03*
X35092000Y10831000D03*
D27*
X38342000Y18181000D03*
X38342000Y9031000D03*
D24*
X58342000Y4181000D03*
X58342000Y35831000D03*
D25*
X59592000Y29831000D03*
D26*
X61592000Y28831000D03*
X59592000Y27831000D03*
X61592000Y26831000D03*
X59592000Y25831000D03*
X61592000Y24831000D03*
X59592000Y23831000D03*
X61592000Y22831000D03*
X59592000Y21831000D03*
X61592000Y20831000D03*
X59592000Y19831000D03*
X61592000Y16831000D03*
X59592000Y15831000D03*
X61592000Y14831000D03*
X59592000Y13831000D03*
X61592000Y12831000D03*
X59592000Y11831000D03*
X61592000Y10831000D03*
D25*
X57092000Y29831000D03*
D26*
X55092000Y28831000D03*
X57092000Y27831000D03*
X55092000Y26831000D03*
X57092000Y25831000D03*
X55092000Y24831000D03*
X57092000Y23831000D03*
X55092000Y22831000D03*
X57092000Y21831000D03*
X55092000Y20831000D03*
X57092000Y19831000D03*
X55092000Y16831000D03*
X57092000Y15831000D03*
X55092000Y14831000D03*
X57092000Y13831000D03*
X55092000Y12831000D03*
X57092000Y11831000D03*
X55092000Y10831000D03*
D27*
X58342000Y18181000D03*
X58342000Y9031000D03*
D24*
X78342000Y35831000D03*
X78342000Y4181000D03*
D25*
X79592000Y29831000D03*
D26*
X81592000Y28831000D03*
X79592000Y27831000D03*
X81592000Y26831000D03*
X79592000Y25831000D03*
X81592000Y24831000D03*
X79592000Y23831000D03*
X81592000Y22831000D03*
X79592000Y21831000D03*
X81592000Y20831000D03*
X79592000Y19831000D03*
X81592000Y16831000D03*
X79592000Y15831000D03*
X81592000Y14831000D03*
X79592000Y13831000D03*
X81592000Y12831000D03*
X79592000Y11831000D03*
X81592000Y10831000D03*
D25*
X77092000Y29831000D03*
D26*
X75092000Y28831000D03*
X77092000Y27831000D03*
X75092000Y26831000D03*
X77092000Y25831000D03*
X75092000Y24831000D03*
X77092000Y23831000D03*
X75092000Y22831000D03*
X77092000Y21831000D03*
X75092000Y20831000D03*
X77092000Y19831000D03*
X75092000Y16831000D03*
X77092000Y15831000D03*
X75092000Y14831000D03*
X77092000Y13831000D03*
X75092000Y12831000D03*
X77092000Y11831000D03*
X75092000Y10831000D03*
D27*
X78342000Y9031000D03*
X78342000Y18181000D03*
D24*
X98342000Y35831000D03*
X98342000Y4181000D03*
D25*
X99592000Y29831000D03*
D26*
X101592000Y28831000D03*
X99592000Y27831000D03*
X101592000Y26831000D03*
X99592000Y25831000D03*
X101592000Y24831000D03*
X99592000Y23831000D03*
X101592000Y22831000D03*
X99592000Y21831000D03*
X101592000Y20831000D03*
X99592000Y19831000D03*
X101592000Y16831000D03*
X99592000Y15831000D03*
X101592000Y14831000D03*
X99592000Y13831000D03*
X101592000Y12831000D03*
X99592000Y11831000D03*
X101592000Y10831000D03*
D25*
X97092000Y29831000D03*
D26*
X95092000Y28831000D03*
X97092000Y27831000D03*
X95092000Y26831000D03*
X97092000Y25831000D03*
X95092000Y24831000D03*
X97092000Y23831000D03*
X95092000Y22831000D03*
X97092000Y21831000D03*
X95092000Y20831000D03*
X97092000Y19831000D03*
X95092000Y16831000D03*
X97092000Y15831000D03*
X95092000Y14831000D03*
X97092000Y13831000D03*
X95092000Y12831000D03*
X97092000Y11831000D03*
X95092000Y10831000D03*
D27*
X98342000Y18181000D03*
X98342000Y9031000D03*
D24*
X118342000Y35831000D03*
X118342000Y4181000D03*
D25*
X119592000Y29831000D03*
D26*
X121592000Y28831000D03*
X119592000Y27831000D03*
X121592000Y26831000D03*
X119592000Y25831000D03*
X121592000Y24831000D03*
X119592000Y23831000D03*
X121592000Y22831000D03*
X119592000Y21831000D03*
X121592000Y20831000D03*
X119592000Y19831000D03*
X121592000Y16831000D03*
X119592000Y15831000D03*
X121592000Y14831000D03*
X119592000Y13831000D03*
X121592000Y12831000D03*
X119592000Y11831000D03*
X121592000Y10831000D03*
D25*
X117092000Y29831000D03*
D26*
X115092000Y28831000D03*
X117092000Y27831000D03*
X115092000Y26831000D03*
X117092000Y25831000D03*
X115092000Y24831000D03*
X117092000Y23831000D03*
X115092000Y22831000D03*
X117092000Y21831000D03*
X115092000Y20831000D03*
X117092000Y19831000D03*
X115092000Y16831000D03*
X117092000Y15831000D03*
X115092000Y14831000D03*
X117092000Y13831000D03*
X115092000Y12831000D03*
X117092000Y11831000D03*
X115092000Y10831000D03*
D27*
X118342000Y9031000D03*
X118342000Y18181000D03*
D20*
X82550000Y84963000D03*
D21*
X82550000Y82423000D03*
X82550000Y79883000D03*
X82550000Y77343000D03*
X82550000Y74803000D03*
D14*
X81788000Y101219000D03*
D15*
X84288000Y101219000D03*
D14*
X90424000Y101219000D03*
D15*
X92924000Y101219000D03*
D14*
X99060000Y101219000D03*
D15*
X101560000Y101219000D03*
D14*
X107696000Y101219000D03*
D15*
X110196000Y101219000D03*
D14*
X116332000Y101219000D03*
D15*
X118832000Y101219000D03*
D14*
X124968000Y101219000D03*
D15*
X127468000Y101219000D03*
D28*
X30124400Y95925000D03*
D29*
X30124400Y98425000D03*
X30124400Y100925000D03*
D28*
X23215600Y95885000D03*
D29*
X23215600Y98385000D03*
X23215600Y100885000D03*
D28*
X38354000Y79222600D03*
D29*
X38354000Y81722600D03*
X38354000Y84222600D03*
D28*
X45669200Y79222600D03*
D29*
X45669200Y81722600D03*
X45669200Y84222600D03*
D28*
X31242000Y79222600D03*
D29*
X31242000Y81722600D03*
X31242000Y84222600D03*
D28*
X9906000Y79222600D03*
D29*
X9906000Y81722600D03*
X9906000Y84222600D03*
D28*
X17018000Y79222600D03*
D29*
X17018000Y81722600D03*
X17018000Y84222600D03*
D20*
X53594000Y70485000D03*
D21*
X51054000Y70485000D03*
D20*
X3486000Y56309000D03*
D21*
X3486000Y53769000D03*
X3486000Y51229000D03*
D20*
X9779000Y24257000D03*
D21*
X9779000Y26797000D03*
X9779000Y29337000D03*
D20*
X69850000Y24257000D03*
D21*
X69850000Y26797000D03*
X69850000Y29337000D03*
D20*
X29845000Y24257000D03*
D21*
X29845000Y26797000D03*
X29845000Y29337000D03*
D20*
X89789000Y24257000D03*
D21*
X89789000Y26797000D03*
X89789000Y29337000D03*
D20*
X109855000Y24257000D03*
D21*
X109855000Y26797000D03*
X109855000Y29337000D03*
D20*
X49784000Y24257000D03*
D21*
X49784000Y26797000D03*
X49784000Y29337000D03*
D30*
X113792000Y77724000D03*
D31*
X111252000Y77724000D03*
X108712000Y77724000D03*
X106172000Y77724000D03*
X103632000Y77724000D03*
X101092000Y77724000D03*
D30*
X113792000Y70866000D03*
D31*
X111252000Y70866000D03*
X108712000Y70866000D03*
X106172000Y70866000D03*
X103632000Y70866000D03*
X101092000Y70866000D03*
D30*
X113792000Y64008000D03*
D31*
X111252000Y64008000D03*
X108712000Y64008000D03*
X106172000Y64008000D03*
X103632000Y64008000D03*
X101092000Y64008000D03*
D30*
X113792000Y57150000D03*
D31*
X111252000Y57150000D03*
X108712000Y57150000D03*
X106172000Y57150000D03*
X103632000Y57150000D03*
X101092000Y57150000D03*
D30*
X113792000Y50292000D03*
D31*
X111252000Y50292000D03*
X108712000Y50292000D03*
X106172000Y50292000D03*
X103632000Y50292000D03*
X101092000Y50292000D03*
D30*
X113792000Y43434000D03*
D31*
X111252000Y43434000D03*
X108712000Y43434000D03*
X106172000Y43434000D03*
X103632000Y43434000D03*
X101092000Y43434000D03*
D28*
X24130000Y79222600D03*
D29*
X24130000Y81722600D03*
X24130000Y84222600D03*
D10*
X145034000Y3937000D03*
D11*
X73342500Y87820500D03*
D12*
X73342500Y85280500D03*
X70802500Y87820500D03*
X70802500Y85280500D03*
X68262500Y87820500D03*
X68262500Y85280500D03*
X65722500Y87820500D03*
X65722500Y85280500D03*
X63182500Y87820500D03*
X63182500Y85280500D03*
D32*
X49022000Y15113000D03*
D15*
X46522000Y15113000D03*
D32*
X108966000Y15113000D03*
D15*
X106466000Y15113000D03*
D32*
X28448000Y2921000D03*
D15*
X25948000Y2921000D03*
D32*
X128143000Y2921000D03*
D15*
X125643000Y2921000D03*
D32*
X68961000Y15113000D03*
D15*
X66461000Y15113000D03*
D32*
X89027000Y15113000D03*
D15*
X86527000Y15113000D03*
D32*
X136636000Y2949000D03*
D15*
X134136000Y2949000D03*
D33*
X3175000Y19431000D03*
D34*
X3175000Y21931000D03*
D35*
X146886000Y7849000D03*
X147186000Y102949000D03*
X7786000Y2249000D03*
X7786000Y102349000D03*
D20*
X131386000Y95449000D03*
D21*
X131386000Y92909000D03*
D36*
X141286000Y76679000D03*
X141286000Y86839000D03*
D37*
X132396000Y78589000D03*
D38*
X134936000Y79859000D03*
X132396000Y81129000D03*
X134936000Y82399000D03*
X132396000Y83669000D03*
X134936000Y84939000D03*
D18*
X143886000Y13549000D03*
D19*
X143886000Y17049000D03*
D39*
X12486200Y42799000D03*
X12486200Y41699000D03*
X12486200Y40599000D03*
X12486200Y39499000D03*
X12486200Y38399000D03*
D40*
X2386200Y48349000D03*
D41*
X11986200Y47449000D03*
D42*
X11986200Y32849000D03*
D39*
X12486200Y37299000D03*
D40*
X2386200Y32849000D03*
D39*
X12486200Y36199000D03*
X12486200Y35099000D03*
X12486200Y33999000D03*
M02*
