M48
; DRILL file {KiCad 5.99.0-unknown-d20d310~86~ubuntu19.10.1} date Fri 13 Dec 2019 01:20:46 PM PST
; FORMAT={-:-/ absolute / metric / decimal}
; #@! TF.CreationDate,2019-12-13T13:20:46-08:00
; #@! TF.GenerationSoftware,Kicad,Pcbnew,5.99.0-unknown-d20d310~86~ubuntu19.10.1
; #@! TF.FileFunction,Plated,1,2,PTH
FMAT,2
METRIC
T1C0.254
T2C0.300
T3C0.400
T4C0.500
T5C0.700
T6C0.950
T7C1.000
T8C1.016
T9C1.200
T10C1.300
%
G90
G05
T1
X31.41Y-110.601
X31.41Y-111.2
X31.41Y-111.8
X31.41Y-112.4
X31.41Y-113.0
X31.41Y-113.6
X31.41Y-114.2
X32.0Y-110.6
X32.0Y-111.2
X32.0Y-111.8
X32.0Y-112.4
X32.0Y-113.0
X32.0Y-113.6
X32.0Y-114.2
X32.3Y-105.7
X32.3Y-106.299
X32.6Y-110.6
X32.6Y-111.2
X32.6Y-111.8
X32.6Y-112.4
X32.6Y-113.0
X32.6Y-113.6
X32.6Y-114.2
X32.89Y-105.699
X32.89Y-106.299
X33.2Y-110.6
X33.2Y-111.2
X33.2Y-111.8
X33.2Y-112.4
X33.2Y-113.0
X33.2Y-113.6
X33.2Y-114.2
X33.49Y-105.699
X33.49Y-106.299
X33.8Y-110.6
X33.8Y-111.2
X33.8Y-111.8
X33.8Y-112.4
X33.8Y-113.0
X33.8Y-113.6
X33.8Y-114.2
X41.55Y-117.2
X41.55Y-118.2
X41.55Y-119.2
X42.55Y-117.2
X43.3Y-117.2
X44.05Y-117.2
X44.55Y-117.7
X44.55Y-118.4
X44.55Y-119.2
X44.75Y-116.95
X45.978Y-118.328
X46.65Y-118.35
T2
X24.2Y-72.1
X24.75Y-71.55
X25.3Y-71.0
X26.9Y-107.7
X28.15Y-103.2
X28.15Y-124.5
X29.718Y-74.422
X30.734Y-73.152
X31.2Y-107.7
X31.242Y-82.931
X31.242Y-91.313
X31.242Y-104.775
X31.5Y-67.05
X31.877Y-91.821
X31.877Y-104.267
X32.512Y-88.138
X33.02Y-144.526
X33.147Y-95.199
X34.729Y-91.338
X34.99Y-103.205
X35.65Y-102.9
X36.8Y-124.5
X36.83Y-134.112
X37.592Y-96.444
X38.151Y-95.758
X38.227Y-122.936
X38.5Y-93.05
X39.652Y-92.235
X39.801Y-88.138
X40.386Y-77.597
X40.877Y-90.848
X42.088Y-95.174
X42.164Y-93.04
X42.418Y-90.957
X42.799Y-130.937
X43.1Y-94.75
X43.434Y-82.931
X43.434Y-90.949
X43.84Y-93.904
X45.568Y-96.063
X46.0Y-113.7
X46.0Y-114.4
X46.405Y-71.374
X46.482Y-93.904
X46.7Y-113.7
X46.7Y-114.4
X46.913Y-88.138
X47.109Y-95.567
X47.301Y-131.699
X47.502Y-94.773
X47.75Y-123.95
X48.209Y-94.604
X48.25Y-132.45
X48.7Y-92.25
X48.768Y-86.487
X48.85Y-111.35
X49.2Y-93.85
X49.259Y-110.75
X49.35Y-103.0
X49.75Y-123.15
X49.834Y-90.586
X49.85Y-104.284
X50.114Y-92.253
X50.55Y-104.8
X50.55Y-107.2
X50.597Y-96.164
X50.74Y-120.91
X50.74Y-121.71
X52.959Y-131.572
X53.408Y-96.215
X53.517Y-71.374
X53.848Y-114.808
X53.85Y-117.85
X53.873Y-93.04
X53.899Y-106.172
X53.999Y-88.138
X54.389Y-96.418
X54.483Y-103.784
X54.534Y-93.878
X54.61Y-100.33
X54.712Y-119.873
X54.95Y-117.7
X55.75Y-117.7
X55.88Y-86.106
X56.185Y-96.418
X56.5Y-118.2
X56.769Y-106.68
X57.277Y-93.624
X58.166Y-123.207
X58.776Y-93.548
X59.055Y-103.734
X59.118Y-72.644
X59.538Y-92.05
X61.011Y-93.134
X61.137Y-88.138
X61.468Y-72.581
X61.646Y-102.438
X62.25Y-95.05
X62.738Y-131.081
X63.246Y-73.343
X63.746Y-90.187
X65.024Y-70.104
X66.789Y-141.618
X66.802Y-131.445
X67.3Y-117.8
X67.35Y-107.2
X67.55Y-95.05
X67.945Y-145.288
X68.063Y-104.388
X68.072Y-115.443
X68.503Y-88.138
X68.707Y-120.043
X69.116Y-114.711
X69.585Y-92.571
X69.75Y-117.8
X69.75Y-120.5
X69.839Y-114.015
X69.913Y-121.955
X69.913Y-127.444
X70.02Y-114.996
X70.104Y-92.058
X70.387Y-93.189
X70.74Y-115.099
X70.756Y-93.815
X70.82Y-114.072
X70.85Y-122.7
X70.851Y-119.451
X70.993Y-91.567
X71.264Y-102.541
X71.628Y-133.286
X71.755Y-96.456
X72.119Y-130.827
X72.18Y-143.618
X72.263Y-87.884
X72.326Y-73.088
X72.562Y-101.257
X72.563Y-123.701
X72.689Y-103.184
X72.817Y-116.247
X72.879Y-132.327
X73.0Y-98.45
X73.008Y-104.577
X73.025Y-87.82
X73.071Y-115.201
X73.123Y-131.346
X73.384Y-130.667
X73.643Y-90.193
X73.833Y-113.308
X73.914Y-70.104
X74.0Y-99.55
X74.056Y-108.244
X74.105Y-89.09
X74.549Y-131.572
X74.698Y-114.845
X74.93Y-107.061
X75.057Y-77.597
X75.057Y-92.202
X75.35Y-98.6
X75.438Y-79.451
X75.8Y-107.95
X75.819Y-123.698
X75.819Y-135.128
X76.073Y-84.557
X76.644Y-81.534
X76.678Y-87.122
X76.8Y-95.45
X76.898Y-89.725
X77.025Y-126.809
X77.025Y-130.746
X77.216Y-102.997
X77.597Y-101.6
X78.13Y-93.624
X78.359Y-122.174
X78.418Y-121.175
X78.958Y-99.078
X79.248Y-131.382
X79.623Y-116.961
X79.753Y-86.366
X79.883Y-75.311
X79.883Y-77.025
X80.01Y-81.724
X80.01Y-83.629
X80.078Y-85.716
X80.088Y-105.579
X80.112Y-112.42
X80.12Y-106.807
X80.137Y-117.475
X80.162Y-108.864
X80.374Y-101.473
X80.374Y-102.997
X80.501Y-90.325
X80.518Y-123.698
X80.751Y-104.161
X81.026Y-99.695
X81.788Y-107.344
X81.915Y-83.121
X82.042Y-101.473
X82.25Y-103.748
X82.511Y-90.586
X82.55Y-70.104
X82.614Y-121.92
X82.677Y-131.382
X82.931Y-93.408
X83.0Y-120.0
X83.82Y-108.204
X83.904Y-137.55
X83.947Y-90.407
X83.953Y-104.071
X84.455Y-105.681
X84.464Y-102.866
X84.709Y-95.441
X84.836Y-93.408
X84.963Y-110.744
X84.963Y-116.476
X85.344Y-85.09
X85.344Y-107.65
X85.725Y-91.44
X85.725Y-99.695
X86.106Y-81.026
X86.106Y-86.487
X86.106Y-87.757
X86.233Y-89.344
X86.233Y-97.091
X86.55Y-121.92
X86.822Y-92.964
X87.312Y-88.854
X87.312Y-97.917
X87.63Y-76.898
X87.63Y-104.902
X87.713Y-106.281
X87.757Y-103.759
X88.011Y-99.06
X88.305Y-105.172
X88.392Y-101.473
X88.392Y-106.553
X88.582Y-109.537
X88.582Y-133.413
X88.684Y-108.31
X88.9Y-99.672
X88.9Y-104.172
X88.906Y-105.656
X88.943Y-101.998
X88.986Y-100.982
X89.042Y-107.677
X89.1Y-96.947
X89.962Y-81.915
X90.678Y-76.898
X90.805Y-110.888
X91.313Y-97.917
X91.313Y-109.728
X91.376Y-98.679
X91.44Y-70.104
X91.757Y-87.122
X91.996Y-110.186
X92.075Y-109.093
X92.09Y-143.749
X92.202Y-79.375
X92.265Y-107.505
X92.392Y-121.92
X92.964Y-93.726
X92.964Y-118.002
X93.091Y-85.217
X93.091Y-89.916
X93.091Y-132.288
X93.205Y-94.416
X93.345Y-95.25
X93.489Y-113.047
X93.536Y-73.677
X93.726Y-71.963
X93.898Y-120.015
X93.905Y-94.219
X94.153Y-92.21
X94.361Y-93.472
X94.386Y-133.071
X94.869Y-91.123
X94.869Y-113.919
X95.186Y-79.121
X95.383Y-114.433
X95.504Y-121.92
X95.521Y-87.757
X95.567Y-118.491
X95.631Y-127.698
X96.012Y-86.487
X96.074Y-114.66
X96.393Y-131.572
X96.398Y-98.628
X96.52Y-95.25
X96.647Y-109.601
X96.664Y-90.235
X96.664Y-91.745
X96.901Y-113.411
X96.965Y-107.188
X97.028Y-131.191
X97.155Y-80.137
X97.155Y-86.868
X97.282Y-109.093
X97.392Y-99.43
X97.536Y-118.872
X97.584Y-122.018
X97.663Y-82.042
X97.663Y-87.503
X97.663Y-92.964
X97.744Y-95.305
X97.917Y-98.408
X97.917Y-107.679
X98.171Y-131.572
X98.322Y-132.283
X98.394Y-116.384
X98.396Y-74.329
X98.552Y-97.917
X98.552Y-106.697
X98.565Y-117.475
X99.022Y-132.479
X99.043Y-75.184
X99.219Y-117.053
X99.251Y-92.265
X99.377Y-74.041
X99.377Y-108.521
X99.441Y-114.41
X99.822Y-70.104
X99.885Y-77.153
X99.885Y-98.044
X100.022Y-115.248
X100.393Y-74.549
X100.393Y-122.11
X100.575Y-114.775
X100.584Y-118.237
X100.794Y-94.967
X100.852Y-115.838
X101.219Y-76.136
X101.346Y-113.157
X101.398Y-95.371
X101.554Y-84.113
X101.554Y-91.134
X101.7Y-67.35
X101.75Y-115.249
X102.044Y-74.041
X102.108Y-97.98
X102.108Y-122.047
X102.535Y-76.027
X102.87Y-115.443
X102.937Y-76.632
X103.107Y-85.821
X103.107Y-89.331
X103.38Y-95.25
X103.505Y-106.045
X103.759Y-122.047
X103.809Y-70.358
X104.14Y-98.171
X104.14Y-113.221
X104.203Y-109.22
X104.648Y-117.856
X105.474Y-95.822
X105.537Y-111.379
X105.981Y-116.268
X106.426Y-97.409
X106.617Y-111.569
X106.68Y-104.153
X106.934Y-109.728
X106.986Y-119.507
X107.061Y-82.359
X107.076Y-102.172
X107.076Y-79.456
X107.442Y-100.049
X107.442Y-100.776
X107.442Y-104.648
X107.459Y-120.523
X107.826Y-103.153
X107.95Y-121.175
X108.204Y-66.548
X108.353Y-103.653
X108.394Y-77.025
X108.458Y-120.65
X108.475Y-119.507
X108.585Y-101.092
X108.729Y-121.533
X109.093Y-101.727
X109.148Y-122.413
X109.347Y-123.427
X109.451Y-107.764
X109.474Y-84.836
X109.474Y-98.298
X110.045Y-99.695
X110.109Y-86.296
X110.109Y-95.885
X110.172Y-87.503
X110.177Y-122.723
X110.359Y-106.861
X110.49Y-104.14
X110.617Y-97.79
X110.617Y-107.823
X110.744Y-114.808
X110.744Y-116.268
X110.744Y-133.54
X111.442Y-131.762
X111.506Y-91.44
X111.76Y-95.25
X111.76Y-105.266
X111.76Y-118.554
X111.823Y-106.743
X111.887Y-109.601
X111.887Y-122.491
X112.02Y-91.954
X112.126Y-143.749
X112.251Y-103.124
X112.382Y-88.912
X112.445Y-70.358
X112.522Y-85.09
X112.522Y-87.122
X112.585Y-115.697
X112.712Y-88.201
X112.776Y-73.406
X112.776Y-90.551
X112.903Y-132.334
X112.978Y-103.124
X113.284Y-92.456
X113.347Y-95.822
X113.347Y-97.853
X113.411Y-104.14
X113.711Y-115.108
X113.919Y-75.184
X113.919Y-83.82
X113.919Y-104.775
X114.043Y-99.819
X114.046Y-105.999
X114.554Y-103.188
X114.554Y-122.11
X114.557Y-100.333
X114.993Y-75.993
X115.185Y-105.491
X115.189Y-94.742
X115.218Y-114.71
X115.333Y-80.437
X115.507Y-76.507
X115.57Y-107.378
X115.68Y-102.235
X115.814Y-89.471
X116.022Y-101.594
X116.078Y-82.55
X116.141Y-109.664
X116.141Y-118.554
X116.395Y-79.947
X116.84Y-66.548
X117.094Y-105.999
X117.094Y-107.696
X117.983Y-119.507
X118.254Y-109.093
X118.254Y-90.949
X118.3Y-89.01
X118.364Y-116.078
X118.368Y-85.604
X118.618Y-87.52
X118.739Y-113.925
X118.85Y-67.1
X119.006Y-96.219
X119.253Y-113.411
X119.316Y-122.682
X119.335Y-99.022
X119.38Y-102.044
X119.444Y-119.062
X119.45Y-106.877
X119.477Y-107.604
X119.49Y-111.506
X119.634Y-90.949
X119.634Y-92.583
X119.842Y-109.503
X119.987Y-96.457
X120.142Y-79.883
X120.142Y-85.725
X120.478Y-99.765
X120.633Y-114.046
X120.65Y-93.472
X120.713Y-122.682
X120.732Y-98.316
X120.898Y-84.322
X120.898Y-91.954
X120.904Y-114.808
X121.081Y-70.358
X121.141Y-102.108
X121.158Y-94.234
X121.222Y-96.215
X121.412Y-84.836
X121.412Y-91.44
X121.412Y-105.664
X121.412Y-122.428
X121.793Y-99.441
X121.903Y-110.744
X122.428Y-104.013
X122.428Y-124.333
X122.745Y-131.826
X122.936Y-120.65
X122.936Y-124.968
X123.15Y-107.5
X123.35Y-87.1
X123.65Y-94.0
X124.0Y-96.9
X124.206Y-110.236
X125.35Y-107.45
X125.476Y-66.548
X125.603Y-124.333
X125.857Y-78.486
X126.771Y-133.071
X127.35Y-67.2
X127.95Y-118.65
X128.0Y-116.35
X128.143Y-114.554
X128.15Y-78.8
X129.255Y-135.413
X129.286Y-89.027
X129.717Y-70.358
X130.556Y-78.486
X130.556Y-121.158
X130.81Y-79.756
X131.801Y-137.69
X131.826Y-88.519
X132.035Y-143.618
X132.3Y-72.9
X132.542Y-131.979
X132.7Y-77.8
X132.8Y-89.05
X132.9Y-107.6
X132.9Y-110.5
X132.95Y-87.25
X132.95Y-94.1
X132.95Y-96.95
X132.95Y-101.2
X132.95Y-104.0
X133.032Y-115.062
X133.439Y-78.441
X133.54Y-132.524
X134.112Y-66.548
X135.6Y-115.4
X135.65Y-110.55
X135.85Y-103.4
X135.95Y-96.95
X136.05Y-67.2
X136.301Y-72.37
X137.058Y-72.701
X137.45Y-110.6
X137.45Y-115.4
X137.65Y-103.4
X138.049Y-124.968
X138.147Y-121.606
X138.15Y-89.0
X138.353Y-70.358
X138.43Y-94.234
X138.557Y-122.555
X138.557Y-132.461
X138.938Y-103.124
X139.077Y-122.047
X139.192Y-109.474
X139.192Y-119.888
X139.274Y-79.431
X139.908Y-112.776
X140.0Y-105.7
X140.208Y-124.714
X140.222Y-84.322
X140.335Y-90.551
X140.335Y-92.964
X140.462Y-110.236
X140.462Y-120.396
X140.786Y-85.764
X141.1Y-81.15
X141.478Y-112.014
X141.478Y-115.062
X141.948Y-72.955
X141.986Y-120.396
X141.986Y-121.92
X142.469Y-79.331
X142.748Y-66.548
X143.51Y-94.725
X143.795Y-103.629
X144.65Y-67.2
X146.05Y-112.268
X146.05Y-122.682
X146.177Y-72.009
X146.304Y-124.714
X146.431Y-88.328
X146.989Y-70.358
X147.2Y-72.1
X147.828Y-79.756
X148.6Y-72.0
X148.6Y-74.9
X149.15Y-70.3
X149.7Y-74.9
X150.495Y-77.597
X150.495Y-87.058
X150.9Y-74.9
X151.194Y-76.962
X151.194Y-88.328
X151.384Y-66.548
X152.019Y-87.058
X152.1Y-70.35
X152.908Y-94.234
X152.908Y-102.87
X152.908Y-112.014
X152.908Y-120.396
X153.416Y-73.301
X153.589Y-74.168
X153.914Y-74.818
X153.924Y-122.682
X155.0Y-153.0
X155.022Y-84.664
X155.155Y-85.764
X155.194Y-80.772
X155.702Y-82.296
X156.781Y-75.132
X157.134Y-109.855
X157.226Y-94.488
X157.226Y-103.378
X159.136Y-74.75
X159.258Y-121.666
X159.863Y-74.75
X35.5Y-111.35
X35.5Y-112.2
X35.5Y-113.05
X36.15Y-111.35
X36.15Y-112.2
X36.15Y-113.05
X36.8Y-111.35
X36.8Y-112.2
X36.8Y-113.05
X37.45Y-111.35
X37.45Y-112.2
X37.45Y-113.05
X38.1Y-111.35
X38.1Y-112.2
X38.1Y-113.05
T3
X26.6Y-75.0
X26.7Y-82.4
X26.8Y-89.4
X26.86Y-102.044
X26.9Y-93.9
X26.924Y-96.647
X28.638Y-70.866
X29.0Y-106.1
X29.1Y-109.9
X29.9Y-96.7
X30.0Y-102.0
X30.48Y-87.122
X30.5Y-106.1
X30.5Y-109.9
X33.655Y-94.424
X35.306Y-70.358
X36.0Y-106.2
X36.195Y-64.135
X36.322Y-89.09
X37.592Y-87.122
X37.948Y-94.539
X38.7Y-117.0
X38.7Y-118.1
X38.7Y-119.3
X39.37Y-131.699
X39.497Y-124.142
X39.6Y-119.3
X40.5Y-119.3
X40.64Y-64.135
X41.1Y-106.3
X41.75Y-124.1
X41.846Y-75.184
X42.291Y-64.262
X42.481Y-67.564
X42.672Y-70.358
X42.672Y-87.122
X43.497Y-124.841
X44.196Y-70.358
X44.196Y-75.184
X44.704Y-87.122
X46.228Y-99.111
X46.355Y-124.968
X46.482Y-129.286
X46.736Y-142.494
X47.053Y-133.921
X47.752Y-75.184
X48.641Y-142.558
X48.704Y-136.525
X49.0Y-116.1
X49.0Y-119.3
X49.022Y-129.54
X49.085Y-124.841
X49.149Y-134.239
X50.65Y-103.3
X50.673Y-99.187
X50.698Y-101.295
X50.7Y-112.4
X50.7Y-119.35
X50.75Y-109.6
X51.308Y-70.358
X51.45Y-105.8
X51.498Y-75.311
X51.816Y-87.122
X52.324Y-124.46
X52.451Y-129.54
X52.642Y-142.558
X52.8Y-103.3
X52.807Y-99.212
X52.807Y-101.295
X53.65Y-107.95
X53.65Y-109.65
X53.65Y-112.4
X54.546Y-75.248
X55.753Y-134.62
X56.388Y-131.064
X56.515Y-142.748
X57.087Y-66.929
X57.15Y-70.294
X57.34Y-109.283
X57.34Y-124.587
X57.34Y-129.603
X57.404Y-75.311
X58.8Y-120.4
X58.928Y-87.122
X59.309Y-129.476
X59.499Y-124.65
X59.69Y-131.191
X60.452Y-109.156
X60.7Y-118.2
X60.77Y-96.329
X61.404Y-75.438
X63.881Y-96.329
X64.262Y-109.283
X65.722Y-72.453
X66.294Y-87.122
X66.3Y-114.8
X66.358Y-142.558
X66.611Y-124.523
X66.675Y-69.278
X66.675Y-109.347
X66.739Y-129.35
X67.056Y-75.311
X68.263Y-96.393
X68.644Y-99.123
X68.644Y-101.473
X69.088Y-136.462
X69.278Y-138.557
X69.406Y-142.43
X69.469Y-134.112
X69.659Y-72.136
X72.2Y-142.494
X72.707Y-75.438
X72.707Y-118.3
X73.85Y-83.947
X74.803Y-103.632
X74.803Y-134.556
X74.803Y-142.367
X75.184Y-138.367
X76.073Y-112.395
X76.263Y-121.983
X76.708Y-78.848
X76.772Y-109.728
X76.835Y-75.374
X77.279Y-71.564
X77.279Y-117.983
X78.784Y-95.332
X79.629Y-72.644
X79.883Y-78.848
X81.655Y-87.122
X82.169Y-104.902
X82.296Y-124.333
X82.359Y-118.681
X82.486Y-112.395
X82.677Y-74.803
X82.677Y-76.517
X82.677Y-78.676
X82.677Y-109.664
X82.931Y-95.25
X84.455Y-82.233
X85.534Y-71.438
X86.296Y-84.328
X86.36Y-118.554
X86.36Y-124.396
X86.36Y-126.555
X86.36Y-128.905
X86.614Y-112.522
X86.614Y-136.715
X86.699Y-104.933
X86.741Y-110.299
X86.868Y-134.175
X87.249Y-138.557
X87.312Y-142.494
X87.757Y-83.883
X88.201Y-93.853
X88.646Y-95.377
X88.9Y-136.652
X89.218Y-81.026
X90.106Y-112.459
X90.106Y-132.398
X90.742Y-118.491
X91.567Y-130.81
X91.63Y-128.841
X91.694Y-83.439
X91.694Y-124.333
X91.694Y-126.555
X92.265Y-105.283
X92.837Y-70.993
X93.408Y-142.494
X93.599Y-100.393
X93.662Y-102.933
X94.361Y-81.026
X94.361Y-106.299
X94.615Y-87.122
X94.742Y-71.247
X94.932Y-101.155
X95.059Y-103.441
X95.631Y-83.248
X95.885Y-142.494
X95.948Y-134.556
X96.012Y-138.493
X96.52Y-85.598
X99.143Y-76.486
X99.143Y-78.705
X99.206Y-83.029
X99.27Y-85.682
X99.27Y-88.088
X100.711Y-108.839
X100.965Y-124.269
X101.092Y-100.266
X101.092Y-102.806
X101.092Y-105.093
X101.219Y-79.038
X101.219Y-92.456
X101.473Y-70.993
X102.362Y-108.839
X102.425Y-101.854
X102.425Y-103.95
X102.997Y-82.296
X103.005Y-79.038
X104.394Y-114.871
X105.156Y-92.011
X105.156Y-129.35
X105.219Y-124.333
X105.41Y-90.932
X106.362Y-71.056
X106.362Y-113.093
X106.489Y-114.871
X106.489Y-132.398
X106.743Y-117.856
X107.188Y-136.334
X107.378Y-91.885
X107.632Y-142.558
X108.521Y-70.993
X108.775Y-124.396
X108.902Y-129.095
X109.283Y-138.557
X109.537Y-132.461
X109.601Y-88.9
X109.982Y-91.567
X110.109Y-65.532
X110.109Y-72.644
X110.299Y-82.677
X110.363Y-78.74
X111.442Y-108.394
X111.76Y-83.058
X112.268Y-113.157
X112.649Y-123.825
X112.776Y-128.778
X113.919Y-142.621
X114.173Y-113.157
X114.808Y-70.866
X115.914Y-85.788
X115.951Y-138.557
X116.014Y-113.157
X116.84Y-123.888
X116.967Y-128.588
X117.221Y-78.867
X117.411Y-113.093
X117.475Y-81.026
X117.538Y-111.569
X117.919Y-70.866
X117.919Y-73.025
X119.062Y-81.534
X119.38Y-85.09
X119.915Y-117.702
X120.65Y-124.46
X121.1Y-78.6
X122.872Y-101.028
X123.253Y-115.443
X123.698Y-70.866
X123.698Y-80.835
X124.206Y-129.159
X124.46Y-123.317
X124.714Y-104.331
X125.158Y-118.618
X125.476Y-110.553
X126.301Y-70.802
X126.492Y-72.962
X126.492Y-80.772
X127.572Y-133.985
X127.698Y-142.43
X127.762Y-136.652
X127.889Y-132.207
X127.953Y-123.761
X128.079Y-127.825
X129.159Y-80.962
X129.921Y-133.731
X130.429Y-132.207
X130.619Y-123.761
X130.683Y-127.889
X131.255Y-142.494
X132.651Y-70.739
X132.779Y-80.899
X134.366Y-117.475
X135.191Y-70.612
X135.572Y-131.381
X135.636Y-126.746
X136.207Y-142.494
X136.271Y-134.493
X136.271Y-138.62
X136.334Y-133.159
X137.096Y-131.318
X137.35Y-126.682
X138.62Y-81.026
X139.636Y-125.73
X140.017Y-131.381
X140.906Y-123.761
X141.16Y-70.802
X141.287Y-140.653
X143.192Y-70.739
X143.482Y-82.4
X144.526Y-123.634
X144.526Y-144.082
X144.78Y-71.247
X144.844Y-131.572
X145.097Y-126.301
X149.288Y-80.835
X150.812Y-90.678
X152.654Y-83.058
X154.114Y-67.246
X155.13Y-72.962
X157.226Y-71.628
X157.988Y-83.566
X158.496Y-73.406
X158.496Y-88.138
X159.4Y-146.2
X159.4Y-147.6
X159.4Y-149.0
X159.4Y-150.4
X160.8Y-146.2
X160.8Y-147.6
X160.8Y-149.0
X160.8Y-150.4
X161.862Y-61.214
X162.2Y-146.2
X162.2Y-147.6
X162.2Y-149.0
X162.2Y-150.4
X162.941Y-81.597
X163.576Y-62.484
X163.8Y-146.2
X163.8Y-147.6
X163.8Y-149.0
X163.8Y-150.4
X164.465Y-74.612
X165.354Y-72.644
X165.608Y-88.138
X166.37Y-63.691
X166.878Y-64.77
X168.719Y-74.486
T4
X26.416Y-126.238
X26.416Y-128.778
X29.718Y-155.956
X32.258Y-155.956
X49.593Y-155.638
X49.784Y-62.484
X49.797Y-79.261
X50.692Y-143.618
X52.133Y-155.638
X55.118Y-105.481
X56.388Y-113.538
X59.182Y-113.538
X61.976Y-120.396
X64.072Y-112.776
X65.265Y-79.261
X67.056Y-105.481
X67.31Y-120.396
X68.77Y-112.776
X68.834Y-104.902
X69.088Y-162.052
X71.882Y-162.052
X89.662Y-162.103
X92.202Y-162.103
X106.426Y-65.532
X108.358Y-81.143
X109.83Y-162.103
X112.37Y-162.103
X113.284Y-65.532
X121.92Y-65.532
X129.794Y-162.052
X130.556Y-65.532
X132.334Y-162.052
X134.366Y-95.25
X134.474Y-143.618
X139.192Y-65.532
X147.828Y-65.532
X152.908Y-90.424
X152.908Y-91.694
X152.908Y-92.964
X152.908Y-99.06
X152.908Y-100.33
X152.908Y-101.6
X152.908Y-107.95
X152.908Y-109.22
X152.908Y-110.49
X152.908Y-116.586
X152.908Y-117.856
X152.908Y-119.126
X160.782Y-129.54
T5
X38.206Y-134.618
X38.206Y-136.618
X38.206Y-138.618
X38.206Y-140.618
X38.206Y-142.618
X38.206Y-146.618
X38.206Y-148.618
X38.206Y-150.618
X38.206Y-152.618
X40.206Y-133.618
X40.206Y-135.618
X40.206Y-137.618
X40.206Y-139.618
X40.206Y-141.618
X40.206Y-143.618
X40.206Y-147.618
X40.206Y-149.618
X40.206Y-151.618
X42.706Y-133.618
X42.706Y-135.618
X42.706Y-137.618
X42.706Y-139.618
X42.706Y-141.618
X42.706Y-143.618
X42.706Y-147.618
X42.706Y-149.618
X42.706Y-151.618
X44.706Y-134.618
X44.706Y-136.618
X44.706Y-138.618
X44.706Y-140.618
X44.706Y-142.618
X44.706Y-146.618
X44.706Y-148.618
X44.706Y-150.618
X44.706Y-152.618
X78.206Y-134.618
X78.206Y-136.618
X78.206Y-138.618
X78.206Y-140.618
X78.206Y-142.618
X78.206Y-146.618
X78.206Y-148.618
X78.206Y-150.618
X78.206Y-152.618
X80.206Y-133.618
X80.206Y-135.618
X80.206Y-137.618
X80.206Y-139.618
X80.206Y-141.618
X80.206Y-143.618
X80.206Y-147.618
X80.206Y-149.618
X80.206Y-151.618
X82.706Y-133.618
X82.706Y-135.618
X82.706Y-137.618
X82.706Y-139.618
X82.706Y-141.618
X82.706Y-143.618
X82.706Y-147.618
X82.706Y-149.618
X82.706Y-151.618
X84.706Y-134.618
X84.706Y-136.618
X84.706Y-138.618
X84.706Y-140.618
X84.706Y-142.618
X84.706Y-146.618
X84.706Y-148.618
X84.706Y-150.618
X84.706Y-152.618
X138.206Y-134.618
X138.206Y-136.618
X138.206Y-138.618
X138.206Y-140.618
X138.206Y-142.618
X138.206Y-146.618
X138.206Y-148.618
X138.206Y-150.618
X138.206Y-152.618
X140.206Y-133.618
X140.206Y-135.618
X140.206Y-137.618
X140.206Y-139.618
X140.206Y-141.618
X140.206Y-143.618
X140.206Y-147.618
X140.206Y-149.618
X140.206Y-151.618
X142.706Y-133.618
X142.706Y-135.618
X142.706Y-137.618
X142.706Y-139.618
X142.706Y-141.618
X142.706Y-143.618
X142.706Y-147.618
X142.706Y-149.618
X142.706Y-151.618
X144.706Y-134.618
X144.706Y-136.618
X144.706Y-138.618
X144.706Y-140.618
X144.706Y-142.618
X144.706Y-146.618
X144.706Y-148.618
X144.706Y-150.618
X144.706Y-152.618
X58.206Y-134.618
X58.206Y-136.618
X58.206Y-138.618
X58.206Y-140.618
X58.206Y-142.618
X58.206Y-146.618
X58.206Y-148.618
X58.206Y-150.618
X58.206Y-152.618
X60.206Y-133.618
X60.206Y-135.618
X60.206Y-137.618
X60.206Y-139.618
X60.206Y-141.618
X60.206Y-143.618
X60.206Y-147.618
X60.206Y-149.618
X60.206Y-151.618
X62.706Y-133.618
X62.706Y-135.618
X62.706Y-137.618
X62.706Y-139.618
X62.706Y-141.618
X62.706Y-143.618
X62.706Y-147.618
X62.706Y-149.618
X62.706Y-151.618
X64.706Y-134.618
X64.706Y-136.618
X64.706Y-138.618
X64.706Y-140.618
X64.706Y-142.618
X64.706Y-146.618
X64.706Y-148.618
X64.706Y-150.618
X64.706Y-152.618
X118.206Y-134.618
X118.206Y-136.618
X118.206Y-138.618
X118.206Y-140.618
X118.206Y-142.618
X118.206Y-146.618
X118.206Y-148.618
X118.206Y-150.618
X118.206Y-152.618
X120.206Y-133.618
X120.206Y-135.618
X120.206Y-137.618
X120.206Y-139.618
X120.206Y-141.618
X120.206Y-143.618
X120.206Y-147.618
X120.206Y-149.618
X120.206Y-151.618
X122.706Y-133.618
X122.706Y-135.618
X122.706Y-137.618
X122.706Y-139.618
X122.706Y-141.618
X122.706Y-143.618
X122.706Y-147.618
X122.706Y-149.618
X122.706Y-151.618
X124.706Y-134.618
X124.706Y-136.618
X124.706Y-138.618
X124.706Y-140.618
X124.706Y-142.618
X124.706Y-146.618
X124.706Y-148.618
X124.706Y-150.618
X124.706Y-152.618
X98.206Y-134.618
X98.206Y-136.618
X98.206Y-138.618
X98.206Y-140.618
X98.206Y-142.618
X98.206Y-146.618
X98.206Y-148.618
X98.206Y-150.618
X98.206Y-152.618
X100.206Y-133.618
X100.206Y-135.618
X100.206Y-137.618
X100.206Y-139.618
X100.206Y-141.618
X100.206Y-143.618
X100.206Y-147.618
X100.206Y-149.618
X100.206Y-151.618
X102.706Y-133.618
X102.706Y-135.618
X102.706Y-137.618
X102.706Y-139.618
X102.706Y-141.618
X102.706Y-143.618
X102.706Y-147.618
X102.706Y-149.618
X102.706Y-151.618
X104.706Y-134.618
X104.706Y-136.618
X104.706Y-138.618
X104.706Y-140.618
X104.706Y-142.618
X104.706Y-146.618
X104.706Y-148.618
X104.706Y-150.618
X104.706Y-152.618
T6
X61.468Y-79.226
X61.468Y-81.726
X61.468Y-84.226
X47.244Y-79.226
X47.244Y-81.726
X47.244Y-84.226
X46.33Y-62.564
X46.33Y-65.064
X46.33Y-67.564
X33.02Y-79.226
X33.02Y-81.726
X33.02Y-84.226
X40.132Y-79.226
X40.132Y-81.726
X40.132Y-84.226
X68.783Y-79.226
X68.783Y-81.726
X68.783Y-84.226
X53.238Y-62.524
X53.238Y-65.024
X53.238Y-67.524
X54.356Y-79.226
X54.356Y-81.726
X54.356Y-84.226
T7
X148.757Y-160.528
X151.257Y-160.528
X74.371Y-93.37
X76.911Y-93.37
X142.24Y-102.108
X144.78Y-102.108
X147.32Y-102.108
X124.206Y-92.583
X126.746Y-92.583
X129.286Y-92.583
X131.826Y-92.583
X134.366Y-92.583
X136.906Y-92.583
X89.575Y-148.336
X92.075Y-148.336
X104.902Y-62.23
X107.402Y-62.23
X124.206Y-106.299
X126.746Y-106.299
X129.286Y-106.299
X131.826Y-106.299
X134.366Y-106.299
X136.906Y-106.299
X72.898Y-134.112
X72.898Y-136.652
X72.898Y-139.192
X148.082Y-62.23
X150.582Y-62.23
X69.636Y-148.336
X72.136Y-148.336
X69.088Y-62.23
X71.588Y-62.23
X109.641Y-148.336
X112.141Y-148.336
X142.24Y-99.06
X144.78Y-99.06
X147.32Y-99.06
X142.24Y-105.156
X144.78Y-105.156
X147.32Y-105.156
X26.924Y-112.776
X26.924Y-115.316
X26.924Y-117.856
X49.062Y-160.528
X51.562Y-160.528
X132.969Y-134.112
X132.969Y-136.652
X132.969Y-139.192
X77.764Y-62.23
X80.264Y-62.23
X124.206Y-85.725
X126.746Y-85.725
X129.286Y-85.725
X131.826Y-85.725
X134.366Y-85.725
X136.906Y-85.725
X142.24Y-86.868
X144.78Y-86.868
X147.32Y-86.868
X142.24Y-83.82
X144.78Y-83.82
X147.32Y-83.82
X139.446Y-62.23
X141.946Y-62.23
X112.903Y-134.112
X112.903Y-136.652
X112.903Y-139.192
X124.206Y-120.015
X126.746Y-120.015
X129.286Y-120.015
X131.826Y-120.015
X134.366Y-120.015
X136.906Y-120.015
X129.58Y-148.336
X132.08Y-148.336
X117.221Y-95.377
X117.221Y-97.917
X117.221Y-100.457
X117.221Y-102.997
X124.206Y-99.441
X126.746Y-99.441
X129.286Y-99.441
X131.826Y-99.441
X134.366Y-99.441
X136.906Y-99.441
X26.289Y-141.518
X26.289Y-144.018
X142.24Y-92.964
X144.78Y-92.964
X147.32Y-92.964
X157.25Y-160.5
X159.75Y-160.5
X130.81Y-62.23
X133.31Y-62.23
X122.174Y-62.23
X124.674Y-62.23
X52.959Y-134.112
X52.959Y-136.652
X52.959Y-139.192
X32.893Y-134.112
X32.893Y-136.652
X32.893Y-139.192
X124.206Y-113.157
X126.746Y-113.157
X129.286Y-113.157
X131.826Y-113.157
X134.366Y-113.157
X136.906Y-113.157
X60.452Y-62.23
X62.952Y-62.23
X105.664Y-78.486
X105.664Y-81.026
X105.664Y-83.566
X105.664Y-86.106
X105.664Y-88.646
X142.24Y-89.916
X144.78Y-89.916
X147.32Y-89.916
X92.964Y-134.112
X92.964Y-136.652
X92.964Y-139.192
X86.36Y-62.23
X88.86Y-62.23
X142.264Y-108.204
X144.804Y-108.204
X147.344Y-108.204
X142.24Y-96.012
X144.78Y-96.012
X147.32Y-96.012
X94.996Y-62.23
X97.496Y-62.23
X113.538Y-62.23
X116.038Y-62.23
T8
X33.985Y-99.06
X33.985Y-101.6
X36.525Y-99.06
X36.525Y-101.6
X39.065Y-99.06
X39.065Y-101.6
X41.605Y-99.06
X41.605Y-101.6
X44.145Y-99.06
X44.145Y-101.6
X86.296Y-75.629
X86.296Y-78.168
X88.837Y-75.629
X88.837Y-78.168
X91.376Y-75.629
X91.376Y-78.168
X93.916Y-75.629
X93.916Y-78.168
X96.456Y-75.629
X96.456Y-78.168
X135.34Y-74.5
X135.34Y-77.04
X137.88Y-74.5
X137.88Y-77.04
X140.42Y-74.5
X140.42Y-77.04
X142.96Y-74.5
X142.96Y-77.04
X145.5Y-74.5
X145.5Y-77.04
X55.372Y-99.06
X55.372Y-101.6
X57.912Y-99.06
X57.912Y-101.6
X60.452Y-99.06
X60.452Y-101.6
X62.992Y-99.06
X62.992Y-101.6
X65.532Y-99.06
X65.532Y-101.6
T9
X166.878Y-101.021
X166.878Y-104.521
X166.878Y-109.403
X166.878Y-112.903
X166.878Y-92.583
X166.878Y-96.083
T10
X163.322Y-134.493
X163.322Y-140.843
X166.878Y-121.539
X166.878Y-126.619
T0
M30
