M48
; DRILL file {KiCad 5.99.0-unknown-43a4cf795~104~ubuntu20.04.1} date Sat Nov 14 20:18:34 2020
; FORMAT={-:-/ absolute / metric / decimal}
; #@! TF.CreationDate,2020-11-14T20:18:34-08:00
; #@! TF.GenerationSoftware,Kicad,Pcbnew,5.99.0-unknown-43a4cf795~104~ubuntu20.04.1
; #@! TF.FileFunction,Plated,1,2,PTH
FMAT,2
METRIC
T1C0.300
T2C0.400
T3C0.500
T4C0.700
T5C0.950
T6C1.000
T7C1.016
T8C1.200
T9C1.300
%
G90
G05
T1
X6.604Y89.027
X7.62Y90.297
X8.052Y58.611
X8.128Y80.518
X8.128Y72.136
X8.344Y95.694
X8.689Y59.138
X8.774Y71.619
X9.397Y59.596
X9.398Y75.311
X9.398Y70.358
X9.906Y18.923
X10.033Y68.25
X11.615Y72.111
X11.925Y53.823
X12.076Y52.529
X13.666Y53.34
X13.716Y29.337
X14.121Y59.596
X14.257Y52.197
X14.478Y67.005
X14.961Y70.358
X15.037Y67.691
X15.113Y40.513
X15.24Y59.215
X15.24Y43.942
X16.002Y58.674
X16.002Y42.164
X16.586Y75.311
X16.802Y71.209
X17.272Y85.852
X17.763Y72.601
X18.924Y68.267
X19.04Y70.409
X19.312Y72.5
X19.685Y39.751
X19.685Y32.512
X20.32Y80.518
X20.472Y72.53
X20.676Y71.12
X20.726Y69.545
X22.454Y67.386
X23.063Y59.004
X23.228Y92.075
X23.368Y69.545
X23.724Y75.311
X24.003Y31.75
X24.139Y30.934
X24.194Y67.882
X25.146Y68.834
X26.086Y69.599
X26.2Y77.203
X26.72Y72.863
X27.0Y71.196
X27.483Y67.285
X29.845Y31.877
X30.124Y67.31
X30.315Y92.075
X30.734Y48.641
X30.759Y70.409
X30.785Y57.277
X30.81Y75.324
X31.325Y67.031
X31.369Y59.665
X31.42Y69.571
X31.496Y63.119
X31.496Y43.307
X32.766Y77.343
X33.071Y67.031
X33.528Y22.987
X33.655Y56.736
X34.163Y69.825
X35.052Y40.242
X35.662Y69.901
X35.941Y59.715
X36.005Y90.805
X36.424Y71.399
X37.897Y75.298
X37.897Y70.315
X38.354Y90.868
X38.532Y61.011
X38.925Y68.428
X38.989Y70.193
X39.624Y32.368
X40.132Y90.106
X40.632Y73.262
X40.97Y70.218
X41.91Y93.345
X42.926Y23.749
X43.155Y51.511
X43.167Y49.454
X43.332Y70.206
X43.675Y21.831
X43.688Y32.054
X44.436Y68.399
X44.59Y70.206
X44.831Y18.161
X44.958Y48.006
X45.301Y75.311
X45.517Y70.878
X45.657Y54.292
X46.002Y48.738
X46.266Y71.31
X46.799Y41.338
X46.85Y47.587
X47.082Y70.437
X47.155Y50.914
X47.282Y69.634
X47.298Y60.586
X47.612Y48.171
X47.715Y49.669
X47.834Y71.885
X48.235Y61.341
X48.277Y68.127
X48.404Y59.768
X48.514Y30.162
X48.557Y66.964
X48.974Y65.014
X49.066Y19.831
X49.124Y32.474
X49.125Y69.676
X49.143Y58.893
X49.149Y75.565
X49.212Y90.361
X49.449Y39.718
X49.543Y47.117
X49.765Y31.172
X49.957Y48.248
X49.98Y75.698
X50.028Y73.49
X50.038Y64.389
X50.222Y32.245
X50.719Y50.141
X50.724Y56.49
X50.798Y32.839
X50.8Y93.345
X51.054Y60.325
X51.067Y62.56
X51.308Y55.245
X51.308Y53.467
X51.435Y31.877
X51.584Y48.604
X51.674Y71.832
X51.816Y54.229
X51.943Y85.852
X52.07Y34.95
X52.222Y59.88
X52.324Y84.125
X52.476Y45.136
X52.705Y39.718
X52.705Y28.321
X52.959Y78.892
X53.116Y80.599
X53.449Y59.582
X53.564Y76.327
X53.686Y67.999
X53.721Y74.231
X53.777Y32.685
X54.086Y23.765
X54.394Y36.716
X54.445Y63.055
X54.556Y82.559
X54.572Y60.77
X54.694Y80.766
X54.864Y50.927
X55.118Y54.991
X55.245Y41.275
X55.293Y42.274
X55.293Y42.274
X56.134Y32.067
X56.509Y46.488
X56.535Y64.24
X56.706Y76.987
X56.769Y88.138
X56.769Y86.423
X56.769Y56.642
X56.896Y81.559
X56.896Y79.819
X57.116Y57.87
X57.163Y45.834
X57.264Y77.648
X57.387Y73.124
X57.404Y39.718
X58.199Y63.645
X58.674Y56.055
X58.676Y79.499
X58.801Y80.328
X58.928Y61.976
X59.106Y74.32
X59.397Y72.863
X59.436Y93.345
X59.499Y41.529
X59.544Y32.087
X59.817Y70.04
X59.886Y43.449
X60.706Y55.245
X60.79Y26.081
X60.833Y73.042
X60.839Y59.619
X61.341Y57.752
X61.417Y60.681
X61.436Y78.209
X61.595Y68.008
X61.658Y64.973
X61.671Y63.119
X61.722Y70.04
X61.849Y46.923
X61.882Y52.705
X62.001Y74.333
X62.128Y55.88
X62.611Y72.009
X62.611Y63.754
X62.738Y23.749
X62.992Y76.962
X62.992Y75.692
X63.098Y66.408
X63.119Y74.105
X63.436Y41.529
X63.708Y70.485
X64.186Y61.874
X64.194Y74.559
X64.198Y65.482
X64.286Y57.71
X64.433Y58.791
X64.516Y86.55
X64.812Y59.526
X64.827Y57.085
X64.897Y64.389
X65.075Y61.369
X65.397Y62.467
X65.426Y58.327
X65.468Y53.911
X65.468Y30.035
X65.608Y55.245
X65.634Y56.902
X65.786Y63.827
X65.956Y65.379
X65.986Y66.552
X66.848Y81.534
X67.564Y86.55
X67.691Y52.611
X68.263Y64.77
X68.275Y53.746
X68.326Y93.345
X68.478Y55.524
X68.644Y76.327
X68.758Y69.875
X68.866Y53.168
X68.961Y54.356
X68.976Y19.7
X69.088Y84.074
X69.132Y68.367
X69.278Y41.529
X69.85Y45.433
X69.95Y78.232
X69.95Y73.529
X70.002Y31.267
X70.089Y69.006
X70.326Y68.213
X70.34Y50.381
X70.422Y89.772
X70.632Y91.79
X70.784Y43.434
X70.889Y69.584
X71.039Y71.239
X71.272Y30.378
X71.711Y49.906
X71.755Y72.326
X71.758Y49.08
X71.833Y69.842
X72.072Y84.328
X72.357Y75.692
X72.39Y41.529
X72.453Y44.958
X72.517Y35.75
X72.669Y48.844
X72.898Y76.962
X73.215Y53.784
X73.234Y64.821
X73.279Y31.877
X73.406Y68.194
X73.55Y73.214
X73.55Y71.704
X73.62Y23.535
X73.796Y49.988
X73.833Y56.282
X73.85Y32.918
X74.039Y76.583
X74.168Y54.356
X74.262Y64.019
X74.422Y44.577
X74.433Y41.428
X74.549Y81.407
X74.549Y70.485
X74.582Y75.95
X74.625Y68.377
X74.787Y65.061
X74.803Y55.72
X74.981Y31.941
X75.158Y31.133
X75.234Y89.174
X75.438Y56.802
X75.457Y65.546
X75.746Y46.461
X75.821Y45.38
X75.975Y31.003
X75.979Y88.265
X76.136Y71.183
X76.213Y89.389
X76.263Y54.927
X76.311Y48.989
X76.708Y93.345
X76.772Y86.296
X76.816Y65.399
X76.827Y46.419
X76.895Y48.008
X77.279Y88.9
X77.47Y48.946
X77.47Y45.212
X77.67Y68.423
X77.895Y47.465
X78.105Y87.312
X78.282Y50.292
X78.39Y79.336
X78.44Y72.315
X78.586Y96.099
X78.636Y48.2
X78.93Y89.408
X78.993Y65.398
X79.515Y87.605
X79.756Y48.006
X79.823Y86.817
X79.943Y77.628
X79.974Y74.135
X80.266Y68.166
X80.391Y57.404
X80.62Y93.091
X81.026Y65.278
X81.026Y50.228
X81.09Y54.229
X81.435Y67.651
X81.534Y45.593
X82.359Y67.627
X82.423Y52.02
X82.55Y23.495
X82.867Y47.18
X83.312Y66.04
X83.502Y51.88
X83.815Y53.754
X83.872Y43.942
X83.947Y81.09
X83.962Y83.993
X84.126Y42.779
X84.188Y61.328
X84.277Y63.49
X84.277Y62.663
X84.712Y60.296
X84.849Y42.259
X85.09Y96.901
X85.217Y58.141
X85.28Y86.423
X85.471Y42.888
X85.529Y43.978
X85.75Y41.859
X85.975Y61.755
X86.034Y41.036
X86.233Y59.919
X86.36Y78.613
X86.36Y65.184
X86.443Y55.735
X86.449Y58.433
X86.589Y39.853
X86.855Y62.268
X86.931Y63.754
X86.995Y77.153
X86.995Y67.564
X87.058Y75.979
X87.135Y40.716
X87.245Y56.588
X87.503Y65.659
X87.589Y55.689
X87.63Y29.909
X87.663Y48.641
X87.663Y47.18
X88.125Y72.2
X88.328Y31.686
X88.646Y68.199
X88.646Y58.183
X88.646Y44.895
X88.709Y56.706
X88.773Y53.815
X88.815Y40.976
X88.906Y71.495
X89.012Y19.7
X89.154Y84.734
X89.169Y60.317
X89.225Y74.448
X89.268Y93.104
X89.408Y78.359
X89.459Y76.454
X89.471Y47.752
X89.583Y75.194
X89.629Y72.895
X89.662Y90.043
X89.789Y31.115
X89.994Y60.261
X90.203Y70.993
X90.222Y59.387
X90.538Y79.629
X90.597Y48.341
X90.633Y63.456
X90.778Y88.653
X90.805Y58.801
X90.932Y57.45
X91.218Y62.871
X91.44Y41.338
X91.884Y87.605
X92.071Y57.752
X92.075Y68.707
X92.104Y48.739
X92.215Y83.134
X92.354Y84.772
X92.456Y56.07
X92.469Y87.02
X92.566Y61.181
X92.779Y73.977
X92.94Y61.919
X92.964Y80.899
X93.027Y53.784
X93.027Y44.895
X93.281Y83.502
X93.726Y96.901
X93.959Y57.417
X93.98Y55.753
X94.875Y43.975
X94.996Y54.356
X95.09Y74.459
X95.14Y72.55
X95.25Y47.371
X95.326Y77.762
X95.504Y75.979
X95.625Y49.524
X95.736Y96.349
X95.942Y67.236
X96.203Y56.706
X96.203Y40.767
X96.221Y64.427
X96.266Y50.165
X96.329Y44.386
X96.363Y55.845
X96.487Y72.5
X96.52Y70.866
X96.52Y51.943
X96.698Y66.243
X96.728Y53.946
X97.028Y83.566
X97.028Y77.724
X97.364Y63.684
X97.519Y49.403
X97.599Y40.767
X97.601Y69.961
X97.618Y65.133
X97.784Y71.468
X97.79Y48.387
X97.815Y79.083
X97.904Y93.091
X98.077Y69.221
X98.077Y61.332
X98.331Y67.184
X98.331Y57.785
X98.354Y72.068
X98.527Y40.64
X98.59Y78.537
X98.679Y64.008
X98.839Y52.705
X99.314Y59.436
X99.314Y39.116
X99.631Y31.623
X99.855Y42.793
X100.025Y38.481
X100.036Y55.949
X100.236Y76.349
X100.536Y69.449
X100.886Y66.549
X101.092Y53.213
X102.236Y55.999
X102.362Y96.901
X102.489Y39.116
X102.743Y84.963
X103.657Y30.378
X104.236Y96.249
X104.836Y44.799
X104.886Y47.099
X105.033Y48.928
X105.036Y84.649
X106.118Y28.017
X106.177Y74.389
X106.553Y93.091
X107.442Y84.963
X107.444Y42.306
X107.696Y83.693
X108.687Y26.043
X108.712Y74.897
X108.921Y19.831
X109.186Y90.549
X109.309Y31.598
X109.586Y85.649
X109.686Y74.399
X109.786Y55.849
X109.786Y52.949
X109.836Y76.199
X109.836Y69.349
X109.836Y66.499
X109.836Y62.249
X109.836Y59.449
X109.918Y48.387
X110.275Y30.924
X110.998Y96.901
X112.486Y48.049
X112.536Y52.899
X112.736Y60.049
X112.836Y66.499
X112.936Y96.249
X113.169Y91.086
X113.944Y90.798
X114.336Y52.849
X114.336Y48.049
X114.536Y60.049
X114.902Y38.481
X115.015Y41.889
X115.036Y74.449
X115.176Y93.091
X115.316Y69.215
X115.476Y30.982
X115.522Y40.735
X115.857Y60.325
X116.014Y41.464
X116.117Y53.975
X116.117Y43.559
X116.16Y84.018
X116.744Y50.673
X116.886Y57.749
X117.094Y38.735
X117.108Y79.127
X117.221Y72.898
X117.221Y70.485
X117.348Y53.213
X117.348Y43.02
X117.672Y77.685
X117.986Y82.299
X118.364Y51.346
X118.364Y48.387
X118.842Y90.544
X118.871Y43.02
X118.872Y84.099
X118.872Y41.529
X119.634Y96.901
X120.402Y68.674
X120.681Y59.784
X121.536Y96.249
X122.936Y51.181
X122.936Y40.767
X123.063Y91.44
X123.19Y38.735
X123.317Y75.12
X123.812Y93.091
X124.086Y91.349
X124.714Y83.693
X125.486Y91.449
X125.486Y88.549
X126.036Y93.149
X126.586Y88.549
X127.381Y76.391
X127.786Y88.549
X128.079Y86.487
X128.079Y75.12
X128.27Y96.901
X128.905Y76.391
X128.986Y93.099
X129.794Y69.265
X129.794Y60.612
X129.794Y51.435
X129.794Y43.053
X130.337Y90.183
X130.483Y89.289
X130.81Y40.767
X130.842Y88.544
X131.886Y10.449
X131.908Y78.785
X132.041Y77.685
X132.08Y82.753
X132.588Y81.153
X133.667Y88.367
X134.02Y53.594
X134.112Y68.961
X134.112Y60.071
X136.004Y88.718
X136.144Y41.783
X136.831Y88.697
T2
X3.429Y90.614
X3.746Y85.153
X3.746Y61.404
X3.746Y55.245
X3.81Y77.47
X3.81Y66.802
X5.524Y92.583
X7.366Y76.327
X7.747Y48.387
X10.541Y69.025
X11.367Y48.387
X12.192Y93.091
X13.081Y99.314
X13.208Y74.358
X13.259Y54.788
X14.478Y76.327
X14.834Y68.91
X16.256Y31.75
X16.383Y39.306
X17.526Y99.314
X17.729Y43.028
X17.78Y46.736
X17.843Y54.927
X18.732Y88.265
X19.177Y99.187
X19.367Y95.885
X19.558Y93.091
X19.558Y76.327
X20.383Y38.608
X20.447Y48.387
X20.511Y56.134
X20.511Y44.831
X20.637Y53.721
X21.082Y93.091
X21.082Y88.265
X21.59Y76.327
X21.692Y43.028
X22.86Y53.721
X22.924Y56.07
X22.924Y45.021
X22.987Y48.387
X23.114Y64.338
X23.241Y38.481
X23.368Y34.163
X23.622Y20.955
X24.638Y88.265
X25.527Y47.498
X25.527Y20.892
X25.908Y33.909
X25.971Y38.608
X27.559Y64.262
X27.584Y62.154
X28.194Y93.091
X28.384Y88.138
X28.702Y76.327
X29.21Y38.989
X29.337Y33.909
X29.527Y20.892
X29.693Y64.237
X29.693Y62.154
X30.48Y50.482
X30.734Y54.038
X31.432Y88.201
X33.274Y32.385
X33.401Y20.701
X33.884Y43.104
X33.972Y96.52
X34.036Y93.154
X34.227Y54.165
X34.227Y38.862
X34.227Y33.846
X34.29Y88.138
X35.814Y76.327
X36.195Y33.972
X36.386Y38.798
X36.576Y32.258
X37.338Y54.292
X37.414Y41.268
X38.291Y88.011
X38.608Y49.098
X40.767Y67.12
X41.148Y54.165
X42.608Y90.995
X43.18Y76.327
X43.243Y20.892
X43.383Y35.941
X43.409Y34.214
X43.459Y37.592
X43.497Y38.925
X43.561Y94.17
X43.561Y54.102
X43.942Y88.138
X44.891Y59.113
X45.148Y67.056
X45.225Y64.275
X46.291Y21.018
X46.355Y45.212
X46.545Y91.313
X46.761Y36.347
X46.761Y34.214
X46.812Y38.583
X49.085Y20.955
X49.593Y88.011
X50.736Y79.502
X51.0Y76.425
X51.689Y21.082
X52.07Y38.684
X52.07Y36.728
X52.884Y51.054
X52.884Y41.463
X53.594Y84.601
X53.721Y88.075
X54.165Y91.885
X54.343Y45.136
X55.67Y68.117
X56.515Y90.805
X56.769Y84.601
X56.947Y38.329
X58.014Y32.715
X59.055Y58.547
X59.182Y39.116
X59.245Y44.767
X59.372Y51.054
X59.563Y88.646
X59.563Y86.931
X59.563Y84.772
X59.563Y53.784
X59.817Y68.199
X60.716Y80.979
X62.078Y30.963
X62.376Y79.309
X62.42Y92.011
X63.17Y32.588
X63.246Y44.895
X63.246Y39.052
X63.246Y36.893
X63.246Y34.544
X63.5Y50.927
X63.509Y58.616
X63.627Y53.149
X64.643Y79.566
X65.087Y69.596
X65.532Y68.072
X66.103Y82.423
X66.992Y50.99
X66.992Y31.051
X67.627Y44.958
X68.453Y32.639
X68.516Y34.608
X68.58Y80.01
X68.58Y39.116
X68.58Y36.893
X69.151Y58.166
X69.723Y92.456
X70.485Y63.055
X70.548Y60.515
X71.247Y82.423
X71.247Y57.15
X71.501Y76.327
X71.628Y92.202
X71.819Y62.293
X71.945Y60.008
X72.517Y80.2
X73.406Y77.851
X76.029Y86.963
X76.029Y84.744
X76.092Y80.42
X76.156Y77.767
X76.156Y75.361
X77.597Y54.61
X77.851Y39.179
X77.978Y63.182
X77.978Y60.642
X77.978Y58.356
X78.105Y84.411
X78.105Y70.993
X78.359Y92.456
X79.248Y54.61
X79.311Y61.595
X79.311Y59.499
X79.451Y39.192
X79.883Y81.153
X79.891Y84.411
X81.255Y48.793
X82.042Y71.438
X82.042Y34.099
X82.105Y39.116
X82.296Y72.517
X83.248Y92.392
X83.248Y50.355
X83.376Y48.578
X83.376Y31.051
X83.629Y45.593
X84.264Y71.564
X85.407Y92.456
X85.661Y39.052
X85.788Y34.353
X86.423Y30.988
X86.462Y81.293
X86.487Y74.549
X86.868Y71.882
X86.995Y97.917
X86.995Y90.805
X87.249Y84.709
X88.328Y55.054
X89.09Y81.293
X89.154Y50.292
X89.535Y39.624
X89.662Y34.671
X91.059Y50.292
X91.694Y92.583
X92.507Y30.632
X92.8Y77.66
X92.9Y50.292
X93.726Y39.56
X93.853Y34.861
X94.183Y30.632
X94.297Y50.355
X94.361Y82.423
X94.424Y51.88
X94.805Y92.583
X94.805Y90.424
X94.844Y84.353
X95.948Y81.915
X96.266Y78.359
X96.801Y45.747
X97.536Y38.989
X97.93Y82.715
X97.93Y80.747
X97.986Y84.849
X98.273Y30.886
X99.758Y62.42
X100.139Y48.006
X100.584Y92.583
X100.584Y82.614
X101.092Y34.29
X101.117Y31.064
X101.346Y40.132
X101.6Y59.118
X101.625Y80.81
X102.044Y44.831
X102.362Y52.895
X103.188Y92.646
X103.34Y80.67
X103.378Y90.487
X103.378Y82.677
X104.457Y29.464
X104.775Y31.242
X104.838Y39.688
X104.953Y33.68
X104.965Y35.623
X106.045Y82.486
X106.045Y80.734
X106.807Y29.718
X107.315Y31.242
X107.505Y39.688
X107.544Y33.782
X107.569Y35.56
X109.537Y92.71
X109.664Y82.55
X109.664Y80.797
X111.252Y45.974
X112.078Y92.837
X112.459Y32.067
X112.522Y36.703
X112.776Y82.499
X112.814Y80.67
X113.983Y32.131
X114.236Y36.767
X115.468Y80.848
X115.506Y82.423
X116.522Y37.719
X116.903Y32.067
X117.792Y39.688
X118.046Y92.646
X120.078Y92.71
X120.368Y81.049
X121.412Y39.814
X121.412Y19.367
X121.666Y92.202
X121.73Y31.877
X121.983Y37.148
X126.174Y82.614
X126.936Y84.671
X127.698Y72.771
X129.54Y80.391
X131.0Y96.203
X132.017Y90.487
X134.112Y91.821
X134.874Y79.883
X135.382Y90.043
X135.382Y75.311
X136.286Y17.249
X136.286Y13.049
X137.686Y17.249
X137.686Y13.049
X138.748Y102.235
X139.086Y17.249
X139.086Y13.049
X139.827Y81.852
X140.462Y100.965
X140.686Y17.249
X140.686Y13.049
X141.351Y88.837
X142.24Y90.805
X142.494Y75.311
X143.256Y99.758
X143.764Y98.679
X145.606Y88.963
T3
X3.302Y37.211
X3.302Y34.671
X5.334Y55.245
X6.604Y7.493
X9.144Y7.493
X10.414Y55.245
X11.286Y40.513
X25.146Y55.245
X26.479Y7.81
X26.67Y100.965
X26.683Y84.188
X27.578Y19.831
X27.686Y50.165
X29.019Y7.81
X29.972Y55.245
X32.004Y57.968
X36.322Y49.657
X39.624Y43.053
X42.151Y84.188
X43.942Y57.968
X45.546Y58.322
X45.657Y50.673
X45.974Y1.397
X48.768Y1.397
X50.495Y81.509
X66.548Y1.346
X69.088Y1.346
X83.312Y97.917
X85.244Y82.306
X86.716Y1.346
X89.256Y1.346
X90.17Y97.917
X98.806Y97.917
X106.68Y1.397
X107.442Y97.917
X109.22Y1.397
X111.252Y68.199
X111.252Y21.717
X116.078Y97.917
X124.714Y97.917
X129.794Y73.025
X129.794Y71.755
X129.794Y70.485
X129.794Y64.389
X129.794Y63.119
X129.794Y61.849
X129.794Y55.499
X129.794Y54.229
X129.794Y52.959
X129.794Y46.863
X129.794Y45.593
X129.794Y44.323
X137.668Y33.909
T4
X55.092Y28.831
X55.092Y26.831
X55.092Y24.831
X55.092Y22.831
X55.092Y20.831
X55.092Y16.831
X55.092Y14.831
X55.092Y12.831
X55.092Y10.831
X57.092Y29.831
X57.092Y27.831
X57.092Y25.831
X57.092Y23.831
X57.092Y21.831
X57.092Y19.831
X57.092Y15.831
X57.092Y13.831
X57.092Y11.831
X59.592Y29.831
X59.592Y27.831
X59.592Y25.831
X59.592Y23.831
X59.592Y21.831
X59.592Y19.831
X59.592Y15.831
X59.592Y13.831
X59.592Y11.831
X61.592Y28.831
X61.592Y26.831
X61.592Y24.831
X61.592Y22.831
X61.592Y20.831
X61.592Y16.831
X61.592Y14.831
X61.592Y12.831
X61.592Y10.831
X75.092Y28.831
X75.092Y26.831
X75.092Y24.831
X75.092Y22.831
X75.092Y20.831
X75.092Y16.831
X75.092Y14.831
X75.092Y12.831
X75.092Y10.831
X77.092Y29.831
X77.092Y27.831
X77.092Y25.831
X77.092Y23.831
X77.092Y21.831
X77.092Y19.831
X77.092Y15.831
X77.092Y13.831
X77.092Y11.831
X79.592Y29.831
X79.592Y27.831
X79.592Y25.831
X79.592Y23.831
X79.592Y21.831
X79.592Y19.831
X79.592Y15.831
X79.592Y13.831
X79.592Y11.831
X81.592Y28.831
X81.592Y26.831
X81.592Y24.831
X81.592Y22.831
X81.592Y20.831
X81.592Y16.831
X81.592Y14.831
X81.592Y12.831
X81.592Y10.831
X17.092Y23.831
X35.092Y24.831
X15.092Y22.831
X35.092Y28.831
X35.092Y26.831
X15.092Y20.831
X35.092Y22.831
X15.092Y16.831
X15.092Y12.831
X15.092Y10.831
X35.092Y20.831
X15.092Y14.831
X17.092Y15.831
X17.092Y13.831
X35.092Y16.831
X17.092Y19.831
X17.092Y11.831
X35.092Y14.831
X35.092Y12.831
X17.092Y21.831
X35.092Y10.831
X37.092Y25.831
X115.092Y12.831
X115.092Y10.831
X37.092Y27.831
X115.092Y14.831
X37.092Y29.831
X115.092Y24.831
X115.092Y22.831
X115.092Y20.831
X115.092Y16.831
X39.592Y29.831
X115.092Y28.831
X37.092Y23.831
X37.092Y15.831
X37.092Y13.831
X37.092Y11.831
X115.092Y26.831
X37.092Y21.831
X37.092Y19.831
X39.592Y27.831
X39.592Y25.831
X39.592Y23.831
X39.592Y21.831
X39.592Y19.831
X39.592Y15.831
X39.592Y13.831
X39.592Y11.831
X41.592Y28.831
X41.592Y26.831
X41.592Y24.831
X41.592Y22.831
X41.592Y20.831
X41.592Y16.831
X41.592Y14.831
X41.592Y12.831
X41.592Y10.831
X15.092Y24.831
X117.092Y29.831
X117.092Y27.831
X117.092Y25.831
X117.092Y23.831
X117.092Y21.831
X117.092Y19.831
X117.092Y15.831
X117.092Y13.831
X117.092Y11.831
X119.592Y29.831
X119.592Y27.831
X119.592Y25.831
X119.592Y23.831
X119.592Y21.831
X119.592Y19.831
X119.592Y15.831
X119.592Y13.831
X119.592Y11.831
X121.592Y28.831
X121.592Y26.831
X121.592Y24.831
X121.592Y22.831
X121.592Y20.831
X121.592Y16.831
X15.092Y28.831
X15.092Y26.831
X17.092Y29.831
X17.092Y27.831
X17.092Y25.831
X19.592Y29.831
X19.592Y27.831
X19.592Y25.831
X19.592Y23.831
X19.592Y21.831
X19.592Y19.831
X19.592Y15.831
X19.592Y13.831
X19.592Y11.831
X21.592Y28.831
X21.592Y26.831
X21.592Y24.831
X21.592Y22.831
X21.592Y20.831
X21.592Y16.831
X21.592Y14.831
X21.592Y12.831
X121.592Y10.831
X21.592Y10.831
X121.592Y14.831
X121.592Y12.831
X95.092Y28.831
X95.092Y26.831
X95.092Y24.831
X95.092Y22.831
X95.092Y20.831
X95.092Y16.831
X95.092Y14.831
X95.092Y12.831
X95.092Y10.831
X97.092Y29.831
X97.092Y27.831
X97.092Y25.831
X97.092Y23.831
X97.092Y21.831
X97.092Y19.831
X97.092Y15.831
X97.092Y13.831
X97.092Y11.831
X99.592Y29.831
X99.592Y27.831
X99.592Y25.831
X99.592Y23.831
X99.592Y21.831
X99.592Y19.831
X99.592Y15.831
X99.592Y13.831
X99.592Y11.831
X101.592Y28.831
X101.592Y26.831
X101.592Y24.831
X101.592Y22.831
X101.592Y20.831
X101.592Y16.831
X101.592Y14.831
X101.592Y12.831
X101.592Y10.831
T5
X9.906Y84.223
X9.906Y81.723
X9.906Y79.223
X24.13Y84.223
X24.13Y81.723
X24.13Y79.223
X23.216Y100.885
X31.242Y84.223
X45.669Y79.223
X38.354Y84.223
X38.354Y81.723
X31.242Y81.723
X31.242Y79.223
X23.216Y98.385
X23.216Y95.885
X17.018Y84.223
X45.669Y84.223
X45.669Y81.723
X38.354Y79.223
X30.124Y100.925
X30.124Y98.425
X30.124Y95.925
X17.018Y81.723
X17.018Y79.223
T6
X119.126Y79.629
X121.666Y79.629
X110.196Y101.219
X124.206Y79.629
X107.696Y101.219
X51.054Y70.485
X53.594Y70.485
X45.974Y101.219
X48.474Y101.219
X69.85Y29.337
X101.092Y50.292
X103.632Y50.292
X106.172Y50.292
X108.712Y50.292
X111.252Y50.292
X119.126Y67.437
X119.126Y58.293
X121.666Y58.293
X124.206Y58.293
X119.126Y73.533
X121.666Y73.533
X119.126Y64.389
X121.666Y64.389
X124.206Y64.389
X124.206Y73.533
X71.882Y101.219
X74.382Y101.219
X69.85Y26.797
X69.85Y24.257
X3.81Y50.673
X3.81Y48.133
X3.81Y45.593
X82.55Y84.963
X3.175Y21.931
X3.175Y19.431
X113.792Y50.292
X121.666Y67.437
X116.332Y101.219
X118.832Y101.219
X99.06Y101.219
X101.56Y101.219
X81.788Y101.219
X84.288Y101.219
X94.107Y68.072
X94.107Y65.532
X82.55Y82.423
X82.55Y79.883
X82.55Y77.343
X82.55Y74.803
X124.206Y67.437
X94.107Y62.992
X94.107Y60.452
X49.784Y24.257
X113.792Y77.724
X119.126Y61.341
X29.845Y29.337
X29.845Y26.797
X63.246Y101.219
X65.746Y101.219
X119.126Y70.485
X121.666Y70.485
X124.206Y70.485
X101.092Y77.724
X103.632Y77.724
X106.172Y77.724
X108.712Y77.724
X111.252Y77.724
X46.522Y15.113
X49.022Y15.113
X29.845Y24.257
X39.838Y101.219
X49.784Y29.337
X89.789Y29.337
X89.789Y26.797
X89.789Y24.257
X37.338Y101.219
X49.784Y26.797
X121.666Y61.341
X124.206Y61.341
X119.126Y76.581
X66.461Y15.113
X68.961Y15.113
X121.666Y76.581
X124.206Y76.581
X101.092Y70.866
X103.632Y70.866
X106.172Y70.866
X108.712Y70.866
X111.252Y70.866
X113.792Y70.866
X101.092Y43.434
X103.632Y43.434
X9.779Y26.797
X106.172Y43.434
X108.712Y43.434
X111.252Y43.434
X113.792Y43.434
X9.779Y29.337
X86.527Y15.113
X89.027Y15.113
X9.779Y24.257
X101.092Y57.15
X103.632Y57.15
X106.172Y57.15
X108.712Y57.15
X111.252Y57.15
X113.792Y57.15
X54.65Y101.219
X57.15Y101.219
X119.15Y55.245
X121.69Y55.245
X136.636Y2.949
X124.968Y101.219
X127.468Y101.219
X124.23Y55.245
X134.136Y2.949
X101.092Y64.008
X92.924Y101.219
X103.632Y64.008
X106.172Y64.008
X106.466Y15.113
X108.966Y15.113
X90.424Y101.219
X108.712Y64.008
X111.252Y64.008
X113.792Y64.008
X125.643Y2.921
X128.143Y2.921
X25.948Y2.921
X28.448Y2.921
X109.855Y29.337
X109.855Y26.797
X109.855Y24.257
T7
X32.258Y64.389
X32.258Y61.849
X34.798Y64.389
X34.798Y61.849
X37.338Y64.389
X37.338Y61.849
X39.878Y64.389
X39.878Y61.849
X42.418Y64.389
X42.418Y61.849
X10.871Y64.389
X10.871Y61.849
X13.411Y64.389
X13.411Y61.849
X15.951Y64.389
X15.951Y61.849
X18.491Y64.389
X18.491Y61.849
X21.031Y64.389
X21.031Y61.849
X63.182Y87.82
X63.182Y85.28
X65.722Y87.82
X65.722Y85.28
X68.263Y87.82
X68.263Y85.28
X70.802Y87.82
X70.802Y85.28
X73.343Y87.82
X73.343Y85.28
X112.226Y88.949
X112.226Y86.409
X114.766Y88.949
X114.766Y86.409
X117.306Y88.949
X117.306Y86.409
X119.846Y88.949
X119.846Y86.409
X122.386Y88.949
X122.386Y86.409
T8
X143.764Y54.046
X143.764Y50.546
X143.764Y70.866
X143.764Y67.366
X143.764Y62.428
X143.764Y58.928
T9
X140.208Y28.956
X140.208Y22.606
X143.764Y41.91
X143.764Y36.83
T0
M30
