%TF.GenerationSoftware,KiCad,Pcbnew,5.99.0-unknown-eb819a3b25~139~ubuntu20.04.1*%
%TF.CreationDate,2021-10-10T19:22:44-07:00*%
%TF.ProjectId,PrntrBoardV2,50726e74-7242-46f6-9172-6456322e6b69,rev?*%
%TF.SameCoordinates,PX160b110PY9be08a8*%
%TF.FileFunction,Soldermask,Top*%
%TF.FilePolarity,Negative*%
%FSLAX46Y46*%
G04 Gerber Fmt 4.6, Leading zero omitted, Abs format (unit mm)*
G04 Created by KiCad (PCBNEW 5.99.0-unknown-eb819a3b25~139~ubuntu20.04.1) date 2021-10-10 19:22:44*
%MOMM*%
%LPD*%
G01*
G04 APERTURE LIST*
G04 Aperture macros list*
%AMRoundRect*
0 Rectangle with rounded corners*
0 $1 Rounding radius*
0 $2 $3 $4 $5 $6 $7 $8 $9 X,Y pos of 4 corners*
0 Add a 4 corners polygon primitive as box body*
4,1,4,$2,$3,$4,$5,$6,$7,$8,$9,$2,$3,0*
0 Add four circle primitives for the rounded corners*
1,1,$1+$1,$2,$3*
1,1,$1+$1,$4,$5*
1,1,$1+$1,$6,$7*
1,1,$1+$1,$8,$9*
0 Add four rect primitives between the rounded corners*
20,1,$1+$1,$2,$3,$4,$5,0*
20,1,$1+$1,$4,$5,$6,$7,0*
20,1,$1+$1,$6,$7,$8,$9,0*
20,1,$1+$1,$8,$9,$2,$3,0*%
G04 Aperture macros list end*
%ADD10R,0.875000X0.950000*%
%ADD11R,0.950000X0.875000*%
%ADD12RoundRect,0.250000X1.500000X0.550000X-1.500000X0.550000X-1.500000X-0.550000X1.500000X-0.550000X0*%
%ADD13R,1.250000X1.750000*%
%ADD14R,1.750000X1.250000*%
%ADD15R,0.900000X1.200000*%
%ADD16R,0.820000X1.000000*%
%ADD17R,0.800000X0.900000*%
%ADD18R,3.810000X5.740000*%
%ADD19R,3.000000X0.127000*%
%ADD20R,0.127000X3.000000*%
%ADD21C,3.200000*%
%ADD22R,1.727200X1.727200*%
%ADD23O,1.727200X1.727200*%
%ADD24C,0.500000*%
%ADD25R,1.350000X0.400000*%
%ADD26R,1.900000X1.800000*%
%ADD27R,1.900000X1.900000*%
%ADD28RoundRect,0.250000X-0.600000X-0.750000X0.600000X-0.750000X0.600000X0.750000X-0.600000X0.750000X0*%
%ADD29O,1.700000X2.000000*%
%ADD30R,2.600000X2.600000*%
%ADD31C,2.600000*%
%ADD32R,2.400000X2.400000*%
%ADD33C,2.400000*%
%ADD34R,1.700000X1.700000*%
%ADD35O,1.700000X1.700000*%
%ADD36R,2.500000X2.500000*%
%ADD37C,2.500000*%
%ADD38C,3.600000*%
%ADD39R,1.208000X1.208000*%
%ADD40C,1.208000*%
%ADD41C,2.350000*%
%ADD42RoundRect,0.250000X0.725000X-0.600000X0.725000X0.600000X-0.725000X0.600000X-0.725000X-0.600000X0*%
%ADD43O,1.950000X1.700000*%
%ADD44R,0.500000X0.800000*%
%ADD45R,0.400000X0.800000*%
%ADD46R,0.800000X0.500000*%
%ADD47R,0.800000X0.400000*%
%ADD48R,1.000000X1.700000*%
%ADD49R,1.778000X1.778000*%
%ADD50C,1.778000*%
%ADD51RoundRect,0.070000X-0.775000X2.350000X-0.775000X-2.350000X0.775000X-2.350000X0.775000X2.350000X0*%
%ADD52RoundRect,0.070000X-1.650000X2.100000X-1.650000X-2.100000X1.650000X-2.100000X1.650000X2.100000X0*%
%ADD53RoundRect,0.070000X-0.575000X0.350000X-0.575000X-0.350000X0.575000X-0.350000X0.575000X0.350000X0*%
%ADD54RoundRect,0.075000X-0.725000X-0.075000X0.725000X-0.075000X0.725000X0.075000X-0.725000X0.075000X0*%
%ADD55RoundRect,0.075000X-0.075000X-0.725000X0.075000X-0.725000X0.075000X0.725000X-0.075000X0.725000X0*%
%ADD56RoundRect,0.150000X-0.725000X-0.150000X0.725000X-0.150000X0.725000X0.150000X-0.725000X0.150000X0*%
%ADD57R,1.500000X2.000000*%
%ADD58R,3.800000X2.000000*%
%ADD59R,4.000000X2.000000*%
%ADD60RoundRect,0.250000X-0.550000X1.500000X-0.550000X-1.500000X0.550000X-1.500000X0.550000X1.500000X0*%
%ADD61RoundRect,0.250000X0.600000X0.750000X-0.600000X0.750000X-0.600000X-0.750000X0.600000X-0.750000X0*%
%ADD62R,0.450000X1.450000*%
%ADD63RoundRect,0.250000X0.750000X-0.600000X0.750000X0.600000X-0.750000X0.600000X-0.750000X-0.600000X0*%
%ADD64O,2.000000X1.700000*%
%ADD65R,0.600000X0.450000*%
%ADD66R,1.200000X2.200000*%
%ADD67R,5.800000X6.400000*%
%ADD68C,1.448000*%
%ADD69R,1.200000X0.900000*%
%ADD70RoundRect,0.150000X-0.825000X-0.150000X0.825000X-0.150000X0.825000X0.150000X-0.825000X0.150000X0*%
%ADD71R,0.900000X1.000000*%
%ADD72C,3.250000*%
%ADD73R,1.520000X1.520000*%
%ADD74C,1.520000*%
%ADD75R,1.450000X0.450000*%
%ADD76RoundRect,0.243750X0.243750X0.456250X-0.243750X0.456250X-0.243750X-0.456250X0.243750X-0.456250X0*%
G04 APERTURE END LIST*
D10*
X8153500Y88265000D03*
X6578500Y88265000D03*
D11*
X80645000Y47142500D03*
X80645000Y45567500D03*
D10*
X85953500Y63881000D03*
X87528500Y63881000D03*
X60096500Y57023000D03*
X58521500Y57023000D03*
X60096500Y55499000D03*
X58521500Y55499000D03*
X63652500Y60071000D03*
X62077500Y60071000D03*
D11*
X85217000Y66954500D03*
X85217000Y65379500D03*
D10*
X69143500Y49429000D03*
X67568500Y49429000D03*
X54693500Y81969000D03*
X53118500Y81969000D03*
X67665500Y69723000D03*
X69240500Y69723000D03*
X63652500Y56515000D03*
X62077500Y56515000D03*
D11*
X82169000Y47142500D03*
X82169000Y45567500D03*
D10*
X63652500Y54483000D03*
X62077500Y54483000D03*
X94412000Y80010000D03*
X92837000Y80010000D03*
X94412000Y81534000D03*
X92837000Y81534000D03*
X42348500Y44949000D03*
X43923500Y44949000D03*
X140436500Y101727000D03*
X142011500Y101727000D03*
D11*
X30734000Y44856500D03*
X30734000Y43281500D03*
X32258000Y44856500D03*
X32258000Y43281500D03*
D10*
X36855500Y42545000D03*
X35280500Y42545000D03*
D11*
X38608000Y42596000D03*
X38608000Y41021000D03*
D10*
X8610500Y40513000D03*
X10185500Y40513000D03*
D12*
X10066000Y35941000D03*
X4666000Y35941000D03*
D11*
X30734000Y46329500D03*
X30734000Y47904500D03*
D10*
X81559500Y93091000D03*
X79984500Y93091000D03*
X107467500Y93091000D03*
X105892500Y93091000D03*
X90195500Y93091000D03*
X88620500Y93091000D03*
X116103500Y93091000D03*
X114528500Y93091000D03*
X98831500Y93091000D03*
X97256500Y93091000D03*
X124739500Y93091000D03*
X123164500Y93091000D03*
X46253500Y75311000D03*
X44678500Y75311000D03*
X38887500Y75311000D03*
X37312500Y75311000D03*
X31267500Y92075000D03*
X29692500Y92075000D03*
X31750000Y75311000D03*
X30175000Y75311000D03*
X24663500Y75311000D03*
X23088500Y75311000D03*
X24155500Y92075000D03*
X22580500Y92075000D03*
X17551500Y75311000D03*
X15976500Y75311000D03*
X10439500Y75311000D03*
X8864500Y75311000D03*
D13*
X134296000Y41969000D03*
X131496000Y41969000D03*
D14*
X128524000Y67434000D03*
X128524000Y70234000D03*
X128524000Y50038000D03*
X128524000Y52838000D03*
X128524000Y58798000D03*
X128524000Y61598000D03*
D11*
X94488000Y45948500D03*
X94488000Y47523500D03*
X96012000Y45948500D03*
X96012000Y47523500D03*
D15*
X134986000Y93091000D03*
X138286000Y93091000D03*
D16*
X118326000Y52197000D03*
X119926000Y52197000D03*
X118326000Y50673000D03*
X119926000Y50673000D03*
X118326000Y49149000D03*
X119926000Y49149000D03*
X118326000Y47625000D03*
X119926000Y47625000D03*
D17*
X85278000Y96123000D03*
X83378000Y96123000D03*
X84328000Y94123000D03*
X111186000Y96123000D03*
X109286000Y96123000D03*
X110236000Y94123000D03*
X93914000Y96123000D03*
X92014000Y96123000D03*
X92964000Y94123000D03*
X119822000Y96123000D03*
X117922000Y96123000D03*
X118872000Y94123000D03*
X102550000Y96123000D03*
X100650000Y96123000D03*
X101600000Y94123000D03*
X128458000Y96123000D03*
X126558000Y96123000D03*
X127508000Y94123000D03*
D16*
X46266000Y73787000D03*
X44666000Y73787000D03*
X38900000Y73787000D03*
X37300000Y73787000D03*
X31280000Y90551000D03*
X29680000Y90551000D03*
X31788000Y73787000D03*
X30188000Y73787000D03*
X24676000Y73787000D03*
X23076000Y73787000D03*
X24168000Y90551000D03*
X22568000Y90551000D03*
X17564000Y73787000D03*
X15964000Y73787000D03*
X10452000Y73787000D03*
X8852000Y73787000D03*
X118326000Y41529000D03*
X119926000Y41529000D03*
X118326000Y46101000D03*
X119926000Y46101000D03*
X118326000Y43053000D03*
X119926000Y43053000D03*
X118326000Y44577000D03*
X119926000Y44577000D03*
D10*
X142011500Y94107000D03*
X140436500Y94107000D03*
D18*
X132080000Y29718000D03*
X132080000Y37588000D03*
X126492000Y29847000D03*
X126492000Y37717000D03*
X126492000Y22985000D03*
X126492000Y15115000D03*
D19*
X147066000Y1651000D03*
D20*
X147066000Y1651000D03*
D19*
X1841500Y1816100D03*
D20*
X1841500Y1816100D03*
X1828800Y102463600D03*
D19*
X1828800Y102463600D03*
X144526000Y102616000D03*
D20*
X144526000Y102616000D03*
D21*
X3810000Y3937000D03*
X3810000Y100457000D03*
X134874000Y100457000D03*
D22*
X42418000Y64389000D03*
D23*
X42418000Y61849000D03*
X39878000Y64389000D03*
X39878000Y61849000D03*
X37338000Y64389000D03*
X37338000Y61849000D03*
X34798000Y64389000D03*
X34798000Y61849000D03*
X32258000Y64389000D03*
X32258000Y61849000D03*
D22*
X21031200Y64389000D03*
D23*
X21031200Y61849000D03*
X18491200Y64389000D03*
X18491200Y61849000D03*
X15951200Y64389000D03*
X15951200Y61849000D03*
X13411200Y64389000D03*
X13411200Y61849000D03*
X10871200Y64389000D03*
X10871200Y61849000D03*
D24*
X145036400Y98697800D03*
X145036400Y94697800D03*
D25*
X144511400Y95397800D03*
X144511400Y96047800D03*
X144511400Y96697800D03*
X144511400Y97347800D03*
X144511400Y97997800D03*
D26*
X147186400Y92697800D03*
D27*
X147186400Y97897800D03*
D26*
X147186400Y100697800D03*
D27*
X147186400Y95497800D03*
D28*
X71882000Y101219000D03*
D29*
X74382000Y101219000D03*
D30*
X143786000Y39459000D03*
D31*
X143786000Y44539000D03*
D32*
X143886000Y67366000D03*
D33*
X143886000Y70866000D03*
D34*
X119150200Y55245000D03*
D35*
X121690200Y55245000D03*
X124230200Y55245000D03*
D34*
X119126000Y64389000D03*
D35*
X121666000Y64389000D03*
X124206000Y64389000D03*
D34*
X119126000Y73533000D03*
D35*
X121666000Y73533000D03*
X124206000Y73533000D03*
D34*
X119126000Y58293000D03*
D35*
X121666000Y58293000D03*
X124206000Y58293000D03*
D34*
X119126000Y67437000D03*
D35*
X121666000Y67437000D03*
X124206000Y67437000D03*
D34*
X119126000Y76581000D03*
D35*
X121666000Y76581000D03*
X124206000Y76581000D03*
D34*
X119126000Y61341000D03*
D35*
X121666000Y61341000D03*
X124206000Y61341000D03*
D34*
X119126000Y70485000D03*
D35*
X121666000Y70485000D03*
X124206000Y70485000D03*
D34*
X119126000Y79629000D03*
D35*
X121666000Y79629000D03*
X124206000Y79629000D03*
D28*
X37338000Y101219000D03*
D29*
X39838000Y101219000D03*
D32*
X143886000Y50546000D03*
D33*
X143886000Y54046000D03*
D28*
X45974000Y101219000D03*
D29*
X48474000Y101219000D03*
D28*
X54650000Y101219000D03*
D29*
X57150000Y101219000D03*
D32*
X143886000Y58928000D03*
D33*
X143886000Y62428000D03*
D28*
X63246000Y101219000D03*
D29*
X65746000Y101219000D03*
D36*
X140286000Y25449000D03*
D37*
X140286000Y31799000D03*
D34*
X94107000Y68072000D03*
D35*
X94107000Y65532000D03*
X94107000Y62992000D03*
X94107000Y60452000D03*
D38*
X18342000Y35831000D03*
X18342000Y4181000D03*
D39*
X19592000Y29831000D03*
D40*
X21592000Y28831000D03*
X19592000Y27831000D03*
X21592000Y26831000D03*
X19592000Y25831000D03*
X21592000Y24831000D03*
X19592000Y23831000D03*
X21592000Y22831000D03*
X19592000Y21831000D03*
X21592000Y20831000D03*
X19592000Y19831000D03*
X21592000Y16831000D03*
X19592000Y15831000D03*
X21592000Y14831000D03*
X19592000Y13831000D03*
X21592000Y12831000D03*
X19592000Y11831000D03*
X21592000Y10831000D03*
D39*
X17092000Y29831000D03*
D40*
X15092000Y28831000D03*
X17092000Y27831000D03*
X15092000Y26831000D03*
X17092000Y25831000D03*
X15092000Y24831000D03*
X17092000Y23831000D03*
X15092000Y22831000D03*
X17092000Y21831000D03*
X15092000Y20831000D03*
X17092000Y19831000D03*
X15092000Y16831000D03*
X17092000Y15831000D03*
X15092000Y14831000D03*
X17092000Y13831000D03*
X15092000Y12831000D03*
X17092000Y11831000D03*
X15092000Y10831000D03*
D41*
X18342000Y9031000D03*
X18342000Y18181000D03*
D38*
X38342000Y4181000D03*
X38342000Y35831000D03*
D39*
X39592000Y29831000D03*
D40*
X41592000Y28831000D03*
X39592000Y27831000D03*
X41592000Y26831000D03*
X39592000Y25831000D03*
X41592000Y24831000D03*
X39592000Y23831000D03*
X41592000Y22831000D03*
X39592000Y21831000D03*
X41592000Y20831000D03*
X39592000Y19831000D03*
X41592000Y16831000D03*
X39592000Y15831000D03*
X41592000Y14831000D03*
X39592000Y13831000D03*
X41592000Y12831000D03*
X39592000Y11831000D03*
X41592000Y10831000D03*
D39*
X37092000Y29831000D03*
D40*
X35092000Y28831000D03*
X37092000Y27831000D03*
X35092000Y26831000D03*
X37092000Y25831000D03*
X35092000Y24831000D03*
X37092000Y23831000D03*
X35092000Y22831000D03*
X37092000Y21831000D03*
X35092000Y20831000D03*
X37092000Y19831000D03*
X35092000Y16831000D03*
X37092000Y15831000D03*
X35092000Y14831000D03*
X37092000Y13831000D03*
X35092000Y12831000D03*
X37092000Y11831000D03*
X35092000Y10831000D03*
D41*
X38342000Y18181000D03*
X38342000Y9031000D03*
D38*
X58342000Y4181000D03*
X58342000Y35831000D03*
D39*
X59592000Y29831000D03*
D40*
X61592000Y28831000D03*
X59592000Y27831000D03*
X61592000Y26831000D03*
X59592000Y25831000D03*
X61592000Y24831000D03*
X59592000Y23831000D03*
X61592000Y22831000D03*
X59592000Y21831000D03*
X61592000Y20831000D03*
X59592000Y19831000D03*
X61592000Y16831000D03*
X59592000Y15831000D03*
X61592000Y14831000D03*
X59592000Y13831000D03*
X61592000Y12831000D03*
X59592000Y11831000D03*
X61592000Y10831000D03*
D39*
X57092000Y29831000D03*
D40*
X55092000Y28831000D03*
X57092000Y27831000D03*
X55092000Y26831000D03*
X57092000Y25831000D03*
X55092000Y24831000D03*
X57092000Y23831000D03*
X55092000Y22831000D03*
X57092000Y21831000D03*
X55092000Y20831000D03*
X57092000Y19831000D03*
X55092000Y16831000D03*
X57092000Y15831000D03*
X55092000Y14831000D03*
X57092000Y13831000D03*
X55092000Y12831000D03*
X57092000Y11831000D03*
X55092000Y10831000D03*
D41*
X58342000Y18181000D03*
X58342000Y9031000D03*
D38*
X78342000Y35831000D03*
X78342000Y4181000D03*
D39*
X79592000Y29831000D03*
D40*
X81592000Y28831000D03*
X79592000Y27831000D03*
X81592000Y26831000D03*
X79592000Y25831000D03*
X81592000Y24831000D03*
X79592000Y23831000D03*
X81592000Y22831000D03*
X79592000Y21831000D03*
X81592000Y20831000D03*
X79592000Y19831000D03*
X81592000Y16831000D03*
X79592000Y15831000D03*
X81592000Y14831000D03*
X79592000Y13831000D03*
X81592000Y12831000D03*
X79592000Y11831000D03*
X81592000Y10831000D03*
D39*
X77092000Y29831000D03*
D40*
X75092000Y28831000D03*
X77092000Y27831000D03*
X75092000Y26831000D03*
X77092000Y25831000D03*
X75092000Y24831000D03*
X77092000Y23831000D03*
X75092000Y22831000D03*
X77092000Y21831000D03*
X75092000Y20831000D03*
X77092000Y19831000D03*
X75092000Y16831000D03*
X77092000Y15831000D03*
X75092000Y14831000D03*
X77092000Y13831000D03*
X75092000Y12831000D03*
X77092000Y11831000D03*
X75092000Y10831000D03*
D41*
X78342000Y9031000D03*
X78342000Y18181000D03*
D38*
X98342000Y35831000D03*
X98342000Y4181000D03*
D39*
X99592000Y29831000D03*
D40*
X101592000Y28831000D03*
X99592000Y27831000D03*
X101592000Y26831000D03*
X99592000Y25831000D03*
X101592000Y24831000D03*
X99592000Y23831000D03*
X101592000Y22831000D03*
X99592000Y21831000D03*
X101592000Y20831000D03*
X99592000Y19831000D03*
X101592000Y16831000D03*
X99592000Y15831000D03*
X101592000Y14831000D03*
X99592000Y13831000D03*
X101592000Y12831000D03*
X99592000Y11831000D03*
X101592000Y10831000D03*
D39*
X97092000Y29831000D03*
D40*
X95092000Y28831000D03*
X97092000Y27831000D03*
X95092000Y26831000D03*
X97092000Y25831000D03*
X95092000Y24831000D03*
X97092000Y23831000D03*
X95092000Y22831000D03*
X97092000Y21831000D03*
X95092000Y20831000D03*
X97092000Y19831000D03*
X95092000Y16831000D03*
X97092000Y15831000D03*
X95092000Y14831000D03*
X97092000Y13831000D03*
X95092000Y12831000D03*
X97092000Y11831000D03*
X95092000Y10831000D03*
D41*
X98342000Y18181000D03*
X98342000Y9031000D03*
D38*
X118342000Y35831000D03*
X118342000Y4181000D03*
D39*
X119592000Y29831000D03*
D40*
X121592000Y28831000D03*
X119592000Y27831000D03*
X121592000Y26831000D03*
X119592000Y25831000D03*
X121592000Y24831000D03*
X119592000Y23831000D03*
X121592000Y22831000D03*
X119592000Y21831000D03*
X121592000Y20831000D03*
X119592000Y19831000D03*
X121592000Y16831000D03*
X119592000Y15831000D03*
X121592000Y14831000D03*
X119592000Y13831000D03*
X121592000Y12831000D03*
X119592000Y11831000D03*
X121592000Y10831000D03*
D39*
X117092000Y29831000D03*
D40*
X115092000Y28831000D03*
X117092000Y27831000D03*
X115092000Y26831000D03*
X117092000Y25831000D03*
X115092000Y24831000D03*
X117092000Y23831000D03*
X115092000Y22831000D03*
X117092000Y21831000D03*
X115092000Y20831000D03*
X117092000Y19831000D03*
X115092000Y16831000D03*
X117092000Y15831000D03*
X115092000Y14831000D03*
X117092000Y13831000D03*
X115092000Y12831000D03*
X117092000Y11831000D03*
X115092000Y10831000D03*
D41*
X118342000Y9031000D03*
X118342000Y18181000D03*
D34*
X82550000Y84963000D03*
D35*
X82550000Y82423000D03*
X82550000Y79883000D03*
X82550000Y77343000D03*
X82550000Y74803000D03*
D28*
X81788000Y101219000D03*
D29*
X84288000Y101219000D03*
D28*
X90424000Y101219000D03*
D29*
X92924000Y101219000D03*
D28*
X99060000Y101219000D03*
D29*
X101560000Y101219000D03*
D28*
X107696000Y101219000D03*
D29*
X110196000Y101219000D03*
D28*
X116332000Y101219000D03*
D29*
X118832000Y101219000D03*
D28*
X124968000Y101219000D03*
D29*
X127468000Y101219000D03*
D42*
X30124400Y95925000D03*
D43*
X30124400Y98425000D03*
X30124400Y100925000D03*
D42*
X23215600Y95885000D03*
D43*
X23215600Y98385000D03*
X23215600Y100885000D03*
D42*
X38354000Y79222600D03*
D43*
X38354000Y81722600D03*
X38354000Y84222600D03*
D42*
X45669200Y79222600D03*
D43*
X45669200Y81722600D03*
X45669200Y84222600D03*
D42*
X31242000Y79222600D03*
D43*
X31242000Y81722600D03*
X31242000Y84222600D03*
D42*
X9906000Y79222600D03*
D43*
X9906000Y81722600D03*
X9906000Y84222600D03*
D42*
X17018000Y79222600D03*
D43*
X17018000Y81722600D03*
X17018000Y84222600D03*
D34*
X53594000Y70485000D03*
D35*
X51054000Y70485000D03*
D34*
X3486000Y56309000D03*
D35*
X3486000Y53769000D03*
X3486000Y51229000D03*
D34*
X9779000Y24257000D03*
D35*
X9779000Y26797000D03*
X9779000Y29337000D03*
D34*
X69850000Y24257000D03*
D35*
X69850000Y26797000D03*
X69850000Y29337000D03*
D34*
X29845000Y24257000D03*
D35*
X29845000Y26797000D03*
X29845000Y29337000D03*
D34*
X89789000Y24257000D03*
D35*
X89789000Y26797000D03*
X89789000Y29337000D03*
D34*
X109855000Y24257000D03*
D35*
X109855000Y26797000D03*
X109855000Y29337000D03*
D34*
X49784000Y24257000D03*
D35*
X49784000Y26797000D03*
X49784000Y29337000D03*
D11*
X71755000Y71221500D03*
X71755000Y72796500D03*
D10*
X11201500Y88265000D03*
X9626500Y88265000D03*
D11*
X74295000Y45440500D03*
X74295000Y47015500D03*
D10*
X66319500Y77089000D03*
X64744500Y77089000D03*
X66266500Y75507200D03*
X64691500Y75507200D03*
X12903000Y88265000D03*
X14478000Y88265000D03*
X142011500Y98679000D03*
X140436500Y98679000D03*
X142011500Y95631000D03*
X140436500Y95631000D03*
X142011500Y97155000D03*
X140436500Y97155000D03*
X140436500Y100203000D03*
X142011500Y100203000D03*
X122961500Y52197000D03*
X121386500Y52197000D03*
X122961500Y50673000D03*
X121386500Y50673000D03*
X122961500Y49149000D03*
X121386500Y49149000D03*
X107467500Y96139000D03*
X105892500Y96139000D03*
X81559500Y94615000D03*
X79984500Y94615000D03*
X107467500Y94615000D03*
X105892500Y94615000D03*
X90195500Y96139000D03*
X88620500Y96139000D03*
X116103500Y96139000D03*
X114528500Y96139000D03*
X90195500Y94615000D03*
X88620500Y94615000D03*
X116103500Y94615000D03*
X114528500Y94615000D03*
X98831500Y96139000D03*
X97256500Y96139000D03*
X124739500Y96139000D03*
X123164500Y96139000D03*
X98831500Y94615000D03*
X97256500Y94615000D03*
X124739500Y94615000D03*
X123164500Y94615000D03*
D11*
X43180000Y75336500D03*
X43180000Y73761500D03*
X35814000Y75336500D03*
X35814000Y73761500D03*
X28194000Y92100500D03*
X28194000Y90525500D03*
X47752000Y73761500D03*
X47752000Y75336500D03*
X40386000Y73761500D03*
X40386000Y75336500D03*
X32766000Y90525500D03*
X32766000Y92100500D03*
X28702000Y75362000D03*
X28702000Y73787000D03*
X21590000Y75336500D03*
X21590000Y73761500D03*
X21082000Y92100500D03*
X21082000Y90525500D03*
X33274000Y73761500D03*
X33274000Y75336500D03*
X26162000Y73761500D03*
X26162000Y75336500D03*
X25654000Y90525500D03*
X25654000Y92100500D03*
X14478000Y75336500D03*
X14478000Y73761500D03*
X7366000Y75336500D03*
X7366000Y73761500D03*
X19050000Y73761500D03*
X19050000Y75336500D03*
X11938000Y73761500D03*
X11938000Y75336500D03*
D10*
X89687500Y59309000D03*
X88112500Y59309000D03*
D11*
X78994000Y45567500D03*
X78994000Y47142500D03*
X9906000Y19913500D03*
X9906000Y21488500D03*
X93980000Y56667500D03*
X93980000Y55092500D03*
X92964000Y41884500D03*
X92964000Y43459500D03*
D10*
X75158500Y92583000D03*
X76733500Y92583000D03*
X73177500Y94107000D03*
X71602500Y94107000D03*
D11*
X92456000Y56667500D03*
X92456000Y55092500D03*
X91440000Y41884500D03*
X91440000Y43459500D03*
D10*
X122961500Y41529000D03*
X121386500Y41529000D03*
X122961500Y46101000D03*
X121386500Y46101000D03*
X40106500Y92583000D03*
X41681500Y92583000D03*
X38125500Y94107000D03*
X36550500Y94107000D03*
D11*
X90932000Y56667500D03*
X90932000Y55092500D03*
X89408000Y56667500D03*
X89408000Y55092500D03*
D10*
X122961500Y43053000D03*
X121386500Y43053000D03*
X49250500Y92583000D03*
X50825500Y92583000D03*
X47269500Y94107000D03*
X45694500Y94107000D03*
D11*
X89916000Y41884500D03*
X89916000Y43459500D03*
D10*
X57886500Y92583000D03*
X59461500Y92583000D03*
X55905500Y94107000D03*
X54330500Y94107000D03*
D11*
X88392000Y41884500D03*
X88392000Y43459500D03*
D10*
X122961500Y44577000D03*
X121386500Y44577000D03*
X66522500Y92583000D03*
X68097500Y92583000D03*
X64541500Y94107000D03*
X62966500Y94107000D03*
D44*
X34817200Y68721400D03*
D45*
X35617200Y68721400D03*
X36417200Y68721400D03*
D44*
X37217200Y68721400D03*
X37217200Y70521400D03*
D45*
X36417200Y70521400D03*
X35617200Y70521400D03*
D44*
X34817200Y70521400D03*
X16122800Y68619800D03*
D45*
X16922800Y68619800D03*
X17722800Y68619800D03*
D44*
X18522800Y68619800D03*
X18522800Y70419800D03*
D45*
X17722800Y70419800D03*
X16922800Y70419800D03*
D44*
X16122800Y70419800D03*
D46*
X41966000Y43389000D03*
D47*
X41966000Y42589000D03*
X41966000Y41789000D03*
D46*
X41966000Y40989000D03*
X43766000Y40989000D03*
D47*
X43766000Y41789000D03*
X43766000Y42589000D03*
D46*
X43766000Y43389000D03*
D48*
X13462000Y96597000D03*
X13462000Y90297000D03*
X17262000Y96597000D03*
X17262000Y90297000D03*
X6858000Y96597000D03*
X6858000Y90297000D03*
X10658000Y90297000D03*
X10658000Y96597000D03*
D49*
X113792000Y77724000D03*
D50*
X111252000Y77724000D03*
X108712000Y77724000D03*
X106172000Y77724000D03*
X103632000Y77724000D03*
X101092000Y77724000D03*
D49*
X113792000Y70866000D03*
D50*
X111252000Y70866000D03*
X108712000Y70866000D03*
X106172000Y70866000D03*
X103632000Y70866000D03*
X101092000Y70866000D03*
D49*
X113792000Y64008000D03*
D50*
X111252000Y64008000D03*
X108712000Y64008000D03*
X106172000Y64008000D03*
X103632000Y64008000D03*
X101092000Y64008000D03*
D49*
X113792000Y57150000D03*
D50*
X111252000Y57150000D03*
X108712000Y57150000D03*
X106172000Y57150000D03*
X103632000Y57150000D03*
X101092000Y57150000D03*
D49*
X113792000Y50292000D03*
D50*
X111252000Y50292000D03*
X108712000Y50292000D03*
X106172000Y50292000D03*
X103632000Y50292000D03*
X101092000Y50292000D03*
D49*
X113792000Y43434000D03*
D50*
X111252000Y43434000D03*
X108712000Y43434000D03*
X106172000Y43434000D03*
X103632000Y43434000D03*
X101092000Y43434000D03*
D17*
X75946000Y96123000D03*
X74996000Y94123000D03*
X76896000Y94123000D03*
D51*
X136921000Y45839000D03*
D52*
X134721000Y45839000D03*
D53*
X131451000Y43929000D03*
X131451000Y46479000D03*
X131451000Y47749000D03*
X131451000Y45199000D03*
D52*
X134039000Y71120000D03*
D51*
X136239000Y71120000D03*
D53*
X130769000Y69210000D03*
X130769000Y70480000D03*
X130769000Y71760000D03*
X130769000Y73030000D03*
D17*
X40894000Y96123000D03*
X39944000Y94123000D03*
X41844000Y94123000D03*
D51*
X136220000Y53594000D03*
D52*
X134020000Y53594000D03*
D53*
X130750000Y51684000D03*
X130750000Y55504000D03*
X130750000Y52954000D03*
X130750000Y54234000D03*
D17*
X50038000Y96123000D03*
X49088000Y94123000D03*
X50988000Y94123000D03*
X58674000Y96123000D03*
X57724000Y94123000D03*
X59624000Y94123000D03*
D52*
X134039000Y62484000D03*
D51*
X136239000Y62484000D03*
D53*
X130769000Y60574000D03*
X130769000Y63124000D03*
X130769000Y64394000D03*
X130769000Y61844000D03*
D17*
X67310000Y96123000D03*
X66360000Y94123000D03*
X68260000Y94123000D03*
D54*
X67100000Y65286800D03*
X67100000Y64786800D03*
X67100000Y64286800D03*
X67100000Y63786800D03*
X67100000Y63286800D03*
X67100000Y62786800D03*
X67100000Y62286800D03*
X67100000Y61786800D03*
X67100000Y61286800D03*
X67100000Y60786800D03*
X67100000Y60286800D03*
X67100000Y59786800D03*
X67100000Y59286800D03*
X67100000Y58786800D03*
X67100000Y58286800D03*
X67100000Y57786800D03*
X67100000Y57286800D03*
X67100000Y56786800D03*
X67100000Y56286800D03*
X67100000Y55786800D03*
X67100000Y55286800D03*
X67100000Y54786800D03*
X67100000Y54286800D03*
X67100000Y53786800D03*
X67100000Y53286800D03*
D55*
X68775000Y51611800D03*
X69275000Y51611800D03*
X69775000Y51611800D03*
X70275000Y51611800D03*
X70775000Y51611800D03*
X71275000Y51611800D03*
X71775000Y51611800D03*
X72275000Y51611800D03*
X72775000Y51611800D03*
X73275000Y51611800D03*
X73775000Y51611800D03*
X74275000Y51611800D03*
X74775000Y51611800D03*
X75275000Y51611800D03*
X75775000Y51611800D03*
X76275000Y51611800D03*
X76775000Y51611800D03*
X77275000Y51611800D03*
X77775000Y51611800D03*
X78275000Y51611800D03*
X78775000Y51611800D03*
X79275000Y51611800D03*
X79775000Y51611800D03*
X80275000Y51611800D03*
X80775000Y51611800D03*
D54*
X82450000Y53286800D03*
X82450000Y53786800D03*
X82450000Y54286800D03*
X82450000Y54786800D03*
X82450000Y55286800D03*
X82450000Y55786800D03*
X82450000Y56286800D03*
X82450000Y56786800D03*
X82450000Y57286800D03*
X82450000Y57786800D03*
X82450000Y58286800D03*
X82450000Y58786800D03*
X82450000Y59286800D03*
X82450000Y59786800D03*
X82450000Y60286800D03*
X82450000Y60786800D03*
X82450000Y61286800D03*
X82450000Y61786800D03*
X82450000Y62286800D03*
X82450000Y62786800D03*
X82450000Y63286800D03*
X82450000Y63786800D03*
X82450000Y64286800D03*
X82450000Y64786800D03*
X82450000Y65286800D03*
D55*
X80775000Y66961800D03*
X80275000Y66961800D03*
X79775000Y66961800D03*
X79275000Y66961800D03*
X78775000Y66961800D03*
X78275000Y66961800D03*
X77775000Y66961800D03*
X77275000Y66961800D03*
X76775000Y66961800D03*
X76275000Y66961800D03*
X75775000Y66961800D03*
X75275000Y66961800D03*
X74775000Y66961800D03*
X74275000Y66961800D03*
X73775000Y66961800D03*
X73275000Y66961800D03*
X72775000Y66961800D03*
X72275000Y66961800D03*
X71775000Y66961800D03*
X71275000Y66961800D03*
X70775000Y66961800D03*
X70275000Y66961800D03*
X69775000Y66961800D03*
X69275000Y66961800D03*
X68775000Y66961800D03*
D56*
X54702000Y79502000D03*
X54702000Y78232000D03*
X54702000Y76962000D03*
X54702000Y75692000D03*
X59852000Y75692000D03*
X59852000Y76962000D03*
X59852000Y78232000D03*
X59852000Y79502000D03*
D57*
X38622000Y51029000D03*
D58*
X36322000Y44729000D03*
D57*
X36322000Y51029000D03*
X34022000Y51029000D03*
D59*
X7826000Y42857000D03*
X7826000Y45257000D03*
X7826000Y56457000D03*
X7826000Y54057000D03*
X27626000Y42857000D03*
X27626000Y45257000D03*
X27626000Y56457000D03*
X27626000Y54057000D03*
D60*
X27695500Y14466500D03*
X27695500Y9066500D03*
X87987600Y8002200D03*
X87987600Y2602200D03*
X67886000Y8002200D03*
X67886000Y2602200D03*
X107886000Y8053000D03*
X107886000Y2653000D03*
X7886000Y14149000D03*
X7886000Y8749000D03*
D10*
X122961500Y47625000D03*
X121386500Y47625000D03*
X81559500Y96139000D03*
X79984500Y96139000D03*
D42*
X24130000Y79222600D03*
D43*
X24130000Y81722600D03*
X24130000Y84222600D03*
D21*
X145034000Y3937000D03*
D22*
X73342500Y87820500D03*
D23*
X73342500Y85280500D03*
X70802500Y87820500D03*
X70802500Y85280500D03*
X68262500Y87820500D03*
X68262500Y85280500D03*
X65722500Y87820500D03*
X65722500Y85280500D03*
X63182500Y87820500D03*
X63182500Y85280500D03*
D60*
X47378000Y8053000D03*
X47378000Y2653000D03*
D61*
X49022000Y15113000D03*
D29*
X46522000Y15113000D03*
D61*
X108966000Y15113000D03*
D29*
X106466000Y15113000D03*
D61*
X28448000Y2921000D03*
D29*
X25948000Y2921000D03*
D61*
X128143000Y2921000D03*
D29*
X125643000Y2921000D03*
D62*
X92691500Y52480000D03*
X92041500Y52480000D03*
X91391500Y52480000D03*
X90741500Y52480000D03*
X90091500Y52480000D03*
X89441500Y52480000D03*
X88791500Y52480000D03*
X88791500Y46580000D03*
X89441500Y46580000D03*
X90091500Y46580000D03*
X90741500Y46580000D03*
X91391500Y46580000D03*
X92041500Y46580000D03*
X92691500Y46580000D03*
D61*
X68961000Y15113000D03*
D29*
X66461000Y15113000D03*
D61*
X89027000Y15113000D03*
D29*
X86527000Y15113000D03*
D61*
X136636000Y2949000D03*
D29*
X134136000Y2949000D03*
D63*
X3175000Y19431000D03*
D64*
X3175000Y21931000D03*
D11*
X58126000Y44186500D03*
X58126000Y42611500D03*
D65*
X128836000Y9849000D03*
X130936000Y9849000D03*
D66*
X132806000Y8849000D03*
D67*
X135086000Y15149000D03*
D66*
X137366000Y8849000D03*
D10*
X130773500Y8149000D03*
X129198500Y8149000D03*
D68*
X146886000Y7849000D03*
X147186000Y102949000D03*
X7786000Y2249000D03*
X7786000Y102349000D03*
D15*
X61342000Y96012000D03*
X64642000Y96012000D03*
D11*
X120756000Y82131500D03*
X120756000Y83706500D03*
D34*
X131386000Y95449000D03*
D35*
X131386000Y92909000D03*
D11*
X119266000Y83716500D03*
X119266000Y82141500D03*
D69*
X136796000Y39079000D03*
X136796000Y42379000D03*
D10*
X126668500Y80709000D03*
X128243500Y80709000D03*
D15*
X43943000Y96012000D03*
X47243000Y96012000D03*
D70*
X122741000Y86044000D03*
X122741000Y84774000D03*
X122741000Y83504000D03*
X122741000Y82234000D03*
X127691000Y82234000D03*
X127691000Y83504000D03*
X127691000Y84774000D03*
X127691000Y86044000D03*
D71*
X54115000Y54170000D03*
X54115000Y56320000D03*
X52565000Y56320000D03*
X52565000Y54170000D03*
D15*
X35053000Y96012000D03*
X38353000Y96012000D03*
D10*
X89448500Y91499000D03*
X91023500Y91499000D03*
D11*
X129676000Y79181500D03*
X129676000Y80756500D03*
D62*
X50882000Y58391000D03*
X51532000Y58391000D03*
X52182000Y58391000D03*
X52832000Y58391000D03*
X53482000Y58391000D03*
X54132000Y58391000D03*
X54782000Y58391000D03*
X54782000Y64291000D03*
X54132000Y64291000D03*
X53482000Y64291000D03*
X52832000Y64291000D03*
X52182000Y64291000D03*
X51532000Y64291000D03*
X50882000Y64291000D03*
D11*
X85586000Y90311500D03*
X85586000Y91886500D03*
D10*
X52540500Y52459000D03*
X54115500Y52459000D03*
D69*
X139036000Y50059000D03*
X139036000Y53359000D03*
D72*
X141286000Y76679000D03*
X141286000Y86839000D03*
D73*
X132396000Y78589000D03*
D74*
X134936000Y79859000D03*
X132396000Y81129000D03*
X134936000Y82399000D03*
X132396000Y83669000D03*
X134936000Y84939000D03*
D11*
X40886000Y46486500D03*
X40886000Y44911500D03*
D10*
X46693500Y41079000D03*
X45118500Y41079000D03*
D15*
X52706000Y96012000D03*
X56006000Y96012000D03*
D11*
X129666000Y82141500D03*
X129666000Y83716500D03*
D75*
X88364551Y78414866D03*
X88364551Y77764866D03*
X88364551Y77114866D03*
X88364551Y76464866D03*
X88364551Y75814866D03*
X88364551Y75164866D03*
X88364551Y74514866D03*
X94264551Y74514866D03*
X94264551Y75164866D03*
X94264551Y75814866D03*
X94264551Y76464866D03*
X94264551Y77114866D03*
X94264551Y77764866D03*
X94264551Y78414866D03*
D69*
X138557000Y57913000D03*
X138557000Y61213000D03*
D15*
X69978000Y96012000D03*
X73278000Y96012000D03*
D69*
X138557000Y66676000D03*
X138557000Y69976000D03*
D10*
X51282500Y66167000D03*
X52857500Y66167000D03*
X51282500Y67691000D03*
X52857500Y67691000D03*
D76*
X60473500Y58749000D03*
X58598500Y58749000D03*
D32*
X143886000Y13549000D03*
D33*
X143886000Y17049000D03*
D11*
X120766000Y86676500D03*
X120766000Y85101500D03*
M02*
