%TF.GenerationSoftware,KiCad,Pcbnew,5.99.0-unknown-43a4cf795~104~ubuntu20.04.1*%
%TF.CreationDate,2020-11-14T10:51:03-08:00*%
%TF.ProjectId,T12_Control,5431325f-436f-46e7-9472-6f6c2e6b6963,rev?*%
%TF.SameCoordinates,PXba85060PY68290a0*%
%TF.FileFunction,Legend,Top*%
%TF.FilePolarity,Positive*%
%FSLAX46Y46*%
G04 Gerber Fmt 4.6, Leading zero omitted, Abs format (unit mm)*
G04 Created by KiCad (PCBNEW 5.99.0-unknown-43a4cf795~104~ubuntu20.04.1) date 2020-11-14 10:51:03*
%MOMM*%
%LPD*%
G01*
G04 APERTURE LIST*
%ADD10C,0.101600*%
%ADD11C,0.150000*%
%ADD12C,0.120000*%
G04 APERTURE END LIST*
D10*
X7351304Y15439572D02*
X6843304Y15439572D01*
X6988447Y15439572D02*
X6915875Y15475858D01*
X6879590Y15512143D01*
X6843304Y15584715D01*
X6843304Y15657286D01*
X7315018Y16201572D02*
X7351304Y16129000D01*
X7351304Y15983858D01*
X7315018Y15911286D01*
X7242447Y15875000D01*
X6952161Y15875000D01*
X6879590Y15911286D01*
X6843304Y15983858D01*
X6843304Y16129000D01*
X6879590Y16201572D01*
X6952161Y16237858D01*
X7024732Y16237858D01*
X7097304Y15875000D01*
X6843304Y16491858D02*
X7351304Y16673286D01*
X6843304Y16854715D01*
X7351304Y18124715D02*
X7351304Y17689286D01*
X7351304Y17907000D02*
X6589304Y17907000D01*
X6698161Y17834429D01*
X6770732Y17761858D01*
X6807018Y17689286D01*
X8578124Y14169572D02*
X7816124Y14169572D01*
X8578124Y14605000D01*
X7816124Y14605000D01*
X8578124Y15076715D02*
X8541838Y15004143D01*
X8505552Y14967858D01*
X8432981Y14931572D01*
X8215267Y14931572D01*
X8142695Y14967858D01*
X8106410Y15004143D01*
X8070124Y15076715D01*
X8070124Y15185572D01*
X8106410Y15258143D01*
X8142695Y15294429D01*
X8215267Y15330715D01*
X8432981Y15330715D01*
X8505552Y15294429D01*
X8541838Y15258143D01*
X8578124Y15185572D01*
X8578124Y15076715D01*
X8070124Y15584715D02*
X8578124Y15766143D01*
X8070124Y15947572D01*
X7888695Y16782143D02*
X7852410Y16818429D01*
X7816124Y16891000D01*
X7816124Y17072429D01*
X7852410Y17145000D01*
X7888695Y17181286D01*
X7961267Y17217572D01*
X8033838Y17217572D01*
X8142695Y17181286D01*
X8578124Y16745858D01*
X8578124Y17217572D01*
X7816124Y17689286D02*
X7816124Y17761858D01*
X7852410Y17834429D01*
X7888695Y17870715D01*
X7961267Y17907000D01*
X8106410Y17943286D01*
X8287838Y17943286D01*
X8432981Y17907000D01*
X8505552Y17870715D01*
X8541838Y17834429D01*
X8578124Y17761858D01*
X8578124Y17689286D01*
X8541838Y17616715D01*
X8505552Y17580429D01*
X8432981Y17544143D01*
X8287838Y17507858D01*
X8106410Y17507858D01*
X7961267Y17544143D01*
X7888695Y17580429D01*
X7852410Y17616715D01*
X7816124Y17689286D01*
X7888695Y18233572D02*
X7852410Y18269858D01*
X7816124Y18342429D01*
X7816124Y18523858D01*
X7852410Y18596429D01*
X7888695Y18632715D01*
X7961267Y18669000D01*
X8033838Y18669000D01*
X8142695Y18632715D01*
X8578124Y18197286D01*
X8578124Y18669000D01*
X7816124Y19140715D02*
X7816124Y19213286D01*
X7852410Y19285858D01*
X7888695Y19322143D01*
X7961267Y19358429D01*
X8106410Y19394715D01*
X8287838Y19394715D01*
X8432981Y19358429D01*
X8505552Y19322143D01*
X8541838Y19285858D01*
X8578124Y19213286D01*
X8578124Y19140715D01*
X8541838Y19068143D01*
X8505552Y19031858D01*
X8432981Y18995572D01*
X8287838Y18959286D01*
X8106410Y18959286D01*
X7961267Y18995572D01*
X7888695Y19031858D01*
X7852410Y19068143D01*
X7816124Y19140715D01*
D11*
X39298571Y29066858D02*
X39298571Y28304953D01*
X38917619Y28685905D02*
X39679523Y28685905D01*
X39298571Y25543048D02*
X39298571Y24781143D01*
X2024190Y34901239D02*
X2167047Y34853620D01*
X2405142Y34853620D01*
X2500380Y34901239D01*
X2548000Y34948858D01*
X2595619Y35044096D01*
X2595619Y35139334D01*
X2548000Y35234572D01*
X2500380Y35282191D01*
X2405142Y35329810D01*
X2214666Y35377429D01*
X2119428Y35425048D01*
X2071809Y35472667D01*
X2024190Y35567905D01*
X2024190Y35663143D01*
X2071809Y35758381D01*
X2119428Y35806000D01*
X2214666Y35853620D01*
X2452761Y35853620D01*
X2595619Y35806000D01*
X3024190Y34853620D02*
X3024190Y35853620D01*
X3405142Y35853620D01*
X3500380Y35806000D01*
X3548000Y35758381D01*
X3595619Y35663143D01*
X3595619Y35520286D01*
X3548000Y35425048D01*
X3500380Y35377429D01*
X3405142Y35329810D01*
X3024190Y35329810D01*
X4024190Y34853620D02*
X4024190Y35853620D01*
X38100000Y11469620D02*
X38100000Y11231524D01*
X37861904Y11326762D02*
X38100000Y11231524D01*
X38338095Y11326762D01*
X37957142Y11041048D02*
X38100000Y11231524D01*
X38242857Y11041048D01*
X38552380Y16311715D02*
X37552380Y16311715D01*
X38552380Y16787905D02*
X37885714Y16787905D01*
X38076190Y16787905D02*
X37980952Y16835524D01*
X37933333Y16883143D01*
X37885714Y16978381D01*
X37885714Y17073620D01*
X38552380Y17549810D02*
X38504761Y17454572D01*
X38457142Y17406953D01*
X38361904Y17359334D01*
X38076190Y17359334D01*
X37980952Y17406953D01*
X37933333Y17454572D01*
X37885714Y17549810D01*
X37885714Y17692667D01*
X37933333Y17787905D01*
X37980952Y17835524D01*
X38076190Y17883143D01*
X38361904Y17883143D01*
X38457142Y17835524D01*
X38504761Y17787905D01*
X38552380Y17692667D01*
X38552380Y17549810D01*
X37885714Y18311715D02*
X38552380Y18311715D01*
X37980952Y18311715D02*
X37933333Y18359334D01*
X37885714Y18454572D01*
X37885714Y18597429D01*
X37933333Y18692667D01*
X38028571Y18740286D01*
X38552380Y18740286D01*
X2325809Y30535620D02*
X2325809Y31535620D01*
X2754380Y31440381D02*
X2802000Y31488000D01*
X2897238Y31535620D01*
X3135333Y31535620D01*
X3230571Y31488000D01*
X3278190Y31440381D01*
X3325809Y31345143D01*
X3325809Y31249905D01*
X3278190Y31107048D01*
X2706761Y30535620D01*
X3325809Y30535620D01*
X4325809Y30630858D02*
X4278190Y30583239D01*
X4135333Y30535620D01*
X4040095Y30535620D01*
X3897238Y30583239D01*
X3802000Y30678477D01*
X3754380Y30773715D01*
X3706761Y30964191D01*
X3706761Y31107048D01*
X3754380Y31297524D01*
X3802000Y31392762D01*
X3897238Y31488000D01*
X4040095Y31535620D01*
X4135333Y31535620D01*
X4278190Y31488000D01*
X4325809Y31440381D01*
X15406857Y1373239D02*
X15549714Y1325620D01*
X15787809Y1325620D01*
X15883047Y1373239D01*
X15930666Y1420858D01*
X15978285Y1516096D01*
X15978285Y1611334D01*
X15930666Y1706572D01*
X15883047Y1754191D01*
X15787809Y1801810D01*
X15597333Y1849429D01*
X15502095Y1897048D01*
X15454476Y1944667D01*
X15406857Y2039905D01*
X15406857Y2135143D01*
X15454476Y2230381D01*
X15502095Y2278000D01*
X15597333Y2325620D01*
X15835428Y2325620D01*
X15978285Y2278000D01*
X16311619Y2325620D02*
X16549714Y1325620D01*
X16740190Y2039905D01*
X16930666Y1325620D01*
X17168761Y2325620D01*
X17549714Y1325620D02*
X17549714Y2325620D01*
X17787809Y2325620D01*
X17930666Y2278000D01*
X18025904Y2182762D01*
X18073523Y2087524D01*
X18121142Y1897048D01*
X18121142Y1754191D01*
X18073523Y1563715D01*
X18025904Y1468477D01*
X17930666Y1373239D01*
X17787809Y1325620D01*
X17549714Y1325620D01*
X26678666Y36658620D02*
X27250095Y36658620D01*
X26964380Y35658620D02*
X26964380Y36658620D01*
X28107238Y35658620D02*
X27535809Y35658620D01*
X27821523Y35658620D02*
X27821523Y36658620D01*
X27726285Y36515762D01*
X27631047Y36420524D01*
X27535809Y36372905D01*
X28488190Y36563381D02*
X28535809Y36611000D01*
X28631047Y36658620D01*
X28869142Y36658620D01*
X28964380Y36611000D01*
X29012000Y36563381D01*
X29059619Y36468143D01*
X29059619Y36372905D01*
X29012000Y36230048D01*
X28440571Y35658620D01*
X29059619Y35658620D01*
X30202476Y35706239D02*
X30345333Y35658620D01*
X30583428Y35658620D01*
X30678666Y35706239D01*
X30726285Y35753858D01*
X30773904Y35849096D01*
X30773904Y35944334D01*
X30726285Y36039572D01*
X30678666Y36087191D01*
X30583428Y36134810D01*
X30392952Y36182429D01*
X30297714Y36230048D01*
X30250095Y36277667D01*
X30202476Y36372905D01*
X30202476Y36468143D01*
X30250095Y36563381D01*
X30297714Y36611000D01*
X30392952Y36658620D01*
X30631047Y36658620D01*
X30773904Y36611000D01*
X31345333Y35658620D02*
X31250095Y35706239D01*
X31202476Y35753858D01*
X31154857Y35849096D01*
X31154857Y36134810D01*
X31202476Y36230048D01*
X31250095Y36277667D01*
X31345333Y36325286D01*
X31488190Y36325286D01*
X31583428Y36277667D01*
X31631047Y36230048D01*
X31678666Y36134810D01*
X31678666Y35849096D01*
X31631047Y35753858D01*
X31583428Y35706239D01*
X31488190Y35658620D01*
X31345333Y35658620D01*
X32250095Y35658620D02*
X32154857Y35706239D01*
X32107238Y35801477D01*
X32107238Y36658620D01*
X33059619Y35658620D02*
X33059619Y36658620D01*
X33059619Y35706239D02*
X32964380Y35658620D01*
X32773904Y35658620D01*
X32678666Y35706239D01*
X32631047Y35753858D01*
X32583428Y35849096D01*
X32583428Y36134810D01*
X32631047Y36230048D01*
X32678666Y36277667D01*
X32773904Y36325286D01*
X32964380Y36325286D01*
X33059619Y36277667D01*
X33916761Y35706239D02*
X33821523Y35658620D01*
X33631047Y35658620D01*
X33535809Y35706239D01*
X33488190Y35801477D01*
X33488190Y36182429D01*
X33535809Y36277667D01*
X33631047Y36325286D01*
X33821523Y36325286D01*
X33916761Y36277667D01*
X33964380Y36182429D01*
X33964380Y36087191D01*
X33488190Y35991953D01*
X34392952Y35658620D02*
X34392952Y36325286D01*
X34392952Y36134810D02*
X34440571Y36230048D01*
X34488190Y36277667D01*
X34583428Y36325286D01*
X34678666Y36325286D01*
X35773904Y35658620D02*
X35773904Y36658620D01*
X36250095Y35658620D02*
X36250095Y36325286D01*
X36250095Y36134810D02*
X36297714Y36230048D01*
X36345333Y36277667D01*
X36440571Y36325286D01*
X36535809Y36325286D01*
X37012000Y35658620D02*
X36916761Y35706239D01*
X36869142Y35753858D01*
X36821523Y35849096D01*
X36821523Y36134810D01*
X36869142Y36230048D01*
X36916761Y36277667D01*
X37012000Y36325286D01*
X37154857Y36325286D01*
X37250095Y36277667D01*
X37297714Y36230048D01*
X37345333Y36134810D01*
X37345333Y35849096D01*
X37297714Y35753858D01*
X37250095Y35706239D01*
X37154857Y35658620D01*
X37012000Y35658620D01*
X37773904Y36325286D02*
X37773904Y35658620D01*
X37773904Y36230048D02*
X37821523Y36277667D01*
X37916761Y36325286D01*
X38059619Y36325286D01*
X38154857Y36277667D01*
X38202476Y36182429D01*
X38202476Y35658620D01*
X29607238Y34143858D02*
X29559619Y34096239D01*
X29416761Y34048620D01*
X29321523Y34048620D01*
X29178666Y34096239D01*
X29083428Y34191477D01*
X29035809Y34286715D01*
X28988190Y34477191D01*
X28988190Y34620048D01*
X29035809Y34810524D01*
X29083428Y34905762D01*
X29178666Y35001000D01*
X29321523Y35048620D01*
X29416761Y35048620D01*
X29559619Y35001000D01*
X29607238Y34953381D01*
X30178666Y34048620D02*
X30083428Y34096239D01*
X30035809Y34143858D01*
X29988190Y34239096D01*
X29988190Y34524810D01*
X30035809Y34620048D01*
X30083428Y34667667D01*
X30178666Y34715286D01*
X30321523Y34715286D01*
X30416761Y34667667D01*
X30464380Y34620048D01*
X30512000Y34524810D01*
X30512000Y34239096D01*
X30464380Y34143858D01*
X30416761Y34096239D01*
X30321523Y34048620D01*
X30178666Y34048620D01*
X30940571Y34715286D02*
X30940571Y34048620D01*
X30940571Y34620048D02*
X30988190Y34667667D01*
X31083428Y34715286D01*
X31226285Y34715286D01*
X31321523Y34667667D01*
X31369142Y34572429D01*
X31369142Y34048620D01*
X31702476Y34715286D02*
X32083428Y34715286D01*
X31845333Y35048620D02*
X31845333Y34191477D01*
X31892952Y34096239D01*
X31988190Y34048620D01*
X32083428Y34048620D01*
X32416761Y34048620D02*
X32416761Y34715286D01*
X32416761Y34524810D02*
X32464380Y34620048D01*
X32512000Y34667667D01*
X32607238Y34715286D01*
X32702476Y34715286D01*
X33178666Y34048620D02*
X33083428Y34096239D01*
X33035809Y34143858D01*
X32988190Y34239096D01*
X32988190Y34524810D01*
X33035809Y34620048D01*
X33083428Y34667667D01*
X33178666Y34715286D01*
X33321523Y34715286D01*
X33416761Y34667667D01*
X33464380Y34620048D01*
X33512000Y34524810D01*
X33512000Y34239096D01*
X33464380Y34143858D01*
X33416761Y34096239D01*
X33321523Y34048620D01*
X33178666Y34048620D01*
X34083428Y34048620D02*
X33988190Y34096239D01*
X33940571Y34191477D01*
X33940571Y35048620D01*
X34607238Y34048620D02*
X34512000Y34096239D01*
X34464380Y34191477D01*
X34464380Y35048620D01*
X35369142Y34096239D02*
X35273904Y34048620D01*
X35083428Y34048620D01*
X34988190Y34096239D01*
X34940571Y34191477D01*
X34940571Y34572429D01*
X34988190Y34667667D01*
X35083428Y34715286D01*
X35273904Y34715286D01*
X35369142Y34667667D01*
X35416761Y34572429D01*
X35416761Y34477191D01*
X34940571Y34381953D01*
X35845333Y34048620D02*
X35845333Y34715286D01*
X35845333Y34524810D02*
X35892952Y34620048D01*
X35940571Y34667667D01*
X36035809Y34715286D01*
X36131047Y34715286D01*
X611238Y16708191D02*
X563619Y16565334D01*
X563619Y16327239D01*
X611238Y16232000D01*
X658857Y16184381D01*
X754095Y16136762D01*
X849333Y16136762D01*
X944571Y16184381D01*
X992190Y16232000D01*
X1039809Y16327239D01*
X1087428Y16517715D01*
X1135047Y16612953D01*
X1182666Y16660572D01*
X1277904Y16708191D01*
X1373142Y16708191D01*
X1468380Y16660572D01*
X1516000Y16612953D01*
X1563619Y16517715D01*
X1563619Y16279620D01*
X1516000Y16136762D01*
X611238Y15327239D02*
X563619Y15422477D01*
X563619Y15612953D01*
X611238Y15708191D01*
X706476Y15755810D01*
X1087428Y15755810D01*
X1182666Y15708191D01*
X1230285Y15612953D01*
X1230285Y15422477D01*
X1182666Y15327239D01*
X1087428Y15279620D01*
X992190Y15279620D01*
X896952Y15755810D01*
X563619Y14851048D02*
X1230285Y14851048D01*
X1039809Y14851048D02*
X1135047Y14803429D01*
X1182666Y14755810D01*
X1230285Y14660572D01*
X1230285Y14565334D01*
X563619Y14232000D02*
X1230285Y14232000D01*
X1563619Y14232000D02*
X1516000Y14279620D01*
X1468380Y14232000D01*
X1516000Y14184381D01*
X1563619Y14232000D01*
X1468380Y14232000D01*
X563619Y13327239D02*
X1087428Y13327239D01*
X1182666Y13374858D01*
X1230285Y13470096D01*
X1230285Y13660572D01*
X1182666Y13755810D01*
X611238Y13327239D02*
X563619Y13422477D01*
X563619Y13660572D01*
X611238Y13755810D01*
X706476Y13803429D01*
X801714Y13803429D01*
X896952Y13755810D01*
X944571Y13660572D01*
X944571Y13422477D01*
X992190Y13327239D01*
X563619Y12708191D02*
X611238Y12803429D01*
X706476Y12851048D01*
X1563619Y12851048D01*
X19812000Y10707620D02*
X19812000Y10469524D01*
X19573904Y10564762D02*
X19812000Y10469524D01*
X20050095Y10564762D01*
X19669142Y10279048D02*
X19812000Y10469524D01*
X19954857Y10279048D01*
X4064000Y27471620D02*
X4064000Y27233524D01*
X3825904Y27328762D02*
X4064000Y27233524D01*
X4302095Y27328762D01*
X3921142Y27043048D02*
X4064000Y27233524D01*
X4206857Y27043048D01*
D10*
X18499182Y31982410D02*
X18462897Y32018696D01*
X18390325Y32127553D01*
X18354040Y32200125D01*
X18317754Y32308982D01*
X18281468Y32490410D01*
X18281468Y32635553D01*
X18317754Y32816982D01*
X18354040Y32925839D01*
X18390325Y32998410D01*
X18462897Y33107268D01*
X18499182Y33143553D01*
X19116040Y32308982D02*
X19043468Y32272696D01*
X18898325Y32272696D01*
X18825754Y32308982D01*
X18789468Y32345268D01*
X18753182Y32417839D01*
X18753182Y32635553D01*
X18789468Y32708125D01*
X18825754Y32744410D01*
X18898325Y32780696D01*
X19043468Y32780696D01*
X19116040Y32744410D01*
X19370040Y31982410D02*
X19406325Y32018696D01*
X19478897Y32127553D01*
X19515182Y32200125D01*
X19551468Y32308982D01*
X19587754Y32490410D01*
X19587754Y32635553D01*
X19551468Y32816982D01*
X19515182Y32925839D01*
X19478897Y32998410D01*
X19406325Y33107268D01*
X19370040Y33143553D01*
X20531182Y32272696D02*
X20531182Y32780696D01*
X20531182Y33034696D02*
X20494897Y32998410D01*
X20531182Y32962125D01*
X20567468Y32998410D01*
X20531182Y33034696D01*
X20531182Y32962125D01*
X21402040Y32200125D02*
X21329468Y32236410D01*
X21256897Y32308982D01*
X21148040Y32417839D01*
X21075468Y32454125D01*
X21002897Y32454125D01*
X21039182Y32272696D02*
X20966611Y32308982D01*
X20894040Y32381553D01*
X20857754Y32526696D01*
X20857754Y32780696D01*
X20894040Y32925839D01*
X20966611Y32998410D01*
X21039182Y33034696D01*
X21184325Y33034696D01*
X21256897Y32998410D01*
X21329468Y32925839D01*
X21365754Y32780696D01*
X21365754Y32526696D01*
X21329468Y32381553D01*
X21256897Y32308982D01*
X21184325Y32272696D01*
X21039182Y32272696D01*
X22018897Y32780696D02*
X22018897Y32272696D01*
X21692325Y32780696D02*
X21692325Y32381553D01*
X21728611Y32308982D01*
X21801182Y32272696D01*
X21910040Y32272696D01*
X21982611Y32308982D01*
X22018897Y32345268D01*
X22381754Y32272696D02*
X22381754Y32780696D01*
X22381754Y32635553D02*
X22418040Y32708125D01*
X22454325Y32744410D01*
X22526897Y32780696D01*
X22599468Y32780696D01*
X22780897Y32780696D02*
X22962325Y32272696D01*
X23143754Y32780696D02*
X22962325Y32272696D01*
X22889754Y32091268D01*
X22853468Y32054982D01*
X22780897Y32018696D01*
X23434040Y32345268D02*
X23470325Y32308982D01*
X23434040Y32272696D01*
X23397754Y32308982D01*
X23434040Y32345268D01*
X23434040Y32272696D01*
X24123468Y32780696D02*
X24123468Y32272696D01*
X23796897Y32780696D02*
X23796897Y32381553D01*
X23833182Y32308982D01*
X23905754Y32272696D01*
X24014611Y32272696D01*
X24087182Y32308982D01*
X24123468Y32345268D01*
X24450040Y32308982D02*
X24522611Y32272696D01*
X24667754Y32272696D01*
X24740325Y32308982D01*
X24776611Y32381553D01*
X24776611Y32417839D01*
X24740325Y32490410D01*
X24667754Y32526696D01*
X24558897Y32526696D01*
X24486325Y32562982D01*
X24450040Y32635553D01*
X24450040Y32671839D01*
X24486325Y32744410D01*
X24558897Y32780696D01*
X24667754Y32780696D01*
X24740325Y32744410D01*
X18281468Y31045876D02*
X18281468Y31807876D01*
X18608040Y31045876D02*
X18608040Y31445019D01*
X18571754Y31517590D01*
X18499182Y31553876D01*
X18390325Y31553876D01*
X18317754Y31517590D01*
X18281468Y31481305D01*
X18862040Y31553876D02*
X19152325Y31553876D01*
X18970897Y31807876D02*
X18970897Y31154733D01*
X19007182Y31082162D01*
X19079754Y31045876D01*
X19152325Y31045876D01*
X19297468Y31553876D02*
X19587754Y31553876D01*
X19406325Y31807876D02*
X19406325Y31154733D01*
X19442611Y31082162D01*
X19515182Y31045876D01*
X19587754Y31045876D01*
X19841754Y31553876D02*
X19841754Y30791876D01*
X19841754Y31517590D02*
X19914325Y31553876D01*
X20059468Y31553876D01*
X20132040Y31517590D01*
X20168325Y31481305D01*
X20204611Y31408733D01*
X20204611Y31191019D01*
X20168325Y31118448D01*
X20132040Y31082162D01*
X20059468Y31045876D01*
X19914325Y31045876D01*
X19841754Y31082162D01*
X20494897Y31082162D02*
X20567468Y31045876D01*
X20712611Y31045876D01*
X20785182Y31082162D01*
X20821468Y31154733D01*
X20821468Y31191019D01*
X20785182Y31263590D01*
X20712611Y31299876D01*
X20603754Y31299876D01*
X20531182Y31336162D01*
X20494897Y31408733D01*
X20494897Y31445019D01*
X20531182Y31517590D01*
X20603754Y31553876D01*
X20712611Y31553876D01*
X20785182Y31517590D01*
X21148040Y31118448D02*
X21184325Y31082162D01*
X21148040Y31045876D01*
X21111754Y31082162D01*
X21148040Y31118448D01*
X21148040Y31045876D01*
X21148040Y31517590D02*
X21184325Y31481305D01*
X21148040Y31445019D01*
X21111754Y31481305D01*
X21148040Y31517590D01*
X21148040Y31445019D01*
X22055182Y31844162D02*
X21402040Y30864448D01*
X22853468Y31844162D02*
X22200325Y30864448D01*
X23107468Y31045876D02*
X23107468Y31807876D01*
X23107468Y31517590D02*
X23180040Y31553876D01*
X23325182Y31553876D01*
X23397754Y31517590D01*
X23434040Y31481305D01*
X23470325Y31408733D01*
X23470325Y31191019D01*
X23434040Y31118448D01*
X23397754Y31082162D01*
X23325182Y31045876D01*
X23180040Y31045876D01*
X23107468Y31082162D01*
X23905754Y31045876D02*
X23833182Y31082162D01*
X23796897Y31154733D01*
X23796897Y31807876D01*
X24304897Y31045876D02*
X24232325Y31082162D01*
X24196040Y31118448D01*
X24159754Y31191019D01*
X24159754Y31408733D01*
X24196040Y31481305D01*
X24232325Y31517590D01*
X24304897Y31553876D01*
X24413754Y31553876D01*
X24486325Y31517590D01*
X24522611Y31481305D01*
X24558897Y31408733D01*
X24558897Y31191019D01*
X24522611Y31118448D01*
X24486325Y31082162D01*
X24413754Y31045876D01*
X24304897Y31045876D01*
X25212040Y31553876D02*
X25212040Y30937019D01*
X25175754Y30864448D01*
X25139468Y30828162D01*
X25066897Y30791876D01*
X24958040Y30791876D01*
X24885468Y30828162D01*
X25212040Y31082162D02*
X25139468Y31045876D01*
X24994325Y31045876D01*
X24921754Y31082162D01*
X24885468Y31118448D01*
X24849182Y31191019D01*
X24849182Y31408733D01*
X24885468Y31481305D01*
X24921754Y31517590D01*
X24994325Y31553876D01*
X25139468Y31553876D01*
X25212040Y31517590D01*
X25574897Y31118448D02*
X25611182Y31082162D01*
X25574897Y31045876D01*
X25538611Y31082162D01*
X25574897Y31118448D01*
X25574897Y31045876D01*
X25937754Y31553876D02*
X25937754Y30791876D01*
X25937754Y31517590D02*
X26010325Y31553876D01*
X26155468Y31553876D01*
X26228040Y31517590D01*
X26264325Y31481305D01*
X26300611Y31408733D01*
X26300611Y31191019D01*
X26264325Y31118448D01*
X26228040Y31082162D01*
X26155468Y31045876D01*
X26010325Y31045876D01*
X25937754Y31082162D01*
X26953754Y31082162D02*
X26881182Y31045876D01*
X26736040Y31045876D01*
X26663468Y31082162D01*
X26627182Y31118448D01*
X26590897Y31191019D01*
X26590897Y31408733D01*
X26627182Y31481305D01*
X26663468Y31517590D01*
X26736040Y31553876D01*
X26881182Y31553876D01*
X26953754Y31517590D01*
X27280325Y31045876D02*
X27280325Y31807876D01*
X27280325Y31517590D02*
X27352897Y31553876D01*
X27498040Y31553876D01*
X27570611Y31517590D01*
X27606897Y31481305D01*
X27643182Y31408733D01*
X27643182Y31191019D01*
X27606897Y31118448D01*
X27570611Y31082162D01*
X27498040Y31045876D01*
X27352897Y31045876D01*
X27280325Y31082162D01*
X27897182Y31045876D02*
X28296325Y31553876D01*
X27897182Y31553876D02*
X28296325Y31045876D01*
X28586611Y31553876D02*
X28586611Y30791876D01*
X28586611Y31517590D02*
X28659182Y31553876D01*
X28804325Y31553876D01*
X28876897Y31517590D01*
X28913182Y31481305D01*
X28949468Y31408733D01*
X28949468Y31191019D01*
X28913182Y31118448D01*
X28876897Y31082162D01*
X28804325Y31045876D01*
X28659182Y31045876D01*
X28586611Y31082162D01*
X29276040Y31045876D02*
X29276040Y31553876D01*
X29276040Y31408733D02*
X29312325Y31481305D01*
X29348611Y31517590D01*
X29421182Y31553876D01*
X29493754Y31553876D01*
X29638897Y31553876D02*
X29929182Y31553876D01*
X29747754Y31807876D02*
X29747754Y31154733D01*
X29784040Y31082162D01*
X29856611Y31045876D01*
X29929182Y31045876D01*
X30183182Y31118448D02*
X30219468Y31082162D01*
X30183182Y31045876D01*
X30146897Y31082162D01*
X30183182Y31118448D01*
X30183182Y31045876D01*
X30872611Y31082162D02*
X30800040Y31045876D01*
X30654897Y31045876D01*
X30582325Y31082162D01*
X30546040Y31118448D01*
X30509754Y31191019D01*
X30509754Y31408733D01*
X30546040Y31481305D01*
X30582325Y31517590D01*
X30654897Y31553876D01*
X30800040Y31553876D01*
X30872611Y31517590D01*
X31308040Y31045876D02*
X31235468Y31082162D01*
X31199182Y31118448D01*
X31162897Y31191019D01*
X31162897Y31408733D01*
X31199182Y31481305D01*
X31235468Y31517590D01*
X31308040Y31553876D01*
X31416897Y31553876D01*
X31489468Y31517590D01*
X31525754Y31481305D01*
X31562040Y31408733D01*
X31562040Y31191019D01*
X31525754Y31118448D01*
X31489468Y31082162D01*
X31416897Y31045876D01*
X31308040Y31045876D01*
X31888611Y31045876D02*
X31888611Y31553876D01*
X31888611Y31481305D02*
X31924897Y31517590D01*
X31997468Y31553876D01*
X32106325Y31553876D01*
X32178897Y31517590D01*
X32215182Y31445019D01*
X32215182Y31045876D01*
X32215182Y31445019D02*
X32251468Y31517590D01*
X32324040Y31553876D01*
X32432897Y31553876D01*
X32505468Y31517590D01*
X32541754Y31445019D01*
X32541754Y31045876D01*
D11*
X38687523Y32964381D02*
X38735142Y33012000D01*
X38830380Y33059620D01*
X39068476Y33059620D01*
X39163714Y33012000D01*
X39211333Y32964381D01*
X39258952Y32869143D01*
X39258952Y32773905D01*
X39211333Y32631048D01*
X38639904Y32059620D01*
X39258952Y32059620D01*
X40116095Y32726286D02*
X40116095Y32059620D01*
X39878000Y33107239D02*
X39639904Y32392953D01*
X40258952Y32392953D01*
X40497047Y33059620D02*
X40830380Y32059620D01*
X41163714Y33059620D01*
D12*
%TO.C,RN2*%
X14608000Y21848000D02*
X14608000Y22348000D01*
X16888000Y21848000D02*
X16888000Y22348000D01*
%TO.C,RN1*%
X28014503Y17447259D02*
X27514503Y17447259D01*
X28014503Y19727259D02*
X27514503Y19727259D01*
%TO.C,R6*%
X33508455Y19445758D02*
X33182897Y19445758D01*
X33508455Y20465758D02*
X33182897Y20465758D01*
%TO.C,C6*%
X19080566Y8601894D02*
X18755008Y8601894D01*
X19080566Y7581894D02*
X18755008Y7581894D01*
%TO.C,J5*%
X9482722Y5977271D02*
X9482722Y3317271D01*
X22242722Y5977271D02*
X22242722Y3317271D01*
X24842722Y5977271D02*
X24842722Y4647271D01*
X22242722Y5977271D02*
X9482722Y5977271D01*
X23512722Y5977271D02*
X24842722Y5977271D01*
X22242722Y3317271D02*
X9482722Y3317271D01*
%TO.C,C8*%
X12114628Y20830848D02*
X12440186Y20830848D01*
X12114628Y19810848D02*
X12440186Y19810848D01*
%TO.C,C11*%
X21702495Y11648233D02*
X21702495Y11973791D01*
X22722495Y11648233D02*
X22722495Y11973791D01*
%TO.C,C5*%
X17180779Y27684000D02*
X16855221Y27684000D01*
X17180779Y28704000D02*
X16855221Y28704000D01*
%TO.C,J6*%
X5173130Y8830000D02*
X3843130Y8830000D01*
X5173130Y19110000D02*
X2513130Y19110000D01*
X2513130Y11430000D02*
X2513130Y19110000D01*
X5173130Y10160000D02*
X5173130Y8830000D01*
X5173130Y11430000D02*
X5173130Y19110000D01*
X5173130Y11430000D02*
X2513130Y11430000D01*
%TO.C,C9*%
X8544779Y26668000D02*
X8219221Y26668000D01*
X8544779Y27688000D02*
X8219221Y27688000D01*
%TO.C,D2*%
X22899000Y18261000D02*
X22899000Y16791000D01*
X25184000Y18261000D02*
X22899000Y18261000D01*
X22899000Y16791000D02*
X25184000Y16791000D01*
%TO.C,U3*%
X31275247Y17935610D02*
X31275247Y15485610D01*
X34495247Y16135610D02*
X34495247Y17935610D01*
%TO.C,C4*%
X26455061Y20815438D02*
X26129503Y20815438D01*
X26455061Y21835438D02*
X26129503Y21835438D01*
%TO.C,C2*%
X28662215Y28806542D02*
X28662215Y28480984D01*
X29682215Y28806542D02*
X29682215Y28480984D01*
%TO.C,R3*%
X29118779Y13206000D02*
X28793221Y13206000D01*
X29118779Y14226000D02*
X28793221Y14226000D01*
%TO.C,Q2*%
X24640000Y11120000D02*
X24640000Y12050000D01*
X24640000Y11120000D02*
X26800000Y11120000D01*
X24640000Y14280000D02*
X26100000Y14280000D01*
X24640000Y14280000D02*
X24640000Y13350000D01*
%TO.C,C1*%
X37432215Y12968581D02*
X37757773Y12968581D01*
X37432215Y13988581D02*
X37757773Y13988581D01*
%TO.C,J1*%
X48742000Y23350000D02*
X48742000Y23750000D01*
X42873000Y30175000D02*
X43001000Y30046000D01*
X45123000Y27925000D02*
X45216000Y27831000D01*
X48042000Y23590000D02*
X48042000Y30710000D01*
X44883000Y27755000D02*
X45011000Y27626000D01*
X42667000Y29970000D02*
X42761000Y29876000D01*
X48502000Y23590000D02*
X48502000Y30710000D01*
X40782000Y23590000D02*
X48502000Y23590000D01*
X46942000Y23590000D02*
X46942000Y30710000D01*
X40782000Y23590000D02*
X40782000Y30710000D01*
X48102000Y23350000D02*
X48742000Y23350000D01*
X40782000Y30710000D02*
X48502000Y30710000D01*
X45366721Y26290264D02*
G75*
G02*
X45622000Y25400000I-1424721J-890264D01*
G01*
X44831894Y23974642D02*
G75*
G02*
X43076000Y23960000I-889894J1425358D01*
G01*
X43051807Y26825505D02*
G75*
G02*
X44833000Y26825000I890193J-1425505D01*
G01*
X45622099Y25428674D02*
G75*
G02*
X45382000Y24534000I-1680099J-28674D01*
G01*
X42516642Y24510106D02*
G75*
G02*
X42502000Y26266000I1425358J889894D01*
G01*
X45622000Y28900000D02*
G75*
G03*
X45622000Y28900000I-1680000J0D01*
G01*
%TO.C,C3*%
X20411221Y21588000D02*
X20736779Y21588000D01*
X20411221Y22608000D02*
X20736779Y22608000D01*
%TO.C,R2*%
X29720000Y25562779D02*
X29720000Y25237221D01*
X28700000Y25562779D02*
X28700000Y25237221D01*
D11*
%TO.C,Q1*%
X31085000Y10370000D02*
X31085000Y4870000D01*
X36840000Y10370000D02*
X36840000Y12120000D01*
X37495000Y10370000D02*
X36840000Y10370000D01*
X37495000Y10370000D02*
X37495000Y4870000D01*
X37495000Y4870000D02*
X36745000Y4870000D01*
X31085000Y4870000D02*
X31835000Y4870000D01*
X31085000Y10370000D02*
X31835000Y10370000D01*
D12*
%TO.C,C7*%
X8873143Y10493439D02*
X8873143Y10818997D01*
X9893143Y10493439D02*
X9893143Y10818997D01*
%TO.C,R1*%
X33182779Y14480000D02*
X32857221Y14480000D01*
X33182779Y13460000D02*
X32857221Y13460000D01*
%TO.C,R7*%
X24455687Y15256138D02*
X24781245Y15256138D01*
X24455687Y16276138D02*
X24781245Y16276138D01*
%TO.C,U2*%
X6604000Y26182000D02*
X3154000Y26182000D01*
X6604000Y21062000D02*
X4654000Y21062000D01*
X6604000Y21062000D02*
X8554000Y21062000D01*
X6604000Y26182000D02*
X8554000Y26182000D01*
%TO.C,C10*%
X21689899Y15177269D02*
X21689899Y14851711D01*
X22709899Y15177269D02*
X22709899Y14851711D01*
%TO.C,J2*%
X39736000Y1474000D02*
X48456000Y1474000D01*
X41346000Y4684000D02*
X40346000Y4684000D01*
X46846000Y2084000D02*
X46846000Y20984000D01*
X40346000Y4684000D02*
X40346000Y2084000D01*
X40346000Y16084000D02*
X41346000Y16084000D01*
X39736000Y21594000D02*
X39736000Y1474000D01*
X46346000Y21894000D02*
X48756000Y21894000D01*
X46846000Y20984000D02*
X41346000Y20984000D01*
X48456000Y21594000D02*
X39736000Y21594000D01*
X48756000Y21894000D02*
X48756000Y19484000D01*
X41346000Y18684000D02*
X40346000Y18684000D01*
X40346000Y2084000D02*
X46846000Y2084000D01*
X40346000Y18684000D02*
X40346000Y16084000D01*
X41346000Y16084000D02*
X41346000Y4684000D01*
X48456000Y1474000D02*
X48456000Y21594000D01*
X41346000Y20984000D02*
X41346000Y18684000D01*
%TO.C,D1*%
X26290000Y2950000D02*
X29590000Y2950000D01*
X29590000Y2950000D02*
X29590000Y8350000D01*
X26290000Y2950000D02*
X26290000Y8350000D01*
%TO.C,C13*%
X29778516Y18852233D02*
X29778516Y19177791D01*
X30798516Y18852233D02*
X30798516Y19177791D01*
%TO.C,J4*%
X8128000Y30166000D02*
X8128000Y32826000D01*
X5528000Y32826000D02*
X6858000Y32826000D01*
X15808000Y30166000D02*
X15808000Y32826000D01*
X8128000Y30166000D02*
X15808000Y30166000D01*
X5528000Y31496000D02*
X5528000Y32826000D01*
X8128000Y32826000D02*
X15808000Y32826000D01*
%TO.C,J3*%
X5528000Y36636000D02*
X6858000Y36636000D01*
X8128000Y36636000D02*
X23428000Y36636000D01*
X23428000Y33976000D02*
X23428000Y36636000D01*
X8128000Y33976000D02*
X23428000Y33976000D01*
X8128000Y33976000D02*
X8128000Y36636000D01*
X5528000Y35306000D02*
X5528000Y36636000D01*
%TO.C,R4*%
X29722877Y22324846D02*
X29722877Y21999288D01*
X28702877Y22324846D02*
X28702877Y21999288D01*
%TO.C,C12*%
X37143563Y29826000D02*
X35858000Y29826000D01*
X36645500Y30853500D02*
X36645500Y30066000D01*
X31388000Y28761563D02*
X31388000Y23006000D01*
X37039250Y30459750D02*
X36251750Y30459750D01*
X38208000Y28761563D02*
X38208000Y23006000D01*
X32452437Y29826000D02*
X33738000Y29826000D01*
X31388000Y23006000D02*
X33738000Y23006000D01*
X38208000Y23006000D02*
X35858000Y23006000D01*
X37143563Y29826000D02*
X38208000Y28761563D01*
X32452437Y29826000D02*
X31388000Y28761563D01*
%TO.C,TP1*%
X30672000Y15494000D02*
G75*
G03*
X30672000Y15494000I-700000J0D01*
G01*
%TO.C,U4*%
X12432500Y10570000D02*
X11982500Y10570000D01*
X19202500Y17790000D02*
X19202500Y17340000D01*
X12432500Y17790000D02*
X11982500Y17790000D01*
X18752500Y17790000D02*
X19202500Y17790000D01*
X18752500Y10570000D02*
X19202500Y10570000D01*
X11982500Y17790000D02*
X11982500Y17340000D01*
X19202500Y11020000D02*
X20492500Y11020000D01*
X11982500Y10570000D02*
X11982500Y11020000D01*
X19202500Y10570000D02*
X19202500Y11020000D01*
%TO.C,R5*%
X32124573Y22253019D02*
X31799015Y22253019D01*
X32124573Y21233019D02*
X31799015Y21233019D01*
%TO.C,U1*%
X25116000Y30080000D02*
X21356000Y30080000D01*
X21356000Y30080000D02*
X21356000Y28820000D01*
X21356000Y23260000D02*
X21356000Y24520000D01*
X27366000Y23260000D02*
X21356000Y23260000D01*
%TD*%
M02*
