M48
; DRILL file {KiCad 5.99.0-unknown-70e6d0e79f~115~ubuntu20.04.1} date Mon Feb  1 22:21:42 2021
; FORMAT={-:-/ absolute / metric / decimal}
; #@! TF.CreationDate,2021-02-01T22:21:42-08:00
; #@! TF.GenerationSoftware,Kicad,Pcbnew,5.99.0-unknown-70e6d0e79f~115~ubuntu20.04.1
; #@! TF.FileFunction,Plated,1,2,PTH
FMAT,2
METRIC
T1C0.330
T2C0.508
T3C1.000
T4C1.200
T5C1.600
%
G90
G05
T1
X4.127Y28.9
X8.636Y11.43
X9.906Y12.7
X9.906Y7.112
X10.16Y16.51
X11.43Y18.288
X12.7Y22.352
X13.094Y21.15
X13.17Y28.72
X13.17Y27.72
X13.92Y33.47
X14.619Y19.809
X14.732Y16.764
X14.92Y24.72
X14.922Y25.656
X15.748Y14.986
X15.762Y20.099
X15.92Y33.72
X16.002Y11.43
X16.02Y12.42
X16.34Y19.388
X16.67Y23.97
X16.842Y14.146
X16.954Y20.279
X17.17Y8.22
X17.526Y19.558
X18.12Y32.22
X18.27Y23.92
X18.542Y16.002
X20.066Y17.526
X21.082Y18.542
X21.082Y16.764
X22.17Y7.72
X23.32Y16.92
X24.42Y7.62
X24.72Y12.52
X26.416Y14.986
X26.52Y12.42
X26.94Y16.78
X27.22Y19.92
X27.67Y27.87
X28.32Y20.02
X28.448Y16.51
X28.448Y12.192
X28.47Y23.692
X28.829Y18.415
X32.766Y14.986
X33.782Y16.764
X39.27Y17.72
T2
X4.064Y20.828
X6.858Y27.178
X7.62Y24.13
X22.182Y10.16
X22.72Y26.62
X23.114Y14.224
X23.62Y29.92
X23.62Y23.82
X24.384Y21.336
X24.62Y26.62
X26.416Y8.89
X29.464Y8.89
X30.226Y21.336
T3
X3.843Y17.78
X3.843Y15.24
X3.843Y12.7
X3.843Y10.16
X6.823Y35.211
X6.859Y31.488
X9.363Y35.211
X9.399Y31.488
X10.813Y4.647
X11.903Y35.211
X11.939Y31.488
X13.353Y4.647
X14.443Y35.211
X14.479Y31.488
X15.893Y4.647
X16.983Y35.211
X18.433Y4.647
X19.523Y35.211
X20.973Y4.647
X22.063Y35.211
X23.513Y4.647
X34.72Y30.17
X34.72Y25.17
T4
X43.942Y28.9
X43.942Y25.4
T5
X44.196Y18.684
X44.196Y15.184
X44.196Y11.684
X44.196Y8.184
X44.196Y4.684
T0
M30
