%TF.GenerationSoftware,KiCad,Pcbnew,5.99.0-unknown-70e6d0e79f~115~ubuntu20.04.1*%
%TF.CreationDate,2021-02-01T17:32:16-08:00*%
%TF.ProjectId,T12_Control,5431325f-436f-46e7-9472-6f6c2e6b6963,rev?*%
%TF.SameCoordinates,PXba85060PY68290a0*%
%TF.FileFunction,Copper,L2,Bot*%
%TF.FilePolarity,Positive*%
%FSLAX46Y46*%
G04 Gerber Fmt 4.6, Leading zero omitted, Abs format (unit mm)*
G04 Created by KiCad (PCBNEW 5.99.0-unknown-70e6d0e79f~115~ubuntu20.04.1) date 2021-02-01 17:32:16*
%MOMM*%
%LPD*%
G01*
G04 APERTURE LIST*
G04 Aperture macros list*
%AMRoundRect*
0 Rectangle with rounded corners*
0 $1 Rounding radius*
0 $2 $3 $4 $5 $6 $7 $8 $9 X,Y pos of 4 corners*
0 Add a 4 corners polygon primitive as box body*
4,1,4,$2,$3,$4,$5,$6,$7,$8,$9,$2,$3,0*
0 Add four circle primitives for the rounded corners*
1,1,$1+$1,$2,$3*
1,1,$1+$1,$4,$5*
1,1,$1+$1,$6,$7*
1,1,$1+$1,$8,$9*
0 Add four rect primitives between the rounded corners*
20,1,$1+$1,$2,$3,$4,$5,0*
20,1,$1+$1,$4,$5,$6,$7,0*
20,1,$1+$1,$6,$7,$8,$9,0*
20,1,$1+$1,$8,$9,$2,$3,0*%
G04 Aperture macros list end*
%TA.AperFunction,ComponentPad*%
%ADD10R,1.700000X1.700000*%
%TD*%
%TA.AperFunction,ComponentPad*%
%ADD11O,1.700000X1.700000*%
%TD*%
%TA.AperFunction,ComponentPad*%
%ADD12R,2.400000X2.400000*%
%TD*%
%TA.AperFunction,ComponentPad*%
%ADD13C,2.400000*%
%TD*%
%TA.AperFunction,ComponentPad*%
%ADD14RoundRect,0.250000X-1.050000X0.750000X-1.050000X-0.750000X1.050000X-0.750000X1.050000X0.750000X0*%
%TD*%
%TA.AperFunction,ComponentPad*%
%ADD15O,2.600000X2.000000*%
%TD*%
%TA.AperFunction,ViaPad*%
%ADD16C,0.889000*%
%TD*%
%TA.AperFunction,ViaPad*%
%ADD17C,0.685800*%
%TD*%
%TA.AperFunction,Conductor*%
%ADD18C,0.152400*%
%TD*%
%TA.AperFunction,Conductor*%
%ADD19C,0.254000*%
%TD*%
G04 APERTURE END LIST*
D10*
%TO.P,J5,1,Pin_1*%
%TO.N,/SWDSWO*%
X23512722Y4647271D03*
D11*
%TO.P,J5,2,Pin_2*%
%TO.N,/SWDCLK*%
X20972722Y4647271D03*
%TO.P,J5,3,Pin_3*%
%TO.N,/SWDIO*%
X18432722Y4647271D03*
%TO.P,J5,4,Pin_4*%
%TO.N,/~NRST*%
X15892722Y4647271D03*
%TO.P,J5,5,Pin_5*%
%TO.N,/3.3V*%
X13352722Y4647271D03*
%TO.P,J5,6,Pin_6*%
%TO.N,GND*%
X10812722Y4647271D03*
%TD*%
D10*
%TO.P,J6,1,Pin_1*%
%TO.N,/3.3V*%
X3843130Y10160000D03*
D11*
%TO.P,J6,2,Pin_2*%
%TO.N,GND*%
X3843130Y12700000D03*
%TO.P,J6,3,Pin_3*%
%TO.N,/RX*%
X3843130Y15240000D03*
%TO.P,J6,4,Pin_4*%
%TO.N,/TX*%
X3843130Y17780000D03*
%TD*%
D12*
%TO.P,J1,1,Pin_1*%
%TO.N,GND*%
X43942000Y25400000D03*
D13*
%TO.P,J1,2,Pin_2*%
%TO.N,/24V*%
X43942000Y28900000D03*
%TD*%
D14*
%TO.P,J2,1*%
%TO.N,Net-(J2-Pad1)*%
X44196000Y18684000D03*
D15*
%TO.P,J2,2*%
%TO.N,N/C*%
X44196000Y15184000D03*
%TO.P,J2,3*%
%TO.N,GND*%
X44196000Y11684000D03*
%TO.P,J2,4*%
X44196000Y8184000D03*
%TO.P,J2,5*%
%TO.N,Net-(D1-Pad1)*%
X44196000Y4684000D03*
%TD*%
D10*
%TO.P,J4,1,Pin_1*%
%TO.N,/OLED_SDA*%
X14479162Y31488285D03*
D11*
%TO.P,J4,2,Pin_2*%
%TO.N,/OLED_SCL*%
X11939162Y31488285D03*
%TO.P,J4,3,Pin_3*%
%TO.N,GND*%
X9399162Y31488285D03*
%TO.P,J4,4,Pin_4*%
%TO.N,/3.3V*%
X6859162Y31488285D03*
%TD*%
D10*
%TO.P,J3,1,Pin_1*%
%TO.N,/~CS*%
X22063440Y35210654D03*
D11*
%TO.P,J3,2,Pin_2*%
%TO.N,/D{slash}~C*%
X19523440Y35210654D03*
%TO.P,J3,3,Pin_3*%
%TO.N,/~RST*%
X16983440Y35210654D03*
%TO.P,J3,4,Pin_4*%
%TO.N,/MOSI*%
X14443440Y35210654D03*
%TO.P,J3,5,Pin_5*%
%TO.N,/SCK*%
X11903440Y35210654D03*
%TO.P,J3,6,Pin_6*%
%TO.N,/3.3V*%
X9363440Y35210654D03*
%TO.P,J3,7,Pin_7*%
%TO.N,GND*%
X6823440Y35210654D03*
%TD*%
D16*
%TO.N,GND*%
X4064000Y20828000D03*
X33020000Y25400000D03*
X24384000Y21336000D03*
D17*
X17170000Y8220000D03*
X32766000Y14986000D03*
D16*
X6858000Y27178000D03*
D17*
X4126700Y28900202D03*
X22352000Y22098000D03*
X28320000Y20020000D03*
D16*
X29464000Y8890000D03*
X23114000Y14224000D03*
D17*
X16002000Y11430000D03*
D16*
X22181995Y10160000D03*
D17*
X26520000Y12420000D03*
X8636000Y11430000D03*
D16*
X23620000Y23820000D03*
X23620000Y29920000D03*
X26416000Y8890000D03*
X7620000Y24130000D03*
X30226000Y21336000D03*
X22720000Y26620000D03*
X38354000Y14478000D03*
X24620000Y26620000D03*
D17*
X13094136Y21149626D03*
D16*
X29972000Y27686000D03*
D17*
X22606000Y17526000D03*
D16*
X34544000Y21336000D03*
D17*
%TO.N,/V_MON*%
X27686000Y21336000D03*
X21082000Y16764000D03*
%TO.N,/~NRST*%
X22170000Y7720000D03*
%TO.N,Net-(D1-Pad1)*%
X28448000Y12192000D03*
X28448000Y16510000D03*
%TO.N,Net-(D2-Pad2)*%
X33782000Y16764000D03*
X26940040Y16780040D03*
%TO.N,/SCK*%
X13920000Y33470000D03*
X17526000Y19558000D03*
%TO.N,/MOSI*%
X16339988Y19387920D03*
%TO.N,/~RST*%
X13170000Y27720000D03*
X11430000Y18288000D03*
%TO.N,/D{slash}~C*%
X13170000Y28720000D03*
X10160000Y16510000D03*
X15920000Y33720000D03*
%TO.N,/~CS*%
X14732000Y16764000D03*
X14922490Y25655587D03*
%TO.N,/OLED_SCL*%
X16954490Y20279106D03*
X16842500Y14145500D03*
X16670000Y23970000D03*
%TO.N,/OLED_SDA*%
X15748000Y14986000D03*
X15761710Y20098884D03*
X14920000Y24720000D03*
%TO.N,/SWDIO*%
X9906000Y7112000D03*
X9906000Y12700000D03*
%TO.N,/TIP_TEMP*%
X26416000Y14986000D03*
X18542000Y16002000D03*
%TO.N,Net-(J2-Pad1)*%
X28829000Y18415000D03*
%TO.N,/NTC*%
X20066000Y17526000D03*
X21082000Y18542000D03*
%TO.N,/EE_SCL*%
X12700000Y22352000D03*
X14618898Y19809406D03*
%TO.N,/HEATER_ON*%
X24420000Y7620000D03*
X16020000Y12420000D03*
%TO.N,Net-(Q2-Pad1)*%
X27220000Y19920000D03*
X24720000Y12520000D03*
%TD*%
D18*
%TO.N,/V_MON*%
X27090178Y21336000D02*
X25348499Y19594321D01*
X25348499Y19394321D02*
X22718178Y16764000D01*
X27686000Y21336000D02*
X27090178Y21336000D01*
X25348499Y19594321D02*
X25348499Y19394321D01*
X22718178Y16764000D02*
X21082000Y16764000D01*
%TO.N,/~NRST*%
X20947278Y6497278D02*
X17947278Y6497278D01*
X16097271Y4647271D02*
X17947278Y6497278D01*
X15892722Y4647271D02*
X16097271Y4647271D01*
X22170000Y7720000D02*
X20947278Y6497278D01*
D19*
%TO.N,Net-(D1-Pad1)*%
X28448000Y16510000D02*
X28448000Y12192000D01*
%TO.N,Net-(D2-Pad2)*%
X33782000Y16764000D02*
X33413699Y17132301D01*
X27292301Y17132301D02*
X26940040Y16780040D01*
X33413699Y17132301D02*
X27292301Y17132301D01*
D18*
%TO.N,/SCK*%
X17526000Y24890890D02*
X14046312Y28370578D01*
X13399389Y32949389D02*
X13920000Y33470000D01*
X13399389Y29767501D02*
X13399389Y32949389D01*
X17526000Y19558000D02*
X17526000Y24890890D01*
X14046312Y28370578D02*
X14046311Y29120579D01*
X14046311Y29120579D02*
X13399389Y29767501D01*
%TO.N,/MOSI*%
X13094578Y29641244D02*
X13094578Y33861792D01*
X15494000Y26491822D02*
X13741501Y28244321D01*
X16339988Y19387920D02*
X16339988Y21475909D01*
X13741501Y28244321D02*
X13741501Y28994321D01*
X13094578Y33861792D02*
X14443440Y35210654D01*
X13741501Y28994321D02*
X13094578Y29641244D01*
X16339988Y21475909D02*
X15494000Y22321897D01*
X15494000Y22321897D02*
X15494000Y26491822D01*
%TO.N,/~RST*%
X11430000Y18288000D02*
X10859399Y18858601D01*
X10859399Y18858601D02*
X10859399Y25409399D01*
X10859399Y25409399D02*
X13170000Y27720000D01*
%TO.N,/D{slash}~C*%
X10476611Y16826611D02*
X10476611Y26026611D01*
X18032786Y33720000D02*
X19523440Y35210654D01*
X10476611Y26026611D02*
X13170000Y28720000D01*
X15920000Y33720000D02*
X18032786Y33720000D01*
X10160000Y16510000D02*
X10476611Y16826611D01*
%TO.N,/~CS*%
X15190208Y19824562D02*
X15190208Y21763554D01*
X14348499Y25081596D02*
X14922490Y25655587D01*
X15240000Y17272000D02*
X15240000Y19774770D01*
X15240000Y19774770D02*
X15190208Y19824562D01*
X14348499Y22605263D02*
X14348499Y25081596D01*
X14732000Y16764000D02*
X15240000Y17272000D01*
X15190208Y21763554D02*
X14348499Y22605263D01*
%TO.N,/OLED_SCL*%
X16954490Y14257490D02*
X16842500Y14145500D01*
X16954490Y16192490D02*
X16954490Y16700490D01*
X16954490Y16700490D02*
X16954490Y14257490D01*
X16954490Y16700490D02*
X16954490Y20279106D01*
X16954490Y23685510D02*
X16670000Y23970000D01*
X16954490Y23435510D02*
X16954490Y20279106D01*
X16954490Y23435510D02*
X16954490Y23685510D01*
X16954490Y23435510D02*
X16954490Y23254490D01*
%TO.N,/OLED_SDA*%
X15748000Y16764000D02*
X15748000Y14986000D01*
X15748000Y20085174D02*
X15761710Y20098884D01*
X14922490Y24717510D02*
X14920000Y24720000D01*
X15761710Y20098884D02*
X15761710Y21623120D01*
X15761710Y21623120D02*
X14922490Y22462340D01*
X14922490Y22462340D02*
X14922490Y24131774D01*
X14922490Y24131774D02*
X14922490Y24717510D01*
X15748000Y16764000D02*
X15748000Y20085174D01*
%TO.N,/SWDIO*%
X9906000Y12700000D02*
X9906000Y7112000D01*
D19*
%TO.N,/TIP_TEMP*%
X22352000Y16002000D02*
X18542000Y16002000D01*
X26416000Y14986000D02*
X23368000Y14986000D01*
X23368000Y14986000D02*
X22352000Y16002000D01*
D18*
%TO.N,Net-(J2-Pad1)*%
X29098000Y18684000D02*
X28844000Y18684000D01*
X44196000Y18684000D02*
X29322000Y18684000D01*
X29322000Y18684000D02*
X29098000Y18684000D01*
X29098000Y18684000D02*
X28829000Y18415000D01*
D19*
%TO.N,/NTC*%
X21082000Y18542000D02*
X20066000Y17526000D01*
D18*
%TO.N,/EE_SCL*%
X14224000Y20828000D02*
X14618898Y20433102D01*
X14224000Y20828000D02*
X12700000Y22352000D01*
X14618898Y20433102D02*
X14618898Y19809406D01*
D19*
%TO.N,/HEATER_ON*%
X24420000Y9220000D02*
X21220000Y12420000D01*
X16020000Y12420000D02*
X19620000Y12420000D01*
X24420000Y7620000D02*
X24420000Y9220000D01*
X21220000Y12420000D02*
X19620000Y12420000D01*
%TO.N,Net-(Q2-Pad1)*%
X26520000Y19920000D02*
X27220000Y19920000D01*
X25920000Y19320000D02*
X26520000Y19920000D01*
X25720000Y12520000D02*
X24720000Y12520000D01*
X27120000Y13920000D02*
X26920000Y13720000D01*
X26920000Y13720000D02*
X25720000Y12520000D01*
X25920000Y19320000D02*
X25920000Y16920000D01*
X25920000Y16920000D02*
X27120000Y15720000D01*
X27120000Y15720000D02*
X27120000Y13920000D01*
%TD*%
%TA.AperFunction,Conductor*%
%TO.N,GND*%
G36*
X48217209Y37961624D02*
G01*
X48217210Y37961634D01*
X48218156Y37961521D01*
X48222862Y37961007D01*
X48229402Y37959562D01*
X48235586Y37959431D01*
X48235590Y37959431D01*
X48279640Y37958501D01*
X48317428Y37957704D01*
X48325742Y37957252D01*
X48357950Y37954434D01*
X48368846Y37953000D01*
X48501469Y37929615D01*
X48512195Y37927236D01*
X48531228Y37922136D01*
X48541709Y37918832D01*
X48668256Y37872773D01*
X48678380Y37868580D01*
X48694425Y37861098D01*
X48696285Y37860230D01*
X48706027Y37855158D01*
X48822636Y37787834D01*
X48831895Y37781936D01*
X48848057Y37770619D01*
X48856774Y37763930D01*
X48959932Y37677371D01*
X48968036Y37669944D01*
X48981972Y37656008D01*
X48989397Y37647906D01*
X49050730Y37574813D01*
X49075952Y37544754D01*
X49082644Y37536032D01*
X49093959Y37519872D01*
X49099864Y37510603D01*
X49167182Y37394006D01*
X49172253Y37384267D01*
X49180607Y37366351D01*
X49184799Y37356230D01*
X49226156Y37242602D01*
X49230858Y37229683D01*
X49234162Y37219202D01*
X49239262Y37200169D01*
X49241641Y37189443D01*
X49265026Y37056822D01*
X49266460Y37045924D01*
X49269278Y37013716D01*
X49269729Y37005402D01*
X49271588Y36917375D01*
X49272923Y36911334D01*
X49272923Y36911333D01*
X49273032Y36910840D01*
X49273541Y36906178D01*
X49273660Y36905185D01*
X49273650Y36905184D01*
X49276000Y36883654D01*
X49276000Y1334320D01*
X49273650Y1312790D01*
X49273660Y1312789D01*
X49273541Y1311796D01*
X49273032Y1307134D01*
X49271588Y1300599D01*
X49271458Y1294418D01*
X49271457Y1294414D01*
X49269730Y1212581D01*
X49269278Y1204258D01*
X49266460Y1172050D01*
X49265026Y1161154D01*
X49259268Y1128495D01*
X49241642Y1028537D01*
X49239262Y1017805D01*
X49234162Y998772D01*
X49230858Y988291D01*
X49184799Y861744D01*
X49180607Y851623D01*
X49172256Y833715D01*
X49172255Y833712D01*
X49167182Y823968D01*
X49099864Y707371D01*
X49093959Y698102D01*
X49082644Y681942D01*
X49075957Y673226D01*
X49031308Y620015D01*
X48989399Y570070D01*
X48981972Y561966D01*
X48968036Y548030D01*
X48959932Y540603D01*
X48856774Y454044D01*
X48848059Y447357D01*
X48831899Y436041D01*
X48822636Y430140D01*
X48706027Y362816D01*
X48696287Y357745D01*
X48678380Y349394D01*
X48668256Y345201D01*
X48554628Y303844D01*
X48541709Y299142D01*
X48531228Y295838D01*
X48512195Y290738D01*
X48501469Y288359D01*
X48368846Y264974D01*
X48357950Y263540D01*
X48325742Y260722D01*
X48317428Y260270D01*
X48279640Y259473D01*
X48235590Y258543D01*
X48235586Y258543D01*
X48229402Y258412D01*
X48223360Y257077D01*
X48222862Y256967D01*
X48218156Y256453D01*
X48217210Y256340D01*
X48217209Y256350D01*
X48195678Y254000D01*
X1334320Y254000D01*
X1312790Y256350D01*
X1312789Y256340D01*
X1311796Y256459D01*
X1307134Y256968D01*
X1306641Y257077D01*
X1306640Y257077D01*
X1300599Y258412D01*
X1294418Y258542D01*
X1294414Y258543D01*
X1247313Y259537D01*
X1212572Y260271D01*
X1204258Y260722D01*
X1172050Y263540D01*
X1161154Y264974D01*
X1028531Y288359D01*
X1017805Y290738D01*
X998772Y295838D01*
X988291Y299142D01*
X975372Y303844D01*
X861744Y345201D01*
X851623Y349393D01*
X833707Y357747D01*
X823968Y362818D01*
X707371Y430136D01*
X698102Y436041D01*
X681942Y447356D01*
X673220Y454048D01*
X570070Y540601D01*
X561966Y548028D01*
X548030Y561964D01*
X540603Y570068D01*
X454044Y673226D01*
X447355Y681943D01*
X436038Y698105D01*
X430140Y707364D01*
X362816Y823973D01*
X357744Y833715D01*
X356876Y835575D01*
X349394Y851620D01*
X345201Y861744D01*
X299142Y988291D01*
X295838Y998772D01*
X290738Y1017805D01*
X288358Y1028537D01*
X270733Y1128495D01*
X264974Y1161154D01*
X263540Y1172050D01*
X260722Y1204258D01*
X260270Y1212581D01*
X258543Y1294410D01*
X258543Y1294414D01*
X258412Y1300598D01*
X256967Y1307138D01*
X256453Y1311844D01*
X256340Y1312790D01*
X256350Y1312791D01*
X254000Y1334322D01*
X254000Y3471648D01*
X1698414Y3471648D01*
X1698949Y3467130D01*
X1698949Y3467124D01*
X1716716Y3317014D01*
X1730048Y3204377D01*
X1799932Y2944472D01*
X1906603Y2697378D01*
X2047827Y2468271D01*
X2220644Y2261950D01*
X2421435Y2082737D01*
X2645993Y1934387D01*
X2650127Y1932446D01*
X2650129Y1932445D01*
X2662775Y1926508D01*
X2889615Y1820007D01*
X2893972Y1818687D01*
X2893973Y1818687D01*
X3142826Y1743317D01*
X3142833Y1743315D01*
X3147196Y1741994D01*
X3413341Y1701980D01*
X3417906Y1701960D01*
X3417907Y1701960D01*
X3544556Y1701408D01*
X3682474Y1700806D01*
X3707867Y1704397D01*
X3944442Y1737856D01*
X3944446Y1737857D01*
X3948958Y1738495D01*
X4207211Y1814258D01*
X4232444Y1825837D01*
X4447673Y1924604D01*
X4447679Y1924607D01*
X4451821Y1926508D01*
X4677665Y2072893D01*
X4880012Y2250346D01*
X5054624Y2455151D01*
X5057051Y2459013D01*
X5057055Y2459018D01*
X5195412Y2679153D01*
X5195413Y2679155D01*
X5197841Y2683018D01*
X5199683Y2687184D01*
X5199686Y2687190D01*
X5304820Y2924999D01*
X5304822Y2925004D01*
X5306664Y2929171D01*
X5378814Y3188456D01*
X5412779Y3455440D01*
X5413397Y3478256D01*
X5415415Y3552863D01*
X5415500Y3556000D01*
X5396023Y3824430D01*
X5383172Y3882638D01*
X5338986Y4082778D01*
X5338985Y4082782D01*
X5338001Y4087238D01*
X5273584Y4257262D01*
X5244266Y4334646D01*
X5244265Y4334649D01*
X5242648Y4338916D01*
X5222690Y4374848D01*
X9480977Y4374848D01*
X9489360Y4322800D01*
X9491934Y4312478D01*
X9562952Y4104461D01*
X9567219Y4094738D01*
X9672278Y3901646D01*
X9678124Y3892780D01*
X9814208Y3720158D01*
X9821472Y3712396D01*
X9984689Y3565177D01*
X9993166Y3558743D01*
X10178844Y3441135D01*
X10188289Y3436218D01*
X10391128Y3351577D01*
X10401267Y3348321D01*
X10541067Y3316175D01*
X10555144Y3317014D01*
X10558722Y3326272D01*
X10558722Y4375156D01*
X10554247Y4390395D01*
X10552857Y4391600D01*
X10545174Y4393271D01*
X9496125Y4393271D01*
X9482944Y4389401D01*
X9480977Y4374848D01*
X5222690Y4374848D01*
X5111963Y4574194D01*
X4993713Y4729139D01*
X4951455Y4784510D01*
X4951454Y4784511D01*
X4948683Y4788142D01*
X4884286Y4851095D01*
X4828267Y4905857D01*
X4814723Y4919097D01*
X9481730Y4919097D01*
X9483149Y4905857D01*
X9497784Y4901271D01*
X10540607Y4901271D01*
X10555846Y4905746D01*
X10557051Y4907136D01*
X10558722Y4914819D01*
X10558722Y5963554D01*
X10558050Y5965841D01*
X11066722Y5965841D01*
X11066722Y3327330D01*
X11070873Y3313192D01*
X11081520Y3311497D01*
X11084914Y3312175D01*
X11296055Y3373317D01*
X11305981Y3377128D01*
X11503787Y3472964D01*
X11512934Y3478395D01*
X11691763Y3606188D01*
X11699871Y3613089D01*
X11854615Y3769189D01*
X11861428Y3777338D01*
X11987662Y3957283D01*
X11993017Y3966484D01*
X12087121Y4165115D01*
X12090845Y4175073D01*
X12098125Y4201061D01*
X12135762Y4261260D01*
X12199970Y4291555D01*
X12270365Y4282328D01*
X12324595Y4236507D01*
X12336565Y4213557D01*
X12362819Y4147415D01*
X12362822Y4147409D01*
X12365031Y4141844D01*
X12368255Y4136794D01*
X12368256Y4136791D01*
X12397160Y4091508D01*
X12478424Y3964195D01*
X12623364Y3811192D01*
X12628229Y3807702D01*
X12628232Y3807700D01*
X12728021Y3736127D01*
X12794621Y3688358D01*
X12811079Y3680771D01*
X12957893Y3613089D01*
X12986016Y3600124D01*
X12991832Y3598690D01*
X12991835Y3598689D01*
X13086288Y3575402D01*
X13190643Y3549673D01*
X13196633Y3549364D01*
X13196635Y3549364D01*
X13270579Y3545554D01*
X13401118Y3538827D01*
X13407053Y3539656D01*
X13407057Y3539656D01*
X13589803Y3565177D01*
X13609846Y3567976D01*
X13774218Y3624093D01*
X13803618Y3634130D01*
X13803620Y3634131D01*
X13809297Y3636069D01*
X13942842Y3712396D01*
X13987066Y3737672D01*
X13987069Y3737674D01*
X13992274Y3740649D01*
X13996823Y3744555D01*
X13996826Y3744557D01*
X14147622Y3874034D01*
X14147624Y3874036D01*
X14152173Y3877942D01*
X14170995Y3901646D01*
X14224674Y3969251D01*
X14283227Y4042994D01*
X14334795Y4141844D01*
X14377932Y4224532D01*
X14377933Y4224535D01*
X14380706Y4229850D01*
X14441092Y4431768D01*
X14452472Y4544786D01*
X14787965Y4544786D01*
X14827276Y4337730D01*
X14905031Y4141844D01*
X14908255Y4136794D01*
X14908256Y4136791D01*
X14937160Y4091508D01*
X15018424Y3964195D01*
X15163364Y3811192D01*
X15168229Y3807702D01*
X15168232Y3807700D01*
X15268021Y3736127D01*
X15334621Y3688358D01*
X15351079Y3680771D01*
X15497893Y3613089D01*
X15526016Y3600124D01*
X15531832Y3598690D01*
X15531835Y3598689D01*
X15626288Y3575402D01*
X15730643Y3549673D01*
X15736633Y3549364D01*
X15736635Y3549364D01*
X15810579Y3545554D01*
X15941118Y3538827D01*
X15947053Y3539656D01*
X15947057Y3539656D01*
X16129803Y3565177D01*
X16149846Y3567976D01*
X16314218Y3624093D01*
X16343618Y3634130D01*
X16343620Y3634131D01*
X16349297Y3636069D01*
X16482842Y3712396D01*
X16527066Y3737672D01*
X16527069Y3737674D01*
X16532274Y3740649D01*
X16536823Y3744555D01*
X16536826Y3744557D01*
X16687622Y3874034D01*
X16687624Y3874036D01*
X16692173Y3877942D01*
X16710995Y3901646D01*
X16764674Y3969251D01*
X16823227Y4042994D01*
X16874795Y4141844D01*
X16917932Y4224532D01*
X16917933Y4224535D01*
X16920706Y4229850D01*
X16981092Y4431768D01*
X17002207Y4641462D01*
X17002222Y4647271D01*
X16982205Y4857072D01*
X16980516Y4862830D01*
X16956189Y4945754D01*
X16956207Y5016751D01*
X16987999Y5070318D01*
X17288749Y5371068D01*
X17351061Y5405094D01*
X17421876Y5400029D01*
X17478712Y5357482D01*
X17503523Y5290962D01*
X17488432Y5221588D01*
X17483696Y5213625D01*
X17447691Y5157863D01*
X17445448Y5152297D01*
X17390822Y5016751D01*
X17368912Y4962386D01*
X17357851Y4905746D01*
X17334175Y4784510D01*
X17328517Y4755539D01*
X17328501Y4749553D01*
X17328501Y4749550D01*
X17328241Y4650345D01*
X17327965Y4544786D01*
X17367276Y4337730D01*
X17445031Y4141844D01*
X17448255Y4136794D01*
X17448256Y4136791D01*
X17477160Y4091508D01*
X17558424Y3964195D01*
X17703364Y3811192D01*
X17708229Y3807702D01*
X17708232Y3807700D01*
X17808021Y3736127D01*
X17874621Y3688358D01*
X17891079Y3680771D01*
X18037893Y3613089D01*
X18066016Y3600124D01*
X18071832Y3598690D01*
X18071835Y3598689D01*
X18166288Y3575402D01*
X18270643Y3549673D01*
X18276633Y3549364D01*
X18276635Y3549364D01*
X18350579Y3545554D01*
X18481118Y3538827D01*
X18487053Y3539656D01*
X18487057Y3539656D01*
X18669803Y3565177D01*
X18689846Y3567976D01*
X18854218Y3624093D01*
X18883618Y3634130D01*
X18883620Y3634131D01*
X18889297Y3636069D01*
X19022842Y3712396D01*
X19067066Y3737672D01*
X19067069Y3737674D01*
X19072274Y3740649D01*
X19076823Y3744555D01*
X19076826Y3744557D01*
X19227622Y3874034D01*
X19227624Y3874036D01*
X19232173Y3877942D01*
X19250995Y3901646D01*
X19304674Y3969251D01*
X19363227Y4042994D01*
X19414795Y4141844D01*
X19457932Y4224532D01*
X19457933Y4224535D01*
X19460706Y4229850D01*
X19521092Y4431768D01*
X19532472Y4544786D01*
X19867965Y4544786D01*
X19907276Y4337730D01*
X19985031Y4141844D01*
X19988255Y4136794D01*
X19988256Y4136791D01*
X20017160Y4091508D01*
X20098424Y3964195D01*
X20243364Y3811192D01*
X20248229Y3807702D01*
X20248232Y3807700D01*
X20348021Y3736127D01*
X20414621Y3688358D01*
X20431079Y3680771D01*
X20577893Y3613089D01*
X20606016Y3600124D01*
X20611832Y3598690D01*
X20611835Y3598689D01*
X20706288Y3575402D01*
X20810643Y3549673D01*
X20816633Y3549364D01*
X20816635Y3549364D01*
X20890579Y3545554D01*
X21021118Y3538827D01*
X21027053Y3539656D01*
X21027057Y3539656D01*
X21209803Y3565177D01*
X21229846Y3567976D01*
X21394218Y3624093D01*
X21423618Y3634130D01*
X21423620Y3634131D01*
X21429297Y3636069D01*
X21562842Y3712396D01*
X21607066Y3737672D01*
X21607069Y3737674D01*
X21612274Y3740649D01*
X21616823Y3744555D01*
X21616826Y3744557D01*
X21767622Y3874034D01*
X21767624Y3874036D01*
X21772173Y3877942D01*
X21790995Y3901646D01*
X21844674Y3969251D01*
X21903227Y4042994D01*
X21954795Y4141844D01*
X21997932Y4224532D01*
X21997933Y4224535D01*
X22000706Y4229850D01*
X22061092Y4431768D01*
X22082207Y4641462D01*
X22082222Y4647271D01*
X22062205Y4857072D01*
X22002877Y5059304D01*
X22000133Y5064632D01*
X21909124Y5241337D01*
X21909122Y5241340D01*
X21906378Y5246668D01*
X21843610Y5326576D01*
X21779897Y5407687D01*
X21779893Y5407692D01*
X21776191Y5412404D01*
X21678390Y5497271D01*
X22403222Y5497271D01*
X22403222Y3797271D01*
X22422975Y3697965D01*
X22479228Y3613777D01*
X22563416Y3557524D01*
X22662722Y3537771D01*
X24362722Y3537771D01*
X24462028Y3557524D01*
X24546216Y3613777D01*
X24602469Y3697965D01*
X24622222Y3797271D01*
X24622222Y4644438D01*
X42637121Y4644438D01*
X42664023Y4422135D01*
X42729866Y4208110D01*
X42732436Y4203130D01*
X42732438Y4203126D01*
X42812343Y4048313D01*
X42832569Y4009126D01*
X42968886Y3831475D01*
X42973031Y3827704D01*
X42973034Y3827700D01*
X43079784Y3730565D01*
X43134507Y3680771D01*
X43139263Y3677788D01*
X43139265Y3677786D01*
X43319443Y3564760D01*
X43319447Y3564758D01*
X43324199Y3561777D01*
X43531964Y3478256D01*
X43751237Y3432847D01*
X43755848Y3432581D01*
X43755849Y3432581D01*
X43807461Y3429605D01*
X43807465Y3429605D01*
X43809284Y3429500D01*
X44552023Y3429500D01*
X44554810Y3429749D01*
X44554816Y3429749D01*
X44627295Y3436218D01*
X44719038Y3444406D01*
X44935026Y3503493D01*
X44940084Y3505905D01*
X44940088Y3505907D01*
X45132079Y3597482D01*
X45137138Y3599895D01*
X45318983Y3730565D01*
X45458014Y3874034D01*
X45470907Y3887338D01*
X45470908Y3887340D01*
X45474815Y3891371D01*
X45554656Y4010187D01*
X45596577Y4072571D01*
X45596579Y4072574D01*
X45599708Y4077231D01*
X45689714Y4282271D01*
X45741989Y4500008D01*
X45746956Y4586155D01*
X45754556Y4717955D01*
X45754556Y4717958D01*
X45754879Y4723562D01*
X45727977Y4945865D01*
X45662134Y5159890D01*
X45634400Y5213625D01*
X45562002Y5353893D01*
X45562001Y5353894D01*
X45559431Y5358874D01*
X45423114Y5536525D01*
X45418969Y5540296D01*
X45418966Y5540300D01*
X45261646Y5683450D01*
X45257493Y5687229D01*
X45246953Y5693841D01*
X45072557Y5803240D01*
X45072553Y5803242D01*
X45067801Y5806223D01*
X44860036Y5889744D01*
X44640763Y5935153D01*
X44636152Y5935419D01*
X44636151Y5935419D01*
X44584539Y5938395D01*
X44584535Y5938395D01*
X44582716Y5938500D01*
X43839977Y5938500D01*
X43837190Y5938251D01*
X43837184Y5938251D01*
X43776345Y5932821D01*
X43672962Y5923594D01*
X43456974Y5864507D01*
X43451916Y5862095D01*
X43451912Y5862093D01*
X43263039Y5772005D01*
X43254862Y5768105D01*
X43073017Y5637435D01*
X42991714Y5553537D01*
X42937189Y5497271D01*
X42917185Y5476629D01*
X42914051Y5471965D01*
X42808292Y5314579D01*
X42792292Y5290769D01*
X42702286Y5085729D01*
X42650011Y4867992D01*
X42649037Y4851095D01*
X42637462Y4650345D01*
X42637121Y4644438D01*
X24622222Y4644438D01*
X24622222Y5497271D01*
X24602469Y5596577D01*
X24546216Y5680765D01*
X24462028Y5737018D01*
X24362722Y5756771D01*
X22662722Y5756771D01*
X22563416Y5737018D01*
X22479228Y5680765D01*
X22422975Y5596577D01*
X22403222Y5497271D01*
X21678390Y5497271D01*
X21617012Y5550532D01*
X21434586Y5656068D01*
X21428917Y5658037D01*
X21428914Y5658038D01*
X21241164Y5723236D01*
X21235494Y5725205D01*
X21229556Y5726066D01*
X21032861Y5754585D01*
X21032858Y5754585D01*
X21026921Y5755446D01*
X20816392Y5745702D01*
X20810568Y5744298D01*
X20810565Y5744298D01*
X20617337Y5697730D01*
X20617335Y5697729D01*
X20611504Y5696324D01*
X20606046Y5693842D01*
X20606042Y5693841D01*
X20522966Y5656068D01*
X20419650Y5609093D01*
X20247752Y5487157D01*
X20237674Y5476629D01*
X20120180Y5353893D01*
X20102013Y5334916D01*
X19987691Y5157863D01*
X19985448Y5152297D01*
X19930822Y5016751D01*
X19908912Y4962386D01*
X19897851Y4905746D01*
X19874175Y4784510D01*
X19868517Y4755539D01*
X19868501Y4749553D01*
X19868501Y4749550D01*
X19868241Y4650345D01*
X19867965Y4544786D01*
X19532472Y4544786D01*
X19542207Y4641462D01*
X19542222Y4647271D01*
X19522205Y4857072D01*
X19462877Y5059304D01*
X19460133Y5064632D01*
X19369124Y5241337D01*
X19369122Y5241340D01*
X19366378Y5246668D01*
X19303610Y5326576D01*
X19239897Y5407687D01*
X19239893Y5407692D01*
X19236191Y5412404D01*
X19077012Y5550532D01*
X18894586Y5656068D01*
X18888917Y5658037D01*
X18888914Y5658038D01*
X18701164Y5723236D01*
X18695494Y5725205D01*
X18689556Y5726066D01*
X18492861Y5754585D01*
X18492858Y5754585D01*
X18486921Y5755446D01*
X18276392Y5745702D01*
X18270568Y5744298D01*
X18270565Y5744298D01*
X18077337Y5697730D01*
X18077335Y5697729D01*
X18071504Y5696324D01*
X18066046Y5693842D01*
X18066042Y5693841D01*
X17885106Y5611574D01*
X17885104Y5611573D01*
X17879650Y5609093D01*
X17874762Y5605626D01*
X17871874Y5603965D01*
X17802850Y5587347D01*
X17735799Y5610685D01*
X17692009Y5666569D01*
X17685384Y5737256D01*
X17719970Y5802289D01*
X18047354Y6129673D01*
X18109666Y6163699D01*
X18136449Y6166578D01*
X20928489Y6166578D01*
X20939471Y6166098D01*
X20965549Y6163816D01*
X20965551Y6163816D01*
X20976536Y6162855D01*
X20992710Y6167189D01*
X21013588Y6172783D01*
X21024321Y6175163D01*
X21051235Y6179908D01*
X21051237Y6179909D01*
X21062094Y6181823D01*
X21071645Y6187337D01*
X21075142Y6188610D01*
X21078501Y6190176D01*
X21089151Y6193030D01*
X21098182Y6199354D01*
X21098185Y6199355D01*
X21120580Y6215036D01*
X21129850Y6220942D01*
X21153514Y6234604D01*
X21153516Y6234606D01*
X21163062Y6240117D01*
X21186984Y6268626D01*
X21194410Y6276729D01*
X22007016Y7089335D01*
X22069328Y7123361D01*
X22112556Y7125162D01*
X22161809Y7118678D01*
X22161812Y7118678D01*
X22170000Y7117600D01*
X22178188Y7118678D01*
X22317725Y7137048D01*
X22325913Y7138126D01*
X22471200Y7198306D01*
X22595961Y7294039D01*
X22691694Y7418800D01*
X22751874Y7564087D01*
X22755603Y7592408D01*
X22771322Y7711812D01*
X22772400Y7720000D01*
X22751874Y7875913D01*
X22691694Y8021200D01*
X22595961Y8145961D01*
X22471200Y8241694D01*
X22325913Y8301874D01*
X22170000Y8322400D01*
X22014087Y8301874D01*
X21868800Y8241694D01*
X21744039Y8145961D01*
X21648306Y8021200D01*
X21588126Y7875913D01*
X21567600Y7720000D01*
X21568678Y7711812D01*
X21568678Y7711809D01*
X21575162Y7662556D01*
X21564222Y7592408D01*
X21539335Y7557016D01*
X20847202Y6864883D01*
X20784890Y6830857D01*
X20758107Y6827978D01*
X17966067Y6827978D01*
X17955085Y6828458D01*
X17929007Y6830740D01*
X17929005Y6830740D01*
X17918020Y6831701D01*
X17905918Y6828458D01*
X17880968Y6821773D01*
X17870235Y6819393D01*
X17843321Y6814648D01*
X17843319Y6814647D01*
X17832462Y6812733D01*
X17822911Y6807219D01*
X17819414Y6805946D01*
X17816055Y6804380D01*
X17805405Y6801526D01*
X17796374Y6795202D01*
X17796371Y6795201D01*
X17773976Y6779520D01*
X17764706Y6773614D01*
X17741042Y6759952D01*
X17741040Y6759950D01*
X17731494Y6754439D01*
X17724408Y6745994D01*
X17707573Y6725931D01*
X17700146Y6717827D01*
X16602803Y5620484D01*
X16540491Y5586458D01*
X16469676Y5591523D01*
X16450613Y5600515D01*
X16444650Y5603965D01*
X16393755Y5633408D01*
X16359784Y5653061D01*
X16359783Y5653061D01*
X16354586Y5656068D01*
X16348917Y5658037D01*
X16348914Y5658038D01*
X16161164Y5723236D01*
X16155494Y5725205D01*
X16149556Y5726066D01*
X15952861Y5754585D01*
X15952858Y5754585D01*
X15946921Y5755446D01*
X15736392Y5745702D01*
X15730568Y5744298D01*
X15730565Y5744298D01*
X15537337Y5697730D01*
X15537335Y5697729D01*
X15531504Y5696324D01*
X15526046Y5693842D01*
X15526042Y5693841D01*
X15442966Y5656068D01*
X15339650Y5609093D01*
X15167752Y5487157D01*
X15157674Y5476629D01*
X15040180Y5353893D01*
X15022013Y5334916D01*
X14907691Y5157863D01*
X14905448Y5152297D01*
X14850822Y5016751D01*
X14828912Y4962386D01*
X14817851Y4905746D01*
X14794175Y4784510D01*
X14788517Y4755539D01*
X14788501Y4749553D01*
X14788501Y4749550D01*
X14788241Y4650345D01*
X14787965Y4544786D01*
X14452472Y4544786D01*
X14462207Y4641462D01*
X14462222Y4647271D01*
X14442205Y4857072D01*
X14382877Y5059304D01*
X14380133Y5064632D01*
X14289124Y5241337D01*
X14289122Y5241340D01*
X14286378Y5246668D01*
X14223610Y5326576D01*
X14159897Y5407687D01*
X14159893Y5407692D01*
X14156191Y5412404D01*
X13997012Y5550532D01*
X13814586Y5656068D01*
X13808917Y5658037D01*
X13808914Y5658038D01*
X13621164Y5723236D01*
X13615494Y5725205D01*
X13609556Y5726066D01*
X13412861Y5754585D01*
X13412858Y5754585D01*
X13406921Y5755446D01*
X13196392Y5745702D01*
X13190568Y5744298D01*
X13190565Y5744298D01*
X12997337Y5697730D01*
X12997335Y5697729D01*
X12991504Y5696324D01*
X12986046Y5693842D01*
X12986042Y5693841D01*
X12902966Y5656068D01*
X12799650Y5609093D01*
X12627752Y5487157D01*
X12617674Y5476629D01*
X12500180Y5353893D01*
X12482013Y5334916D01*
X12367691Y5157863D01*
X12337546Y5083063D01*
X12293534Y5027361D01*
X12226389Y5004294D01*
X12157432Y5021191D01*
X12108557Y5072685D01*
X12101965Y5089989D01*
X12101448Y5089807D01*
X12096142Y5104872D01*
X12005869Y5305273D01*
X12000689Y5314579D01*
X11877940Y5496905D01*
X11871279Y5505191D01*
X11719552Y5664241D01*
X11711595Y5671281D01*
X11535245Y5802489D01*
X11526208Y5808093D01*
X11330272Y5907712D01*
X11320421Y5911712D01*
X11110500Y5976893D01*
X11100118Y5979176D01*
X11084681Y5981222D01*
X11070514Y5979025D01*
X11066722Y5965841D01*
X10558050Y5965841D01*
X10554749Y5977085D01*
X10544142Y5978610D01*
X10426276Y5953880D01*
X10416080Y5950820D01*
X10211654Y5870089D01*
X10202118Y5865355D01*
X10014208Y5751329D01*
X10005618Y5745065D01*
X9839606Y5601007D01*
X9832186Y5593376D01*
X9692822Y5423411D01*
X9686797Y5414644D01*
X9578064Y5223627D01*
X9573599Y5213963D01*
X9498604Y5007355D01*
X9495833Y4997087D01*
X9481730Y4919097D01*
X4814723Y4919097D01*
X4756229Y4976279D01*
X4538631Y5134663D01*
X4439227Y5186962D01*
X4304489Y5257851D01*
X4304483Y5257854D01*
X4300449Y5259976D01*
X4145828Y5314579D01*
X4050985Y5348072D01*
X4050984Y5348072D01*
X4046672Y5349595D01*
X3919160Y5374727D01*
X3787088Y5400759D01*
X3787082Y5400760D01*
X3782616Y5401640D01*
X3778063Y5401867D01*
X3778060Y5401867D01*
X3518382Y5414794D01*
X3518376Y5414794D01*
X3513813Y5415021D01*
X3245894Y5389460D01*
X3241460Y5388375D01*
X3241454Y5388374D01*
X2988908Y5326576D01*
X2984470Y5325490D01*
X2735020Y5224452D01*
X2585296Y5136785D01*
X2506869Y5090864D01*
X2502768Y5088463D01*
X2401347Y5007355D01*
X2331163Y4951227D01*
X2292579Y4920371D01*
X2108857Y4723697D01*
X2055838Y4647271D01*
X1958053Y4506316D01*
X1958050Y4506310D01*
X1955450Y4502563D01*
X1835573Y4261599D01*
X1834152Y4257265D01*
X1834151Y4257262D01*
X1762371Y4038298D01*
X1751735Y4005854D01*
X1705694Y3740685D01*
X1701884Y3599895D01*
X1698597Y3478395D01*
X1698414Y3471648D01*
X254000Y3471648D01*
X254000Y12427577D01*
X2511385Y12427577D01*
X2519768Y12375529D01*
X2522342Y12365207D01*
X2593360Y12157190D01*
X2597627Y12147467D01*
X2702686Y11954375D01*
X2708532Y11945509D01*
X2844616Y11772887D01*
X2851880Y11765125D01*
X3015097Y11617906D01*
X3023574Y11611472D01*
X3196495Y11501944D01*
X3243341Y11448596D01*
X3253907Y11378390D01*
X3224840Y11313616D01*
X3165368Y11274840D01*
X3129074Y11269500D01*
X2993130Y11269500D01*
X2893824Y11249747D01*
X2809636Y11193494D01*
X2753383Y11109306D01*
X2733630Y11010000D01*
X2733630Y9310000D01*
X2753383Y9210694D01*
X2809636Y9126506D01*
X2893824Y9070253D01*
X2993130Y9050500D01*
X4693130Y9050500D01*
X4792436Y9070253D01*
X4876624Y9126506D01*
X4932877Y9210694D01*
X4952630Y9310000D01*
X4952630Y11010000D01*
X4932877Y11109306D01*
X4876624Y11193494D01*
X4792436Y11249747D01*
X4693130Y11269500D01*
X4554456Y11269500D01*
X4486335Y11289502D01*
X4439842Y11343158D01*
X4429738Y11413432D01*
X4459232Y11478012D01*
X4499518Y11508892D01*
X4534195Y11525693D01*
X4543342Y11531124D01*
X4722171Y11658917D01*
X4730279Y11665818D01*
X4885023Y11821918D01*
X4891836Y11830067D01*
X5018070Y12010012D01*
X5023425Y12019213D01*
X5117529Y12217844D01*
X5121253Y12227803D01*
X5179098Y12434282D01*
X5177560Y12442649D01*
X5165267Y12446000D01*
X2526533Y12446000D01*
X2513352Y12442130D01*
X2511385Y12427577D01*
X254000Y12427577D01*
X254000Y12700000D01*
X9303600Y12700000D01*
X9324126Y12544087D01*
X9384306Y12398800D01*
X9480039Y12274039D01*
X9512252Y12249321D01*
X9526005Y12238768D01*
X9567872Y12181429D01*
X9575300Y12138806D01*
X9575300Y7673194D01*
X9555298Y7605073D01*
X9526006Y7573233D01*
X9480039Y7537961D01*
X9384306Y7413200D01*
X9324126Y7267913D01*
X9303600Y7112000D01*
X9324126Y6956087D01*
X9384306Y6810800D01*
X9480039Y6686039D01*
X9604800Y6590306D01*
X9750087Y6530126D01*
X9906000Y6509600D01*
X9914188Y6510678D01*
X10053725Y6529048D01*
X10061913Y6530126D01*
X10207200Y6590306D01*
X10331961Y6686039D01*
X10427694Y6810800D01*
X10487874Y6956087D01*
X10508400Y7112000D01*
X10487874Y7267913D01*
X10427694Y7413200D01*
X10331961Y7537961D01*
X10285995Y7573233D01*
X10244128Y7630571D01*
X10236700Y7673194D01*
X10236700Y12138806D01*
X10256702Y12206927D01*
X10285995Y12238768D01*
X10299748Y12249321D01*
X10331961Y12274039D01*
X10427694Y12398800D01*
X10436475Y12420000D01*
X15417600Y12420000D01*
X15420391Y12398800D01*
X15435954Y12280589D01*
X15438126Y12264087D01*
X15498306Y12118800D01*
X15594039Y11994039D01*
X15718800Y11898306D01*
X15864087Y11838126D01*
X16020000Y11817600D01*
X16028188Y11818678D01*
X16167725Y11837048D01*
X16175913Y11838126D01*
X16321200Y11898306D01*
X16445961Y11994039D01*
X16450987Y12000589D01*
X16451996Y12001598D01*
X16514309Y12035621D01*
X16541089Y12038500D01*
X21009787Y12038500D01*
X21077908Y12018498D01*
X21098882Y12001595D01*
X24001595Y9098883D01*
X24035621Y9036571D01*
X24038500Y9009788D01*
X24038500Y8141089D01*
X24018498Y8072968D01*
X24001598Y8051996D01*
X24000589Y8050987D01*
X23994039Y8045961D01*
X23898306Y7921200D01*
X23838126Y7775913D01*
X23817600Y7620000D01*
X23838126Y7464087D01*
X23898306Y7318800D01*
X23994039Y7194039D01*
X24118800Y7098306D01*
X24264087Y7038126D01*
X24420000Y7017600D01*
X24428188Y7018678D01*
X24567725Y7037048D01*
X24575913Y7038126D01*
X24721200Y7098306D01*
X24845961Y7194039D01*
X24941694Y7318800D01*
X25001874Y7464087D01*
X25022400Y7620000D01*
X25001874Y7775913D01*
X24945138Y7912886D01*
X42409181Y7912886D01*
X42411233Y7895151D01*
X42413192Y7885256D01*
X42476516Y7661473D01*
X42480028Y7652029D01*
X42578317Y7441249D01*
X42583296Y7432484D01*
X42714014Y7240139D01*
X42720346Y7232264D01*
X42880123Y7063304D01*
X42887632Y7056543D01*
X43072375Y6915296D01*
X43080854Y6909832D01*
X43285809Y6799936D01*
X43295061Y6795894D01*
X43514947Y6720182D01*
X43524719Y6717673D01*
X43754963Y6677902D01*
X43762835Y6677047D01*
X43784474Y6676064D01*
X43787307Y6676000D01*
X43923885Y6676000D01*
X43939124Y6680475D01*
X43940329Y6681865D01*
X43942000Y6689548D01*
X43942000Y7911885D01*
X43940659Y7916452D01*
X44450000Y7916452D01*
X44450000Y6694115D01*
X44454475Y6678876D01*
X44455865Y6677671D01*
X44463548Y6676000D01*
X44555625Y6676000D01*
X44560657Y6676202D01*
X44732858Y6690057D01*
X44742811Y6691669D01*
X44968663Y6747144D01*
X44978233Y6750327D01*
X45192312Y6841198D01*
X45201251Y6845872D01*
X45398037Y6969794D01*
X45406118Y6975839D01*
X45580565Y7129635D01*
X45587576Y7136896D01*
X45735188Y7316600D01*
X45740941Y7324878D01*
X45857931Y7525886D01*
X45862286Y7534977D01*
X45945629Y7752093D01*
X45948477Y7761770D01*
X45979917Y7912264D01*
X45978794Y7926325D01*
X45968687Y7930000D01*
X44468115Y7930000D01*
X44452876Y7925525D01*
X44451671Y7924135D01*
X44450000Y7916452D01*
X43940659Y7916452D01*
X43937525Y7927124D01*
X43936135Y7928329D01*
X43928452Y7930000D01*
X42425316Y7930000D01*
X42411230Y7925864D01*
X42409181Y7912886D01*
X24945138Y7912886D01*
X24941694Y7921200D01*
X24845961Y8045961D01*
X24839411Y8050987D01*
X24838402Y8051996D01*
X24804379Y8114309D01*
X24801500Y8141089D01*
X24801500Y8455736D01*
X42412083Y8455736D01*
X42413206Y8441675D01*
X42423313Y8438000D01*
X43923885Y8438000D01*
X43939124Y8442475D01*
X43940329Y8443865D01*
X43942000Y8451548D01*
X43942000Y9673885D01*
X43940659Y9678452D01*
X44450000Y9678452D01*
X44450000Y8456115D01*
X44454475Y8440876D01*
X44455865Y8439671D01*
X44463548Y8438000D01*
X45966684Y8438000D01*
X45980770Y8442136D01*
X45982819Y8455114D01*
X45980767Y8472849D01*
X45978808Y8482744D01*
X45915484Y8706527D01*
X45911972Y8715971D01*
X45813683Y8926751D01*
X45808704Y8935516D01*
X45677986Y9127861D01*
X45671654Y9135736D01*
X45511877Y9304696D01*
X45504368Y9311457D01*
X45319625Y9452704D01*
X45311146Y9458168D01*
X45106191Y9568064D01*
X45096939Y9572106D01*
X44877053Y9647818D01*
X44867281Y9650327D01*
X44637037Y9690098D01*
X44629165Y9690953D01*
X44607526Y9691936D01*
X44604693Y9692000D01*
X44468115Y9692000D01*
X44452876Y9687525D01*
X44451671Y9686135D01*
X44450000Y9678452D01*
X43940659Y9678452D01*
X43937525Y9689124D01*
X43936135Y9690329D01*
X43928452Y9692000D01*
X43836375Y9692000D01*
X43831343Y9691798D01*
X43659142Y9677943D01*
X43649189Y9676331D01*
X43423337Y9620856D01*
X43413767Y9617673D01*
X43199688Y9526802D01*
X43190749Y9522128D01*
X42993963Y9398206D01*
X42985882Y9392161D01*
X42811435Y9238365D01*
X42804424Y9231104D01*
X42656812Y9051400D01*
X42651059Y9043122D01*
X42534069Y8842114D01*
X42529714Y8833023D01*
X42446371Y8615907D01*
X42443523Y8606230D01*
X42412083Y8455736D01*
X24801500Y8455736D01*
X24801500Y9167156D01*
X24803700Y9187834D01*
X24803878Y9191614D01*
X24806070Y9201794D01*
X24802373Y9233033D01*
X24801982Y9239665D01*
X24801928Y9239661D01*
X24801500Y9244837D01*
X24801500Y9250040D01*
X24798040Y9270828D01*
X24797207Y9276682D01*
X24792378Y9317487D01*
X24791154Y9327831D01*
X24787172Y9336124D01*
X24785662Y9345194D01*
X24761205Y9390523D01*
X24758512Y9395808D01*
X24736215Y9442240D01*
X24730584Y9448938D01*
X24728653Y9450869D01*
X24728630Y9450895D01*
X24725395Y9456889D01*
X24690665Y9488993D01*
X24687100Y9492422D01*
X22766637Y11412886D01*
X42409181Y11412886D01*
X42411233Y11395151D01*
X42413192Y11385256D01*
X42476516Y11161473D01*
X42480028Y11152029D01*
X42578317Y10941249D01*
X42583296Y10932484D01*
X42714014Y10740139D01*
X42720346Y10732264D01*
X42880123Y10563304D01*
X42887632Y10556543D01*
X43072375Y10415296D01*
X43080854Y10409832D01*
X43285809Y10299936D01*
X43295061Y10295894D01*
X43514947Y10220182D01*
X43524719Y10217673D01*
X43754963Y10177902D01*
X43762835Y10177047D01*
X43784474Y10176064D01*
X43787307Y10176000D01*
X43923885Y10176000D01*
X43939124Y10180475D01*
X43940329Y10181865D01*
X43942000Y10189548D01*
X43942000Y11411885D01*
X43940659Y11416452D01*
X44450000Y11416452D01*
X44450000Y10194115D01*
X44454475Y10178876D01*
X44455865Y10177671D01*
X44463548Y10176000D01*
X44555625Y10176000D01*
X44560657Y10176202D01*
X44732858Y10190057D01*
X44742811Y10191669D01*
X44968663Y10247144D01*
X44978233Y10250327D01*
X45192312Y10341198D01*
X45201251Y10345872D01*
X45398037Y10469794D01*
X45406118Y10475839D01*
X45580565Y10629635D01*
X45587576Y10636896D01*
X45735188Y10816600D01*
X45740941Y10824878D01*
X45857931Y11025886D01*
X45862286Y11034977D01*
X45945629Y11252093D01*
X45948477Y11261770D01*
X45979917Y11412264D01*
X45978794Y11426325D01*
X45968687Y11430000D01*
X44468115Y11430000D01*
X44452876Y11425525D01*
X44451671Y11424135D01*
X44450000Y11416452D01*
X43940659Y11416452D01*
X43937525Y11427124D01*
X43936135Y11428329D01*
X43928452Y11430000D01*
X42425316Y11430000D01*
X42411230Y11425864D01*
X42409181Y11412886D01*
X22766637Y11412886D01*
X21527130Y12652393D01*
X21514068Y12668566D01*
X21511515Y12671371D01*
X21505867Y12680119D01*
X21497692Y12686564D01*
X21497690Y12686566D01*
X21481161Y12699596D01*
X21476195Y12704009D01*
X21476160Y12703968D01*
X21472197Y12707326D01*
X21468520Y12711003D01*
X21451370Y12723258D01*
X21446647Y12726804D01*
X21445444Y12727753D01*
X21431983Y12738365D01*
X21414375Y12752247D01*
X21414373Y12752248D01*
X21406198Y12758693D01*
X21397520Y12761740D01*
X21390037Y12767088D01*
X21380059Y12770072D01*
X21380055Y12770074D01*
X21340694Y12781845D01*
X21335046Y12783680D01*
X21293933Y12798118D01*
X21293930Y12798119D01*
X21286451Y12800745D01*
X21277733Y12801500D01*
X21274992Y12801500D01*
X21274968Y12801501D01*
X21268441Y12803453D01*
X21221206Y12801597D01*
X21216259Y12801500D01*
X16541089Y12801500D01*
X16472968Y12821502D01*
X16451996Y12838402D01*
X16450987Y12839411D01*
X16445961Y12845961D01*
X16321200Y12941694D01*
X16175913Y13001874D01*
X16020000Y13022400D01*
X15864087Y13001874D01*
X15718800Y12941694D01*
X15594039Y12845961D01*
X15498306Y12721200D01*
X15438126Y12575913D01*
X15417600Y12420000D01*
X10436475Y12420000D01*
X10487874Y12544087D01*
X10508400Y12700000D01*
X10497513Y12782697D01*
X10488952Y12847725D01*
X10487874Y12855913D01*
X10427694Y13001200D01*
X10331961Y13125961D01*
X10207200Y13221694D01*
X10061913Y13281874D01*
X9906000Y13302400D01*
X9750087Y13281874D01*
X9604800Y13221694D01*
X9480039Y13125961D01*
X9384306Y13001200D01*
X9324126Y12855913D01*
X9323048Y12847725D01*
X9314487Y12782697D01*
X9303600Y12700000D01*
X254000Y12700000D01*
X254000Y12971826D01*
X2512138Y12971826D01*
X2513557Y12958586D01*
X2528192Y12954000D01*
X5162209Y12954000D01*
X5175740Y12957973D01*
X5177006Y12966782D01*
X5130084Y13147567D01*
X5126549Y13157605D01*
X5036277Y13358002D01*
X5031097Y13367308D01*
X4908348Y13549634D01*
X4901687Y13557920D01*
X4749960Y13716970D01*
X4742003Y13724010D01*
X4565653Y13855218D01*
X4556616Y13860822D01*
X4360680Y13960441D01*
X4350829Y13964441D01*
X4287793Y13984014D01*
X4228668Y14023317D01*
X4200177Y14088346D01*
X4211367Y14158456D01*
X4258684Y14211386D01*
X4284442Y14223587D01*
X4299705Y14228798D01*
X4412429Y14293225D01*
X4477474Y14330401D01*
X4477477Y14330403D01*
X4482682Y14333378D01*
X4487231Y14337284D01*
X4487234Y14337286D01*
X4638030Y14466763D01*
X4638032Y14466765D01*
X4642581Y14470671D01*
X4650505Y14480650D01*
X4731271Y14582369D01*
X4773635Y14635723D01*
X4776410Y14641042D01*
X4868340Y14817261D01*
X4868341Y14817264D01*
X4871114Y14822579D01*
X4931500Y15024497D01*
X4952615Y15234191D01*
X4952630Y15240000D01*
X4947502Y15293753D01*
X4935744Y15416984D01*
X4932613Y15449801D01*
X4873285Y15652033D01*
X4869238Y15659890D01*
X4779532Y15834066D01*
X4779530Y15834069D01*
X4776786Y15839397D01*
X4722365Y15908678D01*
X4650305Y16000416D01*
X4650301Y16000421D01*
X4646599Y16005133D01*
X4606073Y16040300D01*
X4531945Y16104624D01*
X4487420Y16143261D01*
X4324088Y16237751D01*
X4310192Y16245790D01*
X4310191Y16245790D01*
X4304994Y16248797D01*
X4299325Y16250766D01*
X4299322Y16250767D01*
X4111572Y16315965D01*
X4105902Y16317934D01*
X4099964Y16318795D01*
X3903269Y16347314D01*
X3903266Y16347314D01*
X3897329Y16348175D01*
X3686800Y16338431D01*
X3680976Y16337027D01*
X3680973Y16337027D01*
X3487745Y16290459D01*
X3487743Y16290458D01*
X3481912Y16289053D01*
X3476454Y16286571D01*
X3476450Y16286570D01*
X3393374Y16248797D01*
X3290058Y16201822D01*
X3228158Y16157913D01*
X3124015Y16084039D01*
X3118160Y16079886D01*
X2972421Y15927645D01*
X2858099Y15750592D01*
X2855856Y15745026D01*
X2787753Y15576039D01*
X2779320Y15555115D01*
X2760739Y15459969D01*
X2748950Y15399600D01*
X2738925Y15348268D01*
X2738373Y15137515D01*
X2739491Y15131628D01*
X2765585Y14994188D01*
X2777684Y14930459D01*
X2855439Y14734573D01*
X2858663Y14729523D01*
X2858664Y14729520D01*
X2876210Y14702032D01*
X2968832Y14556924D01*
X3113772Y14403921D01*
X3118637Y14400431D01*
X3118640Y14400429D01*
X3220040Y14327700D01*
X3285029Y14281087D01*
X3290474Y14278577D01*
X3416160Y14220635D01*
X3469649Y14173951D01*
X3489408Y14105759D01*
X3469163Y14037710D01*
X3409690Y13989017D01*
X3242062Y13922818D01*
X3232526Y13918084D01*
X3044616Y13804058D01*
X3036026Y13797794D01*
X2870014Y13653736D01*
X2862594Y13646105D01*
X2723230Y13476140D01*
X2717205Y13467373D01*
X2608472Y13276356D01*
X2604007Y13266692D01*
X2529012Y13060084D01*
X2526241Y13049816D01*
X2512138Y12971826D01*
X254000Y12971826D01*
X254000Y16510000D01*
X9557600Y16510000D01*
X9578126Y16354087D01*
X9581286Y16346458D01*
X9585948Y16335202D01*
X9638306Y16208800D01*
X9734039Y16084039D01*
X9858800Y15988306D01*
X10004087Y15928126D01*
X10160000Y15907600D01*
X10168188Y15908678D01*
X10307725Y15927048D01*
X10315913Y15928126D01*
X10461200Y15988306D01*
X10585961Y16084039D01*
X10681694Y16208800D01*
X10734052Y16335202D01*
X10738714Y16346458D01*
X10741874Y16354087D01*
X10762400Y16510000D01*
X10752353Y16586315D01*
X10763292Y16656462D01*
X10774062Y16675031D01*
X10774536Y16675707D01*
X10774537Y16675710D01*
X10780859Y16684738D01*
X10783713Y16695388D01*
X10785279Y16698747D01*
X10786552Y16702244D01*
X10792066Y16711795D01*
X10795559Y16731603D01*
X10798726Y16749568D01*
X10801106Y16760301D01*
X10808181Y16786704D01*
X10808181Y16786707D01*
X10811034Y16797353D01*
X10807790Y16834433D01*
X10807311Y16845414D01*
X10807311Y17757491D01*
X10827313Y17825612D01*
X10880969Y17872105D01*
X10951243Y17882209D01*
X11010015Y17857453D01*
X11037601Y17836286D01*
X11128800Y17766306D01*
X11274087Y17706126D01*
X11430000Y17685600D01*
X11438188Y17686678D01*
X11577725Y17705048D01*
X11585913Y17706126D01*
X11731200Y17766306D01*
X11855961Y17862039D01*
X11951694Y17986800D01*
X12011874Y18132087D01*
X12032400Y18288000D01*
X12011874Y18443913D01*
X11951694Y18589200D01*
X11855961Y18713961D01*
X11731200Y18809694D01*
X11585913Y18869874D01*
X11430000Y18890400D01*
X11421812Y18889322D01*
X11421809Y18889322D01*
X11372556Y18882838D01*
X11302408Y18893778D01*
X11267016Y18918665D01*
X11227004Y18958677D01*
X11192978Y19020989D01*
X11190099Y19047772D01*
X11190099Y25220228D01*
X11210101Y25288349D01*
X11227004Y25309323D01*
X12098122Y26180441D01*
X13007016Y27089336D01*
X13069328Y27123361D01*
X13112555Y27125163D01*
X13170000Y27117600D01*
X13178188Y27118678D01*
X13317725Y27137048D01*
X13325913Y27138126D01*
X13471200Y27198306D01*
X13595961Y27294039D01*
X13691694Y27418800D01*
X13738928Y27532832D01*
X13783477Y27588113D01*
X13850840Y27610534D01*
X13919631Y27592976D01*
X13944432Y27573709D01*
X15048882Y26469259D01*
X15082908Y26406947D01*
X15077843Y26336132D01*
X15035296Y26279296D01*
X14968776Y26254485D01*
X14943341Y26255242D01*
X14930678Y26256909D01*
X14922490Y26257987D01*
X14766577Y26237461D01*
X14621290Y26177281D01*
X14496529Y26081548D01*
X14400796Y25956787D01*
X14340616Y25811500D01*
X14320090Y25655587D01*
X14321168Y25647399D01*
X14321168Y25647396D01*
X14327652Y25598143D01*
X14316712Y25527995D01*
X14291825Y25492603D01*
X14127950Y25328728D01*
X14119847Y25321302D01*
X14091338Y25297380D01*
X14085827Y25287834D01*
X14085825Y25287832D01*
X14072163Y25264168D01*
X14066257Y25254898D01*
X14050576Y25232503D01*
X14050575Y25232500D01*
X14044251Y25223469D01*
X14041397Y25212819D01*
X14039831Y25209460D01*
X14038558Y25205963D01*
X14033044Y25196412D01*
X14031130Y25185555D01*
X14031129Y25185553D01*
X14026384Y25158639D01*
X14024004Y25147906D01*
X14021922Y25140135D01*
X14014076Y25110854D01*
X14015037Y25099869D01*
X14015037Y25099867D01*
X14017319Y25073789D01*
X14017799Y25062807D01*
X14017799Y22624052D01*
X14017319Y22613070D01*
X14014076Y22576005D01*
X14016931Y22565351D01*
X14024004Y22538953D01*
X14026384Y22528220D01*
X14029965Y22507913D01*
X14033044Y22490447D01*
X14038558Y22480896D01*
X14039831Y22477399D01*
X14041397Y22474040D01*
X14044251Y22463390D01*
X14050575Y22454359D01*
X14050576Y22454356D01*
X14066257Y22431961D01*
X14072163Y22422691D01*
X14085825Y22399027D01*
X14085827Y22399025D01*
X14091338Y22389479D01*
X14099783Y22382393D01*
X14119840Y22365563D01*
X14127944Y22358137D01*
X14822603Y21663479D01*
X14856628Y21601166D01*
X14859508Y21574383D01*
X14859508Y20964363D01*
X14839506Y20896242D01*
X14785850Y20849749D01*
X14715576Y20839645D01*
X14650996Y20869139D01*
X14644413Y20875268D01*
X14437789Y21081892D01*
X14437786Y21081894D01*
X13330664Y22189016D01*
X13296638Y22251328D01*
X13294837Y22294555D01*
X13302400Y22352000D01*
X13281874Y22507913D01*
X13221694Y22653200D01*
X13125961Y22777961D01*
X13001200Y22873694D01*
X12855913Y22933874D01*
X12700000Y22954400D01*
X12544087Y22933874D01*
X12398800Y22873694D01*
X12274039Y22777961D01*
X12178306Y22653200D01*
X12118126Y22507913D01*
X12097600Y22352000D01*
X12098678Y22343813D01*
X12098678Y22343812D01*
X12110854Y22251328D01*
X12118126Y22196087D01*
X12178306Y22050800D01*
X12274039Y21926039D01*
X12398800Y21830306D01*
X12544087Y21770126D01*
X12700000Y21749600D01*
X12757444Y21757163D01*
X12827591Y21746224D01*
X12862984Y21721336D01*
X13970106Y20614214D01*
X13970108Y20614211D01*
X14182612Y20401707D01*
X14216638Y20339395D01*
X14211573Y20268580D01*
X14191109Y20236770D01*
X14192937Y20235367D01*
X14097204Y20110606D01*
X14037024Y19965319D01*
X14016498Y19809406D01*
X14037024Y19653493D01*
X14097204Y19508206D01*
X14192937Y19383445D01*
X14317698Y19287712D01*
X14462985Y19227532D01*
X14618898Y19207006D01*
X14627086Y19208084D01*
X14627087Y19208084D01*
X14766854Y19226484D01*
X14837003Y19215544D01*
X14890101Y19168416D01*
X14909300Y19101562D01*
X14909300Y17486733D01*
X14889298Y17418612D01*
X14835642Y17372119D01*
X14766854Y17361811D01*
X14732000Y17366400D01*
X14576087Y17345874D01*
X14430800Y17285694D01*
X14306039Y17189961D01*
X14210306Y17065200D01*
X14150126Y16919913D01*
X14149048Y16911725D01*
X14145273Y16883047D01*
X14129600Y16764000D01*
X14150126Y16608087D01*
X14210306Y16462800D01*
X14306039Y16338039D01*
X14430800Y16242306D01*
X14576087Y16182126D01*
X14732000Y16161600D01*
X14740188Y16162678D01*
X14772532Y16166936D01*
X14887913Y16182126D01*
X15033200Y16242306D01*
X15157961Y16338039D01*
X15191340Y16381539D01*
X15248675Y16423404D01*
X15319546Y16427626D01*
X15381449Y16392862D01*
X15414730Y16330150D01*
X15417300Y16304833D01*
X15417300Y15547194D01*
X15397298Y15479073D01*
X15368006Y15447233D01*
X15322039Y15411961D01*
X15226306Y15287200D01*
X15166126Y15141913D01*
X15145600Y14986000D01*
X15166126Y14830087D01*
X15226306Y14684800D01*
X15322039Y14560039D01*
X15446800Y14464306D01*
X15573202Y14411948D01*
X15584234Y14407379D01*
X15592087Y14404126D01*
X15748000Y14383600D01*
X15756188Y14384678D01*
X15807028Y14391371D01*
X15903913Y14404126D01*
X15911767Y14407379D01*
X15922798Y14411948D01*
X16049200Y14464306D01*
X16084979Y14491760D01*
X16151198Y14517362D01*
X16220747Y14503098D01*
X16271543Y14453498D01*
X16287460Y14384308D01*
X16278092Y14343582D01*
X16263787Y14309046D01*
X16263786Y14309042D01*
X16260626Y14301413D01*
X16240100Y14145500D01*
X16260626Y13989587D01*
X16320806Y13844300D01*
X16416539Y13719539D01*
X16541300Y13623806D01*
X16686587Y13563626D01*
X16842500Y13543100D01*
X16850688Y13544178D01*
X16990225Y13562548D01*
X16998413Y13563626D01*
X17143700Y13623806D01*
X17268461Y13719539D01*
X17364194Y13844300D01*
X17424374Y13989587D01*
X17444900Y14145500D01*
X17424374Y14301413D01*
X17364194Y14446700D01*
X17350685Y14464306D01*
X17311228Y14515726D01*
X17285627Y14581946D01*
X17285190Y14592430D01*
X17285190Y16002000D01*
X17939600Y16002000D01*
X17960126Y15846087D01*
X18020306Y15700800D01*
X18116039Y15576039D01*
X18240800Y15480306D01*
X18386087Y15420126D01*
X18542000Y15399600D01*
X18550188Y15400678D01*
X18586140Y15405411D01*
X18697913Y15420126D01*
X18843200Y15480306D01*
X18967961Y15576039D01*
X18972987Y15582589D01*
X18973996Y15583598D01*
X19036309Y15617621D01*
X19063089Y15620500D01*
X22141787Y15620500D01*
X22209908Y15600498D01*
X22230882Y15583595D01*
X23060870Y14753607D01*
X23073932Y14737434D01*
X23076485Y14734629D01*
X23082133Y14725881D01*
X23090308Y14719436D01*
X23090310Y14719434D01*
X23106839Y14706404D01*
X23111805Y14701991D01*
X23111840Y14702032D01*
X23115803Y14698674D01*
X23119480Y14694997D01*
X23136630Y14682742D01*
X23141343Y14679203D01*
X23142867Y14678002D01*
X23173625Y14653753D01*
X23173627Y14653752D01*
X23181802Y14647307D01*
X23190480Y14644260D01*
X23197963Y14638912D01*
X23207941Y14635928D01*
X23207945Y14635926D01*
X23247306Y14624155D01*
X23252954Y14622320D01*
X23294067Y14607882D01*
X23294070Y14607881D01*
X23301549Y14605255D01*
X23310267Y14604500D01*
X23313008Y14604500D01*
X23313032Y14604499D01*
X23319559Y14602547D01*
X23366795Y14604403D01*
X23371741Y14604500D01*
X25894911Y14604500D01*
X25963032Y14584498D01*
X25984004Y14567598D01*
X25985013Y14566589D01*
X25990039Y14560039D01*
X26114800Y14464306D01*
X26241202Y14411948D01*
X26252234Y14407379D01*
X26260087Y14404126D01*
X26416000Y14383600D01*
X26424188Y14384678D01*
X26563727Y14403048D01*
X26563729Y14403049D01*
X26571913Y14404126D01*
X26579538Y14407284D01*
X26579891Y14407379D01*
X26650868Y14405688D01*
X26709663Y14365893D01*
X26737609Y14300628D01*
X26738500Y14285672D01*
X26738500Y14130213D01*
X26718498Y14062092D01*
X26701595Y14041118D01*
X26628997Y13968520D01*
X26628995Y13968517D01*
X25598882Y12938405D01*
X25536570Y12904379D01*
X25509787Y12901500D01*
X25241089Y12901500D01*
X25172968Y12921502D01*
X25151996Y12938402D01*
X25150987Y12939411D01*
X25145961Y12945961D01*
X25021200Y13041694D01*
X24875913Y13101874D01*
X24720000Y13122400D01*
X24564087Y13101874D01*
X24418800Y13041694D01*
X24294039Y12945961D01*
X24198306Y12821200D01*
X24138126Y12675913D01*
X24117600Y12520000D01*
X24138126Y12364087D01*
X24141286Y12356458D01*
X24145948Y12345202D01*
X24198306Y12218800D01*
X24294039Y12094039D01*
X24418800Y11998306D01*
X24564087Y11938126D01*
X24720000Y11917600D01*
X24728188Y11918678D01*
X24867725Y11937048D01*
X24875913Y11938126D01*
X25021200Y11998306D01*
X25145961Y12094039D01*
X25150987Y12100589D01*
X25151996Y12101598D01*
X25214309Y12135621D01*
X25241089Y12138500D01*
X25667155Y12138500D01*
X25687828Y12136300D01*
X25691613Y12136122D01*
X25701793Y12133930D01*
X25733032Y12137627D01*
X25739663Y12138018D01*
X25739659Y12138072D01*
X25744835Y12138500D01*
X25750040Y12138500D01*
X25770792Y12141954D01*
X25776670Y12142791D01*
X25817490Y12147622D01*
X25817491Y12147622D01*
X25827830Y12148846D01*
X25836123Y12152828D01*
X25845194Y12154338D01*
X25854355Y12159281D01*
X25854358Y12159282D01*
X25890526Y12178798D01*
X25895779Y12181475D01*
X25942239Y12203785D01*
X25948938Y12209415D01*
X25950874Y12211351D01*
X25950896Y12211371D01*
X25956889Y12214605D01*
X25988981Y12249322D01*
X25992410Y12252887D01*
X27352393Y13612870D01*
X27368566Y13625932D01*
X27371371Y13628485D01*
X27380119Y13634133D01*
X27386564Y13642308D01*
X27386566Y13642310D01*
X27399596Y13658839D01*
X27404010Y13663806D01*
X27403969Y13663841D01*
X27407328Y13667805D01*
X27411003Y13671480D01*
X27423242Y13688606D01*
X27426805Y13693352D01*
X27452246Y13725623D01*
X27452248Y13725626D01*
X27458693Y13733802D01*
X27461741Y13742482D01*
X27467088Y13749964D01*
X27481845Y13799308D01*
X27483680Y13804956D01*
X27498119Y13846070D01*
X27498120Y13846074D01*
X27500745Y13853549D01*
X27501500Y13862267D01*
X27501500Y13865008D01*
X27501501Y13865033D01*
X27503453Y13871559D01*
X27501597Y13918795D01*
X27501500Y13923741D01*
X27501500Y15667156D01*
X27503700Y15687829D01*
X27503878Y15691614D01*
X27506070Y15701794D01*
X27502373Y15733034D01*
X27501982Y15739664D01*
X27501928Y15739660D01*
X27501500Y15744837D01*
X27501500Y15750040D01*
X27498043Y15770810D01*
X27497209Y15776671D01*
X27492378Y15817490D01*
X27492378Y15817491D01*
X27491154Y15827830D01*
X27487172Y15836123D01*
X27485662Y15845194D01*
X27461209Y15890514D01*
X27458514Y15895803D01*
X27439648Y15935091D01*
X27436215Y15942240D01*
X27430584Y15948938D01*
X27428649Y15950873D01*
X27428630Y15950894D01*
X27425395Y15956889D01*
X27390665Y15988993D01*
X27387100Y15992422D01*
X27274898Y16104624D01*
X27240872Y16166936D01*
X27245937Y16237751D01*
X27287289Y16293681D01*
X27299695Y16303200D01*
X27366001Y16354079D01*
X27461734Y16478840D01*
X27521914Y16624127D01*
X27524168Y16641248D01*
X27552891Y16706175D01*
X27612156Y16745266D01*
X27649090Y16750801D01*
X27733626Y16750801D01*
X27801747Y16730799D01*
X27848240Y16677143D01*
X27858548Y16608356D01*
X27851882Y16557719D01*
X27845600Y16510000D01*
X27866126Y16354087D01*
X27869286Y16346458D01*
X27873948Y16335202D01*
X27926306Y16208800D01*
X28022039Y16084039D01*
X28028589Y16079013D01*
X28029598Y16078004D01*
X28063621Y16015691D01*
X28066500Y15988911D01*
X28066500Y12713089D01*
X28046498Y12644968D01*
X28029598Y12623996D01*
X28028589Y12622987D01*
X28022039Y12617961D01*
X27926306Y12493200D01*
X27892594Y12411812D01*
X27872826Y12364087D01*
X27866126Y12347913D01*
X27845600Y12192000D01*
X27866126Y12036087D01*
X27926306Y11890800D01*
X28022039Y11766039D01*
X28146800Y11670306D01*
X28292087Y11610126D01*
X28448000Y11589600D01*
X28456188Y11590678D01*
X28595725Y11609048D01*
X28603913Y11610126D01*
X28749200Y11670306D01*
X28873961Y11766039D01*
X28969694Y11890800D01*
X28996591Y11955736D01*
X42412083Y11955736D01*
X42413206Y11941675D01*
X42423313Y11938000D01*
X43923885Y11938000D01*
X43939124Y11942475D01*
X43940329Y11943865D01*
X43942000Y11951548D01*
X43942000Y13173885D01*
X43940659Y13178452D01*
X44450000Y13178452D01*
X44450000Y11956115D01*
X44454475Y11940876D01*
X44455865Y11939671D01*
X44463548Y11938000D01*
X45966684Y11938000D01*
X45980770Y11942136D01*
X45982819Y11955114D01*
X45980767Y11972849D01*
X45978808Y11982744D01*
X45915484Y12206527D01*
X45911972Y12215971D01*
X45813683Y12426751D01*
X45808704Y12435516D01*
X45677986Y12627861D01*
X45671654Y12635736D01*
X45511877Y12804696D01*
X45504368Y12811457D01*
X45319625Y12952704D01*
X45311146Y12958168D01*
X45106191Y13068064D01*
X45096939Y13072106D01*
X44877053Y13147818D01*
X44867281Y13150327D01*
X44637037Y13190098D01*
X44629165Y13190953D01*
X44607526Y13191936D01*
X44604693Y13192000D01*
X44468115Y13192000D01*
X44452876Y13187525D01*
X44451671Y13186135D01*
X44450000Y13178452D01*
X43940659Y13178452D01*
X43937525Y13189124D01*
X43936135Y13190329D01*
X43928452Y13192000D01*
X43836375Y13192000D01*
X43831343Y13191798D01*
X43659142Y13177943D01*
X43649189Y13176331D01*
X43423337Y13120856D01*
X43413767Y13117673D01*
X43199688Y13026802D01*
X43190749Y13022128D01*
X42993963Y12898206D01*
X42985882Y12892161D01*
X42811435Y12738365D01*
X42804424Y12731104D01*
X42656812Y12551400D01*
X42651059Y12543122D01*
X42534069Y12342114D01*
X42529714Y12333023D01*
X42446371Y12115907D01*
X42443523Y12106230D01*
X42412083Y11955736D01*
X28996591Y11955736D01*
X29029874Y12036087D01*
X29050400Y12192000D01*
X29029874Y12347913D01*
X29023175Y12364087D01*
X29003406Y12411812D01*
X28969694Y12493200D01*
X28873961Y12617961D01*
X28867411Y12622987D01*
X28866402Y12623996D01*
X28832379Y12686309D01*
X28829500Y12713089D01*
X28829500Y15144438D01*
X42637121Y15144438D01*
X42664023Y14922135D01*
X42729866Y14708110D01*
X42732436Y14703130D01*
X42732438Y14703126D01*
X42808885Y14555013D01*
X42832569Y14509126D01*
X42968886Y14331475D01*
X42973031Y14327704D01*
X42973034Y14327700D01*
X43078453Y14231776D01*
X43134507Y14180771D01*
X43139263Y14177788D01*
X43139265Y14177786D01*
X43319443Y14064760D01*
X43319447Y14064758D01*
X43324199Y14061777D01*
X43531964Y13978256D01*
X43751237Y13932847D01*
X43755848Y13932581D01*
X43755849Y13932581D01*
X43807461Y13929605D01*
X43807465Y13929605D01*
X43809284Y13929500D01*
X44552023Y13929500D01*
X44554810Y13929749D01*
X44554816Y13929749D01*
X44615655Y13935179D01*
X44719038Y13944406D01*
X44935026Y14003493D01*
X44940084Y14005905D01*
X44940088Y14005907D01*
X45132079Y14097482D01*
X45137138Y14099895D01*
X45318983Y14230565D01*
X45450125Y14365893D01*
X45470907Y14387338D01*
X45470908Y14387340D01*
X45474815Y14391371D01*
X45523825Y14464306D01*
X45596577Y14572571D01*
X45596579Y14572574D01*
X45599708Y14577231D01*
X45689714Y14782271D01*
X45741989Y15000008D01*
X45754879Y15223562D01*
X45727977Y15445865D01*
X45662134Y15659890D01*
X45657283Y15669290D01*
X45562002Y15853893D01*
X45562001Y15853894D01*
X45559431Y15858874D01*
X45423114Y16036525D01*
X45418969Y16040296D01*
X45418966Y16040300D01*
X45261646Y16183450D01*
X45257493Y16187229D01*
X45234230Y16201822D01*
X45072557Y16303240D01*
X45072553Y16303242D01*
X45067801Y16306223D01*
X44860036Y16389744D01*
X44640763Y16435153D01*
X44636152Y16435419D01*
X44636151Y16435419D01*
X44584539Y16438395D01*
X44584535Y16438395D01*
X44582716Y16438500D01*
X43839977Y16438500D01*
X43837190Y16438251D01*
X43837184Y16438251D01*
X43781713Y16433300D01*
X43672962Y16423594D01*
X43456974Y16364507D01*
X43451916Y16362095D01*
X43451912Y16362093D01*
X43293575Y16286570D01*
X43254862Y16268105D01*
X43073017Y16137435D01*
X43069115Y16133408D01*
X42925439Y15985146D01*
X42917185Y15976629D01*
X42914051Y15971965D01*
X42810248Y15817490D01*
X42792292Y15790769D01*
X42702286Y15585729D01*
X42698258Y15568952D01*
X42657600Y15399600D01*
X42650011Y15367992D01*
X42637121Y15144438D01*
X28829500Y15144438D01*
X28829500Y15988911D01*
X28849502Y16057032D01*
X28866402Y16078004D01*
X28867411Y16079013D01*
X28873961Y16084039D01*
X28969694Y16208800D01*
X29022052Y16335202D01*
X29026714Y16346458D01*
X29029874Y16354087D01*
X29050400Y16510000D01*
X29044118Y16557719D01*
X29037452Y16608356D01*
X29048392Y16678504D01*
X29095520Y16731603D01*
X29162374Y16750801D01*
X33070839Y16750801D01*
X33138960Y16730799D01*
X33185453Y16677143D01*
X33195760Y16641248D01*
X33200126Y16608087D01*
X33260306Y16462800D01*
X33356039Y16338039D01*
X33480800Y16242306D01*
X33626087Y16182126D01*
X33782000Y16161600D01*
X33790188Y16162678D01*
X33822532Y16166936D01*
X33937913Y16182126D01*
X34083200Y16242306D01*
X34207961Y16338039D01*
X34303694Y16462800D01*
X34363874Y16608087D01*
X34384400Y16764000D01*
X34368727Y16883047D01*
X34364952Y16911725D01*
X34363874Y16919913D01*
X34303694Y17065200D01*
X34207961Y17189961D01*
X34083200Y17285694D01*
X33937913Y17345874D01*
X33782000Y17366400D01*
X33776438Y17365668D01*
X33709495Y17385324D01*
X33700170Y17393186D01*
X33699566Y17392420D01*
X33674860Y17411897D01*
X33669894Y17416310D01*
X33669859Y17416269D01*
X33665896Y17419627D01*
X33662219Y17423304D01*
X33645069Y17435559D01*
X33640346Y17439105D01*
X33639710Y17439607D01*
X33624055Y17451949D01*
X33608074Y17464548D01*
X33608072Y17464549D01*
X33599897Y17470994D01*
X33591219Y17474041D01*
X33583736Y17479389D01*
X33573758Y17482373D01*
X33573754Y17482375D01*
X33534393Y17494146D01*
X33528745Y17495981D01*
X33487632Y17510419D01*
X33487629Y17510420D01*
X33480150Y17513046D01*
X33471432Y17513801D01*
X33468691Y17513801D01*
X33468667Y17513802D01*
X33462140Y17515754D01*
X33414905Y17513898D01*
X33409958Y17513801D01*
X27345145Y17513801D01*
X27324472Y17516001D01*
X27320687Y17516179D01*
X27310507Y17518371D01*
X27279267Y17514674D01*
X27272637Y17514283D01*
X27272641Y17514229D01*
X27267464Y17513801D01*
X27262261Y17513801D01*
X27241491Y17510344D01*
X27235630Y17509510D01*
X27194811Y17504679D01*
X27194810Y17504679D01*
X27184471Y17503455D01*
X27176178Y17499473D01*
X27167107Y17497963D01*
X27146294Y17486733D01*
X27121787Y17473510D01*
X27116498Y17470815D01*
X27070061Y17448516D01*
X27063363Y17442885D01*
X27061428Y17440950D01*
X27061407Y17440931D01*
X27055412Y17437696D01*
X27048343Y17430048D01*
X27048337Y17430044D01*
X27040746Y17421832D01*
X26979818Y17385387D01*
X26948226Y17381362D01*
X26940040Y17382440D01*
X26931852Y17381362D01*
X26810014Y17365322D01*
X26784127Y17361914D01*
X26638840Y17301734D01*
X26514079Y17206001D01*
X26513575Y17205344D01*
X26454283Y17172967D01*
X26383468Y17178032D01*
X26326632Y17220579D01*
X26301821Y17287099D01*
X26301500Y17296088D01*
X26301500Y18415000D01*
X28226600Y18415000D01*
X28247126Y18259087D01*
X28307306Y18113800D01*
X28403039Y17989039D01*
X28527800Y17893306D01*
X28673087Y17833126D01*
X28829000Y17812600D01*
X28837188Y17813678D01*
X28976725Y17832048D01*
X28984913Y17833126D01*
X29130200Y17893306D01*
X29254961Y17989039D01*
X29350694Y18113800D01*
X29410874Y18259087D01*
X29411259Y18262011D01*
X29446933Y18320535D01*
X29510794Y18351556D01*
X29531686Y18353300D01*
X42515500Y18353300D01*
X42583621Y18333298D01*
X42630114Y18279642D01*
X42641500Y18227300D01*
X42641500Y17899086D01*
X42646136Y17866712D01*
X42653886Y17812600D01*
X42656979Y17791000D01*
X42660696Y17782824D01*
X42660697Y17782822D01*
X42672215Y17757491D01*
X42716771Y17659496D01*
X42811067Y17550059D01*
X42932289Y17471487D01*
X42997620Y17451949D01*
X43064150Y17432052D01*
X43064152Y17432052D01*
X43070691Y17430096D01*
X43078712Y17429500D01*
X45280914Y17429500D01*
X45323403Y17435585D01*
X45380107Y17443705D01*
X45380110Y17443706D01*
X45389000Y17444979D01*
X45397176Y17448696D01*
X45397178Y17448697D01*
X45447606Y17471626D01*
X45520504Y17504771D01*
X45629941Y17599067D01*
X45708513Y17720289D01*
X45741936Y17832048D01*
X45747948Y17852150D01*
X45747948Y17852152D01*
X45749904Y17858691D01*
X45750500Y17866712D01*
X45750500Y19468914D01*
X45742578Y19524231D01*
X45736295Y19568107D01*
X45736294Y19568110D01*
X45735021Y19577000D01*
X45716016Y19618800D01*
X45696518Y19661681D01*
X45675229Y19708504D01*
X45580933Y19817941D01*
X45459711Y19896513D01*
X45353797Y19928188D01*
X45327850Y19935948D01*
X45327848Y19935948D01*
X45321309Y19937904D01*
X45313288Y19938500D01*
X43111086Y19938500D01*
X43068597Y19932415D01*
X43011893Y19924295D01*
X43011890Y19924294D01*
X43003000Y19923021D01*
X42994824Y19919304D01*
X42994822Y19919303D01*
X42978347Y19911812D01*
X42871496Y19863229D01*
X42762059Y19768933D01*
X42683487Y19647711D01*
X42656658Y19558000D01*
X42646559Y19524231D01*
X42642096Y19509309D01*
X42641500Y19501288D01*
X42641500Y19140700D01*
X42621498Y19072579D01*
X42567842Y19026086D01*
X42515500Y19014700D01*
X29116792Y19014700D01*
X29105810Y19015179D01*
X29098963Y19015778D01*
X29068742Y19018422D01*
X29058093Y19015569D01*
X29053639Y19015179D01*
X29042657Y19014700D01*
X28857767Y19014700D01*
X28841322Y19015778D01*
X28837190Y19016322D01*
X28837188Y19016322D01*
X28829000Y19017400D01*
X28673087Y18996874D01*
X28527800Y18936694D01*
X28403039Y18840961D01*
X28307306Y18716200D01*
X28247126Y18570913D01*
X28226600Y18415000D01*
X26301500Y18415000D01*
X26301500Y19109787D01*
X26321502Y19177908D01*
X26338405Y19198882D01*
X26625467Y19485944D01*
X26687779Y19519970D01*
X26758594Y19514905D01*
X26793058Y19492761D01*
X26794039Y19494039D01*
X26918800Y19398306D01*
X27064087Y19338126D01*
X27220000Y19317600D01*
X27228188Y19318678D01*
X27367725Y19337048D01*
X27375913Y19338126D01*
X27521200Y19398306D01*
X27645961Y19494039D01*
X27741694Y19618800D01*
X27801874Y19764087D01*
X27822400Y19920000D01*
X27801874Y20075913D01*
X27741694Y20221200D01*
X27645961Y20345961D01*
X27521200Y20441694D01*
X27375913Y20501874D01*
X27220000Y20522400D01*
X27211812Y20521322D01*
X27072280Y20502953D01*
X27072277Y20502952D01*
X27064087Y20501874D01*
X27056453Y20498712D01*
X27051845Y20497477D01*
X26980868Y20499167D01*
X26922072Y20538961D01*
X26894124Y20604225D01*
X26905897Y20674239D01*
X26930138Y20708279D01*
X27109399Y20887540D01*
X27171711Y20921566D01*
X27242526Y20916501D01*
X27275198Y20898407D01*
X27279180Y20895352D01*
X27384800Y20814306D01*
X27530087Y20754126D01*
X27686000Y20733600D01*
X27694188Y20734678D01*
X27833725Y20753048D01*
X27841913Y20754126D01*
X27987200Y20814306D01*
X28111961Y20910039D01*
X28207694Y21034800D01*
X28267874Y21180087D01*
X28288400Y21336000D01*
X28267874Y21491913D01*
X28207694Y21637200D01*
X28111961Y21761961D01*
X27987200Y21857694D01*
X27841913Y21917874D01*
X27686000Y21938400D01*
X27530087Y21917874D01*
X27384800Y21857694D01*
X27260039Y21761961D01*
X27228866Y21721336D01*
X27224768Y21715995D01*
X27167429Y21674128D01*
X27124806Y21666700D01*
X27108967Y21666700D01*
X27097985Y21667180D01*
X27071907Y21669462D01*
X27071905Y21669462D01*
X27060920Y21670423D01*
X27050270Y21667569D01*
X27050268Y21667569D01*
X27023874Y21660496D01*
X27013140Y21658116D01*
X26986222Y21653370D01*
X26986221Y21653370D01*
X26975362Y21651455D01*
X26965810Y21645940D01*
X26962322Y21644670D01*
X26958956Y21643101D01*
X26948305Y21640247D01*
X26939277Y21633926D01*
X26939273Y21633924D01*
X26916879Y21618244D01*
X26907612Y21612341D01*
X26883943Y21598676D01*
X26883936Y21598670D01*
X26874394Y21593161D01*
X26850473Y21564653D01*
X26843046Y21556549D01*
X25127950Y19841453D01*
X25119847Y19834027D01*
X25091338Y19810105D01*
X25085827Y19800559D01*
X25085825Y19800557D01*
X25072163Y19776893D01*
X25066257Y19767623D01*
X25050576Y19745228D01*
X25050575Y19745225D01*
X25044251Y19736194D01*
X25041397Y19725544D01*
X25039831Y19722185D01*
X25038558Y19718688D01*
X25033044Y19709137D01*
X25031130Y19698280D01*
X25031129Y19698278D01*
X25026384Y19671364D01*
X25024004Y19660631D01*
X25018410Y19639753D01*
X25014076Y19623579D01*
X25016679Y19593834D01*
X25002692Y19524231D01*
X24980254Y19493757D01*
X22618102Y17131605D01*
X22555790Y17097579D01*
X22529007Y17094700D01*
X21643194Y17094700D01*
X21575073Y17114702D01*
X21543232Y17143995D01*
X21507961Y17189961D01*
X21383200Y17285694D01*
X21237913Y17345874D01*
X21082000Y17366400D01*
X20926087Y17345874D01*
X20918458Y17342714D01*
X20830081Y17306107D01*
X20759491Y17298518D01*
X20696004Y17330297D01*
X20659777Y17391355D01*
X20656941Y17438960D01*
X20668400Y17526000D01*
X20667322Y17534188D01*
X20667322Y17535609D01*
X20687324Y17603730D01*
X20704227Y17624704D01*
X20983296Y17903773D01*
X21045608Y17937799D01*
X21072391Y17940678D01*
X21073812Y17940678D01*
X21082000Y17939600D01*
X21090188Y17940678D01*
X21126140Y17945411D01*
X21237913Y17960126D01*
X21383200Y18020306D01*
X21507961Y18116039D01*
X21603694Y18240800D01*
X21663874Y18386087D01*
X21684400Y18542000D01*
X21663874Y18697913D01*
X21603694Y18843200D01*
X21507961Y18967961D01*
X21383200Y19063694D01*
X21237913Y19123874D01*
X21082000Y19144400D01*
X20926087Y19123874D01*
X20780800Y19063694D01*
X20656039Y18967961D01*
X20560306Y18843200D01*
X20500126Y18697913D01*
X20479600Y18542000D01*
X20480678Y18533812D01*
X20480678Y18532391D01*
X20460676Y18464270D01*
X20443773Y18443296D01*
X20164704Y18164227D01*
X20102392Y18130201D01*
X20075609Y18127322D01*
X20074188Y18127322D01*
X20066000Y18128400D01*
X19910087Y18107874D01*
X19764800Y18047694D01*
X19640039Y17951961D01*
X19544306Y17827200D01*
X19484126Y17681913D01*
X19463600Y17526000D01*
X19484126Y17370087D01*
X19544306Y17224800D01*
X19640039Y17100039D01*
X19764800Y17004306D01*
X19910087Y16944126D01*
X20066000Y16923600D01*
X20074188Y16924678D01*
X20098412Y16927867D01*
X20221913Y16944126D01*
X20317919Y16983893D01*
X20388509Y16991482D01*
X20451996Y16959703D01*
X20488223Y16898645D01*
X20491059Y16851040D01*
X20479600Y16764000D01*
X20500126Y16608087D01*
X20503286Y16600459D01*
X20503287Y16600454D01*
X20520989Y16557719D01*
X20528579Y16487129D01*
X20496800Y16423642D01*
X20435743Y16387414D01*
X20404581Y16383500D01*
X19063089Y16383500D01*
X18994968Y16403502D01*
X18973996Y16420402D01*
X18972987Y16421411D01*
X18967961Y16427961D01*
X18843200Y16523694D01*
X18697913Y16583874D01*
X18542000Y16604400D01*
X18386087Y16583874D01*
X18240800Y16523694D01*
X18116039Y16427961D01*
X18020306Y16303200D01*
X17960126Y16157913D01*
X17939600Y16002000D01*
X17285190Y16002000D01*
X17285190Y18843628D01*
X17305192Y18911749D01*
X17358848Y18958242D01*
X17427635Y18968550D01*
X17526000Y18955600D01*
X17534188Y18956678D01*
X17549373Y18958677D01*
X17681913Y18976126D01*
X17827200Y19036306D01*
X17951961Y19132039D01*
X18047694Y19256800D01*
X18107874Y19402087D01*
X18128400Y19558000D01*
X18107874Y19713913D01*
X18104555Y19721927D01*
X18090251Y19756458D01*
X18047694Y19859200D01*
X17951961Y19983961D01*
X17905995Y20019233D01*
X17864128Y20076571D01*
X17856700Y20119194D01*
X17856700Y24872087D01*
X17857179Y24883068D01*
X17859462Y24909169D01*
X17860423Y24920148D01*
X17857570Y24930794D01*
X17857570Y24930797D01*
X17850495Y24957200D01*
X17848115Y24967933D01*
X17843370Y24994847D01*
X17843369Y24994849D01*
X17841455Y25005706D01*
X17835941Y25015257D01*
X17834668Y25018754D01*
X17833102Y25022113D01*
X17830248Y25032763D01*
X17823924Y25041794D01*
X17823923Y25041797D01*
X17808242Y25064192D01*
X17802336Y25073462D01*
X17788674Y25097126D01*
X17788672Y25097128D01*
X17783161Y25106674D01*
X17754652Y25130596D01*
X17752627Y25132452D01*
X42229000Y25132452D01*
X42229000Y24202257D01*
X42229161Y24197750D01*
X42233740Y24133731D01*
X42236126Y24120509D01*
X42272819Y23995542D01*
X42280233Y23979308D01*
X42349426Y23871640D01*
X42361112Y23858153D01*
X42457840Y23774338D01*
X42472848Y23764693D01*
X42589275Y23711523D01*
X42606388Y23706498D01*
X42737554Y23687639D01*
X42746495Y23687000D01*
X43669885Y23687000D01*
X43685124Y23691475D01*
X43686329Y23692865D01*
X43688000Y23700548D01*
X43688000Y25127885D01*
X43686659Y25132452D01*
X44196000Y25132452D01*
X44196000Y23705115D01*
X44200475Y23689876D01*
X44201865Y23688671D01*
X44209548Y23687000D01*
X45139743Y23687000D01*
X45144250Y23687161D01*
X45208269Y23691740D01*
X45221491Y23694126D01*
X45346458Y23730819D01*
X45362692Y23738233D01*
X45470360Y23807426D01*
X45483847Y23819112D01*
X45567662Y23915840D01*
X45577307Y23930848D01*
X45630477Y24047275D01*
X45635502Y24064388D01*
X45654361Y24195554D01*
X45655000Y24204497D01*
X45655000Y25127885D01*
X45650525Y25143124D01*
X45649135Y25144329D01*
X45641452Y25146000D01*
X44214115Y25146000D01*
X44198876Y25141525D01*
X44197671Y25140135D01*
X44196000Y25132452D01*
X43686659Y25132452D01*
X43683525Y25143124D01*
X43682135Y25144329D01*
X43674452Y25146000D01*
X42247115Y25146000D01*
X42231876Y25141525D01*
X42230671Y25140135D01*
X42229000Y25132452D01*
X17752627Y25132452D01*
X17746549Y25138022D01*
X16289066Y26595505D01*
X42229000Y26595505D01*
X42229000Y25672115D01*
X42233475Y25656876D01*
X42234865Y25655671D01*
X42242548Y25654000D01*
X43669885Y25654000D01*
X43685124Y25658475D01*
X43686329Y25659865D01*
X43688000Y25667548D01*
X43688000Y27094885D01*
X43686659Y27099452D01*
X44196000Y27099452D01*
X44196000Y25672115D01*
X44200475Y25656876D01*
X44201865Y25655671D01*
X44209548Y25654000D01*
X45636885Y25654000D01*
X45652124Y25658475D01*
X45653329Y25659865D01*
X45655000Y25667548D01*
X45655000Y26597743D01*
X45654839Y26602250D01*
X45650260Y26666269D01*
X45647874Y26679491D01*
X45611181Y26804458D01*
X45603767Y26820692D01*
X45534574Y26928360D01*
X45522888Y26941847D01*
X45426160Y27025662D01*
X45411152Y27035307D01*
X45294725Y27088477D01*
X45277612Y27093502D01*
X45146446Y27112361D01*
X45137505Y27113000D01*
X44214115Y27113000D01*
X44198876Y27108525D01*
X44197671Y27107135D01*
X44196000Y27099452D01*
X43686659Y27099452D01*
X43683525Y27110124D01*
X43682135Y27111329D01*
X43674452Y27113000D01*
X42744257Y27113000D01*
X42739750Y27112839D01*
X42675731Y27108260D01*
X42662509Y27105874D01*
X42537542Y27069181D01*
X42521308Y27061767D01*
X42413640Y26992574D01*
X42400153Y26980888D01*
X42316338Y26884160D01*
X42306693Y26869152D01*
X42253523Y26752725D01*
X42248498Y26735612D01*
X42229639Y26604446D01*
X42229000Y26595505D01*
X16289066Y26595505D01*
X14413917Y28470654D01*
X14379891Y28532966D01*
X14377012Y28559749D01*
X14377011Y28935659D01*
X42482936Y28935659D01*
X42483233Y28930507D01*
X42483233Y28930503D01*
X42484992Y28900000D01*
X42496704Y28696877D01*
X42497839Y28691840D01*
X42497840Y28691834D01*
X42539368Y28507559D01*
X42549286Y28463550D01*
X42551230Y28458764D01*
X42551231Y28458759D01*
X42590228Y28362722D01*
X42639271Y28241944D01*
X42764241Y28038011D01*
X42920841Y27857227D01*
X42924810Y27853932D01*
X42924813Y27853929D01*
X43050426Y27749644D01*
X43104865Y27704448D01*
X43311371Y27583775D01*
X43534812Y27498451D01*
X43539878Y27497420D01*
X43539879Y27497420D01*
X43644417Y27476152D01*
X43769189Y27450767D01*
X43909402Y27445625D01*
X44003044Y27442191D01*
X44003048Y27442191D01*
X44008207Y27442002D01*
X44013328Y27442658D01*
X44240327Y27471738D01*
X44240328Y27471738D01*
X44245447Y27472394D01*
X44474538Y27541124D01*
X44596664Y27600953D01*
X44684676Y27644069D01*
X44684681Y27644072D01*
X44689327Y27646348D01*
X44693537Y27649351D01*
X44693542Y27649354D01*
X44879833Y27782235D01*
X44879837Y27782239D01*
X44884045Y27785240D01*
X45053465Y27954069D01*
X45193036Y28148302D01*
X45299009Y28362722D01*
X45368538Y28591571D01*
X45399758Y28828704D01*
X45399840Y28832054D01*
X45401418Y28896635D01*
X45401418Y28896639D01*
X45401500Y28900000D01*
X45384911Y29101776D01*
X45382326Y29133223D01*
X45382325Y29133229D01*
X45381902Y29138374D01*
X45323635Y29370347D01*
X45228262Y29589688D01*
X45098347Y29790507D01*
X44937377Y29967411D01*
X44843526Y30041530D01*
X44753730Y30112447D01*
X44753726Y30112449D01*
X44749675Y30115649D01*
X44710259Y30137408D01*
X44656134Y30167286D01*
X44540283Y30231239D01*
X44535414Y30232963D01*
X44535410Y30232965D01*
X44319698Y30309353D01*
X44319694Y30309354D01*
X44314823Y30311079D01*
X44309730Y30311986D01*
X44309727Y30311987D01*
X44084440Y30352117D01*
X44084434Y30352118D01*
X44079351Y30353023D01*
X43988230Y30354136D01*
X43845359Y30355882D01*
X43845357Y30355882D01*
X43840190Y30355945D01*
X43603764Y30319766D01*
X43376421Y30245459D01*
X43371833Y30243071D01*
X43371829Y30243069D01*
X43208467Y30158028D01*
X43164267Y30135019D01*
X43160134Y30131916D01*
X43160131Y30131914D01*
X43134204Y30112447D01*
X42973000Y29991411D01*
X42807755Y29818493D01*
X42672972Y29620908D01*
X42634156Y29537287D01*
X42582248Y29425460D01*
X42572269Y29403963D01*
X42508352Y29173483D01*
X42482936Y28935659D01*
X14377011Y28935659D01*
X14377011Y29101776D01*
X14377490Y29112757D01*
X14379773Y29138858D01*
X14380734Y29149837D01*
X14377881Y29160483D01*
X14377881Y29160486D01*
X14370806Y29186889D01*
X14368426Y29197622D01*
X14363681Y29224536D01*
X14363680Y29224538D01*
X14361766Y29235395D01*
X14356252Y29244946D01*
X14354979Y29248443D01*
X14353413Y29251802D01*
X14350559Y29262452D01*
X14344235Y29271483D01*
X14344234Y29271486D01*
X14328553Y29293881D01*
X14322647Y29303151D01*
X14308985Y29326815D01*
X14308983Y29326817D01*
X14303472Y29336363D01*
X14274963Y29360285D01*
X14266860Y29367711D01*
X13766994Y29867577D01*
X13732968Y29929889D01*
X13730089Y29956672D01*
X13730089Y30252785D01*
X13750091Y30320906D01*
X13803747Y30367399D01*
X13856089Y30378785D01*
X15329162Y30378785D01*
X15428468Y30398538D01*
X15512656Y30454791D01*
X15568909Y30538979D01*
X15588662Y30638285D01*
X15588662Y32338285D01*
X15568909Y32437591D01*
X15512656Y32521779D01*
X15428468Y32578032D01*
X15329162Y32597785D01*
X13856089Y32597785D01*
X13787968Y32617787D01*
X13741475Y32671443D01*
X13730089Y32723785D01*
X13730089Y32748927D01*
X13750091Y32817048D01*
X13803747Y32863541D01*
X13872536Y32873849D01*
X13920000Y32867600D01*
X13928188Y32868678D01*
X13967467Y32873849D01*
X14075913Y32888126D01*
X14221200Y32948306D01*
X14345961Y33044039D01*
X14441694Y33168800D01*
X14501874Y33314087D01*
X14522400Y33470000D01*
X14501874Y33625913D01*
X14462902Y33720000D01*
X15317600Y33720000D01*
X15338126Y33564087D01*
X15398306Y33418800D01*
X15494039Y33294039D01*
X15618800Y33198306D01*
X15764087Y33138126D01*
X15920000Y33117600D01*
X15928188Y33118678D01*
X16067725Y33137048D01*
X16075913Y33138126D01*
X16221200Y33198306D01*
X16345961Y33294039D01*
X16381233Y33340005D01*
X16438571Y33381872D01*
X16481194Y33389300D01*
X18013997Y33389300D01*
X18024979Y33388820D01*
X18051057Y33386538D01*
X18051059Y33386538D01*
X18062044Y33385577D01*
X18078218Y33389911D01*
X18099096Y33395505D01*
X18109829Y33397885D01*
X18136743Y33402630D01*
X18136745Y33402631D01*
X18147602Y33404545D01*
X18157153Y33410059D01*
X18160650Y33411332D01*
X18164009Y33412898D01*
X18174659Y33415752D01*
X18183690Y33422076D01*
X18183693Y33422077D01*
X18206088Y33437758D01*
X18215358Y33443664D01*
X18239022Y33457326D01*
X18239024Y33457328D01*
X18248570Y33462839D01*
X18272492Y33491348D01*
X18279918Y33499451D01*
X18949012Y34168545D01*
X19011324Y34202571D01*
X19082139Y34197506D01*
X19090858Y34193876D01*
X19145806Y34168545D01*
X19156734Y34163507D01*
X19162550Y34162073D01*
X19162553Y34162072D01*
X19254466Y34139411D01*
X19361361Y34113056D01*
X19367351Y34112747D01*
X19367353Y34112747D01*
X19441297Y34108937D01*
X19571836Y34102210D01*
X19577771Y34103039D01*
X19577775Y34103039D01*
X19760521Y34128560D01*
X19780564Y34131359D01*
X19959292Y34192377D01*
X19974336Y34197513D01*
X19974338Y34197514D01*
X19980015Y34199452D01*
X20113560Y34275779D01*
X20157784Y34301055D01*
X20157787Y34301057D01*
X20162992Y34304032D01*
X20167541Y34307938D01*
X20167544Y34307940D01*
X20318340Y34437417D01*
X20318342Y34437419D01*
X20322891Y34441325D01*
X20341058Y34464204D01*
X20450216Y34601681D01*
X20453945Y34606377D01*
X20502877Y34700174D01*
X20548650Y34787915D01*
X20548651Y34787918D01*
X20551424Y34793233D01*
X20611810Y34995151D01*
X20632925Y35204845D01*
X20632940Y35210654D01*
X20612923Y35420455D01*
X20553595Y35622687D01*
X20506037Y35715027D01*
X20459842Y35804720D01*
X20459840Y35804723D01*
X20457096Y35810051D01*
X20403751Y35877962D01*
X20330615Y35971070D01*
X20330611Y35971075D01*
X20326909Y35975787D01*
X20229108Y36060654D01*
X20953940Y36060654D01*
X20953940Y34360654D01*
X20973693Y34261348D01*
X20980588Y34251029D01*
X21018272Y34194632D01*
X21029946Y34177160D01*
X21114134Y34120907D01*
X21213440Y34101154D01*
X22913440Y34101154D01*
X23012746Y34120907D01*
X23096934Y34177160D01*
X23108609Y34194632D01*
X23146292Y34251029D01*
X23153187Y34261348D01*
X23172940Y34360654D01*
X23172940Y34459648D01*
X43862414Y34459648D01*
X43862949Y34455130D01*
X43862949Y34455124D01*
X43880370Y34307940D01*
X43894048Y34192377D01*
X43963932Y33932472D01*
X44070603Y33685378D01*
X44211827Y33456271D01*
X44384644Y33249950D01*
X44585435Y33070737D01*
X44809993Y32922387D01*
X44814127Y32920446D01*
X44814129Y32920445D01*
X45032529Y32817907D01*
X45053615Y32808007D01*
X45057972Y32806687D01*
X45057973Y32806687D01*
X45306826Y32731317D01*
X45306833Y32731315D01*
X45311196Y32729994D01*
X45577341Y32689980D01*
X45581906Y32689960D01*
X45581907Y32689960D01*
X45708556Y32689408D01*
X45846474Y32688806D01*
X45871867Y32692397D01*
X46108442Y32725856D01*
X46108446Y32725857D01*
X46112958Y32726495D01*
X46371211Y32802258D01*
X46414746Y32822236D01*
X46611673Y32912604D01*
X46611679Y32912607D01*
X46615821Y32914508D01*
X46841665Y33060893D01*
X46998355Y33198306D01*
X47040581Y33235337D01*
X47040582Y33235338D01*
X47044012Y33238346D01*
X47091495Y33294039D01*
X47215660Y33439674D01*
X47215663Y33439677D01*
X47218624Y33443151D01*
X47221051Y33447013D01*
X47221055Y33447018D01*
X47359412Y33667153D01*
X47359413Y33667155D01*
X47361841Y33671018D01*
X47363683Y33675184D01*
X47363686Y33675190D01*
X47468820Y33912999D01*
X47468822Y33913004D01*
X47470664Y33917171D01*
X47532506Y34139411D01*
X47541590Y34172056D01*
X47541591Y34172061D01*
X47542814Y34176456D01*
X47576779Y34443440D01*
X47577213Y34459455D01*
X47578869Y34520666D01*
X47579500Y34544000D01*
X47560023Y34812430D01*
X47557327Y34824643D01*
X47502986Y35070778D01*
X47502985Y35070782D01*
X47502001Y35075238D01*
X47406648Y35326916D01*
X47275963Y35562194D01*
X47154578Y35721246D01*
X47115455Y35772510D01*
X47115454Y35772511D01*
X47112683Y35776142D01*
X46920229Y35964279D01*
X46702631Y36122663D01*
X46603227Y36174962D01*
X46468489Y36245851D01*
X46468483Y36245854D01*
X46464449Y36247976D01*
X46335520Y36293506D01*
X46214985Y36336072D01*
X46214984Y36336072D01*
X46210672Y36337595D01*
X46067206Y36365872D01*
X45951088Y36388759D01*
X45951082Y36388760D01*
X45946616Y36389640D01*
X45942063Y36389867D01*
X45942060Y36389867D01*
X45682382Y36402794D01*
X45682376Y36402794D01*
X45677813Y36403021D01*
X45409894Y36377460D01*
X45405460Y36376375D01*
X45405454Y36376374D01*
X45166770Y36317968D01*
X45148470Y36313490D01*
X44899020Y36212452D01*
X44666768Y36076463D01*
X44456579Y35908371D01*
X44272857Y35711697D01*
X44270258Y35707950D01*
X44122053Y35494316D01*
X44122050Y35494310D01*
X44119450Y35490563D01*
X44117418Y35486478D01*
X44117416Y35486475D01*
X44059512Y35370081D01*
X43999573Y35249599D01*
X43998152Y35245265D01*
X43998151Y35245262D01*
X43951280Y35102282D01*
X43915735Y34993854D01*
X43869694Y34728685D01*
X43868048Y34667844D01*
X43862560Y34465029D01*
X43862414Y34459648D01*
X23172940Y34459648D01*
X23172940Y36060654D01*
X23153187Y36159960D01*
X23096934Y36244148D01*
X23012746Y36300401D01*
X22913440Y36320154D01*
X21213440Y36320154D01*
X21114134Y36300401D01*
X21029946Y36244148D01*
X20973693Y36159960D01*
X20953940Y36060654D01*
X20229108Y36060654D01*
X20167730Y36113915D01*
X20030683Y36193199D01*
X19990502Y36216444D01*
X19990501Y36216444D01*
X19985304Y36219451D01*
X19979635Y36221420D01*
X19979632Y36221421D01*
X19791882Y36286619D01*
X19786212Y36288588D01*
X19780274Y36289449D01*
X19583579Y36317968D01*
X19583576Y36317968D01*
X19577639Y36318829D01*
X19367110Y36309085D01*
X19361286Y36307681D01*
X19361283Y36307681D01*
X19168055Y36261113D01*
X19168053Y36261112D01*
X19162222Y36259707D01*
X19156764Y36257225D01*
X19156760Y36257224D01*
X19073684Y36219451D01*
X18970368Y36172476D01*
X18798470Y36050540D01*
X18652731Y35898299D01*
X18538409Y35721246D01*
X18536166Y35715680D01*
X18474310Y35562194D01*
X18459630Y35525769D01*
X18448569Y35469129D01*
X18421576Y35330907D01*
X18419235Y35318922D01*
X18418683Y35108169D01*
X18457994Y34901113D01*
X18468018Y34875861D01*
X18509328Y34771788D01*
X18515869Y34701093D01*
X18481312Y34636207D01*
X17932710Y34087605D01*
X17870398Y34053579D01*
X17843615Y34050700D01*
X17654128Y34050700D01*
X17586007Y34070702D01*
X17539514Y34124358D01*
X17529410Y34194632D01*
X17558904Y34259212D01*
X17591605Y34286093D01*
X17622992Y34304032D01*
X17627541Y34307938D01*
X17627544Y34307940D01*
X17778340Y34437417D01*
X17778342Y34437419D01*
X17782891Y34441325D01*
X17801058Y34464204D01*
X17910216Y34601681D01*
X17913945Y34606377D01*
X17962877Y34700174D01*
X18008650Y34787915D01*
X18008651Y34787918D01*
X18011424Y34793233D01*
X18071810Y34995151D01*
X18092925Y35204845D01*
X18092940Y35210654D01*
X18072923Y35420455D01*
X18013595Y35622687D01*
X17966037Y35715027D01*
X17919842Y35804720D01*
X17919840Y35804723D01*
X17917096Y35810051D01*
X17863751Y35877962D01*
X17790615Y35971070D01*
X17790611Y35971075D01*
X17786909Y35975787D01*
X17627730Y36113915D01*
X17490683Y36193199D01*
X17450502Y36216444D01*
X17450501Y36216444D01*
X17445304Y36219451D01*
X17439635Y36221420D01*
X17439632Y36221421D01*
X17251882Y36286619D01*
X17246212Y36288588D01*
X17240274Y36289449D01*
X17043579Y36317968D01*
X17043576Y36317968D01*
X17037639Y36318829D01*
X16827110Y36309085D01*
X16821286Y36307681D01*
X16821283Y36307681D01*
X16628055Y36261113D01*
X16628053Y36261112D01*
X16622222Y36259707D01*
X16616764Y36257225D01*
X16616760Y36257224D01*
X16533684Y36219451D01*
X16430368Y36172476D01*
X16258470Y36050540D01*
X16112731Y35898299D01*
X15998409Y35721246D01*
X15996166Y35715680D01*
X15934310Y35562194D01*
X15919630Y35525769D01*
X15908569Y35469129D01*
X15881576Y35330907D01*
X15879235Y35318922D01*
X15878683Y35108169D01*
X15917994Y34901113D01*
X15995749Y34705227D01*
X15998973Y34700177D01*
X15998974Y34700174D01*
X16039804Y34636207D01*
X16109142Y34527578D01*
X16113264Y34523227D01*
X16113270Y34523219D01*
X16113794Y34522666D01*
X16113968Y34522326D01*
X16116960Y34518496D01*
X16116222Y34517919D01*
X16146119Y34459455D01*
X16139137Y34388802D01*
X16095067Y34333140D01*
X16027899Y34310141D01*
X16005872Y34311095D01*
X15928188Y34321322D01*
X15920000Y34322400D01*
X15911812Y34321322D01*
X15810164Y34307940D01*
X15764087Y34301874D01*
X15618800Y34241694D01*
X15494039Y34145961D01*
X15398306Y34021200D01*
X15338126Y33875913D01*
X15317600Y33720000D01*
X14462902Y33720000D01*
X14441694Y33771200D01*
X14349730Y33891050D01*
X14345961Y33895961D01*
X14346914Y33896692D01*
X14316746Y33951938D01*
X14321811Y34022753D01*
X14364358Y34079589D01*
X14430878Y34104400D01*
X14446349Y34104554D01*
X14491836Y34102210D01*
X14497771Y34103039D01*
X14497775Y34103039D01*
X14680521Y34128560D01*
X14700564Y34131359D01*
X14879292Y34192377D01*
X14894336Y34197513D01*
X14894338Y34197514D01*
X14900015Y34199452D01*
X15033560Y34275779D01*
X15077784Y34301055D01*
X15077787Y34301057D01*
X15082992Y34304032D01*
X15087541Y34307938D01*
X15087544Y34307940D01*
X15238340Y34437417D01*
X15238342Y34437419D01*
X15242891Y34441325D01*
X15261058Y34464204D01*
X15370216Y34601681D01*
X15373945Y34606377D01*
X15422877Y34700174D01*
X15468650Y34787915D01*
X15468651Y34787918D01*
X15471424Y34793233D01*
X15531810Y34995151D01*
X15552925Y35204845D01*
X15552940Y35210654D01*
X15532923Y35420455D01*
X15473595Y35622687D01*
X15426037Y35715027D01*
X15379842Y35804720D01*
X15379840Y35804723D01*
X15377096Y35810051D01*
X15323751Y35877962D01*
X15250615Y35971070D01*
X15250611Y35971075D01*
X15246909Y35975787D01*
X15087730Y36113915D01*
X14950683Y36193199D01*
X14910502Y36216444D01*
X14910501Y36216444D01*
X14905304Y36219451D01*
X14899635Y36221420D01*
X14899632Y36221421D01*
X14711882Y36286619D01*
X14706212Y36288588D01*
X14700274Y36289449D01*
X14503579Y36317968D01*
X14503576Y36317968D01*
X14497639Y36318829D01*
X14287110Y36309085D01*
X14281286Y36307681D01*
X14281283Y36307681D01*
X14088055Y36261113D01*
X14088053Y36261112D01*
X14082222Y36259707D01*
X14076764Y36257225D01*
X14076760Y36257224D01*
X13993684Y36219451D01*
X13890368Y36172476D01*
X13718470Y36050540D01*
X13572731Y35898299D01*
X13458409Y35721246D01*
X13456166Y35715680D01*
X13394310Y35562194D01*
X13379630Y35525769D01*
X13368569Y35469129D01*
X13341576Y35330907D01*
X13339235Y35318922D01*
X13338683Y35108169D01*
X13377994Y34901113D01*
X13388018Y34875861D01*
X13429328Y34771788D01*
X13435869Y34701093D01*
X13401312Y34636207D01*
X12874029Y34108924D01*
X12865926Y34101498D01*
X12837417Y34077576D01*
X12831906Y34068030D01*
X12831904Y34068028D01*
X12818242Y34044364D01*
X12812336Y34035094D01*
X12796655Y34012699D01*
X12796654Y34012696D01*
X12790330Y34003665D01*
X12787476Y33993015D01*
X12785910Y33989656D01*
X12784637Y33986159D01*
X12779123Y33976608D01*
X12777209Y33965751D01*
X12777208Y33965749D01*
X12772463Y33938835D01*
X12770083Y33928102D01*
X12767154Y33917171D01*
X12760155Y33891050D01*
X12761116Y33880065D01*
X12761116Y33880063D01*
X12763398Y33853985D01*
X12763878Y33843003D01*
X12763878Y32505625D01*
X12743876Y32437504D01*
X12690220Y32391011D01*
X12619946Y32380907D01*
X12574783Y32396561D01*
X12504011Y32437504D01*
X12401026Y32497082D01*
X12395357Y32499051D01*
X12395354Y32499052D01*
X12207604Y32564250D01*
X12201934Y32566219D01*
X12195996Y32567080D01*
X11999301Y32595599D01*
X11999298Y32595599D01*
X11993361Y32596460D01*
X11782832Y32586716D01*
X11777008Y32585312D01*
X11777005Y32585312D01*
X11583777Y32538744D01*
X11583775Y32538743D01*
X11577944Y32537338D01*
X11572486Y32534856D01*
X11572482Y32534855D01*
X11489406Y32497082D01*
X11386090Y32450107D01*
X11214192Y32328171D01*
X11068453Y32175930D01*
X10954131Y31998877D01*
X10923986Y31924077D01*
X10879974Y31868375D01*
X10812829Y31845308D01*
X10743872Y31862205D01*
X10694997Y31913699D01*
X10688405Y31931003D01*
X10687888Y31930821D01*
X10682582Y31945886D01*
X10592309Y32146287D01*
X10587129Y32155593D01*
X10464380Y32337919D01*
X10457719Y32346205D01*
X10305992Y32505255D01*
X10298035Y32512295D01*
X10121685Y32643503D01*
X10112648Y32649107D01*
X9916712Y32748726D01*
X9906861Y32752726D01*
X9696940Y32817907D01*
X9686558Y32820190D01*
X9671121Y32822236D01*
X9656954Y32820039D01*
X9653162Y32806855D01*
X9653162Y30168344D01*
X9657313Y30154206D01*
X9667960Y30152511D01*
X9671354Y30153189D01*
X9882495Y30214331D01*
X9892421Y30218142D01*
X10090227Y30313978D01*
X10099374Y30319409D01*
X10278203Y30447202D01*
X10286311Y30454103D01*
X10441055Y30610203D01*
X10447868Y30618352D01*
X10574102Y30798297D01*
X10579457Y30807498D01*
X10673561Y31006129D01*
X10677285Y31016087D01*
X10684565Y31042075D01*
X10722202Y31102274D01*
X10786410Y31132569D01*
X10856805Y31123342D01*
X10911035Y31077521D01*
X10923005Y31054571D01*
X10949259Y30988429D01*
X10949262Y30988423D01*
X10951471Y30982858D01*
X10954695Y30977808D01*
X10954696Y30977805D01*
X11011177Y30889319D01*
X11064864Y30805209D01*
X11209804Y30652206D01*
X11214669Y30648716D01*
X11214672Y30648714D01*
X11320698Y30572667D01*
X11381061Y30529372D01*
X11386506Y30526862D01*
X11544333Y30454103D01*
X11572456Y30441138D01*
X11578272Y30439704D01*
X11578275Y30439703D01*
X11672728Y30416416D01*
X11777083Y30390687D01*
X11783073Y30390378D01*
X11783075Y30390378D01*
X11857019Y30386568D01*
X11987558Y30379841D01*
X11993493Y30380670D01*
X11993497Y30380670D01*
X12176243Y30406191D01*
X12196286Y30408990D01*
X12360658Y30465107D01*
X12390058Y30475144D01*
X12390060Y30475145D01*
X12395737Y30477083D01*
X12542862Y30561172D01*
X12575355Y30579743D01*
X12644422Y30596180D01*
X12711412Y30572667D01*
X12755056Y30516669D01*
X12763878Y30470350D01*
X12763878Y29660033D01*
X12763398Y29649051D01*
X12760155Y29611986D01*
X12763010Y29601332D01*
X12770083Y29574934D01*
X12772463Y29564201D01*
X12779123Y29526428D01*
X12784637Y29516877D01*
X12785910Y29513380D01*
X12787476Y29510021D01*
X12790330Y29499371D01*
X12796654Y29490340D01*
X12796655Y29490337D01*
X12812336Y29467942D01*
X12818242Y29458672D01*
X12837417Y29425460D01*
X12845859Y29418376D01*
X12845860Y29418375D01*
X12846543Y29417802D01*
X12847316Y29416639D01*
X12852947Y29409929D01*
X12852198Y29409301D01*
X12885866Y29358690D01*
X12886990Y29287703D01*
X12849555Y29227377D01*
X12842253Y29221324D01*
X12744039Y29145961D01*
X12648306Y29021200D01*
X12588126Y28875913D01*
X12567600Y28720000D01*
X12575163Y28662556D01*
X12564224Y28592409D01*
X12539336Y28557016D01*
X11394566Y27412247D01*
X10256062Y26273743D01*
X10247959Y26266317D01*
X10219450Y26242395D01*
X10213939Y26232849D01*
X10213937Y26232847D01*
X10200275Y26209183D01*
X10194369Y26199913D01*
X10178688Y26177518D01*
X10178687Y26177515D01*
X10172363Y26168484D01*
X10169509Y26157834D01*
X10167943Y26154475D01*
X10166670Y26150978D01*
X10161156Y26141427D01*
X10159242Y26130570D01*
X10159241Y26130568D01*
X10154496Y26103654D01*
X10152116Y26092921D01*
X10149069Y26081548D01*
X10142188Y26055869D01*
X10143149Y26044884D01*
X10143149Y26044882D01*
X10145431Y26018804D01*
X10145911Y26007822D01*
X10145911Y17221044D01*
X10125909Y17152923D01*
X10072253Y17106430D01*
X10036357Y17096122D01*
X10004087Y17091874D01*
X9858800Y17031694D01*
X9734039Y16935961D01*
X9638306Y16811200D01*
X9578126Y16665913D01*
X9557600Y16510000D01*
X254000Y16510000D01*
X254000Y17677515D01*
X2738373Y17677515D01*
X2739491Y17671628D01*
X2776276Y17477877D01*
X2777684Y17470459D01*
X2855439Y17274573D01*
X2858663Y17269523D01*
X2858664Y17269520D01*
X2915140Y17181042D01*
X2968832Y17096924D01*
X3113772Y16943921D01*
X3118637Y16940431D01*
X3118640Y16940429D01*
X3217941Y16869206D01*
X3285029Y16821087D01*
X3342037Y16794806D01*
X3437492Y16750801D01*
X3476424Y16732853D01*
X3482240Y16731419D01*
X3482243Y16731418D01*
X3561834Y16711795D01*
X3681051Y16682402D01*
X3687041Y16682093D01*
X3687043Y16682093D01*
X3760987Y16678283D01*
X3891526Y16671556D01*
X3897461Y16672385D01*
X3897465Y16672385D01*
X4059262Y16694980D01*
X4100254Y16700705D01*
X4246990Y16750801D01*
X4294026Y16766859D01*
X4294028Y16766860D01*
X4299705Y16768798D01*
X4376488Y16812683D01*
X4477474Y16870401D01*
X4477477Y16870403D01*
X4482682Y16873378D01*
X4487231Y16877284D01*
X4487234Y16877286D01*
X4638030Y17006763D01*
X4638032Y17006765D01*
X4642581Y17010671D01*
X4655281Y17026665D01*
X4725183Y17114702D01*
X4773635Y17175723D01*
X4783685Y17194987D01*
X4868340Y17357261D01*
X4868341Y17357264D01*
X4871114Y17362579D01*
X4931500Y17564497D01*
X4952615Y17774191D01*
X4952630Y17780000D01*
X4951581Y17791000D01*
X4941268Y17899086D01*
X4932613Y17989801D01*
X4873285Y18192033D01*
X4838750Y18259087D01*
X4779532Y18374066D01*
X4779530Y18374069D01*
X4776786Y18379397D01*
X4720116Y18451542D01*
X4650305Y18540416D01*
X4650301Y18540421D01*
X4646599Y18545133D01*
X4608099Y18578542D01*
X4495506Y18676244D01*
X4487420Y18683261D01*
X4304994Y18788797D01*
X4299325Y18790766D01*
X4299322Y18790767D01*
X4111572Y18855965D01*
X4105902Y18857934D01*
X4098419Y18859019D01*
X3903269Y18887314D01*
X3903266Y18887314D01*
X3897329Y18888175D01*
X3686800Y18878431D01*
X3680976Y18877027D01*
X3680973Y18877027D01*
X3487745Y18830459D01*
X3487743Y18830458D01*
X3481912Y18829053D01*
X3476454Y18826571D01*
X3476450Y18826570D01*
X3393374Y18788797D01*
X3290058Y18741822D01*
X3118160Y18619886D01*
X2972421Y18467645D01*
X2858099Y18290592D01*
X2842328Y18251458D01*
X2787753Y18116039D01*
X2779320Y18095115D01*
X2760739Y17999969D01*
X2740171Y17894647D01*
X2738925Y17888268D01*
X2738909Y17882282D01*
X2738909Y17882279D01*
X2738670Y17791000D01*
X2738373Y17677515D01*
X254000Y17677515D01*
X254000Y31385800D01*
X5754405Y31385800D01*
X5793716Y31178744D01*
X5871471Y30982858D01*
X5874695Y30977808D01*
X5874696Y30977805D01*
X5931177Y30889319D01*
X5984864Y30805209D01*
X6129804Y30652206D01*
X6134669Y30648716D01*
X6134672Y30648714D01*
X6240698Y30572667D01*
X6301061Y30529372D01*
X6306506Y30526862D01*
X6464333Y30454103D01*
X6492456Y30441138D01*
X6498272Y30439704D01*
X6498275Y30439703D01*
X6592728Y30416416D01*
X6697083Y30390687D01*
X6703073Y30390378D01*
X6703075Y30390378D01*
X6777019Y30386568D01*
X6907558Y30379841D01*
X6913493Y30380670D01*
X6913497Y30380670D01*
X7096243Y30406191D01*
X7116286Y30408990D01*
X7280658Y30465107D01*
X7310058Y30475144D01*
X7310060Y30475145D01*
X7315737Y30477083D01*
X7449282Y30553410D01*
X7493506Y30578686D01*
X7493509Y30578688D01*
X7498714Y30581663D01*
X7503263Y30585569D01*
X7503266Y30585571D01*
X7654062Y30715048D01*
X7654064Y30715050D01*
X7658613Y30718956D01*
X7677435Y30742660D01*
X7785938Y30879312D01*
X7789667Y30884008D01*
X7883812Y31064473D01*
X7933051Y31115615D01*
X8002126Y31132019D01*
X8069105Y31108474D01*
X8114764Y31046902D01*
X8149392Y30945475D01*
X8153659Y30935752D01*
X8258718Y30742660D01*
X8264564Y30733794D01*
X8400648Y30561172D01*
X8407912Y30553410D01*
X8571129Y30406191D01*
X8579606Y30399757D01*
X8765284Y30282149D01*
X8774729Y30277232D01*
X8977568Y30192591D01*
X8987707Y30189335D01*
X9127507Y30157189D01*
X9141584Y30158028D01*
X9145162Y30167286D01*
X9145162Y32804568D01*
X9141189Y32818099D01*
X9130582Y32819624D01*
X9012716Y32794894D01*
X9002520Y32791834D01*
X8798094Y32711103D01*
X8788558Y32706369D01*
X8600648Y32592343D01*
X8592058Y32586079D01*
X8426046Y32442021D01*
X8418626Y32434390D01*
X8279262Y32264425D01*
X8273237Y32255658D01*
X8164504Y32064641D01*
X8160039Y32054977D01*
X8113592Y31927018D01*
X8071548Y31869810D01*
X8005248Y31844414D01*
X7935744Y31858894D01*
X7883137Y31912317D01*
X7795564Y32082351D01*
X7795562Y32082354D01*
X7792818Y32087682D01*
X7739473Y32155593D01*
X7666337Y32248701D01*
X7666333Y32248706D01*
X7662631Y32253418D01*
X7503452Y32391546D01*
X7321026Y32497082D01*
X7315357Y32499051D01*
X7315354Y32499052D01*
X7127604Y32564250D01*
X7121934Y32566219D01*
X7115996Y32567080D01*
X6919301Y32595599D01*
X6919298Y32595599D01*
X6913361Y32596460D01*
X6702832Y32586716D01*
X6697008Y32585312D01*
X6697005Y32585312D01*
X6503777Y32538744D01*
X6503775Y32538743D01*
X6497944Y32537338D01*
X6492486Y32534856D01*
X6492482Y32534855D01*
X6409406Y32497082D01*
X6306090Y32450107D01*
X6134192Y32328171D01*
X5988453Y32175930D01*
X5874131Y31998877D01*
X5871888Y31993311D01*
X5817717Y31858894D01*
X5795352Y31803400D01*
X5754957Y31596553D01*
X5754405Y31385800D01*
X254000Y31385800D01*
X254000Y34938231D01*
X5491695Y34938231D01*
X5500078Y34886183D01*
X5502652Y34875861D01*
X5573670Y34667844D01*
X5577937Y34658121D01*
X5682996Y34465029D01*
X5688842Y34456163D01*
X5824926Y34283541D01*
X5832190Y34275779D01*
X5995407Y34128560D01*
X6003884Y34122126D01*
X6189562Y34004518D01*
X6199007Y33999601D01*
X6401846Y33914960D01*
X6411985Y33911704D01*
X6551785Y33879558D01*
X6565862Y33880397D01*
X6569440Y33889655D01*
X6569440Y34938539D01*
X6564965Y34953778D01*
X6563575Y34954983D01*
X6555892Y34956654D01*
X5506843Y34956654D01*
X5493662Y34952784D01*
X5491695Y34938231D01*
X254000Y34938231D01*
X254000Y35482480D01*
X5492448Y35482480D01*
X5493867Y35469240D01*
X5508502Y35464654D01*
X6551325Y35464654D01*
X6566564Y35469129D01*
X6567769Y35470519D01*
X6569440Y35478202D01*
X6569440Y36526937D01*
X6568768Y36529224D01*
X7077440Y36529224D01*
X7077440Y33890713D01*
X7081591Y33876575D01*
X7092238Y33874880D01*
X7095632Y33875558D01*
X7306773Y33936700D01*
X7316699Y33940511D01*
X7514505Y34036347D01*
X7523652Y34041778D01*
X7702481Y34169571D01*
X7710589Y34176472D01*
X7865333Y34332572D01*
X7872146Y34340721D01*
X7998380Y34520666D01*
X8003735Y34529867D01*
X8097839Y34728498D01*
X8101563Y34738456D01*
X8108843Y34764444D01*
X8146480Y34824643D01*
X8210688Y34854938D01*
X8281083Y34845711D01*
X8335313Y34799890D01*
X8347283Y34776940D01*
X8373537Y34710798D01*
X8373540Y34710792D01*
X8375749Y34705227D01*
X8378973Y34700177D01*
X8378974Y34700174D01*
X8419804Y34636207D01*
X8489142Y34527578D01*
X8634082Y34374575D01*
X8638947Y34371085D01*
X8638950Y34371083D01*
X8757445Y34286093D01*
X8805339Y34251741D01*
X8851109Y34230641D01*
X8985806Y34168545D01*
X8996734Y34163507D01*
X9002550Y34162073D01*
X9002553Y34162072D01*
X9094466Y34139411D01*
X9201361Y34113056D01*
X9207351Y34112747D01*
X9207353Y34112747D01*
X9281297Y34108937D01*
X9411836Y34102210D01*
X9417771Y34103039D01*
X9417775Y34103039D01*
X9600521Y34128560D01*
X9620564Y34131359D01*
X9799292Y34192377D01*
X9814336Y34197513D01*
X9814338Y34197514D01*
X9820015Y34199452D01*
X9953560Y34275779D01*
X9997784Y34301055D01*
X9997787Y34301057D01*
X10002992Y34304032D01*
X10007541Y34307938D01*
X10007544Y34307940D01*
X10158340Y34437417D01*
X10158342Y34437419D01*
X10162891Y34441325D01*
X10181058Y34464204D01*
X10290216Y34601681D01*
X10293945Y34606377D01*
X10342877Y34700174D01*
X10388650Y34787915D01*
X10388651Y34787918D01*
X10391424Y34793233D01*
X10451810Y34995151D01*
X10463190Y35108169D01*
X10798683Y35108169D01*
X10837994Y34901113D01*
X10915749Y34705227D01*
X10918973Y34700177D01*
X10918974Y34700174D01*
X10959804Y34636207D01*
X11029142Y34527578D01*
X11174082Y34374575D01*
X11178947Y34371085D01*
X11178950Y34371083D01*
X11297445Y34286093D01*
X11345339Y34251741D01*
X11391109Y34230641D01*
X11525806Y34168545D01*
X11536734Y34163507D01*
X11542550Y34162073D01*
X11542553Y34162072D01*
X11634466Y34139411D01*
X11741361Y34113056D01*
X11747351Y34112747D01*
X11747353Y34112747D01*
X11821297Y34108937D01*
X11951836Y34102210D01*
X11957771Y34103039D01*
X11957775Y34103039D01*
X12140521Y34128560D01*
X12160564Y34131359D01*
X12339292Y34192377D01*
X12354336Y34197513D01*
X12354338Y34197514D01*
X12360015Y34199452D01*
X12493560Y34275779D01*
X12537784Y34301055D01*
X12537787Y34301057D01*
X12542992Y34304032D01*
X12547541Y34307938D01*
X12547544Y34307940D01*
X12698340Y34437417D01*
X12698342Y34437419D01*
X12702891Y34441325D01*
X12721058Y34464204D01*
X12830216Y34601681D01*
X12833945Y34606377D01*
X12882877Y34700174D01*
X12928650Y34787915D01*
X12928651Y34787918D01*
X12931424Y34793233D01*
X12991810Y34995151D01*
X13012925Y35204845D01*
X13012940Y35210654D01*
X12992923Y35420455D01*
X12933595Y35622687D01*
X12886037Y35715027D01*
X12839842Y35804720D01*
X12839840Y35804723D01*
X12837096Y35810051D01*
X12783751Y35877962D01*
X12710615Y35971070D01*
X12710611Y35971075D01*
X12706909Y35975787D01*
X12547730Y36113915D01*
X12410683Y36193199D01*
X12370502Y36216444D01*
X12370501Y36216444D01*
X12365304Y36219451D01*
X12359635Y36221420D01*
X12359632Y36221421D01*
X12171882Y36286619D01*
X12166212Y36288588D01*
X12160274Y36289449D01*
X11963579Y36317968D01*
X11963576Y36317968D01*
X11957639Y36318829D01*
X11747110Y36309085D01*
X11741286Y36307681D01*
X11741283Y36307681D01*
X11548055Y36261113D01*
X11548053Y36261112D01*
X11542222Y36259707D01*
X11536764Y36257225D01*
X11536760Y36257224D01*
X11453684Y36219451D01*
X11350368Y36172476D01*
X11178470Y36050540D01*
X11032731Y35898299D01*
X10918409Y35721246D01*
X10916166Y35715680D01*
X10854310Y35562194D01*
X10839630Y35525769D01*
X10828569Y35469129D01*
X10801576Y35330907D01*
X10799235Y35318922D01*
X10798683Y35108169D01*
X10463190Y35108169D01*
X10472925Y35204845D01*
X10472940Y35210654D01*
X10452923Y35420455D01*
X10393595Y35622687D01*
X10346037Y35715027D01*
X10299842Y35804720D01*
X10299840Y35804723D01*
X10297096Y35810051D01*
X10243751Y35877962D01*
X10170615Y35971070D01*
X10170611Y35971075D01*
X10166909Y35975787D01*
X10007730Y36113915D01*
X9870683Y36193199D01*
X9830502Y36216444D01*
X9830501Y36216444D01*
X9825304Y36219451D01*
X9819635Y36221420D01*
X9819632Y36221421D01*
X9631882Y36286619D01*
X9626212Y36288588D01*
X9620274Y36289449D01*
X9423579Y36317968D01*
X9423576Y36317968D01*
X9417639Y36318829D01*
X9207110Y36309085D01*
X9201286Y36307681D01*
X9201283Y36307681D01*
X9008055Y36261113D01*
X9008053Y36261112D01*
X9002222Y36259707D01*
X8996764Y36257225D01*
X8996760Y36257224D01*
X8913684Y36219451D01*
X8810368Y36172476D01*
X8638470Y36050540D01*
X8492731Y35898299D01*
X8378409Y35721246D01*
X8348264Y35646446D01*
X8304252Y35590744D01*
X8237107Y35567677D01*
X8168150Y35584574D01*
X8119275Y35636068D01*
X8112683Y35653372D01*
X8112166Y35653190D01*
X8106860Y35668255D01*
X8016587Y35868656D01*
X8011407Y35877962D01*
X7888658Y36060288D01*
X7881997Y36068574D01*
X7730270Y36227624D01*
X7722313Y36234664D01*
X7545963Y36365872D01*
X7536926Y36371476D01*
X7340990Y36471095D01*
X7331139Y36475095D01*
X7121218Y36540276D01*
X7110836Y36542559D01*
X7095399Y36544605D01*
X7081232Y36542408D01*
X7077440Y36529224D01*
X6568768Y36529224D01*
X6565467Y36540468D01*
X6554860Y36541993D01*
X6436994Y36517263D01*
X6426798Y36514203D01*
X6222372Y36433472D01*
X6212836Y36428738D01*
X6024926Y36314712D01*
X6016336Y36308448D01*
X5850324Y36164390D01*
X5842904Y36156759D01*
X5703540Y35986794D01*
X5697515Y35978027D01*
X5588782Y35787010D01*
X5584317Y35777346D01*
X5509322Y35570738D01*
X5506551Y35560470D01*
X5492448Y35482480D01*
X254000Y35482480D01*
X254000Y36883652D01*
X256350Y36905183D01*
X256340Y36905184D01*
X256453Y36906130D01*
X256967Y36910836D01*
X257077Y36911334D01*
X258412Y36917376D01*
X260270Y37005402D01*
X260722Y37013716D01*
X263540Y37045924D01*
X264974Y37056822D01*
X288359Y37189443D01*
X290738Y37200169D01*
X295838Y37219202D01*
X299142Y37229683D01*
X303844Y37242602D01*
X345201Y37356230D01*
X349394Y37366354D01*
X357744Y37384259D01*
X362816Y37394001D01*
X430140Y37510610D01*
X436038Y37519869D01*
X447357Y37536033D01*
X454044Y37544748D01*
X540603Y37647906D01*
X548030Y37656010D01*
X561966Y37669946D01*
X570070Y37677373D01*
X673220Y37763926D01*
X681942Y37770618D01*
X698102Y37781933D01*
X707371Y37787838D01*
X823968Y37855156D01*
X833707Y37860227D01*
X851623Y37868581D01*
X861744Y37872773D01*
X988291Y37918832D01*
X998772Y37922136D01*
X1017805Y37927236D01*
X1028531Y37929615D01*
X1161154Y37953000D01*
X1172050Y37954434D01*
X1204258Y37957252D01*
X1212572Y37957703D01*
X1247313Y37958437D01*
X1294414Y37959431D01*
X1294418Y37959432D01*
X1300599Y37959562D01*
X1307134Y37961006D01*
X1311796Y37961515D01*
X1312789Y37961634D01*
X1312790Y37961624D01*
X1334320Y37963974D01*
X48195678Y37963974D01*
X48217209Y37961624D01*
G37*
%TD.AperFunction*%
%TD*%
M02*
