%TF.GenerationSoftware,KiCad,Pcbnew,5.99.0-unknown-6001ac0704~131~ubuntu20.04.1*%
%TF.CreationDate,2021-07-18T17:15:53-07:00*%
%TF.ProjectId,T12_Control,5431325f-436f-46e7-9472-6f6c2e6b6963,rev?*%
%TF.SameCoordinates,PXba85060PY68290a0*%
%TF.FileFunction,Copper,L3,Inr*%
%TF.FilePolarity,Positive*%
%FSLAX46Y46*%
G04 Gerber Fmt 4.6, Leading zero omitted, Abs format (unit mm)*
G04 Created by KiCad (PCBNEW 5.99.0-unknown-6001ac0704~131~ubuntu20.04.1) date 2021-07-18 17:15:53*
%MOMM*%
%LPD*%
G01*
G04 APERTURE LIST*
G04 Aperture macros list*
%AMRoundRect*
0 Rectangle with rounded corners*
0 $1 Rounding radius*
0 $2 $3 $4 $5 $6 $7 $8 $9 X,Y pos of 4 corners*
0 Add a 4 corners polygon primitive as box body*
4,1,4,$2,$3,$4,$5,$6,$7,$8,$9,$2,$3,0*
0 Add four circle primitives for the rounded corners*
1,1,$1+$1,$2,$3*
1,1,$1+$1,$4,$5*
1,1,$1+$1,$6,$7*
1,1,$1+$1,$8,$9*
0 Add four rect primitives between the rounded corners*
20,1,$1+$1,$2,$3,$4,$5,0*
20,1,$1+$1,$4,$5,$6,$7,0*
20,1,$1+$1,$6,$7,$8,$9,0*
20,1,$1+$1,$8,$9,$2,$3,0*%
G04 Aperture macros list end*
%TA.AperFunction,ComponentPad*%
%ADD10R,1.700000X1.700000*%
%TD*%
%TA.AperFunction,ComponentPad*%
%ADD11O,1.700000X1.700000*%
%TD*%
%TA.AperFunction,ComponentPad*%
%ADD12R,2.400000X2.400000*%
%TD*%
%TA.AperFunction,ComponentPad*%
%ADD13C,2.400000*%
%TD*%
%TA.AperFunction,ComponentPad*%
%ADD14RoundRect,0.250000X-1.050000X0.750000X-1.050000X-0.750000X1.050000X-0.750000X1.050000X0.750000X0*%
%TD*%
%TA.AperFunction,ComponentPad*%
%ADD15O,2.600000X2.000000*%
%TD*%
%TA.AperFunction,ComponentPad*%
%ADD16R,2.000000X2.000000*%
%TD*%
%TA.AperFunction,ComponentPad*%
%ADD17C,2.000000*%
%TD*%
%TA.AperFunction,ViaPad*%
%ADD18C,0.889000*%
%TD*%
%TA.AperFunction,ViaPad*%
%ADD19C,0.685800*%
%TD*%
G04 APERTURE END LIST*
D10*
%TO.N,/SWDSWO*%
%TO.C,J5*%
X23512722Y4647271D03*
D11*
%TO.N,/SWDCLK*%
X20972722Y4647271D03*
%TO.N,/SWDIO*%
X18432722Y4647271D03*
%TO.N,/~{NRST}*%
X15892722Y4647271D03*
%TO.N,/3.3V*%
X13352722Y4647271D03*
%TO.N,GND*%
X10812722Y4647271D03*
%TD*%
D10*
%TO.N,/3.3V*%
%TO.C,J6*%
X3843130Y10160000D03*
D11*
%TO.N,GND*%
X3843130Y12700000D03*
%TO.N,/RX*%
X3843130Y15240000D03*
%TO.N,/TX*%
X3843130Y17780000D03*
%TD*%
D12*
%TO.N,GND*%
%TO.C,J1*%
X43942000Y25400000D03*
D13*
%TO.N,/24V*%
X43942000Y28900000D03*
%TD*%
D14*
%TO.N,Net-(J2-Pad1)*%
%TO.C,J2*%
X44196000Y18684000D03*
D15*
%TO.N,N/C*%
X44196000Y15184000D03*
%TO.N,GND*%
X44196000Y11684000D03*
X44196000Y8184000D03*
%TO.N,Net-(D1-Pad1)*%
X44196000Y4684000D03*
%TD*%
D10*
%TO.N,/OLED_SDA*%
%TO.C,J4*%
X14479162Y31488285D03*
D11*
%TO.N,/OLED_SCL*%
X11939162Y31488285D03*
%TO.N,GND*%
X9399162Y31488285D03*
%TO.N,/3.3V*%
X6859162Y31488285D03*
%TD*%
D10*
%TO.N,/~{CS}*%
%TO.C,J3*%
X22063440Y35210654D03*
D11*
%TO.N,/D{slash}~{C}*%
X19523440Y35210654D03*
%TO.N,/~{RST}*%
X16983440Y35210654D03*
%TO.N,/MOSI*%
X14443440Y35210654D03*
%TO.N,/SCK*%
X11903440Y35210654D03*
%TO.N,/3.3V*%
X9363440Y35210654D03*
%TO.N,GND*%
X6823440Y35210654D03*
%TD*%
D16*
%TO.N,/24V*%
%TO.C,C12*%
X34720000Y30170000D03*
D17*
%TO.N,GND*%
X34720000Y25170000D03*
%TD*%
D18*
%TO.N,GND*%
X4064000Y20828000D03*
D19*
X30070000Y21070000D03*
X17170000Y8220000D03*
D18*
X6858000Y27178000D03*
D19*
X4126700Y28900202D03*
X28251249Y19928699D03*
X24520000Y18920000D03*
D18*
X29464000Y8890000D03*
D19*
X16002000Y11430000D03*
D18*
X22181995Y10160000D03*
D19*
X26520000Y12420000D03*
X8636000Y11430000D03*
D18*
X23620000Y29920000D03*
X25620000Y23970000D03*
X26416000Y8890000D03*
X7620000Y24130000D03*
D19*
X18270000Y23920000D03*
D18*
X22720000Y26620000D03*
X24620000Y26620000D03*
D19*
X27670000Y27870000D03*
X39270000Y17720000D03*
X18120000Y32220000D03*
X13094136Y21149626D03*
%TO.N,/V_MON*%
X21082000Y16764000D03*
X28470000Y23692444D03*
%TO.N,/~{NRST}*%
X22170000Y7720000D03*
%TO.N,Net-(D1-Pad1)*%
X28448000Y12192000D03*
X28448000Y16510000D03*
%TO.N,Net-(C15-Pad1)*%
X33782000Y16764000D03*
X26940040Y16780040D03*
%TO.N,/SCK*%
X13920000Y33470000D03*
X17526000Y19558000D03*
%TO.N,/MOSI*%
X16339988Y19387920D03*
%TO.N,/~{RST}*%
X13170000Y27720000D03*
X11430000Y18288000D03*
%TO.N,/D{slash}~{C}*%
X13170000Y28720000D03*
X10160000Y16510000D03*
X15920000Y33720000D03*
%TO.N,/~{CS}*%
X14732000Y16764000D03*
X14922490Y25655587D03*
%TO.N,/OLED_SCL*%
X16954490Y20279106D03*
X16842500Y14145500D03*
X16670000Y23970000D03*
%TO.N,/OLED_SDA*%
X15748000Y14986000D03*
X15761710Y20098884D03*
X14920000Y24720000D03*
%TO.N,/SWDIO*%
X9906000Y7112000D03*
X9906000Y12700000D03*
%TO.N,/TIP_TEMP*%
X26416000Y14986000D03*
X18542000Y16002000D03*
%TO.N,Net-(J2-Pad1)*%
X28970000Y18320000D03*
X28155248Y22316489D03*
%TO.N,/NTC*%
X20066000Y17526000D03*
X21082000Y18542000D03*
%TO.N,/EE_SCL*%
X12700000Y22352000D03*
X14618898Y19809406D03*
%TO.N,/HEATER_ON*%
X24420000Y7620000D03*
X16020000Y12420000D03*
%TO.N,Net-(Q2-Pad1)*%
X27220000Y19920000D03*
X24720000Y12520000D03*
%TO.N,GNDA*%
X32766000Y14986000D03*
X23320000Y16920000D03*
D18*
X23000031Y14337970D03*
D19*
X31020000Y20670000D03*
X24470000Y23020000D03*
X34670000Y15270000D03*
%TD*%
%TA.AperFunction,Conductor*%
%TO.N,GND*%
G36*
X48231568Y38064492D02*
G01*
X48243975Y38064492D01*
X48260000Y38060198D01*
X48274742Y38064148D01*
X48277846Y38064013D01*
X48443093Y38049555D01*
X48464714Y38045743D01*
X48601006Y38009224D01*
X48631594Y38001028D01*
X48652233Y37993516D01*
X48808813Y37920501D01*
X48827833Y37909519D01*
X48969351Y37810428D01*
X48986176Y37796310D01*
X49108336Y37674150D01*
X49122454Y37657325D01*
X49221545Y37515807D01*
X49232527Y37496787D01*
X49305542Y37340207D01*
X49313054Y37319568D01*
X49352816Y37171174D01*
X49357768Y37152692D01*
X49361582Y37131063D01*
X49376039Y36965819D01*
X49376174Y36962716D01*
X49372224Y36947974D01*
X49376518Y36931949D01*
X49376518Y36919542D01*
X49377600Y36911324D01*
X49377600Y1306650D01*
X49376518Y1298432D01*
X49376518Y1286025D01*
X49372224Y1270000D01*
X49376174Y1255258D01*
X49376039Y1252155D01*
X49361582Y1086911D01*
X49357769Y1065286D01*
X49321250Y928994D01*
X49313054Y898406D01*
X49305542Y877767D01*
X49232527Y721187D01*
X49221545Y702167D01*
X49122454Y560649D01*
X49108336Y543824D01*
X48986176Y421664D01*
X48969351Y407546D01*
X48827833Y308455D01*
X48808813Y297473D01*
X48652233Y224458D01*
X48631593Y216946D01*
X48464714Y172231D01*
X48443093Y168419D01*
X48288634Y154905D01*
X48277845Y153961D01*
X48274742Y153826D01*
X48260000Y157776D01*
X48243975Y153482D01*
X48231568Y153482D01*
X48223350Y152400D01*
X1306650Y152400D01*
X1298432Y153482D01*
X1286025Y153482D01*
X1270000Y157776D01*
X1255258Y153826D01*
X1252155Y153961D01*
X1241366Y154905D01*
X1086907Y168419D01*
X1065286Y172231D01*
X898407Y216946D01*
X877767Y224458D01*
X721187Y297473D01*
X702167Y308455D01*
X560649Y407546D01*
X543824Y421664D01*
X421664Y543824D01*
X407546Y560649D01*
X308455Y702167D01*
X297473Y721187D01*
X224458Y877767D01*
X216946Y898406D01*
X208750Y928994D01*
X172231Y1065286D01*
X168418Y1086911D01*
X153961Y1252155D01*
X153826Y1255258D01*
X157776Y1270000D01*
X153482Y1286025D01*
X153482Y1298432D01*
X152400Y1306650D01*
X152400Y3602014D01*
X1798787Y3602014D01*
X1799011Y3597348D01*
X1799011Y3597342D01*
X1802037Y3534355D01*
X1811287Y3341776D01*
X1862116Y3086244D01*
X1950156Y2841032D01*
X2073474Y2611527D01*
X2229360Y2402770D01*
X2232669Y2399490D01*
X2232674Y2399484D01*
X2333819Y2299218D01*
X2414390Y2219347D01*
X2418152Y2216589D01*
X2418155Y2216586D01*
X2534281Y2131439D01*
X2624500Y2065288D01*
X2628631Y2063114D01*
X2628632Y2063114D01*
X2850938Y1946153D01*
X2850944Y1946151D01*
X2855073Y1943978D01*
X2859480Y1942439D01*
X2859487Y1942436D01*
X3096628Y1859623D01*
X3101044Y1858081D01*
X3357010Y1809484D01*
X3480597Y1804629D01*
X3612679Y1799439D01*
X3612684Y1799439D01*
X3617347Y1799256D01*
X3724751Y1811019D01*
X3871683Y1827110D01*
X3871688Y1827111D01*
X3876336Y1827620D01*
X3880860Y1828811D01*
X4123766Y1892762D01*
X4123769Y1892763D01*
X4128289Y1893953D01*
X4367669Y1996799D01*
X4482809Y2068050D01*
X4585245Y2131439D01*
X4585249Y2131442D01*
X4589218Y2133898D01*
X4788069Y2302238D01*
X4959853Y2498121D01*
X5035450Y2615648D01*
X5098270Y2713313D01*
X5100798Y2717243D01*
X5207806Y2954792D01*
X5278526Y3205548D01*
X5311406Y3464003D01*
X5313815Y3556000D01*
X5305524Y3667574D01*
X5294853Y3811170D01*
X5294852Y3811174D01*
X5294507Y3815822D01*
X5237007Y4069935D01*
X5226663Y4096535D01*
X5144271Y4308406D01*
X5144270Y4308408D01*
X5142578Y4312759D01*
X5114643Y4361635D01*
X5104544Y4379305D01*
X9480979Y4379305D01*
X9511287Y4244825D01*
X9514367Y4234996D01*
X9594492Y4037668D01*
X9599135Y4028477D01*
X9710416Y3846883D01*
X9716499Y3838572D01*
X9855935Y3677604D01*
X9863302Y3670388D01*
X10027156Y3534355D01*
X10035603Y3528440D01*
X10219478Y3420992D01*
X10228764Y3416542D01*
X10427723Y3340568D01*
X10437621Y3337692D01*
X10540972Y3316665D01*
X10555021Y3317861D01*
X10558722Y3328206D01*
X10558722Y4375156D01*
X10554247Y4390395D01*
X10552857Y4391600D01*
X10545174Y4393271D01*
X9495947Y4393271D01*
X9482416Y4389298D01*
X9480979Y4379305D01*
X5104544Y4379305D01*
X5015614Y4534901D01*
X5015612Y4534903D01*
X5013295Y4538958D01*
X4851997Y4743563D01*
X4671787Y4913088D01*
X9477111Y4913088D01*
X9478634Y4904664D01*
X9491014Y4901271D01*
X10540607Y4901271D01*
X10555846Y4905746D01*
X10557051Y4907136D01*
X10558722Y4914819D01*
X10558722Y5962282D01*
X11066722Y5962282D01*
X11066722Y3328754D01*
X11070786Y3314912D01*
X11084200Y3312878D01*
X11090906Y3313737D01*
X11100984Y3315879D01*
X11304977Y3377080D01*
X11314564Y3380838D01*
X11505817Y3474532D01*
X11514667Y3479807D01*
X11688050Y3603479D01*
X11695922Y3610132D01*
X11846774Y3760459D01*
X11853452Y3768306D01*
X11977725Y3941251D01*
X11983035Y3950088D01*
X12077392Y4141004D01*
X12081191Y4150599D01*
X12143099Y4354360D01*
X12144672Y4361635D01*
X12178621Y4423989D01*
X12240892Y4458090D01*
X12311714Y4453111D01*
X12368601Y4410634D01*
X12388943Y4369734D01*
X12415737Y4276292D01*
X12418552Y4270815D01*
X12418553Y4270812D01*
X12499265Y4113763D01*
X12505638Y4101363D01*
X12509461Y4096539D01*
X12509464Y4096535D01*
X12583252Y4003439D01*
X12627805Y3947227D01*
X12777584Y3819755D01*
X12782962Y3816749D01*
X12782964Y3816748D01*
X12819378Y3796397D01*
X12949269Y3723804D01*
X13136322Y3663027D01*
X13331617Y3639739D01*
X13337752Y3640211D01*
X13337754Y3640211D01*
X13521574Y3654355D01*
X13521578Y3654356D01*
X13527716Y3654828D01*
X13717150Y3707719D01*
X13722654Y3710499D01*
X13722656Y3710500D01*
X13887202Y3793618D01*
X13887204Y3793619D01*
X13892703Y3796397D01*
X14047688Y3917485D01*
X14051714Y3922149D01*
X14051717Y3922152D01*
X14172173Y4061702D01*
X14172174Y4061704D01*
X14176202Y4066370D01*
X14273350Y4237381D01*
X14335432Y4424005D01*
X14360082Y4619133D01*
X14360475Y4647271D01*
X14359095Y4661341D01*
X14885067Y4661341D01*
X14901525Y4465352D01*
X14903224Y4459427D01*
X14928944Y4369732D01*
X14955737Y4276292D01*
X14958552Y4270815D01*
X14958553Y4270812D01*
X15039265Y4113763D01*
X15045638Y4101363D01*
X15049461Y4096539D01*
X15049464Y4096535D01*
X15123252Y4003439D01*
X15167805Y3947227D01*
X15317584Y3819755D01*
X15322962Y3816749D01*
X15322964Y3816748D01*
X15359378Y3796397D01*
X15489269Y3723804D01*
X15676322Y3663027D01*
X15871617Y3639739D01*
X15877752Y3640211D01*
X15877754Y3640211D01*
X16061574Y3654355D01*
X16061578Y3654356D01*
X16067716Y3654828D01*
X16257150Y3707719D01*
X16262654Y3710499D01*
X16262656Y3710500D01*
X16427202Y3793618D01*
X16427204Y3793619D01*
X16432703Y3796397D01*
X16587688Y3917485D01*
X16591714Y3922149D01*
X16591717Y3922152D01*
X16712173Y4061702D01*
X16712174Y4061704D01*
X16716202Y4066370D01*
X16813350Y4237381D01*
X16875432Y4424005D01*
X16900082Y4619133D01*
X16900475Y4647271D01*
X16899095Y4661341D01*
X17425067Y4661341D01*
X17441525Y4465352D01*
X17443224Y4459427D01*
X17468944Y4369732D01*
X17495737Y4276292D01*
X17498552Y4270815D01*
X17498553Y4270812D01*
X17579265Y4113763D01*
X17585638Y4101363D01*
X17589461Y4096539D01*
X17589464Y4096535D01*
X17663252Y4003439D01*
X17707805Y3947227D01*
X17857584Y3819755D01*
X17862962Y3816749D01*
X17862964Y3816748D01*
X17899378Y3796397D01*
X18029269Y3723804D01*
X18216322Y3663027D01*
X18411617Y3639739D01*
X18417752Y3640211D01*
X18417754Y3640211D01*
X18601574Y3654355D01*
X18601578Y3654356D01*
X18607716Y3654828D01*
X18797150Y3707719D01*
X18802654Y3710499D01*
X18802656Y3710500D01*
X18967202Y3793618D01*
X18967204Y3793619D01*
X18972703Y3796397D01*
X19127688Y3917485D01*
X19131714Y3922149D01*
X19131717Y3922152D01*
X19252173Y4061702D01*
X19252174Y4061704D01*
X19256202Y4066370D01*
X19353350Y4237381D01*
X19415432Y4424005D01*
X19440082Y4619133D01*
X19440475Y4647271D01*
X19439095Y4661341D01*
X19965067Y4661341D01*
X19981525Y4465352D01*
X19983224Y4459427D01*
X20008944Y4369732D01*
X20035737Y4276292D01*
X20038552Y4270815D01*
X20038553Y4270812D01*
X20119265Y4113763D01*
X20125638Y4101363D01*
X20129461Y4096539D01*
X20129464Y4096535D01*
X20203252Y4003439D01*
X20247805Y3947227D01*
X20397584Y3819755D01*
X20402962Y3816749D01*
X20402964Y3816748D01*
X20439378Y3796397D01*
X20569269Y3723804D01*
X20756322Y3663027D01*
X20951617Y3639739D01*
X20957752Y3640211D01*
X20957754Y3640211D01*
X21141574Y3654355D01*
X21141578Y3654356D01*
X21147716Y3654828D01*
X21337150Y3707719D01*
X21342654Y3710499D01*
X21342656Y3710500D01*
X21507202Y3793618D01*
X21507204Y3793619D01*
X21512703Y3796397D01*
X21667688Y3917485D01*
X21671714Y3922149D01*
X21671717Y3922152D01*
X21792173Y4061702D01*
X21792174Y4061704D01*
X21796202Y4066370D01*
X21893350Y4237381D01*
X21955432Y4424005D01*
X21980082Y4619133D01*
X21980475Y4647271D01*
X21961283Y4843011D01*
X21904436Y5031296D01*
X21824059Y5182463D01*
X21814995Y5199511D01*
X21814993Y5199514D01*
X21812101Y5204953D01*
X21808211Y5209723D01*
X21808208Y5209727D01*
X21691689Y5352593D01*
X21691686Y5352596D01*
X21687794Y5357368D01*
X21681513Y5362564D01*
X21541000Y5478807D01*
X21540996Y5478809D01*
X21536250Y5482736D01*
X21453366Y5527551D01*
X22509796Y5527551D01*
X22509822Y5497271D01*
X22509822Y3766997D01*
X22509849Y3766724D01*
X22521025Y3739809D01*
X22528319Y3722245D01*
X22533176Y3710547D01*
X22576225Y3667574D01*
X22587695Y3662834D01*
X22587696Y3662834D01*
X22603059Y3656486D01*
X22632442Y3644345D01*
X22662722Y3644371D01*
X24392996Y3644371D01*
X24393269Y3644398D01*
X24422380Y3656486D01*
X24437988Y3662967D01*
X24437989Y3662967D01*
X24449446Y3667725D01*
X24492419Y3710774D01*
X24515648Y3766991D01*
X24515622Y3797271D01*
X24515622Y4593157D01*
X42741730Y4593157D01*
X42742709Y4587460D01*
X42742709Y4587459D01*
X42747890Y4557305D01*
X42777613Y4384329D01*
X42850952Y4185537D01*
X42959289Y4003439D01*
X43098996Y3844133D01*
X43265396Y3712955D01*
X43452914Y3614296D01*
X43655272Y3551463D01*
X43661009Y3550784D01*
X43823629Y3531536D01*
X43823636Y3531536D01*
X43827316Y3531100D01*
X44549751Y3531100D01*
X44706999Y3545549D01*
X44712561Y3547118D01*
X44712563Y3547118D01*
X44890643Y3597342D01*
X44910932Y3603064D01*
X45100969Y3696780D01*
X45113397Y3706060D01*
X45266122Y3820105D01*
X45266123Y3820106D01*
X45270746Y3823558D01*
X45286456Y3840553D01*
X45410655Y3974911D01*
X45410657Y3974913D01*
X45414575Y3979152D01*
X45471855Y4069935D01*
X45524563Y4153472D01*
X45527642Y4158352D01*
X45559172Y4237381D01*
X45604019Y4349792D01*
X45606159Y4355156D01*
X45607448Y4361635D01*
X45646369Y4557305D01*
X45646369Y4557310D01*
X45647496Y4562973D01*
X45647625Y4572775D01*
X45650194Y4769061D01*
X45650270Y4774843D01*
X45646077Y4799248D01*
X45615366Y4977974D01*
X45615366Y4977975D01*
X45614387Y4983671D01*
X45541048Y5182463D01*
X45538096Y5187425D01*
X45435665Y5359596D01*
X45435664Y5359597D01*
X45432711Y5364561D01*
X45293004Y5523867D01*
X45126604Y5655045D01*
X44939086Y5753704D01*
X44736728Y5816537D01*
X44700018Y5820882D01*
X44568371Y5836464D01*
X44568364Y5836464D01*
X44564684Y5836900D01*
X43842249Y5836900D01*
X43685001Y5822451D01*
X43679439Y5820882D01*
X43679437Y5820882D01*
X43615072Y5802729D01*
X43481068Y5764936D01*
X43291031Y5671220D01*
X43286405Y5667766D01*
X43286404Y5667765D01*
X43125878Y5547895D01*
X43121254Y5544442D01*
X43117340Y5540208D01*
X43117338Y5540206D01*
X43064009Y5482514D01*
X42977425Y5388848D01*
X42974344Y5383965D01*
X42906245Y5276034D01*
X42864358Y5209648D01*
X42862220Y5204288D01*
X42862218Y5204285D01*
X42796036Y5038398D01*
X42785841Y5012844D01*
X42784715Y5007184D01*
X42784714Y5007180D01*
X42749332Y4829298D01*
X42744504Y4805027D01*
X42741730Y4593157D01*
X24515622Y4593157D01*
X24515622Y5527545D01*
X24515595Y5527818D01*
X24504419Y5554733D01*
X24497026Y5572537D01*
X24497026Y5572538D01*
X24492268Y5583995D01*
X24449219Y5626968D01*
X24435541Y5632620D01*
X24404473Y5645457D01*
X24404474Y5645457D01*
X24393002Y5650197D01*
X24362722Y5650171D01*
X22632448Y5650171D01*
X22632175Y5650144D01*
X22605260Y5638968D01*
X22587777Y5631708D01*
X22575998Y5626817D01*
X22533025Y5583768D01*
X22509796Y5527551D01*
X21453366Y5527551D01*
X21363242Y5576281D01*
X21175359Y5634441D01*
X21169241Y5635084D01*
X21169236Y5635085D01*
X20985886Y5654355D01*
X20985884Y5654355D01*
X20979757Y5654999D01*
X20896921Y5647461D01*
X20790027Y5637733D01*
X20790024Y5637732D01*
X20783888Y5637174D01*
X20595211Y5581643D01*
X20420914Y5490523D01*
X20267634Y5367283D01*
X20263676Y5362566D01*
X20263674Y5362564D01*
X20219966Y5310475D01*
X20141211Y5216618D01*
X20046461Y5044267D01*
X20044600Y5038400D01*
X20044599Y5038398D01*
X20036493Y5012844D01*
X19986991Y4856795D01*
X19965067Y4661341D01*
X19439095Y4661341D01*
X19421283Y4843011D01*
X19364436Y5031296D01*
X19284059Y5182463D01*
X19274995Y5199511D01*
X19274993Y5199514D01*
X19272101Y5204953D01*
X19268211Y5209723D01*
X19268208Y5209727D01*
X19151689Y5352593D01*
X19151686Y5352596D01*
X19147794Y5357368D01*
X19141513Y5362564D01*
X19001000Y5478807D01*
X19000996Y5478809D01*
X18996250Y5482736D01*
X18823242Y5576281D01*
X18635359Y5634441D01*
X18629241Y5635084D01*
X18629236Y5635085D01*
X18445886Y5654355D01*
X18445884Y5654355D01*
X18439757Y5654999D01*
X18356921Y5647461D01*
X18250027Y5637733D01*
X18250024Y5637732D01*
X18243888Y5637174D01*
X18055211Y5581643D01*
X17880914Y5490523D01*
X17727634Y5367283D01*
X17723676Y5362566D01*
X17723674Y5362564D01*
X17679966Y5310475D01*
X17601211Y5216618D01*
X17506461Y5044267D01*
X17504600Y5038400D01*
X17504599Y5038398D01*
X17496493Y5012844D01*
X17446991Y4856795D01*
X17425067Y4661341D01*
X16899095Y4661341D01*
X16881283Y4843011D01*
X16824436Y5031296D01*
X16744059Y5182463D01*
X16734995Y5199511D01*
X16734993Y5199514D01*
X16732101Y5204953D01*
X16728211Y5209723D01*
X16728208Y5209727D01*
X16611689Y5352593D01*
X16611686Y5352596D01*
X16607794Y5357368D01*
X16601513Y5362564D01*
X16461000Y5478807D01*
X16460996Y5478809D01*
X16456250Y5482736D01*
X16283242Y5576281D01*
X16095359Y5634441D01*
X16089241Y5635084D01*
X16089236Y5635085D01*
X15905886Y5654355D01*
X15905884Y5654355D01*
X15899757Y5654999D01*
X15816921Y5647461D01*
X15710027Y5637733D01*
X15710024Y5637732D01*
X15703888Y5637174D01*
X15515211Y5581643D01*
X15340914Y5490523D01*
X15187634Y5367283D01*
X15183676Y5362566D01*
X15183674Y5362564D01*
X15139966Y5310475D01*
X15061211Y5216618D01*
X14966461Y5044267D01*
X14964600Y5038400D01*
X14964599Y5038398D01*
X14956493Y5012844D01*
X14906991Y4856795D01*
X14885067Y4661341D01*
X14359095Y4661341D01*
X14341283Y4843011D01*
X14284436Y5031296D01*
X14204059Y5182463D01*
X14194995Y5199511D01*
X14194993Y5199514D01*
X14192101Y5204953D01*
X14188211Y5209723D01*
X14188208Y5209727D01*
X14071689Y5352593D01*
X14071686Y5352596D01*
X14067794Y5357368D01*
X14061513Y5362564D01*
X13921000Y5478807D01*
X13920996Y5478809D01*
X13916250Y5482736D01*
X13743242Y5576281D01*
X13555359Y5634441D01*
X13549241Y5635084D01*
X13549236Y5635085D01*
X13365886Y5654355D01*
X13365884Y5654355D01*
X13359757Y5654999D01*
X13276921Y5647461D01*
X13170027Y5637733D01*
X13170024Y5637732D01*
X13163888Y5637174D01*
X12975211Y5581643D01*
X12800914Y5490523D01*
X12647634Y5367283D01*
X12643676Y5362566D01*
X12643674Y5362564D01*
X12599966Y5310475D01*
X12521211Y5216618D01*
X12426461Y5044267D01*
X12424600Y5038400D01*
X12424599Y5038398D01*
X12385859Y4916274D01*
X12346195Y4857390D01*
X12280993Y4829298D01*
X12210954Y4840916D01*
X12158314Y4888555D01*
X12143553Y4923677D01*
X12103936Y5081396D01*
X12100616Y5091147D01*
X12015694Y5286457D01*
X12010827Y5295532D01*
X11895148Y5474345D01*
X11888858Y5482514D01*
X11745528Y5640031D01*
X11737995Y5647056D01*
X11570861Y5779049D01*
X11562274Y5784754D01*
X11375839Y5887672D01*
X11366427Y5891902D01*
X11165681Y5962991D01*
X11155710Y5965625D01*
X11084559Y5978299D01*
X11071262Y5976839D01*
X11066722Y5962282D01*
X10558722Y5962282D01*
X10558722Y5964169D01*
X10554804Y5977513D01*
X10540528Y5979500D01*
X10502046Y5973611D01*
X10492010Y5971220D01*
X10289590Y5905059D01*
X10280081Y5901062D01*
X10091185Y5802729D01*
X10082460Y5797235D01*
X9912155Y5669366D01*
X9904448Y5662523D01*
X9757312Y5508554D01*
X9750826Y5500544D01*
X9630820Y5324622D01*
X9625722Y5315648D01*
X9536060Y5122488D01*
X9532497Y5112801D01*
X9477111Y4913088D01*
X4671787Y4913088D01*
X4662229Y4922079D01*
X4486096Y5044267D01*
X4452001Y5067920D01*
X4451998Y5067922D01*
X4448159Y5070585D01*
X4443966Y5072653D01*
X4218677Y5183753D01*
X4218674Y5183754D01*
X4214489Y5185818D01*
X4168507Y5200537D01*
X4103530Y5221336D01*
X3966354Y5265246D01*
X3961747Y5265996D01*
X3961744Y5265997D01*
X3713815Y5306375D01*
X3713816Y5306375D01*
X3709204Y5307126D01*
X3582812Y5308780D01*
X3453365Y5310475D01*
X3453362Y5310475D01*
X3448688Y5310536D01*
X3190530Y5275403D01*
X3186040Y5274094D01*
X3186034Y5274093D01*
X2944893Y5203806D01*
X2944888Y5203804D01*
X2940400Y5202496D01*
X2936153Y5200538D01*
X2936150Y5200537D01*
X2885196Y5177047D01*
X2703794Y5093420D01*
X2672119Y5072653D01*
X2489823Y4953134D01*
X2489818Y4953131D01*
X2485910Y4950568D01*
X2435691Y4905746D01*
X2295411Y4780541D01*
X2291534Y4777081D01*
X2170218Y4631214D01*
X2138567Y4593157D01*
X2124936Y4576768D01*
X1989775Y4354031D01*
X1987968Y4349723D01*
X1987968Y4349722D01*
X1904469Y4150599D01*
X1889022Y4113763D01*
X1887871Y4109231D01*
X1887870Y4109228D01*
X1878997Y4074289D01*
X1824890Y3861241D01*
X1798787Y3602014D01*
X152400Y3602014D01*
X152400Y7118119D01*
X9405139Y7118119D01*
X9406303Y7109218D01*
X9406303Y7109214D01*
X9412298Y7063374D01*
X9423554Y6977299D01*
X9480752Y6847306D01*
X9572135Y6738593D01*
X9579606Y6733620D01*
X9579607Y6733619D01*
X9682885Y6664871D01*
X9682887Y6664870D01*
X9690358Y6659897D01*
X9698922Y6657221D01*
X9698925Y6657220D01*
X9817349Y6620221D01*
X9817353Y6620220D01*
X9825916Y6617545D01*
X9894453Y6616289D01*
X9958936Y6615107D01*
X9958939Y6615107D01*
X9967912Y6614943D01*
X10010138Y6626455D01*
X10096269Y6649937D01*
X10096272Y6649938D01*
X10104931Y6652299D01*
X10148217Y6678876D01*
X10211552Y6717764D01*
X10225958Y6726609D01*
X10232304Y6733619D01*
X10315235Y6825241D01*
X10315236Y6825242D01*
X10321263Y6831901D01*
X10332709Y6855524D01*
X10379272Y6951631D01*
X10379272Y6951632D01*
X10383186Y6959710D01*
X10406748Y7099762D01*
X10406898Y7112000D01*
X10390661Y7225381D01*
X10388038Y7243699D01*
X10388037Y7243702D01*
X10386765Y7252585D01*
X10379803Y7267897D01*
X10331700Y7373695D01*
X10331698Y7373698D01*
X10327983Y7381869D01*
X10235278Y7489458D01*
X10164979Y7535024D01*
X10123634Y7561823D01*
X10123632Y7561824D01*
X10116103Y7566704D01*
X10107506Y7569275D01*
X10107504Y7569276D01*
X10027132Y7593312D01*
X9980037Y7607396D01*
X9971061Y7607451D01*
X9971060Y7607451D01*
X9911751Y7607813D01*
X9838020Y7608264D01*
X9769744Y7588750D01*
X9710099Y7571704D01*
X9710098Y7571703D01*
X9701468Y7569237D01*
X9581358Y7493453D01*
X9487346Y7387004D01*
X9426989Y7258448D01*
X9425609Y7249583D01*
X9425608Y7249581D01*
X9406943Y7129703D01*
X9405139Y7118119D01*
X152400Y7118119D01*
X152400Y7726119D01*
X21669139Y7726119D01*
X21670303Y7717218D01*
X21670303Y7717214D01*
X21684657Y7607451D01*
X21687554Y7585299D01*
X21744752Y7455306D01*
X21836135Y7346593D01*
X21843606Y7341620D01*
X21843607Y7341619D01*
X21946885Y7272871D01*
X21946887Y7272870D01*
X21954358Y7267897D01*
X21962922Y7265221D01*
X21962925Y7265220D01*
X22081349Y7228221D01*
X22081353Y7228220D01*
X22089916Y7225545D01*
X22158453Y7224289D01*
X22222936Y7223107D01*
X22222939Y7223107D01*
X22231912Y7222943D01*
X22295202Y7240198D01*
X22360269Y7257937D01*
X22360272Y7257938D01*
X22368931Y7260299D01*
X22379147Y7266571D01*
X22460715Y7316654D01*
X22489958Y7334609D01*
X22496304Y7341619D01*
X22579235Y7433241D01*
X22579236Y7433242D01*
X22585263Y7439901D01*
X22596709Y7463524D01*
X22643272Y7559631D01*
X22643272Y7559632D01*
X22647186Y7567710D01*
X22657013Y7626119D01*
X23919139Y7626119D01*
X23920303Y7617218D01*
X23920303Y7617214D01*
X23936371Y7494342D01*
X23937554Y7485299D01*
X23994752Y7355306D01*
X24086135Y7246593D01*
X24093606Y7241620D01*
X24093607Y7241619D01*
X24196885Y7172871D01*
X24196887Y7172870D01*
X24204358Y7167897D01*
X24212922Y7165221D01*
X24212925Y7165220D01*
X24331349Y7128221D01*
X24331353Y7128220D01*
X24339916Y7125545D01*
X24408453Y7124289D01*
X24472936Y7123107D01*
X24472939Y7123107D01*
X24481912Y7122943D01*
X24533311Y7136956D01*
X24610269Y7157937D01*
X24610272Y7157938D01*
X24618931Y7160299D01*
X24739958Y7234609D01*
X24746304Y7241619D01*
X24829235Y7333241D01*
X24829236Y7333242D01*
X24835263Y7339901D01*
X24846709Y7363524D01*
X24893272Y7459631D01*
X24893272Y7459632D01*
X24897186Y7467710D01*
X24920748Y7607762D01*
X24920898Y7620000D01*
X24905701Y7726119D01*
X24902038Y7751699D01*
X24902037Y7751702D01*
X24900765Y7760585D01*
X24859338Y7851699D01*
X24845700Y7881695D01*
X24845698Y7881698D01*
X24841983Y7889869D01*
X24822150Y7912886D01*
X42409275Y7912886D01*
X42411325Y7895170D01*
X42413285Y7885273D01*
X42476604Y7661506D01*
X42480116Y7652062D01*
X42578399Y7441295D01*
X42583378Y7432529D01*
X42714087Y7240198D01*
X42720419Y7232323D01*
X42880186Y7063374D01*
X42887695Y7056613D01*
X43072426Y6915375D01*
X43080905Y6909911D01*
X43285847Y6800022D01*
X43295099Y6795980D01*
X43514971Y6720273D01*
X43524743Y6717764D01*
X43754971Y6677996D01*
X43762843Y6677141D01*
X43786551Y6676064D01*
X43789384Y6676000D01*
X43923885Y6676000D01*
X43939124Y6680475D01*
X43940329Y6681865D01*
X43942000Y6689548D01*
X43942000Y7911885D01*
X43940659Y7916452D01*
X44450000Y7916452D01*
X44450000Y6694115D01*
X44454475Y6678876D01*
X44455865Y6677671D01*
X44463548Y6676000D01*
X44554456Y6676000D01*
X44559488Y6676202D01*
X44732843Y6690150D01*
X44742796Y6691762D01*
X44968633Y6747233D01*
X44978203Y6750416D01*
X45192265Y6841280D01*
X45201207Y6845955D01*
X45397987Y6969874D01*
X45406060Y6975914D01*
X45580500Y7129703D01*
X45587504Y7136956D01*
X45735110Y7316654D01*
X45740866Y7324936D01*
X45857841Y7525919D01*
X45862203Y7535024D01*
X45945537Y7752115D01*
X45948388Y7761804D01*
X45979821Y7912264D01*
X45978698Y7926325D01*
X45968590Y7930000D01*
X44468115Y7930000D01*
X44452876Y7925525D01*
X44451671Y7924135D01*
X44450000Y7916452D01*
X43940659Y7916452D01*
X43937525Y7927124D01*
X43936135Y7928329D01*
X43928452Y7930000D01*
X42425410Y7930000D01*
X42411324Y7925864D01*
X42409275Y7912886D01*
X24822150Y7912886D01*
X24749278Y7997458D01*
X24735728Y8006241D01*
X24637634Y8069823D01*
X24637632Y8069824D01*
X24630103Y8074704D01*
X24621506Y8077275D01*
X24621504Y8077276D01*
X24537687Y8102342D01*
X24494037Y8115396D01*
X24485061Y8115451D01*
X24485060Y8115451D01*
X24425751Y8115813D01*
X24352020Y8116264D01*
X24283744Y8096751D01*
X24224099Y8079704D01*
X24224098Y8079703D01*
X24215468Y8077237D01*
X24095358Y8001453D01*
X24001346Y7895004D01*
X23940989Y7766448D01*
X23939609Y7757583D01*
X23939608Y7757581D01*
X23933757Y7720000D01*
X23919139Y7626119D01*
X22657013Y7626119D01*
X22670748Y7707762D01*
X22670898Y7720000D01*
X22650765Y7860585D01*
X22639540Y7885273D01*
X22595700Y7981695D01*
X22595698Y7981698D01*
X22591983Y7989869D01*
X22499278Y8097458D01*
X22471603Y8115396D01*
X22387634Y8169823D01*
X22387632Y8169824D01*
X22380103Y8174704D01*
X22371506Y8177275D01*
X22371504Y8177276D01*
X22291132Y8201312D01*
X22244037Y8215396D01*
X22235061Y8215451D01*
X22235060Y8215451D01*
X22175751Y8215813D01*
X22102020Y8216264D01*
X22033744Y8196750D01*
X21974099Y8179704D01*
X21974098Y8179703D01*
X21965468Y8177237D01*
X21957878Y8172448D01*
X21868745Y8116209D01*
X21845358Y8101453D01*
X21751346Y7995004D01*
X21690989Y7866448D01*
X21689609Y7857583D01*
X21689608Y7857581D01*
X21673187Y7752115D01*
X21669139Y7726119D01*
X152400Y7726119D01*
X152400Y8455736D01*
X42412179Y8455736D01*
X42413302Y8441675D01*
X42423410Y8438000D01*
X43923885Y8438000D01*
X43939124Y8442475D01*
X43940329Y8443865D01*
X43942000Y8451548D01*
X43942000Y9673885D01*
X43940659Y9678452D01*
X44450000Y9678452D01*
X44450000Y8456115D01*
X44454475Y8440876D01*
X44455865Y8439671D01*
X44463548Y8438000D01*
X45966590Y8438000D01*
X45980676Y8442136D01*
X45982725Y8455114D01*
X45980675Y8472830D01*
X45978715Y8482727D01*
X45915396Y8706494D01*
X45911884Y8715938D01*
X45813601Y8926705D01*
X45808622Y8935471D01*
X45677913Y9127802D01*
X45671581Y9135677D01*
X45511814Y9304626D01*
X45504305Y9311387D01*
X45319574Y9452625D01*
X45311095Y9458089D01*
X45106153Y9567978D01*
X45096901Y9572020D01*
X44877029Y9647727D01*
X44867257Y9650236D01*
X44637029Y9690004D01*
X44629157Y9690859D01*
X44605449Y9691936D01*
X44602616Y9692000D01*
X44468115Y9692000D01*
X44452876Y9687525D01*
X44451671Y9686135D01*
X44450000Y9678452D01*
X43940659Y9678452D01*
X43937525Y9689124D01*
X43936135Y9690329D01*
X43928452Y9692000D01*
X43837544Y9692000D01*
X43832512Y9691798D01*
X43659157Y9677850D01*
X43649204Y9676238D01*
X43423367Y9620767D01*
X43413797Y9617584D01*
X43199735Y9526720D01*
X43190793Y9522045D01*
X42994013Y9398126D01*
X42985940Y9392086D01*
X42811500Y9238297D01*
X42804496Y9231044D01*
X42656890Y9051346D01*
X42651134Y9043064D01*
X42534159Y8842081D01*
X42529797Y8832976D01*
X42446463Y8615885D01*
X42443612Y8606196D01*
X42412179Y8455736D01*
X152400Y8455736D01*
X152400Y12432034D01*
X2511387Y12432034D01*
X2541695Y12297554D01*
X2544775Y12287725D01*
X2624900Y12090397D01*
X2629543Y12081206D01*
X2740824Y11899612D01*
X2746907Y11891301D01*
X2886343Y11730333D01*
X2893710Y11723117D01*
X3057564Y11587084D01*
X3066011Y11581169D01*
X3249886Y11473721D01*
X3259172Y11469271D01*
X3423267Y11406610D01*
X3479770Y11363623D01*
X3504063Y11296912D01*
X3488433Y11227657D01*
X3437842Y11177846D01*
X3378318Y11162900D01*
X2962856Y11162900D01*
X2962583Y11162873D01*
X2953985Y11159303D01*
X2953986Y11159303D01*
X2918185Y11144437D01*
X2906406Y11139546D01*
X2863433Y11096497D01*
X2840204Y11040280D01*
X2840230Y11010000D01*
X2840230Y9279726D01*
X2840257Y9279453D01*
X2851433Y9252538D01*
X2858727Y9234974D01*
X2863584Y9223276D01*
X2906633Y9180303D01*
X2962850Y9157074D01*
X2993130Y9157100D01*
X4723404Y9157100D01*
X4723677Y9157127D01*
X4750592Y9168303D01*
X4768396Y9175696D01*
X4768397Y9175696D01*
X4779854Y9180454D01*
X4822827Y9223503D01*
X4846056Y9279720D01*
X4846030Y9310000D01*
X4846030Y11040274D01*
X4846003Y11040547D01*
X4834827Y11067462D01*
X4827434Y11085266D01*
X4827434Y11085267D01*
X4822676Y11096724D01*
X4779627Y11139697D01*
X4723410Y11162926D01*
X4693130Y11162900D01*
X4304186Y11162900D01*
X4236065Y11182902D01*
X4189572Y11236558D01*
X4179468Y11306832D01*
X4208962Y11371412D01*
X4267978Y11409586D01*
X4278978Y11412886D01*
X42409275Y11412886D01*
X42411325Y11395170D01*
X42413285Y11385273D01*
X42476604Y11161506D01*
X42480116Y11152062D01*
X42578399Y10941295D01*
X42583378Y10932529D01*
X42714087Y10740198D01*
X42720419Y10732323D01*
X42880186Y10563374D01*
X42887695Y10556613D01*
X43072426Y10415375D01*
X43080905Y10409911D01*
X43285847Y10300022D01*
X43295099Y10295980D01*
X43514971Y10220273D01*
X43524743Y10217764D01*
X43754971Y10177996D01*
X43762843Y10177141D01*
X43786551Y10176064D01*
X43789384Y10176000D01*
X43923885Y10176000D01*
X43939124Y10180475D01*
X43940329Y10181865D01*
X43942000Y10189548D01*
X43942000Y11411885D01*
X43940659Y11416452D01*
X44450000Y11416452D01*
X44450000Y10194115D01*
X44454475Y10178876D01*
X44455865Y10177671D01*
X44463548Y10176000D01*
X44554456Y10176000D01*
X44559488Y10176202D01*
X44732843Y10190150D01*
X44742796Y10191762D01*
X44968633Y10247233D01*
X44978203Y10250416D01*
X45192265Y10341280D01*
X45201207Y10345955D01*
X45397987Y10469874D01*
X45406060Y10475914D01*
X45580500Y10629703D01*
X45587504Y10636956D01*
X45735110Y10816654D01*
X45740866Y10824936D01*
X45857841Y11025919D01*
X45862203Y11035024D01*
X45945537Y11252115D01*
X45948388Y11261804D01*
X45979821Y11412264D01*
X45978698Y11426325D01*
X45968590Y11430000D01*
X44468115Y11430000D01*
X44452876Y11425525D01*
X44451671Y11424135D01*
X44450000Y11416452D01*
X43940659Y11416452D01*
X43937525Y11427124D01*
X43936135Y11428329D01*
X43928452Y11430000D01*
X42425410Y11430000D01*
X42411324Y11425864D01*
X42409275Y11412886D01*
X4278978Y11412886D01*
X4335385Y11429809D01*
X4344972Y11433567D01*
X4536225Y11527261D01*
X4545075Y11532536D01*
X4718458Y11656208D01*
X4726330Y11662861D01*
X4877182Y11813188D01*
X4883860Y11821035D01*
X5008133Y11993980D01*
X5013443Y12002817D01*
X5107800Y12193733D01*
X5111599Y12203328D01*
X5173507Y12407090D01*
X5175685Y12417163D01*
X5177116Y12428038D01*
X5174905Y12442222D01*
X5161747Y12446000D01*
X2526355Y12446000D01*
X2512824Y12442027D01*
X2511387Y12432034D01*
X152400Y12432034D01*
X152400Y12706119D01*
X9405139Y12706119D01*
X9406303Y12697218D01*
X9406303Y12697214D01*
X9422371Y12574342D01*
X9423554Y12565299D01*
X9480752Y12435306D01*
X9572135Y12326593D01*
X9579606Y12321620D01*
X9579607Y12321619D01*
X9682885Y12252871D01*
X9682887Y12252870D01*
X9690358Y12247897D01*
X9698922Y12245221D01*
X9698925Y12245220D01*
X9817349Y12208221D01*
X9817353Y12208220D01*
X9825916Y12205545D01*
X9894453Y12204289D01*
X9958936Y12203107D01*
X9958939Y12203107D01*
X9967912Y12202943D01*
X10015577Y12215938D01*
X10096269Y12237937D01*
X10096272Y12237938D01*
X10104931Y12240299D01*
X10225958Y12314609D01*
X10232304Y12321619D01*
X10315235Y12413241D01*
X10315236Y12413242D01*
X10321263Y12419901D01*
X10324276Y12426119D01*
X15519139Y12426119D01*
X15520303Y12417218D01*
X15520303Y12417214D01*
X15533721Y12314609D01*
X15537554Y12285299D01*
X15594752Y12155306D01*
X15686135Y12046593D01*
X15693606Y12041620D01*
X15693607Y12041619D01*
X15796885Y11972871D01*
X15796887Y11972870D01*
X15804358Y11967897D01*
X15812922Y11965221D01*
X15812925Y11965220D01*
X15931349Y11928221D01*
X15931353Y11928220D01*
X15939916Y11925545D01*
X16008453Y11924289D01*
X16072936Y11923107D01*
X16072939Y11923107D01*
X16081912Y11922943D01*
X16150620Y11941675D01*
X16210269Y11957937D01*
X16210272Y11957938D01*
X16218931Y11960299D01*
X16273787Y11993980D01*
X16288179Y12002817D01*
X16339958Y12034609D01*
X16346304Y12041619D01*
X16429235Y12133241D01*
X16429236Y12133242D01*
X16435263Y12139901D01*
X16446709Y12163524D01*
X16493272Y12259631D01*
X16493272Y12259632D01*
X16497186Y12267710D01*
X16520748Y12407762D01*
X16520898Y12420000D01*
X16505701Y12526119D01*
X24219139Y12526119D01*
X24220303Y12517218D01*
X24220303Y12517214D01*
X24234704Y12407090D01*
X24237554Y12385299D01*
X24294752Y12255306D01*
X24386135Y12146593D01*
X24393606Y12141620D01*
X24393607Y12141619D01*
X24496885Y12072871D01*
X24496887Y12072870D01*
X24504358Y12067897D01*
X24512922Y12065221D01*
X24512925Y12065220D01*
X24631349Y12028221D01*
X24631353Y12028220D01*
X24639916Y12025545D01*
X24708453Y12024289D01*
X24772936Y12023107D01*
X24772939Y12023107D01*
X24781912Y12022943D01*
X24843412Y12039710D01*
X24910269Y12057937D01*
X24910272Y12057938D01*
X24918931Y12060299D01*
X25039958Y12134609D01*
X25046304Y12141619D01*
X25097445Y12198119D01*
X27947139Y12198119D01*
X27948303Y12189218D01*
X27948303Y12189214D01*
X27964168Y12067897D01*
X27965554Y12057299D01*
X28022752Y11927306D01*
X28114135Y11818593D01*
X28121606Y11813620D01*
X28121607Y11813619D01*
X28224885Y11744871D01*
X28224887Y11744870D01*
X28232358Y11739897D01*
X28240922Y11737221D01*
X28240925Y11737220D01*
X28359349Y11700221D01*
X28359353Y11700220D01*
X28367916Y11697545D01*
X28436453Y11696289D01*
X28500936Y11695107D01*
X28500939Y11695107D01*
X28509912Y11694943D01*
X28552138Y11706455D01*
X28638269Y11729937D01*
X28638272Y11729938D01*
X28646931Y11732299D01*
X28767958Y11806609D01*
X28774304Y11813619D01*
X28857235Y11905241D01*
X28857236Y11905242D01*
X28863263Y11911901D01*
X28868693Y11923107D01*
X28884501Y11955736D01*
X42412179Y11955736D01*
X42413302Y11941675D01*
X42423410Y11938000D01*
X43923885Y11938000D01*
X43939124Y11942475D01*
X43940329Y11943865D01*
X43942000Y11951548D01*
X43942000Y13173885D01*
X43940659Y13178452D01*
X44450000Y13178452D01*
X44450000Y11956115D01*
X44454475Y11940876D01*
X44455865Y11939671D01*
X44463548Y11938000D01*
X45966590Y11938000D01*
X45980676Y11942136D01*
X45982725Y11955114D01*
X45980675Y11972830D01*
X45978715Y11982727D01*
X45915396Y12206494D01*
X45911884Y12215938D01*
X45813601Y12426705D01*
X45808622Y12435471D01*
X45677913Y12627802D01*
X45671581Y12635677D01*
X45511814Y12804626D01*
X45504305Y12811387D01*
X45319574Y12952625D01*
X45311095Y12958089D01*
X45106153Y13067978D01*
X45096901Y13072020D01*
X44877029Y13147727D01*
X44867257Y13150236D01*
X44637029Y13190004D01*
X44629157Y13190859D01*
X44605449Y13191936D01*
X44602616Y13192000D01*
X44468115Y13192000D01*
X44452876Y13187525D01*
X44451671Y13186135D01*
X44450000Y13178452D01*
X43940659Y13178452D01*
X43937525Y13189124D01*
X43936135Y13190329D01*
X43928452Y13192000D01*
X43837544Y13192000D01*
X43832512Y13191798D01*
X43659157Y13177850D01*
X43649204Y13176238D01*
X43423367Y13120767D01*
X43413797Y13117584D01*
X43199735Y13026720D01*
X43190793Y13022045D01*
X42994013Y12898126D01*
X42985940Y12892086D01*
X42811500Y12738297D01*
X42804496Y12731044D01*
X42656890Y12551346D01*
X42651134Y12543064D01*
X42534159Y12342081D01*
X42529797Y12332976D01*
X42446463Y12115885D01*
X42443612Y12106196D01*
X42412179Y11955736D01*
X28884501Y11955736D01*
X28921272Y12031631D01*
X28921272Y12031632D01*
X28925186Y12039710D01*
X28948748Y12179762D01*
X28948898Y12192000D01*
X28935537Y12285299D01*
X28930038Y12323699D01*
X28930037Y12323702D01*
X28928765Y12332585D01*
X28925051Y12340754D01*
X28873700Y12453695D01*
X28873698Y12453698D01*
X28869983Y12461869D01*
X28777278Y12569458D01*
X28687265Y12627802D01*
X28665634Y12641823D01*
X28665632Y12641824D01*
X28658103Y12646704D01*
X28649506Y12649275D01*
X28649504Y12649276D01*
X28541100Y12681695D01*
X28522037Y12687396D01*
X28513061Y12687451D01*
X28513060Y12687451D01*
X28453751Y12687813D01*
X28380020Y12688264D01*
X28311756Y12668754D01*
X28252099Y12651704D01*
X28252098Y12651703D01*
X28243468Y12649237D01*
X28123358Y12573453D01*
X28029346Y12467004D01*
X27968989Y12338448D01*
X27967609Y12329583D01*
X27967608Y12329581D01*
X27949914Y12215938D01*
X27947139Y12198119D01*
X25097445Y12198119D01*
X25129235Y12233241D01*
X25129236Y12233242D01*
X25135263Y12239901D01*
X25146709Y12263524D01*
X25193272Y12359631D01*
X25193272Y12359632D01*
X25197186Y12367710D01*
X25220748Y12507762D01*
X25220898Y12520000D01*
X25202753Y12646704D01*
X25202038Y12651699D01*
X25202037Y12651704D01*
X25200765Y12660585D01*
X25189302Y12685797D01*
X25145700Y12781695D01*
X25145698Y12781698D01*
X25141983Y12789869D01*
X25049278Y12897458D01*
X25021603Y12915396D01*
X24937634Y12969823D01*
X24937632Y12969824D01*
X24930103Y12974704D01*
X24921506Y12977275D01*
X24921504Y12977276D01*
X24841132Y13001312D01*
X24794037Y13015396D01*
X24785061Y13015451D01*
X24785060Y13015451D01*
X24725751Y13015813D01*
X24652020Y13016264D01*
X24583744Y12996750D01*
X24524099Y12979704D01*
X24524098Y12979703D01*
X24515468Y12977237D01*
X24503718Y12969823D01*
X24418745Y12916209D01*
X24395358Y12901453D01*
X24301346Y12795004D01*
X24240989Y12666448D01*
X24239609Y12657583D01*
X24239608Y12657581D01*
X24221243Y12539631D01*
X24219139Y12526119D01*
X16505701Y12526119D01*
X16502038Y12551699D01*
X16502037Y12551702D01*
X16500765Y12560585D01*
X16496731Y12569458D01*
X16445700Y12681695D01*
X16445698Y12681698D01*
X16441983Y12689869D01*
X16349278Y12797458D01*
X16296451Y12831699D01*
X16237634Y12869823D01*
X16237632Y12869824D01*
X16230103Y12874704D01*
X16221506Y12877275D01*
X16221504Y12877276D01*
X16137687Y12902342D01*
X16094037Y12915396D01*
X16085061Y12915451D01*
X16085060Y12915451D01*
X16025751Y12915813D01*
X15952020Y12916264D01*
X15883744Y12896751D01*
X15824099Y12879704D01*
X15824098Y12879703D01*
X15815468Y12877237D01*
X15807878Y12872448D01*
X15766671Y12846448D01*
X15695358Y12801453D01*
X15601346Y12695004D01*
X15540989Y12566448D01*
X15539609Y12557583D01*
X15539608Y12557581D01*
X15522235Y12446000D01*
X15519139Y12426119D01*
X10324276Y12426119D01*
X10325206Y12428038D01*
X10379272Y12539631D01*
X10379272Y12539632D01*
X10383186Y12547710D01*
X10400682Y12651704D01*
X10405941Y12682964D01*
X10405941Y12682967D01*
X10406748Y12687762D01*
X10406898Y12700000D01*
X10393915Y12790656D01*
X10388038Y12831699D01*
X10388037Y12831702D01*
X10386765Y12840585D01*
X10380406Y12854571D01*
X10331700Y12961695D01*
X10331698Y12961698D01*
X10327983Y12969869D01*
X10235278Y13077458D01*
X10168461Y13120767D01*
X10123634Y13149823D01*
X10123632Y13149824D01*
X10116103Y13154704D01*
X10107506Y13157275D01*
X10107504Y13157276D01*
X10001009Y13189124D01*
X9980037Y13195396D01*
X9971061Y13195451D01*
X9971060Y13195451D01*
X9911751Y13195813D01*
X9838020Y13196264D01*
X9802580Y13186135D01*
X9710099Y13159704D01*
X9710098Y13159703D01*
X9701468Y13157237D01*
X9581358Y13081453D01*
X9487346Y12975004D01*
X9426989Y12846448D01*
X9425609Y12837583D01*
X9425608Y12837581D01*
X9416907Y12781695D01*
X9405139Y12706119D01*
X152400Y12706119D01*
X152400Y12965817D01*
X2507519Y12965817D01*
X2509042Y12957393D01*
X2521422Y12954000D01*
X5161474Y12954000D01*
X5175005Y12957973D01*
X5176310Y12967053D01*
X5134344Y13134125D01*
X5131024Y13143876D01*
X5046102Y13339186D01*
X5041235Y13348261D01*
X4925556Y13527074D01*
X4919266Y13535243D01*
X4775936Y13692760D01*
X4768403Y13699785D01*
X4601269Y13831778D01*
X4592682Y13837483D01*
X4406247Y13940401D01*
X4396835Y13944631D01*
X4196089Y14015720D01*
X4186128Y14018351D01*
X4126180Y14029029D01*
X4062622Y14060667D01*
X4026259Y14121644D01*
X4027263Y14151619D01*
X16341639Y14151619D01*
X16342803Y14142718D01*
X16342803Y14142714D01*
X16357636Y14029288D01*
X16360054Y14010799D01*
X16417252Y13880806D01*
X16508635Y13772093D01*
X16516106Y13767120D01*
X16516107Y13767119D01*
X16619385Y13698371D01*
X16619387Y13698370D01*
X16626858Y13693397D01*
X16635422Y13690721D01*
X16635425Y13690720D01*
X16753849Y13653721D01*
X16753853Y13653720D01*
X16762416Y13651045D01*
X16830953Y13649789D01*
X16895436Y13648607D01*
X16895439Y13648607D01*
X16904412Y13648443D01*
X16946638Y13659955D01*
X17032769Y13683437D01*
X17032772Y13683438D01*
X17041431Y13685799D01*
X17052769Y13692760D01*
X17123995Y13736493D01*
X17162458Y13760109D01*
X17168804Y13767119D01*
X17251735Y13858741D01*
X17251736Y13858742D01*
X17257763Y13865401D01*
X17269209Y13889024D01*
X17315772Y13985131D01*
X17315772Y13985132D01*
X17319686Y13993210D01*
X17340510Y14116988D01*
X17342441Y14128464D01*
X17342441Y14128467D01*
X17343248Y14133262D01*
X17343398Y14145500D01*
X17333226Y14216531D01*
X17324538Y14277199D01*
X17324537Y14277202D01*
X17323265Y14286085D01*
X17319551Y14294254D01*
X17299675Y14337970D01*
X22397476Y14337970D01*
X22418008Y14182017D01*
X22478203Y14036693D01*
X22573960Y13911899D01*
X22698753Y13816142D01*
X22844078Y13755947D01*
X23000031Y13735415D01*
X23155984Y13755947D01*
X23301309Y13816142D01*
X23426102Y13911899D01*
X23521859Y14036693D01*
X23582054Y14182017D01*
X23602586Y14337970D01*
X23582054Y14493923D01*
X23521859Y14639247D01*
X23426102Y14764041D01*
X23411423Y14775305D01*
X23339999Y14830110D01*
X23301309Y14859798D01*
X23155984Y14919993D01*
X23000031Y14940525D01*
X22844078Y14919993D01*
X22698754Y14859798D01*
X22573960Y14764041D01*
X22478203Y14639247D01*
X22418008Y14493923D01*
X22397476Y14337970D01*
X17299675Y14337970D01*
X17268200Y14407195D01*
X17268198Y14407198D01*
X17264483Y14415369D01*
X17171778Y14522958D01*
X17151717Y14535961D01*
X17060134Y14595323D01*
X17060132Y14595324D01*
X17052603Y14600204D01*
X17044006Y14602775D01*
X17044004Y14602776D01*
X16947564Y14631617D01*
X16916537Y14640896D01*
X16907561Y14640951D01*
X16907560Y14640951D01*
X16848251Y14641313D01*
X16774520Y14641764D01*
X16739017Y14631617D01*
X16646599Y14605204D01*
X16646598Y14605203D01*
X16637968Y14602737D01*
X16626218Y14595323D01*
X16528864Y14533897D01*
X16517858Y14526953D01*
X16423846Y14420504D01*
X16363489Y14291948D01*
X16362109Y14283083D01*
X16362108Y14283081D01*
X16344221Y14168201D01*
X16341639Y14151619D01*
X4027263Y14151619D01*
X4028635Y14192601D01*
X4068995Y14251009D01*
X4114391Y14274435D01*
X4201614Y14298788D01*
X4201618Y14298789D01*
X4207558Y14300448D01*
X4213062Y14303228D01*
X4213064Y14303229D01*
X4377610Y14386347D01*
X4377612Y14386348D01*
X4383111Y14389126D01*
X4538096Y14510214D01*
X4542122Y14514878D01*
X4542125Y14514881D01*
X4662581Y14654431D01*
X4662582Y14654433D01*
X4666610Y14659099D01*
X4763758Y14830110D01*
X4817652Y14992119D01*
X15247139Y14992119D01*
X15248303Y14983218D01*
X15248303Y14983214D01*
X15261812Y14879911D01*
X15265554Y14851299D01*
X15322752Y14721306D01*
X15414135Y14612593D01*
X15421606Y14607620D01*
X15421607Y14607619D01*
X15524885Y14538871D01*
X15524887Y14538870D01*
X15532358Y14533897D01*
X15540922Y14531221D01*
X15540925Y14531220D01*
X15659349Y14494221D01*
X15659353Y14494220D01*
X15667916Y14491545D01*
X15736453Y14490289D01*
X15800936Y14489107D01*
X15800939Y14489107D01*
X15809912Y14488943D01*
X15863082Y14503439D01*
X15938269Y14523937D01*
X15938272Y14523938D01*
X15946931Y14526299D01*
X15955795Y14531741D01*
X16007445Y14563454D01*
X16067958Y14600609D01*
X16074304Y14607619D01*
X16157235Y14699241D01*
X16157236Y14699242D01*
X16163263Y14705901D01*
X16174709Y14729524D01*
X16221272Y14825631D01*
X16221272Y14825632D01*
X16225186Y14833710D01*
X16248748Y14973762D01*
X16248898Y14986000D01*
X16248022Y14992119D01*
X25915139Y14992119D01*
X25916303Y14983218D01*
X25916303Y14983214D01*
X25929812Y14879911D01*
X25933554Y14851299D01*
X25990752Y14721306D01*
X26082135Y14612593D01*
X26089606Y14607620D01*
X26089607Y14607619D01*
X26192885Y14538871D01*
X26192887Y14538870D01*
X26200358Y14533897D01*
X26208922Y14531221D01*
X26208925Y14531220D01*
X26327349Y14494221D01*
X26327353Y14494220D01*
X26335916Y14491545D01*
X26404453Y14490289D01*
X26468936Y14489107D01*
X26468939Y14489107D01*
X26477912Y14488943D01*
X26531082Y14503439D01*
X26606269Y14523937D01*
X26606272Y14523938D01*
X26614931Y14526299D01*
X26623795Y14531741D01*
X26675445Y14563454D01*
X26735958Y14600609D01*
X26742304Y14607619D01*
X26825235Y14699241D01*
X26825236Y14699242D01*
X26831263Y14705901D01*
X26842709Y14729524D01*
X26889272Y14825631D01*
X26889272Y14825632D01*
X26893186Y14833710D01*
X26916748Y14973762D01*
X26916898Y14986000D01*
X26916022Y14992119D01*
X32265139Y14992119D01*
X32266303Y14983218D01*
X32266303Y14983214D01*
X32279812Y14879911D01*
X32283554Y14851299D01*
X32340752Y14721306D01*
X32432135Y14612593D01*
X32439606Y14607620D01*
X32439607Y14607619D01*
X32542885Y14538871D01*
X32542887Y14538870D01*
X32550358Y14533897D01*
X32558922Y14531221D01*
X32558925Y14531220D01*
X32677349Y14494221D01*
X32677353Y14494220D01*
X32685916Y14491545D01*
X32754453Y14490289D01*
X32818936Y14489107D01*
X32818939Y14489107D01*
X32827912Y14488943D01*
X32881082Y14503439D01*
X32956269Y14523937D01*
X32956272Y14523938D01*
X32964931Y14526299D01*
X32973795Y14531741D01*
X33025445Y14563454D01*
X33085958Y14600609D01*
X33092304Y14607619D01*
X33175235Y14699241D01*
X33175236Y14699242D01*
X33181263Y14705901D01*
X33192709Y14729524D01*
X33239272Y14825631D01*
X33239272Y14825632D01*
X33243186Y14833710D01*
X33266748Y14973762D01*
X33266898Y14986000D01*
X33246765Y15126585D01*
X33196800Y15236477D01*
X33191700Y15247695D01*
X33191698Y15247698D01*
X33187983Y15255869D01*
X33170534Y15276119D01*
X34169139Y15276119D01*
X34170303Y15267218D01*
X34170303Y15267214D01*
X34178000Y15208359D01*
X34187554Y15135299D01*
X34244752Y15005306D01*
X34336135Y14896593D01*
X34343606Y14891620D01*
X34343607Y14891619D01*
X34446885Y14822871D01*
X34446887Y14822870D01*
X34454358Y14817897D01*
X34462922Y14815221D01*
X34462925Y14815220D01*
X34581349Y14778221D01*
X34581353Y14778220D01*
X34589916Y14775545D01*
X34658453Y14774289D01*
X34722936Y14773107D01*
X34722939Y14773107D01*
X34731912Y14772943D01*
X34774138Y14784455D01*
X34860269Y14807937D01*
X34860272Y14807938D01*
X34868931Y14810299D01*
X34910730Y14835963D01*
X34935707Y14851299D01*
X34989958Y14884609D01*
X34996304Y14891619D01*
X35079235Y14983241D01*
X35079236Y14983242D01*
X35085263Y14989901D01*
X35095429Y15010882D01*
X35135290Y15093157D01*
X42741730Y15093157D01*
X42742709Y15087460D01*
X42742709Y15087459D01*
X42760980Y14981128D01*
X42777613Y14884329D01*
X42850952Y14685537D01*
X42853904Y14680576D01*
X42853904Y14680575D01*
X42934690Y14544787D01*
X42959289Y14503439D01*
X43098996Y14344133D01*
X43265396Y14212955D01*
X43452914Y14114296D01*
X43655272Y14051463D01*
X43661009Y14050784D01*
X43823629Y14031536D01*
X43823636Y14031536D01*
X43827316Y14031100D01*
X44549751Y14031100D01*
X44706999Y14045549D01*
X44712561Y14047118D01*
X44712563Y14047118D01*
X44808966Y14074307D01*
X44910932Y14103064D01*
X45100969Y14196780D01*
X45119031Y14210267D01*
X45266122Y14320105D01*
X45266123Y14320106D01*
X45270746Y14323558D01*
X45274662Y14327794D01*
X45410655Y14474911D01*
X45410657Y14474913D01*
X45414575Y14479152D01*
X45491209Y14600609D01*
X45524563Y14653472D01*
X45527642Y14658352D01*
X45530079Y14664459D01*
X45604019Y14849792D01*
X45606159Y14855156D01*
X45608917Y14869021D01*
X45646369Y15057305D01*
X45646369Y15057310D01*
X45647496Y15062973D01*
X45648336Y15127084D01*
X45648964Y15175125D01*
X45650270Y15274843D01*
X45646077Y15299248D01*
X45615366Y15477974D01*
X45615366Y15477975D01*
X45614387Y15483671D01*
X45541048Y15682463D01*
X45517585Y15721901D01*
X45435665Y15859596D01*
X45435664Y15859597D01*
X45432711Y15864561D01*
X45293004Y16023867D01*
X45126604Y16155045D01*
X44939086Y16253704D01*
X44760293Y16309220D01*
X44742245Y16314824D01*
X44742244Y16314824D01*
X44736728Y16316537D01*
X44720456Y16318463D01*
X44568371Y16336464D01*
X44568364Y16336464D01*
X44564684Y16336900D01*
X43842249Y16336900D01*
X43685001Y16322451D01*
X43679439Y16320882D01*
X43679437Y16320882D01*
X43620639Y16304299D01*
X43481068Y16264936D01*
X43291031Y16171220D01*
X43286405Y16167766D01*
X43286404Y16167765D01*
X43125934Y16047937D01*
X43121254Y16044442D01*
X43117340Y16040208D01*
X43117338Y16040206D01*
X43029629Y15945322D01*
X42977425Y15888848D01*
X42974344Y15883965D01*
X42898524Y15763797D01*
X42864358Y15709648D01*
X42862220Y15704288D01*
X42862218Y15704285D01*
X42797592Y15542299D01*
X42785841Y15512844D01*
X42784715Y15507184D01*
X42784714Y15507180D01*
X42754774Y15356656D01*
X42744504Y15305027D01*
X42744428Y15299252D01*
X42744428Y15299248D01*
X42743606Y15236477D01*
X42741730Y15093157D01*
X35135290Y15093157D01*
X35143272Y15109631D01*
X35143272Y15109632D01*
X35147186Y15117710D01*
X35168350Y15243506D01*
X35169941Y15252964D01*
X35169941Y15252967D01*
X35170748Y15257762D01*
X35170809Y15262672D01*
X35170838Y15265128D01*
X35170898Y15270000D01*
X35150765Y15410585D01*
X35139290Y15435823D01*
X35095700Y15531695D01*
X35095698Y15531698D01*
X35091983Y15539869D01*
X34999278Y15647458D01*
X34953628Y15677047D01*
X34887634Y15719823D01*
X34887632Y15719824D01*
X34880103Y15724704D01*
X34871506Y15727275D01*
X34871504Y15727276D01*
X34791132Y15751312D01*
X34744037Y15765396D01*
X34735061Y15765451D01*
X34735060Y15765451D01*
X34675751Y15765813D01*
X34602020Y15766264D01*
X34533744Y15746750D01*
X34474099Y15729704D01*
X34474098Y15729703D01*
X34465468Y15727237D01*
X34457878Y15722448D01*
X34394506Y15682463D01*
X34345358Y15651453D01*
X34251346Y15545004D01*
X34190989Y15416448D01*
X34189609Y15407583D01*
X34189608Y15407581D01*
X34174523Y15310695D01*
X34169139Y15276119D01*
X33170534Y15276119D01*
X33095278Y15363458D01*
X33022571Y15410585D01*
X32983634Y15435823D01*
X32983632Y15435824D01*
X32976103Y15440704D01*
X32967506Y15443275D01*
X32967504Y15443276D01*
X32851479Y15477974D01*
X32840037Y15481396D01*
X32831061Y15481451D01*
X32831060Y15481451D01*
X32771751Y15481813D01*
X32698020Y15482264D01*
X32683010Y15477974D01*
X32570099Y15445704D01*
X32570098Y15445703D01*
X32561468Y15443237D01*
X32441358Y15367453D01*
X32347346Y15261004D01*
X32286989Y15132448D01*
X32285609Y15123583D01*
X32285608Y15123581D01*
X32268061Y15010882D01*
X32265139Y14992119D01*
X26916022Y14992119D01*
X26896765Y15126585D01*
X26846800Y15236477D01*
X26841700Y15247695D01*
X26841698Y15247698D01*
X26837983Y15255869D01*
X26745278Y15363458D01*
X26672571Y15410585D01*
X26633634Y15435823D01*
X26633632Y15435824D01*
X26626103Y15440704D01*
X26617506Y15443275D01*
X26617504Y15443276D01*
X26501479Y15477974D01*
X26490037Y15481396D01*
X26481061Y15481451D01*
X26481060Y15481451D01*
X26421751Y15481813D01*
X26348020Y15482264D01*
X26333010Y15477974D01*
X26220099Y15445704D01*
X26220098Y15445703D01*
X26211468Y15443237D01*
X26091358Y15367453D01*
X25997346Y15261004D01*
X25936989Y15132448D01*
X25935609Y15123583D01*
X25935608Y15123581D01*
X25918061Y15010882D01*
X25915139Y14992119D01*
X16248022Y14992119D01*
X16228765Y15126585D01*
X16178800Y15236477D01*
X16173700Y15247695D01*
X16173698Y15247698D01*
X16169983Y15255869D01*
X16077278Y15363458D01*
X16004571Y15410585D01*
X15965634Y15435823D01*
X15965632Y15435824D01*
X15958103Y15440704D01*
X15949506Y15443275D01*
X15949504Y15443276D01*
X15833479Y15477974D01*
X15822037Y15481396D01*
X15813061Y15481451D01*
X15813060Y15481451D01*
X15753751Y15481813D01*
X15680020Y15482264D01*
X15665010Y15477974D01*
X15552099Y15445704D01*
X15552098Y15445703D01*
X15543468Y15443237D01*
X15423358Y15367453D01*
X15329346Y15261004D01*
X15268989Y15132448D01*
X15267609Y15123583D01*
X15267608Y15123581D01*
X15250061Y15010882D01*
X15247139Y14992119D01*
X4817652Y14992119D01*
X4825840Y15016734D01*
X4850490Y15211862D01*
X4850883Y15240000D01*
X4831691Y15435740D01*
X4774844Y15624025D01*
X4723907Y15719823D01*
X4685403Y15792240D01*
X4685401Y15792243D01*
X4682509Y15797682D01*
X4678619Y15802452D01*
X4678616Y15802456D01*
X4562097Y15945322D01*
X4562094Y15945325D01*
X4558202Y15950097D01*
X4516055Y15984964D01*
X4488066Y16008119D01*
X18041139Y16008119D01*
X18042303Y15999218D01*
X18042303Y15999214D01*
X18058390Y15876198D01*
X18059554Y15867299D01*
X18116752Y15737306D01*
X18167405Y15677047D01*
X18201072Y15636996D01*
X18208135Y15628593D01*
X18215606Y15623620D01*
X18215607Y15623619D01*
X18318885Y15554871D01*
X18318887Y15554870D01*
X18326358Y15549897D01*
X18334922Y15547221D01*
X18334925Y15547220D01*
X18453349Y15510221D01*
X18453353Y15510220D01*
X18461916Y15507545D01*
X18530453Y15506289D01*
X18594936Y15505107D01*
X18594939Y15505107D01*
X18603912Y15504943D01*
X18652567Y15518208D01*
X18732269Y15539937D01*
X18732272Y15539938D01*
X18740931Y15542299D01*
X18861958Y15616609D01*
X18868304Y15623619D01*
X18951235Y15715241D01*
X18951236Y15715242D01*
X18957263Y15721901D01*
X18968709Y15745524D01*
X19015272Y15841631D01*
X19015272Y15841632D01*
X19019186Y15849710D01*
X19042748Y15989762D01*
X19042898Y16002000D01*
X19026012Y16119911D01*
X19024038Y16133699D01*
X19024037Y16133702D01*
X19022765Y16142585D01*
X19012082Y16166081D01*
X18967700Y16263695D01*
X18967698Y16263698D01*
X18963983Y16271869D01*
X18871278Y16379458D01*
X18837571Y16401306D01*
X18759634Y16451823D01*
X18759632Y16451824D01*
X18752103Y16456704D01*
X18743506Y16459275D01*
X18743504Y16459276D01*
X18634130Y16491985D01*
X18616037Y16497396D01*
X18607061Y16497451D01*
X18607060Y16497451D01*
X18547751Y16497813D01*
X18474020Y16498264D01*
X18423765Y16483901D01*
X18346099Y16461704D01*
X18346098Y16461703D01*
X18337468Y16459237D01*
X18329878Y16454448D01*
X18227657Y16389951D01*
X18217358Y16383453D01*
X18123346Y16277004D01*
X18062989Y16148448D01*
X18061609Y16139583D01*
X18061608Y16139581D01*
X18046795Y16044442D01*
X18041139Y16008119D01*
X4488066Y16008119D01*
X4411408Y16071536D01*
X4411404Y16071538D01*
X4406658Y16075465D01*
X4233650Y16169010D01*
X4045767Y16227170D01*
X4039649Y16227813D01*
X4039644Y16227814D01*
X3856294Y16247084D01*
X3856292Y16247084D01*
X3850165Y16247728D01*
X3767329Y16240190D01*
X3660435Y16230462D01*
X3660432Y16230461D01*
X3654296Y16229903D01*
X3465619Y16174372D01*
X3291322Y16083252D01*
X3138042Y15960012D01*
X3134084Y15955295D01*
X3134082Y15955293D01*
X3057949Y15864561D01*
X3011619Y15809347D01*
X2916869Y15636996D01*
X2915008Y15631129D01*
X2915007Y15631127D01*
X2890817Y15554871D01*
X2857399Y15449524D01*
X2835475Y15254070D01*
X2839019Y15211862D01*
X2848988Y15093157D01*
X2851933Y15058081D01*
X2853632Y15052156D01*
X2903311Y14878906D01*
X2906145Y14869021D01*
X2908960Y14863544D01*
X2908961Y14863541D01*
X2957516Y14769063D01*
X2996046Y14694092D01*
X2999869Y14689268D01*
X2999872Y14689264D01*
X3112055Y14547725D01*
X3118213Y14539956D01*
X3122907Y14535962D01*
X3122907Y14535961D01*
X3258569Y14420504D01*
X3267992Y14412484D01*
X3273370Y14409478D01*
X3273372Y14409477D01*
X3302998Y14392920D01*
X3439677Y14316533D01*
X3571595Y14273670D01*
X3630200Y14233598D01*
X3657837Y14168201D01*
X3645730Y14098244D01*
X3597724Y14045938D01*
X3551719Y14029288D01*
X3532448Y14026339D01*
X3522423Y14023950D01*
X3319998Y13957788D01*
X3310489Y13953791D01*
X3121593Y13855458D01*
X3112868Y13849964D01*
X2942563Y13722095D01*
X2934856Y13715252D01*
X2787720Y13561283D01*
X2781234Y13553273D01*
X2661228Y13377351D01*
X2656130Y13368377D01*
X2566468Y13175217D01*
X2562905Y13165530D01*
X2507519Y12965817D01*
X152400Y12965817D01*
X152400Y16516119D01*
X9659139Y16516119D01*
X9660303Y16507218D01*
X9660303Y16507214D01*
X9676371Y16384342D01*
X9677554Y16375299D01*
X9734752Y16245306D01*
X9826135Y16136593D01*
X9833606Y16131620D01*
X9833607Y16131619D01*
X9936885Y16062871D01*
X9936887Y16062870D01*
X9944358Y16057897D01*
X9952922Y16055221D01*
X9952925Y16055220D01*
X10071349Y16018221D01*
X10071353Y16018220D01*
X10079916Y16015545D01*
X10148453Y16014289D01*
X10212936Y16013107D01*
X10212939Y16013107D01*
X10221912Y16012943D01*
X10275112Y16027447D01*
X10350269Y16047937D01*
X10350272Y16047938D01*
X10358931Y16050299D01*
X10479958Y16124609D01*
X10486304Y16131619D01*
X10569235Y16223241D01*
X10569236Y16223242D01*
X10575263Y16229901D01*
X10583630Y16247169D01*
X10633272Y16349631D01*
X10633272Y16349632D01*
X10637186Y16357710D01*
X10655724Y16467897D01*
X10659941Y16492964D01*
X10659941Y16492967D01*
X10660748Y16497762D01*
X10660898Y16510000D01*
X10644990Y16621084D01*
X10642038Y16641699D01*
X10642037Y16641702D01*
X10640765Y16650585D01*
X10594763Y16751762D01*
X10586417Y16770119D01*
X14231139Y16770119D01*
X14232303Y16761218D01*
X14232303Y16761214D01*
X14248390Y16638198D01*
X14249554Y16629299D01*
X14306752Y16499306D01*
X14398135Y16390593D01*
X14405606Y16385620D01*
X14405607Y16385619D01*
X14508885Y16316871D01*
X14508887Y16316870D01*
X14516358Y16311897D01*
X14524922Y16309221D01*
X14524925Y16309220D01*
X14643349Y16272221D01*
X14643353Y16272220D01*
X14651916Y16269545D01*
X14720453Y16268289D01*
X14784936Y16267107D01*
X14784939Y16267107D01*
X14793912Y16266943D01*
X14853347Y16283147D01*
X14922269Y16301937D01*
X14922272Y16301938D01*
X14930931Y16304299D01*
X14957940Y16320882D01*
X15044306Y16373911D01*
X15051958Y16378609D01*
X15058304Y16385619D01*
X15141235Y16477241D01*
X15141236Y16477242D01*
X15147263Y16483901D01*
X15153802Y16497396D01*
X15205272Y16603631D01*
X15205272Y16603632D01*
X15209186Y16611710D01*
X15232748Y16751762D01*
X15232898Y16764000D01*
X15232022Y16770119D01*
X20581139Y16770119D01*
X20582303Y16761218D01*
X20582303Y16761214D01*
X20598390Y16638198D01*
X20599554Y16629299D01*
X20656752Y16499306D01*
X20748135Y16390593D01*
X20755606Y16385620D01*
X20755607Y16385619D01*
X20858885Y16316871D01*
X20858887Y16316870D01*
X20866358Y16311897D01*
X20874922Y16309221D01*
X20874925Y16309220D01*
X20993349Y16272221D01*
X20993353Y16272220D01*
X21001916Y16269545D01*
X21070453Y16268289D01*
X21134936Y16267107D01*
X21134939Y16267107D01*
X21143912Y16266943D01*
X21203347Y16283147D01*
X21272269Y16301937D01*
X21272272Y16301938D01*
X21280931Y16304299D01*
X21307940Y16320882D01*
X21394306Y16373911D01*
X21401958Y16378609D01*
X21408304Y16385619D01*
X21491235Y16477241D01*
X21491236Y16477242D01*
X21497263Y16483901D01*
X21503802Y16497396D01*
X21555272Y16603631D01*
X21555272Y16603632D01*
X21559186Y16611710D01*
X21582748Y16751762D01*
X21582898Y16764000D01*
X21569919Y16854629D01*
X21564038Y16895699D01*
X21564037Y16895702D01*
X21562765Y16904585D01*
X21559051Y16912754D01*
X21552974Y16926119D01*
X22819139Y16926119D01*
X22820303Y16917218D01*
X22820303Y16917214D01*
X22836281Y16795031D01*
X22837554Y16785299D01*
X22894752Y16655306D01*
X22986135Y16546593D01*
X22993606Y16541620D01*
X22993607Y16541619D01*
X23096885Y16472871D01*
X23096887Y16472870D01*
X23104358Y16467897D01*
X23112922Y16465221D01*
X23112925Y16465220D01*
X23231349Y16428221D01*
X23231353Y16428220D01*
X23239916Y16425545D01*
X23308453Y16424289D01*
X23372936Y16423107D01*
X23372939Y16423107D01*
X23381912Y16422943D01*
X23424138Y16434455D01*
X23510269Y16457937D01*
X23510272Y16457938D01*
X23518931Y16460299D01*
X23639958Y16534609D01*
X23646304Y16541619D01*
X23729235Y16633241D01*
X23729236Y16633242D01*
X23735263Y16639901D01*
X23740440Y16650585D01*
X23793272Y16759631D01*
X23793272Y16759632D01*
X23797186Y16767710D01*
X23800290Y16786159D01*
X26439179Y16786159D01*
X26440343Y16777258D01*
X26440343Y16777254D01*
X26456430Y16654238D01*
X26457594Y16645339D01*
X26514792Y16515346D01*
X26546823Y16477241D01*
X26590480Y16425305D01*
X26606175Y16406633D01*
X26613646Y16401660D01*
X26613647Y16401659D01*
X26716925Y16332911D01*
X26716927Y16332910D01*
X26724398Y16327937D01*
X26732962Y16325261D01*
X26732965Y16325260D01*
X26851389Y16288261D01*
X26851393Y16288260D01*
X26859956Y16285585D01*
X26928493Y16284329D01*
X26992976Y16283147D01*
X26992979Y16283147D01*
X27001952Y16282983D01*
X27071474Y16301937D01*
X27130309Y16317977D01*
X27130312Y16317978D01*
X27138971Y16320339D01*
X27165234Y16336464D01*
X27214253Y16366562D01*
X27259998Y16394649D01*
X27266344Y16401659D01*
X27349275Y16493281D01*
X27349276Y16493282D01*
X27355303Y16499941D01*
X27362517Y16514829D01*
X27363142Y16516119D01*
X27947139Y16516119D01*
X27948303Y16507218D01*
X27948303Y16507214D01*
X27964371Y16384342D01*
X27965554Y16375299D01*
X28022752Y16245306D01*
X28114135Y16136593D01*
X28121606Y16131620D01*
X28121607Y16131619D01*
X28224885Y16062871D01*
X28224887Y16062870D01*
X28232358Y16057897D01*
X28240922Y16055221D01*
X28240925Y16055220D01*
X28359349Y16018221D01*
X28359353Y16018220D01*
X28367916Y16015545D01*
X28436453Y16014289D01*
X28500936Y16013107D01*
X28500939Y16013107D01*
X28509912Y16012943D01*
X28563112Y16027447D01*
X28638269Y16047937D01*
X28638272Y16047938D01*
X28646931Y16050299D01*
X28767958Y16124609D01*
X28774304Y16131619D01*
X28857235Y16223241D01*
X28857236Y16223242D01*
X28863263Y16229901D01*
X28871630Y16247169D01*
X28921272Y16349631D01*
X28921272Y16349632D01*
X28925186Y16357710D01*
X28943724Y16467897D01*
X28947941Y16492964D01*
X28947941Y16492967D01*
X28948748Y16497762D01*
X28948898Y16510000D01*
X28932990Y16621084D01*
X28930038Y16641699D01*
X28930037Y16641702D01*
X28928765Y16650585D01*
X28882763Y16751762D01*
X28874417Y16770119D01*
X33281139Y16770119D01*
X33282303Y16761218D01*
X33282303Y16761214D01*
X33298390Y16638198D01*
X33299554Y16629299D01*
X33356752Y16499306D01*
X33448135Y16390593D01*
X33455606Y16385620D01*
X33455607Y16385619D01*
X33558885Y16316871D01*
X33558887Y16316870D01*
X33566358Y16311897D01*
X33574922Y16309221D01*
X33574925Y16309220D01*
X33693349Y16272221D01*
X33693353Y16272220D01*
X33701916Y16269545D01*
X33770453Y16268289D01*
X33834936Y16267107D01*
X33834939Y16267107D01*
X33843912Y16266943D01*
X33903347Y16283147D01*
X33972269Y16301937D01*
X33972272Y16301938D01*
X33980931Y16304299D01*
X34007940Y16320882D01*
X34094306Y16373911D01*
X34101958Y16378609D01*
X34108304Y16385619D01*
X34191235Y16477241D01*
X34191236Y16477242D01*
X34197263Y16483901D01*
X34203802Y16497396D01*
X34255272Y16603631D01*
X34255272Y16603632D01*
X34259186Y16611710D01*
X34282748Y16751762D01*
X34282898Y16764000D01*
X34269919Y16854629D01*
X34264038Y16895699D01*
X34264037Y16895702D01*
X34262765Y16904585D01*
X34259051Y16912754D01*
X34207700Y17025695D01*
X34207698Y17025698D01*
X34203983Y17033869D01*
X34111278Y17141458D01*
X34094099Y17152593D01*
X33999634Y17213823D01*
X33999632Y17213824D01*
X33992103Y17218704D01*
X33983506Y17221275D01*
X33983504Y17221276D01*
X33874130Y17253985D01*
X33856037Y17259396D01*
X33847061Y17259451D01*
X33847060Y17259451D01*
X33787751Y17259813D01*
X33714020Y17260264D01*
X33663765Y17245901D01*
X33586099Y17223704D01*
X33586098Y17223703D01*
X33577468Y17221237D01*
X33569878Y17216448D01*
X33465668Y17150696D01*
X33457358Y17145453D01*
X33363346Y17039004D01*
X33302989Y16910448D01*
X33301609Y16901583D01*
X33301608Y16901581D01*
X33282684Y16780040D01*
X33281139Y16770119D01*
X28874417Y16770119D01*
X28873700Y16771695D01*
X28873698Y16771698D01*
X28869983Y16779869D01*
X28777278Y16887458D01*
X28753355Y16902964D01*
X28665634Y16959823D01*
X28665632Y16959824D01*
X28658103Y16964704D01*
X28649506Y16967275D01*
X28649504Y16967276D01*
X28569132Y16991312D01*
X28522037Y17005396D01*
X28513061Y17005451D01*
X28513060Y17005451D01*
X28453751Y17005813D01*
X28380020Y17006264D01*
X28311744Y16986750D01*
X28252099Y16969704D01*
X28252098Y16969703D01*
X28243468Y16967237D01*
X28220993Y16953056D01*
X28139410Y16901581D01*
X28123358Y16891453D01*
X28029346Y16785004D01*
X27968989Y16656448D01*
X27967609Y16647583D01*
X27967608Y16647581D01*
X27951055Y16541266D01*
X27947139Y16516119D01*
X27363142Y16516119D01*
X27413312Y16619671D01*
X27413312Y16619672D01*
X27417226Y16627750D01*
X27437282Y16746964D01*
X27439981Y16763004D01*
X27439981Y16763007D01*
X27440788Y16767802D01*
X27440938Y16780040D01*
X27424983Y16891453D01*
X27422078Y16911739D01*
X27422077Y16911742D01*
X27420805Y16920625D01*
X27402983Y16959823D01*
X27365740Y17041735D01*
X27365738Y17041738D01*
X27362023Y17049909D01*
X27269318Y17157498D01*
X27211454Y17195004D01*
X27157674Y17229863D01*
X27157672Y17229864D01*
X27150143Y17234744D01*
X27141546Y17237315D01*
X27141544Y17237316D01*
X27061172Y17261352D01*
X27014077Y17275436D01*
X27005101Y17275491D01*
X27005100Y17275491D01*
X26945791Y17275853D01*
X26872060Y17276304D01*
X26807306Y17257797D01*
X26744139Y17239744D01*
X26744138Y17239743D01*
X26735508Y17237277D01*
X26727918Y17232488D01*
X26655631Y17186878D01*
X26615398Y17161493D01*
X26521386Y17055044D01*
X26461029Y16926488D01*
X26459649Y16917623D01*
X26459648Y16917621D01*
X26440970Y16797660D01*
X26439179Y16786159D01*
X23800290Y16786159D01*
X23816188Y16880656D01*
X23819941Y16902964D01*
X23819941Y16902967D01*
X23820748Y16907762D01*
X23820810Y16912754D01*
X23820838Y16915128D01*
X23820898Y16920000D01*
X23805762Y17025695D01*
X23802038Y17051699D01*
X23802037Y17051702D01*
X23800765Y17060585D01*
X23795930Y17071220D01*
X23745700Y17181695D01*
X23745698Y17181698D01*
X23741983Y17189869D01*
X23649278Y17297458D01*
X23544101Y17365631D01*
X23537634Y17369823D01*
X23537632Y17369824D01*
X23530103Y17374704D01*
X23521506Y17377275D01*
X23521504Y17377276D01*
X23433678Y17403541D01*
X23394037Y17415396D01*
X23385061Y17415451D01*
X23385060Y17415451D01*
X23325751Y17415813D01*
X23252020Y17416264D01*
X23183744Y17396750D01*
X23124099Y17379704D01*
X23124098Y17379703D01*
X23115468Y17377237D01*
X22995358Y17301453D01*
X22901346Y17195004D01*
X22840989Y17066448D01*
X22839609Y17057583D01*
X22839608Y17057581D01*
X22823866Y16956477D01*
X22819139Y16926119D01*
X21552974Y16926119D01*
X21507700Y17025695D01*
X21507698Y17025698D01*
X21503983Y17033869D01*
X21411278Y17141458D01*
X21394099Y17152593D01*
X21299634Y17213823D01*
X21299632Y17213824D01*
X21292103Y17218704D01*
X21283506Y17221275D01*
X21283504Y17221276D01*
X21174130Y17253985D01*
X21156037Y17259396D01*
X21147061Y17259451D01*
X21147060Y17259451D01*
X21087751Y17259813D01*
X21014020Y17260264D01*
X20963765Y17245901D01*
X20886099Y17223704D01*
X20886098Y17223703D01*
X20877468Y17221237D01*
X20869878Y17216448D01*
X20765668Y17150696D01*
X20757358Y17145453D01*
X20663346Y17039004D01*
X20602989Y16910448D01*
X20601609Y16901583D01*
X20601608Y16901581D01*
X20582684Y16780040D01*
X20581139Y16770119D01*
X15232022Y16770119D01*
X15219919Y16854629D01*
X15214038Y16895699D01*
X15214037Y16895702D01*
X15212765Y16904585D01*
X15209051Y16912754D01*
X15157700Y17025695D01*
X15157698Y17025698D01*
X15153983Y17033869D01*
X15061278Y17141458D01*
X15044099Y17152593D01*
X14949634Y17213823D01*
X14949632Y17213824D01*
X14942103Y17218704D01*
X14933506Y17221275D01*
X14933504Y17221276D01*
X14824130Y17253985D01*
X14806037Y17259396D01*
X14797061Y17259451D01*
X14797060Y17259451D01*
X14737751Y17259813D01*
X14664020Y17260264D01*
X14613765Y17245901D01*
X14536099Y17223704D01*
X14536098Y17223703D01*
X14527468Y17221237D01*
X14519878Y17216448D01*
X14415668Y17150696D01*
X14407358Y17145453D01*
X14313346Y17039004D01*
X14252989Y16910448D01*
X14251609Y16901583D01*
X14251608Y16901581D01*
X14232684Y16780040D01*
X14231139Y16770119D01*
X10586417Y16770119D01*
X10585700Y16771695D01*
X10585698Y16771698D01*
X10581983Y16779869D01*
X10489278Y16887458D01*
X10465355Y16902964D01*
X10377634Y16959823D01*
X10377632Y16959824D01*
X10370103Y16964704D01*
X10361506Y16967275D01*
X10361504Y16967276D01*
X10281132Y16991312D01*
X10234037Y17005396D01*
X10225061Y17005451D01*
X10225060Y17005451D01*
X10165751Y17005813D01*
X10092020Y17006264D01*
X10023744Y16986751D01*
X9964099Y16969704D01*
X9964098Y16969703D01*
X9955468Y16967237D01*
X9932993Y16953056D01*
X9851410Y16901581D01*
X9835358Y16891453D01*
X9741346Y16785004D01*
X9680989Y16656448D01*
X9679609Y16647583D01*
X9679608Y16647581D01*
X9663055Y16541266D01*
X9659139Y16516119D01*
X152400Y16516119D01*
X152400Y17794070D01*
X2835475Y17794070D01*
X2839019Y17751862D01*
X2848436Y17639729D01*
X2851933Y17598081D01*
X2853632Y17592156D01*
X2874717Y17518625D01*
X2906145Y17409021D01*
X2908960Y17403544D01*
X2908961Y17403541D01*
X2983863Y17257797D01*
X2996046Y17234092D01*
X2999869Y17229268D01*
X2999872Y17229264D01*
X3074858Y17134656D01*
X3118213Y17079956D01*
X3122907Y17075962D01*
X3122907Y17075961D01*
X3259369Y16959823D01*
X3267992Y16952484D01*
X3273370Y16949478D01*
X3273372Y16949477D01*
X3334833Y16915128D01*
X3439677Y16856533D01*
X3626730Y16795756D01*
X3822025Y16772468D01*
X3828160Y16772940D01*
X3828162Y16772940D01*
X4011982Y16787084D01*
X4011986Y16787085D01*
X4018124Y16787557D01*
X4207558Y16840448D01*
X4213062Y16843228D01*
X4213064Y16843229D01*
X4377610Y16926347D01*
X4377612Y16926348D01*
X4383111Y16929126D01*
X4538096Y17050214D01*
X4542122Y17054878D01*
X4542125Y17054881D01*
X4662581Y17194431D01*
X4662582Y17194433D01*
X4666610Y17199099D01*
X4763758Y17370110D01*
X4817652Y17532119D01*
X19565139Y17532119D01*
X19566303Y17523218D01*
X19566303Y17523214D01*
X19580403Y17415396D01*
X19583554Y17391299D01*
X19640752Y17261306D01*
X19732135Y17152593D01*
X19739606Y17147620D01*
X19739607Y17147619D01*
X19842885Y17078871D01*
X19842887Y17078870D01*
X19850358Y17073897D01*
X19858922Y17071221D01*
X19858925Y17071220D01*
X19977349Y17034221D01*
X19977353Y17034220D01*
X19985916Y17031545D01*
X20054453Y17030289D01*
X20118936Y17029107D01*
X20118939Y17029107D01*
X20127912Y17028943D01*
X20174832Y17041735D01*
X20256269Y17063937D01*
X20256272Y17063938D01*
X20264931Y17066299D01*
X20278404Y17074571D01*
X20378306Y17135911D01*
X20385958Y17140609D01*
X20392304Y17147619D01*
X20475235Y17239241D01*
X20475236Y17239242D01*
X20481263Y17245901D01*
X20487802Y17259396D01*
X20539272Y17365631D01*
X20539272Y17365632D01*
X20543186Y17373710D01*
X20566748Y17513762D01*
X20566898Y17526000D01*
X20546765Y17666585D01*
X20540406Y17680571D01*
X20491700Y17787695D01*
X20491698Y17787698D01*
X20487983Y17795869D01*
X20395278Y17903458D01*
X20367500Y17921463D01*
X20283634Y17975823D01*
X20283632Y17975824D01*
X20276103Y17980704D01*
X20267506Y17983275D01*
X20267504Y17983276D01*
X20158130Y18015985D01*
X20140037Y18021396D01*
X20131061Y18021451D01*
X20131060Y18021451D01*
X20071751Y18021813D01*
X19998020Y18022264D01*
X19947765Y18007901D01*
X19870099Y17985704D01*
X19870098Y17985703D01*
X19861468Y17983237D01*
X19853878Y17978448D01*
X19776952Y17929911D01*
X19741358Y17907453D01*
X19647346Y17801004D01*
X19586989Y17672448D01*
X19585609Y17663583D01*
X19585608Y17663581D01*
X19568061Y17550882D01*
X19565139Y17532119D01*
X4817652Y17532119D01*
X4825840Y17556734D01*
X4850490Y17751862D01*
X4850883Y17780000D01*
X4831691Y17975740D01*
X4774844Y18164025D01*
X4726344Y18255241D01*
X4705672Y18294119D01*
X10929139Y18294119D01*
X10930303Y18285218D01*
X10930303Y18285214D01*
X10946390Y18162198D01*
X10947554Y18153299D01*
X11004752Y18023306D01*
X11096135Y17914593D01*
X11103606Y17909620D01*
X11103607Y17909619D01*
X11206885Y17840871D01*
X11206887Y17840870D01*
X11214358Y17835897D01*
X11222922Y17833221D01*
X11222925Y17833220D01*
X11341349Y17796221D01*
X11341353Y17796220D01*
X11349916Y17793545D01*
X11418453Y17792289D01*
X11482936Y17791107D01*
X11482939Y17791107D01*
X11491912Y17790943D01*
X11534933Y17802672D01*
X11620269Y17825937D01*
X11620272Y17825938D01*
X11628931Y17828299D01*
X11749958Y17902609D01*
X11756304Y17909619D01*
X11839235Y18001241D01*
X11839236Y18001242D01*
X11845263Y18007901D01*
X11851802Y18021396D01*
X11903272Y18127631D01*
X11903272Y18127632D01*
X11907186Y18135710D01*
X11930748Y18275762D01*
X11930898Y18288000D01*
X11914990Y18399084D01*
X11912038Y18419699D01*
X11912037Y18419702D01*
X11910765Y18428585D01*
X11900256Y18451699D01*
X11856417Y18548119D01*
X20581139Y18548119D01*
X20582303Y18539218D01*
X20582303Y18539214D01*
X20596770Y18428585D01*
X20599554Y18407299D01*
X20656752Y18277306D01*
X20675300Y18255241D01*
X20741072Y18176996D01*
X20748135Y18168593D01*
X20755606Y18163620D01*
X20755607Y18163619D01*
X20858885Y18094871D01*
X20858887Y18094870D01*
X20866358Y18089897D01*
X20874922Y18087221D01*
X20874925Y18087220D01*
X20993349Y18050221D01*
X20993353Y18050220D01*
X21001916Y18047545D01*
X21070453Y18046289D01*
X21134936Y18045107D01*
X21134939Y18045107D01*
X21143912Y18044943D01*
X21212066Y18063524D01*
X21272269Y18079937D01*
X21272272Y18079938D01*
X21280931Y18082299D01*
X21401958Y18156609D01*
X21408304Y18163619D01*
X21491235Y18255241D01*
X21491236Y18255242D01*
X21497263Y18261901D01*
X21507548Y18283128D01*
X21528377Y18326119D01*
X28469139Y18326119D01*
X28470303Y18317218D01*
X28470303Y18317214D01*
X28486390Y18194198D01*
X28487554Y18185299D01*
X28544752Y18055306D01*
X28636135Y17946593D01*
X28643606Y17941620D01*
X28643607Y17941619D01*
X28746885Y17872871D01*
X28746887Y17872870D01*
X28754358Y17867897D01*
X28762922Y17865221D01*
X28762925Y17865220D01*
X28881349Y17828221D01*
X28881353Y17828220D01*
X28889916Y17825545D01*
X28958453Y17824289D01*
X29022936Y17823107D01*
X29022939Y17823107D01*
X29031912Y17822943D01*
X29097671Y17840871D01*
X29160269Y17857937D01*
X29160272Y17857938D01*
X29168931Y17860299D01*
X29185036Y17870187D01*
X29230189Y17897911D01*
X29289958Y17934609D01*
X29296304Y17941619D01*
X29379235Y18033241D01*
X29379236Y18033242D01*
X29385263Y18039901D01*
X29396709Y18063524D01*
X29443272Y18159631D01*
X29443272Y18159632D01*
X29447186Y18167710D01*
X29461912Y18255241D01*
X29469941Y18302964D01*
X29469941Y18302967D01*
X29470748Y18307762D01*
X29470898Y18320000D01*
X29459647Y18398562D01*
X29452038Y18451699D01*
X29452037Y18451702D01*
X29450765Y18460585D01*
X29437347Y18490097D01*
X29395700Y18581695D01*
X29395698Y18581698D01*
X29391983Y18589869D01*
X29299278Y18697458D01*
X29291743Y18702342D01*
X29187634Y18769823D01*
X29187632Y18769824D01*
X29180103Y18774704D01*
X29171506Y18777275D01*
X29171504Y18777276D01*
X29065832Y18808878D01*
X29044037Y18815396D01*
X29035061Y18815451D01*
X29035060Y18815451D01*
X28975751Y18815813D01*
X28902020Y18816264D01*
X28833744Y18796751D01*
X28774099Y18779704D01*
X28774098Y18779703D01*
X28765468Y18777237D01*
X28749513Y18767170D01*
X28710737Y18742704D01*
X28645358Y18701453D01*
X28551346Y18595004D01*
X28490989Y18466448D01*
X28489609Y18457583D01*
X28489608Y18457581D01*
X28471683Y18342456D01*
X28469139Y18326119D01*
X21528377Y18326119D01*
X21555272Y18381631D01*
X21555272Y18381632D01*
X21559186Y18389710D01*
X21582748Y18529762D01*
X21582898Y18542000D01*
X21564646Y18669453D01*
X21564038Y18673699D01*
X21564037Y18673702D01*
X21562765Y18682585D01*
X21552082Y18706081D01*
X21507700Y18803695D01*
X21507698Y18803698D01*
X21503983Y18811869D01*
X21411278Y18919458D01*
X21397728Y18928241D01*
X21299634Y18991823D01*
X21299632Y18991824D01*
X21292103Y18996704D01*
X21283506Y18999275D01*
X21283504Y18999276D01*
X21203132Y19023312D01*
X21156037Y19037396D01*
X21147061Y19037451D01*
X21147060Y19037451D01*
X21087751Y19037813D01*
X21014020Y19038264D01*
X20954955Y19021383D01*
X20886099Y19001704D01*
X20886098Y19001703D01*
X20877468Y18999237D01*
X20869878Y18994448D01*
X20772711Y18933140D01*
X20757358Y18923453D01*
X20663346Y18817004D01*
X20602989Y18688448D01*
X20601609Y18679583D01*
X20601608Y18679581D01*
X20583457Y18563004D01*
X20581139Y18548119D01*
X11856417Y18548119D01*
X11855700Y18549695D01*
X11855698Y18549698D01*
X11851983Y18557869D01*
X11759278Y18665458D01*
X11737489Y18679581D01*
X11647634Y18737823D01*
X11647632Y18737824D01*
X11640103Y18742704D01*
X11631506Y18745275D01*
X11631504Y18745276D01*
X11516382Y18779704D01*
X11504037Y18783396D01*
X11495061Y18783451D01*
X11495060Y18783451D01*
X11435751Y18783813D01*
X11362020Y18784264D01*
X11320677Y18772448D01*
X11234099Y18747704D01*
X11234098Y18747703D01*
X11225468Y18745237D01*
X11217878Y18740448D01*
X11121410Y18679581D01*
X11105358Y18669453D01*
X11011346Y18563004D01*
X10950989Y18434448D01*
X10949609Y18425583D01*
X10949608Y18425581D01*
X10933169Y18320000D01*
X10929139Y18294119D01*
X4705672Y18294119D01*
X4685403Y18332240D01*
X4685401Y18332243D01*
X4682509Y18337682D01*
X4678619Y18342452D01*
X4678616Y18342456D01*
X4562097Y18485322D01*
X4562094Y18485325D01*
X4558202Y18490097D01*
X4516055Y18524964D01*
X4411408Y18611536D01*
X4411404Y18611538D01*
X4406658Y18615465D01*
X4233650Y18709010D01*
X4045767Y18767170D01*
X4039649Y18767813D01*
X4039644Y18767814D01*
X3856294Y18787084D01*
X3856292Y18787084D01*
X3850165Y18787728D01*
X3784993Y18781797D01*
X3660435Y18770462D01*
X3660432Y18770461D01*
X3654296Y18769903D01*
X3465619Y18714372D01*
X3291322Y18623252D01*
X3138042Y18500012D01*
X3134084Y18495295D01*
X3134082Y18495293D01*
X3053353Y18399084D01*
X3011619Y18349347D01*
X2916869Y18176996D01*
X2915008Y18171129D01*
X2915007Y18171127D01*
X2906746Y18145084D01*
X2857399Y17989524D01*
X2835475Y17794070D01*
X152400Y17794070D01*
X152400Y19815525D01*
X14118037Y19815525D01*
X14119201Y19806624D01*
X14119201Y19806620D01*
X14133329Y19698585D01*
X14136452Y19674705D01*
X14193650Y19544712D01*
X14285033Y19435999D01*
X14292504Y19431026D01*
X14292505Y19431025D01*
X14395783Y19362277D01*
X14395785Y19362276D01*
X14403256Y19357303D01*
X14411820Y19354627D01*
X14411823Y19354626D01*
X14530247Y19317627D01*
X14530251Y19317626D01*
X14538814Y19314951D01*
X14607351Y19313695D01*
X14671834Y19312513D01*
X14671837Y19312513D01*
X14680810Y19312349D01*
X14738569Y19328096D01*
X14809167Y19347343D01*
X14809170Y19347344D01*
X14817829Y19349705D01*
X14938856Y19424015D01*
X14945202Y19431025D01*
X15028133Y19522647D01*
X15028134Y19522648D01*
X15034161Y19529307D01*
X15042134Y19545762D01*
X15092170Y19649037D01*
X15092170Y19649038D01*
X15096084Y19657116D01*
X15115753Y19774026D01*
X15146780Y19837884D01*
X15207406Y19874830D01*
X15278382Y19873135D01*
X15336217Y19833984D01*
X15336462Y19834190D01*
X15399136Y19759631D01*
X15427845Y19725477D01*
X15435316Y19720504D01*
X15435317Y19720503D01*
X15538595Y19651755D01*
X15538597Y19651754D01*
X15546068Y19646781D01*
X15554632Y19644105D01*
X15554635Y19644104D01*
X15673059Y19607105D01*
X15673063Y19607104D01*
X15681626Y19604429D01*
X15726932Y19603599D01*
X15794674Y19582352D01*
X15840176Y19527854D01*
X15849123Y19458236D01*
X15844886Y19431025D01*
X15842323Y19414562D01*
X15839127Y19394039D01*
X15840291Y19385138D01*
X15840291Y19385134D01*
X15853198Y19286435D01*
X15857542Y19253219D01*
X15914740Y19123226D01*
X15937679Y19095937D01*
X15986842Y19037451D01*
X16006123Y19014513D01*
X16013594Y19009540D01*
X16013595Y19009539D01*
X16116873Y18940791D01*
X16116875Y18940790D01*
X16124346Y18935817D01*
X16132910Y18933141D01*
X16132913Y18933140D01*
X16251337Y18896141D01*
X16251341Y18896140D01*
X16259904Y18893465D01*
X16328441Y18892209D01*
X16392924Y18891027D01*
X16392927Y18891027D01*
X16401900Y18890863D01*
X16444126Y18902375D01*
X16530257Y18925857D01*
X16530260Y18925858D01*
X16538919Y18928219D01*
X16659946Y19002529D01*
X16666292Y19009539D01*
X16749223Y19101161D01*
X16749224Y19101162D01*
X16755251Y19107821D01*
X16766697Y19131444D01*
X16813260Y19227551D01*
X16813260Y19227552D01*
X16817174Y19235630D01*
X16832730Y19328097D01*
X16863756Y19391954D01*
X16924382Y19428901D01*
X16995358Y19427206D01*
X17054151Y19387408D01*
X17072313Y19357938D01*
X17091228Y19314951D01*
X17100752Y19293306D01*
X17192135Y19184593D01*
X17199606Y19179620D01*
X17199607Y19179619D01*
X17302885Y19110871D01*
X17302887Y19110870D01*
X17310358Y19105897D01*
X17318922Y19103221D01*
X17318925Y19103220D01*
X17437349Y19066221D01*
X17437353Y19066220D01*
X17445916Y19063545D01*
X17514453Y19062289D01*
X17578936Y19061107D01*
X17578939Y19061107D01*
X17587912Y19060943D01*
X17630138Y19072455D01*
X17716269Y19095937D01*
X17716272Y19095938D01*
X17724931Y19098299D01*
X17740440Y19107821D01*
X17838306Y19167911D01*
X17845958Y19172609D01*
X17852304Y19179619D01*
X17935235Y19271241D01*
X17935236Y19271242D01*
X17941263Y19277901D01*
X17952709Y19301524D01*
X17999272Y19397631D01*
X17999272Y19397632D01*
X18003186Y19405710D01*
X18025340Y19537391D01*
X18025941Y19540964D01*
X18025941Y19540967D01*
X18026748Y19545762D01*
X18026898Y19558000D01*
X18014184Y19646781D01*
X18008038Y19689699D01*
X18008037Y19689702D01*
X18006765Y19698585D01*
X18002406Y19708172D01*
X17951700Y19819695D01*
X17951698Y19819698D01*
X17947983Y19827869D01*
X17863325Y19926119D01*
X26719139Y19926119D01*
X26720303Y19917218D01*
X26720303Y19917214D01*
X26736002Y19797168D01*
X26737554Y19785299D01*
X26794752Y19655306D01*
X26821564Y19623409D01*
X26879235Y19554802D01*
X26886135Y19546593D01*
X26893606Y19541620D01*
X26893607Y19541619D01*
X26996885Y19472871D01*
X26996887Y19472870D01*
X27004358Y19467897D01*
X27012922Y19465221D01*
X27012925Y19465220D01*
X27131349Y19428221D01*
X27131353Y19428220D01*
X27139916Y19425545D01*
X27208453Y19424289D01*
X27272936Y19423107D01*
X27272939Y19423107D01*
X27281912Y19422943D01*
X27324138Y19434455D01*
X27410269Y19457937D01*
X27410272Y19457938D01*
X27418931Y19460299D01*
X27480029Y19497813D01*
X42743100Y19497813D01*
X42743100Y17870187D01*
X42782539Y17748807D01*
X42788369Y17740783D01*
X42848734Y17657699D01*
X42857556Y17645556D01*
X42960807Y17570539D01*
X43082187Y17531100D01*
X45309813Y17531100D01*
X45431193Y17570539D01*
X45534444Y17645556D01*
X45543267Y17657699D01*
X45603631Y17740783D01*
X45609461Y17748807D01*
X45648900Y17870187D01*
X45648900Y19497813D01*
X45609461Y19619193D01*
X45534444Y19722444D01*
X45431193Y19797461D01*
X45309813Y19836900D01*
X43082187Y19836900D01*
X42960807Y19797461D01*
X42857556Y19722444D01*
X42782539Y19619193D01*
X42743100Y19497813D01*
X27480029Y19497813D01*
X27539958Y19534609D01*
X27546304Y19541619D01*
X27629235Y19633241D01*
X27629236Y19633242D01*
X27635263Y19639901D01*
X27639690Y19649037D01*
X27693272Y19759631D01*
X27693272Y19759632D01*
X27697186Y19767710D01*
X27713246Y19863169D01*
X27719941Y19902964D01*
X27719941Y19902967D01*
X27720748Y19907762D01*
X27720898Y19920000D01*
X27707622Y20012704D01*
X27702038Y20051699D01*
X27702037Y20051702D01*
X27700765Y20060585D01*
X27696205Y20070615D01*
X27645700Y20181695D01*
X27645698Y20181698D01*
X27641983Y20189869D01*
X27549278Y20297458D01*
X27540415Y20303203D01*
X27437634Y20369823D01*
X27437632Y20369824D01*
X27430103Y20374704D01*
X27421506Y20377275D01*
X27421504Y20377276D01*
X27309388Y20410805D01*
X27294037Y20415396D01*
X27285061Y20415451D01*
X27285060Y20415451D01*
X27225751Y20415813D01*
X27152020Y20416264D01*
X27113679Y20405306D01*
X27024099Y20379704D01*
X27024098Y20379703D01*
X27015468Y20377237D01*
X26895358Y20301453D01*
X26801346Y20195004D01*
X26740989Y20066448D01*
X26739609Y20057583D01*
X26739608Y20057581D01*
X26721354Y19940342D01*
X26719139Y19926119D01*
X17863325Y19926119D01*
X17855278Y19935458D01*
X17810961Y19964183D01*
X17743634Y20007823D01*
X17743632Y20007824D01*
X17736103Y20012704D01*
X17727506Y20015275D01*
X17727504Y20015276D01*
X17647132Y20039312D01*
X17600037Y20053396D01*
X17591060Y20053451D01*
X17591059Y20053451D01*
X17567554Y20053595D01*
X17499557Y20074014D01*
X17453394Y20127954D01*
X17444072Y20200497D01*
X17454431Y20262070D01*
X17454431Y20262073D01*
X17455238Y20266868D01*
X17455388Y20279106D01*
X17442021Y20372448D01*
X17436528Y20410805D01*
X17436527Y20410808D01*
X17435255Y20419691D01*
X17412590Y20469540D01*
X17380190Y20540801D01*
X17380188Y20540804D01*
X17376473Y20548975D01*
X17283768Y20656564D01*
X17274417Y20662625D01*
X17253599Y20676119D01*
X30519139Y20676119D01*
X30520303Y20667218D01*
X30520303Y20667214D01*
X30536390Y20544198D01*
X30537554Y20535299D01*
X30594752Y20405306D01*
X30616273Y20379704D01*
X30679235Y20304802D01*
X30686135Y20296593D01*
X30693606Y20291620D01*
X30693607Y20291619D01*
X30796885Y20222871D01*
X30796887Y20222870D01*
X30804358Y20217897D01*
X30812922Y20215221D01*
X30812925Y20215220D01*
X30931349Y20178221D01*
X30931353Y20178220D01*
X30939916Y20175545D01*
X31008453Y20174289D01*
X31072936Y20173107D01*
X31072939Y20173107D01*
X31081912Y20172943D01*
X31133025Y20186878D01*
X31210269Y20207937D01*
X31210272Y20207938D01*
X31218931Y20210299D01*
X31339958Y20284609D01*
X31346304Y20291619D01*
X31429235Y20383241D01*
X31429236Y20383242D01*
X31435263Y20389901D01*
X31446709Y20413524D01*
X31493272Y20509631D01*
X31493272Y20509632D01*
X31497186Y20517710D01*
X31520748Y20657762D01*
X31520898Y20670000D01*
X31506301Y20771929D01*
X31502038Y20801699D01*
X31502037Y20801702D01*
X31500765Y20810585D01*
X31441983Y20939869D01*
X31349278Y21047458D01*
X31335728Y21056241D01*
X31237634Y21119823D01*
X31237632Y21119824D01*
X31230103Y21124704D01*
X31221506Y21127275D01*
X31221504Y21127276D01*
X31141132Y21151312D01*
X31094037Y21165396D01*
X31085061Y21165451D01*
X31085060Y21165451D01*
X31025751Y21165813D01*
X30952020Y21166264D01*
X30883744Y21146750D01*
X30824099Y21129704D01*
X30824098Y21129703D01*
X30815468Y21127237D01*
X30695358Y21051453D01*
X30601346Y20945004D01*
X30540989Y20816448D01*
X30539609Y20807583D01*
X30539608Y20807581D01*
X30527362Y20728929D01*
X30519139Y20676119D01*
X17253599Y20676119D01*
X17172124Y20728929D01*
X17172122Y20728930D01*
X17164593Y20733810D01*
X17155996Y20736381D01*
X17155994Y20736382D01*
X17075622Y20760418D01*
X17028527Y20774502D01*
X17019551Y20774557D01*
X17019550Y20774557D01*
X16960241Y20774919D01*
X16886510Y20775370D01*
X16818234Y20755856D01*
X16758589Y20738810D01*
X16758588Y20738809D01*
X16749958Y20736343D01*
X16742368Y20731554D01*
X16640396Y20667214D01*
X16629848Y20660559D01*
X16535836Y20554110D01*
X16475479Y20425554D01*
X16474099Y20416689D01*
X16474098Y20416687D01*
X16459277Y20321499D01*
X16429032Y20257266D01*
X16368863Y20219582D01*
X16297871Y20220410D01*
X16238596Y20259488D01*
X16220076Y20288733D01*
X16187410Y20360579D01*
X16187408Y20360582D01*
X16183693Y20368753D01*
X16090988Y20476342D01*
X16013509Y20526562D01*
X15979344Y20548707D01*
X15979342Y20548708D01*
X15971813Y20553588D01*
X15963216Y20556159D01*
X15963214Y20556160D01*
X15882842Y20580196D01*
X15835747Y20594280D01*
X15826771Y20594335D01*
X15826770Y20594335D01*
X15767461Y20594697D01*
X15693730Y20595148D01*
X15625454Y20575635D01*
X15565809Y20558588D01*
X15565808Y20558587D01*
X15557178Y20556121D01*
X15437068Y20480337D01*
X15343056Y20373888D01*
X15282699Y20245332D01*
X15281319Y20236467D01*
X15281318Y20236465D01*
X15265496Y20134848D01*
X15235251Y20070615D01*
X15175082Y20032931D01*
X15104090Y20033759D01*
X15044815Y20072837D01*
X15042191Y20076394D01*
X15040881Y20079275D01*
X15035210Y20085856D01*
X15035206Y20085862D01*
X14954037Y20180062D01*
X14948176Y20186864D01*
X14912021Y20210299D01*
X14836532Y20259229D01*
X14836530Y20259230D01*
X14829001Y20264110D01*
X14820404Y20266681D01*
X14820402Y20266682D01*
X14704133Y20301453D01*
X14692935Y20304802D01*
X14683959Y20304857D01*
X14683958Y20304857D01*
X14624649Y20305219D01*
X14550918Y20305670D01*
X14491657Y20288733D01*
X14422997Y20269110D01*
X14422996Y20269109D01*
X14414366Y20266643D01*
X14406776Y20261854D01*
X14332866Y20215220D01*
X14294256Y20190859D01*
X14200244Y20084410D01*
X14139887Y19955854D01*
X14138507Y19946989D01*
X14138506Y19946987D01*
X14128728Y19884184D01*
X14118037Y19815525D01*
X152400Y19815525D01*
X152400Y22358119D01*
X12199139Y22358119D01*
X12200303Y22349218D01*
X12200303Y22349214D01*
X12216390Y22226198D01*
X12217554Y22217299D01*
X12274752Y22087306D01*
X12366135Y21978593D01*
X12373606Y21973620D01*
X12373607Y21973619D01*
X12476885Y21904871D01*
X12476887Y21904870D01*
X12484358Y21899897D01*
X12492922Y21897221D01*
X12492925Y21897220D01*
X12611349Y21860221D01*
X12611353Y21860220D01*
X12619916Y21857545D01*
X12688453Y21856289D01*
X12752936Y21855107D01*
X12752939Y21855107D01*
X12761912Y21854943D01*
X12804138Y21866455D01*
X12890269Y21889937D01*
X12890272Y21889938D01*
X12898931Y21892299D01*
X13019958Y21966609D01*
X13026304Y21973619D01*
X13109235Y22065241D01*
X13109236Y22065242D01*
X13115263Y22071901D01*
X13126709Y22095524D01*
X13173272Y22191631D01*
X13173272Y22191632D01*
X13177186Y22199710D01*
X13197862Y22322608D01*
X27654387Y22322608D01*
X27655551Y22313707D01*
X27655551Y22313703D01*
X27670458Y22199710D01*
X27672802Y22181788D01*
X27730000Y22051795D01*
X27748548Y22029730D01*
X27805556Y21961911D01*
X27821383Y21943082D01*
X27828854Y21938109D01*
X27828855Y21938108D01*
X27932133Y21869360D01*
X27932135Y21869359D01*
X27939606Y21864386D01*
X27948170Y21861710D01*
X27948173Y21861709D01*
X28066597Y21824710D01*
X28066601Y21824709D01*
X28075164Y21822034D01*
X28143701Y21820778D01*
X28208184Y21819596D01*
X28208187Y21819596D01*
X28217160Y21819432D01*
X28259386Y21830944D01*
X28345517Y21854426D01*
X28345520Y21854427D01*
X28354179Y21856788D01*
X28475206Y21931098D01*
X28481552Y21938108D01*
X28564483Y22029730D01*
X28564484Y22029731D01*
X28570511Y22036390D01*
X28581957Y22060013D01*
X28628520Y22156120D01*
X28628520Y22156121D01*
X28632434Y22164199D01*
X28655996Y22304251D01*
X28656146Y22316489D01*
X28636013Y22457074D01*
X28629654Y22471060D01*
X28580948Y22578184D01*
X28580946Y22578187D01*
X28577231Y22586358D01*
X28484526Y22693947D01*
X28429740Y22729458D01*
X28372882Y22766312D01*
X28372880Y22766313D01*
X28365351Y22771193D01*
X28356754Y22773764D01*
X28356752Y22773765D01*
X28238139Y22809237D01*
X28229285Y22811885D01*
X28220309Y22811940D01*
X28220308Y22811940D01*
X28160999Y22812302D01*
X28087268Y22812753D01*
X28058210Y22804448D01*
X27959347Y22776193D01*
X27959346Y22776192D01*
X27950716Y22773726D01*
X27943126Y22768937D01*
X27876226Y22726726D01*
X27830606Y22697942D01*
X27736594Y22591493D01*
X27676237Y22462937D01*
X27674857Y22454072D01*
X27674856Y22454070D01*
X27656311Y22334964D01*
X27654387Y22322608D01*
X13197862Y22322608D01*
X13200748Y22339762D01*
X13200898Y22352000D01*
X13186281Y22454070D01*
X13182038Y22483699D01*
X13182037Y22483702D01*
X13180765Y22492585D01*
X13166962Y22522943D01*
X13125700Y22613695D01*
X13125698Y22613698D01*
X13121983Y22621869D01*
X13029278Y22729458D01*
X12968370Y22768937D01*
X12917634Y22801823D01*
X12917632Y22801824D01*
X12910103Y22806704D01*
X12901506Y22809275D01*
X12901504Y22809276D01*
X12821132Y22833312D01*
X12774037Y22847396D01*
X12765061Y22847451D01*
X12765060Y22847451D01*
X12705751Y22847813D01*
X12632020Y22848264D01*
X12563744Y22828750D01*
X12504099Y22811704D01*
X12504098Y22811703D01*
X12495468Y22809237D01*
X12487878Y22804448D01*
X12398390Y22747985D01*
X12375358Y22733453D01*
X12281346Y22627004D01*
X12220989Y22498448D01*
X12219609Y22489583D01*
X12219608Y22489581D01*
X12214547Y22457074D01*
X12199139Y22358119D01*
X152400Y22358119D01*
X152400Y23026119D01*
X23969139Y23026119D01*
X23970303Y23017218D01*
X23970303Y23017214D01*
X23986390Y22894198D01*
X23987554Y22885299D01*
X24044752Y22755306D01*
X24136135Y22646593D01*
X24143606Y22641620D01*
X24143607Y22641619D01*
X24246885Y22572871D01*
X24246887Y22572870D01*
X24254358Y22567897D01*
X24262922Y22565221D01*
X24262925Y22565220D01*
X24381349Y22528221D01*
X24381353Y22528220D01*
X24389916Y22525545D01*
X24458453Y22524289D01*
X24522936Y22523107D01*
X24522939Y22523107D01*
X24531912Y22522943D01*
X24574138Y22534455D01*
X24660269Y22557937D01*
X24660272Y22557938D01*
X24668931Y22560299D01*
X24706502Y22583367D01*
X24764337Y22618878D01*
X24789958Y22634609D01*
X24796304Y22641619D01*
X24879235Y22733241D01*
X24879236Y22733242D01*
X24885263Y22739901D01*
X24896709Y22763524D01*
X24943272Y22859631D01*
X24943272Y22859632D01*
X24947186Y22867710D01*
X24970748Y23007762D01*
X24970898Y23020000D01*
X24950765Y23160585D01*
X24944406Y23174571D01*
X24895700Y23281695D01*
X24895698Y23281698D01*
X24891983Y23289869D01*
X24799278Y23397458D01*
X24776310Y23412345D01*
X24687634Y23469823D01*
X24687632Y23469824D01*
X24680103Y23474704D01*
X24671506Y23477275D01*
X24671504Y23477276D01*
X24561080Y23510299D01*
X24544037Y23515396D01*
X24535061Y23515451D01*
X24535060Y23515451D01*
X24475751Y23515813D01*
X24402020Y23516264D01*
X24372885Y23507937D01*
X24274099Y23479704D01*
X24274098Y23479703D01*
X24265468Y23477237D01*
X24257878Y23472448D01*
X24162621Y23412345D01*
X24145358Y23401453D01*
X24051346Y23295004D01*
X23990989Y23166448D01*
X23969139Y23026119D01*
X152400Y23026119D01*
X152400Y23976119D01*
X16169139Y23976119D01*
X16170303Y23967218D01*
X16170303Y23967214D01*
X16186022Y23847015D01*
X16187554Y23835299D01*
X16244752Y23705306D01*
X16336135Y23596593D01*
X16343606Y23591620D01*
X16343607Y23591619D01*
X16446885Y23522871D01*
X16446887Y23522870D01*
X16454358Y23517897D01*
X16462922Y23515221D01*
X16462925Y23515220D01*
X16581349Y23478221D01*
X16581353Y23478220D01*
X16589916Y23475545D01*
X16658453Y23474289D01*
X16722936Y23473107D01*
X16722939Y23473107D01*
X16731912Y23472943D01*
X16774138Y23484455D01*
X16860269Y23507937D01*
X16860272Y23507938D01*
X16868931Y23510299D01*
X16877233Y23515396D01*
X16946202Y23557743D01*
X16989958Y23584609D01*
X16996304Y23591619D01*
X17079235Y23683241D01*
X17079236Y23683242D01*
X17085263Y23689901D01*
X17089460Y23698563D01*
X27969139Y23698563D01*
X27970303Y23689662D01*
X27970303Y23689658D01*
X27984655Y23579911D01*
X27987554Y23557743D01*
X28044752Y23427750D01*
X28136135Y23319037D01*
X28143606Y23314064D01*
X28143607Y23314063D01*
X28246885Y23245315D01*
X28246887Y23245314D01*
X28254358Y23240341D01*
X28262922Y23237665D01*
X28262925Y23237664D01*
X28381349Y23200665D01*
X28381353Y23200664D01*
X28389916Y23197989D01*
X28458453Y23196733D01*
X28522936Y23195551D01*
X28522939Y23195551D01*
X28531912Y23195387D01*
X28574138Y23206899D01*
X28660269Y23230381D01*
X28660272Y23230382D01*
X28668931Y23232743D01*
X28789958Y23307053D01*
X28796304Y23314063D01*
X28879235Y23405685D01*
X28879236Y23405686D01*
X28885263Y23412345D01*
X28896709Y23435968D01*
X28943272Y23532075D01*
X28943272Y23532076D01*
X28947186Y23540154D01*
X28970748Y23680206D01*
X28970898Y23692444D01*
X28950765Y23833029D01*
X28945687Y23844198D01*
X28903343Y23937330D01*
X33852160Y23937330D01*
X33857887Y23929680D01*
X34029042Y23824795D01*
X34037837Y23820313D01*
X34247988Y23733266D01*
X34257373Y23730217D01*
X34478554Y23677115D01*
X34488301Y23675572D01*
X34715070Y23657725D01*
X34724930Y23657725D01*
X34951699Y23675572D01*
X34961446Y23677115D01*
X35182627Y23730217D01*
X35192012Y23733266D01*
X35402163Y23820313D01*
X35410958Y23824795D01*
X35578445Y23927432D01*
X35587907Y23937890D01*
X35584124Y23946666D01*
X34732812Y24797978D01*
X34718868Y24805592D01*
X34717035Y24805461D01*
X34710420Y24801210D01*
X33858920Y23949710D01*
X33852160Y23937330D01*
X28903343Y23937330D01*
X28895700Y23954139D01*
X28895698Y23954142D01*
X28891983Y23962313D01*
X28799278Y24069902D01*
X28741147Y24107581D01*
X28687634Y24142267D01*
X28687632Y24142268D01*
X28680103Y24147148D01*
X28671506Y24149719D01*
X28671504Y24149720D01*
X28591132Y24173756D01*
X28544037Y24187840D01*
X28535061Y24187895D01*
X28535060Y24187895D01*
X28475751Y24188257D01*
X28402020Y24188708D01*
X28333744Y24169194D01*
X28274099Y24152148D01*
X28274098Y24152147D01*
X28265468Y24149681D01*
X28257878Y24144892D01*
X28158825Y24082394D01*
X28145358Y24073897D01*
X28051346Y23967448D01*
X27990989Y23838892D01*
X27989609Y23830027D01*
X27989608Y23830025D01*
X27970938Y23710115D01*
X27969139Y23698563D01*
X17089460Y23698563D01*
X17090894Y23701522D01*
X17143272Y23809631D01*
X17143272Y23809632D01*
X17147186Y23817710D01*
X17168881Y23946666D01*
X17169941Y23952964D01*
X17169941Y23952967D01*
X17170748Y23957762D01*
X17170898Y23970000D01*
X17157565Y24063100D01*
X17152038Y24101699D01*
X17152037Y24101702D01*
X17150765Y24110585D01*
X17132989Y24149681D01*
X17095700Y24231695D01*
X17095698Y24231698D01*
X17091983Y24239869D01*
X16999278Y24347458D01*
X16991743Y24352342D01*
X16887634Y24419823D01*
X16887632Y24419824D01*
X16880103Y24424704D01*
X16871506Y24427275D01*
X16871504Y24427276D01*
X16777776Y24455306D01*
X16744037Y24465396D01*
X16735061Y24465451D01*
X16735060Y24465451D01*
X16675751Y24465813D01*
X16602020Y24466264D01*
X16563679Y24455306D01*
X16474099Y24429704D01*
X16474098Y24429703D01*
X16465468Y24427237D01*
X16345358Y24351453D01*
X16251346Y24245004D01*
X16190989Y24116448D01*
X16189609Y24107583D01*
X16189608Y24107581D01*
X16183742Y24069902D01*
X16169139Y23976119D01*
X152400Y23976119D01*
X152400Y24726119D01*
X14419139Y24726119D01*
X14420303Y24717218D01*
X14420303Y24717214D01*
X14436390Y24594198D01*
X14437554Y24585299D01*
X14494752Y24455306D01*
X14586135Y24346593D01*
X14593606Y24341620D01*
X14593607Y24341619D01*
X14696885Y24272871D01*
X14696887Y24272870D01*
X14704358Y24267897D01*
X14712922Y24265221D01*
X14712925Y24265220D01*
X14831349Y24228221D01*
X14831353Y24228220D01*
X14839916Y24225545D01*
X14908453Y24224289D01*
X14972936Y24223107D01*
X14972939Y24223107D01*
X14981912Y24222943D01*
X15033025Y24236878D01*
X15110269Y24257937D01*
X15110272Y24257938D01*
X15118931Y24260299D01*
X15239958Y24334609D01*
X15246304Y24341619D01*
X15329235Y24433241D01*
X15329236Y24433242D01*
X15335263Y24439901D01*
X15346709Y24463524D01*
X15393272Y24559631D01*
X15393272Y24559632D01*
X15397186Y24567710D01*
X15420748Y24707762D01*
X15420898Y24720000D01*
X15408659Y24805461D01*
X15402038Y24851699D01*
X15402037Y24851702D01*
X15400765Y24860585D01*
X15394406Y24874571D01*
X15345700Y24981695D01*
X15345698Y24981698D01*
X15341983Y24989869D01*
X15249278Y25097458D01*
X15249919Y25098010D01*
X15215761Y25151549D01*
X15215838Y25174930D01*
X33207725Y25174930D01*
X33207725Y25165070D01*
X33225572Y24938301D01*
X33227115Y24928554D01*
X33280217Y24707373D01*
X33283266Y24697988D01*
X33370313Y24487837D01*
X33374795Y24479042D01*
X33477432Y24311555D01*
X33487890Y24302093D01*
X33496666Y24305876D01*
X34347978Y25157188D01*
X34354356Y25168868D01*
X35084408Y25168868D01*
X35084539Y25167035D01*
X35088790Y25160420D01*
X35940290Y24308920D01*
X35952670Y24302160D01*
X35960320Y24307887D01*
X36065205Y24479042D01*
X36069687Y24487837D01*
X36156734Y24697988D01*
X36159783Y24707373D01*
X36212885Y24928554D01*
X36214428Y24938301D01*
X36229708Y25132452D01*
X42234000Y25132452D01*
X42234000Y24155328D01*
X42234369Y24148514D01*
X42239895Y24097649D01*
X42243522Y24082394D01*
X42288676Y23961946D01*
X42297214Y23946351D01*
X42373715Y23844276D01*
X42386276Y23831715D01*
X42488351Y23755214D01*
X42503946Y23746676D01*
X42624394Y23701522D01*
X42639649Y23697895D01*
X42690514Y23692369D01*
X42697328Y23692000D01*
X43669885Y23692000D01*
X43685124Y23696475D01*
X43686329Y23697865D01*
X43688000Y23705548D01*
X43688000Y25127885D01*
X43686659Y25132452D01*
X44196000Y25132452D01*
X44196000Y23710115D01*
X44200475Y23694876D01*
X44201865Y23693671D01*
X44209548Y23692000D01*
X45186672Y23692000D01*
X45193486Y23692369D01*
X45244351Y23697895D01*
X45259606Y23701522D01*
X45380054Y23746676D01*
X45395649Y23755214D01*
X45497724Y23831715D01*
X45510285Y23844276D01*
X45586786Y23946351D01*
X45595324Y23961946D01*
X45640478Y24082394D01*
X45644105Y24097649D01*
X45649631Y24148514D01*
X45650000Y24155328D01*
X45650000Y25127885D01*
X45645525Y25143124D01*
X45644135Y25144329D01*
X45636452Y25146000D01*
X44214115Y25146000D01*
X44198876Y25141525D01*
X44197671Y25140135D01*
X44196000Y25132452D01*
X43686659Y25132452D01*
X43683525Y25143124D01*
X43682135Y25144329D01*
X43674452Y25146000D01*
X42252115Y25146000D01*
X42236876Y25141525D01*
X42235671Y25140135D01*
X42234000Y25132452D01*
X36229708Y25132452D01*
X36232275Y25165070D01*
X36232275Y25174930D01*
X36214428Y25401699D01*
X36212885Y25411446D01*
X36159783Y25632627D01*
X36156734Y25642012D01*
X36069687Y25852163D01*
X36065205Y25860958D01*
X35962568Y26028445D01*
X35952110Y26037907D01*
X35943334Y26034124D01*
X35092022Y25182812D01*
X35084408Y25168868D01*
X34354356Y25168868D01*
X34355592Y25171132D01*
X34355461Y25172965D01*
X34351210Y25179580D01*
X33499710Y26031080D01*
X33487330Y26037840D01*
X33479680Y26032113D01*
X33374795Y25860958D01*
X33370313Y25852163D01*
X33283266Y25642012D01*
X33280217Y25632627D01*
X33227115Y25411446D01*
X33225572Y25401699D01*
X33207725Y25174930D01*
X15215838Y25174930D01*
X15215996Y25222545D01*
X15243357Y25271200D01*
X15337753Y25375488D01*
X15349199Y25399111D01*
X15395762Y25495218D01*
X15395762Y25495219D01*
X15399676Y25503297D01*
X15423238Y25643349D01*
X15423388Y25655587D01*
X15403255Y25796172D01*
X15396896Y25810158D01*
X15348190Y25917282D01*
X15348188Y25917285D01*
X15344473Y25925456D01*
X15251768Y26033045D01*
X15238218Y26041828D01*
X15140124Y26105410D01*
X15140122Y26105411D01*
X15132593Y26110291D01*
X15123996Y26112862D01*
X15123994Y26112863D01*
X15043622Y26136899D01*
X14996527Y26150983D01*
X14987551Y26151038D01*
X14987550Y26151038D01*
X14928241Y26151400D01*
X14854510Y26151851D01*
X14786234Y26132337D01*
X14726589Y26115291D01*
X14726588Y26115290D01*
X14717958Y26112824D01*
X14597848Y26037040D01*
X14503836Y25930591D01*
X14443479Y25802035D01*
X14442099Y25793170D01*
X14442098Y25793168D01*
X14423250Y25672115D01*
X14421629Y25661706D01*
X14422793Y25652805D01*
X14422793Y25652801D01*
X14438880Y25529785D01*
X14440044Y25520886D01*
X14497242Y25390893D01*
X14588625Y25282180D01*
X14591269Y25280420D01*
X14627179Y25222584D01*
X14626074Y25151596D01*
X14593854Y25102781D01*
X14595358Y25101453D01*
X14501346Y24995004D01*
X14440989Y24866448D01*
X14439609Y24857583D01*
X14439608Y24857581D01*
X14430328Y24797978D01*
X14419139Y24726119D01*
X152400Y24726119D01*
X152400Y26402110D01*
X33852093Y26402110D01*
X33855876Y26393334D01*
X34707188Y25542022D01*
X34721132Y25534408D01*
X34722965Y25534539D01*
X34729580Y25538790D01*
X35581080Y26390290D01*
X35587840Y26402670D01*
X35582113Y26410320D01*
X35410958Y26515205D01*
X35402163Y26519687D01*
X35192012Y26606734D01*
X35182627Y26609783D01*
X35037307Y26644672D01*
X42234000Y26644672D01*
X42234000Y25672115D01*
X42238475Y25656876D01*
X42239865Y25655671D01*
X42247548Y25654000D01*
X43669885Y25654000D01*
X43685124Y25658475D01*
X43686329Y25659865D01*
X43688000Y25667548D01*
X43688000Y27089885D01*
X43686659Y27094452D01*
X44196000Y27094452D01*
X44196000Y25672115D01*
X44200475Y25656876D01*
X44201865Y25655671D01*
X44209548Y25654000D01*
X45631885Y25654000D01*
X45647124Y25658475D01*
X45648329Y25659865D01*
X45650000Y25667548D01*
X45650000Y26644672D01*
X45649631Y26651486D01*
X45644105Y26702351D01*
X45640478Y26717606D01*
X45595324Y26838054D01*
X45586786Y26853649D01*
X45510285Y26955724D01*
X45497724Y26968285D01*
X45395649Y27044786D01*
X45380054Y27053324D01*
X45259606Y27098478D01*
X45244351Y27102105D01*
X45193486Y27107631D01*
X45186672Y27108000D01*
X44214115Y27108000D01*
X44198876Y27103525D01*
X44197671Y27102135D01*
X44196000Y27094452D01*
X43686659Y27094452D01*
X43683525Y27105124D01*
X43682135Y27106329D01*
X43674452Y27108000D01*
X42697328Y27108000D01*
X42690514Y27107631D01*
X42639649Y27102105D01*
X42624394Y27098478D01*
X42503946Y27053324D01*
X42488351Y27044786D01*
X42386276Y26968285D01*
X42373715Y26955724D01*
X42297214Y26853649D01*
X42288676Y26838054D01*
X42243522Y26717606D01*
X42239895Y26702351D01*
X42234369Y26651486D01*
X42234000Y26644672D01*
X35037307Y26644672D01*
X34961446Y26662885D01*
X34951699Y26664428D01*
X34724930Y26682275D01*
X34715070Y26682275D01*
X34488301Y26664428D01*
X34478554Y26662885D01*
X34257373Y26609783D01*
X34247988Y26606734D01*
X34037837Y26519687D01*
X34029042Y26515205D01*
X33861555Y26412568D01*
X33852093Y26402110D01*
X152400Y26402110D01*
X152400Y28726119D01*
X12669139Y28726119D01*
X12670303Y28717218D01*
X12670303Y28717214D01*
X12686390Y28594198D01*
X12687554Y28585299D01*
X12744752Y28455306D01*
X12836135Y28346593D01*
X12867865Y28325472D01*
X12913487Y28271074D01*
X12922457Y28200646D01*
X12891928Y28136549D01*
X12865280Y28114023D01*
X12845358Y28101453D01*
X12751346Y27995004D01*
X12690989Y27866448D01*
X12689609Y27857583D01*
X12689608Y27857581D01*
X12678770Y27787971D01*
X12669139Y27726119D01*
X12670303Y27717218D01*
X12670303Y27717214D01*
X12686390Y27594198D01*
X12687554Y27585299D01*
X12744752Y27455306D01*
X12836135Y27346593D01*
X12843606Y27341620D01*
X12843607Y27341619D01*
X12946885Y27272871D01*
X12946887Y27272870D01*
X12954358Y27267897D01*
X12962922Y27265221D01*
X12962925Y27265220D01*
X13081349Y27228221D01*
X13081353Y27228220D01*
X13089916Y27225545D01*
X13158453Y27224289D01*
X13222936Y27223107D01*
X13222939Y27223107D01*
X13231912Y27222943D01*
X13274138Y27234455D01*
X13360269Y27257937D01*
X13360272Y27257938D01*
X13368931Y27260299D01*
X13489958Y27334609D01*
X13496304Y27341619D01*
X13579235Y27433241D01*
X13579236Y27433242D01*
X13585263Y27439901D01*
X13596709Y27463524D01*
X13643272Y27559631D01*
X13643272Y27559632D01*
X13647186Y27567710D01*
X13670748Y27707762D01*
X13670898Y27720000D01*
X13650765Y27860585D01*
X13644406Y27874571D01*
X13595700Y27981695D01*
X13595698Y27981698D01*
X13591983Y27989869D01*
X13499278Y28097458D01*
X13474427Y28113566D01*
X13428143Y28167403D01*
X13418313Y28237716D01*
X13448058Y28302181D01*
X13477032Y28326673D01*
X13489958Y28334609D01*
X13500806Y28346593D01*
X13579235Y28433241D01*
X13579236Y28433242D01*
X13585263Y28439901D01*
X13596709Y28463524D01*
X13643272Y28559631D01*
X13643272Y28559632D01*
X13647186Y28567710D01*
X13670748Y28707762D01*
X13670898Y28720000D01*
X13655093Y28830363D01*
X13652038Y28851699D01*
X13652037Y28851702D01*
X13650765Y28860585D01*
X13620108Y28928012D01*
X13617764Y28933168D01*
X42584868Y28933168D01*
X42585165Y28928015D01*
X42585165Y28928012D01*
X42597159Y28720000D01*
X42597674Y28711067D01*
X42598811Y28706021D01*
X42598812Y28706015D01*
X42620862Y28608175D01*
X42646583Y28494041D01*
X42730282Y28287917D01*
X42846522Y28098231D01*
X42992181Y27930077D01*
X43163349Y27787971D01*
X43167801Y27785369D01*
X43167806Y27785366D01*
X43292288Y27712625D01*
X43355428Y27675729D01*
X43563259Y27596366D01*
X43568325Y27595335D01*
X43568326Y27595335D01*
X43660599Y27576562D01*
X43781262Y27552013D01*
X43905949Y27547440D01*
X43998418Y27544049D01*
X43998423Y27544049D01*
X44003582Y27543860D01*
X44224248Y27572128D01*
X44229199Y27573613D01*
X44229202Y27573614D01*
X44432384Y27634572D01*
X44432383Y27634572D01*
X44437334Y27636057D01*
X44583702Y27707762D01*
X44632466Y27731651D01*
X44632471Y27731654D01*
X44637117Y27733930D01*
X44641327Y27736933D01*
X44641332Y27736936D01*
X44814021Y27860114D01*
X44814026Y27860118D01*
X44818233Y27863119D01*
X44975816Y28020153D01*
X45026478Y28090656D01*
X45102618Y28196617D01*
X45105636Y28200817D01*
X45112842Y28215396D01*
X45201912Y28395615D01*
X45201913Y28395617D01*
X45204206Y28400257D01*
X45268878Y28613119D01*
X45269553Y28618245D01*
X45297479Y28830363D01*
X45297480Y28830369D01*
X45297916Y28833685D01*
X45298773Y28868754D01*
X45299455Y28896636D01*
X45299455Y28896640D01*
X45299537Y28900000D01*
X45281308Y29121721D01*
X45227111Y29337488D01*
X45138402Y29541505D01*
X45017563Y29728295D01*
X44867838Y29892840D01*
X44863787Y29896039D01*
X44863783Y29896043D01*
X44697308Y30027516D01*
X44693250Y30030721D01*
X44498486Y30138237D01*
X44376084Y30181582D01*
X44293652Y30210773D01*
X44293648Y30210774D01*
X44288777Y30212499D01*
X44283684Y30213406D01*
X44283681Y30213407D01*
X44074845Y30250606D01*
X44074839Y30250607D01*
X44069756Y30251512D01*
X43984263Y30252557D01*
X43852472Y30254167D01*
X43852470Y30254167D01*
X43847303Y30254230D01*
X43627394Y30220579D01*
X43415933Y30151463D01*
X43411345Y30149075D01*
X43411341Y30149073D01*
X43223190Y30051128D01*
X43218601Y30048739D01*
X43214468Y30045636D01*
X43214465Y30045634D01*
X43044831Y29918269D01*
X43040696Y29915164D01*
X42886996Y29754326D01*
X42761628Y29570544D01*
X42667961Y29368755D01*
X42659290Y29337488D01*
X42612793Y29169823D01*
X42608509Y29154377D01*
X42607960Y29149240D01*
X42590928Y28989869D01*
X42584868Y28933168D01*
X13617764Y28933168D01*
X13595700Y28981695D01*
X13595698Y28981698D01*
X13591983Y28989869D01*
X13499278Y29097458D01*
X13485728Y29106241D01*
X13387634Y29169823D01*
X13387632Y29169824D01*
X13380103Y29174704D01*
X13371506Y29177275D01*
X13371504Y29177276D01*
X13291132Y29201312D01*
X13244037Y29215396D01*
X13235061Y29215451D01*
X13235060Y29215451D01*
X13175751Y29215813D01*
X13102020Y29216264D01*
X13033744Y29196751D01*
X12974099Y29179704D01*
X12974098Y29179703D01*
X12965468Y29177237D01*
X12957878Y29172448D01*
X12877481Y29121721D01*
X12845358Y29101453D01*
X12751346Y28995004D01*
X12690989Y28866448D01*
X12689609Y28857583D01*
X12689608Y28857581D01*
X12685888Y28833685D01*
X12669139Y28726119D01*
X152400Y28726119D01*
X152400Y31502355D01*
X5851507Y31502355D01*
X5855051Y31460147D01*
X5866879Y31319303D01*
X5867965Y31306366D01*
X5869664Y31300441D01*
X5898385Y31200280D01*
X5922177Y31117306D01*
X5924992Y31111829D01*
X5924993Y31111826D01*
X5986774Y30991613D01*
X6012078Y30942377D01*
X6015901Y30937553D01*
X6015904Y30937549D01*
X6039813Y30907384D01*
X6134245Y30788241D01*
X6284024Y30660769D01*
X6289402Y30657763D01*
X6289404Y30657762D01*
X6325818Y30637411D01*
X6455709Y30564818D01*
X6642762Y30504041D01*
X6838057Y30480753D01*
X6844192Y30481225D01*
X6844194Y30481225D01*
X7028014Y30495369D01*
X7028018Y30495370D01*
X7034156Y30495842D01*
X7223590Y30548733D01*
X7229094Y30551513D01*
X7229096Y30551514D01*
X7393642Y30634632D01*
X7393644Y30634633D01*
X7399143Y30637411D01*
X7554128Y30758499D01*
X7558154Y30763163D01*
X7558157Y30763166D01*
X7678613Y30902716D01*
X7678614Y30902718D01*
X7682642Y30907384D01*
X7779790Y31078395D01*
X7827398Y31221508D01*
X7867878Y31279831D01*
X7933466Y31307011D01*
X8003337Y31294416D01*
X8055307Y31246046D01*
X8069872Y31209436D01*
X8097727Y31085839D01*
X8100807Y31076010D01*
X8180932Y30878682D01*
X8185575Y30869491D01*
X8296856Y30687897D01*
X8302939Y30679586D01*
X8442375Y30518618D01*
X8449742Y30511402D01*
X8613596Y30375369D01*
X8622043Y30369454D01*
X8805918Y30262006D01*
X8815204Y30257556D01*
X9014163Y30181582D01*
X9024061Y30178706D01*
X9127412Y30157679D01*
X9141461Y30158875D01*
X9145162Y30169220D01*
X9145162Y32803296D01*
X9653162Y32803296D01*
X9653162Y30169768D01*
X9657226Y30155926D01*
X9670640Y30153892D01*
X9677346Y30154751D01*
X9687424Y30156893D01*
X9891417Y30218094D01*
X9901004Y30221852D01*
X10092257Y30315546D01*
X10101107Y30320821D01*
X10274490Y30444493D01*
X10282362Y30451146D01*
X10433214Y30601473D01*
X10439892Y30609320D01*
X10564165Y30782265D01*
X10569475Y30791102D01*
X10663832Y30982018D01*
X10667631Y30991613D01*
X10729539Y31195374D01*
X10731112Y31202649D01*
X10765061Y31265003D01*
X10827332Y31299104D01*
X10898154Y31294125D01*
X10955041Y31251648D01*
X10975383Y31210748D01*
X11002177Y31117306D01*
X11004992Y31111829D01*
X11004993Y31111826D01*
X11066774Y30991613D01*
X11092078Y30942377D01*
X11095901Y30937553D01*
X11095904Y30937549D01*
X11119813Y30907384D01*
X11214245Y30788241D01*
X11364024Y30660769D01*
X11369402Y30657763D01*
X11369404Y30657762D01*
X11405818Y30637411D01*
X11535709Y30564818D01*
X11722762Y30504041D01*
X11918057Y30480753D01*
X11924192Y30481225D01*
X11924194Y30481225D01*
X12108014Y30495369D01*
X12108018Y30495370D01*
X12114156Y30495842D01*
X12303590Y30548733D01*
X12309094Y30551513D01*
X12309096Y30551514D01*
X12473642Y30634632D01*
X12473644Y30634633D01*
X12479143Y30637411D01*
X12634128Y30758499D01*
X12638154Y30763163D01*
X12638157Y30763166D01*
X12758613Y30902716D01*
X12758614Y30902718D01*
X12762642Y30907384D01*
X12859790Y31078395D01*
X12921872Y31265019D01*
X12946522Y31460147D01*
X12946915Y31488285D01*
X12927723Y31684025D01*
X12870876Y31872310D01*
X12778541Y32045967D01*
X12774651Y32050737D01*
X12774648Y32050741D01*
X12658129Y32193607D01*
X12658126Y32193610D01*
X12654234Y32198382D01*
X12637584Y32212156D01*
X12507440Y32319821D01*
X12507436Y32319823D01*
X12502690Y32323750D01*
X12419806Y32368565D01*
X13476236Y32368565D01*
X13476262Y32338285D01*
X13476262Y30608011D01*
X13476289Y30607738D01*
X13487465Y30580823D01*
X13494759Y30563259D01*
X13499616Y30551561D01*
X13542665Y30508588D01*
X13554135Y30503848D01*
X13554136Y30503848D01*
X13569499Y30497500D01*
X13598882Y30485359D01*
X13629162Y30485385D01*
X15359436Y30485385D01*
X15359709Y30485412D01*
X15388820Y30497500D01*
X15404428Y30503981D01*
X15404429Y30503981D01*
X15415886Y30508739D01*
X15458859Y30551788D01*
X15482088Y30608005D01*
X15482062Y30638285D01*
X15482062Y31200280D01*
X33567074Y31200280D01*
X33567100Y31170000D01*
X33567100Y29139726D01*
X33567127Y29139453D01*
X33572406Y29126740D01*
X33585597Y29094974D01*
X33590454Y29083276D01*
X33633503Y29040303D01*
X33689720Y29017074D01*
X33720000Y29017100D01*
X35750274Y29017100D01*
X35750547Y29017127D01*
X35777462Y29028303D01*
X35795266Y29035696D01*
X35795267Y29035696D01*
X35806724Y29040454D01*
X35849697Y29083503D01*
X35872926Y29139720D01*
X35872900Y29170000D01*
X35872900Y31200274D01*
X35872873Y31200547D01*
X35861697Y31227462D01*
X35854304Y31245266D01*
X35854304Y31245267D01*
X35849546Y31256724D01*
X35806497Y31299697D01*
X35750280Y31322926D01*
X35720000Y31322900D01*
X33689726Y31322900D01*
X33689453Y31322873D01*
X33680855Y31319303D01*
X33680856Y31319303D01*
X33645055Y31304437D01*
X33633276Y31299546D01*
X33590303Y31256497D01*
X33567074Y31200280D01*
X15482062Y31200280D01*
X15482062Y32368559D01*
X15482035Y32368832D01*
X15470859Y32395747D01*
X15463466Y32413551D01*
X15463466Y32413552D01*
X15458708Y32425009D01*
X15415659Y32467982D01*
X15401981Y32473634D01*
X15370913Y32486471D01*
X15370914Y32486471D01*
X15359442Y32491211D01*
X15329162Y32491185D01*
X13598888Y32491185D01*
X13598615Y32491158D01*
X13571700Y32479982D01*
X13554217Y32472722D01*
X13542438Y32467831D01*
X13499465Y32424782D01*
X13476236Y32368565D01*
X12419806Y32368565D01*
X12329682Y32417295D01*
X12141799Y32475455D01*
X12135681Y32476098D01*
X12135676Y32476099D01*
X11952326Y32495369D01*
X11952324Y32495369D01*
X11946197Y32496013D01*
X11863361Y32488475D01*
X11756467Y32478747D01*
X11756464Y32478746D01*
X11750328Y32478188D01*
X11561651Y32422657D01*
X11387354Y32331537D01*
X11234074Y32208297D01*
X11230116Y32203580D01*
X11230114Y32203578D01*
X11198277Y32165636D01*
X11107651Y32057632D01*
X11012901Y31885281D01*
X11011040Y31879414D01*
X11011039Y31879412D01*
X10972299Y31757288D01*
X10932635Y31698404D01*
X10867433Y31670312D01*
X10797394Y31681930D01*
X10744754Y31729569D01*
X10729993Y31764691D01*
X10690376Y31922410D01*
X10687056Y31932161D01*
X10602134Y32127471D01*
X10597267Y32136546D01*
X10481588Y32315359D01*
X10475298Y32323528D01*
X10331968Y32481045D01*
X10324435Y32488070D01*
X10157301Y32620063D01*
X10148714Y32625768D01*
X9962279Y32728686D01*
X9952867Y32732916D01*
X9752121Y32804005D01*
X9742150Y32806639D01*
X9670999Y32819313D01*
X9657702Y32817853D01*
X9653162Y32803296D01*
X9145162Y32803296D01*
X9145162Y32805183D01*
X9141244Y32818527D01*
X9126968Y32820514D01*
X9088486Y32814625D01*
X9078450Y32812234D01*
X8876030Y32746073D01*
X8866521Y32742076D01*
X8677625Y32643743D01*
X8668900Y32638249D01*
X8498595Y32510380D01*
X8490888Y32503537D01*
X8343752Y32349568D01*
X8337266Y32341558D01*
X8217260Y32165636D01*
X8212162Y32156662D01*
X8122500Y31963502D01*
X8118937Y31953815D01*
X8066367Y31764258D01*
X8028888Y31703960D01*
X7964759Y31673497D01*
X7894341Y31682541D01*
X7839991Y31728220D01*
X7824328Y31761512D01*
X7792657Y31866411D01*
X7790876Y31872310D01*
X7698541Y32045967D01*
X7694651Y32050737D01*
X7694648Y32050741D01*
X7578129Y32193607D01*
X7578126Y32193610D01*
X7574234Y32198382D01*
X7557584Y32212156D01*
X7427440Y32319821D01*
X7427436Y32319823D01*
X7422690Y32323750D01*
X7249682Y32417295D01*
X7061799Y32475455D01*
X7055681Y32476098D01*
X7055676Y32476099D01*
X6872326Y32495369D01*
X6872324Y32495369D01*
X6866197Y32496013D01*
X6783361Y32488475D01*
X6676467Y32478747D01*
X6676464Y32478746D01*
X6670328Y32478188D01*
X6481651Y32422657D01*
X6307354Y32331537D01*
X6154074Y32208297D01*
X6150116Y32203580D01*
X6150114Y32203578D01*
X6118277Y32165636D01*
X6027651Y32057632D01*
X5932901Y31885281D01*
X5931040Y31879414D01*
X5931039Y31879412D01*
X5928786Y31872310D01*
X5873431Y31697809D01*
X5851507Y31502355D01*
X152400Y31502355D01*
X152400Y33476119D01*
X13419139Y33476119D01*
X13420303Y33467218D01*
X13420303Y33467214D01*
X13436077Y33346593D01*
X13437554Y33335299D01*
X13494752Y33205306D01*
X13586135Y33096593D01*
X13593606Y33091620D01*
X13593607Y33091619D01*
X13696885Y33022871D01*
X13696887Y33022870D01*
X13704358Y33017897D01*
X13712922Y33015221D01*
X13712925Y33015220D01*
X13831349Y32978221D01*
X13831353Y32978220D01*
X13839916Y32975545D01*
X13908453Y32974289D01*
X13972936Y32973107D01*
X13972939Y32973107D01*
X13981912Y32972943D01*
X14025399Y32984799D01*
X14110269Y33007937D01*
X14110272Y33007938D01*
X14118931Y33010299D01*
X14239958Y33084609D01*
X14246304Y33091619D01*
X14329235Y33183241D01*
X14329236Y33183242D01*
X14335263Y33189901D01*
X14346709Y33213524D01*
X14393272Y33309631D01*
X14393272Y33309632D01*
X14397186Y33317710D01*
X14420748Y33457762D01*
X14420898Y33470000D01*
X14406905Y33567710D01*
X14402038Y33601699D01*
X14402037Y33601702D01*
X14400765Y33610585D01*
X14394406Y33624571D01*
X14348235Y33726119D01*
X15419139Y33726119D01*
X15420303Y33717218D01*
X15420303Y33717214D01*
X15435409Y33601699D01*
X15437554Y33585299D01*
X15494752Y33455306D01*
X15586135Y33346593D01*
X15593606Y33341620D01*
X15593607Y33341619D01*
X15696885Y33272871D01*
X15696887Y33272870D01*
X15704358Y33267897D01*
X15712922Y33265221D01*
X15712925Y33265220D01*
X15831349Y33228221D01*
X15831353Y33228220D01*
X15839916Y33225545D01*
X15908453Y33224289D01*
X15972936Y33223107D01*
X15972939Y33223107D01*
X15981912Y33222943D01*
X16024138Y33234455D01*
X16110269Y33257937D01*
X16110272Y33257938D01*
X16118931Y33260299D01*
X16162774Y33287218D01*
X16232306Y33329911D01*
X16239958Y33334609D01*
X16246304Y33341619D01*
X16329235Y33433241D01*
X16329236Y33433242D01*
X16335263Y33439901D01*
X16346709Y33463524D01*
X16393272Y33559631D01*
X16393272Y33559632D01*
X16397186Y33567710D01*
X16420748Y33707762D01*
X16420898Y33720000D01*
X16405284Y33829032D01*
X16402038Y33851699D01*
X16402037Y33851702D01*
X16400765Y33860585D01*
X16391372Y33881244D01*
X16345700Y33981695D01*
X16345698Y33981698D01*
X16341983Y33989869D01*
X16249278Y34097458D01*
X16142202Y34166862D01*
X16137634Y34169823D01*
X16137632Y34169824D01*
X16130103Y34174704D01*
X16121506Y34177275D01*
X16121504Y34177276D01*
X16035079Y34203122D01*
X15994037Y34215396D01*
X15985061Y34215451D01*
X15985060Y34215451D01*
X15925751Y34215813D01*
X15852020Y34216264D01*
X15788742Y34198179D01*
X15724099Y34179704D01*
X15724098Y34179703D01*
X15715468Y34177237D01*
X15595358Y34101453D01*
X15501346Y33995004D01*
X15440989Y33866448D01*
X15439609Y33857583D01*
X15439608Y33857581D01*
X15434521Y33824906D01*
X15419139Y33726119D01*
X14348235Y33726119D01*
X14345700Y33731695D01*
X14345698Y33731698D01*
X14341983Y33739869D01*
X14249278Y33847458D01*
X14181193Y33891589D01*
X14137634Y33919823D01*
X14137632Y33919824D01*
X14130103Y33924704D01*
X14121506Y33927275D01*
X14121504Y33927276D01*
X14041132Y33951312D01*
X13994037Y33965396D01*
X13985061Y33965451D01*
X13985060Y33965451D01*
X13925751Y33965813D01*
X13852020Y33966264D01*
X13785674Y33947302D01*
X13724099Y33929704D01*
X13724098Y33929703D01*
X13715468Y33927237D01*
X13707878Y33922448D01*
X13619124Y33866448D01*
X13595358Y33851453D01*
X13501346Y33745004D01*
X13440989Y33616448D01*
X13439609Y33607583D01*
X13439608Y33607581D01*
X13434779Y33576562D01*
X13419139Y33476119D01*
X152400Y33476119D01*
X152400Y34942688D01*
X5491697Y34942688D01*
X5522005Y34808208D01*
X5525085Y34798379D01*
X5605210Y34601051D01*
X5609853Y34591860D01*
X5721134Y34410266D01*
X5727217Y34401955D01*
X5866653Y34240987D01*
X5874020Y34233771D01*
X6037874Y34097738D01*
X6046321Y34091823D01*
X6230196Y33984375D01*
X6239482Y33979925D01*
X6438441Y33903951D01*
X6448339Y33901075D01*
X6551690Y33880048D01*
X6565739Y33881244D01*
X6569440Y33891589D01*
X6569440Y34938539D01*
X6564965Y34953778D01*
X6563575Y34954983D01*
X6555892Y34956654D01*
X5506665Y34956654D01*
X5493134Y34952681D01*
X5491697Y34942688D01*
X152400Y34942688D01*
X152400Y35476471D01*
X5487829Y35476471D01*
X5489352Y35468047D01*
X5501732Y35464654D01*
X6551325Y35464654D01*
X6566564Y35469129D01*
X6567769Y35470519D01*
X6569440Y35478202D01*
X6569440Y36525665D01*
X7077440Y36525665D01*
X7077440Y33892137D01*
X7081504Y33878295D01*
X7094918Y33876261D01*
X7101624Y33877120D01*
X7111702Y33879262D01*
X7315695Y33940463D01*
X7325282Y33944221D01*
X7516535Y34037915D01*
X7525385Y34043190D01*
X7698768Y34166862D01*
X7706640Y34173515D01*
X7857492Y34323842D01*
X7864170Y34331689D01*
X7988443Y34504634D01*
X7993753Y34513471D01*
X8088110Y34704387D01*
X8091909Y34713982D01*
X8153817Y34917743D01*
X8155390Y34925018D01*
X8189339Y34987372D01*
X8251610Y35021473D01*
X8322432Y35016494D01*
X8379319Y34974017D01*
X8399661Y34933117D01*
X8426455Y34839675D01*
X8429270Y34834198D01*
X8429271Y34834195D01*
X8491052Y34713982D01*
X8516356Y34664746D01*
X8520179Y34659922D01*
X8520182Y34659918D01*
X8544091Y34629753D01*
X8638523Y34510610D01*
X8788302Y34383138D01*
X8793680Y34380132D01*
X8793682Y34380131D01*
X8830096Y34359780D01*
X8959987Y34287187D01*
X9147040Y34226410D01*
X9342335Y34203122D01*
X9348470Y34203594D01*
X9348472Y34203594D01*
X9532292Y34217738D01*
X9532296Y34217739D01*
X9538434Y34218211D01*
X9727868Y34271102D01*
X9733372Y34273882D01*
X9733374Y34273883D01*
X9897920Y34357001D01*
X9897922Y34357002D01*
X9903421Y34359780D01*
X10058406Y34480868D01*
X10062432Y34485532D01*
X10062435Y34485535D01*
X10182891Y34625085D01*
X10182892Y34625087D01*
X10186920Y34629753D01*
X10284068Y34800764D01*
X10346150Y34987388D01*
X10370800Y35182516D01*
X10371193Y35210654D01*
X10369813Y35224724D01*
X10895785Y35224724D01*
X10899329Y35182516D01*
X10910174Y35053378D01*
X10912243Y35028735D01*
X10913942Y35022810D01*
X10939662Y34933115D01*
X10966455Y34839675D01*
X10969270Y34834198D01*
X10969271Y34834195D01*
X11031052Y34713982D01*
X11056356Y34664746D01*
X11060179Y34659922D01*
X11060182Y34659918D01*
X11084091Y34629753D01*
X11178523Y34510610D01*
X11328302Y34383138D01*
X11333680Y34380132D01*
X11333682Y34380131D01*
X11370096Y34359780D01*
X11499987Y34287187D01*
X11687040Y34226410D01*
X11882335Y34203122D01*
X11888470Y34203594D01*
X11888472Y34203594D01*
X12072292Y34217738D01*
X12072296Y34217739D01*
X12078434Y34218211D01*
X12267868Y34271102D01*
X12273372Y34273882D01*
X12273374Y34273883D01*
X12437920Y34357001D01*
X12437922Y34357002D01*
X12443421Y34359780D01*
X12598406Y34480868D01*
X12602432Y34485532D01*
X12602435Y34485535D01*
X12722891Y34625085D01*
X12722892Y34625087D01*
X12726920Y34629753D01*
X12824068Y34800764D01*
X12886150Y34987388D01*
X12910800Y35182516D01*
X12911193Y35210654D01*
X12909813Y35224724D01*
X13435785Y35224724D01*
X13439329Y35182516D01*
X13450174Y35053378D01*
X13452243Y35028735D01*
X13453942Y35022810D01*
X13479662Y34933115D01*
X13506455Y34839675D01*
X13509270Y34834198D01*
X13509271Y34834195D01*
X13571052Y34713982D01*
X13596356Y34664746D01*
X13600179Y34659922D01*
X13600182Y34659918D01*
X13624091Y34629753D01*
X13718523Y34510610D01*
X13868302Y34383138D01*
X13873680Y34380132D01*
X13873682Y34380131D01*
X13910096Y34359780D01*
X14039987Y34287187D01*
X14227040Y34226410D01*
X14422335Y34203122D01*
X14428470Y34203594D01*
X14428472Y34203594D01*
X14612292Y34217738D01*
X14612296Y34217739D01*
X14618434Y34218211D01*
X14807868Y34271102D01*
X14813372Y34273882D01*
X14813374Y34273883D01*
X14977920Y34357001D01*
X14977922Y34357002D01*
X14983421Y34359780D01*
X15138406Y34480868D01*
X15142432Y34485532D01*
X15142435Y34485535D01*
X15262891Y34625085D01*
X15262892Y34625087D01*
X15266920Y34629753D01*
X15364068Y34800764D01*
X15426150Y34987388D01*
X15450800Y35182516D01*
X15451193Y35210654D01*
X15449813Y35224724D01*
X15975785Y35224724D01*
X15979329Y35182516D01*
X15990174Y35053378D01*
X15992243Y35028735D01*
X15993942Y35022810D01*
X16019662Y34933115D01*
X16046455Y34839675D01*
X16049270Y34834198D01*
X16049271Y34834195D01*
X16111052Y34713982D01*
X16136356Y34664746D01*
X16140179Y34659922D01*
X16140182Y34659918D01*
X16164091Y34629753D01*
X16258523Y34510610D01*
X16408302Y34383138D01*
X16413680Y34380132D01*
X16413682Y34380131D01*
X16450096Y34359780D01*
X16579987Y34287187D01*
X16767040Y34226410D01*
X16962335Y34203122D01*
X16968470Y34203594D01*
X16968472Y34203594D01*
X17152292Y34217738D01*
X17152296Y34217739D01*
X17158434Y34218211D01*
X17347868Y34271102D01*
X17353372Y34273882D01*
X17353374Y34273883D01*
X17517920Y34357001D01*
X17517922Y34357002D01*
X17523421Y34359780D01*
X17678406Y34480868D01*
X17682432Y34485532D01*
X17682435Y34485535D01*
X17802891Y34625085D01*
X17802892Y34625087D01*
X17806920Y34629753D01*
X17904068Y34800764D01*
X17966150Y34987388D01*
X17990800Y35182516D01*
X17991193Y35210654D01*
X17989813Y35224724D01*
X18515785Y35224724D01*
X18519329Y35182516D01*
X18530174Y35053378D01*
X18532243Y35028735D01*
X18533942Y35022810D01*
X18559662Y34933115D01*
X18586455Y34839675D01*
X18589270Y34834198D01*
X18589271Y34834195D01*
X18651052Y34713982D01*
X18676356Y34664746D01*
X18680179Y34659922D01*
X18680182Y34659918D01*
X18704091Y34629753D01*
X18798523Y34510610D01*
X18948302Y34383138D01*
X18953680Y34380132D01*
X18953682Y34380131D01*
X18990096Y34359780D01*
X19119987Y34287187D01*
X19307040Y34226410D01*
X19502335Y34203122D01*
X19508470Y34203594D01*
X19508472Y34203594D01*
X19692292Y34217738D01*
X19692296Y34217739D01*
X19698434Y34218211D01*
X19887868Y34271102D01*
X19893372Y34273882D01*
X19893374Y34273883D01*
X20057920Y34357001D01*
X20057922Y34357002D01*
X20063421Y34359780D01*
X20218406Y34480868D01*
X20222432Y34485532D01*
X20222435Y34485535D01*
X20342891Y34625085D01*
X20342892Y34625087D01*
X20346920Y34629753D01*
X20444068Y34800764D01*
X20506150Y34987388D01*
X20530800Y35182516D01*
X20531193Y35210654D01*
X20512001Y35406394D01*
X20455154Y35594679D01*
X20380670Y35734763D01*
X20365713Y35762894D01*
X20365711Y35762897D01*
X20362819Y35768336D01*
X20358929Y35773106D01*
X20358926Y35773110D01*
X20242407Y35915976D01*
X20242404Y35915979D01*
X20238512Y35920751D01*
X20216975Y35938568D01*
X20091718Y36042190D01*
X20091714Y36042192D01*
X20086968Y36046119D01*
X20004084Y36090934D01*
X21060514Y36090934D01*
X21060540Y36060654D01*
X21060540Y34330380D01*
X21060567Y34330107D01*
X21071743Y34303192D01*
X21079037Y34285628D01*
X21083894Y34273930D01*
X21126943Y34230957D01*
X21138413Y34226217D01*
X21138414Y34226217D01*
X21153777Y34219869D01*
X21183160Y34207728D01*
X21213440Y34207754D01*
X22943714Y34207754D01*
X22943987Y34207781D01*
X22973098Y34219869D01*
X22988706Y34226350D01*
X22988707Y34226350D01*
X23000164Y34231108D01*
X23043137Y34274157D01*
X23066366Y34330374D01*
X23066340Y34360654D01*
X23066340Y34590014D01*
X43962787Y34590014D01*
X43963011Y34585348D01*
X43963011Y34585342D01*
X43968212Y34477074D01*
X43975287Y34329776D01*
X44026116Y34074244D01*
X44114156Y33829032D01*
X44237474Y33599527D01*
X44240269Y33595783D01*
X44240271Y33595781D01*
X44254233Y33577084D01*
X44393360Y33390770D01*
X44396669Y33387490D01*
X44396674Y33387484D01*
X44562492Y33223107D01*
X44578390Y33207347D01*
X44582152Y33204589D01*
X44582155Y33204586D01*
X44752191Y33079911D01*
X44788500Y33053288D01*
X44792631Y33051114D01*
X44792632Y33051114D01*
X45014938Y32934153D01*
X45014944Y32934151D01*
X45019073Y32931978D01*
X45023480Y32930439D01*
X45023487Y32930436D01*
X45260628Y32847623D01*
X45265044Y32846081D01*
X45521010Y32797484D01*
X45644597Y32792629D01*
X45776679Y32787439D01*
X45776684Y32787439D01*
X45781347Y32787256D01*
X45888751Y32799019D01*
X46035683Y32815110D01*
X46035688Y32815111D01*
X46040336Y32815620D01*
X46058925Y32820514D01*
X46287766Y32880762D01*
X46287769Y32880763D01*
X46292289Y32881953D01*
X46413788Y32934153D01*
X46527375Y32982954D01*
X46527377Y32982955D01*
X46531669Y32984799D01*
X46692960Y33084609D01*
X46749245Y33119439D01*
X46749249Y33119442D01*
X46753218Y33121898D01*
X46952069Y33290238D01*
X47123853Y33486121D01*
X47199450Y33603648D01*
X47262270Y33701313D01*
X47264798Y33705243D01*
X47371806Y33942792D01*
X47442526Y34193548D01*
X47475406Y34452003D01*
X47477815Y34544000D01*
X47471789Y34625085D01*
X47458853Y34799170D01*
X47458852Y34799174D01*
X47458507Y34803822D01*
X47401007Y35057935D01*
X47382285Y35106078D01*
X47308271Y35296406D01*
X47308270Y35296408D01*
X47306578Y35300759D01*
X47280708Y35346022D01*
X47179614Y35522901D01*
X47179612Y35522903D01*
X47177295Y35526958D01*
X47015997Y35731563D01*
X46826229Y35910079D01*
X46642224Y36037728D01*
X46616001Y36055920D01*
X46615998Y36055922D01*
X46612159Y36058585D01*
X46607966Y36060653D01*
X46382677Y36171753D01*
X46382674Y36171754D01*
X46378489Y36173818D01*
X46354744Y36181419D01*
X46254306Y36213569D01*
X46130354Y36253246D01*
X46125747Y36253996D01*
X46125744Y36253997D01*
X45877815Y36294375D01*
X45877816Y36294375D01*
X45873204Y36295126D01*
X45746812Y36296780D01*
X45617365Y36298475D01*
X45617362Y36298475D01*
X45612688Y36298536D01*
X45354530Y36263403D01*
X45350040Y36262094D01*
X45350034Y36262093D01*
X45108893Y36191806D01*
X45108888Y36191804D01*
X45104400Y36190496D01*
X45100153Y36188538D01*
X45100150Y36188537D01*
X45085066Y36181583D01*
X44867794Y36081420D01*
X44863885Y36078857D01*
X44653823Y35941134D01*
X44653818Y35941131D01*
X44649910Y35938568D01*
X44634350Y35924680D01*
X44464530Y35773110D01*
X44455534Y35765081D01*
X44288936Y35564768D01*
X44153775Y35342031D01*
X44151968Y35337723D01*
X44151968Y35337722D01*
X44085416Y35179013D01*
X44053022Y35101763D01*
X44051871Y35097231D01*
X44051870Y35097228D01*
X44025529Y34993507D01*
X43988890Y34849241D01*
X43962787Y34590014D01*
X23066340Y34590014D01*
X23066340Y36090928D01*
X23066313Y36091201D01*
X23055137Y36118116D01*
X23047744Y36135920D01*
X23047744Y36135921D01*
X23042986Y36147378D01*
X22999937Y36190351D01*
X22986259Y36196003D01*
X22955191Y36208840D01*
X22955192Y36208840D01*
X22943720Y36213580D01*
X22913440Y36213554D01*
X21183166Y36213554D01*
X21182893Y36213527D01*
X21155978Y36202351D01*
X21138495Y36195091D01*
X21126716Y36190200D01*
X21083743Y36147151D01*
X21060514Y36090934D01*
X20004084Y36090934D01*
X19913960Y36139664D01*
X19726077Y36197824D01*
X19719959Y36198467D01*
X19719954Y36198468D01*
X19536604Y36217738D01*
X19536602Y36217738D01*
X19530475Y36218382D01*
X19447639Y36210844D01*
X19340745Y36201116D01*
X19340742Y36201115D01*
X19334606Y36200557D01*
X19145929Y36145026D01*
X18971632Y36053906D01*
X18818352Y35930666D01*
X18814394Y35925949D01*
X18814392Y35925947D01*
X18803316Y35912747D01*
X18691929Y35780001D01*
X18597179Y35607650D01*
X18595318Y35601783D01*
X18595317Y35601781D01*
X18593064Y35594679D01*
X18537709Y35420178D01*
X18515785Y35224724D01*
X17989813Y35224724D01*
X17972001Y35406394D01*
X17915154Y35594679D01*
X17840670Y35734763D01*
X17825713Y35762894D01*
X17825711Y35762897D01*
X17822819Y35768336D01*
X17818929Y35773106D01*
X17818926Y35773110D01*
X17702407Y35915976D01*
X17702404Y35915979D01*
X17698512Y35920751D01*
X17676975Y35938568D01*
X17551718Y36042190D01*
X17551714Y36042192D01*
X17546968Y36046119D01*
X17373960Y36139664D01*
X17186077Y36197824D01*
X17179959Y36198467D01*
X17179954Y36198468D01*
X16996604Y36217738D01*
X16996602Y36217738D01*
X16990475Y36218382D01*
X16907639Y36210844D01*
X16800745Y36201116D01*
X16800742Y36201115D01*
X16794606Y36200557D01*
X16605929Y36145026D01*
X16431632Y36053906D01*
X16278352Y35930666D01*
X16274394Y35925949D01*
X16274392Y35925947D01*
X16263316Y35912747D01*
X16151929Y35780001D01*
X16057179Y35607650D01*
X16055318Y35601783D01*
X16055317Y35601781D01*
X16053064Y35594679D01*
X15997709Y35420178D01*
X15975785Y35224724D01*
X15449813Y35224724D01*
X15432001Y35406394D01*
X15375154Y35594679D01*
X15300670Y35734763D01*
X15285713Y35762894D01*
X15285711Y35762897D01*
X15282819Y35768336D01*
X15278929Y35773106D01*
X15278926Y35773110D01*
X15162407Y35915976D01*
X15162404Y35915979D01*
X15158512Y35920751D01*
X15136975Y35938568D01*
X15011718Y36042190D01*
X15011714Y36042192D01*
X15006968Y36046119D01*
X14833960Y36139664D01*
X14646077Y36197824D01*
X14639959Y36198467D01*
X14639954Y36198468D01*
X14456604Y36217738D01*
X14456602Y36217738D01*
X14450475Y36218382D01*
X14367639Y36210844D01*
X14260745Y36201116D01*
X14260742Y36201115D01*
X14254606Y36200557D01*
X14065929Y36145026D01*
X13891632Y36053906D01*
X13738352Y35930666D01*
X13734394Y35925949D01*
X13734392Y35925947D01*
X13723316Y35912747D01*
X13611929Y35780001D01*
X13517179Y35607650D01*
X13515318Y35601783D01*
X13515317Y35601781D01*
X13513064Y35594679D01*
X13457709Y35420178D01*
X13435785Y35224724D01*
X12909813Y35224724D01*
X12892001Y35406394D01*
X12835154Y35594679D01*
X12760670Y35734763D01*
X12745713Y35762894D01*
X12745711Y35762897D01*
X12742819Y35768336D01*
X12738929Y35773106D01*
X12738926Y35773110D01*
X12622407Y35915976D01*
X12622404Y35915979D01*
X12618512Y35920751D01*
X12596975Y35938568D01*
X12471718Y36042190D01*
X12471714Y36042192D01*
X12466968Y36046119D01*
X12293960Y36139664D01*
X12106077Y36197824D01*
X12099959Y36198467D01*
X12099954Y36198468D01*
X11916604Y36217738D01*
X11916602Y36217738D01*
X11910475Y36218382D01*
X11827639Y36210844D01*
X11720745Y36201116D01*
X11720742Y36201115D01*
X11714606Y36200557D01*
X11525929Y36145026D01*
X11351632Y36053906D01*
X11198352Y35930666D01*
X11194394Y35925949D01*
X11194392Y35925947D01*
X11183316Y35912747D01*
X11071929Y35780001D01*
X10977179Y35607650D01*
X10975318Y35601783D01*
X10975317Y35601781D01*
X10973064Y35594679D01*
X10917709Y35420178D01*
X10895785Y35224724D01*
X10369813Y35224724D01*
X10352001Y35406394D01*
X10295154Y35594679D01*
X10220670Y35734763D01*
X10205713Y35762894D01*
X10205711Y35762897D01*
X10202819Y35768336D01*
X10198929Y35773106D01*
X10198926Y35773110D01*
X10082407Y35915976D01*
X10082404Y35915979D01*
X10078512Y35920751D01*
X10056975Y35938568D01*
X9931718Y36042190D01*
X9931714Y36042192D01*
X9926968Y36046119D01*
X9753960Y36139664D01*
X9566077Y36197824D01*
X9559959Y36198467D01*
X9559954Y36198468D01*
X9376604Y36217738D01*
X9376602Y36217738D01*
X9370475Y36218382D01*
X9287639Y36210844D01*
X9180745Y36201116D01*
X9180742Y36201115D01*
X9174606Y36200557D01*
X8985929Y36145026D01*
X8811632Y36053906D01*
X8658352Y35930666D01*
X8654394Y35925949D01*
X8654392Y35925947D01*
X8643316Y35912747D01*
X8531929Y35780001D01*
X8437179Y35607650D01*
X8435318Y35601783D01*
X8435317Y35601781D01*
X8396577Y35479657D01*
X8356913Y35420773D01*
X8291711Y35392681D01*
X8221672Y35404299D01*
X8169032Y35451938D01*
X8154271Y35487060D01*
X8114654Y35644779D01*
X8111334Y35654530D01*
X8026412Y35849840D01*
X8021545Y35858915D01*
X7905866Y36037728D01*
X7899576Y36045897D01*
X7756246Y36203414D01*
X7748713Y36210439D01*
X7581579Y36342432D01*
X7572992Y36348137D01*
X7386557Y36451055D01*
X7377145Y36455285D01*
X7176399Y36526374D01*
X7166428Y36529008D01*
X7095277Y36541682D01*
X7081980Y36540222D01*
X7077440Y36525665D01*
X6569440Y36525665D01*
X6569440Y36527552D01*
X6565522Y36540896D01*
X6551246Y36542883D01*
X6512764Y36536994D01*
X6502728Y36534603D01*
X6300308Y36468442D01*
X6290799Y36464445D01*
X6101903Y36366112D01*
X6093178Y36360618D01*
X5922873Y36232749D01*
X5915166Y36225906D01*
X5768030Y36071937D01*
X5761544Y36063927D01*
X5641538Y35888005D01*
X5636440Y35879031D01*
X5546778Y35685871D01*
X5543215Y35676184D01*
X5487829Y35476471D01*
X152400Y35476471D01*
X152400Y36911324D01*
X153482Y36919542D01*
X153482Y36931949D01*
X157776Y36947974D01*
X153826Y36962716D01*
X153961Y36965819D01*
X168418Y37131063D01*
X172232Y37152692D01*
X177185Y37171174D01*
X216946Y37319568D01*
X224458Y37340207D01*
X297473Y37496787D01*
X308455Y37515807D01*
X407546Y37657325D01*
X421664Y37674150D01*
X543824Y37796310D01*
X560649Y37810428D01*
X702167Y37909519D01*
X721187Y37920501D01*
X877767Y37993516D01*
X898406Y38001028D01*
X928994Y38009224D01*
X1065286Y38045743D01*
X1086907Y38049555D01*
X1252154Y38064013D01*
X1255258Y38064148D01*
X1270000Y38060198D01*
X1286025Y38064492D01*
X1298432Y38064492D01*
X1306650Y38065574D01*
X48223350Y38065574D01*
X48231568Y38064492D01*
G37*
%TD.AperFunction*%
%TD*%
M02*
