M48
; DRILL file {KiCad 5.99.0-unknown-43a4cf795~104~ubuntu20.04.1} date Sat Nov 14 10:51:06 2020
; FORMAT={-:-/ absolute / metric / decimal}
; #@! TF.CreationDate,2020-11-14T10:51:06-08:00
; #@! TF.GenerationSoftware,Kicad,Pcbnew,5.99.0-unknown-43a4cf795~104~ubuntu20.04.1
; #@! TF.FileFunction,Plated,1,2,PTH
FMAT,2
METRIC
T1C0.330
T2C0.508
T3C1.000
T4C1.200
T5C1.600
%
G90
G05
T1
X8.636Y11.43
X9.906Y12.7
X9.906Y7.112
X10.16Y16.51
X11.43Y18.288
X12.7Y22.352
X13.094Y21.15
X14.619Y19.809
X14.732Y16.764
X14.922Y25.656
X14.922Y24.132
X15.748Y14.986
X15.762Y20.099
X16.002Y11.43
X16.081Y24.849
X16.34Y19.388
X16.842Y14.146
X16.954Y20.279
X17.526Y19.558
X18.034Y7.366
X18.542Y16.002
X20.066Y17.526
X21.082Y18.542
X21.082Y16.764
X21.59Y9.144
X22.352Y22.098
X22.606Y17.526
X26.416Y14.986
X26.924Y16.764
X27.686Y21.336
X28.448Y16.51
X28.448Y12.192
X28.829Y18.415
X32.766Y14.986
X33.782Y16.764
T2
X4.064Y20.828
X6.858Y27.178
X7.62Y24.13
X16.256Y27.178
X22.182Y10.16
X23.114Y14.224
X24.13Y11.684
X24.384Y21.336
X25.654Y23.114
X26.416Y8.89
X26.924Y23.114
X27.94Y24.892
X29.464Y8.89
X29.972Y27.686
X30.226Y21.336
X33.02Y25.4
X34.544Y21.336
X38.354Y14.478
T3
X3.843Y17.78
X3.843Y15.24
X3.843Y12.7
X3.843Y10.16
X10.813Y4.647
X13.353Y4.647
X15.893Y4.647
X18.433Y4.647
X20.973Y4.647
X23.513Y4.647
X6.858Y35.306
X9.398Y35.306
X11.938Y35.306
X14.478Y35.306
X17.018Y35.306
X19.558Y35.306
X22.098Y35.306
X6.858Y31.496
X9.398Y31.496
X11.938Y31.496
X14.478Y31.496
T4
X43.942Y28.9
X43.942Y25.4
T5
X44.196Y18.684
X44.196Y15.184
X44.196Y11.684
X44.196Y8.184
X44.196Y4.684
T0
M30
