G04 #@! TF.GenerationSoftware,KiCad,Pcbnew,(5.99.0-1251-g6aaee01f1)*
G04 #@! TF.CreationDate,2020-04-08T18:30:41-07:00*
G04 #@! TF.ProjectId,TMC2660_Driver,544d4332-3636-4305-9f44-72697665722e,rev?*
G04 #@! TF.SameCoordinates,PX67f3540PY6cb8080*
G04 #@! TF.FileFunction,Copper,L1,Top*
G04 #@! TF.FilePolarity,Positive*
%FSLAX46Y46*%
G04 Gerber Fmt 4.6, Leading zero omitted, Abs format (unit mm)*
G04 Created by KiCad (PCBNEW (5.99.0-1251-g6aaee01f1)) date 2020-04-08 18:30:41*
%MOMM*%
%LPD*%
G01*
G04 APERTURE LIST*
G04 #@! TA.AperFunction,SMDPad,CuDef*
%ADD10R,1.560000X1.450000*%
G04 #@! TD*
G04 #@! TA.AperFunction,SMDPad,CuDef*
%ADD11R,0.300000X0.680000*%
G04 #@! TD*
G04 #@! TA.AperFunction,SMDPad,CuDef*
%ADD12R,0.950000X0.875000*%
G04 #@! TD*
G04 #@! TA.AperFunction,SMDPad,CuDef*
%ADD13R,0.650000X0.400000*%
G04 #@! TD*
G04 #@! TA.AperFunction,SMDPad,CuDef*
%ADD14R,0.875000X0.950000*%
G04 #@! TD*
G04 #@! TA.AperFunction,SMDPad,CuDef*
%ADD15R,3.000000X0.127000*%
G04 #@! TD*
G04 #@! TA.AperFunction,SMDPad,CuDef*
%ADD16R,0.127000X3.000000*%
G04 #@! TD*
G04 #@! TA.AperFunction,ComponentPad*
%ADD17C,1.778000*%
G04 #@! TD*
G04 #@! TA.AperFunction,ComponentPad*
%ADD18R,1.778000X1.778000*%
G04 #@! TD*
G04 #@! TA.AperFunction,ConnectorPad*
%ADD19C,0.650000*%
G04 #@! TD*
G04 #@! TA.AperFunction,ConnectorPad*
%ADD20R,0.650000X4.600000*%
G04 #@! TD*
G04 #@! TA.AperFunction,ConnectorPad*
%ADD21R,0.650000X3.600000*%
G04 #@! TD*
G04 #@! TA.AperFunction,SMDPad,CuDef*
%ADD22R,1.600000X0.500000*%
G04 #@! TD*
G04 #@! TA.AperFunction,SMDPad,CuDef*
%ADD23R,1.600000X1.300000*%
G04 #@! TD*
G04 #@! TA.AperFunction,SMDPad,CuDef*
%ADD24R,0.500000X1.600000*%
G04 #@! TD*
G04 #@! TA.AperFunction,SMDPad,CuDef*
%ADD25R,0.590000X0.640000*%
G04 #@! TD*
G04 #@! TA.AperFunction,SMDPad,CuDef*
%ADD26R,1.250000X1.750000*%
G04 #@! TD*
G04 #@! TA.AperFunction,ViaPad*
%ADD27C,0.600000*%
G04 #@! TD*
G04 #@! TA.AperFunction,ViaPad*
%ADD28C,1.000000*%
G04 #@! TD*
G04 #@! TA.AperFunction,ViaPad*
%ADD29C,0.800000*%
G04 #@! TD*
G04 #@! TA.AperFunction,Conductor*
%ADD30C,0.127000*%
G04 #@! TD*
G04 #@! TA.AperFunction,Conductor*
%ADD31C,0.650000*%
G04 #@! TD*
G04 #@! TA.AperFunction,Conductor*
%ADD32C,0.508000*%
G04 #@! TD*
G04 #@! TA.AperFunction,Conductor*
%ADD33C,1.000000*%
G04 #@! TD*
G04 #@! TA.AperFunction,Conductor*
%ADD34C,0.254000*%
G04 #@! TD*
G04 #@! TA.AperFunction,Conductor*
%ADD35C,0.203200*%
G04 #@! TD*
G04 #@! TA.AperFunction,Conductor*
%ADD36C,0.700000*%
G04 #@! TD*
G04 #@! TA.AperFunction,Conductor*
%ADD37C,0.800000*%
G04 #@! TD*
G04 #@! TA.AperFunction,Conductor*
%ADD38C,1.500000*%
G04 #@! TD*
G04 #@! TA.AperFunction,Conductor*
%ADD39C,0.250000*%
G04 #@! TD*
G04 #@! TA.AperFunction,Conductor*
%ADD40C,0.152400*%
G04 #@! TD*
G04 APERTURE END LIST*
G04 #@! TA.AperFunction,SMDPad,CuDef*
G36*
G01*
X33050000Y13450000D02*
X31950000Y13450000D01*
G75*
G02*
X31700000Y13700000I0J250000D01*
G01*
X31700000Y16700000D01*
G75*
G02*
X31950000Y16950000I250000J0D01*
G01*
X33050000Y16950000D01*
G75*
G02*
X33300000Y16700000I0J-250000D01*
G01*
X33300000Y13700000D01*
G75*
G02*
X33050000Y13450000I-250000J0D01*
G01*
G37*
G04 #@! TD.AperFunction*
G04 #@! TA.AperFunction,SMDPad,CuDef*
G36*
G01*
X33050000Y8050000D02*
X31950000Y8050000D01*
G75*
G02*
X31700000Y8300000I0J250000D01*
G01*
X31700000Y11300000D01*
G75*
G02*
X31950000Y11550000I250000J0D01*
G01*
X33050000Y11550000D01*
G75*
G02*
X33300000Y11300000I0J-250000D01*
G01*
X33300000Y8300000D01*
G75*
G02*
X33050000Y8050000I-250000J0D01*
G01*
G37*
G04 #@! TD.AperFunction*
D10*
X4600000Y12300000D03*
D11*
X3850000Y10940000D03*
X4350000Y10940000D03*
X4850000Y10940000D03*
X5350000Y10940000D03*
X3850000Y13660000D03*
X4350000Y13660000D03*
X4850000Y13660000D03*
X5350000Y13660000D03*
D12*
X6700000Y12787500D03*
X6700000Y11212500D03*
G04 #@! TA.AperFunction,SMDPad,CuDef*
G36*
G01*
X31475000Y26722999D02*
X31475000Y29573001D01*
G75*
G02*
X31724999Y29823000I249999J0D01*
G01*
X32575001Y29823000D01*
G75*
G02*
X32825000Y29573001I0J-249999D01*
G01*
X32825000Y26722999D01*
G75*
G02*
X32575001Y26473000I-249999J0D01*
G01*
X31724999Y26473000D01*
G75*
G02*
X31475000Y26722999I0J249999D01*
G01*
G37*
G04 #@! TD.AperFunction*
G04 #@! TA.AperFunction,SMDPad,CuDef*
G36*
G01*
X25675000Y26722999D02*
X25675000Y29573001D01*
G75*
G02*
X25924999Y29823000I249999J0D01*
G01*
X26775001Y29823000D01*
G75*
G02*
X27025000Y29573001I0J-249999D01*
G01*
X27025000Y26722999D01*
G75*
G02*
X26775001Y26473000I-249999J0D01*
G01*
X25924999Y26473000D01*
G75*
G02*
X25675000Y26722999I0J249999D01*
G01*
G37*
G04 #@! TD.AperFunction*
G04 #@! TA.AperFunction,SMDPad,CuDef*
G36*
G01*
X4525000Y29319001D02*
X4525000Y26468999D01*
G75*
G02*
X4275001Y26219000I-249999J0D01*
G01*
X3424999Y26219000D01*
G75*
G02*
X3175000Y26468999I0J249999D01*
G01*
X3175000Y29319001D01*
G75*
G02*
X3424999Y29569000I249999J0D01*
G01*
X4275001Y29569000D01*
G75*
G02*
X4525000Y29319001I0J-249999D01*
G01*
G37*
G04 #@! TD.AperFunction*
G04 #@! TA.AperFunction,SMDPad,CuDef*
G36*
G01*
X10325000Y29319001D02*
X10325000Y26468999D01*
G75*
G02*
X10075001Y26219000I-249999J0D01*
G01*
X9224999Y26219000D01*
G75*
G02*
X8975000Y26468999I0J249999D01*
G01*
X8975000Y29319001D01*
G75*
G02*
X9224999Y29569000I249999J0D01*
G01*
X10075001Y29569000D01*
G75*
G02*
X10325000Y29319001I0J-249999D01*
G01*
G37*
G04 #@! TD.AperFunction*
D13*
X12986000Y10099000D03*
X12986000Y11399000D03*
X14886000Y10749000D03*
X14886000Y11399000D03*
X14886000Y10099000D03*
D14*
X16399700Y10368000D03*
X17974700Y10368000D03*
D15*
X35050000Y1620000D03*
D16*
X35050000Y1620000D03*
D15*
X34764000Y37546000D03*
D16*
X34764000Y37546000D03*
D15*
X1744000Y1620000D03*
D16*
X1744000Y1620000D03*
D15*
X1744000Y37546000D03*
D16*
X1744000Y37546000D03*
D17*
X21429000Y35437800D03*
X18889000Y35437800D03*
X16349000Y35437800D03*
D18*
X13809000Y35437800D03*
D19*
X9652800Y1014800D03*
X25652800Y1014800D03*
X24652800Y1014800D03*
X23652800Y1014800D03*
X22652800Y1014800D03*
X21652800Y1014800D03*
X8652800Y1014800D03*
X18652800Y1014800D03*
X17652800Y1014800D03*
X16652800Y1014800D03*
X15652800Y1014800D03*
X14652800Y1014800D03*
X13652800Y1014800D03*
X12652800Y1014800D03*
X11652800Y1014800D03*
X10652800Y1014800D03*
D20*
X22652800Y3314800D03*
X21652800Y3314800D03*
X27652800Y3314800D03*
D21*
X26652800Y3814800D03*
D20*
X25652800Y3314800D03*
X24652800Y3314800D03*
X23652800Y3314800D03*
X18652800Y3314800D03*
X17652800Y3314800D03*
X16652800Y3314800D03*
X15652800Y3314800D03*
X14652800Y3314800D03*
X13652800Y3314800D03*
X12652800Y3314800D03*
X11652800Y3314800D03*
X10652800Y3314800D03*
X9652800Y3314800D03*
X8652800Y3314800D03*
D19*
X27652800Y1014800D03*
D22*
X23951600Y20007800D03*
D23*
X23951600Y21207800D03*
X23951600Y23607800D03*
X23951600Y25207800D03*
X23951600Y27607800D03*
X12251600Y27607800D03*
X12251600Y25207800D03*
X12251600Y23607800D03*
X12251600Y21207800D03*
D22*
X23951600Y22407800D03*
X23951600Y26407800D03*
X12251600Y26407800D03*
X12251600Y22407800D03*
X12251600Y20007800D03*
D24*
X22101600Y29857800D03*
X21301600Y29857800D03*
X20501600Y29857800D03*
X19701600Y29857800D03*
X18901600Y29857800D03*
X18101600Y29857800D03*
X17301600Y29857800D03*
X16501600Y29857800D03*
X15701600Y29857800D03*
X14901600Y29857800D03*
X14101600Y29857800D03*
X14101600Y18157800D03*
X14901600Y18157800D03*
X15701600Y18157800D03*
X16501600Y18157800D03*
X17301600Y18157800D03*
X18101600Y18157800D03*
X18901600Y18157800D03*
X19701600Y18157800D03*
X20501600Y18157800D03*
X21301600Y18157800D03*
X22101600Y18157800D03*
D14*
X28871000Y31704000D03*
X30446000Y31704000D03*
X7357500Y31323000D03*
X5782500Y31323000D03*
X28896500Y33228000D03*
X30471500Y33228000D03*
X7687400Y36123600D03*
X9262400Y36123600D03*
X7687400Y37723800D03*
X9262400Y37723800D03*
X27118600Y37927000D03*
X25543600Y37927000D03*
X27068000Y36403000D03*
X25493000Y36403000D03*
X7383000Y32847000D03*
X5808000Y32847000D03*
X19371500Y14686000D03*
X20946500Y14686000D03*
D12*
X21302000Y33126500D03*
X21302000Y31551500D03*
D25*
X15818000Y15448000D03*
X14848000Y15448000D03*
D26*
X11459500Y13479500D03*
X8659500Y13479500D03*
X24042200Y13314400D03*
X26842200Y13314400D03*
D27*
X12128995Y11271005D03*
X22052410Y7147590D03*
D28*
X9150333Y12209846D03*
D27*
X7854717Y11728410D03*
X8400000Y10600000D03*
X4800000Y15100000D03*
X4000000Y14700000D03*
X11040721Y10131679D03*
D29*
X18749451Y10652410D03*
D27*
X22600000Y6200000D03*
X9400000Y10600000D03*
X5400000Y14500000D03*
X21600000Y6200000D03*
X5000000Y12300000D03*
X4200000Y12300000D03*
X5000000Y18000000D03*
X5000000Y17000000D03*
X5000000Y16000000D03*
X4000000Y16000000D03*
X4000000Y17000000D03*
X4000000Y18000000D03*
X2500000Y21500000D03*
X2500000Y20500000D03*
X2500000Y19500000D03*
X2500000Y18500000D03*
X1000000Y18500000D03*
X1000000Y19500000D03*
X1000000Y20500000D03*
X1000000Y21500000D03*
X16700000Y7400000D03*
X14300000Y8787770D03*
X13400000Y9240180D03*
X9775110Y9347590D03*
X15600000Y7600000D03*
X25600000Y10200000D03*
X27700000Y10200000D03*
X26700000Y10200000D03*
D28*
X30192000Y16210000D03*
X33750000Y15750000D03*
X32500000Y17500000D03*
X30192000Y18242000D03*
X30192000Y21290000D03*
X32224000Y21290000D03*
D29*
X15858054Y11320680D03*
D27*
X16257457Y9316543D03*
D29*
X14088400Y11434800D03*
D27*
X14952000Y30942000D03*
D28*
X1744000Y32974000D03*
X1744000Y30434000D03*
X4080800Y35514000D03*
X6112800Y36403000D03*
X19016000Y38308000D03*
X32063980Y31739560D03*
X27133840Y34769780D03*
D27*
X12029132Y7805928D03*
X9775110Y7948380D03*
X10902121Y7690257D03*
X8533650Y9106687D03*
X7103309Y34525115D03*
X5976289Y34244000D03*
X7865400Y34803024D03*
X6239800Y35285400D03*
X11167400Y8564600D03*
X5172048Y33980489D03*
X17238000Y16591000D03*
X19651000Y16845000D03*
X16857000Y8463000D03*
X20540000Y16972000D03*
D28*
X18127000Y8590000D03*
X18127000Y14686000D03*
D27*
X18127000Y17226000D03*
X18127000Y19385000D03*
D29*
X21810000Y14686000D03*
X18229569Y28631311D03*
X21556000Y33736000D03*
X31208000Y33228000D03*
X27144000Y37038000D03*
X4969800Y32720000D03*
X7586000Y36784000D03*
D28*
X15460000Y28148000D03*
X15460000Y25100000D03*
X13936000Y26624000D03*
X15460000Y22052000D03*
X16984000Y26624000D03*
X16984000Y23576000D03*
X16984000Y20528000D03*
X13936000Y23576000D03*
X19016000Y20528000D03*
X20540000Y22052000D03*
X19016000Y23576000D03*
X22064000Y23576000D03*
X20540000Y25100000D03*
X19016000Y26624000D03*
X22064000Y26624000D03*
X20540000Y28148000D03*
X25874000Y21499200D03*
X27271000Y20274000D03*
X27525000Y17353000D03*
X27144000Y25608000D03*
X25874000Y18877000D03*
X27144000Y22814000D03*
X25874000Y24338000D03*
X8729000Y17226000D03*
X10380000Y18369000D03*
X9110000Y19893000D03*
X10380000Y21207800D03*
X8983000Y22433000D03*
X10380000Y23830000D03*
X8983000Y25100000D03*
X26839200Y11892000D03*
D29*
X2250000Y29164000D03*
X2250000Y27894000D03*
X2250000Y26624000D03*
X33750000Y29545000D03*
X33750000Y28148000D03*
X33750000Y26750000D03*
D28*
X32532000Y13000000D03*
X30500000Y13000000D03*
X35000000Y10532000D03*
X35000000Y8500000D03*
D30*
X9706900Y34485300D02*
X8825666Y35366534D01*
X17677400Y33609000D02*
X11091200Y33609000D01*
X11091200Y33609000D02*
X10583200Y33609000D01*
X10583200Y33609000D02*
X9706900Y34485300D01*
D31*
X4969800Y32720000D02*
X5681000Y32720000D01*
X5681000Y32720000D02*
X5808000Y32847000D01*
X2250000Y26624000D02*
X2580000Y26624000D01*
X2580000Y26624000D02*
X3850000Y27894000D01*
X2250000Y27894000D02*
X3850000Y27894000D01*
X2250000Y29164000D02*
X2580000Y29164000D01*
X2580000Y29164000D02*
X3850000Y27894000D01*
X33750000Y29545000D02*
X33547000Y29545000D01*
X33547000Y29545000D02*
X32150000Y28148000D01*
X33750000Y28148000D02*
X32150000Y28148000D01*
X33750000Y26750000D02*
X33548000Y26750000D01*
X33548000Y26750000D02*
X32150000Y28148000D01*
D32*
X25157800Y26407800D02*
X26165800Y26407800D01*
X23951600Y26407800D02*
X25157800Y26407800D01*
D31*
X25157800Y26657800D02*
X25157800Y26407800D01*
X25378000Y26878000D02*
X25157800Y26657800D01*
X32500000Y17500000D02*
X32500000Y15200000D01*
D30*
X12986000Y11399000D02*
X12256990Y11399000D01*
D33*
X9150333Y12988667D02*
X9150333Y12916952D01*
D34*
X6700000Y12787500D02*
X8572679Y12787500D01*
D33*
X8659500Y13479500D02*
X9150333Y12988667D01*
X9150333Y12916952D02*
X9150333Y12209846D01*
D34*
X8572679Y12787500D02*
X9150333Y12209846D01*
X8500000Y11200000D02*
X11293500Y11212500D01*
X6700000Y11212500D02*
X8487500Y11212500D01*
X8487500Y11212500D02*
X8500000Y11200000D01*
D30*
X4800000Y15100000D02*
X4800000Y13710000D01*
X4800000Y13710000D02*
X4850000Y13660000D01*
X4000000Y14700000D02*
X4350000Y14350000D01*
X4350000Y14350000D02*
X4350000Y13660000D01*
D34*
X12407000Y10099000D02*
X12986000Y10099000D01*
X11293500Y11212500D02*
X12407000Y10099000D01*
D30*
X4523000Y9800000D02*
X10397502Y9800000D01*
X12975736Y9240180D02*
X13400000Y9240180D01*
X10823568Y9679278D02*
X11257874Y9679278D01*
X13650660Y9692590D02*
X14000001Y9343249D01*
X11257874Y9679278D02*
X11271186Y9692590D01*
X14000001Y9087769D02*
X14300000Y8787770D01*
X10957322Y9240180D02*
X12975736Y9240180D01*
X10402846Y10100000D02*
X10823568Y9679278D01*
X14000001Y9343249D02*
X14000001Y9087769D01*
X11271186Y9692590D02*
X13650660Y9692590D01*
X10397502Y9800000D02*
X10957322Y9240180D01*
X3850000Y10473000D02*
X4523000Y9800000D01*
X3850000Y10940000D02*
X3850000Y10473000D01*
X4723000Y10100000D02*
X10402846Y10100000D01*
X4350000Y10473000D02*
X4723000Y10100000D01*
X4350000Y10940000D02*
X4350000Y10473000D01*
D32*
X18183766Y10652410D02*
X18749451Y10652410D01*
X17974700Y10368000D02*
X17974700Y10443344D01*
X17974700Y10443344D02*
X18183766Y10652410D01*
D30*
X22652800Y6147200D02*
X22600000Y6200000D01*
X22652800Y3314800D02*
X22652800Y6147200D01*
X5400000Y14500000D02*
X5400000Y13710000D01*
X5400000Y13710000D02*
X5350000Y13660000D01*
X21652800Y6147200D02*
X21600000Y6200000D01*
X21652800Y3314800D02*
X21652800Y6147200D01*
D35*
X6700000Y12787500D02*
X5087500Y12787500D01*
X5087500Y12787500D02*
X4600000Y12300000D01*
X4850000Y10940000D02*
X4850000Y12050000D01*
X4850000Y12050000D02*
X4600000Y12300000D01*
X3850000Y13660000D02*
X3850000Y13050000D01*
X3850000Y13050000D02*
X4600000Y12300000D01*
D30*
X16700000Y7400000D02*
X16700000Y3362000D01*
X16700000Y3362000D02*
X16652800Y3314800D01*
X10818487Y9024269D02*
X10557217Y8762999D01*
X16857000Y8463000D02*
X16557001Y8163001D01*
X11541713Y9024269D02*
X10818487Y9024269D01*
X9409999Y8762999D02*
X8652800Y8005800D01*
X12402981Y8163001D02*
X11541713Y9024269D01*
X8652800Y8005800D02*
X8652800Y5741800D01*
X16557001Y8163001D02*
X12402981Y8163001D01*
X8652800Y5741800D02*
X8652800Y3314800D01*
X10557217Y8762999D02*
X9409999Y8762999D01*
X15600000Y7600000D02*
X15600000Y3367600D01*
X15600000Y3367600D02*
X15652800Y3314800D01*
D34*
X5350000Y10940000D02*
X6427500Y10940000D01*
X6427500Y10940000D02*
X6700000Y11212500D01*
D35*
X14886000Y10749000D02*
X15286374Y10749000D01*
X15286374Y10749000D02*
X15858054Y11320680D01*
D32*
X16399700Y10368000D02*
X16399700Y10317300D01*
X16399700Y10317300D02*
X18127000Y8590000D01*
X13819000Y10099000D02*
X14361901Y9556099D01*
X12986000Y10099000D02*
X13819000Y10099000D01*
X14361901Y9556099D02*
X15587799Y9556099D01*
X15587799Y9556099D02*
X16399700Y10368000D01*
X14124200Y11399000D02*
X14088400Y11434800D01*
X14886000Y11399000D02*
X14124200Y11399000D01*
D30*
X14901600Y30891600D02*
X14952000Y30942000D01*
X14901600Y29857800D02*
X14901600Y30891600D01*
D36*
X23659120Y6321120D02*
X23659120Y8242020D01*
D31*
X23652800Y3314800D02*
X23652800Y6314800D01*
D36*
X23652800Y6314800D02*
X23659120Y6321120D01*
D31*
X24652800Y3314800D02*
X24652800Y8102860D01*
X25652800Y3314800D02*
X25652800Y8048760D01*
D36*
X26653780Y6315780D02*
X26653780Y8145500D01*
D31*
X26652800Y3814800D02*
X26652800Y6314800D01*
D36*
X26652800Y6314800D02*
X26653780Y6315780D01*
X27652000Y6315600D02*
X27652000Y8132800D01*
D31*
X27652800Y3314800D02*
X27652800Y6314800D01*
D36*
X27652800Y6314800D02*
X27652000Y6315600D01*
D30*
X9652800Y7826070D02*
X9775110Y7948380D01*
X10652800Y3314800D02*
X10652800Y7440936D01*
X11652800Y7429596D02*
X11729133Y7505929D01*
X11729133Y7505929D02*
X12029132Y7805928D01*
X11652800Y3314800D02*
X11652800Y7429596D01*
X10652800Y7440936D02*
X10902121Y7690257D01*
X9652800Y3314800D02*
X9652800Y7826070D01*
X9640739Y32900989D02*
X8302205Y34239523D01*
X18901600Y30784800D02*
X16785411Y32900989D01*
X7594919Y34239523D02*
X7309327Y34525115D01*
X6276288Y33944001D02*
X5976289Y34244000D01*
X8302205Y34239523D02*
X7594919Y34239523D01*
X16785411Y32900989D02*
X9640739Y32900989D01*
X17301600Y29857800D02*
X17301600Y30784800D01*
X18901600Y29857800D02*
X18901600Y30784800D01*
X7309327Y34525115D02*
X7103309Y34525115D01*
X6284280Y33936009D02*
X6276288Y33944001D01*
X17301600Y30784800D02*
X15512422Y32573978D01*
X15512422Y32573978D02*
X9505286Y32573979D01*
X8166756Y33912512D02*
X7459467Y33912512D01*
X7435970Y33936009D02*
X6284280Y33936009D01*
X7459467Y33912512D02*
X7435970Y33936009D01*
X9505286Y32573979D02*
X8166756Y33912512D01*
X9776191Y33228000D02*
X8201167Y34803024D01*
X7324015Y33585501D02*
X7300518Y33608998D01*
X5543538Y33608999D02*
X5472047Y33680490D01*
X9496840Y32119967D02*
X8031306Y33585501D01*
X5472047Y33680490D02*
X5172048Y33980489D01*
X7300518Y33608998D02*
X5543538Y33608999D01*
X16501600Y30784800D02*
X15166433Y32119967D01*
X16501600Y29857800D02*
X16501600Y30784800D01*
X19701600Y30784800D02*
X17258400Y33228000D01*
X17258400Y33228000D02*
X9776191Y33228000D01*
X8201167Y34803024D02*
X7865400Y34803024D01*
X6320934Y35366534D02*
X6239800Y35285400D01*
X8031306Y33585501D02*
X7324015Y33585501D01*
X15166433Y32119967D02*
X9496840Y32119967D01*
X19701600Y29857800D02*
X19701600Y30784800D01*
X8825666Y35366534D02*
X6320934Y35366534D01*
X17301600Y16654600D02*
X17238000Y16591000D01*
X17301600Y18157800D02*
X17301600Y16654600D01*
X19701600Y18157800D02*
X19701600Y16895600D01*
D32*
X18901600Y18157800D02*
X18896998Y18153198D01*
X18896998Y16143502D02*
X19371500Y15669000D01*
X18896998Y18153198D02*
X18896998Y16143502D01*
D30*
X19701600Y16895600D02*
X19651000Y16845000D01*
D32*
X19371500Y15669000D02*
X19371500Y14686000D01*
D30*
X20501600Y17010400D02*
X20540000Y16972000D01*
X20501600Y18157800D02*
X20501600Y17010400D01*
D32*
X18127000Y7066000D02*
X18652800Y6540200D01*
X18652800Y6540200D02*
X18652800Y3314800D01*
X18127000Y8590000D02*
X18127000Y7066000D01*
D37*
X19371500Y14686000D02*
X18127000Y14686000D01*
D30*
X20501600Y29857800D02*
X20501600Y30784800D01*
X20501600Y30784800D02*
X17677400Y33609000D01*
D34*
X12064546Y29857800D02*
X13597600Y29857800D01*
X13597600Y29857800D02*
X14101600Y29857800D01*
X7357500Y31323000D02*
X10599346Y31323000D01*
X10599346Y31323000D02*
X12064546Y29857800D01*
D32*
X18101600Y17251400D02*
X18127000Y17226000D01*
X18101600Y18157800D02*
X18101600Y17251400D01*
X18101600Y19359600D02*
X18127000Y19385000D01*
X18101600Y18157800D02*
X18101600Y19359600D01*
X20946500Y14686000D02*
X21810000Y14686000D01*
X22101600Y18157800D02*
X21301600Y18157800D01*
X21301600Y18157800D02*
X21301600Y15041100D01*
X21301600Y15041100D02*
X20946500Y14686000D01*
X14901600Y18157800D02*
X14901600Y15501600D01*
X14901600Y15501600D02*
X14848000Y15448000D01*
X18101600Y28759280D02*
X18229569Y28631311D01*
X18101600Y29857800D02*
X18101600Y28759280D01*
X21302000Y33482000D02*
X21556000Y33736000D01*
X21302000Y33126500D02*
X21302000Y33482000D01*
X30471500Y33228000D02*
X31208000Y33228000D01*
X27068000Y36403000D02*
X27068000Y36962000D01*
X27068000Y36962000D02*
X27144000Y37038000D01*
X27118600Y37063400D02*
X27144000Y37038000D01*
X27118600Y37927000D02*
X27118600Y37063400D01*
X7687400Y36123600D02*
X7687400Y36682600D01*
X7687400Y36682600D02*
X7586000Y36784000D01*
X7687400Y36885400D02*
X7586000Y36784000D01*
X7687400Y37723800D02*
X7687400Y36885400D01*
D34*
X7383000Y32847000D02*
X7383000Y31348500D01*
X7383000Y31348500D02*
X7357500Y31323000D01*
D33*
X9872000Y26624000D02*
X10751599Y26624000D01*
D34*
X9872000Y29164000D02*
X9872000Y26624000D01*
X8602000Y30434000D02*
X9872000Y29164000D01*
X6634000Y30434000D02*
X8602000Y30434000D01*
X5782500Y31323000D02*
X5782500Y31285500D01*
X5782500Y31285500D02*
X6634000Y30434000D01*
D32*
X10751599Y26624000D02*
X10751599Y26599801D01*
X10751599Y26599801D02*
X10943600Y26407800D01*
X10943600Y26407800D02*
X12251600Y26407800D01*
D34*
X9262400Y36123600D02*
X13123200Y36123600D01*
X13123200Y36123600D02*
X13809000Y35437800D01*
X9262400Y37723800D02*
X14063000Y37723800D01*
X14063000Y37723800D02*
X16349000Y35437800D01*
X25543600Y37927000D02*
X21378200Y37927000D01*
X21378200Y37927000D02*
X18889000Y35437800D01*
X25493000Y36403000D02*
X22394200Y36403000D01*
X22394200Y36403000D02*
X21429000Y35437800D01*
X28871000Y31704000D02*
X23397800Y31704000D01*
X23397800Y31704000D02*
X22101600Y30407800D01*
X22101600Y30407800D02*
X22101600Y29857800D01*
X28896500Y33228000D02*
X28896500Y31729500D01*
X28896500Y31729500D02*
X28871000Y31704000D01*
X27946001Y30901999D02*
X26636000Y29591998D01*
X26636000Y29591998D02*
X26636000Y26878000D01*
X30446000Y31666500D02*
X29681499Y30901999D01*
X30446000Y31704000D02*
X30446000Y31666500D01*
X29681499Y30901999D02*
X27946001Y30901999D01*
D33*
X26636000Y26878000D02*
X25620000Y26878000D01*
D32*
X26165800Y26407800D02*
X26636000Y26878000D01*
D38*
X12251600Y23607800D02*
X13396200Y23607800D01*
X23951600Y23607800D02*
X22540200Y23607800D01*
X12251600Y21207800D02*
X10932800Y21207800D01*
X23951600Y21207800D02*
X25194200Y21207800D01*
D39*
X21301600Y31551100D02*
X21302000Y31551500D01*
X21301600Y29857800D02*
X21301600Y31551100D01*
X23951600Y20007800D02*
X23951600Y19723200D01*
X23951600Y13405000D02*
X24042200Y13314400D01*
X23951600Y20007800D02*
X23951600Y13405000D01*
D37*
X26842200Y13314400D02*
X26842200Y11895000D01*
X26842200Y11895000D02*
X26839200Y11892000D01*
D33*
X9872000Y26624000D02*
X9491000Y26624000D01*
D39*
X12251600Y14271600D02*
X11459500Y13479500D01*
X12251600Y20007800D02*
X12251600Y14271600D01*
X12334500Y13479500D02*
X11459500Y13479500D01*
X14419500Y13479500D02*
X12334500Y13479500D01*
X15818000Y14878000D02*
X14419500Y13479500D01*
X15818000Y15448000D02*
X15818000Y14878000D01*
D31*
X32500000Y13032000D02*
X32532000Y13000000D01*
X32500000Y15700000D02*
X32500000Y13032000D01*
X33700000Y15700000D02*
X33750000Y15750000D01*
X32500000Y15700000D02*
X33700000Y15700000D01*
G36*
X7764800Y16587465D02*
G01*
X7765197Y16580405D01*
X7771877Y16521115D01*
X7777762Y16500690D01*
X7827770Y16396847D01*
X7845473Y16374648D01*
X7938375Y16300561D01*
X7963957Y16288241D01*
X8072861Y16263385D01*
X8086924Y16261800D01*
X11420009Y16261800D01*
X11470809Y16211000D01*
X14316401Y16211000D01*
X14316401Y16002590D01*
X14308630Y15994819D01*
X14249930Y15906968D01*
X14240432Y15884038D01*
X14221032Y15786511D01*
X14219819Y15774190D01*
X14219819Y15121810D01*
X14221032Y15109489D01*
X14240432Y15011962D01*
X14249930Y14989032D01*
X14308630Y14901181D01*
X14326181Y14883630D01*
X14414032Y14824930D01*
X14436962Y14815432D01*
X14534489Y14796032D01*
X14546810Y14794819D01*
X14974943Y14794819D01*
X15101990Y14643410D01*
X15118879Y14629239D01*
X15293120Y14528641D01*
X15313837Y14521100D01*
X15506538Y14487122D01*
X15517499Y14486163D01*
X15616191Y14486163D01*
X15690000Y14559972D01*
X15945999Y14559972D01*
X16019808Y14486163D01*
X16121258Y14486163D01*
X16137634Y14488319D01*
X16416859Y14563137D01*
X16441339Y14575880D01*
X16597590Y14706990D01*
X16611761Y14723879D01*
X16712359Y14898120D01*
X16719900Y14918837D01*
X16753878Y15111538D01*
X16754837Y15122499D01*
X16754837Y15246191D01*
X16681028Y15320000D01*
X16019809Y15320001D01*
X15946000Y15246192D01*
X15945999Y14559972D01*
X15690000Y14559972D01*
X15690000Y15649809D01*
X15945999Y15649809D01*
X16019808Y15576000D01*
X16681028Y15575999D01*
X16754837Y15649808D01*
X16754837Y15776258D01*
X16752681Y15792634D01*
X16677863Y16071858D01*
X16665120Y16096338D01*
X16534010Y16252590D01*
X16517121Y16266761D01*
X16342880Y16367359D01*
X16322163Y16374900D01*
X16129462Y16408878D01*
X16118501Y16409837D01*
X16019809Y16409837D01*
X15946000Y16336028D01*
X15945999Y15649809D01*
X15690000Y15649809D01*
X15690001Y16336028D01*
X15616192Y16409837D01*
X15514742Y16409837D01*
X15498366Y16407681D01*
X15486800Y16404582D01*
X15486800Y16707812D01*
X15487582Y16707674D01*
X15577600Y16783208D01*
X15577601Y18281800D01*
X15825600Y18281799D01*
X15825599Y16789772D01*
X15899408Y16715963D01*
X15959858Y16715963D01*
X15976234Y16718119D01*
X16255459Y16792937D01*
X16279939Y16805680D01*
X16436190Y16936790D01*
X16450362Y16953679D01*
X16491319Y17024619D01*
X16757790Y17024619D01*
X16770111Y17025832D01*
X16780655Y17027929D01*
X16690127Y16920042D01*
X16679104Y16900949D01*
X16610629Y16712816D01*
X16606801Y16691103D01*
X16606801Y16490897D01*
X16610629Y16469184D01*
X16679104Y16281051D01*
X16690127Y16261958D01*
X16818818Y16108589D01*
X16835707Y16094418D01*
X17009093Y15994313D01*
X17029810Y15986772D01*
X17226977Y15952007D01*
X17249023Y15952007D01*
X17446190Y15986772D01*
X17466907Y15994313D01*
X17640293Y16094418D01*
X17657182Y16108589D01*
X17785873Y16261958D01*
X17796896Y16281051D01*
X17865371Y16469184D01*
X17869199Y16490897D01*
X17869199Y16645995D01*
X17898093Y16629313D01*
X17918810Y16621772D01*
X18115977Y16587007D01*
X18138023Y16587007D01*
X18311799Y16617648D01*
X18311799Y16169048D01*
X18306008Y16102863D01*
X18307929Y16080899D01*
X18325129Y16016713D01*
X18336664Y15951288D01*
X18344206Y15930569D01*
X18351679Y15917626D01*
X18355548Y15903184D01*
X18364866Y15883201D01*
X18402975Y15828778D01*
X18436197Y15771235D01*
X18450369Y15754345D01*
X18501268Y15711636D01*
X18767337Y15445565D01*
X18724886Y15417200D01*
X18526303Y15417200D01*
X18375837Y15486725D01*
X18358637Y15491869D01*
X18141098Y15524381D01*
X18123145Y15524490D01*
X17905226Y15494639D01*
X17887965Y15489706D01*
X17687182Y15399892D01*
X17671999Y15390312D01*
X17504495Y15247754D01*
X17492610Y15234297D01*
X17371851Y15050458D01*
X17364221Y15034207D01*
X17299912Y14823864D01*
X17297150Y14806124D01*
X17294463Y14586187D01*
X17296791Y14568385D01*
X17355940Y14356533D01*
X17363171Y14340100D01*
X17479404Y14153365D01*
X17490956Y14139622D01*
X17654927Y13993016D01*
X17669871Y13983068D01*
X17868399Y13888375D01*
X17885535Y13883021D01*
X18102660Y13847855D01*
X18120610Y13847526D01*
X18338878Y13874712D01*
X18356199Y13879434D01*
X18530359Y13954800D01*
X18724886Y13954800D01*
X18795032Y13907930D01*
X18817962Y13898432D01*
X18915489Y13879032D01*
X18927810Y13877819D01*
X19815190Y13877819D01*
X19827511Y13879032D01*
X19925038Y13898432D01*
X19947968Y13907930D01*
X20035819Y13966630D01*
X20053370Y13984181D01*
X20112070Y14072032D01*
X20121568Y14094962D01*
X20140968Y14192489D01*
X20142181Y14204810D01*
X20142181Y15167190D01*
X20140968Y15179511D01*
X20121568Y15277038D01*
X20112070Y15299968D01*
X20053370Y15387819D01*
X20035819Y15405370D01*
X19956700Y15458236D01*
X19956700Y15643464D01*
X19962489Y15709640D01*
X19960568Y15731603D01*
X19943374Y15795773D01*
X19931835Y15861214D01*
X19924294Y15881932D01*
X19916818Y15894881D01*
X19912949Y15909320D01*
X19903631Y15929302D01*
X19865523Y15983726D01*
X19832301Y16041268D01*
X19818130Y16058157D01*
X19767238Y16100860D01*
X19662081Y16206017D01*
X19859190Y16240772D01*
X19879907Y16248313D01*
X20053293Y16348418D01*
X20070182Y16362589D01*
X20155996Y16464859D01*
X20311093Y16375313D01*
X20331810Y16367772D01*
X20528977Y16333007D01*
X20551023Y16333007D01*
X20716401Y16362167D01*
X20716401Y15494181D01*
X20502810Y15494181D01*
X20490489Y15492968D01*
X20392962Y15473568D01*
X20370032Y15464070D01*
X20282181Y15405370D01*
X20264630Y15387819D01*
X20205930Y15299968D01*
X20196432Y15277038D01*
X20177032Y15179511D01*
X20175819Y15167190D01*
X20175819Y14204810D01*
X20177032Y14192489D01*
X20196432Y14094962D01*
X20205930Y14072032D01*
X20264630Y13984181D01*
X20282181Y13966630D01*
X20370032Y13907930D01*
X20392962Y13898432D01*
X20490489Y13879032D01*
X20502810Y13877819D01*
X21390190Y13877819D01*
X21402511Y13879032D01*
X21500038Y13898432D01*
X21522968Y13907930D01*
X21610819Y13966630D01*
X21622337Y13978148D01*
X21684641Y13957904D01*
X21704230Y13954801D01*
X21915770Y13954801D01*
X21935359Y13957904D01*
X22136547Y14023273D01*
X22154218Y14032277D01*
X22325358Y14156618D01*
X22339382Y14170642D01*
X22357007Y14194901D01*
X22775363Y14194901D01*
X22775363Y13516209D01*
X22849172Y13442400D01*
X23840391Y13442400D01*
X23914200Y13516209D01*
X23914200Y14757428D01*
X24170200Y14757428D01*
X24170200Y13516209D01*
X24244009Y13442400D01*
X25235228Y13442400D01*
X25309037Y13516209D01*
X25309037Y14195590D01*
X25884019Y14195590D01*
X25884019Y12433210D01*
X25885232Y12420889D01*
X25904632Y12323362D01*
X25914130Y12300432D01*
X25972830Y12212581D01*
X25990381Y12195030D01*
X26050357Y12154956D01*
X26012112Y12029864D01*
X26009350Y12012124D01*
X26006663Y11792187D01*
X26008991Y11774385D01*
X26068140Y11562533D01*
X26075371Y11546100D01*
X26191604Y11359365D01*
X26203156Y11345622D01*
X26367127Y11199016D01*
X26382071Y11189068D01*
X26580599Y11094375D01*
X26597735Y11089021D01*
X26814860Y11053855D01*
X26832810Y11053526D01*
X27051078Y11080712D01*
X27068399Y11085434D01*
X27270264Y11172789D01*
X27285563Y11182183D01*
X27429796Y11301929D01*
X31060776Y11301929D01*
X31060776Y10001809D01*
X31134585Y9928000D01*
X33865415Y9927999D01*
X33939224Y10001808D01*
X33939224Y10432187D01*
X34167463Y10432187D01*
X34169791Y10414385D01*
X34228940Y10202533D01*
X34236171Y10186100D01*
X34352404Y9999365D01*
X34363956Y9985622D01*
X34527927Y9839016D01*
X34542871Y9829068D01*
X34741399Y9734375D01*
X34758535Y9729021D01*
X34975660Y9693855D01*
X34993610Y9693526D01*
X35211878Y9720712D01*
X35229199Y9725434D01*
X35431064Y9812789D01*
X35446363Y9822183D01*
X35615595Y9962683D01*
X35627643Y9975993D01*
X35750640Y10158344D01*
X35758468Y10174500D01*
X35825459Y10384411D01*
X35828453Y10402897D01*
X35831360Y10640824D01*
X35828818Y10659378D01*
X35766976Y10870863D01*
X35759545Y10887206D01*
X35641041Y11072506D01*
X35629322Y11086107D01*
X35463572Y11230700D01*
X35448507Y11240465D01*
X35248837Y11332725D01*
X35231637Y11337869D01*
X35014098Y11370381D01*
X34996145Y11370490D01*
X34778226Y11340639D01*
X34760965Y11335706D01*
X34560182Y11245892D01*
X34544999Y11236312D01*
X34377495Y11093754D01*
X34365610Y11080297D01*
X34244851Y10896458D01*
X34237221Y10880207D01*
X34172912Y10669864D01*
X34170150Y10652124D01*
X34167463Y10432187D01*
X33939224Y10432187D01*
X33939224Y11304183D01*
X33937780Y11317613D01*
X33864745Y11653353D01*
X33856115Y11674187D01*
X33727304Y11874620D01*
X33715501Y11888241D01*
X33537151Y12042783D01*
X33521989Y12052527D01*
X33307323Y12150561D01*
X33290030Y12155639D01*
X33060906Y12188582D01*
X33051929Y12189224D01*
X32745756Y12189224D01*
X32761199Y12193434D01*
X32963064Y12280789D01*
X32978363Y12290183D01*
X33147595Y12430683D01*
X33159643Y12443993D01*
X33282640Y12626344D01*
X33290468Y12642500D01*
X33357459Y12852411D01*
X33360453Y12870897D01*
X33363360Y13108825D01*
X33360818Y13127378D01*
X33339466Y13200396D01*
X33471640Y13300209D01*
X33487371Y13317466D01*
X33588860Y13481376D01*
X33597295Y13503151D01*
X33631645Y13686903D01*
X33632720Y13698505D01*
X33632720Y14926908D01*
X33725660Y14911855D01*
X33743610Y14911526D01*
X33961878Y14938712D01*
X33979199Y14943434D01*
X34181064Y15030789D01*
X34196363Y15040183D01*
X34365595Y15180683D01*
X34377643Y15193993D01*
X34500640Y15376344D01*
X34508468Y15392500D01*
X34575459Y15602411D01*
X34578453Y15620897D01*
X34581360Y15858824D01*
X34578818Y15877378D01*
X34516976Y16088863D01*
X34509545Y16105206D01*
X34391041Y16290506D01*
X34379322Y16304107D01*
X34213572Y16448700D01*
X34198507Y16458465D01*
X33998837Y16550725D01*
X33981637Y16555869D01*
X33764098Y16588381D01*
X33746145Y16588490D01*
X33632720Y16572953D01*
X33632720Y16702955D01*
X33631041Y16717427D01*
X33578029Y16942822D01*
X33566857Y16966620D01*
X33449791Y17121640D01*
X33432534Y17137371D01*
X33285822Y17228211D01*
X33325459Y17352411D01*
X33328453Y17370897D01*
X33331360Y17608824D01*
X33328818Y17627378D01*
X33266976Y17838863D01*
X33259545Y17855206D01*
X33141041Y18040506D01*
X33129322Y18054107D01*
X32963572Y18198700D01*
X32948507Y18208465D01*
X32748837Y18300725D01*
X32731637Y18305869D01*
X32514098Y18338381D01*
X32496145Y18338490D01*
X32278226Y18308639D01*
X32260965Y18303706D01*
X32060182Y18213892D01*
X32044999Y18204312D01*
X31877495Y18061754D01*
X31865610Y18048297D01*
X31744851Y17864458D01*
X31737221Y17848207D01*
X31672912Y17637864D01*
X31670150Y17620124D01*
X31667463Y17400187D01*
X31669791Y17382385D01*
X31712535Y17229289D01*
X31707178Y17228029D01*
X31683380Y17216857D01*
X31528360Y17099791D01*
X31512629Y17082534D01*
X31411140Y16918624D01*
X31402705Y16896849D01*
X31368355Y16713097D01*
X31367280Y16701495D01*
X31367280Y13697045D01*
X31368959Y13682573D01*
X31421971Y13457178D01*
X31433143Y13433380D01*
X31550209Y13278360D01*
X31567466Y13262629D01*
X31715108Y13171213D01*
X31704912Y13137864D01*
X31702150Y13120124D01*
X31699463Y12900187D01*
X31701791Y12882385D01*
X31760940Y12670533D01*
X31768171Y12654100D01*
X31884404Y12467365D01*
X31895956Y12453622D01*
X32059927Y12307016D01*
X32074871Y12297068D01*
X32273399Y12202375D01*
X32290535Y12197021D01*
X32338676Y12189224D01*
X31945817Y12189224D01*
X31932387Y12187780D01*
X31596647Y12114745D01*
X31575813Y12106115D01*
X31375380Y11977304D01*
X31361759Y11965501D01*
X31207217Y11787151D01*
X31197473Y11771989D01*
X31099439Y11557323D01*
X31094361Y11540030D01*
X31061418Y11310906D01*
X31060776Y11301929D01*
X27429796Y11301929D01*
X27454795Y11322683D01*
X27466843Y11335993D01*
X27589840Y11518344D01*
X27597668Y11534500D01*
X27664659Y11744411D01*
X27667653Y11762897D01*
X27670560Y12000824D01*
X27668018Y12019378D01*
X27629300Y12151786D01*
X27694019Y12195030D01*
X27711570Y12212581D01*
X27770270Y12300432D01*
X27779768Y12323362D01*
X27799168Y12420889D01*
X27800381Y12433210D01*
X27800381Y12900187D01*
X29667463Y12900187D01*
X29669791Y12882385D01*
X29728940Y12670533D01*
X29736171Y12654100D01*
X29852404Y12467365D01*
X29863956Y12453622D01*
X30027927Y12307016D01*
X30042871Y12297068D01*
X30241399Y12202375D01*
X30258535Y12197021D01*
X30475660Y12161855D01*
X30493610Y12161526D01*
X30711878Y12188712D01*
X30729199Y12193434D01*
X30931064Y12280789D01*
X30946363Y12290183D01*
X31115595Y12430683D01*
X31127643Y12443993D01*
X31250640Y12626344D01*
X31258468Y12642500D01*
X31325459Y12852411D01*
X31328453Y12870897D01*
X31331360Y13108824D01*
X31328818Y13127378D01*
X31266976Y13338863D01*
X31259545Y13355206D01*
X31141041Y13540506D01*
X31129322Y13554107D01*
X30963572Y13698700D01*
X30948507Y13708465D01*
X30748837Y13800725D01*
X30731637Y13805869D01*
X30514098Y13838381D01*
X30496145Y13838490D01*
X30278226Y13808639D01*
X30260965Y13803706D01*
X30060182Y13713892D01*
X30044999Y13704312D01*
X29877495Y13561754D01*
X29865610Y13548297D01*
X29744851Y13364458D01*
X29737221Y13348207D01*
X29672912Y13137864D01*
X29670150Y13120124D01*
X29667463Y12900187D01*
X27800381Y12900187D01*
X27800381Y14195590D01*
X27799168Y14207911D01*
X27779768Y14305438D01*
X27770270Y14328368D01*
X27711570Y14416219D01*
X27694019Y14433770D01*
X27606168Y14492470D01*
X27583238Y14501968D01*
X27485711Y14521368D01*
X27473390Y14522581D01*
X26211010Y14522581D01*
X26198689Y14521368D01*
X26101162Y14501968D01*
X26078232Y14492470D01*
X25990381Y14433770D01*
X25972830Y14416219D01*
X25914130Y14328368D01*
X25904632Y14305438D01*
X25885232Y14207911D01*
X25884019Y14195590D01*
X25309037Y14195590D01*
X25309037Y14197658D01*
X25306881Y14214034D01*
X25232063Y14493258D01*
X25219320Y14517738D01*
X25088210Y14673990D01*
X25071321Y14688161D01*
X24897080Y14788759D01*
X24876363Y14796300D01*
X24683662Y14830278D01*
X24672701Y14831237D01*
X24244009Y14831237D01*
X24170200Y14757428D01*
X23914200Y14757428D01*
X23840391Y14831237D01*
X23408942Y14831237D01*
X23392566Y14829081D01*
X23113342Y14754263D01*
X23088862Y14741520D01*
X22932610Y14610410D01*
X22918439Y14593521D01*
X22817841Y14419280D01*
X22810300Y14398563D01*
X22776322Y14205862D01*
X22775363Y14194901D01*
X22357007Y14194901D01*
X22463723Y14341782D01*
X22472727Y14359453D01*
X22538096Y14560641D01*
X22541199Y14580230D01*
X22541199Y14791770D01*
X22538096Y14811359D01*
X22472727Y15012547D01*
X22463723Y15030218D01*
X22339382Y15201358D01*
X22325358Y15215382D01*
X22154218Y15339723D01*
X22136547Y15348727D01*
X21935359Y15414096D01*
X21915770Y15417199D01*
X21886800Y15417199D01*
X21886800Y16110187D01*
X29359463Y16110187D01*
X29361791Y16092385D01*
X29420940Y15880533D01*
X29428171Y15864100D01*
X29544404Y15677365D01*
X29555956Y15663622D01*
X29719927Y15517016D01*
X29734871Y15507068D01*
X29933399Y15412375D01*
X29950535Y15407021D01*
X30167660Y15371855D01*
X30185610Y15371526D01*
X30403878Y15398712D01*
X30421199Y15403434D01*
X30623064Y15490789D01*
X30638363Y15500183D01*
X30807595Y15640683D01*
X30819643Y15653993D01*
X30942640Y15836344D01*
X30950468Y15852500D01*
X31017459Y16062411D01*
X31020453Y16080897D01*
X31023360Y16318824D01*
X31020818Y16337378D01*
X30958976Y16548863D01*
X30951545Y16565206D01*
X30833041Y16750506D01*
X30821322Y16764107D01*
X30655572Y16908700D01*
X30640507Y16918465D01*
X30440837Y17010725D01*
X30423637Y17015869D01*
X30206098Y17048381D01*
X30188145Y17048490D01*
X29970226Y17018639D01*
X29952965Y17013706D01*
X29752182Y16923892D01*
X29736999Y16914312D01*
X29569495Y16771754D01*
X29557610Y16758297D01*
X29436851Y16574458D01*
X29429221Y16558207D01*
X29364912Y16347864D01*
X29362150Y16330124D01*
X29359463Y16110187D01*
X21886800Y16110187D01*
X21886800Y16211000D01*
X24762191Y16211000D01*
X24812991Y16261800D01*
X28045535Y16261800D01*
X28052595Y16262197D01*
X28111885Y16268877D01*
X28132310Y16274762D01*
X28236153Y16324770D01*
X28258352Y16342473D01*
X28332439Y16435375D01*
X28344759Y16460957D01*
X28369615Y16569861D01*
X28371200Y16583924D01*
X28371200Y18142187D01*
X29359463Y18142187D01*
X29361791Y18124385D01*
X29420940Y17912533D01*
X29428171Y17896100D01*
X29544404Y17709365D01*
X29555956Y17695622D01*
X29719927Y17549016D01*
X29734871Y17539068D01*
X29933399Y17444375D01*
X29950535Y17439021D01*
X30167660Y17403855D01*
X30185610Y17403526D01*
X30403878Y17430712D01*
X30421199Y17435434D01*
X30623064Y17522789D01*
X30638363Y17532183D01*
X30807595Y17672683D01*
X30819643Y17685993D01*
X30942640Y17868344D01*
X30950468Y17884500D01*
X31017459Y18094411D01*
X31020453Y18112897D01*
X31023360Y18350824D01*
X31020818Y18369378D01*
X30958976Y18580863D01*
X30951545Y18597206D01*
X30833041Y18782506D01*
X30821322Y18796107D01*
X30655572Y18940700D01*
X30640507Y18950465D01*
X30440837Y19042725D01*
X30423637Y19047869D01*
X30206098Y19080381D01*
X30188145Y19080490D01*
X29970226Y19050639D01*
X29952965Y19045706D01*
X29752182Y18955892D01*
X29736999Y18946312D01*
X29569495Y18803754D01*
X29557610Y18790297D01*
X29436851Y18606458D01*
X29429221Y18590207D01*
X29364912Y18379864D01*
X29362150Y18362124D01*
X29359463Y18142187D01*
X28371200Y18142187D01*
X28371200Y21190187D01*
X29359463Y21190187D01*
X29361791Y21172385D01*
X29420940Y20960533D01*
X29428171Y20944100D01*
X29544404Y20757365D01*
X29555956Y20743622D01*
X29719927Y20597016D01*
X29734871Y20587068D01*
X29933399Y20492375D01*
X29950535Y20487021D01*
X30167660Y20451855D01*
X30185610Y20451526D01*
X30403878Y20478712D01*
X30421199Y20483434D01*
X30623064Y20570789D01*
X30638363Y20580183D01*
X30807595Y20720683D01*
X30819643Y20733993D01*
X30942640Y20916344D01*
X30950468Y20932500D01*
X31017459Y21142411D01*
X31020453Y21160897D01*
X31020810Y21190187D01*
X31391463Y21190187D01*
X31393791Y21172385D01*
X31452940Y20960533D01*
X31460171Y20944100D01*
X31576404Y20757365D01*
X31587956Y20743622D01*
X31751927Y20597016D01*
X31766871Y20587068D01*
X31965399Y20492375D01*
X31982535Y20487021D01*
X32199660Y20451855D01*
X32217610Y20451526D01*
X32435878Y20478712D01*
X32453199Y20483434D01*
X32655064Y20570789D01*
X32670363Y20580183D01*
X32839595Y20720683D01*
X32851643Y20733993D01*
X32974640Y20916344D01*
X32982468Y20932500D01*
X33049459Y21142411D01*
X33052453Y21160897D01*
X33055360Y21398824D01*
X33052818Y21417378D01*
X32990976Y21628863D01*
X32983545Y21645206D01*
X32865041Y21830506D01*
X32853322Y21844107D01*
X32687572Y21988700D01*
X32672507Y21998465D01*
X32472837Y22090725D01*
X32455637Y22095869D01*
X32238098Y22128381D01*
X32220145Y22128490D01*
X32002226Y22098639D01*
X31984965Y22093706D01*
X31784182Y22003892D01*
X31768999Y21994312D01*
X31601495Y21851754D01*
X31589610Y21838297D01*
X31468851Y21654458D01*
X31461221Y21638207D01*
X31396912Y21427864D01*
X31394150Y21410124D01*
X31391463Y21190187D01*
X31020810Y21190187D01*
X31023360Y21398824D01*
X31020818Y21417378D01*
X30958976Y21628863D01*
X30951545Y21645206D01*
X30833041Y21830506D01*
X30821322Y21844107D01*
X30655572Y21988700D01*
X30640507Y21998465D01*
X30440837Y22090725D01*
X30423637Y22095869D01*
X30206098Y22128381D01*
X30188145Y22128490D01*
X29970226Y22098639D01*
X29952965Y22093706D01*
X29752182Y22003892D01*
X29736999Y21994312D01*
X29569495Y21851754D01*
X29557610Y21838297D01*
X29436851Y21654458D01*
X29429221Y21638207D01*
X29364912Y21427864D01*
X29362150Y21410124D01*
X29359463Y21190187D01*
X28371200Y21190187D01*
X28371200Y22815000D01*
X36370801Y22815000D01*
X36370800Y2016681D01*
X35446681Y2016681D01*
X35446681Y3126190D01*
X35445468Y3138511D01*
X35427639Y3228142D01*
X35429283Y3385041D01*
X35428474Y3395793D01*
X35386842Y3652836D01*
X35384428Y3662665D01*
X35302340Y3909432D01*
X35298385Y3918749D01*
X35177899Y4149216D01*
X35172506Y4157781D01*
X35016723Y4366020D01*
X35010029Y4373612D01*
X34822957Y4554266D01*
X34815135Y4560691D01*
X34601586Y4709111D01*
X34592839Y4714202D01*
X34358307Y4826572D01*
X34348858Y4830199D01*
X34099376Y4903624D01*
X34089469Y4905694D01*
X33831458Y4938289D01*
X33821347Y4938748D01*
X33561444Y4929672D01*
X33551390Y4928508D01*
X33296281Y4877995D01*
X33286542Y4875240D01*
X33042791Y4784590D01*
X33033618Y4780312D01*
X32807495Y4651857D01*
X32799124Y4646167D01*
X32596449Y4483211D01*
X32589095Y4476257D01*
X32415080Y4282995D01*
X32408932Y4274954D01*
X32268054Y4056354D01*
X32263271Y4047434D01*
X32159156Y3809123D01*
X32155861Y3799554D01*
X32091186Y3547662D01*
X32089463Y3537689D01*
X32065893Y3278698D01*
X32065787Y3268577D01*
X32083928Y3009148D01*
X32085441Y2999141D01*
X32144827Y2745951D01*
X32147921Y2736314D01*
X32247023Y2495874D01*
X32251618Y2486856D01*
X32387886Y2265355D01*
X32393864Y2257188D01*
X32563794Y2060322D01*
X32571001Y2053215D01*
X32770219Y1886051D01*
X32778470Y1880187D01*
X33001853Y1747025D01*
X33010934Y1742556D01*
X33216819Y1661040D01*
X33216819Y1550310D01*
X33218032Y1537989D01*
X33237432Y1440462D01*
X33246930Y1417532D01*
X33305630Y1329681D01*
X33323181Y1312130D01*
X33411032Y1253430D01*
X33433962Y1243932D01*
X33531489Y1224532D01*
X33543810Y1223319D01*
X34653319Y1223319D01*
X34653319Y329200D01*
X31853911Y329200D01*
X31841307Y331946D01*
X31833816Y332712D01*
X31666510Y349707D01*
X31538483Y389828D01*
X31421130Y454877D01*
X31319256Y542194D01*
X31237021Y648211D01*
X31177783Y768598D01*
X31142924Y902424D01*
X31132898Y1032709D01*
X31130242Y1046601D01*
X31129200Y1049956D01*
X31129200Y6875345D01*
X31133500Y6903949D01*
X31134015Y6918206D01*
X31133439Y6925681D01*
X31121126Y7085695D01*
X31118470Y7099587D01*
X31116000Y7107542D01*
X31115758Y7115949D01*
X31113730Y7130112D01*
X31111829Y7137386D01*
X31059127Y7339714D01*
X31054052Y7352916D01*
X31048327Y7363938D01*
X31045483Y7376015D01*
X31040734Y7389306D01*
X31037379Y7396161D01*
X30944992Y7583916D01*
X30937365Y7595830D01*
X30929542Y7605472D01*
X30924289Y7616816D01*
X30916845Y7629036D01*
X30912233Y7634973D01*
X30784086Y7800179D01*
X30774221Y7810315D01*
X30764616Y7818190D01*
X30757221Y7828203D01*
X30747557Y7838603D01*
X30741829Y7843521D01*
X30582980Y7979671D01*
X30571280Y7987616D01*
X30560285Y7993401D01*
X30551047Y8001704D01*
X30539537Y8009922D01*
X30532895Y8013618D01*
X30349890Y8115060D01*
X30336830Y8120489D01*
X30324902Y8123943D01*
X30314057Y8130293D01*
X30300855Y8136115D01*
X30293730Y8138326D01*
X30094336Y8200812D01*
X30080450Y8203505D01*
X30068072Y8204490D01*
X30056276Y8208494D01*
X30042386Y8211521D01*
X30034894Y8212287D01*
X29826760Y8233429D01*
X29812617Y8233274D01*
X29779674Y8229200D01*
X29324655Y8229200D01*
X29296051Y8233500D01*
X29281794Y8234015D01*
X29274342Y8233441D01*
X29114305Y8221126D01*
X29100413Y8218470D01*
X29092458Y8216000D01*
X29084051Y8215758D01*
X29069888Y8213730D01*
X29062614Y8211829D01*
X28860286Y8159127D01*
X28847084Y8154052D01*
X28836062Y8148327D01*
X28823985Y8145483D01*
X28810694Y8140734D01*
X28803839Y8137379D01*
X28616084Y8044992D01*
X28604170Y8037365D01*
X28594528Y8029542D01*
X28583184Y8024289D01*
X28570964Y8016845D01*
X28565027Y8012233D01*
X28399821Y7884086D01*
X28389685Y7874221D01*
X28381810Y7864616D01*
X28371797Y7857221D01*
X28361397Y7847557D01*
X28356479Y7841829D01*
X28220329Y7682980D01*
X28212384Y7671280D01*
X28206599Y7660285D01*
X28198296Y7651047D01*
X28190078Y7639537D01*
X28186382Y7632895D01*
X28084940Y7449890D01*
X28079511Y7436830D01*
X28076057Y7424902D01*
X28069707Y7414057D01*
X28063885Y7400855D01*
X28061674Y7393730D01*
X27999188Y7194336D01*
X27996495Y7180450D01*
X27995510Y7168072D01*
X27991506Y7156276D01*
X27988479Y7142386D01*
X27987713Y7134894D01*
X27966571Y6926760D01*
X27966726Y6912617D01*
X27970801Y6879666D01*
X27970801Y6256637D01*
X27854609Y6256637D01*
X27780800Y6182828D01*
X27780800Y5626000D01*
X27524800Y5626000D01*
X27524800Y6182828D01*
X27450991Y6256637D01*
X27319542Y6256637D01*
X27303166Y6254481D01*
X27183260Y6222353D01*
X26994262Y6255678D01*
X26983301Y6256637D01*
X26854609Y6256637D01*
X26780800Y6182828D01*
X26780800Y5626000D01*
X26524800Y5626000D01*
X26524800Y6182828D01*
X26450991Y6256637D01*
X26319542Y6256637D01*
X26303166Y6254481D01*
X26183260Y6222353D01*
X25994262Y6255678D01*
X25983301Y6256637D01*
X25854609Y6256637D01*
X25780800Y6182828D01*
X25780800Y5626000D01*
X25524800Y5626000D01*
X25524800Y6182828D01*
X25450991Y6256637D01*
X25319542Y6256637D01*
X25303166Y6254481D01*
X25183260Y6222353D01*
X24994262Y6255678D01*
X24983301Y6256637D01*
X24854609Y6256637D01*
X24780800Y6182828D01*
X24780800Y5626000D01*
X24524800Y5626000D01*
X24524800Y6182828D01*
X24450991Y6256637D01*
X24319542Y6256637D01*
X24303166Y6254481D01*
X24183260Y6222353D01*
X23994262Y6255678D01*
X23983301Y6256637D01*
X23854609Y6256637D01*
X23780800Y6182828D01*
X23780800Y5626000D01*
X23524800Y5626000D01*
X23524800Y6182828D01*
X23450991Y6256637D01*
X23319541Y6256637D01*
X23303166Y6254481D01*
X23231199Y6235197D01*
X23231199Y6300103D01*
X23227371Y6321816D01*
X23158896Y6509949D01*
X23147873Y6529042D01*
X23019182Y6682411D01*
X23002293Y6696582D01*
X22828907Y6796687D01*
X22808190Y6804228D01*
X22611751Y6838865D01*
X22679781Y7025774D01*
X22683609Y7047487D01*
X22683609Y7247693D01*
X22679781Y7269406D01*
X22611306Y7457539D01*
X22600283Y7476632D01*
X22471592Y7630001D01*
X22454703Y7644172D01*
X22281317Y7744277D01*
X22260600Y7751818D01*
X22063433Y7786583D01*
X22041387Y7786583D01*
X21844220Y7751818D01*
X21823503Y7744277D01*
X21650117Y7644172D01*
X21633228Y7630001D01*
X21504537Y7476632D01*
X21493514Y7457539D01*
X21425039Y7269406D01*
X21421211Y7247693D01*
X21421211Y7072200D01*
X21381442Y7262563D01*
X21377018Y7275998D01*
X21371840Y7287283D01*
X21369570Y7299591D01*
X21365390Y7313297D01*
X21362451Y7320068D01*
X21283388Y7502773D01*
X21276353Y7515043D01*
X21269010Y7525059D01*
X21264316Y7536646D01*
X21257481Y7549209D01*
X21253222Y7555283D01*
X21139035Y7718361D01*
X21129676Y7728967D01*
X21120468Y7737302D01*
X21113534Y7747718D01*
X21104292Y7758671D01*
X21098815Y7763839D01*
X20954278Y7900520D01*
X20942978Y7909026D01*
X20932284Y7915338D01*
X20923443Y7924102D01*
X20912305Y7932899D01*
X20905891Y7936885D01*
X20736669Y8041806D01*
X20723890Y8047867D01*
X20712139Y8051902D01*
X20701732Y8058699D01*
X20689078Y8065068D01*
X20681971Y8067694D01*
X20495096Y8136451D01*
X20481358Y8139819D01*
X20469040Y8141408D01*
X20457400Y8146005D01*
X20443559Y8149724D01*
X20436113Y8150841D01*
X20239423Y8180589D01*
X20225287Y8181126D01*
X20212900Y8180205D01*
X20200621Y8182359D01*
X20186405Y8183224D01*
X20178910Y8182833D01*
X19980099Y8172413D01*
X19966147Y8170097D01*
X19954203Y8166706D01*
X19941700Y8166346D01*
X19927537Y8164318D01*
X19920264Y8162417D01*
X19727714Y8112262D01*
X19714512Y8107187D01*
X19703492Y8101462D01*
X19691339Y8098601D01*
X19677908Y8093783D01*
X19671206Y8090484D01*
X19492581Y8002589D01*
X19480669Y7994964D01*
X19471024Y7987140D01*
X19459727Y7981908D01*
X19447592Y7974530D01*
X19441626Y7969910D01*
X19284302Y7847877D01*
X19274165Y7838011D01*
X19266289Y7828406D01*
X19256225Y7820972D01*
X19245738Y7811208D01*
X19240942Y7805598D01*
X19111387Y7654443D01*
X19103442Y7642743D01*
X19097657Y7631748D01*
X19089303Y7622453D01*
X19081011Y7610810D01*
X19077414Y7604310D01*
X18980899Y7430192D01*
X18975469Y7417132D01*
X18972015Y7405205D01*
X18965678Y7394382D01*
X18959871Y7381228D01*
X18957626Y7374016D01*
X18898167Y7184282D01*
X18895474Y7170396D01*
X18894489Y7158017D01*
X18890485Y7146221D01*
X18887603Y7132995D01*
X18712200Y7308397D01*
X18712200Y7995448D01*
X18742596Y8020683D01*
X18754643Y8033993D01*
X18877640Y8216344D01*
X18885468Y8232500D01*
X18952459Y8442411D01*
X18955453Y8460897D01*
X18958360Y8698824D01*
X18955818Y8717378D01*
X18893976Y8928863D01*
X18886545Y8945206D01*
X18768041Y9130506D01*
X18756322Y9144107D01*
X18590572Y9288700D01*
X18575507Y9298465D01*
X18375837Y9390725D01*
X18358637Y9395869D01*
X18141098Y9428381D01*
X18123146Y9428491D01*
X18116955Y9427643D01*
X17984779Y9559819D01*
X18418390Y9559819D01*
X18430711Y9561032D01*
X18528238Y9580432D01*
X18551168Y9589930D01*
X18639019Y9648630D01*
X18656570Y9666181D01*
X18715270Y9754032D01*
X18724768Y9776962D01*
X18744168Y9874489D01*
X18745381Y9886810D01*
X18745381Y9921211D01*
X18855221Y9921211D01*
X18874810Y9924314D01*
X19075998Y9989683D01*
X19093669Y9998687D01*
X19264809Y10123028D01*
X19278833Y10137052D01*
X19397296Y10300103D01*
X24968801Y10300103D01*
X24968801Y10099897D01*
X24972629Y10078184D01*
X25041104Y9890051D01*
X25052127Y9870958D01*
X25180818Y9717589D01*
X25197707Y9703418D01*
X25371093Y9603313D01*
X25391810Y9595772D01*
X25588977Y9561007D01*
X25611023Y9561007D01*
X25808190Y9595772D01*
X25828907Y9603313D01*
X26002293Y9703418D01*
X26019182Y9717589D01*
X26147873Y9870958D01*
X26150000Y9874642D01*
X26152127Y9870958D01*
X26280818Y9717589D01*
X26297707Y9703418D01*
X26471093Y9603313D01*
X26491810Y9595772D01*
X26688977Y9561007D01*
X26711023Y9561007D01*
X26908190Y9595772D01*
X26928907Y9603313D01*
X27102293Y9703418D01*
X27119182Y9717589D01*
X27200000Y9813905D01*
X27280818Y9717589D01*
X27297707Y9703418D01*
X27471093Y9603313D01*
X27491810Y9595772D01*
X27688977Y9561007D01*
X27711023Y9561007D01*
X27908190Y9595772D01*
X27914838Y9598192D01*
X31060776Y9598192D01*
X31060776Y8295817D01*
X31062220Y8282387D01*
X31135255Y7946647D01*
X31143885Y7925813D01*
X31272696Y7725380D01*
X31284499Y7711759D01*
X31462849Y7557217D01*
X31478011Y7547473D01*
X31692677Y7449439D01*
X31709970Y7444361D01*
X31939094Y7411418D01*
X31948071Y7410776D01*
X32298191Y7410776D01*
X32372000Y7484585D01*
X32627999Y7484585D01*
X32701808Y7410776D01*
X33054183Y7410776D01*
X33067613Y7412220D01*
X33403353Y7485255D01*
X33424187Y7493885D01*
X33624620Y7622696D01*
X33638241Y7634499D01*
X33792783Y7812849D01*
X33802527Y7828011D01*
X33900561Y8042677D01*
X33905639Y8059970D01*
X33938582Y8289094D01*
X33939224Y8298071D01*
X33939224Y8400187D01*
X34167463Y8400187D01*
X34169791Y8382385D01*
X34228940Y8170533D01*
X34236171Y8154100D01*
X34352404Y7967365D01*
X34363956Y7953622D01*
X34527927Y7807016D01*
X34542871Y7797068D01*
X34741399Y7702375D01*
X34758535Y7697021D01*
X34975660Y7661855D01*
X34993610Y7661526D01*
X35211878Y7688712D01*
X35229199Y7693434D01*
X35431064Y7780789D01*
X35446363Y7790183D01*
X35615595Y7930683D01*
X35627643Y7943993D01*
X35750640Y8126344D01*
X35758468Y8142500D01*
X35825459Y8352411D01*
X35828453Y8370897D01*
X35831360Y8608824D01*
X35828818Y8627378D01*
X35766976Y8838863D01*
X35759545Y8855206D01*
X35641041Y9040506D01*
X35629322Y9054107D01*
X35463572Y9198700D01*
X35448507Y9208465D01*
X35248837Y9300725D01*
X35231637Y9305869D01*
X35014098Y9338381D01*
X34996145Y9338490D01*
X34778226Y9308639D01*
X34760965Y9303706D01*
X34560182Y9213892D01*
X34544999Y9204312D01*
X34377495Y9061754D01*
X34365610Y9048297D01*
X34244851Y8864458D01*
X34237221Y8848207D01*
X34172912Y8637864D01*
X34170150Y8620124D01*
X34167463Y8400187D01*
X33939224Y8400187D01*
X33939224Y9598191D01*
X33865415Y9672000D01*
X32701809Y9672001D01*
X32628000Y9598192D01*
X32627999Y7484585D01*
X32372000Y7484585D01*
X32372001Y9598191D01*
X32298192Y9672000D01*
X31134585Y9672001D01*
X31060776Y9598192D01*
X27914838Y9598192D01*
X27928907Y9603313D01*
X28102293Y9703418D01*
X28119182Y9717589D01*
X28247873Y9870958D01*
X28258896Y9890051D01*
X28327371Y10078184D01*
X28331199Y10099897D01*
X28331199Y10300103D01*
X28327371Y10321816D01*
X28258896Y10509949D01*
X28247873Y10529042D01*
X28119182Y10682411D01*
X28102293Y10696582D01*
X27928907Y10796687D01*
X27908190Y10804228D01*
X27711023Y10838993D01*
X27688977Y10838993D01*
X27491810Y10804228D01*
X27471093Y10796687D01*
X27297707Y10696582D01*
X27280818Y10682411D01*
X27200000Y10586095D01*
X27119182Y10682411D01*
X27102293Y10696582D01*
X26928907Y10796687D01*
X26908190Y10804228D01*
X26711023Y10838993D01*
X26688977Y10838993D01*
X26491810Y10804228D01*
X26471093Y10796687D01*
X26297707Y10696582D01*
X26280818Y10682411D01*
X26152127Y10529042D01*
X26150000Y10525358D01*
X26147873Y10529042D01*
X26019182Y10682411D01*
X26002293Y10696582D01*
X25828907Y10796687D01*
X25808190Y10804228D01*
X25611023Y10838993D01*
X25588977Y10838993D01*
X25391810Y10804228D01*
X25371093Y10796687D01*
X25197707Y10696582D01*
X25180818Y10682411D01*
X25052127Y10529042D01*
X25041104Y10509949D01*
X24972629Y10321816D01*
X24968801Y10300103D01*
X19397296Y10300103D01*
X19403174Y10308192D01*
X19412178Y10325863D01*
X19477547Y10527051D01*
X19480650Y10546640D01*
X19480650Y10758180D01*
X19477547Y10777769D01*
X19412178Y10978957D01*
X19403174Y10996628D01*
X19278833Y11167768D01*
X19264809Y11181792D01*
X19093669Y11306133D01*
X19075998Y11315137D01*
X18874810Y11380506D01*
X18855221Y11383609D01*
X18643681Y11383609D01*
X18624092Y11380506D01*
X18422904Y11315137D01*
X18405233Y11306133D01*
X18310919Y11237610D01*
X18209300Y11237610D01*
X18143127Y11243400D01*
X18121163Y11241479D01*
X18056982Y11224282D01*
X17991553Y11212745D01*
X17970835Y11205204D01*
X17957888Y11197729D01*
X17943445Y11193859D01*
X17923462Y11184541D01*
X17911524Y11176181D01*
X17531010Y11176181D01*
X17518689Y11174968D01*
X17421162Y11155568D01*
X17398232Y11146070D01*
X17310381Y11087370D01*
X17292830Y11069819D01*
X17234130Y10981968D01*
X17224632Y10959038D01*
X17205232Y10861511D01*
X17204019Y10849190D01*
X17204019Y10340577D01*
X17170381Y10374215D01*
X17170381Y10849190D01*
X17169168Y10861511D01*
X17149768Y10959038D01*
X17140270Y10981968D01*
X17081570Y11069819D01*
X17064019Y11087370D01*
X16976168Y11146070D01*
X16953238Y11155568D01*
X16855711Y11174968D01*
X16843390Y11176181D01*
X16579932Y11176181D01*
X16586151Y11195321D01*
X16589253Y11214910D01*
X16589253Y11426450D01*
X16586150Y11446039D01*
X16520781Y11647227D01*
X16511777Y11664898D01*
X16387436Y11836038D01*
X16373412Y11850062D01*
X16202272Y11974403D01*
X16184601Y11983407D01*
X15983413Y12048776D01*
X15963824Y12051879D01*
X15752284Y12051879D01*
X15732695Y12048776D01*
X15531507Y11983407D01*
X15513836Y11974403D01*
X15383469Y11879685D01*
X15349968Y11902070D01*
X15327038Y11911568D01*
X15229511Y11930968D01*
X15217190Y11932181D01*
X15132902Y11932181D01*
X15098931Y11951794D01*
X15078213Y11959335D01*
X14942632Y11983241D01*
X14931671Y11984200D01*
X14576207Y11984200D01*
X14432618Y12088523D01*
X14414947Y12097527D01*
X14213759Y12162896D01*
X14194170Y12165999D01*
X13982630Y12165999D01*
X13963041Y12162896D01*
X13761853Y12097527D01*
X13744182Y12088523D01*
X13573042Y11964182D01*
X13559018Y11950158D01*
X13499860Y11868734D01*
X13449968Y11902070D01*
X13427038Y11911568D01*
X13329511Y11930968D01*
X13317190Y11932181D01*
X12654810Y11932181D01*
X12642489Y11930968D01*
X12544962Y11911568D01*
X12522032Y11902070D01*
X12434181Y11843370D01*
X12421680Y11830869D01*
X12357902Y11867692D01*
X12337185Y11875233D01*
X12140018Y11909998D01*
X12117972Y11909998D01*
X11920805Y11875233D01*
X11900088Y11867692D01*
X11726702Y11767587D01*
X11709813Y11753416D01*
X11581122Y11600047D01*
X11570099Y11580954D01*
X11569497Y11579300D01*
X11547252Y11594019D01*
X11482801Y11637084D01*
X11481132Y11637775D01*
X11480915Y11637919D01*
X11470485Y11642186D01*
X11459873Y11646582D01*
X11459613Y11646634D01*
X11457933Y11647321D01*
X11382076Y11662058D01*
X11305910Y11677208D01*
X11281091Y11677208D01*
X11247360Y11670499D01*
X9784798Y11663953D01*
X9809209Y11700143D01*
X9846188Y11742014D01*
X9856045Y11757019D01*
X9875451Y11798351D01*
X9900974Y11836190D01*
X9908801Y11852346D01*
X9925783Y11905558D01*
X9949606Y11956298D01*
X9954914Y11973853D01*
X9961374Y12017078D01*
X9975792Y12062256D01*
X9978786Y12080742D01*
X9979490Y12138294D01*
X9980840Y12147332D01*
X9981533Y12156655D01*
X9981533Y12305545D01*
X9981693Y12318674D01*
X9981533Y12319841D01*
X9981533Y12895551D01*
X9985363Y12912478D01*
X9986803Y12930373D01*
X9981533Y13015315D01*
X9981533Y13043781D01*
X9980896Y13052723D01*
X9977926Y13073461D01*
X9973183Y13149904D01*
X9969543Y13167483D01*
X9961119Y13190818D01*
X9957601Y13215378D01*
X9952563Y13232608D01*
X9932065Y13277692D01*
X10192663Y13277692D01*
X10192663Y12596242D01*
X10194819Y12579866D01*
X10269637Y12300641D01*
X10282380Y12276161D01*
X10413490Y12119910D01*
X10430379Y12105739D01*
X10604620Y12005141D01*
X10625337Y11997600D01*
X10818038Y11963622D01*
X10828999Y11962663D01*
X11257691Y11962663D01*
X11331500Y12036472D01*
X11587499Y12036472D01*
X11661308Y11962663D01*
X12092758Y11962663D01*
X12109134Y11964819D01*
X12388359Y12039637D01*
X12412839Y12052380D01*
X12569090Y12183490D01*
X12583261Y12200379D01*
X12683859Y12374620D01*
X12691400Y12395337D01*
X12725378Y12588038D01*
X12726337Y12598999D01*
X12726337Y13112591D01*
X22775363Y13112591D01*
X22775363Y12431142D01*
X22777519Y12414766D01*
X22852337Y12135541D01*
X22865080Y12111061D01*
X22996190Y11954810D01*
X23013079Y11940639D01*
X23187320Y11840041D01*
X23208037Y11832500D01*
X23400738Y11798522D01*
X23411699Y11797563D01*
X23840391Y11797563D01*
X23914200Y11871372D01*
X23914200Y13112591D01*
X24170200Y13112591D01*
X24170200Y11871372D01*
X24244009Y11797563D01*
X24675458Y11797563D01*
X24691834Y11799719D01*
X24971059Y11874537D01*
X24995539Y11887280D01*
X25151790Y12018390D01*
X25165961Y12035279D01*
X25266559Y12209520D01*
X25274100Y12230237D01*
X25308078Y12422938D01*
X25309037Y12433899D01*
X25309037Y13112591D01*
X25235228Y13186400D01*
X24244009Y13186400D01*
X24170200Y13112591D01*
X23914200Y13112591D01*
X23840391Y13186400D01*
X22849172Y13186400D01*
X22775363Y13112591D01*
X12726337Y13112591D01*
X12726337Y13277691D01*
X12652528Y13351500D01*
X11661309Y13351501D01*
X11587500Y13277692D01*
X11587499Y12036472D01*
X11331500Y12036472D01*
X11331501Y13277691D01*
X11257692Y13351500D01*
X10266472Y13351501D01*
X10192663Y13277692D01*
X9932065Y13277692D01*
X9920861Y13302334D01*
X9894790Y13374551D01*
X9886131Y13390718D01*
X9871980Y13409842D01*
X9861524Y13432838D01*
X9851851Y13447963D01*
X9794645Y13514353D01*
X9781796Y13531718D01*
X9775692Y13538802D01*
X9760423Y13554070D01*
X9708273Y13614592D01*
X9694744Y13626394D01*
X9675856Y13638637D01*
X9617681Y13696812D01*
X9617681Y14360001D01*
X10192663Y14360001D01*
X10192663Y13681309D01*
X10266472Y13607500D01*
X11257691Y13607499D01*
X11331500Y13681309D01*
X11587499Y13681309D01*
X11661308Y13607500D01*
X12652528Y13607499D01*
X12726337Y13681308D01*
X12726337Y14362758D01*
X12724181Y14379134D01*
X12649363Y14658358D01*
X12636620Y14682838D01*
X12505510Y14839090D01*
X12488621Y14853261D01*
X12314380Y14953859D01*
X12293663Y14961400D01*
X12100962Y14995378D01*
X12090001Y14996337D01*
X11661309Y14996337D01*
X11587500Y14922528D01*
X11587499Y13681309D01*
X11331500Y13681309D01*
X11331501Y14922528D01*
X11257692Y14996337D01*
X10826242Y14996337D01*
X10809866Y14994181D01*
X10530642Y14919363D01*
X10506162Y14906620D01*
X10349910Y14775510D01*
X10335739Y14758621D01*
X10235141Y14584380D01*
X10227600Y14563663D01*
X10193622Y14370962D01*
X10192663Y14360001D01*
X9617681Y14360001D01*
X9617681Y14360690D01*
X9616468Y14373011D01*
X9597068Y14470538D01*
X9587570Y14493468D01*
X9528870Y14581319D01*
X9511319Y14598870D01*
X9423468Y14657570D01*
X9400538Y14667068D01*
X9303011Y14686468D01*
X9290690Y14687681D01*
X8028310Y14687681D01*
X8015989Y14686468D01*
X7918462Y14667068D01*
X7895532Y14657570D01*
X7807681Y14598870D01*
X7790130Y14581319D01*
X7731430Y14493468D01*
X7721932Y14470538D01*
X7702532Y14373011D01*
X7701319Y14360690D01*
X7701319Y13245700D01*
X7506533Y13245700D01*
X7487568Y13341038D01*
X7478070Y13363968D01*
X7419370Y13451819D01*
X7401819Y13469370D01*
X7313968Y13528070D01*
X7291038Y13537568D01*
X7193511Y13556968D01*
X7181190Y13558181D01*
X6218810Y13558181D01*
X6206489Y13556968D01*
X6108962Y13537568D01*
X6086032Y13528070D01*
X5998181Y13469370D01*
X5980630Y13451819D01*
X5921930Y13363968D01*
X5912432Y13341038D01*
X5893032Y13243511D01*
X5891819Y13231190D01*
X5891819Y13220300D01*
X5815818Y13220300D01*
X5831968Y13301489D01*
X5833181Y13313810D01*
X5833181Y14006190D01*
X5831968Y14018511D01*
X5829666Y14030083D01*
X5947873Y14170958D01*
X5958896Y14190051D01*
X6027371Y14378184D01*
X6031199Y14399897D01*
X6031199Y14600103D01*
X6027371Y14621816D01*
X5958896Y14809949D01*
X5947873Y14829042D01*
X5819182Y14982411D01*
X5802293Y14996582D01*
X5628907Y15096687D01*
X5608190Y15104228D01*
X5431199Y15135436D01*
X5431199Y15200103D01*
X5427371Y15221816D01*
X5358896Y15409949D01*
X5347873Y15429042D01*
X5323592Y15457979D01*
X5402293Y15503418D01*
X5419182Y15517589D01*
X5547873Y15670958D01*
X5558896Y15690051D01*
X5627371Y15878184D01*
X5631199Y15899897D01*
X5631199Y16100103D01*
X5627371Y16121816D01*
X5558896Y16309949D01*
X5547873Y16329042D01*
X5419182Y16482411D01*
X5402293Y16496582D01*
X5396373Y16500000D01*
X5402293Y16503418D01*
X5419182Y16517589D01*
X5547873Y16670958D01*
X5558896Y16690051D01*
X5627371Y16878184D01*
X5631199Y16899897D01*
X5631199Y17100103D01*
X5627371Y17121816D01*
X5558896Y17309949D01*
X5547873Y17329042D01*
X5419182Y17482411D01*
X5402293Y17496582D01*
X5396373Y17500000D01*
X5402293Y17503418D01*
X5419182Y17517589D01*
X5547873Y17670958D01*
X5558896Y17690051D01*
X5627371Y17878184D01*
X5631199Y17899897D01*
X5631199Y18100103D01*
X5627371Y18121816D01*
X5558896Y18309949D01*
X5547873Y18329042D01*
X5419182Y18482411D01*
X5402293Y18496582D01*
X5228907Y18596687D01*
X5208190Y18604228D01*
X5011023Y18638993D01*
X4988977Y18638993D01*
X4791810Y18604228D01*
X4771093Y18596687D01*
X4597707Y18496582D01*
X4580818Y18482411D01*
X4500000Y18386095D01*
X4419182Y18482411D01*
X4402293Y18496582D01*
X4228907Y18596687D01*
X4208190Y18604228D01*
X4011023Y18638993D01*
X3988977Y18638993D01*
X3791810Y18604228D01*
X3771093Y18596687D01*
X3597707Y18496582D01*
X3580818Y18482411D01*
X3452127Y18329042D01*
X3441104Y18309949D01*
X3372629Y18121816D01*
X3368801Y18100103D01*
X3368801Y17899897D01*
X3372629Y17878184D01*
X3441104Y17690051D01*
X3452127Y17670958D01*
X3580818Y17517589D01*
X3597707Y17503418D01*
X3603627Y17500000D01*
X3597707Y17496582D01*
X3580818Y17482411D01*
X3452127Y17329042D01*
X3441104Y17309949D01*
X3372629Y17121816D01*
X3368801Y17100103D01*
X3368801Y16899897D01*
X3372629Y16878184D01*
X3441104Y16690051D01*
X3452127Y16670958D01*
X3580818Y16517589D01*
X3597707Y16503418D01*
X3603627Y16500000D01*
X3597707Y16496582D01*
X3580818Y16482411D01*
X3452127Y16329042D01*
X3441104Y16309949D01*
X3372629Y16121816D01*
X3368801Y16100103D01*
X3368801Y15899897D01*
X3372629Y15878184D01*
X3441104Y15690051D01*
X3452127Y15670958D01*
X3580818Y15517589D01*
X3597707Y15503418D01*
X3771093Y15403313D01*
X3791810Y15395772D01*
X3988977Y15361007D01*
X4011023Y15361007D01*
X4208190Y15395772D01*
X4228907Y15403313D01*
X4241456Y15410558D01*
X4241104Y15409949D01*
X4202960Y15305150D01*
X4011023Y15338993D01*
X3988977Y15338993D01*
X3791810Y15304228D01*
X3771093Y15296687D01*
X3597707Y15196582D01*
X3580818Y15182411D01*
X3452127Y15029042D01*
X3441104Y15009949D01*
X3372629Y14821816D01*
X3368801Y14800103D01*
X3368801Y14599897D01*
X3372629Y14578184D01*
X3441104Y14390051D01*
X3452127Y14370958D01*
X3527751Y14280832D01*
X3473181Y14244370D01*
X3455630Y14226819D01*
X3396930Y14138968D01*
X3387432Y14116038D01*
X3368032Y14018511D01*
X3366819Y14006190D01*
X3366819Y13313810D01*
X3368032Y13301489D01*
X3387432Y13203962D01*
X3396930Y13181032D01*
X3417201Y13150694D01*
X3417201Y13123811D01*
X3413750Y13113985D01*
X3410538Y13085789D01*
X3417201Y13025914D01*
X3417201Y13008343D01*
X3418784Y12994286D01*
X3422567Y12977706D01*
X3429161Y12918445D01*
X3438523Y12891599D01*
X3444315Y12882366D01*
X3446753Y12871676D01*
X3459059Y12846106D01*
X3486819Y12811269D01*
X3486819Y11568810D01*
X3488032Y11556489D01*
X3491929Y11536897D01*
X3473181Y11524370D01*
X3455630Y11506819D01*
X3396930Y11418968D01*
X3387432Y11396038D01*
X3368032Y11298511D01*
X3366819Y11286190D01*
X3366819Y10593810D01*
X3368032Y10581489D01*
X3387432Y10483962D01*
X3396930Y10461032D01*
X3455630Y10373181D01*
X3465008Y10363803D01*
X3466066Y10354297D01*
X3475428Y10327449D01*
X3480029Y10320114D01*
X3481967Y10311621D01*
X3494273Y10286052D01*
X3527753Y10244038D01*
X3535702Y10231365D01*
X3544551Y10220260D01*
X3555130Y10209681D01*
X3588357Y10167985D01*
X3610534Y10150281D01*
X3618253Y10146558D01*
X4196307Y9568504D01*
X4199863Y9561097D01*
X4217529Y9538888D01*
X4259440Y9505371D01*
X4270324Y9494486D01*
X4281380Y9485668D01*
X4293978Y9477749D01*
X4335455Y9444580D01*
X4361060Y9432217D01*
X4369496Y9430285D01*
X4376870Y9425650D01*
X4403654Y9416270D01*
X4457034Y9410235D01*
X4471619Y9406895D01*
X4485729Y9405300D01*
X4500700Y9405300D01*
X4553667Y9399312D01*
X4581867Y9402475D01*
X4589957Y9405300D01*
X7970628Y9405300D01*
X7906279Y9228503D01*
X7902451Y9206790D01*
X7902451Y9006584D01*
X7906279Y8984871D01*
X7974754Y8796738D01*
X7985777Y8777645D01*
X8114468Y8624276D01*
X8131357Y8610105D01*
X8304743Y8510000D01*
X8325460Y8502459D01*
X8522627Y8467694D01*
X8544673Y8467694D01*
X8559038Y8470227D01*
X8421306Y8332495D01*
X8413897Y8328937D01*
X8391688Y8311271D01*
X8358171Y8269359D01*
X8347285Y8258474D01*
X8338466Y8247417D01*
X8330547Y8234818D01*
X8297381Y8193344D01*
X8285017Y8167741D01*
X8283085Y8159304D01*
X8278450Y8151930D01*
X8269070Y8125146D01*
X8263035Y8071762D01*
X8259695Y8057181D01*
X8258100Y8043070D01*
X8258100Y8028100D01*
X8252112Y7975133D01*
X8255275Y7946933D01*
X8258100Y7938843D01*
X8258100Y7342385D01*
X8254052Y7352916D01*
X8248327Y7363938D01*
X8245483Y7376015D01*
X8240734Y7389306D01*
X8237379Y7396161D01*
X8144992Y7583916D01*
X8137365Y7595830D01*
X8129542Y7605472D01*
X8124289Y7616816D01*
X8116845Y7629036D01*
X8112233Y7634973D01*
X7984086Y7800179D01*
X7974221Y7810315D01*
X7964616Y7818190D01*
X7957221Y7828203D01*
X7947557Y7838603D01*
X7941829Y7843521D01*
X7782980Y7979671D01*
X7771280Y7987616D01*
X7760285Y7993401D01*
X7751047Y8001704D01*
X7739537Y8009922D01*
X7732895Y8013618D01*
X7549890Y8115060D01*
X7536830Y8120489D01*
X7524902Y8123943D01*
X7514057Y8130293D01*
X7500855Y8136115D01*
X7493730Y8138326D01*
X7294336Y8200812D01*
X7280450Y8203505D01*
X7268072Y8204490D01*
X7256276Y8208494D01*
X7242386Y8211521D01*
X7234894Y8212287D01*
X7026760Y8233429D01*
X7012617Y8233274D01*
X6979674Y8229200D01*
X6624655Y8229200D01*
X6596051Y8233500D01*
X6581794Y8234015D01*
X6574342Y8233441D01*
X6414305Y8221126D01*
X6400413Y8218470D01*
X6392458Y8216000D01*
X6384051Y8215758D01*
X6369888Y8213730D01*
X6362614Y8211829D01*
X6160286Y8159127D01*
X6147084Y8154052D01*
X6136062Y8148327D01*
X6123985Y8145483D01*
X6110694Y8140734D01*
X6103839Y8137379D01*
X5916084Y8044992D01*
X5904170Y8037365D01*
X5894528Y8029542D01*
X5883184Y8024289D01*
X5870964Y8016845D01*
X5865027Y8012233D01*
X5699821Y7884086D01*
X5689685Y7874221D01*
X5681810Y7864616D01*
X5671797Y7857221D01*
X5661397Y7847557D01*
X5656479Y7841829D01*
X5520329Y7682980D01*
X5512384Y7671280D01*
X5506599Y7660285D01*
X5498296Y7651047D01*
X5490078Y7639537D01*
X5486382Y7632895D01*
X5384940Y7449890D01*
X5379511Y7436830D01*
X5376057Y7424902D01*
X5369707Y7414057D01*
X5363885Y7400855D01*
X5361674Y7393730D01*
X5299188Y7194336D01*
X5296495Y7180450D01*
X5295510Y7168072D01*
X5291506Y7156276D01*
X5288479Y7142386D01*
X5287713Y7134894D01*
X5266571Y6926760D01*
X5266726Y6912617D01*
X5270800Y6879674D01*
X5270801Y1053915D01*
X5268054Y1041307D01*
X5267288Y1033816D01*
X5250293Y866510D01*
X5210172Y738483D01*
X5145123Y621130D01*
X5057806Y519256D01*
X4951789Y437021D01*
X4831402Y377783D01*
X4697576Y342924D01*
X4567291Y332898D01*
X4553399Y330242D01*
X4550044Y329200D01*
X2140681Y329200D01*
X2140681Y1223319D01*
X3250190Y1223319D01*
X3262511Y1224532D01*
X3360038Y1243932D01*
X3382968Y1253430D01*
X3470819Y1312130D01*
X3488370Y1329681D01*
X3547070Y1417532D01*
X3556568Y1440462D01*
X3575968Y1537989D01*
X3577181Y1550310D01*
X3577181Y1689690D01*
X3575968Y1702011D01*
X3564645Y1758933D01*
X3612116Y1780466D01*
X3620968Y1785373D01*
X3837579Y1929290D01*
X3845532Y1935549D01*
X4036348Y2112245D01*
X4043199Y2119696D01*
X4203308Y2324627D01*
X4208880Y2333076D01*
X4334166Y2560971D01*
X4338315Y2570203D01*
X4425553Y2815195D01*
X4428172Y2824972D01*
X4475178Y3081086D01*
X4476212Y3091819D01*
X4479283Y3385041D01*
X4478474Y3395793D01*
X4436842Y3652836D01*
X4434428Y3662665D01*
X4352340Y3909432D01*
X4348385Y3918749D01*
X4227899Y4149216D01*
X4222506Y4157781D01*
X4066723Y4366020D01*
X4060029Y4373612D01*
X3872957Y4554266D01*
X3865135Y4560691D01*
X3651586Y4709111D01*
X3642839Y4714202D01*
X3408307Y4826572D01*
X3398858Y4830199D01*
X3149376Y4903624D01*
X3139469Y4905694D01*
X2881458Y4938289D01*
X2871347Y4938748D01*
X2611444Y4929672D01*
X2601390Y4928508D01*
X2346281Y4877995D01*
X2336542Y4875240D01*
X2092791Y4784590D01*
X2083618Y4780312D01*
X1857495Y4651857D01*
X1849124Y4646167D01*
X1646449Y4483211D01*
X1639095Y4476257D01*
X1465080Y4282995D01*
X1458932Y4274954D01*
X1318054Y4056354D01*
X1313271Y4047434D01*
X1209156Y3809123D01*
X1205861Y3799554D01*
X1141186Y3547662D01*
X1139463Y3537689D01*
X1115893Y3278698D01*
X1115787Y3268577D01*
X1133928Y3009148D01*
X1135441Y2999141D01*
X1194827Y2745951D01*
X1197921Y2736314D01*
X1297023Y2495874D01*
X1301618Y2486856D01*
X1347319Y2412569D01*
X1347319Y2016681D01*
X329200Y2016681D01*
X329200Y21600103D01*
X368801Y21600103D01*
X368801Y21399897D01*
X372629Y21378184D01*
X441104Y21190051D01*
X452127Y21170958D01*
X580818Y21017589D01*
X597707Y21003418D01*
X603627Y21000000D01*
X597707Y20996582D01*
X580818Y20982411D01*
X452127Y20829042D01*
X441104Y20809949D01*
X372629Y20621816D01*
X368801Y20600103D01*
X368801Y20399897D01*
X372629Y20378184D01*
X441104Y20190051D01*
X452127Y20170958D01*
X580818Y20017589D01*
X597707Y20003418D01*
X603627Y20000000D01*
X597707Y19996582D01*
X580818Y19982411D01*
X452127Y19829042D01*
X441104Y19809949D01*
X372629Y19621816D01*
X368801Y19600103D01*
X368801Y19399897D01*
X372629Y19378184D01*
X441104Y19190051D01*
X452127Y19170958D01*
X580818Y19017589D01*
X597707Y19003418D01*
X603627Y19000000D01*
X597707Y18996582D01*
X580818Y18982411D01*
X452127Y18829042D01*
X441104Y18809949D01*
X372629Y18621816D01*
X368801Y18600103D01*
X368801Y18399897D01*
X372629Y18378184D01*
X441104Y18190051D01*
X452127Y18170958D01*
X580818Y18017589D01*
X597707Y18003418D01*
X771093Y17903313D01*
X791810Y17895772D01*
X988977Y17861007D01*
X1011023Y17861007D01*
X1208190Y17895772D01*
X1228907Y17903313D01*
X1402293Y18003418D01*
X1419182Y18017589D01*
X1547873Y18170958D01*
X1558896Y18190051D01*
X1627371Y18378184D01*
X1631199Y18399897D01*
X1631199Y18600103D01*
X1627371Y18621816D01*
X1558896Y18809949D01*
X1547873Y18829042D01*
X1419182Y18982411D01*
X1402293Y18996582D01*
X1396373Y19000000D01*
X1402293Y19003418D01*
X1419182Y19017589D01*
X1547873Y19170958D01*
X1558896Y19190051D01*
X1627371Y19378184D01*
X1631199Y19399897D01*
X1631199Y19600103D01*
X1627371Y19621816D01*
X1558896Y19809949D01*
X1547873Y19829042D01*
X1419182Y19982411D01*
X1402293Y19996582D01*
X1396373Y20000000D01*
X1402293Y20003418D01*
X1419182Y20017589D01*
X1547873Y20170958D01*
X1558896Y20190051D01*
X1627371Y20378184D01*
X1631199Y20399897D01*
X1631199Y20600103D01*
X1627371Y20621816D01*
X1558896Y20809949D01*
X1547873Y20829042D01*
X1419182Y20982411D01*
X1402293Y20996582D01*
X1396373Y21000000D01*
X1402293Y21003418D01*
X1419182Y21017589D01*
X1547873Y21170958D01*
X1558896Y21190051D01*
X1627371Y21378184D01*
X1631199Y21399897D01*
X1631199Y21600103D01*
X1868801Y21600103D01*
X1868801Y21399897D01*
X1872629Y21378184D01*
X1941104Y21190051D01*
X1952127Y21170958D01*
X2080818Y21017589D01*
X2097707Y21003418D01*
X2103627Y21000000D01*
X2097707Y20996582D01*
X2080818Y20982411D01*
X1952127Y20829042D01*
X1941104Y20809949D01*
X1872629Y20621816D01*
X1868801Y20600103D01*
X1868801Y20399897D01*
X1872629Y20378184D01*
X1941104Y20190051D01*
X1952127Y20170958D01*
X2080818Y20017589D01*
X2097707Y20003418D01*
X2103627Y20000000D01*
X2097707Y19996582D01*
X2080818Y19982411D01*
X1952127Y19829042D01*
X1941104Y19809949D01*
X1872629Y19621816D01*
X1868801Y19600103D01*
X1868801Y19399897D01*
X1872629Y19378184D01*
X1941104Y19190051D01*
X1952127Y19170958D01*
X2080818Y19017589D01*
X2097707Y19003418D01*
X2103627Y19000000D01*
X2097707Y18996582D01*
X2080818Y18982411D01*
X1952127Y18829042D01*
X1941104Y18809949D01*
X1872629Y18621816D01*
X1868801Y18600103D01*
X1868801Y18399897D01*
X1872629Y18378184D01*
X1941104Y18190051D01*
X1952127Y18170958D01*
X2080818Y18017589D01*
X2097707Y18003418D01*
X2271093Y17903313D01*
X2291810Y17895772D01*
X2488977Y17861007D01*
X2511023Y17861007D01*
X2708190Y17895772D01*
X2728907Y17903313D01*
X2902293Y18003418D01*
X2919182Y18017589D01*
X3047873Y18170958D01*
X3058896Y18190051D01*
X3127371Y18378184D01*
X3131199Y18399897D01*
X3131199Y18600103D01*
X3127371Y18621816D01*
X3058896Y18809949D01*
X3047873Y18829042D01*
X2919182Y18982411D01*
X2902293Y18996582D01*
X2896373Y19000000D01*
X2902293Y19003418D01*
X2919182Y19017589D01*
X3047873Y19170958D01*
X3058896Y19190051D01*
X3127371Y19378184D01*
X3131199Y19399897D01*
X3131199Y19600103D01*
X3127371Y19621816D01*
X3058896Y19809949D01*
X3047873Y19829042D01*
X2919182Y19982411D01*
X2902293Y19996582D01*
X2896373Y20000000D01*
X2902293Y20003418D01*
X2919182Y20017589D01*
X3047873Y20170958D01*
X3058896Y20190051D01*
X3127371Y20378184D01*
X3131199Y20399897D01*
X3131199Y20600103D01*
X3127371Y20621816D01*
X3058896Y20809949D01*
X3047873Y20829042D01*
X2919182Y20982411D01*
X2902293Y20996582D01*
X2896373Y21000000D01*
X2902293Y21003418D01*
X2919182Y21017589D01*
X3047873Y21170958D01*
X3058896Y21190051D01*
X3127371Y21378184D01*
X3131199Y21399897D01*
X3131199Y21600103D01*
X3127371Y21621816D01*
X3058896Y21809949D01*
X3047873Y21829042D01*
X2919182Y21982411D01*
X2902293Y21996582D01*
X2728907Y22096687D01*
X2708190Y22104228D01*
X2511023Y22138993D01*
X2488977Y22138993D01*
X2291810Y22104228D01*
X2271093Y22096687D01*
X2097707Y21996582D01*
X2080818Y21982411D01*
X1952127Y21829042D01*
X1941104Y21809949D01*
X1872629Y21621816D01*
X1868801Y21600103D01*
X1631199Y21600103D01*
X1627371Y21621816D01*
X1558896Y21809949D01*
X1547873Y21829042D01*
X1419182Y21982411D01*
X1402293Y21996582D01*
X1228907Y22096687D01*
X1208190Y22104228D01*
X1011023Y22138993D01*
X988977Y22138993D01*
X791810Y22104228D01*
X771093Y22096687D01*
X597707Y21996582D01*
X580818Y21982411D01*
X452127Y21829042D01*
X441104Y21809949D01*
X372629Y21621816D01*
X368801Y21600103D01*
X329200Y21600103D01*
X329200Y22815000D01*
X7764800Y22815000D01*
X7764800Y16587465D01*
G37*
D34*
X7764800Y16587465D02*
X7765197Y16580405D01*
X7771877Y16521115D01*
X7777762Y16500690D01*
X7827770Y16396847D01*
X7845473Y16374648D01*
X7938375Y16300561D01*
X7963957Y16288241D01*
X8072861Y16263385D01*
X8086924Y16261800D01*
X11420009Y16261800D01*
X11470809Y16211000D01*
X14316401Y16211000D01*
X14316401Y16002590D01*
X14308630Y15994819D01*
X14249930Y15906968D01*
X14240432Y15884038D01*
X14221032Y15786511D01*
X14219819Y15774190D01*
X14219819Y15121810D01*
X14221032Y15109489D01*
X14240432Y15011962D01*
X14249930Y14989032D01*
X14308630Y14901181D01*
X14326181Y14883630D01*
X14414032Y14824930D01*
X14436962Y14815432D01*
X14534489Y14796032D01*
X14546810Y14794819D01*
X14974943Y14794819D01*
X15101990Y14643410D01*
X15118879Y14629239D01*
X15293120Y14528641D01*
X15313837Y14521100D01*
X15506538Y14487122D01*
X15517499Y14486163D01*
X15616191Y14486163D01*
X15690000Y14559972D01*
X15945999Y14559972D01*
X16019808Y14486163D01*
X16121258Y14486163D01*
X16137634Y14488319D01*
X16416859Y14563137D01*
X16441339Y14575880D01*
X16597590Y14706990D01*
X16611761Y14723879D01*
X16712359Y14898120D01*
X16719900Y14918837D01*
X16753878Y15111538D01*
X16754837Y15122499D01*
X16754837Y15246191D01*
X16681028Y15320000D01*
X16019809Y15320001D01*
X15946000Y15246192D01*
X15945999Y14559972D01*
X15690000Y14559972D01*
X15690000Y15649809D01*
X15945999Y15649809D01*
X16019808Y15576000D01*
X16681028Y15575999D01*
X16754837Y15649808D01*
X16754837Y15776258D01*
X16752681Y15792634D01*
X16677863Y16071858D01*
X16665120Y16096338D01*
X16534010Y16252590D01*
X16517121Y16266761D01*
X16342880Y16367359D01*
X16322163Y16374900D01*
X16129462Y16408878D01*
X16118501Y16409837D01*
X16019809Y16409837D01*
X15946000Y16336028D01*
X15945999Y15649809D01*
X15690000Y15649809D01*
X15690001Y16336028D01*
X15616192Y16409837D01*
X15514742Y16409837D01*
X15498366Y16407681D01*
X15486800Y16404582D01*
X15486800Y16707812D01*
X15487582Y16707674D01*
X15577600Y16783208D01*
X15577601Y18281800D01*
X15825600Y18281799D01*
X15825599Y16789772D01*
X15899408Y16715963D01*
X15959858Y16715963D01*
X15976234Y16718119D01*
X16255459Y16792937D01*
X16279939Y16805680D01*
X16436190Y16936790D01*
X16450362Y16953679D01*
X16491319Y17024619D01*
X16757790Y17024619D01*
X16770111Y17025832D01*
X16780655Y17027929D01*
X16690127Y16920042D01*
X16679104Y16900949D01*
X16610629Y16712816D01*
X16606801Y16691103D01*
X16606801Y16490897D01*
X16610629Y16469184D01*
X16679104Y16281051D01*
X16690127Y16261958D01*
X16818818Y16108589D01*
X16835707Y16094418D01*
X17009093Y15994313D01*
X17029810Y15986772D01*
X17226977Y15952007D01*
X17249023Y15952007D01*
X17446190Y15986772D01*
X17466907Y15994313D01*
X17640293Y16094418D01*
X17657182Y16108589D01*
X17785873Y16261958D01*
X17796896Y16281051D01*
X17865371Y16469184D01*
X17869199Y16490897D01*
X17869199Y16645995D01*
X17898093Y16629313D01*
X17918810Y16621772D01*
X18115977Y16587007D01*
X18138023Y16587007D01*
X18311799Y16617648D01*
X18311799Y16169048D01*
X18306008Y16102863D01*
X18307929Y16080899D01*
X18325129Y16016713D01*
X18336664Y15951288D01*
X18344206Y15930569D01*
X18351679Y15917626D01*
X18355548Y15903184D01*
X18364866Y15883201D01*
X18402975Y15828778D01*
X18436197Y15771235D01*
X18450369Y15754345D01*
X18501268Y15711636D01*
X18767337Y15445565D01*
X18724886Y15417200D01*
X18526303Y15417200D01*
X18375837Y15486725D01*
X18358637Y15491869D01*
X18141098Y15524381D01*
X18123145Y15524490D01*
X17905226Y15494639D01*
X17887965Y15489706D01*
X17687182Y15399892D01*
X17671999Y15390312D01*
X17504495Y15247754D01*
X17492610Y15234297D01*
X17371851Y15050458D01*
X17364221Y15034207D01*
X17299912Y14823864D01*
X17297150Y14806124D01*
X17294463Y14586187D01*
X17296791Y14568385D01*
X17355940Y14356533D01*
X17363171Y14340100D01*
X17479404Y14153365D01*
X17490956Y14139622D01*
X17654927Y13993016D01*
X17669871Y13983068D01*
X17868399Y13888375D01*
X17885535Y13883021D01*
X18102660Y13847855D01*
X18120610Y13847526D01*
X18338878Y13874712D01*
X18356199Y13879434D01*
X18530359Y13954800D01*
X18724886Y13954800D01*
X18795032Y13907930D01*
X18817962Y13898432D01*
X18915489Y13879032D01*
X18927810Y13877819D01*
X19815190Y13877819D01*
X19827511Y13879032D01*
X19925038Y13898432D01*
X19947968Y13907930D01*
X20035819Y13966630D01*
X20053370Y13984181D01*
X20112070Y14072032D01*
X20121568Y14094962D01*
X20140968Y14192489D01*
X20142181Y14204810D01*
X20142181Y15167190D01*
X20140968Y15179511D01*
X20121568Y15277038D01*
X20112070Y15299968D01*
X20053370Y15387819D01*
X20035819Y15405370D01*
X19956700Y15458236D01*
X19956700Y15643464D01*
X19962489Y15709640D01*
X19960568Y15731603D01*
X19943374Y15795773D01*
X19931835Y15861214D01*
X19924294Y15881932D01*
X19916818Y15894881D01*
X19912949Y15909320D01*
X19903631Y15929302D01*
X19865523Y15983726D01*
X19832301Y16041268D01*
X19818130Y16058157D01*
X19767238Y16100860D01*
X19662081Y16206017D01*
X19859190Y16240772D01*
X19879907Y16248313D01*
X20053293Y16348418D01*
X20070182Y16362589D01*
X20155996Y16464859D01*
X20311093Y16375313D01*
X20331810Y16367772D01*
X20528977Y16333007D01*
X20551023Y16333007D01*
X20716401Y16362167D01*
X20716401Y15494181D01*
X20502810Y15494181D01*
X20490489Y15492968D01*
X20392962Y15473568D01*
X20370032Y15464070D01*
X20282181Y15405370D01*
X20264630Y15387819D01*
X20205930Y15299968D01*
X20196432Y15277038D01*
X20177032Y15179511D01*
X20175819Y15167190D01*
X20175819Y14204810D01*
X20177032Y14192489D01*
X20196432Y14094962D01*
X20205930Y14072032D01*
X20264630Y13984181D01*
X20282181Y13966630D01*
X20370032Y13907930D01*
X20392962Y13898432D01*
X20490489Y13879032D01*
X20502810Y13877819D01*
X21390190Y13877819D01*
X21402511Y13879032D01*
X21500038Y13898432D01*
X21522968Y13907930D01*
X21610819Y13966630D01*
X21622337Y13978148D01*
X21684641Y13957904D01*
X21704230Y13954801D01*
X21915770Y13954801D01*
X21935359Y13957904D01*
X22136547Y14023273D01*
X22154218Y14032277D01*
X22325358Y14156618D01*
X22339382Y14170642D01*
X22357007Y14194901D01*
X22775363Y14194901D01*
X22775363Y13516209D01*
X22849172Y13442400D01*
X23840391Y13442400D01*
X23914200Y13516209D01*
X23914200Y14757428D01*
X24170200Y14757428D01*
X24170200Y13516209D01*
X24244009Y13442400D01*
X25235228Y13442400D01*
X25309037Y13516209D01*
X25309037Y14195590D01*
X25884019Y14195590D01*
X25884019Y12433210D01*
X25885232Y12420889D01*
X25904632Y12323362D01*
X25914130Y12300432D01*
X25972830Y12212581D01*
X25990381Y12195030D01*
X26050357Y12154956D01*
X26012112Y12029864D01*
X26009350Y12012124D01*
X26006663Y11792187D01*
X26008991Y11774385D01*
X26068140Y11562533D01*
X26075371Y11546100D01*
X26191604Y11359365D01*
X26203156Y11345622D01*
X26367127Y11199016D01*
X26382071Y11189068D01*
X26580599Y11094375D01*
X26597735Y11089021D01*
X26814860Y11053855D01*
X26832810Y11053526D01*
X27051078Y11080712D01*
X27068399Y11085434D01*
X27270264Y11172789D01*
X27285563Y11182183D01*
X27429796Y11301929D01*
X31060776Y11301929D01*
X31060776Y10001809D01*
X31134585Y9928000D01*
X33865415Y9927999D01*
X33939224Y10001808D01*
X33939224Y10432187D01*
X34167463Y10432187D01*
X34169791Y10414385D01*
X34228940Y10202533D01*
X34236171Y10186100D01*
X34352404Y9999365D01*
X34363956Y9985622D01*
X34527927Y9839016D01*
X34542871Y9829068D01*
X34741399Y9734375D01*
X34758535Y9729021D01*
X34975660Y9693855D01*
X34993610Y9693526D01*
X35211878Y9720712D01*
X35229199Y9725434D01*
X35431064Y9812789D01*
X35446363Y9822183D01*
X35615595Y9962683D01*
X35627643Y9975993D01*
X35750640Y10158344D01*
X35758468Y10174500D01*
X35825459Y10384411D01*
X35828453Y10402897D01*
X35831360Y10640824D01*
X35828818Y10659378D01*
X35766976Y10870863D01*
X35759545Y10887206D01*
X35641041Y11072506D01*
X35629322Y11086107D01*
X35463572Y11230700D01*
X35448507Y11240465D01*
X35248837Y11332725D01*
X35231637Y11337869D01*
X35014098Y11370381D01*
X34996145Y11370490D01*
X34778226Y11340639D01*
X34760965Y11335706D01*
X34560182Y11245892D01*
X34544999Y11236312D01*
X34377495Y11093754D01*
X34365610Y11080297D01*
X34244851Y10896458D01*
X34237221Y10880207D01*
X34172912Y10669864D01*
X34170150Y10652124D01*
X34167463Y10432187D01*
X33939224Y10432187D01*
X33939224Y11304183D01*
X33937780Y11317613D01*
X33864745Y11653353D01*
X33856115Y11674187D01*
X33727304Y11874620D01*
X33715501Y11888241D01*
X33537151Y12042783D01*
X33521989Y12052527D01*
X33307323Y12150561D01*
X33290030Y12155639D01*
X33060906Y12188582D01*
X33051929Y12189224D01*
X32745756Y12189224D01*
X32761199Y12193434D01*
X32963064Y12280789D01*
X32978363Y12290183D01*
X33147595Y12430683D01*
X33159643Y12443993D01*
X33282640Y12626344D01*
X33290468Y12642500D01*
X33357459Y12852411D01*
X33360453Y12870897D01*
X33363360Y13108825D01*
X33360818Y13127378D01*
X33339466Y13200396D01*
X33471640Y13300209D01*
X33487371Y13317466D01*
X33588860Y13481376D01*
X33597295Y13503151D01*
X33631645Y13686903D01*
X33632720Y13698505D01*
X33632720Y14926908D01*
X33725660Y14911855D01*
X33743610Y14911526D01*
X33961878Y14938712D01*
X33979199Y14943434D01*
X34181064Y15030789D01*
X34196363Y15040183D01*
X34365595Y15180683D01*
X34377643Y15193993D01*
X34500640Y15376344D01*
X34508468Y15392500D01*
X34575459Y15602411D01*
X34578453Y15620897D01*
X34581360Y15858824D01*
X34578818Y15877378D01*
X34516976Y16088863D01*
X34509545Y16105206D01*
X34391041Y16290506D01*
X34379322Y16304107D01*
X34213572Y16448700D01*
X34198507Y16458465D01*
X33998837Y16550725D01*
X33981637Y16555869D01*
X33764098Y16588381D01*
X33746145Y16588490D01*
X33632720Y16572953D01*
X33632720Y16702955D01*
X33631041Y16717427D01*
X33578029Y16942822D01*
X33566857Y16966620D01*
X33449791Y17121640D01*
X33432534Y17137371D01*
X33285822Y17228211D01*
X33325459Y17352411D01*
X33328453Y17370897D01*
X33331360Y17608824D01*
X33328818Y17627378D01*
X33266976Y17838863D01*
X33259545Y17855206D01*
X33141041Y18040506D01*
X33129322Y18054107D01*
X32963572Y18198700D01*
X32948507Y18208465D01*
X32748837Y18300725D01*
X32731637Y18305869D01*
X32514098Y18338381D01*
X32496145Y18338490D01*
X32278226Y18308639D01*
X32260965Y18303706D01*
X32060182Y18213892D01*
X32044999Y18204312D01*
X31877495Y18061754D01*
X31865610Y18048297D01*
X31744851Y17864458D01*
X31737221Y17848207D01*
X31672912Y17637864D01*
X31670150Y17620124D01*
X31667463Y17400187D01*
X31669791Y17382385D01*
X31712535Y17229289D01*
X31707178Y17228029D01*
X31683380Y17216857D01*
X31528360Y17099791D01*
X31512629Y17082534D01*
X31411140Y16918624D01*
X31402705Y16896849D01*
X31368355Y16713097D01*
X31367280Y16701495D01*
X31367280Y13697045D01*
X31368959Y13682573D01*
X31421971Y13457178D01*
X31433143Y13433380D01*
X31550209Y13278360D01*
X31567466Y13262629D01*
X31715108Y13171213D01*
X31704912Y13137864D01*
X31702150Y13120124D01*
X31699463Y12900187D01*
X31701791Y12882385D01*
X31760940Y12670533D01*
X31768171Y12654100D01*
X31884404Y12467365D01*
X31895956Y12453622D01*
X32059927Y12307016D01*
X32074871Y12297068D01*
X32273399Y12202375D01*
X32290535Y12197021D01*
X32338676Y12189224D01*
X31945817Y12189224D01*
X31932387Y12187780D01*
X31596647Y12114745D01*
X31575813Y12106115D01*
X31375380Y11977304D01*
X31361759Y11965501D01*
X31207217Y11787151D01*
X31197473Y11771989D01*
X31099439Y11557323D01*
X31094361Y11540030D01*
X31061418Y11310906D01*
X31060776Y11301929D01*
X27429796Y11301929D01*
X27454795Y11322683D01*
X27466843Y11335993D01*
X27589840Y11518344D01*
X27597668Y11534500D01*
X27664659Y11744411D01*
X27667653Y11762897D01*
X27670560Y12000824D01*
X27668018Y12019378D01*
X27629300Y12151786D01*
X27694019Y12195030D01*
X27711570Y12212581D01*
X27770270Y12300432D01*
X27779768Y12323362D01*
X27799168Y12420889D01*
X27800381Y12433210D01*
X27800381Y12900187D01*
X29667463Y12900187D01*
X29669791Y12882385D01*
X29728940Y12670533D01*
X29736171Y12654100D01*
X29852404Y12467365D01*
X29863956Y12453622D01*
X30027927Y12307016D01*
X30042871Y12297068D01*
X30241399Y12202375D01*
X30258535Y12197021D01*
X30475660Y12161855D01*
X30493610Y12161526D01*
X30711878Y12188712D01*
X30729199Y12193434D01*
X30931064Y12280789D01*
X30946363Y12290183D01*
X31115595Y12430683D01*
X31127643Y12443993D01*
X31250640Y12626344D01*
X31258468Y12642500D01*
X31325459Y12852411D01*
X31328453Y12870897D01*
X31331360Y13108824D01*
X31328818Y13127378D01*
X31266976Y13338863D01*
X31259545Y13355206D01*
X31141041Y13540506D01*
X31129322Y13554107D01*
X30963572Y13698700D01*
X30948507Y13708465D01*
X30748837Y13800725D01*
X30731637Y13805869D01*
X30514098Y13838381D01*
X30496145Y13838490D01*
X30278226Y13808639D01*
X30260965Y13803706D01*
X30060182Y13713892D01*
X30044999Y13704312D01*
X29877495Y13561754D01*
X29865610Y13548297D01*
X29744851Y13364458D01*
X29737221Y13348207D01*
X29672912Y13137864D01*
X29670150Y13120124D01*
X29667463Y12900187D01*
X27800381Y12900187D01*
X27800381Y14195590D01*
X27799168Y14207911D01*
X27779768Y14305438D01*
X27770270Y14328368D01*
X27711570Y14416219D01*
X27694019Y14433770D01*
X27606168Y14492470D01*
X27583238Y14501968D01*
X27485711Y14521368D01*
X27473390Y14522581D01*
X26211010Y14522581D01*
X26198689Y14521368D01*
X26101162Y14501968D01*
X26078232Y14492470D01*
X25990381Y14433770D01*
X25972830Y14416219D01*
X25914130Y14328368D01*
X25904632Y14305438D01*
X25885232Y14207911D01*
X25884019Y14195590D01*
X25309037Y14195590D01*
X25309037Y14197658D01*
X25306881Y14214034D01*
X25232063Y14493258D01*
X25219320Y14517738D01*
X25088210Y14673990D01*
X25071321Y14688161D01*
X24897080Y14788759D01*
X24876363Y14796300D01*
X24683662Y14830278D01*
X24672701Y14831237D01*
X24244009Y14831237D01*
X24170200Y14757428D01*
X23914200Y14757428D01*
X23840391Y14831237D01*
X23408942Y14831237D01*
X23392566Y14829081D01*
X23113342Y14754263D01*
X23088862Y14741520D01*
X22932610Y14610410D01*
X22918439Y14593521D01*
X22817841Y14419280D01*
X22810300Y14398563D01*
X22776322Y14205862D01*
X22775363Y14194901D01*
X22357007Y14194901D01*
X22463723Y14341782D01*
X22472727Y14359453D01*
X22538096Y14560641D01*
X22541199Y14580230D01*
X22541199Y14791770D01*
X22538096Y14811359D01*
X22472727Y15012547D01*
X22463723Y15030218D01*
X22339382Y15201358D01*
X22325358Y15215382D01*
X22154218Y15339723D01*
X22136547Y15348727D01*
X21935359Y15414096D01*
X21915770Y15417199D01*
X21886800Y15417199D01*
X21886800Y16110187D01*
X29359463Y16110187D01*
X29361791Y16092385D01*
X29420940Y15880533D01*
X29428171Y15864100D01*
X29544404Y15677365D01*
X29555956Y15663622D01*
X29719927Y15517016D01*
X29734871Y15507068D01*
X29933399Y15412375D01*
X29950535Y15407021D01*
X30167660Y15371855D01*
X30185610Y15371526D01*
X30403878Y15398712D01*
X30421199Y15403434D01*
X30623064Y15490789D01*
X30638363Y15500183D01*
X30807595Y15640683D01*
X30819643Y15653993D01*
X30942640Y15836344D01*
X30950468Y15852500D01*
X31017459Y16062411D01*
X31020453Y16080897D01*
X31023360Y16318824D01*
X31020818Y16337378D01*
X30958976Y16548863D01*
X30951545Y16565206D01*
X30833041Y16750506D01*
X30821322Y16764107D01*
X30655572Y16908700D01*
X30640507Y16918465D01*
X30440837Y17010725D01*
X30423637Y17015869D01*
X30206098Y17048381D01*
X30188145Y17048490D01*
X29970226Y17018639D01*
X29952965Y17013706D01*
X29752182Y16923892D01*
X29736999Y16914312D01*
X29569495Y16771754D01*
X29557610Y16758297D01*
X29436851Y16574458D01*
X29429221Y16558207D01*
X29364912Y16347864D01*
X29362150Y16330124D01*
X29359463Y16110187D01*
X21886800Y16110187D01*
X21886800Y16211000D01*
X24762191Y16211000D01*
X24812991Y16261800D01*
X28045535Y16261800D01*
X28052595Y16262197D01*
X28111885Y16268877D01*
X28132310Y16274762D01*
X28236153Y16324770D01*
X28258352Y16342473D01*
X28332439Y16435375D01*
X28344759Y16460957D01*
X28369615Y16569861D01*
X28371200Y16583924D01*
X28371200Y18142187D01*
X29359463Y18142187D01*
X29361791Y18124385D01*
X29420940Y17912533D01*
X29428171Y17896100D01*
X29544404Y17709365D01*
X29555956Y17695622D01*
X29719927Y17549016D01*
X29734871Y17539068D01*
X29933399Y17444375D01*
X29950535Y17439021D01*
X30167660Y17403855D01*
X30185610Y17403526D01*
X30403878Y17430712D01*
X30421199Y17435434D01*
X30623064Y17522789D01*
X30638363Y17532183D01*
X30807595Y17672683D01*
X30819643Y17685993D01*
X30942640Y17868344D01*
X30950468Y17884500D01*
X31017459Y18094411D01*
X31020453Y18112897D01*
X31023360Y18350824D01*
X31020818Y18369378D01*
X30958976Y18580863D01*
X30951545Y18597206D01*
X30833041Y18782506D01*
X30821322Y18796107D01*
X30655572Y18940700D01*
X30640507Y18950465D01*
X30440837Y19042725D01*
X30423637Y19047869D01*
X30206098Y19080381D01*
X30188145Y19080490D01*
X29970226Y19050639D01*
X29952965Y19045706D01*
X29752182Y18955892D01*
X29736999Y18946312D01*
X29569495Y18803754D01*
X29557610Y18790297D01*
X29436851Y18606458D01*
X29429221Y18590207D01*
X29364912Y18379864D01*
X29362150Y18362124D01*
X29359463Y18142187D01*
X28371200Y18142187D01*
X28371200Y21190187D01*
X29359463Y21190187D01*
X29361791Y21172385D01*
X29420940Y20960533D01*
X29428171Y20944100D01*
X29544404Y20757365D01*
X29555956Y20743622D01*
X29719927Y20597016D01*
X29734871Y20587068D01*
X29933399Y20492375D01*
X29950535Y20487021D01*
X30167660Y20451855D01*
X30185610Y20451526D01*
X30403878Y20478712D01*
X30421199Y20483434D01*
X30623064Y20570789D01*
X30638363Y20580183D01*
X30807595Y20720683D01*
X30819643Y20733993D01*
X30942640Y20916344D01*
X30950468Y20932500D01*
X31017459Y21142411D01*
X31020453Y21160897D01*
X31020810Y21190187D01*
X31391463Y21190187D01*
X31393791Y21172385D01*
X31452940Y20960533D01*
X31460171Y20944100D01*
X31576404Y20757365D01*
X31587956Y20743622D01*
X31751927Y20597016D01*
X31766871Y20587068D01*
X31965399Y20492375D01*
X31982535Y20487021D01*
X32199660Y20451855D01*
X32217610Y20451526D01*
X32435878Y20478712D01*
X32453199Y20483434D01*
X32655064Y20570789D01*
X32670363Y20580183D01*
X32839595Y20720683D01*
X32851643Y20733993D01*
X32974640Y20916344D01*
X32982468Y20932500D01*
X33049459Y21142411D01*
X33052453Y21160897D01*
X33055360Y21398824D01*
X33052818Y21417378D01*
X32990976Y21628863D01*
X32983545Y21645206D01*
X32865041Y21830506D01*
X32853322Y21844107D01*
X32687572Y21988700D01*
X32672507Y21998465D01*
X32472837Y22090725D01*
X32455637Y22095869D01*
X32238098Y22128381D01*
X32220145Y22128490D01*
X32002226Y22098639D01*
X31984965Y22093706D01*
X31784182Y22003892D01*
X31768999Y21994312D01*
X31601495Y21851754D01*
X31589610Y21838297D01*
X31468851Y21654458D01*
X31461221Y21638207D01*
X31396912Y21427864D01*
X31394150Y21410124D01*
X31391463Y21190187D01*
X31020810Y21190187D01*
X31023360Y21398824D01*
X31020818Y21417378D01*
X30958976Y21628863D01*
X30951545Y21645206D01*
X30833041Y21830506D01*
X30821322Y21844107D01*
X30655572Y21988700D01*
X30640507Y21998465D01*
X30440837Y22090725D01*
X30423637Y22095869D01*
X30206098Y22128381D01*
X30188145Y22128490D01*
X29970226Y22098639D01*
X29952965Y22093706D01*
X29752182Y22003892D01*
X29736999Y21994312D01*
X29569495Y21851754D01*
X29557610Y21838297D01*
X29436851Y21654458D01*
X29429221Y21638207D01*
X29364912Y21427864D01*
X29362150Y21410124D01*
X29359463Y21190187D01*
X28371200Y21190187D01*
X28371200Y22815000D01*
X36370801Y22815000D01*
X36370800Y2016681D01*
X35446681Y2016681D01*
X35446681Y3126190D01*
X35445468Y3138511D01*
X35427639Y3228142D01*
X35429283Y3385041D01*
X35428474Y3395793D01*
X35386842Y3652836D01*
X35384428Y3662665D01*
X35302340Y3909432D01*
X35298385Y3918749D01*
X35177899Y4149216D01*
X35172506Y4157781D01*
X35016723Y4366020D01*
X35010029Y4373612D01*
X34822957Y4554266D01*
X34815135Y4560691D01*
X34601586Y4709111D01*
X34592839Y4714202D01*
X34358307Y4826572D01*
X34348858Y4830199D01*
X34099376Y4903624D01*
X34089469Y4905694D01*
X33831458Y4938289D01*
X33821347Y4938748D01*
X33561444Y4929672D01*
X33551390Y4928508D01*
X33296281Y4877995D01*
X33286542Y4875240D01*
X33042791Y4784590D01*
X33033618Y4780312D01*
X32807495Y4651857D01*
X32799124Y4646167D01*
X32596449Y4483211D01*
X32589095Y4476257D01*
X32415080Y4282995D01*
X32408932Y4274954D01*
X32268054Y4056354D01*
X32263271Y4047434D01*
X32159156Y3809123D01*
X32155861Y3799554D01*
X32091186Y3547662D01*
X32089463Y3537689D01*
X32065893Y3278698D01*
X32065787Y3268577D01*
X32083928Y3009148D01*
X32085441Y2999141D01*
X32144827Y2745951D01*
X32147921Y2736314D01*
X32247023Y2495874D01*
X32251618Y2486856D01*
X32387886Y2265355D01*
X32393864Y2257188D01*
X32563794Y2060322D01*
X32571001Y2053215D01*
X32770219Y1886051D01*
X32778470Y1880187D01*
X33001853Y1747025D01*
X33010934Y1742556D01*
X33216819Y1661040D01*
X33216819Y1550310D01*
X33218032Y1537989D01*
X33237432Y1440462D01*
X33246930Y1417532D01*
X33305630Y1329681D01*
X33323181Y1312130D01*
X33411032Y1253430D01*
X33433962Y1243932D01*
X33531489Y1224532D01*
X33543810Y1223319D01*
X34653319Y1223319D01*
X34653319Y329200D01*
X31853911Y329200D01*
X31841307Y331946D01*
X31833816Y332712D01*
X31666510Y349707D01*
X31538483Y389828D01*
X31421130Y454877D01*
X31319256Y542194D01*
X31237021Y648211D01*
X31177783Y768598D01*
X31142924Y902424D01*
X31132898Y1032709D01*
X31130242Y1046601D01*
X31129200Y1049956D01*
X31129200Y6875345D01*
X31133500Y6903949D01*
X31134015Y6918206D01*
X31133439Y6925681D01*
X31121126Y7085695D01*
X31118470Y7099587D01*
X31116000Y7107542D01*
X31115758Y7115949D01*
X31113730Y7130112D01*
X31111829Y7137386D01*
X31059127Y7339714D01*
X31054052Y7352916D01*
X31048327Y7363938D01*
X31045483Y7376015D01*
X31040734Y7389306D01*
X31037379Y7396161D01*
X30944992Y7583916D01*
X30937365Y7595830D01*
X30929542Y7605472D01*
X30924289Y7616816D01*
X30916845Y7629036D01*
X30912233Y7634973D01*
X30784086Y7800179D01*
X30774221Y7810315D01*
X30764616Y7818190D01*
X30757221Y7828203D01*
X30747557Y7838603D01*
X30741829Y7843521D01*
X30582980Y7979671D01*
X30571280Y7987616D01*
X30560285Y7993401D01*
X30551047Y8001704D01*
X30539537Y8009922D01*
X30532895Y8013618D01*
X30349890Y8115060D01*
X30336830Y8120489D01*
X30324902Y8123943D01*
X30314057Y8130293D01*
X30300855Y8136115D01*
X30293730Y8138326D01*
X30094336Y8200812D01*
X30080450Y8203505D01*
X30068072Y8204490D01*
X30056276Y8208494D01*
X30042386Y8211521D01*
X30034894Y8212287D01*
X29826760Y8233429D01*
X29812617Y8233274D01*
X29779674Y8229200D01*
X29324655Y8229200D01*
X29296051Y8233500D01*
X29281794Y8234015D01*
X29274342Y8233441D01*
X29114305Y8221126D01*
X29100413Y8218470D01*
X29092458Y8216000D01*
X29084051Y8215758D01*
X29069888Y8213730D01*
X29062614Y8211829D01*
X28860286Y8159127D01*
X28847084Y8154052D01*
X28836062Y8148327D01*
X28823985Y8145483D01*
X28810694Y8140734D01*
X28803839Y8137379D01*
X28616084Y8044992D01*
X28604170Y8037365D01*
X28594528Y8029542D01*
X28583184Y8024289D01*
X28570964Y8016845D01*
X28565027Y8012233D01*
X28399821Y7884086D01*
X28389685Y7874221D01*
X28381810Y7864616D01*
X28371797Y7857221D01*
X28361397Y7847557D01*
X28356479Y7841829D01*
X28220329Y7682980D01*
X28212384Y7671280D01*
X28206599Y7660285D01*
X28198296Y7651047D01*
X28190078Y7639537D01*
X28186382Y7632895D01*
X28084940Y7449890D01*
X28079511Y7436830D01*
X28076057Y7424902D01*
X28069707Y7414057D01*
X28063885Y7400855D01*
X28061674Y7393730D01*
X27999188Y7194336D01*
X27996495Y7180450D01*
X27995510Y7168072D01*
X27991506Y7156276D01*
X27988479Y7142386D01*
X27987713Y7134894D01*
X27966571Y6926760D01*
X27966726Y6912617D01*
X27970801Y6879666D01*
X27970801Y6256637D01*
X27854609Y6256637D01*
X27780800Y6182828D01*
X27780800Y5626000D01*
X27524800Y5626000D01*
X27524800Y6182828D01*
X27450991Y6256637D01*
X27319542Y6256637D01*
X27303166Y6254481D01*
X27183260Y6222353D01*
X26994262Y6255678D01*
X26983301Y6256637D01*
X26854609Y6256637D01*
X26780800Y6182828D01*
X26780800Y5626000D01*
X26524800Y5626000D01*
X26524800Y6182828D01*
X26450991Y6256637D01*
X26319542Y6256637D01*
X26303166Y6254481D01*
X26183260Y6222353D01*
X25994262Y6255678D01*
X25983301Y6256637D01*
X25854609Y6256637D01*
X25780800Y6182828D01*
X25780800Y5626000D01*
X25524800Y5626000D01*
X25524800Y6182828D01*
X25450991Y6256637D01*
X25319542Y6256637D01*
X25303166Y6254481D01*
X25183260Y6222353D01*
X24994262Y6255678D01*
X24983301Y6256637D01*
X24854609Y6256637D01*
X24780800Y6182828D01*
X24780800Y5626000D01*
X24524800Y5626000D01*
X24524800Y6182828D01*
X24450991Y6256637D01*
X24319542Y6256637D01*
X24303166Y6254481D01*
X24183260Y6222353D01*
X23994262Y6255678D01*
X23983301Y6256637D01*
X23854609Y6256637D01*
X23780800Y6182828D01*
X23780800Y5626000D01*
X23524800Y5626000D01*
X23524800Y6182828D01*
X23450991Y6256637D01*
X23319541Y6256637D01*
X23303166Y6254481D01*
X23231199Y6235197D01*
X23231199Y6300103D01*
X23227371Y6321816D01*
X23158896Y6509949D01*
X23147873Y6529042D01*
X23019182Y6682411D01*
X23002293Y6696582D01*
X22828907Y6796687D01*
X22808190Y6804228D01*
X22611751Y6838865D01*
X22679781Y7025774D01*
X22683609Y7047487D01*
X22683609Y7247693D01*
X22679781Y7269406D01*
X22611306Y7457539D01*
X22600283Y7476632D01*
X22471592Y7630001D01*
X22454703Y7644172D01*
X22281317Y7744277D01*
X22260600Y7751818D01*
X22063433Y7786583D01*
X22041387Y7786583D01*
X21844220Y7751818D01*
X21823503Y7744277D01*
X21650117Y7644172D01*
X21633228Y7630001D01*
X21504537Y7476632D01*
X21493514Y7457539D01*
X21425039Y7269406D01*
X21421211Y7247693D01*
X21421211Y7072200D01*
X21381442Y7262563D01*
X21377018Y7275998D01*
X21371840Y7287283D01*
X21369570Y7299591D01*
X21365390Y7313297D01*
X21362451Y7320068D01*
X21283388Y7502773D01*
X21276353Y7515043D01*
X21269010Y7525059D01*
X21264316Y7536646D01*
X21257481Y7549209D01*
X21253222Y7555283D01*
X21139035Y7718361D01*
X21129676Y7728967D01*
X21120468Y7737302D01*
X21113534Y7747718D01*
X21104292Y7758671D01*
X21098815Y7763839D01*
X20954278Y7900520D01*
X20942978Y7909026D01*
X20932284Y7915338D01*
X20923443Y7924102D01*
X20912305Y7932899D01*
X20905891Y7936885D01*
X20736669Y8041806D01*
X20723890Y8047867D01*
X20712139Y8051902D01*
X20701732Y8058699D01*
X20689078Y8065068D01*
X20681971Y8067694D01*
X20495096Y8136451D01*
X20481358Y8139819D01*
X20469040Y8141408D01*
X20457400Y8146005D01*
X20443559Y8149724D01*
X20436113Y8150841D01*
X20239423Y8180589D01*
X20225287Y8181126D01*
X20212900Y8180205D01*
X20200621Y8182359D01*
X20186405Y8183224D01*
X20178910Y8182833D01*
X19980099Y8172413D01*
X19966147Y8170097D01*
X19954203Y8166706D01*
X19941700Y8166346D01*
X19927537Y8164318D01*
X19920264Y8162417D01*
X19727714Y8112262D01*
X19714512Y8107187D01*
X19703492Y8101462D01*
X19691339Y8098601D01*
X19677908Y8093783D01*
X19671206Y8090484D01*
X19492581Y8002589D01*
X19480669Y7994964D01*
X19471024Y7987140D01*
X19459727Y7981908D01*
X19447592Y7974530D01*
X19441626Y7969910D01*
X19284302Y7847877D01*
X19274165Y7838011D01*
X19266289Y7828406D01*
X19256225Y7820972D01*
X19245738Y7811208D01*
X19240942Y7805598D01*
X19111387Y7654443D01*
X19103442Y7642743D01*
X19097657Y7631748D01*
X19089303Y7622453D01*
X19081011Y7610810D01*
X19077414Y7604310D01*
X18980899Y7430192D01*
X18975469Y7417132D01*
X18972015Y7405205D01*
X18965678Y7394382D01*
X18959871Y7381228D01*
X18957626Y7374016D01*
X18898167Y7184282D01*
X18895474Y7170396D01*
X18894489Y7158017D01*
X18890485Y7146221D01*
X18887603Y7132995D01*
X18712200Y7308397D01*
X18712200Y7995448D01*
X18742596Y8020683D01*
X18754643Y8033993D01*
X18877640Y8216344D01*
X18885468Y8232500D01*
X18952459Y8442411D01*
X18955453Y8460897D01*
X18958360Y8698824D01*
X18955818Y8717378D01*
X18893976Y8928863D01*
X18886545Y8945206D01*
X18768041Y9130506D01*
X18756322Y9144107D01*
X18590572Y9288700D01*
X18575507Y9298465D01*
X18375837Y9390725D01*
X18358637Y9395869D01*
X18141098Y9428381D01*
X18123146Y9428491D01*
X18116955Y9427643D01*
X17984779Y9559819D01*
X18418390Y9559819D01*
X18430711Y9561032D01*
X18528238Y9580432D01*
X18551168Y9589930D01*
X18639019Y9648630D01*
X18656570Y9666181D01*
X18715270Y9754032D01*
X18724768Y9776962D01*
X18744168Y9874489D01*
X18745381Y9886810D01*
X18745381Y9921211D01*
X18855221Y9921211D01*
X18874810Y9924314D01*
X19075998Y9989683D01*
X19093669Y9998687D01*
X19264809Y10123028D01*
X19278833Y10137052D01*
X19397296Y10300103D01*
X24968801Y10300103D01*
X24968801Y10099897D01*
X24972629Y10078184D01*
X25041104Y9890051D01*
X25052127Y9870958D01*
X25180818Y9717589D01*
X25197707Y9703418D01*
X25371093Y9603313D01*
X25391810Y9595772D01*
X25588977Y9561007D01*
X25611023Y9561007D01*
X25808190Y9595772D01*
X25828907Y9603313D01*
X26002293Y9703418D01*
X26019182Y9717589D01*
X26147873Y9870958D01*
X26150000Y9874642D01*
X26152127Y9870958D01*
X26280818Y9717589D01*
X26297707Y9703418D01*
X26471093Y9603313D01*
X26491810Y9595772D01*
X26688977Y9561007D01*
X26711023Y9561007D01*
X26908190Y9595772D01*
X26928907Y9603313D01*
X27102293Y9703418D01*
X27119182Y9717589D01*
X27200000Y9813905D01*
X27280818Y9717589D01*
X27297707Y9703418D01*
X27471093Y9603313D01*
X27491810Y9595772D01*
X27688977Y9561007D01*
X27711023Y9561007D01*
X27908190Y9595772D01*
X27914838Y9598192D01*
X31060776Y9598192D01*
X31060776Y8295817D01*
X31062220Y8282387D01*
X31135255Y7946647D01*
X31143885Y7925813D01*
X31272696Y7725380D01*
X31284499Y7711759D01*
X31462849Y7557217D01*
X31478011Y7547473D01*
X31692677Y7449439D01*
X31709970Y7444361D01*
X31939094Y7411418D01*
X31948071Y7410776D01*
X32298191Y7410776D01*
X32372000Y7484585D01*
X32627999Y7484585D01*
X32701808Y7410776D01*
X33054183Y7410776D01*
X33067613Y7412220D01*
X33403353Y7485255D01*
X33424187Y7493885D01*
X33624620Y7622696D01*
X33638241Y7634499D01*
X33792783Y7812849D01*
X33802527Y7828011D01*
X33900561Y8042677D01*
X33905639Y8059970D01*
X33938582Y8289094D01*
X33939224Y8298071D01*
X33939224Y8400187D01*
X34167463Y8400187D01*
X34169791Y8382385D01*
X34228940Y8170533D01*
X34236171Y8154100D01*
X34352404Y7967365D01*
X34363956Y7953622D01*
X34527927Y7807016D01*
X34542871Y7797068D01*
X34741399Y7702375D01*
X34758535Y7697021D01*
X34975660Y7661855D01*
X34993610Y7661526D01*
X35211878Y7688712D01*
X35229199Y7693434D01*
X35431064Y7780789D01*
X35446363Y7790183D01*
X35615595Y7930683D01*
X35627643Y7943993D01*
X35750640Y8126344D01*
X35758468Y8142500D01*
X35825459Y8352411D01*
X35828453Y8370897D01*
X35831360Y8608824D01*
X35828818Y8627378D01*
X35766976Y8838863D01*
X35759545Y8855206D01*
X35641041Y9040506D01*
X35629322Y9054107D01*
X35463572Y9198700D01*
X35448507Y9208465D01*
X35248837Y9300725D01*
X35231637Y9305869D01*
X35014098Y9338381D01*
X34996145Y9338490D01*
X34778226Y9308639D01*
X34760965Y9303706D01*
X34560182Y9213892D01*
X34544999Y9204312D01*
X34377495Y9061754D01*
X34365610Y9048297D01*
X34244851Y8864458D01*
X34237221Y8848207D01*
X34172912Y8637864D01*
X34170150Y8620124D01*
X34167463Y8400187D01*
X33939224Y8400187D01*
X33939224Y9598191D01*
X33865415Y9672000D01*
X32701809Y9672001D01*
X32628000Y9598192D01*
X32627999Y7484585D01*
X32372000Y7484585D01*
X32372001Y9598191D01*
X32298192Y9672000D01*
X31134585Y9672001D01*
X31060776Y9598192D01*
X27914838Y9598192D01*
X27928907Y9603313D01*
X28102293Y9703418D01*
X28119182Y9717589D01*
X28247873Y9870958D01*
X28258896Y9890051D01*
X28327371Y10078184D01*
X28331199Y10099897D01*
X28331199Y10300103D01*
X28327371Y10321816D01*
X28258896Y10509949D01*
X28247873Y10529042D01*
X28119182Y10682411D01*
X28102293Y10696582D01*
X27928907Y10796687D01*
X27908190Y10804228D01*
X27711023Y10838993D01*
X27688977Y10838993D01*
X27491810Y10804228D01*
X27471093Y10796687D01*
X27297707Y10696582D01*
X27280818Y10682411D01*
X27200000Y10586095D01*
X27119182Y10682411D01*
X27102293Y10696582D01*
X26928907Y10796687D01*
X26908190Y10804228D01*
X26711023Y10838993D01*
X26688977Y10838993D01*
X26491810Y10804228D01*
X26471093Y10796687D01*
X26297707Y10696582D01*
X26280818Y10682411D01*
X26152127Y10529042D01*
X26150000Y10525358D01*
X26147873Y10529042D01*
X26019182Y10682411D01*
X26002293Y10696582D01*
X25828907Y10796687D01*
X25808190Y10804228D01*
X25611023Y10838993D01*
X25588977Y10838993D01*
X25391810Y10804228D01*
X25371093Y10796687D01*
X25197707Y10696582D01*
X25180818Y10682411D01*
X25052127Y10529042D01*
X25041104Y10509949D01*
X24972629Y10321816D01*
X24968801Y10300103D01*
X19397296Y10300103D01*
X19403174Y10308192D01*
X19412178Y10325863D01*
X19477547Y10527051D01*
X19480650Y10546640D01*
X19480650Y10758180D01*
X19477547Y10777769D01*
X19412178Y10978957D01*
X19403174Y10996628D01*
X19278833Y11167768D01*
X19264809Y11181792D01*
X19093669Y11306133D01*
X19075998Y11315137D01*
X18874810Y11380506D01*
X18855221Y11383609D01*
X18643681Y11383609D01*
X18624092Y11380506D01*
X18422904Y11315137D01*
X18405233Y11306133D01*
X18310919Y11237610D01*
X18209300Y11237610D01*
X18143127Y11243400D01*
X18121163Y11241479D01*
X18056982Y11224282D01*
X17991553Y11212745D01*
X17970835Y11205204D01*
X17957888Y11197729D01*
X17943445Y11193859D01*
X17923462Y11184541D01*
X17911524Y11176181D01*
X17531010Y11176181D01*
X17518689Y11174968D01*
X17421162Y11155568D01*
X17398232Y11146070D01*
X17310381Y11087370D01*
X17292830Y11069819D01*
X17234130Y10981968D01*
X17224632Y10959038D01*
X17205232Y10861511D01*
X17204019Y10849190D01*
X17204019Y10340577D01*
X17170381Y10374215D01*
X17170381Y10849190D01*
X17169168Y10861511D01*
X17149768Y10959038D01*
X17140270Y10981968D01*
X17081570Y11069819D01*
X17064019Y11087370D01*
X16976168Y11146070D01*
X16953238Y11155568D01*
X16855711Y11174968D01*
X16843390Y11176181D01*
X16579932Y11176181D01*
X16586151Y11195321D01*
X16589253Y11214910D01*
X16589253Y11426450D01*
X16586150Y11446039D01*
X16520781Y11647227D01*
X16511777Y11664898D01*
X16387436Y11836038D01*
X16373412Y11850062D01*
X16202272Y11974403D01*
X16184601Y11983407D01*
X15983413Y12048776D01*
X15963824Y12051879D01*
X15752284Y12051879D01*
X15732695Y12048776D01*
X15531507Y11983407D01*
X15513836Y11974403D01*
X15383469Y11879685D01*
X15349968Y11902070D01*
X15327038Y11911568D01*
X15229511Y11930968D01*
X15217190Y11932181D01*
X15132902Y11932181D01*
X15098931Y11951794D01*
X15078213Y11959335D01*
X14942632Y11983241D01*
X14931671Y11984200D01*
X14576207Y11984200D01*
X14432618Y12088523D01*
X14414947Y12097527D01*
X14213759Y12162896D01*
X14194170Y12165999D01*
X13982630Y12165999D01*
X13963041Y12162896D01*
X13761853Y12097527D01*
X13744182Y12088523D01*
X13573042Y11964182D01*
X13559018Y11950158D01*
X13499860Y11868734D01*
X13449968Y11902070D01*
X13427038Y11911568D01*
X13329511Y11930968D01*
X13317190Y11932181D01*
X12654810Y11932181D01*
X12642489Y11930968D01*
X12544962Y11911568D01*
X12522032Y11902070D01*
X12434181Y11843370D01*
X12421680Y11830869D01*
X12357902Y11867692D01*
X12337185Y11875233D01*
X12140018Y11909998D01*
X12117972Y11909998D01*
X11920805Y11875233D01*
X11900088Y11867692D01*
X11726702Y11767587D01*
X11709813Y11753416D01*
X11581122Y11600047D01*
X11570099Y11580954D01*
X11569497Y11579300D01*
X11547252Y11594019D01*
X11482801Y11637084D01*
X11481132Y11637775D01*
X11480915Y11637919D01*
X11470485Y11642186D01*
X11459873Y11646582D01*
X11459613Y11646634D01*
X11457933Y11647321D01*
X11382076Y11662058D01*
X11305910Y11677208D01*
X11281091Y11677208D01*
X11247360Y11670499D01*
X9784798Y11663953D01*
X9809209Y11700143D01*
X9846188Y11742014D01*
X9856045Y11757019D01*
X9875451Y11798351D01*
X9900974Y11836190D01*
X9908801Y11852346D01*
X9925783Y11905558D01*
X9949606Y11956298D01*
X9954914Y11973853D01*
X9961374Y12017078D01*
X9975792Y12062256D01*
X9978786Y12080742D01*
X9979490Y12138294D01*
X9980840Y12147332D01*
X9981533Y12156655D01*
X9981533Y12305545D01*
X9981693Y12318674D01*
X9981533Y12319841D01*
X9981533Y12895551D01*
X9985363Y12912478D01*
X9986803Y12930373D01*
X9981533Y13015315D01*
X9981533Y13043781D01*
X9980896Y13052723D01*
X9977926Y13073461D01*
X9973183Y13149904D01*
X9969543Y13167483D01*
X9961119Y13190818D01*
X9957601Y13215378D01*
X9952563Y13232608D01*
X9932065Y13277692D01*
X10192663Y13277692D01*
X10192663Y12596242D01*
X10194819Y12579866D01*
X10269637Y12300641D01*
X10282380Y12276161D01*
X10413490Y12119910D01*
X10430379Y12105739D01*
X10604620Y12005141D01*
X10625337Y11997600D01*
X10818038Y11963622D01*
X10828999Y11962663D01*
X11257691Y11962663D01*
X11331500Y12036472D01*
X11587499Y12036472D01*
X11661308Y11962663D01*
X12092758Y11962663D01*
X12109134Y11964819D01*
X12388359Y12039637D01*
X12412839Y12052380D01*
X12569090Y12183490D01*
X12583261Y12200379D01*
X12683859Y12374620D01*
X12691400Y12395337D01*
X12725378Y12588038D01*
X12726337Y12598999D01*
X12726337Y13112591D01*
X22775363Y13112591D01*
X22775363Y12431142D01*
X22777519Y12414766D01*
X22852337Y12135541D01*
X22865080Y12111061D01*
X22996190Y11954810D01*
X23013079Y11940639D01*
X23187320Y11840041D01*
X23208037Y11832500D01*
X23400738Y11798522D01*
X23411699Y11797563D01*
X23840391Y11797563D01*
X23914200Y11871372D01*
X23914200Y13112591D01*
X24170200Y13112591D01*
X24170200Y11871372D01*
X24244009Y11797563D01*
X24675458Y11797563D01*
X24691834Y11799719D01*
X24971059Y11874537D01*
X24995539Y11887280D01*
X25151790Y12018390D01*
X25165961Y12035279D01*
X25266559Y12209520D01*
X25274100Y12230237D01*
X25308078Y12422938D01*
X25309037Y12433899D01*
X25309037Y13112591D01*
X25235228Y13186400D01*
X24244009Y13186400D01*
X24170200Y13112591D01*
X23914200Y13112591D01*
X23840391Y13186400D01*
X22849172Y13186400D01*
X22775363Y13112591D01*
X12726337Y13112591D01*
X12726337Y13277691D01*
X12652528Y13351500D01*
X11661309Y13351501D01*
X11587500Y13277692D01*
X11587499Y12036472D01*
X11331500Y12036472D01*
X11331501Y13277691D01*
X11257692Y13351500D01*
X10266472Y13351501D01*
X10192663Y13277692D01*
X9932065Y13277692D01*
X9920861Y13302334D01*
X9894790Y13374551D01*
X9886131Y13390718D01*
X9871980Y13409842D01*
X9861524Y13432838D01*
X9851851Y13447963D01*
X9794645Y13514353D01*
X9781796Y13531718D01*
X9775692Y13538802D01*
X9760423Y13554070D01*
X9708273Y13614592D01*
X9694744Y13626394D01*
X9675856Y13638637D01*
X9617681Y13696812D01*
X9617681Y14360001D01*
X10192663Y14360001D01*
X10192663Y13681309D01*
X10266472Y13607500D01*
X11257691Y13607499D01*
X11331500Y13681309D01*
X11587499Y13681309D01*
X11661308Y13607500D01*
X12652528Y13607499D01*
X12726337Y13681308D01*
X12726337Y14362758D01*
X12724181Y14379134D01*
X12649363Y14658358D01*
X12636620Y14682838D01*
X12505510Y14839090D01*
X12488621Y14853261D01*
X12314380Y14953859D01*
X12293663Y14961400D01*
X12100962Y14995378D01*
X12090001Y14996337D01*
X11661309Y14996337D01*
X11587500Y14922528D01*
X11587499Y13681309D01*
X11331500Y13681309D01*
X11331501Y14922528D01*
X11257692Y14996337D01*
X10826242Y14996337D01*
X10809866Y14994181D01*
X10530642Y14919363D01*
X10506162Y14906620D01*
X10349910Y14775510D01*
X10335739Y14758621D01*
X10235141Y14584380D01*
X10227600Y14563663D01*
X10193622Y14370962D01*
X10192663Y14360001D01*
X9617681Y14360001D01*
X9617681Y14360690D01*
X9616468Y14373011D01*
X9597068Y14470538D01*
X9587570Y14493468D01*
X9528870Y14581319D01*
X9511319Y14598870D01*
X9423468Y14657570D01*
X9400538Y14667068D01*
X9303011Y14686468D01*
X9290690Y14687681D01*
X8028310Y14687681D01*
X8015989Y14686468D01*
X7918462Y14667068D01*
X7895532Y14657570D01*
X7807681Y14598870D01*
X7790130Y14581319D01*
X7731430Y14493468D01*
X7721932Y14470538D01*
X7702532Y14373011D01*
X7701319Y14360690D01*
X7701319Y13245700D01*
X7506533Y13245700D01*
X7487568Y13341038D01*
X7478070Y13363968D01*
X7419370Y13451819D01*
X7401819Y13469370D01*
X7313968Y13528070D01*
X7291038Y13537568D01*
X7193511Y13556968D01*
X7181190Y13558181D01*
X6218810Y13558181D01*
X6206489Y13556968D01*
X6108962Y13537568D01*
X6086032Y13528070D01*
X5998181Y13469370D01*
X5980630Y13451819D01*
X5921930Y13363968D01*
X5912432Y13341038D01*
X5893032Y13243511D01*
X5891819Y13231190D01*
X5891819Y13220300D01*
X5815818Y13220300D01*
X5831968Y13301489D01*
X5833181Y13313810D01*
X5833181Y14006190D01*
X5831968Y14018511D01*
X5829666Y14030083D01*
X5947873Y14170958D01*
X5958896Y14190051D01*
X6027371Y14378184D01*
X6031199Y14399897D01*
X6031199Y14600103D01*
X6027371Y14621816D01*
X5958896Y14809949D01*
X5947873Y14829042D01*
X5819182Y14982411D01*
X5802293Y14996582D01*
X5628907Y15096687D01*
X5608190Y15104228D01*
X5431199Y15135436D01*
X5431199Y15200103D01*
X5427371Y15221816D01*
X5358896Y15409949D01*
X5347873Y15429042D01*
X5323592Y15457979D01*
X5402293Y15503418D01*
X5419182Y15517589D01*
X5547873Y15670958D01*
X5558896Y15690051D01*
X5627371Y15878184D01*
X5631199Y15899897D01*
X5631199Y16100103D01*
X5627371Y16121816D01*
X5558896Y16309949D01*
X5547873Y16329042D01*
X5419182Y16482411D01*
X5402293Y16496582D01*
X5396373Y16500000D01*
X5402293Y16503418D01*
X5419182Y16517589D01*
X5547873Y16670958D01*
X5558896Y16690051D01*
X5627371Y16878184D01*
X5631199Y16899897D01*
X5631199Y17100103D01*
X5627371Y17121816D01*
X5558896Y17309949D01*
X5547873Y17329042D01*
X5419182Y17482411D01*
X5402293Y17496582D01*
X5396373Y17500000D01*
X5402293Y17503418D01*
X5419182Y17517589D01*
X5547873Y17670958D01*
X5558896Y17690051D01*
X5627371Y17878184D01*
X5631199Y17899897D01*
X5631199Y18100103D01*
X5627371Y18121816D01*
X5558896Y18309949D01*
X5547873Y18329042D01*
X5419182Y18482411D01*
X5402293Y18496582D01*
X5228907Y18596687D01*
X5208190Y18604228D01*
X5011023Y18638993D01*
X4988977Y18638993D01*
X4791810Y18604228D01*
X4771093Y18596687D01*
X4597707Y18496582D01*
X4580818Y18482411D01*
X4500000Y18386095D01*
X4419182Y18482411D01*
X4402293Y18496582D01*
X4228907Y18596687D01*
X4208190Y18604228D01*
X4011023Y18638993D01*
X3988977Y18638993D01*
X3791810Y18604228D01*
X3771093Y18596687D01*
X3597707Y18496582D01*
X3580818Y18482411D01*
X3452127Y18329042D01*
X3441104Y18309949D01*
X3372629Y18121816D01*
X3368801Y18100103D01*
X3368801Y17899897D01*
X3372629Y17878184D01*
X3441104Y17690051D01*
X3452127Y17670958D01*
X3580818Y17517589D01*
X3597707Y17503418D01*
X3603627Y17500000D01*
X3597707Y17496582D01*
X3580818Y17482411D01*
X3452127Y17329042D01*
X3441104Y17309949D01*
X3372629Y17121816D01*
X3368801Y17100103D01*
X3368801Y16899897D01*
X3372629Y16878184D01*
X3441104Y16690051D01*
X3452127Y16670958D01*
X3580818Y16517589D01*
X3597707Y16503418D01*
X3603627Y16500000D01*
X3597707Y16496582D01*
X3580818Y16482411D01*
X3452127Y16329042D01*
X3441104Y16309949D01*
X3372629Y16121816D01*
X3368801Y16100103D01*
X3368801Y15899897D01*
X3372629Y15878184D01*
X3441104Y15690051D01*
X3452127Y15670958D01*
X3580818Y15517589D01*
X3597707Y15503418D01*
X3771093Y15403313D01*
X3791810Y15395772D01*
X3988977Y15361007D01*
X4011023Y15361007D01*
X4208190Y15395772D01*
X4228907Y15403313D01*
X4241456Y15410558D01*
X4241104Y15409949D01*
X4202960Y15305150D01*
X4011023Y15338993D01*
X3988977Y15338993D01*
X3791810Y15304228D01*
X3771093Y15296687D01*
X3597707Y15196582D01*
X3580818Y15182411D01*
X3452127Y15029042D01*
X3441104Y15009949D01*
X3372629Y14821816D01*
X3368801Y14800103D01*
X3368801Y14599897D01*
X3372629Y14578184D01*
X3441104Y14390051D01*
X3452127Y14370958D01*
X3527751Y14280832D01*
X3473181Y14244370D01*
X3455630Y14226819D01*
X3396930Y14138968D01*
X3387432Y14116038D01*
X3368032Y14018511D01*
X3366819Y14006190D01*
X3366819Y13313810D01*
X3368032Y13301489D01*
X3387432Y13203962D01*
X3396930Y13181032D01*
X3417201Y13150694D01*
X3417201Y13123811D01*
X3413750Y13113985D01*
X3410538Y13085789D01*
X3417201Y13025914D01*
X3417201Y13008343D01*
X3418784Y12994286D01*
X3422567Y12977706D01*
X3429161Y12918445D01*
X3438523Y12891599D01*
X3444315Y12882366D01*
X3446753Y12871676D01*
X3459059Y12846106D01*
X3486819Y12811269D01*
X3486819Y11568810D01*
X3488032Y11556489D01*
X3491929Y11536897D01*
X3473181Y11524370D01*
X3455630Y11506819D01*
X3396930Y11418968D01*
X3387432Y11396038D01*
X3368032Y11298511D01*
X3366819Y11286190D01*
X3366819Y10593810D01*
X3368032Y10581489D01*
X3387432Y10483962D01*
X3396930Y10461032D01*
X3455630Y10373181D01*
X3465008Y10363803D01*
X3466066Y10354297D01*
X3475428Y10327449D01*
X3480029Y10320114D01*
X3481967Y10311621D01*
X3494273Y10286052D01*
X3527753Y10244038D01*
X3535702Y10231365D01*
X3544551Y10220260D01*
X3555130Y10209681D01*
X3588357Y10167985D01*
X3610534Y10150281D01*
X3618253Y10146558D01*
X4196307Y9568504D01*
X4199863Y9561097D01*
X4217529Y9538888D01*
X4259440Y9505371D01*
X4270324Y9494486D01*
X4281380Y9485668D01*
X4293978Y9477749D01*
X4335455Y9444580D01*
X4361060Y9432217D01*
X4369496Y9430285D01*
X4376870Y9425650D01*
X4403654Y9416270D01*
X4457034Y9410235D01*
X4471619Y9406895D01*
X4485729Y9405300D01*
X4500700Y9405300D01*
X4553667Y9399312D01*
X4581867Y9402475D01*
X4589957Y9405300D01*
X7970628Y9405300D01*
X7906279Y9228503D01*
X7902451Y9206790D01*
X7902451Y9006584D01*
X7906279Y8984871D01*
X7974754Y8796738D01*
X7985777Y8777645D01*
X8114468Y8624276D01*
X8131357Y8610105D01*
X8304743Y8510000D01*
X8325460Y8502459D01*
X8522627Y8467694D01*
X8544673Y8467694D01*
X8559038Y8470227D01*
X8421306Y8332495D01*
X8413897Y8328937D01*
X8391688Y8311271D01*
X8358171Y8269359D01*
X8347285Y8258474D01*
X8338466Y8247417D01*
X8330547Y8234818D01*
X8297381Y8193344D01*
X8285017Y8167741D01*
X8283085Y8159304D01*
X8278450Y8151930D01*
X8269070Y8125146D01*
X8263035Y8071762D01*
X8259695Y8057181D01*
X8258100Y8043070D01*
X8258100Y8028100D01*
X8252112Y7975133D01*
X8255275Y7946933D01*
X8258100Y7938843D01*
X8258100Y7342385D01*
X8254052Y7352916D01*
X8248327Y7363938D01*
X8245483Y7376015D01*
X8240734Y7389306D01*
X8237379Y7396161D01*
X8144992Y7583916D01*
X8137365Y7595830D01*
X8129542Y7605472D01*
X8124289Y7616816D01*
X8116845Y7629036D01*
X8112233Y7634973D01*
X7984086Y7800179D01*
X7974221Y7810315D01*
X7964616Y7818190D01*
X7957221Y7828203D01*
X7947557Y7838603D01*
X7941829Y7843521D01*
X7782980Y7979671D01*
X7771280Y7987616D01*
X7760285Y7993401D01*
X7751047Y8001704D01*
X7739537Y8009922D01*
X7732895Y8013618D01*
X7549890Y8115060D01*
X7536830Y8120489D01*
X7524902Y8123943D01*
X7514057Y8130293D01*
X7500855Y8136115D01*
X7493730Y8138326D01*
X7294336Y8200812D01*
X7280450Y8203505D01*
X7268072Y8204490D01*
X7256276Y8208494D01*
X7242386Y8211521D01*
X7234894Y8212287D01*
X7026760Y8233429D01*
X7012617Y8233274D01*
X6979674Y8229200D01*
X6624655Y8229200D01*
X6596051Y8233500D01*
X6581794Y8234015D01*
X6574342Y8233441D01*
X6414305Y8221126D01*
X6400413Y8218470D01*
X6392458Y8216000D01*
X6384051Y8215758D01*
X6369888Y8213730D01*
X6362614Y8211829D01*
X6160286Y8159127D01*
X6147084Y8154052D01*
X6136062Y8148327D01*
X6123985Y8145483D01*
X6110694Y8140734D01*
X6103839Y8137379D01*
X5916084Y8044992D01*
X5904170Y8037365D01*
X5894528Y8029542D01*
X5883184Y8024289D01*
X5870964Y8016845D01*
X5865027Y8012233D01*
X5699821Y7884086D01*
X5689685Y7874221D01*
X5681810Y7864616D01*
X5671797Y7857221D01*
X5661397Y7847557D01*
X5656479Y7841829D01*
X5520329Y7682980D01*
X5512384Y7671280D01*
X5506599Y7660285D01*
X5498296Y7651047D01*
X5490078Y7639537D01*
X5486382Y7632895D01*
X5384940Y7449890D01*
X5379511Y7436830D01*
X5376057Y7424902D01*
X5369707Y7414057D01*
X5363885Y7400855D01*
X5361674Y7393730D01*
X5299188Y7194336D01*
X5296495Y7180450D01*
X5295510Y7168072D01*
X5291506Y7156276D01*
X5288479Y7142386D01*
X5287713Y7134894D01*
X5266571Y6926760D01*
X5266726Y6912617D01*
X5270800Y6879674D01*
X5270801Y1053915D01*
X5268054Y1041307D01*
X5267288Y1033816D01*
X5250293Y866510D01*
X5210172Y738483D01*
X5145123Y621130D01*
X5057806Y519256D01*
X4951789Y437021D01*
X4831402Y377783D01*
X4697576Y342924D01*
X4567291Y332898D01*
X4553399Y330242D01*
X4550044Y329200D01*
X2140681Y329200D01*
X2140681Y1223319D01*
X3250190Y1223319D01*
X3262511Y1224532D01*
X3360038Y1243932D01*
X3382968Y1253430D01*
X3470819Y1312130D01*
X3488370Y1329681D01*
X3547070Y1417532D01*
X3556568Y1440462D01*
X3575968Y1537989D01*
X3577181Y1550310D01*
X3577181Y1689690D01*
X3575968Y1702011D01*
X3564645Y1758933D01*
X3612116Y1780466D01*
X3620968Y1785373D01*
X3837579Y1929290D01*
X3845532Y1935549D01*
X4036348Y2112245D01*
X4043199Y2119696D01*
X4203308Y2324627D01*
X4208880Y2333076D01*
X4334166Y2560971D01*
X4338315Y2570203D01*
X4425553Y2815195D01*
X4428172Y2824972D01*
X4475178Y3081086D01*
X4476212Y3091819D01*
X4479283Y3385041D01*
X4478474Y3395793D01*
X4436842Y3652836D01*
X4434428Y3662665D01*
X4352340Y3909432D01*
X4348385Y3918749D01*
X4227899Y4149216D01*
X4222506Y4157781D01*
X4066723Y4366020D01*
X4060029Y4373612D01*
X3872957Y4554266D01*
X3865135Y4560691D01*
X3651586Y4709111D01*
X3642839Y4714202D01*
X3408307Y4826572D01*
X3398858Y4830199D01*
X3149376Y4903624D01*
X3139469Y4905694D01*
X2881458Y4938289D01*
X2871347Y4938748D01*
X2611444Y4929672D01*
X2601390Y4928508D01*
X2346281Y4877995D01*
X2336542Y4875240D01*
X2092791Y4784590D01*
X2083618Y4780312D01*
X1857495Y4651857D01*
X1849124Y4646167D01*
X1646449Y4483211D01*
X1639095Y4476257D01*
X1465080Y4282995D01*
X1458932Y4274954D01*
X1318054Y4056354D01*
X1313271Y4047434D01*
X1209156Y3809123D01*
X1205861Y3799554D01*
X1141186Y3547662D01*
X1139463Y3537689D01*
X1115893Y3278698D01*
X1115787Y3268577D01*
X1133928Y3009148D01*
X1135441Y2999141D01*
X1194827Y2745951D01*
X1197921Y2736314D01*
X1297023Y2495874D01*
X1301618Y2486856D01*
X1347319Y2412569D01*
X1347319Y2016681D01*
X329200Y2016681D01*
X329200Y21600103D01*
X368801Y21600103D01*
X368801Y21399897D01*
X372629Y21378184D01*
X441104Y21190051D01*
X452127Y21170958D01*
X580818Y21017589D01*
X597707Y21003418D01*
X603627Y21000000D01*
X597707Y20996582D01*
X580818Y20982411D01*
X452127Y20829042D01*
X441104Y20809949D01*
X372629Y20621816D01*
X368801Y20600103D01*
X368801Y20399897D01*
X372629Y20378184D01*
X441104Y20190051D01*
X452127Y20170958D01*
X580818Y20017589D01*
X597707Y20003418D01*
X603627Y20000000D01*
X597707Y19996582D01*
X580818Y19982411D01*
X452127Y19829042D01*
X441104Y19809949D01*
X372629Y19621816D01*
X368801Y19600103D01*
X368801Y19399897D01*
X372629Y19378184D01*
X441104Y19190051D01*
X452127Y19170958D01*
X580818Y19017589D01*
X597707Y19003418D01*
X603627Y19000000D01*
X597707Y18996582D01*
X580818Y18982411D01*
X452127Y18829042D01*
X441104Y18809949D01*
X372629Y18621816D01*
X368801Y18600103D01*
X368801Y18399897D01*
X372629Y18378184D01*
X441104Y18190051D01*
X452127Y18170958D01*
X580818Y18017589D01*
X597707Y18003418D01*
X771093Y17903313D01*
X791810Y17895772D01*
X988977Y17861007D01*
X1011023Y17861007D01*
X1208190Y17895772D01*
X1228907Y17903313D01*
X1402293Y18003418D01*
X1419182Y18017589D01*
X1547873Y18170958D01*
X1558896Y18190051D01*
X1627371Y18378184D01*
X1631199Y18399897D01*
X1631199Y18600103D01*
X1627371Y18621816D01*
X1558896Y18809949D01*
X1547873Y18829042D01*
X1419182Y18982411D01*
X1402293Y18996582D01*
X1396373Y19000000D01*
X1402293Y19003418D01*
X1419182Y19017589D01*
X1547873Y19170958D01*
X1558896Y19190051D01*
X1627371Y19378184D01*
X1631199Y19399897D01*
X1631199Y19600103D01*
X1627371Y19621816D01*
X1558896Y19809949D01*
X1547873Y19829042D01*
X1419182Y19982411D01*
X1402293Y19996582D01*
X1396373Y20000000D01*
X1402293Y20003418D01*
X1419182Y20017589D01*
X1547873Y20170958D01*
X1558896Y20190051D01*
X1627371Y20378184D01*
X1631199Y20399897D01*
X1631199Y20600103D01*
X1627371Y20621816D01*
X1558896Y20809949D01*
X1547873Y20829042D01*
X1419182Y20982411D01*
X1402293Y20996582D01*
X1396373Y21000000D01*
X1402293Y21003418D01*
X1419182Y21017589D01*
X1547873Y21170958D01*
X1558896Y21190051D01*
X1627371Y21378184D01*
X1631199Y21399897D01*
X1631199Y21600103D01*
X1868801Y21600103D01*
X1868801Y21399897D01*
X1872629Y21378184D01*
X1941104Y21190051D01*
X1952127Y21170958D01*
X2080818Y21017589D01*
X2097707Y21003418D01*
X2103627Y21000000D01*
X2097707Y20996582D01*
X2080818Y20982411D01*
X1952127Y20829042D01*
X1941104Y20809949D01*
X1872629Y20621816D01*
X1868801Y20600103D01*
X1868801Y20399897D01*
X1872629Y20378184D01*
X1941104Y20190051D01*
X1952127Y20170958D01*
X2080818Y20017589D01*
X2097707Y20003418D01*
X2103627Y20000000D01*
X2097707Y19996582D01*
X2080818Y19982411D01*
X1952127Y19829042D01*
X1941104Y19809949D01*
X1872629Y19621816D01*
X1868801Y19600103D01*
X1868801Y19399897D01*
X1872629Y19378184D01*
X1941104Y19190051D01*
X1952127Y19170958D01*
X2080818Y19017589D01*
X2097707Y19003418D01*
X2103627Y19000000D01*
X2097707Y18996582D01*
X2080818Y18982411D01*
X1952127Y18829042D01*
X1941104Y18809949D01*
X1872629Y18621816D01*
X1868801Y18600103D01*
X1868801Y18399897D01*
X1872629Y18378184D01*
X1941104Y18190051D01*
X1952127Y18170958D01*
X2080818Y18017589D01*
X2097707Y18003418D01*
X2271093Y17903313D01*
X2291810Y17895772D01*
X2488977Y17861007D01*
X2511023Y17861007D01*
X2708190Y17895772D01*
X2728907Y17903313D01*
X2902293Y18003418D01*
X2919182Y18017589D01*
X3047873Y18170958D01*
X3058896Y18190051D01*
X3127371Y18378184D01*
X3131199Y18399897D01*
X3131199Y18600103D01*
X3127371Y18621816D01*
X3058896Y18809949D01*
X3047873Y18829042D01*
X2919182Y18982411D01*
X2902293Y18996582D01*
X2896373Y19000000D01*
X2902293Y19003418D01*
X2919182Y19017589D01*
X3047873Y19170958D01*
X3058896Y19190051D01*
X3127371Y19378184D01*
X3131199Y19399897D01*
X3131199Y19600103D01*
X3127371Y19621816D01*
X3058896Y19809949D01*
X3047873Y19829042D01*
X2919182Y19982411D01*
X2902293Y19996582D01*
X2896373Y20000000D01*
X2902293Y20003418D01*
X2919182Y20017589D01*
X3047873Y20170958D01*
X3058896Y20190051D01*
X3127371Y20378184D01*
X3131199Y20399897D01*
X3131199Y20600103D01*
X3127371Y20621816D01*
X3058896Y20809949D01*
X3047873Y20829042D01*
X2919182Y20982411D01*
X2902293Y20996582D01*
X2896373Y21000000D01*
X2902293Y21003418D01*
X2919182Y21017589D01*
X3047873Y21170958D01*
X3058896Y21190051D01*
X3127371Y21378184D01*
X3131199Y21399897D01*
X3131199Y21600103D01*
X3127371Y21621816D01*
X3058896Y21809949D01*
X3047873Y21829042D01*
X2919182Y21982411D01*
X2902293Y21996582D01*
X2728907Y22096687D01*
X2708190Y22104228D01*
X2511023Y22138993D01*
X2488977Y22138993D01*
X2291810Y22104228D01*
X2271093Y22096687D01*
X2097707Y21996582D01*
X2080818Y21982411D01*
X1952127Y21829042D01*
X1941104Y21809949D01*
X1872629Y21621816D01*
X1868801Y21600103D01*
X1631199Y21600103D01*
X1627371Y21621816D01*
X1558896Y21809949D01*
X1547873Y21829042D01*
X1419182Y21982411D01*
X1402293Y21996582D01*
X1228907Y22096687D01*
X1208190Y22104228D01*
X1011023Y22138993D01*
X988977Y22138993D01*
X791810Y22104228D01*
X771093Y22096687D01*
X597707Y21996582D01*
X580818Y21982411D01*
X452127Y21829042D01*
X441104Y21809949D01*
X372629Y21621816D01*
X368801Y21600103D01*
X329200Y21600103D01*
X329200Y22815000D01*
X7764800Y22815000D01*
X7764800Y16587465D01*
G36*
X24584000Y22238200D02*
G01*
X23888198Y22238200D01*
X23879966Y22237660D01*
X23690870Y22212765D01*
X23674916Y22208490D01*
X23507600Y22139186D01*
X23145410Y22139186D01*
X23133090Y22137973D01*
X23055383Y22122516D01*
X23032451Y22113017D01*
X22961405Y22065544D01*
X22943856Y22047995D01*
X22896383Y21976949D01*
X22886884Y21954017D01*
X22871427Y21876310D01*
X22870214Y21863990D01*
X22870214Y20551610D01*
X22871427Y20539290D01*
X22886884Y20461583D01*
X22896383Y20438651D01*
X22943856Y20367605D01*
X22961405Y20350056D01*
X23032451Y20302583D01*
X23055383Y20293084D01*
X23133090Y20277627D01*
X23145410Y20276414D01*
X23507600Y20276414D01*
X23674916Y20207110D01*
X23690870Y20202835D01*
X23879966Y20177940D01*
X23888198Y20177400D01*
X24584000Y20177400D01*
X24584000Y16463000D01*
X21936000Y16463000D01*
X21936000Y17076414D01*
X22357790Y17076414D01*
X22370110Y17077627D01*
X22447817Y17093084D01*
X22470749Y17102583D01*
X22541795Y17150056D01*
X22559344Y17167605D01*
X22606817Y17238651D01*
X22616316Y17261583D01*
X22631773Y17339290D01*
X22632986Y17351610D01*
X22632986Y18090014D01*
X22644001Y18145390D01*
X22644001Y18170210D01*
X22632986Y18225586D01*
X22632986Y18963990D01*
X22631773Y18976310D01*
X22616316Y19054017D01*
X22606817Y19076949D01*
X22559344Y19147995D01*
X22541795Y19165544D01*
X22470749Y19213017D01*
X22447817Y19222516D01*
X22370110Y19237973D01*
X22357790Y19239186D01*
X21936000Y19239186D01*
X21936000Y22511000D01*
X24584000Y22511000D01*
X24584000Y22238200D01*
G37*
X24584000Y22238200D02*
X23888198Y22238200D01*
X23879966Y22237660D01*
X23690870Y22212765D01*
X23674916Y22208490D01*
X23507600Y22139186D01*
X23145410Y22139186D01*
X23133090Y22137973D01*
X23055383Y22122516D01*
X23032451Y22113017D01*
X22961405Y22065544D01*
X22943856Y22047995D01*
X22896383Y21976949D01*
X22886884Y21954017D01*
X22871427Y21876310D01*
X22870214Y21863990D01*
X22870214Y20551610D01*
X22871427Y20539290D01*
X22886884Y20461583D01*
X22896383Y20438651D01*
X22943856Y20367605D01*
X22961405Y20350056D01*
X23032451Y20302583D01*
X23055383Y20293084D01*
X23133090Y20277627D01*
X23145410Y20276414D01*
X23507600Y20276414D01*
X23674916Y20207110D01*
X23690870Y20202835D01*
X23879966Y20177940D01*
X23888198Y20177400D01*
X24584000Y20177400D01*
X24584000Y16463000D01*
X21936000Y16463000D01*
X21936000Y17076414D01*
X22357790Y17076414D01*
X22370110Y17077627D01*
X22447817Y17093084D01*
X22470749Y17102583D01*
X22541795Y17150056D01*
X22559344Y17167605D01*
X22606817Y17238651D01*
X22616316Y17261583D01*
X22631773Y17339290D01*
X22632986Y17351610D01*
X22632986Y18090014D01*
X22644001Y18145390D01*
X22644001Y18170210D01*
X22632986Y18225586D01*
X22632986Y18963990D01*
X22631773Y18976310D01*
X22616316Y19054017D01*
X22606817Y19076949D01*
X22559344Y19147995D01*
X22541795Y19165544D01*
X22470749Y19213017D01*
X22447817Y19222516D01*
X22370110Y19237973D01*
X22357790Y19239186D01*
X21936000Y19239186D01*
X21936000Y22511000D01*
X24584000Y22511000D01*
X24584000Y22238200D01*
G36*
X14297000Y19239186D02*
G01*
X13845410Y19239186D01*
X13833090Y19237973D01*
X13755383Y19222516D01*
X13732451Y19213017D01*
X13661405Y19165544D01*
X13643856Y19147995D01*
X13596383Y19076949D01*
X13586884Y19054017D01*
X13571427Y18976310D01*
X13570214Y18963990D01*
X13570214Y17351610D01*
X13571427Y17339290D01*
X13586884Y17261583D01*
X13596383Y17238651D01*
X13643856Y17167605D01*
X13661405Y17150056D01*
X13732451Y17102583D01*
X13755383Y17093084D01*
X13833090Y17077627D01*
X13845410Y17076414D01*
X14297000Y17076414D01*
X14297000Y16463000D01*
X11649000Y16463000D01*
X11649000Y20177400D01*
X12315002Y20177400D01*
X12323234Y20177940D01*
X12512330Y20202835D01*
X12528284Y20207110D01*
X12695600Y20276414D01*
X13057790Y20276414D01*
X13070110Y20277627D01*
X13147817Y20293084D01*
X13170749Y20302583D01*
X13241795Y20350056D01*
X13259344Y20367605D01*
X13306817Y20438651D01*
X13316316Y20461583D01*
X13331773Y20539290D01*
X13332986Y20551610D01*
X13332986Y21863990D01*
X13331773Y21876310D01*
X13316316Y21954017D01*
X13306817Y21976949D01*
X13259344Y22047995D01*
X13241795Y22065544D01*
X13170749Y22113017D01*
X13147817Y22122516D01*
X13070110Y22137973D01*
X13057790Y22139186D01*
X12695600Y22139186D01*
X12528284Y22208490D01*
X12512330Y22212765D01*
X12323234Y22237660D01*
X12315002Y22238200D01*
X11649000Y22238200D01*
X11649000Y22511000D01*
X14297000Y22511000D01*
X14297000Y19239186D01*
G37*
X14297000Y19239186D02*
X13845410Y19239186D01*
X13833090Y19237973D01*
X13755383Y19222516D01*
X13732451Y19213017D01*
X13661405Y19165544D01*
X13643856Y19147995D01*
X13596383Y19076949D01*
X13586884Y19054017D01*
X13571427Y18976310D01*
X13570214Y18963990D01*
X13570214Y17351610D01*
X13571427Y17339290D01*
X13586884Y17261583D01*
X13596383Y17238651D01*
X13643856Y17167605D01*
X13661405Y17150056D01*
X13732451Y17102583D01*
X13755383Y17093084D01*
X13833090Y17077627D01*
X13845410Y17076414D01*
X14297000Y17076414D01*
X14297000Y16463000D01*
X11649000Y16463000D01*
X11649000Y20177400D01*
X12315002Y20177400D01*
X12323234Y20177940D01*
X12512330Y20202835D01*
X12528284Y20207110D01*
X12695600Y20276414D01*
X13057790Y20276414D01*
X13070110Y20277627D01*
X13147817Y20293084D01*
X13170749Y20302583D01*
X13241795Y20350056D01*
X13259344Y20367605D01*
X13306817Y20438651D01*
X13316316Y20461583D01*
X13331773Y20539290D01*
X13332986Y20551610D01*
X13332986Y21863990D01*
X13331773Y21876310D01*
X13316316Y21954017D01*
X13306817Y21976949D01*
X13259344Y22047995D01*
X13241795Y22065544D01*
X13170749Y22113017D01*
X13147817Y22122516D01*
X13070110Y22137973D01*
X13057790Y22139186D01*
X12695600Y22139186D01*
X12528284Y22208490D01*
X12512330Y22212765D01*
X12323234Y22237660D01*
X12315002Y22238200D01*
X11649000Y22238200D01*
X11649000Y22511000D01*
X14297000Y22511000D01*
X14297000Y19239186D01*
G36*
X24020800Y26891400D02*
G01*
X23907683Y26891400D01*
X23900329Y26890676D01*
X23888818Y26888386D01*
X23147906Y26888386D01*
X23140553Y26887662D01*
X23070201Y26873668D01*
X23056515Y26867999D01*
X22993788Y26826085D01*
X22983315Y26815612D01*
X22941401Y26752885D01*
X22935732Y26739199D01*
X22921738Y26668847D01*
X22921014Y26661494D01*
X22921014Y26154106D01*
X22921738Y26146753D01*
X22935732Y26076401D01*
X22941401Y26062715D01*
X22978095Y26007800D01*
X22941401Y25952885D01*
X22935732Y25939199D01*
X22921738Y25868847D01*
X22921014Y25861494D01*
X22921014Y24554106D01*
X22921738Y24546753D01*
X22935732Y24476401D01*
X22941401Y24462715D01*
X22983315Y24399988D01*
X22993788Y24389515D01*
X23056515Y24347601D01*
X23070201Y24341932D01*
X23140553Y24327938D01*
X23147906Y24327214D01*
X23614400Y24327214D01*
X23614400Y22888386D01*
X23147906Y22888386D01*
X23140553Y22887662D01*
X23070201Y22873668D01*
X23056515Y22867999D01*
X23051428Y22864600D01*
X21805071Y22864600D01*
X21795298Y22863313D01*
X21704774Y22839057D01*
X21687626Y22829157D01*
X21617843Y22759374D01*
X21607943Y22742226D01*
X21583687Y22651702D01*
X21582400Y22641929D01*
X21582400Y19183733D01*
X21562647Y19187662D01*
X21555294Y19188386D01*
X21047906Y19188386D01*
X21040553Y19187662D01*
X20970201Y19173668D01*
X20956515Y19167999D01*
X20901600Y19131305D01*
X20846685Y19167999D01*
X20832999Y19173668D01*
X20762647Y19187662D01*
X20755294Y19188386D01*
X20247906Y19188386D01*
X20240553Y19187662D01*
X20170201Y19173668D01*
X20156515Y19167999D01*
X20101600Y19131305D01*
X20046685Y19167999D01*
X20032999Y19173668D01*
X19962647Y19187662D01*
X19955294Y19188386D01*
X19447906Y19188386D01*
X19440553Y19187662D01*
X19370201Y19173668D01*
X19356515Y19167999D01*
X19301600Y19131305D01*
X19246685Y19167999D01*
X19232999Y19173668D01*
X19162647Y19187662D01*
X19155294Y19188386D01*
X18647906Y19188386D01*
X18640553Y19187662D01*
X18616581Y19182894D01*
X18651673Y19268035D01*
X18654533Y19282062D01*
X18656733Y19475943D01*
X18654192Y19490033D01*
X18588176Y19661116D01*
X18580889Y19672937D01*
X18457855Y19808626D01*
X18446801Y19817031D01*
X18421200Y19829907D01*
X18421200Y28029789D01*
X18472333Y28042065D01*
X18483780Y28046912D01*
X18650111Y28152469D01*
X18659371Y28160763D01*
X18782543Y28314507D01*
X18788617Y28325353D01*
X18855398Y28510845D01*
X18857636Y28523375D01*
X18859254Y28729368D01*
X18857213Y28741932D01*
X18844591Y28778800D01*
X24020800Y28778800D01*
X24020800Y26891400D01*
G37*
D40*
X24020800Y26891400D02*
X23907683Y26891400D01*
X23900329Y26890676D01*
X23888818Y26888386D01*
X23147906Y26888386D01*
X23140553Y26887662D01*
X23070201Y26873668D01*
X23056515Y26867999D01*
X22993788Y26826085D01*
X22983315Y26815612D01*
X22941401Y26752885D01*
X22935732Y26739199D01*
X22921738Y26668847D01*
X22921014Y26661494D01*
X22921014Y26154106D01*
X22921738Y26146753D01*
X22935732Y26076401D01*
X22941401Y26062715D01*
X22978095Y26007800D01*
X22941401Y25952885D01*
X22935732Y25939199D01*
X22921738Y25868847D01*
X22921014Y25861494D01*
X22921014Y24554106D01*
X22921738Y24546753D01*
X22935732Y24476401D01*
X22941401Y24462715D01*
X22983315Y24399988D01*
X22993788Y24389515D01*
X23056515Y24347601D01*
X23070201Y24341932D01*
X23140553Y24327938D01*
X23147906Y24327214D01*
X23614400Y24327214D01*
X23614400Y22888386D01*
X23147906Y22888386D01*
X23140553Y22887662D01*
X23070201Y22873668D01*
X23056515Y22867999D01*
X23051428Y22864600D01*
X21805071Y22864600D01*
X21795298Y22863313D01*
X21704774Y22839057D01*
X21687626Y22829157D01*
X21617843Y22759374D01*
X21607943Y22742226D01*
X21583687Y22651702D01*
X21582400Y22641929D01*
X21582400Y19183733D01*
X21562647Y19187662D01*
X21555294Y19188386D01*
X21047906Y19188386D01*
X21040553Y19187662D01*
X20970201Y19173668D01*
X20956515Y19167999D01*
X20901600Y19131305D01*
X20846685Y19167999D01*
X20832999Y19173668D01*
X20762647Y19187662D01*
X20755294Y19188386D01*
X20247906Y19188386D01*
X20240553Y19187662D01*
X20170201Y19173668D01*
X20156515Y19167999D01*
X20101600Y19131305D01*
X20046685Y19167999D01*
X20032999Y19173668D01*
X19962647Y19187662D01*
X19955294Y19188386D01*
X19447906Y19188386D01*
X19440553Y19187662D01*
X19370201Y19173668D01*
X19356515Y19167999D01*
X19301600Y19131305D01*
X19246685Y19167999D01*
X19232999Y19173668D01*
X19162647Y19187662D01*
X19155294Y19188386D01*
X18647906Y19188386D01*
X18640553Y19187662D01*
X18616581Y19182894D01*
X18651673Y19268035D01*
X18654533Y19282062D01*
X18656733Y19475943D01*
X18654192Y19490033D01*
X18588176Y19661116D01*
X18580889Y19672937D01*
X18457855Y19808626D01*
X18446801Y19817031D01*
X18421200Y19829907D01*
X18421200Y28029789D01*
X18472333Y28042065D01*
X18483780Y28046912D01*
X18650111Y28152469D01*
X18659371Y28160763D01*
X18782543Y28314507D01*
X18788617Y28325353D01*
X18855398Y28510845D01*
X18857636Y28523375D01*
X18859254Y28729368D01*
X18857213Y28741932D01*
X18844591Y28778800D01*
X24020800Y28778800D01*
X24020800Y26891400D01*
G36*
X17612632Y28779925D02*
G01*
X17609999Y28766687D01*
X17609999Y28751873D01*
X17610775Y28747972D01*
X17592372Y28642531D01*
X17592274Y28630100D01*
X17623092Y28435527D01*
X17627026Y28423735D01*
X17719208Y28249634D01*
X17726750Y28239752D01*
X17797800Y28173032D01*
X17797800Y19800262D01*
X17737682Y19755614D01*
X17728238Y19745434D01*
X17630364Y19590613D01*
X17625219Y19577715D01*
X17589643Y19398040D01*
X17589485Y19384155D01*
X17618001Y19220763D01*
X17618001Y19201987D01*
X16761273Y19187797D01*
X16755291Y19188386D01*
X16247906Y19188386D01*
X16240552Y19187662D01*
X16193995Y19178401D01*
X16023413Y19175575D01*
X15962647Y19187662D01*
X15955294Y19188386D01*
X15447906Y19188386D01*
X15440553Y19187662D01*
X15370201Y19173668D01*
X15356514Y19167999D01*
X15351190Y19164441D01*
X15254408Y19162838D01*
X15246686Y19167998D01*
X15233000Y19173668D01*
X15162647Y19187662D01*
X15155294Y19188386D01*
X14650600Y19188386D01*
X14650600Y22641929D01*
X14649313Y22651702D01*
X14625057Y22742226D01*
X14615157Y22759374D01*
X14545374Y22829157D01*
X14528226Y22839057D01*
X14437702Y22863313D01*
X14427929Y22864600D01*
X13151772Y22864600D01*
X13146685Y22867999D01*
X13132999Y22873668D01*
X13062647Y22887662D01*
X13055294Y22888386D01*
X12521600Y22888386D01*
X12521600Y24327214D01*
X13055294Y24327214D01*
X13062647Y24327938D01*
X13132999Y24341932D01*
X13146685Y24347601D01*
X13209412Y24389515D01*
X13219885Y24399988D01*
X13261799Y24462715D01*
X13267468Y24476401D01*
X13281462Y24546753D01*
X13282186Y24554106D01*
X13282186Y25861494D01*
X13281462Y25868847D01*
X13267468Y25939199D01*
X13261799Y25952885D01*
X13225105Y26007800D01*
X13261799Y26062715D01*
X13267468Y26076401D01*
X13281462Y26146753D01*
X13282186Y26154106D01*
X13282186Y26661494D01*
X13281462Y26668847D01*
X13267468Y26739199D01*
X13261799Y26752885D01*
X13219885Y26815612D01*
X13209412Y26826085D01*
X13146685Y26867999D01*
X13132999Y26873668D01*
X13062647Y26887662D01*
X13055294Y26888386D01*
X12314382Y26888386D01*
X12302871Y26890676D01*
X12295517Y26891400D01*
X12091306Y26891400D01*
X12081598Y28803821D01*
X17612632Y28779925D01*
G37*
X17612632Y28779925D02*
X17609999Y28766687D01*
X17609999Y28751873D01*
X17610775Y28747972D01*
X17592372Y28642531D01*
X17592274Y28630100D01*
X17623092Y28435527D01*
X17627026Y28423735D01*
X17719208Y28249634D01*
X17726750Y28239752D01*
X17797800Y28173032D01*
X17797800Y19800262D01*
X17737682Y19755614D01*
X17728238Y19745434D01*
X17630364Y19590613D01*
X17625219Y19577715D01*
X17589643Y19398040D01*
X17589485Y19384155D01*
X17618001Y19220763D01*
X17618001Y19201987D01*
X16761273Y19187797D01*
X16755291Y19188386D01*
X16247906Y19188386D01*
X16240552Y19187662D01*
X16193995Y19178401D01*
X16023413Y19175575D01*
X15962647Y19187662D01*
X15955294Y19188386D01*
X15447906Y19188386D01*
X15440553Y19187662D01*
X15370201Y19173668D01*
X15356514Y19167999D01*
X15351190Y19164441D01*
X15254408Y19162838D01*
X15246686Y19167998D01*
X15233000Y19173668D01*
X15162647Y19187662D01*
X15155294Y19188386D01*
X14650600Y19188386D01*
X14650600Y22641929D01*
X14649313Y22651702D01*
X14625057Y22742226D01*
X14615157Y22759374D01*
X14545374Y22829157D01*
X14528226Y22839057D01*
X14437702Y22863313D01*
X14427929Y22864600D01*
X13151772Y22864600D01*
X13146685Y22867999D01*
X13132999Y22873668D01*
X13062647Y22887662D01*
X13055294Y22888386D01*
X12521600Y22888386D01*
X12521600Y24327214D01*
X13055294Y24327214D01*
X13062647Y24327938D01*
X13132999Y24341932D01*
X13146685Y24347601D01*
X13209412Y24389515D01*
X13219885Y24399988D01*
X13261799Y24462715D01*
X13267468Y24476401D01*
X13281462Y24546753D01*
X13282186Y24554106D01*
X13282186Y25861494D01*
X13281462Y25868847D01*
X13267468Y25939199D01*
X13261799Y25952885D01*
X13225105Y26007800D01*
X13261799Y26062715D01*
X13267468Y26076401D01*
X13281462Y26146753D01*
X13282186Y26154106D01*
X13282186Y26661494D01*
X13281462Y26668847D01*
X13267468Y26739199D01*
X13261799Y26752885D01*
X13219885Y26815612D01*
X13209412Y26826085D01*
X13146685Y26867999D01*
X13132999Y26873668D01*
X13062647Y26887662D01*
X13055294Y26888386D01*
X12314382Y26888386D01*
X12302871Y26890676D01*
X12295517Y26891400D01*
X12091306Y26891400D01*
X12081598Y28803821D01*
X17612632Y28779925D01*
G36*
X27966800Y16666200D02*
G01*
X24937600Y16666200D01*
X24937600Y19626500D01*
X24961799Y19662715D01*
X24967468Y19676401D01*
X24981462Y19746753D01*
X24982186Y19754106D01*
X24982186Y20261494D01*
X24981462Y20268847D01*
X24967468Y20339199D01*
X24961799Y20352885D01*
X24937600Y20389100D01*
X24937600Y22026500D01*
X24961799Y22062715D01*
X24967468Y22076401D01*
X24981462Y22146753D01*
X24982186Y22154106D01*
X24982186Y22661494D01*
X24981462Y22668847D01*
X24967468Y22739199D01*
X24961799Y22752885D01*
X24925105Y22807800D01*
X24961799Y22862715D01*
X24967468Y22876401D01*
X24981462Y22946753D01*
X24982186Y22954106D01*
X24982186Y24261494D01*
X24981462Y24268847D01*
X24967468Y24339199D01*
X24961799Y24352885D01*
X24919885Y24415612D01*
X24909412Y24426085D01*
X24846685Y24467999D01*
X24832999Y24473668D01*
X24762647Y24487662D01*
X24755294Y24488386D01*
X24385496Y24488386D01*
X24211920Y24560283D01*
X24202398Y24562834D01*
X24018252Y24587078D01*
X24013339Y24587400D01*
X23917200Y24587400D01*
X23917200Y25924200D01*
X24871430Y25924200D01*
X24882501Y25917808D01*
X25053733Y25855486D01*
X25066691Y25853201D01*
X25248910Y25853201D01*
X25261868Y25855486D01*
X25433099Y25917808D01*
X25444170Y25924200D01*
X26118170Y25924200D01*
X26158393Y25916199D01*
X26173207Y25916199D01*
X26220694Y25925645D01*
X26347085Y25950786D01*
X26360771Y25956455D01*
X26508177Y26054948D01*
X26518652Y26065423D01*
X26541441Y26099529D01*
X26557712Y26115800D01*
X27966800Y26115800D01*
X27966800Y16666200D01*
G37*
X27966800Y16666200D02*
X24937600Y16666200D01*
X24937600Y19626500D01*
X24961799Y19662715D01*
X24967468Y19676401D01*
X24981462Y19746753D01*
X24982186Y19754106D01*
X24982186Y20261494D01*
X24981462Y20268847D01*
X24967468Y20339199D01*
X24961799Y20352885D01*
X24937600Y20389100D01*
X24937600Y22026500D01*
X24961799Y22062715D01*
X24967468Y22076401D01*
X24981462Y22146753D01*
X24982186Y22154106D01*
X24982186Y22661494D01*
X24981462Y22668847D01*
X24967468Y22739199D01*
X24961799Y22752885D01*
X24925105Y22807800D01*
X24961799Y22862715D01*
X24967468Y22876401D01*
X24981462Y22946753D01*
X24982186Y22954106D01*
X24982186Y24261494D01*
X24981462Y24268847D01*
X24967468Y24339199D01*
X24961799Y24352885D01*
X24919885Y24415612D01*
X24909412Y24426085D01*
X24846685Y24467999D01*
X24832999Y24473668D01*
X24762647Y24487662D01*
X24755294Y24488386D01*
X24385496Y24488386D01*
X24211920Y24560283D01*
X24202398Y24562834D01*
X24018252Y24587078D01*
X24013339Y24587400D01*
X23917200Y24587400D01*
X23917200Y25924200D01*
X24871430Y25924200D01*
X24882501Y25917808D01*
X25053733Y25855486D01*
X25066691Y25853201D01*
X25248910Y25853201D01*
X25261868Y25855486D01*
X25433099Y25917808D01*
X25444170Y25924200D01*
X26118170Y25924200D01*
X26158393Y25916199D01*
X26173207Y25916199D01*
X26220694Y25925645D01*
X26347085Y25950786D01*
X26360771Y25956455D01*
X26508177Y26054948D01*
X26518652Y26065423D01*
X26541441Y26099529D01*
X26557712Y26115800D01*
X27966800Y26115800D01*
X27966800Y16666200D01*
G36*
X12218800Y24587400D02*
G01*
X12189861Y24587400D01*
X12184948Y24587078D01*
X12000802Y24562834D01*
X11991280Y24560283D01*
X11817704Y24488386D01*
X11447906Y24488386D01*
X11440553Y24487662D01*
X11370201Y24473668D01*
X11356515Y24467999D01*
X11293788Y24426085D01*
X11283315Y24415612D01*
X11241401Y24352885D01*
X11235732Y24339199D01*
X11221738Y24268847D01*
X11221014Y24261494D01*
X11221014Y22954106D01*
X11221738Y22946753D01*
X11235732Y22876401D01*
X11241401Y22862715D01*
X11278095Y22807800D01*
X11241401Y22752885D01*
X11235732Y22739199D01*
X11221738Y22668847D01*
X11221014Y22661494D01*
X11221014Y22154106D01*
X11221738Y22146753D01*
X11235732Y22076401D01*
X11241401Y22062715D01*
X11283315Y21999989D01*
X11293788Y21989515D01*
X11295400Y21988438D01*
X11295400Y20427162D01*
X11293788Y20426085D01*
X11283315Y20415611D01*
X11241401Y20352885D01*
X11235732Y20339199D01*
X11221738Y20268847D01*
X11221014Y20261494D01*
X11221014Y19754106D01*
X11221738Y19746753D01*
X11235732Y19676401D01*
X11241401Y19662715D01*
X11283315Y19599989D01*
X11293788Y19589515D01*
X11295400Y19588438D01*
X11295400Y16666200D01*
X8169200Y16666200D01*
X8169200Y25865800D01*
X12218800Y25865800D01*
X12218800Y24587400D01*
G37*
X12218800Y24587400D02*
X12189861Y24587400D01*
X12184948Y24587078D01*
X12000802Y24562834D01*
X11991280Y24560283D01*
X11817704Y24488386D01*
X11447906Y24488386D01*
X11440553Y24487662D01*
X11370201Y24473668D01*
X11356515Y24467999D01*
X11293788Y24426085D01*
X11283315Y24415612D01*
X11241401Y24352885D01*
X11235732Y24339199D01*
X11221738Y24268847D01*
X11221014Y24261494D01*
X11221014Y22954106D01*
X11221738Y22946753D01*
X11235732Y22876401D01*
X11241401Y22862715D01*
X11278095Y22807800D01*
X11241401Y22752885D01*
X11235732Y22739199D01*
X11221738Y22668847D01*
X11221014Y22661494D01*
X11221014Y22154106D01*
X11221738Y22146753D01*
X11235732Y22076401D01*
X11241401Y22062715D01*
X11283315Y21999989D01*
X11293788Y21989515D01*
X11295400Y21988438D01*
X11295400Y20427162D01*
X11293788Y20426085D01*
X11283315Y20415611D01*
X11241401Y20352885D01*
X11235732Y20339199D01*
X11221738Y20268847D01*
X11221014Y20261494D01*
X11221014Y19754106D01*
X11221738Y19746753D01*
X11235732Y19676401D01*
X11241401Y19662715D01*
X11283315Y19599989D01*
X11293788Y19589515D01*
X11295400Y19588438D01*
X11295400Y16666200D01*
X8169200Y16666200D01*
X8169200Y25865800D01*
X12218800Y25865800D01*
X12218800Y24587400D01*
G36*
X34368532Y39064511D02*
G01*
X34367319Y39052190D01*
X34367319Y37942681D01*
X33257810Y37942681D01*
X33245489Y37941468D01*
X33147962Y37922068D01*
X33125032Y37912570D01*
X33037181Y37853870D01*
X33019630Y37836319D01*
X32960930Y37748468D01*
X32951432Y37725538D01*
X32932032Y37628011D01*
X32930819Y37615690D01*
X32930819Y37476310D01*
X32932032Y37463989D01*
X32951432Y37366462D01*
X32960930Y37343532D01*
X33019630Y37255681D01*
X33037181Y37238130D01*
X33125032Y37179430D01*
X33147962Y37169932D01*
X33245489Y37150532D01*
X33257810Y37149319D01*
X34367319Y37149319D01*
X34367319Y36039810D01*
X34368532Y36027489D01*
X34387932Y35929962D01*
X34397430Y35907032D01*
X34456130Y35819181D01*
X34473681Y35801630D01*
X34561532Y35742930D01*
X34584462Y35733432D01*
X34681989Y35714032D01*
X34694310Y35712819D01*
X34833690Y35712819D01*
X34846011Y35714032D01*
X34943538Y35733432D01*
X34966468Y35742930D01*
X35054319Y35801630D01*
X35071870Y35819181D01*
X35130570Y35907032D01*
X35140068Y35929962D01*
X35159468Y36027489D01*
X35160681Y36039810D01*
X35160681Y37149319D01*
X36270190Y37149319D01*
X36282511Y37150532D01*
X36370801Y37168095D01*
X36370801Y23575000D01*
X28371200Y23575000D01*
X28371200Y26194535D01*
X28370803Y26201595D01*
X28364123Y26260885D01*
X28358238Y26281310D01*
X28308230Y26385153D01*
X28290527Y26407352D01*
X28197625Y26481439D01*
X28172043Y26493759D01*
X28063139Y26518615D01*
X28049076Y26520200D01*
X27394304Y26520200D01*
X27400892Y26534459D01*
X27463914Y26745191D01*
X27466568Y26762947D01*
X27467911Y26982898D01*
X27465475Y27000684D01*
X27405033Y27212170D01*
X27397702Y27228558D01*
X27357720Y27291926D01*
X27357720Y27946191D01*
X30835776Y27946191D01*
X30835776Y26718816D01*
X30837220Y26705386D01*
X30910255Y26369647D01*
X30918885Y26348812D01*
X31047696Y26148380D01*
X31059499Y26134759D01*
X31237849Y25980217D01*
X31253011Y25970473D01*
X31467676Y25872439D01*
X31484969Y25867361D01*
X31714093Y25834418D01*
X31723070Y25833776D01*
X31948191Y25833776D01*
X32022000Y25907585D01*
X32022000Y27946191D01*
X32278000Y27946191D01*
X32278000Y25907585D01*
X32351809Y25833776D01*
X32579184Y25833776D01*
X32592614Y25835220D01*
X32928353Y25908255D01*
X32949188Y25916885D01*
X33149620Y26045696D01*
X33163241Y26057499D01*
X33317783Y26235849D01*
X33327527Y26251011D01*
X33425561Y26465676D01*
X33430639Y26482969D01*
X33463582Y26712093D01*
X33464224Y26721070D01*
X33464224Y27946191D01*
X33390415Y28020000D01*
X32351809Y28020000D01*
X32278000Y27946191D01*
X32022000Y27946191D01*
X31948191Y28020000D01*
X30909585Y28020000D01*
X30835776Y27946191D01*
X27357720Y27946191D01*
X27357720Y29574930D01*
X30835776Y29574930D01*
X30835776Y28349809D01*
X30909585Y28276000D01*
X31948191Y28276000D01*
X32022000Y28349809D01*
X32022000Y30388415D01*
X32278000Y30388415D01*
X32278000Y28349809D01*
X32351809Y28276000D01*
X33390415Y28276000D01*
X33464224Y28349809D01*
X33464224Y29577184D01*
X33462780Y29590614D01*
X33389745Y29926353D01*
X33381115Y29947188D01*
X33252304Y30147620D01*
X33240501Y30161241D01*
X33062151Y30315783D01*
X33046989Y30325527D01*
X32832324Y30423561D01*
X32815031Y30428639D01*
X32585907Y30461582D01*
X32576930Y30462224D01*
X32351809Y30462224D01*
X32278000Y30388415D01*
X32022000Y30388415D01*
X31948191Y30462224D01*
X31720816Y30462224D01*
X31707386Y30460780D01*
X31371647Y30387745D01*
X31350812Y30379115D01*
X31150380Y30250304D01*
X31136759Y30238501D01*
X30982217Y30060151D01*
X30972473Y30044989D01*
X30874439Y29830324D01*
X30869361Y29813031D01*
X30836418Y29583907D01*
X30835776Y29574930D01*
X27357720Y29574930D01*
X27357720Y29575956D01*
X27356041Y29590427D01*
X27342023Y29650029D01*
X28135793Y30443799D01*
X29636371Y30443799D01*
X29669089Y30437291D01*
X29693909Y30437291D01*
X29738798Y30446220D01*
X29847870Y30467916D01*
X29870800Y30477414D01*
X30001322Y30564625D01*
X30018873Y30582176D01*
X30037410Y30609919D01*
X30323310Y30895819D01*
X30889690Y30895819D01*
X30902011Y30897032D01*
X30999538Y30916432D01*
X31022468Y30925930D01*
X31110319Y30984630D01*
X31127870Y31002181D01*
X31186570Y31090032D01*
X31196068Y31112962D01*
X31215468Y31210489D01*
X31216681Y31222810D01*
X31216681Y32185190D01*
X31216219Y32189886D01*
X31237339Y32200880D01*
X31393590Y32331990D01*
X31407761Y32348879D01*
X31508359Y32523120D01*
X31515900Y32543837D01*
X31549878Y32736538D01*
X31550837Y32747499D01*
X31550837Y33026191D01*
X31477028Y33100000D01*
X30343500Y33100000D01*
X30343500Y34271028D01*
X30599500Y34271028D01*
X30599500Y33429809D01*
X30673309Y33356000D01*
X31477028Y33356000D01*
X31550837Y33429809D01*
X31550837Y33711258D01*
X31548681Y33727634D01*
X31473863Y34006858D01*
X31461120Y34031338D01*
X31330010Y34187590D01*
X31313121Y34201761D01*
X31138880Y34302359D01*
X31118163Y34309900D01*
X30925462Y34343878D01*
X30914501Y34344837D01*
X30673309Y34344837D01*
X30599500Y34271028D01*
X30343500Y34271028D01*
X30269691Y34344837D01*
X30025742Y34344837D01*
X30009366Y34342681D01*
X29730142Y34267863D01*
X29705662Y34255120D01*
X29549410Y34124010D01*
X29535239Y34107121D01*
X29475803Y34004175D01*
X29472968Y34006070D01*
X29450038Y34015568D01*
X29352511Y34034968D01*
X29340190Y34036181D01*
X28452810Y34036181D01*
X28440489Y34034968D01*
X28342962Y34015568D01*
X28320032Y34006070D01*
X28232181Y33947370D01*
X28214630Y33929819D01*
X28155930Y33841968D01*
X28146432Y33819038D01*
X28127032Y33721511D01*
X28125819Y33709190D01*
X28125819Y32746810D01*
X28127032Y32734489D01*
X28146432Y32636962D01*
X28155930Y32614032D01*
X28214630Y32526181D01*
X28232181Y32508630D01*
X28283231Y32474519D01*
X28206681Y32423370D01*
X28189130Y32405819D01*
X28130430Y32317968D01*
X28120932Y32295038D01*
X28101532Y32197511D01*
X28100319Y32185190D01*
X28100319Y32162200D01*
X23442928Y32162200D01*
X23410210Y32168708D01*
X23385390Y32168708D01*
X23340501Y32159779D01*
X23231429Y32138083D01*
X23208499Y32128585D01*
X23077977Y32041374D01*
X23060426Y32023823D01*
X23041891Y31996083D01*
X22100940Y31055131D01*
X22108968Y31095489D01*
X22110181Y31107810D01*
X22110181Y31995190D01*
X22108968Y32007511D01*
X22089568Y32105038D01*
X22081515Y32124479D01*
X22105339Y32136880D01*
X22261590Y32267990D01*
X22275761Y32284879D01*
X22376359Y32459120D01*
X22383900Y32479837D01*
X22417878Y32672538D01*
X22418837Y32683499D01*
X22418837Y32924691D01*
X22345028Y32998500D01*
X21503808Y32998501D01*
X21503807Y32998500D01*
X20258972Y32998501D01*
X20185163Y32924692D01*
X20185163Y32680742D01*
X20187319Y32664366D01*
X20262137Y32385141D01*
X20274880Y32360661D01*
X20405990Y32204410D01*
X20422879Y32190239D01*
X20525825Y32130803D01*
X20523930Y32127968D01*
X20514432Y32105038D01*
X20495032Y32007511D01*
X20493819Y31995190D01*
X20493819Y31350770D01*
X18275088Y33569501D01*
X20185163Y33569501D01*
X20185163Y33328309D01*
X20258972Y33254500D01*
X21100191Y33254499D01*
X21174000Y33328308D01*
X21174000Y33328309D01*
X21429999Y33328309D01*
X21503808Y33254500D01*
X22345028Y33254499D01*
X22418837Y33328308D01*
X22418837Y33572258D01*
X22416681Y33588634D01*
X22341863Y33867858D01*
X22329120Y33892338D01*
X22198010Y34048590D01*
X22181121Y34062761D01*
X22006880Y34163359D01*
X21986163Y34170900D01*
X21793462Y34204878D01*
X21782501Y34205837D01*
X21503809Y34205837D01*
X21430000Y34132028D01*
X21429999Y33328309D01*
X21174000Y33328309D01*
X21174001Y34132028D01*
X21100192Y34205837D01*
X20818742Y34205837D01*
X20802366Y34203681D01*
X20523142Y34128863D01*
X20498662Y34116120D01*
X20342410Y33985010D01*
X20328239Y33968121D01*
X20227641Y33793880D01*
X20220100Y33773163D01*
X20186122Y33580462D01*
X20185163Y33569501D01*
X18275088Y33569501D01*
X18004096Y33840492D01*
X18000537Y33847903D01*
X17982871Y33870112D01*
X17940955Y33903633D01*
X17930074Y33914515D01*
X17919017Y33923334D01*
X17906421Y33931251D01*
X17864946Y33964419D01*
X17839341Y33976783D01*
X17830904Y33978715D01*
X17823530Y33983350D01*
X17796746Y33992730D01*
X17743366Y33998765D01*
X17728781Y34002105D01*
X17714671Y34003700D01*
X17699700Y34003700D01*
X17646733Y34009688D01*
X17618533Y34006525D01*
X17610443Y34003700D01*
X10746690Y34003700D01*
X10011734Y34738655D01*
X10011729Y34738661D01*
X9434970Y35315419D01*
X9706090Y35315419D01*
X9718411Y35316632D01*
X9815938Y35336032D01*
X9838868Y35345530D01*
X9926719Y35404230D01*
X9944270Y35421781D01*
X10002970Y35509632D01*
X10012468Y35532562D01*
X10031868Y35630089D01*
X10033081Y35642410D01*
X10033081Y35665400D01*
X12586819Y35665400D01*
X12586819Y34542610D01*
X12588032Y34530289D01*
X12607432Y34432762D01*
X12616930Y34409832D01*
X12675630Y34321981D01*
X12693181Y34304430D01*
X12781032Y34245730D01*
X12803962Y34236232D01*
X12901489Y34216832D01*
X12913810Y34215619D01*
X14704190Y34215619D01*
X14716511Y34216832D01*
X14814038Y34236232D01*
X14836968Y34245730D01*
X14924819Y34304430D01*
X14942370Y34321981D01*
X15001070Y34409832D01*
X15010568Y34432762D01*
X15029968Y34530289D01*
X15031181Y34542610D01*
X15031181Y36107628D01*
X15224077Y35914732D01*
X15216740Y35900579D01*
X15212257Y35889454D01*
X15149658Y35678125D01*
X15147360Y35666353D01*
X15125852Y35446999D01*
X15125821Y35435005D01*
X15146180Y35215542D01*
X15148417Y35203758D01*
X15209908Y34992103D01*
X15214333Y34980955D01*
X15314738Y34784747D01*
X15321191Y34774637D01*
X15456887Y34600955D01*
X15465136Y34592247D01*
X15631225Y34447359D01*
X15640971Y34440368D01*
X15831462Y34329499D01*
X15842355Y34324477D01*
X16050374Y34251630D01*
X16062020Y34248759D01*
X16280062Y34216562D01*
X16292040Y34215944D01*
X16512236Y34225559D01*
X16524114Y34227217D01*
X16738520Y34278296D01*
X16749871Y34282171D01*
X16950749Y34372871D01*
X16961163Y34378823D01*
X17141266Y34505872D01*
X17150366Y34513685D01*
X17303196Y34672499D01*
X17310654Y34681892D01*
X17430696Y34866740D01*
X17436243Y34877374D01*
X17519166Y35081586D01*
X17522602Y35093077D01*
X17565429Y35309367D01*
X17566632Y35321468D01*
X17566928Y35435005D01*
X17665821Y35435005D01*
X17686180Y35215542D01*
X17688417Y35203758D01*
X17749908Y34992103D01*
X17754333Y34980955D01*
X17854738Y34784747D01*
X17861191Y34774637D01*
X17996887Y34600955D01*
X18005136Y34592247D01*
X18171225Y34447359D01*
X18180971Y34440368D01*
X18371462Y34329499D01*
X18382355Y34324477D01*
X18590374Y34251630D01*
X18602020Y34248759D01*
X18820062Y34216562D01*
X18832040Y34215944D01*
X19052236Y34225559D01*
X19064114Y34227217D01*
X19278520Y34278296D01*
X19289871Y34282171D01*
X19490749Y34372871D01*
X19501163Y34378823D01*
X19681266Y34505872D01*
X19690366Y34513685D01*
X19843196Y34672499D01*
X19850654Y34681892D01*
X19970696Y34866740D01*
X19976243Y34877374D01*
X20059166Y35081586D01*
X20062602Y35093077D01*
X20105429Y35309367D01*
X20106632Y35321468D01*
X20107223Y35547756D01*
X20106084Y35559862D01*
X20064392Y35776372D01*
X20061015Y35787881D01*
X20011320Y35912129D01*
X21567992Y37468800D01*
X24772919Y37468800D01*
X24772919Y37445810D01*
X24774132Y37433489D01*
X24793532Y37335962D01*
X24803030Y37313032D01*
X24861730Y37225181D01*
X24879281Y37207630D01*
X24918075Y37181709D01*
X24916532Y37181070D01*
X24828681Y37122370D01*
X24811130Y37104819D01*
X24752430Y37016968D01*
X24742932Y36994038D01*
X24723532Y36896511D01*
X24722319Y36884190D01*
X24722319Y36861200D01*
X22439328Y36861200D01*
X22406610Y36867708D01*
X22381790Y36867708D01*
X22336901Y36858779D01*
X22227829Y36837083D01*
X22204899Y36827585D01*
X22074377Y36740374D01*
X22056826Y36722823D01*
X22038291Y36695083D01*
X21903555Y36560347D01*
X21835917Y36591314D01*
X21824586Y36595249D01*
X21610451Y36647450D01*
X21598581Y36649171D01*
X21378438Y36659938D01*
X21366457Y36659383D01*
X21148249Y36628327D01*
X21136589Y36625517D01*
X20928191Y36553760D01*
X20917272Y36548795D01*
X20726204Y36438925D01*
X20716421Y36431986D01*
X20549574Y36287969D01*
X20541280Y36279304D01*
X20404677Y36106335D01*
X20398171Y36096258D01*
X20296740Y35900579D01*
X20292257Y35889454D01*
X20229658Y35678125D01*
X20227360Y35666353D01*
X20205852Y35446999D01*
X20205821Y35435005D01*
X20226180Y35215542D01*
X20228417Y35203758D01*
X20289908Y34992103D01*
X20294333Y34980955D01*
X20394738Y34784747D01*
X20401191Y34774637D01*
X20536887Y34600955D01*
X20545136Y34592247D01*
X20711225Y34447359D01*
X20720971Y34440368D01*
X20911462Y34329499D01*
X20922355Y34324477D01*
X21130374Y34251630D01*
X21142020Y34248759D01*
X21360062Y34216562D01*
X21372040Y34215944D01*
X21592236Y34225559D01*
X21604114Y34227217D01*
X21818520Y34278296D01*
X21829871Y34282171D01*
X22030749Y34372871D01*
X22041163Y34378823D01*
X22221266Y34505872D01*
X22230366Y34513685D01*
X22383196Y34672499D01*
X22390654Y34681892D01*
X22510696Y34866740D01*
X22516243Y34877374D01*
X22599166Y35081586D01*
X22602602Y35093077D01*
X22645429Y35309367D01*
X22646632Y35321468D01*
X22647223Y35547756D01*
X22646084Y35559862D01*
X22604392Y35776372D01*
X22601015Y35787881D01*
X22551320Y35912128D01*
X22583993Y35944800D01*
X24722319Y35944800D01*
X24722319Y35921810D01*
X24723532Y35909489D01*
X24742932Y35811962D01*
X24752430Y35789032D01*
X24811130Y35701181D01*
X24828681Y35683630D01*
X24916532Y35624930D01*
X24939462Y35615432D01*
X25036989Y35596032D01*
X25049310Y35594819D01*
X25936690Y35594819D01*
X25949011Y35596032D01*
X26046538Y35615432D01*
X26065979Y35623485D01*
X26078380Y35599661D01*
X26209490Y35443410D01*
X26226379Y35429239D01*
X26400620Y35328641D01*
X26421337Y35321100D01*
X26614038Y35287122D01*
X26624999Y35286163D01*
X26866191Y35286163D01*
X26940000Y35359972D01*
X27195999Y35359972D01*
X27269808Y35286163D01*
X27513758Y35286163D01*
X27530134Y35288319D01*
X27809359Y35363137D01*
X27833839Y35375880D01*
X27990090Y35506990D01*
X28004261Y35523879D01*
X28104859Y35698120D01*
X28112400Y35718837D01*
X28146378Y35911538D01*
X28147337Y35922499D01*
X28147337Y36201191D01*
X28073528Y36275000D01*
X27269809Y36275001D01*
X27196000Y36201192D01*
X27195999Y35359972D01*
X26940000Y35359972D01*
X26940001Y36201192D01*
X26940000Y36201193D01*
X26940000Y36604810D01*
X27195999Y36604810D01*
X27269808Y36531000D01*
X28073528Y36530999D01*
X28147337Y36604808D01*
X28147337Y36886259D01*
X28145181Y36902634D01*
X28089969Y37108688D01*
X28155459Y37222120D01*
X28163000Y37242837D01*
X28196978Y37435538D01*
X28197937Y37446499D01*
X28197937Y37725191D01*
X28124128Y37799000D01*
X27320409Y37799001D01*
X27246600Y37725192D01*
X27246599Y37006790D01*
X27196000Y36956191D01*
X27195999Y36604810D01*
X26940000Y36604810D01*
X26940001Y37323210D01*
X26990600Y37373809D01*
X26990601Y37725192D01*
X26990600Y37725193D01*
X26990600Y38128809D01*
X27246599Y38128809D01*
X27320408Y38055000D01*
X28124128Y38054999D01*
X28197937Y38128808D01*
X28197937Y38410258D01*
X28195781Y38426634D01*
X28120963Y38705858D01*
X28108220Y38730338D01*
X27977110Y38886590D01*
X27960221Y38900761D01*
X27785980Y39001359D01*
X27765263Y39008900D01*
X27572562Y39042878D01*
X27561601Y39043837D01*
X27320409Y39043837D01*
X27246600Y38970028D01*
X27246599Y38128809D01*
X26990600Y38128809D01*
X26990601Y38970028D01*
X26916792Y39043837D01*
X26672842Y39043837D01*
X26656466Y39041681D01*
X26377242Y38966863D01*
X26352762Y38954120D01*
X26196510Y38823010D01*
X26182339Y38806121D01*
X26122903Y38703175D01*
X26120068Y38705070D01*
X26097138Y38714568D01*
X25999611Y38733968D01*
X25987290Y38735181D01*
X25099910Y38735181D01*
X25087589Y38733968D01*
X24990062Y38714568D01*
X24967132Y38705070D01*
X24879281Y38646370D01*
X24861730Y38628819D01*
X24803030Y38540968D01*
X24793532Y38518038D01*
X24774132Y38420511D01*
X24772919Y38408190D01*
X24772919Y38385200D01*
X21423327Y38385200D01*
X21390610Y38391708D01*
X21365788Y38391708D01*
X21320900Y38382779D01*
X21211829Y38361083D01*
X21188899Y38351585D01*
X21058377Y38264374D01*
X21040826Y38246823D01*
X21022291Y38219083D01*
X19363556Y36560347D01*
X19295917Y36591314D01*
X19284586Y36595249D01*
X19070451Y36647450D01*
X19058581Y36649171D01*
X18838438Y36659938D01*
X18826457Y36659383D01*
X18608249Y36628327D01*
X18596589Y36625517D01*
X18388191Y36553760D01*
X18377272Y36548795D01*
X18186204Y36438925D01*
X18176421Y36431986D01*
X18009574Y36287969D01*
X18001280Y36279304D01*
X17864677Y36106335D01*
X17858171Y36096258D01*
X17756740Y35900579D01*
X17752257Y35889454D01*
X17689658Y35678125D01*
X17687360Y35666353D01*
X17665852Y35446999D01*
X17665821Y35435005D01*
X17566928Y35435005D01*
X17567223Y35547756D01*
X17566084Y35559862D01*
X17524392Y35776372D01*
X17521015Y35787881D01*
X17439163Y35992526D01*
X17433671Y36003189D01*
X17314599Y36188662D01*
X17307190Y36198094D01*
X17155194Y36357706D01*
X17146135Y36365567D01*
X16966699Y36493557D01*
X16956317Y36499563D01*
X16755917Y36591314D01*
X16744586Y36595249D01*
X16530451Y36647450D01*
X16518581Y36649171D01*
X16298438Y36659938D01*
X16286457Y36659383D01*
X16068249Y36628327D01*
X16056589Y36625517D01*
X15872620Y36562172D01*
X14418911Y38015880D01*
X14400374Y38043623D01*
X14382823Y38061174D01*
X14252301Y38148385D01*
X14229371Y38157883D01*
X14120299Y38179579D01*
X14075410Y38188508D01*
X14050590Y38188508D01*
X14017872Y38182000D01*
X10033081Y38182000D01*
X10033081Y38204990D01*
X10031868Y38217311D01*
X10012468Y38314838D01*
X10002970Y38337768D01*
X9944270Y38425619D01*
X9926719Y38443170D01*
X9838868Y38501870D01*
X9815938Y38511368D01*
X9718411Y38530768D01*
X9706090Y38531981D01*
X8818710Y38531981D01*
X8806389Y38530768D01*
X8708862Y38511368D01*
X8689421Y38503315D01*
X8677020Y38527138D01*
X8545910Y38683390D01*
X8529021Y38697561D01*
X8354780Y38798159D01*
X8334063Y38805700D01*
X8141362Y38839678D01*
X8130401Y38840637D01*
X7889209Y38840637D01*
X7815400Y38766828D01*
X7815400Y35995600D01*
X6681872Y35995600D01*
X6608063Y35921791D01*
X6608063Y35801629D01*
X6468707Y35882087D01*
X6447990Y35889628D01*
X6250823Y35924393D01*
X6228777Y35924393D01*
X6031610Y35889628D01*
X6010893Y35882087D01*
X5837507Y35781982D01*
X5820618Y35767811D01*
X5691927Y35614442D01*
X5680904Y35595349D01*
X5612429Y35407216D01*
X5608601Y35385503D01*
X5608601Y35185297D01*
X5612429Y35163584D01*
X5680904Y34975451D01*
X5691927Y34956358D01*
X5780782Y34850464D01*
X5768099Y34848228D01*
X5747382Y34840687D01*
X5573996Y34740582D01*
X5557107Y34726411D01*
X5428416Y34573042D01*
X5423341Y34564252D01*
X5400956Y34577176D01*
X5380238Y34584717D01*
X5183071Y34619482D01*
X5161025Y34619482D01*
X4963858Y34584717D01*
X4943141Y34577176D01*
X4769755Y34477071D01*
X4752866Y34462900D01*
X4624175Y34309531D01*
X4613152Y34290438D01*
X4544677Y34102305D01*
X4540849Y34080592D01*
X4540849Y33880386D01*
X4544677Y33858673D01*
X4613152Y33670540D01*
X4624175Y33651447D01*
X4752866Y33498078D01*
X4757135Y33494496D01*
X4729622Y33338462D01*
X4728663Y33327501D01*
X4728663Y33048809D01*
X4802472Y32975000D01*
X5936000Y32974999D01*
X5935999Y32719000D01*
X4802472Y32719001D01*
X4728663Y32645192D01*
X4728663Y32363742D01*
X4730819Y32347366D01*
X4805637Y32068141D01*
X4818380Y32043661D01*
X4949490Y31887410D01*
X4966379Y31873239D01*
X5018348Y31843235D01*
X5013032Y31816511D01*
X5011819Y31804190D01*
X5011819Y30841810D01*
X5013032Y30829489D01*
X5032432Y30731962D01*
X5041930Y30709032D01*
X5100630Y30621181D01*
X5118181Y30603630D01*
X5206032Y30544930D01*
X5228962Y30535432D01*
X5326489Y30516032D01*
X5338810Y30514819D01*
X5905189Y30514819D01*
X6278093Y30141914D01*
X6296626Y30114177D01*
X6314177Y30096626D01*
X6391443Y30044999D01*
X6444699Y30009415D01*
X6467629Y29999917D01*
X6621590Y29969292D01*
X6646410Y29969292D01*
X6679128Y29975800D01*
X8412209Y29975800D01*
X8748947Y29639062D01*
X8686140Y29537625D01*
X8677705Y29515850D01*
X8643355Y29332098D01*
X8642280Y29320496D01*
X8642280Y26466044D01*
X8643959Y26451572D01*
X8686617Y26270200D01*
X8090465Y26270200D01*
X8083405Y26269803D01*
X8024115Y26263123D01*
X8003690Y26257238D01*
X7899847Y26207230D01*
X7877648Y26189527D01*
X7803561Y26096625D01*
X7791241Y26071043D01*
X7766385Y25962139D01*
X7764800Y25948076D01*
X7764800Y23575000D01*
X329200Y23575000D01*
X329200Y27692192D01*
X2535776Y27692192D01*
X2535776Y26464816D01*
X2537220Y26451386D01*
X2610255Y26115647D01*
X2618885Y26094812D01*
X2747696Y25894380D01*
X2759499Y25880759D01*
X2937849Y25726217D01*
X2953011Y25716473D01*
X3167676Y25618439D01*
X3184969Y25613361D01*
X3414093Y25580418D01*
X3423070Y25579776D01*
X3648191Y25579776D01*
X3722000Y25653585D01*
X3977999Y25653585D01*
X4051808Y25579776D01*
X4279184Y25579776D01*
X4292614Y25581220D01*
X4628353Y25654255D01*
X4649188Y25662885D01*
X4849620Y25791696D01*
X4863241Y25803499D01*
X5017783Y25981849D01*
X5027527Y25997011D01*
X5125561Y26211676D01*
X5130639Y26228969D01*
X5163582Y26458093D01*
X5164224Y26467070D01*
X5164224Y27692191D01*
X5090415Y27766000D01*
X4051809Y27766001D01*
X3978000Y27692192D01*
X3977999Y25653585D01*
X3722000Y25653585D01*
X3722001Y27692191D01*
X3648192Y27766000D01*
X2609585Y27766001D01*
X2535776Y27692192D01*
X329200Y27692192D01*
X329200Y29320930D01*
X2535776Y29320930D01*
X2535776Y28095809D01*
X2609585Y28022000D01*
X3648191Y28021999D01*
X3722000Y28095808D01*
X3722000Y28095809D01*
X3977999Y28095809D01*
X4051808Y28022000D01*
X5090415Y28021999D01*
X5164224Y28095808D01*
X5164224Y29323184D01*
X5162780Y29336614D01*
X5089745Y29672353D01*
X5081115Y29693188D01*
X4952304Y29893620D01*
X4940501Y29907241D01*
X4762151Y30061783D01*
X4746989Y30071527D01*
X4532324Y30169561D01*
X4515031Y30174639D01*
X4285907Y30207582D01*
X4276930Y30208224D01*
X4051809Y30208224D01*
X3978000Y30134415D01*
X3977999Y28095809D01*
X3722000Y28095809D01*
X3722001Y30134415D01*
X3648192Y30208224D01*
X3420816Y30208224D01*
X3407386Y30206780D01*
X3071647Y30133745D01*
X3050812Y30125115D01*
X2850380Y29996304D01*
X2836759Y29984501D01*
X2682217Y29806151D01*
X2672473Y29790989D01*
X2574439Y29576324D01*
X2569361Y29559031D01*
X2536418Y29329907D01*
X2535776Y29320930D01*
X329200Y29320930D01*
X329200Y37149319D01*
X1347319Y37149319D01*
X1347319Y36039810D01*
X1348532Y36027489D01*
X1367932Y35929962D01*
X1377430Y35907032D01*
X1436130Y35819181D01*
X1453681Y35801630D01*
X1541532Y35742930D01*
X1564462Y35733432D01*
X1661989Y35714032D01*
X1674310Y35712819D01*
X1813690Y35712819D01*
X1826011Y35714032D01*
X1923538Y35733432D01*
X1946468Y35742930D01*
X2034319Y35801630D01*
X2051870Y35819181D01*
X2110570Y35907032D01*
X2120068Y35929962D01*
X2139468Y36027489D01*
X2140681Y36039810D01*
X2140681Y37149319D01*
X3250190Y37149319D01*
X3262511Y37150532D01*
X3360038Y37169932D01*
X3382968Y37179430D01*
X3470819Y37238130D01*
X3488370Y37255681D01*
X3547070Y37343532D01*
X3556568Y37366462D01*
X3575968Y37463989D01*
X3577181Y37476310D01*
X3577181Y37521991D01*
X6608063Y37521991D01*
X6608063Y37240542D01*
X6610219Y37224166D01*
X6685037Y36944941D01*
X6697780Y36920461D01*
X6701255Y36916320D01*
X6650541Y36828480D01*
X6643000Y36807763D01*
X6609022Y36615062D01*
X6608063Y36604101D01*
X6608063Y36325409D01*
X6681872Y36251600D01*
X7485591Y36251600D01*
X7559400Y36325409D01*
X7559400Y37521991D01*
X7485591Y37595800D01*
X6681872Y37595800D01*
X6608063Y37521991D01*
X3577181Y37521991D01*
X3577181Y37615690D01*
X3575968Y37628011D01*
X3556568Y37725538D01*
X3547070Y37748468D01*
X3488370Y37836319D01*
X3470819Y37853870D01*
X3382968Y37912570D01*
X3360038Y37922068D01*
X3262511Y37941468D01*
X3250190Y37942681D01*
X2140681Y37942681D01*
X2140681Y38204301D01*
X6608063Y38204301D01*
X6608063Y37925609D01*
X6681872Y37851800D01*
X7485591Y37851800D01*
X7559400Y37925609D01*
X7559400Y38766828D01*
X7485591Y38840637D01*
X7241642Y38840637D01*
X7225266Y38838481D01*
X6946042Y38763663D01*
X6921562Y38750920D01*
X6765310Y38619810D01*
X6751139Y38602921D01*
X6650541Y38428680D01*
X6643000Y38407963D01*
X6609022Y38215262D01*
X6608063Y38204301D01*
X2140681Y38204301D01*
X2140681Y39052190D01*
X2139468Y39064511D01*
X2138217Y39070800D01*
X34369783Y39070800D01*
X34368532Y39064511D01*
G37*
D34*
X34368532Y39064511D02*
X34367319Y39052190D01*
X34367319Y37942681D01*
X33257810Y37942681D01*
X33245489Y37941468D01*
X33147962Y37922068D01*
X33125032Y37912570D01*
X33037181Y37853870D01*
X33019630Y37836319D01*
X32960930Y37748468D01*
X32951432Y37725538D01*
X32932032Y37628011D01*
X32930819Y37615690D01*
X32930819Y37476310D01*
X32932032Y37463989D01*
X32951432Y37366462D01*
X32960930Y37343532D01*
X33019630Y37255681D01*
X33037181Y37238130D01*
X33125032Y37179430D01*
X33147962Y37169932D01*
X33245489Y37150532D01*
X33257810Y37149319D01*
X34367319Y37149319D01*
X34367319Y36039810D01*
X34368532Y36027489D01*
X34387932Y35929962D01*
X34397430Y35907032D01*
X34456130Y35819181D01*
X34473681Y35801630D01*
X34561532Y35742930D01*
X34584462Y35733432D01*
X34681989Y35714032D01*
X34694310Y35712819D01*
X34833690Y35712819D01*
X34846011Y35714032D01*
X34943538Y35733432D01*
X34966468Y35742930D01*
X35054319Y35801630D01*
X35071870Y35819181D01*
X35130570Y35907032D01*
X35140068Y35929962D01*
X35159468Y36027489D01*
X35160681Y36039810D01*
X35160681Y37149319D01*
X36270190Y37149319D01*
X36282511Y37150532D01*
X36370801Y37168095D01*
X36370801Y23575000D01*
X28371200Y23575000D01*
X28371200Y26194535D01*
X28370803Y26201595D01*
X28364123Y26260885D01*
X28358238Y26281310D01*
X28308230Y26385153D01*
X28290527Y26407352D01*
X28197625Y26481439D01*
X28172043Y26493759D01*
X28063139Y26518615D01*
X28049076Y26520200D01*
X27394304Y26520200D01*
X27400892Y26534459D01*
X27463914Y26745191D01*
X27466568Y26762947D01*
X27467911Y26982898D01*
X27465475Y27000684D01*
X27405033Y27212170D01*
X27397702Y27228558D01*
X27357720Y27291926D01*
X27357720Y27946191D01*
X30835776Y27946191D01*
X30835776Y26718816D01*
X30837220Y26705386D01*
X30910255Y26369647D01*
X30918885Y26348812D01*
X31047696Y26148380D01*
X31059499Y26134759D01*
X31237849Y25980217D01*
X31253011Y25970473D01*
X31467676Y25872439D01*
X31484969Y25867361D01*
X31714093Y25834418D01*
X31723070Y25833776D01*
X31948191Y25833776D01*
X32022000Y25907585D01*
X32022000Y27946191D01*
X32278000Y27946191D01*
X32278000Y25907585D01*
X32351809Y25833776D01*
X32579184Y25833776D01*
X32592614Y25835220D01*
X32928353Y25908255D01*
X32949188Y25916885D01*
X33149620Y26045696D01*
X33163241Y26057499D01*
X33317783Y26235849D01*
X33327527Y26251011D01*
X33425561Y26465676D01*
X33430639Y26482969D01*
X33463582Y26712093D01*
X33464224Y26721070D01*
X33464224Y27946191D01*
X33390415Y28020000D01*
X32351809Y28020000D01*
X32278000Y27946191D01*
X32022000Y27946191D01*
X31948191Y28020000D01*
X30909585Y28020000D01*
X30835776Y27946191D01*
X27357720Y27946191D01*
X27357720Y29574930D01*
X30835776Y29574930D01*
X30835776Y28349809D01*
X30909585Y28276000D01*
X31948191Y28276000D01*
X32022000Y28349809D01*
X32022000Y30388415D01*
X32278000Y30388415D01*
X32278000Y28349809D01*
X32351809Y28276000D01*
X33390415Y28276000D01*
X33464224Y28349809D01*
X33464224Y29577184D01*
X33462780Y29590614D01*
X33389745Y29926353D01*
X33381115Y29947188D01*
X33252304Y30147620D01*
X33240501Y30161241D01*
X33062151Y30315783D01*
X33046989Y30325527D01*
X32832324Y30423561D01*
X32815031Y30428639D01*
X32585907Y30461582D01*
X32576930Y30462224D01*
X32351809Y30462224D01*
X32278000Y30388415D01*
X32022000Y30388415D01*
X31948191Y30462224D01*
X31720816Y30462224D01*
X31707386Y30460780D01*
X31371647Y30387745D01*
X31350812Y30379115D01*
X31150380Y30250304D01*
X31136759Y30238501D01*
X30982217Y30060151D01*
X30972473Y30044989D01*
X30874439Y29830324D01*
X30869361Y29813031D01*
X30836418Y29583907D01*
X30835776Y29574930D01*
X27357720Y29574930D01*
X27357720Y29575956D01*
X27356041Y29590427D01*
X27342023Y29650029D01*
X28135793Y30443799D01*
X29636371Y30443799D01*
X29669089Y30437291D01*
X29693909Y30437291D01*
X29738798Y30446220D01*
X29847870Y30467916D01*
X29870800Y30477414D01*
X30001322Y30564625D01*
X30018873Y30582176D01*
X30037410Y30609919D01*
X30323310Y30895819D01*
X30889690Y30895819D01*
X30902011Y30897032D01*
X30999538Y30916432D01*
X31022468Y30925930D01*
X31110319Y30984630D01*
X31127870Y31002181D01*
X31186570Y31090032D01*
X31196068Y31112962D01*
X31215468Y31210489D01*
X31216681Y31222810D01*
X31216681Y32185190D01*
X31216219Y32189886D01*
X31237339Y32200880D01*
X31393590Y32331990D01*
X31407761Y32348879D01*
X31508359Y32523120D01*
X31515900Y32543837D01*
X31549878Y32736538D01*
X31550837Y32747499D01*
X31550837Y33026191D01*
X31477028Y33100000D01*
X30343500Y33100000D01*
X30343500Y34271028D01*
X30599500Y34271028D01*
X30599500Y33429809D01*
X30673309Y33356000D01*
X31477028Y33356000D01*
X31550837Y33429809D01*
X31550837Y33711258D01*
X31548681Y33727634D01*
X31473863Y34006858D01*
X31461120Y34031338D01*
X31330010Y34187590D01*
X31313121Y34201761D01*
X31138880Y34302359D01*
X31118163Y34309900D01*
X30925462Y34343878D01*
X30914501Y34344837D01*
X30673309Y34344837D01*
X30599500Y34271028D01*
X30343500Y34271028D01*
X30269691Y34344837D01*
X30025742Y34344837D01*
X30009366Y34342681D01*
X29730142Y34267863D01*
X29705662Y34255120D01*
X29549410Y34124010D01*
X29535239Y34107121D01*
X29475803Y34004175D01*
X29472968Y34006070D01*
X29450038Y34015568D01*
X29352511Y34034968D01*
X29340190Y34036181D01*
X28452810Y34036181D01*
X28440489Y34034968D01*
X28342962Y34015568D01*
X28320032Y34006070D01*
X28232181Y33947370D01*
X28214630Y33929819D01*
X28155930Y33841968D01*
X28146432Y33819038D01*
X28127032Y33721511D01*
X28125819Y33709190D01*
X28125819Y32746810D01*
X28127032Y32734489D01*
X28146432Y32636962D01*
X28155930Y32614032D01*
X28214630Y32526181D01*
X28232181Y32508630D01*
X28283231Y32474519D01*
X28206681Y32423370D01*
X28189130Y32405819D01*
X28130430Y32317968D01*
X28120932Y32295038D01*
X28101532Y32197511D01*
X28100319Y32185190D01*
X28100319Y32162200D01*
X23442928Y32162200D01*
X23410210Y32168708D01*
X23385390Y32168708D01*
X23340501Y32159779D01*
X23231429Y32138083D01*
X23208499Y32128585D01*
X23077977Y32041374D01*
X23060426Y32023823D01*
X23041891Y31996083D01*
X22100940Y31055131D01*
X22108968Y31095489D01*
X22110181Y31107810D01*
X22110181Y31995190D01*
X22108968Y32007511D01*
X22089568Y32105038D01*
X22081515Y32124479D01*
X22105339Y32136880D01*
X22261590Y32267990D01*
X22275761Y32284879D01*
X22376359Y32459120D01*
X22383900Y32479837D01*
X22417878Y32672538D01*
X22418837Y32683499D01*
X22418837Y32924691D01*
X22345028Y32998500D01*
X21503808Y32998501D01*
X21503807Y32998500D01*
X20258972Y32998501D01*
X20185163Y32924692D01*
X20185163Y32680742D01*
X20187319Y32664366D01*
X20262137Y32385141D01*
X20274880Y32360661D01*
X20405990Y32204410D01*
X20422879Y32190239D01*
X20525825Y32130803D01*
X20523930Y32127968D01*
X20514432Y32105038D01*
X20495032Y32007511D01*
X20493819Y31995190D01*
X20493819Y31350770D01*
X18275088Y33569501D01*
X20185163Y33569501D01*
X20185163Y33328309D01*
X20258972Y33254500D01*
X21100191Y33254499D01*
X21174000Y33328308D01*
X21174000Y33328309D01*
X21429999Y33328309D01*
X21503808Y33254500D01*
X22345028Y33254499D01*
X22418837Y33328308D01*
X22418837Y33572258D01*
X22416681Y33588634D01*
X22341863Y33867858D01*
X22329120Y33892338D01*
X22198010Y34048590D01*
X22181121Y34062761D01*
X22006880Y34163359D01*
X21986163Y34170900D01*
X21793462Y34204878D01*
X21782501Y34205837D01*
X21503809Y34205837D01*
X21430000Y34132028D01*
X21429999Y33328309D01*
X21174000Y33328309D01*
X21174001Y34132028D01*
X21100192Y34205837D01*
X20818742Y34205837D01*
X20802366Y34203681D01*
X20523142Y34128863D01*
X20498662Y34116120D01*
X20342410Y33985010D01*
X20328239Y33968121D01*
X20227641Y33793880D01*
X20220100Y33773163D01*
X20186122Y33580462D01*
X20185163Y33569501D01*
X18275088Y33569501D01*
X18004096Y33840492D01*
X18000537Y33847903D01*
X17982871Y33870112D01*
X17940955Y33903633D01*
X17930074Y33914515D01*
X17919017Y33923334D01*
X17906421Y33931251D01*
X17864946Y33964419D01*
X17839341Y33976783D01*
X17830904Y33978715D01*
X17823530Y33983350D01*
X17796746Y33992730D01*
X17743366Y33998765D01*
X17728781Y34002105D01*
X17714671Y34003700D01*
X17699700Y34003700D01*
X17646733Y34009688D01*
X17618533Y34006525D01*
X17610443Y34003700D01*
X10746690Y34003700D01*
X10011734Y34738655D01*
X10011729Y34738661D01*
X9434970Y35315419D01*
X9706090Y35315419D01*
X9718411Y35316632D01*
X9815938Y35336032D01*
X9838868Y35345530D01*
X9926719Y35404230D01*
X9944270Y35421781D01*
X10002970Y35509632D01*
X10012468Y35532562D01*
X10031868Y35630089D01*
X10033081Y35642410D01*
X10033081Y35665400D01*
X12586819Y35665400D01*
X12586819Y34542610D01*
X12588032Y34530289D01*
X12607432Y34432762D01*
X12616930Y34409832D01*
X12675630Y34321981D01*
X12693181Y34304430D01*
X12781032Y34245730D01*
X12803962Y34236232D01*
X12901489Y34216832D01*
X12913810Y34215619D01*
X14704190Y34215619D01*
X14716511Y34216832D01*
X14814038Y34236232D01*
X14836968Y34245730D01*
X14924819Y34304430D01*
X14942370Y34321981D01*
X15001070Y34409832D01*
X15010568Y34432762D01*
X15029968Y34530289D01*
X15031181Y34542610D01*
X15031181Y36107628D01*
X15224077Y35914732D01*
X15216740Y35900579D01*
X15212257Y35889454D01*
X15149658Y35678125D01*
X15147360Y35666353D01*
X15125852Y35446999D01*
X15125821Y35435005D01*
X15146180Y35215542D01*
X15148417Y35203758D01*
X15209908Y34992103D01*
X15214333Y34980955D01*
X15314738Y34784747D01*
X15321191Y34774637D01*
X15456887Y34600955D01*
X15465136Y34592247D01*
X15631225Y34447359D01*
X15640971Y34440368D01*
X15831462Y34329499D01*
X15842355Y34324477D01*
X16050374Y34251630D01*
X16062020Y34248759D01*
X16280062Y34216562D01*
X16292040Y34215944D01*
X16512236Y34225559D01*
X16524114Y34227217D01*
X16738520Y34278296D01*
X16749871Y34282171D01*
X16950749Y34372871D01*
X16961163Y34378823D01*
X17141266Y34505872D01*
X17150366Y34513685D01*
X17303196Y34672499D01*
X17310654Y34681892D01*
X17430696Y34866740D01*
X17436243Y34877374D01*
X17519166Y35081586D01*
X17522602Y35093077D01*
X17565429Y35309367D01*
X17566632Y35321468D01*
X17566928Y35435005D01*
X17665821Y35435005D01*
X17686180Y35215542D01*
X17688417Y35203758D01*
X17749908Y34992103D01*
X17754333Y34980955D01*
X17854738Y34784747D01*
X17861191Y34774637D01*
X17996887Y34600955D01*
X18005136Y34592247D01*
X18171225Y34447359D01*
X18180971Y34440368D01*
X18371462Y34329499D01*
X18382355Y34324477D01*
X18590374Y34251630D01*
X18602020Y34248759D01*
X18820062Y34216562D01*
X18832040Y34215944D01*
X19052236Y34225559D01*
X19064114Y34227217D01*
X19278520Y34278296D01*
X19289871Y34282171D01*
X19490749Y34372871D01*
X19501163Y34378823D01*
X19681266Y34505872D01*
X19690366Y34513685D01*
X19843196Y34672499D01*
X19850654Y34681892D01*
X19970696Y34866740D01*
X19976243Y34877374D01*
X20059166Y35081586D01*
X20062602Y35093077D01*
X20105429Y35309367D01*
X20106632Y35321468D01*
X20107223Y35547756D01*
X20106084Y35559862D01*
X20064392Y35776372D01*
X20061015Y35787881D01*
X20011320Y35912129D01*
X21567992Y37468800D01*
X24772919Y37468800D01*
X24772919Y37445810D01*
X24774132Y37433489D01*
X24793532Y37335962D01*
X24803030Y37313032D01*
X24861730Y37225181D01*
X24879281Y37207630D01*
X24918075Y37181709D01*
X24916532Y37181070D01*
X24828681Y37122370D01*
X24811130Y37104819D01*
X24752430Y37016968D01*
X24742932Y36994038D01*
X24723532Y36896511D01*
X24722319Y36884190D01*
X24722319Y36861200D01*
X22439328Y36861200D01*
X22406610Y36867708D01*
X22381790Y36867708D01*
X22336901Y36858779D01*
X22227829Y36837083D01*
X22204899Y36827585D01*
X22074377Y36740374D01*
X22056826Y36722823D01*
X22038291Y36695083D01*
X21903555Y36560347D01*
X21835917Y36591314D01*
X21824586Y36595249D01*
X21610451Y36647450D01*
X21598581Y36649171D01*
X21378438Y36659938D01*
X21366457Y36659383D01*
X21148249Y36628327D01*
X21136589Y36625517D01*
X20928191Y36553760D01*
X20917272Y36548795D01*
X20726204Y36438925D01*
X20716421Y36431986D01*
X20549574Y36287969D01*
X20541280Y36279304D01*
X20404677Y36106335D01*
X20398171Y36096258D01*
X20296740Y35900579D01*
X20292257Y35889454D01*
X20229658Y35678125D01*
X20227360Y35666353D01*
X20205852Y35446999D01*
X20205821Y35435005D01*
X20226180Y35215542D01*
X20228417Y35203758D01*
X20289908Y34992103D01*
X20294333Y34980955D01*
X20394738Y34784747D01*
X20401191Y34774637D01*
X20536887Y34600955D01*
X20545136Y34592247D01*
X20711225Y34447359D01*
X20720971Y34440368D01*
X20911462Y34329499D01*
X20922355Y34324477D01*
X21130374Y34251630D01*
X21142020Y34248759D01*
X21360062Y34216562D01*
X21372040Y34215944D01*
X21592236Y34225559D01*
X21604114Y34227217D01*
X21818520Y34278296D01*
X21829871Y34282171D01*
X22030749Y34372871D01*
X22041163Y34378823D01*
X22221266Y34505872D01*
X22230366Y34513685D01*
X22383196Y34672499D01*
X22390654Y34681892D01*
X22510696Y34866740D01*
X22516243Y34877374D01*
X22599166Y35081586D01*
X22602602Y35093077D01*
X22645429Y35309367D01*
X22646632Y35321468D01*
X22647223Y35547756D01*
X22646084Y35559862D01*
X22604392Y35776372D01*
X22601015Y35787881D01*
X22551320Y35912128D01*
X22583993Y35944800D01*
X24722319Y35944800D01*
X24722319Y35921810D01*
X24723532Y35909489D01*
X24742932Y35811962D01*
X24752430Y35789032D01*
X24811130Y35701181D01*
X24828681Y35683630D01*
X24916532Y35624930D01*
X24939462Y35615432D01*
X25036989Y35596032D01*
X25049310Y35594819D01*
X25936690Y35594819D01*
X25949011Y35596032D01*
X26046538Y35615432D01*
X26065979Y35623485D01*
X26078380Y35599661D01*
X26209490Y35443410D01*
X26226379Y35429239D01*
X26400620Y35328641D01*
X26421337Y35321100D01*
X26614038Y35287122D01*
X26624999Y35286163D01*
X26866191Y35286163D01*
X26940000Y35359972D01*
X27195999Y35359972D01*
X27269808Y35286163D01*
X27513758Y35286163D01*
X27530134Y35288319D01*
X27809359Y35363137D01*
X27833839Y35375880D01*
X27990090Y35506990D01*
X28004261Y35523879D01*
X28104859Y35698120D01*
X28112400Y35718837D01*
X28146378Y35911538D01*
X28147337Y35922499D01*
X28147337Y36201191D01*
X28073528Y36275000D01*
X27269809Y36275001D01*
X27196000Y36201192D01*
X27195999Y35359972D01*
X26940000Y35359972D01*
X26940001Y36201192D01*
X26940000Y36201193D01*
X26940000Y36604810D01*
X27195999Y36604810D01*
X27269808Y36531000D01*
X28073528Y36530999D01*
X28147337Y36604808D01*
X28147337Y36886259D01*
X28145181Y36902634D01*
X28089969Y37108688D01*
X28155459Y37222120D01*
X28163000Y37242837D01*
X28196978Y37435538D01*
X28197937Y37446499D01*
X28197937Y37725191D01*
X28124128Y37799000D01*
X27320409Y37799001D01*
X27246600Y37725192D01*
X27246599Y37006790D01*
X27196000Y36956191D01*
X27195999Y36604810D01*
X26940000Y36604810D01*
X26940001Y37323210D01*
X26990600Y37373809D01*
X26990601Y37725192D01*
X26990600Y37725193D01*
X26990600Y38128809D01*
X27246599Y38128809D01*
X27320408Y38055000D01*
X28124128Y38054999D01*
X28197937Y38128808D01*
X28197937Y38410258D01*
X28195781Y38426634D01*
X28120963Y38705858D01*
X28108220Y38730338D01*
X27977110Y38886590D01*
X27960221Y38900761D01*
X27785980Y39001359D01*
X27765263Y39008900D01*
X27572562Y39042878D01*
X27561601Y39043837D01*
X27320409Y39043837D01*
X27246600Y38970028D01*
X27246599Y38128809D01*
X26990600Y38128809D01*
X26990601Y38970028D01*
X26916792Y39043837D01*
X26672842Y39043837D01*
X26656466Y39041681D01*
X26377242Y38966863D01*
X26352762Y38954120D01*
X26196510Y38823010D01*
X26182339Y38806121D01*
X26122903Y38703175D01*
X26120068Y38705070D01*
X26097138Y38714568D01*
X25999611Y38733968D01*
X25987290Y38735181D01*
X25099910Y38735181D01*
X25087589Y38733968D01*
X24990062Y38714568D01*
X24967132Y38705070D01*
X24879281Y38646370D01*
X24861730Y38628819D01*
X24803030Y38540968D01*
X24793532Y38518038D01*
X24774132Y38420511D01*
X24772919Y38408190D01*
X24772919Y38385200D01*
X21423327Y38385200D01*
X21390610Y38391708D01*
X21365788Y38391708D01*
X21320900Y38382779D01*
X21211829Y38361083D01*
X21188899Y38351585D01*
X21058377Y38264374D01*
X21040826Y38246823D01*
X21022291Y38219083D01*
X19363556Y36560347D01*
X19295917Y36591314D01*
X19284586Y36595249D01*
X19070451Y36647450D01*
X19058581Y36649171D01*
X18838438Y36659938D01*
X18826457Y36659383D01*
X18608249Y36628327D01*
X18596589Y36625517D01*
X18388191Y36553760D01*
X18377272Y36548795D01*
X18186204Y36438925D01*
X18176421Y36431986D01*
X18009574Y36287969D01*
X18001280Y36279304D01*
X17864677Y36106335D01*
X17858171Y36096258D01*
X17756740Y35900579D01*
X17752257Y35889454D01*
X17689658Y35678125D01*
X17687360Y35666353D01*
X17665852Y35446999D01*
X17665821Y35435005D01*
X17566928Y35435005D01*
X17567223Y35547756D01*
X17566084Y35559862D01*
X17524392Y35776372D01*
X17521015Y35787881D01*
X17439163Y35992526D01*
X17433671Y36003189D01*
X17314599Y36188662D01*
X17307190Y36198094D01*
X17155194Y36357706D01*
X17146135Y36365567D01*
X16966699Y36493557D01*
X16956317Y36499563D01*
X16755917Y36591314D01*
X16744586Y36595249D01*
X16530451Y36647450D01*
X16518581Y36649171D01*
X16298438Y36659938D01*
X16286457Y36659383D01*
X16068249Y36628327D01*
X16056589Y36625517D01*
X15872620Y36562172D01*
X14418911Y38015880D01*
X14400374Y38043623D01*
X14382823Y38061174D01*
X14252301Y38148385D01*
X14229371Y38157883D01*
X14120299Y38179579D01*
X14075410Y38188508D01*
X14050590Y38188508D01*
X14017872Y38182000D01*
X10033081Y38182000D01*
X10033081Y38204990D01*
X10031868Y38217311D01*
X10012468Y38314838D01*
X10002970Y38337768D01*
X9944270Y38425619D01*
X9926719Y38443170D01*
X9838868Y38501870D01*
X9815938Y38511368D01*
X9718411Y38530768D01*
X9706090Y38531981D01*
X8818710Y38531981D01*
X8806389Y38530768D01*
X8708862Y38511368D01*
X8689421Y38503315D01*
X8677020Y38527138D01*
X8545910Y38683390D01*
X8529021Y38697561D01*
X8354780Y38798159D01*
X8334063Y38805700D01*
X8141362Y38839678D01*
X8130401Y38840637D01*
X7889209Y38840637D01*
X7815400Y38766828D01*
X7815400Y35995600D01*
X6681872Y35995600D01*
X6608063Y35921791D01*
X6608063Y35801629D01*
X6468707Y35882087D01*
X6447990Y35889628D01*
X6250823Y35924393D01*
X6228777Y35924393D01*
X6031610Y35889628D01*
X6010893Y35882087D01*
X5837507Y35781982D01*
X5820618Y35767811D01*
X5691927Y35614442D01*
X5680904Y35595349D01*
X5612429Y35407216D01*
X5608601Y35385503D01*
X5608601Y35185297D01*
X5612429Y35163584D01*
X5680904Y34975451D01*
X5691927Y34956358D01*
X5780782Y34850464D01*
X5768099Y34848228D01*
X5747382Y34840687D01*
X5573996Y34740582D01*
X5557107Y34726411D01*
X5428416Y34573042D01*
X5423341Y34564252D01*
X5400956Y34577176D01*
X5380238Y34584717D01*
X5183071Y34619482D01*
X5161025Y34619482D01*
X4963858Y34584717D01*
X4943141Y34577176D01*
X4769755Y34477071D01*
X4752866Y34462900D01*
X4624175Y34309531D01*
X4613152Y34290438D01*
X4544677Y34102305D01*
X4540849Y34080592D01*
X4540849Y33880386D01*
X4544677Y33858673D01*
X4613152Y33670540D01*
X4624175Y33651447D01*
X4752866Y33498078D01*
X4757135Y33494496D01*
X4729622Y33338462D01*
X4728663Y33327501D01*
X4728663Y33048809D01*
X4802472Y32975000D01*
X5936000Y32974999D01*
X5935999Y32719000D01*
X4802472Y32719001D01*
X4728663Y32645192D01*
X4728663Y32363742D01*
X4730819Y32347366D01*
X4805637Y32068141D01*
X4818380Y32043661D01*
X4949490Y31887410D01*
X4966379Y31873239D01*
X5018348Y31843235D01*
X5013032Y31816511D01*
X5011819Y31804190D01*
X5011819Y30841810D01*
X5013032Y30829489D01*
X5032432Y30731962D01*
X5041930Y30709032D01*
X5100630Y30621181D01*
X5118181Y30603630D01*
X5206032Y30544930D01*
X5228962Y30535432D01*
X5326489Y30516032D01*
X5338810Y30514819D01*
X5905189Y30514819D01*
X6278093Y30141914D01*
X6296626Y30114177D01*
X6314177Y30096626D01*
X6391443Y30044999D01*
X6444699Y30009415D01*
X6467629Y29999917D01*
X6621590Y29969292D01*
X6646410Y29969292D01*
X6679128Y29975800D01*
X8412209Y29975800D01*
X8748947Y29639062D01*
X8686140Y29537625D01*
X8677705Y29515850D01*
X8643355Y29332098D01*
X8642280Y29320496D01*
X8642280Y26466044D01*
X8643959Y26451572D01*
X8686617Y26270200D01*
X8090465Y26270200D01*
X8083405Y26269803D01*
X8024115Y26263123D01*
X8003690Y26257238D01*
X7899847Y26207230D01*
X7877648Y26189527D01*
X7803561Y26096625D01*
X7791241Y26071043D01*
X7766385Y25962139D01*
X7764800Y25948076D01*
X7764800Y23575000D01*
X329200Y23575000D01*
X329200Y27692192D01*
X2535776Y27692192D01*
X2535776Y26464816D01*
X2537220Y26451386D01*
X2610255Y26115647D01*
X2618885Y26094812D01*
X2747696Y25894380D01*
X2759499Y25880759D01*
X2937849Y25726217D01*
X2953011Y25716473D01*
X3167676Y25618439D01*
X3184969Y25613361D01*
X3414093Y25580418D01*
X3423070Y25579776D01*
X3648191Y25579776D01*
X3722000Y25653585D01*
X3977999Y25653585D01*
X4051808Y25579776D01*
X4279184Y25579776D01*
X4292614Y25581220D01*
X4628353Y25654255D01*
X4649188Y25662885D01*
X4849620Y25791696D01*
X4863241Y25803499D01*
X5017783Y25981849D01*
X5027527Y25997011D01*
X5125561Y26211676D01*
X5130639Y26228969D01*
X5163582Y26458093D01*
X5164224Y26467070D01*
X5164224Y27692191D01*
X5090415Y27766000D01*
X4051809Y27766001D01*
X3978000Y27692192D01*
X3977999Y25653585D01*
X3722000Y25653585D01*
X3722001Y27692191D01*
X3648192Y27766000D01*
X2609585Y27766001D01*
X2535776Y27692192D01*
X329200Y27692192D01*
X329200Y29320930D01*
X2535776Y29320930D01*
X2535776Y28095809D01*
X2609585Y28022000D01*
X3648191Y28021999D01*
X3722000Y28095808D01*
X3722000Y28095809D01*
X3977999Y28095809D01*
X4051808Y28022000D01*
X5090415Y28021999D01*
X5164224Y28095808D01*
X5164224Y29323184D01*
X5162780Y29336614D01*
X5089745Y29672353D01*
X5081115Y29693188D01*
X4952304Y29893620D01*
X4940501Y29907241D01*
X4762151Y30061783D01*
X4746989Y30071527D01*
X4532324Y30169561D01*
X4515031Y30174639D01*
X4285907Y30207582D01*
X4276930Y30208224D01*
X4051809Y30208224D01*
X3978000Y30134415D01*
X3977999Y28095809D01*
X3722000Y28095809D01*
X3722001Y30134415D01*
X3648192Y30208224D01*
X3420816Y30208224D01*
X3407386Y30206780D01*
X3071647Y30133745D01*
X3050812Y30125115D01*
X2850380Y29996304D01*
X2836759Y29984501D01*
X2682217Y29806151D01*
X2672473Y29790989D01*
X2574439Y29576324D01*
X2569361Y29559031D01*
X2536418Y29329907D01*
X2535776Y29320930D01*
X329200Y29320930D01*
X329200Y37149319D01*
X1347319Y37149319D01*
X1347319Y36039810D01*
X1348532Y36027489D01*
X1367932Y35929962D01*
X1377430Y35907032D01*
X1436130Y35819181D01*
X1453681Y35801630D01*
X1541532Y35742930D01*
X1564462Y35733432D01*
X1661989Y35714032D01*
X1674310Y35712819D01*
X1813690Y35712819D01*
X1826011Y35714032D01*
X1923538Y35733432D01*
X1946468Y35742930D01*
X2034319Y35801630D01*
X2051870Y35819181D01*
X2110570Y35907032D01*
X2120068Y35929962D01*
X2139468Y36027489D01*
X2140681Y36039810D01*
X2140681Y37149319D01*
X3250190Y37149319D01*
X3262511Y37150532D01*
X3360038Y37169932D01*
X3382968Y37179430D01*
X3470819Y37238130D01*
X3488370Y37255681D01*
X3547070Y37343532D01*
X3556568Y37366462D01*
X3575968Y37463989D01*
X3577181Y37476310D01*
X3577181Y37521991D01*
X6608063Y37521991D01*
X6608063Y37240542D01*
X6610219Y37224166D01*
X6685037Y36944941D01*
X6697780Y36920461D01*
X6701255Y36916320D01*
X6650541Y36828480D01*
X6643000Y36807763D01*
X6609022Y36615062D01*
X6608063Y36604101D01*
X6608063Y36325409D01*
X6681872Y36251600D01*
X7485591Y36251600D01*
X7559400Y36325409D01*
X7559400Y37521991D01*
X7485591Y37595800D01*
X6681872Y37595800D01*
X6608063Y37521991D01*
X3577181Y37521991D01*
X3577181Y37615690D01*
X3575968Y37628011D01*
X3556568Y37725538D01*
X3547070Y37748468D01*
X3488370Y37836319D01*
X3470819Y37853870D01*
X3382968Y37912570D01*
X3360038Y37922068D01*
X3262511Y37941468D01*
X3250190Y37942681D01*
X2140681Y37942681D01*
X2140681Y38204301D01*
X6608063Y38204301D01*
X6608063Y37925609D01*
X6681872Y37851800D01*
X7485591Y37851800D01*
X7559400Y37925609D01*
X7559400Y38766828D01*
X7485591Y38840637D01*
X7241642Y38840637D01*
X7225266Y38838481D01*
X6946042Y38763663D01*
X6921562Y38750920D01*
X6765310Y38619810D01*
X6751139Y38602921D01*
X6650541Y38428680D01*
X6643000Y38407963D01*
X6609022Y38215262D01*
X6608063Y38204301D01*
X2140681Y38204301D01*
X2140681Y39052190D01*
X2139468Y39064511D01*
X2138217Y39070800D01*
X34369783Y39070800D01*
X34368532Y39064511D01*
G36*
X15737230Y30990981D02*
G01*
X15699656Y30990981D01*
X15572610Y31142390D01*
X15555721Y31156561D01*
X15381480Y31257159D01*
X15360763Y31264700D01*
X15115618Y31307925D01*
X15025600Y31232392D01*
X15025599Y29733800D01*
X14777600Y29733801D01*
X14777601Y31225828D01*
X14703792Y31299637D01*
X14643342Y31299637D01*
X14626966Y31297481D01*
X14347742Y31222663D01*
X14323262Y31209920D01*
X14167010Y31078810D01*
X14152839Y31061921D01*
X14111882Y30990981D01*
X13845410Y30990981D01*
X13833089Y30989768D01*
X13735562Y30970368D01*
X13712632Y30960870D01*
X13624781Y30902170D01*
X13607230Y30884619D01*
X13548530Y30796768D01*
X13539032Y30773838D01*
X13519632Y30676311D01*
X13518419Y30663990D01*
X13518419Y30316000D01*
X12254338Y30316000D01*
X10955257Y31615080D01*
X10936720Y31642823D01*
X10919169Y31660374D01*
X10822049Y31725267D01*
X15002945Y31725267D01*
X15737230Y30990981D01*
G37*
X15737230Y30990981D02*
X15699656Y30990981D01*
X15572610Y31142390D01*
X15555721Y31156561D01*
X15381480Y31257159D01*
X15360763Y31264700D01*
X15115618Y31307925D01*
X15025600Y31232392D01*
X15025599Y29733800D01*
X14777600Y29733801D01*
X14777601Y31225828D01*
X14703792Y31299637D01*
X14643342Y31299637D01*
X14626966Y31297481D01*
X14347742Y31222663D01*
X14323262Y31209920D01*
X14167010Y31078810D01*
X14152839Y31061921D01*
X14111882Y30990981D01*
X13845410Y30990981D01*
X13833089Y30989768D01*
X13735562Y30970368D01*
X13712632Y30960870D01*
X13624781Y30902170D01*
X13607230Y30884619D01*
X13548530Y30796768D01*
X13539032Y30773838D01*
X13519632Y30676311D01*
X13518419Y30663990D01*
X13518419Y30316000D01*
X12254338Y30316000D01*
X10955257Y31615080D01*
X10936720Y31642823D01*
X10919169Y31660374D01*
X10822049Y31725267D01*
X15002945Y31725267D01*
X15737230Y30990981D01*
M02*
