G04 #@! TF.GenerationSoftware,KiCad,Pcbnew,(5.99.0-1251-g6aaee01f1)*
G04 #@! TF.CreationDate,2020-04-08T18:30:41-07:00*
G04 #@! TF.ProjectId,TMC2660_Driver,544d4332-3636-4305-9f44-72697665722e,rev?*
G04 #@! TF.SameCoordinates,PX67f3540PY6cb8080*
G04 #@! TF.FileFunction,Paste,Top*
G04 #@! TF.FilePolarity,Positive*
%FSLAX46Y46*%
G04 Gerber Fmt 4.6, Leading zero omitted, Abs format (unit mm)*
G04 Created by KiCad (PCBNEW (5.99.0-1251-g6aaee01f1)) date 2020-04-08 18:30:41*
%MOMM*%
%LPD*%
G01*
G04 APERTURE LIST*
%ADD10R,0.650000X0.700000*%
%ADD11R,0.500000X0.700000*%
%ADD12R,0.700000X1.400000*%
%ADD13R,0.300000X0.680000*%
%ADD14R,0.950000X0.875000*%
%ADD15R,0.650000X0.400000*%
%ADD16R,0.875000X0.950000*%
%ADD17R,1.600000X0.500000*%
%ADD18R,1.600000X1.300000*%
%ADD19R,0.500000X1.600000*%
%ADD20R,0.590000X0.640000*%
%ADD21R,1.250000X1.750000*%
G04 APERTURE END LIST*
G36*
G01*
X33050000Y13450000D02*
X31950000Y13450000D01*
G75*
G02*
X31700000Y13700000I0J250000D01*
G01*
X31700000Y16700000D01*
G75*
G02*
X31950000Y16950000I250000J0D01*
G01*
X33050000Y16950000D01*
G75*
G02*
X33300000Y16700000I0J-250000D01*
G01*
X33300000Y13700000D01*
G75*
G02*
X33050000Y13450000I-250000J0D01*
G01*
G37*
G36*
G01*
X33050000Y8050000D02*
X31950000Y8050000D01*
G75*
G02*
X31700000Y8300000I0J250000D01*
G01*
X31700000Y11300000D01*
G75*
G02*
X31950000Y11550000I250000J0D01*
G01*
X33050000Y11550000D01*
G75*
G02*
X33300000Y11300000I0J-250000D01*
G01*
X33300000Y8300000D01*
G75*
G02*
X33050000Y8050000I-250000J0D01*
G01*
G37*
D10*
X4200000Y12300000D03*
D11*
X5100000Y12300000D03*
D12*
X4600000Y12300000D03*
D13*
X3850000Y10940000D03*
X4350000Y10940000D03*
X4850000Y10940000D03*
X5350000Y10940000D03*
X3850000Y13660000D03*
X4350000Y13660000D03*
X4850000Y13660000D03*
X5350000Y13660000D03*
D14*
X6700000Y12787500D03*
X6700000Y11212500D03*
G36*
G01*
X31475000Y26722999D02*
X31475000Y29573001D01*
G75*
G02*
X31724999Y29823000I249999J0D01*
G01*
X32575001Y29823000D01*
G75*
G02*
X32825000Y29573001I0J-249999D01*
G01*
X32825000Y26722999D01*
G75*
G02*
X32575001Y26473000I-249999J0D01*
G01*
X31724999Y26473000D01*
G75*
G02*
X31475000Y26722999I0J249999D01*
G01*
G37*
G36*
G01*
X25675000Y26722999D02*
X25675000Y29573001D01*
G75*
G02*
X25924999Y29823000I249999J0D01*
G01*
X26775001Y29823000D01*
G75*
G02*
X27025000Y29573001I0J-249999D01*
G01*
X27025000Y26722999D01*
G75*
G02*
X26775001Y26473000I-249999J0D01*
G01*
X25924999Y26473000D01*
G75*
G02*
X25675000Y26722999I0J249999D01*
G01*
G37*
G36*
G01*
X4525000Y29319001D02*
X4525000Y26468999D01*
G75*
G02*
X4275001Y26219000I-249999J0D01*
G01*
X3424999Y26219000D01*
G75*
G02*
X3175000Y26468999I0J249999D01*
G01*
X3175000Y29319001D01*
G75*
G02*
X3424999Y29569000I249999J0D01*
G01*
X4275001Y29569000D01*
G75*
G02*
X4525000Y29319001I0J-249999D01*
G01*
G37*
G36*
G01*
X10325000Y29319001D02*
X10325000Y26468999D01*
G75*
G02*
X10075001Y26219000I-249999J0D01*
G01*
X9224999Y26219000D01*
G75*
G02*
X8975000Y26468999I0J249999D01*
G01*
X8975000Y29319001D01*
G75*
G02*
X9224999Y29569000I249999J0D01*
G01*
X10075001Y29569000D01*
G75*
G02*
X10325000Y29319001I0J-249999D01*
G01*
G37*
D15*
X12986000Y10099000D03*
X12986000Y11399000D03*
X14886000Y10749000D03*
X14886000Y11399000D03*
X14886000Y10099000D03*
D16*
X16399700Y10368000D03*
X17974700Y10368000D03*
D17*
X23951600Y20007800D03*
D18*
X23951600Y21207800D03*
X23951600Y23607800D03*
X23951600Y25207800D03*
X23951600Y27607800D03*
X12251600Y27607800D03*
X12251600Y25207800D03*
X12251600Y23607800D03*
X12251600Y21207800D03*
D17*
X23951600Y22407800D03*
X23951600Y26407800D03*
X12251600Y26407800D03*
X12251600Y22407800D03*
X12251600Y20007800D03*
D19*
X22101600Y29857800D03*
X21301600Y29857800D03*
X20501600Y29857800D03*
X19701600Y29857800D03*
X18901600Y29857800D03*
X18101600Y29857800D03*
X17301600Y29857800D03*
X16501600Y29857800D03*
X15701600Y29857800D03*
X14901600Y29857800D03*
X14101600Y29857800D03*
X14101600Y18157800D03*
X14901600Y18157800D03*
X15701600Y18157800D03*
X16501600Y18157800D03*
X17301600Y18157800D03*
X18101600Y18157800D03*
X18901600Y18157800D03*
X19701600Y18157800D03*
X20501600Y18157800D03*
X21301600Y18157800D03*
X22101600Y18157800D03*
D16*
X28871000Y31704000D03*
X30446000Y31704000D03*
X7357500Y31323000D03*
X5782500Y31323000D03*
X28896500Y33228000D03*
X30471500Y33228000D03*
X7687400Y36123600D03*
X9262400Y36123600D03*
X7687400Y37723800D03*
X9262400Y37723800D03*
X27118600Y37927000D03*
X25543600Y37927000D03*
X27068000Y36403000D03*
X25493000Y36403000D03*
X7383000Y32847000D03*
X5808000Y32847000D03*
X19371500Y14686000D03*
X20946500Y14686000D03*
D14*
X21302000Y33126500D03*
X21302000Y31551500D03*
D20*
X15818000Y15448000D03*
X14848000Y15448000D03*
D21*
X11459500Y13479500D03*
X8659500Y13479500D03*
X24042200Y13314400D03*
X26842200Y13314400D03*
M02*
