M48
; DRILL file {KiCad (5.1.0-1558-g0ba0c1724)} date Sun 17 Nov 2019 12:46:48 PM PST
; FORMAT={-:-/ absolute / metric / decimal}
; #@! TF.CreationDate,2019-11-17T12:46:48-08:00
; #@! TF.GenerationSoftware,Kicad,Pcbnew,(5.1.0-1558-g0ba0c1724)
; #@! TF.FileFunction,Plated,1,2,PTH
FMAT,2
METRIC
T1C0.300
T2C0.305
T3C0.381
T4C0.500
T5C1.000
%
G90
G05
T1
X112.027Y-102.522
X112.497Y-99.009
X115.799Y-100.914
X116.006Y-103.526
X116.688Y-103.429
X117.221Y-104.648
X117.475Y-100.012
X117.51Y-103.256
X117.653Y-106.02
X118.0Y-105.102
X118.604Y-105.834
X118.669Y-106.739
X118.694Y-90.195
X119.634Y-104.496
X120.269Y-87.122
X120.269Y-95.377
X120.654Y-102.201
X120.675Y-104.627
X121.285Y-107.62
X121.541Y-102.258
X122.53Y-102.133
X123.114Y-107.645
X123.8Y-102.133
X123.876Y-107.112
X124.663Y-104.419
X125.481Y-104.912
X125.547Y-98.394
X125.755Y-106.248
X126.27Y-106.757
X126.297Y-97.235
X126.602Y-104.985
X126.936Y-98.361
X127.21Y-105.437
X127.347Y-99.334
X127.66Y-107.62
X127.84Y-105.715
X128.198Y-99.053
X129.773Y-99.069
X129.775Y-104.833
X130.554Y-105.928
X130.714Y-105.023
X130.886Y-103.708
X131.699Y-104.013
X131.851Y-99.187
X133.35Y-87.122
X134.493Y-93.599
X134.849Y-91.313
X135.795Y-92.989
T2
X124.968Y-81.28
X125.451Y-90.424
X125.451Y-91.694
X126.06Y-81.28
X126.086Y-89.789
X126.086Y-91.059
X126.086Y-92.329
X126.111Y-85.776
X126.238Y-87.503
X126.721Y-90.424
X126.721Y-91.694
X127.127Y-87.503
X127.254Y-85.776
X127.33Y-81.28
X127.356Y-89.789
X127.356Y-91.059
X127.356Y-92.329
X127.927Y-90.424
X127.927Y-91.694
X128.422Y-81.28
T3
X121.996Y-88.417
X121.996Y-89.459
X122.682Y-89.459
X122.707Y-88.417
X123.393Y-88.417
X129.972Y-88.367
X130.658Y-89.408
X130.683Y-88.367
X131.343Y-89.433
X131.369Y-88.367
T4
X110.998Y-80.772
X110.998Y-83.058
X113.03Y-80.772
X113.03Y-83.058
X114.808Y-80.772
X114.808Y-83.058
X116.586Y-80.772
X116.586Y-83.058
X137.414Y-80.772
X137.414Y-83.058
X139.446Y-80.772
X139.446Y-83.058
X141.224Y-80.772
X141.224Y-83.058
X143.002Y-80.772
X143.002Y-83.058
T5
X122.809Y-78.562
X125.349Y-78.562
X127.889Y-78.562
X130.429Y-78.562
T0
M30
