G04 #@! TF.GenerationSoftware,KiCad,Pcbnew,(5.99.0-1251-g6aaee01f1)*
G04 #@! TF.CreationDate,2020-04-08T18:39:48-07:00*
G04 #@! TF.ProjectId,TMC2130_Driver,544d4332-3133-4305-9f44-72697665722e,rev?*
G04 #@! TF.SameCoordinates,PX67f3540PY6cb8080*
G04 #@! TF.FileFunction,Copper,L1,Top*
G04 #@! TF.FilePolarity,Positive*
%FSLAX46Y46*%
G04 Gerber Fmt 4.6, Leading zero omitted, Abs format (unit mm)*
G04 Created by KiCad (PCBNEW (5.99.0-1251-g6aaee01f1)) date 2020-04-08 18:39:48*
%MOMM*%
%LPD*%
G01*
G04 APERTURE LIST*
G04 #@! TA.AperFunction,SMDPad,CuDef*
%ADD10R,2.500000X1.800000*%
G04 #@! TD*
G04 #@! TA.AperFunction,SMDPad,CuDef*
%ADD11R,0.300000X1.500000*%
G04 #@! TD*
G04 #@! TA.AperFunction,SMDPad,CuDef*
%ADD12R,1.500000X0.300000*%
G04 #@! TD*
G04 #@! TA.AperFunction,SMDPad,CuDef*
%ADD13R,5.100000X5.100000*%
G04 #@! TD*
G04 #@! TA.AperFunction,SMDPad,CuDef*
%ADD14R,1.000000X1.500000*%
G04 #@! TD*
G04 #@! TA.AperFunction,ComponentPad*
%ADD15C,2.400000*%
G04 #@! TD*
G04 #@! TA.AperFunction,ComponentPad*
%ADD16R,2.400000X2.400000*%
G04 #@! TD*
G04 #@! TA.AperFunction,SMDPad,CuDef*
%ADD17R,0.640000X0.590000*%
G04 #@! TD*
G04 #@! TA.AperFunction,SMDPad,CuDef*
%ADD18R,0.875000X0.950000*%
G04 #@! TD*
G04 #@! TA.AperFunction,SMDPad,CuDef*
%ADD19R,0.950000X0.875000*%
G04 #@! TD*
G04 #@! TA.AperFunction,SMDPad,CuDef*
%ADD20R,1.250000X1.750000*%
G04 #@! TD*
G04 #@! TA.AperFunction,SMDPad,CuDef*
%ADD21R,0.680000X0.300000*%
G04 #@! TD*
G04 #@! TA.AperFunction,SMDPad,CuDef*
%ADD22R,1.450000X1.560000*%
G04 #@! TD*
G04 #@! TA.AperFunction,ComponentPad*
%ADD23C,1.778000*%
G04 #@! TD*
G04 #@! TA.AperFunction,ComponentPad*
%ADD24R,1.778000X1.778000*%
G04 #@! TD*
G04 #@! TA.AperFunction,ConnectorPad*
%ADD25C,0.650000*%
G04 #@! TD*
G04 #@! TA.AperFunction,ConnectorPad*
%ADD26R,0.650000X4.600000*%
G04 #@! TD*
G04 #@! TA.AperFunction,ConnectorPad*
%ADD27R,0.650000X3.600000*%
G04 #@! TD*
G04 #@! TA.AperFunction,SMDPad,CuDef*
%ADD28R,3.000000X0.127000*%
G04 #@! TD*
G04 #@! TA.AperFunction,SMDPad,CuDef*
%ADD29R,0.127000X3.000000*%
G04 #@! TD*
G04 #@! TA.AperFunction,ViaPad*
%ADD30C,0.800000*%
G04 #@! TD*
G04 #@! TA.AperFunction,ViaPad*
%ADD31C,0.600000*%
G04 #@! TD*
G04 #@! TA.AperFunction,Conductor*
%ADD32C,2.000000*%
G04 #@! TD*
G04 #@! TA.AperFunction,Conductor*
%ADD33C,1.500000*%
G04 #@! TD*
G04 #@! TA.AperFunction,Conductor*
%ADD34C,0.650000*%
G04 #@! TD*
G04 #@! TA.AperFunction,Conductor*
%ADD35C,0.203200*%
G04 #@! TD*
G04 #@! TA.AperFunction,Conductor*
%ADD36C,0.254000*%
G04 #@! TD*
G04 #@! TA.AperFunction,Conductor*
%ADD37C,0.508000*%
G04 #@! TD*
G04 #@! TA.AperFunction,Conductor*
%ADD38C,1.000000*%
G04 #@! TD*
G04 #@! TA.AperFunction,Conductor*
%ADD39C,0.800000*%
G04 #@! TD*
G04 #@! TA.AperFunction,Conductor*
%ADD40C,0.127000*%
G04 #@! TD*
G04 #@! TA.AperFunction,Conductor*
%ADD41C,0.152400*%
G04 #@! TD*
G04 APERTURE END LIST*
G36*
X30350000Y21200000D02*
G01*
X29850000Y21200000D01*
X29850000Y21800000D01*
X30350000Y21800000D01*
X30350000Y21200000D01*
G37*
G04 #@! TA.AperFunction,SMDPad,CuDef*
G36*
G01*
X6175000Y24025000D02*
X4925000Y24025000D01*
G75*
G02*
X4675000Y24275000I0J250000D01*
G01*
X4675000Y25025000D01*
G75*
G02*
X4925000Y25275000I250000J0D01*
G01*
X6175000Y25275000D01*
G75*
G02*
X6425000Y25025000I0J-250000D01*
G01*
X6425000Y24275000D01*
G75*
G02*
X6175000Y24025000I-250000J0D01*
G01*
G37*
G04 #@! TD.AperFunction*
G04 #@! TA.AperFunction,SMDPad,CuDef*
G36*
G01*
X6175000Y21225000D02*
X4925000Y21225000D01*
G75*
G02*
X4675000Y21475000I0J250000D01*
G01*
X4675000Y22225000D01*
G75*
G02*
X4925000Y22475000I250000J0D01*
G01*
X6175000Y22475000D01*
G75*
G02*
X6425000Y22225000I0J-250000D01*
G01*
X6425000Y21475000D01*
G75*
G02*
X6175000Y21225000I-250000J0D01*
G01*
G37*
G04 #@! TD.AperFunction*
G04 #@! TA.AperFunction,SMDPad,CuDef*
G36*
G01*
X24125000Y23775000D02*
X22875000Y23775000D01*
G75*
G02*
X22625000Y24025000I0J250000D01*
G01*
X22625000Y24775000D01*
G75*
G02*
X22875000Y25025000I250000J0D01*
G01*
X24125000Y25025000D01*
G75*
G02*
X24375000Y24775000I0J-250000D01*
G01*
X24375000Y24025000D01*
G75*
G02*
X24125000Y23775000I-250000J0D01*
G01*
G37*
G04 #@! TD.AperFunction*
G04 #@! TA.AperFunction,SMDPad,CuDef*
G36*
G01*
X24125000Y20975000D02*
X22875000Y20975000D01*
G75*
G02*
X22625000Y21225000I0J250000D01*
G01*
X22625000Y21975000D01*
G75*
G02*
X22875000Y22225000I250000J0D01*
G01*
X24125000Y22225000D01*
G75*
G02*
X24375000Y21975000I0J-250000D01*
G01*
X24375000Y21225000D01*
G75*
G02*
X24125000Y20975000I-250000J0D01*
G01*
G37*
G04 #@! TD.AperFunction*
G04 #@! TA.AperFunction,SMDPad,CuDef*
G36*
G01*
X12956250Y31637500D02*
X12043750Y31637500D01*
G75*
G02*
X11800000Y31881250I0J243750D01*
G01*
X11800000Y32368750D01*
G75*
G02*
X12043750Y32612500I243750J0D01*
G01*
X12956250Y32612500D01*
G75*
G02*
X13200000Y32368750I0J-243750D01*
G01*
X13200000Y31881250D01*
G75*
G02*
X12956250Y31637500I-243750J0D01*
G01*
G37*
G04 #@! TD.AperFunction*
G04 #@! TA.AperFunction,SMDPad,CuDef*
G36*
G01*
X12956250Y29762500D02*
X12043750Y29762500D01*
G75*
G02*
X11800000Y30006250I0J243750D01*
G01*
X11800000Y30493750D01*
G75*
G02*
X12043750Y30737500I243750J0D01*
G01*
X12956250Y30737500D01*
G75*
G02*
X13200000Y30493750I0J-243750D01*
G01*
X13200000Y30006250D01*
G75*
G02*
X12956250Y29762500I-243750J0D01*
G01*
G37*
G04 #@! TD.AperFunction*
G04 #@! TA.AperFunction,SMDPad,CuDef*
G36*
G01*
X32325000Y30875000D02*
X33575000Y30875000D01*
G75*
G02*
X33825000Y30625000I0J-250000D01*
G01*
X33825000Y29875000D01*
G75*
G02*
X33575000Y29625000I-250000J0D01*
G01*
X32325000Y29625000D01*
G75*
G02*
X32075000Y29875000I0J250000D01*
G01*
X32075000Y30625000D01*
G75*
G02*
X32325000Y30875000I250000J0D01*
G01*
G37*
G04 #@! TD.AperFunction*
G04 #@! TA.AperFunction,SMDPad,CuDef*
G36*
G01*
X32325000Y33675000D02*
X33575000Y33675000D01*
G75*
G02*
X33825000Y33425000I0J-250000D01*
G01*
X33825000Y32675000D01*
G75*
G02*
X33575000Y32425000I-250000J0D01*
G01*
X32325000Y32425000D01*
G75*
G02*
X32075000Y32675000I0J250000D01*
G01*
X32075000Y33425000D01*
G75*
G02*
X32325000Y33675000I250000J0D01*
G01*
G37*
G04 #@! TD.AperFunction*
D10*
X30750000Y27500000D03*
X34750000Y27500000D03*
D11*
X12000000Y18300000D03*
X12500000Y18300000D03*
X13000000Y18300000D03*
X13500000Y18300000D03*
X14000000Y18300000D03*
X14500000Y18300000D03*
X15000000Y18300000D03*
X15500000Y18300000D03*
X16000000Y18300000D03*
X16500000Y18300000D03*
X17000000Y18300000D03*
X17500000Y18300000D03*
D12*
X18950000Y19750000D03*
X18950000Y20750000D03*
X18950000Y21750000D03*
X18950000Y22750000D03*
X18950000Y23750000D03*
X18950000Y24750000D03*
X18950000Y25250000D03*
D11*
X17500000Y26700000D03*
X17000000Y26700000D03*
X16500000Y26700000D03*
X16000000Y26700000D03*
X15500000Y26700000D03*
X15000000Y26700000D03*
X14500000Y26700000D03*
X14000000Y26700000D03*
X13500000Y26700000D03*
X13000000Y26700000D03*
X12500000Y26700000D03*
X12000000Y26700000D03*
D12*
X10550000Y25250000D03*
X10550000Y24750000D03*
X10550000Y24250000D03*
X10550000Y23750000D03*
X10550000Y22750000D03*
X10550000Y21750000D03*
X10550000Y20750000D03*
X10550000Y19750000D03*
D13*
X14750000Y22500000D03*
G04 #@! TA.AperFunction,SMDPad,CuDef*
G36*
X26500000Y8975000D02*
G01*
X25750000Y9475001D01*
X25750001Y10475000D01*
X27250000Y10474999D01*
X27249999Y9475000D01*
X26500000Y8975000D01*
G37*
G04 #@! TD.AperFunction*
G04 #@! TA.AperFunction,SMDPad,CuDef*
G36*
X25750000Y8025001D02*
G01*
X25750001Y9175000D01*
X26500000Y8675000D01*
X27250000Y9174999D01*
X27249999Y8025000D01*
X25750000Y8025001D01*
G37*
G04 #@! TD.AperFunction*
D14*
X30750000Y21500000D03*
X32050000Y21500000D03*
X29450000Y21500000D03*
D15*
X25750000Y35000000D03*
D16*
X29250000Y35000000D03*
D17*
X3400000Y21830000D03*
X3400000Y22800000D03*
D18*
X8912500Y30800000D03*
X10487500Y30800000D03*
D17*
X25700000Y21615000D03*
X25700000Y22585000D03*
X9000000Y24115000D03*
X9000000Y25085000D03*
D19*
X14200000Y31087500D03*
X14200000Y29512500D03*
D20*
X24400000Y29400000D03*
X27200000Y29400000D03*
G04 #@! TA.AperFunction,SMDPad,CuDef*
G36*
G01*
X32450000Y11050000D02*
X33550000Y11050000D01*
G75*
G02*
X33800000Y10800000I0J-250000D01*
G01*
X33800000Y7800000D01*
G75*
G02*
X33550000Y7550000I-250000J0D01*
G01*
X32450000Y7550000D01*
G75*
G02*
X32200000Y7800000I0J250000D01*
G01*
X32200000Y10800000D01*
G75*
G02*
X32450000Y11050000I250000J0D01*
G01*
G37*
G04 #@! TD.AperFunction*
G04 #@! TA.AperFunction,SMDPad,CuDef*
G36*
G01*
X32450000Y16450000D02*
X33550000Y16450000D01*
G75*
G02*
X33800000Y16200000I0J-250000D01*
G01*
X33800000Y13200000D01*
G75*
G02*
X33550000Y12950000I-250000J0D01*
G01*
X32450000Y12950000D01*
G75*
G02*
X32200000Y13200000I0J250000D01*
G01*
X32200000Y16200000D01*
G75*
G02*
X32450000Y16450000I250000J0D01*
G01*
G37*
G04 #@! TD.AperFunction*
D21*
X21260000Y11600000D03*
X21260000Y12100000D03*
X21260000Y12600000D03*
X21260000Y13100000D03*
X18540000Y11600000D03*
X18540000Y12100000D03*
X18540000Y12600000D03*
X18540000Y13100000D03*
D22*
X19900000Y12350000D03*
D18*
X18512500Y10250000D03*
X20087500Y10250000D03*
D19*
X19200000Y30912500D03*
X19200000Y32487500D03*
X17000000Y30912500D03*
X17000000Y32487500D03*
D18*
X8112500Y32500000D03*
X9687500Y32500000D03*
D23*
X19060000Y35000000D03*
X16520000Y35000000D03*
X13980000Y35000000D03*
D24*
X11440000Y35000000D03*
D25*
X9652800Y1014800D03*
X25652800Y1014800D03*
X24652800Y1014800D03*
X23652800Y1014800D03*
X22652800Y1014800D03*
X21652800Y1014800D03*
X8652800Y1014800D03*
X18652800Y1014800D03*
X17652800Y1014800D03*
X16652800Y1014800D03*
X15652800Y1014800D03*
X14652800Y1014800D03*
X13652800Y1014800D03*
X12652800Y1014800D03*
X11652800Y1014800D03*
X10652800Y1014800D03*
D26*
X22652800Y3314800D03*
X21652800Y3314800D03*
X27652800Y3314800D03*
D27*
X26652800Y3814800D03*
D26*
X25652800Y3314800D03*
X24652800Y3314800D03*
X23652800Y3314800D03*
X18652800Y3314800D03*
X17652800Y3314800D03*
X16652800Y3314800D03*
X15652800Y3314800D03*
X14652800Y3314800D03*
X13652800Y3314800D03*
X12652800Y3314800D03*
X11652800Y3314800D03*
X10652800Y3314800D03*
X9652800Y3314800D03*
X8652800Y3314800D03*
D25*
X27652800Y1014800D03*
D28*
X1600000Y1600000D03*
D29*
X1600000Y1600000D03*
D28*
X34764000Y37546000D03*
D29*
X34764000Y37546000D03*
D28*
X35100000Y1600000D03*
D29*
X35100000Y1600000D03*
D28*
X1744000Y37546000D03*
D29*
X1744000Y37546000D03*
D20*
X6200000Y30400000D03*
X3400000Y30400000D03*
D18*
X11787500Y28600000D03*
X10212500Y28600000D03*
X16962500Y16250000D03*
X18537500Y16250000D03*
D30*
X32500000Y24250000D03*
X32500000Y25250000D03*
X29750000Y30000000D03*
X30750000Y29000000D03*
X32500000Y27500000D03*
X31000000Y25750000D03*
X33000000Y38500000D03*
X4750000Y38250000D03*
X29000000Y28250000D03*
X28750000Y16000000D03*
X30750000Y17500000D03*
X35750000Y16750000D03*
X31250000Y8500000D03*
X31250000Y10500000D03*
X34750000Y8500000D03*
X34750000Y10500000D03*
X15000000Y33000000D03*
X15750000Y29500000D03*
X21000000Y35500000D03*
X21500000Y33000000D03*
X7750000Y29000000D03*
X8500000Y35250000D03*
X3250000Y34500000D03*
X1500000Y9000000D03*
X5000000Y14250000D03*
X8750000Y15750000D03*
X6250000Y17500000D03*
X21000000Y17750000D03*
X22250000Y16500000D03*
X25500000Y18500000D03*
X23000000Y19250000D03*
X26500000Y24250000D03*
X22750000Y27000000D03*
X16500000Y20750000D03*
X12750000Y20750000D03*
X14000000Y20750000D03*
X15250000Y20750000D03*
X16500000Y22000000D03*
X12750000Y22000000D03*
X14000000Y22000000D03*
X15250000Y22000000D03*
X16500000Y23250000D03*
X12750000Y23250000D03*
X14000000Y23250000D03*
X15250000Y23250000D03*
X16500000Y24500000D03*
X15250000Y24500000D03*
X14000000Y24500000D03*
X12750000Y24500000D03*
D31*
X13520173Y6105852D03*
X11750000Y7141980D03*
X12385425Y7580333D03*
X14750002Y9513675D03*
X15000000Y8804010D03*
X23586489Y8577022D03*
X23250000Y9250000D03*
X28750000Y19500000D03*
X23554010Y32000000D03*
X10185653Y8134343D03*
X20250000Y9304010D03*
X27750000Y28500000D03*
X27500000Y30500000D03*
X4250000Y30250000D03*
X3250000Y31750000D03*
X3250000Y29250000D03*
X5500000Y23750000D03*
X5500000Y25750000D03*
X4250000Y25750000D03*
X24750000Y25500000D03*
X23500000Y25500000D03*
X22250000Y25500000D03*
X28500000Y29500000D03*
X16250000Y31000000D03*
X17000000Y30000000D03*
X14250000Y32250000D03*
X15250000Y31000000D03*
X7750000Y30750000D03*
X8000000Y33250000D03*
X11523000Y26773000D03*
X14500000Y28250000D03*
X19750000Y19250000D03*
X19000000Y19250000D03*
X9500000Y19250000D03*
X10500000Y19000000D03*
X11250000Y18250000D03*
X11750000Y17000000D03*
X14500000Y19500000D03*
X21000000Y10250000D03*
X21250000Y13750000D03*
X18500000Y15500000D03*
X9750000Y9500000D03*
X8750000Y8250000D03*
X14500000Y6750000D03*
X24058021Y31250000D03*
X23250000Y33000000D03*
X15695990Y12311502D03*
X16000000Y13750000D03*
X18000000Y13500000D03*
X17750000Y12500000D03*
X22206810Y7391745D03*
X19900000Y12350000D03*
X29500000Y23750000D03*
X32000000Y22500000D03*
X20400000Y23000000D03*
X21200000Y23000000D03*
X9000000Y23000000D03*
X8250000Y23000000D03*
X9000000Y20500000D03*
X8250000Y20500000D03*
X21250000Y20500000D03*
X20500000Y20500000D03*
X15400000Y13100000D03*
X3200000Y25150000D03*
X1150000Y30450000D03*
X3900000Y19200000D03*
X6400000Y19200000D03*
X8800000Y18000000D03*
X16850000Y9600000D03*
X13945990Y7304010D03*
X13250000Y31350000D03*
D32*
X30680356Y35000000D02*
X32582765Y33097591D01*
X29250000Y35000000D02*
X30680356Y35000000D01*
X32582765Y33097591D02*
X32656541Y33097591D01*
X31124322Y37600000D02*
X33474322Y35250000D01*
X7400000Y37600000D02*
X31124322Y37600000D01*
X33474322Y35250000D02*
X33548099Y35250000D01*
X33548099Y35250000D02*
X33904500Y34893599D01*
X6200000Y36400000D02*
X7400000Y37600000D01*
X6200000Y30400000D02*
X6200000Y36400000D01*
X33904500Y34893599D02*
X34856401Y34893599D01*
X34856401Y34893599D02*
X35027410Y34722590D01*
X35027410Y34722590D02*
X35027410Y29277410D01*
X35027410Y29277410D02*
X34750000Y29000000D01*
X34094897Y29655103D02*
X34750000Y29000000D01*
X34750000Y29000000D02*
X34750000Y27500000D01*
X33000000Y30350000D02*
X33694897Y29655103D01*
X33694897Y29655103D02*
X34094897Y29655103D01*
D33*
X32000000Y30500000D02*
X32000000Y30375000D01*
X32025000Y30350000D02*
X33000000Y30350000D01*
X32000000Y30375000D02*
X32025000Y30350000D01*
X26750000Y31750000D02*
X30750000Y31750000D01*
X30750000Y31750000D02*
X32000000Y30500000D01*
X24400000Y29400000D02*
X26750000Y31750000D01*
D32*
X33870710Y17870710D02*
X34450000Y18450000D01*
X34450000Y18450000D02*
X34450000Y25600000D01*
X33000000Y14700000D02*
X33870710Y15570710D01*
X33870710Y15570710D02*
X33870710Y17870710D01*
X33000000Y14700000D02*
X32100000Y14700000D01*
X32100000Y14700000D02*
X27900000Y10500000D01*
X27900000Y10500000D02*
X26600000Y10500000D01*
D34*
X24652800Y3314800D02*
X24652800Y6264800D01*
X26250000Y7750000D02*
X26652800Y8152800D01*
X24750000Y6362000D02*
X24750000Y7000000D01*
X24652800Y6264800D02*
X24750000Y6362000D01*
X25652800Y7152800D02*
X26250000Y7750000D01*
X24750000Y7000000D02*
X25500000Y7750000D01*
X25500000Y7750000D02*
X26250000Y7750000D01*
D35*
X13327556Y10406207D02*
X13129165Y10207816D01*
X13129165Y6496860D02*
X13220174Y6405851D01*
X13129165Y10207816D02*
X13129165Y6496860D01*
X13220174Y6405851D02*
X13520173Y6105852D01*
X13327556Y16685992D02*
X13327556Y10406207D01*
X13000000Y17346800D02*
X12385425Y16732225D01*
X12385425Y8004597D02*
X12385425Y7580333D01*
X12385425Y16732225D02*
X12385425Y8004597D01*
X13500000Y18300000D02*
X13500000Y16858436D01*
X13500000Y16858436D02*
X13327556Y16685992D01*
X13000000Y18300000D02*
X13000000Y17346800D01*
X11652800Y7044780D02*
X11750000Y7141980D01*
X11652800Y3314800D02*
X11652800Y7044780D01*
X14750002Y9937939D02*
X14750002Y9513675D01*
X14626066Y8804010D02*
X15000000Y8804010D01*
X14195998Y9234078D02*
X14626066Y8804010D01*
X14750000Y9937941D02*
X14750002Y9937939D01*
X16000000Y18300000D02*
X16000000Y17346800D01*
X15500000Y18300000D02*
X15500000Y17349709D01*
X16000000Y17346800D02*
X14750000Y16096800D01*
X14195998Y9765922D02*
X14195998Y9234078D01*
X14394389Y16244098D02*
X14394389Y9964313D01*
X14394389Y9964313D02*
X14195998Y9765922D01*
X15500000Y17349709D02*
X14394389Y16244098D01*
X14750000Y16096800D02*
X14750000Y9937941D01*
X24500000Y14000000D02*
X24500000Y9490533D01*
X24500000Y9490533D02*
X23886488Y8877021D01*
X30750000Y20250000D02*
X24500000Y14000000D01*
X23886488Y8877021D02*
X23586489Y8577022D01*
X30750000Y21500000D02*
X30750000Y20250000D01*
X28750000Y18752908D02*
X24144390Y14147298D01*
X28750000Y19500000D02*
X28750000Y18752908D01*
X24144390Y14147298D02*
X24144390Y10144390D01*
X24144390Y10144390D02*
X23250000Y9250000D01*
X16500000Y26700000D02*
X16500000Y27653200D01*
X18897298Y28144389D02*
X22752908Y32000000D01*
X16991189Y28144389D02*
X18897298Y28144389D01*
X16500000Y27653200D02*
X16991189Y28144389D01*
X22752908Y32000000D02*
X23129746Y32000000D01*
X23129746Y32000000D02*
X23554010Y32000000D01*
X10652800Y3314800D02*
X10652800Y7667196D01*
X9652800Y7847272D02*
X9652800Y5818000D01*
X10652800Y7667196D02*
X10485652Y7834344D01*
X9450001Y8050071D02*
X9652800Y7847272D01*
X9652800Y5818000D02*
X9652800Y3314800D01*
X9750000Y9500000D02*
X9450001Y9200001D01*
X10485652Y7834344D02*
X10185653Y8134343D01*
X9450001Y9200001D02*
X9450001Y8050071D01*
D36*
X11523000Y26773000D02*
X11596000Y26700000D01*
D35*
X8750000Y8250000D02*
X8750000Y3412000D01*
X8750000Y3412000D02*
X8652800Y3314800D01*
X17000000Y26700000D02*
X17000000Y27497092D01*
X22505817Y31250000D02*
X23633757Y31250000D01*
X23633757Y31250000D02*
X24058021Y31250000D01*
X18959818Y27704001D02*
X22505817Y31250000D01*
X17206909Y27704001D02*
X18959818Y27704001D01*
X17000000Y27497092D02*
X17206909Y27704001D01*
X16346800Y28500000D02*
X18750000Y28500000D01*
X18750000Y28500000D02*
X23250000Y33000000D01*
X15500000Y26700000D02*
X15500000Y27653200D01*
X15500000Y27653200D02*
X16346800Y28500000D01*
X16250000Y7250000D02*
X16652800Y6847200D01*
X16652800Y6847200D02*
X16652800Y3314800D01*
X16250000Y13075736D02*
X16250000Y7250000D01*
X15695990Y6195990D02*
X15695990Y11887238D01*
X15652800Y6152800D02*
X15695990Y6195990D01*
X15695990Y11887238D02*
X15695990Y12311502D01*
X15652800Y3314800D02*
X15652800Y6152800D01*
X16000000Y13750000D02*
X16000000Y13325736D01*
X16000000Y13325736D02*
X16250000Y13075736D01*
X18400000Y13100000D02*
X18000000Y13500000D01*
X18540000Y13100000D02*
X18400000Y13100000D01*
X17850000Y12600000D02*
X17750000Y12500000D01*
X18540000Y12600000D02*
X17850000Y12600000D01*
X22206810Y11600392D02*
X22206810Y7816009D01*
X22206810Y7816009D02*
X22206810Y7391745D01*
X22760811Y7657666D02*
X22760811Y7125824D01*
X21707202Y12100000D02*
X22206810Y11600392D01*
X22652800Y7765677D02*
X22760811Y7657666D01*
X21260000Y12600000D02*
X21803200Y12600000D01*
X22652800Y5818000D02*
X22652800Y3314800D01*
X22652800Y11750400D02*
X22652800Y7765677D01*
X21260000Y12100000D02*
X21707202Y12100000D01*
X21803200Y12600000D02*
X22652800Y11750400D01*
X22760811Y7125824D02*
X22652800Y7017813D01*
X22652800Y7017813D02*
X22652800Y5818000D01*
X21652800Y3314800D02*
X21652800Y11207200D01*
X21652800Y11207200D02*
X21260000Y11600000D01*
D34*
X16962500Y16250000D02*
X16962500Y10712500D01*
X16962500Y10712500D02*
X17425000Y10250000D01*
X17425000Y10250000D02*
X18512500Y10250000D01*
D36*
X16500000Y18300000D02*
X16500000Y16712500D01*
X16500000Y16712500D02*
X16962500Y16250000D01*
X18540000Y12100000D02*
X19650000Y12100000D01*
X19650000Y12100000D02*
X19900000Y12350000D01*
X18540000Y11600000D02*
X18540000Y11265000D01*
X18540000Y11265000D02*
X18512500Y11237500D01*
D34*
X18512500Y10250000D02*
X18512500Y11237500D01*
X18652800Y3314800D02*
X18652800Y10109700D01*
X18652800Y10109700D02*
X18512500Y10250000D01*
X23652800Y7402800D02*
X24775000Y8525000D01*
X24775000Y8525000D02*
X26024840Y8525000D01*
X23652800Y3314800D02*
X23652800Y7402800D01*
X26652800Y8152800D02*
X26652800Y8372200D01*
X26652800Y3814800D02*
X26652800Y8152800D01*
X25652800Y3314800D02*
X25652800Y7152800D01*
D36*
X8912500Y30800000D02*
X8912500Y30071000D01*
X8912500Y30071000D02*
X9629099Y29354401D01*
X9629099Y29354401D02*
X10873521Y29354401D01*
X10873521Y29354401D02*
X11070599Y29157323D01*
X11070599Y29157323D02*
X11070599Y27225401D01*
X11070599Y27225401D02*
X11523000Y26773000D01*
X11596000Y26700000D02*
X12000000Y26700000D01*
X10550000Y25250000D02*
X10550000Y28262500D01*
X10550000Y28262500D02*
X10212500Y28600000D01*
D37*
X8112500Y32500000D02*
X8112500Y31600000D01*
X8112500Y31600000D02*
X8912500Y30800000D01*
X10487500Y30800000D02*
X10487500Y30837500D01*
X13091001Y34111001D02*
X13980000Y35000000D01*
X9687500Y32500000D02*
X9687500Y33247500D01*
X9687500Y33247500D02*
X11440000Y35000000D01*
X19200000Y32487500D02*
X19200000Y34860000D01*
X19200000Y34860000D02*
X19060000Y35000000D01*
X17000000Y32487500D02*
X17000000Y34520000D01*
X17000000Y34520000D02*
X16520000Y35000000D01*
D35*
X29500000Y23750000D02*
X29500000Y21550000D01*
X29500000Y21550000D02*
X29450000Y21500000D01*
X32000000Y22500000D02*
X32000000Y21550000D01*
X32000000Y21550000D02*
X32050000Y21500000D01*
D37*
X3400000Y21830000D02*
X5530000Y21830000D01*
X5530000Y21830000D02*
X5550000Y21850000D01*
X25700000Y21615000D02*
X23515000Y21615000D01*
X23515000Y21615000D02*
X23500000Y21600000D01*
D33*
X26600000Y10500000D02*
X26600000Y10075000D01*
X26600000Y10075000D02*
X26500000Y9975000D01*
D32*
X34450000Y26500000D02*
X34450000Y25600000D01*
D33*
X21000000Y28125000D02*
X21000000Y25800000D01*
X24400000Y29400000D02*
X22275000Y29400000D01*
X22275000Y29400000D02*
X21000000Y28125000D01*
X7700000Y26525000D02*
X7700000Y25576886D01*
X6200000Y30400000D02*
X6200000Y28025000D01*
X6200000Y28025000D02*
X7700000Y26525000D01*
D38*
X9705431Y21850000D02*
X9961668Y21850000D01*
X9703021Y21847590D02*
X9705431Y21850000D01*
X5550000Y21850000D02*
X7770247Y21850000D01*
X7772657Y21847590D02*
X9703021Y21847590D01*
X7770247Y21850000D02*
X7772657Y21847590D01*
X9961668Y21850000D02*
X10061667Y21750001D01*
X10061667Y21750001D02*
X10550000Y21750001D01*
D36*
X14200000Y29512500D02*
X14200000Y28821000D01*
X14200000Y28821000D02*
X13500000Y28121000D01*
X13500000Y28121000D02*
X13500000Y27704000D01*
X13500000Y27704000D02*
X13500000Y26700000D01*
X12600000Y30112500D02*
X12600000Y29421000D01*
X12600000Y29421000D02*
X13000000Y29021000D01*
X13000000Y29021000D02*
X13000000Y27704000D01*
X13000000Y27704000D02*
X13000000Y26700000D01*
X11787500Y28600000D02*
X12479000Y28600000D01*
X12479000Y28600000D02*
X12500000Y28579000D01*
X12500000Y28579000D02*
X12500000Y27704000D01*
X12500000Y27704000D02*
X12500000Y26700000D01*
X10550000Y24750000D02*
X9335000Y24750000D01*
X9335000Y24750000D02*
X9000000Y25085000D01*
D39*
X19200000Y23000000D02*
X19002410Y22802410D01*
X20000000Y23000000D02*
X19200000Y23000000D01*
X19002410Y22802410D02*
X18950000Y22802410D01*
D38*
X21200000Y23000000D02*
X20000000Y23000000D01*
D39*
X19200000Y20500000D02*
X19002410Y20697590D01*
X20274322Y20500000D02*
X19200000Y20500000D01*
X19002410Y20697590D02*
X18950000Y20697590D01*
X9000000Y20500000D02*
X10300000Y20500000D01*
X10300000Y20500000D02*
X10497590Y20697590D01*
X9750000Y23000000D02*
X9000000Y23000000D01*
X10300000Y23000000D02*
X10497590Y22802410D01*
X10497590Y22802410D02*
X10550000Y22802410D01*
X9750000Y23000000D02*
X10300000Y23000000D01*
D38*
X8250000Y23000000D02*
X9225678Y23000000D01*
X6250000Y21850000D02*
X6500000Y21850000D01*
X6500000Y21850000D02*
X6600000Y21750000D01*
X8250000Y20500000D02*
X9225678Y20500000D01*
X21250000Y20500000D02*
X20274322Y20500000D01*
X18950000Y21750000D02*
X23350000Y21750000D01*
X23350000Y21750000D02*
X23500000Y21600000D01*
X10550000Y21750000D02*
X6600000Y21750000D01*
D36*
X12000000Y26700000D02*
X12000000Y25696000D01*
X12000000Y25696000D02*
X14750000Y22946000D01*
X14750000Y22946000D02*
X14750000Y22500000D01*
X14500000Y26700000D02*
X14000000Y26700000D01*
X18950000Y24750000D02*
X18350000Y24750000D01*
X18350000Y24750000D02*
X16100000Y22500000D01*
X16100000Y22500000D02*
X14750000Y22500000D01*
X14500000Y18300000D02*
X14500000Y22250000D01*
X14500000Y22250000D02*
X14750000Y22500000D01*
X12500000Y20250000D02*
X14750000Y22500000D01*
X18950000Y19750000D02*
X18350000Y19750000D01*
X18350000Y19750000D02*
X15600000Y22500000D01*
X15600000Y22500000D02*
X14750000Y22500000D01*
X12000000Y18300000D02*
X12500000Y18300000D01*
X10550000Y19750000D02*
X11554000Y19750000D01*
X11554000Y19750000D02*
X14304000Y22500000D01*
X14304000Y22500000D02*
X14750000Y22500000D01*
X14000000Y26700000D02*
X14000000Y23250000D01*
X14000000Y23250000D02*
X14750000Y22500000D01*
D37*
X12409099Y33704599D02*
X12684599Y33704599D01*
X12684599Y33704599D02*
X13091001Y34111001D01*
X10487500Y31783000D02*
X12409099Y33704599D01*
X10487500Y30800000D02*
X10487500Y31783000D01*
D34*
X27652800Y7372200D02*
X27652800Y3314800D01*
X26652800Y8372200D02*
X27652800Y7372200D01*
D35*
X13484776Y10060518D02*
X13484776Y7765224D01*
X14000000Y18300000D02*
X14000000Y16855527D01*
X13484776Y7765224D02*
X13645991Y7604009D01*
X13683167Y10258909D02*
X13484776Y10060518D01*
X13683167Y16538694D02*
X13683167Y10258909D01*
X13645991Y7604009D02*
X13945990Y7304010D01*
X14000000Y16855527D02*
X13683167Y16538694D01*
X15000000Y17352617D02*
X15000000Y18300000D01*
X14038778Y16391396D02*
X15000000Y17352617D01*
X13840387Y9086780D02*
X13840387Y9913220D01*
X14500000Y8427166D02*
X13840387Y9086780D01*
X14038778Y10111611D02*
X14038778Y16391396D01*
X13840387Y9913220D02*
X14038778Y10111611D01*
X14500000Y6750000D02*
X14500000Y8427166D01*
D36*
X14500000Y22750000D02*
X14750000Y22500000D01*
X14500000Y26700000D02*
X14500000Y22750000D01*
X12500000Y18300000D02*
X12500000Y20250000D01*
X12000000Y20000000D02*
X12750000Y20750000D01*
X12000000Y18300000D02*
X12000000Y20000000D01*
X19677158Y23779410D02*
X21620590Y23779410D01*
X18950000Y23750000D02*
X19647748Y23750000D01*
X19647748Y23750000D02*
X19677158Y23779410D01*
X12500000Y32125000D02*
X12500000Y32100000D01*
X12500000Y32100000D02*
X13250000Y31350000D01*
X13512500Y31087500D02*
X13250000Y31350000D01*
X14200000Y31087500D02*
X13512500Y31087500D01*
G36*
X21737500Y25851695D02*
G01*
X21660896Y25712354D01*
X21657473Y25702606D01*
X21623872Y25510084D01*
X21623791Y25499752D01*
X21654364Y25306727D01*
X21657633Y25296926D01*
X21737500Y25146084D01*
X21737500Y23662500D01*
X21686420Y23662500D01*
X21657365Y23688161D01*
X21649922Y23693050D01*
X21445751Y23788909D01*
X21437043Y23791542D01*
X21258962Y23818156D01*
X21254337Y23818500D01*
X19943493Y23818500D01*
X19939058Y23818184D01*
X19772366Y23794312D01*
X19763819Y23791812D01*
X19602578Y23718500D01*
X19280503Y23718500D01*
X19262602Y23722551D01*
X19253725Y23723265D01*
X19176921Y23718500D01*
X19150678Y23718500D01*
X19146242Y23718184D01*
X19126686Y23715383D01*
X19057289Y23711078D01*
X19048569Y23709273D01*
X19025259Y23700858D01*
X19000721Y23697343D01*
X18992175Y23694844D01*
X18928864Y23666058D01*
X18863359Y23642410D01*
X18855340Y23638115D01*
X18836114Y23623888D01*
X18813010Y23613383D01*
X18805507Y23608585D01*
X18752023Y23562500D01*
X18162500Y23562500D01*
X18162500Y23932468D01*
X18508556Y24278524D01*
X19703070Y24278524D01*
X19709182Y24279126D01*
X19817336Y24300639D01*
X19828711Y24305350D01*
X19876826Y24337500D01*
X20125888Y24337500D01*
X20162500Y24374112D01*
X20162500Y26337500D01*
X21737500Y26337500D01*
X21737500Y25851695D01*
G37*
D40*
X21737500Y25851695D02*
X21660896Y25712354D01*
X21657473Y25702606D01*
X21623872Y25510084D01*
X21623791Y25499752D01*
X21654364Y25306727D01*
X21657633Y25296926D01*
X21737500Y25146084D01*
X21737500Y23662500D01*
X21686420Y23662500D01*
X21657365Y23688161D01*
X21649922Y23693050D01*
X21445751Y23788909D01*
X21437043Y23791542D01*
X21258962Y23818156D01*
X21254337Y23818500D01*
X19943493Y23818500D01*
X19939058Y23818184D01*
X19772366Y23794312D01*
X19763819Y23791812D01*
X19602578Y23718500D01*
X19280503Y23718500D01*
X19262602Y23722551D01*
X19253725Y23723265D01*
X19176921Y23718500D01*
X19150678Y23718500D01*
X19146242Y23718184D01*
X19126686Y23715383D01*
X19057289Y23711078D01*
X19048569Y23709273D01*
X19025259Y23700858D01*
X19000721Y23697343D01*
X18992175Y23694844D01*
X18928864Y23666058D01*
X18863359Y23642410D01*
X18855340Y23638115D01*
X18836114Y23623888D01*
X18813010Y23613383D01*
X18805507Y23608585D01*
X18752023Y23562500D01*
X18162500Y23562500D01*
X18162500Y23932468D01*
X18508556Y24278524D01*
X19703070Y24278524D01*
X19709182Y24279126D01*
X19817336Y24300639D01*
X19828711Y24305350D01*
X19876826Y24337500D01*
X20125888Y24337500D01*
X20162500Y24374112D01*
X20162500Y26337500D01*
X21737500Y26337500D01*
X21737500Y25851695D01*
G36*
X8337500Y24574112D02*
G01*
X8374112Y24537500D01*
X8488208Y24537500D01*
X8551289Y24495350D01*
X8562664Y24490639D01*
X8670818Y24469126D01*
X8676930Y24468524D01*
X8986444Y24468524D01*
X8988959Y24466009D01*
X9010326Y24434031D01*
X9019031Y24425326D01*
X9155956Y24333835D01*
X9167331Y24329124D01*
X9328845Y24296998D01*
X9341155Y24296998D01*
X9378872Y24304500D01*
X9673341Y24304500D01*
X9682663Y24300639D01*
X9790818Y24279126D01*
X9796930Y24278524D01*
X11303070Y24278524D01*
X11309182Y24279126D01*
X11337500Y24284759D01*
X11337500Y23662500D01*
X10579775Y23662500D01*
X10579262Y23662692D01*
X10516212Y23692294D01*
X10507504Y23694927D01*
X10483838Y23698464D01*
X10460085Y23707370D01*
X10451386Y23709282D01*
X10371970Y23715184D01*
X10352076Y23718156D01*
X10347451Y23718500D01*
X10327339Y23718500D01*
X10255115Y23723867D01*
X10246231Y23723261D01*
X10223925Y23718500D01*
X9621394Y23718500D01*
X9471429Y23788909D01*
X9462721Y23791542D01*
X9284640Y23818156D01*
X9280015Y23818500D01*
X8193493Y23818500D01*
X8189058Y23818184D01*
X8022366Y23794312D01*
X8013819Y23791812D01*
X7808579Y23698495D01*
X7801077Y23693697D01*
X7764870Y23662500D01*
X7162500Y23662500D01*
X7162500Y25737500D01*
X8337500Y25737500D01*
X8337500Y24574112D01*
G37*
X8337500Y24574112D02*
X8374112Y24537500D01*
X8488208Y24537500D01*
X8551289Y24495350D01*
X8562664Y24490639D01*
X8670818Y24469126D01*
X8676930Y24468524D01*
X8986444Y24468524D01*
X8988959Y24466009D01*
X9010326Y24434031D01*
X9019031Y24425326D01*
X9155956Y24333835D01*
X9167331Y24329124D01*
X9328845Y24296998D01*
X9341155Y24296998D01*
X9378872Y24304500D01*
X9673341Y24304500D01*
X9682663Y24300639D01*
X9790818Y24279126D01*
X9796930Y24278524D01*
X11303070Y24278524D01*
X11309182Y24279126D01*
X11337500Y24284759D01*
X11337500Y23662500D01*
X10579775Y23662500D01*
X10579262Y23662692D01*
X10516212Y23692294D01*
X10507504Y23694927D01*
X10483838Y23698464D01*
X10460085Y23707370D01*
X10451386Y23709282D01*
X10371970Y23715184D01*
X10352076Y23718156D01*
X10347451Y23718500D01*
X10327339Y23718500D01*
X10255115Y23723867D01*
X10246231Y23723261D01*
X10223925Y23718500D01*
X9621394Y23718500D01*
X9471429Y23788909D01*
X9462721Y23791542D01*
X9284640Y23818156D01*
X9280015Y23818500D01*
X8193493Y23818500D01*
X8189058Y23818184D01*
X8022366Y23794312D01*
X8013819Y23791812D01*
X7808579Y23698495D01*
X7801077Y23693697D01*
X7764870Y23662500D01*
X7162500Y23662500D01*
X7162500Y25737500D01*
X8337500Y25737500D01*
X8337500Y24574112D01*
G36*
X34315524Y37994476D02*
G01*
X33257810Y37994476D01*
X33245490Y37993263D01*
X33128142Y37969921D01*
X33105211Y37960423D01*
X33000556Y37890495D01*
X32983005Y37872944D01*
X32913077Y37768289D01*
X32912315Y37766448D01*
X32178456Y38500307D01*
X32160908Y38524460D01*
X32152071Y38534275D01*
X32075935Y38602828D01*
X32052668Y38626095D01*
X32047765Y38630511D01*
X32022174Y38651234D01*
X31946050Y38719777D01*
X31935366Y38727539D01*
X31909510Y38742467D01*
X31886318Y38761247D01*
X31875242Y38768440D01*
X31783992Y38814934D01*
X31695279Y38866154D01*
X31683214Y38871525D01*
X31654821Y38880751D01*
X31628229Y38894300D01*
X31615901Y38899033D01*
X31516960Y38925545D01*
X31419553Y38957194D01*
X31406636Y38959939D01*
X31376947Y38963060D01*
X31348117Y38970785D01*
X31335073Y38972851D01*
X31232809Y38978210D01*
X31200032Y38981655D01*
X31193442Y38982000D01*
X31160491Y38982000D01*
X31058226Y38987360D01*
X31045037Y38986669D01*
X31015558Y38982000D01*
X7508756Y38982000D01*
X7479284Y38986668D01*
X7466095Y38987359D01*
X7363842Y38982000D01*
X7330881Y38982000D01*
X7324292Y38981655D01*
X7291512Y38978210D01*
X7189247Y38972851D01*
X7176202Y38970785D01*
X7147374Y38963060D01*
X7117688Y38959940D01*
X7104769Y38957194D01*
X7007362Y38925544D01*
X6908420Y38899033D01*
X6896091Y38894300D01*
X6869496Y38880749D01*
X6841109Y38871526D01*
X6829044Y38866154D01*
X6740338Y38814940D01*
X6649079Y38768440D01*
X6638003Y38761248D01*
X6614811Y38742467D01*
X6588956Y38727539D01*
X6578272Y38719777D01*
X6502149Y38651235D01*
X6476556Y38630511D01*
X6471653Y38626095D01*
X6448377Y38602819D01*
X6372251Y38534275D01*
X6363414Y38524460D01*
X6345868Y38500310D01*
X5299691Y37454133D01*
X5275539Y37436585D01*
X5265726Y37427748D01*
X5197183Y37351624D01*
X5173905Y37328347D01*
X5169489Y37323443D01*
X5148757Y37297841D01*
X5080224Y37221728D01*
X5072461Y37211042D01*
X5057537Y37185192D01*
X5038754Y37161998D01*
X5031560Y37150921D01*
X4985057Y37059655D01*
X4933847Y36970956D01*
X4928475Y36958891D01*
X4919253Y36930507D01*
X4905700Y36903908D01*
X4900967Y36891578D01*
X4874453Y36792625D01*
X4842807Y36695231D01*
X4840062Y36682313D01*
X4836942Y36652633D01*
X4829215Y36623796D01*
X4827149Y36610751D01*
X4821789Y36508468D01*
X4818346Y36475710D01*
X4818001Y36469120D01*
X4818001Y36436188D01*
X4812640Y36333904D01*
X4813331Y36320715D01*
X4818001Y36291230D01*
X4818000Y30330882D01*
X4818345Y30324292D01*
X4840060Y30117688D01*
X4842806Y30104770D01*
X4928474Y29841110D01*
X4933846Y29829045D01*
X5068000Y29596682D01*
X5068001Y28064261D01*
X5061776Y27972955D01*
X5062571Y27957784D01*
X5079715Y27859556D01*
X5091690Y27760594D01*
X5095314Y27745841D01*
X5103207Y27724952D01*
X5107047Y27702952D01*
X5111438Y27688409D01*
X5151513Y27597116D01*
X5186752Y27503858D01*
X5193790Y27490395D01*
X5206439Y27471990D01*
X5215482Y27451390D01*
X5223418Y27438049D01*
X5279115Y27366245D01*
X5340310Y27277207D01*
X5350357Y27265811D01*
X5423224Y27200888D01*
X6568000Y26056111D01*
X6568001Y25813600D01*
X6432323Y25875561D01*
X6415030Y25880639D01*
X6185906Y25913582D01*
X6176929Y25914224D01*
X5751809Y25914224D01*
X5678000Y25840415D01*
X5677999Y24851808D01*
X5678000Y24851807D01*
X5677999Y23459585D01*
X5751808Y23385776D01*
X6179183Y23385776D01*
X6192613Y23387220D01*
X6528353Y23460255D01*
X6549187Y23468885D01*
X6721574Y23579672D01*
X6744177Y23466045D01*
X6753675Y23443114D01*
X6822524Y23340075D01*
X6840075Y23322524D01*
X6943114Y23253675D01*
X6966045Y23244177D01*
X7081489Y23221213D01*
X7093810Y23220000D01*
X7395133Y23220000D01*
X7371326Y23140395D01*
X7368672Y23122639D01*
X7367241Y22888137D01*
X7369677Y22870350D01*
X7409217Y22732000D01*
X6546313Y22732000D01*
X6399633Y22816685D01*
X6378916Y22824226D01*
X6187605Y22857959D01*
X6176644Y22858918D01*
X4920598Y22858918D01*
X4904223Y22856762D01*
X4627030Y22782488D01*
X4602550Y22769745D01*
X4447379Y22639542D01*
X4433208Y22622653D01*
X4361789Y22498952D01*
X4361837Y22499499D01*
X4361837Y22598191D01*
X4288028Y22672000D01*
X3601808Y22672001D01*
X3601807Y22672000D01*
X2511972Y22672001D01*
X2438163Y22598192D01*
X2438163Y22496742D01*
X2440319Y22480366D01*
X2515137Y22201141D01*
X2527880Y22176661D01*
X2658990Y22020410D01*
X2675880Y22006238D01*
X2695024Y21995185D01*
X2695024Y21528810D01*
X2696237Y21516490D01*
X2719579Y21399142D01*
X2729077Y21376211D01*
X2799005Y21271556D01*
X2816556Y21254005D01*
X2921211Y21184077D01*
X2944142Y21174579D01*
X3061490Y21151237D01*
X3073810Y21150024D01*
X3726190Y21150024D01*
X3738510Y21151237D01*
X3855859Y21174579D01*
X3878789Y21184077D01*
X3893640Y21194000D01*
X4362965Y21194000D01*
X4367512Y21177029D01*
X4380255Y21152549D01*
X4510458Y20997379D01*
X4527347Y20983208D01*
X4700367Y20883315D01*
X4721084Y20875774D01*
X4912395Y20842041D01*
X4923356Y20841082D01*
X6179401Y20841082D01*
X6195777Y20843238D01*
X6376689Y20891713D01*
X6400168Y20882911D01*
X6417702Y20879056D01*
X6511068Y20872117D01*
X6533981Y20868693D01*
X6543306Y20868000D01*
X6566471Y20868000D01*
X6651562Y20861677D01*
X6669474Y20862898D01*
X6693374Y20868000D01*
X7439872Y20868000D01*
X7438518Y20865069D01*
X7371326Y20640395D01*
X7368672Y20622639D01*
X7367241Y20388137D01*
X7369677Y20370350D01*
X7434118Y20144873D01*
X7441449Y20128484D01*
X7566585Y19930156D01*
X7578221Y19916484D01*
X7753991Y19761249D01*
X7768997Y19751392D01*
X7981446Y19651647D01*
X7999001Y19646338D01*
X8183982Y19618693D01*
X8193307Y19618000D01*
X9158163Y19618000D01*
X9158163Y19591742D01*
X9160319Y19575366D01*
X9235137Y19296141D01*
X9247880Y19271661D01*
X9378990Y19115410D01*
X9395879Y19101239D01*
X9570120Y19000641D01*
X9590837Y18993100D01*
X9783538Y18959122D01*
X9794499Y18958163D01*
X10452191Y18958163D01*
X10526000Y19031972D01*
X10526001Y19744311D01*
X10529990Y19745478D01*
X10574000Y19765489D01*
X10573999Y19031972D01*
X10647808Y18958163D01*
X11208163Y18958163D01*
X11208163Y18397809D01*
X11281972Y18324000D01*
X12465024Y18324000D01*
X12465024Y18276000D01*
X12097809Y18276000D01*
X12024000Y18202191D01*
X12023999Y17061768D01*
X11976000Y16989932D01*
X11976000Y18202191D01*
X11902191Y18276000D01*
X11281972Y18276001D01*
X11208163Y18202192D01*
X11208163Y17541742D01*
X11210319Y17525366D01*
X11285137Y17246141D01*
X11297880Y17221661D01*
X11428990Y17065410D01*
X11445879Y17051239D01*
X11620120Y16950641D01*
X11640837Y16943100D01*
X11885982Y16899875D01*
X11953911Y16956874D01*
X11936914Y16931435D01*
X11927416Y16908504D01*
X11914763Y16844893D01*
X11894820Y16744635D01*
X11894820Y16719815D01*
X11901825Y16684599D01*
X11901826Y8062424D01*
X11850249Y8015492D01*
X11837355Y7999135D01*
X11741891Y7825488D01*
X11593841Y7813836D01*
X11573626Y7808815D01*
X11384634Y7727031D01*
X11367136Y7715733D01*
X11214825Y7577139D01*
X11201930Y7560782D01*
X11136400Y7441585D01*
X11136400Y7619570D01*
X11143405Y7654785D01*
X11143405Y7679606D01*
X11131102Y7741457D01*
X11110809Y7843477D01*
X11101311Y7866407D01*
X11008486Y8005331D01*
X10990935Y8022882D01*
X10961072Y8042835D01*
X10866987Y8136920D01*
X10867770Y8236567D01*
X10864351Y8257618D01*
X10797566Y8452680D01*
X10787676Y8471010D01*
X10661461Y8633726D01*
X10646165Y8647865D01*
X10474048Y8760924D01*
X10454998Y8769346D01*
X10255540Y8820559D01*
X10234789Y8822357D01*
X10029494Y8806199D01*
X10009279Y8801178D01*
X9933601Y8768429D01*
X9933601Y8842661D01*
X10009337Y8860843D01*
X10028518Y8868965D01*
X10202390Y8979308D01*
X10217905Y8993205D01*
X10346661Y9153918D01*
X10356838Y9172091D01*
X10426678Y9366080D01*
X10430427Y9387075D01*
X10432117Y9602224D01*
X10428698Y9623275D01*
X10361913Y9818337D01*
X10352023Y9836667D01*
X10225808Y9999383D01*
X10210512Y10013522D01*
X10038395Y10126581D01*
X10019345Y10135003D01*
X9819887Y10186216D01*
X9799136Y10188014D01*
X9593841Y10171856D01*
X9573626Y10166835D01*
X9384634Y10085051D01*
X9367136Y10073753D01*
X9214825Y9935159D01*
X9201930Y9918802D01*
X9102722Y9738346D01*
X9095821Y9718693D01*
X9060416Y9515830D01*
X9060252Y9495002D01*
X9061257Y9488659D01*
X9001490Y9399211D01*
X8991992Y9376280D01*
X8969425Y9262829D01*
X8959396Y9212412D01*
X8959396Y9187591D01*
X8966401Y9152375D01*
X8966401Y8898597D01*
X8819887Y8936216D01*
X8799136Y8938014D01*
X8593841Y8921856D01*
X8573626Y8916835D01*
X8384634Y8835051D01*
X8367136Y8823753D01*
X8214825Y8685159D01*
X8201930Y8668802D01*
X8102722Y8488346D01*
X8095821Y8468693D01*
X8060416Y8265831D01*
X8060252Y8245002D01*
X8092466Y8041609D01*
X8099058Y8021851D01*
X8195419Y7839858D01*
X8208055Y7823300D01*
X8266400Y7768510D01*
X8266400Y7451677D01*
X8190738Y7605442D01*
X8184210Y7615961D01*
X8171772Y7632199D01*
X8162626Y7650504D01*
X8156033Y7660982D01*
X8024570Y7830465D01*
X8016060Y7839456D01*
X8000606Y7852867D01*
X7987969Y7868954D01*
X7979404Y7877893D01*
X7816547Y8017478D01*
X7806404Y8024574D01*
X7788570Y8034603D01*
X7772953Y8047823D01*
X7762767Y8054857D01*
X7575168Y8158844D01*
X7563805Y8163755D01*
X7544320Y8169992D01*
X7526366Y8179801D01*
X7514973Y8184643D01*
X7310294Y8248785D01*
X7298174Y8251312D01*
X7277837Y8253503D01*
X7258277Y8259502D01*
X7246142Y8261954D01*
X7032746Y8283630D01*
X7020367Y8283668D01*
X6981910Y8280000D01*
X6622746Y8280000D01*
X6589013Y8284052D01*
X6576636Y8284317D01*
X6411306Y8271595D01*
X6399116Y8269440D01*
X6383929Y8265185D01*
X6368191Y8264264D01*
X6355964Y8262333D01*
X6148397Y8208267D01*
X6136780Y8203987D01*
X6118362Y8195064D01*
X6098604Y8189789D01*
X6087013Y8185438D01*
X5894558Y8090738D01*
X5884039Y8084210D01*
X5867801Y8071772D01*
X5849496Y8062626D01*
X5839018Y8056033D01*
X5669535Y7924570D01*
X5660544Y7916060D01*
X5647133Y7900606D01*
X5631046Y7887969D01*
X5622107Y7879404D01*
X5482522Y7716547D01*
X5475426Y7706404D01*
X5465397Y7688570D01*
X5452177Y7672953D01*
X5445143Y7662767D01*
X5341156Y7475168D01*
X5336245Y7463805D01*
X5330008Y7444320D01*
X5320199Y7426366D01*
X5315357Y7414973D01*
X5251215Y7210294D01*
X5248688Y7198174D01*
X5246497Y7177837D01*
X5240498Y7158277D01*
X5238046Y7146142D01*
X5216370Y6932746D01*
X5216332Y6920367D01*
X5220000Y6881910D01*
X5220001Y1056842D01*
X5217621Y1045063D01*
X5200521Y876732D01*
X5163470Y758498D01*
X5103399Y650127D01*
X5022768Y556053D01*
X4924858Y480107D01*
X4813693Y425407D01*
X4689193Y392978D01*
X4564292Y383367D01*
X4552101Y381211D01*
X4547778Y380000D01*
X2048476Y380000D01*
X2048476Y1151524D01*
X3106190Y1151524D01*
X3118510Y1152737D01*
X3235858Y1176079D01*
X3258789Y1185577D01*
X3363444Y1255505D01*
X3380995Y1273056D01*
X3450923Y1377711D01*
X3460421Y1400642D01*
X3483763Y1517990D01*
X3484976Y1530310D01*
X3484976Y1663390D01*
X3702293Y1774118D01*
X3710735Y1779291D01*
X3923001Y1933512D01*
X3930530Y1939942D01*
X4116058Y2125470D01*
X4122488Y2132999D01*
X4276709Y2345265D01*
X4281882Y2353707D01*
X4400998Y2587486D01*
X4404787Y2596634D01*
X4485866Y2846168D01*
X4488177Y2855796D01*
X4529222Y3114942D01*
X4529999Y3124812D01*
X4529999Y3387188D01*
X4529222Y3397058D01*
X4488177Y3656204D01*
X4485866Y3665832D01*
X4404787Y3915366D01*
X4400998Y3924514D01*
X4281882Y4158293D01*
X4276709Y4166735D01*
X4122488Y4379001D01*
X4116058Y4386530D01*
X3930530Y4572058D01*
X3923001Y4578488D01*
X3710735Y4732709D01*
X3702293Y4737882D01*
X3468514Y4856998D01*
X3459366Y4860787D01*
X3209832Y4941866D01*
X3200204Y4944177D01*
X2941058Y4985222D01*
X2931188Y4985999D01*
X2668812Y4985999D01*
X2658942Y4985222D01*
X2399796Y4944177D01*
X2390168Y4941866D01*
X2140634Y4860787D01*
X2131486Y4856998D01*
X1897707Y4737882D01*
X1889265Y4732709D01*
X1676999Y4578488D01*
X1669470Y4572058D01*
X1483942Y4386530D01*
X1477512Y4379001D01*
X1323291Y4166735D01*
X1318118Y4158293D01*
X1199002Y3924514D01*
X1195213Y3915366D01*
X1114134Y3665832D01*
X1111823Y3656204D01*
X1070778Y3397058D01*
X1070001Y3387188D01*
X1070001Y3124812D01*
X1070778Y3114942D01*
X1111823Y2855796D01*
X1114134Y2846168D01*
X1151524Y2731094D01*
X1151524Y2048476D01*
X380000Y2048476D01*
X380000Y23100501D01*
X2438163Y23100501D01*
X2438163Y23001809D01*
X2511972Y22928000D01*
X3198191Y22927999D01*
X3272000Y23001808D01*
X3272000Y23001809D01*
X3527999Y23001809D01*
X3601808Y22928000D01*
X4288028Y22927999D01*
X4361837Y23001808D01*
X4361837Y23103258D01*
X4359681Y23119634D01*
X4284863Y23398858D01*
X4272120Y23423338D01*
X4141010Y23579590D01*
X4124121Y23593761D01*
X3949880Y23694359D01*
X3929163Y23701900D01*
X3736462Y23735878D01*
X3725501Y23736837D01*
X3601809Y23736837D01*
X3528000Y23663028D01*
X3527999Y23001809D01*
X3272000Y23001809D01*
X3272001Y23663028D01*
X3198192Y23736837D01*
X3071742Y23736837D01*
X3055366Y23734681D01*
X2776142Y23659863D01*
X2751662Y23647120D01*
X2595410Y23516010D01*
X2581239Y23499121D01*
X2480641Y23324880D01*
X2473100Y23304163D01*
X2439122Y23111462D01*
X2438163Y23100501D01*
X380000Y23100501D01*
X380000Y24448192D01*
X4035776Y24448192D01*
X4035776Y24270817D01*
X4037220Y24257387D01*
X4110255Y23921647D01*
X4118885Y23900813D01*
X4247696Y23700380D01*
X4259499Y23686759D01*
X4437849Y23532217D01*
X4453011Y23522473D01*
X4667677Y23424439D01*
X4684970Y23419361D01*
X4914094Y23386418D01*
X4923071Y23385776D01*
X5348191Y23385776D01*
X5422000Y23459585D01*
X5422001Y24448191D01*
X5348192Y24522000D01*
X4109585Y24522001D01*
X4035776Y24448192D01*
X380000Y24448192D01*
X380000Y25026929D01*
X4035776Y25026929D01*
X4035776Y24851809D01*
X4109585Y24778000D01*
X5348191Y24777999D01*
X5422000Y24851808D01*
X5422001Y25840415D01*
X5348192Y25914224D01*
X4920817Y25914224D01*
X4907387Y25912780D01*
X4571647Y25839745D01*
X4550813Y25831115D01*
X4350380Y25702304D01*
X4336759Y25690501D01*
X4182217Y25512151D01*
X4172473Y25496989D01*
X4074439Y25282323D01*
X4069361Y25265030D01*
X4036418Y25035906D01*
X4035776Y25026929D01*
X380000Y25026929D01*
X380000Y30198192D01*
X2133163Y30198192D01*
X2133163Y29516742D01*
X2135319Y29500366D01*
X2210137Y29221141D01*
X2222880Y29196661D01*
X2353990Y29040410D01*
X2370879Y29026239D01*
X2545120Y28925641D01*
X2565837Y28918100D01*
X2758538Y28884122D01*
X2769499Y28883163D01*
X3198191Y28883163D01*
X3272000Y28956972D01*
X3527999Y28956972D01*
X3601808Y28883163D01*
X4033258Y28883163D01*
X4049634Y28885319D01*
X4328859Y28960137D01*
X4353339Y28972880D01*
X4509590Y29103990D01*
X4523761Y29120879D01*
X4624359Y29295120D01*
X4631900Y29315837D01*
X4665878Y29508538D01*
X4666837Y29519499D01*
X4666837Y30198191D01*
X4593028Y30272000D01*
X3601809Y30272001D01*
X3528000Y30198192D01*
X3527999Y28956972D01*
X3272000Y28956972D01*
X3272001Y30198191D01*
X3198192Y30272000D01*
X2206972Y30272001D01*
X2133163Y30198192D01*
X380000Y30198192D01*
X380000Y31280501D01*
X2133163Y31280501D01*
X2133163Y30601809D01*
X2206972Y30528000D01*
X3198191Y30527999D01*
X3272000Y30601808D01*
X3272000Y30601809D01*
X3527999Y30601809D01*
X3601808Y30528000D01*
X4593028Y30527999D01*
X4666837Y30601808D01*
X4666837Y31283258D01*
X4664681Y31299634D01*
X4589863Y31578858D01*
X4577120Y31603338D01*
X4446010Y31759590D01*
X4429121Y31773761D01*
X4254880Y31874359D01*
X4234163Y31881900D01*
X4041462Y31915878D01*
X4030501Y31916837D01*
X3601809Y31916837D01*
X3528000Y31843028D01*
X3527999Y30601809D01*
X3272000Y30601809D01*
X3272001Y31843028D01*
X3198192Y31916837D01*
X2766742Y31916837D01*
X2750366Y31914681D01*
X2471142Y31839863D01*
X2446662Y31827120D01*
X2290410Y31696010D01*
X2276239Y31679121D01*
X2175641Y31504880D01*
X2168100Y31484163D01*
X2134122Y31291462D01*
X2133163Y31280501D01*
X380000Y31280501D01*
X380000Y37097524D01*
X1295524Y37097524D01*
X1295524Y36039810D01*
X1296737Y36027490D01*
X1320079Y35910142D01*
X1329577Y35887211D01*
X1399505Y35782556D01*
X1417056Y35765005D01*
X1521711Y35695077D01*
X1544642Y35685579D01*
X1661990Y35662237D01*
X1674310Y35661024D01*
X1813690Y35661024D01*
X1826010Y35662237D01*
X1943358Y35685579D01*
X1966289Y35695077D01*
X2070944Y35765005D01*
X2088495Y35782556D01*
X2158423Y35887211D01*
X2167921Y35910142D01*
X2191263Y36027490D01*
X2192476Y36039810D01*
X2192476Y37097524D01*
X3250190Y37097524D01*
X3262510Y37098737D01*
X3379858Y37122079D01*
X3402789Y37131577D01*
X3507444Y37201505D01*
X3524995Y37219056D01*
X3594923Y37323711D01*
X3604421Y37346642D01*
X3627763Y37463990D01*
X3628976Y37476310D01*
X3628976Y37615690D01*
X3627763Y37628010D01*
X3604421Y37745358D01*
X3594923Y37768289D01*
X3524995Y37872944D01*
X3507444Y37890495D01*
X3402789Y37960423D01*
X3379858Y37969921D01*
X3262510Y37993263D01*
X3250190Y37994476D01*
X2192476Y37994476D01*
X2192476Y39020000D01*
X34315524Y39020000D01*
X34315524Y37994476D01*
G37*
D36*
X34315524Y37994476D02*
X33257810Y37994476D01*
X33245490Y37993263D01*
X33128142Y37969921D01*
X33105211Y37960423D01*
X33000556Y37890495D01*
X32983005Y37872944D01*
X32913077Y37768289D01*
X32912315Y37766448D01*
X32178456Y38500307D01*
X32160908Y38524460D01*
X32152071Y38534275D01*
X32075935Y38602828D01*
X32052668Y38626095D01*
X32047765Y38630511D01*
X32022174Y38651234D01*
X31946050Y38719777D01*
X31935366Y38727539D01*
X31909510Y38742467D01*
X31886318Y38761247D01*
X31875242Y38768440D01*
X31783992Y38814934D01*
X31695279Y38866154D01*
X31683214Y38871525D01*
X31654821Y38880751D01*
X31628229Y38894300D01*
X31615901Y38899033D01*
X31516960Y38925545D01*
X31419553Y38957194D01*
X31406636Y38959939D01*
X31376947Y38963060D01*
X31348117Y38970785D01*
X31335073Y38972851D01*
X31232809Y38978210D01*
X31200032Y38981655D01*
X31193442Y38982000D01*
X31160491Y38982000D01*
X31058226Y38987360D01*
X31045037Y38986669D01*
X31015558Y38982000D01*
X7508756Y38982000D01*
X7479284Y38986668D01*
X7466095Y38987359D01*
X7363842Y38982000D01*
X7330881Y38982000D01*
X7324292Y38981655D01*
X7291512Y38978210D01*
X7189247Y38972851D01*
X7176202Y38970785D01*
X7147374Y38963060D01*
X7117688Y38959940D01*
X7104769Y38957194D01*
X7007362Y38925544D01*
X6908420Y38899033D01*
X6896091Y38894300D01*
X6869496Y38880749D01*
X6841109Y38871526D01*
X6829044Y38866154D01*
X6740338Y38814940D01*
X6649079Y38768440D01*
X6638003Y38761248D01*
X6614811Y38742467D01*
X6588956Y38727539D01*
X6578272Y38719777D01*
X6502149Y38651235D01*
X6476556Y38630511D01*
X6471653Y38626095D01*
X6448377Y38602819D01*
X6372251Y38534275D01*
X6363414Y38524460D01*
X6345868Y38500310D01*
X5299691Y37454133D01*
X5275539Y37436585D01*
X5265726Y37427748D01*
X5197183Y37351624D01*
X5173905Y37328347D01*
X5169489Y37323443D01*
X5148757Y37297841D01*
X5080224Y37221728D01*
X5072461Y37211042D01*
X5057537Y37185192D01*
X5038754Y37161998D01*
X5031560Y37150921D01*
X4985057Y37059655D01*
X4933847Y36970956D01*
X4928475Y36958891D01*
X4919253Y36930507D01*
X4905700Y36903908D01*
X4900967Y36891578D01*
X4874453Y36792625D01*
X4842807Y36695231D01*
X4840062Y36682313D01*
X4836942Y36652633D01*
X4829215Y36623796D01*
X4827149Y36610751D01*
X4821789Y36508468D01*
X4818346Y36475710D01*
X4818001Y36469120D01*
X4818001Y36436188D01*
X4812640Y36333904D01*
X4813331Y36320715D01*
X4818001Y36291230D01*
X4818000Y30330882D01*
X4818345Y30324292D01*
X4840060Y30117688D01*
X4842806Y30104770D01*
X4928474Y29841110D01*
X4933846Y29829045D01*
X5068000Y29596682D01*
X5068001Y28064261D01*
X5061776Y27972955D01*
X5062571Y27957784D01*
X5079715Y27859556D01*
X5091690Y27760594D01*
X5095314Y27745841D01*
X5103207Y27724952D01*
X5107047Y27702952D01*
X5111438Y27688409D01*
X5151513Y27597116D01*
X5186752Y27503858D01*
X5193790Y27490395D01*
X5206439Y27471990D01*
X5215482Y27451390D01*
X5223418Y27438049D01*
X5279115Y27366245D01*
X5340310Y27277207D01*
X5350357Y27265811D01*
X5423224Y27200888D01*
X6568000Y26056111D01*
X6568001Y25813600D01*
X6432323Y25875561D01*
X6415030Y25880639D01*
X6185906Y25913582D01*
X6176929Y25914224D01*
X5751809Y25914224D01*
X5678000Y25840415D01*
X5677999Y24851808D01*
X5678000Y24851807D01*
X5677999Y23459585D01*
X5751808Y23385776D01*
X6179183Y23385776D01*
X6192613Y23387220D01*
X6528353Y23460255D01*
X6549187Y23468885D01*
X6721574Y23579672D01*
X6744177Y23466045D01*
X6753675Y23443114D01*
X6822524Y23340075D01*
X6840075Y23322524D01*
X6943114Y23253675D01*
X6966045Y23244177D01*
X7081489Y23221213D01*
X7093810Y23220000D01*
X7395133Y23220000D01*
X7371326Y23140395D01*
X7368672Y23122639D01*
X7367241Y22888137D01*
X7369677Y22870350D01*
X7409217Y22732000D01*
X6546313Y22732000D01*
X6399633Y22816685D01*
X6378916Y22824226D01*
X6187605Y22857959D01*
X6176644Y22858918D01*
X4920598Y22858918D01*
X4904223Y22856762D01*
X4627030Y22782488D01*
X4602550Y22769745D01*
X4447379Y22639542D01*
X4433208Y22622653D01*
X4361789Y22498952D01*
X4361837Y22499499D01*
X4361837Y22598191D01*
X4288028Y22672000D01*
X3601808Y22672001D01*
X3601807Y22672000D01*
X2511972Y22672001D01*
X2438163Y22598192D01*
X2438163Y22496742D01*
X2440319Y22480366D01*
X2515137Y22201141D01*
X2527880Y22176661D01*
X2658990Y22020410D01*
X2675880Y22006238D01*
X2695024Y21995185D01*
X2695024Y21528810D01*
X2696237Y21516490D01*
X2719579Y21399142D01*
X2729077Y21376211D01*
X2799005Y21271556D01*
X2816556Y21254005D01*
X2921211Y21184077D01*
X2944142Y21174579D01*
X3061490Y21151237D01*
X3073810Y21150024D01*
X3726190Y21150024D01*
X3738510Y21151237D01*
X3855859Y21174579D01*
X3878789Y21184077D01*
X3893640Y21194000D01*
X4362965Y21194000D01*
X4367512Y21177029D01*
X4380255Y21152549D01*
X4510458Y20997379D01*
X4527347Y20983208D01*
X4700367Y20883315D01*
X4721084Y20875774D01*
X4912395Y20842041D01*
X4923356Y20841082D01*
X6179401Y20841082D01*
X6195777Y20843238D01*
X6376689Y20891713D01*
X6400168Y20882911D01*
X6417702Y20879056D01*
X6511068Y20872117D01*
X6533981Y20868693D01*
X6543306Y20868000D01*
X6566471Y20868000D01*
X6651562Y20861677D01*
X6669474Y20862898D01*
X6693374Y20868000D01*
X7439872Y20868000D01*
X7438518Y20865069D01*
X7371326Y20640395D01*
X7368672Y20622639D01*
X7367241Y20388137D01*
X7369677Y20370350D01*
X7434118Y20144873D01*
X7441449Y20128484D01*
X7566585Y19930156D01*
X7578221Y19916484D01*
X7753991Y19761249D01*
X7768997Y19751392D01*
X7981446Y19651647D01*
X7999001Y19646338D01*
X8183982Y19618693D01*
X8193307Y19618000D01*
X9158163Y19618000D01*
X9158163Y19591742D01*
X9160319Y19575366D01*
X9235137Y19296141D01*
X9247880Y19271661D01*
X9378990Y19115410D01*
X9395879Y19101239D01*
X9570120Y19000641D01*
X9590837Y18993100D01*
X9783538Y18959122D01*
X9794499Y18958163D01*
X10452191Y18958163D01*
X10526000Y19031972D01*
X10526001Y19744311D01*
X10529990Y19745478D01*
X10574000Y19765489D01*
X10573999Y19031972D01*
X10647808Y18958163D01*
X11208163Y18958163D01*
X11208163Y18397809D01*
X11281972Y18324000D01*
X12465024Y18324000D01*
X12465024Y18276000D01*
X12097809Y18276000D01*
X12024000Y18202191D01*
X12023999Y17061768D01*
X11976000Y16989932D01*
X11976000Y18202191D01*
X11902191Y18276000D01*
X11281972Y18276001D01*
X11208163Y18202192D01*
X11208163Y17541742D01*
X11210319Y17525366D01*
X11285137Y17246141D01*
X11297880Y17221661D01*
X11428990Y17065410D01*
X11445879Y17051239D01*
X11620120Y16950641D01*
X11640837Y16943100D01*
X11885982Y16899875D01*
X11953911Y16956874D01*
X11936914Y16931435D01*
X11927416Y16908504D01*
X11914763Y16844893D01*
X11894820Y16744635D01*
X11894820Y16719815D01*
X11901825Y16684599D01*
X11901826Y8062424D01*
X11850249Y8015492D01*
X11837355Y7999135D01*
X11741891Y7825488D01*
X11593841Y7813836D01*
X11573626Y7808815D01*
X11384634Y7727031D01*
X11367136Y7715733D01*
X11214825Y7577139D01*
X11201930Y7560782D01*
X11136400Y7441585D01*
X11136400Y7619570D01*
X11143405Y7654785D01*
X11143405Y7679606D01*
X11131102Y7741457D01*
X11110809Y7843477D01*
X11101311Y7866407D01*
X11008486Y8005331D01*
X10990935Y8022882D01*
X10961072Y8042835D01*
X10866987Y8136920D01*
X10867770Y8236567D01*
X10864351Y8257618D01*
X10797566Y8452680D01*
X10787676Y8471010D01*
X10661461Y8633726D01*
X10646165Y8647865D01*
X10474048Y8760924D01*
X10454998Y8769346D01*
X10255540Y8820559D01*
X10234789Y8822357D01*
X10029494Y8806199D01*
X10009279Y8801178D01*
X9933601Y8768429D01*
X9933601Y8842661D01*
X10009337Y8860843D01*
X10028518Y8868965D01*
X10202390Y8979308D01*
X10217905Y8993205D01*
X10346661Y9153918D01*
X10356838Y9172091D01*
X10426678Y9366080D01*
X10430427Y9387075D01*
X10432117Y9602224D01*
X10428698Y9623275D01*
X10361913Y9818337D01*
X10352023Y9836667D01*
X10225808Y9999383D01*
X10210512Y10013522D01*
X10038395Y10126581D01*
X10019345Y10135003D01*
X9819887Y10186216D01*
X9799136Y10188014D01*
X9593841Y10171856D01*
X9573626Y10166835D01*
X9384634Y10085051D01*
X9367136Y10073753D01*
X9214825Y9935159D01*
X9201930Y9918802D01*
X9102722Y9738346D01*
X9095821Y9718693D01*
X9060416Y9515830D01*
X9060252Y9495002D01*
X9061257Y9488659D01*
X9001490Y9399211D01*
X8991992Y9376280D01*
X8969425Y9262829D01*
X8959396Y9212412D01*
X8959396Y9187591D01*
X8966401Y9152375D01*
X8966401Y8898597D01*
X8819887Y8936216D01*
X8799136Y8938014D01*
X8593841Y8921856D01*
X8573626Y8916835D01*
X8384634Y8835051D01*
X8367136Y8823753D01*
X8214825Y8685159D01*
X8201930Y8668802D01*
X8102722Y8488346D01*
X8095821Y8468693D01*
X8060416Y8265831D01*
X8060252Y8245002D01*
X8092466Y8041609D01*
X8099058Y8021851D01*
X8195419Y7839858D01*
X8208055Y7823300D01*
X8266400Y7768510D01*
X8266400Y7451677D01*
X8190738Y7605442D01*
X8184210Y7615961D01*
X8171772Y7632199D01*
X8162626Y7650504D01*
X8156033Y7660982D01*
X8024570Y7830465D01*
X8016060Y7839456D01*
X8000606Y7852867D01*
X7987969Y7868954D01*
X7979404Y7877893D01*
X7816547Y8017478D01*
X7806404Y8024574D01*
X7788570Y8034603D01*
X7772953Y8047823D01*
X7762767Y8054857D01*
X7575168Y8158844D01*
X7563805Y8163755D01*
X7544320Y8169992D01*
X7526366Y8179801D01*
X7514973Y8184643D01*
X7310294Y8248785D01*
X7298174Y8251312D01*
X7277837Y8253503D01*
X7258277Y8259502D01*
X7246142Y8261954D01*
X7032746Y8283630D01*
X7020367Y8283668D01*
X6981910Y8280000D01*
X6622746Y8280000D01*
X6589013Y8284052D01*
X6576636Y8284317D01*
X6411306Y8271595D01*
X6399116Y8269440D01*
X6383929Y8265185D01*
X6368191Y8264264D01*
X6355964Y8262333D01*
X6148397Y8208267D01*
X6136780Y8203987D01*
X6118362Y8195064D01*
X6098604Y8189789D01*
X6087013Y8185438D01*
X5894558Y8090738D01*
X5884039Y8084210D01*
X5867801Y8071772D01*
X5849496Y8062626D01*
X5839018Y8056033D01*
X5669535Y7924570D01*
X5660544Y7916060D01*
X5647133Y7900606D01*
X5631046Y7887969D01*
X5622107Y7879404D01*
X5482522Y7716547D01*
X5475426Y7706404D01*
X5465397Y7688570D01*
X5452177Y7672953D01*
X5445143Y7662767D01*
X5341156Y7475168D01*
X5336245Y7463805D01*
X5330008Y7444320D01*
X5320199Y7426366D01*
X5315357Y7414973D01*
X5251215Y7210294D01*
X5248688Y7198174D01*
X5246497Y7177837D01*
X5240498Y7158277D01*
X5238046Y7146142D01*
X5216370Y6932746D01*
X5216332Y6920367D01*
X5220000Y6881910D01*
X5220001Y1056842D01*
X5217621Y1045063D01*
X5200521Y876732D01*
X5163470Y758498D01*
X5103399Y650127D01*
X5022768Y556053D01*
X4924858Y480107D01*
X4813693Y425407D01*
X4689193Y392978D01*
X4564292Y383367D01*
X4552101Y381211D01*
X4547778Y380000D01*
X2048476Y380000D01*
X2048476Y1151524D01*
X3106190Y1151524D01*
X3118510Y1152737D01*
X3235858Y1176079D01*
X3258789Y1185577D01*
X3363444Y1255505D01*
X3380995Y1273056D01*
X3450923Y1377711D01*
X3460421Y1400642D01*
X3483763Y1517990D01*
X3484976Y1530310D01*
X3484976Y1663390D01*
X3702293Y1774118D01*
X3710735Y1779291D01*
X3923001Y1933512D01*
X3930530Y1939942D01*
X4116058Y2125470D01*
X4122488Y2132999D01*
X4276709Y2345265D01*
X4281882Y2353707D01*
X4400998Y2587486D01*
X4404787Y2596634D01*
X4485866Y2846168D01*
X4488177Y2855796D01*
X4529222Y3114942D01*
X4529999Y3124812D01*
X4529999Y3387188D01*
X4529222Y3397058D01*
X4488177Y3656204D01*
X4485866Y3665832D01*
X4404787Y3915366D01*
X4400998Y3924514D01*
X4281882Y4158293D01*
X4276709Y4166735D01*
X4122488Y4379001D01*
X4116058Y4386530D01*
X3930530Y4572058D01*
X3923001Y4578488D01*
X3710735Y4732709D01*
X3702293Y4737882D01*
X3468514Y4856998D01*
X3459366Y4860787D01*
X3209832Y4941866D01*
X3200204Y4944177D01*
X2941058Y4985222D01*
X2931188Y4985999D01*
X2668812Y4985999D01*
X2658942Y4985222D01*
X2399796Y4944177D01*
X2390168Y4941866D01*
X2140634Y4860787D01*
X2131486Y4856998D01*
X1897707Y4737882D01*
X1889265Y4732709D01*
X1676999Y4578488D01*
X1669470Y4572058D01*
X1483942Y4386530D01*
X1477512Y4379001D01*
X1323291Y4166735D01*
X1318118Y4158293D01*
X1199002Y3924514D01*
X1195213Y3915366D01*
X1114134Y3665832D01*
X1111823Y3656204D01*
X1070778Y3397058D01*
X1070001Y3387188D01*
X1070001Y3124812D01*
X1070778Y3114942D01*
X1111823Y2855796D01*
X1114134Y2846168D01*
X1151524Y2731094D01*
X1151524Y2048476D01*
X380000Y2048476D01*
X380000Y23100501D01*
X2438163Y23100501D01*
X2438163Y23001809D01*
X2511972Y22928000D01*
X3198191Y22927999D01*
X3272000Y23001808D01*
X3272000Y23001809D01*
X3527999Y23001809D01*
X3601808Y22928000D01*
X4288028Y22927999D01*
X4361837Y23001808D01*
X4361837Y23103258D01*
X4359681Y23119634D01*
X4284863Y23398858D01*
X4272120Y23423338D01*
X4141010Y23579590D01*
X4124121Y23593761D01*
X3949880Y23694359D01*
X3929163Y23701900D01*
X3736462Y23735878D01*
X3725501Y23736837D01*
X3601809Y23736837D01*
X3528000Y23663028D01*
X3527999Y23001809D01*
X3272000Y23001809D01*
X3272001Y23663028D01*
X3198192Y23736837D01*
X3071742Y23736837D01*
X3055366Y23734681D01*
X2776142Y23659863D01*
X2751662Y23647120D01*
X2595410Y23516010D01*
X2581239Y23499121D01*
X2480641Y23324880D01*
X2473100Y23304163D01*
X2439122Y23111462D01*
X2438163Y23100501D01*
X380000Y23100501D01*
X380000Y24448192D01*
X4035776Y24448192D01*
X4035776Y24270817D01*
X4037220Y24257387D01*
X4110255Y23921647D01*
X4118885Y23900813D01*
X4247696Y23700380D01*
X4259499Y23686759D01*
X4437849Y23532217D01*
X4453011Y23522473D01*
X4667677Y23424439D01*
X4684970Y23419361D01*
X4914094Y23386418D01*
X4923071Y23385776D01*
X5348191Y23385776D01*
X5422000Y23459585D01*
X5422001Y24448191D01*
X5348192Y24522000D01*
X4109585Y24522001D01*
X4035776Y24448192D01*
X380000Y24448192D01*
X380000Y25026929D01*
X4035776Y25026929D01*
X4035776Y24851809D01*
X4109585Y24778000D01*
X5348191Y24777999D01*
X5422000Y24851808D01*
X5422001Y25840415D01*
X5348192Y25914224D01*
X4920817Y25914224D01*
X4907387Y25912780D01*
X4571647Y25839745D01*
X4550813Y25831115D01*
X4350380Y25702304D01*
X4336759Y25690501D01*
X4182217Y25512151D01*
X4172473Y25496989D01*
X4074439Y25282323D01*
X4069361Y25265030D01*
X4036418Y25035906D01*
X4035776Y25026929D01*
X380000Y25026929D01*
X380000Y30198192D01*
X2133163Y30198192D01*
X2133163Y29516742D01*
X2135319Y29500366D01*
X2210137Y29221141D01*
X2222880Y29196661D01*
X2353990Y29040410D01*
X2370879Y29026239D01*
X2545120Y28925641D01*
X2565837Y28918100D01*
X2758538Y28884122D01*
X2769499Y28883163D01*
X3198191Y28883163D01*
X3272000Y28956972D01*
X3527999Y28956972D01*
X3601808Y28883163D01*
X4033258Y28883163D01*
X4049634Y28885319D01*
X4328859Y28960137D01*
X4353339Y28972880D01*
X4509590Y29103990D01*
X4523761Y29120879D01*
X4624359Y29295120D01*
X4631900Y29315837D01*
X4665878Y29508538D01*
X4666837Y29519499D01*
X4666837Y30198191D01*
X4593028Y30272000D01*
X3601809Y30272001D01*
X3528000Y30198192D01*
X3527999Y28956972D01*
X3272000Y28956972D01*
X3272001Y30198191D01*
X3198192Y30272000D01*
X2206972Y30272001D01*
X2133163Y30198192D01*
X380000Y30198192D01*
X380000Y31280501D01*
X2133163Y31280501D01*
X2133163Y30601809D01*
X2206972Y30528000D01*
X3198191Y30527999D01*
X3272000Y30601808D01*
X3272000Y30601809D01*
X3527999Y30601809D01*
X3601808Y30528000D01*
X4593028Y30527999D01*
X4666837Y30601808D01*
X4666837Y31283258D01*
X4664681Y31299634D01*
X4589863Y31578858D01*
X4577120Y31603338D01*
X4446010Y31759590D01*
X4429121Y31773761D01*
X4254880Y31874359D01*
X4234163Y31881900D01*
X4041462Y31915878D01*
X4030501Y31916837D01*
X3601809Y31916837D01*
X3528000Y31843028D01*
X3527999Y30601809D01*
X3272000Y30601809D01*
X3272001Y31843028D01*
X3198192Y31916837D01*
X2766742Y31916837D01*
X2750366Y31914681D01*
X2471142Y31839863D01*
X2446662Y31827120D01*
X2290410Y31696010D01*
X2276239Y31679121D01*
X2175641Y31504880D01*
X2168100Y31484163D01*
X2134122Y31291462D01*
X2133163Y31280501D01*
X380000Y31280501D01*
X380000Y37097524D01*
X1295524Y37097524D01*
X1295524Y36039810D01*
X1296737Y36027490D01*
X1320079Y35910142D01*
X1329577Y35887211D01*
X1399505Y35782556D01*
X1417056Y35765005D01*
X1521711Y35695077D01*
X1544642Y35685579D01*
X1661990Y35662237D01*
X1674310Y35661024D01*
X1813690Y35661024D01*
X1826010Y35662237D01*
X1943358Y35685579D01*
X1966289Y35695077D01*
X2070944Y35765005D01*
X2088495Y35782556D01*
X2158423Y35887211D01*
X2167921Y35910142D01*
X2191263Y36027490D01*
X2192476Y36039810D01*
X2192476Y37097524D01*
X3250190Y37097524D01*
X3262510Y37098737D01*
X3379858Y37122079D01*
X3402789Y37131577D01*
X3507444Y37201505D01*
X3524995Y37219056D01*
X3594923Y37323711D01*
X3604421Y37346642D01*
X3627763Y37463990D01*
X3628976Y37476310D01*
X3628976Y37615690D01*
X3627763Y37628010D01*
X3604421Y37745358D01*
X3594923Y37768289D01*
X3524995Y37872944D01*
X3507444Y37890495D01*
X3402789Y37960423D01*
X3379858Y37969921D01*
X3262510Y37993263D01*
X3250190Y37994476D01*
X2192476Y37994476D01*
X2192476Y39020000D01*
X34315524Y39020000D01*
X34315524Y37994476D01*
G36*
X36320000Y2048476D02*
G01*
X35548476Y2048476D01*
X35548476Y3106190D01*
X35547263Y3118510D01*
X35523921Y3235858D01*
X35514423Y3258789D01*
X35479999Y3310308D01*
X35479999Y3387188D01*
X35479222Y3397058D01*
X35438177Y3656204D01*
X35435866Y3665832D01*
X35354787Y3915366D01*
X35350998Y3924514D01*
X35231882Y4158293D01*
X35226709Y4166735D01*
X35072488Y4379001D01*
X35066058Y4386530D01*
X34880530Y4572058D01*
X34873001Y4578488D01*
X34660735Y4732709D01*
X34652293Y4737882D01*
X34418514Y4856998D01*
X34409366Y4860787D01*
X34159832Y4941866D01*
X34150204Y4944177D01*
X33891058Y4985222D01*
X33881188Y4985999D01*
X33618812Y4985999D01*
X33608942Y4985222D01*
X33349796Y4944177D01*
X33340168Y4941866D01*
X33090634Y4860787D01*
X33081486Y4856998D01*
X32847707Y4737882D01*
X32839265Y4732709D01*
X32626999Y4578488D01*
X32619470Y4572058D01*
X32433942Y4386530D01*
X32427512Y4379001D01*
X32273291Y4166735D01*
X32268118Y4158293D01*
X32149002Y3924514D01*
X32145213Y3915366D01*
X32064134Y3665832D01*
X32061823Y3656204D01*
X32020778Y3397058D01*
X32020001Y3387188D01*
X32020001Y3124812D01*
X32020778Y3114942D01*
X32061823Y2855796D01*
X32064134Y2846168D01*
X32145213Y2596634D01*
X32149002Y2587486D01*
X32268118Y2353707D01*
X32273291Y2345265D01*
X32427512Y2132999D01*
X32433942Y2125470D01*
X32619470Y1939942D01*
X32626999Y1933512D01*
X32839265Y1779291D01*
X32847707Y1774118D01*
X33081486Y1655002D01*
X33090634Y1651213D01*
X33215024Y1610796D01*
X33215024Y1530310D01*
X33216237Y1517990D01*
X33239579Y1400642D01*
X33249077Y1377711D01*
X33319005Y1273056D01*
X33336556Y1255505D01*
X33441211Y1185577D01*
X33464142Y1176079D01*
X33581490Y1152737D01*
X33593810Y1151524D01*
X34651524Y1151524D01*
X34651524Y380000D01*
X31856836Y380000D01*
X31845063Y382379D01*
X31676732Y399479D01*
X31558498Y436530D01*
X31450127Y496601D01*
X31356053Y577232D01*
X31280107Y675142D01*
X31225407Y786307D01*
X31192978Y910807D01*
X31183367Y1035708D01*
X31181211Y1047899D01*
X31180000Y1052222D01*
X31180000Y6877254D01*
X31184052Y6910987D01*
X31184317Y6923364D01*
X31171595Y7088694D01*
X31169440Y7100884D01*
X31165185Y7116071D01*
X31164264Y7131809D01*
X31162333Y7144036D01*
X31108267Y7351603D01*
X31103987Y7363220D01*
X31095064Y7381638D01*
X31089789Y7401396D01*
X31085438Y7412987D01*
X30990738Y7605442D01*
X30984210Y7615961D01*
X30971772Y7632199D01*
X30962626Y7650504D01*
X30956033Y7660982D01*
X30824570Y7830465D01*
X30816060Y7839456D01*
X30800606Y7852867D01*
X30787969Y7868954D01*
X30779404Y7877893D01*
X30616547Y8017478D01*
X30606404Y8024574D01*
X30588570Y8034603D01*
X30572953Y8047823D01*
X30562767Y8054857D01*
X30375168Y8158844D01*
X30363805Y8163755D01*
X30344320Y8169992D01*
X30326366Y8179801D01*
X30314973Y8184643D01*
X30110294Y8248785D01*
X30098174Y8251312D01*
X30077837Y8253503D01*
X30058277Y8259502D01*
X30046142Y8261954D01*
X29832746Y8283630D01*
X29820367Y8283668D01*
X29781910Y8280000D01*
X29322746Y8280000D01*
X29289013Y8284052D01*
X29276636Y8284317D01*
X29111306Y8271595D01*
X29099116Y8269440D01*
X29083929Y8265185D01*
X29068191Y8264264D01*
X29055964Y8262333D01*
X28848397Y8208267D01*
X28836780Y8203987D01*
X28818362Y8195064D01*
X28798604Y8189789D01*
X28787013Y8185438D01*
X28616200Y8101387D01*
X28616200Y8519990D01*
X28614987Y8532311D01*
X28592023Y8647755D01*
X28582525Y8670686D01*
X28513676Y8773725D01*
X28496125Y8791276D01*
X28393086Y8860125D01*
X28370155Y8869623D01*
X28254711Y8892587D01*
X28242390Y8893800D01*
X27634976Y8893800D01*
X27634976Y9098192D01*
X31560776Y9098192D01*
X31560776Y7795817D01*
X31562220Y7782387D01*
X31635255Y7446647D01*
X31643885Y7425813D01*
X31772696Y7225380D01*
X31784499Y7211759D01*
X31962849Y7057217D01*
X31978011Y7047473D01*
X32192677Y6949439D01*
X32209970Y6944361D01*
X32439094Y6911418D01*
X32448071Y6910776D01*
X32798191Y6910776D01*
X32872000Y6984585D01*
X33127999Y6984585D01*
X33201808Y6910776D01*
X33554183Y6910776D01*
X33567613Y6912220D01*
X33903353Y6985255D01*
X33924187Y6993885D01*
X34124620Y7122696D01*
X34138241Y7134499D01*
X34292783Y7312849D01*
X34302527Y7328011D01*
X34400561Y7542677D01*
X34405639Y7559970D01*
X34438582Y7789094D01*
X34439224Y7798071D01*
X34439224Y9098191D01*
X34365415Y9172000D01*
X33201809Y9172001D01*
X33128000Y9098192D01*
X33127999Y6984585D01*
X32872000Y6984585D01*
X32872001Y9098191D01*
X32798192Y9172000D01*
X31634585Y9172001D01*
X31560776Y9098192D01*
X27634976Y9098192D01*
X27634976Y9118000D01*
X27791236Y9118000D01*
X27820715Y9113331D01*
X27833904Y9112640D01*
X27936169Y9118000D01*
X27969120Y9118000D01*
X27975710Y9118345D01*
X28008487Y9121790D01*
X28110751Y9127149D01*
X28123795Y9129215D01*
X28152625Y9136940D01*
X28182314Y9140061D01*
X28195231Y9142806D01*
X28292638Y9174455D01*
X28391579Y9200967D01*
X28403907Y9205700D01*
X28430499Y9219249D01*
X28458892Y9228475D01*
X28470957Y9233846D01*
X28559670Y9285066D01*
X28650920Y9331560D01*
X28661996Y9338753D01*
X28685188Y9357533D01*
X28711044Y9372461D01*
X28721728Y9380223D01*
X28797852Y9448766D01*
X28823443Y9469489D01*
X28828346Y9473905D01*
X28851613Y9497172D01*
X28927749Y9565725D01*
X28936586Y9575540D01*
X28954134Y9599693D01*
X30156370Y10801929D01*
X31560776Y10801929D01*
X31560776Y9501809D01*
X31634585Y9428000D01*
X32798191Y9427999D01*
X32872000Y9501808D01*
X32872000Y9501809D01*
X33127999Y9501809D01*
X33201808Y9428000D01*
X34365415Y9427999D01*
X34439224Y9501808D01*
X34439224Y10804183D01*
X34437780Y10817613D01*
X34364745Y11153353D01*
X34356115Y11174187D01*
X34227304Y11374620D01*
X34215501Y11388241D01*
X34037151Y11542783D01*
X34021989Y11552527D01*
X33807323Y11650561D01*
X33790030Y11655639D01*
X33560906Y11688582D01*
X33551929Y11689224D01*
X33201809Y11689224D01*
X33128000Y11615415D01*
X33127999Y9501809D01*
X32872000Y9501809D01*
X32872001Y11615415D01*
X32798192Y11689224D01*
X32445817Y11689224D01*
X32432387Y11687780D01*
X32096647Y11614745D01*
X32075813Y11606115D01*
X31875380Y11477304D01*
X31861759Y11465501D01*
X31707217Y11287151D01*
X31697473Y11271989D01*
X31599439Y11057323D01*
X31594361Y11040030D01*
X31561418Y10810906D01*
X31560776Y10801929D01*
X30156370Y10801929D01*
X32058879Y12704437D01*
X32225367Y12608315D01*
X32246084Y12600774D01*
X32437395Y12567041D01*
X32448356Y12566082D01*
X33554401Y12566082D01*
X33570777Y12568238D01*
X33847971Y12642512D01*
X33872451Y12655255D01*
X34027621Y12785458D01*
X34041792Y12802347D01*
X34141685Y12975367D01*
X34149226Y12996084D01*
X34182959Y13187395D01*
X34183918Y13198356D01*
X34183918Y13929476D01*
X34771024Y14516581D01*
X34795170Y14534124D01*
X34804985Y14542961D01*
X34873529Y14619087D01*
X34896805Y14642363D01*
X34901221Y14647266D01*
X34921945Y14672859D01*
X34990487Y14748982D01*
X34998249Y14759666D01*
X35013177Y14785521D01*
X35031958Y14808713D01*
X35039150Y14819789D01*
X35085650Y14911048D01*
X35136864Y14999754D01*
X35142236Y15011819D01*
X35151459Y15040206D01*
X35165010Y15066801D01*
X35169743Y15079130D01*
X35196254Y15178072D01*
X35227904Y15275479D01*
X35230650Y15288398D01*
X35233770Y15318084D01*
X35241495Y15346912D01*
X35243561Y15359957D01*
X35248920Y15462223D01*
X35252365Y15494999D01*
X35252710Y15501590D01*
X35252710Y15534540D01*
X35258070Y15636806D01*
X35257379Y15649995D01*
X35252710Y15679474D01*
X35252710Y17298268D01*
X35350310Y17395868D01*
X35374460Y17413414D01*
X35384275Y17422251D01*
X35452818Y17498376D01*
X35476097Y17521654D01*
X35480513Y17526559D01*
X35501231Y17552144D01*
X35569777Y17628272D01*
X35577540Y17638957D01*
X35592468Y17664813D01*
X35611247Y17688003D01*
X35618440Y17699079D01*
X35664937Y17790333D01*
X35716154Y17879044D01*
X35721526Y17891109D01*
X35730749Y17919496D01*
X35744300Y17946091D01*
X35749033Y17958420D01*
X35775544Y18057362D01*
X35807194Y18154769D01*
X35809940Y18167688D01*
X35813060Y18197374D01*
X35820785Y18226202D01*
X35822851Y18239247D01*
X35828210Y18341513D01*
X35831655Y18374289D01*
X35832000Y18380880D01*
X35832000Y18413830D01*
X35837360Y18516096D01*
X35836669Y18529285D01*
X35832000Y18558764D01*
X35832000Y26215024D01*
X36006190Y26215024D01*
X36018510Y26216237D01*
X36135858Y26239579D01*
X36158789Y26249077D01*
X36263444Y26319005D01*
X36280995Y26336556D01*
X36320001Y26394932D01*
X36320000Y2048476D01*
G37*
X36320000Y2048476D02*
X35548476Y2048476D01*
X35548476Y3106190D01*
X35547263Y3118510D01*
X35523921Y3235858D01*
X35514423Y3258789D01*
X35479999Y3310308D01*
X35479999Y3387188D01*
X35479222Y3397058D01*
X35438177Y3656204D01*
X35435866Y3665832D01*
X35354787Y3915366D01*
X35350998Y3924514D01*
X35231882Y4158293D01*
X35226709Y4166735D01*
X35072488Y4379001D01*
X35066058Y4386530D01*
X34880530Y4572058D01*
X34873001Y4578488D01*
X34660735Y4732709D01*
X34652293Y4737882D01*
X34418514Y4856998D01*
X34409366Y4860787D01*
X34159832Y4941866D01*
X34150204Y4944177D01*
X33891058Y4985222D01*
X33881188Y4985999D01*
X33618812Y4985999D01*
X33608942Y4985222D01*
X33349796Y4944177D01*
X33340168Y4941866D01*
X33090634Y4860787D01*
X33081486Y4856998D01*
X32847707Y4737882D01*
X32839265Y4732709D01*
X32626999Y4578488D01*
X32619470Y4572058D01*
X32433942Y4386530D01*
X32427512Y4379001D01*
X32273291Y4166735D01*
X32268118Y4158293D01*
X32149002Y3924514D01*
X32145213Y3915366D01*
X32064134Y3665832D01*
X32061823Y3656204D01*
X32020778Y3397058D01*
X32020001Y3387188D01*
X32020001Y3124812D01*
X32020778Y3114942D01*
X32061823Y2855796D01*
X32064134Y2846168D01*
X32145213Y2596634D01*
X32149002Y2587486D01*
X32268118Y2353707D01*
X32273291Y2345265D01*
X32427512Y2132999D01*
X32433942Y2125470D01*
X32619470Y1939942D01*
X32626999Y1933512D01*
X32839265Y1779291D01*
X32847707Y1774118D01*
X33081486Y1655002D01*
X33090634Y1651213D01*
X33215024Y1610796D01*
X33215024Y1530310D01*
X33216237Y1517990D01*
X33239579Y1400642D01*
X33249077Y1377711D01*
X33319005Y1273056D01*
X33336556Y1255505D01*
X33441211Y1185577D01*
X33464142Y1176079D01*
X33581490Y1152737D01*
X33593810Y1151524D01*
X34651524Y1151524D01*
X34651524Y380000D01*
X31856836Y380000D01*
X31845063Y382379D01*
X31676732Y399479D01*
X31558498Y436530D01*
X31450127Y496601D01*
X31356053Y577232D01*
X31280107Y675142D01*
X31225407Y786307D01*
X31192978Y910807D01*
X31183367Y1035708D01*
X31181211Y1047899D01*
X31180000Y1052222D01*
X31180000Y6877254D01*
X31184052Y6910987D01*
X31184317Y6923364D01*
X31171595Y7088694D01*
X31169440Y7100884D01*
X31165185Y7116071D01*
X31164264Y7131809D01*
X31162333Y7144036D01*
X31108267Y7351603D01*
X31103987Y7363220D01*
X31095064Y7381638D01*
X31089789Y7401396D01*
X31085438Y7412987D01*
X30990738Y7605442D01*
X30984210Y7615961D01*
X30971772Y7632199D01*
X30962626Y7650504D01*
X30956033Y7660982D01*
X30824570Y7830465D01*
X30816060Y7839456D01*
X30800606Y7852867D01*
X30787969Y7868954D01*
X30779404Y7877893D01*
X30616547Y8017478D01*
X30606404Y8024574D01*
X30588570Y8034603D01*
X30572953Y8047823D01*
X30562767Y8054857D01*
X30375168Y8158844D01*
X30363805Y8163755D01*
X30344320Y8169992D01*
X30326366Y8179801D01*
X30314973Y8184643D01*
X30110294Y8248785D01*
X30098174Y8251312D01*
X30077837Y8253503D01*
X30058277Y8259502D01*
X30046142Y8261954D01*
X29832746Y8283630D01*
X29820367Y8283668D01*
X29781910Y8280000D01*
X29322746Y8280000D01*
X29289013Y8284052D01*
X29276636Y8284317D01*
X29111306Y8271595D01*
X29099116Y8269440D01*
X29083929Y8265185D01*
X29068191Y8264264D01*
X29055964Y8262333D01*
X28848397Y8208267D01*
X28836780Y8203987D01*
X28818362Y8195064D01*
X28798604Y8189789D01*
X28787013Y8185438D01*
X28616200Y8101387D01*
X28616200Y8519990D01*
X28614987Y8532311D01*
X28592023Y8647755D01*
X28582525Y8670686D01*
X28513676Y8773725D01*
X28496125Y8791276D01*
X28393086Y8860125D01*
X28370155Y8869623D01*
X28254711Y8892587D01*
X28242390Y8893800D01*
X27634976Y8893800D01*
X27634976Y9098192D01*
X31560776Y9098192D01*
X31560776Y7795817D01*
X31562220Y7782387D01*
X31635255Y7446647D01*
X31643885Y7425813D01*
X31772696Y7225380D01*
X31784499Y7211759D01*
X31962849Y7057217D01*
X31978011Y7047473D01*
X32192677Y6949439D01*
X32209970Y6944361D01*
X32439094Y6911418D01*
X32448071Y6910776D01*
X32798191Y6910776D01*
X32872000Y6984585D01*
X33127999Y6984585D01*
X33201808Y6910776D01*
X33554183Y6910776D01*
X33567613Y6912220D01*
X33903353Y6985255D01*
X33924187Y6993885D01*
X34124620Y7122696D01*
X34138241Y7134499D01*
X34292783Y7312849D01*
X34302527Y7328011D01*
X34400561Y7542677D01*
X34405639Y7559970D01*
X34438582Y7789094D01*
X34439224Y7798071D01*
X34439224Y9098191D01*
X34365415Y9172000D01*
X33201809Y9172001D01*
X33128000Y9098192D01*
X33127999Y6984585D01*
X32872000Y6984585D01*
X32872001Y9098191D01*
X32798192Y9172000D01*
X31634585Y9172001D01*
X31560776Y9098192D01*
X27634976Y9098192D01*
X27634976Y9118000D01*
X27791236Y9118000D01*
X27820715Y9113331D01*
X27833904Y9112640D01*
X27936169Y9118000D01*
X27969120Y9118000D01*
X27975710Y9118345D01*
X28008487Y9121790D01*
X28110751Y9127149D01*
X28123795Y9129215D01*
X28152625Y9136940D01*
X28182314Y9140061D01*
X28195231Y9142806D01*
X28292638Y9174455D01*
X28391579Y9200967D01*
X28403907Y9205700D01*
X28430499Y9219249D01*
X28458892Y9228475D01*
X28470957Y9233846D01*
X28559670Y9285066D01*
X28650920Y9331560D01*
X28661996Y9338753D01*
X28685188Y9357533D01*
X28711044Y9372461D01*
X28721728Y9380223D01*
X28797852Y9448766D01*
X28823443Y9469489D01*
X28828346Y9473905D01*
X28851613Y9497172D01*
X28927749Y9565725D01*
X28936586Y9575540D01*
X28954134Y9599693D01*
X30156370Y10801929D01*
X31560776Y10801929D01*
X31560776Y9501809D01*
X31634585Y9428000D01*
X32798191Y9427999D01*
X32872000Y9501808D01*
X32872000Y9501809D01*
X33127999Y9501809D01*
X33201808Y9428000D01*
X34365415Y9427999D01*
X34439224Y9501808D01*
X34439224Y10804183D01*
X34437780Y10817613D01*
X34364745Y11153353D01*
X34356115Y11174187D01*
X34227304Y11374620D01*
X34215501Y11388241D01*
X34037151Y11542783D01*
X34021989Y11552527D01*
X33807323Y11650561D01*
X33790030Y11655639D01*
X33560906Y11688582D01*
X33551929Y11689224D01*
X33201809Y11689224D01*
X33128000Y11615415D01*
X33127999Y9501809D01*
X32872000Y9501809D01*
X32872001Y11615415D01*
X32798192Y11689224D01*
X32445817Y11689224D01*
X32432387Y11687780D01*
X32096647Y11614745D01*
X32075813Y11606115D01*
X31875380Y11477304D01*
X31861759Y11465501D01*
X31707217Y11287151D01*
X31697473Y11271989D01*
X31599439Y11057323D01*
X31594361Y11040030D01*
X31561418Y10810906D01*
X31560776Y10801929D01*
X30156370Y10801929D01*
X32058879Y12704437D01*
X32225367Y12608315D01*
X32246084Y12600774D01*
X32437395Y12567041D01*
X32448356Y12566082D01*
X33554401Y12566082D01*
X33570777Y12568238D01*
X33847971Y12642512D01*
X33872451Y12655255D01*
X34027621Y12785458D01*
X34041792Y12802347D01*
X34141685Y12975367D01*
X34149226Y12996084D01*
X34182959Y13187395D01*
X34183918Y13198356D01*
X34183918Y13929476D01*
X34771024Y14516581D01*
X34795170Y14534124D01*
X34804985Y14542961D01*
X34873529Y14619087D01*
X34896805Y14642363D01*
X34901221Y14647266D01*
X34921945Y14672859D01*
X34990487Y14748982D01*
X34998249Y14759666D01*
X35013177Y14785521D01*
X35031958Y14808713D01*
X35039150Y14819789D01*
X35085650Y14911048D01*
X35136864Y14999754D01*
X35142236Y15011819D01*
X35151459Y15040206D01*
X35165010Y15066801D01*
X35169743Y15079130D01*
X35196254Y15178072D01*
X35227904Y15275479D01*
X35230650Y15288398D01*
X35233770Y15318084D01*
X35241495Y15346912D01*
X35243561Y15359957D01*
X35248920Y15462223D01*
X35252365Y15494999D01*
X35252710Y15501590D01*
X35252710Y15534540D01*
X35258070Y15636806D01*
X35257379Y15649995D01*
X35252710Y15679474D01*
X35252710Y17298268D01*
X35350310Y17395868D01*
X35374460Y17413414D01*
X35384275Y17422251D01*
X35452818Y17498376D01*
X35476097Y17521654D01*
X35480513Y17526559D01*
X35501231Y17552144D01*
X35569777Y17628272D01*
X35577540Y17638957D01*
X35592468Y17664813D01*
X35611247Y17688003D01*
X35618440Y17699079D01*
X35664937Y17790333D01*
X35716154Y17879044D01*
X35721526Y17891109D01*
X35730749Y17919496D01*
X35744300Y17946091D01*
X35749033Y17958420D01*
X35775544Y18057362D01*
X35807194Y18154769D01*
X35809940Y18167688D01*
X35813060Y18197374D01*
X35820785Y18226202D01*
X35822851Y18239247D01*
X35828210Y18341513D01*
X35831655Y18374289D01*
X35832000Y18380880D01*
X35832000Y18413830D01*
X35837360Y18516096D01*
X35836669Y18529285D01*
X35832000Y18558764D01*
X35832000Y26215024D01*
X36006190Y26215024D01*
X36018510Y26216237D01*
X36135858Y26239579D01*
X36158789Y26249077D01*
X36263444Y26319005D01*
X36280995Y26336556D01*
X36320001Y26394932D01*
X36320000Y2048476D01*
G36*
X16997157Y9677994D02*
G01*
X17013202Y9666337D01*
X17054454Y9645319D01*
X17091905Y9618108D01*
X17109576Y9609104D01*
X17153604Y9594799D01*
X17194856Y9573780D01*
X17213718Y9567652D01*
X17259443Y9560409D01*
X17303473Y9546103D01*
X17323061Y9543000D01*
X17772995Y9543000D01*
X17794006Y9511555D01*
X17811556Y9494005D01*
X17916211Y9424077D01*
X17939141Y9414579D01*
X17945801Y9413254D01*
X17945800Y6126000D01*
X17136400Y6126000D01*
X17136400Y6799575D01*
X17143405Y6834790D01*
X17143405Y6859611D01*
X17130004Y6926982D01*
X17110809Y7023481D01*
X17101311Y7046412D01*
X17052295Y7119768D01*
X17035328Y7145162D01*
X17035327Y7145163D01*
X17008484Y7185336D01*
X16990934Y7202886D01*
X16961081Y7222833D01*
X16733600Y7450313D01*
X16733600Y9941551D01*
X16997157Y9677994D01*
G37*
X16997157Y9677994D02*
X17013202Y9666337D01*
X17054454Y9645319D01*
X17091905Y9618108D01*
X17109576Y9609104D01*
X17153604Y9594799D01*
X17194856Y9573780D01*
X17213718Y9567652D01*
X17259443Y9560409D01*
X17303473Y9546103D01*
X17323061Y9543000D01*
X17772995Y9543000D01*
X17794006Y9511555D01*
X17811556Y9494005D01*
X17916211Y9424077D01*
X17939141Y9414579D01*
X17945801Y9413254D01*
X17945800Y6126000D01*
X17136400Y6126000D01*
X17136400Y6799575D01*
X17143405Y6834790D01*
X17143405Y6859611D01*
X17130004Y6926982D01*
X17110809Y7023481D01*
X17101311Y7046412D01*
X17052295Y7119768D01*
X17035328Y7145162D01*
X17035327Y7145163D01*
X17008484Y7185336D01*
X16990934Y7202886D01*
X16961081Y7222833D01*
X16733600Y7450313D01*
X16733600Y9941551D01*
X16997157Y9677994D01*
G36*
X30951137Y29947973D02*
G01*
X30951502Y29947141D01*
X30986751Y29853858D01*
X30993789Y29840394D01*
X31006439Y29821988D01*
X31015481Y29801391D01*
X31023418Y29788050D01*
X31076263Y29719922D01*
X31078365Y29715849D01*
X31086908Y29703280D01*
X31092171Y29697247D01*
X31140308Y29627207D01*
X31150356Y29615810D01*
X31208075Y29564385D01*
X31256956Y29508352D01*
X31268246Y29498187D01*
X31335151Y29451165D01*
X31343498Y29443728D01*
X31355972Y29435059D01*
X31359794Y29433035D01*
X31428269Y29379344D01*
X31441263Y29371474D01*
X31461615Y29362285D01*
X31479888Y29349443D01*
X31493276Y29342264D01*
X31586172Y29306045D01*
X31677028Y29265022D01*
X31691525Y29260479D01*
X31713478Y29256410D01*
X31734442Y29248237D01*
X31749489Y29244415D01*
X31839659Y29233024D01*
X31945876Y29213338D01*
X31961039Y29212384D01*
X32058437Y29218000D01*
X32177558Y29218000D01*
X32640768Y28754789D01*
X32658311Y28730643D01*
X32667148Y28720828D01*
X32743273Y28652285D01*
X32766550Y28629007D01*
X32771454Y28624591D01*
X32797056Y28603859D01*
X32873169Y28535326D01*
X32883853Y28527564D01*
X32909708Y28512636D01*
X32932900Y28493855D01*
X32943976Y28486663D01*
X33035235Y28440163D01*
X33115024Y28394097D01*
X33115024Y26863609D01*
X33092806Y26795230D01*
X33090060Y26782312D01*
X33068345Y26575708D01*
X33068000Y26569118D01*
X33068000Y25530693D01*
X33068001Y25530675D01*
X33068000Y19022441D01*
X32970401Y18924842D01*
X32946251Y18907296D01*
X32936437Y18898459D01*
X32867901Y18822344D01*
X32844613Y18799055D01*
X32840199Y18794152D01*
X32819468Y18768552D01*
X32750934Y18692438D01*
X32743171Y18681752D01*
X32728247Y18655902D01*
X32709464Y18632708D01*
X32702270Y18621631D01*
X32655767Y18530365D01*
X32604557Y18441666D01*
X32599185Y18429601D01*
X32589963Y18401217D01*
X32576410Y18374618D01*
X32571677Y18362288D01*
X32545163Y18263335D01*
X32513517Y18165941D01*
X32510772Y18153023D01*
X32507652Y18123343D01*
X32499925Y18094506D01*
X32497859Y18081461D01*
X32492499Y17979178D01*
X32489056Y17946420D01*
X32488711Y17939830D01*
X32488711Y17906898D01*
X32483350Y17804614D01*
X32484041Y17791425D01*
X32488711Y17761940D01*
X32488710Y16833918D01*
X32445598Y16833918D01*
X32429223Y16831762D01*
X32152030Y16757488D01*
X32127550Y16744745D01*
X31972379Y16614542D01*
X31958208Y16597653D01*
X31858315Y16424633D01*
X31850774Y16403916D01*
X31817041Y16212605D01*
X31816082Y16201644D01*
X31816082Y16059599D01*
X31804769Y16057194D01*
X31707362Y16025544D01*
X31608420Y15999033D01*
X31596091Y15994300D01*
X31569496Y15980749D01*
X31541109Y15971526D01*
X31529044Y15966154D01*
X31440338Y15914940D01*
X31349079Y15868440D01*
X31338003Y15861248D01*
X31314811Y15842467D01*
X31288956Y15827539D01*
X31278272Y15819777D01*
X31202149Y15751235D01*
X31176556Y15730511D01*
X31171653Y15726095D01*
X31148377Y15702819D01*
X31072251Y15634275D01*
X31063414Y15624460D01*
X31045868Y15600310D01*
X27327559Y11882000D01*
X26530881Y11882000D01*
X26524291Y11881655D01*
X26317687Y11859940D01*
X26304769Y11857194D01*
X26041109Y11771526D01*
X26029044Y11766154D01*
X25788956Y11627540D01*
X25778272Y11619777D01*
X25572251Y11434275D01*
X25563414Y11424460D01*
X25400463Y11200178D01*
X25393860Y11188740D01*
X25281101Y10935479D01*
X25277020Y10922919D01*
X25219381Y10651749D01*
X25218000Y10638614D01*
X25218000Y10361386D01*
X25219381Y10348251D01*
X25277020Y10077081D01*
X25281101Y10064521D01*
X25365024Y9876026D01*
X25365024Y9471891D01*
X25365331Y9465680D01*
X25371584Y9402531D01*
X25376122Y9384471D01*
X25398129Y9331498D01*
X25389580Y9310858D01*
X25373894Y9232000D01*
X24908874Y9232000D01*
X24948511Y9291322D01*
X24958009Y9314252D01*
X24981179Y9430736D01*
X24990605Y9478123D01*
X24990605Y9502943D01*
X24983600Y9538159D01*
X24983600Y13799689D01*
X31058276Y19874363D01*
X31088135Y19894314D01*
X31105686Y19911865D01*
X31198511Y20050789D01*
X31208009Y20073719D01*
X31231179Y20190203D01*
X31240605Y20237590D01*
X31240605Y20262410D01*
X31233600Y20297626D01*
X31233600Y20365024D01*
X31256190Y20365024D01*
X31268510Y20366237D01*
X31385858Y20389579D01*
X31400000Y20395437D01*
X31414142Y20389579D01*
X31531490Y20366237D01*
X31543810Y20365024D01*
X32556190Y20365024D01*
X32568510Y20366237D01*
X32685858Y20389579D01*
X32708789Y20399077D01*
X32813444Y20469005D01*
X32830995Y20486556D01*
X32900923Y20591211D01*
X32910421Y20614142D01*
X32933763Y20731490D01*
X32934976Y20743810D01*
X32934976Y22256190D01*
X32933763Y22268510D01*
X32910421Y22385858D01*
X32900923Y22408789D01*
X32830995Y22513444D01*
X32813444Y22530995D01*
X32708789Y22600923D01*
X32685858Y22610421D01*
X32680616Y22611464D01*
X32678698Y22623275D01*
X32611913Y22818337D01*
X32602023Y22836667D01*
X32475808Y22999383D01*
X32460512Y23013522D01*
X32288395Y23126581D01*
X32269345Y23135003D01*
X32069887Y23186216D01*
X32049136Y23188014D01*
X31843841Y23171856D01*
X31823626Y23166835D01*
X31634634Y23085051D01*
X31617136Y23073753D01*
X31464825Y22935159D01*
X31451930Y22918802D01*
X31352722Y22738346D01*
X31345821Y22718693D01*
X31328902Y22621750D01*
X31268510Y22633763D01*
X31256190Y22634976D01*
X30243810Y22634976D01*
X30231490Y22633763D01*
X30114142Y22610421D01*
X30100000Y22604563D01*
X30085858Y22610421D01*
X29983600Y22630761D01*
X29983600Y23262795D01*
X30096661Y23403918D01*
X30106838Y23422091D01*
X30176678Y23616080D01*
X30180427Y23637075D01*
X30182117Y23852224D01*
X30178698Y23873275D01*
X30111913Y24068337D01*
X30102023Y24086667D01*
X29975808Y24249383D01*
X29960512Y24263522D01*
X29788395Y24376581D01*
X29769345Y24385003D01*
X29569887Y24436216D01*
X29549136Y24438014D01*
X29343841Y24421856D01*
X29323626Y24416835D01*
X29134634Y24335051D01*
X29117136Y24323753D01*
X28964825Y24185159D01*
X28951930Y24168802D01*
X28852722Y23988346D01*
X28845821Y23968693D01*
X28810416Y23765831D01*
X28810252Y23745002D01*
X28842466Y23541609D01*
X28849058Y23521851D01*
X28945419Y23339858D01*
X28958055Y23323300D01*
X29016400Y23268510D01*
X29016401Y22634976D01*
X28943810Y22634976D01*
X28931490Y22633763D01*
X28814142Y22610421D01*
X28791211Y22600923D01*
X28686556Y22530995D01*
X28669005Y22513444D01*
X28599077Y22408789D01*
X28589579Y22385858D01*
X28566237Y22268510D01*
X28565024Y22256190D01*
X28565024Y20743810D01*
X28566237Y20731490D01*
X28589579Y20614142D01*
X28599077Y20591211D01*
X28669005Y20486556D01*
X28686556Y20469005D01*
X28791211Y20399077D01*
X28814142Y20389579D01*
X28931490Y20366237D01*
X28943810Y20365024D01*
X29956190Y20365024D01*
X29968510Y20366237D01*
X30085858Y20389579D01*
X30100000Y20395437D01*
X30114142Y20389579D01*
X30190481Y20374394D01*
X29430188Y19614100D01*
X29428698Y19623275D01*
X29361913Y19818337D01*
X29352023Y19836667D01*
X29225808Y19999383D01*
X29210512Y20013522D01*
X29038395Y20126581D01*
X29019345Y20135003D01*
X28819887Y20186216D01*
X28799136Y20188014D01*
X28593841Y20171856D01*
X28573626Y20166835D01*
X28384634Y20085051D01*
X28367136Y20073753D01*
X28214825Y19935159D01*
X28201930Y19918802D01*
X28102722Y19738346D01*
X28095821Y19718693D01*
X28060416Y19515831D01*
X28060252Y19495002D01*
X28092466Y19291609D01*
X28099058Y19271851D01*
X28195419Y19089858D01*
X28208055Y19073300D01*
X28266401Y19018510D01*
X28266401Y18953222D01*
X23836116Y14522936D01*
X23806253Y14502981D01*
X23788704Y14485431D01*
X23695879Y14346508D01*
X23686381Y14323577D01*
X23676120Y14271991D01*
X23653785Y14159707D01*
X23653785Y14134887D01*
X23660790Y14099672D01*
X23660791Y10344705D01*
X23250254Y9934167D01*
X23136400Y9925206D01*
X23136400Y11702774D01*
X23143405Y11737989D01*
X23143405Y11762810D01*
X23125478Y11852935D01*
X23110809Y11926681D01*
X23101311Y11949612D01*
X23008484Y12088535D01*
X22990934Y12106086D01*
X22961078Y12126035D01*
X22227792Y12859320D01*
X22250125Y12985983D01*
X22174592Y13076000D01*
X21889032Y13076000D01*
X21862997Y13081179D01*
X21815610Y13090605D01*
X21790790Y13090605D01*
X21778030Y13088067D01*
X21758789Y13100923D01*
X21735858Y13110421D01*
X21667594Y13124000D01*
X22168028Y13123999D01*
X22241837Y13197808D01*
X22241837Y13258258D01*
X22239681Y13274634D01*
X22164863Y13553858D01*
X22152120Y13578338D01*
X22021010Y13734590D01*
X22004121Y13748761D01*
X21829880Y13849359D01*
X21809163Y13856900D01*
X21616462Y13890878D01*
X21605501Y13891837D01*
X21357809Y13891837D01*
X21284000Y13818028D01*
X21283999Y13197809D01*
X21346832Y13134976D01*
X21236000Y13134976D01*
X21236001Y13818028D01*
X21162192Y13891837D01*
X20911742Y13891837D01*
X20895366Y13889681D01*
X20616142Y13814863D01*
X20591662Y13802120D01*
X20555572Y13771837D01*
X20101809Y13771837D01*
X20028000Y13698028D01*
X20027999Y12551808D01*
X20028000Y12551807D01*
X20027999Y11220809D01*
X20101808Y11147000D01*
X20215500Y11147000D01*
X20215500Y10451809D01*
X20289309Y10378000D01*
X21093028Y10378000D01*
X21166837Y10451809D01*
X21166837Y10733258D01*
X21164681Y10749634D01*
X21089863Y11028858D01*
X21077120Y11053338D01*
X21067314Y11065024D01*
X21111064Y11065024D01*
X21169201Y11006886D01*
X21169201Y7759558D01*
X21158109Y7770176D01*
X21146271Y7786864D01*
X21138153Y7796211D01*
X20989650Y7936642D01*
X20979864Y7944225D01*
X20962548Y7955109D01*
X20947595Y7969077D01*
X20937763Y7976601D01*
X20764057Y8084303D01*
X20752946Y8089764D01*
X20733791Y8096945D01*
X20716337Y8107620D01*
X20705194Y8113013D01*
X20513377Y8183588D01*
X20501396Y8186703D01*
X20481187Y8189886D01*
X20461943Y8196833D01*
X20449943Y8199875D01*
X20247855Y8230438D01*
X20235493Y8231080D01*
X20215054Y8230134D01*
X20194806Y8233070D01*
X20182440Y8233637D01*
X19978334Y8222940D01*
X19966095Y8221084D01*
X19946265Y8216048D01*
X19925839Y8214852D01*
X19913613Y8212920D01*
X19715826Y8161401D01*
X19704210Y8157121D01*
X19685802Y8148203D01*
X19666032Y8142924D01*
X19654442Y8138573D01*
X19471054Y8048335D01*
X19460534Y8041807D01*
X19444291Y8029365D01*
X19425993Y8020222D01*
X19415514Y8013630D01*
X19359800Y7970414D01*
X19359800Y9210467D01*
X19420120Y9175641D01*
X19440837Y9168100D01*
X19633538Y9134122D01*
X19644499Y9133163D01*
X19885691Y9133163D01*
X19959500Y9206972D01*
X19959500Y10048191D01*
X20215500Y10048191D01*
X20215500Y9206972D01*
X20289309Y9133163D01*
X20533258Y9133163D01*
X20549634Y9135319D01*
X20828859Y9210137D01*
X20853339Y9222880D01*
X21009590Y9353990D01*
X21023761Y9370879D01*
X21124359Y9545120D01*
X21131900Y9565837D01*
X21165878Y9758538D01*
X21166837Y9769499D01*
X21166837Y10048191D01*
X21093028Y10122000D01*
X20289309Y10122000D01*
X20215500Y10048191D01*
X19959500Y10048191D01*
X19959500Y11074191D01*
X19885691Y11148000D01*
X19772000Y11148000D01*
X19772001Y12148191D01*
X19698192Y12222000D01*
X19375809Y12222000D01*
X19302000Y12148191D01*
X19302000Y12076000D01*
X19076089Y12076000D01*
X19040170Y12100000D01*
X19143444Y12169005D01*
X19160995Y12186556D01*
X19230923Y12291211D01*
X19240421Y12314142D01*
X19263763Y12431490D01*
X19264976Y12443810D01*
X19264976Y12477999D01*
X19698191Y12477999D01*
X19772000Y12551808D01*
X19772001Y13698028D01*
X19698192Y13771837D01*
X19166742Y13771837D01*
X19150366Y13769681D01*
X18871142Y13694863D01*
X18846662Y13682120D01*
X18790478Y13634976D01*
X18674692Y13634976D01*
X18611913Y13818337D01*
X18602023Y13836667D01*
X18475808Y13999383D01*
X18460512Y14013522D01*
X18288395Y14126581D01*
X18269345Y14135003D01*
X18069887Y14186216D01*
X18049136Y14188014D01*
X17843841Y14171856D01*
X17823626Y14166835D01*
X17669500Y14100139D01*
X17669500Y15301720D01*
X17678990Y15290410D01*
X17695879Y15276239D01*
X17870120Y15175641D01*
X17890837Y15168100D01*
X18083538Y15134122D01*
X18094499Y15133163D01*
X18335691Y15133163D01*
X18409500Y15206972D01*
X18409500Y16048191D01*
X18665500Y16048191D01*
X18665500Y15206972D01*
X18739309Y15133163D01*
X18983258Y15133163D01*
X18999634Y15135319D01*
X19278859Y15210137D01*
X19303339Y15222880D01*
X19459590Y15353990D01*
X19473761Y15370879D01*
X19574359Y15545120D01*
X19581900Y15565837D01*
X19615878Y15758538D01*
X19616837Y15769499D01*
X19616837Y16048191D01*
X19543028Y16122000D01*
X18739309Y16122000D01*
X18665500Y16048191D01*
X18409500Y16048191D01*
X18409500Y17293028D01*
X18665500Y17293028D01*
X18665500Y16451809D01*
X18739309Y16378000D01*
X19543028Y16378000D01*
X19616837Y16451809D01*
X19616837Y16733258D01*
X19614681Y16749634D01*
X19539863Y17028858D01*
X19527120Y17053338D01*
X19396010Y17209590D01*
X19379121Y17223761D01*
X19204880Y17324359D01*
X19184163Y17331900D01*
X18991462Y17365878D01*
X18980501Y17366837D01*
X18739309Y17366837D01*
X18665500Y17293028D01*
X18409500Y17293028D01*
X18335691Y17366837D01*
X18091742Y17366837D01*
X18075366Y17364681D01*
X17963096Y17334598D01*
X18000923Y17391211D01*
X18010421Y17414142D01*
X18033763Y17531490D01*
X18034976Y17543810D01*
X18034976Y18985317D01*
X18183538Y18959122D01*
X18194499Y18958163D01*
X18852191Y18958163D01*
X18926000Y19031972D01*
X18926001Y19764687D01*
X18960984Y19748262D01*
X18974000Y19744326D01*
X18973999Y19031972D01*
X19047808Y18958163D01*
X19708258Y18958163D01*
X19724634Y18960319D01*
X20003859Y19035137D01*
X20028339Y19047880D01*
X20184590Y19178990D01*
X20198761Y19195879D01*
X20299359Y19370120D01*
X20306900Y19390837D01*
X20340878Y19583538D01*
X20341837Y19594499D01*
X20341837Y19618000D01*
X21308766Y19618000D01*
X21317708Y19618637D01*
X21491114Y19643471D01*
X21508346Y19648510D01*
X21721822Y19745572D01*
X21736946Y19755244D01*
X21914600Y19908320D01*
X21926402Y19921849D01*
X22053952Y20118633D01*
X22061482Y20134931D01*
X22128674Y20359605D01*
X22131328Y20377361D01*
X22132759Y20611863D01*
X22130323Y20629650D01*
X22065882Y20855127D01*
X22060124Y20868000D01*
X22359245Y20868000D01*
X22460458Y20747379D01*
X22477347Y20733208D01*
X22650367Y20633315D01*
X22671084Y20625774D01*
X22862395Y20592041D01*
X22873356Y20591082D01*
X24129401Y20591082D01*
X24145777Y20593238D01*
X24422971Y20667512D01*
X24447451Y20680255D01*
X24602621Y20810458D01*
X24616792Y20827347D01*
X24704349Y20979000D01*
X25206360Y20979000D01*
X25221211Y20969077D01*
X25244141Y20959579D01*
X25361490Y20936237D01*
X25373810Y20935024D01*
X26026190Y20935024D01*
X26038510Y20936237D01*
X26155858Y20959579D01*
X26178789Y20969077D01*
X26283444Y21039005D01*
X26300995Y21056556D01*
X26370923Y21161211D01*
X26380421Y21184142D01*
X26403763Y21301490D01*
X26404976Y21313810D01*
X26404976Y21785404D01*
X26504590Y21868990D01*
X26518761Y21885879D01*
X26619359Y22060120D01*
X26626900Y22080837D01*
X26660878Y22273538D01*
X26661837Y22284499D01*
X26661837Y22383191D01*
X26588028Y22457000D01*
X25901808Y22457001D01*
X25901807Y22457000D01*
X24811972Y22457001D01*
X24738163Y22383192D01*
X24738163Y22281742D01*
X24740319Y22265366D01*
X24744168Y22251000D01*
X24688375Y22251000D01*
X24682488Y22272970D01*
X24669745Y22297450D01*
X24539542Y22452621D01*
X24522653Y22466792D01*
X24349633Y22566685D01*
X24328916Y22574226D01*
X24137605Y22607959D01*
X24126644Y22608918D01*
X23571628Y22608918D01*
X23549832Y22617089D01*
X23532298Y22620944D01*
X23438922Y22627884D01*
X23416018Y22631307D01*
X23406693Y22632000D01*
X23383525Y22632000D01*
X23298438Y22638324D01*
X23280526Y22637103D01*
X23256621Y22632000D01*
X22010128Y22632000D01*
X22011482Y22634931D01*
X22078674Y22859605D01*
X22081328Y22877361D01*
X22081377Y22885501D01*
X24738163Y22885501D01*
X24738163Y22786809D01*
X24811972Y22713000D01*
X25498191Y22712999D01*
X25572000Y22786808D01*
X25572000Y22786809D01*
X25827999Y22786809D01*
X25901808Y22713000D01*
X26588028Y22712999D01*
X26661837Y22786808D01*
X26661837Y22888258D01*
X26659681Y22904634D01*
X26584863Y23183858D01*
X26572120Y23208338D01*
X26441010Y23364590D01*
X26424121Y23378761D01*
X26249880Y23479359D01*
X26229163Y23486900D01*
X26036462Y23520878D01*
X26025501Y23521837D01*
X25901809Y23521837D01*
X25828000Y23448028D01*
X25827999Y22786809D01*
X25572000Y22786809D01*
X25572001Y23448028D01*
X25498192Y23521837D01*
X25371742Y23521837D01*
X25355366Y23519681D01*
X25076142Y23444863D01*
X25051662Y23432120D01*
X24895410Y23301010D01*
X24881239Y23284121D01*
X24780641Y23109880D01*
X24773100Y23089163D01*
X24739122Y22896462D01*
X24738163Y22885501D01*
X22081377Y22885501D01*
X22082759Y23111863D01*
X22080323Y23129650D01*
X22030768Y23303042D01*
X22059925Y23322524D01*
X22077476Y23340075D01*
X22146325Y23443114D01*
X22155823Y23466045D01*
X22163341Y23503838D01*
X22197696Y23450380D01*
X22209499Y23436759D01*
X22387849Y23282217D01*
X22403011Y23272473D01*
X22617677Y23174439D01*
X22634970Y23169361D01*
X22864094Y23136418D01*
X22873071Y23135776D01*
X23298191Y23135776D01*
X23372000Y23209585D01*
X23627999Y23209585D01*
X23701808Y23135776D01*
X24129183Y23135776D01*
X24142613Y23137220D01*
X24478353Y23210255D01*
X24499187Y23218885D01*
X24699620Y23347696D01*
X24713241Y23359499D01*
X24867783Y23537849D01*
X24877527Y23553011D01*
X24975561Y23767677D01*
X24980639Y23784970D01*
X25013582Y24014094D01*
X25014224Y24023071D01*
X25014224Y24198191D01*
X24940415Y24272000D01*
X23701809Y24272001D01*
X23628000Y24198192D01*
X23627999Y23209585D01*
X23372000Y23209585D01*
X23372001Y24198192D01*
X23372000Y24198193D01*
X23372000Y24601809D01*
X23627999Y24601809D01*
X23701808Y24528000D01*
X24940415Y24527999D01*
X25014224Y24601808D01*
X25014224Y24779183D01*
X25012780Y24792613D01*
X24939745Y25128353D01*
X24931115Y25149187D01*
X24802304Y25349620D01*
X24790501Y25363241D01*
X24612151Y25517783D01*
X24596989Y25527527D01*
X24382323Y25625561D01*
X24365030Y25630639D01*
X24135906Y25663582D01*
X24126929Y25664224D01*
X23701809Y25664224D01*
X23628000Y25590415D01*
X23627999Y24601809D01*
X23372000Y24601809D01*
X23372001Y25590415D01*
X23298192Y25664224D01*
X22870817Y25664224D01*
X22857387Y25662780D01*
X22521647Y25589745D01*
X22500813Y25581115D01*
X22300380Y25452304D01*
X22286759Y25440501D01*
X22180000Y25317295D01*
X22180000Y26406190D01*
X22178787Y26418511D01*
X22155823Y26533955D01*
X22146325Y26556886D01*
X22132000Y26578324D01*
X22132000Y27298192D01*
X28858163Y27298192D01*
X28858163Y26591742D01*
X28860319Y26575366D01*
X28935137Y26296141D01*
X28947880Y26271661D01*
X29078990Y26115410D01*
X29095879Y26101239D01*
X29270120Y26000641D01*
X29290837Y25993100D01*
X29483538Y25959122D01*
X29494499Y25958163D01*
X30548191Y25958163D01*
X30622000Y26031972D01*
X30877999Y26031972D01*
X30951808Y25958163D01*
X32008258Y25958163D01*
X32024634Y25960319D01*
X32303859Y26035137D01*
X32328339Y26047880D01*
X32484590Y26178990D01*
X32498761Y26195879D01*
X32599359Y26370120D01*
X32606900Y26390837D01*
X32640878Y26583538D01*
X32641837Y26594499D01*
X32641837Y27298191D01*
X32568028Y27372000D01*
X30951809Y27372001D01*
X30878000Y27298192D01*
X30877999Y26031972D01*
X30622000Y26031972D01*
X30622001Y27298191D01*
X30548192Y27372000D01*
X28931972Y27372001D01*
X28858163Y27298192D01*
X22132000Y27298192D01*
X22132000Y27656111D01*
X22743890Y28268000D01*
X23489699Y28268000D01*
X23494005Y28261556D01*
X23511556Y28244005D01*
X23616211Y28174077D01*
X23639142Y28164579D01*
X23756490Y28141237D01*
X23768810Y28140024D01*
X25031190Y28140024D01*
X25043510Y28141237D01*
X25160858Y28164579D01*
X25183789Y28174077D01*
X25288444Y28244005D01*
X25305995Y28261556D01*
X25375923Y28366211D01*
X25385421Y28389142D01*
X25408763Y28506490D01*
X25409976Y28518810D01*
X25409976Y28809088D01*
X25799079Y29198191D01*
X25933163Y29198191D01*
X25933163Y28516742D01*
X25935319Y28500366D01*
X26010137Y28221141D01*
X26022880Y28196661D01*
X26153990Y28040410D01*
X26170879Y28026239D01*
X26345120Y27925641D01*
X26365837Y27918100D01*
X26558538Y27884122D01*
X26569499Y27883163D01*
X26998191Y27883163D01*
X27072000Y27956972D01*
X27072000Y29198191D01*
X27328000Y29198191D01*
X27328000Y27956972D01*
X27401809Y27883163D01*
X27833258Y27883163D01*
X27849634Y27885319D01*
X28128859Y27960137D01*
X28153339Y27972880D01*
X28309590Y28103990D01*
X28323761Y28120879D01*
X28424359Y28295120D01*
X28431900Y28315837D01*
X28447710Y28405501D01*
X28858163Y28405501D01*
X28858163Y27701809D01*
X28931972Y27628000D01*
X30548191Y27627999D01*
X30622000Y27701808D01*
X30622000Y27701809D01*
X30877999Y27701809D01*
X30951808Y27628000D01*
X32568028Y27627999D01*
X32641837Y27701808D01*
X32641837Y28408258D01*
X32639681Y28424634D01*
X32564863Y28703858D01*
X32552120Y28728338D01*
X32421010Y28884590D01*
X32404121Y28898761D01*
X32229880Y28999359D01*
X32209163Y29006900D01*
X32016462Y29040878D01*
X32005501Y29041837D01*
X30951809Y29041837D01*
X30878000Y28968028D01*
X30877999Y27701809D01*
X30622000Y27701809D01*
X30622001Y28968028D01*
X30548192Y29041837D01*
X29491742Y29041837D01*
X29475366Y29039681D01*
X29196142Y28964863D01*
X29171662Y28952120D01*
X29015410Y28821010D01*
X29001239Y28804121D01*
X28900641Y28629880D01*
X28893100Y28609163D01*
X28859122Y28416462D01*
X28858163Y28405501D01*
X28447710Y28405501D01*
X28465878Y28508538D01*
X28466837Y28519499D01*
X28466837Y29198191D01*
X28393028Y29272000D01*
X27401809Y29272000D01*
X27328000Y29198191D01*
X27072000Y29198191D01*
X26998191Y29272000D01*
X26006972Y29272000D01*
X25933163Y29198191D01*
X25799079Y29198191D01*
X26128888Y29528000D01*
X28393028Y29528000D01*
X28466837Y29601809D01*
X28466837Y30283258D01*
X28464681Y30299634D01*
X28389863Y30578858D01*
X28377120Y30603338D01*
X28364817Y30618000D01*
X30281111Y30618000D01*
X30951137Y29947973D01*
G37*
X30951137Y29947973D02*
X30951502Y29947141D01*
X30986751Y29853858D01*
X30993789Y29840394D01*
X31006439Y29821988D01*
X31015481Y29801391D01*
X31023418Y29788050D01*
X31076263Y29719922D01*
X31078365Y29715849D01*
X31086908Y29703280D01*
X31092171Y29697247D01*
X31140308Y29627207D01*
X31150356Y29615810D01*
X31208075Y29564385D01*
X31256956Y29508352D01*
X31268246Y29498187D01*
X31335151Y29451165D01*
X31343498Y29443728D01*
X31355972Y29435059D01*
X31359794Y29433035D01*
X31428269Y29379344D01*
X31441263Y29371474D01*
X31461615Y29362285D01*
X31479888Y29349443D01*
X31493276Y29342264D01*
X31586172Y29306045D01*
X31677028Y29265022D01*
X31691525Y29260479D01*
X31713478Y29256410D01*
X31734442Y29248237D01*
X31749489Y29244415D01*
X31839659Y29233024D01*
X31945876Y29213338D01*
X31961039Y29212384D01*
X32058437Y29218000D01*
X32177558Y29218000D01*
X32640768Y28754789D01*
X32658311Y28730643D01*
X32667148Y28720828D01*
X32743273Y28652285D01*
X32766550Y28629007D01*
X32771454Y28624591D01*
X32797056Y28603859D01*
X32873169Y28535326D01*
X32883853Y28527564D01*
X32909708Y28512636D01*
X32932900Y28493855D01*
X32943976Y28486663D01*
X33035235Y28440163D01*
X33115024Y28394097D01*
X33115024Y26863609D01*
X33092806Y26795230D01*
X33090060Y26782312D01*
X33068345Y26575708D01*
X33068000Y26569118D01*
X33068000Y25530693D01*
X33068001Y25530675D01*
X33068000Y19022441D01*
X32970401Y18924842D01*
X32946251Y18907296D01*
X32936437Y18898459D01*
X32867901Y18822344D01*
X32844613Y18799055D01*
X32840199Y18794152D01*
X32819468Y18768552D01*
X32750934Y18692438D01*
X32743171Y18681752D01*
X32728247Y18655902D01*
X32709464Y18632708D01*
X32702270Y18621631D01*
X32655767Y18530365D01*
X32604557Y18441666D01*
X32599185Y18429601D01*
X32589963Y18401217D01*
X32576410Y18374618D01*
X32571677Y18362288D01*
X32545163Y18263335D01*
X32513517Y18165941D01*
X32510772Y18153023D01*
X32507652Y18123343D01*
X32499925Y18094506D01*
X32497859Y18081461D01*
X32492499Y17979178D01*
X32489056Y17946420D01*
X32488711Y17939830D01*
X32488711Y17906898D01*
X32483350Y17804614D01*
X32484041Y17791425D01*
X32488711Y17761940D01*
X32488710Y16833918D01*
X32445598Y16833918D01*
X32429223Y16831762D01*
X32152030Y16757488D01*
X32127550Y16744745D01*
X31972379Y16614542D01*
X31958208Y16597653D01*
X31858315Y16424633D01*
X31850774Y16403916D01*
X31817041Y16212605D01*
X31816082Y16201644D01*
X31816082Y16059599D01*
X31804769Y16057194D01*
X31707362Y16025544D01*
X31608420Y15999033D01*
X31596091Y15994300D01*
X31569496Y15980749D01*
X31541109Y15971526D01*
X31529044Y15966154D01*
X31440338Y15914940D01*
X31349079Y15868440D01*
X31338003Y15861248D01*
X31314811Y15842467D01*
X31288956Y15827539D01*
X31278272Y15819777D01*
X31202149Y15751235D01*
X31176556Y15730511D01*
X31171653Y15726095D01*
X31148377Y15702819D01*
X31072251Y15634275D01*
X31063414Y15624460D01*
X31045868Y15600310D01*
X27327559Y11882000D01*
X26530881Y11882000D01*
X26524291Y11881655D01*
X26317687Y11859940D01*
X26304769Y11857194D01*
X26041109Y11771526D01*
X26029044Y11766154D01*
X25788956Y11627540D01*
X25778272Y11619777D01*
X25572251Y11434275D01*
X25563414Y11424460D01*
X25400463Y11200178D01*
X25393860Y11188740D01*
X25281101Y10935479D01*
X25277020Y10922919D01*
X25219381Y10651749D01*
X25218000Y10638614D01*
X25218000Y10361386D01*
X25219381Y10348251D01*
X25277020Y10077081D01*
X25281101Y10064521D01*
X25365024Y9876026D01*
X25365024Y9471891D01*
X25365331Y9465680D01*
X25371584Y9402531D01*
X25376122Y9384471D01*
X25398129Y9331498D01*
X25389580Y9310858D01*
X25373894Y9232000D01*
X24908874Y9232000D01*
X24948511Y9291322D01*
X24958009Y9314252D01*
X24981179Y9430736D01*
X24990605Y9478123D01*
X24990605Y9502943D01*
X24983600Y9538159D01*
X24983600Y13799689D01*
X31058276Y19874363D01*
X31088135Y19894314D01*
X31105686Y19911865D01*
X31198511Y20050789D01*
X31208009Y20073719D01*
X31231179Y20190203D01*
X31240605Y20237590D01*
X31240605Y20262410D01*
X31233600Y20297626D01*
X31233600Y20365024D01*
X31256190Y20365024D01*
X31268510Y20366237D01*
X31385858Y20389579D01*
X31400000Y20395437D01*
X31414142Y20389579D01*
X31531490Y20366237D01*
X31543810Y20365024D01*
X32556190Y20365024D01*
X32568510Y20366237D01*
X32685858Y20389579D01*
X32708789Y20399077D01*
X32813444Y20469005D01*
X32830995Y20486556D01*
X32900923Y20591211D01*
X32910421Y20614142D01*
X32933763Y20731490D01*
X32934976Y20743810D01*
X32934976Y22256190D01*
X32933763Y22268510D01*
X32910421Y22385858D01*
X32900923Y22408789D01*
X32830995Y22513444D01*
X32813444Y22530995D01*
X32708789Y22600923D01*
X32685858Y22610421D01*
X32680616Y22611464D01*
X32678698Y22623275D01*
X32611913Y22818337D01*
X32602023Y22836667D01*
X32475808Y22999383D01*
X32460512Y23013522D01*
X32288395Y23126581D01*
X32269345Y23135003D01*
X32069887Y23186216D01*
X32049136Y23188014D01*
X31843841Y23171856D01*
X31823626Y23166835D01*
X31634634Y23085051D01*
X31617136Y23073753D01*
X31464825Y22935159D01*
X31451930Y22918802D01*
X31352722Y22738346D01*
X31345821Y22718693D01*
X31328902Y22621750D01*
X31268510Y22633763D01*
X31256190Y22634976D01*
X30243810Y22634976D01*
X30231490Y22633763D01*
X30114142Y22610421D01*
X30100000Y22604563D01*
X30085858Y22610421D01*
X29983600Y22630761D01*
X29983600Y23262795D01*
X30096661Y23403918D01*
X30106838Y23422091D01*
X30176678Y23616080D01*
X30180427Y23637075D01*
X30182117Y23852224D01*
X30178698Y23873275D01*
X30111913Y24068337D01*
X30102023Y24086667D01*
X29975808Y24249383D01*
X29960512Y24263522D01*
X29788395Y24376581D01*
X29769345Y24385003D01*
X29569887Y24436216D01*
X29549136Y24438014D01*
X29343841Y24421856D01*
X29323626Y24416835D01*
X29134634Y24335051D01*
X29117136Y24323753D01*
X28964825Y24185159D01*
X28951930Y24168802D01*
X28852722Y23988346D01*
X28845821Y23968693D01*
X28810416Y23765831D01*
X28810252Y23745002D01*
X28842466Y23541609D01*
X28849058Y23521851D01*
X28945419Y23339858D01*
X28958055Y23323300D01*
X29016400Y23268510D01*
X29016401Y22634976D01*
X28943810Y22634976D01*
X28931490Y22633763D01*
X28814142Y22610421D01*
X28791211Y22600923D01*
X28686556Y22530995D01*
X28669005Y22513444D01*
X28599077Y22408789D01*
X28589579Y22385858D01*
X28566237Y22268510D01*
X28565024Y22256190D01*
X28565024Y20743810D01*
X28566237Y20731490D01*
X28589579Y20614142D01*
X28599077Y20591211D01*
X28669005Y20486556D01*
X28686556Y20469005D01*
X28791211Y20399077D01*
X28814142Y20389579D01*
X28931490Y20366237D01*
X28943810Y20365024D01*
X29956190Y20365024D01*
X29968510Y20366237D01*
X30085858Y20389579D01*
X30100000Y20395437D01*
X30114142Y20389579D01*
X30190481Y20374394D01*
X29430188Y19614100D01*
X29428698Y19623275D01*
X29361913Y19818337D01*
X29352023Y19836667D01*
X29225808Y19999383D01*
X29210512Y20013522D01*
X29038395Y20126581D01*
X29019345Y20135003D01*
X28819887Y20186216D01*
X28799136Y20188014D01*
X28593841Y20171856D01*
X28573626Y20166835D01*
X28384634Y20085051D01*
X28367136Y20073753D01*
X28214825Y19935159D01*
X28201930Y19918802D01*
X28102722Y19738346D01*
X28095821Y19718693D01*
X28060416Y19515831D01*
X28060252Y19495002D01*
X28092466Y19291609D01*
X28099058Y19271851D01*
X28195419Y19089858D01*
X28208055Y19073300D01*
X28266401Y19018510D01*
X28266401Y18953222D01*
X23836116Y14522936D01*
X23806253Y14502981D01*
X23788704Y14485431D01*
X23695879Y14346508D01*
X23686381Y14323577D01*
X23676120Y14271991D01*
X23653785Y14159707D01*
X23653785Y14134887D01*
X23660790Y14099672D01*
X23660791Y10344705D01*
X23250254Y9934167D01*
X23136400Y9925206D01*
X23136400Y11702774D01*
X23143405Y11737989D01*
X23143405Y11762810D01*
X23125478Y11852935D01*
X23110809Y11926681D01*
X23101311Y11949612D01*
X23008484Y12088535D01*
X22990934Y12106086D01*
X22961078Y12126035D01*
X22227792Y12859320D01*
X22250125Y12985983D01*
X22174592Y13076000D01*
X21889032Y13076000D01*
X21862997Y13081179D01*
X21815610Y13090605D01*
X21790790Y13090605D01*
X21778030Y13088067D01*
X21758789Y13100923D01*
X21735858Y13110421D01*
X21667594Y13124000D01*
X22168028Y13123999D01*
X22241837Y13197808D01*
X22241837Y13258258D01*
X22239681Y13274634D01*
X22164863Y13553858D01*
X22152120Y13578338D01*
X22021010Y13734590D01*
X22004121Y13748761D01*
X21829880Y13849359D01*
X21809163Y13856900D01*
X21616462Y13890878D01*
X21605501Y13891837D01*
X21357809Y13891837D01*
X21284000Y13818028D01*
X21283999Y13197809D01*
X21346832Y13134976D01*
X21236000Y13134976D01*
X21236001Y13818028D01*
X21162192Y13891837D01*
X20911742Y13891837D01*
X20895366Y13889681D01*
X20616142Y13814863D01*
X20591662Y13802120D01*
X20555572Y13771837D01*
X20101809Y13771837D01*
X20028000Y13698028D01*
X20027999Y12551808D01*
X20028000Y12551807D01*
X20027999Y11220809D01*
X20101808Y11147000D01*
X20215500Y11147000D01*
X20215500Y10451809D01*
X20289309Y10378000D01*
X21093028Y10378000D01*
X21166837Y10451809D01*
X21166837Y10733258D01*
X21164681Y10749634D01*
X21089863Y11028858D01*
X21077120Y11053338D01*
X21067314Y11065024D01*
X21111064Y11065024D01*
X21169201Y11006886D01*
X21169201Y7759558D01*
X21158109Y7770176D01*
X21146271Y7786864D01*
X21138153Y7796211D01*
X20989650Y7936642D01*
X20979864Y7944225D01*
X20962548Y7955109D01*
X20947595Y7969077D01*
X20937763Y7976601D01*
X20764057Y8084303D01*
X20752946Y8089764D01*
X20733791Y8096945D01*
X20716337Y8107620D01*
X20705194Y8113013D01*
X20513377Y8183588D01*
X20501396Y8186703D01*
X20481187Y8189886D01*
X20461943Y8196833D01*
X20449943Y8199875D01*
X20247855Y8230438D01*
X20235493Y8231080D01*
X20215054Y8230134D01*
X20194806Y8233070D01*
X20182440Y8233637D01*
X19978334Y8222940D01*
X19966095Y8221084D01*
X19946265Y8216048D01*
X19925839Y8214852D01*
X19913613Y8212920D01*
X19715826Y8161401D01*
X19704210Y8157121D01*
X19685802Y8148203D01*
X19666032Y8142924D01*
X19654442Y8138573D01*
X19471054Y8048335D01*
X19460534Y8041807D01*
X19444291Y8029365D01*
X19425993Y8020222D01*
X19415514Y8013630D01*
X19359800Y7970414D01*
X19359800Y9210467D01*
X19420120Y9175641D01*
X19440837Y9168100D01*
X19633538Y9134122D01*
X19644499Y9133163D01*
X19885691Y9133163D01*
X19959500Y9206972D01*
X19959500Y10048191D01*
X20215500Y10048191D01*
X20215500Y9206972D01*
X20289309Y9133163D01*
X20533258Y9133163D01*
X20549634Y9135319D01*
X20828859Y9210137D01*
X20853339Y9222880D01*
X21009590Y9353990D01*
X21023761Y9370879D01*
X21124359Y9545120D01*
X21131900Y9565837D01*
X21165878Y9758538D01*
X21166837Y9769499D01*
X21166837Y10048191D01*
X21093028Y10122000D01*
X20289309Y10122000D01*
X20215500Y10048191D01*
X19959500Y10048191D01*
X19959500Y11074191D01*
X19885691Y11148000D01*
X19772000Y11148000D01*
X19772001Y12148191D01*
X19698192Y12222000D01*
X19375809Y12222000D01*
X19302000Y12148191D01*
X19302000Y12076000D01*
X19076089Y12076000D01*
X19040170Y12100000D01*
X19143444Y12169005D01*
X19160995Y12186556D01*
X19230923Y12291211D01*
X19240421Y12314142D01*
X19263763Y12431490D01*
X19264976Y12443810D01*
X19264976Y12477999D01*
X19698191Y12477999D01*
X19772000Y12551808D01*
X19772001Y13698028D01*
X19698192Y13771837D01*
X19166742Y13771837D01*
X19150366Y13769681D01*
X18871142Y13694863D01*
X18846662Y13682120D01*
X18790478Y13634976D01*
X18674692Y13634976D01*
X18611913Y13818337D01*
X18602023Y13836667D01*
X18475808Y13999383D01*
X18460512Y14013522D01*
X18288395Y14126581D01*
X18269345Y14135003D01*
X18069887Y14186216D01*
X18049136Y14188014D01*
X17843841Y14171856D01*
X17823626Y14166835D01*
X17669500Y14100139D01*
X17669500Y15301720D01*
X17678990Y15290410D01*
X17695879Y15276239D01*
X17870120Y15175641D01*
X17890837Y15168100D01*
X18083538Y15134122D01*
X18094499Y15133163D01*
X18335691Y15133163D01*
X18409500Y15206972D01*
X18409500Y16048191D01*
X18665500Y16048191D01*
X18665500Y15206972D01*
X18739309Y15133163D01*
X18983258Y15133163D01*
X18999634Y15135319D01*
X19278859Y15210137D01*
X19303339Y15222880D01*
X19459590Y15353990D01*
X19473761Y15370879D01*
X19574359Y15545120D01*
X19581900Y15565837D01*
X19615878Y15758538D01*
X19616837Y15769499D01*
X19616837Y16048191D01*
X19543028Y16122000D01*
X18739309Y16122000D01*
X18665500Y16048191D01*
X18409500Y16048191D01*
X18409500Y17293028D01*
X18665500Y17293028D01*
X18665500Y16451809D01*
X18739309Y16378000D01*
X19543028Y16378000D01*
X19616837Y16451809D01*
X19616837Y16733258D01*
X19614681Y16749634D01*
X19539863Y17028858D01*
X19527120Y17053338D01*
X19396010Y17209590D01*
X19379121Y17223761D01*
X19204880Y17324359D01*
X19184163Y17331900D01*
X18991462Y17365878D01*
X18980501Y17366837D01*
X18739309Y17366837D01*
X18665500Y17293028D01*
X18409500Y17293028D01*
X18335691Y17366837D01*
X18091742Y17366837D01*
X18075366Y17364681D01*
X17963096Y17334598D01*
X18000923Y17391211D01*
X18010421Y17414142D01*
X18033763Y17531490D01*
X18034976Y17543810D01*
X18034976Y18985317D01*
X18183538Y18959122D01*
X18194499Y18958163D01*
X18852191Y18958163D01*
X18926000Y19031972D01*
X18926001Y19764687D01*
X18960984Y19748262D01*
X18974000Y19744326D01*
X18973999Y19031972D01*
X19047808Y18958163D01*
X19708258Y18958163D01*
X19724634Y18960319D01*
X20003859Y19035137D01*
X20028339Y19047880D01*
X20184590Y19178990D01*
X20198761Y19195879D01*
X20299359Y19370120D01*
X20306900Y19390837D01*
X20340878Y19583538D01*
X20341837Y19594499D01*
X20341837Y19618000D01*
X21308766Y19618000D01*
X21317708Y19618637D01*
X21491114Y19643471D01*
X21508346Y19648510D01*
X21721822Y19745572D01*
X21736946Y19755244D01*
X21914600Y19908320D01*
X21926402Y19921849D01*
X22053952Y20118633D01*
X22061482Y20134931D01*
X22128674Y20359605D01*
X22131328Y20377361D01*
X22132759Y20611863D01*
X22130323Y20629650D01*
X22065882Y20855127D01*
X22060124Y20868000D01*
X22359245Y20868000D01*
X22460458Y20747379D01*
X22477347Y20733208D01*
X22650367Y20633315D01*
X22671084Y20625774D01*
X22862395Y20592041D01*
X22873356Y20591082D01*
X24129401Y20591082D01*
X24145777Y20593238D01*
X24422971Y20667512D01*
X24447451Y20680255D01*
X24602621Y20810458D01*
X24616792Y20827347D01*
X24704349Y20979000D01*
X25206360Y20979000D01*
X25221211Y20969077D01*
X25244141Y20959579D01*
X25361490Y20936237D01*
X25373810Y20935024D01*
X26026190Y20935024D01*
X26038510Y20936237D01*
X26155858Y20959579D01*
X26178789Y20969077D01*
X26283444Y21039005D01*
X26300995Y21056556D01*
X26370923Y21161211D01*
X26380421Y21184142D01*
X26403763Y21301490D01*
X26404976Y21313810D01*
X26404976Y21785404D01*
X26504590Y21868990D01*
X26518761Y21885879D01*
X26619359Y22060120D01*
X26626900Y22080837D01*
X26660878Y22273538D01*
X26661837Y22284499D01*
X26661837Y22383191D01*
X26588028Y22457000D01*
X25901808Y22457001D01*
X25901807Y22457000D01*
X24811972Y22457001D01*
X24738163Y22383192D01*
X24738163Y22281742D01*
X24740319Y22265366D01*
X24744168Y22251000D01*
X24688375Y22251000D01*
X24682488Y22272970D01*
X24669745Y22297450D01*
X24539542Y22452621D01*
X24522653Y22466792D01*
X24349633Y22566685D01*
X24328916Y22574226D01*
X24137605Y22607959D01*
X24126644Y22608918D01*
X23571628Y22608918D01*
X23549832Y22617089D01*
X23532298Y22620944D01*
X23438922Y22627884D01*
X23416018Y22631307D01*
X23406693Y22632000D01*
X23383525Y22632000D01*
X23298438Y22638324D01*
X23280526Y22637103D01*
X23256621Y22632000D01*
X22010128Y22632000D01*
X22011482Y22634931D01*
X22078674Y22859605D01*
X22081328Y22877361D01*
X22081377Y22885501D01*
X24738163Y22885501D01*
X24738163Y22786809D01*
X24811972Y22713000D01*
X25498191Y22712999D01*
X25572000Y22786808D01*
X25572000Y22786809D01*
X25827999Y22786809D01*
X25901808Y22713000D01*
X26588028Y22712999D01*
X26661837Y22786808D01*
X26661837Y22888258D01*
X26659681Y22904634D01*
X26584863Y23183858D01*
X26572120Y23208338D01*
X26441010Y23364590D01*
X26424121Y23378761D01*
X26249880Y23479359D01*
X26229163Y23486900D01*
X26036462Y23520878D01*
X26025501Y23521837D01*
X25901809Y23521837D01*
X25828000Y23448028D01*
X25827999Y22786809D01*
X25572000Y22786809D01*
X25572001Y23448028D01*
X25498192Y23521837D01*
X25371742Y23521837D01*
X25355366Y23519681D01*
X25076142Y23444863D01*
X25051662Y23432120D01*
X24895410Y23301010D01*
X24881239Y23284121D01*
X24780641Y23109880D01*
X24773100Y23089163D01*
X24739122Y22896462D01*
X24738163Y22885501D01*
X22081377Y22885501D01*
X22082759Y23111863D01*
X22080323Y23129650D01*
X22030768Y23303042D01*
X22059925Y23322524D01*
X22077476Y23340075D01*
X22146325Y23443114D01*
X22155823Y23466045D01*
X22163341Y23503838D01*
X22197696Y23450380D01*
X22209499Y23436759D01*
X22387849Y23282217D01*
X22403011Y23272473D01*
X22617677Y23174439D01*
X22634970Y23169361D01*
X22864094Y23136418D01*
X22873071Y23135776D01*
X23298191Y23135776D01*
X23372000Y23209585D01*
X23627999Y23209585D01*
X23701808Y23135776D01*
X24129183Y23135776D01*
X24142613Y23137220D01*
X24478353Y23210255D01*
X24499187Y23218885D01*
X24699620Y23347696D01*
X24713241Y23359499D01*
X24867783Y23537849D01*
X24877527Y23553011D01*
X24975561Y23767677D01*
X24980639Y23784970D01*
X25013582Y24014094D01*
X25014224Y24023071D01*
X25014224Y24198191D01*
X24940415Y24272000D01*
X23701809Y24272001D01*
X23628000Y24198192D01*
X23627999Y23209585D01*
X23372000Y23209585D01*
X23372001Y24198192D01*
X23372000Y24198193D01*
X23372000Y24601809D01*
X23627999Y24601809D01*
X23701808Y24528000D01*
X24940415Y24527999D01*
X25014224Y24601808D01*
X25014224Y24779183D01*
X25012780Y24792613D01*
X24939745Y25128353D01*
X24931115Y25149187D01*
X24802304Y25349620D01*
X24790501Y25363241D01*
X24612151Y25517783D01*
X24596989Y25527527D01*
X24382323Y25625561D01*
X24365030Y25630639D01*
X24135906Y25663582D01*
X24126929Y25664224D01*
X23701809Y25664224D01*
X23628000Y25590415D01*
X23627999Y24601809D01*
X23372000Y24601809D01*
X23372001Y25590415D01*
X23298192Y25664224D01*
X22870817Y25664224D01*
X22857387Y25662780D01*
X22521647Y25589745D01*
X22500813Y25581115D01*
X22300380Y25452304D01*
X22286759Y25440501D01*
X22180000Y25317295D01*
X22180000Y26406190D01*
X22178787Y26418511D01*
X22155823Y26533955D01*
X22146325Y26556886D01*
X22132000Y26578324D01*
X22132000Y27298192D01*
X28858163Y27298192D01*
X28858163Y26591742D01*
X28860319Y26575366D01*
X28935137Y26296141D01*
X28947880Y26271661D01*
X29078990Y26115410D01*
X29095879Y26101239D01*
X29270120Y26000641D01*
X29290837Y25993100D01*
X29483538Y25959122D01*
X29494499Y25958163D01*
X30548191Y25958163D01*
X30622000Y26031972D01*
X30877999Y26031972D01*
X30951808Y25958163D01*
X32008258Y25958163D01*
X32024634Y25960319D01*
X32303859Y26035137D01*
X32328339Y26047880D01*
X32484590Y26178990D01*
X32498761Y26195879D01*
X32599359Y26370120D01*
X32606900Y26390837D01*
X32640878Y26583538D01*
X32641837Y26594499D01*
X32641837Y27298191D01*
X32568028Y27372000D01*
X30951809Y27372001D01*
X30878000Y27298192D01*
X30877999Y26031972D01*
X30622000Y26031972D01*
X30622001Y27298191D01*
X30548192Y27372000D01*
X28931972Y27372001D01*
X28858163Y27298192D01*
X22132000Y27298192D01*
X22132000Y27656111D01*
X22743890Y28268000D01*
X23489699Y28268000D01*
X23494005Y28261556D01*
X23511556Y28244005D01*
X23616211Y28174077D01*
X23639142Y28164579D01*
X23756490Y28141237D01*
X23768810Y28140024D01*
X25031190Y28140024D01*
X25043510Y28141237D01*
X25160858Y28164579D01*
X25183789Y28174077D01*
X25288444Y28244005D01*
X25305995Y28261556D01*
X25375923Y28366211D01*
X25385421Y28389142D01*
X25408763Y28506490D01*
X25409976Y28518810D01*
X25409976Y28809088D01*
X25799079Y29198191D01*
X25933163Y29198191D01*
X25933163Y28516742D01*
X25935319Y28500366D01*
X26010137Y28221141D01*
X26022880Y28196661D01*
X26153990Y28040410D01*
X26170879Y28026239D01*
X26345120Y27925641D01*
X26365837Y27918100D01*
X26558538Y27884122D01*
X26569499Y27883163D01*
X26998191Y27883163D01*
X27072000Y27956972D01*
X27072000Y29198191D01*
X27328000Y29198191D01*
X27328000Y27956972D01*
X27401809Y27883163D01*
X27833258Y27883163D01*
X27849634Y27885319D01*
X28128859Y27960137D01*
X28153339Y27972880D01*
X28309590Y28103990D01*
X28323761Y28120879D01*
X28424359Y28295120D01*
X28431900Y28315837D01*
X28447710Y28405501D01*
X28858163Y28405501D01*
X28858163Y27701809D01*
X28931972Y27628000D01*
X30548191Y27627999D01*
X30622000Y27701808D01*
X30622000Y27701809D01*
X30877999Y27701809D01*
X30951808Y27628000D01*
X32568028Y27627999D01*
X32641837Y27701808D01*
X32641837Y28408258D01*
X32639681Y28424634D01*
X32564863Y28703858D01*
X32552120Y28728338D01*
X32421010Y28884590D01*
X32404121Y28898761D01*
X32229880Y28999359D01*
X32209163Y29006900D01*
X32016462Y29040878D01*
X32005501Y29041837D01*
X30951809Y29041837D01*
X30878000Y28968028D01*
X30877999Y27701809D01*
X30622000Y27701809D01*
X30622001Y28968028D01*
X30548192Y29041837D01*
X29491742Y29041837D01*
X29475366Y29039681D01*
X29196142Y28964863D01*
X29171662Y28952120D01*
X29015410Y28821010D01*
X29001239Y28804121D01*
X28900641Y28629880D01*
X28893100Y28609163D01*
X28859122Y28416462D01*
X28858163Y28405501D01*
X28447710Y28405501D01*
X28465878Y28508538D01*
X28466837Y28519499D01*
X28466837Y29198191D01*
X28393028Y29272000D01*
X27401809Y29272000D01*
X27328000Y29198191D01*
X27072000Y29198191D01*
X26998191Y29272000D01*
X26006972Y29272000D01*
X25933163Y29198191D01*
X25799079Y29198191D01*
X26128888Y29528000D01*
X28393028Y29528000D01*
X28466837Y29601809D01*
X28466837Y30283258D01*
X28464681Y30299634D01*
X28389863Y30578858D01*
X28377120Y30603338D01*
X28364817Y30618000D01*
X30281111Y30618000D01*
X30951137Y29947973D01*
G36*
X15993422Y16650199D02*
G01*
X16018065Y16526308D01*
X16027563Y16503377D01*
X16126004Y16356052D01*
X16140024Y16342032D01*
X16140024Y15768810D01*
X16141237Y15756490D01*
X16164579Y15639142D01*
X16174077Y15616211D01*
X16244005Y15511556D01*
X16255500Y15500062D01*
X16255500Y14388558D01*
X16069887Y14436216D01*
X16049136Y14438014D01*
X15843841Y14421856D01*
X15823626Y14416835D01*
X15634634Y14335051D01*
X15617136Y14323753D01*
X15464825Y14185159D01*
X15451930Y14168802D01*
X15352722Y13988346D01*
X15345821Y13968693D01*
X15310416Y13765831D01*
X15310252Y13745002D01*
X15342466Y13541609D01*
X15349058Y13521851D01*
X15445419Y13339858D01*
X15458055Y13323300D01*
X15518749Y13266305D01*
X15541992Y13149454D01*
X15551490Y13126525D01*
X15641788Y12991383D01*
X15539831Y12983358D01*
X15519616Y12978337D01*
X15330624Y12896553D01*
X15313126Y12885255D01*
X15233600Y12812891D01*
X15233600Y15896489D01*
X15992408Y16655296D01*
X15993422Y16650199D01*
G37*
X15993422Y16650199D02*
X16018065Y16526308D01*
X16027563Y16503377D01*
X16126004Y16356052D01*
X16140024Y16342032D01*
X16140024Y15768810D01*
X16141237Y15756490D01*
X16164579Y15639142D01*
X16174077Y15616211D01*
X16244005Y15511556D01*
X16255500Y15500062D01*
X16255500Y14388558D01*
X16069887Y14436216D01*
X16049136Y14438014D01*
X15843841Y14421856D01*
X15823626Y14416835D01*
X15634634Y14335051D01*
X15617136Y14323753D01*
X15464825Y14185159D01*
X15451930Y14168802D01*
X15352722Y13988346D01*
X15345821Y13968693D01*
X15310416Y13765831D01*
X15310252Y13745002D01*
X15342466Y13541609D01*
X15349058Y13521851D01*
X15445419Y13339858D01*
X15458055Y13323300D01*
X15518749Y13266305D01*
X15541992Y13149454D01*
X15551490Y13126525D01*
X15641788Y12991383D01*
X15539831Y12983358D01*
X15519616Y12978337D01*
X15330624Y12896553D01*
X15313126Y12885255D01*
X15233600Y12812891D01*
X15233600Y15896489D01*
X15992408Y16655296D01*
X15993422Y16650199D01*
G36*
X14524000Y19246089D02*
G01*
X14500000Y19210170D01*
X14476001Y19246087D01*
X14476001Y19472000D01*
X14524000Y19472000D01*
X14524000Y19246089D01*
G37*
X14524000Y19246089D02*
X14500000Y19210170D01*
X14476001Y19246087D01*
X14476001Y19472000D01*
X14524000Y19472000D01*
X14524000Y19246089D01*
G36*
X11234685Y31530456D02*
G01*
X11243315Y31509622D01*
X11371153Y31310700D01*
X11382956Y31297079D01*
X11559948Y31143715D01*
X11575110Y31133971D01*
X11760981Y31049087D01*
X11748857Y31045838D01*
X11724377Y31033095D01*
X11570894Y30904308D01*
X11556723Y30887419D01*
X11457932Y30716310D01*
X11450391Y30695592D01*
X11417041Y30506451D01*
X11416082Y30495490D01*
X11416082Y30001752D01*
X11418238Y29985377D01*
X11491662Y29711356D01*
X11504406Y29686875D01*
X11633192Y29533394D01*
X11650081Y29519223D01*
X11752699Y29459976D01*
X11343810Y29459976D01*
X11331490Y29458763D01*
X11214142Y29435421D01*
X11191211Y29425923D01*
X11086556Y29355995D01*
X11069005Y29338444D01*
X11000000Y29235170D01*
X10930995Y29338444D01*
X10913444Y29355995D01*
X10808789Y29425923D01*
X10785858Y29435421D01*
X10668510Y29458763D01*
X10656190Y29459976D01*
X9768810Y29459976D01*
X9756490Y29458763D01*
X9639142Y29435421D01*
X9616211Y29425923D01*
X9511556Y29355995D01*
X9494005Y29338444D01*
X9424077Y29233789D01*
X9414579Y29210858D01*
X9391237Y29093510D01*
X9390024Y29081190D01*
X9390024Y28118810D01*
X9391237Y28106490D01*
X9414579Y27989142D01*
X9424077Y27966211D01*
X9494005Y27861556D01*
X9511556Y27844005D01*
X9616211Y27774077D01*
X9639142Y27764579D01*
X9756490Y27741237D01*
X9768810Y27740024D01*
X10041001Y27740024D01*
X10041000Y25784976D01*
X9793810Y25784976D01*
X9781490Y25783763D01*
X9664142Y25760421D01*
X9641211Y25750923D01*
X9545034Y25686660D01*
X9478789Y25730923D01*
X9455858Y25740421D01*
X9338510Y25763763D01*
X9326190Y25764976D01*
X8832000Y25764976D01*
X8832000Y26485764D01*
X8838223Y26577046D01*
X8837428Y26592217D01*
X8820289Y26690419D01*
X8808311Y26789406D01*
X8804687Y26804160D01*
X8796791Y26825053D01*
X8792953Y26847047D01*
X8788562Y26861591D01*
X8748493Y26952874D01*
X8713249Y27046143D01*
X8706210Y27059607D01*
X8693561Y27078010D01*
X8684519Y27098610D01*
X8676582Y27111952D01*
X8620892Y27183744D01*
X8559692Y27272793D01*
X8549645Y27284189D01*
X8476766Y27349122D01*
X7332000Y28493888D01*
X7332000Y29596681D01*
X7466154Y29829044D01*
X7471526Y29841109D01*
X7557194Y30104769D01*
X7559940Y30117687D01*
X7581655Y30324291D01*
X7582000Y30330881D01*
X7582000Y30598191D01*
X7833163Y30598191D01*
X7833163Y30316742D01*
X7835319Y30300366D01*
X7910137Y30021141D01*
X7922880Y29996661D01*
X8053990Y29840410D01*
X8070879Y29826239D01*
X8245120Y29725641D01*
X8265837Y29718100D01*
X8458538Y29684122D01*
X8469499Y29683163D01*
X8710691Y29683163D01*
X8784500Y29756972D01*
X8784500Y30598191D01*
X8710691Y30672000D01*
X7906972Y30672000D01*
X7833163Y30598191D01*
X7582000Y30598191D01*
X7582000Y31397618D01*
X7658538Y31384122D01*
X7669499Y31383163D01*
X7850291Y31383163D01*
X7834122Y31291462D01*
X7833163Y31280501D01*
X7833163Y31001809D01*
X7906972Y30928000D01*
X9040500Y30928000D01*
X9040500Y29756972D01*
X9114309Y29683163D01*
X9358258Y29683163D01*
X9374634Y29685319D01*
X9653859Y29760137D01*
X9678339Y29772880D01*
X9834590Y29903990D01*
X9848761Y29920879D01*
X9882742Y29979736D01*
X9891211Y29974077D01*
X9914142Y29964579D01*
X10031490Y29941237D01*
X10043810Y29940024D01*
X10931190Y29940024D01*
X10943510Y29941237D01*
X11060858Y29964579D01*
X11083789Y29974077D01*
X11188444Y30044005D01*
X11205995Y30061556D01*
X11275923Y30166211D01*
X11285421Y30189142D01*
X11308763Y30306490D01*
X11309976Y30318810D01*
X11309976Y31281190D01*
X11308763Y31293510D01*
X11285421Y31410858D01*
X11275923Y31433789D01*
X11205995Y31538444D01*
X11188444Y31555995D01*
X11171353Y31567415D01*
X11216766Y31612828D01*
X11234685Y31530456D01*
G37*
X11234685Y31530456D02*
X11243315Y31509622D01*
X11371153Y31310700D01*
X11382956Y31297079D01*
X11559948Y31143715D01*
X11575110Y31133971D01*
X11760981Y31049087D01*
X11748857Y31045838D01*
X11724377Y31033095D01*
X11570894Y30904308D01*
X11556723Y30887419D01*
X11457932Y30716310D01*
X11450391Y30695592D01*
X11417041Y30506451D01*
X11416082Y30495490D01*
X11416082Y30001752D01*
X11418238Y29985377D01*
X11491662Y29711356D01*
X11504406Y29686875D01*
X11633192Y29533394D01*
X11650081Y29519223D01*
X11752699Y29459976D01*
X11343810Y29459976D01*
X11331490Y29458763D01*
X11214142Y29435421D01*
X11191211Y29425923D01*
X11086556Y29355995D01*
X11069005Y29338444D01*
X11000000Y29235170D01*
X10930995Y29338444D01*
X10913444Y29355995D01*
X10808789Y29425923D01*
X10785858Y29435421D01*
X10668510Y29458763D01*
X10656190Y29459976D01*
X9768810Y29459976D01*
X9756490Y29458763D01*
X9639142Y29435421D01*
X9616211Y29425923D01*
X9511556Y29355995D01*
X9494005Y29338444D01*
X9424077Y29233789D01*
X9414579Y29210858D01*
X9391237Y29093510D01*
X9390024Y29081190D01*
X9390024Y28118810D01*
X9391237Y28106490D01*
X9414579Y27989142D01*
X9424077Y27966211D01*
X9494005Y27861556D01*
X9511556Y27844005D01*
X9616211Y27774077D01*
X9639142Y27764579D01*
X9756490Y27741237D01*
X9768810Y27740024D01*
X10041001Y27740024D01*
X10041000Y25784976D01*
X9793810Y25784976D01*
X9781490Y25783763D01*
X9664142Y25760421D01*
X9641211Y25750923D01*
X9545034Y25686660D01*
X9478789Y25730923D01*
X9455858Y25740421D01*
X9338510Y25763763D01*
X9326190Y25764976D01*
X8832000Y25764976D01*
X8832000Y26485764D01*
X8838223Y26577046D01*
X8837428Y26592217D01*
X8820289Y26690419D01*
X8808311Y26789406D01*
X8804687Y26804160D01*
X8796791Y26825053D01*
X8792953Y26847047D01*
X8788562Y26861591D01*
X8748493Y26952874D01*
X8713249Y27046143D01*
X8706210Y27059607D01*
X8693561Y27078010D01*
X8684519Y27098610D01*
X8676582Y27111952D01*
X8620892Y27183744D01*
X8559692Y27272793D01*
X8549645Y27284189D01*
X8476766Y27349122D01*
X7332000Y28493888D01*
X7332000Y29596681D01*
X7466154Y29829044D01*
X7471526Y29841109D01*
X7557194Y30104769D01*
X7559940Y30117687D01*
X7581655Y30324291D01*
X7582000Y30330881D01*
X7582000Y30598191D01*
X7833163Y30598191D01*
X7833163Y30316742D01*
X7835319Y30300366D01*
X7910137Y30021141D01*
X7922880Y29996661D01*
X8053990Y29840410D01*
X8070879Y29826239D01*
X8245120Y29725641D01*
X8265837Y29718100D01*
X8458538Y29684122D01*
X8469499Y29683163D01*
X8710691Y29683163D01*
X8784500Y29756972D01*
X8784500Y30598191D01*
X8710691Y30672000D01*
X7906972Y30672000D01*
X7833163Y30598191D01*
X7582000Y30598191D01*
X7582000Y31397618D01*
X7658538Y31384122D01*
X7669499Y31383163D01*
X7850291Y31383163D01*
X7834122Y31291462D01*
X7833163Y31280501D01*
X7833163Y31001809D01*
X7906972Y30928000D01*
X9040500Y30928000D01*
X9040500Y29756972D01*
X9114309Y29683163D01*
X9358258Y29683163D01*
X9374634Y29685319D01*
X9653859Y29760137D01*
X9678339Y29772880D01*
X9834590Y29903990D01*
X9848761Y29920879D01*
X9882742Y29979736D01*
X9891211Y29974077D01*
X9914142Y29964579D01*
X10031490Y29941237D01*
X10043810Y29940024D01*
X10931190Y29940024D01*
X10943510Y29941237D01*
X11060858Y29964579D01*
X11083789Y29974077D01*
X11188444Y30044005D01*
X11205995Y30061556D01*
X11275923Y30166211D01*
X11285421Y30189142D01*
X11308763Y30306490D01*
X11309976Y30318810D01*
X11309976Y31281190D01*
X11308763Y31293510D01*
X11285421Y31410858D01*
X11275923Y31433789D01*
X11205995Y31538444D01*
X11188444Y31555995D01*
X11171353Y31567415D01*
X11216766Y31612828D01*
X11234685Y31530456D01*
G36*
X11069005Y27861556D02*
G01*
X11086556Y27844005D01*
X11191211Y27774077D01*
X11214142Y27764579D01*
X11290745Y27749342D01*
X11250641Y27679880D01*
X11243100Y27659163D01*
X11209122Y27466462D01*
X11208163Y27455501D01*
X11208163Y26797809D01*
X11281972Y26724000D01*
X11965024Y26724000D01*
X11965024Y26676000D01*
X11281972Y26676001D01*
X11208163Y26602192D01*
X11208163Y25941742D01*
X11210319Y25925366D01*
X11247936Y25784976D01*
X11059000Y25784976D01*
X11059000Y27876530D01*
X11069005Y27861556D01*
G37*
X11069005Y27861556D02*
X11086556Y27844005D01*
X11191211Y27774077D01*
X11214142Y27764579D01*
X11290745Y27749342D01*
X11250641Y27679880D01*
X11243100Y27659163D01*
X11209122Y27466462D01*
X11208163Y27455501D01*
X11208163Y26797809D01*
X11281972Y26724000D01*
X11965024Y26724000D01*
X11965024Y26676000D01*
X11281972Y26676001D01*
X11208163Y26602192D01*
X11208163Y25941742D01*
X11210319Y25925366D01*
X11247936Y25784976D01*
X11059000Y25784976D01*
X11059000Y27876530D01*
X11069005Y27861556D01*
G36*
X14465024Y26613167D02*
G01*
X14402191Y26676000D01*
X14034976Y26676000D01*
X14034976Y26724000D01*
X14402191Y26724000D01*
X14465024Y26786833D01*
X14465024Y26613167D01*
G37*
X14465024Y26613167D02*
X14402191Y26676000D01*
X14034976Y26676000D01*
X14034976Y26724000D01*
X14402191Y26724000D01*
X14465024Y26786833D01*
X14465024Y26613167D01*
G36*
X16084503Y36197157D02*
G01*
X16073664Y36193159D01*
X15873631Y36097748D01*
X15863702Y36091841D01*
X15684406Y35961575D01*
X15675719Y35953957D01*
X15523164Y35793197D01*
X15516012Y35784124D01*
X15395307Y35598257D01*
X15389928Y35588032D01*
X15305117Y35383280D01*
X15301690Y35372246D01*
X15255613Y35155467D01*
X15254255Y35143994D01*
X15248454Y34922448D01*
X15249210Y34910919D01*
X15283879Y34692026D01*
X15286723Y34680828D01*
X15360701Y34471917D01*
X15365538Y34461425D01*
X15476349Y34269494D01*
X15483017Y34260059D01*
X15626950Y34091537D01*
X15635225Y34083475D01*
X15807458Y33944003D01*
X15817064Y33937584D01*
X16011830Y33831836D01*
X16022445Y33827275D01*
X16233220Y33758790D01*
X16244489Y33756240D01*
X16364001Y33740506D01*
X16364000Y33274446D01*
X16261556Y33205995D01*
X16244005Y33188444D01*
X16174077Y33083789D01*
X16164579Y33060858D01*
X16141237Y32943510D01*
X16140024Y32931190D01*
X16140024Y32043810D01*
X16141237Y32031490D01*
X16164579Y31914142D01*
X16174077Y31891211D01*
X16177520Y31886058D01*
X16040410Y31771010D01*
X16026239Y31754121D01*
X15925641Y31579880D01*
X15918100Y31559163D01*
X15884122Y31366462D01*
X15883163Y31355501D01*
X15883163Y31114309D01*
X15956972Y31040500D01*
X16798192Y31040499D01*
X16798193Y31040500D01*
X17128000Y31040499D01*
X17127999Y29906972D01*
X17201808Y29833163D01*
X17483258Y29833163D01*
X17499634Y29835319D01*
X17778859Y29910137D01*
X17803339Y29922880D01*
X17959590Y30053990D01*
X17973761Y30070879D01*
X18074359Y30245120D01*
X18081900Y30265837D01*
X18102881Y30384825D01*
X18160137Y30171141D01*
X18172880Y30146661D01*
X18303990Y29990410D01*
X18320879Y29976239D01*
X18495120Y29875641D01*
X18515837Y29868100D01*
X18708538Y29834122D01*
X18719499Y29833163D01*
X18998191Y29833163D01*
X19072000Y29906972D01*
X19072001Y30710692D01*
X19072000Y30710693D01*
X19072001Y31040500D01*
X20243028Y31040499D01*
X20316837Y31114308D01*
X20316837Y31358258D01*
X20314681Y31374634D01*
X20239863Y31653858D01*
X20227120Y31678338D01*
X20096010Y31834590D01*
X20079121Y31848761D01*
X20020264Y31882742D01*
X20025923Y31891211D01*
X20035421Y31914142D01*
X20058763Y32031490D01*
X20059976Y32043810D01*
X20059976Y32931190D01*
X20058763Y32943510D01*
X20035421Y33060858D01*
X20025923Y33083789D01*
X19955995Y33188444D01*
X19938444Y33205995D01*
X19836000Y33274446D01*
X19836000Y33993420D01*
X19870137Y34016882D01*
X19879020Y34024270D01*
X20035730Y34180980D01*
X20043118Y34189863D01*
X20168647Y34372507D01*
X20174292Y34382588D01*
X20264433Y34585050D01*
X20268147Y34595990D01*
X20320077Y34812292D01*
X20321801Y34825386D01*
X20329210Y35108337D01*
X20328174Y35121503D01*
X20287636Y35340226D01*
X20284500Y35351346D01*
X20205078Y35558248D01*
X20199968Y35568611D01*
X20084170Y35757574D01*
X20077258Y35766831D01*
X19928964Y35931529D01*
X19920480Y35939372D01*
X19744655Y36074287D01*
X19734884Y36080452D01*
X19537417Y36181066D01*
X19526686Y36185348D01*
X19416454Y36218000D01*
X24378491Y36218000D01*
X24273576Y36096454D01*
X24267890Y36088755D01*
X24124713Y35860513D01*
X24120256Y35852043D01*
X24013251Y35604769D01*
X24010128Y35595722D01*
X23941757Y35335109D01*
X23940037Y35325694D01*
X23911874Y35057736D01*
X23911598Y35048170D01*
X23924290Y34779036D01*
X23925465Y34769537D01*
X23978721Y34505419D01*
X23981319Y34496208D01*
X24073912Y34243185D01*
X24077873Y34234472D01*
X24207674Y33998367D01*
X24212907Y33990354D01*
X24310606Y33863029D01*
X24424542Y33855561D01*
X25750000Y35181020D01*
X27075477Y33855542D01*
X27188658Y33862365D01*
X27276436Y33974314D01*
X27281753Y33982271D01*
X27414018Y34217004D01*
X27418070Y34225675D01*
X27513308Y34477715D01*
X27516003Y34486898D01*
X27572210Y34751333D01*
X27573564Y34762640D01*
X27584203Y35131995D01*
X27583503Y35143361D01*
X27542610Y35410592D01*
X27540449Y35419916D01*
X27459878Y35677020D01*
X27456332Y35685910D01*
X27337797Y35927868D01*
X27332947Y35936118D01*
X27179178Y36157363D01*
X27173135Y36164785D01*
X27122636Y36218000D01*
X27666187Y36218000D01*
X27665024Y36206190D01*
X27665024Y33793810D01*
X27666237Y33781490D01*
X27689579Y33664142D01*
X27699077Y33641211D01*
X27769005Y33536556D01*
X27786556Y33519005D01*
X27891211Y33449077D01*
X27914142Y33439579D01*
X28031490Y33416237D01*
X28043810Y33415024D01*
X30310890Y33415024D01*
X30841556Y32884358D01*
X30829124Y32886662D01*
X30813961Y32887616D01*
X30716563Y32882000D01*
X26789247Y32882000D01*
X26697954Y32888224D01*
X26682782Y32887429D01*
X26584584Y32870290D01*
X26485595Y32858311D01*
X26470840Y32854687D01*
X26449947Y32846791D01*
X26427953Y32842953D01*
X26413409Y32838562D01*
X26322129Y32798494D01*
X26228857Y32763249D01*
X26215394Y32756210D01*
X26196989Y32743561D01*
X26176391Y32734519D01*
X26163050Y32726582D01*
X26091253Y32670891D01*
X26002207Y32609691D01*
X25990811Y32599644D01*
X25925887Y32526776D01*
X24740049Y31340938D01*
X24740138Y31352224D01*
X24736719Y31373275D01*
X24669934Y31568337D01*
X24660044Y31586667D01*
X24533829Y31749383D01*
X24518533Y31763522D01*
X24346416Y31876581D01*
X24327366Y31885003D01*
X24234608Y31908820D01*
X24236127Y32102224D01*
X24232708Y32123275D01*
X24165923Y32318337D01*
X24156033Y32336667D01*
X24029818Y32499383D01*
X24014522Y32513522D01*
X23842405Y32626581D01*
X23829375Y32632342D01*
X23846661Y32653918D01*
X23856838Y32672091D01*
X23926678Y32866080D01*
X23930427Y32887075D01*
X23932117Y33102224D01*
X23928698Y33123275D01*
X23861913Y33318337D01*
X23852023Y33336667D01*
X23725808Y33499383D01*
X23710512Y33513522D01*
X23538395Y33626581D01*
X23519345Y33635003D01*
X23370277Y33673278D01*
X24604297Y33673278D01*
X24614425Y33556340D01*
X24805607Y33421975D01*
X24813832Y33417082D01*
X25055165Y33297284D01*
X25064036Y33293691D01*
X25320715Y33211774D01*
X25330027Y33209564D01*
X25596143Y33167415D01*
X25605682Y33166639D01*
X25875112Y33165229D01*
X25884658Y33165905D01*
X26151200Y33205264D01*
X26160535Y33207376D01*
X26418058Y33286600D01*
X26426966Y33290100D01*
X26669542Y33407366D01*
X26677818Y33412173D01*
X26885544Y33554940D01*
X26896357Y33672624D01*
X25802191Y34766790D01*
X25697809Y34766790D01*
X24604297Y33673278D01*
X23370277Y33673278D01*
X23319887Y33686216D01*
X23299136Y33688014D01*
X23093841Y33671856D01*
X23073626Y33666835D01*
X22884634Y33585051D01*
X22867136Y33573753D01*
X22714825Y33435159D01*
X22701930Y33418802D01*
X22602722Y33238346D01*
X22595821Y33218693D01*
X22560416Y33015831D01*
X22560252Y32995003D01*
X22560367Y32994279D01*
X20296808Y30730720D01*
X20243028Y30784500D01*
X19401809Y30784501D01*
X19328000Y30710692D01*
X19327999Y29906972D01*
X19400530Y29834441D01*
X18549689Y28983600D01*
X16394425Y28983600D01*
X16359209Y28990605D01*
X16334389Y28990605D01*
X16287002Y28981179D01*
X16170519Y28958009D01*
X16147589Y28948511D01*
X16008665Y28855686D01*
X15991114Y28838135D01*
X15971165Y28808278D01*
X15191723Y28028835D01*
X15161866Y28008886D01*
X15144315Y27991335D01*
X15098949Y27923439D01*
X15090711Y27911111D01*
X15071010Y27934590D01*
X15054121Y27948761D01*
X14879880Y28049359D01*
X14859163Y28056900D01*
X14614018Y28100125D01*
X14524000Y28024592D01*
X14524000Y27646089D01*
X14499077Y27608789D01*
X14489579Y27585859D01*
X14476001Y27517595D01*
X14476001Y28018028D01*
X14402192Y28091837D01*
X14341742Y28091837D01*
X14325366Y28089681D01*
X14264994Y28073505D01*
X14186227Y28087393D01*
X14524470Y28425636D01*
X14556448Y28447003D01*
X14573997Y28464553D01*
X14672438Y28611877D01*
X14681936Y28634808D01*
X14693153Y28691202D01*
X14693510Y28691237D01*
X14810858Y28714579D01*
X14833789Y28724077D01*
X14938444Y28794005D01*
X14955995Y28811556D01*
X15025923Y28916211D01*
X15035421Y28939142D01*
X15058763Y29056490D01*
X15059976Y29068810D01*
X15059976Y29956190D01*
X15058763Y29968510D01*
X15035421Y30085858D01*
X15025923Y30108789D01*
X15022480Y30113941D01*
X15159590Y30228990D01*
X15173761Y30245879D01*
X15274359Y30420120D01*
X15281900Y30440837D01*
X15315878Y30633538D01*
X15316837Y30644499D01*
X15316837Y30710692D01*
X15883163Y30710692D01*
X15883163Y30466742D01*
X15885319Y30450366D01*
X15960137Y30171141D01*
X15972880Y30146661D01*
X16103990Y29990410D01*
X16120879Y29976239D01*
X16295120Y29875641D01*
X16315837Y29868100D01*
X16508538Y29834122D01*
X16519499Y29833163D01*
X16798191Y29833163D01*
X16872000Y29906972D01*
X16872001Y30710691D01*
X16798192Y30784500D01*
X15956972Y30784501D01*
X15883163Y30710692D01*
X15316837Y30710692D01*
X15316837Y30885691D01*
X15243028Y30959500D01*
X14401808Y30959501D01*
X14401807Y30959500D01*
X14072000Y30959501D01*
X14072000Y31289309D01*
X14327999Y31289309D01*
X14401808Y31215500D01*
X15243028Y31215499D01*
X15316837Y31289308D01*
X15316837Y31533258D01*
X15314681Y31549634D01*
X15239863Y31828858D01*
X15227120Y31853338D01*
X15096010Y32009590D01*
X15079121Y32023761D01*
X14904880Y32124359D01*
X14884163Y32131900D01*
X14691462Y32165878D01*
X14680501Y32166837D01*
X14401809Y32166837D01*
X14328000Y32093028D01*
X14327999Y31289309D01*
X14072000Y31289309D01*
X14072001Y32093028D01*
X13998192Y32166837D01*
X13695809Y32166837D01*
X13622000Y32093028D01*
X13622000Y31997000D01*
X12372000Y31997001D01*
X12372001Y32253000D01*
X13770732Y32252999D01*
X13846384Y32346877D01*
X13765315Y32719544D01*
X13756685Y32740378D01*
X13628847Y32939300D01*
X13617044Y32952921D01*
X13440052Y33106285D01*
X13424890Y33116029D01*
X13211859Y33213317D01*
X13194566Y33218395D01*
X13116305Y33229647D01*
X13153952Y33274513D01*
X13576669Y33697229D01*
X13576678Y33697240D01*
X13651714Y33772276D01*
X13693220Y33758790D01*
X13704489Y33756240D01*
X13924215Y33727313D01*
X13935760Y33726859D01*
X14157078Y33738458D01*
X14168512Y33740116D01*
X14384010Y33791853D01*
X14394950Y33795567D01*
X14597412Y33885708D01*
X14607493Y33891353D01*
X14790137Y34016882D01*
X14799020Y34024270D01*
X14955730Y34180980D01*
X14963118Y34189863D01*
X15088647Y34372507D01*
X15094292Y34382588D01*
X15184433Y34585050D01*
X15188147Y34595990D01*
X15240077Y34812292D01*
X15241801Y34825386D01*
X15249210Y35108337D01*
X15248174Y35121503D01*
X15207636Y35340226D01*
X15204500Y35351346D01*
X15125078Y35558248D01*
X15119968Y35568611D01*
X15004170Y35757574D01*
X14997258Y35766831D01*
X14848964Y35931529D01*
X14840480Y35939372D01*
X14664655Y36074287D01*
X14654884Y36080452D01*
X14457417Y36181066D01*
X14446686Y36185348D01*
X14336454Y36218000D01*
X16162288Y36218000D01*
X16084503Y36197157D01*
G37*
X16084503Y36197157D02*
X16073664Y36193159D01*
X15873631Y36097748D01*
X15863702Y36091841D01*
X15684406Y35961575D01*
X15675719Y35953957D01*
X15523164Y35793197D01*
X15516012Y35784124D01*
X15395307Y35598257D01*
X15389928Y35588032D01*
X15305117Y35383280D01*
X15301690Y35372246D01*
X15255613Y35155467D01*
X15254255Y35143994D01*
X15248454Y34922448D01*
X15249210Y34910919D01*
X15283879Y34692026D01*
X15286723Y34680828D01*
X15360701Y34471917D01*
X15365538Y34461425D01*
X15476349Y34269494D01*
X15483017Y34260059D01*
X15626950Y34091537D01*
X15635225Y34083475D01*
X15807458Y33944003D01*
X15817064Y33937584D01*
X16011830Y33831836D01*
X16022445Y33827275D01*
X16233220Y33758790D01*
X16244489Y33756240D01*
X16364001Y33740506D01*
X16364000Y33274446D01*
X16261556Y33205995D01*
X16244005Y33188444D01*
X16174077Y33083789D01*
X16164579Y33060858D01*
X16141237Y32943510D01*
X16140024Y32931190D01*
X16140024Y32043810D01*
X16141237Y32031490D01*
X16164579Y31914142D01*
X16174077Y31891211D01*
X16177520Y31886058D01*
X16040410Y31771010D01*
X16026239Y31754121D01*
X15925641Y31579880D01*
X15918100Y31559163D01*
X15884122Y31366462D01*
X15883163Y31355501D01*
X15883163Y31114309D01*
X15956972Y31040500D01*
X16798192Y31040499D01*
X16798193Y31040500D01*
X17128000Y31040499D01*
X17127999Y29906972D01*
X17201808Y29833163D01*
X17483258Y29833163D01*
X17499634Y29835319D01*
X17778859Y29910137D01*
X17803339Y29922880D01*
X17959590Y30053990D01*
X17973761Y30070879D01*
X18074359Y30245120D01*
X18081900Y30265837D01*
X18102881Y30384825D01*
X18160137Y30171141D01*
X18172880Y30146661D01*
X18303990Y29990410D01*
X18320879Y29976239D01*
X18495120Y29875641D01*
X18515837Y29868100D01*
X18708538Y29834122D01*
X18719499Y29833163D01*
X18998191Y29833163D01*
X19072000Y29906972D01*
X19072001Y30710692D01*
X19072000Y30710693D01*
X19072001Y31040500D01*
X20243028Y31040499D01*
X20316837Y31114308D01*
X20316837Y31358258D01*
X20314681Y31374634D01*
X20239863Y31653858D01*
X20227120Y31678338D01*
X20096010Y31834590D01*
X20079121Y31848761D01*
X20020264Y31882742D01*
X20025923Y31891211D01*
X20035421Y31914142D01*
X20058763Y32031490D01*
X20059976Y32043810D01*
X20059976Y32931190D01*
X20058763Y32943510D01*
X20035421Y33060858D01*
X20025923Y33083789D01*
X19955995Y33188444D01*
X19938444Y33205995D01*
X19836000Y33274446D01*
X19836000Y33993420D01*
X19870137Y34016882D01*
X19879020Y34024270D01*
X20035730Y34180980D01*
X20043118Y34189863D01*
X20168647Y34372507D01*
X20174292Y34382588D01*
X20264433Y34585050D01*
X20268147Y34595990D01*
X20320077Y34812292D01*
X20321801Y34825386D01*
X20329210Y35108337D01*
X20328174Y35121503D01*
X20287636Y35340226D01*
X20284500Y35351346D01*
X20205078Y35558248D01*
X20199968Y35568611D01*
X20084170Y35757574D01*
X20077258Y35766831D01*
X19928964Y35931529D01*
X19920480Y35939372D01*
X19744655Y36074287D01*
X19734884Y36080452D01*
X19537417Y36181066D01*
X19526686Y36185348D01*
X19416454Y36218000D01*
X24378491Y36218000D01*
X24273576Y36096454D01*
X24267890Y36088755D01*
X24124713Y35860513D01*
X24120256Y35852043D01*
X24013251Y35604769D01*
X24010128Y35595722D01*
X23941757Y35335109D01*
X23940037Y35325694D01*
X23911874Y35057736D01*
X23911598Y35048170D01*
X23924290Y34779036D01*
X23925465Y34769537D01*
X23978721Y34505419D01*
X23981319Y34496208D01*
X24073912Y34243185D01*
X24077873Y34234472D01*
X24207674Y33998367D01*
X24212907Y33990354D01*
X24310606Y33863029D01*
X24424542Y33855561D01*
X25750000Y35181020D01*
X27075477Y33855542D01*
X27188658Y33862365D01*
X27276436Y33974314D01*
X27281753Y33982271D01*
X27414018Y34217004D01*
X27418070Y34225675D01*
X27513308Y34477715D01*
X27516003Y34486898D01*
X27572210Y34751333D01*
X27573564Y34762640D01*
X27584203Y35131995D01*
X27583503Y35143361D01*
X27542610Y35410592D01*
X27540449Y35419916D01*
X27459878Y35677020D01*
X27456332Y35685910D01*
X27337797Y35927868D01*
X27332947Y35936118D01*
X27179178Y36157363D01*
X27173135Y36164785D01*
X27122636Y36218000D01*
X27666187Y36218000D01*
X27665024Y36206190D01*
X27665024Y33793810D01*
X27666237Y33781490D01*
X27689579Y33664142D01*
X27699077Y33641211D01*
X27769005Y33536556D01*
X27786556Y33519005D01*
X27891211Y33449077D01*
X27914142Y33439579D01*
X28031490Y33416237D01*
X28043810Y33415024D01*
X30310890Y33415024D01*
X30841556Y32884358D01*
X30829124Y32886662D01*
X30813961Y32887616D01*
X30716563Y32882000D01*
X26789247Y32882000D01*
X26697954Y32888224D01*
X26682782Y32887429D01*
X26584584Y32870290D01*
X26485595Y32858311D01*
X26470840Y32854687D01*
X26449947Y32846791D01*
X26427953Y32842953D01*
X26413409Y32838562D01*
X26322129Y32798494D01*
X26228857Y32763249D01*
X26215394Y32756210D01*
X26196989Y32743561D01*
X26176391Y32734519D01*
X26163050Y32726582D01*
X26091253Y32670891D01*
X26002207Y32609691D01*
X25990811Y32599644D01*
X25925887Y32526776D01*
X24740049Y31340938D01*
X24740138Y31352224D01*
X24736719Y31373275D01*
X24669934Y31568337D01*
X24660044Y31586667D01*
X24533829Y31749383D01*
X24518533Y31763522D01*
X24346416Y31876581D01*
X24327366Y31885003D01*
X24234608Y31908820D01*
X24236127Y32102224D01*
X24232708Y32123275D01*
X24165923Y32318337D01*
X24156033Y32336667D01*
X24029818Y32499383D01*
X24014522Y32513522D01*
X23842405Y32626581D01*
X23829375Y32632342D01*
X23846661Y32653918D01*
X23856838Y32672091D01*
X23926678Y32866080D01*
X23930427Y32887075D01*
X23932117Y33102224D01*
X23928698Y33123275D01*
X23861913Y33318337D01*
X23852023Y33336667D01*
X23725808Y33499383D01*
X23710512Y33513522D01*
X23538395Y33626581D01*
X23519345Y33635003D01*
X23370277Y33673278D01*
X24604297Y33673278D01*
X24614425Y33556340D01*
X24805607Y33421975D01*
X24813832Y33417082D01*
X25055165Y33297284D01*
X25064036Y33293691D01*
X25320715Y33211774D01*
X25330027Y33209564D01*
X25596143Y33167415D01*
X25605682Y33166639D01*
X25875112Y33165229D01*
X25884658Y33165905D01*
X26151200Y33205264D01*
X26160535Y33207376D01*
X26418058Y33286600D01*
X26426966Y33290100D01*
X26669542Y33407366D01*
X26677818Y33412173D01*
X26885544Y33554940D01*
X26896357Y33672624D01*
X25802191Y34766790D01*
X25697809Y34766790D01*
X24604297Y33673278D01*
X23370277Y33673278D01*
X23319887Y33686216D01*
X23299136Y33688014D01*
X23093841Y33671856D01*
X23073626Y33666835D01*
X22884634Y33585051D01*
X22867136Y33573753D01*
X22714825Y33435159D01*
X22701930Y33418802D01*
X22602722Y33238346D01*
X22595821Y33218693D01*
X22560416Y33015831D01*
X22560252Y32995003D01*
X22560367Y32994279D01*
X20296808Y30730720D01*
X20243028Y30784500D01*
X19401809Y30784501D01*
X19328000Y30710692D01*
X19327999Y29906972D01*
X19400530Y29834441D01*
X18549689Y28983600D01*
X16394425Y28983600D01*
X16359209Y28990605D01*
X16334389Y28990605D01*
X16287002Y28981179D01*
X16170519Y28958009D01*
X16147589Y28948511D01*
X16008665Y28855686D01*
X15991114Y28838135D01*
X15971165Y28808278D01*
X15191723Y28028835D01*
X15161866Y28008886D01*
X15144315Y27991335D01*
X15098949Y27923439D01*
X15090711Y27911111D01*
X15071010Y27934590D01*
X15054121Y27948761D01*
X14879880Y28049359D01*
X14859163Y28056900D01*
X14614018Y28100125D01*
X14524000Y28024592D01*
X14524000Y27646089D01*
X14499077Y27608789D01*
X14489579Y27585859D01*
X14476001Y27517595D01*
X14476001Y28018028D01*
X14402192Y28091837D01*
X14341742Y28091837D01*
X14325366Y28089681D01*
X14264994Y28073505D01*
X14186227Y28087393D01*
X14524470Y28425636D01*
X14556448Y28447003D01*
X14573997Y28464553D01*
X14672438Y28611877D01*
X14681936Y28634808D01*
X14693153Y28691202D01*
X14693510Y28691237D01*
X14810858Y28714579D01*
X14833789Y28724077D01*
X14938444Y28794005D01*
X14955995Y28811556D01*
X15025923Y28916211D01*
X15035421Y28939142D01*
X15058763Y29056490D01*
X15059976Y29068810D01*
X15059976Y29956190D01*
X15058763Y29968510D01*
X15035421Y30085858D01*
X15025923Y30108789D01*
X15022480Y30113941D01*
X15159590Y30228990D01*
X15173761Y30245879D01*
X15274359Y30420120D01*
X15281900Y30440837D01*
X15315878Y30633538D01*
X15316837Y30644499D01*
X15316837Y30710692D01*
X15883163Y30710692D01*
X15883163Y30466742D01*
X15885319Y30450366D01*
X15960137Y30171141D01*
X15972880Y30146661D01*
X16103990Y29990410D01*
X16120879Y29976239D01*
X16295120Y29875641D01*
X16315837Y29868100D01*
X16508538Y29834122D01*
X16519499Y29833163D01*
X16798191Y29833163D01*
X16872000Y29906972D01*
X16872001Y30710691D01*
X16798192Y30784500D01*
X15956972Y30784501D01*
X15883163Y30710692D01*
X15316837Y30710692D01*
X15316837Y30885691D01*
X15243028Y30959500D01*
X14401808Y30959501D01*
X14401807Y30959500D01*
X14072000Y30959501D01*
X14072000Y31289309D01*
X14327999Y31289309D01*
X14401808Y31215500D01*
X15243028Y31215499D01*
X15316837Y31289308D01*
X15316837Y31533258D01*
X15314681Y31549634D01*
X15239863Y31828858D01*
X15227120Y31853338D01*
X15096010Y32009590D01*
X15079121Y32023761D01*
X14904880Y32124359D01*
X14884163Y32131900D01*
X14691462Y32165878D01*
X14680501Y32166837D01*
X14401809Y32166837D01*
X14328000Y32093028D01*
X14327999Y31289309D01*
X14072000Y31289309D01*
X14072001Y32093028D01*
X13998192Y32166837D01*
X13695809Y32166837D01*
X13622000Y32093028D01*
X13622000Y31997000D01*
X12372000Y31997001D01*
X12372001Y32253000D01*
X13770732Y32252999D01*
X13846384Y32346877D01*
X13765315Y32719544D01*
X13756685Y32740378D01*
X13628847Y32939300D01*
X13617044Y32952921D01*
X13440052Y33106285D01*
X13424890Y33116029D01*
X13211859Y33213317D01*
X13194566Y33218395D01*
X13116305Y33229647D01*
X13153952Y33274513D01*
X13576669Y33697229D01*
X13576678Y33697240D01*
X13651714Y33772276D01*
X13693220Y33758790D01*
X13704489Y33756240D01*
X13924215Y33727313D01*
X13935760Y33726859D01*
X14157078Y33738458D01*
X14168512Y33740116D01*
X14384010Y33791853D01*
X14394950Y33795567D01*
X14597412Y33885708D01*
X14607493Y33891353D01*
X14790137Y34016882D01*
X14799020Y34024270D01*
X14955730Y34180980D01*
X14963118Y34189863D01*
X15088647Y34372507D01*
X15094292Y34382588D01*
X15184433Y34585050D01*
X15188147Y34595990D01*
X15240077Y34812292D01*
X15241801Y34825386D01*
X15249210Y35108337D01*
X15248174Y35121503D01*
X15207636Y35340226D01*
X15204500Y35351346D01*
X15125078Y35558248D01*
X15119968Y35568611D01*
X15004170Y35757574D01*
X14997258Y35766831D01*
X14848964Y35931529D01*
X14840480Y35939372D01*
X14664655Y36074287D01*
X14654884Y36080452D01*
X14457417Y36181066D01*
X14446686Y36185348D01*
X14336454Y36218000D01*
X16162288Y36218000D01*
X16084503Y36197157D01*
G36*
X10287556Y36169995D02*
G01*
X10270005Y36152444D01*
X10200077Y36047789D01*
X10190579Y36024858D01*
X10167237Y35907510D01*
X10166024Y35895190D01*
X10166024Y34625464D01*
X9257408Y33716847D01*
X9201356Y33669814D01*
X9187185Y33652925D01*
X9150599Y33589557D01*
X9108617Y33529601D01*
X9099299Y33509617D01*
X9094843Y33492985D01*
X9086235Y33478076D01*
X9078694Y33457358D01*
X9065985Y33385284D01*
X9058088Y33355813D01*
X8971010Y33459590D01*
X8954121Y33473761D01*
X8779880Y33574359D01*
X8759163Y33581900D01*
X8566462Y33615878D01*
X8555501Y33616837D01*
X8314309Y33616837D01*
X8240500Y33543028D01*
X8240500Y32372000D01*
X7984500Y32372000D01*
X7984500Y33543028D01*
X7910691Y33616837D01*
X7666742Y33616837D01*
X7650366Y33614681D01*
X7582000Y33596362D01*
X7582000Y35827558D01*
X7972443Y36218000D01*
X10359401Y36218000D01*
X10287556Y36169995D01*
G37*
X10287556Y36169995D02*
X10270005Y36152444D01*
X10200077Y36047789D01*
X10190579Y36024858D01*
X10167237Y35907510D01*
X10166024Y35895190D01*
X10166024Y34625464D01*
X9257408Y33716847D01*
X9201356Y33669814D01*
X9187185Y33652925D01*
X9150599Y33589557D01*
X9108617Y33529601D01*
X9099299Y33509617D01*
X9094843Y33492985D01*
X9086235Y33478076D01*
X9078694Y33457358D01*
X9065985Y33385284D01*
X9058088Y33355813D01*
X8971010Y33459590D01*
X8954121Y33473761D01*
X8779880Y33574359D01*
X8759163Y33581900D01*
X8566462Y33615878D01*
X8555501Y33616837D01*
X8314309Y33616837D01*
X8240500Y33543028D01*
X8240500Y32372000D01*
X7984500Y32372000D01*
X7984500Y33543028D01*
X7910691Y33616837D01*
X7666742Y33616837D01*
X7650366Y33614681D01*
X7582000Y33596362D01*
X7582000Y35827558D01*
X7972443Y36218000D01*
X10359401Y36218000D01*
X10287556Y36169995D01*
G36*
X28161000Y7482322D02*
G01*
X28130753Y7427755D01*
X28127513Y7419961D01*
X28123091Y7404692D01*
X28115015Y7390899D01*
X28111540Y7383020D01*
X28110218Y7378758D01*
X28048516Y7181866D01*
X28046909Y7173579D01*
X28045648Y7157734D01*
X28040531Y7142659D01*
X28038724Y7134370D01*
X28038255Y7129776D01*
X28038252Y7129752D01*
X28017399Y6924463D01*
X28017491Y6916022D01*
X28021601Y6882795D01*
X28021601Y6684000D01*
X23231400Y6684000D01*
X23231400Y8111846D01*
X23379133Y8026551D01*
X23391498Y8022051D01*
X23579910Y7988829D01*
X23593068Y7988829D01*
X23781480Y8022051D01*
X23793845Y8026551D01*
X23959533Y8122212D01*
X23969613Y8130670D01*
X24092590Y8277228D01*
X24099169Y8288624D01*
X24153755Y8438600D01*
X28161000Y8438600D01*
X28161000Y7482322D01*
G37*
D41*
X28161000Y7482322D02*
X28130753Y7427755D01*
X28127513Y7419961D01*
X28123091Y7404692D01*
X28115015Y7390899D01*
X28111540Y7383020D01*
X28110218Y7378758D01*
X28048516Y7181866D01*
X28046909Y7173579D01*
X28045648Y7157734D01*
X28040531Y7142659D01*
X28038724Y7134370D01*
X28038255Y7129776D01*
X28038252Y7129752D01*
X28017399Y6924463D01*
X28017491Y6916022D01*
X28021601Y6882795D01*
X28021601Y6684000D01*
X23231400Y6684000D01*
X23231400Y8111846D01*
X23379133Y8026551D01*
X23391498Y8022051D01*
X23579910Y7988829D01*
X23593068Y7988829D01*
X23781480Y8022051D01*
X23793845Y8026551D01*
X23959533Y8122212D01*
X23969613Y8130670D01*
X24092590Y8277228D01*
X24099169Y8288624D01*
X24153755Y8438600D01*
X28161000Y8438600D01*
X28161000Y7482322D01*
M02*
