M48
; DRILL file {KiCad (5.1.0-1558-g0ba0c1724)} date Mon 21 Oct 2019 10:03:21 PM PDT
; FORMAT={-:-/ absolute / metric / decimal}
; #@! TF.CreationDate,2019-10-21T22:03:21-07:00
; #@! TF.GenerationSoftware,Kicad,Pcbnew,(5.1.0-1558-g0ba0c1724)
; #@! TF.FileFunction,Plated,1,2,PTH
FMAT,2
METRIC
T1C0.305
T2C0.381
T3C0.400
T4C0.500
T5C1.000
%
G90
G05
T1
X124.968Y-81.28
X125.451Y-89.789
X125.451Y-90.424
X125.451Y-91.059
X125.451Y-91.694
X125.451Y-92.329
X126.06Y-81.28
X126.086Y-89.789
X126.086Y-90.424
X126.086Y-91.059
X126.086Y-91.694
X126.086Y-92.329
X126.111Y-85.776
X126.238Y-87.503
X126.721Y-89.789
X126.721Y-90.424
X126.721Y-91.059
X126.721Y-91.694
X126.721Y-92.329
X127.127Y-87.503
X127.254Y-85.776
X127.33Y-81.28
X127.356Y-89.789
X127.356Y-90.424
X127.356Y-91.059
X127.356Y-91.694
X127.356Y-92.329
X127.927Y-89.789
X127.927Y-90.424
X127.927Y-91.059
X127.927Y-91.694
X127.927Y-92.329
X128.422Y-81.28
T2
X121.996Y-88.417
X121.996Y-89.459
X122.682Y-89.459
X122.707Y-88.417
X123.368Y-89.484
X123.393Y-88.417
X129.972Y-88.367
X129.972Y-89.408
X130.658Y-89.408
X130.683Y-88.367
X131.343Y-89.433
X131.369Y-88.367
T3
X117.411Y-103.378
X117.475Y-100.012
X117.653Y-106.02
X118.669Y-106.655
X118.694Y-90.195
X119.634Y-104.496
X120.269Y-87.122
X120.269Y-95.377
X120.58Y-106.691
X120.675Y-104.699
X120.701Y-102.203
X120.823Y-105.835
X121.564Y-104.242
X121.59Y-102.21
X122.987Y-104.089
X124.663Y-106.02
X124.714Y-103.429
X125.501Y-106.578
X125.527Y-102.641
X125.679Y-98.45
X126.441Y-97.638
X126.949Y-96.52
X126.949Y-99.085
X127.406Y-105.562
X128.143Y-99.06
X129.718Y-99.069
X130.785Y-104.8
X131.851Y-99.187
X133.35Y-87.122
X134.493Y-93.599
X134.849Y-91.313
X134.925Y-102.718
X135.687Y-103.48
X135.795Y-92.989
T4
X110.998Y-80.772
X110.998Y-83.058
X113.03Y-80.772
X113.03Y-83.058
X114.808Y-80.772
X114.808Y-83.058
X116.586Y-80.772
X116.586Y-83.058
X137.414Y-80.772
X137.414Y-83.058
X139.446Y-80.772
X139.446Y-83.058
X141.224Y-80.772
X141.224Y-83.058
X143.002Y-80.772
X143.002Y-83.058
T5
X122.809Y-78.562
X125.349Y-78.562
X127.889Y-78.562
X130.429Y-78.562
T0
M30
