G04 #@! TF.GenerationSoftware,KiCad,Pcbnew,(5.99.0-1251-g6aaee01f1)*
G04 #@! TF.CreationDate,2020-04-14T13:23:22-07:00*
G04 #@! TF.ProjectId,TMC2130_Driver,544d4332-3133-4305-9f44-72697665722e,rev?*
G04 #@! TF.SameCoordinates,PX67f3540PY6cb8080*
G04 #@! TF.FileFunction,Paste,Top*
G04 #@! TF.FilePolarity,Positive*
%FSLAX46Y46*%
G04 Gerber Fmt 4.6, Leading zero omitted, Abs format (unit mm)*
G04 Created by KiCad (PCBNEW (5.99.0-1251-g6aaee01f1)) date 2020-04-14 13:23:22*
%MOMM*%
%LPD*%
G01*
G04 APERTURE LIST*
%ADD10R,2.500000X1.800000*%
%ADD11R,0.300000X1.500000*%
%ADD12R,1.500000X0.300000*%
%ADD13R,1.350000X1.350000*%
%ADD14R,0.640000X0.590000*%
%ADD15R,0.875000X0.950000*%
%ADD16R,0.950000X0.875000*%
%ADD17R,1.250000X1.750000*%
%ADD18R,0.680000X0.300000*%
%ADD19R,1.400000X0.700000*%
%ADD20R,0.700000X0.500000*%
%ADD21R,0.700000X0.650000*%
G04 APERTURE END LIST*
G36*
G01*
X6175000Y24025000D02*
X4925000Y24025000D01*
G75*
G02*
X4675000Y24275000I0J250000D01*
G01*
X4675000Y25025000D01*
G75*
G02*
X4925000Y25275000I250000J0D01*
G01*
X6175000Y25275000D01*
G75*
G02*
X6425000Y25025000I0J-250000D01*
G01*
X6425000Y24275000D01*
G75*
G02*
X6175000Y24025000I-250000J0D01*
G01*
G37*
G36*
G01*
X6175000Y21225000D02*
X4925000Y21225000D01*
G75*
G02*
X4675000Y21475000I0J250000D01*
G01*
X4675000Y22225000D01*
G75*
G02*
X4925000Y22475000I250000J0D01*
G01*
X6175000Y22475000D01*
G75*
G02*
X6425000Y22225000I0J-250000D01*
G01*
X6425000Y21475000D01*
G75*
G02*
X6175000Y21225000I-250000J0D01*
G01*
G37*
G36*
G01*
X24125000Y23775000D02*
X22875000Y23775000D01*
G75*
G02*
X22625000Y24025000I0J250000D01*
G01*
X22625000Y24775000D01*
G75*
G02*
X22875000Y25025000I250000J0D01*
G01*
X24125000Y25025000D01*
G75*
G02*
X24375000Y24775000I0J-250000D01*
G01*
X24375000Y24025000D01*
G75*
G02*
X24125000Y23775000I-250000J0D01*
G01*
G37*
G36*
G01*
X24125000Y20975000D02*
X22875000Y20975000D01*
G75*
G02*
X22625000Y21225000I0J250000D01*
G01*
X22625000Y21975000D01*
G75*
G02*
X22875000Y22225000I250000J0D01*
G01*
X24125000Y22225000D01*
G75*
G02*
X24375000Y21975000I0J-250000D01*
G01*
X24375000Y21225000D01*
G75*
G02*
X24125000Y20975000I-250000J0D01*
G01*
G37*
G36*
G01*
X12956250Y31637500D02*
X12043750Y31637500D01*
G75*
G02*
X11800000Y31881250I0J243750D01*
G01*
X11800000Y32368750D01*
G75*
G02*
X12043750Y32612500I243750J0D01*
G01*
X12956250Y32612500D01*
G75*
G02*
X13200000Y32368750I0J-243750D01*
G01*
X13200000Y31881250D01*
G75*
G02*
X12956250Y31637500I-243750J0D01*
G01*
G37*
G36*
G01*
X12956250Y29762500D02*
X12043750Y29762500D01*
G75*
G02*
X11800000Y30006250I0J243750D01*
G01*
X11800000Y30493750D01*
G75*
G02*
X12043750Y30737500I243750J0D01*
G01*
X12956250Y30737500D01*
G75*
G02*
X13200000Y30493750I0J-243750D01*
G01*
X13200000Y30006250D01*
G75*
G02*
X12956250Y29762500I-243750J0D01*
G01*
G37*
G36*
G01*
X32325000Y30875000D02*
X33575000Y30875000D01*
G75*
G02*
X33825000Y30625000I0J-250000D01*
G01*
X33825000Y29875000D01*
G75*
G02*
X33575000Y29625000I-250000J0D01*
G01*
X32325000Y29625000D01*
G75*
G02*
X32075000Y29875000I0J250000D01*
G01*
X32075000Y30625000D01*
G75*
G02*
X32325000Y30875000I250000J0D01*
G01*
G37*
G36*
G01*
X32325000Y33675000D02*
X33575000Y33675000D01*
G75*
G02*
X33825000Y33425000I0J-250000D01*
G01*
X33825000Y32675000D01*
G75*
G02*
X33575000Y32425000I-250000J0D01*
G01*
X32325000Y32425000D01*
G75*
G02*
X32075000Y32675000I0J250000D01*
G01*
X32075000Y33425000D01*
G75*
G02*
X32325000Y33675000I250000J0D01*
G01*
G37*
D10*
X30750000Y27500000D03*
X34750000Y27500000D03*
D11*
X12000000Y18300000D03*
X12500000Y18300000D03*
X13000000Y18300000D03*
X13500000Y18300000D03*
X14000000Y18300000D03*
X14500000Y18300000D03*
X15000000Y18300000D03*
X15500000Y18300000D03*
X16000000Y18300000D03*
X16500000Y18300000D03*
X17000000Y18300000D03*
X17500000Y18300000D03*
D12*
X18950000Y19750000D03*
X18950000Y20750000D03*
X18950000Y21750000D03*
X18950000Y22750000D03*
X18950000Y23750000D03*
X18950000Y24750000D03*
X18950000Y25250000D03*
D11*
X17500000Y26700000D03*
X17000000Y26700000D03*
X16500000Y26700000D03*
X16000000Y26700000D03*
X15500000Y26700000D03*
X15000000Y26700000D03*
X14500000Y26700000D03*
X14000000Y26700000D03*
X13500000Y26700000D03*
X13000000Y26700000D03*
X12500000Y26700000D03*
X12000000Y26700000D03*
D12*
X10550000Y25250000D03*
X10550000Y24750000D03*
X10550000Y24250000D03*
X10550000Y23750000D03*
X10550000Y22750000D03*
X10550000Y21750000D03*
X10550000Y20750000D03*
X10550000Y19750000D03*
D13*
X15625000Y23375000D03*
X13875000Y23375000D03*
X15625000Y21625000D03*
X13875000Y21625000D03*
D14*
X3400000Y21830000D03*
X3400000Y22800000D03*
D15*
X8912500Y30800000D03*
X10487500Y30800000D03*
D14*
X25700000Y21615000D03*
X25700000Y22585000D03*
X9000000Y24115000D03*
X9000000Y25085000D03*
D16*
X14200000Y31087500D03*
X14200000Y29512500D03*
D17*
X24400000Y29400000D03*
X27200000Y29400000D03*
G36*
G01*
X32450000Y11050000D02*
X33550000Y11050000D01*
G75*
G02*
X33800000Y10800000I0J-250000D01*
G01*
X33800000Y7800000D01*
G75*
G02*
X33550000Y7550000I-250000J0D01*
G01*
X32450000Y7550000D01*
G75*
G02*
X32200000Y7800000I0J250000D01*
G01*
X32200000Y10800000D01*
G75*
G02*
X32450000Y11050000I250000J0D01*
G01*
G37*
G36*
G01*
X32450000Y16450000D02*
X33550000Y16450000D01*
G75*
G02*
X33800000Y16200000I0J-250000D01*
G01*
X33800000Y13200000D01*
G75*
G02*
X33550000Y12950000I-250000J0D01*
G01*
X32450000Y12950000D01*
G75*
G02*
X32200000Y13200000I0J250000D01*
G01*
X32200000Y16200000D01*
G75*
G02*
X32450000Y16450000I250000J0D01*
G01*
G37*
D18*
X21260000Y11600000D03*
X21260000Y12100000D03*
X21260000Y12600000D03*
X21260000Y13100000D03*
X18540000Y11600000D03*
X18540000Y12100000D03*
X18540000Y12600000D03*
X18540000Y13100000D03*
D19*
X19900000Y12350000D03*
D20*
X19900000Y11850000D03*
D21*
X19900000Y12750000D03*
D15*
X18512500Y10250000D03*
X20087500Y10250000D03*
D16*
X19200000Y30912500D03*
X19200000Y32487500D03*
X17000000Y30912500D03*
X17000000Y32487500D03*
D15*
X8112500Y32500000D03*
X9687500Y32500000D03*
D17*
X6200000Y30400000D03*
X3400000Y30400000D03*
D15*
X11787500Y28600000D03*
X10212500Y28600000D03*
X16962500Y16250000D03*
X18537500Y16250000D03*
M02*
