G04 #@! TF.GenerationSoftware,KiCad,Pcbnew,(5.1.0-1558-g0ba0c1724)*
G04 #@! TF.CreationDate,2020-03-09T19:15:21-07:00*
G04 #@! TF.ProjectId,TMC2130_Driver,544d4332-3133-4305-9f44-72697665722e,rev?*
G04 #@! TF.SameCoordinates,PX67f3540PY6cb8080*
G04 #@! TF.FileFunction,Legend,Top*
G04 #@! TF.FilePolarity,Positive*
%FSLAX46Y46*%
G04 Gerber Fmt 4.6, Leading zero omitted, Abs format (unit mm)*
G04 Created by KiCad (PCBNEW (5.1.0-1558-g0ba0c1724)) date 2020-03-09 19:15:21*
%MOMM*%
%LPD*%
G04 APERTURE LIST*
%ADD10C,0.150000*%
%ADD11C,0.100000*%
%ADD12C,0.300000*%
%ADD13C,0.120000*%
G04 APERTURE END LIST*
D10*
X10250000Y18297620D02*
X10250000Y18059524D01*
X10011904Y18154762D02*
X10250000Y18059524D01*
X10488095Y18154762D01*
X10107142Y17869048D02*
X10250000Y18059524D01*
X10392857Y17869048D01*
X25119047Y30928572D02*
X25880952Y30928572D01*
X29119047Y30928572D02*
X29880952Y30928572D01*
X29500000Y30547620D02*
X29500000Y31309524D01*
X21738095Y15102620D02*
X21738095Y14293096D01*
X21785714Y14197858D01*
X21833333Y14150239D01*
X21928571Y14102620D01*
X22119047Y14102620D01*
X22214285Y14150239D01*
X22261904Y14197858D01*
X22309523Y14293096D01*
X22309523Y15102620D01*
X22738095Y14150239D02*
X22880952Y14102620D01*
X23119047Y14102620D01*
X23214285Y14150239D01*
X23261904Y14197858D01*
X23309523Y14293096D01*
X23309523Y14388334D01*
X23261904Y14483572D01*
X23214285Y14531191D01*
X23119047Y14578810D01*
X22928571Y14626429D01*
X22833333Y14674048D01*
X22785714Y14721667D01*
X22738095Y14816905D01*
X22738095Y14912143D01*
X22785714Y15007381D01*
X22833333Y15055000D01*
X22928571Y15102620D01*
X23166666Y15102620D01*
X23309523Y15055000D01*
X23738095Y14626429D02*
X24071428Y14626429D01*
X24214285Y14102620D02*
X23738095Y14102620D01*
X23738095Y15102620D01*
X24214285Y15102620D01*
X25738095Y14626429D02*
X25880952Y14578810D01*
X25928571Y14531191D01*
X25976190Y14435953D01*
X25976190Y14293096D01*
X25928571Y14197858D01*
X25880952Y14150239D01*
X25785714Y14102620D01*
X25404761Y14102620D01*
X25404761Y15102620D01*
X25738095Y15102620D01*
X25833333Y15055000D01*
X25880952Y15007381D01*
X25928571Y14912143D01*
X25928571Y14816905D01*
X25880952Y14721667D01*
X25833333Y14674048D01*
X25738095Y14626429D01*
X25404761Y14626429D01*
X26547619Y14102620D02*
X26452380Y14150239D01*
X26404761Y14197858D01*
X26357142Y14293096D01*
X26357142Y14578810D01*
X26404761Y14674048D01*
X26452380Y14721667D01*
X26547619Y14769286D01*
X26690476Y14769286D01*
X26785714Y14721667D01*
X26833333Y14674048D01*
X26880952Y14578810D01*
X26880952Y14293096D01*
X26833333Y14197858D01*
X26785714Y14150239D01*
X26690476Y14102620D01*
X26547619Y14102620D01*
X27738095Y14102620D02*
X27738095Y14626429D01*
X27690476Y14721667D01*
X27595238Y14769286D01*
X27404761Y14769286D01*
X27309523Y14721667D01*
X27738095Y14150239D02*
X27642857Y14102620D01*
X27404761Y14102620D01*
X27309523Y14150239D01*
X27261904Y14245477D01*
X27261904Y14340715D01*
X27309523Y14435953D01*
X27404761Y14483572D01*
X27642857Y14483572D01*
X27738095Y14531191D01*
X28214285Y14102620D02*
X28214285Y14769286D01*
X28214285Y14578810D02*
X28261904Y14674048D01*
X28309523Y14721667D01*
X28404761Y14769286D01*
X28500000Y14769286D01*
X29261904Y14102620D02*
X29261904Y15102620D01*
X29261904Y14150239D02*
X29166666Y14102620D01*
X28976190Y14102620D01*
X28880952Y14150239D01*
X28833333Y14197858D01*
X28785714Y14293096D01*
X28785714Y14578810D01*
X28833333Y14674048D01*
X28880952Y14721667D01*
X28976190Y14769286D01*
X29166666Y14769286D01*
X29261904Y14721667D01*
X22833333Y13492620D02*
X23166666Y12492620D01*
X23500000Y13492620D01*
X23976190Y12492620D02*
X23880952Y12540239D01*
X23833333Y12587858D01*
X23785714Y12683096D01*
X23785714Y12968810D01*
X23833333Y13064048D01*
X23880952Y13111667D01*
X23976190Y13159286D01*
X24119047Y13159286D01*
X24214285Y13111667D01*
X24261904Y13064048D01*
X24309523Y12968810D01*
X24309523Y12683096D01*
X24261904Y12587858D01*
X24214285Y12540239D01*
X24119047Y12492620D01*
X23976190Y12492620D01*
X24880952Y12492620D02*
X24785714Y12540239D01*
X24738095Y12635477D01*
X24738095Y13492620D01*
X25119047Y13159286D02*
X25500000Y13159286D01*
X25261904Y13492620D02*
X25261904Y12635477D01*
X25309523Y12540239D01*
X25404761Y12492620D01*
X25500000Y12492620D01*
X26261904Y12492620D02*
X26261904Y13016429D01*
X26214285Y13111667D01*
X26119047Y13159286D01*
X25928571Y13159286D01*
X25833333Y13111667D01*
X26261904Y12540239D02*
X26166666Y12492620D01*
X25928571Y12492620D01*
X25833333Y12540239D01*
X25785714Y12635477D01*
X25785714Y12730715D01*
X25833333Y12825953D01*
X25928571Y12873572D01*
X26166666Y12873572D01*
X26261904Y12921191D01*
X27166666Y13159286D02*
X27166666Y12349762D01*
X27119047Y12254524D01*
X27071428Y12206905D01*
X26976190Y12159286D01*
X26833333Y12159286D01*
X26738095Y12206905D01*
X27166666Y12540239D02*
X27071428Y12492620D01*
X26880952Y12492620D01*
X26785714Y12540239D01*
X26738095Y12587858D01*
X26690476Y12683096D01*
X26690476Y12968810D01*
X26738095Y13064048D01*
X26785714Y13111667D01*
X26880952Y13159286D01*
X27071428Y13159286D01*
X27166666Y13111667D01*
X28023809Y12540239D02*
X27928571Y12492620D01*
X27738095Y12492620D01*
X27642857Y12540239D01*
X27595238Y12635477D01*
X27595238Y13016429D01*
X27642857Y13111667D01*
X27738095Y13159286D01*
X27928571Y13159286D01*
X28023809Y13111667D01*
X28071428Y13016429D01*
X28071428Y12921191D01*
X27595238Y12825953D01*
X33261904Y20547620D02*
X33261904Y21547620D01*
X33500000Y21547620D01*
X33642857Y21500000D01*
X33738095Y21404762D01*
X33785714Y21309524D01*
X33833333Y21119048D01*
X33833333Y20976191D01*
X33785714Y20785715D01*
X33738095Y20690477D01*
X33642857Y20595239D01*
X33500000Y20547620D01*
X33261904Y20547620D01*
X34452380Y21547620D02*
X34547619Y21547620D01*
X34642857Y21500000D01*
X34690476Y21452381D01*
X34738095Y21357143D01*
X34785714Y21166667D01*
X34785714Y20928572D01*
X34738095Y20738096D01*
X34690476Y20642858D01*
X34642857Y20595239D01*
X34547619Y20547620D01*
X34452380Y20547620D01*
X34357142Y20595239D01*
X34309523Y20642858D01*
X34261904Y20738096D01*
X34214285Y20928572D01*
X34214285Y21166667D01*
X34261904Y21357143D01*
X34309523Y21452381D01*
X34357142Y21500000D01*
X34452380Y21547620D01*
X26761904Y20547620D02*
X26761904Y21547620D01*
X27000000Y21547620D01*
X27142857Y21500000D01*
X27238095Y21404762D01*
X27285714Y21309524D01*
X27333333Y21119048D01*
X27333333Y20976191D01*
X27285714Y20785715D01*
X27238095Y20690477D01*
X27142857Y20595239D01*
X27000000Y20547620D01*
X26761904Y20547620D01*
X28285714Y20547620D02*
X27714285Y20547620D01*
X28000000Y20547620D02*
X28000000Y21547620D01*
X27904761Y21404762D01*
X27809523Y21309524D01*
X27714285Y21261905D01*
X2797619Y11471667D02*
X2750000Y11519286D01*
X2654761Y11662143D01*
X2607142Y11757381D01*
X2559523Y11900239D01*
X2511904Y12138334D01*
X2511904Y12328810D01*
X2559523Y12566905D01*
X2607142Y12709762D01*
X2654761Y12805000D01*
X2750000Y12947858D01*
X2797619Y12995477D01*
X3607142Y11900239D02*
X3511904Y11852620D01*
X3321428Y11852620D01*
X3226190Y11900239D01*
X3178571Y11947858D01*
X3130952Y12043096D01*
X3130952Y12328810D01*
X3178571Y12424048D01*
X3226190Y12471667D01*
X3321428Y12519286D01*
X3511904Y12519286D01*
X3607142Y12471667D01*
X3940476Y11471667D02*
X3988095Y11519286D01*
X4083333Y11662143D01*
X4130952Y11757381D01*
X4178571Y11900239D01*
X4226190Y12138334D01*
X4226190Y12328810D01*
X4178571Y12566905D01*
X4130952Y12709762D01*
X4083333Y12805000D01*
X3988095Y12947858D01*
X3940476Y12995477D01*
X5464285Y11852620D02*
X5464285Y12519286D01*
X5464285Y12852620D02*
X5416666Y12805000D01*
X5464285Y12757381D01*
X5511904Y12805000D01*
X5464285Y12852620D01*
X5464285Y12757381D01*
X6607142Y11757381D02*
X6511904Y11805000D01*
X6416666Y11900239D01*
X6273809Y12043096D01*
X6178571Y12090715D01*
X6083333Y12090715D01*
X6130952Y11852620D02*
X6035714Y11900239D01*
X5940476Y11995477D01*
X5892857Y12185953D01*
X5892857Y12519286D01*
X5940476Y12709762D01*
X6035714Y12805000D01*
X6130952Y12852620D01*
X6321428Y12852620D01*
X6416666Y12805000D01*
X6511904Y12709762D01*
X6559523Y12519286D01*
X6559523Y12185953D01*
X6511904Y11995477D01*
X6416666Y11900239D01*
X6321428Y11852620D01*
X6130952Y11852620D01*
X7416666Y12519286D02*
X7416666Y11852620D01*
X6988095Y12519286D02*
X6988095Y11995477D01*
X7035714Y11900239D01*
X7130952Y11852620D01*
X7273809Y11852620D01*
X7369047Y11900239D01*
X7416666Y11947858D01*
X7892857Y11852620D02*
X7892857Y12519286D01*
X7892857Y12328810D02*
X7940476Y12424048D01*
X7988095Y12471667D01*
X8083333Y12519286D01*
X8178571Y12519286D01*
X8416666Y12519286D02*
X8654761Y11852620D01*
X8892857Y12519286D02*
X8654761Y11852620D01*
X8559523Y11614524D01*
X8511904Y11566905D01*
X8416666Y11519286D01*
X9273809Y11947858D02*
X9321428Y11900239D01*
X9273809Y11852620D01*
X9226190Y11900239D01*
X9273809Y11947858D01*
X9273809Y11852620D01*
X10178571Y12519286D02*
X10178571Y11852620D01*
X9750000Y12519286D02*
X9750000Y11995477D01*
X9797619Y11900239D01*
X9892857Y11852620D01*
X10035714Y11852620D01*
X10130952Y11900239D01*
X10178571Y11947858D01*
X10607142Y11900239D02*
X10702380Y11852620D01*
X10892857Y11852620D01*
X10988095Y11900239D01*
X11035714Y11995477D01*
X11035714Y12043096D01*
X10988095Y12138334D01*
X10892857Y12185953D01*
X10750000Y12185953D01*
X10654761Y12233572D01*
X10607142Y12328810D01*
X10607142Y12376429D01*
X10654761Y12471667D01*
X10750000Y12519286D01*
X10892857Y12519286D01*
X10988095Y12471667D01*
X3369047Y10242620D02*
X3369047Y11242620D01*
X3702380Y10528334D01*
X4035714Y11242620D01*
X4035714Y10242620D01*
X4940476Y10242620D02*
X4940476Y10766429D01*
X4892857Y10861667D01*
X4797619Y10909286D01*
X4607142Y10909286D01*
X4511904Y10861667D01*
X4940476Y10290239D02*
X4845238Y10242620D01*
X4607142Y10242620D01*
X4511904Y10290239D01*
X4464285Y10385477D01*
X4464285Y10480715D01*
X4511904Y10575953D01*
X4607142Y10623572D01*
X4845238Y10623572D01*
X4940476Y10671191D01*
X5416666Y10242620D02*
X5416666Y10909286D01*
X5416666Y10718810D02*
X5464285Y10814048D01*
X5511904Y10861667D01*
X5607142Y10909286D01*
X5702380Y10909286D01*
X6750000Y11147381D02*
X6797619Y11195000D01*
X6892857Y11242620D01*
X7130952Y11242620D01*
X7226190Y11195000D01*
X7273809Y11147381D01*
X7321428Y11052143D01*
X7321428Y10956905D01*
X7273809Y10814048D01*
X6702380Y10242620D01*
X7321428Y10242620D01*
X7940476Y11242620D02*
X8035714Y11242620D01*
X8130952Y11195000D01*
X8178571Y11147381D01*
X8226190Y11052143D01*
X8273809Y10861667D01*
X8273809Y10623572D01*
X8226190Y10433096D01*
X8178571Y10337858D01*
X8130952Y10290239D01*
X8035714Y10242620D01*
X7940476Y10242620D01*
X7845238Y10290239D01*
X7797619Y10337858D01*
X7750000Y10433096D01*
X7702380Y10623572D01*
X7702380Y10861667D01*
X7750000Y11052143D01*
X7797619Y11147381D01*
X7845238Y11195000D01*
X7940476Y11242620D01*
X8654761Y11147381D02*
X8702380Y11195000D01*
X8797619Y11242620D01*
X9035714Y11242620D01*
X9130952Y11195000D01*
X9178571Y11147381D01*
X9226190Y11052143D01*
X9226190Y10956905D01*
X9178571Y10814048D01*
X8607142Y10242620D01*
X9226190Y10242620D01*
X9845238Y11242620D02*
X9940476Y11242620D01*
X10035714Y11195000D01*
X10083333Y11147381D01*
X10130952Y11052143D01*
X10178571Y10861667D01*
X10178571Y10623572D01*
X10130952Y10433096D01*
X10083333Y10337858D01*
X10035714Y10290239D01*
X9940476Y10242620D01*
X9845238Y10242620D01*
X9750000Y10290239D01*
X9702380Y10337858D01*
X9654761Y10433096D01*
X9607142Y10623572D01*
X9607142Y10861667D01*
X9654761Y11052143D01*
X9702380Y11147381D01*
X9750000Y11195000D01*
X9845238Y11242620D01*
D11*
X3446428Y27160715D02*
X3446428Y27660715D01*
X3446428Y27517858D02*
X3482142Y27589286D01*
X3517857Y27625000D01*
X3589285Y27660715D01*
X3660714Y27660715D01*
X4196428Y27196429D02*
X4125000Y27160715D01*
X3982142Y27160715D01*
X3910714Y27196429D01*
X3875000Y27267858D01*
X3875000Y27553572D01*
X3910714Y27625000D01*
X3982142Y27660715D01*
X4125000Y27660715D01*
X4196428Y27625000D01*
X4232142Y27553572D01*
X4232142Y27482143D01*
X3875000Y27410715D01*
X4482142Y27660715D02*
X4660714Y27160715D01*
X4839285Y27660715D01*
X6089285Y27160715D02*
X5660714Y27160715D01*
X5875000Y27160715D02*
X5875000Y27910715D01*
X5803571Y27803572D01*
X5732142Y27732143D01*
X5660714Y27696429D01*
D12*
X2178571Y14678572D02*
X678571Y14678572D01*
X678571Y15035715D01*
X750000Y15250000D01*
X892857Y15392858D01*
X1035714Y15464286D01*
X1321428Y15535715D01*
X1535714Y15535715D01*
X1821428Y15464286D01*
X1964285Y15392858D01*
X2107142Y15250000D01*
X2178571Y15035715D01*
X2178571Y14678572D01*
X2178571Y17035715D02*
X1464285Y16535715D01*
X2178571Y16178572D02*
X678571Y16178572D01*
X678571Y16750000D01*
X750000Y16892858D01*
X821428Y16964286D01*
X964285Y17035715D01*
X1178571Y17035715D01*
X1321428Y16964286D01*
X1392857Y16892858D01*
X1464285Y16750000D01*
X1464285Y16178572D01*
X678571Y17464286D02*
X2178571Y17964286D01*
X678571Y18464286D01*
X821428Y18892858D02*
X750000Y18964286D01*
X678571Y19107143D01*
X678571Y19464286D01*
X750000Y19607143D01*
X821428Y19678572D01*
X964285Y19750000D01*
X1107142Y19750000D01*
X1321428Y19678572D01*
X2178571Y18821429D01*
X2178571Y19750000D01*
X2178571Y21178572D02*
X2178571Y20321429D01*
X2178571Y20750000D02*
X678571Y20750000D01*
X892857Y20607143D01*
X1035714Y20464286D01*
X1107142Y20321429D01*
X678571Y21678572D02*
X678571Y22607143D01*
X1250000Y22107143D01*
X1250000Y22321429D01*
X1321428Y22464286D01*
X1392857Y22535715D01*
X1535714Y22607143D01*
X1892857Y22607143D01*
X2035714Y22535715D01*
X2107142Y22464286D01*
X2178571Y22321429D01*
X2178571Y21892858D01*
X2107142Y21750000D01*
X2035714Y21678572D01*
X678571Y23535715D02*
X678571Y23678572D01*
X750000Y23821429D01*
X821428Y23892858D01*
X964285Y23964286D01*
X1250000Y24035715D01*
X1607142Y24035715D01*
X1892857Y23964286D01*
X2035714Y23892858D01*
X2107142Y23821429D01*
X2178571Y23678572D01*
X2178571Y23535715D01*
X2107142Y23392858D01*
X2035714Y23321429D01*
X1892857Y23250000D01*
X1607142Y23178572D01*
X1250000Y23178572D01*
X964285Y23250000D01*
X821428Y23321429D01*
X750000Y23392858D01*
X678571Y23535715D01*
X678571Y25607143D02*
X2178571Y26107143D01*
X678571Y26607143D01*
X2178571Y27892858D02*
X2178571Y27035715D01*
X2178571Y27464286D02*
X678571Y27464286D01*
X892857Y27321429D01*
X1035714Y27178572D01*
X1107142Y27035715D01*
D13*
X6460000Y22647936D02*
X6460000Y23852064D01*
X4640000Y22647936D02*
X4640000Y23852064D01*
X24410000Y22397936D02*
X24410000Y23602064D01*
X22590000Y22397936D02*
X22590000Y23602064D01*
X13210000Y30928922D02*
X13210000Y31446078D01*
X11790000Y30928922D02*
X11790000Y31446078D01*
X33910000Y32352064D02*
X33910000Y31147936D01*
X32090000Y32352064D02*
X32090000Y31147936D01*
X36150000Y25850000D02*
X36150000Y29150000D01*
X36150000Y29150000D02*
X30750000Y29150000D01*
X36150000Y25850000D02*
X30750000Y25850000D01*
D10*
X11525000Y18825000D02*
X11525000Y17550000D01*
X11075000Y26175000D02*
X11075000Y25625000D01*
X18425000Y26175000D02*
X18425000Y25625000D01*
X18425000Y18825000D02*
X18425000Y19375000D01*
X11075000Y18825000D02*
X11075000Y19375000D01*
X18425000Y18825000D02*
X17875000Y18825000D01*
X18425000Y26175000D02*
X17875000Y26175000D01*
X11075000Y26175000D02*
X11625000Y26175000D01*
X11075000Y18825000D02*
X11525000Y18825000D01*
D13*
X25500000Y10650000D02*
X27500000Y10650000D01*
X25500000Y7850000D02*
X25500000Y10650000D01*
X27500000Y7850000D02*
X25500000Y7850000D01*
X27500000Y10650000D02*
X27500000Y7850000D01*
X29450000Y20300000D02*
X29750000Y20000000D01*
X29150000Y20000000D02*
X29750000Y20000000D01*
X29450000Y20300000D02*
X29150000Y20000000D01*
X28700000Y20500000D02*
X28700000Y22500000D01*
X32800000Y20500000D02*
X28700000Y20500000D01*
X32800000Y22500000D02*
X32800000Y20500000D01*
X28700000Y22500000D02*
X32800000Y22500000D01*
X28359736Y36424721D02*
G75*
G02X29250000Y36680000I890264J-1424721D01*
G01*
X27824495Y34109807D02*
G75*
G02X27825000Y35891000I1425505J890193D01*
G01*
X30139894Y33574642D02*
G75*
G02X28384000Y33560000I-889894J1425358D01*
G01*
X30675358Y35889894D02*
G75*
G02X30690000Y34134000I-1425358J-889894D01*
G01*
X29221326Y36680099D02*
G75*
G02X30116000Y36440000I28674J-1680099D01*
G01*
X27430000Y35000000D02*
G75*
G03X27430000Y35000000I-1680000J0D01*
G01*
X31060000Y39100000D02*
X23940000Y39100000D01*
X31060000Y38000000D02*
X23940000Y38000000D01*
X31060000Y31840000D02*
X23940000Y31840000D01*
X31060000Y39560000D02*
X23940000Y39560000D01*
X31060000Y31840000D02*
X31060000Y39560000D01*
X23940000Y31840000D02*
X23940000Y39560000D01*
X24475000Y33931000D02*
X24604000Y34059000D01*
X26725000Y36181000D02*
X26819000Y36274000D01*
X24680000Y33725000D02*
X24774000Y33819000D01*
X26895000Y35941000D02*
X27024000Y36069000D01*
X31300000Y39160000D02*
X31300000Y39800000D01*
X31300000Y39800000D02*
X30900000Y39800000D01*
X9537221Y30290000D02*
X9862779Y30290000D01*
X9537221Y31310000D02*
X9862779Y31310000D01*
X13690000Y30462779D02*
X13690000Y30137221D01*
X14710000Y30462779D02*
X14710000Y30137221D01*
X25197936Y28490000D02*
X26402064Y28490000D01*
X25197936Y30310000D02*
X26402064Y30310000D01*
X29590000Y8590000D02*
X31940000Y8590000D01*
X36410000Y8590000D02*
X34060000Y8590000D01*
X36410000Y14345563D02*
X36410000Y8590000D01*
X29590000Y14345563D02*
X29590000Y8590000D01*
X30654437Y15410000D02*
X31940000Y15410000D01*
X35345563Y15410000D02*
X34060000Y15410000D01*
X35345563Y15410000D02*
X36410000Y14345563D01*
X30654437Y15410000D02*
X29590000Y14345563D01*
X34847500Y16437500D02*
X34847500Y15650000D01*
X35241250Y16043750D02*
X34453750Y16043750D01*
X21350000Y13470000D02*
X18450000Y13470000D01*
X21710000Y11230000D02*
X18450000Y11230000D01*
X19137221Y9740000D02*
X19462779Y9740000D01*
X19137221Y10760000D02*
X19462779Y10760000D01*
X19710000Y31537221D02*
X19710000Y31862779D01*
X18690000Y31537221D02*
X18690000Y31862779D01*
X17510000Y31537221D02*
X17510000Y31862779D01*
X16490000Y31537221D02*
X16490000Y31862779D01*
X8737221Y31990000D02*
X9062779Y31990000D01*
X8737221Y33010000D02*
X9062779Y33010000D01*
D11*
X21600000Y48710000D02*
X8900000Y48710000D01*
D10*
X21600000Y48716000D02*
X21600000Y33476000D01*
X21600000Y33476000D02*
X8900000Y33476000D01*
X8900000Y48716000D02*
X8900000Y33476000D01*
D13*
X19252800Y5814800D02*
X19252800Y9014800D01*
X19252800Y9014800D02*
X21052800Y9014800D01*
X21052800Y9014800D02*
X21052800Y5814800D01*
X7952800Y5814800D02*
X19252800Y5814800D01*
X19252800Y5814800D02*
X19252800Y14800D01*
X19252800Y14800D02*
X7952800Y14800D01*
X7952800Y14800D02*
X7952800Y5814800D01*
X28352800Y5814800D02*
X21052800Y5814800D01*
X21052800Y14800D02*
X28352800Y14800D01*
X21052800Y5814800D02*
X21052800Y14800D01*
X28352800Y5814800D02*
X28352800Y14800D01*
X5402064Y31310000D02*
X4197936Y31310000D01*
X5402064Y29490000D02*
X4197936Y29490000D01*
X11162779Y29110000D02*
X10837221Y29110000D01*
X11162779Y28090000D02*
X10837221Y28090000D01*
X17587221Y15740000D02*
X17912779Y15740000D01*
X17587221Y16760000D02*
X17912779Y16760000D01*
M02*
