G04 #@! TF.GenerationSoftware,KiCad,Pcbnew,(5.1.0-1558-g0ba0c1724)*
G04 #@! TF.CreationDate,2019-10-06T18:00:07-07:00*
G04 #@! TF.ProjectId,TMC2209_Driver,544d4332-3230-4395-9f44-72697665722e,rev?*
G04 #@! TF.SameCoordinates,Original*
G04 #@! TF.FileFunction,Copper,L2,Bot*
G04 #@! TF.FilePolarity,Positive*
%FSLAX46Y46*%
G04 Gerber Fmt 4.6, Leading zero omitted, Abs format (unit mm)*
G04 Created by KiCad (PCBNEW (5.1.0-1558-g0ba0c1724)) date 2019-10-06 18:00:07*
%MOMM*%
%LPD*%
G04 APERTURE LIST*
%ADD10C,1.778000*%
%ADD11R,1.778000X1.778000*%
%ADD12O,0.650000X0.650000*%
%ADD13R,0.650000X4.600000*%
%ADD14R,0.650000X3.600000*%
%ADD15C,1.000000*%
%ADD16C,0.800000*%
%ADD17C,0.508000*%
%ADD18C,0.635000*%
%ADD19C,0.254000*%
%ADD20C,0.650000*%
%ADD21C,0.508000*%
%ADD22C,0.800000*%
G04 APERTURE END LIST*
D10*
X130429000Y-78562200D03*
X127889000Y-78562200D03*
X125349000Y-78562200D03*
D11*
X122809000Y-78562200D03*
D12*
X118652800Y-112985200D03*
X136652800Y-112985200D03*
X135652800Y-112985200D03*
X130652800Y-112985200D03*
X127652800Y-112985200D03*
X134652800Y-112985200D03*
X131652800Y-112985200D03*
X119652800Y-112985200D03*
X133652800Y-112985200D03*
X132652800Y-112985200D03*
X126652800Y-112985200D03*
X125652800Y-112985200D03*
X124652800Y-112985200D03*
X123652800Y-112985200D03*
X122652800Y-112985200D03*
X121652800Y-112985200D03*
X120652800Y-112985200D03*
D13*
X131652800Y-110685200D03*
X130652800Y-110685200D03*
X136652800Y-110685200D03*
X135652800Y-110685200D03*
X134652800Y-110685200D03*
X133652800Y-110685200D03*
X132652800Y-110685200D03*
X127652800Y-110685200D03*
X126652800Y-110685200D03*
X125652800Y-110685200D03*
X124652800Y-110685200D03*
X123652800Y-110685200D03*
X122652800Y-110685200D03*
X121652800Y-110685200D03*
X120652800Y-110685200D03*
X119652800Y-110685200D03*
X118652800Y-110685200D03*
D14*
X117652800Y-110185200D03*
D15*
X113030000Y-80772000D03*
X116586000Y-83058000D03*
X114808000Y-80772000D03*
X116586000Y-80772000D03*
X114808000Y-83058000D03*
X110998000Y-83058000D03*
X110998000Y-80772000D03*
X113030000Y-83058000D03*
X143002000Y-80772000D03*
X141224000Y-80772000D03*
X139446000Y-80772000D03*
X137414000Y-80772000D03*
X143002000Y-83058000D03*
X141224000Y-83058000D03*
X139446000Y-83058000D03*
X137414000Y-83058000D03*
D16*
X121589800Y-102209600D03*
X126949200Y-99085400D03*
X128193800Y-100228400D03*
X129327557Y-99094643D03*
X126949200Y-96520000D03*
X120822964Y-105835437D03*
X120580110Y-106690532D03*
X120675400Y-104698800D03*
X118668800Y-106654600D03*
X125501400Y-106578400D03*
X125526800Y-102641400D03*
X134924800Y-102717600D03*
X135794710Y-92989400D03*
X134848600Y-91313000D03*
X117652800Y-106019600D03*
X124663200Y-106019600D03*
X124714000Y-103428800D03*
X135686800Y-103479600D03*
X127406400Y-105562400D03*
X131851400Y-99187000D03*
X119634000Y-104495600D03*
X118694200Y-90195400D03*
X126441200Y-97637600D03*
X130784600Y-104800400D03*
X125679200Y-98450400D03*
X121564400Y-104241600D03*
X122986800Y-104089200D03*
X120269000Y-95377000D03*
X134493000Y-93599000D03*
X133350000Y-87122000D03*
X120269000Y-87122000D03*
D17*
X126085600Y-89789000D03*
X127927100Y-92329000D03*
X127927100Y-91694000D03*
X127927100Y-91059000D03*
X127927100Y-90424000D03*
X127927100Y-89789000D03*
X127355600Y-89789000D03*
X126720600Y-89789000D03*
X125450600Y-89789000D03*
X126720600Y-91694000D03*
X126720600Y-91059000D03*
X126085600Y-91059000D03*
X126085600Y-91694000D03*
X125450600Y-91694000D03*
X125450600Y-91059000D03*
X125450600Y-90424000D03*
X126085600Y-90424000D03*
X126720600Y-90424000D03*
X127355600Y-90424000D03*
X127355600Y-91059000D03*
X127355600Y-91694000D03*
X127355600Y-92329000D03*
X126720600Y-92329000D03*
X126085600Y-92329000D03*
X125450600Y-92329000D03*
X128422400Y-81280000D03*
X127101600Y-85775800D03*
X127330200Y-81280000D03*
X127177800Y-87503000D03*
X126060200Y-81280000D03*
X124968000Y-81280000D03*
X126288800Y-85775800D03*
X126238000Y-87503000D03*
D18*
X129971800Y-89408000D03*
X131368800Y-88366600D03*
X129971800Y-88366600D03*
X130683000Y-88366600D03*
X131343400Y-89433400D03*
X130657600Y-89408000D03*
X121996200Y-88417400D03*
X122707400Y-88417400D03*
X123393200Y-88417400D03*
X123367800Y-89484200D03*
X122682000Y-89458800D03*
X121996200Y-89458800D03*
D19*
X123825000Y-102209600D02*
X121589800Y-102209600D01*
X126949200Y-99085400D02*
X123825000Y-102209600D01*
X130784600Y-101907664D02*
X130784600Y-104234715D01*
X127399484Y-98037599D02*
X131673600Y-102311715D01*
X126841199Y-98037599D02*
X127399484Y-98037599D01*
X131673600Y-105460800D02*
X130652800Y-106481600D01*
X126441200Y-97637600D02*
X126841199Y-98037599D01*
D20*
X129419914Y-99187000D02*
X129327557Y-99094643D01*
D19*
X125679200Y-98450400D02*
X127327336Y-98450400D01*
X130652800Y-108131200D02*
X130652800Y-110685200D01*
D20*
X131851400Y-99187000D02*
X129419914Y-99187000D01*
D19*
X127327336Y-98450400D02*
X130784600Y-101907664D01*
X130652800Y-106481600D02*
X130652800Y-108131200D01*
X130784600Y-104234715D02*
X130784600Y-104800400D01*
X131673600Y-102311715D02*
X131673600Y-105460800D01*
D21*
X127304800Y-101092000D02*
X127330200Y-101092000D01*
D22*
X127330200Y-101092000D02*
X128193800Y-100228400D01*
D19*
X120700800Y-103454200D02*
X120700800Y-104673400D01*
X126949200Y-96520000D02*
X126383515Y-96520000D01*
X126383515Y-96520000D02*
X120700800Y-102202715D01*
X120700800Y-102202715D02*
X120700800Y-103454200D01*
X120544178Y-106654600D02*
X120580110Y-106690532D01*
X118668800Y-106654600D02*
X120544178Y-106654600D01*
X120638801Y-106019600D02*
X120822964Y-105835437D01*
X117652800Y-106019600D02*
X120638801Y-106019600D01*
X120700800Y-104673400D02*
X120675400Y-104698800D01*
X125526800Y-106553000D02*
X125501400Y-106578400D01*
X125526800Y-102641400D02*
X125526800Y-106553000D01*
X135178800Y-102463600D02*
X134924800Y-102717600D01*
X135178800Y-92208885D02*
X135178800Y-102463600D01*
X134848600Y-91878685D02*
X135178800Y-92208885D01*
X135686800Y-93097310D02*
X135794710Y-92989400D01*
X134848600Y-91313000D02*
X134848600Y-91878685D01*
X135686800Y-103479600D02*
X135686800Y-93097310D01*
X124714000Y-105968800D02*
X124663200Y-106019600D01*
X124714000Y-103428800D02*
X124714000Y-105968800D01*
D20*
X127304800Y-105460800D02*
X127406400Y-105562400D01*
X127304800Y-101092000D02*
X127304800Y-105460800D01*
D19*
X119202200Y-104063800D02*
X119634000Y-104495600D01*
X119202200Y-90703400D02*
X119202200Y-104063800D01*
X118694200Y-90195400D02*
X119202200Y-90703400D01*
D20*
X121652800Y-104330000D02*
X121564400Y-104241600D01*
X121652800Y-110685200D02*
X121652800Y-104330000D01*
X122652800Y-104423200D02*
X122986800Y-104089200D01*
X122652800Y-110685200D02*
X122652800Y-104423200D01*
X132664200Y-107723800D02*
X132664200Y-105841800D01*
X132652800Y-110685200D02*
X132652800Y-107735200D01*
X132652800Y-107735200D02*
X132664200Y-107723800D01*
X133654800Y-107733200D02*
X133654800Y-105765600D01*
X133652800Y-110685200D02*
X133652800Y-107735200D01*
X133652800Y-107735200D02*
X133654800Y-107733200D01*
X134645400Y-107727800D02*
X134645400Y-105333800D01*
X134652800Y-110685200D02*
X134652800Y-107735200D01*
X134652800Y-107735200D02*
X134645400Y-107727800D01*
X135636000Y-107718400D02*
X135636000Y-105206800D01*
X135652800Y-110685200D02*
X135652800Y-107735200D01*
X135652800Y-107735200D02*
X135636000Y-107718400D01*
X136652800Y-110685200D02*
X136652800Y-105741000D01*
D19*
G36*
X119615348Y-90750472D02*
G01*
X119607600Y-90680847D01*
X119607600Y-90657713D01*
X119602574Y-90635680D01*
X119594886Y-90566591D01*
X119582202Y-90546371D01*
X119576888Y-90523076D01*
X119533180Y-90468226D01*
X119521115Y-90448993D01*
X119505063Y-90432941D01*
X119461623Y-90378427D01*
X119440230Y-90368108D01*
X119371021Y-90298900D01*
X119372901Y-90083550D01*
X119299767Y-89869336D01*
X119161500Y-89690761D01*
X118972845Y-89566602D01*
X118754144Y-89510246D01*
X118528978Y-89527769D01*
X118321629Y-89617282D01*
X118154453Y-89769133D01*
X118045478Y-89966949D01*
X118006454Y-90189398D01*
X118041590Y-90412494D01*
X118147096Y-90612182D01*
X118311596Y-90766928D01*
X118517352Y-90860045D01*
X118742176Y-90881496D01*
X118794468Y-90868990D01*
X118796800Y-90871323D01*
X118796801Y-103994662D01*
X118789052Y-104016727D01*
X118796801Y-104086361D01*
X118796801Y-104109486D01*
X118801825Y-104131508D01*
X118809514Y-104200608D01*
X118822201Y-104220832D01*
X118827514Y-104244124D01*
X118871220Y-104298974D01*
X118883286Y-104318206D01*
X118899337Y-104334257D01*
X118942778Y-104388773D01*
X118962291Y-104398185D01*
X118946254Y-104489598D01*
X118981390Y-104712694D01*
X119086896Y-104912382D01*
X119251396Y-105067128D01*
X119457152Y-105160245D01*
X119681976Y-105181696D01*
X119901628Y-105129165D01*
X120076838Y-105018188D01*
X120128296Y-105115582D01*
X120292796Y-105270328D01*
X120388425Y-105313606D01*
X120283217Y-105409170D01*
X120174242Y-105606986D01*
X120172976Y-105614200D01*
X118196939Y-105614200D01*
X118120100Y-105514961D01*
X117931445Y-105390802D01*
X117712744Y-105334446D01*
X117487578Y-105351969D01*
X117280229Y-105441482D01*
X117272927Y-105448114D01*
X117269895Y-105408705D01*
X117266960Y-105400369D01*
X117267021Y-105391533D01*
X117207713Y-105163846D01*
X117201623Y-105153124D01*
X117199226Y-105141021D01*
X117095344Y-104929906D01*
X117087222Y-104920629D01*
X117082444Y-104909262D01*
X116938233Y-104723346D01*
X116928407Y-104715887D01*
X116921439Y-104705711D01*
X116742793Y-104552593D01*
X116731670Y-104547264D01*
X116722798Y-104538697D01*
X116517010Y-104424626D01*
X116505045Y-104421643D01*
X116494633Y-104415035D01*
X116270109Y-104344674D01*
X116257787Y-104344158D01*
X116246261Y-104339779D01*
X116012174Y-104316001D01*
X115977604Y-104321600D01*
X115025826Y-104321600D01*
X114994767Y-104315788D01*
X114808705Y-104330105D01*
X114800369Y-104333040D01*
X114791533Y-104332979D01*
X114563846Y-104392287D01*
X114553124Y-104398377D01*
X114541021Y-104400774D01*
X114329906Y-104504656D01*
X114320629Y-104512778D01*
X114309262Y-104517556D01*
X114123346Y-104661767D01*
X114115887Y-104671593D01*
X114105711Y-104678561D01*
X113952593Y-104857207D01*
X113947264Y-104868330D01*
X113938697Y-104877202D01*
X113824626Y-105082990D01*
X113821643Y-105094955D01*
X113815035Y-105105367D01*
X113744674Y-105329891D01*
X113744158Y-105342213D01*
X113739779Y-105353739D01*
X113716001Y-105587826D01*
X113721600Y-105622396D01*
X113721600Y-106109500D01*
X109278400Y-106109500D01*
X109278400Y-77428012D01*
X120574800Y-77428012D01*
X120574800Y-89856388D01*
X120608250Y-89981223D01*
X120711777Y-90084750D01*
X120836612Y-90118200D01*
X124146388Y-90118200D01*
X124271223Y-90084750D01*
X124374750Y-89981223D01*
X124408200Y-89856388D01*
X124408200Y-82662000D01*
X125731803Y-86585871D01*
X125744422Y-87303366D01*
X125705694Y-87396635D01*
X125705508Y-87608436D01*
X125751757Y-87720366D01*
X125762598Y-88336718D01*
X125796142Y-88457642D01*
X125899250Y-88560750D01*
X126024085Y-88594200D01*
X126655173Y-88594200D01*
X126714719Y-88578187D01*
X126774478Y-88594200D01*
X127429276Y-88594200D01*
X127557359Y-88558692D01*
X127659490Y-88452972D01*
X127690779Y-88327579D01*
X127679645Y-87682723D01*
X127710106Y-87609365D01*
X127710292Y-87397564D01*
X127673172Y-87307727D01*
X127660189Y-86555752D01*
X129083800Y-82335403D01*
X129083800Y-89856388D01*
X129117250Y-89981223D01*
X129220777Y-90084750D01*
X129345612Y-90118200D01*
X132807788Y-90118200D01*
X132932623Y-90084750D01*
X133036150Y-89981223D01*
X133069600Y-89856388D01*
X133069600Y-77428012D01*
X133036150Y-77303177D01*
X132932623Y-77199650D01*
X132807788Y-77166200D01*
X129345612Y-77166200D01*
X129333672Y-77169399D01*
X129313123Y-77148850D01*
X129188288Y-77115400D01*
X126754754Y-77115400D01*
X126647966Y-77144117D01*
X126635588Y-77140800D01*
X124202112Y-77140800D01*
X124107320Y-77166200D01*
X120836612Y-77166200D01*
X120711777Y-77199650D01*
X120608250Y-77303177D01*
X120574800Y-77428012D01*
X109278400Y-77428012D01*
X109278400Y-75651096D01*
X109280647Y-75645181D01*
X109299835Y-75456276D01*
X109343034Y-75318426D01*
X109413073Y-75192072D01*
X109507079Y-75082393D01*
X109621233Y-74993847D01*
X109750860Y-74930063D01*
X109894031Y-74892770D01*
X110038312Y-74881667D01*
X110047589Y-74878400D01*
X144648904Y-74878400D01*
X144654819Y-74880647D01*
X144843724Y-74899835D01*
X144981574Y-74943034D01*
X145107928Y-75013073D01*
X145217607Y-75107079D01*
X145306153Y-75221233D01*
X145369937Y-75350860D01*
X145407230Y-75494031D01*
X145418333Y-75638312D01*
X145421601Y-75647592D01*
X145421600Y-106109500D01*
X140978400Y-106109500D01*
X140978400Y-105625826D01*
X140984212Y-105594767D01*
X140969895Y-105408705D01*
X140966960Y-105400369D01*
X140967021Y-105391533D01*
X140907713Y-105163846D01*
X140901623Y-105153124D01*
X140899226Y-105141021D01*
X140795344Y-104929906D01*
X140787222Y-104920629D01*
X140782444Y-104909262D01*
X140638233Y-104723346D01*
X140628407Y-104715887D01*
X140621439Y-104705711D01*
X140442793Y-104552593D01*
X140431670Y-104547264D01*
X140422798Y-104538697D01*
X140217010Y-104424626D01*
X140205045Y-104421643D01*
X140194633Y-104415035D01*
X139970109Y-104344674D01*
X139957787Y-104344158D01*
X139946261Y-104339779D01*
X139712174Y-104316001D01*
X139677604Y-104321600D01*
X138325826Y-104321600D01*
X138294767Y-104315788D01*
X138108705Y-104330105D01*
X138100369Y-104333040D01*
X138091533Y-104332979D01*
X137863846Y-104392287D01*
X137853124Y-104398377D01*
X137841021Y-104400774D01*
X137629906Y-104504656D01*
X137620629Y-104512778D01*
X137609262Y-104517556D01*
X137423346Y-104661767D01*
X137415887Y-104671593D01*
X137405711Y-104678561D01*
X137252593Y-104857207D01*
X137247264Y-104868330D01*
X137238697Y-104877202D01*
X137124626Y-105082990D01*
X137121643Y-105094955D01*
X137115035Y-105105367D01*
X137044674Y-105329891D01*
X137044158Y-105342213D01*
X137039779Y-105353739D01*
X137016001Y-105587826D01*
X137021601Y-105622402D01*
X137021601Y-106109500D01*
X131598222Y-106109500D01*
X131911375Y-105796348D01*
X131932454Y-105786226D01*
X131976212Y-105731510D01*
X131992567Y-105715156D01*
X132004591Y-105696024D01*
X132048009Y-105641734D01*
X132053338Y-105618463D01*
X132066051Y-105598237D01*
X132073929Y-105528556D01*
X132079000Y-105506416D01*
X132079000Y-105483706D01*
X132086830Y-105414450D01*
X132079000Y-105392028D01*
X132079000Y-102380850D01*
X132086748Y-102358787D01*
X132079000Y-102289162D01*
X132079000Y-102266028D01*
X132073974Y-102243995D01*
X132066286Y-102174908D01*
X132053601Y-102154686D01*
X132048287Y-102131391D01*
X132004585Y-102076547D01*
X131992517Y-102057309D01*
X131976459Y-102041251D01*
X131933023Y-101986742D01*
X131911630Y-101976423D01*
X129725606Y-99790400D01*
X131539221Y-99790400D01*
X131674552Y-99851645D01*
X131899376Y-99873096D01*
X132119028Y-99820565D01*
X132309822Y-99699717D01*
X132451185Y-99523583D01*
X132528045Y-99310678D01*
X132530101Y-99075150D01*
X132456967Y-98860936D01*
X132318700Y-98682361D01*
X132130045Y-98558202D01*
X131911344Y-98501846D01*
X131686178Y-98519369D01*
X131537392Y-98583600D01*
X129785126Y-98583600D01*
X129606202Y-98465845D01*
X129387501Y-98409489D01*
X129162335Y-98427012D01*
X128954986Y-98516525D01*
X128787810Y-98668376D01*
X128722370Y-98787165D01*
X127735034Y-97799829D01*
X127724910Y-97778745D01*
X127670184Y-97734979D01*
X127653840Y-97718634D01*
X127634714Y-97706613D01*
X127580419Y-97663192D01*
X127557146Y-97657861D01*
X127536917Y-97645148D01*
X127467237Y-97637269D01*
X127445099Y-97632199D01*
X127422391Y-97632199D01*
X127353134Y-97624368D01*
X127330711Y-97632199D01*
X127118972Y-97632199D01*
X127119901Y-97525750D01*
X127046767Y-97311536D01*
X126962570Y-97202794D01*
X126997176Y-97206096D01*
X127216828Y-97153565D01*
X127407622Y-97032717D01*
X127548985Y-96856583D01*
X127625845Y-96643678D01*
X127627901Y-96408150D01*
X127554767Y-96193936D01*
X127416500Y-96015361D01*
X127227845Y-95891202D01*
X127009144Y-95834846D01*
X126783978Y-95852369D01*
X126576629Y-95941882D01*
X126409453Y-96093733D01*
X126400374Y-96110214D01*
X126360963Y-96114600D01*
X126337829Y-96114600D01*
X126315791Y-96119627D01*
X126246709Y-96127314D01*
X126226489Y-96139998D01*
X126203191Y-96145312D01*
X126148343Y-96189018D01*
X126129110Y-96201082D01*
X126113051Y-96217141D01*
X126058542Y-96260577D01*
X126048223Y-96281970D01*
X120463031Y-101867164D01*
X120441945Y-101877289D01*
X120398180Y-101932015D01*
X120381835Y-101948359D01*
X120369813Y-101967487D01*
X120326391Y-102021783D01*
X120321062Y-102045053D01*
X120308349Y-102065279D01*
X120300471Y-102134960D01*
X120295400Y-102157100D01*
X120295400Y-102179809D01*
X120287570Y-102249063D01*
X120295400Y-102271487D01*
X120295401Y-103407314D01*
X120295400Y-103407318D01*
X120295401Y-104127430D01*
X120241811Y-104176108D01*
X120239567Y-104169536D01*
X120101300Y-103990961D01*
X119912645Y-103866802D01*
X119693944Y-103810446D01*
X119607600Y-103817165D01*
X119607600Y-91306998D01*
X134160854Y-91306998D01*
X134195990Y-91530094D01*
X134301496Y-91729782D01*
X134438458Y-91858623D01*
X134443201Y-91901246D01*
X134443201Y-91924371D01*
X134448225Y-91946393D01*
X134455914Y-92015493D01*
X134468601Y-92035717D01*
X134473914Y-92059009D01*
X134517620Y-92113858D01*
X134529684Y-92133089D01*
X134545737Y-92149144D01*
X134589177Y-92203657D01*
X134610571Y-92213977D01*
X134773400Y-92376806D01*
X134773401Y-102048893D01*
X134759577Y-102049969D01*
X134552229Y-102139482D01*
X134385053Y-102291333D01*
X134276078Y-102489149D01*
X134237054Y-102711598D01*
X134272190Y-102934694D01*
X134377696Y-103134382D01*
X134542196Y-103289128D01*
X134747952Y-103382245D01*
X134972776Y-103403696D01*
X135013005Y-103394075D01*
X134999054Y-103473598D01*
X135034190Y-103696694D01*
X135139696Y-103896382D01*
X135304196Y-104051128D01*
X135509952Y-104144245D01*
X135734776Y-104165696D01*
X135954428Y-104113165D01*
X136145222Y-103992317D01*
X136286585Y-103816183D01*
X136363445Y-103603278D01*
X136365501Y-103367750D01*
X136292367Y-103153536D01*
X136154100Y-102974961D01*
X136092200Y-102934223D01*
X136092200Y-93604051D01*
X136253132Y-93502117D01*
X136394495Y-93325983D01*
X136471355Y-93113078D01*
X136473411Y-92877550D01*
X136400277Y-92663336D01*
X136262010Y-92484761D01*
X136073355Y-92360602D01*
X135854654Y-92304246D01*
X135629488Y-92321769D01*
X135584200Y-92341320D01*
X135584200Y-92278020D01*
X135591948Y-92255957D01*
X135584200Y-92186332D01*
X135584200Y-92163198D01*
X135579174Y-92141165D01*
X135571486Y-92072076D01*
X135558802Y-92051856D01*
X135553488Y-92028561D01*
X135509780Y-91973711D01*
X135497715Y-91954478D01*
X135481663Y-91938426D01*
X135438223Y-91883912D01*
X135416828Y-91873592D01*
X135334596Y-91791360D01*
X135448385Y-91649583D01*
X135525245Y-91436678D01*
X135527301Y-91201150D01*
X135454167Y-90986936D01*
X135315900Y-90808361D01*
X135127245Y-90684202D01*
X134908544Y-90627846D01*
X134683378Y-90645369D01*
X134476029Y-90734882D01*
X134308853Y-90886733D01*
X134199878Y-91084549D01*
X134160854Y-91306998D01*
X119607600Y-91306998D01*
X119607600Y-90772535D01*
X119615348Y-90750472D01*
X119615348Y-90750472D01*
G37*
X119615348Y-90750472D02*
X119607600Y-90680847D01*
X119607600Y-90657713D01*
X119602574Y-90635680D01*
X119594886Y-90566591D01*
X119582202Y-90546371D01*
X119576888Y-90523076D01*
X119533180Y-90468226D01*
X119521115Y-90448993D01*
X119505063Y-90432941D01*
X119461623Y-90378427D01*
X119440230Y-90368108D01*
X119371021Y-90298900D01*
X119372901Y-90083550D01*
X119299767Y-89869336D01*
X119161500Y-89690761D01*
X118972845Y-89566602D01*
X118754144Y-89510246D01*
X118528978Y-89527769D01*
X118321629Y-89617282D01*
X118154453Y-89769133D01*
X118045478Y-89966949D01*
X118006454Y-90189398D01*
X118041590Y-90412494D01*
X118147096Y-90612182D01*
X118311596Y-90766928D01*
X118517352Y-90860045D01*
X118742176Y-90881496D01*
X118794468Y-90868990D01*
X118796800Y-90871323D01*
X118796801Y-103994662D01*
X118789052Y-104016727D01*
X118796801Y-104086361D01*
X118796801Y-104109486D01*
X118801825Y-104131508D01*
X118809514Y-104200608D01*
X118822201Y-104220832D01*
X118827514Y-104244124D01*
X118871220Y-104298974D01*
X118883286Y-104318206D01*
X118899337Y-104334257D01*
X118942778Y-104388773D01*
X118962291Y-104398185D01*
X118946254Y-104489598D01*
X118981390Y-104712694D01*
X119086896Y-104912382D01*
X119251396Y-105067128D01*
X119457152Y-105160245D01*
X119681976Y-105181696D01*
X119901628Y-105129165D01*
X120076838Y-105018188D01*
X120128296Y-105115582D01*
X120292796Y-105270328D01*
X120388425Y-105313606D01*
X120283217Y-105409170D01*
X120174242Y-105606986D01*
X120172976Y-105614200D01*
X118196939Y-105614200D01*
X118120100Y-105514961D01*
X117931445Y-105390802D01*
X117712744Y-105334446D01*
X117487578Y-105351969D01*
X117280229Y-105441482D01*
X117272927Y-105448114D01*
X117269895Y-105408705D01*
X117266960Y-105400369D01*
X117267021Y-105391533D01*
X117207713Y-105163846D01*
X117201623Y-105153124D01*
X117199226Y-105141021D01*
X117095344Y-104929906D01*
X117087222Y-104920629D01*
X117082444Y-104909262D01*
X116938233Y-104723346D01*
X116928407Y-104715887D01*
X116921439Y-104705711D01*
X116742793Y-104552593D01*
X116731670Y-104547264D01*
X116722798Y-104538697D01*
X116517010Y-104424626D01*
X116505045Y-104421643D01*
X116494633Y-104415035D01*
X116270109Y-104344674D01*
X116257787Y-104344158D01*
X116246261Y-104339779D01*
X116012174Y-104316001D01*
X115977604Y-104321600D01*
X115025826Y-104321600D01*
X114994767Y-104315788D01*
X114808705Y-104330105D01*
X114800369Y-104333040D01*
X114791533Y-104332979D01*
X114563846Y-104392287D01*
X114553124Y-104398377D01*
X114541021Y-104400774D01*
X114329906Y-104504656D01*
X114320629Y-104512778D01*
X114309262Y-104517556D01*
X114123346Y-104661767D01*
X114115887Y-104671593D01*
X114105711Y-104678561D01*
X113952593Y-104857207D01*
X113947264Y-104868330D01*
X113938697Y-104877202D01*
X113824626Y-105082990D01*
X113821643Y-105094955D01*
X113815035Y-105105367D01*
X113744674Y-105329891D01*
X113744158Y-105342213D01*
X113739779Y-105353739D01*
X113716001Y-105587826D01*
X113721600Y-105622396D01*
X113721600Y-106109500D01*
X109278400Y-106109500D01*
X109278400Y-77428012D01*
X120574800Y-77428012D01*
X120574800Y-89856388D01*
X120608250Y-89981223D01*
X120711777Y-90084750D01*
X120836612Y-90118200D01*
X124146388Y-90118200D01*
X124271223Y-90084750D01*
X124374750Y-89981223D01*
X124408200Y-89856388D01*
X124408200Y-82662000D01*
X125731803Y-86585871D01*
X125744422Y-87303366D01*
X125705694Y-87396635D01*
X125705508Y-87608436D01*
X125751757Y-87720366D01*
X125762598Y-88336718D01*
X125796142Y-88457642D01*
X125899250Y-88560750D01*
X126024085Y-88594200D01*
X126655173Y-88594200D01*
X126714719Y-88578187D01*
X126774478Y-88594200D01*
X127429276Y-88594200D01*
X127557359Y-88558692D01*
X127659490Y-88452972D01*
X127690779Y-88327579D01*
X127679645Y-87682723D01*
X127710106Y-87609365D01*
X127710292Y-87397564D01*
X127673172Y-87307727D01*
X127660189Y-86555752D01*
X129083800Y-82335403D01*
X129083800Y-89856388D01*
X129117250Y-89981223D01*
X129220777Y-90084750D01*
X129345612Y-90118200D01*
X132807788Y-90118200D01*
X132932623Y-90084750D01*
X133036150Y-89981223D01*
X133069600Y-89856388D01*
X133069600Y-77428012D01*
X133036150Y-77303177D01*
X132932623Y-77199650D01*
X132807788Y-77166200D01*
X129345612Y-77166200D01*
X129333672Y-77169399D01*
X129313123Y-77148850D01*
X129188288Y-77115400D01*
X126754754Y-77115400D01*
X126647966Y-77144117D01*
X126635588Y-77140800D01*
X124202112Y-77140800D01*
X124107320Y-77166200D01*
X120836612Y-77166200D01*
X120711777Y-77199650D01*
X120608250Y-77303177D01*
X120574800Y-77428012D01*
X109278400Y-77428012D01*
X109278400Y-75651096D01*
X109280647Y-75645181D01*
X109299835Y-75456276D01*
X109343034Y-75318426D01*
X109413073Y-75192072D01*
X109507079Y-75082393D01*
X109621233Y-74993847D01*
X109750860Y-74930063D01*
X109894031Y-74892770D01*
X110038312Y-74881667D01*
X110047589Y-74878400D01*
X144648904Y-74878400D01*
X144654819Y-74880647D01*
X144843724Y-74899835D01*
X144981574Y-74943034D01*
X145107928Y-75013073D01*
X145217607Y-75107079D01*
X145306153Y-75221233D01*
X145369937Y-75350860D01*
X145407230Y-75494031D01*
X145418333Y-75638312D01*
X145421601Y-75647592D01*
X145421600Y-106109500D01*
X140978400Y-106109500D01*
X140978400Y-105625826D01*
X140984212Y-105594767D01*
X140969895Y-105408705D01*
X140966960Y-105400369D01*
X140967021Y-105391533D01*
X140907713Y-105163846D01*
X140901623Y-105153124D01*
X140899226Y-105141021D01*
X140795344Y-104929906D01*
X140787222Y-104920629D01*
X140782444Y-104909262D01*
X140638233Y-104723346D01*
X140628407Y-104715887D01*
X140621439Y-104705711D01*
X140442793Y-104552593D01*
X140431670Y-104547264D01*
X140422798Y-104538697D01*
X140217010Y-104424626D01*
X140205045Y-104421643D01*
X140194633Y-104415035D01*
X139970109Y-104344674D01*
X139957787Y-104344158D01*
X139946261Y-104339779D01*
X139712174Y-104316001D01*
X139677604Y-104321600D01*
X138325826Y-104321600D01*
X138294767Y-104315788D01*
X138108705Y-104330105D01*
X138100369Y-104333040D01*
X138091533Y-104332979D01*
X137863846Y-104392287D01*
X137853124Y-104398377D01*
X137841021Y-104400774D01*
X137629906Y-104504656D01*
X137620629Y-104512778D01*
X137609262Y-104517556D01*
X137423346Y-104661767D01*
X137415887Y-104671593D01*
X137405711Y-104678561D01*
X137252593Y-104857207D01*
X137247264Y-104868330D01*
X137238697Y-104877202D01*
X137124626Y-105082990D01*
X137121643Y-105094955D01*
X137115035Y-105105367D01*
X137044674Y-105329891D01*
X137044158Y-105342213D01*
X137039779Y-105353739D01*
X137016001Y-105587826D01*
X137021601Y-105622402D01*
X137021601Y-106109500D01*
X131598222Y-106109500D01*
X131911375Y-105796348D01*
X131932454Y-105786226D01*
X131976212Y-105731510D01*
X131992567Y-105715156D01*
X132004591Y-105696024D01*
X132048009Y-105641734D01*
X132053338Y-105618463D01*
X132066051Y-105598237D01*
X132073929Y-105528556D01*
X132079000Y-105506416D01*
X132079000Y-105483706D01*
X132086830Y-105414450D01*
X132079000Y-105392028D01*
X132079000Y-102380850D01*
X132086748Y-102358787D01*
X132079000Y-102289162D01*
X132079000Y-102266028D01*
X132073974Y-102243995D01*
X132066286Y-102174908D01*
X132053601Y-102154686D01*
X132048287Y-102131391D01*
X132004585Y-102076547D01*
X131992517Y-102057309D01*
X131976459Y-102041251D01*
X131933023Y-101986742D01*
X131911630Y-101976423D01*
X129725606Y-99790400D01*
X131539221Y-99790400D01*
X131674552Y-99851645D01*
X131899376Y-99873096D01*
X132119028Y-99820565D01*
X132309822Y-99699717D01*
X132451185Y-99523583D01*
X132528045Y-99310678D01*
X132530101Y-99075150D01*
X132456967Y-98860936D01*
X132318700Y-98682361D01*
X132130045Y-98558202D01*
X131911344Y-98501846D01*
X131686178Y-98519369D01*
X131537392Y-98583600D01*
X129785126Y-98583600D01*
X129606202Y-98465845D01*
X129387501Y-98409489D01*
X129162335Y-98427012D01*
X128954986Y-98516525D01*
X128787810Y-98668376D01*
X128722370Y-98787165D01*
X127735034Y-97799829D01*
X127724910Y-97778745D01*
X127670184Y-97734979D01*
X127653840Y-97718634D01*
X127634714Y-97706613D01*
X127580419Y-97663192D01*
X127557146Y-97657861D01*
X127536917Y-97645148D01*
X127467237Y-97637269D01*
X127445099Y-97632199D01*
X127422391Y-97632199D01*
X127353134Y-97624368D01*
X127330711Y-97632199D01*
X127118972Y-97632199D01*
X127119901Y-97525750D01*
X127046767Y-97311536D01*
X126962570Y-97202794D01*
X126997176Y-97206096D01*
X127216828Y-97153565D01*
X127407622Y-97032717D01*
X127548985Y-96856583D01*
X127625845Y-96643678D01*
X127627901Y-96408150D01*
X127554767Y-96193936D01*
X127416500Y-96015361D01*
X127227845Y-95891202D01*
X127009144Y-95834846D01*
X126783978Y-95852369D01*
X126576629Y-95941882D01*
X126409453Y-96093733D01*
X126400374Y-96110214D01*
X126360963Y-96114600D01*
X126337829Y-96114600D01*
X126315791Y-96119627D01*
X126246709Y-96127314D01*
X126226489Y-96139998D01*
X126203191Y-96145312D01*
X126148343Y-96189018D01*
X126129110Y-96201082D01*
X126113051Y-96217141D01*
X126058542Y-96260577D01*
X126048223Y-96281970D01*
X120463031Y-101867164D01*
X120441945Y-101877289D01*
X120398180Y-101932015D01*
X120381835Y-101948359D01*
X120369813Y-101967487D01*
X120326391Y-102021783D01*
X120321062Y-102045053D01*
X120308349Y-102065279D01*
X120300471Y-102134960D01*
X120295400Y-102157100D01*
X120295400Y-102179809D01*
X120287570Y-102249063D01*
X120295400Y-102271487D01*
X120295401Y-103407314D01*
X120295400Y-103407318D01*
X120295401Y-104127430D01*
X120241811Y-104176108D01*
X120239567Y-104169536D01*
X120101300Y-103990961D01*
X119912645Y-103866802D01*
X119693944Y-103810446D01*
X119607600Y-103817165D01*
X119607600Y-91306998D01*
X134160854Y-91306998D01*
X134195990Y-91530094D01*
X134301496Y-91729782D01*
X134438458Y-91858623D01*
X134443201Y-91901246D01*
X134443201Y-91924371D01*
X134448225Y-91946393D01*
X134455914Y-92015493D01*
X134468601Y-92035717D01*
X134473914Y-92059009D01*
X134517620Y-92113858D01*
X134529684Y-92133089D01*
X134545737Y-92149144D01*
X134589177Y-92203657D01*
X134610571Y-92213977D01*
X134773400Y-92376806D01*
X134773401Y-102048893D01*
X134759577Y-102049969D01*
X134552229Y-102139482D01*
X134385053Y-102291333D01*
X134276078Y-102489149D01*
X134237054Y-102711598D01*
X134272190Y-102934694D01*
X134377696Y-103134382D01*
X134542196Y-103289128D01*
X134747952Y-103382245D01*
X134972776Y-103403696D01*
X135013005Y-103394075D01*
X134999054Y-103473598D01*
X135034190Y-103696694D01*
X135139696Y-103896382D01*
X135304196Y-104051128D01*
X135509952Y-104144245D01*
X135734776Y-104165696D01*
X135954428Y-104113165D01*
X136145222Y-103992317D01*
X136286585Y-103816183D01*
X136363445Y-103603278D01*
X136365501Y-103367750D01*
X136292367Y-103153536D01*
X136154100Y-102974961D01*
X136092200Y-102934223D01*
X136092200Y-93604051D01*
X136253132Y-93502117D01*
X136394495Y-93325983D01*
X136471355Y-93113078D01*
X136473411Y-92877550D01*
X136400277Y-92663336D01*
X136262010Y-92484761D01*
X136073355Y-92360602D01*
X135854654Y-92304246D01*
X135629488Y-92321769D01*
X135584200Y-92341320D01*
X135584200Y-92278020D01*
X135591948Y-92255957D01*
X135584200Y-92186332D01*
X135584200Y-92163198D01*
X135579174Y-92141165D01*
X135571486Y-92072076D01*
X135558802Y-92051856D01*
X135553488Y-92028561D01*
X135509780Y-91973711D01*
X135497715Y-91954478D01*
X135481663Y-91938426D01*
X135438223Y-91883912D01*
X135416828Y-91873592D01*
X135334596Y-91791360D01*
X135448385Y-91649583D01*
X135525245Y-91436678D01*
X135527301Y-91201150D01*
X135454167Y-90986936D01*
X135315900Y-90808361D01*
X135127245Y-90684202D01*
X134908544Y-90627846D01*
X134683378Y-90645369D01*
X134476029Y-90734882D01*
X134308853Y-90886733D01*
X134199878Y-91084549D01*
X134160854Y-91306998D01*
X119607600Y-91306998D01*
X119607600Y-90772535D01*
X119615348Y-90750472D01*
G36*
X129045700Y-81183120D02*
G01*
X127254643Y-86492781D01*
X127283940Y-88189800D01*
X126916840Y-88189800D01*
X126897627Y-77519800D01*
X129045700Y-77519800D01*
X129045700Y-81183120D01*
X129045700Y-81183120D01*
G37*
X129045700Y-81183120D02*
X127254643Y-86492781D01*
X127283940Y-88189800D01*
X126916840Y-88189800D01*
X126897627Y-77519800D01*
X129045700Y-77519800D01*
X129045700Y-81183120D01*
G36*
X126512301Y-88189800D02*
G01*
X126164477Y-88189800D01*
X126135037Y-86516045D01*
X124344700Y-81208520D01*
X124344700Y-77545200D01*
X126493225Y-77545200D01*
X126512301Y-88189800D01*
X126512301Y-88189800D01*
G37*
X126512301Y-88189800D02*
X126164477Y-88189800D01*
X126135037Y-86516045D01*
X124344700Y-81208520D01*
X124344700Y-77545200D01*
X126493225Y-77545200D01*
X126512301Y-88189800D01*
G36*
X132665200Y-89713800D02*
G01*
X129488200Y-89713800D01*
X129488200Y-77570600D01*
X132665200Y-77570600D01*
X132665200Y-89713800D01*
X132665200Y-89713800D01*
G37*
X132665200Y-89713800D02*
X129488200Y-89713800D01*
X129488200Y-77570600D01*
X132665200Y-77570600D01*
X132665200Y-89713800D01*
G36*
X123940300Y-81239470D02*
G01*
X123951621Y-81308452D01*
X124003800Y-81463141D01*
X124003800Y-89713800D01*
X120979200Y-89713800D01*
X120979200Y-77570600D01*
X123940300Y-77570600D01*
X123940300Y-81239470D01*
X123940300Y-81239470D01*
G37*
X123940300Y-81239470D02*
X123951621Y-81308452D01*
X124003800Y-81463141D01*
X124003800Y-89713800D01*
X120979200Y-89713800D01*
X120979200Y-77570600D01*
X123940300Y-77570600D01*
X123940300Y-81239470D01*
M02*
