G04 #@! TF.GenerationSoftware,KiCad,Pcbnew,5.99.0-unknown-d20d310~86~ubuntu19.10.1*
G04 #@! TF.CreationDate,2019-12-18T16:01:45-08:00*
G04 #@! TF.ProjectId,TMC2209_Driver,544d4332-3230-4395-9f44-72697665722e,rev?*
G04 #@! TF.SameCoordinates,PX67f3540PY6cb8080*
G04 #@! TF.FileFunction,Copper,L2,Bot*
G04 #@! TF.FilePolarity,Positive*
%FSLAX46Y46*%
G04 Gerber Fmt 4.6, Leading zero omitted, Abs format (unit mm)*
G04 Created by KiCad (PCBNEW 5.99.0-unknown-d20d310~86~ubuntu19.10.1) date 2019-12-18 16:01:45*
%MOMM*%
%LPD*%
G04 APERTURE LIST*
%ADD10C,1.778000*%
%ADD11R,1.778000X1.778000*%
%ADD12O,0.650000X0.650000*%
%ADD13R,0.650000X4.600000*%
%ADD14R,0.650000X3.600000*%
%ADD15C,0.800000*%
%ADD16C,0.600000*%
%ADD17C,0.635000*%
%ADD18C,0.508000*%
%ADD19C,1.000000*%
%ADD20C,0.152400*%
%ADD21C,0.650000*%
%ADD22C,0.250000*%
%ADD23C,0.254000*%
%ADD24C,0.203200*%
G04 APERTURE END LIST*
D10*
X21429000Y35437800D03*
X18889000Y35437800D03*
X16349000Y35437800D03*
D11*
X13809000Y35437800D03*
D12*
X9652800Y1014800D03*
X27652800Y1014800D03*
X26652800Y1014800D03*
X21652800Y1014800D03*
X18652800Y1014800D03*
X25652800Y1014800D03*
X22652800Y1014800D03*
X10652800Y1014800D03*
X24652800Y1014800D03*
X23652800Y1014800D03*
X17652800Y1014800D03*
X16652800Y1014800D03*
X15652800Y1014800D03*
X14652800Y1014800D03*
X13652800Y1014800D03*
X12652800Y1014800D03*
X11652800Y1014800D03*
D13*
X22652800Y3314800D03*
X21652800Y3314800D03*
X27652800Y3314800D03*
X26652800Y3314800D03*
X25652800Y3314800D03*
X24652800Y3314800D03*
X23652800Y3314800D03*
X18652800Y3314800D03*
X17652800Y3314800D03*
X16652800Y3314800D03*
X15652800Y3314800D03*
X14652800Y3314800D03*
X13652800Y3314800D03*
X12652800Y3314800D03*
X11652800Y3314800D03*
X10652800Y3314800D03*
X9652800Y3314800D03*
D14*
X8652800Y3814800D03*
D15*
X33200000Y11800000D03*
X34300000Y11800000D03*
X35300000Y11800000D03*
D16*
X9668800Y6862800D03*
X9797749Y10948379D03*
X8620401Y10948379D03*
X15683714Y9694099D03*
X21491077Y7755937D03*
X18152400Y8640800D03*
X16653800Y7400979D03*
X15002800Y6532600D03*
X7800859Y10719768D03*
X7257181Y9249019D03*
X6519200Y11028400D03*
X18406400Y15016200D03*
X17483320Y7056829D03*
X18739754Y8116988D03*
X3081143Y11532112D03*
X9059200Y8717000D03*
X16370726Y9287672D03*
X22699000Y9987000D03*
X9603597Y8166166D03*
X14799600Y11866600D03*
X18660400Y6380200D03*
X12541045Y11741645D03*
X11654006Y11799326D03*
X13529600Y11866600D03*
X14113800Y6354800D03*
X12285000Y6380200D03*
X6798600Y13085800D03*
X3496600Y14990800D03*
X20772955Y14930947D03*
X16547180Y15605831D03*
X19198233Y14947462D03*
X17296740Y16765207D03*
X17936500Y15638500D03*
X8475000Y13987500D03*
D17*
X12996200Y24541200D03*
X13682000Y24541200D03*
X14393200Y25582600D03*
X13707400Y25582600D03*
X12996200Y25582600D03*
X21657600Y24592000D03*
X22343400Y24566600D03*
X21683000Y25633400D03*
X20971800Y25633400D03*
X22368800Y25633400D03*
D18*
X17238000Y26497000D03*
X17111000Y28224200D03*
X15968000Y32720000D03*
X17060200Y32720000D03*
X18127000Y26497000D03*
X18330200Y32720000D03*
X18254000Y28224200D03*
X19422400Y32720000D03*
X17085600Y21671000D03*
X18355600Y21671000D03*
X18355600Y22941000D03*
X17720600Y23576000D03*
X16450600Y23576000D03*
X16450600Y22306000D03*
X17085600Y22941000D03*
X17720600Y22306000D03*
X18355600Y24211000D03*
X18927100Y23576000D03*
X18927100Y22306000D03*
X17085600Y24211000D03*
D16*
X11269000Y26878000D03*
X24350000Y26878000D03*
X25493000Y20401000D03*
X11269000Y18623000D03*
X9694200Y23804600D03*
X22851400Y14813000D03*
X8652800Y7980400D03*
X25848600Y22687000D03*
X26794710Y21010600D03*
D19*
X28414000Y30942000D03*
X30446000Y30942000D03*
X32224000Y30942000D03*
X34002000Y30942000D03*
X28414000Y33228000D03*
X30446000Y33228000D03*
X32224000Y33228000D03*
X34002000Y33228000D03*
X4030000Y30942000D03*
X1998000Y33228000D03*
X1998000Y30942000D03*
X5808000Y30942000D03*
X7586000Y33228000D03*
X5808000Y33228000D03*
X7586000Y30942000D03*
X4030000Y33228000D03*
D16*
X21886200Y10291800D03*
X21714328Y8976928D03*
D20*
X9846556Y7040556D02*
X9668800Y6862800D01*
X10235002Y7040556D02*
X9846556Y7040556D01*
X13439899Y9694099D02*
X11331699Y9694099D01*
X8100858Y10419769D02*
X10606029Y10419769D01*
X10606029Y10419769D02*
X11331699Y9694099D01*
X17183321Y6756830D02*
X16520398Y6756830D01*
X17483320Y7056829D02*
X17183321Y6756830D01*
X16520398Y6756830D02*
X16191017Y7086211D01*
X14745824Y7040556D02*
X10235002Y7040556D01*
X14791479Y7086211D02*
X14745824Y7040556D01*
X16191017Y7086211D02*
X14791479Y7086211D01*
X16653800Y7400979D02*
X9232221Y7400979D01*
X9232221Y7400979D02*
X9194121Y7439079D01*
X9194121Y7439079D02*
X8652800Y7980400D01*
X18739754Y8116988D02*
X18315490Y8116988D01*
X18128091Y7929589D02*
X10783081Y7929589D01*
X10027861Y8166166D02*
X9603597Y8166166D01*
X18315490Y8116988D02*
X18128091Y7929589D01*
X10783081Y7929589D02*
X10546503Y8166166D01*
X10546503Y8166166D02*
X10027861Y8166166D01*
X18152400Y8640800D02*
X17852401Y8340801D01*
X10426736Y8717000D02*
X9483464Y8717000D01*
X17852401Y8340801D02*
X10802935Y8340801D01*
X9483464Y8717000D02*
X9059200Y8717000D01*
X10802935Y8340801D02*
X10426736Y8717000D01*
X19814134Y9470980D02*
X18118980Y9470980D01*
X18118980Y9470980D02*
X17314200Y8666200D01*
X17314200Y8666200D02*
X10908604Y8666200D01*
X10908604Y8666200D02*
X10325784Y9249019D01*
X10325784Y9249019D02*
X7257181Y9249019D01*
X15180609Y9148809D02*
X16231863Y9148809D01*
X10631235Y9374635D02*
X14954783Y9374635D01*
X10107779Y9898090D02*
X10631235Y9374635D01*
X14954783Y9374635D02*
X15180609Y9148809D01*
X13439899Y9694099D02*
X15259450Y9694099D01*
X12547275Y9694099D02*
X13439899Y9694099D01*
X21191078Y8055936D02*
X21491077Y7755937D01*
X19814134Y9470980D02*
X19814134Y9432880D01*
X19814134Y9432880D02*
X21191078Y8055936D01*
X21652800Y6121400D02*
X21652800Y5741800D01*
X17296740Y16765207D02*
X18776971Y16765207D01*
X20266535Y10424721D02*
X21981579Y8709677D01*
X20266535Y10501319D02*
X20266535Y10424721D01*
X20157045Y10610809D02*
X20266535Y10501319D01*
X20157045Y15385133D02*
X20157045Y10610809D01*
X18776971Y16765207D02*
X20157045Y15385133D01*
X22019678Y6488278D02*
X21652800Y6121400D01*
X21652800Y5741800D02*
X21652800Y3314800D01*
X22019678Y8047766D02*
X22019678Y6488278D01*
X21981579Y8085865D02*
X22019678Y8047766D01*
X21981579Y8709677D02*
X21981579Y8085865D01*
X16231863Y9148809D02*
X16370726Y9287672D01*
X9859290Y9898090D02*
X10107779Y9898090D01*
X10116935Y9898090D02*
X9859290Y9898090D01*
X9859290Y9898090D02*
X7608504Y9898090D01*
D21*
X15332178Y6203222D02*
X18059158Y6203222D01*
X18236136Y6380200D02*
X18660400Y6380200D01*
X15002800Y6532600D02*
X15332178Y6203222D01*
X18059158Y6203222D02*
X18236136Y6380200D01*
D20*
X8100858Y10419769D02*
X7800859Y10719768D01*
X6956845Y10590755D02*
X6519200Y11028400D01*
X6956845Y10549749D02*
X6956845Y10590755D01*
X18046738Y14656538D02*
X18406400Y15016200D01*
X18046738Y14326338D02*
X18046738Y14656538D01*
X16171200Y12450800D02*
X13250200Y12450800D01*
X13250200Y12450800D02*
X12541045Y11741645D01*
X18046738Y14326338D02*
X16171200Y12450800D01*
X17636501Y14627301D02*
X15840999Y12831799D01*
X15840999Y12831799D02*
X12848867Y12831797D01*
X11816396Y11799326D02*
X11654006Y11799326D01*
X12848867Y12831797D02*
X11816396Y11799326D01*
X17936500Y15638500D02*
X17636501Y15338501D01*
X17636501Y15338501D02*
X17636501Y14627301D01*
D22*
X11787240Y11932560D02*
X11654006Y11799326D01*
D20*
X17568264Y16254401D02*
X17550469Y16236606D01*
X18792530Y16254401D02*
X17568264Y16254401D01*
X17550469Y16236606D02*
X17177955Y16236606D01*
X19814134Y15232797D02*
X18792530Y16254401D01*
X19814134Y9470980D02*
X19814134Y15232797D01*
X17177955Y16236606D02*
X16547180Y15605831D01*
X7256844Y10249750D02*
X6956845Y10549749D01*
X7608504Y9898090D02*
X7256844Y10249750D01*
X15259450Y9694099D02*
X15683714Y9694099D01*
D23*
X9694200Y23804600D02*
X9694200Y10785911D01*
D20*
X22699000Y9987000D02*
X23123264Y9987000D01*
X26178800Y13042536D02*
X26178800Y13416000D01*
X26178800Y21791115D02*
X26178800Y13416000D01*
X23123264Y9987000D02*
X26178800Y13042536D01*
D21*
X17212600Y11841200D02*
X19198233Y13826833D01*
X19198233Y13826833D02*
X19198233Y14947462D01*
X15390685Y11841200D02*
X17212600Y11841200D01*
X14799600Y11866600D02*
X15365285Y11866600D01*
X15365285Y11866600D02*
X15390685Y11841200D01*
X14095285Y11866600D02*
X14799600Y11866600D01*
X13529600Y11866600D02*
X14095285Y11866600D01*
D24*
X14113800Y6354800D02*
X13652800Y5893800D01*
X13652800Y5893800D02*
X13652800Y3314800D01*
X12285000Y6380200D02*
X12652800Y6012400D01*
X12652800Y6012400D02*
X12652800Y3314800D01*
D21*
X22851400Y14813000D02*
X20890902Y14813000D01*
X20890902Y14813000D02*
X20772955Y14930947D01*
X27652800Y3314800D02*
X27652800Y8259000D01*
X26652800Y6264800D02*
X26636000Y6281600D01*
X26652800Y3314800D02*
X26652800Y6264800D01*
X26636000Y6281600D02*
X26636000Y8793200D01*
X25652800Y6264800D02*
X25645400Y6272200D01*
X25652800Y3314800D02*
X25652800Y6264800D01*
X25645400Y6272200D02*
X25645400Y8666200D01*
X24652800Y6264800D02*
X24654800Y6266800D01*
X24652800Y3314800D02*
X24652800Y6264800D01*
X24654800Y6266800D02*
X24654800Y8234400D01*
X23652800Y6264800D02*
X23664200Y6276200D01*
X23652800Y3314800D02*
X23652800Y6264800D01*
X23664200Y6276200D02*
X23664200Y8158200D01*
D20*
X26686800Y10520400D02*
X26686800Y20902690D01*
X25848600Y22687000D02*
X25848600Y22121315D01*
D23*
X26686800Y20902690D02*
X26794710Y21010600D01*
D20*
X25848600Y22121315D02*
X26178800Y21791115D01*
X21886200Y9867536D02*
X22401736Y9352000D01*
X21886200Y10291800D02*
X21886200Y9867536D01*
X25518400Y9352000D02*
X26686800Y10520400D01*
X22401736Y9352000D02*
X25518400Y9352000D01*
G36*
X2344916Y39057520D02*
G01*
X2234228Y38891865D01*
X2164619Y38705189D01*
X2139821Y38507507D01*
X2161165Y38309422D01*
X2227506Y38121559D01*
X2335286Y37953997D01*
X2478722Y37815725D01*
X2650120Y37714158D01*
X2840288Y37654745D01*
X3039021Y37640674D01*
X3235663Y37672699D01*
X3419663Y37749103D01*
X3581150Y37865786D01*
X3711464Y38016490D01*
X3803613Y38193129D01*
X3852779Y38386718D01*
X3854626Y38598382D01*
X3808847Y38792798D01*
X3719794Y38971020D01*
X3594112Y39121600D01*
X32913753Y39121600D01*
X32844916Y39057520D01*
X32734228Y38891865D01*
X32664619Y38705189D01*
X32639821Y38507507D01*
X32661165Y38309422D01*
X32727506Y38121559D01*
X32835286Y37953997D01*
X32978722Y37815725D01*
X33150120Y37714158D01*
X33340288Y37654745D01*
X33539021Y37640674D01*
X33735663Y37672699D01*
X33919663Y37749103D01*
X34081150Y37865786D01*
X34211464Y38016490D01*
X34303613Y38193129D01*
X34352779Y38386718D01*
X34354626Y38598382D01*
X34308847Y38792798D01*
X34219794Y38971020D01*
X34094112Y39121600D01*
X35648904Y39121600D01*
X35654819Y39119353D01*
X35843724Y39100165D01*
X35981574Y39056966D01*
X36107928Y38986927D01*
X36217607Y38892921D01*
X36306153Y38778767D01*
X36369937Y38649140D01*
X36407230Y38505969D01*
X36418333Y38361688D01*
X36421601Y38352408D01*
X36421600Y7890500D01*
X30609187Y7890500D01*
X30542793Y7947407D01*
X30531670Y7952736D01*
X30522798Y7961303D01*
X30317010Y8075374D01*
X30305045Y8078357D01*
X30294633Y8084965D01*
X30070109Y8155326D01*
X30057787Y8155842D01*
X30046261Y8160221D01*
X29812174Y8183999D01*
X29777604Y8178400D01*
X29325826Y8178400D01*
X29294767Y8184212D01*
X29108705Y8169895D01*
X29100369Y8166960D01*
X29091533Y8167021D01*
X28863846Y8107713D01*
X28853124Y8101623D01*
X28841021Y8099226D01*
X28629906Y7995344D01*
X28620629Y7987222D01*
X28609262Y7982444D01*
X28490728Y7890500D01*
X22374278Y7890500D01*
X22374278Y8093372D01*
X22374277Y8093376D01*
X22374277Y8142781D01*
X22350114Y8184632D01*
X22337604Y8231320D01*
X22336179Y8232745D01*
X22336179Y8755283D01*
X22336178Y8755287D01*
X22336178Y8804694D01*
X22312013Y8846547D01*
X22299505Y8893231D01*
X22290924Y8901812D01*
X22292194Y9005787D01*
X22306719Y8997401D01*
X22356126Y8997401D01*
X22356130Y8997400D01*
X25564006Y8997400D01*
X25564010Y8997401D01*
X25613415Y8997401D01*
X25655266Y9021564D01*
X25701954Y9034074D01*
X25849357Y9181477D01*
X25849357Y9181479D01*
X26995724Y10327844D01*
X27004726Y10336845D01*
X27017234Y10383530D01*
X27041399Y10425383D01*
X27041399Y10474790D01*
X27041400Y10474794D01*
X27041400Y20487383D01*
X27139733Y20533970D01*
X27288185Y20690134D01*
X27370750Y20889953D01*
X27373525Y21117137D01*
X27295868Y21318914D01*
X27151276Y21478659D01*
X26958869Y21575640D01*
X26744450Y21596852D01*
X26536771Y21539452D01*
X26533400Y21536953D01*
X26533400Y21836721D01*
X26533399Y21836725D01*
X26533399Y21886132D01*
X26509234Y21927985D01*
X26496726Y21974669D01*
X26450819Y22020575D01*
X26226470Y22244923D01*
X26342075Y22366534D01*
X26424640Y22566353D01*
X26427415Y22793537D01*
X26349758Y22995314D01*
X26205166Y23155059D01*
X26012759Y23252040D01*
X25798340Y23273252D01*
X25590661Y23215852D01*
X25417570Y23087538D01*
X25302276Y22905514D01*
X25260241Y22694189D01*
X25297101Y22481900D01*
X25407913Y22297112D01*
X25494001Y22229973D01*
X25494001Y22026300D01*
X25518167Y21984444D01*
X25530675Y21937761D01*
X25576581Y21891856D01*
X25824200Y21644236D01*
X25824201Y13446095D01*
X25824200Y13189415D01*
X23071852Y10437066D01*
X23055566Y10455059D01*
X22863159Y10552040D01*
X22648740Y10573252D01*
X22441061Y10515852D01*
X22424510Y10503582D01*
X22387358Y10600114D01*
X22242766Y10759859D01*
X22050359Y10856840D01*
X21835940Y10878052D01*
X21628261Y10820652D01*
X21455170Y10692338D01*
X21339876Y10510314D01*
X21297841Y10298989D01*
X21334701Y10086700D01*
X21445513Y9901912D01*
X21531601Y9834773D01*
X21531601Y9772521D01*
X21555767Y9730665D01*
X21568275Y9683982D01*
X21614181Y9638077D01*
X21691824Y9560434D01*
X21664068Y9563180D01*
X21637028Y9555706D01*
X20621134Y10571600D01*
X20621134Y10596335D01*
X20596969Y10638189D01*
X20584460Y10684874D01*
X20511645Y10757688D01*
X20511645Y14335218D01*
X20566390Y14303612D01*
X20631960Y14257699D01*
X20657997Y14250722D01*
X20681344Y14237243D01*
X20760176Y14223343D01*
X20837500Y14202624D01*
X20917227Y14209600D01*
X22904187Y14209600D01*
X23060958Y14237243D01*
X23245241Y14343638D01*
X23382021Y14506646D01*
X23454799Y14706605D01*
X23454799Y14919395D01*
X23382021Y15119354D01*
X23245241Y15282362D01*
X23060958Y15388757D01*
X22904187Y15416400D01*
X21131649Y15416400D01*
X21031897Y15486248D01*
X20826356Y15541323D01*
X20614374Y15522777D01*
X20511644Y15474872D01*
X20511644Y15480150D01*
X20487479Y15522003D01*
X20474971Y15568687D01*
X20409984Y15633673D01*
X19107928Y16935728D01*
X19107928Y16935730D01*
X18960525Y17083133D01*
X18913837Y17095643D01*
X18871986Y17119806D01*
X18822581Y17119806D01*
X18822577Y17119807D01*
X17756003Y17119807D01*
X17653306Y17233266D01*
X17460899Y17330247D01*
X17246480Y17351459D01*
X17038801Y17294059D01*
X16865710Y17165745D01*
X16750416Y16983721D01*
X16708381Y16772396D01*
X16745241Y16560107D01*
X16840734Y16400864D01*
X16619797Y16179927D01*
X16496920Y16192083D01*
X16289241Y16134683D01*
X16116150Y16006369D01*
X16000856Y15824345D01*
X15958821Y15613020D01*
X15995681Y15400731D01*
X16106493Y15215943D01*
X16276397Y15083438D01*
X16482612Y15020981D01*
X16697485Y15036950D01*
X16892204Y15129201D01*
X17040655Y15285365D01*
X17123220Y15485184D01*
X17125634Y15682806D01*
X17324835Y15882006D01*
X17406006Y15882006D01*
X17390176Y15857014D01*
X17348141Y15645689D01*
X17362058Y15565536D01*
X17318575Y15522053D01*
X17306067Y15475370D01*
X17281902Y15433517D01*
X17281902Y15384110D01*
X17281901Y15384106D01*
X17281902Y14774181D01*
X15694121Y13186399D01*
X12818772Y13186396D01*
X12753852Y13186396D01*
X12711993Y13162229D01*
X12665312Y13149721D01*
X12633868Y13118277D01*
X12633865Y13118275D01*
X11859249Y12343658D01*
X11818165Y12364366D01*
X11603746Y12385578D01*
X11396067Y12328178D01*
X11222976Y12199864D01*
X11107682Y12017840D01*
X11065647Y11806515D01*
X11102507Y11594226D01*
X11213319Y11409438D01*
X11383223Y11276933D01*
X11589438Y11214476D01*
X11804311Y11230445D01*
X11999030Y11322696D01*
X12071849Y11399298D01*
X12100358Y11351757D01*
X12270262Y11219252D01*
X12476477Y11156795D01*
X12691350Y11172764D01*
X12886069Y11265015D01*
X13034520Y11421179D01*
X13061296Y11485980D01*
X13135759Y11397238D01*
X13320042Y11290843D01*
X13476813Y11263200D01*
X15193846Y11263200D01*
X15259969Y11251541D01*
X15337283Y11230824D01*
X15417025Y11237800D01*
X17186260Y11237800D01*
X17266002Y11230824D01*
X17343316Y11251541D01*
X17422157Y11265443D01*
X17445505Y11278922D01*
X17471542Y11285899D01*
X17537110Y11331811D01*
X17606441Y11371838D01*
X17657906Y11433172D01*
X19459535Y13234800D01*
X19459534Y9825580D01*
X18073374Y9825580D01*
X18073370Y9825579D01*
X18023967Y9825579D01*
X17982111Y9801415D01*
X17935425Y9788905D01*
X17903981Y9757461D01*
X17903978Y9757459D01*
X17167321Y9020800D01*
X16886346Y9020800D01*
X16946766Y9167025D01*
X16949541Y9394209D01*
X16871884Y9595986D01*
X16727292Y9755731D01*
X16534885Y9852712D01*
X16320466Y9873924D01*
X16242605Y9852404D01*
X16184872Y10002413D01*
X16040280Y10162158D01*
X15847873Y10259139D01*
X15633454Y10280351D01*
X15425775Y10222951D01*
X15252684Y10094637D01*
X15223587Y10048699D01*
X11478579Y10048699D01*
X10936986Y10590291D01*
X10936986Y10590292D01*
X10789583Y10737695D01*
X10742895Y10750205D01*
X10701044Y10774368D01*
X10651639Y10774368D01*
X10651635Y10774369D01*
X10351739Y10774369D01*
X10373789Y10827732D01*
X10376564Y11054916D01*
X10298907Y11256693D01*
X10154315Y11416438D01*
X10099600Y11444016D01*
X10099600Y23391483D01*
X10187675Y23484134D01*
X10270240Y23683953D01*
X10273015Y23911137D01*
X10195358Y24112914D01*
X10050766Y24272659D01*
X9858359Y24369640D01*
X9643940Y24390852D01*
X9436261Y24333452D01*
X9263170Y24205138D01*
X9147876Y24023114D01*
X9105841Y23811789D01*
X9142701Y23599500D01*
X9253513Y23414712D01*
X9288800Y23387192D01*
X9288801Y11225901D01*
X9251425Y11166893D01*
X9209390Y10955568D01*
X9240852Y10774369D01*
X8379040Y10774369D01*
X8379674Y10826305D01*
X8302017Y11028082D01*
X8157425Y11187827D01*
X7965018Y11284808D01*
X7750599Y11306020D01*
X7542920Y11248620D01*
X7369829Y11120306D01*
X7254535Y10938282D01*
X7230688Y10818392D01*
X7095796Y10953283D01*
X7098015Y11134937D01*
X7020358Y11336714D01*
X6875766Y11496459D01*
X6683359Y11593440D01*
X6468940Y11614652D01*
X6261261Y11557252D01*
X6088170Y11428938D01*
X5972876Y11246914D01*
X5930841Y11035589D01*
X5967701Y10823300D01*
X6078513Y10638512D01*
X6248417Y10506007D01*
X6454632Y10443550D01*
X6592337Y10453784D01*
X6617080Y10429041D01*
X6626411Y10412880D01*
X6638919Y10366197D01*
X6786322Y10218792D01*
X6786323Y10218792D01*
X7041843Y9963271D01*
X7041845Y9963270D01*
X7177872Y9827242D01*
X6999242Y9777871D01*
X6826151Y9649557D01*
X6710857Y9467533D01*
X6668822Y9256208D01*
X6705682Y9043919D01*
X6816494Y8859131D01*
X6986398Y8726626D01*
X7192613Y8664169D01*
X7407486Y8680138D01*
X7602205Y8772389D01*
X7718209Y8894419D01*
X8504702Y8894419D01*
X8470841Y8724189D01*
X8502973Y8539133D01*
X8394861Y8509252D01*
X8221770Y8380938D01*
X8106476Y8198914D01*
X8064441Y7987589D01*
X8081299Y7890500D01*
X7809187Y7890500D01*
X7742793Y7947407D01*
X7731670Y7952736D01*
X7722798Y7961303D01*
X7517010Y8075374D01*
X7505045Y8078357D01*
X7494633Y8084965D01*
X7270109Y8155326D01*
X7257787Y8155842D01*
X7246261Y8160221D01*
X7012174Y8183999D01*
X6977604Y8178400D01*
X6625826Y8178400D01*
X6594767Y8184212D01*
X6408705Y8169895D01*
X6400369Y8166960D01*
X6391533Y8167021D01*
X6163846Y8107713D01*
X6153124Y8101623D01*
X6141021Y8099226D01*
X5929906Y7995344D01*
X5920629Y7987222D01*
X5909262Y7982444D01*
X5790728Y7890500D01*
X278400Y7890500D01*
X278400Y36571988D01*
X11574800Y36571988D01*
X11574800Y24143612D01*
X11608250Y24018777D01*
X11711777Y23915250D01*
X11836612Y23881800D01*
X15146388Y23881800D01*
X15271223Y23915250D01*
X15374750Y24018777D01*
X15408200Y24143612D01*
X15408200Y26264839D01*
X16920401Y25432615D01*
X17024741Y25405800D01*
X17655173Y25405800D01*
X17714719Y25421813D01*
X17774478Y25405800D01*
X18427761Y25405800D01*
X18530272Y25431625D01*
X20083800Y26267411D01*
X20083800Y24143612D01*
X20117250Y24018777D01*
X20220777Y23915250D01*
X20345612Y23881800D01*
X23807788Y23881800D01*
X23932623Y23915250D01*
X24036150Y24018777D01*
X24069600Y24143612D01*
X24069600Y36571988D01*
X24036150Y36696823D01*
X23932623Y36800350D01*
X23807788Y36833800D01*
X20345612Y36833800D01*
X20333672Y36830601D01*
X20313123Y36851150D01*
X20188288Y36884600D01*
X17754754Y36884600D01*
X17647966Y36855883D01*
X17635588Y36859200D01*
X15202112Y36859200D01*
X15107320Y36833800D01*
X11836612Y36833800D01*
X11711777Y36800350D01*
X11608250Y36696823D01*
X11574800Y36571988D01*
X278400Y36571988D01*
X278400Y38348904D01*
X280647Y38354819D01*
X299835Y38543724D01*
X343034Y38681574D01*
X413073Y38807928D01*
X507079Y38917607D01*
X621233Y39006153D01*
X750860Y39069937D01*
X894031Y39107230D01*
X1038312Y39118333D01*
X1047589Y39121600D01*
X2413753Y39121600D01*
X2344916Y39057520D01*
G37*
D23*
X2344916Y39057520D02*
X2234228Y38891865D01*
X2164619Y38705189D01*
X2139821Y38507507D01*
X2161165Y38309422D01*
X2227506Y38121559D01*
X2335286Y37953997D01*
X2478722Y37815725D01*
X2650120Y37714158D01*
X2840288Y37654745D01*
X3039021Y37640674D01*
X3235663Y37672699D01*
X3419663Y37749103D01*
X3581150Y37865786D01*
X3711464Y38016490D01*
X3803613Y38193129D01*
X3852779Y38386718D01*
X3854626Y38598382D01*
X3808847Y38792798D01*
X3719794Y38971020D01*
X3594112Y39121600D01*
X32913753Y39121600D01*
X32844916Y39057520D01*
X32734228Y38891865D01*
X32664619Y38705189D01*
X32639821Y38507507D01*
X32661165Y38309422D01*
X32727506Y38121559D01*
X32835286Y37953997D01*
X32978722Y37815725D01*
X33150120Y37714158D01*
X33340288Y37654745D01*
X33539021Y37640674D01*
X33735663Y37672699D01*
X33919663Y37749103D01*
X34081150Y37865786D01*
X34211464Y38016490D01*
X34303613Y38193129D01*
X34352779Y38386718D01*
X34354626Y38598382D01*
X34308847Y38792798D01*
X34219794Y38971020D01*
X34094112Y39121600D01*
X35648904Y39121600D01*
X35654819Y39119353D01*
X35843724Y39100165D01*
X35981574Y39056966D01*
X36107928Y38986927D01*
X36217607Y38892921D01*
X36306153Y38778767D01*
X36369937Y38649140D01*
X36407230Y38505969D01*
X36418333Y38361688D01*
X36421601Y38352408D01*
X36421600Y7890500D01*
X30609187Y7890500D01*
X30542793Y7947407D01*
X30531670Y7952736D01*
X30522798Y7961303D01*
X30317010Y8075374D01*
X30305045Y8078357D01*
X30294633Y8084965D01*
X30070109Y8155326D01*
X30057787Y8155842D01*
X30046261Y8160221D01*
X29812174Y8183999D01*
X29777604Y8178400D01*
X29325826Y8178400D01*
X29294767Y8184212D01*
X29108705Y8169895D01*
X29100369Y8166960D01*
X29091533Y8167021D01*
X28863846Y8107713D01*
X28853124Y8101623D01*
X28841021Y8099226D01*
X28629906Y7995344D01*
X28620629Y7987222D01*
X28609262Y7982444D01*
X28490728Y7890500D01*
X22374278Y7890500D01*
X22374278Y8093372D01*
X22374277Y8093376D01*
X22374277Y8142781D01*
X22350114Y8184632D01*
X22337604Y8231320D01*
X22336179Y8232745D01*
X22336179Y8755283D01*
X22336178Y8755287D01*
X22336178Y8804694D01*
X22312013Y8846547D01*
X22299505Y8893231D01*
X22290924Y8901812D01*
X22292194Y9005787D01*
X22306719Y8997401D01*
X22356126Y8997401D01*
X22356130Y8997400D01*
X25564006Y8997400D01*
X25564010Y8997401D01*
X25613415Y8997401D01*
X25655266Y9021564D01*
X25701954Y9034074D01*
X25849357Y9181477D01*
X25849357Y9181479D01*
X26995724Y10327844D01*
X27004726Y10336845D01*
X27017234Y10383530D01*
X27041399Y10425383D01*
X27041399Y10474790D01*
X27041400Y10474794D01*
X27041400Y20487383D01*
X27139733Y20533970D01*
X27288185Y20690134D01*
X27370750Y20889953D01*
X27373525Y21117137D01*
X27295868Y21318914D01*
X27151276Y21478659D01*
X26958869Y21575640D01*
X26744450Y21596852D01*
X26536771Y21539452D01*
X26533400Y21536953D01*
X26533400Y21836721D01*
X26533399Y21836725D01*
X26533399Y21886132D01*
X26509234Y21927985D01*
X26496726Y21974669D01*
X26450819Y22020575D01*
X26226470Y22244923D01*
X26342075Y22366534D01*
X26424640Y22566353D01*
X26427415Y22793537D01*
X26349758Y22995314D01*
X26205166Y23155059D01*
X26012759Y23252040D01*
X25798340Y23273252D01*
X25590661Y23215852D01*
X25417570Y23087538D01*
X25302276Y22905514D01*
X25260241Y22694189D01*
X25297101Y22481900D01*
X25407913Y22297112D01*
X25494001Y22229973D01*
X25494001Y22026300D01*
X25518167Y21984444D01*
X25530675Y21937761D01*
X25576581Y21891856D01*
X25824200Y21644236D01*
X25824201Y13446095D01*
X25824200Y13189415D01*
X23071852Y10437066D01*
X23055566Y10455059D01*
X22863159Y10552040D01*
X22648740Y10573252D01*
X22441061Y10515852D01*
X22424510Y10503582D01*
X22387358Y10600114D01*
X22242766Y10759859D01*
X22050359Y10856840D01*
X21835940Y10878052D01*
X21628261Y10820652D01*
X21455170Y10692338D01*
X21339876Y10510314D01*
X21297841Y10298989D01*
X21334701Y10086700D01*
X21445513Y9901912D01*
X21531601Y9834773D01*
X21531601Y9772521D01*
X21555767Y9730665D01*
X21568275Y9683982D01*
X21614181Y9638077D01*
X21691824Y9560434D01*
X21664068Y9563180D01*
X21637028Y9555706D01*
X20621134Y10571600D01*
X20621134Y10596335D01*
X20596969Y10638189D01*
X20584460Y10684874D01*
X20511645Y10757688D01*
X20511645Y14335218D01*
X20566390Y14303612D01*
X20631960Y14257699D01*
X20657997Y14250722D01*
X20681344Y14237243D01*
X20760176Y14223343D01*
X20837500Y14202624D01*
X20917227Y14209600D01*
X22904187Y14209600D01*
X23060958Y14237243D01*
X23245241Y14343638D01*
X23382021Y14506646D01*
X23454799Y14706605D01*
X23454799Y14919395D01*
X23382021Y15119354D01*
X23245241Y15282362D01*
X23060958Y15388757D01*
X22904187Y15416400D01*
X21131649Y15416400D01*
X21031897Y15486248D01*
X20826356Y15541323D01*
X20614374Y15522777D01*
X20511644Y15474872D01*
X20511644Y15480150D01*
X20487479Y15522003D01*
X20474971Y15568687D01*
X20409984Y15633673D01*
X19107928Y16935728D01*
X19107928Y16935730D01*
X18960525Y17083133D01*
X18913837Y17095643D01*
X18871986Y17119806D01*
X18822581Y17119806D01*
X18822577Y17119807D01*
X17756003Y17119807D01*
X17653306Y17233266D01*
X17460899Y17330247D01*
X17246480Y17351459D01*
X17038801Y17294059D01*
X16865710Y17165745D01*
X16750416Y16983721D01*
X16708381Y16772396D01*
X16745241Y16560107D01*
X16840734Y16400864D01*
X16619797Y16179927D01*
X16496920Y16192083D01*
X16289241Y16134683D01*
X16116150Y16006369D01*
X16000856Y15824345D01*
X15958821Y15613020D01*
X15995681Y15400731D01*
X16106493Y15215943D01*
X16276397Y15083438D01*
X16482612Y15020981D01*
X16697485Y15036950D01*
X16892204Y15129201D01*
X17040655Y15285365D01*
X17123220Y15485184D01*
X17125634Y15682806D01*
X17324835Y15882006D01*
X17406006Y15882006D01*
X17390176Y15857014D01*
X17348141Y15645689D01*
X17362058Y15565536D01*
X17318575Y15522053D01*
X17306067Y15475370D01*
X17281902Y15433517D01*
X17281902Y15384110D01*
X17281901Y15384106D01*
X17281902Y14774181D01*
X15694121Y13186399D01*
X12818772Y13186396D01*
X12753852Y13186396D01*
X12711993Y13162229D01*
X12665312Y13149721D01*
X12633868Y13118277D01*
X12633865Y13118275D01*
X11859249Y12343658D01*
X11818165Y12364366D01*
X11603746Y12385578D01*
X11396067Y12328178D01*
X11222976Y12199864D01*
X11107682Y12017840D01*
X11065647Y11806515D01*
X11102507Y11594226D01*
X11213319Y11409438D01*
X11383223Y11276933D01*
X11589438Y11214476D01*
X11804311Y11230445D01*
X11999030Y11322696D01*
X12071849Y11399298D01*
X12100358Y11351757D01*
X12270262Y11219252D01*
X12476477Y11156795D01*
X12691350Y11172764D01*
X12886069Y11265015D01*
X13034520Y11421179D01*
X13061296Y11485980D01*
X13135759Y11397238D01*
X13320042Y11290843D01*
X13476813Y11263200D01*
X15193846Y11263200D01*
X15259969Y11251541D01*
X15337283Y11230824D01*
X15417025Y11237800D01*
X17186260Y11237800D01*
X17266002Y11230824D01*
X17343316Y11251541D01*
X17422157Y11265443D01*
X17445505Y11278922D01*
X17471542Y11285899D01*
X17537110Y11331811D01*
X17606441Y11371838D01*
X17657906Y11433172D01*
X19459535Y13234800D01*
X19459534Y9825580D01*
X18073374Y9825580D01*
X18073370Y9825579D01*
X18023967Y9825579D01*
X17982111Y9801415D01*
X17935425Y9788905D01*
X17903981Y9757461D01*
X17903978Y9757459D01*
X17167321Y9020800D01*
X16886346Y9020800D01*
X16946766Y9167025D01*
X16949541Y9394209D01*
X16871884Y9595986D01*
X16727292Y9755731D01*
X16534885Y9852712D01*
X16320466Y9873924D01*
X16242605Y9852404D01*
X16184872Y10002413D01*
X16040280Y10162158D01*
X15847873Y10259139D01*
X15633454Y10280351D01*
X15425775Y10222951D01*
X15252684Y10094637D01*
X15223587Y10048699D01*
X11478579Y10048699D01*
X10936986Y10590291D01*
X10936986Y10590292D01*
X10789583Y10737695D01*
X10742895Y10750205D01*
X10701044Y10774368D01*
X10651639Y10774368D01*
X10651635Y10774369D01*
X10351739Y10774369D01*
X10373789Y10827732D01*
X10376564Y11054916D01*
X10298907Y11256693D01*
X10154315Y11416438D01*
X10099600Y11444016D01*
X10099600Y23391483D01*
X10187675Y23484134D01*
X10270240Y23683953D01*
X10273015Y23911137D01*
X10195358Y24112914D01*
X10050766Y24272659D01*
X9858359Y24369640D01*
X9643940Y24390852D01*
X9436261Y24333452D01*
X9263170Y24205138D01*
X9147876Y24023114D01*
X9105841Y23811789D01*
X9142701Y23599500D01*
X9253513Y23414712D01*
X9288800Y23387192D01*
X9288801Y11225901D01*
X9251425Y11166893D01*
X9209390Y10955568D01*
X9240852Y10774369D01*
X8379040Y10774369D01*
X8379674Y10826305D01*
X8302017Y11028082D01*
X8157425Y11187827D01*
X7965018Y11284808D01*
X7750599Y11306020D01*
X7542920Y11248620D01*
X7369829Y11120306D01*
X7254535Y10938282D01*
X7230688Y10818392D01*
X7095796Y10953283D01*
X7098015Y11134937D01*
X7020358Y11336714D01*
X6875766Y11496459D01*
X6683359Y11593440D01*
X6468940Y11614652D01*
X6261261Y11557252D01*
X6088170Y11428938D01*
X5972876Y11246914D01*
X5930841Y11035589D01*
X5967701Y10823300D01*
X6078513Y10638512D01*
X6248417Y10506007D01*
X6454632Y10443550D01*
X6592337Y10453784D01*
X6617080Y10429041D01*
X6626411Y10412880D01*
X6638919Y10366197D01*
X6786322Y10218792D01*
X6786323Y10218792D01*
X7041843Y9963271D01*
X7041845Y9963270D01*
X7177872Y9827242D01*
X6999242Y9777871D01*
X6826151Y9649557D01*
X6710857Y9467533D01*
X6668822Y9256208D01*
X6705682Y9043919D01*
X6816494Y8859131D01*
X6986398Y8726626D01*
X7192613Y8664169D01*
X7407486Y8680138D01*
X7602205Y8772389D01*
X7718209Y8894419D01*
X8504702Y8894419D01*
X8470841Y8724189D01*
X8502973Y8539133D01*
X8394861Y8509252D01*
X8221770Y8380938D01*
X8106476Y8198914D01*
X8064441Y7987589D01*
X8081299Y7890500D01*
X7809187Y7890500D01*
X7742793Y7947407D01*
X7731670Y7952736D01*
X7722798Y7961303D01*
X7517010Y8075374D01*
X7505045Y8078357D01*
X7494633Y8084965D01*
X7270109Y8155326D01*
X7257787Y8155842D01*
X7246261Y8160221D01*
X7012174Y8183999D01*
X6977604Y8178400D01*
X6625826Y8178400D01*
X6594767Y8184212D01*
X6408705Y8169895D01*
X6400369Y8166960D01*
X6391533Y8167021D01*
X6163846Y8107713D01*
X6153124Y8101623D01*
X6141021Y8099226D01*
X5929906Y7995344D01*
X5920629Y7987222D01*
X5909262Y7982444D01*
X5790728Y7890500D01*
X278400Y7890500D01*
X278400Y36571988D01*
X11574800Y36571988D01*
X11574800Y24143612D01*
X11608250Y24018777D01*
X11711777Y23915250D01*
X11836612Y23881800D01*
X15146388Y23881800D01*
X15271223Y23915250D01*
X15374750Y24018777D01*
X15408200Y24143612D01*
X15408200Y26264839D01*
X16920401Y25432615D01*
X17024741Y25405800D01*
X17655173Y25405800D01*
X17714719Y25421813D01*
X17774478Y25405800D01*
X18427761Y25405800D01*
X18530272Y25431625D01*
X20083800Y26267411D01*
X20083800Y24143612D01*
X20117250Y24018777D01*
X20220777Y23915250D01*
X20345612Y23881800D01*
X23807788Y23881800D01*
X23932623Y23915250D01*
X24036150Y24018777D01*
X24069600Y24143612D01*
X24069600Y36571988D01*
X24036150Y36696823D01*
X23932623Y36800350D01*
X23807788Y36833800D01*
X20345612Y36833800D01*
X20333672Y36830601D01*
X20313123Y36851150D01*
X20188288Y36884600D01*
X17754754Y36884600D01*
X17647966Y36855883D01*
X17635588Y36859200D01*
X15202112Y36859200D01*
X15107320Y36833800D01*
X11836612Y36833800D01*
X11711777Y36800350D01*
X11608250Y36696823D01*
X11574800Y36571988D01*
X278400Y36571988D01*
X278400Y38348904D01*
X280647Y38354819D01*
X299835Y38543724D01*
X343034Y38681574D01*
X413073Y38807928D01*
X507079Y38917607D01*
X621233Y39006153D01*
X750860Y39069937D01*
X894031Y39107230D01*
X1038312Y39118333D01*
X1047589Y39121600D01*
X2413753Y39121600D01*
X2344916Y39057520D01*
G36*
X20045700Y32796459D02*
G01*
X20033155Y26699373D01*
X18380392Y25810200D01*
X17916840Y25810200D01*
X17897627Y36480200D01*
X20045700Y36480200D01*
X20045700Y32796459D01*
G37*
X20045700Y32796459D02*
X20033155Y26699373D01*
X18380392Y25810200D01*
X17916840Y25810200D01*
X17897627Y36480200D01*
X20045700Y36480200D01*
X20045700Y32796459D01*
G36*
X17512301Y25810200D02*
G01*
X17073054Y25810200D01*
X15457623Y26699236D01*
X15344700Y32771960D01*
X15344700Y36454800D01*
X17493225Y36454800D01*
X17512301Y25810200D01*
G37*
X17512301Y25810200D02*
X17073054Y25810200D01*
X15457623Y26699236D01*
X15344700Y32771960D01*
X15344700Y36454800D01*
X17493225Y36454800D01*
X17512301Y25810200D01*
G36*
X23665200Y24286200D02*
G01*
X20488200Y24286200D01*
X20488200Y36429400D01*
X23665200Y36429400D01*
X23665200Y24286200D01*
G37*
X23665200Y24286200D02*
X20488200Y24286200D01*
X20488200Y36429400D01*
X23665200Y36429400D01*
X23665200Y24286200D01*
G36*
X14940300Y32770222D02*
G01*
X14940337Y32766218D01*
X15003800Y29353316D01*
X15003800Y24286200D01*
X11979200Y24286200D01*
X11979200Y36429400D01*
X14940300Y36429400D01*
X14940300Y32770222D01*
G37*
X14940300Y32770222D02*
X14940337Y32766218D01*
X15003800Y29353316D01*
X15003800Y24286200D01*
X11979200Y24286200D01*
X11979200Y36429400D01*
X14940300Y36429400D01*
X14940300Y32770222D01*
M02*
