G04 #@! TF.GenerationSoftware,KiCad,Pcbnew,(5.1.0-1558-g0ba0c1724)*
G04 #@! TF.CreationDate,2019-11-22T01:18:09-08:00*
G04 #@! TF.ProjectId,TMC2209_Driver,544d4332-3230-4395-9f44-72697665722e,rev?*
G04 #@! TF.SameCoordinates,Original*
G04 #@! TF.FileFunction,Copper,L1,Top*
G04 #@! TF.FilePolarity,Positive*
%FSLAX46Y46*%
G04 Gerber Fmt 4.6, Leading zero omitted, Abs format (unit mm)*
G04 Created by KiCad (PCBNEW (5.1.0-1558-g0ba0c1724)) date 2019-11-22 01:18:09*
%MOMM*%
%LPD*%
G04 APERTURE LIST*
%ADD10R,3.700000X3.700000*%
%ADD11R,0.250000X0.800000*%
%ADD12R,0.800000X0.250000*%
%ADD13R,0.680000X0.300000*%
%ADD14R,1.450000X1.560000*%
%ADD15R,0.875000X0.950000*%
%ADD16R,0.650000X0.400000*%
%ADD17C,0.100000*%
%ADD18C,1.250000*%
%ADD19C,1.778000*%
%ADD20R,1.778000X1.778000*%
%ADD21C,0.650000*%
%ADD22R,0.650000X4.600000*%
%ADD23R,0.650000X3.600000*%
%ADD24R,3.000000X0.127000*%
%ADD25R,0.127000X3.000000*%
%ADD26R,1.250000X1.750000*%
%ADD27R,0.590000X0.640000*%
%ADD28C,0.600000*%
%ADD29C,0.635000*%
%ADD30C,0.508000*%
%ADD31C,1.000000*%
%ADD32C,0.152400*%
%ADD33C,0.508000*%
%ADD34C,0.650000*%
%ADD35C,0.254000*%
%ADD36C,0.203200*%
%ADD37C,1.500000*%
G04 APERTURE END LIST*
D10*
X126682500Y-91059000D03*
D11*
X125182500Y-88559000D03*
X125682499Y-88559000D03*
X126182501Y-88559000D03*
X126682500Y-88559000D03*
X127182499Y-88559000D03*
X127682501Y-88559000D03*
X128182500Y-88559000D03*
D12*
X129182500Y-89559000D03*
X129182500Y-90058999D03*
X129182500Y-90559001D03*
X129182500Y-91059000D03*
X129182500Y-91558999D03*
X129182500Y-92059001D03*
X129182500Y-92559000D03*
D11*
X128182500Y-93559000D03*
X127682501Y-93559000D03*
X127182499Y-93559000D03*
X126682500Y-93559000D03*
X126182501Y-93559000D03*
X125682499Y-93559000D03*
X125182500Y-93559000D03*
D12*
X124182500Y-92559000D03*
X124182500Y-92059001D03*
X124182500Y-91558999D03*
X124182500Y-91059000D03*
X124182500Y-90559001D03*
X124182500Y-90058999D03*
X124182500Y-89559000D03*
D13*
X112101800Y-100418200D03*
X112101800Y-100918200D03*
X112101800Y-101418200D03*
X112101800Y-101918200D03*
X114821800Y-100418200D03*
X114821800Y-100918200D03*
X114821800Y-101418200D03*
X114821800Y-101918200D03*
D14*
X113461800Y-101168200D03*
D15*
X114909700Y-99034600D03*
X113334700Y-99034600D03*
X119850000Y-99949000D03*
X118275000Y-99949000D03*
D16*
X119885500Y-101585000D03*
X119885500Y-102885000D03*
X117985500Y-102235000D03*
X117985500Y-102885000D03*
X117985500Y-101585000D03*
D17*
G36*
X122520671Y-81980630D02*
G01*
X122601777Y-82034823D01*
X122655970Y-82115929D01*
X122675000Y-82211600D01*
X122675000Y-84361600D01*
X122655970Y-84457271D01*
X122601777Y-84538377D01*
X122520671Y-84592570D01*
X122425000Y-84611600D01*
X121675000Y-84611600D01*
X121579329Y-84592570D01*
X121498223Y-84538377D01*
X121444030Y-84457271D01*
X121425000Y-84361600D01*
X121425000Y-82211600D01*
X121444030Y-82115929D01*
X121498223Y-82034823D01*
X121579329Y-81980630D01*
X121675000Y-81961600D01*
X122425000Y-81961600D01*
X122520671Y-81980630D01*
X122520671Y-81980630D01*
G37*
D18*
X122050000Y-83286600D03*
D17*
G36*
X119720671Y-81980630D02*
G01*
X119801777Y-82034823D01*
X119855970Y-82115929D01*
X119875000Y-82211600D01*
X119875000Y-84361600D01*
X119855970Y-84457271D01*
X119801777Y-84538377D01*
X119720671Y-84592570D01*
X119625000Y-84611600D01*
X118875000Y-84611600D01*
X118779329Y-84592570D01*
X118698223Y-84538377D01*
X118644030Y-84457271D01*
X118625000Y-84361600D01*
X118625000Y-82211600D01*
X118644030Y-82115929D01*
X118698223Y-82034823D01*
X118779329Y-81980630D01*
X118875000Y-81961600D01*
X119625000Y-81961600D01*
X119720671Y-81980630D01*
X119720671Y-81980630D01*
G37*
D18*
X119250000Y-83286600D03*
D17*
G36*
X131661671Y-81955230D02*
G01*
X131742777Y-82009423D01*
X131796970Y-82090529D01*
X131816000Y-82186200D01*
X131816000Y-84336200D01*
X131796970Y-84431871D01*
X131742777Y-84512977D01*
X131661671Y-84567170D01*
X131566000Y-84586200D01*
X130816000Y-84586200D01*
X130720329Y-84567170D01*
X130639223Y-84512977D01*
X130585030Y-84431871D01*
X130566000Y-84336200D01*
X130566000Y-82186200D01*
X130585030Y-82090529D01*
X130639223Y-82009423D01*
X130720329Y-81955230D01*
X130816000Y-81936200D01*
X131566000Y-81936200D01*
X131661671Y-81955230D01*
X131661671Y-81955230D01*
G37*
D18*
X131191000Y-83261200D03*
D17*
G36*
X134461671Y-81955230D02*
G01*
X134542777Y-82009423D01*
X134596970Y-82090529D01*
X134616000Y-82186200D01*
X134616000Y-84336200D01*
X134596970Y-84431871D01*
X134542777Y-84512977D01*
X134461671Y-84567170D01*
X134366000Y-84586200D01*
X133616000Y-84586200D01*
X133520329Y-84567170D01*
X133439223Y-84512977D01*
X133385030Y-84431871D01*
X133366000Y-84336200D01*
X133366000Y-82186200D01*
X133385030Y-82090529D01*
X133439223Y-82009423D01*
X133520329Y-81955230D01*
X133616000Y-81936200D01*
X134366000Y-81936200D01*
X134461671Y-81955230D01*
X134461671Y-81955230D01*
G37*
D18*
X133991000Y-83261200D03*
D15*
X117805000Y-79121000D03*
X119380000Y-79121000D03*
X117830500Y-77470000D03*
X119405500Y-77470000D03*
X135407500Y-78994000D03*
X133832500Y-78994000D03*
X135407500Y-77470000D03*
X133832500Y-77470000D03*
X121412000Y-103124000D03*
X122987000Y-103124000D03*
D19*
X130429000Y-78562200D03*
X127889000Y-78562200D03*
X125349000Y-78562200D03*
D20*
X122809000Y-78562200D03*
D21*
X118652800Y-112985200D03*
X134652800Y-112985200D03*
X133652800Y-112985200D03*
X132652800Y-112985200D03*
X131652800Y-112985200D03*
X130652800Y-112985200D03*
X117652800Y-112985200D03*
X127652800Y-112985200D03*
X126652800Y-112985200D03*
X125652800Y-112985200D03*
X124652800Y-112985200D03*
X123652800Y-112985200D03*
X122652800Y-112985200D03*
X121652800Y-112985200D03*
X120652800Y-112985200D03*
X119652800Y-112985200D03*
D22*
X131652800Y-110685200D03*
X130652800Y-110685200D03*
X136652800Y-110685200D03*
D23*
X135652800Y-110185200D03*
D22*
X134652800Y-110685200D03*
X133652800Y-110685200D03*
X132652800Y-110685200D03*
X127652800Y-110685200D03*
X126652800Y-110685200D03*
X125652800Y-110685200D03*
X124652800Y-110685200D03*
X123652800Y-110685200D03*
X122652800Y-110685200D03*
X121652800Y-110685200D03*
X120652800Y-110685200D03*
X119652800Y-110685200D03*
X118652800Y-110685200D03*
X117652800Y-110685200D03*
D21*
X136652800Y-112985200D03*
D24*
X110744000Y-106000000D03*
D25*
X110744000Y-106000000D03*
D24*
X143764000Y-76454000D03*
D25*
X143764000Y-76454000D03*
D24*
X143764000Y-106000000D03*
D25*
X143764000Y-106000000D03*
D24*
X110744000Y-76454000D03*
D25*
X110744000Y-76454000D03*
D26*
X138046000Y-86360000D03*
X140846000Y-86360000D03*
X116208000Y-86360000D03*
X113408000Y-86360000D03*
D27*
X122428000Y-87122000D03*
X121458000Y-87122000D03*
X130856000Y-87122000D03*
X131826000Y-87122000D03*
D15*
X119735500Y-92837000D03*
X121310500Y-92837000D03*
X119710000Y-91186000D03*
X121285000Y-91186000D03*
X121361000Y-95377000D03*
X122936000Y-95377000D03*
X131800500Y-93599000D03*
X133375500Y-93599000D03*
D28*
X118668800Y-107137200D03*
X118797749Y-103051621D03*
X117620401Y-103051621D03*
X124683714Y-104305901D03*
X130491077Y-106244063D03*
X127152400Y-105359200D03*
X125653800Y-106599021D03*
X124002800Y-107467400D03*
X116800859Y-103280232D03*
X116257181Y-104750981D03*
X115519200Y-102971600D03*
X127406400Y-98983800D03*
X126483320Y-106943171D03*
X127739754Y-105883012D03*
X112081143Y-102467888D03*
X118059200Y-105283000D03*
X125370726Y-104712328D03*
X131699000Y-104013000D03*
X118603597Y-105833834D03*
X123799600Y-102133400D03*
X127660400Y-107619800D03*
X121541045Y-102258355D03*
X120654006Y-102200674D03*
X122529600Y-102133400D03*
X123113800Y-107645200D03*
X121285000Y-107619800D03*
X115798600Y-100914200D03*
X112496600Y-99009200D03*
X129772955Y-99069053D03*
X125547180Y-98394169D03*
X128198233Y-99052538D03*
X126296740Y-97234793D03*
X126936500Y-98361500D03*
X117475000Y-100012500D03*
D29*
X121996200Y-89458800D03*
X122682000Y-89458800D03*
X123393200Y-88417400D03*
X122707400Y-88417400D03*
X121996200Y-88417400D03*
X130657600Y-89408000D03*
X131343400Y-89433400D03*
X130683000Y-88366600D03*
X129971800Y-88366600D03*
X131368800Y-88366600D03*
D30*
X126238000Y-87503000D03*
X126111000Y-85775800D03*
X124968000Y-81280000D03*
X126060200Y-81280000D03*
X127127000Y-87503000D03*
X127330200Y-81280000D03*
X127254000Y-85775800D03*
X128422400Y-81280000D03*
X126085600Y-92329000D03*
X127355600Y-92329000D03*
X127355600Y-91059000D03*
X126720600Y-90424000D03*
X125450600Y-90424000D03*
X125450600Y-91694000D03*
X126085600Y-91059000D03*
X126720600Y-91694000D03*
X127355600Y-89789000D03*
X127927100Y-90424000D03*
X127927100Y-91694000D03*
X126085600Y-89789000D03*
D28*
X120269000Y-87122000D03*
X133350000Y-87122000D03*
X134493000Y-93599000D03*
X120269000Y-95377000D03*
X118694200Y-90195400D03*
X131851400Y-99187000D03*
X117652800Y-106019600D03*
X134848600Y-91313000D03*
X135794710Y-92989400D03*
D31*
X137414000Y-83058000D03*
X139446000Y-83058000D03*
X141224000Y-83058000D03*
X143002000Y-83058000D03*
X137414000Y-80772000D03*
X139446000Y-80772000D03*
X141224000Y-80772000D03*
X143002000Y-80772000D03*
X113030000Y-83058000D03*
X110998000Y-80772000D03*
X110998000Y-83058000D03*
X114808000Y-83058000D03*
X116586000Y-80772000D03*
X114808000Y-80772000D03*
X116586000Y-83058000D03*
X113030000Y-80772000D03*
D28*
X130886200Y-103708200D03*
X130714328Y-105023072D03*
D32*
X118668800Y-107137200D02*
X118668800Y-110669200D01*
X118668800Y-110669200D02*
X118652800Y-110685200D01*
D33*
X117947968Y-102847468D02*
X117824554Y-102847468D01*
X117824554Y-102847468D02*
X117620401Y-103051621D01*
D32*
X119652800Y-103906672D02*
X119097748Y-103351620D01*
D33*
X117985500Y-102885000D02*
X117947968Y-102847468D01*
D32*
X119652800Y-110685200D02*
X119652800Y-103906672D01*
X119097748Y-103351620D02*
X118797749Y-103051621D01*
X120652800Y-110685200D02*
X120652800Y-107825800D01*
X120652800Y-107825800D02*
X120661187Y-107817413D01*
X120661187Y-107817413D02*
X120661187Y-104013087D01*
X119885500Y-103237400D02*
X119885500Y-102885000D01*
X120661187Y-104013087D02*
X119885500Y-103237400D01*
D34*
X124002800Y-107043136D02*
X124002800Y-107467400D01*
X123906312Y-102240112D02*
X123906312Y-106946648D01*
X123906312Y-106946648D02*
X124002800Y-107043136D01*
D32*
X124652800Y-110685200D02*
X124652800Y-105242600D01*
D34*
X123799600Y-102133400D02*
X123906312Y-102240112D01*
D32*
X124652800Y-105242600D02*
X124652800Y-104336815D01*
X130652800Y-106405786D02*
X130491077Y-106244063D01*
X128904347Y-105715453D02*
X130479147Y-105715453D01*
X130652800Y-110685200D02*
X130652800Y-106405786D01*
X127862947Y-105715453D02*
X128904347Y-105715453D01*
X128904347Y-105715453D02*
X131166253Y-105715453D01*
X131166253Y-105715453D02*
X131647592Y-106196792D01*
X131647592Y-106196792D02*
X131652800Y-106196792D01*
X131652800Y-106196792D02*
X131652800Y-110685200D01*
X127152400Y-105359200D02*
X127576664Y-105359200D01*
X127912792Y-105023072D02*
X130290064Y-105023072D01*
X127576664Y-105359200D02*
X127912792Y-105023072D01*
X130290064Y-105023072D02*
X130714328Y-105023072D01*
X131357051Y-104354949D02*
X126808549Y-104354949D01*
X126483320Y-105416716D02*
X126483320Y-105545680D01*
X126483320Y-105545680D02*
X126483320Y-106518907D01*
X126483320Y-105545680D02*
X126483320Y-104680178D01*
X126483320Y-104680178D02*
X126808549Y-104354949D01*
X125953799Y-106299022D02*
X125653800Y-106599021D01*
X125953799Y-104372641D02*
X125953799Y-106299022D01*
X126618240Y-103708200D02*
X125953799Y-104372641D01*
X130886200Y-103708200D02*
X126618240Y-103708200D01*
X125370726Y-104712328D02*
X125070727Y-105012327D01*
X125070727Y-105012327D02*
X125070727Y-108128127D01*
X125652800Y-108710200D02*
X125652800Y-110685200D01*
X125070727Y-108128127D02*
X125652800Y-108710200D01*
X116716227Y-103940761D02*
X117739846Y-103940761D01*
X118603597Y-105409570D02*
X118603597Y-105833834D01*
X114911800Y-101418200D02*
X115363091Y-101418200D01*
X116458257Y-103682791D02*
X116716227Y-103940761D01*
X115965361Y-104260471D02*
X116003452Y-104222380D01*
X115363091Y-101418200D02*
X116800859Y-102855968D01*
X117739846Y-103940761D02*
X118603597Y-104804512D01*
X113334809Y-103682791D02*
X116458257Y-103682791D01*
X116800859Y-102855968D02*
X116800859Y-103280232D01*
X118603597Y-104804512D02*
X118603597Y-105409570D01*
X113076839Y-103940761D02*
X113334809Y-103682791D01*
X112413871Y-104260471D02*
X115965361Y-104260471D01*
X116003452Y-104222380D02*
X116510910Y-104222380D01*
X116549001Y-104260471D02*
X117583129Y-104260471D01*
X116510910Y-104222380D02*
X116549001Y-104260471D01*
X112269381Y-104750981D02*
X116257181Y-104750981D01*
X115519200Y-102971600D02*
X115519200Y-102615600D01*
X115519200Y-102615600D02*
X114821800Y-101918200D01*
X112860329Y-103940761D02*
X113076839Y-103940761D01*
X111472491Y-102887291D02*
X112525961Y-103940761D01*
X112525961Y-103940761D02*
X113076839Y-103940761D01*
X111472491Y-101657508D02*
X111472491Y-102887291D01*
X110693190Y-101428744D02*
X110693190Y-103174790D01*
X111212087Y-100909847D02*
X110693190Y-101428744D01*
X110693190Y-103174790D02*
X110693192Y-103174792D01*
X112101800Y-100418200D02*
X111693575Y-100418200D01*
X110693192Y-103174792D02*
X112269381Y-104750981D01*
X111212087Y-100899687D02*
X111212087Y-100909847D01*
X111693575Y-100418200D02*
X111212087Y-100899687D01*
D33*
X133832500Y-77470000D02*
X133832500Y-77432500D01*
X129184401Y-77266799D02*
X128777999Y-77673201D01*
X133832500Y-77432500D02*
X133666799Y-77266799D01*
X133666799Y-77266799D02*
X129184401Y-77266799D01*
X128777999Y-77673201D02*
X127889000Y-78562200D01*
X119405500Y-77470000D02*
X120351000Y-77470000D01*
X124053599Y-77266799D02*
X124460001Y-77673201D01*
X120351000Y-77470000D02*
X120554201Y-77266799D01*
X120554201Y-77266799D02*
X124053599Y-77266799D01*
X124460001Y-77673201D02*
X125349000Y-78562200D01*
D32*
X125682499Y-93559000D02*
X125682499Y-98258850D01*
X125682499Y-98258850D02*
X125547180Y-98394169D01*
X126182501Y-93559000D02*
X126182501Y-97120554D01*
X126182501Y-97120554D02*
X126296740Y-97234793D01*
X126682500Y-93559000D02*
X126682500Y-96838223D01*
X126682500Y-96838223D02*
X126825341Y-96981064D01*
X126825341Y-96981064D02*
X126825341Y-98250341D01*
X126825341Y-98250341D02*
X126936500Y-98361500D01*
X127406400Y-98983800D02*
X128182500Y-98207700D01*
X128182500Y-98207700D02*
X128182500Y-93559000D01*
D35*
X124182500Y-92059001D02*
X123654577Y-92059001D01*
X122876578Y-92837000D02*
X122002000Y-92837000D01*
X123654577Y-92059001D02*
X122876578Y-92837000D01*
X122002000Y-92837000D02*
X121310500Y-92837000D01*
X124182500Y-91558999D02*
X123528500Y-91558999D01*
X123528500Y-91558999D02*
X123147098Y-91940401D01*
X123147098Y-91940401D02*
X120426901Y-91940401D01*
X120426901Y-91940401D02*
X119710000Y-91223500D01*
X119710000Y-91223500D02*
X119710000Y-91186000D01*
D32*
X126483320Y-106518907D02*
X126483320Y-106943171D01*
X131699000Y-104013000D02*
X131357051Y-104354949D01*
X110998000Y-102844600D02*
X110998000Y-101555000D01*
X110998000Y-101555000D02*
X111634800Y-100918200D01*
X111634800Y-100918200D02*
X112101800Y-100918200D01*
X110743989Y-103225589D02*
X111836200Y-104317800D01*
X112413871Y-104260471D02*
X110998000Y-102844600D01*
X112011800Y-100918200D02*
X111711800Y-100918200D01*
X112081143Y-102043624D02*
X112081143Y-102467888D01*
X112011800Y-101418200D02*
X111711800Y-101418200D01*
X111836200Y-104317800D02*
X112269381Y-104750981D01*
X112081143Y-101987543D02*
X112081143Y-102043624D01*
X117583129Y-104260471D02*
X118000429Y-104677771D01*
X111711800Y-101418200D02*
X111472491Y-101657508D01*
X112011800Y-101918200D02*
X112081143Y-101987543D01*
X111836200Y-104317800D02*
X111940990Y-104422590D01*
X118000429Y-105224229D02*
X118059200Y-105283000D01*
X118000429Y-104677771D02*
X118000429Y-105224229D01*
X124652800Y-104336815D02*
X124683714Y-104305901D01*
X129862312Y-105715453D02*
X129742547Y-105715453D01*
D34*
X127652800Y-107627400D02*
X127660400Y-107619800D01*
X127652800Y-110685200D02*
X127652800Y-107627400D01*
D36*
X117985500Y-102235000D02*
X120619680Y-102235000D01*
D33*
X120345200Y-99949000D02*
X122529600Y-102133400D01*
D35*
X121412000Y-103124000D02*
X121412000Y-102387400D01*
X121412000Y-102387400D02*
X121541045Y-102258355D01*
D36*
X120619680Y-102235000D02*
X120654006Y-102200674D01*
D33*
X119850000Y-99949000D02*
X120345200Y-99949000D01*
D36*
X122987000Y-107518400D02*
X123113800Y-107645200D01*
X122987000Y-103124000D02*
X122987000Y-107518400D01*
X121386600Y-107518200D02*
X121285000Y-107619800D01*
X121386600Y-103827600D02*
X121386600Y-107518200D01*
X121412000Y-103124000D02*
X121412000Y-103802200D01*
X121412000Y-103802200D02*
X121386600Y-103827600D01*
X115794600Y-100918200D02*
X115798600Y-100914200D01*
X114911800Y-100918200D02*
X115794600Y-100918200D01*
X119850000Y-99949000D02*
X119850000Y-99911500D01*
X119850000Y-99911500D02*
X118973100Y-99034600D01*
X118973100Y-99034600D02*
X115550400Y-99034600D01*
X115550400Y-99034600D02*
X114909700Y-99034600D01*
X114911800Y-100418200D02*
X114911800Y-99036700D01*
X114911800Y-99036700D02*
X114909700Y-99034600D01*
D33*
X112522000Y-99034600D02*
X112496600Y-99009200D01*
X113334700Y-99034600D02*
X112522000Y-99034600D01*
D34*
X128198233Y-99052538D02*
X129756440Y-99052538D01*
X129717723Y-99069053D02*
X129772955Y-99069053D01*
X129756440Y-99052538D02*
X129772955Y-99069053D01*
D35*
X119850000Y-99949000D02*
X119850000Y-101549500D01*
X119850000Y-101549500D02*
X119885500Y-101585000D01*
X119850000Y-99986500D02*
X119850000Y-99949000D01*
D33*
X117538500Y-99949000D02*
X117475000Y-100012500D01*
X118275000Y-99949000D02*
X117538500Y-99949000D01*
D35*
X126682500Y-90385900D02*
X126720600Y-90424000D01*
X126682500Y-88711900D02*
X126682500Y-90385900D01*
X129029600Y-91059000D02*
X126682500Y-91059000D01*
X126182501Y-90559001D02*
X126682500Y-91059000D01*
X124335400Y-90559001D02*
X126182501Y-90559001D01*
X127682501Y-92573599D02*
X127927100Y-92329000D01*
X127682501Y-93406100D02*
X127682501Y-92573599D01*
D33*
X122250200Y-79121000D02*
X122809000Y-78562200D01*
X119380000Y-79121000D02*
X122250200Y-79121000D01*
X130860800Y-78994000D02*
X130429000Y-78562200D01*
X133832500Y-78994000D02*
X130860800Y-78994000D01*
D35*
X131800500Y-93561500D02*
X131800500Y-93599000D01*
X130798000Y-92559000D02*
X131800500Y-93561500D01*
X129029600Y-92559000D02*
X130798000Y-92559000D01*
X124869400Y-93406100D02*
X125182500Y-93406100D01*
X122936000Y-95339500D02*
X124869400Y-93406100D01*
X122936000Y-95377000D02*
X122936000Y-95339500D01*
X121412000Y-91059000D02*
X121285000Y-91186000D01*
X124335400Y-91059000D02*
X121412000Y-91059000D01*
D33*
X121458000Y-87122000D02*
X120269000Y-87122000D01*
D37*
X113408000Y-86360000D02*
X113408000Y-84458000D01*
X140846000Y-86360000D02*
X140846000Y-84331000D01*
D33*
X131826000Y-87122000D02*
X133350000Y-87122000D01*
X133375500Y-93599000D02*
X134493000Y-93599000D01*
X121361000Y-95377000D02*
X120269000Y-95377000D01*
D34*
X136652800Y-107735200D02*
X136652000Y-107734400D01*
X136652800Y-110685200D02*
X136652800Y-107735200D01*
X136652000Y-107734400D02*
X136652000Y-105664000D01*
X135652800Y-107735200D02*
X135661400Y-107726600D01*
X135652800Y-110185200D02*
X135652800Y-107735200D01*
X135661400Y-107726600D02*
X135661400Y-105892600D01*
X134652800Y-110685200D02*
X134652800Y-106012200D01*
X134652800Y-106012200D02*
X134899400Y-105765600D01*
X133652800Y-107735200D02*
X133654800Y-107733200D01*
X133652800Y-110685200D02*
X133652800Y-107735200D01*
X133654800Y-107733200D02*
X133654800Y-105511600D01*
X132652800Y-107735200D02*
X132664200Y-107723800D01*
X132652800Y-110685200D02*
X132652800Y-107735200D01*
X132664200Y-107723800D02*
X132664200Y-105562400D01*
X122986800Y-103124200D02*
X122987000Y-103124000D01*
X121564400Y-103276400D02*
X121412000Y-103124000D01*
D35*
X130784600Y-110553400D02*
X130652800Y-110685200D01*
X127682501Y-90058999D02*
X126682500Y-91059000D01*
X129029600Y-90058999D02*
X127682501Y-90058999D01*
X123626601Y-90058999D02*
X123388600Y-90297000D01*
X124335400Y-90058999D02*
X123626601Y-90058999D01*
X123388600Y-90297000D02*
X118795800Y-90297000D01*
X118795800Y-90297000D02*
X118694200Y-90195400D01*
D34*
X131800500Y-93599000D02*
X131800500Y-99136100D01*
X131800500Y-99136100D02*
X131851400Y-99187000D01*
D35*
X117652800Y-106019600D02*
X117652800Y-110685200D01*
D32*
X134112000Y-90576400D02*
X134848600Y-91313000D01*
X135394711Y-92589401D02*
X135794710Y-92989400D01*
X134864311Y-92059001D02*
X135394711Y-92589401D01*
X129029600Y-92059001D02*
X134864311Y-92059001D01*
X127739754Y-105883012D02*
X127739754Y-105838646D01*
X127739754Y-105838646D02*
X127862947Y-105715453D01*
X131166253Y-105715453D02*
X130479147Y-105715453D01*
X130479147Y-105715453D02*
X129742547Y-105715453D01*
X134094601Y-90559001D02*
X134848600Y-91313000D01*
X129182500Y-90559001D02*
X134094601Y-90559001D01*
D35*
G36*
X124559855Y-89152645D02*
G01*
X124551114Y-89196590D01*
X124551114Y-89652613D01*
X123770090Y-89652613D01*
X123765133Y-89653599D01*
X123695736Y-89653599D01*
X123673673Y-89645851D01*
X123604048Y-89653599D01*
X123580914Y-89653599D01*
X123558881Y-89658625D01*
X123489792Y-89666313D01*
X123469572Y-89678997D01*
X123446277Y-89684311D01*
X123409270Y-89713800D01*
X121690400Y-89713800D01*
X121690400Y-88035400D01*
X123442610Y-88035400D01*
X124559855Y-89152645D01*
X124559855Y-89152645D01*
G37*
X124559855Y-89152645D02*
X124551114Y-89196590D01*
X124551114Y-89652613D01*
X123770090Y-89652613D01*
X123765133Y-89653599D01*
X123695736Y-89653599D01*
X123673673Y-89645851D01*
X123604048Y-89653599D01*
X123580914Y-89653599D01*
X123558881Y-89658625D01*
X123489792Y-89666313D01*
X123469572Y-89678997D01*
X123446277Y-89684311D01*
X123409270Y-89713800D01*
X121690400Y-89713800D01*
X121690400Y-88035400D01*
X123442610Y-88035400D01*
X124559855Y-89152645D01*
G36*
X131649200Y-89739200D02*
G01*
X129787167Y-89739200D01*
X129783215Y-89733285D01*
X129691128Y-89671752D01*
X129594910Y-89652613D01*
X128813886Y-89652613D01*
X128813886Y-89196590D01*
X128800931Y-89131459D01*
X129871590Y-88060800D01*
X131649200Y-88060800D01*
X131649200Y-89739200D01*
X131649200Y-89739200D01*
G37*
X131649200Y-89739200D02*
X129787167Y-89739200D01*
X129783215Y-89733285D01*
X129691128Y-89671752D01*
X129594910Y-89652613D01*
X128813886Y-89652613D01*
X128813886Y-89196590D01*
X128800931Y-89131459D01*
X129871590Y-88060800D01*
X131649200Y-88060800D01*
X131649200Y-89739200D01*
G36*
X131395200Y-84559754D02*
G01*
X129979795Y-84584157D01*
X127737600Y-87947450D01*
X127737600Y-88927614D01*
X127649980Y-88927614D01*
X127783800Y-86541154D01*
X129369605Y-81937914D01*
X131395200Y-81915408D01*
X131395200Y-84559754D01*
X131395200Y-84559754D01*
G37*
X131395200Y-84559754D02*
X129979795Y-84584157D01*
X127737600Y-87947450D01*
X127737600Y-88927614D01*
X127649980Y-88927614D01*
X127783800Y-86541154D01*
X129369605Y-81937914D01*
X131395200Y-81915408D01*
X131395200Y-84559754D01*
G36*
X129210800Y-77493171D02*
G01*
X129210800Y-81157305D01*
X127383176Y-86462490D01*
X127293698Y-88058198D01*
X127276115Y-88146590D01*
X127276115Y-88371760D01*
X127244946Y-88927614D01*
X127088886Y-88927614D01*
X127088886Y-88146590D01*
X127075200Y-88077786D01*
X127075200Y-88000737D01*
X126872000Y-87670537D01*
X126872000Y-77470241D01*
X129210800Y-77493171D01*
X129210800Y-77493171D01*
G37*
X129210800Y-77493171D02*
X129210800Y-81157305D01*
X127383176Y-86462490D01*
X127293698Y-88058198D01*
X127276115Y-88146590D01*
X127276115Y-88371760D01*
X127244946Y-88927614D01*
X127088886Y-88927614D01*
X127088886Y-88146590D01*
X127075200Y-88077786D01*
X127075200Y-88000737D01*
X126872000Y-87670537D01*
X126872000Y-77470241D01*
X129210800Y-77493171D01*
G36*
X126467600Y-87695937D02*
G01*
X126264400Y-88026137D01*
X126264400Y-88927614D01*
X126096126Y-88927614D01*
X126088885Y-88771205D01*
X126088885Y-88146590D01*
X126069746Y-88050373D01*
X126054454Y-88027487D01*
X125982011Y-86462712D01*
X124128800Y-81182333D01*
X124128800Y-77518571D01*
X126467600Y-77495641D01*
X126467600Y-87695937D01*
X126467600Y-87695937D01*
G37*
X126467600Y-87695937D02*
X126264400Y-88026137D01*
X126264400Y-88927614D01*
X126096126Y-88927614D01*
X126088885Y-88771205D01*
X126088885Y-88146590D01*
X126069746Y-88050373D01*
X126054454Y-88027487D01*
X125982011Y-86462712D01*
X124128800Y-81182333D01*
X124128800Y-77518571D01*
X126467600Y-77495641D01*
X126467600Y-87695937D01*
G36*
X123974329Y-81963362D02*
G01*
X125580787Y-86540665D01*
X125691293Y-88927614D01*
X125602000Y-88927614D01*
X125602000Y-87972850D01*
X123359805Y-84609557D01*
X121944400Y-84585154D01*
X121944400Y-81940808D01*
X123974329Y-81963362D01*
X123974329Y-81963362D01*
G37*
X123974329Y-81963362D02*
X125580787Y-86540665D01*
X125691293Y-88927614D01*
X125602000Y-88927614D01*
X125602000Y-87972850D01*
X123359805Y-84609557D01*
X121944400Y-84585154D01*
X121944400Y-81940808D01*
X123974329Y-81963362D01*
G36*
X109278400Y-76798886D02*
G01*
X110399114Y-76798886D01*
X110399114Y-77966410D01*
X110418253Y-78062628D01*
X110479785Y-78154715D01*
X110571872Y-78216247D01*
X110668090Y-78235386D01*
X110819910Y-78235386D01*
X110916128Y-78216247D01*
X111008215Y-78154715D01*
X111069747Y-78062628D01*
X111088886Y-77966410D01*
X111088886Y-76983976D01*
X116751163Y-76983976D01*
X116751163Y-77342000D01*
X117702500Y-77342000D01*
X117702500Y-76353163D01*
X117376412Y-76353163D01*
X117075489Y-76433795D01*
X116899835Y-76581185D01*
X116788044Y-76774814D01*
X116751163Y-76983976D01*
X111088886Y-76983976D01*
X111088886Y-76798886D01*
X112256410Y-76798886D01*
X112352628Y-76779747D01*
X112444715Y-76718215D01*
X112506247Y-76626128D01*
X112525386Y-76529910D01*
X112525386Y-76378090D01*
X112506247Y-76281872D01*
X112444715Y-76189785D01*
X112352628Y-76128253D01*
X112256410Y-76109114D01*
X111088886Y-76109114D01*
X111088886Y-74941590D01*
X111076317Y-74878400D01*
X143431683Y-74878400D01*
X143419114Y-74941590D01*
X143419114Y-76109114D01*
X142251590Y-76109114D01*
X142155372Y-76128253D01*
X142063285Y-76189785D01*
X142001753Y-76281872D01*
X141982614Y-76378090D01*
X141982614Y-76529910D01*
X142001753Y-76626128D01*
X142063285Y-76718215D01*
X142155372Y-76779747D01*
X142251590Y-76798886D01*
X143419114Y-76798886D01*
X143419114Y-77966410D01*
X143438253Y-78062628D01*
X143499785Y-78154715D01*
X143591872Y-78216247D01*
X143688090Y-78235386D01*
X143839910Y-78235386D01*
X143936128Y-78216247D01*
X144028215Y-78154715D01*
X144089747Y-78062628D01*
X144108886Y-77966410D01*
X144108886Y-76798886D01*
X145276410Y-76798886D01*
X145372628Y-76779747D01*
X145421601Y-76747024D01*
X145421601Y-84964000D01*
X141836602Y-84964000D01*
X141691186Y-84880044D01*
X141482024Y-84843163D01*
X140974000Y-84843163D01*
X140974000Y-84964000D01*
X140718000Y-84964000D01*
X140718000Y-84843163D01*
X140204412Y-84843163D01*
X139903489Y-84923795D01*
X139855575Y-84964000D01*
X135457214Y-84964000D01*
X135457215Y-84819412D01*
X135423765Y-84694577D01*
X135320238Y-84591050D01*
X135223245Y-84565060D01*
X135255224Y-84342641D01*
X135255224Y-83389200D01*
X132726776Y-83389200D01*
X132726776Y-84347175D01*
X132772551Y-84557600D01*
X132045397Y-84557600D01*
X132058844Y-84537475D01*
X132097386Y-84343713D01*
X132097386Y-82179759D01*
X132726776Y-82179759D01*
X132726776Y-83133200D01*
X133863000Y-83133200D01*
X133863000Y-81296976D01*
X134119000Y-81296976D01*
X134119000Y-83133200D01*
X135255224Y-83133200D01*
X135255224Y-82175225D01*
X135178309Y-81821651D01*
X135038382Y-81603921D01*
X134846270Y-81437455D01*
X134615041Y-81331857D01*
X134372441Y-81296976D01*
X134119000Y-81296976D01*
X133863000Y-81296976D01*
X133605025Y-81296976D01*
X133251451Y-81373891D01*
X133033721Y-81513818D01*
X132867255Y-81705930D01*
X132761657Y-81937159D01*
X132726776Y-82179759D01*
X132097386Y-82179759D01*
X132097386Y-82178687D01*
X132058844Y-81984925D01*
X131942058Y-81810142D01*
X131780792Y-81702387D01*
X131764834Y-81644127D01*
X131659892Y-81541493D01*
X131534694Y-81509432D01*
X129509465Y-81531935D01*
X129603430Y-81259175D01*
X129615200Y-81188875D01*
X129615200Y-79400087D01*
X129668728Y-79455517D01*
X129856720Y-79586175D01*
X130066510Y-79677830D01*
X130290108Y-79726991D01*
X130518995Y-79731785D01*
X130744454Y-79692030D01*
X130957898Y-79609241D01*
X131088434Y-79526400D01*
X133122563Y-79526400D01*
X133132753Y-79577628D01*
X133194285Y-79669715D01*
X133286372Y-79731247D01*
X133382590Y-79750386D01*
X134282410Y-79750386D01*
X134378628Y-79731247D01*
X134391655Y-79722543D01*
X134408795Y-79786512D01*
X134556185Y-79962165D01*
X134749814Y-80073956D01*
X134958976Y-80110837D01*
X135279500Y-80110837D01*
X135279500Y-79122000D01*
X135535500Y-79122000D01*
X135535500Y-80110837D01*
X135861588Y-80110837D01*
X136162512Y-80030205D01*
X136338165Y-79882815D01*
X136449956Y-79689186D01*
X136486837Y-79480024D01*
X136486837Y-79122000D01*
X135535500Y-79122000D01*
X135279500Y-79122000D01*
X135279500Y-78866000D01*
X136486837Y-78866000D01*
X136486837Y-78502412D01*
X136413430Y-78228451D01*
X136449956Y-78165186D01*
X136486837Y-77956024D01*
X136486837Y-77598000D01*
X135279500Y-77598000D01*
X135279500Y-76353163D01*
X135535500Y-76353163D01*
X135535500Y-77342000D01*
X136486837Y-77342000D01*
X136486837Y-76978412D01*
X136406205Y-76677489D01*
X136258815Y-76501835D01*
X136065186Y-76390044D01*
X135856024Y-76353163D01*
X135535500Y-76353163D01*
X135279500Y-76353163D01*
X134953412Y-76353163D01*
X134652489Y-76433795D01*
X134476835Y-76581185D01*
X134386349Y-76737912D01*
X134378628Y-76732753D01*
X134282410Y-76713614D01*
X133382590Y-76713614D01*
X133286373Y-76732753D01*
X133283910Y-76734399D01*
X129236827Y-76734399D01*
X129184400Y-76723971D01*
X129131973Y-76734399D01*
X129131968Y-76734399D01*
X128976669Y-76765290D01*
X128878669Y-76830772D01*
X128855331Y-76846366D01*
X128800563Y-76882961D01*
X128770859Y-76927415D01*
X128615361Y-77082913D01*
X126731827Y-77064447D01*
X126621435Y-77093449D01*
X126607459Y-77089850D01*
X124648778Y-77109053D01*
X124467140Y-76927415D01*
X124437437Y-76882961D01*
X124261331Y-76765290D01*
X124106032Y-76734399D01*
X124106026Y-76734399D01*
X124053599Y-76723971D01*
X124001172Y-76734399D01*
X120606629Y-76734399D01*
X120554201Y-76723971D01*
X120501773Y-76734399D01*
X120501768Y-76734399D01*
X120397807Y-76755078D01*
X120346469Y-76765289D01*
X120225130Y-76846366D01*
X120170363Y-76882961D01*
X120140659Y-76927415D01*
X120130474Y-76937600D01*
X120115437Y-76937600D01*
X120105247Y-76886372D01*
X120043715Y-76794285D01*
X119951628Y-76732753D01*
X119855410Y-76713614D01*
X118955590Y-76713614D01*
X118859372Y-76732753D01*
X118846345Y-76741457D01*
X118829205Y-76677489D01*
X118681815Y-76501835D01*
X118488186Y-76390044D01*
X118279024Y-76353163D01*
X117958500Y-76353163D01*
X117958500Y-77598000D01*
X116751163Y-77598000D01*
X116751163Y-77961588D01*
X116831795Y-78262512D01*
X116846624Y-78280184D01*
X116762544Y-78425814D01*
X116725663Y-78634976D01*
X116725663Y-78993000D01*
X117933000Y-78993000D01*
X117933000Y-80237837D01*
X118259088Y-80237837D01*
X118560012Y-80157205D01*
X118735665Y-80009815D01*
X118826151Y-79853088D01*
X118833872Y-79858247D01*
X118930090Y-79877386D01*
X119829910Y-79877386D01*
X119926128Y-79858247D01*
X120018215Y-79796715D01*
X120079747Y-79704628D01*
X120089937Y-79653400D01*
X121721507Y-79653400D01*
X121811372Y-79713447D01*
X121907590Y-79732586D01*
X123710410Y-79732586D01*
X123724400Y-79729803D01*
X123724400Y-81214457D01*
X123736579Y-81285939D01*
X123831836Y-81557355D01*
X121804549Y-81534829D01*
X121677243Y-81568184D01*
X121573449Y-81671978D01*
X121565824Y-81700436D01*
X121473725Y-81718756D01*
X121298942Y-81835542D01*
X121182156Y-82010325D01*
X121143614Y-82204087D01*
X121143614Y-84369113D01*
X121181107Y-84557600D01*
X120486969Y-84557600D01*
X120514224Y-84368041D01*
X120514224Y-83414600D01*
X117985776Y-83414600D01*
X117985776Y-84372575D01*
X118029736Y-84574658D01*
X117968562Y-84591050D01*
X117865035Y-84694577D01*
X117831585Y-84819412D01*
X117831586Y-84964000D01*
X114398602Y-84964000D01*
X114253186Y-84880044D01*
X114044024Y-84843163D01*
X113536000Y-84843163D01*
X113536000Y-84964000D01*
X113280000Y-84964000D01*
X113280000Y-84843163D01*
X112766412Y-84843163D01*
X112465489Y-84923795D01*
X112417575Y-84964000D01*
X109278400Y-84964000D01*
X109278400Y-82205159D01*
X117985776Y-82205159D01*
X117985776Y-83158600D01*
X119122000Y-83158600D01*
X119122000Y-81322376D01*
X119378000Y-81322376D01*
X119378000Y-83158600D01*
X120514224Y-83158600D01*
X120514224Y-82200625D01*
X120437309Y-81847051D01*
X120297382Y-81629321D01*
X120105270Y-81462855D01*
X119874041Y-81357257D01*
X119631441Y-81322376D01*
X119378000Y-81322376D01*
X119122000Y-81322376D01*
X118864025Y-81322376D01*
X118510451Y-81399291D01*
X118292721Y-81539218D01*
X118126255Y-81731330D01*
X118020657Y-81962559D01*
X117985776Y-82205159D01*
X109278400Y-82205159D01*
X109278400Y-79249000D01*
X116725663Y-79249000D01*
X116725663Y-79612588D01*
X116806295Y-79913512D01*
X116953685Y-80089165D01*
X117147314Y-80200956D01*
X117356476Y-80237837D01*
X117677000Y-80237837D01*
X117677000Y-79249000D01*
X116725663Y-79249000D01*
X109278400Y-79249000D01*
X109278400Y-76798886D01*
X109278400Y-76798886D01*
G37*
X109278400Y-76798886D02*
X110399114Y-76798886D01*
X110399114Y-77966410D01*
X110418253Y-78062628D01*
X110479785Y-78154715D01*
X110571872Y-78216247D01*
X110668090Y-78235386D01*
X110819910Y-78235386D01*
X110916128Y-78216247D01*
X111008215Y-78154715D01*
X111069747Y-78062628D01*
X111088886Y-77966410D01*
X111088886Y-76983976D01*
X116751163Y-76983976D01*
X116751163Y-77342000D01*
X117702500Y-77342000D01*
X117702500Y-76353163D01*
X117376412Y-76353163D01*
X117075489Y-76433795D01*
X116899835Y-76581185D01*
X116788044Y-76774814D01*
X116751163Y-76983976D01*
X111088886Y-76983976D01*
X111088886Y-76798886D01*
X112256410Y-76798886D01*
X112352628Y-76779747D01*
X112444715Y-76718215D01*
X112506247Y-76626128D01*
X112525386Y-76529910D01*
X112525386Y-76378090D01*
X112506247Y-76281872D01*
X112444715Y-76189785D01*
X112352628Y-76128253D01*
X112256410Y-76109114D01*
X111088886Y-76109114D01*
X111088886Y-74941590D01*
X111076317Y-74878400D01*
X143431683Y-74878400D01*
X143419114Y-74941590D01*
X143419114Y-76109114D01*
X142251590Y-76109114D01*
X142155372Y-76128253D01*
X142063285Y-76189785D01*
X142001753Y-76281872D01*
X141982614Y-76378090D01*
X141982614Y-76529910D01*
X142001753Y-76626128D01*
X142063285Y-76718215D01*
X142155372Y-76779747D01*
X142251590Y-76798886D01*
X143419114Y-76798886D01*
X143419114Y-77966410D01*
X143438253Y-78062628D01*
X143499785Y-78154715D01*
X143591872Y-78216247D01*
X143688090Y-78235386D01*
X143839910Y-78235386D01*
X143936128Y-78216247D01*
X144028215Y-78154715D01*
X144089747Y-78062628D01*
X144108886Y-77966410D01*
X144108886Y-76798886D01*
X145276410Y-76798886D01*
X145372628Y-76779747D01*
X145421601Y-76747024D01*
X145421601Y-84964000D01*
X141836602Y-84964000D01*
X141691186Y-84880044D01*
X141482024Y-84843163D01*
X140974000Y-84843163D01*
X140974000Y-84964000D01*
X140718000Y-84964000D01*
X140718000Y-84843163D01*
X140204412Y-84843163D01*
X139903489Y-84923795D01*
X139855575Y-84964000D01*
X135457214Y-84964000D01*
X135457215Y-84819412D01*
X135423765Y-84694577D01*
X135320238Y-84591050D01*
X135223245Y-84565060D01*
X135255224Y-84342641D01*
X135255224Y-83389200D01*
X132726776Y-83389200D01*
X132726776Y-84347175D01*
X132772551Y-84557600D01*
X132045397Y-84557600D01*
X132058844Y-84537475D01*
X132097386Y-84343713D01*
X132097386Y-82179759D01*
X132726776Y-82179759D01*
X132726776Y-83133200D01*
X133863000Y-83133200D01*
X133863000Y-81296976D01*
X134119000Y-81296976D01*
X134119000Y-83133200D01*
X135255224Y-83133200D01*
X135255224Y-82175225D01*
X135178309Y-81821651D01*
X135038382Y-81603921D01*
X134846270Y-81437455D01*
X134615041Y-81331857D01*
X134372441Y-81296976D01*
X134119000Y-81296976D01*
X133863000Y-81296976D01*
X133605025Y-81296976D01*
X133251451Y-81373891D01*
X133033721Y-81513818D01*
X132867255Y-81705930D01*
X132761657Y-81937159D01*
X132726776Y-82179759D01*
X132097386Y-82179759D01*
X132097386Y-82178687D01*
X132058844Y-81984925D01*
X131942058Y-81810142D01*
X131780792Y-81702387D01*
X131764834Y-81644127D01*
X131659892Y-81541493D01*
X131534694Y-81509432D01*
X129509465Y-81531935D01*
X129603430Y-81259175D01*
X129615200Y-81188875D01*
X129615200Y-79400087D01*
X129668728Y-79455517D01*
X129856720Y-79586175D01*
X130066510Y-79677830D01*
X130290108Y-79726991D01*
X130518995Y-79731785D01*
X130744454Y-79692030D01*
X130957898Y-79609241D01*
X131088434Y-79526400D01*
X133122563Y-79526400D01*
X133132753Y-79577628D01*
X133194285Y-79669715D01*
X133286372Y-79731247D01*
X133382590Y-79750386D01*
X134282410Y-79750386D01*
X134378628Y-79731247D01*
X134391655Y-79722543D01*
X134408795Y-79786512D01*
X134556185Y-79962165D01*
X134749814Y-80073956D01*
X134958976Y-80110837D01*
X135279500Y-80110837D01*
X135279500Y-79122000D01*
X135535500Y-79122000D01*
X135535500Y-80110837D01*
X135861588Y-80110837D01*
X136162512Y-80030205D01*
X136338165Y-79882815D01*
X136449956Y-79689186D01*
X136486837Y-79480024D01*
X136486837Y-79122000D01*
X135535500Y-79122000D01*
X135279500Y-79122000D01*
X135279500Y-78866000D01*
X136486837Y-78866000D01*
X136486837Y-78502412D01*
X136413430Y-78228451D01*
X136449956Y-78165186D01*
X136486837Y-77956024D01*
X136486837Y-77598000D01*
X135279500Y-77598000D01*
X135279500Y-76353163D01*
X135535500Y-76353163D01*
X135535500Y-77342000D01*
X136486837Y-77342000D01*
X136486837Y-76978412D01*
X136406205Y-76677489D01*
X136258815Y-76501835D01*
X136065186Y-76390044D01*
X135856024Y-76353163D01*
X135535500Y-76353163D01*
X135279500Y-76353163D01*
X134953412Y-76353163D01*
X134652489Y-76433795D01*
X134476835Y-76581185D01*
X134386349Y-76737912D01*
X134378628Y-76732753D01*
X134282410Y-76713614D01*
X133382590Y-76713614D01*
X133286373Y-76732753D01*
X133283910Y-76734399D01*
X129236827Y-76734399D01*
X129184400Y-76723971D01*
X129131973Y-76734399D01*
X129131968Y-76734399D01*
X128976669Y-76765290D01*
X128878669Y-76830772D01*
X128855331Y-76846366D01*
X128800563Y-76882961D01*
X128770859Y-76927415D01*
X128615361Y-77082913D01*
X126731827Y-77064447D01*
X126621435Y-77093449D01*
X126607459Y-77089850D01*
X124648778Y-77109053D01*
X124467140Y-76927415D01*
X124437437Y-76882961D01*
X124261331Y-76765290D01*
X124106032Y-76734399D01*
X124106026Y-76734399D01*
X124053599Y-76723971D01*
X124001172Y-76734399D01*
X120606629Y-76734399D01*
X120554201Y-76723971D01*
X120501773Y-76734399D01*
X120501768Y-76734399D01*
X120397807Y-76755078D01*
X120346469Y-76765289D01*
X120225130Y-76846366D01*
X120170363Y-76882961D01*
X120140659Y-76927415D01*
X120130474Y-76937600D01*
X120115437Y-76937600D01*
X120105247Y-76886372D01*
X120043715Y-76794285D01*
X119951628Y-76732753D01*
X119855410Y-76713614D01*
X118955590Y-76713614D01*
X118859372Y-76732753D01*
X118846345Y-76741457D01*
X118829205Y-76677489D01*
X118681815Y-76501835D01*
X118488186Y-76390044D01*
X118279024Y-76353163D01*
X117958500Y-76353163D01*
X117958500Y-77598000D01*
X116751163Y-77598000D01*
X116751163Y-77961588D01*
X116831795Y-78262512D01*
X116846624Y-78280184D01*
X116762544Y-78425814D01*
X116725663Y-78634976D01*
X116725663Y-78993000D01*
X117933000Y-78993000D01*
X117933000Y-80237837D01*
X118259088Y-80237837D01*
X118560012Y-80157205D01*
X118735665Y-80009815D01*
X118826151Y-79853088D01*
X118833872Y-79858247D01*
X118930090Y-79877386D01*
X119829910Y-79877386D01*
X119926128Y-79858247D01*
X120018215Y-79796715D01*
X120079747Y-79704628D01*
X120089937Y-79653400D01*
X121721507Y-79653400D01*
X121811372Y-79713447D01*
X121907590Y-79732586D01*
X123710410Y-79732586D01*
X123724400Y-79729803D01*
X123724400Y-81214457D01*
X123736579Y-81285939D01*
X123831836Y-81557355D01*
X121804549Y-81534829D01*
X121677243Y-81568184D01*
X121573449Y-81671978D01*
X121565824Y-81700436D01*
X121473725Y-81718756D01*
X121298942Y-81835542D01*
X121182156Y-82010325D01*
X121143614Y-82204087D01*
X121143614Y-84369113D01*
X121181107Y-84557600D01*
X120486969Y-84557600D01*
X120514224Y-84368041D01*
X120514224Y-83414600D01*
X117985776Y-83414600D01*
X117985776Y-84372575D01*
X118029736Y-84574658D01*
X117968562Y-84591050D01*
X117865035Y-84694577D01*
X117831585Y-84819412D01*
X117831586Y-84964000D01*
X114398602Y-84964000D01*
X114253186Y-84880044D01*
X114044024Y-84843163D01*
X113536000Y-84843163D01*
X113536000Y-84964000D01*
X113280000Y-84964000D01*
X113280000Y-84843163D01*
X112766412Y-84843163D01*
X112465489Y-84923795D01*
X112417575Y-84964000D01*
X109278400Y-84964000D01*
X109278400Y-82205159D01*
X117985776Y-82205159D01*
X117985776Y-83158600D01*
X119122000Y-83158600D01*
X119122000Y-81322376D01*
X119378000Y-81322376D01*
X119378000Y-83158600D01*
X120514224Y-83158600D01*
X120514224Y-82200625D01*
X120437309Y-81847051D01*
X120297382Y-81629321D01*
X120105270Y-81462855D01*
X119874041Y-81357257D01*
X119631441Y-81322376D01*
X119378000Y-81322376D01*
X119122000Y-81322376D01*
X118864025Y-81322376D01*
X118510451Y-81399291D01*
X118292721Y-81539218D01*
X118126255Y-81731330D01*
X118020657Y-81962559D01*
X117985776Y-82205159D01*
X109278400Y-82205159D01*
X109278400Y-79249000D01*
X116725663Y-79249000D01*
X116725663Y-79612588D01*
X116806295Y-79913512D01*
X116953685Y-80089165D01*
X117147314Y-80200956D01*
X117356476Y-80237837D01*
X117677000Y-80237837D01*
X117677000Y-79249000D01*
X116725663Y-79249000D01*
X109278400Y-79249000D01*
X109278400Y-76798886D01*
G36*
X112328800Y-86427895D02*
G01*
X112354398Y-86630518D01*
X112449819Y-86871524D01*
X112449819Y-87247410D01*
X112472901Y-87363448D01*
X112545660Y-87472340D01*
X112654552Y-87545099D01*
X112770590Y-87568181D01*
X114045410Y-87568181D01*
X114161448Y-87545099D01*
X114270340Y-87472340D01*
X114343099Y-87363448D01*
X114366181Y-87247410D01*
X114366181Y-86857225D01*
X114421336Y-86756898D01*
X114472630Y-86488000D01*
X114941163Y-86488000D01*
X114941163Y-87251588D01*
X115021795Y-87552512D01*
X115169185Y-87728165D01*
X115362814Y-87839956D01*
X115571976Y-87876837D01*
X116080000Y-87876837D01*
X116080000Y-86488000D01*
X116336000Y-86488000D01*
X116336000Y-87876837D01*
X116849588Y-87876837D01*
X117150512Y-87796205D01*
X117326165Y-87648815D01*
X117437956Y-87455186D01*
X117474837Y-87246024D01*
X117474837Y-86488000D01*
X116336000Y-86488000D01*
X116080000Y-86488000D01*
X114941163Y-86488000D01*
X114472630Y-86488000D01*
X114487200Y-86411626D01*
X114487200Y-85419200D01*
X114950821Y-85419200D01*
X114941163Y-85473976D01*
X114941163Y-86232000D01*
X117474837Y-86232000D01*
X117474837Y-85468412D01*
X117461651Y-85419200D01*
X117983986Y-85419200D01*
X117984000Y-90676804D01*
X118277166Y-90677260D01*
X118283519Y-90684831D01*
X118475682Y-90795775D01*
X118694200Y-90834306D01*
X118912718Y-90795775D01*
X118939319Y-90780417D01*
X118939319Y-91673410D01*
X118962401Y-91789448D01*
X118973757Y-91806444D01*
X118804835Y-91948185D01*
X118693044Y-92141814D01*
X118656163Y-92350976D01*
X118656163Y-92709000D01*
X119863500Y-92709000D01*
X119863500Y-93953837D01*
X120189588Y-93953837D01*
X120490512Y-93873205D01*
X120666165Y-93725815D01*
X120731197Y-93613176D01*
X120744552Y-93622099D01*
X120860590Y-93645181D01*
X121760410Y-93645181D01*
X121876448Y-93622099D01*
X121985340Y-93549340D01*
X122058099Y-93440448D01*
X122081181Y-93324410D01*
X122081181Y-93293200D01*
X122864667Y-93293200D01*
X122956506Y-93298013D01*
X122995608Y-93278090D01*
X123066277Y-93263069D01*
X123223174Y-93149076D01*
X123241628Y-93117114D01*
X123501998Y-92856743D01*
X123545160Y-92921340D01*
X123654052Y-92994099D01*
X123770090Y-93017181D01*
X124518370Y-93017181D01*
X124522401Y-93037448D01*
X124547981Y-93075732D01*
X124522804Y-93094024D01*
X124504352Y-93125983D01*
X123061518Y-94568819D01*
X122486090Y-94568819D01*
X122370052Y-94591901D01*
X122261160Y-94664660D01*
X122188401Y-94773552D01*
X122165319Y-94889590D01*
X122165319Y-95864410D01*
X122188401Y-95980448D01*
X122261160Y-96089340D01*
X122370052Y-96162099D01*
X122486090Y-96185181D01*
X123385910Y-96185181D01*
X123501948Y-96162099D01*
X123610840Y-96089340D01*
X123683599Y-95980448D01*
X123706681Y-95864410D01*
X123706681Y-95213981D01*
X124781773Y-94138890D01*
X124820160Y-94196340D01*
X124929052Y-94269099D01*
X125045090Y-94292181D01*
X125277099Y-94292181D01*
X125277100Y-97823563D01*
X125136499Y-97904738D01*
X124993871Y-98074716D01*
X124917981Y-98283224D01*
X124917981Y-98505114D01*
X124993871Y-98713622D01*
X125136499Y-98883600D01*
X125328662Y-98994544D01*
X125547180Y-99033075D01*
X125765698Y-98994544D01*
X125957861Y-98883600D01*
X126100489Y-98713622D01*
X126176379Y-98505114D01*
X126176379Y-98283224D01*
X126100488Y-98074716D01*
X126087899Y-98059713D01*
X126087899Y-97836874D01*
X126296740Y-97873699D01*
X126419942Y-97851975D01*
X126419942Y-97998250D01*
X126383191Y-98042047D01*
X126307301Y-98250555D01*
X126307301Y-98472445D01*
X126383191Y-98680953D01*
X126525819Y-98850931D01*
X126717982Y-98961875D01*
X126777201Y-98972317D01*
X126777201Y-99094745D01*
X126853091Y-99303253D01*
X126995719Y-99473231D01*
X127187882Y-99584175D01*
X127406400Y-99622706D01*
X127624918Y-99584175D01*
X127735132Y-99520544D01*
X127883143Y-99637227D01*
X128153873Y-99706738D01*
X129609039Y-99706738D01*
X129673363Y-99723253D01*
X129677104Y-99723253D01*
X129689831Y-99727059D01*
X129786705Y-99723253D01*
X129827246Y-99723253D01*
X129839773Y-99721168D01*
X129907450Y-99718508D01*
X129946487Y-99703406D01*
X129987790Y-99696531D01*
X130047412Y-99664361D01*
X130110570Y-99639927D01*
X130142609Y-99612995D01*
X130179458Y-99593112D01*
X130225442Y-99543367D01*
X130277283Y-99499790D01*
X130298874Y-99463927D01*
X130327292Y-99433185D01*
X130354679Y-99371239D01*
X130389617Y-99313206D01*
X130398429Y-99272276D01*
X130415354Y-99233993D01*
X130421199Y-99166514D01*
X130435455Y-99100295D01*
X130430534Y-99058726D01*
X130434147Y-99017017D01*
X130417818Y-98951282D01*
X130409194Y-98878419D01*
X130392857Y-98850792D01*
X130381643Y-98805649D01*
X130263505Y-98622686D01*
X130251588Y-98613291D01*
X130246992Y-98606173D01*
X130191524Y-98562445D01*
X130180638Y-98551559D01*
X130149379Y-98529221D01*
X130071529Y-98467848D01*
X130058992Y-98464629D01*
X130048223Y-98456934D01*
X129839564Y-98394532D01*
X129742690Y-98398338D01*
X128549147Y-98398338D01*
X128556909Y-98388632D01*
X128562238Y-98365364D01*
X128574951Y-98345137D01*
X128582829Y-98275456D01*
X128587900Y-98253316D01*
X128587900Y-98230606D01*
X128595730Y-98161350D01*
X128587900Y-98138928D01*
X128587900Y-94131896D01*
X128617599Y-94087448D01*
X128640681Y-93971410D01*
X128640681Y-93223130D01*
X128660948Y-93219099D01*
X128769840Y-93146340D01*
X128842599Y-93037448D01*
X128846630Y-93017181D01*
X129594910Y-93017181D01*
X129604869Y-93015200D01*
X130609037Y-93015200D01*
X131029819Y-93435983D01*
X131029819Y-94086410D01*
X131052901Y-94202448D01*
X131125660Y-94311340D01*
X131146300Y-94325131D01*
X131146301Y-99066304D01*
X131138000Y-99104856D01*
X131146301Y-99174992D01*
X131146301Y-99190391D01*
X131152609Y-99228287D01*
X131164261Y-99326734D01*
X131170849Y-99337874D01*
X131173023Y-99350935D01*
X131276442Y-99542603D01*
X131347650Y-99608427D01*
X131427201Y-99687979D01*
X131559616Y-99782604D01*
X131768275Y-99845006D01*
X131985895Y-99836454D01*
X132189013Y-99757875D01*
X132355728Y-99617736D01*
X132468060Y-99431153D01*
X132513900Y-99218242D01*
X132487639Y-98996365D01*
X132454700Y-98940669D01*
X132454700Y-94325131D01*
X132475340Y-94311340D01*
X132548099Y-94202448D01*
X132571181Y-94086410D01*
X132571181Y-93111590D01*
X132604819Y-93111590D01*
X132604819Y-94086410D01*
X132627901Y-94202448D01*
X132700660Y-94311340D01*
X132809552Y-94384099D01*
X132925590Y-94407181D01*
X133825410Y-94407181D01*
X133941448Y-94384099D01*
X134050340Y-94311340D01*
X134123099Y-94202448D01*
X134127127Y-94182200D01*
X134244734Y-94182200D01*
X134274482Y-94199375D01*
X134493000Y-94237906D01*
X134711518Y-94199375D01*
X134903681Y-94088431D01*
X135046309Y-93918453D01*
X135122199Y-93709945D01*
X135122199Y-93488055D01*
X135046309Y-93279547D01*
X134903681Y-93109569D01*
X134711518Y-92998625D01*
X134493000Y-92960094D01*
X134274482Y-92998625D01*
X134244734Y-93015800D01*
X134127127Y-93015800D01*
X134123099Y-92995552D01*
X134050340Y-92886660D01*
X133941448Y-92813901D01*
X133825410Y-92790819D01*
X132925590Y-92790819D01*
X132809552Y-92813901D01*
X132700660Y-92886660D01*
X132627901Y-92995552D01*
X132604819Y-93111590D01*
X132571181Y-93111590D01*
X132548099Y-92995552D01*
X132475340Y-92886660D01*
X132366448Y-92813901D01*
X132250410Y-92790819D01*
X131674983Y-92790819D01*
X131348564Y-92464401D01*
X134696390Y-92464401D01*
X135130321Y-92898333D01*
X135165511Y-92933523D01*
X135165511Y-93100345D01*
X135241401Y-93308853D01*
X135384029Y-93478831D01*
X135576192Y-93589775D01*
X135794710Y-93628306D01*
X136013228Y-93589775D01*
X136205391Y-93478831D01*
X136348019Y-93308853D01*
X136423909Y-93100345D01*
X136423909Y-92878455D01*
X136348019Y-92669947D01*
X136205391Y-92499969D01*
X136013228Y-92389025D01*
X135794710Y-92350494D01*
X135738955Y-92360325D01*
X135714528Y-92335898D01*
X135714524Y-92335891D01*
X135209692Y-91831061D01*
X135259281Y-91802431D01*
X135401909Y-91632453D01*
X135477799Y-91423945D01*
X135477799Y-91202055D01*
X135401909Y-90993547D01*
X135259281Y-90823569D01*
X135067118Y-90712625D01*
X135009130Y-90702400D01*
X135304800Y-90702400D01*
X135304811Y-86488000D01*
X136779163Y-86488000D01*
X136779163Y-87251588D01*
X136859795Y-87552512D01*
X137007185Y-87728165D01*
X137200814Y-87839956D01*
X137409976Y-87876837D01*
X137918000Y-87876837D01*
X137918000Y-86488000D01*
X138174000Y-86488000D01*
X138174000Y-87876837D01*
X138687588Y-87876837D01*
X138988512Y-87796205D01*
X139164165Y-87648815D01*
X139275956Y-87455186D01*
X139312837Y-87246024D01*
X139312837Y-86488000D01*
X138174000Y-86488000D01*
X137918000Y-86488000D01*
X136779163Y-86488000D01*
X135304811Y-86488000D01*
X135304814Y-85419200D01*
X136788821Y-85419200D01*
X136779163Y-85473976D01*
X136779163Y-86232000D01*
X139312837Y-86232000D01*
X139312837Y-85468412D01*
X139299651Y-85419200D01*
X139766801Y-85419200D01*
X139766800Y-86427895D01*
X139792398Y-86630518D01*
X139887819Y-86871524D01*
X139887819Y-87247410D01*
X139910901Y-87363448D01*
X139983660Y-87472340D01*
X140092552Y-87545099D01*
X140208590Y-87568181D01*
X141483410Y-87568181D01*
X141599448Y-87545099D01*
X141708340Y-87472340D01*
X141781099Y-87363448D01*
X141804181Y-87247410D01*
X141804181Y-86857225D01*
X141859336Y-86756898D01*
X141925200Y-86411626D01*
X141925200Y-85419200D01*
X145370801Y-85419200D01*
X145370800Y-105622095D01*
X145276410Y-105603319D01*
X144160681Y-105603319D01*
X144160681Y-104487590D01*
X144137599Y-104371552D01*
X144064840Y-104262660D01*
X143955948Y-104189901D01*
X143839910Y-104166819D01*
X143688090Y-104166819D01*
X143572052Y-104189901D01*
X143463160Y-104262660D01*
X143390401Y-104371552D01*
X143367319Y-104487590D01*
X143367319Y-105603319D01*
X142251590Y-105603319D01*
X142135552Y-105626401D01*
X142026660Y-105699160D01*
X141953901Y-105808052D01*
X141930819Y-105924090D01*
X141930819Y-106046000D01*
X139612931Y-106046000D01*
X139577577Y-106015698D01*
X139560286Y-106006600D01*
X139545754Y-105993539D01*
X139532944Y-105986408D01*
X139343666Y-105881490D01*
X139324900Y-105876056D01*
X139307790Y-105866038D01*
X139293734Y-105861676D01*
X139087545Y-105797060D01*
X139068073Y-105795510D01*
X139049502Y-105789206D01*
X139034913Y-105787715D01*
X138819680Y-105765852D01*
X138779673Y-105770800D01*
X138324656Y-105770800D01*
X138288951Y-105765432D01*
X138274342Y-105766559D01*
X138107209Y-105779420D01*
X138092459Y-105784000D01*
X138076854Y-105784449D01*
X138062614Y-105788171D01*
X137853399Y-105842667D01*
X137836060Y-105851674D01*
X137817073Y-105856145D01*
X137803902Y-105862590D01*
X137609698Y-105958151D01*
X137594529Y-105970457D01*
X137576650Y-105978737D01*
X137565027Y-105987767D01*
X137489953Y-106046000D01*
X132034224Y-106046000D01*
X132027487Y-106016467D01*
X131998416Y-105979985D01*
X131978226Y-105937938D01*
X131941517Y-105908581D01*
X131912224Y-105871819D01*
X131880768Y-105856647D01*
X131501802Y-105477681D01*
X131491679Y-105456599D01*
X131436953Y-105412833D01*
X131420609Y-105396488D01*
X131401483Y-105384467D01*
X131347188Y-105341046D01*
X131323915Y-105335715D01*
X131303686Y-105323002D01*
X131275887Y-105319859D01*
X131343527Y-105134017D01*
X131343527Y-104912127D01*
X131288339Y-104760498D01*
X131309979Y-104768097D01*
X131379603Y-104760349D01*
X131402738Y-104760349D01*
X131424771Y-104755323D01*
X131493859Y-104747635D01*
X131514079Y-104734950D01*
X131537374Y-104729637D01*
X131592231Y-104685925D01*
X131611457Y-104673864D01*
X131627501Y-104657819D01*
X131646532Y-104642654D01*
X131699000Y-104651906D01*
X131917518Y-104613375D01*
X132109681Y-104502431D01*
X132252309Y-104332453D01*
X132328199Y-104123945D01*
X132328199Y-103902055D01*
X132252309Y-103693547D01*
X132109681Y-103523569D01*
X131917518Y-103412625D01*
X131699000Y-103374094D01*
X131480482Y-103412625D01*
X131453806Y-103428027D01*
X131439509Y-103388747D01*
X131296881Y-103218769D01*
X131104718Y-103107825D01*
X130886200Y-103069294D01*
X130667682Y-103107825D01*
X130475520Y-103218769D01*
X130405009Y-103302800D01*
X126687375Y-103302800D01*
X126665312Y-103295052D01*
X126595687Y-103302800D01*
X126572553Y-103302800D01*
X126550520Y-103307826D01*
X126481431Y-103315514D01*
X126461211Y-103328198D01*
X126437916Y-103333512D01*
X126383066Y-103377220D01*
X126363833Y-103389285D01*
X126347781Y-103405337D01*
X126293267Y-103448777D01*
X126282948Y-103470170D01*
X125716028Y-104037091D01*
X125694944Y-104047215D01*
X125651184Y-104101936D01*
X125634834Y-104118285D01*
X125625616Y-104132952D01*
X125589244Y-104111953D01*
X125370726Y-104073422D01*
X125274833Y-104090331D01*
X125237023Y-103986448D01*
X125094395Y-103816470D01*
X124902232Y-103705526D01*
X124683714Y-103666995D01*
X124560512Y-103688719D01*
X124560512Y-102309907D01*
X124568812Y-102271355D01*
X124560512Y-102201228D01*
X124560512Y-102185820D01*
X124554199Y-102147894D01*
X124542551Y-102049478D01*
X124535965Y-102038341D01*
X124533791Y-102025278D01*
X124430371Y-101833609D01*
X124359150Y-101767773D01*
X124223799Y-101632421D01*
X124091383Y-101537796D01*
X123882724Y-101475394D01*
X123665104Y-101483945D01*
X123461985Y-101562525D01*
X123295272Y-101702663D01*
X123182940Y-101889247D01*
X123155947Y-102014619D01*
X123082909Y-101813947D01*
X122940281Y-101643969D01*
X122762019Y-101541051D01*
X120826533Y-99605565D01*
X120821497Y-99595264D01*
X120748743Y-99527776D01*
X120719291Y-99498323D01*
X120710460Y-99492265D01*
X120657507Y-99443144D01*
X120625228Y-99433795D01*
X120613560Y-99425792D01*
X120597599Y-99345552D01*
X120524840Y-99236660D01*
X120415948Y-99163901D01*
X120299910Y-99140819D01*
X119688562Y-99140819D01*
X119329673Y-98781931D01*
X119318914Y-98759526D01*
X119260760Y-98713018D01*
X119243392Y-98695650D01*
X119223073Y-98682879D01*
X119165373Y-98636736D01*
X119140646Y-98631073D01*
X119119145Y-98617559D01*
X119045082Y-98609186D01*
X119021569Y-98603800D01*
X118997437Y-98603800D01*
X118923845Y-98595480D01*
X118900020Y-98603800D01*
X115680381Y-98603800D01*
X115680381Y-98547190D01*
X115657299Y-98431152D01*
X115584540Y-98322260D01*
X115475648Y-98249501D01*
X115359610Y-98226419D01*
X114459790Y-98226419D01*
X114343752Y-98249501D01*
X114234860Y-98322260D01*
X114162101Y-98431152D01*
X114139019Y-98547190D01*
X114139019Y-99522010D01*
X114162101Y-99638048D01*
X114234860Y-99746940D01*
X114343752Y-99819699D01*
X114459790Y-99842781D01*
X114481001Y-99842781D01*
X114481000Y-99935019D01*
X114469390Y-99935019D01*
X114353352Y-99958101D01*
X114244460Y-100030860D01*
X114224903Y-100060130D01*
X114199210Y-100055019D01*
X112724390Y-100055019D01*
X112698697Y-100060130D01*
X112679140Y-100030860D01*
X112570248Y-99958101D01*
X112454210Y-99935019D01*
X111749390Y-99935019D01*
X111633352Y-99958101D01*
X111524460Y-100030860D01*
X111516502Y-100042771D01*
X111513251Y-100043512D01*
X111458403Y-100087218D01*
X111439170Y-100099282D01*
X111423111Y-100115341D01*
X111368602Y-100158777D01*
X111358283Y-100180170D01*
X110974316Y-100564137D01*
X110953232Y-100574261D01*
X110909471Y-100628982D01*
X110893121Y-100645331D01*
X110881099Y-100664459D01*
X110868906Y-100679706D01*
X110455419Y-101093194D01*
X110434335Y-101103318D01*
X110390575Y-101158039D01*
X110374225Y-101174388D01*
X110362203Y-101193516D01*
X110318781Y-101247812D01*
X110313452Y-101271082D01*
X110300739Y-101291308D01*
X110292861Y-101360989D01*
X110287790Y-101383129D01*
X110287790Y-101405838D01*
X110279960Y-101475092D01*
X110287790Y-101497516D01*
X110287791Y-103105652D01*
X110280042Y-103127717D01*
X110287791Y-103197351D01*
X110287791Y-103220476D01*
X110292815Y-103242498D01*
X110300504Y-103311598D01*
X110313191Y-103331822D01*
X110318504Y-103355114D01*
X110362210Y-103409964D01*
X110374276Y-103429196D01*
X110390327Y-103445247D01*
X110433768Y-103499763D01*
X110455163Y-103510083D01*
X111193063Y-104247983D01*
X111647141Y-104702062D01*
X111933831Y-104988752D01*
X111943953Y-105009834D01*
X111998671Y-105053594D01*
X112015025Y-105069948D01*
X112034158Y-105081972D01*
X112088446Y-105125389D01*
X112111715Y-105130719D01*
X112131946Y-105143434D01*
X112201627Y-105151311D01*
X112223764Y-105156381D01*
X112246474Y-105156381D01*
X112315732Y-105164211D01*
X112338154Y-105156381D01*
X115775990Y-105156381D01*
X115846501Y-105240412D01*
X116038663Y-105351356D01*
X116257181Y-105389887D01*
X116475699Y-105351356D01*
X116667862Y-105240412D01*
X116810490Y-105070434D01*
X116886380Y-104861926D01*
X116886380Y-104665871D01*
X117415208Y-104665871D01*
X117595029Y-104845694D01*
X117595029Y-104857316D01*
X117505891Y-104963547D01*
X117430001Y-105172055D01*
X117430001Y-105393945D01*
X117438906Y-105418410D01*
X117434282Y-105419225D01*
X117242119Y-105530169D01*
X117099491Y-105700147D01*
X117023601Y-105908655D01*
X117023601Y-106046000D01*
X116812931Y-106046000D01*
X116777577Y-106015698D01*
X116760286Y-106006600D01*
X116745754Y-105993539D01*
X116732944Y-105986408D01*
X116543666Y-105881490D01*
X116524900Y-105876056D01*
X116507790Y-105866038D01*
X116493734Y-105861676D01*
X116287545Y-105797060D01*
X116268073Y-105795510D01*
X116249502Y-105789206D01*
X116234913Y-105787715D01*
X116019680Y-105765852D01*
X115979673Y-105770800D01*
X115224656Y-105770800D01*
X115188951Y-105765432D01*
X115174342Y-105766559D01*
X115007209Y-105779420D01*
X114992459Y-105784000D01*
X114976854Y-105784449D01*
X114962614Y-105788171D01*
X114753399Y-105842667D01*
X114736060Y-105851674D01*
X114717073Y-105856145D01*
X114703902Y-105862590D01*
X114509698Y-105958151D01*
X114494529Y-105970457D01*
X114476650Y-105978737D01*
X114465027Y-105987767D01*
X114389953Y-106046000D01*
X112577181Y-106046000D01*
X112577181Y-105924090D01*
X112554099Y-105808052D01*
X112481340Y-105699160D01*
X112372448Y-105626401D01*
X112256410Y-105603319D01*
X111140681Y-105603319D01*
X111140681Y-104487590D01*
X111117599Y-104371552D01*
X111044840Y-104262660D01*
X110935948Y-104189901D01*
X110819910Y-104166819D01*
X110668090Y-104166819D01*
X110552052Y-104189901D01*
X110443160Y-104262660D01*
X110370401Y-104371552D01*
X110347319Y-104487590D01*
X110347319Y-105603319D01*
X109329200Y-105603319D01*
X109329200Y-98898255D01*
X111867401Y-98898255D01*
X111867401Y-99120145D01*
X111943291Y-99328653D01*
X112085919Y-99498631D01*
X112278082Y-99609575D01*
X112496600Y-99648106D01*
X112585967Y-99632348D01*
X112587101Y-99638048D01*
X112659860Y-99746940D01*
X112768752Y-99819699D01*
X112884790Y-99842781D01*
X113784610Y-99842781D01*
X113900648Y-99819699D01*
X114009540Y-99746940D01*
X114082299Y-99638048D01*
X114105381Y-99522010D01*
X114105381Y-98547190D01*
X114082299Y-98431152D01*
X114009540Y-98322260D01*
X113900648Y-98249501D01*
X113784610Y-98226419D01*
X112884790Y-98226419D01*
X112768752Y-98249501D01*
X112659860Y-98322260D01*
X112613940Y-98390984D01*
X112496600Y-98370294D01*
X112278082Y-98408825D01*
X112085919Y-98519769D01*
X111943291Y-98689747D01*
X111867401Y-98898255D01*
X109329200Y-98898255D01*
X109329200Y-95266055D01*
X119639801Y-95266055D01*
X119639801Y-95487945D01*
X119715691Y-95696453D01*
X119858319Y-95866431D01*
X120050482Y-95977375D01*
X120269000Y-96015906D01*
X120487518Y-95977375D01*
X120517266Y-95960200D01*
X120609373Y-95960200D01*
X120613401Y-95980448D01*
X120686160Y-96089340D01*
X120795052Y-96162099D01*
X120911090Y-96185181D01*
X121810910Y-96185181D01*
X121926948Y-96162099D01*
X122035840Y-96089340D01*
X122108599Y-95980448D01*
X122131681Y-95864410D01*
X122131681Y-94889590D01*
X122108599Y-94773552D01*
X122035840Y-94664660D01*
X121926948Y-94591901D01*
X121810910Y-94568819D01*
X120911090Y-94568819D01*
X120795052Y-94591901D01*
X120686160Y-94664660D01*
X120613401Y-94773552D01*
X120609373Y-94793800D01*
X120517266Y-94793800D01*
X120487518Y-94776625D01*
X120269000Y-94738094D01*
X120050482Y-94776625D01*
X119858319Y-94887569D01*
X119715691Y-95057547D01*
X119639801Y-95266055D01*
X109329200Y-95266055D01*
X109329200Y-92965000D01*
X118656163Y-92965000D01*
X118656163Y-93328588D01*
X118736795Y-93629512D01*
X118884185Y-93805165D01*
X119077814Y-93916956D01*
X119286976Y-93953837D01*
X119607500Y-93953837D01*
X119607500Y-92965000D01*
X118656163Y-92965000D01*
X109329200Y-92965000D01*
X109329200Y-85419200D01*
X112328801Y-85419200D01*
X112328800Y-86427895D01*
X112328800Y-86427895D01*
G37*
X112328800Y-86427895D02*
X112354398Y-86630518D01*
X112449819Y-86871524D01*
X112449819Y-87247410D01*
X112472901Y-87363448D01*
X112545660Y-87472340D01*
X112654552Y-87545099D01*
X112770590Y-87568181D01*
X114045410Y-87568181D01*
X114161448Y-87545099D01*
X114270340Y-87472340D01*
X114343099Y-87363448D01*
X114366181Y-87247410D01*
X114366181Y-86857225D01*
X114421336Y-86756898D01*
X114472630Y-86488000D01*
X114941163Y-86488000D01*
X114941163Y-87251588D01*
X115021795Y-87552512D01*
X115169185Y-87728165D01*
X115362814Y-87839956D01*
X115571976Y-87876837D01*
X116080000Y-87876837D01*
X116080000Y-86488000D01*
X116336000Y-86488000D01*
X116336000Y-87876837D01*
X116849588Y-87876837D01*
X117150512Y-87796205D01*
X117326165Y-87648815D01*
X117437956Y-87455186D01*
X117474837Y-87246024D01*
X117474837Y-86488000D01*
X116336000Y-86488000D01*
X116080000Y-86488000D01*
X114941163Y-86488000D01*
X114472630Y-86488000D01*
X114487200Y-86411626D01*
X114487200Y-85419200D01*
X114950821Y-85419200D01*
X114941163Y-85473976D01*
X114941163Y-86232000D01*
X117474837Y-86232000D01*
X117474837Y-85468412D01*
X117461651Y-85419200D01*
X117983986Y-85419200D01*
X117984000Y-90676804D01*
X118277166Y-90677260D01*
X118283519Y-90684831D01*
X118475682Y-90795775D01*
X118694200Y-90834306D01*
X118912718Y-90795775D01*
X118939319Y-90780417D01*
X118939319Y-91673410D01*
X118962401Y-91789448D01*
X118973757Y-91806444D01*
X118804835Y-91948185D01*
X118693044Y-92141814D01*
X118656163Y-92350976D01*
X118656163Y-92709000D01*
X119863500Y-92709000D01*
X119863500Y-93953837D01*
X120189588Y-93953837D01*
X120490512Y-93873205D01*
X120666165Y-93725815D01*
X120731197Y-93613176D01*
X120744552Y-93622099D01*
X120860590Y-93645181D01*
X121760410Y-93645181D01*
X121876448Y-93622099D01*
X121985340Y-93549340D01*
X122058099Y-93440448D01*
X122081181Y-93324410D01*
X122081181Y-93293200D01*
X122864667Y-93293200D01*
X122956506Y-93298013D01*
X122995608Y-93278090D01*
X123066277Y-93263069D01*
X123223174Y-93149076D01*
X123241628Y-93117114D01*
X123501998Y-92856743D01*
X123545160Y-92921340D01*
X123654052Y-92994099D01*
X123770090Y-93017181D01*
X124518370Y-93017181D01*
X124522401Y-93037448D01*
X124547981Y-93075732D01*
X124522804Y-93094024D01*
X124504352Y-93125983D01*
X123061518Y-94568819D01*
X122486090Y-94568819D01*
X122370052Y-94591901D01*
X122261160Y-94664660D01*
X122188401Y-94773552D01*
X122165319Y-94889590D01*
X122165319Y-95864410D01*
X122188401Y-95980448D01*
X122261160Y-96089340D01*
X122370052Y-96162099D01*
X122486090Y-96185181D01*
X123385910Y-96185181D01*
X123501948Y-96162099D01*
X123610840Y-96089340D01*
X123683599Y-95980448D01*
X123706681Y-95864410D01*
X123706681Y-95213981D01*
X124781773Y-94138890D01*
X124820160Y-94196340D01*
X124929052Y-94269099D01*
X125045090Y-94292181D01*
X125277099Y-94292181D01*
X125277100Y-97823563D01*
X125136499Y-97904738D01*
X124993871Y-98074716D01*
X124917981Y-98283224D01*
X124917981Y-98505114D01*
X124993871Y-98713622D01*
X125136499Y-98883600D01*
X125328662Y-98994544D01*
X125547180Y-99033075D01*
X125765698Y-98994544D01*
X125957861Y-98883600D01*
X126100489Y-98713622D01*
X126176379Y-98505114D01*
X126176379Y-98283224D01*
X126100488Y-98074716D01*
X126087899Y-98059713D01*
X126087899Y-97836874D01*
X126296740Y-97873699D01*
X126419942Y-97851975D01*
X126419942Y-97998250D01*
X126383191Y-98042047D01*
X126307301Y-98250555D01*
X126307301Y-98472445D01*
X126383191Y-98680953D01*
X126525819Y-98850931D01*
X126717982Y-98961875D01*
X126777201Y-98972317D01*
X126777201Y-99094745D01*
X126853091Y-99303253D01*
X126995719Y-99473231D01*
X127187882Y-99584175D01*
X127406400Y-99622706D01*
X127624918Y-99584175D01*
X127735132Y-99520544D01*
X127883143Y-99637227D01*
X128153873Y-99706738D01*
X129609039Y-99706738D01*
X129673363Y-99723253D01*
X129677104Y-99723253D01*
X129689831Y-99727059D01*
X129786705Y-99723253D01*
X129827246Y-99723253D01*
X129839773Y-99721168D01*
X129907450Y-99718508D01*
X129946487Y-99703406D01*
X129987790Y-99696531D01*
X130047412Y-99664361D01*
X130110570Y-99639927D01*
X130142609Y-99612995D01*
X130179458Y-99593112D01*
X130225442Y-99543367D01*
X130277283Y-99499790D01*
X130298874Y-99463927D01*
X130327292Y-99433185D01*
X130354679Y-99371239D01*
X130389617Y-99313206D01*
X130398429Y-99272276D01*
X130415354Y-99233993D01*
X130421199Y-99166514D01*
X130435455Y-99100295D01*
X130430534Y-99058726D01*
X130434147Y-99017017D01*
X130417818Y-98951282D01*
X130409194Y-98878419D01*
X130392857Y-98850792D01*
X130381643Y-98805649D01*
X130263505Y-98622686D01*
X130251588Y-98613291D01*
X130246992Y-98606173D01*
X130191524Y-98562445D01*
X130180638Y-98551559D01*
X130149379Y-98529221D01*
X130071529Y-98467848D01*
X130058992Y-98464629D01*
X130048223Y-98456934D01*
X129839564Y-98394532D01*
X129742690Y-98398338D01*
X128549147Y-98398338D01*
X128556909Y-98388632D01*
X128562238Y-98365364D01*
X128574951Y-98345137D01*
X128582829Y-98275456D01*
X128587900Y-98253316D01*
X128587900Y-98230606D01*
X128595730Y-98161350D01*
X128587900Y-98138928D01*
X128587900Y-94131896D01*
X128617599Y-94087448D01*
X128640681Y-93971410D01*
X128640681Y-93223130D01*
X128660948Y-93219099D01*
X128769840Y-93146340D01*
X128842599Y-93037448D01*
X128846630Y-93017181D01*
X129594910Y-93017181D01*
X129604869Y-93015200D01*
X130609037Y-93015200D01*
X131029819Y-93435983D01*
X131029819Y-94086410D01*
X131052901Y-94202448D01*
X131125660Y-94311340D01*
X131146300Y-94325131D01*
X131146301Y-99066304D01*
X131138000Y-99104856D01*
X131146301Y-99174992D01*
X131146301Y-99190391D01*
X131152609Y-99228287D01*
X131164261Y-99326734D01*
X131170849Y-99337874D01*
X131173023Y-99350935D01*
X131276442Y-99542603D01*
X131347650Y-99608427D01*
X131427201Y-99687979D01*
X131559616Y-99782604D01*
X131768275Y-99845006D01*
X131985895Y-99836454D01*
X132189013Y-99757875D01*
X132355728Y-99617736D01*
X132468060Y-99431153D01*
X132513900Y-99218242D01*
X132487639Y-98996365D01*
X132454700Y-98940669D01*
X132454700Y-94325131D01*
X132475340Y-94311340D01*
X132548099Y-94202448D01*
X132571181Y-94086410D01*
X132571181Y-93111590D01*
X132604819Y-93111590D01*
X132604819Y-94086410D01*
X132627901Y-94202448D01*
X132700660Y-94311340D01*
X132809552Y-94384099D01*
X132925590Y-94407181D01*
X133825410Y-94407181D01*
X133941448Y-94384099D01*
X134050340Y-94311340D01*
X134123099Y-94202448D01*
X134127127Y-94182200D01*
X134244734Y-94182200D01*
X134274482Y-94199375D01*
X134493000Y-94237906D01*
X134711518Y-94199375D01*
X134903681Y-94088431D01*
X135046309Y-93918453D01*
X135122199Y-93709945D01*
X135122199Y-93488055D01*
X135046309Y-93279547D01*
X134903681Y-93109569D01*
X134711518Y-92998625D01*
X134493000Y-92960094D01*
X134274482Y-92998625D01*
X134244734Y-93015800D01*
X134127127Y-93015800D01*
X134123099Y-92995552D01*
X134050340Y-92886660D01*
X133941448Y-92813901D01*
X133825410Y-92790819D01*
X132925590Y-92790819D01*
X132809552Y-92813901D01*
X132700660Y-92886660D01*
X132627901Y-92995552D01*
X132604819Y-93111590D01*
X132571181Y-93111590D01*
X132548099Y-92995552D01*
X132475340Y-92886660D01*
X132366448Y-92813901D01*
X132250410Y-92790819D01*
X131674983Y-92790819D01*
X131348564Y-92464401D01*
X134696390Y-92464401D01*
X135130321Y-92898333D01*
X135165511Y-92933523D01*
X135165511Y-93100345D01*
X135241401Y-93308853D01*
X135384029Y-93478831D01*
X135576192Y-93589775D01*
X135794710Y-93628306D01*
X136013228Y-93589775D01*
X136205391Y-93478831D01*
X136348019Y-93308853D01*
X136423909Y-93100345D01*
X136423909Y-92878455D01*
X136348019Y-92669947D01*
X136205391Y-92499969D01*
X136013228Y-92389025D01*
X135794710Y-92350494D01*
X135738955Y-92360325D01*
X135714528Y-92335898D01*
X135714524Y-92335891D01*
X135209692Y-91831061D01*
X135259281Y-91802431D01*
X135401909Y-91632453D01*
X135477799Y-91423945D01*
X135477799Y-91202055D01*
X135401909Y-90993547D01*
X135259281Y-90823569D01*
X135067118Y-90712625D01*
X135009130Y-90702400D01*
X135304800Y-90702400D01*
X135304811Y-86488000D01*
X136779163Y-86488000D01*
X136779163Y-87251588D01*
X136859795Y-87552512D01*
X137007185Y-87728165D01*
X137200814Y-87839956D01*
X137409976Y-87876837D01*
X137918000Y-87876837D01*
X137918000Y-86488000D01*
X138174000Y-86488000D01*
X138174000Y-87876837D01*
X138687588Y-87876837D01*
X138988512Y-87796205D01*
X139164165Y-87648815D01*
X139275956Y-87455186D01*
X139312837Y-87246024D01*
X139312837Y-86488000D01*
X138174000Y-86488000D01*
X137918000Y-86488000D01*
X136779163Y-86488000D01*
X135304811Y-86488000D01*
X135304814Y-85419200D01*
X136788821Y-85419200D01*
X136779163Y-85473976D01*
X136779163Y-86232000D01*
X139312837Y-86232000D01*
X139312837Y-85468412D01*
X139299651Y-85419200D01*
X139766801Y-85419200D01*
X139766800Y-86427895D01*
X139792398Y-86630518D01*
X139887819Y-86871524D01*
X139887819Y-87247410D01*
X139910901Y-87363448D01*
X139983660Y-87472340D01*
X140092552Y-87545099D01*
X140208590Y-87568181D01*
X141483410Y-87568181D01*
X141599448Y-87545099D01*
X141708340Y-87472340D01*
X141781099Y-87363448D01*
X141804181Y-87247410D01*
X141804181Y-86857225D01*
X141859336Y-86756898D01*
X141925200Y-86411626D01*
X141925200Y-85419200D01*
X145370801Y-85419200D01*
X145370800Y-105622095D01*
X145276410Y-105603319D01*
X144160681Y-105603319D01*
X144160681Y-104487590D01*
X144137599Y-104371552D01*
X144064840Y-104262660D01*
X143955948Y-104189901D01*
X143839910Y-104166819D01*
X143688090Y-104166819D01*
X143572052Y-104189901D01*
X143463160Y-104262660D01*
X143390401Y-104371552D01*
X143367319Y-104487590D01*
X143367319Y-105603319D01*
X142251590Y-105603319D01*
X142135552Y-105626401D01*
X142026660Y-105699160D01*
X141953901Y-105808052D01*
X141930819Y-105924090D01*
X141930819Y-106046000D01*
X139612931Y-106046000D01*
X139577577Y-106015698D01*
X139560286Y-106006600D01*
X139545754Y-105993539D01*
X139532944Y-105986408D01*
X139343666Y-105881490D01*
X139324900Y-105876056D01*
X139307790Y-105866038D01*
X139293734Y-105861676D01*
X139087545Y-105797060D01*
X139068073Y-105795510D01*
X139049502Y-105789206D01*
X139034913Y-105787715D01*
X138819680Y-105765852D01*
X138779673Y-105770800D01*
X138324656Y-105770800D01*
X138288951Y-105765432D01*
X138274342Y-105766559D01*
X138107209Y-105779420D01*
X138092459Y-105784000D01*
X138076854Y-105784449D01*
X138062614Y-105788171D01*
X137853399Y-105842667D01*
X137836060Y-105851674D01*
X137817073Y-105856145D01*
X137803902Y-105862590D01*
X137609698Y-105958151D01*
X137594529Y-105970457D01*
X137576650Y-105978737D01*
X137565027Y-105987767D01*
X137489953Y-106046000D01*
X132034224Y-106046000D01*
X132027487Y-106016467D01*
X131998416Y-105979985D01*
X131978226Y-105937938D01*
X131941517Y-105908581D01*
X131912224Y-105871819D01*
X131880768Y-105856647D01*
X131501802Y-105477681D01*
X131491679Y-105456599D01*
X131436953Y-105412833D01*
X131420609Y-105396488D01*
X131401483Y-105384467D01*
X131347188Y-105341046D01*
X131323915Y-105335715D01*
X131303686Y-105323002D01*
X131275887Y-105319859D01*
X131343527Y-105134017D01*
X131343527Y-104912127D01*
X131288339Y-104760498D01*
X131309979Y-104768097D01*
X131379603Y-104760349D01*
X131402738Y-104760349D01*
X131424771Y-104755323D01*
X131493859Y-104747635D01*
X131514079Y-104734950D01*
X131537374Y-104729637D01*
X131592231Y-104685925D01*
X131611457Y-104673864D01*
X131627501Y-104657819D01*
X131646532Y-104642654D01*
X131699000Y-104651906D01*
X131917518Y-104613375D01*
X132109681Y-104502431D01*
X132252309Y-104332453D01*
X132328199Y-104123945D01*
X132328199Y-103902055D01*
X132252309Y-103693547D01*
X132109681Y-103523569D01*
X131917518Y-103412625D01*
X131699000Y-103374094D01*
X131480482Y-103412625D01*
X131453806Y-103428027D01*
X131439509Y-103388747D01*
X131296881Y-103218769D01*
X131104718Y-103107825D01*
X130886200Y-103069294D01*
X130667682Y-103107825D01*
X130475520Y-103218769D01*
X130405009Y-103302800D01*
X126687375Y-103302800D01*
X126665312Y-103295052D01*
X126595687Y-103302800D01*
X126572553Y-103302800D01*
X126550520Y-103307826D01*
X126481431Y-103315514D01*
X126461211Y-103328198D01*
X126437916Y-103333512D01*
X126383066Y-103377220D01*
X126363833Y-103389285D01*
X126347781Y-103405337D01*
X126293267Y-103448777D01*
X126282948Y-103470170D01*
X125716028Y-104037091D01*
X125694944Y-104047215D01*
X125651184Y-104101936D01*
X125634834Y-104118285D01*
X125625616Y-104132952D01*
X125589244Y-104111953D01*
X125370726Y-104073422D01*
X125274833Y-104090331D01*
X125237023Y-103986448D01*
X125094395Y-103816470D01*
X124902232Y-103705526D01*
X124683714Y-103666995D01*
X124560512Y-103688719D01*
X124560512Y-102309907D01*
X124568812Y-102271355D01*
X124560512Y-102201228D01*
X124560512Y-102185820D01*
X124554199Y-102147894D01*
X124542551Y-102049478D01*
X124535965Y-102038341D01*
X124533791Y-102025278D01*
X124430371Y-101833609D01*
X124359150Y-101767773D01*
X124223799Y-101632421D01*
X124091383Y-101537796D01*
X123882724Y-101475394D01*
X123665104Y-101483945D01*
X123461985Y-101562525D01*
X123295272Y-101702663D01*
X123182940Y-101889247D01*
X123155947Y-102014619D01*
X123082909Y-101813947D01*
X122940281Y-101643969D01*
X122762019Y-101541051D01*
X120826533Y-99605565D01*
X120821497Y-99595264D01*
X120748743Y-99527776D01*
X120719291Y-99498323D01*
X120710460Y-99492265D01*
X120657507Y-99443144D01*
X120625228Y-99433795D01*
X120613560Y-99425792D01*
X120597599Y-99345552D01*
X120524840Y-99236660D01*
X120415948Y-99163901D01*
X120299910Y-99140819D01*
X119688562Y-99140819D01*
X119329673Y-98781931D01*
X119318914Y-98759526D01*
X119260760Y-98713018D01*
X119243392Y-98695650D01*
X119223073Y-98682879D01*
X119165373Y-98636736D01*
X119140646Y-98631073D01*
X119119145Y-98617559D01*
X119045082Y-98609186D01*
X119021569Y-98603800D01*
X118997437Y-98603800D01*
X118923845Y-98595480D01*
X118900020Y-98603800D01*
X115680381Y-98603800D01*
X115680381Y-98547190D01*
X115657299Y-98431152D01*
X115584540Y-98322260D01*
X115475648Y-98249501D01*
X115359610Y-98226419D01*
X114459790Y-98226419D01*
X114343752Y-98249501D01*
X114234860Y-98322260D01*
X114162101Y-98431152D01*
X114139019Y-98547190D01*
X114139019Y-99522010D01*
X114162101Y-99638048D01*
X114234860Y-99746940D01*
X114343752Y-99819699D01*
X114459790Y-99842781D01*
X114481001Y-99842781D01*
X114481000Y-99935019D01*
X114469390Y-99935019D01*
X114353352Y-99958101D01*
X114244460Y-100030860D01*
X114224903Y-100060130D01*
X114199210Y-100055019D01*
X112724390Y-100055019D01*
X112698697Y-100060130D01*
X112679140Y-100030860D01*
X112570248Y-99958101D01*
X112454210Y-99935019D01*
X111749390Y-99935019D01*
X111633352Y-99958101D01*
X111524460Y-100030860D01*
X111516502Y-100042771D01*
X111513251Y-100043512D01*
X111458403Y-100087218D01*
X111439170Y-100099282D01*
X111423111Y-100115341D01*
X111368602Y-100158777D01*
X111358283Y-100180170D01*
X110974316Y-100564137D01*
X110953232Y-100574261D01*
X110909471Y-100628982D01*
X110893121Y-100645331D01*
X110881099Y-100664459D01*
X110868906Y-100679706D01*
X110455419Y-101093194D01*
X110434335Y-101103318D01*
X110390575Y-101158039D01*
X110374225Y-101174388D01*
X110362203Y-101193516D01*
X110318781Y-101247812D01*
X110313452Y-101271082D01*
X110300739Y-101291308D01*
X110292861Y-101360989D01*
X110287790Y-101383129D01*
X110287790Y-101405838D01*
X110279960Y-101475092D01*
X110287790Y-101497516D01*
X110287791Y-103105652D01*
X110280042Y-103127717D01*
X110287791Y-103197351D01*
X110287791Y-103220476D01*
X110292815Y-103242498D01*
X110300504Y-103311598D01*
X110313191Y-103331822D01*
X110318504Y-103355114D01*
X110362210Y-103409964D01*
X110374276Y-103429196D01*
X110390327Y-103445247D01*
X110433768Y-103499763D01*
X110455163Y-103510083D01*
X111193063Y-104247983D01*
X111647141Y-104702062D01*
X111933831Y-104988752D01*
X111943953Y-105009834D01*
X111998671Y-105053594D01*
X112015025Y-105069948D01*
X112034158Y-105081972D01*
X112088446Y-105125389D01*
X112111715Y-105130719D01*
X112131946Y-105143434D01*
X112201627Y-105151311D01*
X112223764Y-105156381D01*
X112246474Y-105156381D01*
X112315732Y-105164211D01*
X112338154Y-105156381D01*
X115775990Y-105156381D01*
X115846501Y-105240412D01*
X116038663Y-105351356D01*
X116257181Y-105389887D01*
X116475699Y-105351356D01*
X116667862Y-105240412D01*
X116810490Y-105070434D01*
X116886380Y-104861926D01*
X116886380Y-104665871D01*
X117415208Y-104665871D01*
X117595029Y-104845694D01*
X117595029Y-104857316D01*
X117505891Y-104963547D01*
X117430001Y-105172055D01*
X117430001Y-105393945D01*
X117438906Y-105418410D01*
X117434282Y-105419225D01*
X117242119Y-105530169D01*
X117099491Y-105700147D01*
X117023601Y-105908655D01*
X117023601Y-106046000D01*
X116812931Y-106046000D01*
X116777577Y-106015698D01*
X116760286Y-106006600D01*
X116745754Y-105993539D01*
X116732944Y-105986408D01*
X116543666Y-105881490D01*
X116524900Y-105876056D01*
X116507790Y-105866038D01*
X116493734Y-105861676D01*
X116287545Y-105797060D01*
X116268073Y-105795510D01*
X116249502Y-105789206D01*
X116234913Y-105787715D01*
X116019680Y-105765852D01*
X115979673Y-105770800D01*
X115224656Y-105770800D01*
X115188951Y-105765432D01*
X115174342Y-105766559D01*
X115007209Y-105779420D01*
X114992459Y-105784000D01*
X114976854Y-105784449D01*
X114962614Y-105788171D01*
X114753399Y-105842667D01*
X114736060Y-105851674D01*
X114717073Y-105856145D01*
X114703902Y-105862590D01*
X114509698Y-105958151D01*
X114494529Y-105970457D01*
X114476650Y-105978737D01*
X114465027Y-105987767D01*
X114389953Y-106046000D01*
X112577181Y-106046000D01*
X112577181Y-105924090D01*
X112554099Y-105808052D01*
X112481340Y-105699160D01*
X112372448Y-105626401D01*
X112256410Y-105603319D01*
X111140681Y-105603319D01*
X111140681Y-104487590D01*
X111117599Y-104371552D01*
X111044840Y-104262660D01*
X110935948Y-104189901D01*
X110819910Y-104166819D01*
X110668090Y-104166819D01*
X110552052Y-104189901D01*
X110443160Y-104262660D01*
X110370401Y-104371552D01*
X110347319Y-104487590D01*
X110347319Y-105603319D01*
X109329200Y-105603319D01*
X109329200Y-98898255D01*
X111867401Y-98898255D01*
X111867401Y-99120145D01*
X111943291Y-99328653D01*
X112085919Y-99498631D01*
X112278082Y-99609575D01*
X112496600Y-99648106D01*
X112585967Y-99632348D01*
X112587101Y-99638048D01*
X112659860Y-99746940D01*
X112768752Y-99819699D01*
X112884790Y-99842781D01*
X113784610Y-99842781D01*
X113900648Y-99819699D01*
X114009540Y-99746940D01*
X114082299Y-99638048D01*
X114105381Y-99522010D01*
X114105381Y-98547190D01*
X114082299Y-98431152D01*
X114009540Y-98322260D01*
X113900648Y-98249501D01*
X113784610Y-98226419D01*
X112884790Y-98226419D01*
X112768752Y-98249501D01*
X112659860Y-98322260D01*
X112613940Y-98390984D01*
X112496600Y-98370294D01*
X112278082Y-98408825D01*
X112085919Y-98519769D01*
X111943291Y-98689747D01*
X111867401Y-98898255D01*
X109329200Y-98898255D01*
X109329200Y-95266055D01*
X119639801Y-95266055D01*
X119639801Y-95487945D01*
X119715691Y-95696453D01*
X119858319Y-95866431D01*
X120050482Y-95977375D01*
X120269000Y-96015906D01*
X120487518Y-95977375D01*
X120517266Y-95960200D01*
X120609373Y-95960200D01*
X120613401Y-95980448D01*
X120686160Y-96089340D01*
X120795052Y-96162099D01*
X120911090Y-96185181D01*
X121810910Y-96185181D01*
X121926948Y-96162099D01*
X122035840Y-96089340D01*
X122108599Y-95980448D01*
X122131681Y-95864410D01*
X122131681Y-94889590D01*
X122108599Y-94773552D01*
X122035840Y-94664660D01*
X121926948Y-94591901D01*
X121810910Y-94568819D01*
X120911090Y-94568819D01*
X120795052Y-94591901D01*
X120686160Y-94664660D01*
X120613401Y-94773552D01*
X120609373Y-94793800D01*
X120517266Y-94793800D01*
X120487518Y-94776625D01*
X120269000Y-94738094D01*
X120050482Y-94776625D01*
X119858319Y-94887569D01*
X119715691Y-95057547D01*
X119639801Y-95266055D01*
X109329200Y-95266055D01*
X109329200Y-92965000D01*
X118656163Y-92965000D01*
X118656163Y-93328588D01*
X118736795Y-93629512D01*
X118884185Y-93805165D01*
X119077814Y-93916956D01*
X119286976Y-93953837D01*
X119607500Y-93953837D01*
X119607500Y-92965000D01*
X118656163Y-92965000D01*
X109329200Y-92965000D01*
X109329200Y-85419200D01*
X112328801Y-85419200D01*
X112328800Y-86427895D01*
G36*
X135052800Y-90450400D02*
G01*
X134487480Y-90450400D01*
X134425558Y-90388479D01*
X134425558Y-90388478D01*
X134278155Y-90241075D01*
X134231467Y-90228565D01*
X134189616Y-90204402D01*
X134140211Y-90204402D01*
X134140207Y-90204401D01*
X129862296Y-90204401D01*
X129863886Y-90196409D01*
X129863886Y-90143600D01*
X131791788Y-90143600D01*
X131916623Y-90110150D01*
X132020150Y-90006623D01*
X132053600Y-89881788D01*
X132053600Y-87918212D01*
X132020150Y-87793377D01*
X131950159Y-87723386D01*
X132133410Y-87723386D01*
X132229628Y-87704247D01*
X132304226Y-87654400D01*
X133112257Y-87654400D01*
X133285432Y-87706850D01*
X133500305Y-87690881D01*
X133695024Y-87598630D01*
X133843475Y-87442466D01*
X133926040Y-87242647D01*
X133928815Y-87015463D01*
X133851158Y-86813686D01*
X133706566Y-86653941D01*
X133514159Y-86556960D01*
X133299740Y-86535748D01*
X133104897Y-86589600D01*
X132304226Y-86589600D01*
X132229628Y-86539753D01*
X132133410Y-86520614D01*
X131518590Y-86520614D01*
X131422372Y-86539753D01*
X131330285Y-86601285D01*
X131268753Y-86693372D01*
X131249614Y-86789590D01*
X131249614Y-87454410D01*
X131268753Y-87550628D01*
X131330285Y-87642715D01*
X131350766Y-87656400D01*
X129811141Y-87656400D01*
X129738661Y-87665942D01*
X129634271Y-87726212D01*
X128432870Y-88927614D01*
X128142000Y-88927614D01*
X128142000Y-88069891D01*
X130198699Y-84984843D01*
X131523563Y-84962000D01*
X135052815Y-84962000D01*
X135052800Y-90450400D01*
X135052800Y-90450400D01*
G37*
X135052800Y-90450400D02*
X134487480Y-90450400D01*
X134425558Y-90388479D01*
X134425558Y-90388478D01*
X134278155Y-90241075D01*
X134231467Y-90228565D01*
X134189616Y-90204402D01*
X134140211Y-90204402D01*
X134140207Y-90204401D01*
X129862296Y-90204401D01*
X129863886Y-90196409D01*
X129863886Y-90143600D01*
X131791788Y-90143600D01*
X131916623Y-90110150D01*
X132020150Y-90006623D01*
X132053600Y-89881788D01*
X132053600Y-87918212D01*
X132020150Y-87793377D01*
X131950159Y-87723386D01*
X132133410Y-87723386D01*
X132229628Y-87704247D01*
X132304226Y-87654400D01*
X133112257Y-87654400D01*
X133285432Y-87706850D01*
X133500305Y-87690881D01*
X133695024Y-87598630D01*
X133843475Y-87442466D01*
X133926040Y-87242647D01*
X133928815Y-87015463D01*
X133851158Y-86813686D01*
X133706566Y-86653941D01*
X133514159Y-86556960D01*
X133299740Y-86535748D01*
X133104897Y-86589600D01*
X132304226Y-86589600D01*
X132229628Y-86539753D01*
X132133410Y-86520614D01*
X131518590Y-86520614D01*
X131422372Y-86539753D01*
X131330285Y-86601285D01*
X131268753Y-86693372D01*
X131249614Y-86789590D01*
X131249614Y-87454410D01*
X131268753Y-87550628D01*
X131330285Y-87642715D01*
X131350766Y-87656400D01*
X129811141Y-87656400D01*
X129738661Y-87665942D01*
X129634271Y-87726212D01*
X128432870Y-88927614D01*
X128142000Y-88927614D01*
X128142000Y-88069891D01*
X130198699Y-84984843D01*
X131523563Y-84962000D01*
X135052815Y-84962000D01*
X135052800Y-90450400D01*
G36*
X121797015Y-84987072D02*
G01*
X123140901Y-85010243D01*
X125197600Y-88095291D01*
X125197600Y-88927614D01*
X124906730Y-88927614D01*
X123685819Y-87706702D01*
X123627820Y-87662198D01*
X123511388Y-87631000D01*
X121961543Y-87631000D01*
X122015247Y-87550628D01*
X122034386Y-87454410D01*
X122034386Y-86789590D01*
X122015247Y-86693372D01*
X121953715Y-86601285D01*
X121861628Y-86539753D01*
X121765410Y-86520614D01*
X121150590Y-86520614D01*
X121054372Y-86539753D01*
X120979774Y-86589600D01*
X120497915Y-86589600D01*
X120433159Y-86556960D01*
X120218740Y-86535748D01*
X120011061Y-86593148D01*
X119837970Y-86721462D01*
X119722676Y-86903486D01*
X119680641Y-87114811D01*
X119717501Y-87327100D01*
X119828313Y-87511888D01*
X119998217Y-87644393D01*
X120204432Y-87706850D01*
X120419305Y-87690881D01*
X120496307Y-87654400D01*
X120979774Y-87654400D01*
X121054372Y-87704247D01*
X121150590Y-87723386D01*
X121364041Y-87723386D01*
X121319450Y-87767977D01*
X121286000Y-87892812D01*
X121286000Y-89856388D01*
X121295435Y-89891600D01*
X119197095Y-89891600D01*
X119195358Y-89887086D01*
X119050766Y-89727341D01*
X118858359Y-89630360D01*
X118643940Y-89609148D01*
X118436261Y-89666548D01*
X118263170Y-89794862D01*
X118235998Y-89837760D01*
X118235985Y-84962000D01*
X121709505Y-84962000D01*
X121797015Y-84987072D01*
X121797015Y-84987072D01*
G37*
X121797015Y-84987072D02*
X123140901Y-85010243D01*
X125197600Y-88095291D01*
X125197600Y-88927614D01*
X124906730Y-88927614D01*
X123685819Y-87706702D01*
X123627820Y-87662198D01*
X123511388Y-87631000D01*
X121961543Y-87631000D01*
X122015247Y-87550628D01*
X122034386Y-87454410D01*
X122034386Y-86789590D01*
X122015247Y-86693372D01*
X121953715Y-86601285D01*
X121861628Y-86539753D01*
X121765410Y-86520614D01*
X121150590Y-86520614D01*
X121054372Y-86539753D01*
X120979774Y-86589600D01*
X120497915Y-86589600D01*
X120433159Y-86556960D01*
X120218740Y-86535748D01*
X120011061Y-86593148D01*
X119837970Y-86721462D01*
X119722676Y-86903486D01*
X119680641Y-87114811D01*
X119717501Y-87327100D01*
X119828313Y-87511888D01*
X119998217Y-87644393D01*
X120204432Y-87706850D01*
X120419305Y-87690881D01*
X120496307Y-87654400D01*
X120979774Y-87654400D01*
X121054372Y-87704247D01*
X121150590Y-87723386D01*
X121364041Y-87723386D01*
X121319450Y-87767977D01*
X121286000Y-87892812D01*
X121286000Y-89856388D01*
X121295435Y-89891600D01*
X119197095Y-89891600D01*
X119195358Y-89887086D01*
X119050766Y-89727341D01*
X118858359Y-89630360D01*
X118643940Y-89609148D01*
X118436261Y-89666548D01*
X118263170Y-89794862D01*
X118235998Y-89837760D01*
X118235985Y-84962000D01*
X121709505Y-84962000D01*
X121797015Y-84987072D01*
M02*
