M48
; DRILL file {KiCad (5.99.0-1251-g6aaee01f1)} date 04/08/20 18:30:44
; FORMAT={-:-/ absolute / inch / decimal}
; #@! TF.CreationDate,2020-04-08T18:30:44-07:00
; #@! TF.GenerationSoftware,Kicad,Pcbnew,(5.99.0-1251-g6aaee01f1)
; #@! TF.FileFunction,Plated,1,4,PTH
FMAT,2
INCH
T1C0.0118
T2C0.0157
T3C0.0197
T4C0.0394
%
G90
G05
T1
X0.0394Y0.8465
X0.0394Y0.8071
X0.0394Y0.7677
X0.0394Y0.7283
X0.0984Y0.8465
X0.0984Y0.8071
X0.0984Y0.7677
X0.0984Y0.7283
X0.1575Y0.7087
X0.1575Y0.6693
X0.1575Y0.6299
X0.1575Y0.5787
X0.1654Y0.4843
X0.189Y0.5945
X0.1969Y0.7087
X0.1969Y0.6693
X0.1969Y0.6299
X0.1969Y0.4843
X0.2036Y1.3378
X0.2126Y0.5709
X0.2353Y1.3482
X0.2457Y1.3892
X0.2797Y1.3593
X0.3092Y0.4617
X0.3097Y1.3702
X0.3307Y0.4173
X0.336Y0.3585
X0.3701Y0.4173
X0.3848Y0.368
X0.3848Y0.3129
X0.4292Y0.3028
X0.4347Y0.3989
X0.4397Y0.3372
X0.4736Y0.3073
X0.4775Y0.4437
X0.5276Y0.3638
X0.563Y0.346
X0.5887Y1.2182
X0.6142Y0.2992
X0.6401Y0.3668
X0.6575Y0.2913
X0.6637Y0.3332
X0.6787Y0.6532
X0.7137Y0.7632
X0.7137Y0.6782
X0.7737Y0.6632
X0.8087Y0.6682
X0.8504Y0.2441
X0.8682Y0.2814
X0.8898Y0.2441
X1.0079Y0.4016
X1.0512Y0.4016
X1.0906Y0.4016
T2
X0.0886Y1.1482
X0.0886Y1.0982
X0.0886Y1.0482
X0.1957Y1.2882
X0.2987Y1.4482
X0.5547Y0.4502
X0.6243Y0.4457
X0.7177Y1.1272
X0.7382Y0.4194
X0.8487Y1.3282
X0.8587Y0.5782
X1.0687Y1.4582
X1.2287Y1.3082
X1.3287Y1.1632
X1.3287Y1.1082
X1.3287Y1.0531
T3
X0.0687Y1.2982
X0.0687Y1.1982
X0.1607Y1.3982
X0.2407Y1.4332
X0.3437Y0.6782
X0.3537Y0.9882
X0.3537Y0.8832
X0.3587Y0.7832
X0.3602Y0.4807
X0.4087Y0.9382
X0.4087Y0.835
X0.4087Y0.7232
X0.5487Y1.0482
X0.5487Y0.9282
X0.6087Y1.1082
X0.6087Y0.9882
X0.6087Y0.8682
X0.6687Y1.0482
X0.6687Y0.9282
X0.6687Y0.8082
X0.7137Y0.5782
X0.7137Y0.3382
X0.7487Y1.5082
X0.7487Y1.0482
X0.7487Y0.9282
X0.7487Y0.8082
X0.8087Y1.1082
X0.8087Y0.9882
X0.8087Y0.8682
X0.8687Y1.0482
X0.8687Y0.9282
X1.0187Y0.9582
X1.0187Y0.8464
X1.0187Y0.7432
X1.0567Y0.4682
X1.0683Y1.3689
X1.0687Y1.0082
X1.0687Y0.8982
X1.0737Y0.7982
X1.0837Y0.6832
X1.1887Y0.8382
X1.1887Y0.7182
X1.1887Y0.6382
X1.2008Y0.5118
X1.2624Y1.2496
X1.2687Y0.8382
X1.2795Y0.689
X1.2808Y0.5118
X1.3287Y0.6201
X1.378Y0.4146
X1.378Y0.3346
T4
X0.5437Y1.3952
X0.6437Y1.3952
X0.7437Y1.3952
X0.8437Y1.3952
T0
M30
