M48
; DRILL file {KiCad (5.1.0-1558-g0ba0c1724)} date Mon 09 Mar 2020 08:47:35 PM PDT
; FORMAT={-:-/ absolute / metric / decimal}
; #@! TF.CreationDate,2020-03-09T20:47:35-07:00
; #@! TF.GenerationSoftware,Kicad,Pcbnew,(5.1.0-1558-g0ba0c1724)
; #@! TF.FileFunction,Plated,1,2,PTH
FMAT,2
METRIC
T1C0.300
T2C0.400
T3C1.000
T4C1.200
%
G90
G05
T1
X1.15Y30.45
X3.2Y25.15
X3.25Y31.75
X3.25Y29.25
X3.9Y19.2
X4.25Y30.25
X4.25Y25.75
X5.5Y25.75
X5.5Y23.75
X6.4Y19.2
X7.75Y30.75
X8.0Y33.25
X8.25Y23.0
X8.25Y20.5
X8.75Y8.25
X8.8Y18.0
X9.0Y23.0
X9.0Y20.5
X9.5Y19.25
X9.75Y9.5
X10.186Y8.134
X10.5Y19.0
X11.25Y18.25
X11.523Y26.773
X11.75Y17.0
X11.75Y7.142
X12.385Y7.58
X13.25Y31.35
X13.52Y6.106
X13.946Y7.304
X14.25Y32.25
X14.5Y28.25
X14.5Y19.5
X14.5Y6.75
X14.75Y9.514
X15.0Y8.804
X15.25Y31.0
X15.4Y13.1
X15.696Y12.312
X16.0Y13.75
X16.25Y31.0
X16.85Y9.6
X17.0Y30.0
X17.75Y12.5
X18.0Y13.5
X18.5Y15.5
X19.0Y19.25
X19.75Y19.25
X19.9Y12.35
X20.25Y9.304
X20.4Y23.0
X20.5Y20.5
X21.0Y10.25
X21.2Y23.0
X21.25Y20.5
X21.25Y13.75
X22.207Y7.392
X22.25Y25.5
X23.25Y33.0
X23.25Y9.25
X23.5Y25.5
X23.554Y32.0
X23.586Y8.577
X24.058Y31.25
X24.75Y25.5
X27.5Y30.5
X27.75Y28.5
X28.5Y29.5
X28.75Y19.5
X29.5Y23.75
X32.0Y22.5
T2
X1.5Y9.0
X3.25Y34.5
X4.75Y38.25
X5.0Y14.25
X6.25Y17.5
X7.75Y29.0
X8.5Y35.25
X8.75Y15.75
X12.75Y24.5
X12.75Y23.25
X12.75Y22.0
X12.75Y20.75
X14.0Y24.5
X14.0Y23.25
X14.0Y22.0
X14.0Y20.75
X15.0Y33.0
X15.25Y24.5
X15.25Y23.25
X15.25Y22.0
X15.25Y20.75
X15.75Y29.5
X16.5Y24.5
X16.5Y23.25
X16.5Y22.0
X16.5Y20.75
X21.0Y35.5
X21.0Y17.75
X21.5Y33.0
X22.25Y16.5
X22.75Y27.0
X23.0Y19.25
X25.5Y18.5
X26.5Y24.25
X28.75Y16.0
X29.0Y28.25
X29.75Y30.0
X30.75Y29.0
X30.75Y17.5
X31.0Y25.75
X31.25Y10.5
X31.25Y8.5
X32.5Y27.5
X32.5Y25.25
X32.5Y24.25
X33.0Y38.5
X34.75Y10.5
X34.75Y8.5
X35.75Y16.75
T3
X11.44Y35.0
X13.98Y35.0
X16.52Y35.0
X19.06Y35.0
T4
X25.75Y35.0
X29.25Y35.0
T0
M30
