G04 #@! TF.GenerationSoftware,KiCad,Pcbnew,5.99.0-unknown-9aa2d7e101~106~ubuntu20.04.1*
G04 #@! TF.CreationDate,2020-12-31T18:47:36-08:00*
G04 #@! TF.ProjectId,TMC2209_Driver,544d4332-3230-4395-9f44-72697665722e,rev?*
G04 #@! TF.SameCoordinates,PX67f3540PY6cb8080*
G04 #@! TF.FileFunction,Copper,L2,Bot*
G04 #@! TF.FilePolarity,Positive*
%FSLAX46Y46*%
G04 Gerber Fmt 4.6, Leading zero omitted, Abs format (unit mm)*
G04 Created by KiCad (PCBNEW 5.99.0-unknown-9aa2d7e101~106~ubuntu20.04.1) date 2020-12-31 18:47:36*
%MOMM*%
%LPD*%
G01*
G04 APERTURE LIST*
G04 #@! TA.AperFunction,ConnectorPad*
%ADD10O,0.650000X0.650000*%
G04 #@! TD*
G04 #@! TA.AperFunction,ConnectorPad*
%ADD11R,0.650000X3.600000*%
G04 #@! TD*
G04 #@! TA.AperFunction,ConnectorPad*
%ADD12R,0.650000X4.600000*%
G04 #@! TD*
G04 #@! TA.AperFunction,ComponentPad*
%ADD13R,1.778000X1.778000*%
G04 #@! TD*
G04 #@! TA.AperFunction,ComponentPad*
%ADD14C,1.778000*%
G04 #@! TD*
G04 #@! TA.AperFunction,ViaPad*
%ADD15C,0.700000*%
G04 #@! TD*
G04 #@! TA.AperFunction,ViaPad*
%ADD16C,1.000000*%
G04 #@! TD*
G04 #@! TA.AperFunction,ViaPad*
%ADD17C,0.800000*%
G04 #@! TD*
G04 #@! TA.AperFunction,Conductor*
%ADD18C,0.650000*%
G04 #@! TD*
G04 #@! TA.AperFunction,Conductor*
%ADD19C,0.254000*%
G04 #@! TD*
G04 #@! TA.AperFunction,Conductor*
%ADD20C,0.152400*%
G04 #@! TD*
G04 #@! TA.AperFunction,Conductor*
%ADD21C,0.203200*%
G04 #@! TD*
G04 #@! TA.AperFunction,Conductor*
%ADD22C,0.250000*%
G04 #@! TD*
G04 APERTURE END LIST*
D10*
X27652800Y1014800D03*
X26652800Y1014800D03*
X22652800Y1014800D03*
X11652800Y1014800D03*
X14652800Y1014800D03*
X9652800Y1014800D03*
X24652800Y1014800D03*
X12652800Y1014800D03*
X21652800Y1014800D03*
X10652800Y1014800D03*
X25652800Y1014800D03*
X15652800Y1014800D03*
X13652800Y1014800D03*
X16652800Y1014800D03*
X18652800Y1014800D03*
X23652800Y1014800D03*
X17652800Y1014800D03*
D11*
X8652800Y3814800D03*
D12*
X9652800Y3314800D03*
X10652800Y3314800D03*
X11652800Y3314800D03*
X12652800Y3314800D03*
X13652800Y3314800D03*
X14652800Y3314800D03*
X15652800Y3314800D03*
X16652800Y3314800D03*
X17652800Y3314800D03*
X18652800Y3314800D03*
X21652800Y3314800D03*
X22652800Y3314800D03*
X23652800Y3314800D03*
X24652800Y3314800D03*
X25652800Y3314800D03*
X26652800Y3314800D03*
X27652800Y3314800D03*
D13*
X13809000Y35437800D03*
D14*
X16349000Y35437800D03*
X18889000Y35437800D03*
X21429000Y35437800D03*
D15*
X17085600Y24211000D03*
X18927100Y22306000D03*
X18927100Y23576000D03*
X18355600Y24211000D03*
X17720600Y22306000D03*
X17085600Y22941000D03*
X16450600Y22306000D03*
X16450600Y23576000D03*
X17720600Y23576000D03*
X18355600Y22941000D03*
X18355600Y21671000D03*
X17085600Y21671000D03*
D16*
X4030000Y33228000D03*
X7586000Y30942000D03*
X5808000Y33228000D03*
X7586000Y33228000D03*
X5808000Y30942000D03*
X1998000Y30942000D03*
X1998000Y33228000D03*
X4030000Y30942000D03*
X28414000Y30942000D03*
D15*
X11269000Y18623000D03*
D16*
X34002000Y30942000D03*
D15*
X3496600Y14990800D03*
X4055400Y12400000D03*
X8475000Y13987500D03*
X25493000Y20401000D03*
D17*
X35500000Y10500000D03*
D15*
X3081143Y11532112D03*
X8661749Y10998379D03*
X11269000Y26878000D03*
D16*
X34002000Y33228000D03*
X30446000Y33228000D03*
X28414000Y33228000D03*
X32224000Y33228000D03*
D15*
X21000000Y19500000D03*
D16*
X32224000Y30942000D03*
D17*
X35500000Y13000000D03*
D15*
X24375400Y26852600D03*
D16*
X30446000Y30942000D03*
D15*
X19422400Y32720000D03*
X18254000Y28224200D03*
X18330200Y32720000D03*
X18127000Y26497000D03*
X22368800Y25633400D03*
X20971800Y25633400D03*
X21683000Y25633400D03*
X22343400Y24566600D03*
X21657600Y24592000D03*
X17060200Y32720000D03*
X15968000Y32720000D03*
X17111000Y28224200D03*
X17238000Y26497000D03*
X12996200Y25582600D03*
X13707400Y25582600D03*
X14393200Y25582600D03*
X13682000Y24541200D03*
X12996200Y24541200D03*
X9812912Y10998379D03*
X9694200Y23804600D03*
X17352282Y7095226D03*
X25848600Y22687000D03*
X22699000Y9987000D03*
X9668800Y6822369D03*
X21886200Y10291800D03*
X8652800Y7980400D03*
X16551726Y7387998D03*
X26794710Y21010600D03*
X21714328Y8976928D03*
X18152149Y8666904D03*
X17182501Y16940338D03*
X9019485Y8759211D03*
X13148600Y6380200D03*
X12541045Y11741645D03*
X12285000Y6380200D03*
X18173287Y15679530D03*
X21491077Y7705937D03*
X7261198Y9199010D03*
X16440174Y15599740D03*
X13529600Y11866600D03*
D16*
X18317500Y6824700D03*
D15*
X22851400Y14813000D03*
X19192540Y14874260D03*
X20772955Y14930947D03*
X15002800Y6532600D03*
X14799600Y11866600D03*
X11654006Y11799326D03*
X17314200Y15778200D03*
X18159120Y7814521D03*
X9603597Y8138390D03*
X6519200Y11028400D03*
X16475638Y9216762D03*
X7833264Y10757845D03*
X15769412Y9694099D03*
X14114592Y9898588D03*
X15754937Y10932934D03*
X14113800Y6418300D03*
X15526244Y12892556D03*
X17543973Y14947617D03*
X18500000Y17500000D03*
X20000000Y17750000D03*
D18*
X23652800Y6264800D02*
X23664200Y6276200D01*
X24654800Y6266800D02*
X24654800Y8234400D01*
X26652800Y3314800D02*
X26652800Y6264800D01*
X24652800Y3314800D02*
X24652800Y6264800D01*
X25652800Y6264800D02*
X25645400Y6272200D01*
X26652800Y6264800D02*
X26636000Y6281600D01*
X23664200Y6276200D02*
X23664200Y8158200D01*
X27652800Y3314800D02*
X27652800Y8259000D01*
X26636000Y6281600D02*
X26636000Y8793200D01*
X25652800Y3314800D02*
X25652800Y6264800D01*
X23652800Y3314800D02*
X23652800Y6264800D01*
X24652800Y6264800D02*
X24654800Y6266800D01*
X25645400Y6272200D02*
X25645400Y8666200D01*
D19*
X9694200Y23804600D02*
X9694200Y10785911D01*
D20*
X10018799Y7172368D02*
X15219362Y7172368D01*
X17013886Y6756830D02*
X17352282Y7095226D01*
X22699000Y9987000D02*
X23123264Y9987000D01*
X23123264Y9987000D02*
X26178800Y13042536D01*
X15219362Y7172368D02*
X15634900Y6756830D01*
X25848600Y22687000D02*
X25848600Y22121315D01*
X9668800Y6822369D02*
X10018799Y7172368D01*
X26178800Y13042536D02*
X26178800Y13416000D01*
X26178800Y21791115D02*
X26178800Y13416000D01*
X25848600Y22121315D02*
X26178800Y21791115D01*
X15634900Y6756830D02*
X17013886Y6756830D01*
X16441915Y7497809D02*
X16551726Y7387998D01*
X21886200Y9867536D02*
X22401736Y9352000D01*
X8652800Y7980400D02*
X9135391Y7497809D01*
X25518400Y9352000D02*
X26686800Y10520400D01*
X9135391Y7497809D02*
X16441915Y7497809D01*
X26686800Y10520400D02*
X26686800Y20902690D01*
X22401736Y9352000D02*
X25518400Y9352000D01*
X21886200Y10291800D02*
X21886200Y9867536D01*
D19*
X26686800Y20902690D02*
X26794710Y21010600D01*
D20*
X20157045Y15385133D02*
X18670780Y16871398D01*
X18670780Y16871398D02*
X17251441Y16871398D01*
X9019485Y8759211D02*
X10384525Y8759211D01*
X17251441Y16871398D02*
X17182501Y16940338D01*
X20157045Y10610809D02*
X20157045Y15385133D01*
X22069678Y8698176D02*
X20157045Y10610809D01*
X10384525Y8759211D02*
X10826831Y8316905D01*
X21652800Y3314800D02*
X22069678Y3731678D01*
X10826831Y8316905D02*
X17802150Y8316905D01*
X17802150Y8316905D02*
X18152149Y8666904D01*
X22069678Y3731678D02*
X22069678Y8698176D01*
X13652800Y5876000D02*
X13148600Y6380200D01*
X13652800Y3314800D02*
X13652800Y5876000D01*
X12541045Y11741645D02*
X13250200Y12450800D01*
X16671984Y13220016D02*
X15871884Y12419916D01*
D21*
X12285000Y6380200D02*
X12652800Y6012400D01*
D20*
X13250200Y12450800D02*
X15111670Y12450800D01*
X16671984Y13220016D02*
X18173287Y14721319D01*
D21*
X12652800Y6012400D02*
X12652800Y3314800D01*
D20*
X15765923Y12313955D02*
X16671984Y13220016D01*
X18173287Y14721319D02*
X18173287Y15679530D01*
X15248515Y12313955D02*
X15765923Y12313955D01*
X15111670Y12450800D02*
X15248515Y12313955D01*
X16702261Y16356801D02*
X16440174Y16094714D01*
X7611197Y9549009D02*
X7261198Y9199010D01*
X21491077Y7794037D02*
X21491077Y7705937D01*
X19814134Y9470980D02*
X17586186Y9470980D01*
X16440174Y16094714D02*
X16440174Y15599740D01*
X17586186Y9470980D02*
X16753367Y8638161D01*
X18690130Y16356801D02*
X16702261Y16356801D01*
X19814134Y9470980D02*
X19814134Y15232797D01*
X10936643Y8638161D02*
X10025795Y9549009D01*
X16753367Y8638161D02*
X10936643Y8638161D01*
X10025795Y9549009D02*
X7611197Y9549009D01*
X19814134Y15232797D02*
X18690130Y16356801D01*
X19814134Y9470980D02*
X21491077Y7794037D01*
D18*
X18317500Y6824700D02*
X17696022Y6203222D01*
X17696022Y6203222D02*
X17416622Y6203222D01*
X13529600Y11866600D02*
X14095285Y11866600D01*
X16078625Y11760345D02*
X19192540Y14874260D01*
X14095285Y11866600D02*
X14799600Y11866600D01*
X20890902Y14813000D02*
X20772955Y14930947D01*
X22851400Y14813000D02*
X20890902Y14813000D01*
X15332178Y6203222D02*
X17416622Y6203222D01*
X15002800Y6532600D02*
X15332178Y6203222D01*
X14799600Y11866600D02*
X14905855Y11760345D01*
X14905855Y11760345D02*
X16078625Y11760345D01*
D20*
X11654006Y11799326D02*
X12686477Y12831797D01*
X17314200Y15778200D02*
X17003462Y15467462D01*
X12686477Y12831797D02*
X14571821Y12831797D01*
X14571821Y12831797D02*
X17003462Y15263438D01*
X17003462Y15467462D02*
X17003462Y15263438D01*
D22*
X11787240Y11932560D02*
X11654006Y11799326D01*
D20*
X18044052Y7929589D02*
X18159120Y7814521D01*
X9775388Y7966599D02*
X9603597Y8138390D01*
X17758689Y7929589D02*
X17428489Y7929589D01*
X17391479Y7966599D02*
X9775388Y7966599D01*
X17428489Y7929589D02*
X17391479Y7966599D01*
X17428489Y7929589D02*
X18044052Y7929589D01*
X11018196Y8987673D02*
X16246549Y8987673D01*
X7608504Y9898090D02*
X7256844Y10249750D01*
X9859290Y9898090D02*
X10107779Y9898090D01*
X6956845Y10549749D02*
X6956845Y10590755D01*
X10107779Y9898090D02*
X11018196Y8987673D01*
X16246549Y8987673D02*
X16475638Y9216762D01*
X10116935Y9898090D02*
X9859290Y9898090D01*
X7256844Y10249750D02*
X6956845Y10549749D01*
X6956845Y10590755D02*
X6519200Y11028400D01*
X9859290Y9898090D02*
X7608504Y9898090D01*
X8183263Y10407846D02*
X12726152Y10407846D01*
X12726152Y10407846D02*
X13814012Y9319986D01*
X15395299Y9319986D02*
X15769412Y9694099D01*
X13814012Y9319986D02*
X15395299Y9319986D01*
X7833264Y10757845D02*
X8183263Y10407846D01*
X14720591Y9898588D02*
X15754937Y10932934D01*
X15526244Y12929888D02*
X15526244Y12892556D01*
X14652800Y5879300D02*
X14652800Y3314800D01*
X14114592Y9898588D02*
X14720591Y9898588D01*
X14113800Y6418300D02*
X14652800Y5879300D01*
X17543973Y14947617D02*
X15526244Y12929888D01*
X20000000Y17750000D02*
X18750000Y17750000D01*
X18750000Y17750000D02*
X18500000Y17500000D01*
G04 #@! TA.AperFunction,Conductor*
G36*
X15008421Y36535398D02*
G01*
X15054914Y36481742D01*
X15066300Y36429400D01*
X15066300Y32771960D01*
X15066307Y32770529D01*
X15066329Y32768186D01*
X15066333Y32767922D01*
X15066344Y32767058D01*
X15066348Y32766784D01*
X15129778Y29355673D01*
X15129800Y29353330D01*
X15129800Y24286200D01*
X15109798Y24218079D01*
X15056142Y24171586D01*
X15003800Y24160200D01*
X11979200Y24160200D01*
X11911079Y24180202D01*
X11864586Y24233858D01*
X11853200Y24286200D01*
X11853200Y36429400D01*
X11873202Y36497521D01*
X11926858Y36544014D01*
X11979200Y36555400D01*
X14940300Y36555400D01*
X15008421Y36535398D01*
G37*
G04 #@! TD.AperFunction*
G04 #@! TA.AperFunction,Conductor*
G36*
X23733321Y36535398D02*
G01*
X23779814Y36481742D01*
X23791200Y36429400D01*
X23791200Y24286200D01*
X23771198Y24218079D01*
X23717542Y24171586D01*
X23665200Y24160200D01*
X20488200Y24160200D01*
X20420079Y24180202D01*
X20373586Y24233858D01*
X20362200Y24286200D01*
X20362200Y36429400D01*
X20382202Y36497521D01*
X20435858Y36544014D01*
X20488200Y36555400D01*
X23665200Y36555400D01*
X23733321Y36535398D01*
G37*
G04 #@! TD.AperFunction*
G04 #@! TA.AperFunction,Conductor*
G36*
X17561346Y36560798D02*
G01*
X17607839Y36507142D01*
X17619225Y36455026D01*
X17636837Y26626859D01*
X17635337Y26607249D01*
X17620519Y26512079D01*
X17620519Y26512074D01*
X17619138Y26503205D01*
X17620302Y26494303D01*
X17620302Y26494300D01*
X17636258Y26372278D01*
X17637322Y26356167D01*
X17638301Y25810426D01*
X17618421Y25742270D01*
X17564849Y25695680D01*
X17512301Y25684200D01*
X17073054Y25684200D01*
X17012303Y25699813D01*
X15396872Y26588849D01*
X15346836Y26639216D01*
X15331645Y26696893D01*
X15218722Y32769617D01*
X15218700Y32771960D01*
X15218700Y36454800D01*
X15238702Y36522921D01*
X15292358Y36569414D01*
X15344700Y36580800D01*
X17493225Y36580800D01*
X17561346Y36560798D01*
G37*
G04 #@! TD.AperFunction*
G04 #@! TA.AperFunction,Conductor*
G36*
X20113821Y36586198D02*
G01*
X20160314Y36532542D01*
X20171700Y36480200D01*
X20171700Y32796200D01*
X20159155Y26699114D01*
X20139013Y26631034D01*
X20092852Y26588413D01*
X18645916Y25809973D01*
X18440088Y25699239D01*
X18380392Y25684200D01*
X17916840Y25684200D01*
X17848719Y25704202D01*
X17802226Y25757858D01*
X17790840Y25809973D01*
X17771627Y36479973D01*
X17791507Y36548130D01*
X17845078Y36594719D01*
X17897627Y36606200D01*
X20045700Y36606200D01*
X20113821Y36586198D01*
G37*
G04 #@! TD.AperFunction*
G04 #@! TA.AperFunction,Conductor*
G36*
X35658981Y39197606D02*
G01*
X35659078Y39198313D01*
X35666138Y39197342D01*
X35673042Y39195581D01*
X35680160Y39195412D01*
X35680163Y39195412D01*
X35749980Y39193759D01*
X35759348Y39193187D01*
X35785156Y39190645D01*
X35797387Y39188831D01*
X35911908Y39166051D01*
X35923895Y39163048D01*
X35935212Y39159616D01*
X35937760Y39158843D01*
X35937763Y39158842D01*
X35949404Y39154677D01*
X36057273Y39109996D01*
X36068450Y39104710D01*
X36081245Y39097871D01*
X36091840Y39091521D01*
X36188927Y39026649D01*
X36198847Y39019292D01*
X36210070Y39010082D01*
X36219232Y39001778D01*
X36301783Y38919226D01*
X36310079Y38910073D01*
X36319302Y38898835D01*
X36326642Y38888939D01*
X36391525Y38791834D01*
X36397867Y38781254D01*
X36404711Y38768450D01*
X36409994Y38757278D01*
X36454674Y38649413D01*
X36458839Y38637771D01*
X36460994Y38630670D01*
X36463053Y38623879D01*
X36466055Y38611894D01*
X36487815Y38502503D01*
X36488830Y38497398D01*
X36490644Y38485166D01*
X36493188Y38459337D01*
X36493759Y38449980D01*
X36495577Y38373234D01*
X36497312Y38366380D01*
X36498270Y38359372D01*
X36497605Y38359281D01*
X36500000Y38340062D01*
X36500000Y7890500D01*
X36479998Y7822379D01*
X36426342Y7775886D01*
X36374000Y7764500D01*
X30688526Y7764500D01*
X30620405Y7784502D01*
X30599431Y7801405D01*
X30578233Y7822603D01*
X30575630Y7825284D01*
X30571945Y7829195D01*
X30571943Y7829197D01*
X30568255Y7833110D01*
X30566658Y7834177D01*
X30565437Y7835398D01*
X30556717Y7840879D01*
X30553765Y7842792D01*
X30552233Y7843816D01*
X30387158Y7954115D01*
X30383291Y7956699D01*
X30380213Y7958822D01*
X30375843Y7961934D01*
X30375840Y7961936D01*
X30371453Y7965059D01*
X30369680Y7965793D01*
X30368241Y7966755D01*
X30362939Y7968780D01*
X30358594Y7970439D01*
X30355327Y7971739D01*
X30340934Y7977701D01*
X30165931Y8050190D01*
X30162509Y8051667D01*
X30157567Y8053888D01*
X30157566Y8053888D01*
X30152689Y8056080D01*
X30150806Y8056455D01*
X30149209Y8057116D01*
X30144098Y8057985D01*
X30139022Y8058848D01*
X30135579Y8059483D01*
X29942154Y8097958D01*
X29935606Y8099443D01*
X29925220Y8102092D01*
X29920852Y8102195D01*
X29916757Y8103010D01*
X29909689Y8102813D01*
X29909686Y8102813D01*
X29906107Y8102713D01*
X29899612Y8102699D01*
X29790009Y8105294D01*
X29790006Y8105294D01*
X29782941Y8105461D01*
X29776013Y8104052D01*
X29776010Y8104052D01*
X29768512Y8102527D01*
X29743405Y8100000D01*
X29356685Y8100000D01*
X29331362Y8102571D01*
X29324231Y8104034D01*
X29317251Y8105466D01*
X29262989Y8104181D01*
X29200855Y8102710D01*
X29194144Y8102730D01*
X29190554Y8102836D01*
X29190552Y8102836D01*
X29183430Y8103047D01*
X29179146Y8102195D01*
X29174972Y8102096D01*
X29164614Y8099474D01*
X29158315Y8098051D01*
X28965241Y8059646D01*
X28961636Y8058984D01*
X28950967Y8057189D01*
X28949192Y8056454D01*
X28947499Y8056117D01*
X28942758Y8053996D01*
X28942757Y8053996D01*
X28938095Y8051911D01*
X28934866Y8050520D01*
X28745455Y7972063D01*
X28741982Y7970685D01*
X28736968Y7968780D01*
X28736964Y7968778D01*
X28731918Y7966861D01*
X28730322Y7965794D01*
X28728725Y7965133D01*
X28724462Y7962109D01*
X28724460Y7962108D01*
X28720313Y7959166D01*
X28717419Y7957173D01*
X28586949Y7869996D01*
X28546967Y7843281D01*
X28543823Y7841247D01*
X28543111Y7840801D01*
X28534697Y7835534D01*
X28533339Y7834176D01*
X28531904Y7833217D01*
X28524805Y7825710D01*
X28522385Y7823223D01*
X28500567Y7801405D01*
X28438255Y7767379D01*
X28411472Y7764500D01*
X22424778Y7764500D01*
X22356657Y7784502D01*
X22310164Y7838158D01*
X22298778Y7890500D01*
X22298778Y8691092D01*
X22298951Y8697687D01*
X22300203Y8721570D01*
X22300203Y8721571D01*
X22300896Y8734797D01*
X22293465Y8754156D01*
X22287852Y8773103D01*
X22283539Y8793393D01*
X22275754Y8804109D01*
X22272659Y8811060D01*
X22269557Y8816436D01*
X22266010Y8825676D01*
X22265312Y8826539D01*
X22254369Y8837482D01*
X22220343Y8899794D01*
X22219210Y8947478D01*
X22221268Y8959714D01*
X22221268Y8959719D01*
X22222076Y8964519D01*
X22222228Y8976928D01*
X22221536Y8981758D01*
X22221221Y8986600D01*
X22222918Y8986711D01*
X22232012Y9049704D01*
X22278535Y9103334D01*
X22352960Y9123062D01*
X22353064Y9123016D01*
X22354168Y9122900D01*
X22374534Y9122900D01*
X22394243Y9121349D01*
X22400910Y9120293D01*
X22400911Y9120293D01*
X22413988Y9118222D01*
X22426777Y9121649D01*
X22440003Y9122342D01*
X22440029Y9121846D01*
X22448035Y9122900D01*
X25511317Y9122900D01*
X25517912Y9122727D01*
X25541792Y9121475D01*
X25541794Y9121475D01*
X25555021Y9120782D01*
X25574380Y9128214D01*
X25593331Y9133827D01*
X25600663Y9135385D01*
X25600665Y9135386D01*
X25613617Y9138139D01*
X25624330Y9145923D01*
X25631271Y9149013D01*
X25636642Y9152114D01*
X25645899Y9155668D01*
X25646762Y9156367D01*
X25661151Y9170756D01*
X25676184Y9183597D01*
X25680239Y9186543D01*
X25692370Y9195357D01*
X25698990Y9206824D01*
X25707853Y9216667D01*
X25708222Y9216335D01*
X25713142Y9222747D01*
X26274426Y9784030D01*
X26843768Y10353372D01*
X26848553Y10357914D01*
X26866349Y10373937D01*
X26866350Y10373938D01*
X26876191Y10382799D01*
X26884625Y10401741D01*
X26894056Y10419112D01*
X26898138Y10425397D01*
X26898139Y10425399D01*
X26905351Y10436505D01*
X26907423Y10449587D01*
X26910149Y10456690D01*
X26911751Y10462671D01*
X26915784Y10471728D01*
X26915900Y10472832D01*
X26915900Y10493197D01*
X26917451Y10512906D01*
X26918507Y10519573D01*
X26918507Y10519574D01*
X26920578Y10532651D01*
X26917151Y10545440D01*
X26916458Y10558666D01*
X26916954Y10558692D01*
X26915900Y10566698D01*
X26915900Y20428248D01*
X26935902Y20496369D01*
X26990723Y20542918D01*
X26996421Y20544472D01*
X27119140Y20619822D01*
X27130139Y20631973D01*
X27209750Y20719926D01*
X27209751Y20719927D01*
X27215778Y20726586D01*
X27278567Y20856182D01*
X27302458Y20998191D01*
X27302610Y21010600D01*
X27282195Y21153151D01*
X27222592Y21284242D01*
X27128591Y21393335D01*
X27007750Y21471660D01*
X26869782Y21512921D01*
X26860806Y21512976D01*
X26860805Y21512976D01*
X26800392Y21513345D01*
X26725780Y21513801D01*
X26587319Y21474228D01*
X26583264Y21471670D01*
X26514999Y21462396D01*
X26450650Y21492390D01*
X26412732Y21552412D01*
X26407900Y21586970D01*
X26407900Y21784032D01*
X26408073Y21790627D01*
X26409325Y21814508D01*
X26409325Y21814510D01*
X26410018Y21827737D01*
X26402586Y21847097D01*
X26396971Y21866054D01*
X26395415Y21873377D01*
X26395414Y21873379D01*
X26392661Y21886332D01*
X26384876Y21897047D01*
X26381786Y21903986D01*
X26378692Y21909340D01*
X26375132Y21918616D01*
X26374433Y21919478D01*
X26360038Y21933873D01*
X26347197Y21948907D01*
X26343226Y21954373D01*
X26343225Y21954374D01*
X26335443Y21965085D01*
X26323976Y21971705D01*
X26314133Y21980568D01*
X26314465Y21980936D01*
X26308058Y21985853D01*
X26174066Y22119845D01*
X26140041Y22182156D01*
X26145105Y22252972D01*
X26174723Y22294689D01*
X26173030Y22296222D01*
X26263640Y22396326D01*
X26263641Y22396327D01*
X26269668Y22402986D01*
X26332457Y22532582D01*
X26356348Y22674591D01*
X26356500Y22687000D01*
X26336085Y22829551D01*
X26329688Y22843622D01*
X26280198Y22952468D01*
X26276482Y22960642D01*
X26182481Y23069735D01*
X26061640Y23148060D01*
X25923672Y23189321D01*
X25914696Y23189376D01*
X25914695Y23189376D01*
X25854282Y23189745D01*
X25779670Y23190201D01*
X25641209Y23150628D01*
X25519420Y23073785D01*
X25424093Y22965849D01*
X25362893Y22835496D01*
X25340738Y22693205D01*
X25359410Y22550416D01*
X25363024Y22542202D01*
X25363025Y22542199D01*
X25413793Y22426819D01*
X25417407Y22418606D01*
X25510068Y22308373D01*
X25517539Y22303400D01*
X25517540Y22303399D01*
X25563320Y22272925D01*
X25608943Y22218527D01*
X25619501Y22168038D01*
X25619501Y22128417D01*
X25619328Y22121823D01*
X25617382Y22084694D01*
X25622129Y22072328D01*
X25622129Y22072327D01*
X25624815Y22065329D01*
X25630430Y22046374D01*
X25634740Y22026098D01*
X25642525Y22015384D01*
X25645616Y22008441D01*
X25648713Y22003078D01*
X25652268Y21993816D01*
X25652967Y21992953D01*
X25667363Y21978557D01*
X25680203Y21963524D01*
X25691958Y21947345D01*
X25703428Y21940722D01*
X25713266Y21931864D01*
X25712934Y21931495D01*
X25719339Y21926578D01*
X25912795Y21733122D01*
X25946821Y21670810D01*
X25949700Y21644027D01*
X25949701Y13463568D01*
X25949700Y13189622D01*
X25929698Y13121501D01*
X25912795Y13100527D01*
X24528287Y11716018D01*
X23194852Y10382583D01*
X23132540Y10348557D01*
X23061725Y10353622D01*
X23033379Y10370503D01*
X23032881Y10369735D01*
X22987234Y10399322D01*
X22912040Y10448060D01*
X22774072Y10489321D01*
X22765096Y10489376D01*
X22765095Y10489376D01*
X22704682Y10489745D01*
X22630070Y10490201D01*
X22491609Y10450628D01*
X22491075Y10452496D01*
X22431969Y10444461D01*
X22367617Y10474450D01*
X22336159Y10516886D01*
X22328991Y10532651D01*
X22314082Y10565442D01*
X22220081Y10674535D01*
X22099240Y10752860D01*
X21961272Y10794121D01*
X21952296Y10794176D01*
X21952295Y10794176D01*
X21891882Y10794545D01*
X21817270Y10795001D01*
X21678809Y10755428D01*
X21671222Y10750641D01*
X21671220Y10750640D01*
X21659563Y10743285D01*
X21557020Y10678585D01*
X21551077Y10671856D01*
X21468531Y10578391D01*
X21461693Y10570649D01*
X21400493Y10440296D01*
X21399112Y10431428D01*
X21399112Y10431427D01*
X21379865Y10307811D01*
X21378338Y10298005D01*
X21379502Y10289103D01*
X21379502Y10289100D01*
X21383768Y10256478D01*
X21397010Y10155216D01*
X21400624Y10147002D01*
X21400625Y10146999D01*
X21451393Y10031619D01*
X21455007Y10023406D01*
X21460781Y10016537D01*
X21541894Y9920041D01*
X21541897Y9920038D01*
X21547668Y9913173D01*
X21555136Y9908202D01*
X21555137Y9908201D01*
X21615265Y9868176D01*
X21660887Y9813778D01*
X21668689Y9789493D01*
X21672340Y9772319D01*
X21680125Y9761605D01*
X21684405Y9751991D01*
X21693840Y9681624D01*
X21663734Y9617327D01*
X21603646Y9579513D01*
X21532653Y9580188D01*
X21480204Y9611646D01*
X20423050Y10668799D01*
X20389025Y10731111D01*
X20386145Y10757894D01*
X20386145Y14341643D01*
X20406147Y14409764D01*
X20459803Y14456257D01*
X20530077Y14466361D01*
X20595552Y14436084D01*
X20625779Y14409389D01*
X20633906Y14405573D01*
X20639010Y14402221D01*
X20646474Y14397736D01*
X20651823Y14394807D01*
X20659002Y14389427D01*
X20667401Y14386278D01*
X20667407Y14386275D01*
X20700385Y14373912D01*
X20709698Y14369988D01*
X20749716Y14351200D01*
X20758587Y14349819D01*
X20764412Y14348038D01*
X20772808Y14345835D01*
X20778798Y14344518D01*
X20787206Y14341366D01*
X20831292Y14338090D01*
X20841313Y14336938D01*
X20848299Y14335850D01*
X20848308Y14335849D01*
X20853120Y14335100D01*
X20866844Y14335100D01*
X20876183Y14334753D01*
X20914792Y14331883D01*
X20914795Y14331883D01*
X20923746Y14331218D01*
X20932525Y14333092D01*
X20941482Y14333703D01*
X20941486Y14333649D01*
X20955228Y14335100D01*
X22675859Y14335100D01*
X22713434Y14329367D01*
X22761629Y14314309D01*
X22761633Y14314308D01*
X22770196Y14311633D01*
X22835739Y14310432D01*
X22905199Y14309159D01*
X22905202Y14309159D01*
X22914177Y14308995D01*
X22922840Y14311357D01*
X22922842Y14311357D01*
X23044447Y14344510D01*
X23053111Y14346872D01*
X23147405Y14404769D01*
X23168182Y14417526D01*
X23175830Y14422222D01*
X23272468Y14528986D01*
X23283774Y14552320D01*
X23331343Y14650503D01*
X23331344Y14650505D01*
X23335257Y14658582D01*
X23359148Y14800591D01*
X23359300Y14813000D01*
X23340965Y14941029D01*
X23340158Y14946665D01*
X23340157Y14946668D01*
X23338885Y14955551D01*
X23279282Y15086642D01*
X23185281Y15195735D01*
X23064440Y15274060D01*
X22926472Y15315321D01*
X22917496Y15315376D01*
X22917495Y15315376D01*
X22857082Y15315745D01*
X22782470Y15316201D01*
X22713882Y15296598D01*
X22710918Y15295751D01*
X22676293Y15290900D01*
X21178250Y15290900D01*
X21110129Y15310902D01*
X21107584Y15312814D01*
X21106836Y15313682D01*
X20985995Y15392007D01*
X20848027Y15433268D01*
X20839051Y15433323D01*
X20839050Y15433323D01*
X20778637Y15433692D01*
X20704025Y15434148D01*
X20565564Y15394575D01*
X20557974Y15389786D01*
X20549778Y15386120D01*
X20548573Y15388815D01*
X20494610Y15373457D01*
X20426658Y15394026D01*
X20380614Y15448068D01*
X20376122Y15461864D01*
X20373660Y15467393D01*
X20370906Y15480350D01*
X20363121Y15491065D01*
X20360033Y15498001D01*
X20356933Y15503370D01*
X20353377Y15512633D01*
X20352678Y15513496D01*
X20338283Y15527891D01*
X20325442Y15542925D01*
X20321471Y15548391D01*
X20321470Y15548392D01*
X20313688Y15559103D01*
X20302221Y15565723D01*
X20292378Y15574586D01*
X20292710Y15574955D01*
X20286301Y15579873D01*
X18877140Y16989033D01*
X18843115Y17051345D01*
X18848179Y17122160D01*
X18872817Y17162679D01*
X18921068Y17215986D01*
X18935608Y17245995D01*
X18979943Y17337503D01*
X18979944Y17337505D01*
X18983857Y17345582D01*
X18995671Y17415804D01*
X19026698Y17479662D01*
X19087323Y17516609D01*
X19119925Y17520900D01*
X19477089Y17520900D01*
X19545210Y17500898D01*
X19573540Y17475975D01*
X19655690Y17378246D01*
X19655692Y17378244D01*
X19661468Y17371373D01*
X19668939Y17366400D01*
X19668940Y17366399D01*
X19773870Y17296551D01*
X19773873Y17296550D01*
X19781343Y17291577D01*
X19789907Y17288901D01*
X19789910Y17288900D01*
X19910229Y17251309D01*
X19910233Y17251308D01*
X19918796Y17248633D01*
X19984339Y17247432D01*
X20053799Y17246159D01*
X20053802Y17246159D01*
X20062777Y17245995D01*
X20071440Y17248357D01*
X20071442Y17248357D01*
X20193047Y17281510D01*
X20201711Y17283872D01*
X20324430Y17359222D01*
X20358183Y17396512D01*
X20415040Y17459326D01*
X20415041Y17459327D01*
X20421068Y17465986D01*
X20444853Y17515077D01*
X20479943Y17587503D01*
X20479944Y17587505D01*
X20483857Y17595582D01*
X20507748Y17737591D01*
X20507900Y17750000D01*
X20497867Y17820058D01*
X20488758Y17883665D01*
X20488757Y17883668D01*
X20487485Y17892551D01*
X20427882Y18023642D01*
X20333881Y18132735D01*
X20213040Y18211060D01*
X20075072Y18252321D01*
X20066096Y18252376D01*
X20066095Y18252376D01*
X20005682Y18252745D01*
X19931070Y18253201D01*
X19792609Y18213628D01*
X19670820Y18136785D01*
X19575493Y18028849D01*
X19574433Y18029785D01*
X19527548Y17989970D01*
X19476351Y17979100D01*
X18757070Y17979100D01*
X18750477Y17979273D01*
X18726607Y17980524D01*
X18726606Y17980524D01*
X18713378Y17981217D01*
X18702265Y17976951D01*
X18647707Y17980599D01*
X18575072Y18002321D01*
X18566096Y18002376D01*
X18566095Y18002376D01*
X18505682Y18002745D01*
X18431070Y18003201D01*
X18292609Y17963628D01*
X18170820Y17886785D01*
X18075493Y17778849D01*
X18014293Y17648496D01*
X17992138Y17506205D01*
X17993302Y17497303D01*
X17993302Y17497300D01*
X17995609Y17479662D01*
X18010810Y17363416D01*
X18014425Y17355199D01*
X18014426Y17355197D01*
X18048726Y17277243D01*
X18057852Y17206836D01*
X18027465Y17142671D01*
X17967212Y17105121D01*
X17933396Y17100498D01*
X17743104Y17100498D01*
X17674983Y17120500D01*
X17628403Y17174347D01*
X17614099Y17205806D01*
X17610383Y17213980D01*
X17516382Y17323073D01*
X17395541Y17401398D01*
X17257573Y17442659D01*
X17248597Y17442714D01*
X17248596Y17442714D01*
X17188183Y17443083D01*
X17113571Y17443539D01*
X16975110Y17403966D01*
X16967523Y17399179D01*
X16967521Y17399178D01*
X16923453Y17371373D01*
X16853321Y17327123D01*
X16847378Y17320394D01*
X16786364Y17251309D01*
X16757994Y17219187D01*
X16696794Y17088834D01*
X16695413Y17079966D01*
X16695413Y17079965D01*
X16681255Y16989033D01*
X16674639Y16946543D01*
X16693311Y16803754D01*
X16696926Y16795538D01*
X16696928Y16795531D01*
X16717278Y16749282D01*
X16726405Y16678874D01*
X16696018Y16614709D01*
X16647142Y16580920D01*
X16646317Y16580603D01*
X16627324Y16574973D01*
X16619998Y16573416D01*
X16619997Y16573415D01*
X16607044Y16570662D01*
X16596329Y16562877D01*
X16589393Y16559789D01*
X16584024Y16556689D01*
X16574761Y16553133D01*
X16573898Y16552434D01*
X16559503Y16538039D01*
X16544470Y16525199D01*
X16528291Y16513444D01*
X16521671Y16501977D01*
X16512808Y16492134D01*
X16512440Y16492466D01*
X16507523Y16486059D01*
X16283199Y16261734D01*
X16278434Y16257212D01*
X16250783Y16232315D01*
X16245397Y16220218D01*
X16245396Y16220216D01*
X16242346Y16213366D01*
X16232911Y16195989D01*
X16221623Y16178607D01*
X16219551Y16165525D01*
X16216828Y16158431D01*
X16215225Y16152448D01*
X16211190Y16143385D01*
X16211074Y16142281D01*
X16211074Y16121916D01*
X16209521Y16102196D01*
X16209035Y16099129D01*
X16178618Y16034978D01*
X16151824Y16012288D01*
X16118591Y15991320D01*
X16118584Y15991314D01*
X16110994Y15986525D01*
X16015667Y15878589D01*
X15954467Y15748236D01*
X15953086Y15739368D01*
X15953086Y15739367D01*
X15944520Y15684348D01*
X15932312Y15605945D01*
X15933476Y15597043D01*
X15933476Y15597040D01*
X15937255Y15568142D01*
X15950984Y15463156D01*
X15954598Y15454942D01*
X15954599Y15454939D01*
X15988690Y15377461D01*
X16008981Y15331346D01*
X16014755Y15324477D01*
X16093988Y15230219D01*
X16101642Y15221113D01*
X16109113Y15216140D01*
X16109114Y15216139D01*
X16214044Y15146291D01*
X16214047Y15146290D01*
X16221517Y15141317D01*
X16230084Y15138640D01*
X16230085Y15138640D01*
X16278621Y15123476D01*
X16337677Y15084069D01*
X16366054Y15018990D01*
X16354741Y14948901D01*
X16330144Y14914117D01*
X14513830Y13097801D01*
X14451519Y13063777D01*
X14424736Y13060897D01*
X12693547Y13060897D01*
X12686954Y13061070D01*
X12663082Y13062321D01*
X12663081Y13062321D01*
X12649855Y13063014D01*
X12637493Y13058268D01*
X12637490Y13058268D01*
X12630505Y13055586D01*
X12611542Y13049969D01*
X12607718Y13049156D01*
X12591260Y13045658D01*
X12580547Y13037874D01*
X12573612Y13034787D01*
X12568251Y13031689D01*
X12558976Y13028129D01*
X12558114Y13027430D01*
X12543719Y13013035D01*
X12528686Y13000195D01*
X12512507Y12988440D01*
X12505887Y12976973D01*
X12497024Y12967130D01*
X12496655Y12967462D01*
X12491737Y12961053D01*
X11861725Y12331041D01*
X11799413Y12297015D01*
X11746743Y12299027D01*
X11746552Y12297748D01*
X11737682Y12299074D01*
X11729078Y12301647D01*
X11720101Y12301702D01*
X11720100Y12301702D01*
X11661077Y12302063D01*
X11585076Y12302527D01*
X11446615Y12262954D01*
X11439028Y12258167D01*
X11439026Y12258166D01*
X11387095Y12225400D01*
X11324826Y12186111D01*
X11229499Y12078175D01*
X11168299Y11947822D01*
X11146144Y11805531D01*
X11164816Y11662742D01*
X11168430Y11654528D01*
X11168431Y11654525D01*
X11193212Y11598206D01*
X11222813Y11530932D01*
X11228587Y11524063D01*
X11290028Y11450971D01*
X11315474Y11420699D01*
X11322945Y11415726D01*
X11322946Y11415725D01*
X11427876Y11345877D01*
X11427879Y11345876D01*
X11435349Y11340903D01*
X11443913Y11338227D01*
X11443916Y11338226D01*
X11564235Y11300635D01*
X11564239Y11300634D01*
X11572802Y11297959D01*
X11638345Y11296758D01*
X11707805Y11295485D01*
X11707808Y11295485D01*
X11716783Y11295321D01*
X11725446Y11297683D01*
X11725448Y11297683D01*
X11847053Y11330836D01*
X11855717Y11333198D01*
X11903862Y11362759D01*
X11970784Y11403849D01*
X11970787Y11403851D01*
X11978436Y11408548D01*
X11984463Y11415206D01*
X11990694Y11420380D01*
X12055882Y11448505D01*
X12125928Y11436922D01*
X12167631Y11404514D01*
X12196737Y11369889D01*
X12202513Y11363018D01*
X12209984Y11358045D01*
X12209985Y11358044D01*
X12314915Y11288196D01*
X12314918Y11288195D01*
X12322388Y11283222D01*
X12330952Y11280546D01*
X12330955Y11280545D01*
X12451274Y11242954D01*
X12451278Y11242953D01*
X12459841Y11240278D01*
X12525384Y11239077D01*
X12594844Y11237804D01*
X12594847Y11237804D01*
X12603822Y11237640D01*
X12612485Y11240002D01*
X12612487Y11240002D01*
X12723012Y11270134D01*
X12742756Y11275517D01*
X12849247Y11340903D01*
X12857827Y11346171D01*
X12865475Y11350867D01*
X12878330Y11365069D01*
X12956085Y11450971D01*
X12956086Y11450972D01*
X12962113Y11457631D01*
X12970393Y11474721D01*
X13018095Y11527304D01*
X13086653Y11545750D01*
X13154301Y11524203D01*
X13180235Y11500859D01*
X13185289Y11494847D01*
X13185292Y11494844D01*
X13191068Y11487973D01*
X13198539Y11483000D01*
X13198540Y11482999D01*
X13303470Y11413151D01*
X13303473Y11413150D01*
X13310943Y11408177D01*
X13319507Y11405501D01*
X13319510Y11405500D01*
X13439829Y11367909D01*
X13439833Y11367908D01*
X13448396Y11365233D01*
X13513939Y11364032D01*
X13583399Y11362759D01*
X13583402Y11362759D01*
X13592377Y11362595D01*
X13601040Y11364957D01*
X13601042Y11364957D01*
X13671856Y11384263D01*
X13704997Y11388700D01*
X14556863Y11388700D01*
X14624984Y11368698D01*
X14626477Y11367570D01*
X14626500Y11367605D01*
X14634004Y11362676D01*
X14640732Y11356734D01*
X14648859Y11352918D01*
X14653969Y11349562D01*
X14661427Y11345081D01*
X14666776Y11342152D01*
X14673955Y11336772D01*
X14682354Y11333623D01*
X14682360Y11333620D01*
X14715338Y11321257D01*
X14724651Y11317333D01*
X14764669Y11298545D01*
X14773540Y11297164D01*
X14779365Y11295383D01*
X14787761Y11293180D01*
X14793751Y11291863D01*
X14802159Y11288711D01*
X14846245Y11285435D01*
X14856266Y11284283D01*
X14863252Y11283195D01*
X14863261Y11283194D01*
X14868073Y11282445D01*
X14881797Y11282445D01*
X14891136Y11282098D01*
X14929745Y11279228D01*
X14929748Y11279228D01*
X14938699Y11278563D01*
X14947478Y11280437D01*
X14956435Y11281048D01*
X14956439Y11280994D01*
X14970181Y11282445D01*
X15165254Y11282445D01*
X15233375Y11262443D01*
X15279868Y11208787D01*
X15289972Y11138513D01*
X15279309Y11102897D01*
X15269230Y11081430D01*
X15267849Y11072562D01*
X15267849Y11072561D01*
X15253620Y10981173D01*
X15247075Y10939139D01*
X15260578Y10835885D01*
X15261008Y10832594D01*
X15250008Y10762455D01*
X15225168Y10727161D01*
X14950504Y10452496D01*
X14697571Y10199563D01*
X14635258Y10165538D01*
X14564443Y10170602D01*
X14513022Y10206410D01*
X14506352Y10214152D01*
X14448473Y10281323D01*
X14327632Y10359648D01*
X14189664Y10400909D01*
X14180688Y10400964D01*
X14180687Y10400964D01*
X14120274Y10401333D01*
X14045662Y10401789D01*
X13907201Y10362216D01*
X13899614Y10357429D01*
X13899612Y10357428D01*
X13878612Y10344178D01*
X13785412Y10285373D01*
X13779469Y10278644D01*
X13697233Y10185530D01*
X13690085Y10177437D01*
X13686271Y10169314D01*
X13686270Y10169312D01*
X13666728Y10127688D01*
X13642853Y10076834D01*
X13635506Y10061186D01*
X13588450Y10008024D01*
X13520122Y9988741D01*
X13452216Y10009460D01*
X13432356Y10025638D01*
X12893173Y10564820D01*
X12888632Y10569606D01*
X12880722Y10578391D01*
X12863753Y10597237D01*
X12851656Y10602623D01*
X12851653Y10602625D01*
X12844806Y10605673D01*
X12827429Y10615108D01*
X12821152Y10619185D01*
X12821148Y10619186D01*
X12810045Y10626397D01*
X12796965Y10628469D01*
X12789873Y10631191D01*
X12783888Y10632795D01*
X12774824Y10636830D01*
X12773720Y10636946D01*
X12753354Y10636946D01*
X12733644Y10638497D01*
X12726977Y10639553D01*
X12713900Y10641624D01*
X12701111Y10638197D01*
X12687884Y10637504D01*
X12687858Y10638000D01*
X12679853Y10636946D01*
X10397527Y10636946D01*
X10329406Y10656948D01*
X10282913Y10710604D01*
X10272809Y10780878D01*
X10284134Y10817883D01*
X10292856Y10835885D01*
X10296769Y10843961D01*
X10320660Y10985970D01*
X10320812Y10998379D01*
X10308600Y11083654D01*
X10301670Y11132044D01*
X10301669Y11132047D01*
X10300397Y11140930D01*
X10294000Y11155001D01*
X10270550Y11206576D01*
X10240794Y11272021D01*
X10146793Y11381114D01*
X10031568Y11455799D01*
X9985284Y11509635D01*
X9974100Y11561531D01*
X9974100Y23319350D01*
X9994102Y23387471D01*
X10015994Y23412204D01*
X10018630Y23413822D01*
X10115268Y23520586D01*
X10178057Y23650182D01*
X10201948Y23792191D01*
X10202100Y23804600D01*
X10181685Y23947151D01*
X10175288Y23961222D01*
X10152526Y24011283D01*
X10122082Y24078242D01*
X10028081Y24187335D01*
X9907240Y24265660D01*
X9769272Y24306921D01*
X9760296Y24306976D01*
X9760295Y24306976D01*
X9699882Y24307345D01*
X9625270Y24307801D01*
X9486809Y24268228D01*
X9365020Y24191385D01*
X9269693Y24083449D01*
X9208493Y23953096D01*
X9186338Y23810805D01*
X9205010Y23668016D01*
X9208624Y23659802D01*
X9208625Y23659799D01*
X9259393Y23544419D01*
X9263007Y23536206D01*
X9355668Y23425973D01*
X9363140Y23420999D01*
X9369831Y23415017D01*
X9367825Y23412773D01*
X9403748Y23369928D01*
X9414300Y23319454D01*
X9414301Y11352014D01*
X9393742Y11283271D01*
X9388405Y11277228D01*
X9372314Y11242954D01*
X9338509Y11170951D01*
X9327205Y11146875D01*
X9325824Y11138007D01*
X9325824Y11138006D01*
X9308000Y11023529D01*
X9305050Y11004584D01*
X9323722Y10861795D01*
X9327338Y10853577D01*
X9327339Y10853573D01*
X9344887Y10813692D01*
X9354015Y10743285D01*
X9323628Y10679120D01*
X9263375Y10641569D01*
X9229558Y10636946D01*
X8466722Y10636946D01*
X8398601Y10656948D01*
X8352108Y10710604D01*
X8341120Y10754235D01*
X8341164Y10757845D01*
X8340276Y10764050D01*
X8322022Y10891510D01*
X8322021Y10891513D01*
X8320749Y10900396D01*
X8314352Y10914467D01*
X8278414Y10993508D01*
X8261146Y11031487D01*
X8167145Y11140580D01*
X8046304Y11218905D01*
X7908336Y11260166D01*
X7899360Y11260221D01*
X7899359Y11260221D01*
X7838946Y11260590D01*
X7764334Y11261046D01*
X7625873Y11221473D01*
X7618286Y11216686D01*
X7618284Y11216685D01*
X7558747Y11179120D01*
X7504084Y11144630D01*
X7498141Y11137901D01*
X7414748Y11043477D01*
X7408757Y11036694D01*
X7347557Y10906341D01*
X7346176Y10897473D01*
X7346176Y10897472D01*
X7334746Y10824063D01*
X7304502Y10759830D01*
X7244332Y10722146D01*
X7173340Y10722974D01*
X7125935Y10749812D01*
X7121273Y10754009D01*
X7113488Y10764725D01*
X7102018Y10771347D01*
X7092177Y10780208D01*
X7092510Y10780577D01*
X7086103Y10785494D01*
X7048210Y10823387D01*
X7014184Y10885699D01*
X7013051Y10933386D01*
X7026141Y11011194D01*
X7026948Y11015991D01*
X7027100Y11028400D01*
X7012257Y11132044D01*
X7007958Y11162065D01*
X7007957Y11162068D01*
X7006685Y11170951D01*
X7000288Y11185022D01*
X6982562Y11224007D01*
X6947082Y11302042D01*
X6853081Y11411135D01*
X6732240Y11489460D01*
X6594272Y11530721D01*
X6585296Y11530776D01*
X6585295Y11530776D01*
X6524882Y11531145D01*
X6450270Y11531601D01*
X6311809Y11492028D01*
X6304222Y11487241D01*
X6304220Y11487240D01*
X6284379Y11474721D01*
X6190020Y11415185D01*
X6184077Y11408456D01*
X6107065Y11321257D01*
X6094693Y11307249D01*
X6033493Y11176896D01*
X6032112Y11168028D01*
X6032112Y11168027D01*
X6016320Y11066599D01*
X6011338Y11034605D01*
X6012502Y11025703D01*
X6012502Y11025700D01*
X6016075Y10998379D01*
X6030010Y10891816D01*
X6033624Y10883602D01*
X6033625Y10883599D01*
X6080757Y10776482D01*
X6088007Y10760006D01*
X6093781Y10753137D01*
X6165779Y10667486D01*
X6180668Y10649773D01*
X6188139Y10644800D01*
X6188140Y10644799D01*
X6293070Y10574951D01*
X6293073Y10574950D01*
X6300543Y10569977D01*
X6309107Y10567301D01*
X6309110Y10567300D01*
X6429429Y10529709D01*
X6429433Y10529708D01*
X6437996Y10527033D01*
X6504721Y10525810D01*
X6573000Y10524559D01*
X6573003Y10524559D01*
X6581977Y10524395D01*
X6594049Y10527686D01*
X6596224Y10528279D01*
X6667207Y10526897D01*
X6726175Y10487359D01*
X6741106Y10463369D01*
X6742984Y10454533D01*
X6750766Y10443822D01*
X6753854Y10436886D01*
X6756958Y10431511D01*
X6760513Y10422250D01*
X6761212Y10421387D01*
X6775604Y10406995D01*
X6788445Y10391961D01*
X6800202Y10375779D01*
X6811668Y10369159D01*
X6821513Y10360295D01*
X6821181Y10359927D01*
X6827591Y10355008D01*
X7111479Y10071119D01*
X7111480Y10071118D01*
X7111483Y10071116D01*
X7267323Y9915275D01*
X7301348Y9852963D01*
X7296283Y9782147D01*
X7253736Y9725312D01*
X7197361Y9702180D01*
X7192268Y9702211D01*
X7053807Y9662638D01*
X7046220Y9657851D01*
X7046218Y9657850D01*
X7016940Y9639377D01*
X6932018Y9585795D01*
X6926075Y9579066D01*
X6847771Y9490404D01*
X6836691Y9477859D01*
X6775491Y9347506D01*
X6774110Y9338638D01*
X6774110Y9338637D01*
X6755136Y9216773D01*
X6753336Y9205215D01*
X6754500Y9196313D01*
X6754500Y9196310D01*
X6756056Y9184412D01*
X6772008Y9062426D01*
X6775622Y9054212D01*
X6775623Y9054209D01*
X6825636Y8940546D01*
X6830005Y8930616D01*
X6835779Y8923747D01*
X6899493Y8847951D01*
X6922666Y8820383D01*
X6930137Y8815410D01*
X6930138Y8815409D01*
X7035068Y8745561D01*
X7035071Y8745560D01*
X7042541Y8740587D01*
X7051105Y8737911D01*
X7051108Y8737910D01*
X7171427Y8700319D01*
X7171431Y8700318D01*
X7179994Y8697643D01*
X7245537Y8696442D01*
X7314997Y8695169D01*
X7315000Y8695169D01*
X7323975Y8695005D01*
X7332638Y8697367D01*
X7332640Y8697367D01*
X7454245Y8730520D01*
X7462909Y8732882D01*
X7585628Y8808232D01*
X7612104Y8837482D01*
X7676238Y8908336D01*
X7676239Y8908337D01*
X7682266Y8914996D01*
X7698004Y8947478D01*
X7741141Y9036513D01*
X7741142Y9036515D01*
X7745055Y9044592D01*
X7768946Y9186601D01*
X7769054Y9195447D01*
X7789886Y9263318D01*
X7844105Y9309153D01*
X7895045Y9319909D01*
X8564515Y9319909D01*
X8632636Y9299907D01*
X8679129Y9246251D01*
X8689233Y9175977D01*
X8658956Y9110501D01*
X8609240Y9054209D01*
X8594978Y9038060D01*
X8581012Y9008313D01*
X8540996Y8923080D01*
X8533778Y8907707D01*
X8532397Y8898839D01*
X8532397Y8898838D01*
X8518025Y8806531D01*
X8511623Y8765416D01*
X8512787Y8756514D01*
X8512787Y8756511D01*
X8520809Y8695169D01*
X8530295Y8622627D01*
X8533911Y8614409D01*
X8536325Y8605761D01*
X8534082Y8605135D01*
X8541573Y8547317D01*
X8511182Y8483154D01*
X8461442Y8451928D01*
X8462233Y8450160D01*
X8454037Y8446494D01*
X8445409Y8444028D01*
X8323620Y8367185D01*
X8317677Y8360456D01*
X8310174Y8351960D01*
X8228293Y8259249D01*
X8167093Y8128896D01*
X8165712Y8120028D01*
X8165712Y8120027D01*
X8151884Y8031213D01*
X8144938Y7986605D01*
X8146102Y7977703D01*
X8146102Y7977701D01*
X8155369Y7906838D01*
X8144369Y7836698D01*
X8097195Y7783641D01*
X8030433Y7764500D01*
X7888526Y7764500D01*
X7820405Y7784502D01*
X7799431Y7801405D01*
X7778233Y7822603D01*
X7775630Y7825284D01*
X7771945Y7829195D01*
X7771943Y7829197D01*
X7768255Y7833110D01*
X7766658Y7834177D01*
X7765437Y7835398D01*
X7756717Y7840879D01*
X7753765Y7842792D01*
X7752233Y7843816D01*
X7587158Y7954115D01*
X7583291Y7956699D01*
X7580213Y7958822D01*
X7575843Y7961934D01*
X7575840Y7961936D01*
X7571453Y7965059D01*
X7569680Y7965793D01*
X7568241Y7966755D01*
X7562939Y7968780D01*
X7558594Y7970439D01*
X7555327Y7971739D01*
X7540934Y7977701D01*
X7365931Y8050190D01*
X7362509Y8051667D01*
X7357567Y8053888D01*
X7357566Y8053888D01*
X7352689Y8056080D01*
X7350806Y8056455D01*
X7349209Y8057116D01*
X7344098Y8057985D01*
X7339022Y8058848D01*
X7335579Y8059483D01*
X7142154Y8097958D01*
X7135606Y8099443D01*
X7125220Y8102092D01*
X7120852Y8102195D01*
X7116757Y8103010D01*
X7109689Y8102813D01*
X7109686Y8102813D01*
X7106107Y8102713D01*
X7099612Y8102699D01*
X6990009Y8105294D01*
X6990006Y8105294D01*
X6982941Y8105461D01*
X6976013Y8104052D01*
X6976010Y8104052D01*
X6968512Y8102527D01*
X6943405Y8100000D01*
X6656685Y8100000D01*
X6631362Y8102571D01*
X6624231Y8104034D01*
X6617251Y8105466D01*
X6562989Y8104181D01*
X6500855Y8102710D01*
X6494144Y8102730D01*
X6490554Y8102836D01*
X6490552Y8102836D01*
X6483430Y8103047D01*
X6479146Y8102195D01*
X6474972Y8102096D01*
X6464614Y8099474D01*
X6458315Y8098051D01*
X6265241Y8059646D01*
X6261636Y8058984D01*
X6250967Y8057189D01*
X6249192Y8056454D01*
X6247499Y8056117D01*
X6242758Y8053996D01*
X6242757Y8053996D01*
X6238095Y8051911D01*
X6234866Y8050520D01*
X6045455Y7972063D01*
X6041982Y7970685D01*
X6036968Y7968780D01*
X6036964Y7968778D01*
X6031918Y7966861D01*
X6030322Y7965794D01*
X6028725Y7965133D01*
X6024462Y7962109D01*
X6024460Y7962108D01*
X6020313Y7959166D01*
X6017419Y7957173D01*
X5886949Y7869996D01*
X5846967Y7843281D01*
X5843823Y7841247D01*
X5843111Y7840801D01*
X5834697Y7835534D01*
X5833339Y7834176D01*
X5831904Y7833217D01*
X5824805Y7825710D01*
X5822385Y7823223D01*
X5800567Y7801405D01*
X5738255Y7767379D01*
X5711472Y7764500D01*
X326000Y7764500D01*
X257879Y7784502D01*
X211386Y7838158D01*
X200000Y7890500D01*
X200000Y36429400D01*
X11700800Y36429400D01*
X11700800Y24286200D01*
X11704283Y24253806D01*
X11715669Y24201464D01*
X11749410Y24134057D01*
X11795903Y24080401D01*
X11803480Y24075531D01*
X11803483Y24075529D01*
X11843795Y24049622D01*
X11868143Y24033975D01*
X11876787Y24031437D01*
X11876789Y24031436D01*
X11931941Y24015242D01*
X11931945Y24015241D01*
X11936264Y24013973D01*
X11940712Y24013333D01*
X11940719Y24013332D01*
X11974752Y24008439D01*
X11974759Y24008439D01*
X11979200Y24007800D01*
X15003800Y24007800D01*
X15036194Y24011283D01*
X15088536Y24022669D01*
X15155943Y24056410D01*
X15209599Y24102903D01*
X15214469Y24110480D01*
X15214471Y24110483D01*
X15251154Y24167564D01*
X15256025Y24175143D01*
X15258564Y24183789D01*
X15274758Y24238941D01*
X15274759Y24238945D01*
X15276027Y24243264D01*
X15277543Y24253806D01*
X15281561Y24281752D01*
X15281561Y24281759D01*
X15282200Y24286200D01*
X15282200Y26264840D01*
X15302202Y26332961D01*
X15355858Y26379454D01*
X15426132Y26389558D01*
X15468949Y26375228D01*
X16739918Y25675763D01*
X16894123Y25590898D01*
X16938824Y25566297D01*
X16974369Y25552210D01*
X16978207Y25551224D01*
X16978209Y25551223D01*
X16995451Y25546792D01*
X17035120Y25536597D01*
X17039046Y25536101D01*
X17039054Y25536099D01*
X17056383Y25533908D01*
X17073054Y25531800D01*
X17512301Y25531800D01*
X17521826Y25532828D01*
X17541470Y25534949D01*
X17541478Y25534950D01*
X17544828Y25535312D01*
X17548120Y25536031D01*
X17548125Y25536032D01*
X17589668Y25545108D01*
X17597376Y25546792D01*
X17633309Y25564839D01*
X17659911Y25578199D01*
X17729763Y25590898D01*
X17784582Y25571600D01*
X17798203Y25562846D01*
X17798205Y25562845D01*
X17805783Y25557975D01*
X17814427Y25555437D01*
X17814429Y25555436D01*
X17869581Y25539242D01*
X17869585Y25539241D01*
X17873904Y25537973D01*
X17878352Y25537333D01*
X17878359Y25537332D01*
X17912392Y25532439D01*
X17912399Y25532439D01*
X17916840Y25531800D01*
X18380392Y25531800D01*
X18398829Y25534087D01*
X18413763Y25535939D01*
X18413768Y25535940D01*
X18417622Y25536418D01*
X18421394Y25537368D01*
X18421398Y25537369D01*
X18473547Y25550507D01*
X18477318Y25551457D01*
X18512292Y25565029D01*
X18718120Y25675763D01*
X20024104Y26378372D01*
X20093570Y26393032D01*
X20159935Y26367808D01*
X20202127Y26310708D01*
X20209800Y26267411D01*
X20209800Y24286200D01*
X20213283Y24253806D01*
X20224669Y24201464D01*
X20258410Y24134057D01*
X20304903Y24080401D01*
X20312480Y24075531D01*
X20312483Y24075529D01*
X20352795Y24049622D01*
X20377143Y24033975D01*
X20385787Y24031437D01*
X20385789Y24031436D01*
X20440941Y24015242D01*
X20440945Y24015241D01*
X20445264Y24013973D01*
X20449712Y24013333D01*
X20449719Y24013332D01*
X20483752Y24008439D01*
X20483759Y24008439D01*
X20488200Y24007800D01*
X23665200Y24007800D01*
X23697594Y24011283D01*
X23749936Y24022669D01*
X23817343Y24056410D01*
X23870999Y24102903D01*
X23875869Y24110480D01*
X23875871Y24110483D01*
X23912554Y24167564D01*
X23917425Y24175143D01*
X23919964Y24183789D01*
X23936158Y24238941D01*
X23936159Y24238945D01*
X23937427Y24243264D01*
X23938943Y24253806D01*
X23942961Y24281752D01*
X23942961Y24281759D01*
X23943600Y24286200D01*
X23943600Y36429400D01*
X23940117Y36461794D01*
X23928731Y36514136D01*
X23894990Y36581543D01*
X23848497Y36635199D01*
X23840920Y36640069D01*
X23840917Y36640071D01*
X23791075Y36672102D01*
X23776257Y36681625D01*
X23767613Y36684163D01*
X23767611Y36684164D01*
X23712459Y36700358D01*
X23712455Y36700359D01*
X23708136Y36701627D01*
X23703688Y36702267D01*
X23703681Y36702268D01*
X23669648Y36707161D01*
X23669641Y36707161D01*
X23665200Y36707800D01*
X20488200Y36707800D01*
X20455806Y36704317D01*
X20403464Y36692931D01*
X20384580Y36683479D01*
X20361852Y36672102D01*
X20291983Y36659497D01*
X20229456Y36686714D01*
X20228997Y36685999D01*
X20224586Y36688834D01*
X20224585Y36688834D01*
X20215605Y36694606D01*
X20184179Y36714802D01*
X20156757Y36732425D01*
X20148113Y36734963D01*
X20148111Y36734964D01*
X20092959Y36751158D01*
X20092955Y36751159D01*
X20088636Y36752427D01*
X20084188Y36753067D01*
X20084181Y36753068D01*
X20050148Y36757961D01*
X20050141Y36757961D01*
X20045700Y36758600D01*
X17897627Y36758600D01*
X17865098Y36755088D01*
X17812549Y36743607D01*
X17745070Y36709715D01*
X17742069Y36707105D01*
X17676005Y36686305D01*
X17621570Y36701711D01*
X17620062Y36698409D01*
X17611861Y36702154D01*
X17604282Y36707025D01*
X17595638Y36709563D01*
X17595636Y36709564D01*
X17540484Y36725758D01*
X17540480Y36725759D01*
X17536161Y36727027D01*
X17531713Y36727667D01*
X17531706Y36727668D01*
X17497673Y36732561D01*
X17497666Y36732561D01*
X17493225Y36733200D01*
X15344700Y36733200D01*
X15312306Y36729717D01*
X15259964Y36718331D01*
X15192557Y36684590D01*
X15189184Y36681667D01*
X15122874Y36660905D01*
X15068644Y36676309D01*
X15067137Y36673009D01*
X15058936Y36676754D01*
X15051357Y36681625D01*
X15042713Y36684163D01*
X15042711Y36684164D01*
X14987559Y36700358D01*
X14987555Y36700359D01*
X14983236Y36701627D01*
X14978788Y36702267D01*
X14978781Y36702268D01*
X14944748Y36707161D01*
X14944741Y36707161D01*
X14940300Y36707800D01*
X11979200Y36707800D01*
X11946806Y36704317D01*
X11894464Y36692931D01*
X11827057Y36659190D01*
X11773401Y36612697D01*
X11768531Y36605120D01*
X11768529Y36605117D01*
X11753379Y36581543D01*
X11726975Y36540457D01*
X11724437Y36531813D01*
X11724436Y36531811D01*
X11719247Y36514136D01*
X11706973Y36472336D01*
X11706333Y36467888D01*
X11706332Y36467881D01*
X11704976Y36458443D01*
X11700800Y36429400D01*
X200000Y36429400D01*
X200000Y38339902D01*
X202394Y38358981D01*
X201687Y38359078D01*
X202658Y38366138D01*
X204419Y38373042D01*
X204654Y38382941D01*
X206241Y38449980D01*
X206813Y38459348D01*
X209355Y38485156D01*
X211169Y38497387D01*
X233949Y38611908D01*
X236952Y38623895D01*
X240384Y38635212D01*
X241159Y38637766D01*
X245323Y38649404D01*
X290006Y38757278D01*
X295290Y38768450D01*
X302129Y38781245D01*
X308485Y38791849D01*
X373351Y38888927D01*
X380710Y38898850D01*
X389917Y38910069D01*
X398222Y38919232D01*
X480774Y39001783D01*
X489930Y39010082D01*
X501165Y39019302D01*
X511061Y39026642D01*
X608166Y39091525D01*
X618746Y39097867D01*
X631555Y39104713D01*
X642722Y39109994D01*
X750587Y39154674D01*
X762229Y39158839D01*
X769330Y39160994D01*
X776121Y39163053D01*
X788106Y39166055D01*
X847644Y39177898D01*
X902605Y39188830D01*
X914834Y39190644D01*
X940663Y39193188D01*
X950023Y39193760D01*
X1026766Y39195577D01*
X1033620Y39197312D01*
X1040628Y39198270D01*
X1040719Y39197605D01*
X1059938Y39200000D01*
X35639902Y39200000D01*
X35658981Y39197606D01*
G37*
G04 #@! TD.AperFunction*
M02*
