G04 #@! TF.GenerationSoftware,KiCad,Pcbnew,(5.1.0-1558-g0ba0c1724)*
G04 #@! TF.CreationDate,2020-03-09T19:15:21-07:00*
G04 #@! TF.ProjectId,TMC2130_Driver,544d4332-3133-4305-9f44-72697665722e,rev?*
G04 #@! TF.SameCoordinates,PX67f3540PY6cb8080*
G04 #@! TF.FileFunction,Legend,Bot*
G04 #@! TF.FilePolarity,Positive*
%FSLAX46Y46*%
G04 Gerber Fmt 4.6, Leading zero omitted, Abs format (unit mm)*
G04 Created by KiCad (PCBNEW (5.1.0-1558-g0ba0c1724)) date 2020-03-09 19:15:21*
%MOMM*%
%LPD*%
G04 APERTURE LIST*
%ADD10C,0.150000*%
%ADD11C,0.010000*%
G04 APERTURE END LIST*
D10*
X29690476Y31852620D02*
X30261904Y31852620D01*
X29976190Y31852620D02*
X29976190Y32852620D01*
X30071428Y32709762D01*
X30166666Y32614524D01*
X30261904Y32566905D01*
X29309523Y32757381D02*
X29261904Y32805000D01*
X29166666Y32852620D01*
X28928571Y32852620D01*
X28833333Y32805000D01*
X28785714Y32757381D01*
X28738095Y32662143D01*
X28738095Y32566905D01*
X28785714Y32424048D01*
X29357142Y31852620D01*
X28738095Y31852620D01*
X28309523Y32233572D02*
X27547619Y32233572D01*
X26642857Y32519286D02*
X26642857Y31852620D01*
X26880952Y32900239D02*
X27119047Y32185953D01*
X26500000Y32185953D01*
X26166666Y32757381D02*
X26119047Y32805000D01*
X26023809Y32852620D01*
X25785714Y32852620D01*
X25690476Y32805000D01*
X25642857Y32757381D01*
X25595238Y32662143D01*
X25595238Y32566905D01*
X25642857Y32424048D01*
X26214285Y31852620D01*
X25595238Y31852620D01*
X25309523Y32852620D02*
X24976190Y31852620D01*
X24642857Y32852620D01*
X28261904Y30242620D02*
X28261904Y31242620D01*
X28023809Y31242620D01*
X27880952Y31195000D01*
X27785714Y31099762D01*
X27738095Y31004524D01*
X27690476Y30814048D01*
X27690476Y30671191D01*
X27738095Y30480715D01*
X27785714Y30385477D01*
X27880952Y30290239D01*
X28023809Y30242620D01*
X28261904Y30242620D01*
X26690476Y30337858D02*
X26738095Y30290239D01*
X26880952Y30242620D01*
X26976190Y30242620D01*
X27119047Y30290239D01*
X27214285Y30385477D01*
X27261904Y30480715D01*
X27309523Y30671191D01*
X27309523Y30814048D01*
X27261904Y31004524D01*
X27214285Y31099762D01*
X27119047Y31195000D01*
X26976190Y31242620D01*
X26880952Y31242620D01*
X26738095Y31195000D01*
X26690476Y31147381D01*
X29642857Y37678572D02*
X28880952Y37678572D01*
X29261904Y37297620D02*
X29261904Y38059524D01*
X26119047Y37678572D02*
X25357142Y37678572D01*
D11*
G36*
X7711252Y11337000D02*
G01*
X7711651Y11304661D01*
X7712929Y11196545D01*
X7713185Y11113814D01*
X7711634Y11053574D01*
X7707490Y11012927D01*
X7699964Y10988977D01*
X7688271Y10978829D01*
X7671624Y10979586D01*
X7649236Y10988352D01*
X7620321Y11002231D01*
X7614142Y11005192D01*
X7588413Y11019689D01*
X7574976Y11036935D01*
X7569834Y11065692D01*
X7568990Y11114717D01*
X7568952Y11202743D01*
X7478276Y11202743D01*
X7422498Y11205185D01*
X7378640Y11215092D01*
X7342218Y11235114D01*
X7339503Y11237071D01*
X7302546Y11270131D01*
X7276826Y11310069D01*
X7260606Y11362343D01*
X7252148Y11432412D01*
X7250084Y11511570D01*
X7394857Y11511570D01*
X7394882Y11498303D01*
X7396261Y11438416D01*
X7400687Y11399268D01*
X7409461Y11373847D01*
X7423886Y11355143D01*
X7424784Y11354250D01*
X7460237Y11330048D01*
X7494596Y11332433D01*
X7533403Y11361740D01*
X7542895Y11371756D01*
X7556876Y11392292D01*
X7564760Y11419003D01*
X7568245Y11459501D01*
X7569029Y11521397D01*
X7568350Y11558870D01*
X7560983Y11627020D01*
X7544168Y11671670D01*
X7516234Y11696074D01*
X7475509Y11703486D01*
X7458350Y11701906D01*
X7428660Y11686234D01*
X7409031Y11651309D01*
X7398188Y11594099D01*
X7394857Y11511570D01*
X7250084Y11511570D01*
X7249714Y11525733D01*
X7250253Y11593831D01*
X7252707Y11645413D01*
X7258158Y11681184D01*
X7267686Y11707985D01*
X7282371Y11732662D01*
X7295852Y11751520D01*
X7344799Y11802432D01*
X7400256Y11830082D01*
X7469928Y11838835D01*
X7549664Y11830110D01*
X7618595Y11798815D01*
X7673113Y11743619D01*
X7677223Y11737776D01*
X7686808Y11722247D01*
X7694151Y11704502D01*
X7699612Y11680710D01*
X7703550Y11647042D01*
X7706323Y11599667D01*
X7708292Y11534755D01*
X7708528Y11521397D01*
X7709815Y11448476D01*
X7711252Y11337000D01*
G37*
X7711252Y11337000D02*
X7711651Y11304661D01*
X7712929Y11196545D01*
X7713185Y11113814D01*
X7711634Y11053574D01*
X7707490Y11012927D01*
X7699964Y10988977D01*
X7688271Y10978829D01*
X7671624Y10979586D01*
X7649236Y10988352D01*
X7620321Y11002231D01*
X7614142Y11005192D01*
X7588413Y11019689D01*
X7574976Y11036935D01*
X7569834Y11065692D01*
X7568990Y11114717D01*
X7568952Y11202743D01*
X7478276Y11202743D01*
X7422498Y11205185D01*
X7378640Y11215092D01*
X7342218Y11235114D01*
X7339503Y11237071D01*
X7302546Y11270131D01*
X7276826Y11310069D01*
X7260606Y11362343D01*
X7252148Y11432412D01*
X7250084Y11511570D01*
X7394857Y11511570D01*
X7394882Y11498303D01*
X7396261Y11438416D01*
X7400687Y11399268D01*
X7409461Y11373847D01*
X7423886Y11355143D01*
X7424784Y11354250D01*
X7460237Y11330048D01*
X7494596Y11332433D01*
X7533403Y11361740D01*
X7542895Y11371756D01*
X7556876Y11392292D01*
X7564760Y11419003D01*
X7568245Y11459501D01*
X7569029Y11521397D01*
X7568350Y11558870D01*
X7560983Y11627020D01*
X7544168Y11671670D01*
X7516234Y11696074D01*
X7475509Y11703486D01*
X7458350Y11701906D01*
X7428660Y11686234D01*
X7409031Y11651309D01*
X7398188Y11594099D01*
X7394857Y11511570D01*
X7250084Y11511570D01*
X7249714Y11525733D01*
X7250253Y11593831D01*
X7252707Y11645413D01*
X7258158Y11681184D01*
X7267686Y11707985D01*
X7282371Y11732662D01*
X7295852Y11751520D01*
X7344799Y11802432D01*
X7400256Y11830082D01*
X7469928Y11838835D01*
X7549664Y11830110D01*
X7618595Y11798815D01*
X7673113Y11743619D01*
X7677223Y11737776D01*
X7686808Y11722247D01*
X7694151Y11704502D01*
X7699612Y11680710D01*
X7703550Y11647042D01*
X7706323Y11599667D01*
X7708292Y11534755D01*
X7708528Y11521397D01*
X7709815Y11448476D01*
X7711252Y11337000D01*
G36*
X6431020Y11832178D02*
G01*
X6498810Y11800320D01*
X6554366Y11745230D01*
X6565881Y11727984D01*
X6575432Y11708438D01*
X6582206Y11683802D01*
X6586819Y11649289D01*
X6589888Y11600111D01*
X6592029Y11531481D01*
X6593859Y11438611D01*
X6598404Y11180993D01*
X6560225Y11195509D01*
X6525268Y11208844D01*
X6499097Y11221677D01*
X6482013Y11238220D01*
X6472086Y11263535D01*
X6467386Y11302684D01*
X6465982Y11360732D01*
X6465943Y11442739D01*
X6465744Y11508105D01*
X6464559Y11570827D01*
X6461729Y11613666D01*
X6456609Y11641780D01*
X6448553Y11660325D01*
X6436914Y11674457D01*
X6408303Y11694400D01*
X6360239Y11701917D01*
X6312688Y11682921D01*
X6309550Y11680489D01*
X6299769Y11669252D01*
X6292553Y11651230D01*
X6287299Y11621974D01*
X6283402Y11577038D01*
X6280256Y11511972D01*
X6277257Y11422330D01*
X6270000Y11182303D01*
X6208314Y11209956D01*
X6146629Y11237609D01*
X6146629Y11456754D01*
X6146884Y11516289D01*
X6149086Y11599108D01*
X6154661Y11660773D01*
X6164941Y11706252D01*
X6181258Y11740516D01*
X6204943Y11768534D01*
X6237328Y11795277D01*
X6283907Y11822220D01*
X6357287Y11839809D01*
X6431020Y11832178D01*
G37*
X6431020Y11832178D02*
X6498810Y11800320D01*
X6554366Y11745230D01*
X6565881Y11727984D01*
X6575432Y11708438D01*
X6582206Y11683802D01*
X6586819Y11649289D01*
X6589888Y11600111D01*
X6592029Y11531481D01*
X6593859Y11438611D01*
X6598404Y11180993D01*
X6560225Y11195509D01*
X6525268Y11208844D01*
X6499097Y11221677D01*
X6482013Y11238220D01*
X6472086Y11263535D01*
X6467386Y11302684D01*
X6465982Y11360732D01*
X6465943Y11442739D01*
X6465744Y11508105D01*
X6464559Y11570827D01*
X6461729Y11613666D01*
X6456609Y11641780D01*
X6448553Y11660325D01*
X6436914Y11674457D01*
X6408303Y11694400D01*
X6360239Y11701917D01*
X6312688Y11682921D01*
X6309550Y11680489D01*
X6299769Y11669252D01*
X6292553Y11651230D01*
X6287299Y11621974D01*
X6283402Y11577038D01*
X6280256Y11511972D01*
X6277257Y11422330D01*
X6270000Y11182303D01*
X6208314Y11209956D01*
X6146629Y11237609D01*
X6146629Y11456754D01*
X6146884Y11516289D01*
X6149086Y11599108D01*
X6154661Y11660773D01*
X6164941Y11706252D01*
X6181258Y11740516D01*
X6204943Y11768534D01*
X6237328Y11795277D01*
X6283907Y11822220D01*
X6357287Y11839809D01*
X6431020Y11832178D01*
G36*
X8265701Y11499065D02*
G01*
X8264914Y11428881D01*
X8262210Y11379978D01*
X8256606Y11345822D01*
X8247119Y11319876D01*
X8232768Y11295603D01*
X8229237Y11290567D01*
X8191878Y11250857D01*
X8149311Y11220908D01*
X8127452Y11211190D01*
X8048908Y11194980D01*
X7971231Y11205465D01*
X7899645Y11241293D01*
X7839374Y11301113D01*
X7834286Y11309127D01*
X7817730Y11355658D01*
X7806573Y11420448D01*
X7801160Y11495273D01*
X7801767Y11564487D01*
X7948248Y11564487D01*
X7949402Y11468601D01*
X7949866Y11462431D01*
X7956629Y11409522D01*
X7968671Y11375971D01*
X7989005Y11352984D01*
X8023097Y11331452D01*
X8056814Y11330320D01*
X8091543Y11355143D01*
X8097584Y11361675D01*
X8109417Y11381221D01*
X8116404Y11409614D01*
X8119727Y11453570D01*
X8120571Y11519808D01*
X8119125Y11581850D01*
X8111907Y11640958D01*
X8097006Y11678314D01*
X8072636Y11697848D01*
X8037008Y11703486D01*
X8023440Y11702365D01*
X7985430Y11681806D01*
X7960312Y11635701D01*
X7948248Y11564487D01*
X7801767Y11564487D01*
X7801833Y11571904D01*
X7808937Y11642118D01*
X7822815Y11697688D01*
X7840649Y11734699D01*
X7890855Y11792267D01*
X7958885Y11828038D01*
X8042158Y11840335D01*
X8064398Y11839669D01*
X8129891Y11826053D01*
X8183687Y11791751D01*
X8233057Y11732662D01*
X8235995Y11728278D01*
X8249287Y11704701D01*
X8257932Y11678051D01*
X8262904Y11641841D01*
X8265174Y11589587D01*
X8265678Y11519808D01*
X8265714Y11514800D01*
X8265701Y11499065D01*
G37*
X8265701Y11499065D02*
X8264914Y11428881D01*
X8262210Y11379978D01*
X8256606Y11345822D01*
X8247119Y11319876D01*
X8232768Y11295603D01*
X8229237Y11290567D01*
X8191878Y11250857D01*
X8149311Y11220908D01*
X8127452Y11211190D01*
X8048908Y11194980D01*
X7971231Y11205465D01*
X7899645Y11241293D01*
X7839374Y11301113D01*
X7834286Y11309127D01*
X7817730Y11355658D01*
X7806573Y11420448D01*
X7801160Y11495273D01*
X7801767Y11564487D01*
X7948248Y11564487D01*
X7949402Y11468601D01*
X7949866Y11462431D01*
X7956629Y11409522D01*
X7968671Y11375971D01*
X7989005Y11352984D01*
X8023097Y11331452D01*
X8056814Y11330320D01*
X8091543Y11355143D01*
X8097584Y11361675D01*
X8109417Y11381221D01*
X8116404Y11409614D01*
X8119727Y11453570D01*
X8120571Y11519808D01*
X8119125Y11581850D01*
X8111907Y11640958D01*
X8097006Y11678314D01*
X8072636Y11697848D01*
X8037008Y11703486D01*
X8023440Y11702365D01*
X7985430Y11681806D01*
X7960312Y11635701D01*
X7948248Y11564487D01*
X7801767Y11564487D01*
X7801833Y11571904D01*
X7808937Y11642118D01*
X7822815Y11697688D01*
X7840649Y11734699D01*
X7890855Y11792267D01*
X7958885Y11828038D01*
X8042158Y11840335D01*
X8064398Y11839669D01*
X8129891Y11826053D01*
X8183687Y11791751D01*
X8233057Y11732662D01*
X8235995Y11728278D01*
X8249287Y11704701D01*
X8257932Y11678051D01*
X8262904Y11641841D01*
X8265174Y11589587D01*
X8265678Y11519808D01*
X8265714Y11514800D01*
X8265701Y11499065D01*
G36*
X7157684Y11445922D02*
G01*
X7155078Y11422613D01*
X7135660Y11339648D01*
X7100573Y11276552D01*
X7047212Y11228192D01*
X7044196Y11226196D01*
X6976362Y11197815D01*
X6905535Y11195289D01*
X6837289Y11216903D01*
X6777196Y11260938D01*
X6730829Y11325678D01*
X6730050Y11327239D01*
X6714643Y11367442D01*
X6703357Y11413134D01*
X6697370Y11456028D01*
X6697861Y11487840D01*
X6706007Y11500286D01*
X6713244Y11499529D01*
X6747851Y11485765D01*
X6787078Y11460454D01*
X6820448Y11431155D01*
X6837483Y11405428D01*
X6855192Y11370529D01*
X6891485Y11338788D01*
X6933630Y11326114D01*
X6949077Y11329779D01*
X6979569Y11348226D01*
X7006128Y11373834D01*
X7017486Y11397066D01*
X7017482Y11397152D01*
X7004596Y11407821D01*
X6970241Y11427067D01*
X6919593Y11452187D01*
X6857829Y11480476D01*
X6857489Y11480626D01*
X6790388Y11510502D01*
X6745411Y11532027D01*
X6718145Y11548563D01*
X6704178Y11563469D01*
X6699097Y11580107D01*
X6698490Y11601838D01*
X6702711Y11642987D01*
X6846000Y11642987D01*
X6860791Y11630051D01*
X6897644Y11610667D01*
X6898725Y11610119D01*
X6942205Y11589413D01*
X6981102Y11572895D01*
X7005778Y11565907D01*
X7015676Y11575247D01*
X7017486Y11607252D01*
X7009966Y11647085D01*
X6983897Y11683283D01*
X6946154Y11702050D01*
X6904077Y11700155D01*
X6865005Y11674368D01*
X6849647Y11656549D01*
X6846000Y11642987D01*
X6702711Y11642987D01*
X6703833Y11653914D01*
X6730251Y11724665D01*
X6774473Y11780265D01*
X6831697Y11818761D01*
X6897120Y11838203D01*
X6965937Y11836641D01*
X7033347Y11812122D01*
X7094544Y11762698D01*
X7128450Y11713788D01*
X7152806Y11643973D01*
X7156767Y11607252D01*
X7162299Y11555945D01*
X7157684Y11445922D01*
G37*
X7157684Y11445922D02*
X7155078Y11422613D01*
X7135660Y11339648D01*
X7100573Y11276552D01*
X7047212Y11228192D01*
X7044196Y11226196D01*
X6976362Y11197815D01*
X6905535Y11195289D01*
X6837289Y11216903D01*
X6777196Y11260938D01*
X6730829Y11325678D01*
X6730050Y11327239D01*
X6714643Y11367442D01*
X6703357Y11413134D01*
X6697370Y11456028D01*
X6697861Y11487840D01*
X6706007Y11500286D01*
X6713244Y11499529D01*
X6747851Y11485765D01*
X6787078Y11460454D01*
X6820448Y11431155D01*
X6837483Y11405428D01*
X6855192Y11370529D01*
X6891485Y11338788D01*
X6933630Y11326114D01*
X6949077Y11329779D01*
X6979569Y11348226D01*
X7006128Y11373834D01*
X7017486Y11397066D01*
X7017482Y11397152D01*
X7004596Y11407821D01*
X6970241Y11427067D01*
X6919593Y11452187D01*
X6857829Y11480476D01*
X6857489Y11480626D01*
X6790388Y11510502D01*
X6745411Y11532027D01*
X6718145Y11548563D01*
X6704178Y11563469D01*
X6699097Y11580107D01*
X6698490Y11601838D01*
X6702711Y11642987D01*
X6846000Y11642987D01*
X6860791Y11630051D01*
X6897644Y11610667D01*
X6898725Y11610119D01*
X6942205Y11589413D01*
X6981102Y11572895D01*
X7005778Y11565907D01*
X7015676Y11575247D01*
X7017486Y11607252D01*
X7009966Y11647085D01*
X6983897Y11683283D01*
X6946154Y11702050D01*
X6904077Y11700155D01*
X6865005Y11674368D01*
X6849647Y11656549D01*
X6846000Y11642987D01*
X6702711Y11642987D01*
X6703833Y11653914D01*
X6730251Y11724665D01*
X6774473Y11780265D01*
X6831697Y11818761D01*
X6897120Y11838203D01*
X6965937Y11836641D01*
X7033347Y11812122D01*
X7094544Y11762698D01*
X7128450Y11713788D01*
X7152806Y11643973D01*
X7156767Y11607252D01*
X7162299Y11555945D01*
X7157684Y11445922D01*
G36*
X5678543Y12000556D02*
G01*
X5725714Y11980658D01*
X5725714Y11583491D01*
X5725519Y11480502D01*
X5724998Y11387859D01*
X5724199Y11309300D01*
X5723172Y11248561D01*
X5721963Y11209377D01*
X5720623Y11195486D01*
X5720099Y11195532D01*
X5702287Y11200580D01*
X5669823Y11211420D01*
X5624114Y11227354D01*
X5624114Y11431827D01*
X5623824Y11512168D01*
X5622474Y11570438D01*
X5619369Y11610091D01*
X5613812Y11636382D01*
X5605107Y11654564D01*
X5592556Y11669893D01*
X5583999Y11678045D01*
X5537728Y11700625D01*
X5486728Y11698625D01*
X5439993Y11671927D01*
X5433189Y11665302D01*
X5422293Y11651544D01*
X5414836Y11633358D01*
X5410169Y11605823D01*
X5407642Y11564019D01*
X5406602Y11503027D01*
X5406400Y11417927D01*
X5406303Y11374766D01*
X5405674Y11303776D01*
X5404556Y11246924D01*
X5403063Y11209172D01*
X5401309Y11195486D01*
X5400785Y11195532D01*
X5382973Y11200580D01*
X5350509Y11211420D01*
X5304800Y11227354D01*
X5304823Y11432763D01*
X5304857Y11451049D01*
X5306778Y11546374D01*
X5312678Y11618457D01*
X5324001Y11672187D01*
X5342187Y11712451D01*
X5368679Y11744139D01*
X5404918Y11772139D01*
X5440263Y11789667D01*
X5496773Y11803215D01*
X5552356Y11803985D01*
X5595086Y11790805D01*
X5598298Y11788985D01*
X5608205Y11789180D01*
X5614975Y11804428D01*
X5619861Y11839387D01*
X5624114Y11898711D01*
X5631371Y12020453D01*
X5678543Y12000556D01*
G37*
X5678543Y12000556D02*
X5725714Y11980658D01*
X5725714Y11583491D01*
X5725519Y11480502D01*
X5724998Y11387859D01*
X5724199Y11309300D01*
X5723172Y11248561D01*
X5721963Y11209377D01*
X5720623Y11195486D01*
X5720099Y11195532D01*
X5702287Y11200580D01*
X5669823Y11211420D01*
X5624114Y11227354D01*
X5624114Y11431827D01*
X5623824Y11512168D01*
X5622474Y11570438D01*
X5619369Y11610091D01*
X5613812Y11636382D01*
X5605107Y11654564D01*
X5592556Y11669893D01*
X5583999Y11678045D01*
X5537728Y11700625D01*
X5486728Y11698625D01*
X5439993Y11671927D01*
X5433189Y11665302D01*
X5422293Y11651544D01*
X5414836Y11633358D01*
X5410169Y11605823D01*
X5407642Y11564019D01*
X5406602Y11503027D01*
X5406400Y11417927D01*
X5406303Y11374766D01*
X5405674Y11303776D01*
X5404556Y11246924D01*
X5403063Y11209172D01*
X5401309Y11195486D01*
X5400785Y11195532D01*
X5382973Y11200580D01*
X5350509Y11211420D01*
X5304800Y11227354D01*
X5304823Y11432763D01*
X5304857Y11451049D01*
X5306778Y11546374D01*
X5312678Y11618457D01*
X5324001Y11672187D01*
X5342187Y11712451D01*
X5368679Y11744139D01*
X5404918Y11772139D01*
X5440263Y11789667D01*
X5496773Y11803215D01*
X5552356Y11803985D01*
X5595086Y11790805D01*
X5598298Y11788985D01*
X5608205Y11789180D01*
X5614975Y11804428D01*
X5619861Y11839387D01*
X5624114Y11898711D01*
X5631371Y12020453D01*
X5678543Y12000556D01*
G36*
X5089483Y11789431D02*
G01*
X5139376Y11760339D01*
X5161325Y11737673D01*
X5203504Y11669918D01*
X5217714Y11596050D01*
X5217714Y11545230D01*
X5170999Y11564872D01*
X5138692Y11584692D01*
X5113231Y11625840D01*
X5110616Y11634325D01*
X5082478Y11677549D01*
X5040067Y11700897D01*
X4991370Y11701900D01*
X4944373Y11678086D01*
X4937357Y11671944D01*
X4913893Y11645255D01*
X4910019Y11621986D01*
X4927768Y11599138D01*
X4969179Y11573713D01*
X5036286Y11542712D01*
X5040824Y11540748D01*
X5115322Y11506010D01*
X5166203Y11475237D01*
X5197525Y11444512D01*
X5213343Y11409918D01*
X5217714Y11367538D01*
X5211986Y11320554D01*
X5183062Y11260415D01*
X5132178Y11217212D01*
X5095374Y11204241D01*
X5043434Y11197144D01*
X4992999Y11198660D01*
X4956983Y11209368D01*
X4953158Y11212034D01*
X4942998Y11230663D01*
X4950048Y11263495D01*
X4962297Y11289265D01*
X4981939Y11299994D01*
X5019191Y11299461D01*
X5070908Y11302538D01*
X5104701Y11323788D01*
X5116114Y11363123D01*
X5116104Y11364253D01*
X5109187Y11387087D01*
X5085659Y11408037D01*
X5039914Y11432185D01*
X4977704Y11461259D01*
X4936499Y11477075D01*
X4912712Y11476056D01*
X4901597Y11455163D01*
X4898408Y11411359D01*
X4898400Y11341607D01*
X4898044Y11298548D01*
X4896413Y11245374D01*
X4893761Y11208978D01*
X4890422Y11195486D01*
X4889530Y11195577D01*
X4870237Y11202890D01*
X4838284Y11218322D01*
X4794124Y11241158D01*
X4799371Y11446922D01*
X4799736Y11460568D01*
X4803904Y11556349D01*
X4811268Y11628538D01*
X4823330Y11681942D01*
X4841593Y11721367D01*
X4867560Y11751620D01*
X4902733Y11777507D01*
X4903384Y11777913D01*
X4960256Y11799032D01*
X5026033Y11802600D01*
X5089483Y11789431D01*
G37*
X5089483Y11789431D02*
X5139376Y11760339D01*
X5161325Y11737673D01*
X5203504Y11669918D01*
X5217714Y11596050D01*
X5217714Y11545230D01*
X5170999Y11564872D01*
X5138692Y11584692D01*
X5113231Y11625840D01*
X5110616Y11634325D01*
X5082478Y11677549D01*
X5040067Y11700897D01*
X4991370Y11701900D01*
X4944373Y11678086D01*
X4937357Y11671944D01*
X4913893Y11645255D01*
X4910019Y11621986D01*
X4927768Y11599138D01*
X4969179Y11573713D01*
X5036286Y11542712D01*
X5040824Y11540748D01*
X5115322Y11506010D01*
X5166203Y11475237D01*
X5197525Y11444512D01*
X5213343Y11409918D01*
X5217714Y11367538D01*
X5211986Y11320554D01*
X5183062Y11260415D01*
X5132178Y11217212D01*
X5095374Y11204241D01*
X5043434Y11197144D01*
X4992999Y11198660D01*
X4956983Y11209368D01*
X4953158Y11212034D01*
X4942998Y11230663D01*
X4950048Y11263495D01*
X4962297Y11289265D01*
X4981939Y11299994D01*
X5019191Y11299461D01*
X5070908Y11302538D01*
X5104701Y11323788D01*
X5116114Y11363123D01*
X5116104Y11364253D01*
X5109187Y11387087D01*
X5085659Y11408037D01*
X5039914Y11432185D01*
X4977704Y11461259D01*
X4936499Y11477075D01*
X4912712Y11476056D01*
X4901597Y11455163D01*
X4898408Y11411359D01*
X4898400Y11341607D01*
X4898044Y11298548D01*
X4896413Y11245374D01*
X4893761Y11208978D01*
X4890422Y11195486D01*
X4889530Y11195577D01*
X4870237Y11202890D01*
X4838284Y11218322D01*
X4794124Y11241158D01*
X4799371Y11446922D01*
X4799736Y11460568D01*
X4803904Y11556349D01*
X4811268Y11628538D01*
X4823330Y11681942D01*
X4841593Y11721367D01*
X4867560Y11751620D01*
X4902733Y11777507D01*
X4903384Y11777913D01*
X4960256Y11799032D01*
X5026033Y11802600D01*
X5089483Y11789431D01*
G36*
X4607691Y11783533D02*
G01*
X4612273Y11780997D01*
X4649704Y11751943D01*
X4683170Y11714590D01*
X4689007Y11706148D01*
X4700165Y11686447D01*
X4708136Y11663065D01*
X4713618Y11630933D01*
X4717307Y11584981D01*
X4719899Y11520141D01*
X4722092Y11431343D01*
X4722402Y11416331D01*
X4723400Y11319001D01*
X4721994Y11250066D01*
X4718164Y11209052D01*
X4711889Y11195486D01*
X4692898Y11199548D01*
X4660638Y11211856D01*
X4653041Y11215455D01*
X4641176Y11223602D01*
X4632994Y11236996D01*
X4627643Y11260392D01*
X4624269Y11298545D01*
X4622019Y11356210D01*
X4620040Y11438143D01*
X4619498Y11462093D01*
X4617403Y11537734D01*
X4614683Y11590672D01*
X4610515Y11625925D01*
X4604079Y11648513D01*
X4594550Y11663456D01*
X4581106Y11675773D01*
X4541305Y11697366D01*
X4492341Y11701524D01*
X4448529Y11685001D01*
X4417008Y11650790D01*
X4404914Y11601886D01*
X4404578Y11588593D01*
X4397972Y11564528D01*
X4378470Y11560856D01*
X4340283Y11575187D01*
X4331438Y11579783D01*
X4307534Y11606814D01*
X4307061Y11647006D01*
X4329836Y11702591D01*
X4350727Y11732883D01*
X4404142Y11775916D01*
X4470074Y11800245D01*
X4540574Y11803557D01*
X4607691Y11783533D01*
G37*
X4607691Y11783533D02*
X4612273Y11780997D01*
X4649704Y11751943D01*
X4683170Y11714590D01*
X4689007Y11706148D01*
X4700165Y11686447D01*
X4708136Y11663065D01*
X4713618Y11630933D01*
X4717307Y11584981D01*
X4719899Y11520141D01*
X4722092Y11431343D01*
X4722402Y11416331D01*
X4723400Y11319001D01*
X4721994Y11250066D01*
X4718164Y11209052D01*
X4711889Y11195486D01*
X4692898Y11199548D01*
X4660638Y11211856D01*
X4653041Y11215455D01*
X4641176Y11223602D01*
X4632994Y11236996D01*
X4627643Y11260392D01*
X4624269Y11298545D01*
X4622019Y11356210D01*
X4620040Y11438143D01*
X4619498Y11462093D01*
X4617403Y11537734D01*
X4614683Y11590672D01*
X4610515Y11625925D01*
X4604079Y11648513D01*
X4594550Y11663456D01*
X4581106Y11675773D01*
X4541305Y11697366D01*
X4492341Y11701524D01*
X4448529Y11685001D01*
X4417008Y11650790D01*
X4404914Y11601886D01*
X4404578Y11588593D01*
X4397972Y11564528D01*
X4378470Y11560856D01*
X4340283Y11575187D01*
X4331438Y11579783D01*
X4307534Y11606814D01*
X4307061Y11647006D01*
X4329836Y11702591D01*
X4350727Y11732883D01*
X4404142Y11775916D01*
X4470074Y11800245D01*
X4540574Y11803557D01*
X4607691Y11783533D01*
G36*
X4229537Y11443687D02*
G01*
X4221345Y11366538D01*
X4203519Y11308724D01*
X4173975Y11264578D01*
X4130625Y11228432D01*
X4089332Y11207537D01*
X4019987Y11195910D01*
X3950736Y11208623D01*
X3888145Y11244055D01*
X3838779Y11300582D01*
X3832818Y11311005D01*
X3824945Y11329267D01*
X3819106Y11352571D01*
X3814999Y11384915D01*
X3812325Y11430296D01*
X3810781Y11492713D01*
X3810734Y11498252D01*
X3911429Y11498252D01*
X3911772Y11445423D01*
X3913942Y11397638D01*
X3919307Y11366791D01*
X3929217Y11346065D01*
X3945021Y11328644D01*
X3948724Y11325295D01*
X3996299Y11300581D01*
X4046635Y11303110D01*
X4093517Y11332712D01*
X4107477Y11348047D01*
X4119160Y11368378D01*
X4125686Y11396486D01*
X4128524Y11439450D01*
X4129143Y11504353D01*
X4128837Y11553878D01*
X4126722Y11602218D01*
X4121390Y11633413D01*
X4111460Y11654353D01*
X4095550Y11671927D01*
X4086204Y11679841D01*
X4037776Y11701157D01*
X3987040Y11697802D01*
X3942987Y11669893D01*
X3933504Y11658827D01*
X3921939Y11637991D01*
X3915252Y11608894D01*
X3912173Y11564619D01*
X3911429Y11498252D01*
X3810734Y11498252D01*
X3810067Y11576163D01*
X3809883Y11684642D01*
X3809829Y12021399D01*
X3857000Y12001638D01*
X3869472Y11996230D01*
X3889324Y11984015D01*
X3900687Y11965518D01*
X3906933Y11933171D01*
X3911429Y11879407D01*
X3915535Y11831134D01*
X3920963Y11799443D01*
X3928739Y11787617D01*
X3940457Y11790788D01*
X3970318Y11801933D01*
X4023684Y11804696D01*
X4081093Y11794375D01*
X4130625Y11772139D01*
X4157876Y11751557D01*
X4192865Y11711400D01*
X4215274Y11659914D01*
X4227190Y11591432D01*
X4230542Y11504353D01*
X4230698Y11500286D01*
X4229537Y11443687D01*
G37*
X4229537Y11443687D02*
X4221345Y11366538D01*
X4203519Y11308724D01*
X4173975Y11264578D01*
X4130625Y11228432D01*
X4089332Y11207537D01*
X4019987Y11195910D01*
X3950736Y11208623D01*
X3888145Y11244055D01*
X3838779Y11300582D01*
X3832818Y11311005D01*
X3824945Y11329267D01*
X3819106Y11352571D01*
X3814999Y11384915D01*
X3812325Y11430296D01*
X3810781Y11492713D01*
X3810734Y11498252D01*
X3911429Y11498252D01*
X3911772Y11445423D01*
X3913942Y11397638D01*
X3919307Y11366791D01*
X3929217Y11346065D01*
X3945021Y11328644D01*
X3948724Y11325295D01*
X3996299Y11300581D01*
X4046635Y11303110D01*
X4093517Y11332712D01*
X4107477Y11348047D01*
X4119160Y11368378D01*
X4125686Y11396486D01*
X4128524Y11439450D01*
X4129143Y11504353D01*
X4128837Y11553878D01*
X4126722Y11602218D01*
X4121390Y11633413D01*
X4111460Y11654353D01*
X4095550Y11671927D01*
X4086204Y11679841D01*
X4037776Y11701157D01*
X3987040Y11697802D01*
X3942987Y11669893D01*
X3933504Y11658827D01*
X3921939Y11637991D01*
X3915252Y11608894D01*
X3912173Y11564619D01*
X3911429Y11498252D01*
X3810734Y11498252D01*
X3810067Y11576163D01*
X3809883Y11684642D01*
X3809829Y12021399D01*
X3857000Y12001638D01*
X3869472Y11996230D01*
X3889324Y11984015D01*
X3900687Y11965518D01*
X3906933Y11933171D01*
X3911429Y11879407D01*
X3915535Y11831134D01*
X3920963Y11799443D01*
X3928739Y11787617D01*
X3940457Y11790788D01*
X3970318Y11801933D01*
X4023684Y11804696D01*
X4081093Y11794375D01*
X4130625Y11772139D01*
X4157876Y11751557D01*
X4192865Y11711400D01*
X4215274Y11659914D01*
X4227190Y11591432D01*
X4230542Y11504353D01*
X4230698Y11500286D01*
X4229537Y11443687D01*
G36*
X3653941Y11800718D02*
G01*
X3685774Y11788242D01*
X3722743Y11771398D01*
X3722743Y11284804D01*
X3676812Y11238873D01*
X3666320Y11228573D01*
X3637255Y11205680D01*
X3607943Y11198265D01*
X3564326Y11201679D01*
X3546568Y11203886D01*
X3500767Y11208555D01*
X3468743Y11210415D01*
X3459244Y11210131D01*
X3420274Y11207052D01*
X3373160Y11201679D01*
X3358085Y11199832D01*
X3320110Y11199107D01*
X3292325Y11210571D01*
X3260674Y11238873D01*
X3214743Y11284804D01*
X3214743Y11544945D01*
X3215101Y11621820D01*
X3216216Y11695114D01*
X3217952Y11753150D01*
X3220167Y11791337D01*
X3222721Y11805086D01*
X3223256Y11805049D01*
X3241808Y11798207D01*
X3273153Y11783132D01*
X3315608Y11761178D01*
X3319604Y11532760D01*
X3323600Y11304343D01*
X3410686Y11304343D01*
X3414657Y11554714D01*
X3415916Y11622773D01*
X3417718Y11695518D01*
X3419671Y11753270D01*
X3421612Y11791352D01*
X3423377Y11805086D01*
X3423885Y11805038D01*
X3441482Y11799985D01*
X3473834Y11789151D01*
X3519543Y11773217D01*
X3519765Y11553294D01*
X3519988Y11515091D01*
X3521531Y11440854D01*
X3524292Y11378855D01*
X3527977Y11334692D01*
X3532292Y11313959D01*
X3547732Y11302869D01*
X3579241Y11299444D01*
X3613886Y11304343D01*
X3617857Y11554714D01*
X3619278Y11618337D01*
X3622225Y11693644D01*
X3626079Y11752714D01*
X3630542Y11791282D01*
X3635317Y11805086D01*
X3653941Y11800718D01*
G37*
X3653941Y11800718D02*
X3685774Y11788242D01*
X3722743Y11771398D01*
X3722743Y11284804D01*
X3676812Y11238873D01*
X3666320Y11228573D01*
X3637255Y11205680D01*
X3607943Y11198265D01*
X3564326Y11201679D01*
X3546568Y11203886D01*
X3500767Y11208555D01*
X3468743Y11210415D01*
X3459244Y11210131D01*
X3420274Y11207052D01*
X3373160Y11201679D01*
X3358085Y11199832D01*
X3320110Y11199107D01*
X3292325Y11210571D01*
X3260674Y11238873D01*
X3214743Y11284804D01*
X3214743Y11544945D01*
X3215101Y11621820D01*
X3216216Y11695114D01*
X3217952Y11753150D01*
X3220167Y11791337D01*
X3222721Y11805086D01*
X3223256Y11805049D01*
X3241808Y11798207D01*
X3273153Y11783132D01*
X3315608Y11761178D01*
X3319604Y11532760D01*
X3323600Y11304343D01*
X3410686Y11304343D01*
X3414657Y11554714D01*
X3415916Y11622773D01*
X3417718Y11695518D01*
X3419671Y11753270D01*
X3421612Y11791352D01*
X3423377Y11805086D01*
X3423885Y11805038D01*
X3441482Y11799985D01*
X3473834Y11789151D01*
X3519543Y11773217D01*
X3519765Y11553294D01*
X3519988Y11515091D01*
X3521531Y11440854D01*
X3524292Y11378855D01*
X3527977Y11334692D01*
X3532292Y11313959D01*
X3547732Y11302869D01*
X3579241Y11299444D01*
X3613886Y11304343D01*
X3617857Y11554714D01*
X3619278Y11618337D01*
X3622225Y11693644D01*
X3626079Y11752714D01*
X3630542Y11791282D01*
X3635317Y11805086D01*
X3653941Y11800718D01*
G36*
X2967495Y11803780D02*
G01*
X2998599Y11795879D01*
X3027559Y11776183D01*
X3064831Y11739516D01*
X3088801Y11713622D01*
X3113770Y11680003D01*
X3125031Y11648494D01*
X3127657Y11608515D01*
X3127657Y11543083D01*
X3083035Y11566158D01*
X3047673Y11594276D01*
X3023451Y11632152D01*
X3019291Y11642449D01*
X2987594Y11682363D01*
X2943554Y11702376D01*
X2895531Y11700428D01*
X2851886Y11674457D01*
X2833420Y11653365D01*
X2822663Y11626381D01*
X2834178Y11602366D01*
X2869981Y11578209D01*
X2932090Y11550801D01*
X2941515Y11547015D01*
X2998058Y11522241D01*
X3046580Y11497811D01*
X3077451Y11478514D01*
X3108371Y11444047D01*
X3128927Y11389043D01*
X3126744Y11330017D01*
X3102424Y11274155D01*
X3056568Y11228645D01*
X3019438Y11209273D01*
X2947711Y11195708D01*
X2907852Y11197538D01*
X2870953Y11207432D01*
X2856797Y11228194D01*
X2862091Y11262387D01*
X2863631Y11266908D01*
X2875842Y11290884D01*
X2896174Y11299958D01*
X2934908Y11299351D01*
X2962257Y11298526D01*
X2994257Y11305608D01*
X3016182Y11326781D01*
X3028670Y11352848D01*
X3030062Y11380155D01*
X3029998Y11380315D01*
X3013807Y11395070D01*
X2979155Y11416543D01*
X2934321Y11440542D01*
X2887582Y11462875D01*
X2847217Y11479348D01*
X2821504Y11485771D01*
X2817679Y11479482D01*
X2812864Y11449885D01*
X2809566Y11401553D01*
X2808343Y11340628D01*
X2808058Y11298458D01*
X2806718Y11245347D01*
X2804528Y11208975D01*
X2801769Y11195486D01*
X2787344Y11200019D01*
X2758226Y11212330D01*
X2721257Y11229174D01*
X2721257Y11445279D01*
X2721493Y11500673D01*
X2723729Y11584793D01*
X2729423Y11647200D01*
X2739903Y11692642D01*
X2756497Y11725867D01*
X2780531Y11751622D01*
X2813333Y11774656D01*
X2855124Y11793665D01*
X2932287Y11805086D01*
X2967495Y11803780D01*
G37*
X2967495Y11803780D02*
X2998599Y11795879D01*
X3027559Y11776183D01*
X3064831Y11739516D01*
X3088801Y11713622D01*
X3113770Y11680003D01*
X3125031Y11648494D01*
X3127657Y11608515D01*
X3127657Y11543083D01*
X3083035Y11566158D01*
X3047673Y11594276D01*
X3023451Y11632152D01*
X3019291Y11642449D01*
X2987594Y11682363D01*
X2943554Y11702376D01*
X2895531Y11700428D01*
X2851886Y11674457D01*
X2833420Y11653365D01*
X2822663Y11626381D01*
X2834178Y11602366D01*
X2869981Y11578209D01*
X2932090Y11550801D01*
X2941515Y11547015D01*
X2998058Y11522241D01*
X3046580Y11497811D01*
X3077451Y11478514D01*
X3108371Y11444047D01*
X3128927Y11389043D01*
X3126744Y11330017D01*
X3102424Y11274155D01*
X3056568Y11228645D01*
X3019438Y11209273D01*
X2947711Y11195708D01*
X2907852Y11197538D01*
X2870953Y11207432D01*
X2856797Y11228194D01*
X2862091Y11262387D01*
X2863631Y11266908D01*
X2875842Y11290884D01*
X2896174Y11299958D01*
X2934908Y11299351D01*
X2962257Y11298526D01*
X2994257Y11305608D01*
X3016182Y11326781D01*
X3028670Y11352848D01*
X3030062Y11380155D01*
X3029998Y11380315D01*
X3013807Y11395070D01*
X2979155Y11416543D01*
X2934321Y11440542D01*
X2887582Y11462875D01*
X2847217Y11479348D01*
X2821504Y11485771D01*
X2817679Y11479482D01*
X2812864Y11449885D01*
X2809566Y11401553D01*
X2808343Y11340628D01*
X2808058Y11298458D01*
X2806718Y11245347D01*
X2804528Y11208975D01*
X2801769Y11195486D01*
X2787344Y11200019D01*
X2758226Y11212330D01*
X2721257Y11229174D01*
X2721257Y11445279D01*
X2721493Y11500673D01*
X2723729Y11584793D01*
X2729423Y11647200D01*
X2739903Y11692642D01*
X2756497Y11725867D01*
X2780531Y11751622D01*
X2813333Y11774656D01*
X2855124Y11793665D01*
X2932287Y11805086D01*
X2967495Y11803780D01*
G36*
X2482829Y11798903D02*
G01*
X2542753Y11776645D01*
X2567673Y11759920D01*
X2592910Y11735957D01*
X2610912Y11705474D01*
X2622858Y11663977D01*
X2629930Y11606968D01*
X2633308Y11529953D01*
X2634171Y11428435D01*
X2634002Y11375973D01*
X2633153Y11304285D01*
X2631711Y11247075D01*
X2629814Y11209191D01*
X2627597Y11195486D01*
X2613172Y11200019D01*
X2584054Y11212330D01*
X2583181Y11212728D01*
X2568060Y11220644D01*
X2557891Y11231505D01*
X2551691Y11250529D01*
X2548478Y11282931D01*
X2547270Y11333929D01*
X2547086Y11408739D01*
X2546714Y11456196D01*
X2542750Y11545385D01*
X2533673Y11610713D01*
X2518524Y11655607D01*
X2496345Y11683493D01*
X2466175Y11697797D01*
X2461990Y11698794D01*
X2405480Y11699573D01*
X2361410Y11674256D01*
X2330972Y11623498D01*
X2325544Y11608825D01*
X2313171Y11576351D01*
X2306905Y11561428D01*
X2294036Y11563484D01*
X2265933Y11574643D01*
X2239721Y11593073D01*
X2227771Y11627902D01*
X2231336Y11652849D01*
X2253235Y11703453D01*
X2288644Y11750872D01*
X2330052Y11783666D01*
X2347400Y11791248D01*
X2413089Y11803924D01*
X2482829Y11798903D01*
G37*
X2482829Y11798903D02*
X2542753Y11776645D01*
X2567673Y11759920D01*
X2592910Y11735957D01*
X2610912Y11705474D01*
X2622858Y11663977D01*
X2629930Y11606968D01*
X2633308Y11529953D01*
X2634171Y11428435D01*
X2634002Y11375973D01*
X2633153Y11304285D01*
X2631711Y11247075D01*
X2629814Y11209191D01*
X2627597Y11195486D01*
X2613172Y11200019D01*
X2584054Y11212330D01*
X2583181Y11212728D01*
X2568060Y11220644D01*
X2557891Y11231505D01*
X2551691Y11250529D01*
X2548478Y11282931D01*
X2547270Y11333929D01*
X2547086Y11408739D01*
X2546714Y11456196D01*
X2542750Y11545385D01*
X2533673Y11610713D01*
X2518524Y11655607D01*
X2496345Y11683493D01*
X2466175Y11697797D01*
X2461990Y11698794D01*
X2405480Y11699573D01*
X2361410Y11674256D01*
X2330972Y11623498D01*
X2325544Y11608825D01*
X2313171Y11576351D01*
X2306905Y11561428D01*
X2294036Y11563484D01*
X2265933Y11574643D01*
X2239721Y11593073D01*
X2227771Y11627902D01*
X2231336Y11652849D01*
X2253235Y11703453D01*
X2288644Y11750872D01*
X2330052Y11783666D01*
X2347400Y11791248D01*
X2413089Y11803924D01*
X2482829Y11798903D01*
G36*
X2140307Y11458695D02*
G01*
X2136762Y11382479D01*
X2127483Y11326706D01*
X2110375Y11285387D01*
X2083344Y11252533D01*
X2044292Y11222154D01*
X2019445Y11208340D01*
X1979615Y11199035D01*
X1923665Y11199770D01*
X1892385Y11202717D01*
X1854653Y11211717D01*
X1824494Y11231280D01*
X1789408Y11267733D01*
X1784720Y11273057D01*
X1753177Y11314031D01*
X1738128Y11349717D01*
X1734286Y11392034D01*
X1734286Y11454221D01*
X1777742Y11437818D01*
X1809424Y11418644D01*
X1836962Y11373653D01*
X1842711Y11359248D01*
X1874855Y11318454D01*
X1918611Y11297919D01*
X1966254Y11299765D01*
X2010057Y11326114D01*
X2025111Y11342545D01*
X2038763Y11367333D01*
X2034493Y11389856D01*
X2009916Y11413036D01*
X1962651Y11439798D01*
X1890314Y11473066D01*
X1741543Y11538184D01*
X1737595Y11602692D01*
X1739079Y11643780D01*
X1836010Y11643780D01*
X1843368Y11618343D01*
X1876848Y11591186D01*
X1937614Y11560286D01*
X1947669Y11555810D01*
X1995751Y11534983D01*
X2031726Y11520335D01*
X2048444Y11514800D01*
X2050977Y11518874D01*
X2051993Y11543753D01*
X2048369Y11583743D01*
X2039242Y11622848D01*
X2010773Y11672116D01*
X1969678Y11699878D01*
X1920590Y11703636D01*
X1868144Y11680891D01*
X1853609Y11669519D01*
X1836010Y11643780D01*
X1739079Y11643780D01*
X1739338Y11650936D01*
X1761281Y11711904D01*
X1788979Y11745503D01*
X1846405Y11783034D01*
X1914527Y11801994D01*
X1984947Y11800493D01*
X2049267Y11776645D01*
X2063426Y11767487D01*
X2095904Y11739151D01*
X2118116Y11703305D01*
X2131804Y11654616D01*
X2138715Y11587751D01*
X2139628Y11543753D01*
X2140590Y11497378D01*
X2140307Y11458695D01*
G37*
X2140307Y11458695D02*
X2136762Y11382479D01*
X2127483Y11326706D01*
X2110375Y11285387D01*
X2083344Y11252533D01*
X2044292Y11222154D01*
X2019445Y11208340D01*
X1979615Y11199035D01*
X1923665Y11199770D01*
X1892385Y11202717D01*
X1854653Y11211717D01*
X1824494Y11231280D01*
X1789408Y11267733D01*
X1784720Y11273057D01*
X1753177Y11314031D01*
X1738128Y11349717D01*
X1734286Y11392034D01*
X1734286Y11454221D01*
X1777742Y11437818D01*
X1809424Y11418644D01*
X1836962Y11373653D01*
X1842711Y11359248D01*
X1874855Y11318454D01*
X1918611Y11297919D01*
X1966254Y11299765D01*
X2010057Y11326114D01*
X2025111Y11342545D01*
X2038763Y11367333D01*
X2034493Y11389856D01*
X2009916Y11413036D01*
X1962651Y11439798D01*
X1890314Y11473066D01*
X1741543Y11538184D01*
X1737595Y11602692D01*
X1739079Y11643780D01*
X1836010Y11643780D01*
X1843368Y11618343D01*
X1876848Y11591186D01*
X1937614Y11560286D01*
X1947669Y11555810D01*
X1995751Y11534983D01*
X2031726Y11520335D01*
X2048444Y11514800D01*
X2050977Y11518874D01*
X2051993Y11543753D01*
X2048369Y11583743D01*
X2039242Y11622848D01*
X2010773Y11672116D01*
X1969678Y11699878D01*
X1920590Y11703636D01*
X1868144Y11680891D01*
X1853609Y11669519D01*
X1836010Y11643780D01*
X1739079Y11643780D01*
X1739338Y11650936D01*
X1761281Y11711904D01*
X1788979Y11745503D01*
X1846405Y11783034D01*
X1914527Y11801994D01*
X1984947Y11800493D01*
X2049267Y11776645D01*
X2063426Y11767487D01*
X2095904Y11739151D01*
X2118116Y11703305D01*
X2131804Y11654616D01*
X2138715Y11587751D01*
X2139628Y11543753D01*
X2140590Y11497378D01*
X2140307Y11458695D01*
G36*
X5113933Y16507629D02*
G01*
X5189856Y16507135D01*
X5244491Y16505865D01*
X5281500Y16503453D01*
X5304547Y16499533D01*
X5317296Y16493738D01*
X5323411Y16485701D01*
X5326556Y16475057D01*
X5326646Y16474675D01*
X5331814Y16449653D01*
X5341209Y16401319D01*
X5353867Y16334740D01*
X5368825Y16254986D01*
X5385119Y16167125D01*
X5386448Y16159936D01*
X5402691Y16074660D01*
X5417805Y15999758D01*
X5430808Y15939781D01*
X5440715Y15899283D01*
X5446544Y15882816D01*
X5446575Y15882790D01*
X5464943Y15873680D01*
X5502640Y15858543D01*
X5551543Y15840642D01*
X5554297Y15839670D01*
X5616817Y15816041D01*
X5689543Y15786405D01*
X5757294Y15756938D01*
X5868703Y15706374D01*
X6115399Y15874840D01*
X6132775Y15886689D01*
X6207202Y15937053D01*
X6273614Y15981388D01*
X6328039Y16017084D01*
X6366506Y16041529D01*
X6385042Y16052111D01*
X6397743Y16049685D01*
X6426579Y16030890D01*
X6471143Y15993670D01*
X6532670Y15936980D01*
X6612398Y15859773D01*
X6619532Y15852745D01*
X6682796Y15789778D01*
X6738990Y15732732D01*
X6784677Y15685183D01*
X6816414Y15650703D01*
X6830764Y15632869D01*
X6830810Y15632783D01*
X6832633Y15619205D01*
X6825910Y15597180D01*
X6808946Y15563696D01*
X6780044Y15515739D01*
X6737508Y15450296D01*
X6679644Y15364355D01*
X6669783Y15349849D01*
X6619913Y15276365D01*
X6575905Y15211313D01*
X6540380Y15158583D01*
X6515959Y15122064D01*
X6505264Y15105644D01*
X6504458Y15102166D01*
X6509518Y15076215D01*
X6524677Y15033841D01*
X6547463Y14982272D01*
X6578429Y14914830D01*
X6613004Y14834805D01*
X6642366Y14762371D01*
X6649645Y14743623D01*
X6668710Y14695754D01*
X6682715Y14662404D01*
X6689041Y14649886D01*
X6696025Y14648950D01*
X6727413Y14643539D01*
X6778787Y14634194D01*
X6844802Y14621931D01*
X6920113Y14607768D01*
X6999375Y14592720D01*
X7077243Y14577805D01*
X7148370Y14564039D01*
X7207412Y14552438D01*
X7249022Y14544020D01*
X7267857Y14539801D01*
X7270980Y14538611D01*
X7278591Y14532195D01*
X7284254Y14518535D01*
X7288251Y14494001D01*
X7290866Y14454962D01*
X7292384Y14397787D01*
X7293086Y14318846D01*
X7293257Y14214508D01*
X7293257Y13897201D01*
X7217057Y13882161D01*
X7207840Y13880358D01*
X7158891Y13871020D01*
X7091205Y13858331D01*
X7012478Y13843727D01*
X6930400Y13828645D01*
X6898078Y13822578D01*
X6825855Y13807819D01*
X6765666Y13793863D01*
X6723040Y13782048D01*
X6703510Y13773713D01*
X6694660Y13760095D01*
X6678548Y13724062D01*
X6662065Y13677428D01*
X6656263Y13659966D01*
X6634906Y13602642D01*
X6607359Y13534799D01*
X6578107Y13467645D01*
X6562463Y13432570D01*
X6540174Y13380178D01*
X6524857Y13340942D01*
X6519162Y13321437D01*
X6519478Y13319964D01*
X6530281Y13299271D01*
X6554638Y13259335D01*
X6590081Y13204028D01*
X6634136Y13137219D01*
X6684332Y13062780D01*
X6849501Y12820377D01*
X6632503Y12603017D01*
X6611516Y12582101D01*
X6547342Y12519495D01*
X6489990Y12465505D01*
X6442820Y12423174D01*
X6409192Y12395543D01*
X6392467Y12385657D01*
X6374303Y12393179D01*
X6336265Y12414773D01*
X6282726Y12447849D01*
X6217884Y12489809D01*
X6145940Y12538057D01*
X6075275Y12585709D01*
X6011526Y12627672D01*
X5959513Y12660835D01*
X5923279Y12682622D01*
X5906867Y12690457D01*
X5905905Y12690386D01*
X5884103Y12682662D01*
X5845440Y12664677D01*
X5797612Y12639987D01*
X5797110Y12639716D01*
X5733587Y12607901D01*
X5690060Y12592358D01*
X5663052Y12592315D01*
X5649090Y12607000D01*
X5643180Y12621456D01*
X5627229Y12660169D01*
X5602660Y12719684D01*
X5570779Y12796835D01*
X5532893Y12888459D01*
X5490310Y12991393D01*
X5444337Y13102474D01*
X5402667Y13203528D01*
X5360268Y13307220D01*
X5322756Y13399881D01*
X5291388Y13478358D01*
X5267425Y13539500D01*
X5252123Y13580157D01*
X5246743Y13597175D01*
X5257018Y13612781D01*
X5285563Y13638838D01*
X5325971Y13669113D01*
X5422979Y13748316D01*
X5509793Y13849525D01*
X5573322Y13960884D01*
X5613177Y14079107D01*
X5628965Y14200905D01*
X5620296Y14322990D01*
X5586778Y14442075D01*
X5528021Y14554871D01*
X5443632Y14658089D01*
X5399631Y14698287D01*
X5294211Y14769362D01*
X5181410Y14815699D01*
X5064525Y14838401D01*
X4946853Y14838572D01*
X4831690Y14817313D01*
X4722335Y14775730D01*
X4622083Y14714924D01*
X4534233Y14635999D01*
X4462080Y14540059D01*
X4408922Y14428205D01*
X4378057Y14301543D01*
X4372392Y14240493D01*
X4380185Y14108224D01*
X4415284Y13982734D01*
X4476649Y13866241D01*
X4563243Y13760961D01*
X4674029Y13669113D01*
X4712931Y13640070D01*
X4742104Y13613728D01*
X4753257Y13597200D01*
X4748810Y13582791D01*
X4734378Y13544185D01*
X4711173Y13484799D01*
X4680452Y13407785D01*
X4643474Y13316297D01*
X4601496Y13213484D01*
X4555778Y13102498D01*
X4514178Y13001928D01*
X4471222Y12898053D01*
X4432829Y12805181D01*
X4400305Y12726475D01*
X4374958Y12665101D01*
X4358095Y12624221D01*
X4351025Y12607000D01*
X4350943Y12606796D01*
X4336798Y12592255D01*
X4309659Y12592421D01*
X4266023Y12608073D01*
X4202388Y12639987D01*
X4197379Y12642674D01*
X4150125Y12666850D01*
X4112811Y12683963D01*
X4093133Y12690457D01*
X4077005Y12682782D01*
X4040959Y12661129D01*
X3989092Y12628072D01*
X3925445Y12586190D01*
X3854060Y12538057D01*
X3783724Y12490869D01*
X3718670Y12448733D01*
X3664820Y12415422D01*
X3626374Y12393531D01*
X3607534Y12385657D01*
X3604325Y12386657D01*
X3581954Y12402416D01*
X3543733Y12434967D01*
X3493021Y12481267D01*
X3433181Y12538274D01*
X3367571Y12602942D01*
X3150648Y12820228D01*
X3319601Y13068747D01*
X3488553Y13317267D01*
X3437183Y13428405D01*
X3437031Y13428734D01*
X3406183Y13499582D01*
X3374661Y13578477D01*
X3349266Y13648400D01*
X3345423Y13659678D01*
X3326047Y13712033D01*
X3308574Y13752717D01*
X3296388Y13773713D01*
X3291426Y13776678D01*
X3261634Y13786625D01*
X3211047Y13799495D01*
X3145194Y13813947D01*
X3069600Y13828645D01*
X3046957Y13832790D01*
X2965038Y13847884D01*
X2888600Y13862101D01*
X2825337Y13874005D01*
X2782943Y13882161D01*
X2706743Y13897201D01*
X2706743Y14214508D01*
X2706760Y14253524D01*
X2707082Y14348708D01*
X2708033Y14419745D01*
X2709896Y14470266D01*
X2712955Y14503902D01*
X2717494Y14524282D01*
X2723795Y14535038D01*
X2732143Y14539801D01*
X2740224Y14541730D01*
X2773172Y14548555D01*
X2825736Y14558978D01*
X2892569Y14571982D01*
X2968328Y14586551D01*
X3047665Y14601667D01*
X3125237Y14616315D01*
X3195698Y14629477D01*
X3253702Y14640137D01*
X3293904Y14647279D01*
X3310959Y14649886D01*
X3312112Y14651459D01*
X3321385Y14671881D01*
X3337432Y14710955D01*
X3357635Y14762371D01*
X3385672Y14831647D01*
X3420186Y14911710D01*
X3452538Y14982272D01*
X3459952Y14998111D01*
X3480755Y15047707D01*
X3493219Y15085962D01*
X3494863Y15105644D01*
X3494015Y15107038D01*
X3480548Y15127580D01*
X3453850Y15167484D01*
X3416539Y15222860D01*
X3371234Y15289823D01*
X3320552Y15364483D01*
X3263445Y15449308D01*
X3220607Y15515200D01*
X3191460Y15563522D01*
X3174317Y15597267D01*
X3167495Y15619428D01*
X3169306Y15632998D01*
X3169915Y15634016D01*
X3186297Y15653790D01*
X3219695Y15689825D01*
X3266671Y15738549D01*
X3323786Y15796388D01*
X3387603Y15859773D01*
X3453802Y15924095D01*
X3518648Y15984553D01*
X3566299Y16025345D01*
X3597990Y16047516D01*
X3614958Y16052111D01*
X3617175Y16051079D01*
X3640524Y16037163D01*
X3682912Y16009970D01*
X3740369Y15972111D01*
X3808923Y15926197D01*
X3884601Y15874840D01*
X4131298Y15706374D01*
X4242706Y15756938D01*
X4245943Y15758403D01*
X4314343Y15788035D01*
X4386907Y15817507D01*
X4448457Y15840642D01*
X4448729Y15840738D01*
X4497595Y15858633D01*
X4535212Y15873747D01*
X4553457Y15882816D01*
X4553752Y15883145D01*
X4559946Y15901718D01*
X4570139Y15943955D01*
X4583348Y16005304D01*
X4598590Y16081211D01*
X4614881Y16167125D01*
X4615449Y16170204D01*
X4631713Y16257872D01*
X4646608Y16337259D01*
X4659171Y16403299D01*
X4668438Y16450921D01*
X4673444Y16475057D01*
X4673764Y16476395D01*
X4677060Y16486727D01*
X4683738Y16494494D01*
X4697462Y16500060D01*
X4721895Y16503793D01*
X4760702Y16506058D01*
X4817546Y16507222D01*
X4896090Y16507652D01*
X5000000Y16507714D01*
X5013056Y16507714D01*
X5113933Y16507629D01*
G37*
X5113933Y16507629D02*
X5189856Y16507135D01*
X5244491Y16505865D01*
X5281500Y16503453D01*
X5304547Y16499533D01*
X5317296Y16493738D01*
X5323411Y16485701D01*
X5326556Y16475057D01*
X5326646Y16474675D01*
X5331814Y16449653D01*
X5341209Y16401319D01*
X5353867Y16334740D01*
X5368825Y16254986D01*
X5385119Y16167125D01*
X5386448Y16159936D01*
X5402691Y16074660D01*
X5417805Y15999758D01*
X5430808Y15939781D01*
X5440715Y15899283D01*
X5446544Y15882816D01*
X5446575Y15882790D01*
X5464943Y15873680D01*
X5502640Y15858543D01*
X5551543Y15840642D01*
X5554297Y15839670D01*
X5616817Y15816041D01*
X5689543Y15786405D01*
X5757294Y15756938D01*
X5868703Y15706374D01*
X6115399Y15874840D01*
X6132775Y15886689D01*
X6207202Y15937053D01*
X6273614Y15981388D01*
X6328039Y16017084D01*
X6366506Y16041529D01*
X6385042Y16052111D01*
X6397743Y16049685D01*
X6426579Y16030890D01*
X6471143Y15993670D01*
X6532670Y15936980D01*
X6612398Y15859773D01*
X6619532Y15852745D01*
X6682796Y15789778D01*
X6738990Y15732732D01*
X6784677Y15685183D01*
X6816414Y15650703D01*
X6830764Y15632869D01*
X6830810Y15632783D01*
X6832633Y15619205D01*
X6825910Y15597180D01*
X6808946Y15563696D01*
X6780044Y15515739D01*
X6737508Y15450296D01*
X6679644Y15364355D01*
X6669783Y15349849D01*
X6619913Y15276365D01*
X6575905Y15211313D01*
X6540380Y15158583D01*
X6515959Y15122064D01*
X6505264Y15105644D01*
X6504458Y15102166D01*
X6509518Y15076215D01*
X6524677Y15033841D01*
X6547463Y14982272D01*
X6578429Y14914830D01*
X6613004Y14834805D01*
X6642366Y14762371D01*
X6649645Y14743623D01*
X6668710Y14695754D01*
X6682715Y14662404D01*
X6689041Y14649886D01*
X6696025Y14648950D01*
X6727413Y14643539D01*
X6778787Y14634194D01*
X6844802Y14621931D01*
X6920113Y14607768D01*
X6999375Y14592720D01*
X7077243Y14577805D01*
X7148370Y14564039D01*
X7207412Y14552438D01*
X7249022Y14544020D01*
X7267857Y14539801D01*
X7270980Y14538611D01*
X7278591Y14532195D01*
X7284254Y14518535D01*
X7288251Y14494001D01*
X7290866Y14454962D01*
X7292384Y14397787D01*
X7293086Y14318846D01*
X7293257Y14214508D01*
X7293257Y13897201D01*
X7217057Y13882161D01*
X7207840Y13880358D01*
X7158891Y13871020D01*
X7091205Y13858331D01*
X7012478Y13843727D01*
X6930400Y13828645D01*
X6898078Y13822578D01*
X6825855Y13807819D01*
X6765666Y13793863D01*
X6723040Y13782048D01*
X6703510Y13773713D01*
X6694660Y13760095D01*
X6678548Y13724062D01*
X6662065Y13677428D01*
X6656263Y13659966D01*
X6634906Y13602642D01*
X6607359Y13534799D01*
X6578107Y13467645D01*
X6562463Y13432570D01*
X6540174Y13380178D01*
X6524857Y13340942D01*
X6519162Y13321437D01*
X6519478Y13319964D01*
X6530281Y13299271D01*
X6554638Y13259335D01*
X6590081Y13204028D01*
X6634136Y13137219D01*
X6684332Y13062780D01*
X6849501Y12820377D01*
X6632503Y12603017D01*
X6611516Y12582101D01*
X6547342Y12519495D01*
X6489990Y12465505D01*
X6442820Y12423174D01*
X6409192Y12395543D01*
X6392467Y12385657D01*
X6374303Y12393179D01*
X6336265Y12414773D01*
X6282726Y12447849D01*
X6217884Y12489809D01*
X6145940Y12538057D01*
X6075275Y12585709D01*
X6011526Y12627672D01*
X5959513Y12660835D01*
X5923279Y12682622D01*
X5906867Y12690457D01*
X5905905Y12690386D01*
X5884103Y12682662D01*
X5845440Y12664677D01*
X5797612Y12639987D01*
X5797110Y12639716D01*
X5733587Y12607901D01*
X5690060Y12592358D01*
X5663052Y12592315D01*
X5649090Y12607000D01*
X5643180Y12621456D01*
X5627229Y12660169D01*
X5602660Y12719684D01*
X5570779Y12796835D01*
X5532893Y12888459D01*
X5490310Y12991393D01*
X5444337Y13102474D01*
X5402667Y13203528D01*
X5360268Y13307220D01*
X5322756Y13399881D01*
X5291388Y13478358D01*
X5267425Y13539500D01*
X5252123Y13580157D01*
X5246743Y13597175D01*
X5257018Y13612781D01*
X5285563Y13638838D01*
X5325971Y13669113D01*
X5422979Y13748316D01*
X5509793Y13849525D01*
X5573322Y13960884D01*
X5613177Y14079107D01*
X5628965Y14200905D01*
X5620296Y14322990D01*
X5586778Y14442075D01*
X5528021Y14554871D01*
X5443632Y14658089D01*
X5399631Y14698287D01*
X5294211Y14769362D01*
X5181410Y14815699D01*
X5064525Y14838401D01*
X4946853Y14838572D01*
X4831690Y14817313D01*
X4722335Y14775730D01*
X4622083Y14714924D01*
X4534233Y14635999D01*
X4462080Y14540059D01*
X4408922Y14428205D01*
X4378057Y14301543D01*
X4372392Y14240493D01*
X4380185Y14108224D01*
X4415284Y13982734D01*
X4476649Y13866241D01*
X4563243Y13760961D01*
X4674029Y13669113D01*
X4712931Y13640070D01*
X4742104Y13613728D01*
X4753257Y13597200D01*
X4748810Y13582791D01*
X4734378Y13544185D01*
X4711173Y13484799D01*
X4680452Y13407785D01*
X4643474Y13316297D01*
X4601496Y13213484D01*
X4555778Y13102498D01*
X4514178Y13001928D01*
X4471222Y12898053D01*
X4432829Y12805181D01*
X4400305Y12726475D01*
X4374958Y12665101D01*
X4358095Y12624221D01*
X4351025Y12607000D01*
X4350943Y12606796D01*
X4336798Y12592255D01*
X4309659Y12592421D01*
X4266023Y12608073D01*
X4202388Y12639987D01*
X4197379Y12642674D01*
X4150125Y12666850D01*
X4112811Y12683963D01*
X4093133Y12690457D01*
X4077005Y12682782D01*
X4040959Y12661129D01*
X3989092Y12628072D01*
X3925445Y12586190D01*
X3854060Y12538057D01*
X3783724Y12490869D01*
X3718670Y12448733D01*
X3664820Y12415422D01*
X3626374Y12393531D01*
X3607534Y12385657D01*
X3604325Y12386657D01*
X3581954Y12402416D01*
X3543733Y12434967D01*
X3493021Y12481267D01*
X3433181Y12538274D01*
X3367571Y12602942D01*
X3150648Y12820228D01*
X3319601Y13068747D01*
X3488553Y13317267D01*
X3437183Y13428405D01*
X3437031Y13428734D01*
X3406183Y13499582D01*
X3374661Y13578477D01*
X3349266Y13648400D01*
X3345423Y13659678D01*
X3326047Y13712033D01*
X3308574Y13752717D01*
X3296388Y13773713D01*
X3291426Y13776678D01*
X3261634Y13786625D01*
X3211047Y13799495D01*
X3145194Y13813947D01*
X3069600Y13828645D01*
X3046957Y13832790D01*
X2965038Y13847884D01*
X2888600Y13862101D01*
X2825337Y13874005D01*
X2782943Y13882161D01*
X2706743Y13897201D01*
X2706743Y14214508D01*
X2706760Y14253524D01*
X2707082Y14348708D01*
X2708033Y14419745D01*
X2709896Y14470266D01*
X2712955Y14503902D01*
X2717494Y14524282D01*
X2723795Y14535038D01*
X2732143Y14539801D01*
X2740224Y14541730D01*
X2773172Y14548555D01*
X2825736Y14558978D01*
X2892569Y14571982D01*
X2968328Y14586551D01*
X3047665Y14601667D01*
X3125237Y14616315D01*
X3195698Y14629477D01*
X3253702Y14640137D01*
X3293904Y14647279D01*
X3310959Y14649886D01*
X3312112Y14651459D01*
X3321385Y14671881D01*
X3337432Y14710955D01*
X3357635Y14762371D01*
X3385672Y14831647D01*
X3420186Y14911710D01*
X3452538Y14982272D01*
X3459952Y14998111D01*
X3480755Y15047707D01*
X3493219Y15085962D01*
X3494863Y15105644D01*
X3494015Y15107038D01*
X3480548Y15127580D01*
X3453850Y15167484D01*
X3416539Y15222860D01*
X3371234Y15289823D01*
X3320552Y15364483D01*
X3263445Y15449308D01*
X3220607Y15515200D01*
X3191460Y15563522D01*
X3174317Y15597267D01*
X3167495Y15619428D01*
X3169306Y15632998D01*
X3169915Y15634016D01*
X3186297Y15653790D01*
X3219695Y15689825D01*
X3266671Y15738549D01*
X3323786Y15796388D01*
X3387603Y15859773D01*
X3453802Y15924095D01*
X3518648Y15984553D01*
X3566299Y16025345D01*
X3597990Y16047516D01*
X3614958Y16052111D01*
X3617175Y16051079D01*
X3640524Y16037163D01*
X3682912Y16009970D01*
X3740369Y15972111D01*
X3808923Y15926197D01*
X3884601Y15874840D01*
X4131298Y15706374D01*
X4242706Y15756938D01*
X4245943Y15758403D01*
X4314343Y15788035D01*
X4386907Y15817507D01*
X4448457Y15840642D01*
X4448729Y15840738D01*
X4497595Y15858633D01*
X4535212Y15873747D01*
X4553457Y15882816D01*
X4553752Y15883145D01*
X4559946Y15901718D01*
X4570139Y15943955D01*
X4583348Y16005304D01*
X4598590Y16081211D01*
X4614881Y16167125D01*
X4615449Y16170204D01*
X4631713Y16257872D01*
X4646608Y16337259D01*
X4659171Y16403299D01*
X4668438Y16450921D01*
X4673444Y16475057D01*
X4673764Y16476395D01*
X4677060Y16486727D01*
X4683738Y16494494D01*
X4697462Y16500060D01*
X4721895Y16503793D01*
X4760702Y16506058D01*
X4817546Y16507222D01*
X4896090Y16507652D01*
X5000000Y16507714D01*
X5013056Y16507714D01*
X5113933Y16507629D01*
M02*
