M48
; DRILL file {KiCad (5.1.0-1558-g0ba0c1724)} date Fri 22 Nov 2019 01:18:12 AM PST
; FORMAT={-:-/ absolute / metric / decimal}
; #@! TF.CreationDate,2019-11-22T01:18:12-08:00
; #@! TF.GenerationSoftware,Kicad,Pcbnew,(5.1.0-1558-g0ba0c1724)
; #@! TF.FileFunction,Plated,1,2,PTH
FMAT,2
METRIC
T1C0.300
T2C0.305
T3C0.381
T4C0.500
T5C1.000
%
G90
G05
T1
X112.081Y-102.468
X112.497Y-99.009
X115.519Y-102.972
X115.799Y-100.914
X116.257Y-104.751
X116.801Y-103.28
X117.475Y-100.012
X117.62Y-103.052
X117.653Y-106.02
X118.059Y-105.283
X118.604Y-105.834
X118.669Y-107.137
X118.694Y-90.195
X118.798Y-103.052
X120.269Y-87.122
X120.269Y-95.377
X120.654Y-102.201
X121.285Y-107.62
X121.541Y-102.258
X122.53Y-102.133
X123.114Y-107.645
X123.8Y-102.133
X124.003Y-107.467
X124.684Y-104.306
X125.371Y-104.712
X125.547Y-98.394
X125.654Y-106.599
X126.297Y-97.235
X126.483Y-106.943
X126.936Y-98.361
X127.152Y-105.359
X127.406Y-98.984
X127.66Y-107.62
X127.74Y-105.883
X128.198Y-99.053
X129.773Y-99.069
X130.491Y-106.244
X130.714Y-105.023
X130.886Y-103.708
X131.699Y-104.013
X131.851Y-99.187
X133.35Y-87.122
X134.493Y-93.599
X134.849Y-91.313
X135.795Y-92.989
T2
X124.968Y-81.28
X125.451Y-90.424
X125.451Y-91.694
X126.06Y-81.28
X126.086Y-89.789
X126.086Y-91.059
X126.086Y-92.329
X126.111Y-85.776
X126.238Y-87.503
X126.721Y-90.424
X126.721Y-91.694
X127.127Y-87.503
X127.254Y-85.776
X127.33Y-81.28
X127.356Y-89.789
X127.356Y-91.059
X127.356Y-92.329
X127.927Y-90.424
X127.927Y-91.694
X128.422Y-81.28
T3
X121.996Y-88.417
X121.996Y-89.459
X122.682Y-89.459
X122.707Y-88.417
X123.393Y-88.417
X129.972Y-88.367
X130.658Y-89.408
X130.683Y-88.367
X131.343Y-89.433
X131.369Y-88.367
T4
X110.998Y-80.772
X110.998Y-83.058
X113.03Y-80.772
X113.03Y-83.058
X114.808Y-80.772
X114.808Y-83.058
X116.586Y-80.772
X116.586Y-83.058
X137.414Y-80.772
X137.414Y-83.058
X139.446Y-80.772
X139.446Y-83.058
X141.224Y-80.772
X141.224Y-83.058
X143.002Y-80.772
X143.002Y-83.058
T5
X122.809Y-78.562
X125.349Y-78.562
X127.889Y-78.562
X130.429Y-78.562
T0
M30
