G04 #@! TF.GenerationSoftware,KiCad,Pcbnew,5.99.0-unknown-d20d310~86~ubuntu19.10.1*
G04 #@! TF.CreationDate,2019-12-18T16:01:45-08:00*
G04 #@! TF.ProjectId,TMC2209_Driver,544d4332-3230-4395-9f44-72697665722e,rev?*
G04 #@! TF.SameCoordinates,PX67f3540PY6cb8080*
G04 #@! TF.FileFunction,Soldermask,Bot*
G04 #@! TF.FilePolarity,Negative*
%FSLAX46Y46*%
G04 Gerber Fmt 4.6, Leading zero omitted, Abs format (unit mm)*
G04 Created by KiCad (PCBNEW 5.99.0-unknown-d20d310~86~ubuntu19.10.1) date 2019-12-18 16:01:45*
%MOMM*%
%LPD*%
G04 APERTURE LIST*
G04 APERTURE END LIST*
G36*
X21997699Y5662841D02*
G01*
X22014569Y5651569D01*
X22025841Y5634699D01*
X22030203Y5612769D01*
X22062849Y5550359D01*
X22124055Y5515507D01*
X22194386Y5519278D01*
X22251514Y5560473D01*
X22275397Y5612769D01*
X22279759Y5634699D01*
X22291031Y5651569D01*
X22307901Y5662841D01*
X22340112Y5669248D01*
X22965488Y5669248D01*
X22997699Y5662841D01*
X23014569Y5651569D01*
X23025841Y5634699D01*
X23030203Y5612769D01*
X23062849Y5550359D01*
X23124055Y5515507D01*
X23194386Y5519278D01*
X23251514Y5560473D01*
X23275397Y5612769D01*
X23279759Y5634699D01*
X23291031Y5651569D01*
X23307901Y5662841D01*
X23340112Y5669248D01*
X23965488Y5669248D01*
X23997699Y5662841D01*
X24014569Y5651569D01*
X24025841Y5634699D01*
X24030203Y5612769D01*
X24062849Y5550359D01*
X24124055Y5515507D01*
X24194386Y5519278D01*
X24251514Y5560473D01*
X24275397Y5612769D01*
X24279759Y5634699D01*
X24291031Y5651569D01*
X24307901Y5662841D01*
X24340112Y5669248D01*
X24965488Y5669248D01*
X24997699Y5662841D01*
X25014569Y5651569D01*
X25025841Y5634699D01*
X25030203Y5612769D01*
X25062849Y5550359D01*
X25124055Y5515507D01*
X25194386Y5519278D01*
X25251514Y5560473D01*
X25275397Y5612769D01*
X25279759Y5634699D01*
X25291031Y5651569D01*
X25307901Y5662841D01*
X25340112Y5669248D01*
X25965488Y5669248D01*
X25997699Y5662841D01*
X26014569Y5651569D01*
X26025841Y5634699D01*
X26030203Y5612769D01*
X26062849Y5550359D01*
X26124055Y5515507D01*
X26194386Y5519278D01*
X26251514Y5560473D01*
X26275397Y5612769D01*
X26279759Y5634699D01*
X26291031Y5651569D01*
X26307901Y5662841D01*
X26340112Y5669248D01*
X26965488Y5669248D01*
X26997699Y5662841D01*
X27014569Y5651569D01*
X27025841Y5634699D01*
X27030203Y5612769D01*
X27062849Y5550359D01*
X27124055Y5515507D01*
X27194386Y5519278D01*
X27251514Y5560473D01*
X27275397Y5612769D01*
X27279759Y5634699D01*
X27291031Y5651569D01*
X27307901Y5662841D01*
X27340112Y5669248D01*
X27965488Y5669248D01*
X27997699Y5662841D01*
X28014569Y5651569D01*
X28025841Y5634699D01*
X28032248Y5602488D01*
X28032248Y1027114D01*
X28030068Y1016155D01*
X28028193Y998309D01*
X28027736Y945986D01*
X28008949Y893946D01*
X27994521Y848872D01*
X27990563Y843015D01*
X27985232Y828248D01*
X27955809Y791587D01*
X27934212Y759629D01*
X27922111Y749601D01*
X27906882Y730625D01*
X27874356Y710023D01*
X27851286Y690904D01*
X27828941Y681257D01*
X27801134Y663645D01*
X27772007Y656679D01*
X27752398Y648214D01*
X27719700Y644170D01*
X27679391Y634530D01*
X27658145Y636557D01*
X27645508Y634994D01*
X27604470Y641678D01*
X27554781Y646418D01*
X27543211Y651654D01*
X27539198Y652308D01*
X27493546Y674132D01*
X27440741Y698030D01*
X27398892Y737398D01*
X27361798Y770622D01*
X27359303Y774639D01*
X27349566Y783798D01*
X27326550Y827360D01*
X27304962Y862109D01*
X27301371Y875015D01*
X27291089Y894475D01*
X27284743Y934769D01*
X27272481Y978837D01*
X27235247Y1038624D01*
X27171602Y1068790D01*
X27101751Y1059757D01*
X27047871Y1014394D01*
X27033632Y968236D01*
X27032814Y968498D01*
X27027796Y952821D01*
X27027736Y945986D01*
X27008951Y893950D01*
X26994521Y848872D01*
X26990563Y843015D01*
X26985232Y828248D01*
X26955809Y791587D01*
X26934212Y759629D01*
X26922111Y749601D01*
X26906882Y730625D01*
X26874356Y710023D01*
X26851286Y690904D01*
X26828941Y681257D01*
X26801134Y663645D01*
X26772007Y656679D01*
X26752398Y648214D01*
X26719700Y644170D01*
X26679391Y634530D01*
X26658145Y636557D01*
X26645508Y634994D01*
X26604470Y641678D01*
X26554781Y646418D01*
X26543211Y651654D01*
X26539198Y652308D01*
X26493546Y674132D01*
X26440741Y698030D01*
X26398892Y737398D01*
X26361798Y770622D01*
X26359303Y774639D01*
X26349566Y783798D01*
X26326550Y827360D01*
X26304962Y862109D01*
X26301371Y875015D01*
X26291089Y894475D01*
X26284743Y934769D01*
X26272481Y978837D01*
X26235247Y1038624D01*
X26171602Y1068790D01*
X26101751Y1059757D01*
X26047871Y1014394D01*
X26033632Y968236D01*
X26032814Y968498D01*
X26027796Y952821D01*
X26027736Y945986D01*
X26008951Y893950D01*
X25994521Y848872D01*
X25990563Y843015D01*
X25985232Y828248D01*
X25955809Y791587D01*
X25934212Y759629D01*
X25922111Y749601D01*
X25906882Y730625D01*
X25874356Y710023D01*
X25851286Y690904D01*
X25828941Y681257D01*
X25801134Y663645D01*
X25772007Y656679D01*
X25752398Y648214D01*
X25719700Y644170D01*
X25679391Y634530D01*
X25658145Y636557D01*
X25645508Y634994D01*
X25604470Y641678D01*
X25554781Y646418D01*
X25543211Y651654D01*
X25539198Y652308D01*
X25493546Y674132D01*
X25440741Y698030D01*
X25398892Y737398D01*
X25361798Y770622D01*
X25359303Y774639D01*
X25349566Y783798D01*
X25326550Y827360D01*
X25304962Y862109D01*
X25301371Y875015D01*
X25291089Y894475D01*
X25284743Y934769D01*
X25272481Y978837D01*
X25235247Y1038624D01*
X25171602Y1068790D01*
X25101751Y1059757D01*
X25047871Y1014394D01*
X25033632Y968236D01*
X25032814Y968498D01*
X25027796Y952821D01*
X25027736Y945986D01*
X25008951Y893950D01*
X24994521Y848872D01*
X24990563Y843015D01*
X24985232Y828248D01*
X24955809Y791587D01*
X24934212Y759629D01*
X24922111Y749601D01*
X24906882Y730625D01*
X24874356Y710023D01*
X24851286Y690904D01*
X24828941Y681257D01*
X24801134Y663645D01*
X24772007Y656679D01*
X24752398Y648214D01*
X24719700Y644170D01*
X24679391Y634530D01*
X24658145Y636557D01*
X24645508Y634994D01*
X24604470Y641678D01*
X24554781Y646418D01*
X24543211Y651654D01*
X24539198Y652308D01*
X24493546Y674132D01*
X24440741Y698030D01*
X24398892Y737398D01*
X24361798Y770622D01*
X24359303Y774639D01*
X24349566Y783798D01*
X24326550Y827360D01*
X24304962Y862109D01*
X24301371Y875015D01*
X24291089Y894475D01*
X24284743Y934769D01*
X24272481Y978837D01*
X24235247Y1038624D01*
X24171602Y1068790D01*
X24101751Y1059757D01*
X24047871Y1014394D01*
X24033632Y968236D01*
X24032814Y968498D01*
X24027796Y952821D01*
X24027736Y945986D01*
X24008951Y893950D01*
X23994521Y848872D01*
X23990563Y843015D01*
X23985232Y828248D01*
X23955809Y791587D01*
X23934212Y759629D01*
X23922111Y749601D01*
X23906882Y730625D01*
X23874356Y710023D01*
X23851286Y690904D01*
X23828941Y681257D01*
X23801134Y663645D01*
X23772007Y656679D01*
X23752398Y648214D01*
X23719700Y644170D01*
X23679391Y634530D01*
X23658145Y636557D01*
X23645508Y634994D01*
X23604470Y641678D01*
X23554781Y646418D01*
X23543211Y651654D01*
X23539198Y652308D01*
X23493546Y674132D01*
X23440741Y698030D01*
X23398892Y737398D01*
X23361798Y770622D01*
X23359303Y774639D01*
X23349566Y783798D01*
X23326550Y827360D01*
X23304962Y862109D01*
X23301371Y875015D01*
X23291089Y894475D01*
X23284743Y934769D01*
X23272481Y978837D01*
X23235247Y1038624D01*
X23171602Y1068790D01*
X23101751Y1059757D01*
X23047871Y1014394D01*
X23033632Y968236D01*
X23032814Y968498D01*
X23027796Y952821D01*
X23027736Y945986D01*
X23008951Y893950D01*
X22994521Y848872D01*
X22990563Y843015D01*
X22985232Y828248D01*
X22955809Y791587D01*
X22934212Y759629D01*
X22922111Y749601D01*
X22906882Y730625D01*
X22874356Y710023D01*
X22851286Y690904D01*
X22828941Y681257D01*
X22801134Y663645D01*
X22772007Y656679D01*
X22752398Y648214D01*
X22719700Y644170D01*
X22679391Y634530D01*
X22658145Y636557D01*
X22645508Y634994D01*
X22604470Y641678D01*
X22554781Y646418D01*
X22543211Y651654D01*
X22539198Y652308D01*
X22493546Y674132D01*
X22440741Y698030D01*
X22398892Y737398D01*
X22361798Y770622D01*
X22359303Y774639D01*
X22349566Y783798D01*
X22326550Y827360D01*
X22304962Y862109D01*
X22301371Y875015D01*
X22291089Y894475D01*
X22284743Y934769D01*
X22272481Y978837D01*
X22235247Y1038624D01*
X22171602Y1068790D01*
X22101751Y1059757D01*
X22047871Y1014394D01*
X22033632Y968236D01*
X22032814Y968498D01*
X22027796Y952821D01*
X22027736Y945986D01*
X22008951Y893950D01*
X21994521Y848872D01*
X21990563Y843015D01*
X21985232Y828248D01*
X21955809Y791587D01*
X21934212Y759629D01*
X21922111Y749601D01*
X21906882Y730625D01*
X21874356Y710023D01*
X21851286Y690904D01*
X21828941Y681257D01*
X21801134Y663645D01*
X21772007Y656679D01*
X21752398Y648214D01*
X21719700Y644170D01*
X21679391Y634530D01*
X21658145Y636557D01*
X21645508Y634994D01*
X21604470Y641678D01*
X21554781Y646418D01*
X21543211Y651654D01*
X21539198Y652308D01*
X21493546Y674132D01*
X21440741Y698030D01*
X21398892Y737398D01*
X21361798Y770622D01*
X21359303Y774639D01*
X21349566Y783798D01*
X21326550Y827360D01*
X21304962Y862109D01*
X21301371Y875015D01*
X21291089Y894475D01*
X21284743Y934772D01*
X21276088Y965876D01*
X21276376Y987900D01*
X21271616Y1018127D01*
X21273352Y1028023D01*
X21273352Y5602488D01*
X21279759Y5634699D01*
X21291031Y5651569D01*
X21307901Y5662841D01*
X21340112Y5669248D01*
X21965488Y5669248D01*
X21997699Y5662841D01*
G37*
G36*
X8997699Y5662841D02*
G01*
X9014569Y5651569D01*
X9025841Y5634699D01*
X9030203Y5612769D01*
X9062849Y5550359D01*
X9124055Y5515507D01*
X9194386Y5519278D01*
X9251514Y5560473D01*
X9275397Y5612769D01*
X9279759Y5634699D01*
X9291031Y5651569D01*
X9307901Y5662841D01*
X9340112Y5669248D01*
X9965488Y5669248D01*
X9997699Y5662841D01*
X10014569Y5651569D01*
X10025841Y5634699D01*
X10030203Y5612769D01*
X10062849Y5550359D01*
X10124055Y5515507D01*
X10194386Y5519278D01*
X10251514Y5560473D01*
X10275397Y5612769D01*
X10279759Y5634699D01*
X10291031Y5651569D01*
X10307901Y5662841D01*
X10340112Y5669248D01*
X10965488Y5669248D01*
X10997699Y5662841D01*
X11014569Y5651569D01*
X11025841Y5634699D01*
X11030203Y5612769D01*
X11062849Y5550359D01*
X11124055Y5515507D01*
X11194386Y5519278D01*
X11251514Y5560473D01*
X11275397Y5612769D01*
X11279759Y5634699D01*
X11291031Y5651569D01*
X11307901Y5662841D01*
X11340112Y5669248D01*
X11965488Y5669248D01*
X11997699Y5662841D01*
X12014569Y5651569D01*
X12025841Y5634699D01*
X12030203Y5612769D01*
X12062849Y5550359D01*
X12124055Y5515507D01*
X12194386Y5519278D01*
X12251514Y5560473D01*
X12275397Y5612769D01*
X12279759Y5634699D01*
X12291031Y5651569D01*
X12307901Y5662841D01*
X12340112Y5669248D01*
X12965488Y5669248D01*
X12997699Y5662841D01*
X13014569Y5651569D01*
X13025841Y5634699D01*
X13030203Y5612769D01*
X13062849Y5550359D01*
X13124055Y5515507D01*
X13194386Y5519278D01*
X13251514Y5560473D01*
X13275397Y5612769D01*
X13279759Y5634699D01*
X13291031Y5651569D01*
X13307901Y5662841D01*
X13340112Y5669248D01*
X13965488Y5669248D01*
X13997699Y5662841D01*
X14014569Y5651569D01*
X14025841Y5634699D01*
X14030203Y5612769D01*
X14062849Y5550359D01*
X14124055Y5515507D01*
X14194386Y5519278D01*
X14251514Y5560473D01*
X14275397Y5612769D01*
X14279759Y5634699D01*
X14291031Y5651569D01*
X14307901Y5662841D01*
X14340112Y5669248D01*
X14965488Y5669248D01*
X14997699Y5662841D01*
X15014569Y5651569D01*
X15025841Y5634699D01*
X15030203Y5612769D01*
X15062849Y5550359D01*
X15124055Y5515507D01*
X15194386Y5519278D01*
X15251514Y5560473D01*
X15275397Y5612769D01*
X15279759Y5634699D01*
X15291031Y5651569D01*
X15307901Y5662841D01*
X15340112Y5669248D01*
X15965488Y5669248D01*
X15997699Y5662841D01*
X16014569Y5651569D01*
X16025841Y5634699D01*
X16030203Y5612769D01*
X16062849Y5550359D01*
X16124055Y5515507D01*
X16194386Y5519278D01*
X16251514Y5560473D01*
X16275397Y5612769D01*
X16279759Y5634699D01*
X16291031Y5651569D01*
X16307901Y5662841D01*
X16340112Y5669248D01*
X16965488Y5669248D01*
X16997699Y5662841D01*
X17014569Y5651569D01*
X17025841Y5634699D01*
X17030203Y5612769D01*
X17062849Y5550359D01*
X17124055Y5515507D01*
X17194386Y5519278D01*
X17251514Y5560473D01*
X17275397Y5612769D01*
X17279759Y5634699D01*
X17291031Y5651569D01*
X17307901Y5662841D01*
X17340112Y5669248D01*
X17965488Y5669248D01*
X17997699Y5662841D01*
X18014569Y5651569D01*
X18025841Y5634699D01*
X18030203Y5612769D01*
X18062849Y5550359D01*
X18124055Y5515507D01*
X18194386Y5519278D01*
X18251514Y5560473D01*
X18275397Y5612769D01*
X18279759Y5634699D01*
X18291031Y5651569D01*
X18307901Y5662841D01*
X18340112Y5669248D01*
X18965488Y5669248D01*
X18997699Y5662841D01*
X19014569Y5651569D01*
X19025841Y5634699D01*
X19032248Y5602488D01*
X19032248Y1027114D01*
X19030068Y1016155D01*
X19028193Y998309D01*
X19027736Y945986D01*
X19008949Y893946D01*
X18994521Y848872D01*
X18990563Y843015D01*
X18985232Y828248D01*
X18955809Y791587D01*
X18934212Y759629D01*
X18922111Y749601D01*
X18906882Y730625D01*
X18874356Y710023D01*
X18851286Y690904D01*
X18828941Y681257D01*
X18801134Y663645D01*
X18772007Y656679D01*
X18752398Y648214D01*
X18719700Y644170D01*
X18679391Y634530D01*
X18658145Y636557D01*
X18645508Y634994D01*
X18604470Y641678D01*
X18554781Y646418D01*
X18543211Y651654D01*
X18539198Y652308D01*
X18493546Y674132D01*
X18440741Y698030D01*
X18398892Y737398D01*
X18361798Y770622D01*
X18359303Y774639D01*
X18349566Y783798D01*
X18326550Y827360D01*
X18304962Y862109D01*
X18301371Y875015D01*
X18291089Y894475D01*
X18284743Y934769D01*
X18272481Y978837D01*
X18235247Y1038624D01*
X18171602Y1068790D01*
X18101751Y1059757D01*
X18047871Y1014394D01*
X18033632Y968236D01*
X18032814Y968498D01*
X18027796Y952821D01*
X18027736Y945986D01*
X18008951Y893950D01*
X17994521Y848872D01*
X17990563Y843015D01*
X17985232Y828248D01*
X17955809Y791587D01*
X17934212Y759629D01*
X17922111Y749601D01*
X17906882Y730625D01*
X17874356Y710023D01*
X17851286Y690904D01*
X17828941Y681257D01*
X17801134Y663645D01*
X17772007Y656679D01*
X17752398Y648214D01*
X17719700Y644170D01*
X17679391Y634530D01*
X17658145Y636557D01*
X17645508Y634994D01*
X17604470Y641678D01*
X17554781Y646418D01*
X17543211Y651654D01*
X17539198Y652308D01*
X17493546Y674132D01*
X17440741Y698030D01*
X17398892Y737398D01*
X17361798Y770622D01*
X17359303Y774639D01*
X17349566Y783798D01*
X17326550Y827360D01*
X17304962Y862109D01*
X17301371Y875015D01*
X17291089Y894475D01*
X17284743Y934769D01*
X17272481Y978837D01*
X17235247Y1038624D01*
X17171602Y1068790D01*
X17101751Y1059757D01*
X17047871Y1014394D01*
X17033632Y968236D01*
X17032814Y968498D01*
X17027796Y952821D01*
X17027736Y945986D01*
X17008951Y893950D01*
X16994521Y848872D01*
X16990563Y843015D01*
X16985232Y828248D01*
X16955809Y791587D01*
X16934212Y759629D01*
X16922111Y749601D01*
X16906882Y730625D01*
X16874356Y710023D01*
X16851286Y690904D01*
X16828941Y681257D01*
X16801134Y663645D01*
X16772007Y656679D01*
X16752398Y648214D01*
X16719700Y644170D01*
X16679391Y634530D01*
X16658145Y636557D01*
X16645508Y634994D01*
X16604470Y641678D01*
X16554781Y646418D01*
X16543211Y651654D01*
X16539198Y652308D01*
X16493546Y674132D01*
X16440741Y698030D01*
X16398892Y737398D01*
X16361798Y770622D01*
X16359303Y774639D01*
X16349566Y783798D01*
X16326550Y827360D01*
X16304962Y862109D01*
X16301371Y875015D01*
X16291089Y894475D01*
X16284743Y934769D01*
X16272481Y978837D01*
X16235247Y1038624D01*
X16171602Y1068790D01*
X16101751Y1059757D01*
X16047871Y1014394D01*
X16033632Y968236D01*
X16032814Y968498D01*
X16027796Y952821D01*
X16027736Y945986D01*
X16008951Y893950D01*
X15994521Y848872D01*
X15990563Y843015D01*
X15985232Y828248D01*
X15955809Y791587D01*
X15934212Y759629D01*
X15922111Y749601D01*
X15906882Y730625D01*
X15874356Y710023D01*
X15851286Y690904D01*
X15828941Y681257D01*
X15801134Y663645D01*
X15772007Y656679D01*
X15752398Y648214D01*
X15719700Y644170D01*
X15679391Y634530D01*
X15658145Y636557D01*
X15645508Y634994D01*
X15604470Y641678D01*
X15554781Y646418D01*
X15543211Y651654D01*
X15539198Y652308D01*
X15493546Y674132D01*
X15440741Y698030D01*
X15398892Y737398D01*
X15361798Y770622D01*
X15359303Y774639D01*
X15349566Y783798D01*
X15326550Y827360D01*
X15304962Y862109D01*
X15301371Y875015D01*
X15291089Y894475D01*
X15284743Y934769D01*
X15272481Y978837D01*
X15235247Y1038624D01*
X15171602Y1068790D01*
X15101751Y1059757D01*
X15047871Y1014394D01*
X15033632Y968236D01*
X15032814Y968498D01*
X15027796Y952821D01*
X15027736Y945986D01*
X15008951Y893950D01*
X14994521Y848872D01*
X14990563Y843015D01*
X14985232Y828248D01*
X14955809Y791587D01*
X14934212Y759629D01*
X14922111Y749601D01*
X14906882Y730625D01*
X14874356Y710023D01*
X14851286Y690904D01*
X14828941Y681257D01*
X14801134Y663645D01*
X14772007Y656679D01*
X14752398Y648214D01*
X14719700Y644170D01*
X14679391Y634530D01*
X14658145Y636557D01*
X14645508Y634994D01*
X14604470Y641678D01*
X14554781Y646418D01*
X14543211Y651654D01*
X14539198Y652308D01*
X14493546Y674132D01*
X14440741Y698030D01*
X14398892Y737398D01*
X14361798Y770622D01*
X14359303Y774639D01*
X14349566Y783798D01*
X14326550Y827360D01*
X14304962Y862109D01*
X14301371Y875015D01*
X14291089Y894475D01*
X14284743Y934769D01*
X14272481Y978837D01*
X14235247Y1038624D01*
X14171602Y1068790D01*
X14101751Y1059757D01*
X14047871Y1014394D01*
X14033632Y968236D01*
X14032814Y968498D01*
X14027796Y952821D01*
X14027736Y945986D01*
X14008951Y893950D01*
X13994521Y848872D01*
X13990563Y843015D01*
X13985232Y828248D01*
X13955809Y791587D01*
X13934212Y759629D01*
X13922111Y749601D01*
X13906882Y730625D01*
X13874356Y710023D01*
X13851286Y690904D01*
X13828941Y681257D01*
X13801134Y663645D01*
X13772007Y656679D01*
X13752398Y648214D01*
X13719700Y644170D01*
X13679391Y634530D01*
X13658145Y636557D01*
X13645508Y634994D01*
X13604470Y641678D01*
X13554781Y646418D01*
X13543211Y651654D01*
X13539198Y652308D01*
X13493546Y674132D01*
X13440741Y698030D01*
X13398892Y737398D01*
X13361798Y770622D01*
X13359303Y774639D01*
X13349566Y783798D01*
X13326550Y827360D01*
X13304962Y862109D01*
X13301371Y875015D01*
X13291089Y894475D01*
X13284743Y934769D01*
X13272481Y978837D01*
X13235247Y1038624D01*
X13171602Y1068790D01*
X13101751Y1059757D01*
X13047871Y1014394D01*
X13033632Y968236D01*
X13032814Y968498D01*
X13027796Y952821D01*
X13027736Y945986D01*
X13008951Y893950D01*
X12994521Y848872D01*
X12990563Y843015D01*
X12985232Y828248D01*
X12955809Y791587D01*
X12934212Y759629D01*
X12922111Y749601D01*
X12906882Y730625D01*
X12874356Y710023D01*
X12851286Y690904D01*
X12828941Y681257D01*
X12801134Y663645D01*
X12772007Y656679D01*
X12752398Y648214D01*
X12719700Y644170D01*
X12679391Y634530D01*
X12658145Y636557D01*
X12645508Y634994D01*
X12604470Y641678D01*
X12554781Y646418D01*
X12543211Y651654D01*
X12539198Y652308D01*
X12493546Y674132D01*
X12440741Y698030D01*
X12398892Y737398D01*
X12361798Y770622D01*
X12359303Y774639D01*
X12349566Y783798D01*
X12326550Y827360D01*
X12304962Y862109D01*
X12301371Y875015D01*
X12291089Y894475D01*
X12284743Y934769D01*
X12272481Y978837D01*
X12235247Y1038624D01*
X12171602Y1068790D01*
X12101751Y1059757D01*
X12047871Y1014394D01*
X12033632Y968236D01*
X12032814Y968498D01*
X12027796Y952821D01*
X12027736Y945986D01*
X12008951Y893950D01*
X11994521Y848872D01*
X11990563Y843015D01*
X11985232Y828248D01*
X11955809Y791587D01*
X11934212Y759629D01*
X11922111Y749601D01*
X11906882Y730625D01*
X11874356Y710023D01*
X11851286Y690904D01*
X11828941Y681257D01*
X11801134Y663645D01*
X11772007Y656679D01*
X11752398Y648214D01*
X11719700Y644170D01*
X11679391Y634530D01*
X11658145Y636557D01*
X11645508Y634994D01*
X11604470Y641678D01*
X11554781Y646418D01*
X11543211Y651654D01*
X11539198Y652308D01*
X11493546Y674132D01*
X11440741Y698030D01*
X11398892Y737398D01*
X11361798Y770622D01*
X11359303Y774639D01*
X11349566Y783798D01*
X11326550Y827360D01*
X11304962Y862109D01*
X11301371Y875015D01*
X11291089Y894475D01*
X11284743Y934769D01*
X11272481Y978837D01*
X11235247Y1038624D01*
X11171602Y1068790D01*
X11101751Y1059757D01*
X11047871Y1014394D01*
X11033632Y968236D01*
X11032814Y968498D01*
X11027796Y952821D01*
X11027736Y945986D01*
X11008951Y893950D01*
X10994521Y848872D01*
X10990563Y843015D01*
X10985232Y828248D01*
X10955809Y791587D01*
X10934212Y759629D01*
X10922111Y749601D01*
X10906882Y730625D01*
X10874356Y710023D01*
X10851286Y690904D01*
X10828941Y681257D01*
X10801134Y663645D01*
X10772007Y656679D01*
X10752398Y648214D01*
X10719700Y644170D01*
X10679391Y634530D01*
X10658145Y636557D01*
X10645508Y634994D01*
X10604470Y641678D01*
X10554781Y646418D01*
X10543211Y651654D01*
X10539198Y652308D01*
X10493546Y674132D01*
X10440741Y698030D01*
X10398892Y737398D01*
X10361798Y770622D01*
X10359303Y774639D01*
X10349566Y783798D01*
X10326550Y827360D01*
X10304962Y862109D01*
X10301371Y875015D01*
X10291089Y894475D01*
X10284743Y934769D01*
X10272481Y978837D01*
X10235247Y1038624D01*
X10171602Y1068790D01*
X10101751Y1059757D01*
X10047871Y1014394D01*
X10033632Y968236D01*
X10032814Y968498D01*
X10027796Y952821D01*
X10027736Y945986D01*
X10008951Y893950D01*
X9994521Y848872D01*
X9990563Y843015D01*
X9985232Y828248D01*
X9955809Y791587D01*
X9934212Y759629D01*
X9922111Y749601D01*
X9906882Y730625D01*
X9874356Y710023D01*
X9851286Y690904D01*
X9828941Y681257D01*
X9801134Y663645D01*
X9772007Y656679D01*
X9752398Y648214D01*
X9719700Y644170D01*
X9679391Y634530D01*
X9658145Y636557D01*
X9645508Y634994D01*
X9604470Y641678D01*
X9554781Y646418D01*
X9543211Y651654D01*
X9539198Y652308D01*
X9493546Y674132D01*
X9440741Y698030D01*
X9398892Y737398D01*
X9361798Y770622D01*
X9359303Y774639D01*
X9349566Y783798D01*
X9326550Y827360D01*
X9304962Y862109D01*
X9301371Y875015D01*
X9291089Y894475D01*
X9284743Y934772D01*
X9276088Y965876D01*
X9276376Y987900D01*
X9271616Y1018127D01*
X9273352Y1028023D01*
X9273352Y1970088D01*
X9253509Y2037668D01*
X9200279Y2083791D01*
X9130564Y2093815D01*
X9066496Y2064556D01*
X9027093Y1996775D01*
X9025841Y1994901D01*
X9014569Y1978031D01*
X8997699Y1966759D01*
X8977800Y1962801D01*
X8965488Y1960352D01*
X8340112Y1960352D01*
X8307901Y1966759D01*
X8291031Y1978031D01*
X8279759Y1994901D01*
X8273352Y2027112D01*
X8273352Y5602488D01*
X8279759Y5634699D01*
X8291031Y5651569D01*
X8307901Y5662841D01*
X8340112Y5669248D01*
X8965488Y5669248D01*
X8997699Y5662841D01*
G37*
G36*
X33759157Y4658206D02*
G01*
X33813764Y4660113D01*
X33871626Y4652803D01*
X33935961Y4649713D01*
X33989288Y4637940D01*
X34037430Y4631858D01*
X34099258Y4613661D01*
X34168128Y4598456D01*
X34213047Y4580171D01*
X34253709Y4568203D01*
X34317351Y4537711D01*
X34388340Y4508813D01*
X34424327Y4486457D01*
X34457022Y4470792D01*
X34519994Y4427025D01*
X34590300Y4383349D01*
X34617423Y4359311D01*
X34642151Y4342124D01*
X34701712Y4284606D01*
X34768233Y4225650D01*
X34787079Y4202168D01*
X34804327Y4185512D01*
X34857597Y4114304D01*
X34917051Y4040226D01*
X34928689Y4019274D01*
X34939376Y4004988D01*
X34983429Y3920723D01*
X35032500Y3832378D01*
X35038405Y3815564D01*
X35043823Y3805200D01*
X35075765Y3709180D01*
X35111279Y3608051D01*
X35113238Y3596532D01*
X35114988Y3591270D01*
X35132172Y3485173D01*
X35151134Y3373656D01*
X35148362Y3109026D01*
X35127096Y2998071D01*
X35107668Y2892215D01*
X35105804Y2886980D01*
X35103607Y2875518D01*
X35066015Y2775240D01*
X35032040Y2679828D01*
X35026403Y2669575D01*
X35020148Y2652889D01*
X34969233Y2565583D01*
X34923428Y2482265D01*
X34912446Y2468209D01*
X34900372Y2447505D01*
X34839378Y2374685D01*
X34784630Y2304612D01*
X34767038Y2288322D01*
X34747703Y2265238D01*
X34679965Y2207690D01*
X34619208Y2151429D01*
X34594120Y2134761D01*
X34566506Y2111301D01*
X34495311Y2069112D01*
X34431430Y2026670D01*
X34398414Y2011693D01*
X34361963Y1990093D01*
X34290385Y1962688D01*
X34226117Y1933535D01*
X34185208Y1922420D01*
X34139922Y1905082D01*
X34070749Y1891323D01*
X34008555Y1874425D01*
X33960300Y1869353D01*
X33906733Y1858698D01*
X33842349Y1856956D01*
X33784342Y1850859D01*
X33729778Y1853910D01*
X33669061Y1852267D01*
X33611351Y1860532D01*
X33559244Y1863445D01*
X33499905Y1876491D01*
X33433704Y1885972D01*
X33384032Y1901968D01*
X33339053Y1911857D01*
X33276870Y1936477D01*
X33207391Y1958851D01*
X33166562Y1980151D01*
X33129438Y1994849D01*
X33066723Y2032235D01*
X32996593Y2068820D01*
X32964820Y2092981D01*
X32935787Y2110288D01*
X32875161Y2161159D01*
X32807337Y2212734D01*
X32784275Y2237422D01*
X32763083Y2255204D01*
X32707378Y2319739D01*
X32645034Y2386478D01*
X32629830Y2409581D01*
X32615769Y2425870D01*
X32567889Y2503697D01*
X32514326Y2585084D01*
X32505698Y2604786D01*
X32497635Y2617892D01*
X32460454Y2708099D01*
X32418950Y2802873D01*
X32415247Y2817779D01*
X32411724Y2826327D01*
X32388028Y2927357D01*
X32361632Y3033619D01*
X32360949Y3042809D01*
X32360243Y3045819D01*
X32352554Y3155781D01*
X32344012Y3270724D01*
X32354980Y3385682D01*
X32364951Y3495242D01*
X32365718Y3498231D01*
X32366594Y3507408D01*
X32395231Y3613175D01*
X32421018Y3713609D01*
X32424716Y3722072D01*
X32428731Y3736903D01*
X32472214Y3830794D01*
X32511273Y3920196D01*
X32519611Y3933134D01*
X32528648Y3952647D01*
X32583893Y4032880D01*
X32633403Y4109703D01*
X32647804Y4125697D01*
X32663486Y4148472D01*
X32727201Y4213877D01*
X32784258Y4277246D01*
X32805822Y4294584D01*
X32829392Y4318779D01*
X32898275Y4368917D01*
X32959957Y4418511D01*
X32989345Y4435206D01*
X33021620Y4458698D01*
X33092503Y4493808D01*
X33155986Y4529871D01*
X33193412Y4543790D01*
X33234675Y4564228D01*
X33304594Y4585138D01*
X33367294Y4608456D01*
X33412486Y4617404D01*
X33462465Y4632351D01*
X33528830Y4640441D01*
X33588445Y4652245D01*
X33640605Y4654066D01*
X33698477Y4661121D01*
X33759157Y4658206D01*
G37*
G36*
X2809157Y4658206D02*
G01*
X2863764Y4660113D01*
X2921626Y4652803D01*
X2985961Y4649713D01*
X3039288Y4637940D01*
X3087430Y4631858D01*
X3149258Y4613661D01*
X3218128Y4598456D01*
X3263047Y4580171D01*
X3303709Y4568203D01*
X3367351Y4537711D01*
X3438340Y4508813D01*
X3474327Y4486457D01*
X3507022Y4470792D01*
X3569994Y4427025D01*
X3640300Y4383349D01*
X3667423Y4359311D01*
X3692151Y4342124D01*
X3751712Y4284606D01*
X3818233Y4225650D01*
X3837079Y4202168D01*
X3854327Y4185512D01*
X3907597Y4114304D01*
X3967051Y4040226D01*
X3978689Y4019274D01*
X3989376Y4004988D01*
X4033429Y3920723D01*
X4082500Y3832378D01*
X4088405Y3815564D01*
X4093823Y3805200D01*
X4125765Y3709180D01*
X4161279Y3608051D01*
X4163238Y3596532D01*
X4164988Y3591270D01*
X4182172Y3485173D01*
X4201134Y3373656D01*
X4198362Y3109026D01*
X4177096Y2998071D01*
X4157668Y2892215D01*
X4155804Y2886980D01*
X4153607Y2875518D01*
X4116015Y2775240D01*
X4082040Y2679828D01*
X4076403Y2669575D01*
X4070148Y2652889D01*
X4019233Y2565583D01*
X3973428Y2482265D01*
X3962446Y2468209D01*
X3950372Y2447505D01*
X3889378Y2374685D01*
X3834630Y2304612D01*
X3817038Y2288322D01*
X3797703Y2265238D01*
X3729965Y2207690D01*
X3669208Y2151429D01*
X3644120Y2134761D01*
X3616506Y2111301D01*
X3545311Y2069112D01*
X3481430Y2026670D01*
X3448414Y2011693D01*
X3411963Y1990093D01*
X3340385Y1962688D01*
X3276117Y1933535D01*
X3235208Y1922420D01*
X3189922Y1905082D01*
X3120749Y1891323D01*
X3058555Y1874425D01*
X3010300Y1869353D01*
X2956733Y1858698D01*
X2892349Y1856956D01*
X2834342Y1850859D01*
X2779778Y1853910D01*
X2719061Y1852267D01*
X2661351Y1860532D01*
X2609244Y1863445D01*
X2549905Y1876491D01*
X2483704Y1885972D01*
X2434032Y1901968D01*
X2389053Y1911857D01*
X2326870Y1936477D01*
X2257391Y1958851D01*
X2216562Y1980151D01*
X2179438Y1994849D01*
X2116723Y2032235D01*
X2046593Y2068820D01*
X2014820Y2092981D01*
X1985787Y2110288D01*
X1925161Y2161159D01*
X1857337Y2212734D01*
X1834275Y2237422D01*
X1813083Y2255204D01*
X1757378Y2319739D01*
X1695034Y2386478D01*
X1679830Y2409581D01*
X1665769Y2425870D01*
X1617889Y2503697D01*
X1564326Y2585084D01*
X1555698Y2604786D01*
X1547635Y2617892D01*
X1510454Y2708099D01*
X1468950Y2802873D01*
X1465247Y2817779D01*
X1461724Y2826327D01*
X1438028Y2927357D01*
X1411632Y3033619D01*
X1410949Y3042809D01*
X1410243Y3045819D01*
X1402554Y3155781D01*
X1394012Y3270724D01*
X1404980Y3385682D01*
X1414951Y3495242D01*
X1415718Y3498231D01*
X1416594Y3507408D01*
X1445231Y3613175D01*
X1471018Y3713609D01*
X1474716Y3722072D01*
X1478731Y3736903D01*
X1522214Y3830794D01*
X1561273Y3920196D01*
X1569611Y3933134D01*
X1578648Y3952647D01*
X1633893Y4032880D01*
X1683403Y4109703D01*
X1697804Y4125697D01*
X1713486Y4148472D01*
X1777201Y4213877D01*
X1834258Y4277246D01*
X1855822Y4294584D01*
X1879392Y4318779D01*
X1948275Y4368917D01*
X2009957Y4418511D01*
X2039345Y4435206D01*
X2071620Y4458698D01*
X2142503Y4493808D01*
X2205986Y4529871D01*
X2243412Y4543790D01*
X2284675Y4564228D01*
X2354594Y4585138D01*
X2417294Y4608456D01*
X2462486Y4617404D01*
X2512465Y4632351D01*
X2578830Y4640441D01*
X2638445Y4652245D01*
X2690605Y4654066D01*
X2748477Y4661121D01*
X2809157Y4658206D01*
G37*
G36*
X1085048Y6720387D02*
G01*
X1118946Y6718492D01*
X1161994Y6706473D01*
X1211901Y6697448D01*
X1243241Y6683789D01*
X1270456Y6676190D01*
X1314927Y6652544D01*
X1366665Y6629994D01*
X1389444Y6612922D01*
X1409348Y6602339D01*
X1451996Y6566043D01*
X1501761Y6528746D01*
X1516333Y6511287D01*
X1529144Y6500384D01*
X1566400Y6451301D01*
X1609941Y6399134D01*
X1617539Y6383928D01*
X1624249Y6375088D01*
X1652430Y6314100D01*
X1685402Y6248112D01*
X1687980Y6237164D01*
X1690232Y6232290D01*
X1705790Y6161528D01*
X1724097Y6083781D01*
X1723904Y6061630D01*
X1723395Y5916081D01*
X1722604Y5912597D01*
X1722525Y5903595D01*
X1703874Y5830157D01*
X1688593Y5762895D01*
X1684680Y5754579D01*
X1680968Y5739964D01*
X1648657Y5678028D01*
X1621617Y5620565D01*
X1612513Y5608743D01*
X1602882Y5590282D01*
X1560958Y5541798D01*
X1525638Y5495934D01*
X1509830Y5482669D01*
X1492457Y5462578D01*
X1445150Y5428397D01*
X1405133Y5394818D01*
X1381785Y5382612D01*
X1355615Y5363703D01*
X1307004Y5343518D01*
X1265729Y5321940D01*
X1234804Y5313538D01*
X1199697Y5298960D01*
X1153393Y5291419D01*
X1113927Y5280696D01*
X1076233Y5278852D01*
X1033066Y5271822D01*
X991979Y5274731D01*
X956810Y5273011D01*
X913994Y5280253D01*
X864662Y5283746D01*
X830805Y5294324D01*
X801703Y5299246D01*
X756180Y5317638D01*
X703518Y5334091D01*
X677936Y5349250D01*
X655856Y5358171D01*
X610675Y5389108D01*
X558278Y5420157D01*
X540989Y5436824D01*
X526060Y5447046D01*
X484730Y5491057D01*
X436733Y5537327D01*
X426847Y5552696D01*
X418377Y5561716D01*
X384607Y5618366D01*
X345403Y5679316D01*
X341230Y5691133D01*
X337832Y5696833D01*
X315336Y5764459D01*
X289186Y5838507D01*
X288459Y5845250D01*
X288176Y5846102D01*
X280566Y5918512D01*
X271100Y6006361D01*
X281137Y6086373D01*
X289268Y6158868D01*
X290792Y6163346D01*
X292113Y6173874D01*
X318117Y6243610D01*
X339962Y6307778D01*
X345382Y6316727D01*
X351099Y6332059D01*
X389214Y6389102D01*
X421452Y6442334D01*
X432612Y6454053D01*
X444893Y6472433D01*
X490889Y6515250D01*
X529933Y6556250D01*
X548090Y6568497D01*
X568465Y6587464D01*
X618078Y6615705D01*
X660346Y6644216D01*
X686023Y6654382D01*
X715185Y6670982D01*
X764469Y6685440D01*
X806603Y6702122D01*
X839487Y6707448D01*
X877183Y6718507D01*
X922757Y6720935D01*
X961886Y6727273D01*
X1000833Y6725096D01*
X1045770Y6727490D01*
X1085048Y6720387D01*
G37*
G36*
X35585048Y6720387D02*
G01*
X35618946Y6718492D01*
X35661994Y6706473D01*
X35711901Y6697448D01*
X35743241Y6683789D01*
X35770456Y6676190D01*
X35814927Y6652544D01*
X35866665Y6629994D01*
X35889444Y6612922D01*
X35909348Y6602339D01*
X35951996Y6566043D01*
X36001761Y6528746D01*
X36016333Y6511287D01*
X36029144Y6500384D01*
X36066400Y6451301D01*
X36109941Y6399134D01*
X36117539Y6383928D01*
X36124249Y6375088D01*
X36152430Y6314100D01*
X36185402Y6248112D01*
X36187980Y6237164D01*
X36190232Y6232290D01*
X36205790Y6161528D01*
X36224097Y6083781D01*
X36223904Y6061630D01*
X36223395Y5916081D01*
X36222604Y5912597D01*
X36222525Y5903595D01*
X36203874Y5830157D01*
X36188593Y5762895D01*
X36184680Y5754579D01*
X36180968Y5739964D01*
X36148657Y5678028D01*
X36121617Y5620565D01*
X36112513Y5608743D01*
X36102882Y5590282D01*
X36060958Y5541798D01*
X36025638Y5495934D01*
X36009830Y5482669D01*
X35992457Y5462578D01*
X35945150Y5428397D01*
X35905133Y5394818D01*
X35881785Y5382612D01*
X35855615Y5363703D01*
X35807004Y5343518D01*
X35765729Y5321940D01*
X35734804Y5313538D01*
X35699697Y5298960D01*
X35653393Y5291419D01*
X35613927Y5280696D01*
X35576233Y5278852D01*
X35533066Y5271822D01*
X35491979Y5274731D01*
X35456810Y5273011D01*
X35413994Y5280253D01*
X35364662Y5283746D01*
X35330805Y5294324D01*
X35301703Y5299246D01*
X35256180Y5317638D01*
X35203518Y5334091D01*
X35177936Y5349250D01*
X35155856Y5358171D01*
X35110675Y5389108D01*
X35058278Y5420157D01*
X35040989Y5436824D01*
X35026060Y5447046D01*
X34984730Y5491057D01*
X34936733Y5537327D01*
X34926847Y5552696D01*
X34918377Y5561716D01*
X34884607Y5618366D01*
X34845403Y5679316D01*
X34841230Y5691133D01*
X34837832Y5696833D01*
X34815336Y5764459D01*
X34789186Y5838507D01*
X34788459Y5845250D01*
X34788176Y5846102D01*
X34780566Y5918512D01*
X34771100Y6006361D01*
X34781137Y6086373D01*
X34789268Y6158868D01*
X34790792Y6163346D01*
X34792113Y6173874D01*
X34818117Y6243610D01*
X34839962Y6307778D01*
X34845382Y6316727D01*
X34851099Y6332059D01*
X34889214Y6389102D01*
X34921452Y6442334D01*
X34932612Y6454053D01*
X34944893Y6472433D01*
X34990889Y6515250D01*
X35029933Y6556250D01*
X35048090Y6568497D01*
X35068465Y6587464D01*
X35118078Y6615705D01*
X35160346Y6644216D01*
X35186023Y6654382D01*
X35215185Y6670982D01*
X35264469Y6685440D01*
X35306603Y6702122D01*
X35339487Y6707448D01*
X35377183Y6718507D01*
X35422757Y6720935D01*
X35461886Y6727273D01*
X35500833Y6725096D01*
X35545770Y6727490D01*
X35585048Y6720387D01*
G37*
G36*
X20166279Y24107399D02*
G01*
X20166282Y24106705D01*
X20186500Y24039236D01*
X20239985Y23993409D01*
X20291279Y23982400D01*
X25281828Y23982400D01*
X25275718Y17295851D01*
X18636161Y17301585D01*
X10589855Y17308533D01*
X10589853Y17308533D01*
X10571882Y17308549D01*
X10557800Y23982400D01*
X15208001Y23982400D01*
X15275581Y24002243D01*
X15321704Y24055473D01*
X15333000Y24107399D01*
X15333000Y25417500D01*
X20159000Y25417500D01*
X20166279Y24107399D01*
G37*
G36*
X16401058Y36377506D02*
G01*
X16447732Y36377180D01*
X16493452Y36367795D01*
X16545513Y36362323D01*
X16589101Y36348160D01*
X16628313Y36340111D01*
X16677472Y36319447D01*
X16733438Y36301262D01*
X16767461Y36281619D01*
X16798251Y36268676D01*
X16848002Y36235119D01*
X16904561Y36202464D01*
X16928888Y36180559D01*
X16951083Y36165589D01*
X16998113Y36118229D01*
X17051403Y36070247D01*
X17066782Y36049079D01*
X17080976Y36034786D01*
X17121705Y35973484D01*
X17167547Y35910388D01*
X17175512Y35892499D01*
X17182993Y35881239D01*
X17213752Y35806611D01*
X17247917Y35729876D01*
X17250619Y35717163D01*
X17253239Y35710807D01*
X17270517Y35623549D01*
X17288999Y35536598D01*
X17288999Y35339002D01*
X17285998Y35324885D01*
X17285910Y35318556D01*
X17266404Y35232699D01*
X17247917Y35145724D01*
X17245317Y35139884D01*
X17245264Y35139651D01*
X17170285Y34971246D01*
X17170145Y34971048D01*
X17167547Y34965212D01*
X17115309Y34893313D01*
X17064024Y34820611D01*
X17059041Y34815866D01*
X17051403Y34805353D01*
X16988958Y34749127D01*
X16930523Y34693481D01*
X16919118Y34686243D01*
X16904561Y34673136D01*
X16837008Y34634134D01*
X16774881Y34594707D01*
X16756102Y34587423D01*
X16733438Y34574338D01*
X16665227Y34552175D01*
X16603007Y34528041D01*
X16576647Y34523393D01*
X16545513Y34513277D01*
X16480556Y34506450D01*
X16421467Y34496031D01*
X16388079Y34496730D01*
X16349000Y34492623D01*
X16290472Y34498774D01*
X16237159Y34499891D01*
X16198064Y34508487D01*
X16152487Y34513277D01*
X16102696Y34529455D01*
X16057115Y34539477D01*
X16014348Y34558161D01*
X15964562Y34574338D01*
X15924876Y34597251D01*
X15888191Y34613278D01*
X15844397Y34643715D01*
X15793439Y34673136D01*
X15764247Y34699420D01*
X15736818Y34718484D01*
X15695128Y34761655D01*
X15646597Y34805353D01*
X15627356Y34831836D01*
X15608759Y34851094D01*
X15572602Y34907199D01*
X15530453Y34965212D01*
X15519811Y34989115D01*
X15508898Y35006048D01*
X15481808Y35074470D01*
X15450083Y35145724D01*
X15446011Y35164882D01*
X15441036Y35177447D01*
X15426463Y35256847D01*
X15409001Y35339002D01*
X15409001Y35351992D01*
X15407759Y35358759D01*
X15409001Y35447703D01*
X15409001Y35536598D01*
X15410330Y35542849D01*
X15410333Y35543092D01*
X15448659Y35723401D01*
X15448754Y35723622D01*
X15450083Y35729876D01*
X15486249Y35811105D01*
X15521283Y35892846D01*
X15525171Y35898524D01*
X15530453Y35910388D01*
X15579810Y35978322D01*
X15625429Y36044947D01*
X15635087Y36054405D01*
X15646597Y36070247D01*
X15704558Y36122436D01*
X15757137Y36173924D01*
X15773991Y36184953D01*
X15793439Y36202464D01*
X15855549Y36238323D01*
X15911395Y36274868D01*
X15936216Y36284896D01*
X15964562Y36301262D01*
X16026671Y36321443D01*
X16082312Y36343923D01*
X16115119Y36350181D01*
X16152487Y36362323D01*
X16211016Y36368475D01*
X16263393Y36378466D01*
X16303423Y36378187D01*
X16349000Y36382977D01*
X16401058Y36377506D01*
G37*
G36*
X18941058Y36377506D02*
G01*
X18987732Y36377180D01*
X19033452Y36367795D01*
X19085513Y36362323D01*
X19129101Y36348160D01*
X19168313Y36340111D01*
X19217472Y36319447D01*
X19273438Y36301262D01*
X19307461Y36281619D01*
X19338251Y36268676D01*
X19388002Y36235119D01*
X19444561Y36202464D01*
X19468888Y36180559D01*
X19491083Y36165589D01*
X19538113Y36118229D01*
X19591403Y36070247D01*
X19606782Y36049079D01*
X19620976Y36034786D01*
X19661705Y35973484D01*
X19707547Y35910388D01*
X19715512Y35892499D01*
X19722993Y35881239D01*
X19753752Y35806611D01*
X19787917Y35729876D01*
X19790619Y35717163D01*
X19793239Y35710807D01*
X19810517Y35623549D01*
X19828999Y35536598D01*
X19828999Y35339002D01*
X19825998Y35324885D01*
X19825910Y35318556D01*
X19806404Y35232699D01*
X19787917Y35145724D01*
X19785317Y35139884D01*
X19785264Y35139651D01*
X19710285Y34971246D01*
X19710145Y34971048D01*
X19707547Y34965212D01*
X19655309Y34893313D01*
X19604024Y34820611D01*
X19599041Y34815866D01*
X19591403Y34805353D01*
X19528958Y34749127D01*
X19470523Y34693481D01*
X19459118Y34686243D01*
X19444561Y34673136D01*
X19377008Y34634134D01*
X19314881Y34594707D01*
X19296102Y34587423D01*
X19273438Y34574338D01*
X19205227Y34552175D01*
X19143007Y34528041D01*
X19116647Y34523393D01*
X19085513Y34513277D01*
X19020556Y34506450D01*
X18961467Y34496031D01*
X18928079Y34496730D01*
X18889000Y34492623D01*
X18830472Y34498774D01*
X18777159Y34499891D01*
X18738064Y34508487D01*
X18692487Y34513277D01*
X18642696Y34529455D01*
X18597115Y34539477D01*
X18554348Y34558161D01*
X18504562Y34574338D01*
X18464876Y34597251D01*
X18428191Y34613278D01*
X18384397Y34643715D01*
X18333439Y34673136D01*
X18304247Y34699420D01*
X18276818Y34718484D01*
X18235128Y34761655D01*
X18186597Y34805353D01*
X18167356Y34831836D01*
X18148759Y34851094D01*
X18112602Y34907199D01*
X18070453Y34965212D01*
X18059811Y34989115D01*
X18048898Y35006048D01*
X18021808Y35074470D01*
X17990083Y35145724D01*
X17986011Y35164882D01*
X17981036Y35177447D01*
X17966463Y35256847D01*
X17949001Y35339002D01*
X17949001Y35351992D01*
X17947759Y35358759D01*
X17949001Y35447703D01*
X17949001Y35536598D01*
X17950330Y35542849D01*
X17950333Y35543092D01*
X17988659Y35723401D01*
X17988754Y35723622D01*
X17990083Y35729876D01*
X18026249Y35811105D01*
X18061283Y35892846D01*
X18065171Y35898524D01*
X18070453Y35910388D01*
X18119810Y35978322D01*
X18165429Y36044947D01*
X18175087Y36054405D01*
X18186597Y36070247D01*
X18244558Y36122436D01*
X18297137Y36173924D01*
X18313991Y36184953D01*
X18333439Y36202464D01*
X18395549Y36238323D01*
X18451395Y36274868D01*
X18476216Y36284896D01*
X18504562Y36301262D01*
X18566671Y36321443D01*
X18622312Y36343923D01*
X18655119Y36350181D01*
X18692487Y36362323D01*
X18751016Y36368475D01*
X18803393Y36378466D01*
X18843423Y36378187D01*
X18889000Y36382977D01*
X18941058Y36377506D01*
G37*
G36*
X21481058Y36377506D02*
G01*
X21527732Y36377180D01*
X21573452Y36367795D01*
X21625513Y36362323D01*
X21669101Y36348160D01*
X21708313Y36340111D01*
X21757472Y36319447D01*
X21813438Y36301262D01*
X21847461Y36281619D01*
X21878251Y36268676D01*
X21928002Y36235119D01*
X21984561Y36202464D01*
X22008888Y36180559D01*
X22031083Y36165589D01*
X22078113Y36118229D01*
X22131403Y36070247D01*
X22146782Y36049079D01*
X22160976Y36034786D01*
X22201705Y35973484D01*
X22247547Y35910388D01*
X22255512Y35892499D01*
X22262993Y35881239D01*
X22293752Y35806611D01*
X22327917Y35729876D01*
X22330619Y35717163D01*
X22333239Y35710807D01*
X22350517Y35623549D01*
X22368999Y35536598D01*
X22368999Y35339002D01*
X22365998Y35324885D01*
X22365910Y35318556D01*
X22346404Y35232699D01*
X22327917Y35145724D01*
X22325317Y35139884D01*
X22325264Y35139651D01*
X22250285Y34971246D01*
X22250145Y34971048D01*
X22247547Y34965212D01*
X22195309Y34893313D01*
X22144024Y34820611D01*
X22139041Y34815866D01*
X22131403Y34805353D01*
X22068958Y34749127D01*
X22010523Y34693481D01*
X21999118Y34686243D01*
X21984561Y34673136D01*
X21917008Y34634134D01*
X21854881Y34594707D01*
X21836102Y34587423D01*
X21813438Y34574338D01*
X21745227Y34552175D01*
X21683007Y34528041D01*
X21656647Y34523393D01*
X21625513Y34513277D01*
X21560556Y34506450D01*
X21501467Y34496031D01*
X21468079Y34496730D01*
X21429000Y34492623D01*
X21370472Y34498774D01*
X21317159Y34499891D01*
X21278064Y34508487D01*
X21232487Y34513277D01*
X21182696Y34529455D01*
X21137115Y34539477D01*
X21094348Y34558161D01*
X21044562Y34574338D01*
X21004876Y34597251D01*
X20968191Y34613278D01*
X20924397Y34643715D01*
X20873439Y34673136D01*
X20844247Y34699420D01*
X20816818Y34718484D01*
X20775128Y34761655D01*
X20726597Y34805353D01*
X20707356Y34831836D01*
X20688759Y34851094D01*
X20652602Y34907199D01*
X20610453Y34965212D01*
X20599811Y34989115D01*
X20588898Y35006048D01*
X20561808Y35074470D01*
X20530083Y35145724D01*
X20526011Y35164882D01*
X20521036Y35177447D01*
X20506463Y35256847D01*
X20489001Y35339002D01*
X20489001Y35351992D01*
X20487759Y35358759D01*
X20489001Y35447703D01*
X20489001Y35536598D01*
X20490330Y35542849D01*
X20490333Y35543092D01*
X20528659Y35723401D01*
X20528754Y35723622D01*
X20530083Y35729876D01*
X20566249Y35811105D01*
X20601283Y35892846D01*
X20605171Y35898524D01*
X20610453Y35910388D01*
X20659810Y35978322D01*
X20705429Y36044947D01*
X20715087Y36054405D01*
X20726597Y36070247D01*
X20784558Y36122436D01*
X20837137Y36173924D01*
X20853991Y36184953D01*
X20873439Y36202464D01*
X20935549Y36238323D01*
X20991395Y36274868D01*
X21016216Y36284896D01*
X21044562Y36301262D01*
X21106671Y36321443D01*
X21162312Y36343923D01*
X21195119Y36350181D01*
X21232487Y36362323D01*
X21291016Y36368475D01*
X21343393Y36378466D01*
X21383423Y36378187D01*
X21429000Y36382977D01*
X21481058Y36377506D01*
G37*
G36*
X14717899Y36374841D02*
G01*
X14734769Y36363569D01*
X14746041Y36346699D01*
X14752448Y36314488D01*
X14752448Y34561112D01*
X14749999Y34548800D01*
X14746041Y34528901D01*
X14734769Y34512031D01*
X14717899Y34500759D01*
X14698000Y34496801D01*
X14685688Y34494352D01*
X12932312Y34494352D01*
X12900101Y34500759D01*
X12883231Y34512031D01*
X12871959Y34528901D01*
X12865552Y34561112D01*
X12865552Y36314488D01*
X12871959Y36346699D01*
X12883231Y36363569D01*
X12900101Y36374841D01*
X12932312Y36381248D01*
X14685688Y36381248D01*
X14717899Y36374841D01*
G37*
G36*
X3085048Y39220387D02*
G01*
X3118946Y39218492D01*
X3161994Y39206473D01*
X3211901Y39197448D01*
X3243241Y39183789D01*
X3270456Y39176190D01*
X3314927Y39152544D01*
X3366665Y39129994D01*
X3389444Y39112922D01*
X3409348Y39102339D01*
X3451996Y39066043D01*
X3501761Y39028746D01*
X3516333Y39011287D01*
X3529144Y39000384D01*
X3566400Y38951301D01*
X3609941Y38899134D01*
X3617539Y38883928D01*
X3624249Y38875088D01*
X3652430Y38814100D01*
X3685402Y38748112D01*
X3687980Y38737164D01*
X3690232Y38732290D01*
X3705790Y38661528D01*
X3724097Y38583781D01*
X3723904Y38561630D01*
X3723395Y38416081D01*
X3722604Y38412597D01*
X3722525Y38403595D01*
X3703874Y38330157D01*
X3688593Y38262895D01*
X3684680Y38254579D01*
X3680968Y38239964D01*
X3648657Y38178028D01*
X3621617Y38120565D01*
X3612513Y38108743D01*
X3602882Y38090282D01*
X3560958Y38041798D01*
X3525638Y37995934D01*
X3509830Y37982669D01*
X3492457Y37962578D01*
X3445150Y37928397D01*
X3405133Y37894818D01*
X3381785Y37882612D01*
X3355615Y37863703D01*
X3307004Y37843518D01*
X3265729Y37821940D01*
X3234804Y37813538D01*
X3199697Y37798960D01*
X3153393Y37791419D01*
X3113927Y37780696D01*
X3076233Y37778852D01*
X3033066Y37771822D01*
X2991979Y37774731D01*
X2956810Y37773011D01*
X2913994Y37780253D01*
X2864662Y37783746D01*
X2830805Y37794324D01*
X2801703Y37799246D01*
X2756180Y37817638D01*
X2703518Y37834091D01*
X2677936Y37849250D01*
X2655856Y37858171D01*
X2610675Y37889108D01*
X2558278Y37920157D01*
X2540989Y37936824D01*
X2526060Y37947046D01*
X2484730Y37991057D01*
X2436733Y38037327D01*
X2426847Y38052696D01*
X2418377Y38061716D01*
X2384607Y38118366D01*
X2345403Y38179316D01*
X2341230Y38191133D01*
X2337832Y38196833D01*
X2315336Y38264459D01*
X2289186Y38338507D01*
X2288459Y38345250D01*
X2288176Y38346102D01*
X2280566Y38418512D01*
X2271100Y38506361D01*
X2281137Y38586373D01*
X2289268Y38658868D01*
X2290792Y38663346D01*
X2292113Y38673874D01*
X2318117Y38743610D01*
X2339962Y38807778D01*
X2345382Y38816727D01*
X2351099Y38832059D01*
X2389214Y38889102D01*
X2421452Y38942334D01*
X2432612Y38954053D01*
X2444893Y38972433D01*
X2490889Y39015250D01*
X2529933Y39056250D01*
X2548090Y39068497D01*
X2568465Y39087464D01*
X2618078Y39115705D01*
X2660346Y39144216D01*
X2686023Y39154382D01*
X2715185Y39170982D01*
X2764469Y39185440D01*
X2806603Y39202122D01*
X2839487Y39207448D01*
X2877183Y39218507D01*
X2922757Y39220935D01*
X2961886Y39227273D01*
X3000833Y39225096D01*
X3045770Y39227490D01*
X3085048Y39220387D01*
G37*
G36*
X33585048Y39220387D02*
G01*
X33618946Y39218492D01*
X33661994Y39206473D01*
X33711901Y39197448D01*
X33743241Y39183789D01*
X33770456Y39176190D01*
X33814927Y39152544D01*
X33866665Y39129994D01*
X33889444Y39112922D01*
X33909348Y39102339D01*
X33951996Y39066043D01*
X34001761Y39028746D01*
X34016333Y39011287D01*
X34029144Y39000384D01*
X34066400Y38951301D01*
X34109941Y38899134D01*
X34117539Y38883928D01*
X34124249Y38875088D01*
X34152430Y38814100D01*
X34185402Y38748112D01*
X34187980Y38737164D01*
X34190232Y38732290D01*
X34205790Y38661528D01*
X34224097Y38583781D01*
X34223904Y38561630D01*
X34223395Y38416081D01*
X34222604Y38412597D01*
X34222525Y38403595D01*
X34203874Y38330157D01*
X34188593Y38262895D01*
X34184680Y38254579D01*
X34180968Y38239964D01*
X34148657Y38178028D01*
X34121617Y38120565D01*
X34112513Y38108743D01*
X34102882Y38090282D01*
X34060958Y38041798D01*
X34025638Y37995934D01*
X34009830Y37982669D01*
X33992457Y37962578D01*
X33945150Y37928397D01*
X33905133Y37894818D01*
X33881785Y37882612D01*
X33855615Y37863703D01*
X33807004Y37843518D01*
X33765729Y37821940D01*
X33734804Y37813538D01*
X33699697Y37798960D01*
X33653393Y37791419D01*
X33613927Y37780696D01*
X33576233Y37778852D01*
X33533066Y37771822D01*
X33491979Y37774731D01*
X33456810Y37773011D01*
X33413994Y37780253D01*
X33364662Y37783746D01*
X33330805Y37794324D01*
X33301703Y37799246D01*
X33256180Y37817638D01*
X33203518Y37834091D01*
X33177936Y37849250D01*
X33155856Y37858171D01*
X33110675Y37889108D01*
X33058278Y37920157D01*
X33040989Y37936824D01*
X33026060Y37947046D01*
X32984730Y37991057D01*
X32936733Y38037327D01*
X32926847Y38052696D01*
X32918377Y38061716D01*
X32884607Y38118366D01*
X32845403Y38179316D01*
X32841230Y38191133D01*
X32837832Y38196833D01*
X32815336Y38264459D01*
X32789186Y38338507D01*
X32788459Y38345250D01*
X32788176Y38346102D01*
X32780566Y38418512D01*
X32771100Y38506361D01*
X32781137Y38586373D01*
X32789268Y38658868D01*
X32790792Y38663346D01*
X32792113Y38673874D01*
X32818117Y38743610D01*
X32839962Y38807778D01*
X32845382Y38816727D01*
X32851099Y38832059D01*
X32889214Y38889102D01*
X32921452Y38942334D01*
X32932612Y38954053D01*
X32944893Y38972433D01*
X32990889Y39015250D01*
X33029933Y39056250D01*
X33048090Y39068497D01*
X33068465Y39087464D01*
X33118078Y39115705D01*
X33160346Y39144216D01*
X33186023Y39154382D01*
X33215185Y39170982D01*
X33264469Y39185440D01*
X33306603Y39202122D01*
X33339487Y39207448D01*
X33377183Y39218507D01*
X33422757Y39220935D01*
X33461886Y39227273D01*
X33500833Y39225096D01*
X33545770Y39227490D01*
X33585048Y39220387D01*
G37*
M02*
