G04 #@! TF.GenerationSoftware,KiCad,Pcbnew,(5.1.0-1558-g0ba0c1724)*
G04 #@! TF.CreationDate,2019-11-22T00:26:00-08:00*
G04 #@! TF.ProjectId,TMC2209_Driver,544d4332-3230-4395-9f44-72697665722e,rev?*
G04 #@! TF.SameCoordinates,Original*
G04 #@! TF.FileFunction,Copper,L2,Bot*
G04 #@! TF.FilePolarity,Positive*
%FSLAX46Y46*%
G04 Gerber Fmt 4.6, Leading zero omitted, Abs format (unit mm)*
G04 Created by KiCad (PCBNEW (5.1.0-1558-g0ba0c1724)) date 2019-11-22 00:26:00*
%MOMM*%
%LPD*%
G04 APERTURE LIST*
%ADD10C,1.778000*%
%ADD11R,1.778000X1.778000*%
%ADD12O,0.650000X0.650000*%
%ADD13R,0.650000X4.600000*%
%ADD14R,0.650000X3.600000*%
%ADD15C,0.600000*%
%ADD16C,0.635000*%
%ADD17C,0.508000*%
%ADD18C,1.000000*%
%ADD19C,0.800000*%
%ADD20C,0.127000*%
%ADD21C,0.650000*%
%ADD22C,0.254000*%
%ADD23C,0.250000*%
%ADD24C,0.203200*%
G04 APERTURE END LIST*
D10*
X130429000Y-78562200D03*
X127889000Y-78562200D03*
X125349000Y-78562200D03*
D11*
X122809000Y-78562200D03*
D12*
X118652800Y-112985200D03*
X136652800Y-112985200D03*
X135652800Y-112985200D03*
X130652800Y-112985200D03*
X127652800Y-112985200D03*
X134652800Y-112985200D03*
X131652800Y-112985200D03*
X119652800Y-112985200D03*
X133652800Y-112985200D03*
X132652800Y-112985200D03*
X126652800Y-112985200D03*
X125652800Y-112985200D03*
X124652800Y-112985200D03*
X123652800Y-112985200D03*
X122652800Y-112985200D03*
X121652800Y-112985200D03*
X120652800Y-112985200D03*
D13*
X131652800Y-110685200D03*
X130652800Y-110685200D03*
X136652800Y-110685200D03*
X135652800Y-110685200D03*
X134652800Y-110685200D03*
X133652800Y-110685200D03*
X132652800Y-110685200D03*
X127652800Y-110685200D03*
X126652800Y-110685200D03*
X125652800Y-110685200D03*
X124652800Y-110685200D03*
X123652800Y-110685200D03*
X122652800Y-110685200D03*
X121652800Y-110685200D03*
X120652800Y-110685200D03*
X119652800Y-110685200D03*
X118652800Y-110685200D03*
D14*
X117652800Y-110185200D03*
D15*
X126483320Y-106943171D03*
X125864910Y-106560921D03*
X127739754Y-105883012D03*
X115956845Y-103450251D03*
X112081143Y-102467888D03*
X117176322Y-104750981D03*
X120661187Y-104498301D03*
X118715212Y-103221158D03*
X118059200Y-105283000D03*
X126637999Y-104845451D03*
X127152400Y-105359200D03*
X125370726Y-104712328D03*
X124683714Y-104305901D03*
X129768600Y-104902000D03*
X130491077Y-106205963D03*
X131699000Y-104013000D03*
X118603597Y-105833834D03*
X116687600Y-103428800D03*
X123799600Y-102133400D03*
X123875800Y-107111800D03*
X127660400Y-107619800D03*
X121541045Y-102258355D03*
X120654006Y-102200674D03*
X122529600Y-102133400D03*
X123113800Y-107645200D03*
X121285000Y-107619800D03*
X115798600Y-100914200D03*
X112496600Y-99009200D03*
X129772955Y-99069053D03*
X125547180Y-98394169D03*
X128198233Y-99052538D03*
X127346737Y-99334194D03*
X126296740Y-97234793D03*
X126936500Y-98361500D03*
X117475000Y-100012500D03*
D16*
X121996200Y-89458800D03*
X122682000Y-89458800D03*
X123393200Y-88417400D03*
X122707400Y-88417400D03*
X121996200Y-88417400D03*
X130657600Y-89408000D03*
X131343400Y-89433400D03*
X130683000Y-88366600D03*
X129971800Y-88366600D03*
X131368800Y-88366600D03*
D17*
X126238000Y-87503000D03*
X126111000Y-85775800D03*
X124968000Y-81280000D03*
X126060200Y-81280000D03*
X127127000Y-87503000D03*
X127330200Y-81280000D03*
X127254000Y-85775800D03*
X128422400Y-81280000D03*
X126085600Y-92329000D03*
X127355600Y-92329000D03*
X127355600Y-91059000D03*
X126720600Y-90424000D03*
X125450600Y-90424000D03*
X125450600Y-91694000D03*
X126085600Y-91059000D03*
X126720600Y-91694000D03*
X127355600Y-89789000D03*
X127927100Y-90424000D03*
X127927100Y-91694000D03*
X126085600Y-89789000D03*
D15*
X120269000Y-87122000D03*
X133350000Y-87122000D03*
X134493000Y-93599000D03*
X120269000Y-95377000D03*
X118694200Y-90195400D03*
X131851400Y-99187000D03*
X117652800Y-106019600D03*
X134848600Y-91313000D03*
X135794710Y-92989400D03*
D18*
X137414000Y-83058000D03*
X139446000Y-83058000D03*
X141224000Y-83058000D03*
X143002000Y-83058000D03*
X137414000Y-80772000D03*
X139446000Y-80772000D03*
X141224000Y-80772000D03*
X143002000Y-80772000D03*
X113030000Y-83058000D03*
X110998000Y-80772000D03*
X110998000Y-83058000D03*
X114808000Y-83058000D03*
X116586000Y-80772000D03*
X114808000Y-80772000D03*
X116586000Y-83058000D03*
X113030000Y-80772000D03*
D15*
X130886200Y-103708200D03*
X130714328Y-105023072D03*
D19*
X118652800Y-106950000D03*
D15*
X117510714Y-103238289D03*
D20*
X118195132Y-106137668D02*
X118389785Y-106332321D01*
X124736210Y-107243170D02*
X126183321Y-107243170D01*
X118389785Y-106332321D02*
X125212046Y-106332321D01*
X125440646Y-106560921D02*
X125864910Y-106560921D01*
X118652800Y-106950000D02*
X123261074Y-106950000D01*
X124089331Y-106596291D02*
X124736210Y-107243170D01*
X123261074Y-106950000D02*
X123614783Y-106596291D01*
X125212046Y-106332321D02*
X125440646Y-106560921D01*
X126183321Y-107243170D02*
X126483320Y-106943171D01*
X123614783Y-106596291D02*
X124089331Y-106596291D01*
X118603597Y-105833834D02*
X119027861Y-105833834D01*
X119027861Y-105833834D02*
X119264438Y-106070411D01*
X127128091Y-106070411D02*
X127315490Y-105883012D01*
X119264438Y-106070411D02*
X127128091Y-106070411D01*
X127315490Y-105883012D02*
X127739754Y-105883012D01*
X119116935Y-104101910D02*
X116608504Y-104101910D01*
X120272615Y-105257590D02*
X119116935Y-104101910D01*
X124825464Y-105257590D02*
X120272615Y-105257590D01*
X126637999Y-104845451D02*
X125971850Y-105511600D01*
X116256844Y-103750250D02*
X115956845Y-103450251D01*
X120167401Y-105511600D02*
X119406782Y-104750981D01*
X119406782Y-104750981D02*
X117600586Y-104750981D01*
X125971850Y-105511600D02*
X120167401Y-105511600D01*
X116608504Y-104101910D02*
X116256844Y-103750250D01*
X125370726Y-104712328D02*
X124825464Y-105257590D01*
X117600586Y-104750981D02*
X117176322Y-104750981D01*
X119634000Y-105765600D02*
X119151400Y-105283000D01*
X119151400Y-105283000D02*
X118059200Y-105283000D01*
X126321736Y-105765600D02*
X119634000Y-105765600D01*
D21*
X127660400Y-107619800D02*
X127360401Y-107919799D01*
X127360401Y-107919799D02*
X124683799Y-107919799D01*
X124175799Y-107411799D02*
X123875800Y-107111800D01*
X124683799Y-107919799D02*
X124175799Y-107411799D01*
D20*
X127152400Y-105359200D02*
X126728136Y-105359200D01*
X126728136Y-105359200D02*
X126321736Y-105765600D01*
X124259450Y-104305901D02*
X124683714Y-104305901D01*
X120440515Y-105003580D02*
X120849596Y-105003580D01*
X120849596Y-105003580D02*
X121547275Y-104305901D01*
D22*
X120661187Y-104633787D02*
X120661187Y-104498301D01*
X120700800Y-104673400D02*
X120661187Y-104633787D01*
D20*
X121547275Y-104305901D02*
X124259450Y-104305901D01*
X118216401Y-103728799D02*
X118515223Y-103728799D01*
X116987599Y-103728799D02*
X118216401Y-103728799D01*
X118216401Y-103728799D02*
X119165734Y-103728799D01*
X119165734Y-103728799D02*
X120440515Y-105003580D01*
X120440515Y-105003580D02*
X120241642Y-104804707D01*
X118077064Y-106019600D02*
X118195132Y-106137668D01*
X118195132Y-106137668D02*
X118343699Y-106286235D01*
X116687600Y-103428800D02*
X116987599Y-103728799D01*
D22*
X118694200Y-90195400D02*
X118694200Y-103214089D01*
D20*
X129477857Y-105192743D02*
X130191078Y-105905964D01*
X128814134Y-104529020D02*
X129477857Y-105192743D01*
X129768600Y-104902000D02*
X129477857Y-105192743D01*
X130981579Y-105290323D02*
X130981579Y-106441405D01*
X126296740Y-97234793D02*
X127776971Y-97234793D01*
X127776971Y-97234793D02*
X129157045Y-98614867D01*
X125547180Y-98394169D02*
X126195750Y-97745599D01*
X130191078Y-105905964D02*
X130491077Y-106205963D01*
X130981579Y-106441405D02*
X130652800Y-106770184D01*
X128814134Y-98767203D02*
X128814134Y-104529020D01*
X129266535Y-103575279D02*
X130981579Y-105290323D01*
X130652800Y-108258200D02*
X130652800Y-110685200D01*
X130652800Y-106770184D02*
X130652800Y-108258200D01*
X129157045Y-98614867D02*
X129157045Y-103389191D01*
X129157045Y-103389191D02*
X129266535Y-103498681D01*
X127792530Y-97745599D02*
X128814134Y-98767203D01*
X129266535Y-103498681D02*
X129266535Y-103575279D01*
X126195750Y-97745599D02*
X127792530Y-97745599D01*
D23*
X121739740Y-101114940D02*
X121054005Y-101800675D01*
X124741860Y-101114940D02*
X121739740Y-101114940D01*
X126403100Y-99453700D02*
X124741860Y-101114940D01*
X126403100Y-98894900D02*
X126403100Y-99453700D01*
X126936500Y-98361500D02*
X126403100Y-98894900D01*
X121054005Y-101800675D02*
X120654006Y-102200674D01*
D20*
X131699000Y-104013000D02*
X132123264Y-104013000D01*
X135178800Y-100957464D02*
X135178800Y-100584000D01*
X135178800Y-92208885D02*
X135178800Y-100584000D01*
X132123264Y-104013000D02*
X135178800Y-100957464D01*
X117652800Y-106019600D02*
X118077064Y-106019600D01*
D21*
X126212600Y-102158800D02*
X128198233Y-100173167D01*
X128198233Y-100173167D02*
X128198233Y-99052538D01*
X124390685Y-102158800D02*
X126212600Y-102158800D01*
X123799600Y-102133400D02*
X124365285Y-102133400D01*
X124365285Y-102133400D02*
X124390685Y-102158800D01*
X123095285Y-102133400D02*
X123799600Y-102133400D01*
X122529600Y-102133400D02*
X123095285Y-102133400D01*
D22*
X121941044Y-101858356D02*
X121541045Y-102258355D01*
X122233967Y-101517499D02*
X121941044Y-101810422D01*
X125163432Y-101517499D02*
X122233967Y-101517499D01*
X127346737Y-99334194D02*
X125163432Y-101517499D01*
X121941044Y-101810422D02*
X121941044Y-101858356D01*
D24*
X123113800Y-107645200D02*
X122652800Y-108106200D01*
X122652800Y-108106200D02*
X122652800Y-110685200D01*
X121285000Y-107619800D02*
X121652800Y-107987600D01*
X121652800Y-107987600D02*
X121652800Y-110685200D01*
D21*
X131851400Y-99187000D02*
X129890902Y-99187000D01*
X129890902Y-99187000D02*
X129772955Y-99069053D01*
X136652800Y-110685200D02*
X136652800Y-105741000D01*
X135652800Y-107735200D02*
X135636000Y-107718400D01*
X135652800Y-110685200D02*
X135652800Y-107735200D01*
X135636000Y-107718400D02*
X135636000Y-105206800D01*
X134652800Y-107735200D02*
X134645400Y-107727800D01*
X134652800Y-110685200D02*
X134652800Y-107735200D01*
X134645400Y-107727800D02*
X134645400Y-105333800D01*
X133652800Y-107735200D02*
X133654800Y-107733200D01*
X133652800Y-110685200D02*
X133652800Y-107735200D01*
X133654800Y-107733200D02*
X133654800Y-105765600D01*
X132652800Y-107735200D02*
X132664200Y-107723800D01*
X132652800Y-110685200D02*
X132652800Y-107735200D01*
X132664200Y-107723800D02*
X132664200Y-105841800D01*
D20*
X135686800Y-103479600D02*
X135686800Y-93097310D01*
X134848600Y-91313000D02*
X134848600Y-91878685D01*
D22*
X135686800Y-93097310D02*
X135794710Y-92989400D01*
D20*
X134848600Y-91878685D02*
X135178800Y-92208885D01*
X130886200Y-104132464D02*
X131401736Y-104648000D01*
X130886200Y-103708200D02*
X130886200Y-104132464D01*
X134518400Y-104648000D02*
X135686800Y-103479600D01*
X131401736Y-104648000D02*
X134518400Y-104648000D01*
D22*
G36*
X109280647Y-75645181D02*
G01*
X109299835Y-75456276D01*
X109343034Y-75318426D01*
X109413073Y-75192072D01*
X109507079Y-75082393D01*
X109621233Y-74993847D01*
X109750860Y-74930063D01*
X109894031Y-74892770D01*
X110038312Y-74881667D01*
X110047589Y-74878400D01*
X144648904Y-74878400D01*
X144654819Y-74880647D01*
X144843724Y-74899835D01*
X144981574Y-74943034D01*
X145107928Y-75013073D01*
X145217607Y-75107079D01*
X145306153Y-75221233D01*
X145369937Y-75350860D01*
X145407230Y-75494031D01*
X145418333Y-75638312D01*
X145421601Y-75647592D01*
X145421600Y-106109500D01*
X139609187Y-106109500D01*
X139542793Y-106052593D01*
X139531670Y-106047264D01*
X139522798Y-106038697D01*
X139317010Y-105924626D01*
X139305045Y-105921643D01*
X139294633Y-105915035D01*
X139070109Y-105844674D01*
X139057787Y-105844158D01*
X139046261Y-105839779D01*
X138812174Y-105816001D01*
X138777604Y-105821600D01*
X138325826Y-105821600D01*
X138294767Y-105815788D01*
X138108705Y-105830105D01*
X138100369Y-105833040D01*
X138091533Y-105832979D01*
X137863846Y-105892287D01*
X137853124Y-105898377D01*
X137841021Y-105900774D01*
X137629906Y-106004656D01*
X137620629Y-106012778D01*
X137609262Y-106017556D01*
X137490728Y-106109500D01*
X131323479Y-106109500D01*
X131323479Y-105246388D01*
X131323478Y-105246384D01*
X131323478Y-105198710D01*
X131300180Y-105158358D01*
X131290625Y-105122698D01*
X131292372Y-104979651D01*
X131310124Y-104989900D01*
X134610012Y-104989900D01*
X134650366Y-104966601D01*
X134695380Y-104954540D01*
X134837971Y-104811949D01*
X134837971Y-104811947D01*
X135979377Y-103670543D01*
X135993339Y-103656582D01*
X136005401Y-103611568D01*
X136028700Y-103571212D01*
X136028700Y-93518634D01*
X136139734Y-93466030D01*
X136288185Y-93309866D01*
X136370750Y-93110047D01*
X136373525Y-92882863D01*
X136295868Y-92681086D01*
X136151276Y-92521341D01*
X135958869Y-92424360D01*
X135744450Y-92403148D01*
X135536771Y-92460548D01*
X135520700Y-92472462D01*
X135520700Y-92164950D01*
X135520699Y-92164946D01*
X135520699Y-92117272D01*
X135497402Y-92076920D01*
X135485339Y-92031904D01*
X135379652Y-91926218D01*
X135217718Y-91764284D01*
X135342075Y-91633466D01*
X135424640Y-91433647D01*
X135427415Y-91206463D01*
X135349758Y-91004686D01*
X135205166Y-90844941D01*
X135012759Y-90747960D01*
X134798340Y-90726748D01*
X134590661Y-90784148D01*
X134417570Y-90912462D01*
X134302276Y-91094486D01*
X134260241Y-91305811D01*
X134297101Y-91518100D01*
X134407913Y-91702888D01*
X134506700Y-91779931D01*
X134506700Y-91970296D01*
X134530001Y-92010656D01*
X134542062Y-92055666D01*
X134836900Y-92350503D01*
X134836901Y-100555576D01*
X134836900Y-100815846D01*
X132080385Y-103572361D01*
X132055566Y-103544941D01*
X131863159Y-103447960D01*
X131648740Y-103426748D01*
X131441061Y-103484148D01*
X131424510Y-103496418D01*
X131387358Y-103399886D01*
X131242766Y-103240141D01*
X131050359Y-103143160D01*
X130835940Y-103121948D01*
X130628261Y-103179348D01*
X130455170Y-103307662D01*
X130339876Y-103489686D01*
X130297841Y-103701011D01*
X130334701Y-103913300D01*
X130445513Y-104098088D01*
X130544300Y-104175130D01*
X130544300Y-104224075D01*
X130567601Y-104264435D01*
X130579662Y-104309445D01*
X130624342Y-104354124D01*
X130711755Y-104441538D01*
X130664068Y-104436820D01*
X130622957Y-104448183D01*
X129608435Y-103433661D01*
X129608435Y-103407066D01*
X129585135Y-103366713D01*
X129573075Y-103321701D01*
X129498945Y-103247572D01*
X129498945Y-99657450D01*
X129566390Y-99696388D01*
X129631960Y-99742301D01*
X129657997Y-99749278D01*
X129681344Y-99762757D01*
X129760176Y-99776657D01*
X129837500Y-99797376D01*
X129917227Y-99790400D01*
X131904187Y-99790400D01*
X132060958Y-99762757D01*
X132245241Y-99656362D01*
X132382021Y-99493354D01*
X132454799Y-99293395D01*
X132454799Y-99080605D01*
X132382021Y-98880646D01*
X132245241Y-98717638D01*
X132060958Y-98611243D01*
X131904187Y-98583600D01*
X130131649Y-98583600D01*
X130031897Y-98513752D01*
X129826356Y-98458677D01*
X129614374Y-98477223D01*
X129498944Y-98531050D01*
X129498944Y-98523254D01*
X129475647Y-98482902D01*
X129463584Y-98437886D01*
X129357897Y-98332200D01*
X128096542Y-97070845D01*
X128096542Y-97070844D01*
X127953951Y-96928253D01*
X127908937Y-96916192D01*
X127868583Y-96892893D01*
X126767498Y-96892893D01*
X126653306Y-96766734D01*
X126460899Y-96669753D01*
X126246480Y-96648541D01*
X126038801Y-96705941D01*
X125865710Y-96834255D01*
X125750416Y-97016279D01*
X125708381Y-97227604D01*
X125745241Y-97439893D01*
X125847468Y-97610363D01*
X125636141Y-97821690D01*
X125496920Y-97807917D01*
X125289241Y-97865317D01*
X125116150Y-97993631D01*
X125000856Y-98175655D01*
X124958821Y-98386980D01*
X124995681Y-98599269D01*
X125106493Y-98784057D01*
X125276397Y-98916562D01*
X125482612Y-98979019D01*
X125697485Y-98963050D01*
X125892204Y-98870799D01*
X126040498Y-98714800D01*
X126006665Y-98770665D01*
X126002066Y-98843760D01*
X125999700Y-98849925D01*
X125999700Y-98881377D01*
X125994221Y-98968467D01*
X125999700Y-98980774D01*
X125999701Y-99286606D01*
X124574768Y-100711540D01*
X121778157Y-100711540D01*
X121709611Y-100698464D01*
X121667373Y-100717269D01*
X121547265Y-100746770D01*
X121492332Y-100795200D01*
X121486303Y-100797884D01*
X121464066Y-100820121D01*
X121398597Y-100877840D01*
X121393769Y-100890417D01*
X120798509Y-101485678D01*
X120798507Y-101485679D01*
X120663822Y-101620365D01*
X120603746Y-101614422D01*
X120396067Y-101671822D01*
X120222976Y-101800136D01*
X120107682Y-101982160D01*
X120065647Y-102193485D01*
X120102507Y-102405774D01*
X120213319Y-102590562D01*
X120383223Y-102723067D01*
X120589438Y-102785524D01*
X120804311Y-102769555D01*
X120999030Y-102677304D01*
X121071849Y-102600702D01*
X121100358Y-102648243D01*
X121270262Y-102780748D01*
X121476477Y-102843205D01*
X121691350Y-102827236D01*
X121886069Y-102734985D01*
X122034520Y-102578821D01*
X122061296Y-102514020D01*
X122135759Y-102602762D01*
X122320042Y-102709157D01*
X122476813Y-102736800D01*
X124193846Y-102736800D01*
X124259969Y-102748459D01*
X124337283Y-102769176D01*
X124417025Y-102762200D01*
X126186260Y-102762200D01*
X126266002Y-102769176D01*
X126343316Y-102748459D01*
X126422157Y-102734557D01*
X126445505Y-102721078D01*
X126471542Y-102714101D01*
X126537110Y-102668189D01*
X126606441Y-102628162D01*
X126657906Y-102566828D01*
X128472234Y-100752501D01*
X128472235Y-104441423D01*
X128472234Y-104441425D01*
X128472234Y-104620631D01*
X128495535Y-104660991D01*
X128507596Y-104706001D01*
X129204270Y-105402674D01*
X129227569Y-105443030D01*
X129267922Y-105466328D01*
X129270654Y-105469060D01*
X129270656Y-105469061D01*
X129911094Y-106109500D01*
X129884582Y-106109500D01*
X129701891Y-105996226D01*
X129690085Y-105992662D01*
X129680008Y-105985553D01*
X129468675Y-105907797D01*
X129456392Y-105906679D01*
X129445091Y-105901742D01*
X129222441Y-105868069D01*
X129210183Y-105869444D01*
X129198119Y-105866880D01*
X128973245Y-105878665D01*
X128961515Y-105882476D01*
X128949187Y-105882390D01*
X128731272Y-105939152D01*
X128720550Y-105945243D01*
X128708454Y-105947638D01*
X128506404Y-106047058D01*
X128497122Y-106055184D01*
X128485756Y-106059962D01*
X128421891Y-106109500D01*
X128272061Y-106109500D01*
X128315794Y-106003659D01*
X128318569Y-105776475D01*
X128240912Y-105574698D01*
X128096320Y-105414953D01*
X127903913Y-105317972D01*
X127730627Y-105300829D01*
X127731215Y-105252663D01*
X127653558Y-105050886D01*
X127508966Y-104891141D01*
X127316559Y-104794160D01*
X127216261Y-104784238D01*
X127216814Y-104738914D01*
X127139157Y-104537137D01*
X126994565Y-104377392D01*
X126802158Y-104280411D01*
X126587739Y-104259199D01*
X126380060Y-104316599D01*
X126206969Y-104444913D01*
X126091675Y-104626937D01*
X126049640Y-104838262D01*
X126066213Y-104933717D01*
X125830231Y-105169700D01*
X125734057Y-105169700D01*
X125864201Y-105032794D01*
X125946766Y-104832975D01*
X125949541Y-104605791D01*
X125871884Y-104404014D01*
X125727292Y-104244269D01*
X125534885Y-104147288D01*
X125320466Y-104126076D01*
X125242605Y-104147596D01*
X125184872Y-103997587D01*
X125040280Y-103837842D01*
X124847873Y-103740861D01*
X124633454Y-103719649D01*
X124425775Y-103777049D01*
X124252684Y-103905363D01*
X124215542Y-103964001D01*
X121455663Y-103964001D01*
X121415307Y-103987300D01*
X121370294Y-103999362D01*
X121167160Y-104202497D01*
X121162345Y-104189987D01*
X121017753Y-104030242D01*
X120825346Y-103933261D01*
X120610927Y-103912049D01*
X120403248Y-103969449D01*
X120230157Y-104097763D01*
X120147971Y-104227516D01*
X119485305Y-103564851D01*
X119485305Y-103564850D01*
X119342714Y-103422259D01*
X119297700Y-103410198D01*
X119269678Y-103394019D01*
X119291252Y-103341805D01*
X119294027Y-103114621D01*
X119216370Y-102912844D01*
X119099600Y-102783837D01*
X119099600Y-90608517D01*
X119187675Y-90515866D01*
X119270240Y-90316047D01*
X119273015Y-90088863D01*
X119195358Y-89887086D01*
X119050766Y-89727341D01*
X118858359Y-89630360D01*
X118643940Y-89609148D01*
X118436261Y-89666548D01*
X118263170Y-89794862D01*
X118147876Y-89976886D01*
X118105841Y-90188211D01*
X118142701Y-90400500D01*
X118253513Y-90585288D01*
X118288800Y-90612808D01*
X118288801Y-102817195D01*
X118284181Y-102820620D01*
X118168888Y-103002644D01*
X118126853Y-103213969D01*
X118156879Y-103386899D01*
X117265626Y-103386899D01*
X117266415Y-103322263D01*
X117188758Y-103120486D01*
X117044166Y-102960741D01*
X116851759Y-102863760D01*
X116637340Y-102842548D01*
X116429661Y-102899948D01*
X116315541Y-102984546D01*
X116313411Y-102982192D01*
X116121004Y-102885211D01*
X115906585Y-102863999D01*
X115698906Y-102921399D01*
X115525815Y-103049713D01*
X115410521Y-103231737D01*
X115368486Y-103443062D01*
X115405346Y-103655351D01*
X115516158Y-103840139D01*
X115686062Y-103972644D01*
X115892277Y-104035101D01*
X116046699Y-104023625D01*
X116049641Y-104026567D01*
X116049645Y-104026569D01*
X116288933Y-104265857D01*
X116288933Y-104265859D01*
X116431524Y-104408449D01*
X116476539Y-104420511D01*
X116516891Y-104443809D01*
X116564565Y-104443809D01*
X116564569Y-104443810D01*
X116686153Y-104443810D01*
X116629998Y-104532467D01*
X116587963Y-104743792D01*
X116624823Y-104956081D01*
X116735635Y-105140869D01*
X116905539Y-105273374D01*
X117111754Y-105335831D01*
X117326627Y-105319862D01*
X117476171Y-105249013D01*
X117470841Y-105275811D01*
X117502973Y-105460867D01*
X117394861Y-105490748D01*
X117221770Y-105619062D01*
X117106476Y-105801086D01*
X117064441Y-106012411D01*
X117081299Y-106109500D01*
X116809187Y-106109500D01*
X116742793Y-106052593D01*
X116731670Y-106047264D01*
X116722798Y-106038697D01*
X116517010Y-105924626D01*
X116505045Y-105921643D01*
X116494633Y-105915035D01*
X116270109Y-105844674D01*
X116257787Y-105844158D01*
X116246261Y-105839779D01*
X116012174Y-105816001D01*
X115977604Y-105821600D01*
X115225826Y-105821600D01*
X115194767Y-105815788D01*
X115008705Y-105830105D01*
X115000369Y-105833040D01*
X114991533Y-105832979D01*
X114763846Y-105892287D01*
X114753124Y-105898377D01*
X114741021Y-105900774D01*
X114529906Y-106004656D01*
X114520629Y-106012778D01*
X114509262Y-106017556D01*
X114390728Y-106109500D01*
X109278400Y-106109500D01*
X109278400Y-77428012D01*
X120574800Y-77428012D01*
X120574800Y-89856388D01*
X120608250Y-89981223D01*
X120711777Y-90084750D01*
X120836612Y-90118200D01*
X124146388Y-90118200D01*
X124271223Y-90084750D01*
X124374750Y-89981223D01*
X124408200Y-89856388D01*
X124408200Y-87735161D01*
X125920401Y-88567385D01*
X126024741Y-88594200D01*
X126655173Y-88594200D01*
X126714719Y-88578187D01*
X126774478Y-88594200D01*
X127427761Y-88594200D01*
X127530272Y-88568375D01*
X129083800Y-87732589D01*
X129083800Y-89856388D01*
X129117250Y-89981223D01*
X129220777Y-90084750D01*
X129345612Y-90118200D01*
X132807788Y-90118200D01*
X132932623Y-90084750D01*
X133036150Y-89981223D01*
X133069600Y-89856388D01*
X133069600Y-77428012D01*
X133036150Y-77303177D01*
X132932623Y-77199650D01*
X132807788Y-77166200D01*
X129345612Y-77166200D01*
X129333672Y-77169399D01*
X129313123Y-77148850D01*
X129188288Y-77115400D01*
X126754754Y-77115400D01*
X126647966Y-77144117D01*
X126635588Y-77140800D01*
X124202112Y-77140800D01*
X124107320Y-77166200D01*
X120836612Y-77166200D01*
X120711777Y-77199650D01*
X120608250Y-77303177D01*
X120574800Y-77428012D01*
X109278400Y-77428012D01*
X109278400Y-75651096D01*
X109280647Y-75645181D01*
X109280647Y-75645181D01*
G37*
X109280647Y-75645181D02*
X109299835Y-75456276D01*
X109343034Y-75318426D01*
X109413073Y-75192072D01*
X109507079Y-75082393D01*
X109621233Y-74993847D01*
X109750860Y-74930063D01*
X109894031Y-74892770D01*
X110038312Y-74881667D01*
X110047589Y-74878400D01*
X144648904Y-74878400D01*
X144654819Y-74880647D01*
X144843724Y-74899835D01*
X144981574Y-74943034D01*
X145107928Y-75013073D01*
X145217607Y-75107079D01*
X145306153Y-75221233D01*
X145369937Y-75350860D01*
X145407230Y-75494031D01*
X145418333Y-75638312D01*
X145421601Y-75647592D01*
X145421600Y-106109500D01*
X139609187Y-106109500D01*
X139542793Y-106052593D01*
X139531670Y-106047264D01*
X139522798Y-106038697D01*
X139317010Y-105924626D01*
X139305045Y-105921643D01*
X139294633Y-105915035D01*
X139070109Y-105844674D01*
X139057787Y-105844158D01*
X139046261Y-105839779D01*
X138812174Y-105816001D01*
X138777604Y-105821600D01*
X138325826Y-105821600D01*
X138294767Y-105815788D01*
X138108705Y-105830105D01*
X138100369Y-105833040D01*
X138091533Y-105832979D01*
X137863846Y-105892287D01*
X137853124Y-105898377D01*
X137841021Y-105900774D01*
X137629906Y-106004656D01*
X137620629Y-106012778D01*
X137609262Y-106017556D01*
X137490728Y-106109500D01*
X131323479Y-106109500D01*
X131323479Y-105246388D01*
X131323478Y-105246384D01*
X131323478Y-105198710D01*
X131300180Y-105158358D01*
X131290625Y-105122698D01*
X131292372Y-104979651D01*
X131310124Y-104989900D01*
X134610012Y-104989900D01*
X134650366Y-104966601D01*
X134695380Y-104954540D01*
X134837971Y-104811949D01*
X134837971Y-104811947D01*
X135979377Y-103670543D01*
X135993339Y-103656582D01*
X136005401Y-103611568D01*
X136028700Y-103571212D01*
X136028700Y-93518634D01*
X136139734Y-93466030D01*
X136288185Y-93309866D01*
X136370750Y-93110047D01*
X136373525Y-92882863D01*
X136295868Y-92681086D01*
X136151276Y-92521341D01*
X135958869Y-92424360D01*
X135744450Y-92403148D01*
X135536771Y-92460548D01*
X135520700Y-92472462D01*
X135520700Y-92164950D01*
X135520699Y-92164946D01*
X135520699Y-92117272D01*
X135497402Y-92076920D01*
X135485339Y-92031904D01*
X135379652Y-91926218D01*
X135217718Y-91764284D01*
X135342075Y-91633466D01*
X135424640Y-91433647D01*
X135427415Y-91206463D01*
X135349758Y-91004686D01*
X135205166Y-90844941D01*
X135012759Y-90747960D01*
X134798340Y-90726748D01*
X134590661Y-90784148D01*
X134417570Y-90912462D01*
X134302276Y-91094486D01*
X134260241Y-91305811D01*
X134297101Y-91518100D01*
X134407913Y-91702888D01*
X134506700Y-91779931D01*
X134506700Y-91970296D01*
X134530001Y-92010656D01*
X134542062Y-92055666D01*
X134836900Y-92350503D01*
X134836901Y-100555576D01*
X134836900Y-100815846D01*
X132080385Y-103572361D01*
X132055566Y-103544941D01*
X131863159Y-103447960D01*
X131648740Y-103426748D01*
X131441061Y-103484148D01*
X131424510Y-103496418D01*
X131387358Y-103399886D01*
X131242766Y-103240141D01*
X131050359Y-103143160D01*
X130835940Y-103121948D01*
X130628261Y-103179348D01*
X130455170Y-103307662D01*
X130339876Y-103489686D01*
X130297841Y-103701011D01*
X130334701Y-103913300D01*
X130445513Y-104098088D01*
X130544300Y-104175130D01*
X130544300Y-104224075D01*
X130567601Y-104264435D01*
X130579662Y-104309445D01*
X130624342Y-104354124D01*
X130711755Y-104441538D01*
X130664068Y-104436820D01*
X130622957Y-104448183D01*
X129608435Y-103433661D01*
X129608435Y-103407066D01*
X129585135Y-103366713D01*
X129573075Y-103321701D01*
X129498945Y-103247572D01*
X129498945Y-99657450D01*
X129566390Y-99696388D01*
X129631960Y-99742301D01*
X129657997Y-99749278D01*
X129681344Y-99762757D01*
X129760176Y-99776657D01*
X129837500Y-99797376D01*
X129917227Y-99790400D01*
X131904187Y-99790400D01*
X132060958Y-99762757D01*
X132245241Y-99656362D01*
X132382021Y-99493354D01*
X132454799Y-99293395D01*
X132454799Y-99080605D01*
X132382021Y-98880646D01*
X132245241Y-98717638D01*
X132060958Y-98611243D01*
X131904187Y-98583600D01*
X130131649Y-98583600D01*
X130031897Y-98513752D01*
X129826356Y-98458677D01*
X129614374Y-98477223D01*
X129498944Y-98531050D01*
X129498944Y-98523254D01*
X129475647Y-98482902D01*
X129463584Y-98437886D01*
X129357897Y-98332200D01*
X128096542Y-97070845D01*
X128096542Y-97070844D01*
X127953951Y-96928253D01*
X127908937Y-96916192D01*
X127868583Y-96892893D01*
X126767498Y-96892893D01*
X126653306Y-96766734D01*
X126460899Y-96669753D01*
X126246480Y-96648541D01*
X126038801Y-96705941D01*
X125865710Y-96834255D01*
X125750416Y-97016279D01*
X125708381Y-97227604D01*
X125745241Y-97439893D01*
X125847468Y-97610363D01*
X125636141Y-97821690D01*
X125496920Y-97807917D01*
X125289241Y-97865317D01*
X125116150Y-97993631D01*
X125000856Y-98175655D01*
X124958821Y-98386980D01*
X124995681Y-98599269D01*
X125106493Y-98784057D01*
X125276397Y-98916562D01*
X125482612Y-98979019D01*
X125697485Y-98963050D01*
X125892204Y-98870799D01*
X126040498Y-98714800D01*
X126006665Y-98770665D01*
X126002066Y-98843760D01*
X125999700Y-98849925D01*
X125999700Y-98881377D01*
X125994221Y-98968467D01*
X125999700Y-98980774D01*
X125999701Y-99286606D01*
X124574768Y-100711540D01*
X121778157Y-100711540D01*
X121709611Y-100698464D01*
X121667373Y-100717269D01*
X121547265Y-100746770D01*
X121492332Y-100795200D01*
X121486303Y-100797884D01*
X121464066Y-100820121D01*
X121398597Y-100877840D01*
X121393769Y-100890417D01*
X120798509Y-101485678D01*
X120798507Y-101485679D01*
X120663822Y-101620365D01*
X120603746Y-101614422D01*
X120396067Y-101671822D01*
X120222976Y-101800136D01*
X120107682Y-101982160D01*
X120065647Y-102193485D01*
X120102507Y-102405774D01*
X120213319Y-102590562D01*
X120383223Y-102723067D01*
X120589438Y-102785524D01*
X120804311Y-102769555D01*
X120999030Y-102677304D01*
X121071849Y-102600702D01*
X121100358Y-102648243D01*
X121270262Y-102780748D01*
X121476477Y-102843205D01*
X121691350Y-102827236D01*
X121886069Y-102734985D01*
X122034520Y-102578821D01*
X122061296Y-102514020D01*
X122135759Y-102602762D01*
X122320042Y-102709157D01*
X122476813Y-102736800D01*
X124193846Y-102736800D01*
X124259969Y-102748459D01*
X124337283Y-102769176D01*
X124417025Y-102762200D01*
X126186260Y-102762200D01*
X126266002Y-102769176D01*
X126343316Y-102748459D01*
X126422157Y-102734557D01*
X126445505Y-102721078D01*
X126471542Y-102714101D01*
X126537110Y-102668189D01*
X126606441Y-102628162D01*
X126657906Y-102566828D01*
X128472234Y-100752501D01*
X128472235Y-104441423D01*
X128472234Y-104441425D01*
X128472234Y-104620631D01*
X128495535Y-104660991D01*
X128507596Y-104706001D01*
X129204270Y-105402674D01*
X129227569Y-105443030D01*
X129267922Y-105466328D01*
X129270654Y-105469060D01*
X129270656Y-105469061D01*
X129911094Y-106109500D01*
X129884582Y-106109500D01*
X129701891Y-105996226D01*
X129690085Y-105992662D01*
X129680008Y-105985553D01*
X129468675Y-105907797D01*
X129456392Y-105906679D01*
X129445091Y-105901742D01*
X129222441Y-105868069D01*
X129210183Y-105869444D01*
X129198119Y-105866880D01*
X128973245Y-105878665D01*
X128961515Y-105882476D01*
X128949187Y-105882390D01*
X128731272Y-105939152D01*
X128720550Y-105945243D01*
X128708454Y-105947638D01*
X128506404Y-106047058D01*
X128497122Y-106055184D01*
X128485756Y-106059962D01*
X128421891Y-106109500D01*
X128272061Y-106109500D01*
X128315794Y-106003659D01*
X128318569Y-105776475D01*
X128240912Y-105574698D01*
X128096320Y-105414953D01*
X127903913Y-105317972D01*
X127730627Y-105300829D01*
X127731215Y-105252663D01*
X127653558Y-105050886D01*
X127508966Y-104891141D01*
X127316559Y-104794160D01*
X127216261Y-104784238D01*
X127216814Y-104738914D01*
X127139157Y-104537137D01*
X126994565Y-104377392D01*
X126802158Y-104280411D01*
X126587739Y-104259199D01*
X126380060Y-104316599D01*
X126206969Y-104444913D01*
X126091675Y-104626937D01*
X126049640Y-104838262D01*
X126066213Y-104933717D01*
X125830231Y-105169700D01*
X125734057Y-105169700D01*
X125864201Y-105032794D01*
X125946766Y-104832975D01*
X125949541Y-104605791D01*
X125871884Y-104404014D01*
X125727292Y-104244269D01*
X125534885Y-104147288D01*
X125320466Y-104126076D01*
X125242605Y-104147596D01*
X125184872Y-103997587D01*
X125040280Y-103837842D01*
X124847873Y-103740861D01*
X124633454Y-103719649D01*
X124425775Y-103777049D01*
X124252684Y-103905363D01*
X124215542Y-103964001D01*
X121455663Y-103964001D01*
X121415307Y-103987300D01*
X121370294Y-103999362D01*
X121167160Y-104202497D01*
X121162345Y-104189987D01*
X121017753Y-104030242D01*
X120825346Y-103933261D01*
X120610927Y-103912049D01*
X120403248Y-103969449D01*
X120230157Y-104097763D01*
X120147971Y-104227516D01*
X119485305Y-103564851D01*
X119485305Y-103564850D01*
X119342714Y-103422259D01*
X119297700Y-103410198D01*
X119269678Y-103394019D01*
X119291252Y-103341805D01*
X119294027Y-103114621D01*
X119216370Y-102912844D01*
X119099600Y-102783837D01*
X119099600Y-90608517D01*
X119187675Y-90515866D01*
X119270240Y-90316047D01*
X119273015Y-90088863D01*
X119195358Y-89887086D01*
X119050766Y-89727341D01*
X118858359Y-89630360D01*
X118643940Y-89609148D01*
X118436261Y-89666548D01*
X118263170Y-89794862D01*
X118147876Y-89976886D01*
X118105841Y-90188211D01*
X118142701Y-90400500D01*
X118253513Y-90585288D01*
X118288800Y-90612808D01*
X118288801Y-102817195D01*
X118284181Y-102820620D01*
X118168888Y-103002644D01*
X118126853Y-103213969D01*
X118156879Y-103386899D01*
X117265626Y-103386899D01*
X117266415Y-103322263D01*
X117188758Y-103120486D01*
X117044166Y-102960741D01*
X116851759Y-102863760D01*
X116637340Y-102842548D01*
X116429661Y-102899948D01*
X116315541Y-102984546D01*
X116313411Y-102982192D01*
X116121004Y-102885211D01*
X115906585Y-102863999D01*
X115698906Y-102921399D01*
X115525815Y-103049713D01*
X115410521Y-103231737D01*
X115368486Y-103443062D01*
X115405346Y-103655351D01*
X115516158Y-103840139D01*
X115686062Y-103972644D01*
X115892277Y-104035101D01*
X116046699Y-104023625D01*
X116049641Y-104026567D01*
X116049645Y-104026569D01*
X116288933Y-104265857D01*
X116288933Y-104265859D01*
X116431524Y-104408449D01*
X116476539Y-104420511D01*
X116516891Y-104443809D01*
X116564565Y-104443809D01*
X116564569Y-104443810D01*
X116686153Y-104443810D01*
X116629998Y-104532467D01*
X116587963Y-104743792D01*
X116624823Y-104956081D01*
X116735635Y-105140869D01*
X116905539Y-105273374D01*
X117111754Y-105335831D01*
X117326627Y-105319862D01*
X117476171Y-105249013D01*
X117470841Y-105275811D01*
X117502973Y-105460867D01*
X117394861Y-105490748D01*
X117221770Y-105619062D01*
X117106476Y-105801086D01*
X117064441Y-106012411D01*
X117081299Y-106109500D01*
X116809187Y-106109500D01*
X116742793Y-106052593D01*
X116731670Y-106047264D01*
X116722798Y-106038697D01*
X116517010Y-105924626D01*
X116505045Y-105921643D01*
X116494633Y-105915035D01*
X116270109Y-105844674D01*
X116257787Y-105844158D01*
X116246261Y-105839779D01*
X116012174Y-105816001D01*
X115977604Y-105821600D01*
X115225826Y-105821600D01*
X115194767Y-105815788D01*
X115008705Y-105830105D01*
X115000369Y-105833040D01*
X114991533Y-105832979D01*
X114763846Y-105892287D01*
X114753124Y-105898377D01*
X114741021Y-105900774D01*
X114529906Y-106004656D01*
X114520629Y-106012778D01*
X114509262Y-106017556D01*
X114390728Y-106109500D01*
X109278400Y-106109500D01*
X109278400Y-77428012D01*
X120574800Y-77428012D01*
X120574800Y-89856388D01*
X120608250Y-89981223D01*
X120711777Y-90084750D01*
X120836612Y-90118200D01*
X124146388Y-90118200D01*
X124271223Y-90084750D01*
X124374750Y-89981223D01*
X124408200Y-89856388D01*
X124408200Y-87735161D01*
X125920401Y-88567385D01*
X126024741Y-88594200D01*
X126655173Y-88594200D01*
X126714719Y-88578187D01*
X126774478Y-88594200D01*
X127427761Y-88594200D01*
X127530272Y-88568375D01*
X129083800Y-87732589D01*
X129083800Y-89856388D01*
X129117250Y-89981223D01*
X129220777Y-90084750D01*
X129345612Y-90118200D01*
X132807788Y-90118200D01*
X132932623Y-90084750D01*
X133036150Y-89981223D01*
X133069600Y-89856388D01*
X133069600Y-77428012D01*
X133036150Y-77303177D01*
X132932623Y-77199650D01*
X132807788Y-77166200D01*
X129345612Y-77166200D01*
X129333672Y-77169399D01*
X129313123Y-77148850D01*
X129188288Y-77115400D01*
X126754754Y-77115400D01*
X126647966Y-77144117D01*
X126635588Y-77140800D01*
X124202112Y-77140800D01*
X124107320Y-77166200D01*
X120836612Y-77166200D01*
X120711777Y-77199650D01*
X120608250Y-77303177D01*
X120574800Y-77428012D01*
X109278400Y-77428012D01*
X109278400Y-75651096D01*
X109280647Y-75645181D01*
G36*
X129045700Y-81203541D02*
G01*
X129033155Y-87300627D01*
X127380392Y-88189800D01*
X126916840Y-88189800D01*
X126897627Y-77519800D01*
X129045700Y-77519800D01*
X129045700Y-81203541D01*
X129045700Y-81203541D01*
G37*
X129045700Y-81203541D02*
X129033155Y-87300627D01*
X127380392Y-88189800D01*
X126916840Y-88189800D01*
X126897627Y-77519800D01*
X129045700Y-77519800D01*
X129045700Y-81203541D01*
G36*
X126512301Y-88189800D02*
G01*
X126073054Y-88189800D01*
X124457623Y-87300764D01*
X124344700Y-81228040D01*
X124344700Y-77545200D01*
X126493225Y-77545200D01*
X126512301Y-88189800D01*
X126512301Y-88189800D01*
G37*
X126512301Y-88189800D02*
X126073054Y-88189800D01*
X124457623Y-87300764D01*
X124344700Y-81228040D01*
X124344700Y-77545200D01*
X126493225Y-77545200D01*
X126512301Y-88189800D01*
G36*
X132665200Y-89713800D02*
G01*
X129488200Y-89713800D01*
X129488200Y-77570600D01*
X132665200Y-77570600D01*
X132665200Y-89713800D01*
X132665200Y-89713800D01*
G37*
X132665200Y-89713800D02*
X129488200Y-89713800D01*
X129488200Y-77570600D01*
X132665200Y-77570600D01*
X132665200Y-89713800D01*
G36*
X123940300Y-81229778D02*
G01*
X123940337Y-81233782D01*
X124003800Y-84646684D01*
X124003800Y-89713800D01*
X120979200Y-89713800D01*
X120979200Y-77570600D01*
X123940300Y-77570600D01*
X123940300Y-81229778D01*
X123940300Y-81229778D01*
G37*
X123940300Y-81229778D02*
X123940337Y-81233782D01*
X124003800Y-84646684D01*
X124003800Y-89713800D01*
X120979200Y-89713800D01*
X120979200Y-77570600D01*
X123940300Y-77570600D01*
X123940300Y-81229778D01*
M02*
