G04 #@! TF.GenerationSoftware,KiCad,Pcbnew,5.99.0-unknown-d20d310~86~ubuntu19.10.1*
G04 #@! TF.CreationDate,2019-12-18T16:01:45-08:00*
G04 #@! TF.ProjectId,TMC2209_Driver,544d4332-3230-4395-9f44-72697665722e,rev?*
G04 #@! TF.SameCoordinates,PX67f3540PY6cb8080*
G04 #@! TF.FileFunction,Paste,Top*
G04 #@! TF.FilePolarity,Positive*
%FSLAX46Y46*%
G04 Gerber Fmt 4.6, Leading zero omitted, Abs format (unit mm)*
G04 Created by KiCad (PCBNEW 5.99.0-unknown-d20d310~86~ubuntu19.10.1) date 2019-12-18 16:01:45*
%MOMM*%
%LPD*%
G04 APERTURE LIST*
%ADD10R,0.590000X0.640000*%
%ADD11R,3.700000X3.700000*%
%ADD12R,0.250000X0.800000*%
%ADD13R,0.800000X0.250000*%
%ADD14R,0.680000X0.300000*%
%ADD15R,1.400000X0.700000*%
%ADD16R,0.700000X0.500000*%
%ADD17R,0.700000X0.650000*%
%ADD18R,0.875000X0.950000*%
%ADD19R,0.650000X0.400000*%
%ADD20R,1.250000X1.750000*%
G04 APERTURE END LIST*
G36*
X13520671Y31569370D02*
G01*
X13601777Y31515177D01*
X13655970Y31434071D01*
X13675000Y31338400D01*
X13675000Y30088400D01*
X13655970Y29992729D01*
X13601777Y29911623D01*
X13520671Y29857430D01*
X13425000Y29838400D01*
X12675000Y29838400D01*
X12579329Y29857430D01*
X12498223Y29911623D01*
X12444030Y29992729D01*
X12425000Y30088400D01*
X12425000Y31338400D01*
X12444030Y31434071D01*
X12498223Y31515177D01*
X12579329Y31569370D01*
X12675000Y31588400D01*
X13425000Y31588400D01*
X13520671Y31569370D01*
G37*
G36*
X10720671Y31569370D02*
G01*
X10801777Y31515177D01*
X10855970Y31434071D01*
X10875000Y31338400D01*
X10875000Y30088400D01*
X10855970Y29992729D01*
X10801777Y29911623D01*
X10720671Y29857430D01*
X10625000Y29838400D01*
X9875000Y29838400D01*
X9779329Y29857430D01*
X9698223Y29911623D01*
X9644030Y29992729D01*
X9625000Y30088400D01*
X9625000Y31338400D01*
X9644030Y31434071D01*
X9698223Y31515177D01*
X9779329Y31569370D01*
X9875000Y31588400D01*
X10625000Y31588400D01*
X10720671Y31569370D01*
G37*
G36*
X22661671Y31594770D02*
G01*
X22742777Y31540577D01*
X22796970Y31459471D01*
X22816000Y31363800D01*
X22816000Y30113800D01*
X22796970Y30018129D01*
X22742777Y29937023D01*
X22661671Y29882830D01*
X22566000Y29863800D01*
X21816000Y29863800D01*
X21720329Y29882830D01*
X21639223Y29937023D01*
X21585030Y30018129D01*
X21566000Y30113800D01*
X21566000Y31363800D01*
X21585030Y31459471D01*
X21639223Y31540577D01*
X21720329Y31594770D01*
X21816000Y31613800D01*
X22566000Y31613800D01*
X22661671Y31594770D01*
G37*
G36*
X25461671Y31594770D02*
G01*
X25542777Y31540577D01*
X25596970Y31459471D01*
X25616000Y31363800D01*
X25616000Y30113800D01*
X25596970Y30018129D01*
X25542777Y29937023D01*
X25461671Y29882830D01*
X25366000Y29863800D01*
X24616000Y29863800D01*
X24520329Y29882830D01*
X24439223Y29937023D01*
X24385030Y30018129D01*
X24366000Y30113800D01*
X24366000Y31363800D01*
X24385030Y31459471D01*
X24439223Y31540577D01*
X24520329Y31594770D01*
X24616000Y31613800D01*
X25366000Y31613800D01*
X25461671Y31594770D01*
G37*
G36*
X35795671Y13780970D02*
G01*
X35876777Y13726777D01*
X35930970Y13645671D01*
X35950000Y13550000D01*
X35950000Y12450000D01*
X35930970Y12354329D01*
X35876777Y12273223D01*
X35795671Y12219030D01*
X35700000Y12200000D01*
X32700000Y12200000D01*
X32604329Y12219030D01*
X32523223Y12273223D01*
X32469030Y12354329D01*
X32450000Y12450000D01*
X32450000Y13550000D01*
X32469030Y13645671D01*
X32523223Y13726777D01*
X32604329Y13780970D01*
X32700000Y13800000D01*
X35700000Y13800000D01*
X35795671Y13780970D01*
G37*
G36*
X30395671Y13780970D02*
G01*
X30476777Y13726777D01*
X30530970Y13645671D01*
X30550000Y13550000D01*
X30550000Y12450000D01*
X30530970Y12354329D01*
X30476777Y12273223D01*
X30395671Y12219030D01*
X30300000Y12200000D01*
X27300000Y12200000D01*
X27204329Y12219030D01*
X27123223Y12273223D01*
X27069030Y12354329D01*
X27050000Y12450000D01*
X27050000Y13550000D01*
X27069030Y13645671D01*
X27123223Y13726777D01*
X27204329Y13780970D01*
X27300000Y13800000D01*
X30300000Y13800000D01*
X30395671Y13780970D01*
G37*
D10*
X11012500Y22814000D03*
X11982500Y22814000D03*
D11*
X17682500Y22941000D03*
D12*
X16182500Y25441000D03*
X16682499Y25441000D03*
X17182501Y25441000D03*
X17682500Y25441000D03*
X18182499Y25441000D03*
X18682501Y25441000D03*
X19182500Y25441000D03*
D13*
X20182500Y24441000D03*
X20182500Y23941001D03*
X20182500Y23440999D03*
X20182500Y22941000D03*
X20182500Y22441001D03*
X20182500Y21940999D03*
X20182500Y21441000D03*
D12*
X19182500Y20441000D03*
X18682501Y20441000D03*
X18182499Y20441000D03*
X17682500Y20441000D03*
X17182501Y20441000D03*
X16682499Y20441000D03*
X16182500Y20441000D03*
D13*
X15182500Y21441000D03*
X15182500Y21940999D03*
X15182500Y22441001D03*
X15182500Y22941000D03*
X15182500Y23440999D03*
X15182500Y23941001D03*
X15182500Y24441000D03*
D14*
X3101800Y13581800D03*
X3101800Y13081800D03*
X3101800Y12581800D03*
X3101800Y12081800D03*
X5821800Y13581800D03*
X5821800Y13081800D03*
X5821800Y12581800D03*
X5821800Y12081800D03*
D15*
X4461800Y12831800D03*
D16*
X4461800Y13331800D03*
D17*
X4461800Y12431800D03*
D18*
X5909700Y14965400D03*
X4334700Y14965400D03*
X10850000Y14051000D03*
X9275000Y14051000D03*
D19*
X10885500Y12415000D03*
X10885500Y11115000D03*
X8985500Y11765000D03*
X8985500Y11115000D03*
X8985500Y12415000D03*
D18*
X8805000Y34879000D03*
X10380000Y34879000D03*
X8830500Y36530000D03*
X10405500Y36530000D03*
X26407500Y35006000D03*
X24832500Y35006000D03*
X26407500Y36530000D03*
X24832500Y36530000D03*
X12412000Y10876000D03*
X13987000Y10876000D03*
D20*
X29046000Y27640000D03*
X31846000Y27640000D03*
X7208000Y27640000D03*
X4408000Y27640000D03*
D10*
X13428000Y26878000D03*
X12458000Y26878000D03*
X21856000Y26878000D03*
X22826000Y26878000D03*
D18*
X10735500Y21163000D03*
X12310500Y21163000D03*
X12361000Y18623000D03*
X13936000Y18623000D03*
X22800500Y20401000D03*
X24375500Y20401000D03*
M02*
