G04 #@! TF.GenerationSoftware,KiCad,Pcbnew,(5.1.0-1558-g0ba0c1724)*
G04 #@! TF.CreationDate,2019-10-27T16:01:04-07:00*
G04 #@! TF.ProjectId,TMC2660_Driver,544d4332-3636-4305-9f44-72697665722e,rev?*
G04 #@! TF.SameCoordinates,Original*
G04 #@! TF.FileFunction,Profile,NP*
%FSLAX46Y46*%
G04 Gerber Fmt 4.6, Leading zero omitted, Abs format (unit mm)*
G04 Created by KiCad (PCBNEW (5.1.0-1558-g0ba0c1724)) date 2019-10-27 16:01:04*
%MOMM*%
%LPD*%
G04 APERTURE LIST*
%ADD10C,0.050000*%
G04 APERTURE END LIST*
D10*
X114500000Y-113000000D02*
G75*
G02X113500000Y-114000000I-1000000J0D01*
G01*
X115500000Y-104600000D02*
G75*
G03X114500000Y-105600000I0J-1000000D01*
G01*
X141000000Y-114000000D02*
G75*
G02X140000000Y-113000000I0J1000000D01*
G01*
X139000000Y-104600000D02*
G75*
G02X140000000Y-105600000I0J-1000000D01*
G01*
X109000000Y-113000000D02*
X109000000Y-75600000D01*
X113500000Y-114000000D02*
X110000000Y-114000000D01*
X114500000Y-105600000D02*
X114500000Y-113000000D01*
X145700000Y-113000000D02*
X145700000Y-75600000D01*
X141000000Y-114000000D02*
X144700000Y-114000000D01*
X140000000Y-113000000D02*
X140000000Y-105600000D01*
X144700000Y-74600000D02*
G75*
G02X145700000Y-75600000I0J-1000000D01*
G01*
X109000000Y-75600000D02*
G75*
G02X110000000Y-74600000I1000000J0D01*
G01*
X145700000Y-113000000D02*
G75*
G02X144700000Y-114000000I-1000000J0D01*
G01*
X110000000Y-114000000D02*
G75*
G02X109000000Y-113000000I0J1000000D01*
G01*
X116000000Y-104600000D02*
G75*
G02X117000000Y-105600000I0J-1000000D01*
G01*
X137300000Y-105600000D02*
G75*
G02X138300000Y-104600000I1000000J0D01*
G01*
X144700000Y-74600000D02*
X110000000Y-74600000D01*
X137300000Y-113500000D02*
G75*
G02X136800000Y-114000000I-500000J0D01*
G01*
X130600000Y-114000000D02*
G75*
G02X130100000Y-113500000I0J500000D01*
G01*
X128199999Y-113500000D02*
G75*
G02X127700000Y-113999999I-499999J0D01*
G01*
X117500000Y-114000000D02*
G75*
G02X117000000Y-113500000I0J500000D01*
G01*
X128200001Y-105599999D02*
G75*
G02X130099999Y-105600001I949999J-1D01*
G01*
X117000000Y-105600000D02*
X117000000Y-113500000D01*
X115500000Y-104600000D02*
X116000000Y-104600000D01*
X138300000Y-104600000D02*
X139000000Y-104600000D01*
X137300000Y-113500000D02*
X137300000Y-105600000D01*
X130600000Y-114000000D02*
X136800000Y-114000000D01*
X130100000Y-105600000D02*
X130100000Y-113500000D01*
X128200000Y-113500000D02*
X128200000Y-105600000D01*
X117500000Y-114000000D02*
X127700000Y-114000000D01*
M02*
