G04 #@! TF.GenerationSoftware,KiCad,Pcbnew,(5.99.0-1251-g6aaee01f1)*
G04 #@! TF.CreationDate,2020-04-08T18:30:41-07:00*
G04 #@! TF.ProjectId,TMC2660_Driver,544d4332-3636-4305-9f44-72697665722e,rev?*
G04 #@! TF.SameCoordinates,PX67f3540PY6cb8080*
G04 #@! TF.FileFunction,Copper,L4,Bot*
G04 #@! TF.FilePolarity,Positive*
%FSLAX46Y46*%
G04 Gerber Fmt 4.6, Leading zero omitted, Abs format (unit mm)*
G04 Created by KiCad (PCBNEW (5.99.0-1251-g6aaee01f1)) date 2020-04-08 18:30:41*
%MOMM*%
%LPD*%
G01*
G04 APERTURE LIST*
G04 #@! TA.AperFunction,ComponentPad*
%ADD10C,1.778000*%
G04 #@! TD*
G04 #@! TA.AperFunction,ComponentPad*
%ADD11R,1.778000X1.778000*%
G04 #@! TD*
G04 #@! TA.AperFunction,ConnectorPad*
%ADD12O,0.650000X0.650000*%
G04 #@! TD*
G04 #@! TA.AperFunction,ConnectorPad*
%ADD13R,0.650000X4.600000*%
G04 #@! TD*
G04 #@! TA.AperFunction,ConnectorPad*
%ADD14R,0.650000X3.600000*%
G04 #@! TD*
G04 #@! TA.AperFunction,ViaPad*
%ADD15C,0.600000*%
G04 #@! TD*
G04 #@! TA.AperFunction,ViaPad*
%ADD16C,1.000000*%
G04 #@! TD*
G04 #@! TA.AperFunction,ViaPad*
%ADD17C,0.800000*%
G04 #@! TD*
G04 #@! TA.AperFunction,Conductor*
%ADD18C,0.127000*%
G04 #@! TD*
G04 #@! TA.AperFunction,Conductor*
%ADD19C,0.254000*%
G04 #@! TD*
G04 #@! TA.AperFunction,Conductor*
%ADD20C,0.700000*%
G04 #@! TD*
G04 #@! TA.AperFunction,Conductor*
%ADD21C,0.650000*%
G04 #@! TD*
G04 #@! TA.AperFunction,Conductor*
%ADD22C,2.000000*%
G04 #@! TD*
G04 #@! TA.AperFunction,Conductor*
%ADD23C,0.152400*%
G04 #@! TD*
G04 APERTURE END LIST*
D10*
X21429000Y35437800D03*
X18889000Y35437800D03*
X16349000Y35437800D03*
D11*
X13809000Y35437800D03*
D12*
X9652800Y1014800D03*
X27652800Y1014800D03*
X26652800Y1014800D03*
X21652800Y1014800D03*
X18652800Y1014800D03*
X25652800Y1014800D03*
X22652800Y1014800D03*
X10652800Y1014800D03*
X24652800Y1014800D03*
X23652800Y1014800D03*
X17652800Y1014800D03*
X16652800Y1014800D03*
X15652800Y1014800D03*
X14652800Y1014800D03*
X13652800Y1014800D03*
X12652800Y1014800D03*
X11652800Y1014800D03*
D13*
X22652800Y3314800D03*
X21652800Y3314800D03*
X27652800Y3314800D03*
X26652800Y3314800D03*
X25652800Y3314800D03*
X24652800Y3314800D03*
X23652800Y3314800D03*
X18652800Y3314800D03*
X17652800Y3314800D03*
X16652800Y3314800D03*
X15652800Y3314800D03*
X14652800Y3314800D03*
X13652800Y3314800D03*
X12652800Y3314800D03*
X11652800Y3314800D03*
X10652800Y3314800D03*
X9652800Y3314800D03*
D14*
X8652800Y3814800D03*
D15*
X12128995Y11271005D03*
X22052410Y7147590D03*
D16*
X9150333Y12209846D03*
D15*
X7854717Y11728410D03*
X8400000Y10600000D03*
X4800000Y15100000D03*
X4000000Y14700000D03*
X11040721Y10131679D03*
D17*
X18749451Y10652410D03*
D15*
X22600000Y6200000D03*
X9400000Y10600000D03*
X5400000Y14500000D03*
X21600000Y6200000D03*
X5000000Y12300000D03*
X4200000Y12300000D03*
X5000000Y18000000D03*
X5000000Y17000000D03*
X5000000Y16000000D03*
X4000000Y16000000D03*
X4000000Y17000000D03*
X4000000Y18000000D03*
X2500000Y21500000D03*
X2500000Y20500000D03*
X2500000Y19500000D03*
X2500000Y18500000D03*
X1000000Y18500000D03*
X1000000Y19500000D03*
X1000000Y20500000D03*
X1000000Y21500000D03*
X16700000Y7400000D03*
X14300000Y8787770D03*
X13400000Y9240180D03*
X9775110Y9347590D03*
X15600000Y7600000D03*
X25600000Y10200000D03*
X27700000Y10200000D03*
X26700000Y10200000D03*
D16*
X30192000Y16210000D03*
X33750000Y15750000D03*
X32500000Y17500000D03*
X30192000Y18242000D03*
X30192000Y21290000D03*
X32224000Y21290000D03*
D17*
X15858054Y11320680D03*
D15*
X16257457Y9316543D03*
D17*
X14088400Y11434800D03*
D15*
X14952000Y30942000D03*
D16*
X1744000Y32974000D03*
X1744000Y30434000D03*
X4080800Y35514000D03*
X6112800Y36403000D03*
X19016000Y38308000D03*
X32063980Y31739560D03*
X27133840Y34769780D03*
D15*
X12029132Y7805928D03*
X9775110Y7948380D03*
X10902121Y7690257D03*
X8533650Y9106687D03*
X7103309Y34525115D03*
X5976289Y34244000D03*
X7865400Y34803024D03*
X6239800Y35285400D03*
X11167400Y8564600D03*
X5172048Y33980489D03*
X17238000Y16591000D03*
X19651000Y16845000D03*
X16857000Y8463000D03*
X20540000Y16972000D03*
D16*
X18127000Y8590000D03*
X18127000Y14686000D03*
D15*
X18127000Y17226000D03*
X18127000Y19385000D03*
D17*
X21810000Y14686000D03*
X18229569Y28631311D03*
X21556000Y33736000D03*
X31208000Y33228000D03*
X27144000Y37038000D03*
X4969800Y32720000D03*
X7586000Y36784000D03*
D16*
X15460000Y28148000D03*
X15460000Y25100000D03*
X13936000Y26624000D03*
X15460000Y22052000D03*
X16984000Y26624000D03*
X16984000Y23576000D03*
X16984000Y20528000D03*
X13936000Y23576000D03*
X19016000Y20528000D03*
X20540000Y22052000D03*
X19016000Y23576000D03*
X22064000Y23576000D03*
X20540000Y25100000D03*
X19016000Y26624000D03*
X22064000Y26624000D03*
X20540000Y28148000D03*
X25874000Y21499200D03*
X27271000Y20274000D03*
X27525000Y17353000D03*
X27144000Y25608000D03*
X25874000Y18877000D03*
X27144000Y22814000D03*
X25874000Y24338000D03*
X8729000Y17226000D03*
X10380000Y18369000D03*
X9110000Y19893000D03*
X10380000Y21207800D03*
X8983000Y22433000D03*
X10380000Y23830000D03*
X8983000Y25100000D03*
X26839200Y11892000D03*
D17*
X2250000Y29164000D03*
X2250000Y27894000D03*
X2250000Y26624000D03*
X33750000Y29545000D03*
X33750000Y28148000D03*
X33750000Y26750000D03*
D16*
X32532000Y13000000D03*
X30500000Y13000000D03*
X35000000Y10532000D03*
X35000000Y8500000D03*
D18*
X9400000Y10852681D02*
X8062241Y12190441D01*
X6754159Y12190441D02*
X8062241Y12190441D01*
X4800000Y15100000D02*
X4800000Y14144600D01*
X4800000Y14144600D02*
X6754159Y12190441D01*
X21652800Y5052800D02*
X22052410Y5452410D01*
X22052410Y5452410D02*
X22052410Y7147590D01*
D19*
X21652800Y3314800D02*
X21652800Y5052800D01*
D18*
X7430453Y11728410D02*
X7854717Y11728410D01*
X4000000Y14700000D02*
X4000000Y14100000D01*
X4000000Y14100000D02*
X6371590Y11728410D01*
X6371590Y11728410D02*
X7430453Y11728410D01*
X9400000Y10600000D02*
X9400000Y10852681D01*
X9652800Y3314800D02*
X9652800Y6523200D01*
X9211600Y6964400D02*
X9211600Y9788400D01*
X9211600Y9788400D02*
X8400000Y10600000D01*
X9652800Y6523200D02*
X9211600Y6964400D01*
X10652800Y3314800D02*
X10652800Y6056600D01*
X10338611Y9429569D02*
X10740722Y9831680D01*
X10740722Y9831680D02*
X11040721Y10131679D01*
X10338611Y6370789D02*
X10338611Y9429569D01*
X10652800Y6056600D02*
X10338611Y6370789D01*
X15600000Y7600000D02*
X14412230Y8787770D01*
X14412230Y8787770D02*
X14300000Y8787770D01*
X13400000Y9240180D02*
X14859820Y9240180D01*
X14859820Y9240180D02*
X16700000Y7400000D01*
D20*
X25653020Y6315020D02*
X25653020Y8234400D01*
D21*
X25652800Y3314800D02*
X25652800Y6314800D01*
D20*
X25652800Y6314800D02*
X25653020Y6315020D01*
D21*
X24652800Y3314800D02*
X24652800Y8073840D01*
X23652800Y3314800D02*
X23652800Y7979160D01*
X26652800Y3314800D02*
X26652800Y8020060D01*
D20*
X27657080Y6319080D02*
X27657080Y8145500D01*
D21*
X27652800Y3314800D02*
X27652800Y6314800D01*
D20*
X27652800Y6314800D02*
X27657080Y6319080D01*
D18*
X11465622Y6513778D02*
X11652800Y6326600D01*
X11465622Y8266378D02*
X11465622Y6513778D01*
X11652800Y5741800D02*
X11652800Y3314800D01*
X11652800Y6326600D02*
X11652800Y5741800D01*
X11167400Y8564600D02*
X11465622Y8266378D01*
X8652800Y3814800D02*
X8652800Y8987537D01*
X8652800Y8987537D02*
X8533650Y9106687D01*
D22*
X14444000Y33736000D02*
X14444000Y33101000D01*
X11015000Y36581802D02*
X11015000Y32847000D01*
X15244035Y37800000D02*
X12233198Y37800000D01*
X12233198Y37800000D02*
X11015000Y36581802D01*
X16349000Y35437800D02*
X16349000Y36695035D01*
X16349000Y36695035D02*
X15244035Y37800000D01*
X13809000Y34371000D02*
X14444000Y33736000D01*
X13809000Y35437800D02*
X13809000Y34371000D01*
X19778000Y33977517D02*
X19778000Y32720000D01*
X19228990Y34526527D02*
X19778000Y33977517D01*
X18889000Y35006000D02*
X19228990Y34666010D01*
X18889000Y35437800D02*
X18889000Y35006000D01*
X19228990Y34666010D02*
X19228990Y34526527D01*
X24985000Y34371000D02*
X24985000Y32720000D01*
X23842000Y35514000D02*
X24985000Y34371000D01*
X22762435Y35514000D02*
X23842000Y35514000D01*
X21429000Y35437800D02*
X22686235Y35437800D01*
X22686235Y35437800D02*
X22762435Y35514000D01*
G36*
X35663106Y39118512D02*
G01*
X35843723Y39100165D01*
X35981574Y39056966D01*
X36107928Y38986927D01*
X36217607Y38892921D01*
X36306153Y38778767D01*
X36369937Y38649140D01*
X36407231Y38505969D01*
X36417694Y38369994D01*
X36421100Y38353831D01*
X36421601Y38352408D01*
X36421600Y1049957D01*
X36418512Y1036895D01*
X36400165Y856277D01*
X36356965Y718425D01*
X36286927Y592072D01*
X36192920Y482393D01*
X36078765Y393845D01*
X35949145Y330064D01*
X35805969Y292770D01*
X35669994Y282306D01*
X35653833Y278900D01*
X35652413Y278400D01*
X31849957Y278400D01*
X31836895Y281488D01*
X31656277Y299835D01*
X31518425Y343035D01*
X31392072Y413073D01*
X31282393Y507080D01*
X31193845Y621235D01*
X31130064Y750855D01*
X31092770Y894031D01*
X31082306Y1030006D01*
X31078900Y1046167D01*
X31078400Y1047587D01*
X31078400Y3167128D01*
X32118862Y3167128D01*
X32119458Y3156804D01*
X32155280Y2901915D01*
X32157553Y2891826D01*
X32234525Y2646210D01*
X32238416Y2636628D01*
X32354469Y2406882D01*
X32359872Y2398064D01*
X32511891Y2190357D01*
X32518662Y2182540D01*
X32702563Y2002451D01*
X32710520Y1995845D01*
X32921365Y1848210D01*
X32930294Y1842992D01*
X33162420Y1731776D01*
X33172081Y1728087D01*
X33419255Y1656275D01*
X33429390Y1654214D01*
X33684974Y1623737D01*
X33695309Y1623358D01*
X33952438Y1635035D01*
X33962695Y1636349D01*
X34214465Y1689864D01*
X34224370Y1692836D01*
X34464019Y1786753D01*
X34473306Y1791302D01*
X34694397Y1923100D01*
X34702816Y1929105D01*
X34899413Y2095242D01*
X34906738Y2102542D01*
X35073561Y2298558D01*
X35079596Y2306956D01*
X35212163Y2527586D01*
X35216745Y2536857D01*
X35311498Y2776176D01*
X35314505Y2786071D01*
X35369062Y3038406D01*
X35370469Y3050206D01*
X35378588Y3382388D01*
X35377759Y3394243D01*
X35335594Y3648942D01*
X35333074Y3658973D01*
X35250124Y3902635D01*
X35246001Y3912118D01*
X35124369Y4138961D01*
X35118751Y4147644D01*
X34961704Y4351574D01*
X34954744Y4359223D01*
X34766497Y4534766D01*
X34758381Y4541175D01*
X34543992Y4683616D01*
X34534939Y4688614D01*
X34300164Y4794125D01*
X34290416Y4797577D01*
X34041561Y4863328D01*
X34031379Y4865141D01*
X33775128Y4889363D01*
X33764787Y4889490D01*
X33508020Y4871535D01*
X33497797Y4869971D01*
X33247410Y4810320D01*
X33237580Y4807108D01*
X33000297Y4707363D01*
X32991124Y4702588D01*
X32773319Y4565429D01*
X32765049Y4559219D01*
X32572570Y4388328D01*
X32565426Y4380852D01*
X32403442Y4180819D01*
X32397614Y4172276D01*
X32270476Y3948473D01*
X32266122Y3939092D01*
X32177244Y3697530D01*
X32174481Y3687564D01*
X32126250Y3434729D01*
X32125151Y3424446D01*
X32118862Y3167128D01*
X31078400Y3167128D01*
X31078400Y6874174D01*
X31082680Y6897045D01*
X31083573Y6913538D01*
X31070534Y7082991D01*
X31067129Y7099151D01*
X31066959Y7099632D01*
X31066963Y7100138D01*
X31064922Y7116527D01*
X31009813Y7328094D01*
X31003600Y7343395D01*
X31001623Y7346876D01*
X31000844Y7350808D01*
X30995548Y7366452D01*
X30899022Y7562619D01*
X30889856Y7576362D01*
X30887222Y7579371D01*
X30885672Y7583058D01*
X30877338Y7597321D01*
X30743338Y7770073D01*
X30731599Y7781690D01*
X30728407Y7784113D01*
X30726145Y7787417D01*
X30715115Y7799709D01*
X30549117Y7941987D01*
X30535281Y7951006D01*
X30531672Y7952735D01*
X30528790Y7955518D01*
X30515514Y7965342D01*
X30324296Y8071335D01*
X30308927Y8077389D01*
X30305044Y8078357D01*
X30301666Y8080501D01*
X30286684Y8087456D01*
X30078058Y8152835D01*
X30061785Y8155675D01*
X30057788Y8155842D01*
X30054049Y8157263D01*
X30037973Y8161063D01*
X29820461Y8183158D01*
X29803952Y8182668D01*
X29777603Y8178400D01*
X29325826Y8178400D01*
X29302955Y8182680D01*
X29286462Y8183573D01*
X29117009Y8170534D01*
X29100849Y8167129D01*
X29100368Y8166959D01*
X29099862Y8166963D01*
X29083473Y8164922D01*
X28871906Y8109813D01*
X28856605Y8103600D01*
X28853124Y8101623D01*
X28849192Y8100844D01*
X28833548Y8095548D01*
X28637381Y7999022D01*
X28623638Y7989856D01*
X28620629Y7987222D01*
X28616942Y7985672D01*
X28602679Y7977338D01*
X28429927Y7843338D01*
X28418310Y7831599D01*
X28415887Y7828407D01*
X28412583Y7826145D01*
X28400291Y7815115D01*
X28258013Y7649117D01*
X28248994Y7635281D01*
X28247265Y7631672D01*
X28244482Y7628790D01*
X28234658Y7615514D01*
X28128665Y7424296D01*
X28122611Y7408927D01*
X28121643Y7405044D01*
X28119499Y7401666D01*
X28112544Y7386684D01*
X28047165Y7178058D01*
X28044325Y7161785D01*
X28044158Y7157788D01*
X28042737Y7154049D01*
X28038937Y7137973D01*
X28016842Y6920461D01*
X28017332Y6903952D01*
X28021601Y6877597D01*
X28021601Y6250857D01*
X27994262Y6255678D01*
X27983301Y6256637D01*
X27854609Y6256637D01*
X27780800Y6182828D01*
X27780800Y5626000D01*
X27524800Y5626000D01*
X27524800Y6182828D01*
X27450991Y6256637D01*
X27319542Y6256637D01*
X27303166Y6254481D01*
X27183260Y6222353D01*
X26994262Y6255678D01*
X26983301Y6256637D01*
X26854609Y6256637D01*
X26780800Y6182828D01*
X26780800Y5626000D01*
X26524800Y5626000D01*
X26524800Y6182828D01*
X26450991Y6256637D01*
X26319542Y6256637D01*
X26303166Y6254481D01*
X26183260Y6222353D01*
X25994262Y6255678D01*
X25983301Y6256637D01*
X25854609Y6256637D01*
X25780800Y6182828D01*
X25780800Y5626000D01*
X25524800Y5626000D01*
X25524800Y6182828D01*
X25450991Y6256637D01*
X25319542Y6256637D01*
X25303166Y6254481D01*
X25183260Y6222353D01*
X24994262Y6255678D01*
X24983301Y6256637D01*
X24854609Y6256637D01*
X24780800Y6182828D01*
X24780800Y5626000D01*
X24524800Y5626000D01*
X24524800Y6182828D01*
X24450991Y6256637D01*
X24319542Y6256637D01*
X24303166Y6254481D01*
X24183260Y6222353D01*
X23994262Y6255678D01*
X23983301Y6256637D01*
X23854609Y6256637D01*
X23780800Y6182828D01*
X23780800Y5626000D01*
X23524800Y5626000D01*
X23524800Y6182828D01*
X23450991Y6256637D01*
X23319542Y6256637D01*
X23303166Y6254481D01*
X23179748Y6221411D01*
X23180585Y6295202D01*
X23176327Y6318809D01*
X23106881Y6498780D01*
X23094673Y6518586D01*
X22965337Y6661224D01*
X22946817Y6675307D01*
X22774803Y6761820D01*
X22752455Y6768291D01*
X22560830Y6787081D01*
X22537650Y6785073D01*
X22498239Y6774143D01*
X22539728Y6817864D01*
X22552383Y6837388D01*
X22625892Y7015737D01*
X22630685Y7039240D01*
X22632995Y7242792D01*
X22628737Y7266399D01*
X22559291Y7446370D01*
X22547083Y7466176D01*
X22417747Y7608814D01*
X22399227Y7622897D01*
X22227213Y7709410D01*
X22204865Y7715881D01*
X22013240Y7734671D01*
X21990060Y7732663D01*
X21804519Y7681208D01*
X21783616Y7670990D01*
X21629038Y7556191D01*
X21613215Y7539134D01*
X21510329Y7376383D01*
X21501707Y7354773D01*
X21464309Y7165896D01*
X21464045Y7142631D01*
X21497148Y6952954D01*
X21505277Y6931154D01*
X21593788Y6783849D01*
X21560830Y6787081D01*
X21537650Y6785073D01*
X21378400Y6740909D01*
X21378400Y6870743D01*
X21382523Y6890137D01*
X21383819Y6906604D01*
X21377750Y7022399D01*
X21375279Y7035733D01*
X21374263Y7049251D01*
X21331620Y7253367D01*
X21326160Y7268957D01*
X21324356Y7272527D01*
X21323772Y7276485D01*
X21319247Y7292372D01*
X21236432Y7483746D01*
X21227949Y7497920D01*
X21225464Y7501055D01*
X21224096Y7504815D01*
X21216469Y7519467D01*
X21096864Y7690280D01*
X21085706Y7702458D01*
X21082637Y7705033D01*
X21080540Y7708442D01*
X21070123Y7721260D01*
X20918615Y7864534D01*
X20905236Y7874218D01*
X20901714Y7876123D01*
X20898974Y7879040D01*
X20886193Y7889501D01*
X20708971Y7999384D01*
X20693916Y8006182D01*
X20690084Y8007339D01*
X20686815Y8009645D01*
X20672190Y8017323D01*
X20476492Y8089327D01*
X20460379Y8092958D01*
X20456391Y8093321D01*
X20452724Y8094923D01*
X20436855Y8099503D01*
X20230677Y8130685D01*
X20214164Y8131002D01*
X20210186Y8130556D01*
X20206266Y8131389D01*
X20189801Y8132685D01*
X19981564Y8121771D01*
X19965323Y8118761D01*
X19961516Y8117524D01*
X19957517Y8117552D01*
X19941126Y8115510D01*
X19739334Y8062947D01*
X19724029Y8056733D01*
X19720550Y8054757D01*
X19716627Y8053980D01*
X19700979Y8048684D01*
X19513878Y7956619D01*
X19500137Y7947455D01*
X19497124Y7944817D01*
X19493434Y7943266D01*
X19479174Y7934933D01*
X19314409Y7807130D01*
X19302792Y7795390D01*
X19300369Y7792198D01*
X19297065Y7789936D01*
X19284773Y7778906D01*
X19149071Y7620580D01*
X19140052Y7606744D01*
X19138323Y7603135D01*
X19135540Y7600253D01*
X19125717Y7586977D01*
X19024622Y7404599D01*
X19018569Y7389232D01*
X19017600Y7385344D01*
X19015455Y7381965D01*
X19008501Y7366985D01*
X18946144Y7168004D01*
X18943304Y7151731D01*
X18943136Y7147733D01*
X18941715Y7143991D01*
X18937916Y7127917D01*
X18916843Y6920461D01*
X18917333Y6903951D01*
X18921601Y6877602D01*
X18921601Y5896186D01*
X18321610Y5896186D01*
X18309290Y5894973D01*
X18231583Y5879516D01*
X18208651Y5870017D01*
X18152800Y5832697D01*
X18096949Y5870017D01*
X18074017Y5879516D01*
X17996310Y5894973D01*
X17983990Y5896186D01*
X17321610Y5896186D01*
X17309290Y5894973D01*
X17231583Y5879516D01*
X17208651Y5870017D01*
X17152800Y5832697D01*
X17096949Y5870017D01*
X17074017Y5879516D01*
X16996310Y5894973D01*
X16983990Y5896186D01*
X16321610Y5896186D01*
X16309290Y5894973D01*
X16231583Y5879516D01*
X16208651Y5870017D01*
X16152800Y5832697D01*
X16096949Y5870017D01*
X16074017Y5879516D01*
X15996310Y5894973D01*
X15983990Y5896186D01*
X15321610Y5896186D01*
X15309290Y5894973D01*
X15231583Y5879516D01*
X15208651Y5870017D01*
X15152800Y5832697D01*
X15096949Y5870017D01*
X15074017Y5879516D01*
X14996310Y5894973D01*
X14983990Y5896186D01*
X14321610Y5896186D01*
X14309290Y5894973D01*
X14231583Y5879516D01*
X14208651Y5870017D01*
X14152800Y5832697D01*
X14096949Y5870017D01*
X14074017Y5879516D01*
X13996310Y5894973D01*
X13983990Y5896186D01*
X13321610Y5896186D01*
X13309290Y5894973D01*
X13231583Y5879516D01*
X13208651Y5870017D01*
X13152800Y5832697D01*
X13096949Y5870017D01*
X13074017Y5879516D01*
X12996310Y5894973D01*
X12983990Y5896186D01*
X12321610Y5896186D01*
X12309290Y5894973D01*
X12231583Y5879516D01*
X12208651Y5870017D01*
X12152800Y5832697D01*
X12096949Y5870017D01*
X12074017Y5879516D01*
X11996700Y5894895D01*
X11996700Y6363010D01*
X11996699Y6363018D01*
X11996699Y6401574D01*
X11988113Y6433619D01*
X11973263Y6459341D01*
X11965576Y6488028D01*
X11948988Y6516759D01*
X11920665Y6545081D01*
X11920657Y6545091D01*
X11809522Y6656225D01*
X11809522Y7265897D01*
X11953525Y7222420D01*
X11976653Y7219887D01*
X12168655Y7234324D01*
X12191144Y7240287D01*
X12365076Y7322876D01*
X12383911Y7336535D01*
X12516450Y7476202D01*
X12529105Y7495726D01*
X12602614Y7674075D01*
X12607407Y7697578D01*
X12609717Y7901130D01*
X12605459Y7924737D01*
X12536013Y8104708D01*
X12523805Y8124514D01*
X12394469Y8267152D01*
X12375949Y8281235D01*
X12203935Y8367748D01*
X12181587Y8374219D01*
X11989962Y8393009D01*
X11966782Y8391001D01*
X11808015Y8346971D01*
X11800935Y8373397D01*
X11786085Y8399119D01*
X11778398Y8427806D01*
X11761810Y8456537D01*
X11745859Y8472487D01*
X11747985Y8659802D01*
X11743727Y8683409D01*
X11674281Y8863380D01*
X11662073Y8883186D01*
X11532737Y9025824D01*
X11514217Y9039907D01*
X11342203Y9126420D01*
X11319855Y9132891D01*
X11128230Y9151681D01*
X11105050Y9149673D01*
X10919509Y9098218D01*
X10898606Y9088000D01*
X10744028Y8973201D01*
X10728205Y8956144D01*
X10682511Y8883863D01*
X10682511Y9235221D01*
X12811635Y9235221D01*
X12844738Y9045544D01*
X12852867Y9023744D01*
X12952036Y8858701D01*
X12967467Y8841290D01*
X13119401Y8723012D01*
X13140067Y8712323D01*
X13324393Y8656672D01*
X13347521Y8654139D01*
X13539523Y8668576D01*
X13562012Y8674539D01*
X13717635Y8748434D01*
X13744738Y8593134D01*
X13752867Y8571334D01*
X13852036Y8406291D01*
X13867467Y8388880D01*
X14019401Y8270602D01*
X14040067Y8259913D01*
X14224393Y8204262D01*
X14247521Y8201729D01*
X14439523Y8216166D01*
X14462012Y8222129D01*
X14482022Y8231631D01*
X15025691Y7687961D01*
X15011899Y7618306D01*
X15011635Y7595041D01*
X15044738Y7405364D01*
X15052867Y7383564D01*
X15152036Y7218521D01*
X15167467Y7201110D01*
X15319401Y7082832D01*
X15340067Y7072143D01*
X15524393Y7016492D01*
X15547521Y7013959D01*
X15739523Y7028396D01*
X15762012Y7034359D01*
X15935944Y7116948D01*
X15954779Y7130607D01*
X16087318Y7270274D01*
X16099973Y7289798D01*
X16121069Y7340983D01*
X16144738Y7205364D01*
X16152867Y7183564D01*
X16252036Y7018521D01*
X16267467Y7001110D01*
X16419401Y6882832D01*
X16440067Y6872143D01*
X16624393Y6816492D01*
X16647521Y6813959D01*
X16839523Y6828396D01*
X16862012Y6834359D01*
X17035944Y6916948D01*
X17054779Y6930607D01*
X17187318Y7070274D01*
X17199973Y7089798D01*
X17273482Y7268147D01*
X17278275Y7291650D01*
X17280585Y7495202D01*
X17276327Y7518809D01*
X17206881Y7698780D01*
X17194673Y7718586D01*
X17065337Y7861224D01*
X17046817Y7875307D01*
X17008508Y7894574D01*
X17019012Y7897359D01*
X17192944Y7979948D01*
X17211779Y7993607D01*
X17344318Y8133274D01*
X17356973Y8152798D01*
X17409844Y8281075D01*
X17466743Y8160159D01*
X17477208Y8144496D01*
X17622321Y7985018D01*
X17636930Y7973125D01*
X17822521Y7863367D01*
X17839980Y7856295D01*
X18049640Y7805960D01*
X18068407Y7804334D01*
X18283600Y7817873D01*
X18302015Y7821838D01*
X18503714Y7898053D01*
X18520149Y7907258D01*
X18690520Y8039411D01*
X18703523Y8053041D01*
X18827505Y8229449D01*
X18835925Y8246300D01*
X18902631Y8451601D01*
X18905730Y8470686D01*
X18907508Y8697068D01*
X18904709Y8716199D01*
X18841235Y8922522D01*
X18833081Y8939504D01*
X18711886Y9117836D01*
X18699099Y9131669D01*
X18530825Y9266483D01*
X18514536Y9275945D01*
X18314059Y9355318D01*
X18295708Y9359572D01*
X18080756Y9376489D01*
X18061966Y9375158D01*
X17851541Y9328123D01*
X17833973Y9321326D01*
X17646680Y9214497D01*
X17631886Y9202835D01*
X17484286Y9045656D01*
X17473576Y9030159D01*
X17378718Y8836529D01*
X17373038Y8818569D01*
X17363996Y8761482D01*
X17363881Y8761780D01*
X17351673Y8781586D01*
X17222337Y8924224D01*
X17203817Y8938307D01*
X17031803Y9024820D01*
X17009455Y9031291D01*
X16817830Y9050081D01*
X16794650Y9048073D01*
X16772047Y9041805D01*
X16830939Y9184690D01*
X16835732Y9208193D01*
X16838042Y9411745D01*
X16833784Y9435352D01*
X16764338Y9615323D01*
X16752130Y9635129D01*
X16622794Y9777767D01*
X16604274Y9791850D01*
X16432260Y9878363D01*
X16409912Y9884834D01*
X16218287Y9903624D01*
X16195107Y9901616D01*
X16009566Y9850161D01*
X15988663Y9839943D01*
X15834085Y9725144D01*
X15818262Y9708087D01*
X15715376Y9545336D01*
X15706754Y9523726D01*
X15669356Y9334849D01*
X15669092Y9311584D01*
X15702195Y9121907D01*
X15710324Y9100107D01*
X15809493Y8935064D01*
X15824924Y8917653D01*
X15976858Y8799375D01*
X15997524Y8788686D01*
X16181850Y8733035D01*
X16204978Y8730502D01*
X16346098Y8741113D01*
X16314919Y8691793D01*
X16306297Y8670183D01*
X16268899Y8481306D01*
X16268635Y8458041D01*
X16298304Y8288043D01*
X15082710Y9503636D01*
X15049979Y9536368D01*
X15021247Y9552957D01*
X14992557Y9560644D01*
X14966840Y9575492D01*
X14934793Y9584079D01*
X14896238Y9584079D01*
X14896230Y9584080D01*
X13871719Y9584080D01*
X13765337Y9701404D01*
X13746817Y9715487D01*
X13574803Y9802000D01*
X13552455Y9808471D01*
X13360830Y9827261D01*
X13337650Y9825253D01*
X13152109Y9773798D01*
X13131206Y9763580D01*
X12976628Y9648781D01*
X12960805Y9631724D01*
X12857919Y9468973D01*
X12849297Y9447363D01*
X12811899Y9258486D01*
X12811635Y9235221D01*
X10682511Y9235221D01*
X10682511Y9287122D01*
X10948559Y9553169D01*
X10965114Y9548171D01*
X10988242Y9545638D01*
X11180244Y9560075D01*
X11202733Y9566038D01*
X11376665Y9648627D01*
X11395500Y9662286D01*
X11528039Y9801953D01*
X11540694Y9821477D01*
X11614203Y9999826D01*
X11618996Y10023329D01*
X11621306Y10226881D01*
X11617048Y10250488D01*
X11581119Y10343600D01*
X12848259Y10343600D01*
X12864634Y10345756D01*
X12943500Y10366888D01*
X13022366Y10345756D01*
X13038741Y10343600D01*
X18055259Y10343600D01*
X18071634Y10345756D01*
X18170500Y10372248D01*
X18269366Y10345756D01*
X18285741Y10343600D01*
X23302286Y10343600D01*
X23318715Y10345770D01*
X23377412Y10361553D01*
X23436366Y10345756D01*
X23452741Y10343600D01*
X28469259Y10343600D01*
X28485634Y10345756D01*
X28585834Y10372605D01*
X28614566Y10389193D01*
X28693807Y10468434D01*
X28710395Y10497166D01*
X28737244Y10597366D01*
X28739400Y10613741D01*
X28739400Y33741259D01*
X28737244Y33757634D01*
X28710395Y33857834D01*
X28693807Y33886566D01*
X28614566Y33965807D01*
X28585834Y33982395D01*
X28485634Y34009244D01*
X28469259Y34011400D01*
X26265400Y34011400D01*
X26265400Y34358260D01*
X26266823Y34494123D01*
X26265399Y34508139D01*
X26250256Y34578177D01*
X26242264Y34649420D01*
X26239143Y34663159D01*
X26219993Y34718150D01*
X26207691Y34775050D01*
X26203197Y34788403D01*
X26172910Y34853352D01*
X26149337Y34921046D01*
X26143249Y34933752D01*
X26112394Y34983129D01*
X26087698Y35036093D01*
X26080084Y35048469D01*
X26038723Y35101029D01*
X25998541Y35165334D01*
X25989789Y35176376D01*
X25938179Y35228347D01*
X25936342Y35230417D01*
X25905149Y35261609D01*
X25797371Y35370141D01*
X25793522Y35373236D01*
X24756524Y36410233D01*
X24661326Y36507447D01*
X24650407Y36516352D01*
X24590158Y36555180D01*
X24534148Y36599892D01*
X24522225Y36607400D01*
X24469807Y36632740D01*
X24420868Y36664279D01*
X24408248Y36670544D01*
X24340890Y36695060D01*
X24276370Y36726251D01*
X24263081Y36730931D01*
X24206362Y36744025D01*
X24151433Y36764017D01*
X24137299Y36767384D01*
X24070878Y36775305D01*
X23997002Y36792360D01*
X23983006Y36793980D01*
X23909770Y36794235D01*
X23906992Y36794400D01*
X23862513Y36794400D01*
X23709932Y36794933D01*
X23705027Y36794400D01*
X22775175Y36794400D01*
X22639314Y36795823D01*
X22625297Y36794399D01*
X22555250Y36779255D01*
X22484015Y36771264D01*
X22470276Y36768143D01*
X22415292Y36748995D01*
X22358387Y36736692D01*
X22345033Y36732198D01*
X22315015Y36718200D01*
X21360364Y36718200D01*
X21353336Y36717807D01*
X21150580Y36695065D01*
X21136841Y36691943D01*
X20878954Y36602137D01*
X20866248Y36596049D01*
X20634666Y36451341D01*
X20623625Y36442590D01*
X20429857Y36250170D01*
X20421029Y36239190D01*
X20274707Y36008625D01*
X20268531Y35995961D01*
X20176927Y35738707D01*
X20173709Y35724990D01*
X20159060Y35602142D01*
X20146265Y35716220D01*
X20143143Y35729959D01*
X20053337Y35987846D01*
X20047249Y36000552D01*
X19902541Y36232134D01*
X19893790Y36243175D01*
X19701370Y36436943D01*
X19690390Y36445771D01*
X19459823Y36592093D01*
X19447160Y36598269D01*
X19189906Y36689873D01*
X19176189Y36693091D01*
X18905033Y36725424D01*
X18890944Y36725522D01*
X18619364Y36696977D01*
X18605604Y36693952D01*
X18347096Y36605949D01*
X18334348Y36599950D01*
X18101762Y36456861D01*
X18090660Y36448187D01*
X17895553Y36257126D01*
X17886649Y36246207D01*
X17738720Y36016667D01*
X17732456Y36004047D01*
X17638983Y35747233D01*
X17635616Y35733098D01*
X17629400Y35680969D01*
X17629400Y36682295D01*
X17630823Y36818158D01*
X17629399Y36832174D01*
X17614255Y36902220D01*
X17606264Y36973455D01*
X17603143Y36987194D01*
X17583994Y37042181D01*
X17571691Y37099085D01*
X17567197Y37112438D01*
X17536907Y37177396D01*
X17513337Y37245081D01*
X17507249Y37257787D01*
X17476396Y37307161D01*
X17451698Y37360129D01*
X17444084Y37372505D01*
X17402719Y37425070D01*
X17362541Y37489368D01*
X17353790Y37500410D01*
X17302177Y37552385D01*
X17300330Y37554465D01*
X17269010Y37585784D01*
X17161371Y37694177D01*
X17157529Y37697266D01*
X16158510Y38696283D01*
X16063361Y38793447D01*
X16052442Y38802352D01*
X15992193Y38841180D01*
X15936183Y38885892D01*
X15924260Y38893400D01*
X15871842Y38918740D01*
X15822903Y38950279D01*
X15810283Y38956544D01*
X15742925Y38981060D01*
X15678405Y39012251D01*
X15665116Y39016931D01*
X15608397Y39030025D01*
X15553468Y39050017D01*
X15539334Y39053384D01*
X15472913Y39061305D01*
X15399037Y39078360D01*
X15385041Y39079980D01*
X15311805Y39080235D01*
X15309027Y39080400D01*
X15264548Y39080400D01*
X15111967Y39080933D01*
X15107062Y39080400D01*
X12245938Y39080400D01*
X12110075Y39081823D01*
X12096059Y39080399D01*
X12026021Y39065256D01*
X11954778Y39057264D01*
X11941039Y39054143D01*
X11886048Y39034993D01*
X11829148Y39022691D01*
X11815795Y39018197D01*
X11750846Y38987910D01*
X11683152Y38964337D01*
X11670446Y38958249D01*
X11621069Y38927394D01*
X11568105Y38902698D01*
X11555729Y38895084D01*
X11503169Y38853723D01*
X11438864Y38813541D01*
X11427822Y38804789D01*
X11375851Y38753179D01*
X11373781Y38751342D01*
X11342590Y38720150D01*
X11234057Y38612371D01*
X11230962Y38608522D01*
X10118767Y37496326D01*
X10021553Y37401128D01*
X10012648Y37390209D01*
X9973824Y37329965D01*
X9929108Y37273950D01*
X9921600Y37262028D01*
X9896261Y37209611D01*
X9864720Y37160668D01*
X9858456Y37148049D01*
X9833943Y37080698D01*
X9802749Y37016171D01*
X9798069Y37002882D01*
X9784972Y36946153D01*
X9764983Y36891235D01*
X9761616Y36877100D01*
X9753695Y36810681D01*
X9736640Y36736804D01*
X9735020Y36722808D01*
X9734765Y36649571D01*
X9734600Y36646793D01*
X9734600Y36602318D01*
X9734067Y36449734D01*
X9734600Y36444829D01*
X9734601Y34011400D01*
X7831741Y34011400D01*
X7815366Y34009244D01*
X7715166Y33982395D01*
X7686434Y33965807D01*
X7607193Y33886566D01*
X7590605Y33857834D01*
X7563756Y33757634D01*
X7561600Y33741259D01*
X7561600Y12534341D01*
X6896608Y12534341D01*
X5505137Y13925810D01*
X5539523Y13928396D01*
X5562012Y13934359D01*
X5735944Y14016948D01*
X5754779Y14030607D01*
X5887318Y14170274D01*
X5899973Y14189798D01*
X5973482Y14368147D01*
X5978275Y14391650D01*
X5980585Y14595202D01*
X5976327Y14618809D01*
X5906881Y14798780D01*
X5894673Y14818586D01*
X5765337Y14961224D01*
X5746817Y14975307D01*
X5574803Y15061820D01*
X5552455Y15068291D01*
X5379337Y15085266D01*
X5380585Y15195202D01*
X5376327Y15218809D01*
X5306881Y15398780D01*
X5294673Y15418586D01*
X5165337Y15561224D01*
X5146817Y15575307D01*
X4974803Y15661820D01*
X4952455Y15668291D01*
X4760830Y15687081D01*
X4737650Y15685073D01*
X4552109Y15633618D01*
X4531206Y15623400D01*
X4376628Y15508601D01*
X4360805Y15491544D01*
X4257919Y15328793D01*
X4249297Y15307183D01*
X4234382Y15231855D01*
X4174803Y15261820D01*
X4152455Y15268291D01*
X3960830Y15287081D01*
X3937650Y15285073D01*
X3752109Y15233618D01*
X3731206Y15223400D01*
X3576628Y15108601D01*
X3560805Y15091544D01*
X3457919Y14928793D01*
X3449297Y14907183D01*
X3411899Y14718306D01*
X3411635Y14695041D01*
X3444738Y14505364D01*
X3452867Y14483564D01*
X3552036Y14318521D01*
X3567467Y14301110D01*
X3656101Y14232110D01*
X3656101Y14025026D01*
X3664688Y13992980D01*
X3679538Y13967260D01*
X3687224Y13938574D01*
X3703813Y13909841D01*
X3729356Y13884298D01*
X3729361Y13884292D01*
X6155881Y11457771D01*
X6155887Y11457766D01*
X6181431Y11432222D01*
X6210162Y11415634D01*
X6238849Y11407947D01*
X6264571Y11393097D01*
X6296616Y11384511D01*
X6335172Y11384511D01*
X6335180Y11384510D01*
X7384173Y11384510D01*
X7406753Y11346931D01*
X7422184Y11329520D01*
X7561600Y11220987D01*
X7561600Y10613741D01*
X7563756Y10597366D01*
X7590605Y10497166D01*
X7607193Y10468434D01*
X7686434Y10389193D01*
X7715166Y10372605D01*
X7815366Y10345756D01*
X7831741Y10343600D01*
X7876880Y10343600D01*
X7952036Y10218521D01*
X7967467Y10201110D01*
X8119401Y10082832D01*
X8140067Y10072143D01*
X8324393Y10016492D01*
X8347521Y10013959D01*
X8489052Y10024601D01*
X8867701Y9645952D01*
X8867701Y9588415D01*
X8708453Y9668507D01*
X8686105Y9674978D01*
X8494480Y9693768D01*
X8471300Y9691760D01*
X8285759Y9640305D01*
X8264856Y9630087D01*
X8110278Y9515288D01*
X8094455Y9498231D01*
X7991569Y9335480D01*
X7982947Y9313870D01*
X7945549Y9124993D01*
X7945285Y9101728D01*
X7978388Y8912051D01*
X7986517Y8890251D01*
X8085686Y8725208D01*
X8101117Y8707797D01*
X8253051Y8589519D01*
X8273717Y8578830D01*
X8308901Y8568207D01*
X8308900Y5894895D01*
X8278400Y5888829D01*
X8278400Y6874174D01*
X8282680Y6897045D01*
X8283573Y6913538D01*
X8270534Y7082991D01*
X8267129Y7099151D01*
X8266959Y7099632D01*
X8266963Y7100138D01*
X8264922Y7116527D01*
X8209813Y7328094D01*
X8203600Y7343395D01*
X8201623Y7346876D01*
X8200844Y7350808D01*
X8195548Y7366452D01*
X8099022Y7562619D01*
X8089856Y7576362D01*
X8087222Y7579371D01*
X8085672Y7583058D01*
X8077338Y7597321D01*
X7943338Y7770073D01*
X7931599Y7781690D01*
X7928407Y7784113D01*
X7926145Y7787417D01*
X7915115Y7799709D01*
X7749117Y7941987D01*
X7735281Y7951006D01*
X7731672Y7952735D01*
X7728790Y7955518D01*
X7715514Y7965342D01*
X7524296Y8071335D01*
X7508927Y8077389D01*
X7505044Y8078357D01*
X7501666Y8080501D01*
X7486684Y8087456D01*
X7278058Y8152835D01*
X7261785Y8155675D01*
X7257788Y8155842D01*
X7254049Y8157263D01*
X7237973Y8161063D01*
X7020461Y8183158D01*
X7003952Y8182668D01*
X6977603Y8178400D01*
X6625826Y8178400D01*
X6602955Y8182680D01*
X6586462Y8183573D01*
X6417009Y8170534D01*
X6400849Y8167129D01*
X6400368Y8166959D01*
X6399862Y8166963D01*
X6383473Y8164922D01*
X6171906Y8109813D01*
X6156605Y8103600D01*
X6153124Y8101623D01*
X6149192Y8100844D01*
X6133548Y8095548D01*
X5937381Y7999022D01*
X5923638Y7989856D01*
X5920629Y7987222D01*
X5916942Y7985672D01*
X5902679Y7977338D01*
X5729927Y7843338D01*
X5718310Y7831599D01*
X5715887Y7828407D01*
X5712583Y7826145D01*
X5700291Y7815115D01*
X5558013Y7649117D01*
X5548994Y7635281D01*
X5547265Y7631672D01*
X5544482Y7628790D01*
X5534658Y7615514D01*
X5428665Y7424296D01*
X5422611Y7408927D01*
X5421643Y7405044D01*
X5419499Y7401666D01*
X5412544Y7386684D01*
X5347165Y7178058D01*
X5344325Y7161785D01*
X5344158Y7157788D01*
X5342737Y7154049D01*
X5338937Y7137973D01*
X5316842Y6920461D01*
X5317332Y6903952D01*
X5321600Y6877603D01*
X5321601Y1049964D01*
X5318512Y1036894D01*
X5300165Y856277D01*
X5256965Y718425D01*
X5186927Y592072D01*
X5092920Y482393D01*
X4978765Y393845D01*
X4849145Y330064D01*
X4705969Y292770D01*
X4569994Y282306D01*
X4553833Y278900D01*
X4552413Y278400D01*
X1049957Y278400D01*
X1036895Y281488D01*
X856277Y299835D01*
X718425Y343035D01*
X592072Y413073D01*
X482393Y507080D01*
X393845Y621235D01*
X330064Y750855D01*
X292770Y894031D01*
X282306Y1030006D01*
X278900Y1046167D01*
X278400Y1047587D01*
X278400Y3167128D01*
X1168862Y3167128D01*
X1169458Y3156804D01*
X1205280Y2901915D01*
X1207553Y2891826D01*
X1284525Y2646210D01*
X1288416Y2636628D01*
X1404469Y2406882D01*
X1409872Y2398064D01*
X1561891Y2190357D01*
X1568662Y2182540D01*
X1752563Y2002451D01*
X1760520Y1995845D01*
X1971365Y1848210D01*
X1980294Y1842992D01*
X2212420Y1731776D01*
X2222081Y1728087D01*
X2469255Y1656275D01*
X2479390Y1654214D01*
X2734974Y1623737D01*
X2745309Y1623358D01*
X3002438Y1635035D01*
X3012695Y1636349D01*
X3264465Y1689864D01*
X3274370Y1692836D01*
X3514019Y1786753D01*
X3523306Y1791302D01*
X3744397Y1923100D01*
X3752816Y1929105D01*
X3949413Y2095242D01*
X3956738Y2102542D01*
X4123561Y2298558D01*
X4129596Y2306956D01*
X4262163Y2527586D01*
X4266745Y2536857D01*
X4361498Y2776176D01*
X4364505Y2786071D01*
X4419062Y3038406D01*
X4420469Y3050206D01*
X4428588Y3382388D01*
X4427759Y3394243D01*
X4385594Y3648942D01*
X4383074Y3658973D01*
X4300124Y3902635D01*
X4296001Y3912118D01*
X4174369Y4138961D01*
X4168751Y4147644D01*
X4011704Y4351574D01*
X4004744Y4359223D01*
X3816497Y4534766D01*
X3808381Y4541175D01*
X3593992Y4683616D01*
X3584939Y4688614D01*
X3350164Y4794125D01*
X3340416Y4797577D01*
X3091561Y4863328D01*
X3081379Y4865141D01*
X2825128Y4889363D01*
X2814787Y4889490D01*
X2558020Y4871535D01*
X2547797Y4869971D01*
X2297410Y4810320D01*
X2287580Y4807108D01*
X2050297Y4707363D01*
X2041124Y4702588D01*
X1823319Y4565429D01*
X1815049Y4559219D01*
X1622570Y4388328D01*
X1615426Y4380852D01*
X1453442Y4180819D01*
X1447614Y4172276D01*
X1320476Y3948473D01*
X1316122Y3939092D01*
X1227244Y3697530D01*
X1224481Y3687564D01*
X1176250Y3434729D01*
X1175151Y3424446D01*
X1168862Y3167128D01*
X278400Y3167128D01*
X278400Y33975530D01*
X4583683Y33975530D01*
X4616786Y33785853D01*
X4624915Y33764053D01*
X4724084Y33599010D01*
X4739515Y33581599D01*
X4891449Y33463321D01*
X4912115Y33452632D01*
X5096441Y33396981D01*
X5119569Y33394448D01*
X5311571Y33408885D01*
X5334060Y33414848D01*
X5507992Y33497437D01*
X5526827Y33511096D01*
X5659366Y33650763D01*
X5672021Y33670287D01*
X5695415Y33727046D01*
X5695690Y33726832D01*
X5716356Y33716143D01*
X5900682Y33660492D01*
X5923810Y33657959D01*
X6115812Y33672396D01*
X6138301Y33678359D01*
X6312233Y33760948D01*
X6331068Y33774607D01*
X6463607Y33914274D01*
X6476262Y33933798D01*
X6549771Y34112147D01*
X6554564Y34135650D01*
X6556521Y34308105D01*
X6655345Y34143636D01*
X6670776Y34126225D01*
X6822710Y34007947D01*
X6843376Y33997258D01*
X7027702Y33941607D01*
X7050830Y33939074D01*
X7242832Y33953511D01*
X7265321Y33959474D01*
X7439253Y34042063D01*
X7458088Y34055722D01*
X7590627Y34195389D01*
X7603282Y34214913D01*
X7625610Y34269086D01*
X7789793Y34219516D01*
X7812921Y34216983D01*
X8004923Y34231420D01*
X8027412Y34237383D01*
X8201344Y34319972D01*
X8220179Y34333631D01*
X8352718Y34473298D01*
X8365373Y34492822D01*
X8438882Y34671171D01*
X8443675Y34694674D01*
X8445985Y34898226D01*
X8441727Y34921833D01*
X8372281Y35101804D01*
X8360073Y35121610D01*
X8230737Y35264248D01*
X8212217Y35278331D01*
X8040203Y35364844D01*
X8017855Y35371315D01*
X7826230Y35390105D01*
X7803050Y35388097D01*
X7617509Y35336642D01*
X7596606Y35326424D01*
X7442028Y35211625D01*
X7426205Y35194568D01*
X7338851Y35056387D01*
X7278112Y35086935D01*
X7255764Y35093406D01*
X7064139Y35112196D01*
X7040959Y35110188D01*
X6855418Y35058733D01*
X6834515Y35048515D01*
X6741529Y34979458D01*
X6813282Y35153547D01*
X6818075Y35177050D01*
X6820385Y35380602D01*
X6816127Y35404209D01*
X6746681Y35584180D01*
X6734473Y35603986D01*
X6605137Y35746624D01*
X6586617Y35760707D01*
X6414603Y35847220D01*
X6392255Y35853691D01*
X6200630Y35872481D01*
X6177450Y35870473D01*
X5991909Y35819018D01*
X5971006Y35808800D01*
X5816428Y35694001D01*
X5800605Y35676944D01*
X5697719Y35514193D01*
X5689097Y35492583D01*
X5651699Y35303706D01*
X5651435Y35280441D01*
X5684538Y35090764D01*
X5692667Y35068964D01*
X5791836Y34903921D01*
X5807267Y34886510D01*
X5889687Y34822347D01*
X5728398Y34777618D01*
X5707495Y34767400D01*
X5552917Y34652601D01*
X5537094Y34635544D01*
X5446478Y34492202D01*
X5346851Y34542309D01*
X5324503Y34548780D01*
X5132878Y34567570D01*
X5109698Y34565562D01*
X4924157Y34514107D01*
X4903254Y34503889D01*
X4748676Y34389090D01*
X4732853Y34372033D01*
X4629967Y34209282D01*
X4621345Y34187672D01*
X4583947Y33998795D01*
X4583683Y33975530D01*
X278400Y33975530D01*
X278400Y38350044D01*
X281488Y38363106D01*
X299835Y38543723D01*
X343034Y38681574D01*
X413073Y38807928D01*
X507079Y38917607D01*
X621233Y39006153D01*
X750860Y39069937D01*
X894031Y39107231D01*
X1030006Y39117694D01*
X1046169Y39121100D01*
X1047589Y39121600D01*
X35650044Y39121600D01*
X35663106Y39118512D01*
G37*
D19*
X35663106Y39118512D02*
X35843723Y39100165D01*
X35981574Y39056966D01*
X36107928Y38986927D01*
X36217607Y38892921D01*
X36306153Y38778767D01*
X36369937Y38649140D01*
X36407231Y38505969D01*
X36417694Y38369994D01*
X36421100Y38353831D01*
X36421601Y38352408D01*
X36421600Y1049957D01*
X36418512Y1036895D01*
X36400165Y856277D01*
X36356965Y718425D01*
X36286927Y592072D01*
X36192920Y482393D01*
X36078765Y393845D01*
X35949145Y330064D01*
X35805969Y292770D01*
X35669994Y282306D01*
X35653833Y278900D01*
X35652413Y278400D01*
X31849957Y278400D01*
X31836895Y281488D01*
X31656277Y299835D01*
X31518425Y343035D01*
X31392072Y413073D01*
X31282393Y507080D01*
X31193845Y621235D01*
X31130064Y750855D01*
X31092770Y894031D01*
X31082306Y1030006D01*
X31078900Y1046167D01*
X31078400Y1047587D01*
X31078400Y3167128D01*
X32118862Y3167128D01*
X32119458Y3156804D01*
X32155280Y2901915D01*
X32157553Y2891826D01*
X32234525Y2646210D01*
X32238416Y2636628D01*
X32354469Y2406882D01*
X32359872Y2398064D01*
X32511891Y2190357D01*
X32518662Y2182540D01*
X32702563Y2002451D01*
X32710520Y1995845D01*
X32921365Y1848210D01*
X32930294Y1842992D01*
X33162420Y1731776D01*
X33172081Y1728087D01*
X33419255Y1656275D01*
X33429390Y1654214D01*
X33684974Y1623737D01*
X33695309Y1623358D01*
X33952438Y1635035D01*
X33962695Y1636349D01*
X34214465Y1689864D01*
X34224370Y1692836D01*
X34464019Y1786753D01*
X34473306Y1791302D01*
X34694397Y1923100D01*
X34702816Y1929105D01*
X34899413Y2095242D01*
X34906738Y2102542D01*
X35073561Y2298558D01*
X35079596Y2306956D01*
X35212163Y2527586D01*
X35216745Y2536857D01*
X35311498Y2776176D01*
X35314505Y2786071D01*
X35369062Y3038406D01*
X35370469Y3050206D01*
X35378588Y3382388D01*
X35377759Y3394243D01*
X35335594Y3648942D01*
X35333074Y3658973D01*
X35250124Y3902635D01*
X35246001Y3912118D01*
X35124369Y4138961D01*
X35118751Y4147644D01*
X34961704Y4351574D01*
X34954744Y4359223D01*
X34766497Y4534766D01*
X34758381Y4541175D01*
X34543992Y4683616D01*
X34534939Y4688614D01*
X34300164Y4794125D01*
X34290416Y4797577D01*
X34041561Y4863328D01*
X34031379Y4865141D01*
X33775128Y4889363D01*
X33764787Y4889490D01*
X33508020Y4871535D01*
X33497797Y4869971D01*
X33247410Y4810320D01*
X33237580Y4807108D01*
X33000297Y4707363D01*
X32991124Y4702588D01*
X32773319Y4565429D01*
X32765049Y4559219D01*
X32572570Y4388328D01*
X32565426Y4380852D01*
X32403442Y4180819D01*
X32397614Y4172276D01*
X32270476Y3948473D01*
X32266122Y3939092D01*
X32177244Y3697530D01*
X32174481Y3687564D01*
X32126250Y3434729D01*
X32125151Y3424446D01*
X32118862Y3167128D01*
X31078400Y3167128D01*
X31078400Y6874174D01*
X31082680Y6897045D01*
X31083573Y6913538D01*
X31070534Y7082991D01*
X31067129Y7099151D01*
X31066959Y7099632D01*
X31066963Y7100138D01*
X31064922Y7116527D01*
X31009813Y7328094D01*
X31003600Y7343395D01*
X31001623Y7346876D01*
X31000844Y7350808D01*
X30995548Y7366452D01*
X30899022Y7562619D01*
X30889856Y7576362D01*
X30887222Y7579371D01*
X30885672Y7583058D01*
X30877338Y7597321D01*
X30743338Y7770073D01*
X30731599Y7781690D01*
X30728407Y7784113D01*
X30726145Y7787417D01*
X30715115Y7799709D01*
X30549117Y7941987D01*
X30535281Y7951006D01*
X30531672Y7952735D01*
X30528790Y7955518D01*
X30515514Y7965342D01*
X30324296Y8071335D01*
X30308927Y8077389D01*
X30305044Y8078357D01*
X30301666Y8080501D01*
X30286684Y8087456D01*
X30078058Y8152835D01*
X30061785Y8155675D01*
X30057788Y8155842D01*
X30054049Y8157263D01*
X30037973Y8161063D01*
X29820461Y8183158D01*
X29803952Y8182668D01*
X29777603Y8178400D01*
X29325826Y8178400D01*
X29302955Y8182680D01*
X29286462Y8183573D01*
X29117009Y8170534D01*
X29100849Y8167129D01*
X29100368Y8166959D01*
X29099862Y8166963D01*
X29083473Y8164922D01*
X28871906Y8109813D01*
X28856605Y8103600D01*
X28853124Y8101623D01*
X28849192Y8100844D01*
X28833548Y8095548D01*
X28637381Y7999022D01*
X28623638Y7989856D01*
X28620629Y7987222D01*
X28616942Y7985672D01*
X28602679Y7977338D01*
X28429927Y7843338D01*
X28418310Y7831599D01*
X28415887Y7828407D01*
X28412583Y7826145D01*
X28400291Y7815115D01*
X28258013Y7649117D01*
X28248994Y7635281D01*
X28247265Y7631672D01*
X28244482Y7628790D01*
X28234658Y7615514D01*
X28128665Y7424296D01*
X28122611Y7408927D01*
X28121643Y7405044D01*
X28119499Y7401666D01*
X28112544Y7386684D01*
X28047165Y7178058D01*
X28044325Y7161785D01*
X28044158Y7157788D01*
X28042737Y7154049D01*
X28038937Y7137973D01*
X28016842Y6920461D01*
X28017332Y6903952D01*
X28021601Y6877597D01*
X28021601Y6250857D01*
X27994262Y6255678D01*
X27983301Y6256637D01*
X27854609Y6256637D01*
X27780800Y6182828D01*
X27780800Y5626000D01*
X27524800Y5626000D01*
X27524800Y6182828D01*
X27450991Y6256637D01*
X27319542Y6256637D01*
X27303166Y6254481D01*
X27183260Y6222353D01*
X26994262Y6255678D01*
X26983301Y6256637D01*
X26854609Y6256637D01*
X26780800Y6182828D01*
X26780800Y5626000D01*
X26524800Y5626000D01*
X26524800Y6182828D01*
X26450991Y6256637D01*
X26319542Y6256637D01*
X26303166Y6254481D01*
X26183260Y6222353D01*
X25994262Y6255678D01*
X25983301Y6256637D01*
X25854609Y6256637D01*
X25780800Y6182828D01*
X25780800Y5626000D01*
X25524800Y5626000D01*
X25524800Y6182828D01*
X25450991Y6256637D01*
X25319542Y6256637D01*
X25303166Y6254481D01*
X25183260Y6222353D01*
X24994262Y6255678D01*
X24983301Y6256637D01*
X24854609Y6256637D01*
X24780800Y6182828D01*
X24780800Y5626000D01*
X24524800Y5626000D01*
X24524800Y6182828D01*
X24450991Y6256637D01*
X24319542Y6256637D01*
X24303166Y6254481D01*
X24183260Y6222353D01*
X23994262Y6255678D01*
X23983301Y6256637D01*
X23854609Y6256637D01*
X23780800Y6182828D01*
X23780800Y5626000D01*
X23524800Y5626000D01*
X23524800Y6182828D01*
X23450991Y6256637D01*
X23319542Y6256637D01*
X23303166Y6254481D01*
X23179748Y6221411D01*
X23180585Y6295202D01*
X23176327Y6318809D01*
X23106881Y6498780D01*
X23094673Y6518586D01*
X22965337Y6661224D01*
X22946817Y6675307D01*
X22774803Y6761820D01*
X22752455Y6768291D01*
X22560830Y6787081D01*
X22537650Y6785073D01*
X22498239Y6774143D01*
X22539728Y6817864D01*
X22552383Y6837388D01*
X22625892Y7015737D01*
X22630685Y7039240D01*
X22632995Y7242792D01*
X22628737Y7266399D01*
X22559291Y7446370D01*
X22547083Y7466176D01*
X22417747Y7608814D01*
X22399227Y7622897D01*
X22227213Y7709410D01*
X22204865Y7715881D01*
X22013240Y7734671D01*
X21990060Y7732663D01*
X21804519Y7681208D01*
X21783616Y7670990D01*
X21629038Y7556191D01*
X21613215Y7539134D01*
X21510329Y7376383D01*
X21501707Y7354773D01*
X21464309Y7165896D01*
X21464045Y7142631D01*
X21497148Y6952954D01*
X21505277Y6931154D01*
X21593788Y6783849D01*
X21560830Y6787081D01*
X21537650Y6785073D01*
X21378400Y6740909D01*
X21378400Y6870743D01*
X21382523Y6890137D01*
X21383819Y6906604D01*
X21377750Y7022399D01*
X21375279Y7035733D01*
X21374263Y7049251D01*
X21331620Y7253367D01*
X21326160Y7268957D01*
X21324356Y7272527D01*
X21323772Y7276485D01*
X21319247Y7292372D01*
X21236432Y7483746D01*
X21227949Y7497920D01*
X21225464Y7501055D01*
X21224096Y7504815D01*
X21216469Y7519467D01*
X21096864Y7690280D01*
X21085706Y7702458D01*
X21082637Y7705033D01*
X21080540Y7708442D01*
X21070123Y7721260D01*
X20918615Y7864534D01*
X20905236Y7874218D01*
X20901714Y7876123D01*
X20898974Y7879040D01*
X20886193Y7889501D01*
X20708971Y7999384D01*
X20693916Y8006182D01*
X20690084Y8007339D01*
X20686815Y8009645D01*
X20672190Y8017323D01*
X20476492Y8089327D01*
X20460379Y8092958D01*
X20456391Y8093321D01*
X20452724Y8094923D01*
X20436855Y8099503D01*
X20230677Y8130685D01*
X20214164Y8131002D01*
X20210186Y8130556D01*
X20206266Y8131389D01*
X20189801Y8132685D01*
X19981564Y8121771D01*
X19965323Y8118761D01*
X19961516Y8117524D01*
X19957517Y8117552D01*
X19941126Y8115510D01*
X19739334Y8062947D01*
X19724029Y8056733D01*
X19720550Y8054757D01*
X19716627Y8053980D01*
X19700979Y8048684D01*
X19513878Y7956619D01*
X19500137Y7947455D01*
X19497124Y7944817D01*
X19493434Y7943266D01*
X19479174Y7934933D01*
X19314409Y7807130D01*
X19302792Y7795390D01*
X19300369Y7792198D01*
X19297065Y7789936D01*
X19284773Y7778906D01*
X19149071Y7620580D01*
X19140052Y7606744D01*
X19138323Y7603135D01*
X19135540Y7600253D01*
X19125717Y7586977D01*
X19024622Y7404599D01*
X19018569Y7389232D01*
X19017600Y7385344D01*
X19015455Y7381965D01*
X19008501Y7366985D01*
X18946144Y7168004D01*
X18943304Y7151731D01*
X18943136Y7147733D01*
X18941715Y7143991D01*
X18937916Y7127917D01*
X18916843Y6920461D01*
X18917333Y6903951D01*
X18921601Y6877602D01*
X18921601Y5896186D01*
X18321610Y5896186D01*
X18309290Y5894973D01*
X18231583Y5879516D01*
X18208651Y5870017D01*
X18152800Y5832697D01*
X18096949Y5870017D01*
X18074017Y5879516D01*
X17996310Y5894973D01*
X17983990Y5896186D01*
X17321610Y5896186D01*
X17309290Y5894973D01*
X17231583Y5879516D01*
X17208651Y5870017D01*
X17152800Y5832697D01*
X17096949Y5870017D01*
X17074017Y5879516D01*
X16996310Y5894973D01*
X16983990Y5896186D01*
X16321610Y5896186D01*
X16309290Y5894973D01*
X16231583Y5879516D01*
X16208651Y5870017D01*
X16152800Y5832697D01*
X16096949Y5870017D01*
X16074017Y5879516D01*
X15996310Y5894973D01*
X15983990Y5896186D01*
X15321610Y5896186D01*
X15309290Y5894973D01*
X15231583Y5879516D01*
X15208651Y5870017D01*
X15152800Y5832697D01*
X15096949Y5870017D01*
X15074017Y5879516D01*
X14996310Y5894973D01*
X14983990Y5896186D01*
X14321610Y5896186D01*
X14309290Y5894973D01*
X14231583Y5879516D01*
X14208651Y5870017D01*
X14152800Y5832697D01*
X14096949Y5870017D01*
X14074017Y5879516D01*
X13996310Y5894973D01*
X13983990Y5896186D01*
X13321610Y5896186D01*
X13309290Y5894973D01*
X13231583Y5879516D01*
X13208651Y5870017D01*
X13152800Y5832697D01*
X13096949Y5870017D01*
X13074017Y5879516D01*
X12996310Y5894973D01*
X12983990Y5896186D01*
X12321610Y5896186D01*
X12309290Y5894973D01*
X12231583Y5879516D01*
X12208651Y5870017D01*
X12152800Y5832697D01*
X12096949Y5870017D01*
X12074017Y5879516D01*
X11996700Y5894895D01*
X11996700Y6363010D01*
X11996699Y6363018D01*
X11996699Y6401574D01*
X11988113Y6433619D01*
X11973263Y6459341D01*
X11965576Y6488028D01*
X11948988Y6516759D01*
X11920665Y6545081D01*
X11920657Y6545091D01*
X11809522Y6656225D01*
X11809522Y7265897D01*
X11953525Y7222420D01*
X11976653Y7219887D01*
X12168655Y7234324D01*
X12191144Y7240287D01*
X12365076Y7322876D01*
X12383911Y7336535D01*
X12516450Y7476202D01*
X12529105Y7495726D01*
X12602614Y7674075D01*
X12607407Y7697578D01*
X12609717Y7901130D01*
X12605459Y7924737D01*
X12536013Y8104708D01*
X12523805Y8124514D01*
X12394469Y8267152D01*
X12375949Y8281235D01*
X12203935Y8367748D01*
X12181587Y8374219D01*
X11989962Y8393009D01*
X11966782Y8391001D01*
X11808015Y8346971D01*
X11800935Y8373397D01*
X11786085Y8399119D01*
X11778398Y8427806D01*
X11761810Y8456537D01*
X11745859Y8472487D01*
X11747985Y8659802D01*
X11743727Y8683409D01*
X11674281Y8863380D01*
X11662073Y8883186D01*
X11532737Y9025824D01*
X11514217Y9039907D01*
X11342203Y9126420D01*
X11319855Y9132891D01*
X11128230Y9151681D01*
X11105050Y9149673D01*
X10919509Y9098218D01*
X10898606Y9088000D01*
X10744028Y8973201D01*
X10728205Y8956144D01*
X10682511Y8883863D01*
X10682511Y9235221D01*
X12811635Y9235221D01*
X12844738Y9045544D01*
X12852867Y9023744D01*
X12952036Y8858701D01*
X12967467Y8841290D01*
X13119401Y8723012D01*
X13140067Y8712323D01*
X13324393Y8656672D01*
X13347521Y8654139D01*
X13539523Y8668576D01*
X13562012Y8674539D01*
X13717635Y8748434D01*
X13744738Y8593134D01*
X13752867Y8571334D01*
X13852036Y8406291D01*
X13867467Y8388880D01*
X14019401Y8270602D01*
X14040067Y8259913D01*
X14224393Y8204262D01*
X14247521Y8201729D01*
X14439523Y8216166D01*
X14462012Y8222129D01*
X14482022Y8231631D01*
X15025691Y7687961D01*
X15011899Y7618306D01*
X15011635Y7595041D01*
X15044738Y7405364D01*
X15052867Y7383564D01*
X15152036Y7218521D01*
X15167467Y7201110D01*
X15319401Y7082832D01*
X15340067Y7072143D01*
X15524393Y7016492D01*
X15547521Y7013959D01*
X15739523Y7028396D01*
X15762012Y7034359D01*
X15935944Y7116948D01*
X15954779Y7130607D01*
X16087318Y7270274D01*
X16099973Y7289798D01*
X16121069Y7340983D01*
X16144738Y7205364D01*
X16152867Y7183564D01*
X16252036Y7018521D01*
X16267467Y7001110D01*
X16419401Y6882832D01*
X16440067Y6872143D01*
X16624393Y6816492D01*
X16647521Y6813959D01*
X16839523Y6828396D01*
X16862012Y6834359D01*
X17035944Y6916948D01*
X17054779Y6930607D01*
X17187318Y7070274D01*
X17199973Y7089798D01*
X17273482Y7268147D01*
X17278275Y7291650D01*
X17280585Y7495202D01*
X17276327Y7518809D01*
X17206881Y7698780D01*
X17194673Y7718586D01*
X17065337Y7861224D01*
X17046817Y7875307D01*
X17008508Y7894574D01*
X17019012Y7897359D01*
X17192944Y7979948D01*
X17211779Y7993607D01*
X17344318Y8133274D01*
X17356973Y8152798D01*
X17409844Y8281075D01*
X17466743Y8160159D01*
X17477208Y8144496D01*
X17622321Y7985018D01*
X17636930Y7973125D01*
X17822521Y7863367D01*
X17839980Y7856295D01*
X18049640Y7805960D01*
X18068407Y7804334D01*
X18283600Y7817873D01*
X18302015Y7821838D01*
X18503714Y7898053D01*
X18520149Y7907258D01*
X18690520Y8039411D01*
X18703523Y8053041D01*
X18827505Y8229449D01*
X18835925Y8246300D01*
X18902631Y8451601D01*
X18905730Y8470686D01*
X18907508Y8697068D01*
X18904709Y8716199D01*
X18841235Y8922522D01*
X18833081Y8939504D01*
X18711886Y9117836D01*
X18699099Y9131669D01*
X18530825Y9266483D01*
X18514536Y9275945D01*
X18314059Y9355318D01*
X18295708Y9359572D01*
X18080756Y9376489D01*
X18061966Y9375158D01*
X17851541Y9328123D01*
X17833973Y9321326D01*
X17646680Y9214497D01*
X17631886Y9202835D01*
X17484286Y9045656D01*
X17473576Y9030159D01*
X17378718Y8836529D01*
X17373038Y8818569D01*
X17363996Y8761482D01*
X17363881Y8761780D01*
X17351673Y8781586D01*
X17222337Y8924224D01*
X17203817Y8938307D01*
X17031803Y9024820D01*
X17009455Y9031291D01*
X16817830Y9050081D01*
X16794650Y9048073D01*
X16772047Y9041805D01*
X16830939Y9184690D01*
X16835732Y9208193D01*
X16838042Y9411745D01*
X16833784Y9435352D01*
X16764338Y9615323D01*
X16752130Y9635129D01*
X16622794Y9777767D01*
X16604274Y9791850D01*
X16432260Y9878363D01*
X16409912Y9884834D01*
X16218287Y9903624D01*
X16195107Y9901616D01*
X16009566Y9850161D01*
X15988663Y9839943D01*
X15834085Y9725144D01*
X15818262Y9708087D01*
X15715376Y9545336D01*
X15706754Y9523726D01*
X15669356Y9334849D01*
X15669092Y9311584D01*
X15702195Y9121907D01*
X15710324Y9100107D01*
X15809493Y8935064D01*
X15824924Y8917653D01*
X15976858Y8799375D01*
X15997524Y8788686D01*
X16181850Y8733035D01*
X16204978Y8730502D01*
X16346098Y8741113D01*
X16314919Y8691793D01*
X16306297Y8670183D01*
X16268899Y8481306D01*
X16268635Y8458041D01*
X16298304Y8288043D01*
X15082710Y9503636D01*
X15049979Y9536368D01*
X15021247Y9552957D01*
X14992557Y9560644D01*
X14966840Y9575492D01*
X14934793Y9584079D01*
X14896238Y9584079D01*
X14896230Y9584080D01*
X13871719Y9584080D01*
X13765337Y9701404D01*
X13746817Y9715487D01*
X13574803Y9802000D01*
X13552455Y9808471D01*
X13360830Y9827261D01*
X13337650Y9825253D01*
X13152109Y9773798D01*
X13131206Y9763580D01*
X12976628Y9648781D01*
X12960805Y9631724D01*
X12857919Y9468973D01*
X12849297Y9447363D01*
X12811899Y9258486D01*
X12811635Y9235221D01*
X10682511Y9235221D01*
X10682511Y9287122D01*
X10948559Y9553169D01*
X10965114Y9548171D01*
X10988242Y9545638D01*
X11180244Y9560075D01*
X11202733Y9566038D01*
X11376665Y9648627D01*
X11395500Y9662286D01*
X11528039Y9801953D01*
X11540694Y9821477D01*
X11614203Y9999826D01*
X11618996Y10023329D01*
X11621306Y10226881D01*
X11617048Y10250488D01*
X11581119Y10343600D01*
X12848259Y10343600D01*
X12864634Y10345756D01*
X12943500Y10366888D01*
X13022366Y10345756D01*
X13038741Y10343600D01*
X18055259Y10343600D01*
X18071634Y10345756D01*
X18170500Y10372248D01*
X18269366Y10345756D01*
X18285741Y10343600D01*
X23302286Y10343600D01*
X23318715Y10345770D01*
X23377412Y10361553D01*
X23436366Y10345756D01*
X23452741Y10343600D01*
X28469259Y10343600D01*
X28485634Y10345756D01*
X28585834Y10372605D01*
X28614566Y10389193D01*
X28693807Y10468434D01*
X28710395Y10497166D01*
X28737244Y10597366D01*
X28739400Y10613741D01*
X28739400Y33741259D01*
X28737244Y33757634D01*
X28710395Y33857834D01*
X28693807Y33886566D01*
X28614566Y33965807D01*
X28585834Y33982395D01*
X28485634Y34009244D01*
X28469259Y34011400D01*
X26265400Y34011400D01*
X26265400Y34358260D01*
X26266823Y34494123D01*
X26265399Y34508139D01*
X26250256Y34578177D01*
X26242264Y34649420D01*
X26239143Y34663159D01*
X26219993Y34718150D01*
X26207691Y34775050D01*
X26203197Y34788403D01*
X26172910Y34853352D01*
X26149337Y34921046D01*
X26143249Y34933752D01*
X26112394Y34983129D01*
X26087698Y35036093D01*
X26080084Y35048469D01*
X26038723Y35101029D01*
X25998541Y35165334D01*
X25989789Y35176376D01*
X25938179Y35228347D01*
X25936342Y35230417D01*
X25905149Y35261609D01*
X25797371Y35370141D01*
X25793522Y35373236D01*
X24756524Y36410233D01*
X24661326Y36507447D01*
X24650407Y36516352D01*
X24590158Y36555180D01*
X24534148Y36599892D01*
X24522225Y36607400D01*
X24469807Y36632740D01*
X24420868Y36664279D01*
X24408248Y36670544D01*
X24340890Y36695060D01*
X24276370Y36726251D01*
X24263081Y36730931D01*
X24206362Y36744025D01*
X24151433Y36764017D01*
X24137299Y36767384D01*
X24070878Y36775305D01*
X23997002Y36792360D01*
X23983006Y36793980D01*
X23909770Y36794235D01*
X23906992Y36794400D01*
X23862513Y36794400D01*
X23709932Y36794933D01*
X23705027Y36794400D01*
X22775175Y36794400D01*
X22639314Y36795823D01*
X22625297Y36794399D01*
X22555250Y36779255D01*
X22484015Y36771264D01*
X22470276Y36768143D01*
X22415292Y36748995D01*
X22358387Y36736692D01*
X22345033Y36732198D01*
X22315015Y36718200D01*
X21360364Y36718200D01*
X21353336Y36717807D01*
X21150580Y36695065D01*
X21136841Y36691943D01*
X20878954Y36602137D01*
X20866248Y36596049D01*
X20634666Y36451341D01*
X20623625Y36442590D01*
X20429857Y36250170D01*
X20421029Y36239190D01*
X20274707Y36008625D01*
X20268531Y35995961D01*
X20176927Y35738707D01*
X20173709Y35724990D01*
X20159060Y35602142D01*
X20146265Y35716220D01*
X20143143Y35729959D01*
X20053337Y35987846D01*
X20047249Y36000552D01*
X19902541Y36232134D01*
X19893790Y36243175D01*
X19701370Y36436943D01*
X19690390Y36445771D01*
X19459823Y36592093D01*
X19447160Y36598269D01*
X19189906Y36689873D01*
X19176189Y36693091D01*
X18905033Y36725424D01*
X18890944Y36725522D01*
X18619364Y36696977D01*
X18605604Y36693952D01*
X18347096Y36605949D01*
X18334348Y36599950D01*
X18101762Y36456861D01*
X18090660Y36448187D01*
X17895553Y36257126D01*
X17886649Y36246207D01*
X17738720Y36016667D01*
X17732456Y36004047D01*
X17638983Y35747233D01*
X17635616Y35733098D01*
X17629400Y35680969D01*
X17629400Y36682295D01*
X17630823Y36818158D01*
X17629399Y36832174D01*
X17614255Y36902220D01*
X17606264Y36973455D01*
X17603143Y36987194D01*
X17583994Y37042181D01*
X17571691Y37099085D01*
X17567197Y37112438D01*
X17536907Y37177396D01*
X17513337Y37245081D01*
X17507249Y37257787D01*
X17476396Y37307161D01*
X17451698Y37360129D01*
X17444084Y37372505D01*
X17402719Y37425070D01*
X17362541Y37489368D01*
X17353790Y37500410D01*
X17302177Y37552385D01*
X17300330Y37554465D01*
X17269010Y37585784D01*
X17161371Y37694177D01*
X17157529Y37697266D01*
X16158510Y38696283D01*
X16063361Y38793447D01*
X16052442Y38802352D01*
X15992193Y38841180D01*
X15936183Y38885892D01*
X15924260Y38893400D01*
X15871842Y38918740D01*
X15822903Y38950279D01*
X15810283Y38956544D01*
X15742925Y38981060D01*
X15678405Y39012251D01*
X15665116Y39016931D01*
X15608397Y39030025D01*
X15553468Y39050017D01*
X15539334Y39053384D01*
X15472913Y39061305D01*
X15399037Y39078360D01*
X15385041Y39079980D01*
X15311805Y39080235D01*
X15309027Y39080400D01*
X15264548Y39080400D01*
X15111967Y39080933D01*
X15107062Y39080400D01*
X12245938Y39080400D01*
X12110075Y39081823D01*
X12096059Y39080399D01*
X12026021Y39065256D01*
X11954778Y39057264D01*
X11941039Y39054143D01*
X11886048Y39034993D01*
X11829148Y39022691D01*
X11815795Y39018197D01*
X11750846Y38987910D01*
X11683152Y38964337D01*
X11670446Y38958249D01*
X11621069Y38927394D01*
X11568105Y38902698D01*
X11555729Y38895084D01*
X11503169Y38853723D01*
X11438864Y38813541D01*
X11427822Y38804789D01*
X11375851Y38753179D01*
X11373781Y38751342D01*
X11342590Y38720150D01*
X11234057Y38612371D01*
X11230962Y38608522D01*
X10118767Y37496326D01*
X10021553Y37401128D01*
X10012648Y37390209D01*
X9973824Y37329965D01*
X9929108Y37273950D01*
X9921600Y37262028D01*
X9896261Y37209611D01*
X9864720Y37160668D01*
X9858456Y37148049D01*
X9833943Y37080698D01*
X9802749Y37016171D01*
X9798069Y37002882D01*
X9784972Y36946153D01*
X9764983Y36891235D01*
X9761616Y36877100D01*
X9753695Y36810681D01*
X9736640Y36736804D01*
X9735020Y36722808D01*
X9734765Y36649571D01*
X9734600Y36646793D01*
X9734600Y36602318D01*
X9734067Y36449734D01*
X9734600Y36444829D01*
X9734601Y34011400D01*
X7831741Y34011400D01*
X7815366Y34009244D01*
X7715166Y33982395D01*
X7686434Y33965807D01*
X7607193Y33886566D01*
X7590605Y33857834D01*
X7563756Y33757634D01*
X7561600Y33741259D01*
X7561600Y12534341D01*
X6896608Y12534341D01*
X5505137Y13925810D01*
X5539523Y13928396D01*
X5562012Y13934359D01*
X5735944Y14016948D01*
X5754779Y14030607D01*
X5887318Y14170274D01*
X5899973Y14189798D01*
X5973482Y14368147D01*
X5978275Y14391650D01*
X5980585Y14595202D01*
X5976327Y14618809D01*
X5906881Y14798780D01*
X5894673Y14818586D01*
X5765337Y14961224D01*
X5746817Y14975307D01*
X5574803Y15061820D01*
X5552455Y15068291D01*
X5379337Y15085266D01*
X5380585Y15195202D01*
X5376327Y15218809D01*
X5306881Y15398780D01*
X5294673Y15418586D01*
X5165337Y15561224D01*
X5146817Y15575307D01*
X4974803Y15661820D01*
X4952455Y15668291D01*
X4760830Y15687081D01*
X4737650Y15685073D01*
X4552109Y15633618D01*
X4531206Y15623400D01*
X4376628Y15508601D01*
X4360805Y15491544D01*
X4257919Y15328793D01*
X4249297Y15307183D01*
X4234382Y15231855D01*
X4174803Y15261820D01*
X4152455Y15268291D01*
X3960830Y15287081D01*
X3937650Y15285073D01*
X3752109Y15233618D01*
X3731206Y15223400D01*
X3576628Y15108601D01*
X3560805Y15091544D01*
X3457919Y14928793D01*
X3449297Y14907183D01*
X3411899Y14718306D01*
X3411635Y14695041D01*
X3444738Y14505364D01*
X3452867Y14483564D01*
X3552036Y14318521D01*
X3567467Y14301110D01*
X3656101Y14232110D01*
X3656101Y14025026D01*
X3664688Y13992980D01*
X3679538Y13967260D01*
X3687224Y13938574D01*
X3703813Y13909841D01*
X3729356Y13884298D01*
X3729361Y13884292D01*
X6155881Y11457771D01*
X6155887Y11457766D01*
X6181431Y11432222D01*
X6210162Y11415634D01*
X6238849Y11407947D01*
X6264571Y11393097D01*
X6296616Y11384511D01*
X6335172Y11384511D01*
X6335180Y11384510D01*
X7384173Y11384510D01*
X7406753Y11346931D01*
X7422184Y11329520D01*
X7561600Y11220987D01*
X7561600Y10613741D01*
X7563756Y10597366D01*
X7590605Y10497166D01*
X7607193Y10468434D01*
X7686434Y10389193D01*
X7715166Y10372605D01*
X7815366Y10345756D01*
X7831741Y10343600D01*
X7876880Y10343600D01*
X7952036Y10218521D01*
X7967467Y10201110D01*
X8119401Y10082832D01*
X8140067Y10072143D01*
X8324393Y10016492D01*
X8347521Y10013959D01*
X8489052Y10024601D01*
X8867701Y9645952D01*
X8867701Y9588415D01*
X8708453Y9668507D01*
X8686105Y9674978D01*
X8494480Y9693768D01*
X8471300Y9691760D01*
X8285759Y9640305D01*
X8264856Y9630087D01*
X8110278Y9515288D01*
X8094455Y9498231D01*
X7991569Y9335480D01*
X7982947Y9313870D01*
X7945549Y9124993D01*
X7945285Y9101728D01*
X7978388Y8912051D01*
X7986517Y8890251D01*
X8085686Y8725208D01*
X8101117Y8707797D01*
X8253051Y8589519D01*
X8273717Y8578830D01*
X8308901Y8568207D01*
X8308900Y5894895D01*
X8278400Y5888829D01*
X8278400Y6874174D01*
X8282680Y6897045D01*
X8283573Y6913538D01*
X8270534Y7082991D01*
X8267129Y7099151D01*
X8266959Y7099632D01*
X8266963Y7100138D01*
X8264922Y7116527D01*
X8209813Y7328094D01*
X8203600Y7343395D01*
X8201623Y7346876D01*
X8200844Y7350808D01*
X8195548Y7366452D01*
X8099022Y7562619D01*
X8089856Y7576362D01*
X8087222Y7579371D01*
X8085672Y7583058D01*
X8077338Y7597321D01*
X7943338Y7770073D01*
X7931599Y7781690D01*
X7928407Y7784113D01*
X7926145Y7787417D01*
X7915115Y7799709D01*
X7749117Y7941987D01*
X7735281Y7951006D01*
X7731672Y7952735D01*
X7728790Y7955518D01*
X7715514Y7965342D01*
X7524296Y8071335D01*
X7508927Y8077389D01*
X7505044Y8078357D01*
X7501666Y8080501D01*
X7486684Y8087456D01*
X7278058Y8152835D01*
X7261785Y8155675D01*
X7257788Y8155842D01*
X7254049Y8157263D01*
X7237973Y8161063D01*
X7020461Y8183158D01*
X7003952Y8182668D01*
X6977603Y8178400D01*
X6625826Y8178400D01*
X6602955Y8182680D01*
X6586462Y8183573D01*
X6417009Y8170534D01*
X6400849Y8167129D01*
X6400368Y8166959D01*
X6399862Y8166963D01*
X6383473Y8164922D01*
X6171906Y8109813D01*
X6156605Y8103600D01*
X6153124Y8101623D01*
X6149192Y8100844D01*
X6133548Y8095548D01*
X5937381Y7999022D01*
X5923638Y7989856D01*
X5920629Y7987222D01*
X5916942Y7985672D01*
X5902679Y7977338D01*
X5729927Y7843338D01*
X5718310Y7831599D01*
X5715887Y7828407D01*
X5712583Y7826145D01*
X5700291Y7815115D01*
X5558013Y7649117D01*
X5548994Y7635281D01*
X5547265Y7631672D01*
X5544482Y7628790D01*
X5534658Y7615514D01*
X5428665Y7424296D01*
X5422611Y7408927D01*
X5421643Y7405044D01*
X5419499Y7401666D01*
X5412544Y7386684D01*
X5347165Y7178058D01*
X5344325Y7161785D01*
X5344158Y7157788D01*
X5342737Y7154049D01*
X5338937Y7137973D01*
X5316842Y6920461D01*
X5317332Y6903952D01*
X5321600Y6877603D01*
X5321601Y1049964D01*
X5318512Y1036894D01*
X5300165Y856277D01*
X5256965Y718425D01*
X5186927Y592072D01*
X5092920Y482393D01*
X4978765Y393845D01*
X4849145Y330064D01*
X4705969Y292770D01*
X4569994Y282306D01*
X4553833Y278900D01*
X4552413Y278400D01*
X1049957Y278400D01*
X1036895Y281488D01*
X856277Y299835D01*
X718425Y343035D01*
X592072Y413073D01*
X482393Y507080D01*
X393845Y621235D01*
X330064Y750855D01*
X292770Y894031D01*
X282306Y1030006D01*
X278900Y1046167D01*
X278400Y1047587D01*
X278400Y3167128D01*
X1168862Y3167128D01*
X1169458Y3156804D01*
X1205280Y2901915D01*
X1207553Y2891826D01*
X1284525Y2646210D01*
X1288416Y2636628D01*
X1404469Y2406882D01*
X1409872Y2398064D01*
X1561891Y2190357D01*
X1568662Y2182540D01*
X1752563Y2002451D01*
X1760520Y1995845D01*
X1971365Y1848210D01*
X1980294Y1842992D01*
X2212420Y1731776D01*
X2222081Y1728087D01*
X2469255Y1656275D01*
X2479390Y1654214D01*
X2734974Y1623737D01*
X2745309Y1623358D01*
X3002438Y1635035D01*
X3012695Y1636349D01*
X3264465Y1689864D01*
X3274370Y1692836D01*
X3514019Y1786753D01*
X3523306Y1791302D01*
X3744397Y1923100D01*
X3752816Y1929105D01*
X3949413Y2095242D01*
X3956738Y2102542D01*
X4123561Y2298558D01*
X4129596Y2306956D01*
X4262163Y2527586D01*
X4266745Y2536857D01*
X4361498Y2776176D01*
X4364505Y2786071D01*
X4419062Y3038406D01*
X4420469Y3050206D01*
X4428588Y3382388D01*
X4427759Y3394243D01*
X4385594Y3648942D01*
X4383074Y3658973D01*
X4300124Y3902635D01*
X4296001Y3912118D01*
X4174369Y4138961D01*
X4168751Y4147644D01*
X4011704Y4351574D01*
X4004744Y4359223D01*
X3816497Y4534766D01*
X3808381Y4541175D01*
X3593992Y4683616D01*
X3584939Y4688614D01*
X3350164Y4794125D01*
X3340416Y4797577D01*
X3091561Y4863328D01*
X3081379Y4865141D01*
X2825128Y4889363D01*
X2814787Y4889490D01*
X2558020Y4871535D01*
X2547797Y4869971D01*
X2297410Y4810320D01*
X2287580Y4807108D01*
X2050297Y4707363D01*
X2041124Y4702588D01*
X1823319Y4565429D01*
X1815049Y4559219D01*
X1622570Y4388328D01*
X1615426Y4380852D01*
X1453442Y4180819D01*
X1447614Y4172276D01*
X1320476Y3948473D01*
X1316122Y3939092D01*
X1227244Y3697530D01*
X1224481Y3687564D01*
X1176250Y3434729D01*
X1175151Y3424446D01*
X1168862Y3167128D01*
X278400Y3167128D01*
X278400Y33975530D01*
X4583683Y33975530D01*
X4616786Y33785853D01*
X4624915Y33764053D01*
X4724084Y33599010D01*
X4739515Y33581599D01*
X4891449Y33463321D01*
X4912115Y33452632D01*
X5096441Y33396981D01*
X5119569Y33394448D01*
X5311571Y33408885D01*
X5334060Y33414848D01*
X5507992Y33497437D01*
X5526827Y33511096D01*
X5659366Y33650763D01*
X5672021Y33670287D01*
X5695415Y33727046D01*
X5695690Y33726832D01*
X5716356Y33716143D01*
X5900682Y33660492D01*
X5923810Y33657959D01*
X6115812Y33672396D01*
X6138301Y33678359D01*
X6312233Y33760948D01*
X6331068Y33774607D01*
X6463607Y33914274D01*
X6476262Y33933798D01*
X6549771Y34112147D01*
X6554564Y34135650D01*
X6556521Y34308105D01*
X6655345Y34143636D01*
X6670776Y34126225D01*
X6822710Y34007947D01*
X6843376Y33997258D01*
X7027702Y33941607D01*
X7050830Y33939074D01*
X7242832Y33953511D01*
X7265321Y33959474D01*
X7439253Y34042063D01*
X7458088Y34055722D01*
X7590627Y34195389D01*
X7603282Y34214913D01*
X7625610Y34269086D01*
X7789793Y34219516D01*
X7812921Y34216983D01*
X8004923Y34231420D01*
X8027412Y34237383D01*
X8201344Y34319972D01*
X8220179Y34333631D01*
X8352718Y34473298D01*
X8365373Y34492822D01*
X8438882Y34671171D01*
X8443675Y34694674D01*
X8445985Y34898226D01*
X8441727Y34921833D01*
X8372281Y35101804D01*
X8360073Y35121610D01*
X8230737Y35264248D01*
X8212217Y35278331D01*
X8040203Y35364844D01*
X8017855Y35371315D01*
X7826230Y35390105D01*
X7803050Y35388097D01*
X7617509Y35336642D01*
X7596606Y35326424D01*
X7442028Y35211625D01*
X7426205Y35194568D01*
X7338851Y35056387D01*
X7278112Y35086935D01*
X7255764Y35093406D01*
X7064139Y35112196D01*
X7040959Y35110188D01*
X6855418Y35058733D01*
X6834515Y35048515D01*
X6741529Y34979458D01*
X6813282Y35153547D01*
X6818075Y35177050D01*
X6820385Y35380602D01*
X6816127Y35404209D01*
X6746681Y35584180D01*
X6734473Y35603986D01*
X6605137Y35746624D01*
X6586617Y35760707D01*
X6414603Y35847220D01*
X6392255Y35853691D01*
X6200630Y35872481D01*
X6177450Y35870473D01*
X5991909Y35819018D01*
X5971006Y35808800D01*
X5816428Y35694001D01*
X5800605Y35676944D01*
X5697719Y35514193D01*
X5689097Y35492583D01*
X5651699Y35303706D01*
X5651435Y35280441D01*
X5684538Y35090764D01*
X5692667Y35068964D01*
X5791836Y34903921D01*
X5807267Y34886510D01*
X5889687Y34822347D01*
X5728398Y34777618D01*
X5707495Y34767400D01*
X5552917Y34652601D01*
X5537094Y34635544D01*
X5446478Y34492202D01*
X5346851Y34542309D01*
X5324503Y34548780D01*
X5132878Y34567570D01*
X5109698Y34565562D01*
X4924157Y34514107D01*
X4903254Y34503889D01*
X4748676Y34389090D01*
X4732853Y34372033D01*
X4629967Y34209282D01*
X4621345Y34187672D01*
X4583947Y33998795D01*
X4583683Y33975530D01*
X278400Y33975530D01*
X278400Y38350044D01*
X281488Y38363106D01*
X299835Y38543723D01*
X343034Y38681574D01*
X413073Y38807928D01*
X507079Y38917607D01*
X621233Y39006153D01*
X750860Y39069937D01*
X894031Y39107231D01*
X1030006Y39117694D01*
X1046169Y39121100D01*
X1047589Y39121600D01*
X35650044Y39121600D01*
X35663106Y39118512D01*
G36*
X28385800Y10697200D02*
G01*
X27890226Y10697200D01*
X27856168Y10714329D01*
X27842830Y10718192D01*
X27660540Y10736066D01*
X27646706Y10734867D01*
X27510883Y10697200D01*
X26890226Y10697200D01*
X26856168Y10714329D01*
X26842830Y10718192D01*
X26660540Y10736066D01*
X26646706Y10734867D01*
X26510883Y10697200D01*
X25790226Y10697200D01*
X25756168Y10714329D01*
X25742830Y10718192D01*
X25560540Y10736066D01*
X25546706Y10734867D01*
X25410883Y10697200D01*
X23536200Y10697200D01*
X23536200Y11892167D01*
X26102187Y11892167D01*
X26131498Y11686220D01*
X26134720Y11675449D01*
X26223291Y11487224D01*
X26229537Y11477876D01*
X26369539Y11324016D01*
X26378258Y11316918D01*
X26557312Y11211026D01*
X26567732Y11206805D01*
X26770007Y11158243D01*
X26781208Y11157272D01*
X26988820Y11170334D01*
X26999811Y11172701D01*
X27194405Y11246232D01*
X27204214Y11251725D01*
X27368584Y11379224D01*
X27376345Y11387358D01*
X27495959Y11557553D01*
X27500984Y11567610D01*
X27565312Y11765592D01*
X27567162Y11776983D01*
X27568879Y11995569D01*
X27567208Y12006987D01*
X27505998Y12205956D01*
X27501131Y12216090D01*
X27384205Y12388142D01*
X27376573Y12396398D01*
X27214226Y12526463D01*
X27204504Y12532110D01*
X27011089Y12608688D01*
X27000137Y12611226D01*
X26792756Y12627547D01*
X26781542Y12626753D01*
X26578529Y12581375D01*
X26568044Y12577318D01*
X26387348Y12474252D01*
X26378519Y12467292D01*
X26236117Y12315649D01*
X26229725Y12306400D01*
X26138208Y12119590D01*
X26134818Y12108871D01*
X26102275Y11903410D01*
X26102187Y11892167D01*
X23536200Y11892167D01*
X23536200Y33657800D01*
X28385800Y33657800D01*
X28385800Y10697200D01*
G37*
D23*
X28385800Y10697200D02*
X27890226Y10697200D01*
X27856168Y10714329D01*
X27842830Y10718192D01*
X27660540Y10736066D01*
X27646706Y10734867D01*
X27510883Y10697200D01*
X26890226Y10697200D01*
X26856168Y10714329D01*
X26842830Y10718192D01*
X26660540Y10736066D01*
X26646706Y10734867D01*
X26510883Y10697200D01*
X25790226Y10697200D01*
X25756168Y10714329D01*
X25742830Y10718192D01*
X25560540Y10736066D01*
X25546706Y10734867D01*
X25410883Y10697200D01*
X23536200Y10697200D01*
X23536200Y11892167D01*
X26102187Y11892167D01*
X26131498Y11686220D01*
X26134720Y11675449D01*
X26223291Y11487224D01*
X26229537Y11477876D01*
X26369539Y11324016D01*
X26378258Y11316918D01*
X26557312Y11211026D01*
X26567732Y11206805D01*
X26770007Y11158243D01*
X26781208Y11157272D01*
X26988820Y11170334D01*
X26999811Y11172701D01*
X27194405Y11246232D01*
X27204214Y11251725D01*
X27368584Y11379224D01*
X27376345Y11387358D01*
X27495959Y11557553D01*
X27500984Y11567610D01*
X27565312Y11765592D01*
X27567162Y11776983D01*
X27568879Y11995569D01*
X27567208Y12006987D01*
X27505998Y12205956D01*
X27501131Y12216090D01*
X27384205Y12388142D01*
X27376573Y12396398D01*
X27214226Y12526463D01*
X27204504Y12532110D01*
X27011089Y12608688D01*
X27000137Y12611226D01*
X26792756Y12627547D01*
X26781542Y12626753D01*
X26578529Y12581375D01*
X26568044Y12577318D01*
X26387348Y12474252D01*
X26378519Y12467292D01*
X26236117Y12315649D01*
X26229725Y12306400D01*
X26138208Y12119590D01*
X26134818Y12108871D01*
X26102275Y11903410D01*
X26102187Y11892167D01*
X23536200Y11892167D01*
X23536200Y33657800D01*
X28385800Y33657800D01*
X28385800Y10697200D01*
G36*
X20949523Y33540216D02*
G01*
X20953457Y33528424D01*
X21045639Y33354323D01*
X21053181Y33344442D01*
X21196786Y33209587D01*
X21207122Y33202680D01*
X21386668Y33121613D01*
X21398684Y33118427D01*
X21594808Y33099888D01*
X21607208Y33100766D01*
X21798764Y33146754D01*
X21810211Y33151601D01*
X21976542Y33257158D01*
X21985802Y33265452D01*
X22108974Y33419196D01*
X22115048Y33430042D01*
X22181829Y33615534D01*
X22184067Y33628064D01*
X22184301Y33657800D01*
X23178930Y33657800D01*
X23218670Y10697200D01*
X19378717Y10697200D01*
X19379136Y10750467D01*
X19377095Y10763031D01*
X19313236Y10949549D01*
X19307333Y10960489D01*
X19186591Y11116149D01*
X19177463Y11124587D01*
X19012810Y11232744D01*
X19001440Y11237771D01*
X18810631Y11286762D01*
X18798246Y11287835D01*
X18601854Y11272379D01*
X18589790Y11269382D01*
X18408994Y11191144D01*
X18398551Y11184400D01*
X18368274Y11156851D01*
X18363362Y13995324D01*
X18482205Y14040232D01*
X18492014Y14045725D01*
X18656384Y14173224D01*
X18664145Y14181358D01*
X18783759Y14351553D01*
X18788784Y14361610D01*
X18853112Y14559592D01*
X18854962Y14570983D01*
X18855855Y14684789D01*
X21172705Y14684789D01*
X21203523Y14490216D01*
X21207457Y14478424D01*
X21299639Y14304323D01*
X21307181Y14294442D01*
X21450786Y14159587D01*
X21461122Y14152680D01*
X21640668Y14071613D01*
X21652684Y14068427D01*
X21848808Y14049888D01*
X21861208Y14050766D01*
X22052764Y14096754D01*
X22064211Y14101601D01*
X22230542Y14207158D01*
X22239802Y14215452D01*
X22362974Y14369196D01*
X22369048Y14380042D01*
X22435829Y14565534D01*
X22438067Y14578064D01*
X22439685Y14784057D01*
X22437644Y14796621D01*
X22373785Y14983139D01*
X22367882Y14994079D01*
X22247140Y15149739D01*
X22238012Y15158177D01*
X22073359Y15266334D01*
X22061989Y15271361D01*
X21871180Y15320352D01*
X21858795Y15321425D01*
X21662403Y15305969D01*
X21650339Y15302972D01*
X21469543Y15224734D01*
X21459100Y15217990D01*
X21313393Y15085408D01*
X21305697Y15075646D01*
X21210792Y14903014D01*
X21206673Y14891285D01*
X21172803Y14697220D01*
X21172705Y14684789D01*
X18855855Y14684789D01*
X18856679Y14789569D01*
X18855008Y14800987D01*
X18793798Y14999956D01*
X18788931Y15010090D01*
X18672005Y15182142D01*
X18664373Y15190398D01*
X18502026Y15320463D01*
X18492304Y15326110D01*
X18360969Y15378109D01*
X18358594Y16749634D01*
X18436918Y16786825D01*
X18448159Y16794978D01*
X18494826Y16844155D01*
X19113485Y16844155D01*
X19144975Y16663718D01*
X19149827Y16650707D01*
X19244164Y16493706D01*
X19253374Y16483314D01*
X19397905Y16370799D01*
X19410239Y16364419D01*
X19585586Y16311480D01*
X19599389Y16309968D01*
X19782037Y16323701D01*
X19795459Y16327260D01*
X19960918Y16405825D01*
X19972159Y16413977D01*
X20098241Y16546840D01*
X20105793Y16558493D01*
X20132139Y16622412D01*
X20133164Y16620706D01*
X20142374Y16610314D01*
X20286905Y16497799D01*
X20299239Y16491419D01*
X20474586Y16438480D01*
X20488389Y16436968D01*
X20671037Y16450701D01*
X20684459Y16454260D01*
X20849918Y16532825D01*
X20861159Y16540977D01*
X20987241Y16673840D01*
X20994793Y16685493D01*
X21064673Y16855035D01*
X21067533Y16869062D01*
X21069733Y17062943D01*
X21067192Y17077033D01*
X21001176Y17248116D01*
X20993889Y17259937D01*
X20870855Y17395626D01*
X20859801Y17404031D01*
X20696168Y17486329D01*
X20682830Y17490192D01*
X20500540Y17508066D01*
X20486706Y17506867D01*
X20310204Y17457919D01*
X20297729Y17451820D01*
X20150682Y17342614D01*
X20141238Y17332434D01*
X20051997Y17191269D01*
X19981855Y17268626D01*
X19970801Y17277031D01*
X19807168Y17359329D01*
X19793830Y17363192D01*
X19611540Y17381066D01*
X19597706Y17379867D01*
X19421204Y17330919D01*
X19408729Y17324820D01*
X19261682Y17215614D01*
X19252238Y17205434D01*
X19154364Y17050613D01*
X19149219Y17037715D01*
X19113643Y16858040D01*
X19113485Y16844155D01*
X18494826Y16844155D01*
X18574241Y16927840D01*
X18581793Y16939493D01*
X18651673Y17109035D01*
X18654533Y17123062D01*
X18656733Y17316943D01*
X18654192Y17331033D01*
X18588176Y17502116D01*
X18580889Y17513937D01*
X18457855Y17649626D01*
X18446801Y17658031D01*
X18356944Y17703225D01*
X18354861Y18906862D01*
X18436918Y18945825D01*
X18448159Y18953978D01*
X18574241Y19086840D01*
X18581793Y19098493D01*
X18651673Y19268035D01*
X18654533Y19282062D01*
X18656733Y19475943D01*
X18654192Y19490033D01*
X18588176Y19661116D01*
X18580889Y19672937D01*
X18457855Y19808626D01*
X18446801Y19817031D01*
X18353204Y19864106D01*
X18339105Y28010080D01*
X18472333Y28042065D01*
X18483780Y28046912D01*
X18650111Y28152469D01*
X18659371Y28160763D01*
X18782543Y28314507D01*
X18788617Y28325353D01*
X18855398Y28510845D01*
X18857636Y28523375D01*
X18859254Y28729368D01*
X18857213Y28741932D01*
X18793354Y28928450D01*
X18787451Y28939390D01*
X18666709Y29095050D01*
X18657581Y29103488D01*
X18492928Y29211645D01*
X18481558Y29216672D01*
X18336953Y29253800D01*
X18329330Y33657800D01*
X20930899Y33657800D01*
X20949523Y33540216D01*
G37*
X20949523Y33540216D02*
X20953457Y33528424D01*
X21045639Y33354323D01*
X21053181Y33344442D01*
X21196786Y33209587D01*
X21207122Y33202680D01*
X21386668Y33121613D01*
X21398684Y33118427D01*
X21594808Y33099888D01*
X21607208Y33100766D01*
X21798764Y33146754D01*
X21810211Y33151601D01*
X21976542Y33257158D01*
X21985802Y33265452D01*
X22108974Y33419196D01*
X22115048Y33430042D01*
X22181829Y33615534D01*
X22184067Y33628064D01*
X22184301Y33657800D01*
X23178930Y33657800D01*
X23218670Y10697200D01*
X19378717Y10697200D01*
X19379136Y10750467D01*
X19377095Y10763031D01*
X19313236Y10949549D01*
X19307333Y10960489D01*
X19186591Y11116149D01*
X19177463Y11124587D01*
X19012810Y11232744D01*
X19001440Y11237771D01*
X18810631Y11286762D01*
X18798246Y11287835D01*
X18601854Y11272379D01*
X18589790Y11269382D01*
X18408994Y11191144D01*
X18398551Y11184400D01*
X18368274Y11156851D01*
X18363362Y13995324D01*
X18482205Y14040232D01*
X18492014Y14045725D01*
X18656384Y14173224D01*
X18664145Y14181358D01*
X18783759Y14351553D01*
X18788784Y14361610D01*
X18853112Y14559592D01*
X18854962Y14570983D01*
X18855855Y14684789D01*
X21172705Y14684789D01*
X21203523Y14490216D01*
X21207457Y14478424D01*
X21299639Y14304323D01*
X21307181Y14294442D01*
X21450786Y14159587D01*
X21461122Y14152680D01*
X21640668Y14071613D01*
X21652684Y14068427D01*
X21848808Y14049888D01*
X21861208Y14050766D01*
X22052764Y14096754D01*
X22064211Y14101601D01*
X22230542Y14207158D01*
X22239802Y14215452D01*
X22362974Y14369196D01*
X22369048Y14380042D01*
X22435829Y14565534D01*
X22438067Y14578064D01*
X22439685Y14784057D01*
X22437644Y14796621D01*
X22373785Y14983139D01*
X22367882Y14994079D01*
X22247140Y15149739D01*
X22238012Y15158177D01*
X22073359Y15266334D01*
X22061989Y15271361D01*
X21871180Y15320352D01*
X21858795Y15321425D01*
X21662403Y15305969D01*
X21650339Y15302972D01*
X21469543Y15224734D01*
X21459100Y15217990D01*
X21313393Y15085408D01*
X21305697Y15075646D01*
X21210792Y14903014D01*
X21206673Y14891285D01*
X21172803Y14697220D01*
X21172705Y14684789D01*
X18855855Y14684789D01*
X18856679Y14789569D01*
X18855008Y14800987D01*
X18793798Y14999956D01*
X18788931Y15010090D01*
X18672005Y15182142D01*
X18664373Y15190398D01*
X18502026Y15320463D01*
X18492304Y15326110D01*
X18360969Y15378109D01*
X18358594Y16749634D01*
X18436918Y16786825D01*
X18448159Y16794978D01*
X18494826Y16844155D01*
X19113485Y16844155D01*
X19144975Y16663718D01*
X19149827Y16650707D01*
X19244164Y16493706D01*
X19253374Y16483314D01*
X19397905Y16370799D01*
X19410239Y16364419D01*
X19585586Y16311480D01*
X19599389Y16309968D01*
X19782037Y16323701D01*
X19795459Y16327260D01*
X19960918Y16405825D01*
X19972159Y16413977D01*
X20098241Y16546840D01*
X20105793Y16558493D01*
X20132139Y16622412D01*
X20133164Y16620706D01*
X20142374Y16610314D01*
X20286905Y16497799D01*
X20299239Y16491419D01*
X20474586Y16438480D01*
X20488389Y16436968D01*
X20671037Y16450701D01*
X20684459Y16454260D01*
X20849918Y16532825D01*
X20861159Y16540977D01*
X20987241Y16673840D01*
X20994793Y16685493D01*
X21064673Y16855035D01*
X21067533Y16869062D01*
X21069733Y17062943D01*
X21067192Y17077033D01*
X21001176Y17248116D01*
X20993889Y17259937D01*
X20870855Y17395626D01*
X20859801Y17404031D01*
X20696168Y17486329D01*
X20682830Y17490192D01*
X20500540Y17508066D01*
X20486706Y17506867D01*
X20310204Y17457919D01*
X20297729Y17451820D01*
X20150682Y17342614D01*
X20141238Y17332434D01*
X20051997Y17191269D01*
X19981855Y17268626D01*
X19970801Y17277031D01*
X19807168Y17359329D01*
X19793830Y17363192D01*
X19611540Y17381066D01*
X19597706Y17379867D01*
X19421204Y17330919D01*
X19408729Y17324820D01*
X19261682Y17215614D01*
X19252238Y17205434D01*
X19154364Y17050613D01*
X19149219Y17037715D01*
X19113643Y16858040D01*
X19113485Y16844155D01*
X18494826Y16844155D01*
X18574241Y16927840D01*
X18581793Y16939493D01*
X18651673Y17109035D01*
X18654533Y17123062D01*
X18656733Y17316943D01*
X18654192Y17331033D01*
X18588176Y17502116D01*
X18580889Y17513937D01*
X18457855Y17649626D01*
X18446801Y17658031D01*
X18356944Y17703225D01*
X18354861Y18906862D01*
X18436918Y18945825D01*
X18448159Y18953978D01*
X18574241Y19086840D01*
X18581793Y19098493D01*
X18651673Y19268035D01*
X18654533Y19282062D01*
X18656733Y19475943D01*
X18654192Y19490033D01*
X18588176Y19661116D01*
X18580889Y19672937D01*
X18457855Y19808626D01*
X18446801Y19817031D01*
X18353204Y19864106D01*
X18339105Y28010080D01*
X18472333Y28042065D01*
X18483780Y28046912D01*
X18650111Y28152469D01*
X18659371Y28160763D01*
X18782543Y28314507D01*
X18788617Y28325353D01*
X18855398Y28510845D01*
X18857636Y28523375D01*
X18859254Y28729368D01*
X18857213Y28741932D01*
X18793354Y28928450D01*
X18787451Y28939390D01*
X18666709Y29095050D01*
X18657581Y29103488D01*
X18492928Y29211645D01*
X18481558Y29216672D01*
X18336953Y29253800D01*
X18329330Y33657800D01*
X20930899Y33657800D01*
X20949523Y33540216D01*
G36*
X17971800Y29205827D02*
G01*
X17889112Y29170045D01*
X17878669Y29163301D01*
X17732962Y29030719D01*
X17725266Y29020957D01*
X17630361Y28848325D01*
X17626242Y28836596D01*
X17592372Y28642531D01*
X17592274Y28630100D01*
X17623092Y28435527D01*
X17627026Y28423735D01*
X17719208Y28249634D01*
X17726750Y28239753D01*
X17870355Y28104898D01*
X17880691Y28097991D01*
X17971800Y28056854D01*
X17971800Y19891606D01*
X17897204Y19870918D01*
X17884729Y19864820D01*
X17737682Y19755614D01*
X17728238Y19745434D01*
X17630364Y19590613D01*
X17625219Y19577715D01*
X17589643Y19398040D01*
X17589485Y19384155D01*
X17620975Y19203718D01*
X17625827Y19190707D01*
X17720164Y19033706D01*
X17729374Y19023314D01*
X17873905Y18910799D01*
X17886239Y18904419D01*
X17971800Y18878587D01*
X17971800Y17732606D01*
X17897204Y17711918D01*
X17884729Y17705820D01*
X17737682Y17596614D01*
X17728238Y17586434D01*
X17630364Y17431613D01*
X17625219Y17418715D01*
X17589643Y17239040D01*
X17589485Y17225155D01*
X17620975Y17044718D01*
X17625827Y17031707D01*
X17720164Y16874706D01*
X17729374Y16864314D01*
X17873905Y16751799D01*
X17886239Y16745419D01*
X17971800Y16719587D01*
X17971800Y15398951D01*
X17866329Y15375375D01*
X17855844Y15371318D01*
X17675148Y15268252D01*
X17666319Y15261292D01*
X17523917Y15109649D01*
X17517525Y15100400D01*
X17426008Y14913590D01*
X17422618Y14902871D01*
X17390075Y14697410D01*
X17389987Y14686167D01*
X17419298Y14480220D01*
X17422520Y14469449D01*
X17511091Y14281224D01*
X17517337Y14271876D01*
X17657339Y14118016D01*
X17666058Y14110918D01*
X17845112Y14005026D01*
X17855532Y14000805D01*
X17971800Y13972891D01*
X17971800Y10697200D01*
X15958221Y10697200D01*
X16100818Y10731434D01*
X16112265Y10736281D01*
X16278596Y10841838D01*
X16287856Y10850132D01*
X16411028Y11003876D01*
X16417102Y11014722D01*
X16483883Y11200214D01*
X16486121Y11212744D01*
X16487739Y11418737D01*
X16485698Y11431301D01*
X16421839Y11617819D01*
X16415936Y11628759D01*
X16295194Y11784419D01*
X16286066Y11792857D01*
X16121413Y11901014D01*
X16110043Y11906041D01*
X15919234Y11955032D01*
X15906849Y11956105D01*
X15710457Y11940649D01*
X15698393Y11937652D01*
X15517597Y11859414D01*
X15507154Y11852670D01*
X15361447Y11720088D01*
X15353751Y11710326D01*
X15258846Y11537694D01*
X15254727Y11525965D01*
X15220857Y11331900D01*
X15220759Y11319469D01*
X15251577Y11124896D01*
X15255511Y11113104D01*
X15347693Y10939003D01*
X15355235Y10929122D01*
X15498840Y10794267D01*
X15509176Y10787360D01*
X15688722Y10706293D01*
X15700738Y10703107D01*
X15763228Y10697200D01*
X13122200Y10697200D01*
X13122200Y11433589D01*
X13451105Y11433589D01*
X13481923Y11239016D01*
X13485857Y11227224D01*
X13578039Y11053123D01*
X13585581Y11043242D01*
X13729186Y10908387D01*
X13739522Y10901480D01*
X13919068Y10820413D01*
X13931084Y10817227D01*
X14127208Y10798688D01*
X14139608Y10799566D01*
X14331164Y10845554D01*
X14342611Y10850401D01*
X14508942Y10955958D01*
X14518202Y10964252D01*
X14641374Y11117996D01*
X14647448Y11128842D01*
X14714229Y11314334D01*
X14716467Y11326864D01*
X14718085Y11532857D01*
X14716044Y11545421D01*
X14652185Y11731939D01*
X14646282Y11742879D01*
X14525540Y11898539D01*
X14516412Y11906977D01*
X14351759Y12015134D01*
X14340389Y12020161D01*
X14149580Y12069152D01*
X14137195Y12070225D01*
X13940803Y12054769D01*
X13928739Y12051772D01*
X13747943Y11973534D01*
X13737500Y11966790D01*
X13591793Y11834208D01*
X13584097Y11824446D01*
X13489192Y11651814D01*
X13485073Y11640085D01*
X13451203Y11446020D01*
X13451105Y11433589D01*
X13122200Y11433589D01*
X13122200Y16590155D01*
X16700485Y16590155D01*
X16731975Y16409718D01*
X16736827Y16396707D01*
X16831164Y16239706D01*
X16840374Y16229314D01*
X16984905Y16116799D01*
X16997239Y16110419D01*
X17172586Y16057480D01*
X17186389Y16055968D01*
X17369037Y16069701D01*
X17382459Y16073260D01*
X17547918Y16151825D01*
X17559159Y16159977D01*
X17685241Y16292840D01*
X17692793Y16304493D01*
X17762673Y16474035D01*
X17765533Y16488062D01*
X17767733Y16681943D01*
X17765192Y16696033D01*
X17699176Y16867116D01*
X17691889Y16878937D01*
X17568855Y17014626D01*
X17557801Y17023031D01*
X17394168Y17105329D01*
X17380830Y17109192D01*
X17198540Y17127066D01*
X17184706Y17125867D01*
X17008204Y17076919D01*
X16995729Y17070820D01*
X16848682Y16961614D01*
X16839238Y16951434D01*
X16741364Y16796613D01*
X16736219Y16783715D01*
X16700643Y16604040D01*
X16700485Y16590155D01*
X13122200Y16590155D01*
X13122200Y30941155D01*
X14414485Y30941155D01*
X14445975Y30760718D01*
X14450827Y30747707D01*
X14545164Y30590706D01*
X14554374Y30580314D01*
X14698905Y30467799D01*
X14711239Y30461419D01*
X14886586Y30408480D01*
X14900389Y30406968D01*
X15083037Y30420701D01*
X15096459Y30424260D01*
X15261918Y30502825D01*
X15273159Y30510977D01*
X15399241Y30643840D01*
X15406793Y30655493D01*
X15476673Y30825035D01*
X15479533Y30839062D01*
X15481733Y31032943D01*
X15479192Y31047033D01*
X15413176Y31218116D01*
X15405889Y31229937D01*
X15282855Y31365626D01*
X15271801Y31374031D01*
X15108168Y31456329D01*
X15094830Y31460192D01*
X14912540Y31478066D01*
X14898706Y31476867D01*
X14722204Y31427919D01*
X14709729Y31421820D01*
X14562682Y31312614D01*
X14553238Y31302434D01*
X14455364Y31147613D01*
X14450219Y31134715D01*
X14414643Y30955040D01*
X14414485Y30941155D01*
X13122200Y30941155D01*
X13122200Y33657800D01*
X17971800Y33657800D01*
X17971800Y29205827D01*
G37*
X17971800Y29205827D02*
X17889112Y29170045D01*
X17878669Y29163301D01*
X17732962Y29030719D01*
X17725266Y29020957D01*
X17630361Y28848325D01*
X17626242Y28836596D01*
X17592372Y28642531D01*
X17592274Y28630100D01*
X17623092Y28435527D01*
X17627026Y28423735D01*
X17719208Y28249634D01*
X17726750Y28239753D01*
X17870355Y28104898D01*
X17880691Y28097991D01*
X17971800Y28056854D01*
X17971800Y19891606D01*
X17897204Y19870918D01*
X17884729Y19864820D01*
X17737682Y19755614D01*
X17728238Y19745434D01*
X17630364Y19590613D01*
X17625219Y19577715D01*
X17589643Y19398040D01*
X17589485Y19384155D01*
X17620975Y19203718D01*
X17625827Y19190707D01*
X17720164Y19033706D01*
X17729374Y19023314D01*
X17873905Y18910799D01*
X17886239Y18904419D01*
X17971800Y18878587D01*
X17971800Y17732606D01*
X17897204Y17711918D01*
X17884729Y17705820D01*
X17737682Y17596614D01*
X17728238Y17586434D01*
X17630364Y17431613D01*
X17625219Y17418715D01*
X17589643Y17239040D01*
X17589485Y17225155D01*
X17620975Y17044718D01*
X17625827Y17031707D01*
X17720164Y16874706D01*
X17729374Y16864314D01*
X17873905Y16751799D01*
X17886239Y16745419D01*
X17971800Y16719587D01*
X17971800Y15398951D01*
X17866329Y15375375D01*
X17855844Y15371318D01*
X17675148Y15268252D01*
X17666319Y15261292D01*
X17523917Y15109649D01*
X17517525Y15100400D01*
X17426008Y14913590D01*
X17422618Y14902871D01*
X17390075Y14697410D01*
X17389987Y14686167D01*
X17419298Y14480220D01*
X17422520Y14469449D01*
X17511091Y14281224D01*
X17517337Y14271876D01*
X17657339Y14118016D01*
X17666058Y14110918D01*
X17845112Y14005026D01*
X17855532Y14000805D01*
X17971800Y13972891D01*
X17971800Y10697200D01*
X15958221Y10697200D01*
X16100818Y10731434D01*
X16112265Y10736281D01*
X16278596Y10841838D01*
X16287856Y10850132D01*
X16411028Y11003876D01*
X16417102Y11014722D01*
X16483883Y11200214D01*
X16486121Y11212744D01*
X16487739Y11418737D01*
X16485698Y11431301D01*
X16421839Y11617819D01*
X16415936Y11628759D01*
X16295194Y11784419D01*
X16286066Y11792857D01*
X16121413Y11901014D01*
X16110043Y11906041D01*
X15919234Y11955032D01*
X15906849Y11956105D01*
X15710457Y11940649D01*
X15698393Y11937652D01*
X15517597Y11859414D01*
X15507154Y11852670D01*
X15361447Y11720088D01*
X15353751Y11710326D01*
X15258846Y11537694D01*
X15254727Y11525965D01*
X15220857Y11331900D01*
X15220759Y11319469D01*
X15251577Y11124896D01*
X15255511Y11113104D01*
X15347693Y10939003D01*
X15355235Y10929122D01*
X15498840Y10794267D01*
X15509176Y10787360D01*
X15688722Y10706293D01*
X15700738Y10703107D01*
X15763228Y10697200D01*
X13122200Y10697200D01*
X13122200Y11433589D01*
X13451105Y11433589D01*
X13481923Y11239016D01*
X13485857Y11227224D01*
X13578039Y11053123D01*
X13585581Y11043242D01*
X13729186Y10908387D01*
X13739522Y10901480D01*
X13919068Y10820413D01*
X13931084Y10817227D01*
X14127208Y10798688D01*
X14139608Y10799566D01*
X14331164Y10845554D01*
X14342611Y10850401D01*
X14508942Y10955958D01*
X14518202Y10964252D01*
X14641374Y11117996D01*
X14647448Y11128842D01*
X14714229Y11314334D01*
X14716467Y11326864D01*
X14718085Y11532857D01*
X14716044Y11545421D01*
X14652185Y11731939D01*
X14646282Y11742879D01*
X14525540Y11898539D01*
X14516412Y11906977D01*
X14351759Y12015134D01*
X14340389Y12020161D01*
X14149580Y12069152D01*
X14137195Y12070225D01*
X13940803Y12054769D01*
X13928739Y12051772D01*
X13747943Y11973534D01*
X13737500Y11966790D01*
X13591793Y11834208D01*
X13584097Y11824446D01*
X13489192Y11651814D01*
X13485073Y11640085D01*
X13451203Y11446020D01*
X13451105Y11433589D01*
X13122200Y11433589D01*
X13122200Y16590155D01*
X16700485Y16590155D01*
X16731975Y16409718D01*
X16736827Y16396707D01*
X16831164Y16239706D01*
X16840374Y16229314D01*
X16984905Y16116799D01*
X16997239Y16110419D01*
X17172586Y16057480D01*
X17186389Y16055968D01*
X17369037Y16069701D01*
X17382459Y16073260D01*
X17547918Y16151825D01*
X17559159Y16159977D01*
X17685241Y16292840D01*
X17692793Y16304493D01*
X17762673Y16474035D01*
X17765533Y16488062D01*
X17767733Y16681943D01*
X17765192Y16696033D01*
X17699176Y16867116D01*
X17691889Y16878937D01*
X17568855Y17014626D01*
X17557801Y17023031D01*
X17394168Y17105329D01*
X17380830Y17109192D01*
X17198540Y17127066D01*
X17184706Y17125867D01*
X17008204Y17076919D01*
X16995729Y17070820D01*
X16848682Y16961614D01*
X16839238Y16951434D01*
X16741364Y16796613D01*
X16736219Y16783715D01*
X16700643Y16604040D01*
X16700485Y16590155D01*
X13122200Y16590155D01*
X13122200Y30941155D01*
X14414485Y30941155D01*
X14445975Y30760718D01*
X14450827Y30747707D01*
X14545164Y30590706D01*
X14554374Y30580314D01*
X14698905Y30467799D01*
X14711239Y30461419D01*
X14886586Y30408480D01*
X14900389Y30406968D01*
X15083037Y30420701D01*
X15096459Y30424260D01*
X15261918Y30502825D01*
X15273159Y30510977D01*
X15399241Y30643840D01*
X15406793Y30655493D01*
X15476673Y30825035D01*
X15479533Y30839062D01*
X15481733Y31032943D01*
X15479192Y31047033D01*
X15413176Y31218116D01*
X15405889Y31229937D01*
X15282855Y31365626D01*
X15271801Y31374031D01*
X15108168Y31456329D01*
X15094830Y31460192D01*
X14912540Y31478066D01*
X14898706Y31476867D01*
X14722204Y31427919D01*
X14709729Y31421820D01*
X14562682Y31312614D01*
X14553238Y31302434D01*
X14455364Y31147613D01*
X14450219Y31134715D01*
X14414643Y30955040D01*
X14414485Y30941155D01*
X13122200Y30941155D01*
X13122200Y33657800D01*
X17971800Y33657800D01*
X17971800Y29205827D01*
G36*
X12764800Y10697200D02*
G01*
X9928605Y10697200D01*
X9927192Y10705033D01*
X9861176Y10876116D01*
X9853889Y10887937D01*
X9730855Y11023626D01*
X9719801Y11032031D01*
X9556168Y11114329D01*
X9551507Y11115679D01*
X9397026Y11270160D01*
X11591480Y11270160D01*
X11622970Y11089723D01*
X11627822Y11076712D01*
X11722159Y10919711D01*
X11731369Y10909319D01*
X11875900Y10796804D01*
X11888234Y10790424D01*
X12063581Y10737485D01*
X12077384Y10735973D01*
X12260032Y10749706D01*
X12273454Y10753265D01*
X12438913Y10831830D01*
X12450154Y10839982D01*
X12576236Y10972845D01*
X12583788Y10984498D01*
X12653668Y11154040D01*
X12656528Y11168067D01*
X12658728Y11361948D01*
X12656187Y11376038D01*
X12590171Y11547121D01*
X12582884Y11558942D01*
X12459850Y11694631D01*
X12448796Y11703036D01*
X12285163Y11785334D01*
X12271825Y11789197D01*
X12089535Y11807071D01*
X12075701Y11805872D01*
X11899199Y11756924D01*
X11886724Y11750825D01*
X11739677Y11641619D01*
X11730233Y11631439D01*
X11632359Y11476618D01*
X11627214Y11463720D01*
X11591638Y11284045D01*
X11591480Y11270160D01*
X9397026Y11270160D01*
X9186165Y11481021D01*
X9299953Y11488180D01*
X9310944Y11490547D01*
X9505538Y11564078D01*
X9515347Y11569571D01*
X9679717Y11697070D01*
X9687478Y11705204D01*
X9807092Y11875399D01*
X9812117Y11885456D01*
X9876445Y12083438D01*
X9878295Y12094829D01*
X9880012Y12313415D01*
X9878341Y12324833D01*
X9817131Y12523802D01*
X9812264Y12533936D01*
X9695338Y12705988D01*
X9687706Y12714244D01*
X9525359Y12844309D01*
X9515637Y12849956D01*
X9322222Y12926534D01*
X9311270Y12929072D01*
X9103889Y12945393D01*
X9092675Y12944599D01*
X8889662Y12899221D01*
X8879177Y12895164D01*
X8698481Y12792098D01*
X8689652Y12785138D01*
X8547250Y12633495D01*
X8540858Y12624246D01*
X8449341Y12437436D01*
X8445951Y12426717D01*
X8417855Y12249332D01*
X8221208Y12445979D01*
X8204060Y12455879D01*
X8175370Y12463567D01*
X8149652Y12478415D01*
X8130526Y12483540D01*
X8095544Y12483540D01*
X8095536Y12483541D01*
X7915200Y12483541D01*
X7915200Y33657800D01*
X12764800Y33657800D01*
X12764800Y10697200D01*
G37*
X12764800Y10697200D02*
X9928605Y10697200D01*
X9927192Y10705033D01*
X9861176Y10876116D01*
X9853889Y10887937D01*
X9730855Y11023626D01*
X9719801Y11032031D01*
X9556168Y11114329D01*
X9551507Y11115679D01*
X9397026Y11270160D01*
X11591480Y11270160D01*
X11622970Y11089723D01*
X11627822Y11076712D01*
X11722159Y10919711D01*
X11731369Y10909319D01*
X11875900Y10796804D01*
X11888234Y10790424D01*
X12063581Y10737485D01*
X12077384Y10735973D01*
X12260032Y10749706D01*
X12273454Y10753265D01*
X12438913Y10831830D01*
X12450154Y10839982D01*
X12576236Y10972845D01*
X12583788Y10984498D01*
X12653668Y11154040D01*
X12656528Y11168067D01*
X12658728Y11361948D01*
X12656187Y11376038D01*
X12590171Y11547121D01*
X12582884Y11558942D01*
X12459850Y11694631D01*
X12448796Y11703036D01*
X12285163Y11785334D01*
X12271825Y11789197D01*
X12089535Y11807071D01*
X12075701Y11805872D01*
X11899199Y11756924D01*
X11886724Y11750825D01*
X11739677Y11641619D01*
X11730233Y11631439D01*
X11632359Y11476618D01*
X11627214Y11463720D01*
X11591638Y11284045D01*
X11591480Y11270160D01*
X9397026Y11270160D01*
X9186165Y11481021D01*
X9299953Y11488180D01*
X9310944Y11490547D01*
X9505538Y11564078D01*
X9515347Y11569571D01*
X9679717Y11697070D01*
X9687478Y11705204D01*
X9807092Y11875399D01*
X9812117Y11885456D01*
X9876445Y12083438D01*
X9878295Y12094829D01*
X9880012Y12313415D01*
X9878341Y12324833D01*
X9817131Y12523802D01*
X9812264Y12533936D01*
X9695338Y12705988D01*
X9687706Y12714244D01*
X9525359Y12844309D01*
X9515637Y12849956D01*
X9322222Y12926534D01*
X9311270Y12929072D01*
X9103889Y12945393D01*
X9092675Y12944599D01*
X8889662Y12899221D01*
X8879177Y12895164D01*
X8698481Y12792098D01*
X8689652Y12785138D01*
X8547250Y12633495D01*
X8540858Y12624246D01*
X8449341Y12437436D01*
X8445951Y12426717D01*
X8417855Y12249332D01*
X8221208Y12445979D01*
X8204060Y12455879D01*
X8175370Y12463567D01*
X8149652Y12478415D01*
X8130526Y12483540D01*
X8095544Y12483540D01*
X8095536Y12483541D01*
X7915200Y12483541D01*
X7915200Y33657800D01*
X12764800Y33657800D01*
X12764800Y10697200D01*
M02*
