G04 #@! TF.GenerationSoftware,KiCad,Pcbnew,(5.1.0-1558-g0ba0c1724)*
G04 #@! TF.CreationDate,2019-10-21T22:03:17-07:00*
G04 #@! TF.ProjectId,TMC2209_Driver,544d4332-3230-4395-9f44-72697665722e,rev?*
G04 #@! TF.SameCoordinates,Original*
G04 #@! TF.FileFunction,Copper,L1,Top*
G04 #@! TF.FilePolarity,Positive*
%FSLAX46Y46*%
G04 Gerber Fmt 4.6, Leading zero omitted, Abs format (unit mm)*
G04 Created by KiCad (PCBNEW (5.1.0-1558-g0ba0c1724)) date 2019-10-21 22:03:17*
%MOMM*%
%LPD*%
G04 APERTURE LIST*
%ADD10R,0.875000X0.950000*%
%ADD11R,0.650000X0.400000*%
%ADD12C,0.100000*%
%ADD13C,1.250000*%
%ADD14R,3.098800X3.098800*%
%ADD15R,0.224800X0.909599*%
%ADD16R,0.909599X0.224800*%
%ADD17C,1.778000*%
%ADD18R,1.778000X1.778000*%
%ADD19C,0.650000*%
%ADD20R,0.650000X4.600000*%
%ADD21R,0.650000X3.600000*%
%ADD22R,3.000000X0.127000*%
%ADD23R,0.127000X3.000000*%
%ADD24R,1.250000X1.750000*%
%ADD25R,0.590000X0.640000*%
%ADD26C,0.800000*%
%ADD27C,0.635000*%
%ADD28C,0.508000*%
%ADD29C,1.000000*%
%ADD30C,0.650000*%
%ADD31C,0.254000*%
%ADD32C,0.508000*%
%ADD33C,0.203200*%
%ADD34C,1.500000*%
G04 APERTURE END LIST*
D10*
X119850000Y-99949000D03*
X118275000Y-99949000D03*
D11*
X119885500Y-101585000D03*
X119885500Y-102885000D03*
X117985500Y-102235000D03*
X117985500Y-102885000D03*
X117985500Y-101585000D03*
D12*
G36*
X122520671Y-81980630D02*
G01*
X122601777Y-82034823D01*
X122655970Y-82115929D01*
X122675000Y-82211600D01*
X122675000Y-84361600D01*
X122655970Y-84457271D01*
X122601777Y-84538377D01*
X122520671Y-84592570D01*
X122425000Y-84611600D01*
X121675000Y-84611600D01*
X121579329Y-84592570D01*
X121498223Y-84538377D01*
X121444030Y-84457271D01*
X121425000Y-84361600D01*
X121425000Y-82211600D01*
X121444030Y-82115929D01*
X121498223Y-82034823D01*
X121579329Y-81980630D01*
X121675000Y-81961600D01*
X122425000Y-81961600D01*
X122520671Y-81980630D01*
X122520671Y-81980630D01*
G37*
D13*
X122050000Y-83286600D03*
D12*
G36*
X119720671Y-81980630D02*
G01*
X119801777Y-82034823D01*
X119855970Y-82115929D01*
X119875000Y-82211600D01*
X119875000Y-84361600D01*
X119855970Y-84457271D01*
X119801777Y-84538377D01*
X119720671Y-84592570D01*
X119625000Y-84611600D01*
X118875000Y-84611600D01*
X118779329Y-84592570D01*
X118698223Y-84538377D01*
X118644030Y-84457271D01*
X118625000Y-84361600D01*
X118625000Y-82211600D01*
X118644030Y-82115929D01*
X118698223Y-82034823D01*
X118779329Y-81980630D01*
X118875000Y-81961600D01*
X119625000Y-81961600D01*
X119720671Y-81980630D01*
X119720671Y-81980630D01*
G37*
D13*
X119250000Y-83286600D03*
D12*
G36*
X131661671Y-81955230D02*
G01*
X131742777Y-82009423D01*
X131796970Y-82090529D01*
X131816000Y-82186200D01*
X131816000Y-84336200D01*
X131796970Y-84431871D01*
X131742777Y-84512977D01*
X131661671Y-84567170D01*
X131566000Y-84586200D01*
X130816000Y-84586200D01*
X130720329Y-84567170D01*
X130639223Y-84512977D01*
X130585030Y-84431871D01*
X130566000Y-84336200D01*
X130566000Y-82186200D01*
X130585030Y-82090529D01*
X130639223Y-82009423D01*
X130720329Y-81955230D01*
X130816000Y-81936200D01*
X131566000Y-81936200D01*
X131661671Y-81955230D01*
X131661671Y-81955230D01*
G37*
D13*
X131191000Y-83261200D03*
D12*
G36*
X134461671Y-81955230D02*
G01*
X134542777Y-82009423D01*
X134596970Y-82090529D01*
X134616000Y-82186200D01*
X134616000Y-84336200D01*
X134596970Y-84431871D01*
X134542777Y-84512977D01*
X134461671Y-84567170D01*
X134366000Y-84586200D01*
X133616000Y-84586200D01*
X133520329Y-84567170D01*
X133439223Y-84512977D01*
X133385030Y-84431871D01*
X133366000Y-84336200D01*
X133366000Y-82186200D01*
X133385030Y-82090529D01*
X133439223Y-82009423D01*
X133520329Y-81955230D01*
X133616000Y-81936200D01*
X134366000Y-81936200D01*
X134461671Y-81955230D01*
X134461671Y-81955230D01*
G37*
D13*
X133991000Y-83261200D03*
D10*
X117805000Y-79121000D03*
X119380000Y-79121000D03*
X117830500Y-77470000D03*
X119405500Y-77470000D03*
X135407500Y-78994000D03*
X133832500Y-78994000D03*
X135407500Y-77470000D03*
X133832500Y-77470000D03*
D14*
X126682500Y-91059000D03*
D15*
X125182500Y-88711900D03*
X125682499Y-88711900D03*
X126182501Y-88711900D03*
X126682500Y-88711900D03*
X127182499Y-88711900D03*
X127682501Y-88711900D03*
X128182500Y-88711900D03*
D16*
X129029600Y-89559000D03*
X129029600Y-90058999D03*
X129029600Y-90559001D03*
X129029600Y-91059000D03*
X129029600Y-91558999D03*
X129029600Y-92059001D03*
X129029600Y-92559000D03*
D15*
X128182500Y-93406100D03*
X127682501Y-93406100D03*
X127182499Y-93406100D03*
X126682500Y-93406100D03*
X126182501Y-93406100D03*
X125682499Y-93406100D03*
X125182500Y-93406100D03*
D16*
X124335400Y-92559000D03*
X124335400Y-92059001D03*
X124335400Y-91558999D03*
X124335400Y-91059000D03*
X124335400Y-90559001D03*
X124335400Y-90058999D03*
X124335400Y-89559000D03*
D10*
X121412000Y-103124000D03*
X122987000Y-103124000D03*
D17*
X130429000Y-78562200D03*
X127889000Y-78562200D03*
X125349000Y-78562200D03*
D18*
X122809000Y-78562200D03*
D19*
X118652800Y-112985200D03*
X134652800Y-112985200D03*
X133652800Y-112985200D03*
X132652800Y-112985200D03*
X131652800Y-112985200D03*
X130652800Y-112985200D03*
X117652800Y-112985200D03*
X127652800Y-112985200D03*
X126652800Y-112985200D03*
X125652800Y-112985200D03*
X124652800Y-112985200D03*
X123652800Y-112985200D03*
X122652800Y-112985200D03*
X121652800Y-112985200D03*
X120652800Y-112985200D03*
X119652800Y-112985200D03*
D20*
X131652800Y-110685200D03*
X130652800Y-110685200D03*
X136652800Y-110685200D03*
D21*
X135652800Y-110185200D03*
D20*
X134652800Y-110685200D03*
X133652800Y-110685200D03*
X132652800Y-110685200D03*
X127652800Y-110685200D03*
X126652800Y-110685200D03*
X125652800Y-110685200D03*
X124652800Y-110685200D03*
X123652800Y-110685200D03*
X122652800Y-110685200D03*
X121652800Y-110685200D03*
X120652800Y-110685200D03*
X119652800Y-110685200D03*
X118652800Y-110685200D03*
X117652800Y-110685200D03*
D19*
X136652800Y-112985200D03*
D22*
X110744000Y-104394000D03*
D23*
X110744000Y-104394000D03*
D22*
X143764000Y-76454000D03*
D23*
X143764000Y-76454000D03*
D22*
X143764000Y-104648000D03*
D23*
X143764000Y-104648000D03*
D22*
X110744000Y-76454000D03*
D23*
X110744000Y-76454000D03*
D24*
X138046000Y-86360000D03*
X140846000Y-86360000D03*
X116208000Y-86360000D03*
X113408000Y-86360000D03*
D25*
X122428000Y-87122000D03*
X121458000Y-87122000D03*
X130856000Y-87122000D03*
X131826000Y-87122000D03*
D10*
X119735500Y-92837000D03*
X121310500Y-92837000D03*
X119710000Y-91186000D03*
X121285000Y-91186000D03*
X121361000Y-95377000D03*
X122936000Y-95377000D03*
X131800500Y-93599000D03*
X133375500Y-93599000D03*
D26*
X129717723Y-99069053D03*
X128143000Y-99060000D03*
X117475000Y-100012500D03*
X120700800Y-102202715D03*
X117411500Y-103378000D03*
X120675400Y-104698800D03*
X126949200Y-96520000D03*
D27*
X121996200Y-89458800D03*
X122682000Y-89458800D03*
X123367800Y-89484200D03*
X123393200Y-88417400D03*
X122707400Y-88417400D03*
X121996200Y-88417400D03*
X130657600Y-89408000D03*
X131343400Y-89433400D03*
X130683000Y-88366600D03*
X129971800Y-88366600D03*
X131368800Y-88366600D03*
X129971800Y-89408000D03*
D28*
X126238000Y-87503000D03*
X126111000Y-85775800D03*
X124968000Y-81280000D03*
X126060200Y-81280000D03*
X127127000Y-87503000D03*
X127330200Y-81280000D03*
X127254000Y-85775800D03*
X128422400Y-81280000D03*
X125450600Y-92329000D03*
X126085600Y-92329000D03*
X126720600Y-92329000D03*
X127355600Y-92329000D03*
X127355600Y-91694000D03*
X127355600Y-91059000D03*
X127355600Y-90424000D03*
X126720600Y-90424000D03*
X126085600Y-90424000D03*
X125450600Y-90424000D03*
X125450600Y-91059000D03*
X125450600Y-91694000D03*
X126085600Y-91694000D03*
X126085600Y-91059000D03*
X126720600Y-91059000D03*
X126720600Y-91694000D03*
X125450600Y-89789000D03*
X126720600Y-89789000D03*
X127355600Y-89789000D03*
X127927100Y-89789000D03*
X127927100Y-90424000D03*
X127927100Y-91059000D03*
X127927100Y-91694000D03*
X127927100Y-92329000D03*
X126085600Y-89789000D03*
D26*
X120269000Y-87122000D03*
X133350000Y-87122000D03*
X134493000Y-93599000D03*
X120269000Y-95377000D03*
X122986800Y-104089200D03*
X121564400Y-104241600D03*
X125679200Y-98450400D03*
X130784600Y-104800400D03*
X126441200Y-97637600D03*
X118694200Y-90195400D03*
X119634000Y-104495600D03*
X131851400Y-99187000D03*
X127406400Y-105562400D03*
X135686800Y-103479600D03*
X124714000Y-103428800D03*
X124663200Y-106019600D03*
X117652800Y-106019600D03*
X134848600Y-91313000D03*
X135794710Y-92989400D03*
X134924800Y-102717600D03*
X125526800Y-102641400D03*
X125501400Y-106578400D03*
X118668800Y-106654600D03*
X120580110Y-106690532D03*
X120822964Y-105835437D03*
X126949200Y-99085400D03*
X121589800Y-102209600D03*
D29*
X137414000Y-83058000D03*
X139446000Y-83058000D03*
X141224000Y-83058000D03*
X143002000Y-83058000D03*
X137414000Y-80772000D03*
X139446000Y-80772000D03*
X141224000Y-80772000D03*
X143002000Y-80772000D03*
X113030000Y-83058000D03*
X110998000Y-80772000D03*
X110998000Y-83058000D03*
X114808000Y-83058000D03*
X116586000Y-80772000D03*
X114808000Y-80772000D03*
X116586000Y-83058000D03*
X113030000Y-80772000D03*
D30*
X128143000Y-99060000D02*
X129708670Y-99060000D01*
X129708670Y-99060000D02*
X129717723Y-99069053D01*
X129625176Y-99161600D02*
X129717723Y-99069053D01*
D31*
X123111500Y-101585000D02*
X121109500Y-101585000D01*
X120771000Y-100907500D02*
X119850000Y-99986500D01*
X120771000Y-100907500D02*
X120771000Y-101246500D01*
X120771000Y-101246500D02*
X121109500Y-101585000D01*
X119850000Y-99949000D02*
X119850000Y-101549500D01*
X119850000Y-101549500D02*
X119885500Y-101585000D01*
X119850000Y-99986500D02*
X119850000Y-99949000D01*
X123888500Y-102362000D02*
X123111500Y-101585000D01*
X123888500Y-104013000D02*
X123888500Y-102362000D01*
X125437900Y-105562400D02*
X123888500Y-104013000D01*
X127406400Y-105562400D02*
X125437900Y-105562400D01*
D32*
X117538500Y-99949000D02*
X117475000Y-100012500D01*
X118275000Y-99949000D02*
X117538500Y-99949000D01*
D33*
X120668515Y-102235000D02*
X120700800Y-102202715D01*
X117985500Y-102235000D02*
X120668515Y-102235000D01*
X119885500Y-102885000D02*
X119885500Y-103908900D01*
X119885500Y-103908900D02*
X120675400Y-104698800D01*
D32*
X117904500Y-102885000D02*
X117411500Y-103378000D01*
X117985500Y-102885000D02*
X117904500Y-102885000D01*
D31*
X126682500Y-96253300D02*
X126949200Y-96520000D01*
X126682500Y-93406100D02*
X126682500Y-96253300D01*
X120652800Y-107825800D02*
X119964200Y-107137200D01*
X120652800Y-110685200D02*
X120652800Y-107825800D01*
X119964200Y-107137200D02*
X119964200Y-105410000D01*
X119964200Y-105410000D02*
X120675400Y-104698800D01*
X126682500Y-90385900D02*
X126720600Y-90424000D01*
X126682500Y-88711900D02*
X126682500Y-90385900D01*
X129029600Y-91059000D02*
X126682500Y-91059000D01*
X126182501Y-90559001D02*
X126682500Y-91059000D01*
X124335400Y-90559001D02*
X126182501Y-90559001D01*
X127682501Y-92573599D02*
X127927100Y-92329000D01*
X127682501Y-93406100D02*
X127682501Y-92573599D01*
D32*
X122250200Y-79121000D02*
X122809000Y-78562200D01*
X119380000Y-79121000D02*
X122250200Y-79121000D01*
X124460001Y-77673201D02*
X125349000Y-78562200D01*
X124117099Y-77330299D02*
X124460001Y-77673201D01*
X120490701Y-77330299D02*
X124117099Y-77330299D01*
X120351000Y-77470000D02*
X120490701Y-77330299D01*
X119405500Y-77470000D02*
X120351000Y-77470000D01*
X130860800Y-78994000D02*
X130429000Y-78562200D01*
X133832500Y-78994000D02*
X130860800Y-78994000D01*
X129120901Y-77330299D02*
X128777999Y-77673201D01*
X128777999Y-77673201D02*
X127889000Y-78562200D01*
X132887000Y-77470000D02*
X132747299Y-77330299D01*
X132747299Y-77330299D02*
X129120901Y-77330299D01*
X133832500Y-77470000D02*
X132887000Y-77470000D01*
D31*
X131800500Y-93561500D02*
X131800500Y-93599000D01*
X130798000Y-92559000D02*
X131800500Y-93561500D01*
X129029600Y-92559000D02*
X130798000Y-92559000D01*
X124869400Y-93406100D02*
X125182500Y-93406100D01*
X122936000Y-95339500D02*
X124869400Y-93406100D01*
X122936000Y-95377000D02*
X122936000Y-95339500D01*
X121412000Y-91059000D02*
X121285000Y-91186000D01*
X124335400Y-91059000D02*
X121412000Y-91059000D01*
X119710000Y-91223500D02*
X119710000Y-91186000D01*
X120401500Y-91915000D02*
X119710000Y-91223500D01*
X122213123Y-91558999D02*
X121857122Y-91915000D01*
X121857122Y-91915000D02*
X120401500Y-91915000D01*
X124335400Y-91558999D02*
X122213123Y-91558999D01*
X124335400Y-92059001D02*
X122951999Y-92059001D01*
X122174000Y-92837000D02*
X121310500Y-92837000D01*
X122951999Y-92059001D02*
X122174000Y-92837000D01*
D32*
X121458000Y-87122000D02*
X120269000Y-87122000D01*
D34*
X113408000Y-86360000D02*
X113408000Y-84458000D01*
X140846000Y-86360000D02*
X140846000Y-84331000D01*
D32*
X131826000Y-87122000D02*
X133350000Y-87122000D01*
X133375500Y-93599000D02*
X134493000Y-93599000D01*
X121361000Y-95377000D02*
X120269000Y-95377000D01*
D30*
X136652800Y-107735200D02*
X136652000Y-107734400D01*
X136652800Y-110685200D02*
X136652800Y-107735200D01*
X136652000Y-107734400D02*
X136652000Y-105664000D01*
X135652800Y-107735200D02*
X135661400Y-107726600D01*
X135652800Y-110185200D02*
X135652800Y-107735200D01*
X135661400Y-107726600D02*
X135661400Y-105892600D01*
X134652800Y-110685200D02*
X134652800Y-106012200D01*
X134652800Y-106012200D02*
X134899400Y-105765600D01*
X133652800Y-107735200D02*
X133654800Y-107733200D01*
X133652800Y-110685200D02*
X133652800Y-107735200D01*
X133654800Y-107733200D02*
X133654800Y-105511600D01*
X132652800Y-107735200D02*
X132664200Y-107723800D01*
X132652800Y-110685200D02*
X132652800Y-107735200D01*
X132664200Y-107723800D02*
X132664200Y-105562400D01*
X122986800Y-103124200D02*
X122987000Y-103124000D01*
X122986800Y-104089200D02*
X122986800Y-103124200D01*
X121564400Y-103276400D02*
X121412000Y-103124000D01*
X121564400Y-104241600D02*
X121564400Y-103276400D01*
D31*
X125682499Y-93406100D02*
X125682499Y-98447101D01*
X125682499Y-98447101D02*
X125679200Y-98450400D01*
X130784600Y-110553400D02*
X130652800Y-110685200D01*
X130784600Y-104800400D02*
X130784600Y-110553400D01*
X126182501Y-93406100D02*
X126182501Y-97378901D01*
X126182501Y-97378901D02*
X126441200Y-97637600D01*
X127682501Y-90058999D02*
X126682500Y-91059000D01*
X129029600Y-90058999D02*
X127682501Y-90058999D01*
X123626601Y-90058999D02*
X123388600Y-90297000D01*
X124335400Y-90058999D02*
X123626601Y-90058999D01*
X123388600Y-90297000D02*
X118795800Y-90297000D01*
X118795800Y-90297000D02*
X118694200Y-90195400D01*
D30*
X131800500Y-93599000D02*
X131800500Y-99136100D01*
X131800500Y-99136100D02*
X131851400Y-99187000D01*
X127652800Y-105808800D02*
X127406400Y-105562400D01*
X127652800Y-110685200D02*
X127652800Y-105808800D01*
D31*
X135686800Y-103479600D02*
X124764800Y-103479600D01*
X124764800Y-103479600D02*
X124714000Y-103428800D01*
X117652800Y-106019600D02*
X117652800Y-110685200D01*
X129738399Y-90559001D02*
X129755798Y-90576400D01*
X129029600Y-90559001D02*
X129738399Y-90559001D01*
X129755798Y-90576400D02*
X134112000Y-90576400D01*
X134112000Y-90576400D02*
X134848600Y-91313000D01*
X135394711Y-92589401D02*
X135794710Y-92989400D01*
X134864311Y-92059001D02*
X135394711Y-92589401D01*
X129029600Y-92059001D02*
X134864311Y-92059001D01*
X134924800Y-102717600D02*
X125603000Y-102717600D01*
X125603000Y-102717600D02*
X125526800Y-102641400D01*
X118668800Y-110669200D02*
X118652800Y-110685200D01*
X118668800Y-106654600D02*
X118668800Y-110669200D01*
X124823583Y-106690532D02*
X121145795Y-106690532D01*
X121007127Y-106019600D02*
X120822964Y-105835437D01*
X125501400Y-106578400D02*
X124935715Y-106578400D01*
X119316489Y-107794889D02*
X119652800Y-108131200D01*
X124663200Y-106019600D02*
X121007127Y-106019600D01*
X124935715Y-106578400D02*
X124823583Y-106690532D01*
X121145795Y-106690532D02*
X120580110Y-106690532D01*
X119652800Y-108131200D02*
X119652800Y-110685200D01*
X119234001Y-104895599D02*
X119634000Y-104495600D01*
X119234001Y-105594223D02*
X119234001Y-104895599D01*
X119316489Y-105676711D02*
X119234001Y-105594223D01*
X119316489Y-105676711D02*
X119316489Y-107794889D01*
X128182500Y-93406100D02*
X128182500Y-97852100D01*
X128182500Y-97852100D02*
X126949200Y-99085400D01*
X121589800Y-102946200D02*
X121412000Y-103124000D01*
X121589800Y-102209600D02*
X121589800Y-102946200D01*
G36*
X112328800Y-86427895D02*
G01*
X112354398Y-86630518D01*
X112449819Y-86871524D01*
X112449819Y-87247410D01*
X112472901Y-87363448D01*
X112545660Y-87472340D01*
X112654552Y-87545099D01*
X112770590Y-87568181D01*
X114045410Y-87568181D01*
X114161448Y-87545099D01*
X114270340Y-87472340D01*
X114343099Y-87363448D01*
X114366181Y-87247410D01*
X114366181Y-86857225D01*
X114421336Y-86756898D01*
X114472630Y-86488000D01*
X114941163Y-86488000D01*
X114941163Y-87251588D01*
X115021795Y-87552512D01*
X115169185Y-87728165D01*
X115362814Y-87839956D01*
X115571976Y-87876837D01*
X116080000Y-87876837D01*
X116080000Y-86488000D01*
X116336000Y-86488000D01*
X116336000Y-87876837D01*
X116849588Y-87876837D01*
X117150512Y-87796205D01*
X117326165Y-87648815D01*
X117437956Y-87455186D01*
X117474837Y-87246024D01*
X117474837Y-86488000D01*
X116336000Y-86488000D01*
X116080000Y-86488000D01*
X114941163Y-86488000D01*
X114472630Y-86488000D01*
X114487200Y-86411626D01*
X114487200Y-85419200D01*
X114950821Y-85419200D01*
X114941163Y-85473976D01*
X114941163Y-86232000D01*
X117474837Y-86232000D01*
X117474837Y-85468412D01*
X117461651Y-85419200D01*
X117983986Y-85419200D01*
X117983999Y-90021437D01*
X117965001Y-90079906D01*
X117965001Y-90310893D01*
X117983999Y-90369366D01*
X117984001Y-90676804D01*
X118142800Y-90677051D01*
X118172151Y-90717449D01*
X118359024Y-90853220D01*
X118578707Y-90924599D01*
X118809693Y-90924599D01*
X118939319Y-90882481D01*
X118939319Y-91673410D01*
X118962401Y-91789448D01*
X118973757Y-91806444D01*
X118804835Y-91948185D01*
X118693044Y-92141814D01*
X118656163Y-92350976D01*
X118656163Y-92709000D01*
X119863500Y-92709000D01*
X119863500Y-93953837D01*
X120189588Y-93953837D01*
X120490512Y-93873205D01*
X120666165Y-93725815D01*
X120731197Y-93613176D01*
X120744552Y-93622099D01*
X120860590Y-93645181D01*
X121760410Y-93645181D01*
X121876448Y-93622099D01*
X121985340Y-93549340D01*
X122058099Y-93440448D01*
X122081181Y-93324410D01*
X122081181Y-93293200D01*
X122162089Y-93293200D01*
X122253928Y-93298013D01*
X122293030Y-93278090D01*
X122363699Y-93263069D01*
X122520596Y-93149076D01*
X122539049Y-93117114D01*
X123140964Y-92515201D01*
X123547420Y-92515201D01*
X123547420Y-92683810D01*
X123570502Y-92799848D01*
X123643261Y-92908740D01*
X123752153Y-92981499D01*
X123868191Y-93004581D01*
X124645910Y-93004581D01*
X124522804Y-93094024D01*
X124504352Y-93125983D01*
X123061518Y-94568819D01*
X122486090Y-94568819D01*
X122370052Y-94591901D01*
X122261160Y-94664660D01*
X122188401Y-94773552D01*
X122165319Y-94889590D01*
X122165319Y-95864410D01*
X122188401Y-95980448D01*
X122261160Y-96089340D01*
X122370052Y-96162099D01*
X122486090Y-96185181D01*
X123385910Y-96185181D01*
X123501948Y-96162099D01*
X123610840Y-96089340D01*
X123683599Y-95980448D01*
X123706681Y-95864410D01*
X123706681Y-95213981D01*
X124828620Y-94092043D01*
X124832760Y-94098239D01*
X124941652Y-94170998D01*
X125057690Y-94194080D01*
X125226299Y-94194080D01*
X125226300Y-97878112D01*
X125157151Y-97928351D01*
X125021380Y-98115224D01*
X124950001Y-98334907D01*
X124950001Y-98565893D01*
X125021380Y-98785576D01*
X125157151Y-98972449D01*
X125344024Y-99108220D01*
X125563707Y-99179599D01*
X125794693Y-99179599D01*
X126014376Y-99108220D01*
X126201249Y-98972449D01*
X126233677Y-98927815D01*
X126220001Y-98969907D01*
X126220001Y-99200893D01*
X126291380Y-99420576D01*
X126427151Y-99607449D01*
X126614024Y-99743220D01*
X126833707Y-99814599D01*
X127064693Y-99814599D01*
X127284376Y-99743220D01*
X127471249Y-99607449D01*
X127555327Y-99491725D01*
X127620951Y-99582049D01*
X127807824Y-99717820D01*
X128027507Y-99789199D01*
X128258493Y-99789199D01*
X128478175Y-99717820D01*
X128483158Y-99714200D01*
X129274618Y-99714200D01*
X129381023Y-99778260D01*
X129593933Y-99824100D01*
X129812322Y-99798252D01*
X129833216Y-99798252D01*
X130052899Y-99726873D01*
X130239772Y-99591102D01*
X130375543Y-99404229D01*
X130446922Y-99184546D01*
X130446922Y-98953560D01*
X130375543Y-98733877D01*
X130239772Y-98547004D01*
X130052899Y-98411233D01*
X129833216Y-98339854D01*
X129602230Y-98339854D01*
X129399267Y-98405800D01*
X128483158Y-98405800D01*
X128478175Y-98402180D01*
X128326777Y-98352988D01*
X128496661Y-98183104D01*
X128565006Y-98121567D01*
X128578567Y-98079828D01*
X128617913Y-98019239D01*
X128648251Y-97827691D01*
X128638700Y-97792044D01*
X128638700Y-93358156D01*
X128628081Y-93308195D01*
X128628081Y-93004581D01*
X128954261Y-93004581D01*
X128986943Y-93015200D01*
X130609037Y-93015200D01*
X131029819Y-93435983D01*
X131029819Y-94086410D01*
X131052901Y-94202448D01*
X131125660Y-94311340D01*
X131146300Y-94325131D01*
X131146301Y-98997334D01*
X131122201Y-99071507D01*
X131122201Y-99302493D01*
X131193580Y-99522176D01*
X131329351Y-99709049D01*
X131516224Y-99844820D01*
X131735907Y-99916199D01*
X131966893Y-99916199D01*
X132186576Y-99844820D01*
X132373449Y-99709049D01*
X132509220Y-99522176D01*
X132580599Y-99302493D01*
X132580599Y-99071507D01*
X132509220Y-98851824D01*
X132454700Y-98776783D01*
X132454700Y-94325131D01*
X132475340Y-94311340D01*
X132548099Y-94202448D01*
X132571181Y-94086410D01*
X132571181Y-93111590D01*
X132548099Y-92995552D01*
X132475340Y-92886660D01*
X132366448Y-92813901D01*
X132250410Y-92790819D01*
X131674983Y-92790819D01*
X131399364Y-92515201D01*
X134675348Y-92515201D01*
X135065511Y-92905366D01*
X135065511Y-93104893D01*
X135089912Y-93179991D01*
X135015049Y-93076951D01*
X134828176Y-92941180D01*
X134608493Y-92869801D01*
X134377507Y-92869801D01*
X134157824Y-92941180D01*
X134109990Y-92975933D01*
X134050340Y-92886660D01*
X133941448Y-92813901D01*
X133825410Y-92790819D01*
X132925590Y-92790819D01*
X132809552Y-92813901D01*
X132700660Y-92886660D01*
X132627901Y-92995552D01*
X132604819Y-93111590D01*
X132604819Y-94086410D01*
X132627901Y-94202448D01*
X132700660Y-94311340D01*
X132809552Y-94384099D01*
X132925590Y-94407181D01*
X133825410Y-94407181D01*
X133941448Y-94384099D01*
X134050340Y-94311340D01*
X134109990Y-94222067D01*
X134157824Y-94256820D01*
X134377507Y-94328199D01*
X134608493Y-94328199D01*
X134828176Y-94256820D01*
X135015049Y-94121049D01*
X135150820Y-93934176D01*
X135222199Y-93714493D01*
X135222199Y-93483507D01*
X135197798Y-93408409D01*
X135272661Y-93511449D01*
X135459534Y-93647220D01*
X135679217Y-93718599D01*
X135910203Y-93718599D01*
X136129886Y-93647220D01*
X136316759Y-93511449D01*
X136452530Y-93324576D01*
X136523909Y-93104893D01*
X136523909Y-92873907D01*
X136452530Y-92654224D01*
X136316759Y-92467351D01*
X136129886Y-92331580D01*
X135910203Y-92260201D01*
X135710675Y-92260201D01*
X135321344Y-91870871D01*
X135370649Y-91835049D01*
X135506420Y-91648176D01*
X135577799Y-91428493D01*
X135577799Y-91197507D01*
X135506420Y-90977824D01*
X135370649Y-90790951D01*
X135248769Y-90702400D01*
X135304800Y-90702400D01*
X135304811Y-86488000D01*
X136779163Y-86488000D01*
X136779163Y-87251588D01*
X136859795Y-87552512D01*
X137007185Y-87728165D01*
X137200814Y-87839956D01*
X137409976Y-87876837D01*
X137918000Y-87876837D01*
X137918000Y-86488000D01*
X138174000Y-86488000D01*
X138174000Y-87876837D01*
X138687588Y-87876837D01*
X138988512Y-87796205D01*
X139164165Y-87648815D01*
X139275956Y-87455186D01*
X139312837Y-87246024D01*
X139312837Y-86488000D01*
X138174000Y-86488000D01*
X137918000Y-86488000D01*
X136779163Y-86488000D01*
X135304811Y-86488000D01*
X135304814Y-85419200D01*
X136788821Y-85419200D01*
X136779163Y-85473976D01*
X136779163Y-86232000D01*
X139312837Y-86232000D01*
X139312837Y-85468412D01*
X139299651Y-85419200D01*
X139766801Y-85419200D01*
X139766800Y-86427895D01*
X139792398Y-86630518D01*
X139887819Y-86871524D01*
X139887819Y-87247410D01*
X139910901Y-87363448D01*
X139983660Y-87472340D01*
X140092552Y-87545099D01*
X140208590Y-87568181D01*
X141483410Y-87568181D01*
X141599448Y-87545099D01*
X141708340Y-87472340D01*
X141781099Y-87363448D01*
X141804181Y-87247410D01*
X141804181Y-86857225D01*
X141859336Y-86756898D01*
X141925200Y-86411626D01*
X141925200Y-85419200D01*
X145370801Y-85419200D01*
X145370800Y-104270095D01*
X145276410Y-104251319D01*
X144160681Y-104251319D01*
X144160681Y-103135590D01*
X144137599Y-103019552D01*
X144064840Y-102910660D01*
X143955948Y-102837901D01*
X143839910Y-102814819D01*
X143688090Y-102814819D01*
X143572052Y-102837901D01*
X143463160Y-102910660D01*
X143390401Y-103019552D01*
X143367319Y-103135590D01*
X143367319Y-104251319D01*
X142251590Y-104251319D01*
X142135552Y-104274401D01*
X142026660Y-104347160D01*
X141953901Y-104456052D01*
X141930819Y-104572090D01*
X141930819Y-104723910D01*
X141953901Y-104839948D01*
X142026660Y-104948840D01*
X142135552Y-105021599D01*
X142251590Y-105044681D01*
X143367319Y-105044681D01*
X143367319Y-106046000D01*
X140329200Y-106046000D01*
X140329200Y-105624656D01*
X140334568Y-105588951D01*
X140333439Y-105574319D01*
X140320580Y-105407209D01*
X140316000Y-105392459D01*
X140315551Y-105376854D01*
X140311829Y-105362614D01*
X140257333Y-105153399D01*
X140248326Y-105136060D01*
X140243855Y-105117073D01*
X140237410Y-105103902D01*
X140141849Y-104909698D01*
X140129543Y-104894529D01*
X140121263Y-104876650D01*
X140112233Y-104865027D01*
X139979724Y-104694197D01*
X139964616Y-104681809D01*
X139952977Y-104666051D01*
X139941851Y-104656497D01*
X139777577Y-104515698D01*
X139760286Y-104506600D01*
X139745754Y-104493539D01*
X139732944Y-104486408D01*
X139543666Y-104381490D01*
X139524900Y-104376056D01*
X139507790Y-104366038D01*
X139493734Y-104361676D01*
X139287545Y-104297060D01*
X139268073Y-104295510D01*
X139249502Y-104289206D01*
X139234913Y-104287715D01*
X139019680Y-104265852D01*
X138979673Y-104270800D01*
X138324656Y-104270800D01*
X138288951Y-104265432D01*
X138274342Y-104266559D01*
X138107209Y-104279420D01*
X138092459Y-104284000D01*
X138076854Y-104284449D01*
X138062614Y-104288171D01*
X137853399Y-104342667D01*
X137836060Y-104351674D01*
X137817073Y-104356145D01*
X137803902Y-104362590D01*
X137609698Y-104458151D01*
X137594529Y-104470457D01*
X137576650Y-104478737D01*
X137565027Y-104487767D01*
X137394197Y-104620276D01*
X137381809Y-104635384D01*
X137366051Y-104647023D01*
X137356497Y-104658149D01*
X137215698Y-104822423D01*
X137206600Y-104839714D01*
X137193539Y-104854246D01*
X137186408Y-104867056D01*
X137081490Y-105056334D01*
X137076056Y-105075100D01*
X137066038Y-105092210D01*
X137061696Y-105106200D01*
X136997060Y-105312455D01*
X136995510Y-105331927D01*
X136989206Y-105350498D01*
X136987715Y-105365087D01*
X136965852Y-105580320D01*
X136970801Y-105620335D01*
X136970801Y-106046000D01*
X131240800Y-106046000D01*
X131240800Y-105370291D01*
X131306649Y-105322449D01*
X131442420Y-105135576D01*
X131513799Y-104915893D01*
X131513799Y-104684907D01*
X131442420Y-104465224D01*
X131306649Y-104278351D01*
X131119776Y-104142580D01*
X130900093Y-104071201D01*
X130669107Y-104071201D01*
X130449424Y-104142580D01*
X130262551Y-104278351D01*
X130126780Y-104465224D01*
X130055401Y-104684907D01*
X130055401Y-104695107D01*
X129949109Y-104594592D01*
X129932285Y-104584662D01*
X129918372Y-104570870D01*
X129905918Y-104563131D01*
X129730622Y-104454444D01*
X129712140Y-104448098D01*
X129695765Y-104437403D01*
X129682013Y-104432321D01*
X129488418Y-104361091D01*
X129469040Y-104358592D01*
X129450693Y-104351346D01*
X129436114Y-104349159D01*
X129232386Y-104318347D01*
X129212902Y-104319795D01*
X129193563Y-104316403D01*
X129178918Y-104317167D01*
X128972994Y-104327959D01*
X128954204Y-104333294D01*
X128934504Y-104333861D01*
X128920265Y-104337583D01*
X128720828Y-104389532D01*
X128703491Y-104398538D01*
X128684351Y-104403045D01*
X128671207Y-104409517D01*
X128671207Y-104409516D01*
X128486197Y-104500553D01*
X128471025Y-104512860D01*
X128453244Y-104521095D01*
X128441648Y-104530073D01*
X128278679Y-104656485D01*
X128266292Y-104671592D01*
X128250534Y-104683231D01*
X128240980Y-104694357D01*
X128106757Y-104850959D01*
X128097660Y-104868249D01*
X128084495Y-104882896D01*
X128077415Y-104895689D01*
X127977449Y-105076031D01*
X127972016Y-105094794D01*
X127970226Y-105097852D01*
X127928449Y-105040351D01*
X127741576Y-104904580D01*
X127521893Y-104833201D01*
X127290907Y-104833201D01*
X127071224Y-104904580D01*
X126884351Y-105040351D01*
X126836509Y-105106200D01*
X125626863Y-105106200D01*
X124678661Y-104157999D01*
X124829493Y-104157999D01*
X125049176Y-104086620D01*
X125236049Y-103950849D01*
X125246983Y-103935800D01*
X135116909Y-103935800D01*
X135164751Y-104001649D01*
X135351624Y-104137420D01*
X135571307Y-104208799D01*
X135802293Y-104208799D01*
X136021976Y-104137420D01*
X136208849Y-104001649D01*
X136344620Y-103814776D01*
X136415999Y-103595093D01*
X136415999Y-103364107D01*
X136344620Y-103144424D01*
X136208849Y-102957551D01*
X136021976Y-102821780D01*
X135802293Y-102750401D01*
X135653999Y-102750401D01*
X135653999Y-102602107D01*
X135582620Y-102382424D01*
X135446849Y-102195551D01*
X135259976Y-102059780D01*
X135040293Y-101988401D01*
X134809307Y-101988401D01*
X134589624Y-102059780D01*
X134402751Y-102195551D01*
X134354909Y-102261400D01*
X126152054Y-102261400D01*
X126048849Y-102119351D01*
X125861976Y-101983580D01*
X125642293Y-101912201D01*
X125411307Y-101912201D01*
X125191624Y-101983580D01*
X125004751Y-102119351D01*
X124868980Y-102306224D01*
X124797601Y-102525907D01*
X124797601Y-102699601D01*
X124598507Y-102699601D01*
X124378824Y-102770980D01*
X124344700Y-102795773D01*
X124344700Y-102373910D01*
X124349513Y-102282069D01*
X124329590Y-102242969D01*
X124314569Y-102172301D01*
X124200576Y-102015404D01*
X124168615Y-101996951D01*
X123442530Y-101270867D01*
X123380967Y-101202494D01*
X123339225Y-101188932D01*
X123278640Y-101149587D01*
X123087092Y-101119249D01*
X123051445Y-101128800D01*
X121298464Y-101128800D01*
X121227200Y-101057537D01*
X121227200Y-100919422D01*
X121232014Y-100827571D01*
X121212089Y-100788465D01*
X121197069Y-100717800D01*
X121083075Y-100560904D01*
X121051116Y-100542452D01*
X120620681Y-100112018D01*
X120620681Y-99461590D01*
X120597599Y-99345552D01*
X120524840Y-99236660D01*
X120415948Y-99163901D01*
X120299910Y-99140819D01*
X119400090Y-99140819D01*
X119284052Y-99163901D01*
X119175160Y-99236660D01*
X119102401Y-99345552D01*
X119079319Y-99461590D01*
X119079319Y-100436410D01*
X119102401Y-100552448D01*
X119175160Y-100661340D01*
X119284052Y-100734099D01*
X119393800Y-100755930D01*
X119393801Y-101100459D01*
X119323160Y-101147660D01*
X119250401Y-101256552D01*
X119227319Y-101372590D01*
X119227319Y-101797410D01*
X119228670Y-101804200D01*
X118642330Y-101804200D01*
X118643681Y-101797410D01*
X118643681Y-101372590D01*
X118620599Y-101256552D01*
X118547840Y-101147660D01*
X118438948Y-101074901D01*
X118322910Y-101051819D01*
X117648090Y-101051819D01*
X117532052Y-101074901D01*
X117423160Y-101147660D01*
X117350401Y-101256552D01*
X117327319Y-101372590D01*
X117327319Y-101797410D01*
X117349715Y-101910000D01*
X117327319Y-102022590D01*
X117327319Y-102447410D01*
X117349715Y-102560000D01*
X117336054Y-102628678D01*
X117315931Y-102648801D01*
X117296007Y-102648801D01*
X117076324Y-102720180D01*
X116889451Y-102855951D01*
X116753680Y-103042824D01*
X116682301Y-103262507D01*
X116682301Y-103493493D01*
X116753680Y-103713176D01*
X116889451Y-103900049D01*
X117076324Y-104035820D01*
X117296007Y-104107199D01*
X117526993Y-104107199D01*
X117746676Y-104035820D01*
X117933549Y-103900049D01*
X118069320Y-103713176D01*
X118140699Y-103493493D01*
X118140699Y-103473569D01*
X118170424Y-103443844D01*
X118199080Y-103438507D01*
X118232056Y-103418181D01*
X118322910Y-103418181D01*
X118438948Y-103395099D01*
X118547840Y-103322340D01*
X118620599Y-103213448D01*
X118643681Y-103097410D01*
X118643681Y-102672590D01*
X118642330Y-102665800D01*
X119228670Y-102665800D01*
X119227319Y-102672590D01*
X119227319Y-103097410D01*
X119250401Y-103213448D01*
X119323160Y-103322340D01*
X119432052Y-103395099D01*
X119454700Y-103399604D01*
X119454701Y-103787133D01*
X119298824Y-103837780D01*
X119111951Y-103973551D01*
X118976180Y-104160424D01*
X118904801Y-104380107D01*
X118904801Y-104578136D01*
X118851496Y-104626132D01*
X118837935Y-104667871D01*
X118798588Y-104728459D01*
X118768250Y-104920008D01*
X118777802Y-104955658D01*
X118777801Y-105582311D01*
X118772988Y-105674153D01*
X118792911Y-105713252D01*
X118807931Y-105783920D01*
X118860289Y-105855985D01*
X118860289Y-105950093D01*
X118784293Y-105925401D01*
X118553307Y-105925401D01*
X118381999Y-105981062D01*
X118381999Y-105904107D01*
X118310620Y-105684424D01*
X118174849Y-105497551D01*
X117987976Y-105361780D01*
X117768293Y-105290401D01*
X117537307Y-105290401D01*
X117317624Y-105361780D01*
X117312571Y-105365451D01*
X117311829Y-105362614D01*
X117257333Y-105153399D01*
X117248326Y-105136060D01*
X117243855Y-105117073D01*
X117237410Y-105103902D01*
X117141849Y-104909698D01*
X117129543Y-104894529D01*
X117121263Y-104876650D01*
X117112233Y-104865027D01*
X116979724Y-104694197D01*
X116964616Y-104681809D01*
X116952977Y-104666051D01*
X116941851Y-104656497D01*
X116777577Y-104515698D01*
X116760286Y-104506600D01*
X116745754Y-104493539D01*
X116732944Y-104486408D01*
X116543666Y-104381490D01*
X116524900Y-104376056D01*
X116507790Y-104366038D01*
X116493734Y-104361676D01*
X116287545Y-104297060D01*
X116268073Y-104295510D01*
X116249502Y-104289206D01*
X116234913Y-104287715D01*
X116019680Y-104265852D01*
X115979673Y-104270800D01*
X115524656Y-104270800D01*
X115488951Y-104265432D01*
X115474342Y-104266559D01*
X115307209Y-104279420D01*
X115292459Y-104284000D01*
X115276854Y-104284449D01*
X115262614Y-104288171D01*
X115053399Y-104342667D01*
X115036060Y-104351674D01*
X115017073Y-104356145D01*
X115003902Y-104362590D01*
X114809698Y-104458151D01*
X114794529Y-104470457D01*
X114776650Y-104478737D01*
X114765027Y-104487767D01*
X114594197Y-104620276D01*
X114581809Y-104635384D01*
X114566051Y-104647023D01*
X114556497Y-104658149D01*
X114415698Y-104822423D01*
X114406600Y-104839714D01*
X114393539Y-104854246D01*
X114386408Y-104867056D01*
X114281490Y-105056334D01*
X114276056Y-105075100D01*
X114266038Y-105092210D01*
X114261696Y-105106200D01*
X114197060Y-105312455D01*
X114195510Y-105331927D01*
X114189206Y-105350498D01*
X114187715Y-105365087D01*
X114165852Y-105580320D01*
X114170800Y-105620327D01*
X114170800Y-106046000D01*
X111101862Y-106046000D01*
X111117599Y-106022448D01*
X111140681Y-105906410D01*
X111140681Y-104790681D01*
X112256410Y-104790681D01*
X112372448Y-104767599D01*
X112481340Y-104694840D01*
X112554099Y-104585948D01*
X112577181Y-104469910D01*
X112577181Y-104318090D01*
X112554099Y-104202052D01*
X112481340Y-104093160D01*
X112372448Y-104020401D01*
X112256410Y-103997319D01*
X111140681Y-103997319D01*
X111140681Y-102881590D01*
X111117599Y-102765552D01*
X111044840Y-102656660D01*
X110935948Y-102583901D01*
X110819910Y-102560819D01*
X110668090Y-102560819D01*
X110552052Y-102583901D01*
X110443160Y-102656660D01*
X110370401Y-102765552D01*
X110347319Y-102881590D01*
X110347319Y-103997319D01*
X109329200Y-103997319D01*
X109329200Y-99897007D01*
X116745801Y-99897007D01*
X116745801Y-100127993D01*
X116817180Y-100347676D01*
X116952951Y-100534549D01*
X117139824Y-100670320D01*
X117359507Y-100741699D01*
X117590493Y-100741699D01*
X117677915Y-100713294D01*
X117709052Y-100734099D01*
X117825090Y-100757181D01*
X118724910Y-100757181D01*
X118840948Y-100734099D01*
X118949840Y-100661340D01*
X119022599Y-100552448D01*
X119045681Y-100436410D01*
X119045681Y-99461590D01*
X119022599Y-99345552D01*
X118949840Y-99236660D01*
X118840948Y-99163901D01*
X118724910Y-99140819D01*
X117825090Y-99140819D01*
X117709052Y-99163901D01*
X117600160Y-99236660D01*
X117568996Y-99283301D01*
X117359507Y-99283301D01*
X117139824Y-99354680D01*
X116952951Y-99490451D01*
X116817180Y-99677324D01*
X116745801Y-99897007D01*
X109329200Y-99897007D01*
X109329200Y-95261507D01*
X119539801Y-95261507D01*
X119539801Y-95492493D01*
X119611180Y-95712176D01*
X119746951Y-95899049D01*
X119933824Y-96034820D01*
X120153507Y-96106199D01*
X120384493Y-96106199D01*
X120604176Y-96034820D01*
X120634843Y-96012539D01*
X120686160Y-96089340D01*
X120795052Y-96162099D01*
X120911090Y-96185181D01*
X121810910Y-96185181D01*
X121926948Y-96162099D01*
X122035840Y-96089340D01*
X122108599Y-95980448D01*
X122131681Y-95864410D01*
X122131681Y-94889590D01*
X122108599Y-94773552D01*
X122035840Y-94664660D01*
X121926948Y-94591901D01*
X121810910Y-94568819D01*
X120911090Y-94568819D01*
X120795052Y-94591901D01*
X120686160Y-94664660D01*
X120634843Y-94741461D01*
X120604176Y-94719180D01*
X120384493Y-94647801D01*
X120153507Y-94647801D01*
X119933824Y-94719180D01*
X119746951Y-94854951D01*
X119611180Y-95041824D01*
X119539801Y-95261507D01*
X109329200Y-95261507D01*
X109329200Y-92965000D01*
X118656163Y-92965000D01*
X118656163Y-93328588D01*
X118736795Y-93629512D01*
X118884185Y-93805165D01*
X119077814Y-93916956D01*
X119286976Y-93953837D01*
X119607500Y-93953837D01*
X119607500Y-92965000D01*
X118656163Y-92965000D01*
X109329200Y-92965000D01*
X109329200Y-85419200D01*
X112328801Y-85419200D01*
X112328800Y-86427895D01*
X112328800Y-86427895D01*
G37*
X112328800Y-86427895D02*
X112354398Y-86630518D01*
X112449819Y-86871524D01*
X112449819Y-87247410D01*
X112472901Y-87363448D01*
X112545660Y-87472340D01*
X112654552Y-87545099D01*
X112770590Y-87568181D01*
X114045410Y-87568181D01*
X114161448Y-87545099D01*
X114270340Y-87472340D01*
X114343099Y-87363448D01*
X114366181Y-87247410D01*
X114366181Y-86857225D01*
X114421336Y-86756898D01*
X114472630Y-86488000D01*
X114941163Y-86488000D01*
X114941163Y-87251588D01*
X115021795Y-87552512D01*
X115169185Y-87728165D01*
X115362814Y-87839956D01*
X115571976Y-87876837D01*
X116080000Y-87876837D01*
X116080000Y-86488000D01*
X116336000Y-86488000D01*
X116336000Y-87876837D01*
X116849588Y-87876837D01*
X117150512Y-87796205D01*
X117326165Y-87648815D01*
X117437956Y-87455186D01*
X117474837Y-87246024D01*
X117474837Y-86488000D01*
X116336000Y-86488000D01*
X116080000Y-86488000D01*
X114941163Y-86488000D01*
X114472630Y-86488000D01*
X114487200Y-86411626D01*
X114487200Y-85419200D01*
X114950821Y-85419200D01*
X114941163Y-85473976D01*
X114941163Y-86232000D01*
X117474837Y-86232000D01*
X117474837Y-85468412D01*
X117461651Y-85419200D01*
X117983986Y-85419200D01*
X117983999Y-90021437D01*
X117965001Y-90079906D01*
X117965001Y-90310893D01*
X117983999Y-90369366D01*
X117984001Y-90676804D01*
X118142800Y-90677051D01*
X118172151Y-90717449D01*
X118359024Y-90853220D01*
X118578707Y-90924599D01*
X118809693Y-90924599D01*
X118939319Y-90882481D01*
X118939319Y-91673410D01*
X118962401Y-91789448D01*
X118973757Y-91806444D01*
X118804835Y-91948185D01*
X118693044Y-92141814D01*
X118656163Y-92350976D01*
X118656163Y-92709000D01*
X119863500Y-92709000D01*
X119863500Y-93953837D01*
X120189588Y-93953837D01*
X120490512Y-93873205D01*
X120666165Y-93725815D01*
X120731197Y-93613176D01*
X120744552Y-93622099D01*
X120860590Y-93645181D01*
X121760410Y-93645181D01*
X121876448Y-93622099D01*
X121985340Y-93549340D01*
X122058099Y-93440448D01*
X122081181Y-93324410D01*
X122081181Y-93293200D01*
X122162089Y-93293200D01*
X122253928Y-93298013D01*
X122293030Y-93278090D01*
X122363699Y-93263069D01*
X122520596Y-93149076D01*
X122539049Y-93117114D01*
X123140964Y-92515201D01*
X123547420Y-92515201D01*
X123547420Y-92683810D01*
X123570502Y-92799848D01*
X123643261Y-92908740D01*
X123752153Y-92981499D01*
X123868191Y-93004581D01*
X124645910Y-93004581D01*
X124522804Y-93094024D01*
X124504352Y-93125983D01*
X123061518Y-94568819D01*
X122486090Y-94568819D01*
X122370052Y-94591901D01*
X122261160Y-94664660D01*
X122188401Y-94773552D01*
X122165319Y-94889590D01*
X122165319Y-95864410D01*
X122188401Y-95980448D01*
X122261160Y-96089340D01*
X122370052Y-96162099D01*
X122486090Y-96185181D01*
X123385910Y-96185181D01*
X123501948Y-96162099D01*
X123610840Y-96089340D01*
X123683599Y-95980448D01*
X123706681Y-95864410D01*
X123706681Y-95213981D01*
X124828620Y-94092043D01*
X124832760Y-94098239D01*
X124941652Y-94170998D01*
X125057690Y-94194080D01*
X125226299Y-94194080D01*
X125226300Y-97878112D01*
X125157151Y-97928351D01*
X125021380Y-98115224D01*
X124950001Y-98334907D01*
X124950001Y-98565893D01*
X125021380Y-98785576D01*
X125157151Y-98972449D01*
X125344024Y-99108220D01*
X125563707Y-99179599D01*
X125794693Y-99179599D01*
X126014376Y-99108220D01*
X126201249Y-98972449D01*
X126233677Y-98927815D01*
X126220001Y-98969907D01*
X126220001Y-99200893D01*
X126291380Y-99420576D01*
X126427151Y-99607449D01*
X126614024Y-99743220D01*
X126833707Y-99814599D01*
X127064693Y-99814599D01*
X127284376Y-99743220D01*
X127471249Y-99607449D01*
X127555327Y-99491725D01*
X127620951Y-99582049D01*
X127807824Y-99717820D01*
X128027507Y-99789199D01*
X128258493Y-99789199D01*
X128478175Y-99717820D01*
X128483158Y-99714200D01*
X129274618Y-99714200D01*
X129381023Y-99778260D01*
X129593933Y-99824100D01*
X129812322Y-99798252D01*
X129833216Y-99798252D01*
X130052899Y-99726873D01*
X130239772Y-99591102D01*
X130375543Y-99404229D01*
X130446922Y-99184546D01*
X130446922Y-98953560D01*
X130375543Y-98733877D01*
X130239772Y-98547004D01*
X130052899Y-98411233D01*
X129833216Y-98339854D01*
X129602230Y-98339854D01*
X129399267Y-98405800D01*
X128483158Y-98405800D01*
X128478175Y-98402180D01*
X128326777Y-98352988D01*
X128496661Y-98183104D01*
X128565006Y-98121567D01*
X128578567Y-98079828D01*
X128617913Y-98019239D01*
X128648251Y-97827691D01*
X128638700Y-97792044D01*
X128638700Y-93358156D01*
X128628081Y-93308195D01*
X128628081Y-93004581D01*
X128954261Y-93004581D01*
X128986943Y-93015200D01*
X130609037Y-93015200D01*
X131029819Y-93435983D01*
X131029819Y-94086410D01*
X131052901Y-94202448D01*
X131125660Y-94311340D01*
X131146300Y-94325131D01*
X131146301Y-98997334D01*
X131122201Y-99071507D01*
X131122201Y-99302493D01*
X131193580Y-99522176D01*
X131329351Y-99709049D01*
X131516224Y-99844820D01*
X131735907Y-99916199D01*
X131966893Y-99916199D01*
X132186576Y-99844820D01*
X132373449Y-99709049D01*
X132509220Y-99522176D01*
X132580599Y-99302493D01*
X132580599Y-99071507D01*
X132509220Y-98851824D01*
X132454700Y-98776783D01*
X132454700Y-94325131D01*
X132475340Y-94311340D01*
X132548099Y-94202448D01*
X132571181Y-94086410D01*
X132571181Y-93111590D01*
X132548099Y-92995552D01*
X132475340Y-92886660D01*
X132366448Y-92813901D01*
X132250410Y-92790819D01*
X131674983Y-92790819D01*
X131399364Y-92515201D01*
X134675348Y-92515201D01*
X135065511Y-92905366D01*
X135065511Y-93104893D01*
X135089912Y-93179991D01*
X135015049Y-93076951D01*
X134828176Y-92941180D01*
X134608493Y-92869801D01*
X134377507Y-92869801D01*
X134157824Y-92941180D01*
X134109990Y-92975933D01*
X134050340Y-92886660D01*
X133941448Y-92813901D01*
X133825410Y-92790819D01*
X132925590Y-92790819D01*
X132809552Y-92813901D01*
X132700660Y-92886660D01*
X132627901Y-92995552D01*
X132604819Y-93111590D01*
X132604819Y-94086410D01*
X132627901Y-94202448D01*
X132700660Y-94311340D01*
X132809552Y-94384099D01*
X132925590Y-94407181D01*
X133825410Y-94407181D01*
X133941448Y-94384099D01*
X134050340Y-94311340D01*
X134109990Y-94222067D01*
X134157824Y-94256820D01*
X134377507Y-94328199D01*
X134608493Y-94328199D01*
X134828176Y-94256820D01*
X135015049Y-94121049D01*
X135150820Y-93934176D01*
X135222199Y-93714493D01*
X135222199Y-93483507D01*
X135197798Y-93408409D01*
X135272661Y-93511449D01*
X135459534Y-93647220D01*
X135679217Y-93718599D01*
X135910203Y-93718599D01*
X136129886Y-93647220D01*
X136316759Y-93511449D01*
X136452530Y-93324576D01*
X136523909Y-93104893D01*
X136523909Y-92873907D01*
X136452530Y-92654224D01*
X136316759Y-92467351D01*
X136129886Y-92331580D01*
X135910203Y-92260201D01*
X135710675Y-92260201D01*
X135321344Y-91870871D01*
X135370649Y-91835049D01*
X135506420Y-91648176D01*
X135577799Y-91428493D01*
X135577799Y-91197507D01*
X135506420Y-90977824D01*
X135370649Y-90790951D01*
X135248769Y-90702400D01*
X135304800Y-90702400D01*
X135304811Y-86488000D01*
X136779163Y-86488000D01*
X136779163Y-87251588D01*
X136859795Y-87552512D01*
X137007185Y-87728165D01*
X137200814Y-87839956D01*
X137409976Y-87876837D01*
X137918000Y-87876837D01*
X137918000Y-86488000D01*
X138174000Y-86488000D01*
X138174000Y-87876837D01*
X138687588Y-87876837D01*
X138988512Y-87796205D01*
X139164165Y-87648815D01*
X139275956Y-87455186D01*
X139312837Y-87246024D01*
X139312837Y-86488000D01*
X138174000Y-86488000D01*
X137918000Y-86488000D01*
X136779163Y-86488000D01*
X135304811Y-86488000D01*
X135304814Y-85419200D01*
X136788821Y-85419200D01*
X136779163Y-85473976D01*
X136779163Y-86232000D01*
X139312837Y-86232000D01*
X139312837Y-85468412D01*
X139299651Y-85419200D01*
X139766801Y-85419200D01*
X139766800Y-86427895D01*
X139792398Y-86630518D01*
X139887819Y-86871524D01*
X139887819Y-87247410D01*
X139910901Y-87363448D01*
X139983660Y-87472340D01*
X140092552Y-87545099D01*
X140208590Y-87568181D01*
X141483410Y-87568181D01*
X141599448Y-87545099D01*
X141708340Y-87472340D01*
X141781099Y-87363448D01*
X141804181Y-87247410D01*
X141804181Y-86857225D01*
X141859336Y-86756898D01*
X141925200Y-86411626D01*
X141925200Y-85419200D01*
X145370801Y-85419200D01*
X145370800Y-104270095D01*
X145276410Y-104251319D01*
X144160681Y-104251319D01*
X144160681Y-103135590D01*
X144137599Y-103019552D01*
X144064840Y-102910660D01*
X143955948Y-102837901D01*
X143839910Y-102814819D01*
X143688090Y-102814819D01*
X143572052Y-102837901D01*
X143463160Y-102910660D01*
X143390401Y-103019552D01*
X143367319Y-103135590D01*
X143367319Y-104251319D01*
X142251590Y-104251319D01*
X142135552Y-104274401D01*
X142026660Y-104347160D01*
X141953901Y-104456052D01*
X141930819Y-104572090D01*
X141930819Y-104723910D01*
X141953901Y-104839948D01*
X142026660Y-104948840D01*
X142135552Y-105021599D01*
X142251590Y-105044681D01*
X143367319Y-105044681D01*
X143367319Y-106046000D01*
X140329200Y-106046000D01*
X140329200Y-105624656D01*
X140334568Y-105588951D01*
X140333439Y-105574319D01*
X140320580Y-105407209D01*
X140316000Y-105392459D01*
X140315551Y-105376854D01*
X140311829Y-105362614D01*
X140257333Y-105153399D01*
X140248326Y-105136060D01*
X140243855Y-105117073D01*
X140237410Y-105103902D01*
X140141849Y-104909698D01*
X140129543Y-104894529D01*
X140121263Y-104876650D01*
X140112233Y-104865027D01*
X139979724Y-104694197D01*
X139964616Y-104681809D01*
X139952977Y-104666051D01*
X139941851Y-104656497D01*
X139777577Y-104515698D01*
X139760286Y-104506600D01*
X139745754Y-104493539D01*
X139732944Y-104486408D01*
X139543666Y-104381490D01*
X139524900Y-104376056D01*
X139507790Y-104366038D01*
X139493734Y-104361676D01*
X139287545Y-104297060D01*
X139268073Y-104295510D01*
X139249502Y-104289206D01*
X139234913Y-104287715D01*
X139019680Y-104265852D01*
X138979673Y-104270800D01*
X138324656Y-104270800D01*
X138288951Y-104265432D01*
X138274342Y-104266559D01*
X138107209Y-104279420D01*
X138092459Y-104284000D01*
X138076854Y-104284449D01*
X138062614Y-104288171D01*
X137853399Y-104342667D01*
X137836060Y-104351674D01*
X137817073Y-104356145D01*
X137803902Y-104362590D01*
X137609698Y-104458151D01*
X137594529Y-104470457D01*
X137576650Y-104478737D01*
X137565027Y-104487767D01*
X137394197Y-104620276D01*
X137381809Y-104635384D01*
X137366051Y-104647023D01*
X137356497Y-104658149D01*
X137215698Y-104822423D01*
X137206600Y-104839714D01*
X137193539Y-104854246D01*
X137186408Y-104867056D01*
X137081490Y-105056334D01*
X137076056Y-105075100D01*
X137066038Y-105092210D01*
X137061696Y-105106200D01*
X136997060Y-105312455D01*
X136995510Y-105331927D01*
X136989206Y-105350498D01*
X136987715Y-105365087D01*
X136965852Y-105580320D01*
X136970801Y-105620335D01*
X136970801Y-106046000D01*
X131240800Y-106046000D01*
X131240800Y-105370291D01*
X131306649Y-105322449D01*
X131442420Y-105135576D01*
X131513799Y-104915893D01*
X131513799Y-104684907D01*
X131442420Y-104465224D01*
X131306649Y-104278351D01*
X131119776Y-104142580D01*
X130900093Y-104071201D01*
X130669107Y-104071201D01*
X130449424Y-104142580D01*
X130262551Y-104278351D01*
X130126780Y-104465224D01*
X130055401Y-104684907D01*
X130055401Y-104695107D01*
X129949109Y-104594592D01*
X129932285Y-104584662D01*
X129918372Y-104570870D01*
X129905918Y-104563131D01*
X129730622Y-104454444D01*
X129712140Y-104448098D01*
X129695765Y-104437403D01*
X129682013Y-104432321D01*
X129488418Y-104361091D01*
X129469040Y-104358592D01*
X129450693Y-104351346D01*
X129436114Y-104349159D01*
X129232386Y-104318347D01*
X129212902Y-104319795D01*
X129193563Y-104316403D01*
X129178918Y-104317167D01*
X128972994Y-104327959D01*
X128954204Y-104333294D01*
X128934504Y-104333861D01*
X128920265Y-104337583D01*
X128720828Y-104389532D01*
X128703491Y-104398538D01*
X128684351Y-104403045D01*
X128671207Y-104409517D01*
X128671207Y-104409516D01*
X128486197Y-104500553D01*
X128471025Y-104512860D01*
X128453244Y-104521095D01*
X128441648Y-104530073D01*
X128278679Y-104656485D01*
X128266292Y-104671592D01*
X128250534Y-104683231D01*
X128240980Y-104694357D01*
X128106757Y-104850959D01*
X128097660Y-104868249D01*
X128084495Y-104882896D01*
X128077415Y-104895689D01*
X127977449Y-105076031D01*
X127972016Y-105094794D01*
X127970226Y-105097852D01*
X127928449Y-105040351D01*
X127741576Y-104904580D01*
X127521893Y-104833201D01*
X127290907Y-104833201D01*
X127071224Y-104904580D01*
X126884351Y-105040351D01*
X126836509Y-105106200D01*
X125626863Y-105106200D01*
X124678661Y-104157999D01*
X124829493Y-104157999D01*
X125049176Y-104086620D01*
X125236049Y-103950849D01*
X125246983Y-103935800D01*
X135116909Y-103935800D01*
X135164751Y-104001649D01*
X135351624Y-104137420D01*
X135571307Y-104208799D01*
X135802293Y-104208799D01*
X136021976Y-104137420D01*
X136208849Y-104001649D01*
X136344620Y-103814776D01*
X136415999Y-103595093D01*
X136415999Y-103364107D01*
X136344620Y-103144424D01*
X136208849Y-102957551D01*
X136021976Y-102821780D01*
X135802293Y-102750401D01*
X135653999Y-102750401D01*
X135653999Y-102602107D01*
X135582620Y-102382424D01*
X135446849Y-102195551D01*
X135259976Y-102059780D01*
X135040293Y-101988401D01*
X134809307Y-101988401D01*
X134589624Y-102059780D01*
X134402751Y-102195551D01*
X134354909Y-102261400D01*
X126152054Y-102261400D01*
X126048849Y-102119351D01*
X125861976Y-101983580D01*
X125642293Y-101912201D01*
X125411307Y-101912201D01*
X125191624Y-101983580D01*
X125004751Y-102119351D01*
X124868980Y-102306224D01*
X124797601Y-102525907D01*
X124797601Y-102699601D01*
X124598507Y-102699601D01*
X124378824Y-102770980D01*
X124344700Y-102795773D01*
X124344700Y-102373910D01*
X124349513Y-102282069D01*
X124329590Y-102242969D01*
X124314569Y-102172301D01*
X124200576Y-102015404D01*
X124168615Y-101996951D01*
X123442530Y-101270867D01*
X123380967Y-101202494D01*
X123339225Y-101188932D01*
X123278640Y-101149587D01*
X123087092Y-101119249D01*
X123051445Y-101128800D01*
X121298464Y-101128800D01*
X121227200Y-101057537D01*
X121227200Y-100919422D01*
X121232014Y-100827571D01*
X121212089Y-100788465D01*
X121197069Y-100717800D01*
X121083075Y-100560904D01*
X121051116Y-100542452D01*
X120620681Y-100112018D01*
X120620681Y-99461590D01*
X120597599Y-99345552D01*
X120524840Y-99236660D01*
X120415948Y-99163901D01*
X120299910Y-99140819D01*
X119400090Y-99140819D01*
X119284052Y-99163901D01*
X119175160Y-99236660D01*
X119102401Y-99345552D01*
X119079319Y-99461590D01*
X119079319Y-100436410D01*
X119102401Y-100552448D01*
X119175160Y-100661340D01*
X119284052Y-100734099D01*
X119393800Y-100755930D01*
X119393801Y-101100459D01*
X119323160Y-101147660D01*
X119250401Y-101256552D01*
X119227319Y-101372590D01*
X119227319Y-101797410D01*
X119228670Y-101804200D01*
X118642330Y-101804200D01*
X118643681Y-101797410D01*
X118643681Y-101372590D01*
X118620599Y-101256552D01*
X118547840Y-101147660D01*
X118438948Y-101074901D01*
X118322910Y-101051819D01*
X117648090Y-101051819D01*
X117532052Y-101074901D01*
X117423160Y-101147660D01*
X117350401Y-101256552D01*
X117327319Y-101372590D01*
X117327319Y-101797410D01*
X117349715Y-101910000D01*
X117327319Y-102022590D01*
X117327319Y-102447410D01*
X117349715Y-102560000D01*
X117336054Y-102628678D01*
X117315931Y-102648801D01*
X117296007Y-102648801D01*
X117076324Y-102720180D01*
X116889451Y-102855951D01*
X116753680Y-103042824D01*
X116682301Y-103262507D01*
X116682301Y-103493493D01*
X116753680Y-103713176D01*
X116889451Y-103900049D01*
X117076324Y-104035820D01*
X117296007Y-104107199D01*
X117526993Y-104107199D01*
X117746676Y-104035820D01*
X117933549Y-103900049D01*
X118069320Y-103713176D01*
X118140699Y-103493493D01*
X118140699Y-103473569D01*
X118170424Y-103443844D01*
X118199080Y-103438507D01*
X118232056Y-103418181D01*
X118322910Y-103418181D01*
X118438948Y-103395099D01*
X118547840Y-103322340D01*
X118620599Y-103213448D01*
X118643681Y-103097410D01*
X118643681Y-102672590D01*
X118642330Y-102665800D01*
X119228670Y-102665800D01*
X119227319Y-102672590D01*
X119227319Y-103097410D01*
X119250401Y-103213448D01*
X119323160Y-103322340D01*
X119432052Y-103395099D01*
X119454700Y-103399604D01*
X119454701Y-103787133D01*
X119298824Y-103837780D01*
X119111951Y-103973551D01*
X118976180Y-104160424D01*
X118904801Y-104380107D01*
X118904801Y-104578136D01*
X118851496Y-104626132D01*
X118837935Y-104667871D01*
X118798588Y-104728459D01*
X118768250Y-104920008D01*
X118777802Y-104955658D01*
X118777801Y-105582311D01*
X118772988Y-105674153D01*
X118792911Y-105713252D01*
X118807931Y-105783920D01*
X118860289Y-105855985D01*
X118860289Y-105950093D01*
X118784293Y-105925401D01*
X118553307Y-105925401D01*
X118381999Y-105981062D01*
X118381999Y-105904107D01*
X118310620Y-105684424D01*
X118174849Y-105497551D01*
X117987976Y-105361780D01*
X117768293Y-105290401D01*
X117537307Y-105290401D01*
X117317624Y-105361780D01*
X117312571Y-105365451D01*
X117311829Y-105362614D01*
X117257333Y-105153399D01*
X117248326Y-105136060D01*
X117243855Y-105117073D01*
X117237410Y-105103902D01*
X117141849Y-104909698D01*
X117129543Y-104894529D01*
X117121263Y-104876650D01*
X117112233Y-104865027D01*
X116979724Y-104694197D01*
X116964616Y-104681809D01*
X116952977Y-104666051D01*
X116941851Y-104656497D01*
X116777577Y-104515698D01*
X116760286Y-104506600D01*
X116745754Y-104493539D01*
X116732944Y-104486408D01*
X116543666Y-104381490D01*
X116524900Y-104376056D01*
X116507790Y-104366038D01*
X116493734Y-104361676D01*
X116287545Y-104297060D01*
X116268073Y-104295510D01*
X116249502Y-104289206D01*
X116234913Y-104287715D01*
X116019680Y-104265852D01*
X115979673Y-104270800D01*
X115524656Y-104270800D01*
X115488951Y-104265432D01*
X115474342Y-104266559D01*
X115307209Y-104279420D01*
X115292459Y-104284000D01*
X115276854Y-104284449D01*
X115262614Y-104288171D01*
X115053399Y-104342667D01*
X115036060Y-104351674D01*
X115017073Y-104356145D01*
X115003902Y-104362590D01*
X114809698Y-104458151D01*
X114794529Y-104470457D01*
X114776650Y-104478737D01*
X114765027Y-104487767D01*
X114594197Y-104620276D01*
X114581809Y-104635384D01*
X114566051Y-104647023D01*
X114556497Y-104658149D01*
X114415698Y-104822423D01*
X114406600Y-104839714D01*
X114393539Y-104854246D01*
X114386408Y-104867056D01*
X114281490Y-105056334D01*
X114276056Y-105075100D01*
X114266038Y-105092210D01*
X114261696Y-105106200D01*
X114197060Y-105312455D01*
X114195510Y-105331927D01*
X114189206Y-105350498D01*
X114187715Y-105365087D01*
X114165852Y-105580320D01*
X114170800Y-105620327D01*
X114170800Y-106046000D01*
X111101862Y-106046000D01*
X111117599Y-106022448D01*
X111140681Y-105906410D01*
X111140681Y-104790681D01*
X112256410Y-104790681D01*
X112372448Y-104767599D01*
X112481340Y-104694840D01*
X112554099Y-104585948D01*
X112577181Y-104469910D01*
X112577181Y-104318090D01*
X112554099Y-104202052D01*
X112481340Y-104093160D01*
X112372448Y-104020401D01*
X112256410Y-103997319D01*
X111140681Y-103997319D01*
X111140681Y-102881590D01*
X111117599Y-102765552D01*
X111044840Y-102656660D01*
X110935948Y-102583901D01*
X110819910Y-102560819D01*
X110668090Y-102560819D01*
X110552052Y-102583901D01*
X110443160Y-102656660D01*
X110370401Y-102765552D01*
X110347319Y-102881590D01*
X110347319Y-103997319D01*
X109329200Y-103997319D01*
X109329200Y-99897007D01*
X116745801Y-99897007D01*
X116745801Y-100127993D01*
X116817180Y-100347676D01*
X116952951Y-100534549D01*
X117139824Y-100670320D01*
X117359507Y-100741699D01*
X117590493Y-100741699D01*
X117677915Y-100713294D01*
X117709052Y-100734099D01*
X117825090Y-100757181D01*
X118724910Y-100757181D01*
X118840948Y-100734099D01*
X118949840Y-100661340D01*
X119022599Y-100552448D01*
X119045681Y-100436410D01*
X119045681Y-99461590D01*
X119022599Y-99345552D01*
X118949840Y-99236660D01*
X118840948Y-99163901D01*
X118724910Y-99140819D01*
X117825090Y-99140819D01*
X117709052Y-99163901D01*
X117600160Y-99236660D01*
X117568996Y-99283301D01*
X117359507Y-99283301D01*
X117139824Y-99354680D01*
X116952951Y-99490451D01*
X116817180Y-99677324D01*
X116745801Y-99897007D01*
X109329200Y-99897007D01*
X109329200Y-95261507D01*
X119539801Y-95261507D01*
X119539801Y-95492493D01*
X119611180Y-95712176D01*
X119746951Y-95899049D01*
X119933824Y-96034820D01*
X120153507Y-96106199D01*
X120384493Y-96106199D01*
X120604176Y-96034820D01*
X120634843Y-96012539D01*
X120686160Y-96089340D01*
X120795052Y-96162099D01*
X120911090Y-96185181D01*
X121810910Y-96185181D01*
X121926948Y-96162099D01*
X122035840Y-96089340D01*
X122108599Y-95980448D01*
X122131681Y-95864410D01*
X122131681Y-94889590D01*
X122108599Y-94773552D01*
X122035840Y-94664660D01*
X121926948Y-94591901D01*
X121810910Y-94568819D01*
X120911090Y-94568819D01*
X120795052Y-94591901D01*
X120686160Y-94664660D01*
X120634843Y-94741461D01*
X120604176Y-94719180D01*
X120384493Y-94647801D01*
X120153507Y-94647801D01*
X119933824Y-94719180D01*
X119746951Y-94854951D01*
X119611180Y-95041824D01*
X119539801Y-95261507D01*
X109329200Y-95261507D01*
X109329200Y-92965000D01*
X118656163Y-92965000D01*
X118656163Y-93328588D01*
X118736795Y-93629512D01*
X118884185Y-93805165D01*
X119077814Y-93916956D01*
X119286976Y-93953837D01*
X119607500Y-93953837D01*
X119607500Y-92965000D01*
X118656163Y-92965000D01*
X109329200Y-92965000D01*
X109329200Y-85419200D01*
X112328801Y-85419200D01*
X112328800Y-86427895D01*
G36*
X135052800Y-90450400D02*
G01*
X134559320Y-90450400D01*
X134447550Y-90338630D01*
X134437426Y-90317546D01*
X134382700Y-90273780D01*
X134366356Y-90257435D01*
X134347230Y-90245414D01*
X134292935Y-90201993D01*
X134269662Y-90196662D01*
X134249433Y-90183949D01*
X134179753Y-90176070D01*
X134157615Y-90171000D01*
X134134907Y-90171000D01*
X134065650Y-90163169D01*
X134043227Y-90171000D01*
X129882915Y-90171000D01*
X129875835Y-90166550D01*
X129806152Y-90158671D01*
X129784014Y-90153601D01*
X129765785Y-90153601D01*
X129765785Y-90092800D01*
X131715588Y-90092800D01*
X131840423Y-90059350D01*
X131943950Y-89955823D01*
X131977400Y-89830988D01*
X131977400Y-87918212D01*
X131943950Y-87793377D01*
X131873959Y-87723386D01*
X132133410Y-87723386D01*
X132229628Y-87704247D01*
X132304226Y-87654400D01*
X132925801Y-87654400D01*
X132967396Y-87693528D01*
X133173152Y-87786645D01*
X133397976Y-87808096D01*
X133617628Y-87755565D01*
X133808422Y-87634717D01*
X133949785Y-87458583D01*
X134026645Y-87245678D01*
X134028701Y-87010150D01*
X133955567Y-86795936D01*
X133817300Y-86617361D01*
X133628645Y-86493202D01*
X133409944Y-86436846D01*
X133184778Y-86454369D01*
X132977429Y-86543883D01*
X132927098Y-86589600D01*
X132304226Y-86589600D01*
X132229628Y-86539753D01*
X132133410Y-86520614D01*
X131518590Y-86520614D01*
X131422372Y-86539753D01*
X131330285Y-86601285D01*
X131268753Y-86693372D01*
X131249614Y-86789590D01*
X131249614Y-87454410D01*
X131268753Y-87550628D01*
X131330285Y-87642715D01*
X131350766Y-87656400D01*
X129811141Y-87656400D01*
X129738661Y-87665942D01*
X129634271Y-87726212D01*
X128194302Y-89166181D01*
X128149798Y-89224180D01*
X128148717Y-89228214D01*
X128142000Y-89228214D01*
X128142000Y-88069891D01*
X130198699Y-84984843D01*
X131523563Y-84962000D01*
X135052815Y-84962000D01*
X135052800Y-90450400D01*
X135052800Y-90450400D01*
G37*
X135052800Y-90450400D02*
X134559320Y-90450400D01*
X134447550Y-90338630D01*
X134437426Y-90317546D01*
X134382700Y-90273780D01*
X134366356Y-90257435D01*
X134347230Y-90245414D01*
X134292935Y-90201993D01*
X134269662Y-90196662D01*
X134249433Y-90183949D01*
X134179753Y-90176070D01*
X134157615Y-90171000D01*
X134134907Y-90171000D01*
X134065650Y-90163169D01*
X134043227Y-90171000D01*
X129882915Y-90171000D01*
X129875835Y-90166550D01*
X129806152Y-90158671D01*
X129784014Y-90153601D01*
X129765785Y-90153601D01*
X129765785Y-90092800D01*
X131715588Y-90092800D01*
X131840423Y-90059350D01*
X131943950Y-89955823D01*
X131977400Y-89830988D01*
X131977400Y-87918212D01*
X131943950Y-87793377D01*
X131873959Y-87723386D01*
X132133410Y-87723386D01*
X132229628Y-87704247D01*
X132304226Y-87654400D01*
X132925801Y-87654400D01*
X132967396Y-87693528D01*
X133173152Y-87786645D01*
X133397976Y-87808096D01*
X133617628Y-87755565D01*
X133808422Y-87634717D01*
X133949785Y-87458583D01*
X134026645Y-87245678D01*
X134028701Y-87010150D01*
X133955567Y-86795936D01*
X133817300Y-86617361D01*
X133628645Y-86493202D01*
X133409944Y-86436846D01*
X133184778Y-86454369D01*
X132977429Y-86543883D01*
X132927098Y-86589600D01*
X132304226Y-86589600D01*
X132229628Y-86539753D01*
X132133410Y-86520614D01*
X131518590Y-86520614D01*
X131422372Y-86539753D01*
X131330285Y-86601285D01*
X131268753Y-86693372D01*
X131249614Y-86789590D01*
X131249614Y-87454410D01*
X131268753Y-87550628D01*
X131330285Y-87642715D01*
X131350766Y-87656400D01*
X129811141Y-87656400D01*
X129738661Y-87665942D01*
X129634271Y-87726212D01*
X128194302Y-89166181D01*
X128149798Y-89224180D01*
X128148717Y-89228214D01*
X128142000Y-89228214D01*
X128142000Y-88069891D01*
X130198699Y-84984843D01*
X131523563Y-84962000D01*
X135052815Y-84962000D01*
X135052800Y-90450400D01*
G36*
X121797015Y-84987072D02*
G01*
X123140901Y-85010243D01*
X125197600Y-88095291D01*
X125197600Y-89228214D01*
X125172867Y-89228214D01*
X125125788Y-89146671D01*
X123685819Y-87706702D01*
X123627820Y-87662198D01*
X123511388Y-87631000D01*
X121961543Y-87631000D01*
X122015247Y-87550628D01*
X122034386Y-87454410D01*
X122034386Y-86789590D01*
X122015247Y-86693372D01*
X121953715Y-86601285D01*
X121861628Y-86539753D01*
X121765410Y-86520614D01*
X121150590Y-86520614D01*
X121054372Y-86539753D01*
X120979774Y-86589600D01*
X120694119Y-86589600D01*
X120547645Y-86493202D01*
X120328944Y-86436846D01*
X120103778Y-86454369D01*
X119896429Y-86543882D01*
X119729253Y-86695733D01*
X119620278Y-86893549D01*
X119581254Y-87115998D01*
X119616390Y-87339094D01*
X119721896Y-87538782D01*
X119886396Y-87693528D01*
X120092152Y-87786645D01*
X120316976Y-87808096D01*
X120536628Y-87755565D01*
X120696347Y-87654400D01*
X120979774Y-87654400D01*
X121054372Y-87704247D01*
X121150590Y-87723386D01*
X121414841Y-87723386D01*
X121370250Y-87767977D01*
X121336800Y-87892812D01*
X121336800Y-89805588D01*
X121359847Y-89891600D01*
X119307369Y-89891600D01*
X119299768Y-89869336D01*
X119161500Y-89690761D01*
X118972845Y-89566602D01*
X118754144Y-89510246D01*
X118528978Y-89527769D01*
X118321629Y-89617282D01*
X118235998Y-89695063D01*
X118235985Y-84962000D01*
X121709505Y-84962000D01*
X121797015Y-84987072D01*
X121797015Y-84987072D01*
G37*
X121797015Y-84987072D02*
X123140901Y-85010243D01*
X125197600Y-88095291D01*
X125197600Y-89228214D01*
X125172867Y-89228214D01*
X125125788Y-89146671D01*
X123685819Y-87706702D01*
X123627820Y-87662198D01*
X123511388Y-87631000D01*
X121961543Y-87631000D01*
X122015247Y-87550628D01*
X122034386Y-87454410D01*
X122034386Y-86789590D01*
X122015247Y-86693372D01*
X121953715Y-86601285D01*
X121861628Y-86539753D01*
X121765410Y-86520614D01*
X121150590Y-86520614D01*
X121054372Y-86539753D01*
X120979774Y-86589600D01*
X120694119Y-86589600D01*
X120547645Y-86493202D01*
X120328944Y-86436846D01*
X120103778Y-86454369D01*
X119896429Y-86543882D01*
X119729253Y-86695733D01*
X119620278Y-86893549D01*
X119581254Y-87115998D01*
X119616390Y-87339094D01*
X119721896Y-87538782D01*
X119886396Y-87693528D01*
X120092152Y-87786645D01*
X120316976Y-87808096D01*
X120536628Y-87755565D01*
X120696347Y-87654400D01*
X120979774Y-87654400D01*
X121054372Y-87704247D01*
X121150590Y-87723386D01*
X121414841Y-87723386D01*
X121370250Y-87767977D01*
X121336800Y-87892812D01*
X121336800Y-89805588D01*
X121359847Y-89891600D01*
X119307369Y-89891600D01*
X119299768Y-89869336D01*
X119161500Y-89690761D01*
X118972845Y-89566602D01*
X118754144Y-89510246D01*
X118528978Y-89527769D01*
X118321629Y-89617282D01*
X118235998Y-89695063D01*
X118235985Y-84962000D01*
X121709505Y-84962000D01*
X121797015Y-84987072D01*
G36*
X124791200Y-89383990D02*
G01*
X124791200Y-89663000D01*
X124422063Y-89663000D01*
X124381016Y-89653599D01*
X123695736Y-89653599D01*
X123673673Y-89645851D01*
X123604048Y-89653599D01*
X123580914Y-89653599D01*
X123558881Y-89658625D01*
X123519568Y-89663000D01*
X121741200Y-89663000D01*
X121741200Y-88035400D01*
X123442610Y-88035400D01*
X124791200Y-89383990D01*
X124791200Y-89383990D01*
G37*
X124791200Y-89383990D02*
X124791200Y-89663000D01*
X124422063Y-89663000D01*
X124381016Y-89653599D01*
X123695736Y-89653599D01*
X123673673Y-89645851D01*
X123604048Y-89653599D01*
X123580914Y-89653599D01*
X123558881Y-89658625D01*
X123519568Y-89663000D01*
X121741200Y-89663000D01*
X121741200Y-88035400D01*
X123442610Y-88035400D01*
X124791200Y-89383990D01*
G36*
X131573000Y-89688400D02*
G01*
X129599085Y-89688400D01*
X129593027Y-89684352D01*
X129496809Y-89665213D01*
X129125926Y-89665213D01*
X129075216Y-89653599D01*
X128523000Y-89653599D01*
X128523000Y-89409390D01*
X129871590Y-88060800D01*
X131573000Y-88060800D01*
X131573000Y-89688400D01*
X131573000Y-89688400D01*
G37*
X131573000Y-89688400D02*
X129599085Y-89688400D01*
X129593027Y-89684352D01*
X129496809Y-89665213D01*
X129125926Y-89665213D01*
X129075216Y-89653599D01*
X128523000Y-89653599D01*
X128523000Y-89409390D01*
X129871590Y-88060800D01*
X131573000Y-88060800D01*
X131573000Y-89688400D01*
G36*
X131395200Y-84559754D02*
G01*
X129979795Y-84584157D01*
X127737600Y-87947450D01*
X127737600Y-89129600D01*
X127638654Y-89129600D01*
X127783800Y-86541154D01*
X129369605Y-81937914D01*
X131395200Y-81915408D01*
X131395200Y-84559754D01*
X131395200Y-84559754D01*
G37*
X131395200Y-84559754D02*
X129979795Y-84584157D01*
X127737600Y-87947450D01*
X127737600Y-89129600D01*
X127638654Y-89129600D01*
X127783800Y-86541154D01*
X129369605Y-81937914D01*
X131395200Y-81915408D01*
X131395200Y-84559754D01*
G36*
X129210800Y-77493171D02*
G01*
X129210800Y-81157305D01*
X127383176Y-86462490D01*
X127236468Y-89078800D01*
X127087900Y-89078800D01*
X127087900Y-88666214D01*
X127076286Y-88615302D01*
X127076286Y-88244692D01*
X127075200Y-88239232D01*
X127075200Y-88000737D01*
X126872000Y-87670537D01*
X126872000Y-77470241D01*
X129210800Y-77493171D01*
X129210800Y-77493171D01*
G37*
X129210800Y-77493171D02*
X129210800Y-81157305D01*
X127383176Y-86462490D01*
X127236468Y-89078800D01*
X127087900Y-89078800D01*
X127087900Y-88666214D01*
X127076286Y-88615302D01*
X127076286Y-88244692D01*
X127075200Y-88239232D01*
X127075200Y-88000737D01*
X126872000Y-87670537D01*
X126872000Y-77470241D01*
X129210800Y-77493171D01*
G36*
X126467600Y-87695937D02*
G01*
X126264400Y-88026137D01*
X126264400Y-89104200D01*
X126104301Y-89104200D01*
X126076285Y-88499045D01*
X126076285Y-88244691D01*
X126060937Y-88167532D01*
X125982011Y-86462712D01*
X124128800Y-81182333D01*
X124128800Y-77518571D01*
X126467600Y-77495641D01*
X126467600Y-87695937D01*
X126467600Y-87695937D01*
G37*
X126467600Y-87695937D02*
X126264400Y-88026137D01*
X126264400Y-89104200D01*
X126104301Y-89104200D01*
X126076285Y-88499045D01*
X126076285Y-88244691D01*
X126060937Y-88167532D01*
X125982011Y-86462712D01*
X124128800Y-81182333D01*
X124128800Y-77518571D01*
X126467600Y-77495641D01*
X126467600Y-87695937D01*
G36*
X123974329Y-81963362D02*
G01*
X125580787Y-86540665D01*
X125701820Y-89155000D01*
X125602000Y-89155000D01*
X125602000Y-87972850D01*
X123359805Y-84609557D01*
X121944400Y-84585154D01*
X121944400Y-81940808D01*
X123974329Y-81963362D01*
X123974329Y-81963362D01*
G37*
X123974329Y-81963362D02*
X125580787Y-86540665D01*
X125701820Y-89155000D01*
X125602000Y-89155000D01*
X125602000Y-87972850D01*
X123359805Y-84609557D01*
X121944400Y-84585154D01*
X121944400Y-81940808D01*
X123974329Y-81963362D01*
G36*
X109278400Y-76798886D02*
G01*
X110399114Y-76798886D01*
X110399114Y-77966410D01*
X110418253Y-78062628D01*
X110479785Y-78154715D01*
X110571872Y-78216247D01*
X110668090Y-78235386D01*
X110819910Y-78235386D01*
X110916128Y-78216247D01*
X111008215Y-78154715D01*
X111069747Y-78062628D01*
X111088886Y-77966410D01*
X111088886Y-76983976D01*
X116751163Y-76983976D01*
X116751163Y-77342000D01*
X117702500Y-77342000D01*
X117702500Y-76353163D01*
X117376412Y-76353163D01*
X117075489Y-76433795D01*
X116899835Y-76581185D01*
X116788044Y-76774814D01*
X116751163Y-76983976D01*
X111088886Y-76983976D01*
X111088886Y-76798886D01*
X112256410Y-76798886D01*
X112352628Y-76779747D01*
X112444715Y-76718215D01*
X112506247Y-76626128D01*
X112525386Y-76529910D01*
X112525386Y-76378090D01*
X112506247Y-76281872D01*
X112444715Y-76189785D01*
X112352628Y-76128253D01*
X112256410Y-76109114D01*
X111088886Y-76109114D01*
X111088886Y-74941590D01*
X111076317Y-74878400D01*
X143431683Y-74878400D01*
X143419114Y-74941590D01*
X143419114Y-76109114D01*
X142251590Y-76109114D01*
X142155372Y-76128253D01*
X142063285Y-76189785D01*
X142001753Y-76281872D01*
X141982614Y-76378090D01*
X141982614Y-76529910D01*
X142001753Y-76626128D01*
X142063285Y-76718215D01*
X142155372Y-76779747D01*
X142251590Y-76798886D01*
X143419114Y-76798886D01*
X143419114Y-77966410D01*
X143438253Y-78062628D01*
X143499785Y-78154715D01*
X143591872Y-78216247D01*
X143688090Y-78235386D01*
X143839910Y-78235386D01*
X143936128Y-78216247D01*
X144028215Y-78154715D01*
X144089747Y-78062628D01*
X144108886Y-77966410D01*
X144108886Y-76798886D01*
X145276410Y-76798886D01*
X145372628Y-76779747D01*
X145421601Y-76747024D01*
X145421601Y-84964000D01*
X141836602Y-84964000D01*
X141691186Y-84880044D01*
X141482024Y-84843163D01*
X140974000Y-84843163D01*
X140974000Y-84964000D01*
X140718000Y-84964000D01*
X140718000Y-84843163D01*
X140204412Y-84843163D01*
X139903489Y-84923795D01*
X139855575Y-84964000D01*
X135457214Y-84964000D01*
X135457215Y-84819412D01*
X135423765Y-84694577D01*
X135320238Y-84591050D01*
X135223245Y-84565060D01*
X135255224Y-84342641D01*
X135255224Y-83389200D01*
X132726776Y-83389200D01*
X132726776Y-84347175D01*
X132772551Y-84557600D01*
X132045397Y-84557600D01*
X132058844Y-84537475D01*
X132097386Y-84343713D01*
X132097386Y-82179759D01*
X132726776Y-82179759D01*
X132726776Y-83133200D01*
X133863000Y-83133200D01*
X133863000Y-81296976D01*
X134119000Y-81296976D01*
X134119000Y-83133200D01*
X135255224Y-83133200D01*
X135255224Y-82175225D01*
X135178309Y-81821651D01*
X135038382Y-81603921D01*
X134846270Y-81437455D01*
X134615041Y-81331857D01*
X134372441Y-81296976D01*
X134119000Y-81296976D01*
X133863000Y-81296976D01*
X133605025Y-81296976D01*
X133251451Y-81373891D01*
X133033721Y-81513818D01*
X132867255Y-81705930D01*
X132761657Y-81937159D01*
X132726776Y-82179759D01*
X132097386Y-82179759D01*
X132097386Y-82178687D01*
X132058844Y-81984925D01*
X131942058Y-81810142D01*
X131780792Y-81702387D01*
X131764834Y-81644127D01*
X131659892Y-81541493D01*
X131534694Y-81509432D01*
X129509465Y-81531935D01*
X129603430Y-81259175D01*
X129615200Y-81188875D01*
X129615200Y-79400087D01*
X129668728Y-79455517D01*
X129856720Y-79586175D01*
X130066510Y-79677830D01*
X130290108Y-79726991D01*
X130518995Y-79731785D01*
X130744454Y-79692030D01*
X130957898Y-79609241D01*
X131088434Y-79526400D01*
X133122563Y-79526400D01*
X133132753Y-79577628D01*
X133194285Y-79669715D01*
X133286372Y-79731247D01*
X133382590Y-79750386D01*
X134282410Y-79750386D01*
X134378628Y-79731247D01*
X134391655Y-79722543D01*
X134408795Y-79786512D01*
X134556185Y-79962165D01*
X134749814Y-80073956D01*
X134958976Y-80110837D01*
X135279500Y-80110837D01*
X135279500Y-79122000D01*
X135535500Y-79122000D01*
X135535500Y-80110837D01*
X135861588Y-80110837D01*
X136162512Y-80030205D01*
X136338165Y-79882815D01*
X136449956Y-79689186D01*
X136486837Y-79480024D01*
X136486837Y-79122000D01*
X135535500Y-79122000D01*
X135279500Y-79122000D01*
X135279500Y-78866000D01*
X136486837Y-78866000D01*
X136486837Y-78502412D01*
X136413430Y-78228451D01*
X136449956Y-78165186D01*
X136486837Y-77956024D01*
X136486837Y-77598000D01*
X135279500Y-77598000D01*
X135279500Y-76353163D01*
X135535500Y-76353163D01*
X135535500Y-77342000D01*
X136486837Y-77342000D01*
X136486837Y-76978412D01*
X136406205Y-76677489D01*
X136258815Y-76501835D01*
X136065186Y-76390044D01*
X135856024Y-76353163D01*
X135535500Y-76353163D01*
X135279500Y-76353163D01*
X134953412Y-76353163D01*
X134652489Y-76433795D01*
X134476835Y-76581185D01*
X134386349Y-76737912D01*
X134378628Y-76732753D01*
X134282410Y-76713614D01*
X133382590Y-76713614D01*
X133286372Y-76732753D01*
X133194285Y-76794285D01*
X133132753Y-76886372D01*
X133122563Y-76937600D01*
X133117876Y-76937600D01*
X132955031Y-76828790D01*
X132799732Y-76797899D01*
X132799726Y-76797899D01*
X132747299Y-76787471D01*
X132694872Y-76797899D01*
X129173329Y-76797899D01*
X129120901Y-76787471D01*
X129068473Y-76797899D01*
X129068468Y-76797899D01*
X128964507Y-76818578D01*
X128913169Y-76828789D01*
X128791830Y-76909866D01*
X128737063Y-76946461D01*
X128707359Y-76990915D01*
X128615361Y-77082913D01*
X126731827Y-77064447D01*
X126621435Y-77093449D01*
X126607459Y-77089850D01*
X124648778Y-77109053D01*
X124530640Y-76990915D01*
X124500937Y-76946461D01*
X124324831Y-76828790D01*
X124169532Y-76797899D01*
X124169526Y-76797899D01*
X124117099Y-76787471D01*
X124064672Y-76797899D01*
X120543127Y-76797899D01*
X120490700Y-76787471D01*
X120438273Y-76797899D01*
X120438268Y-76797899D01*
X120282969Y-76828790D01*
X120120124Y-76937600D01*
X120115437Y-76937600D01*
X120105247Y-76886372D01*
X120043715Y-76794285D01*
X119951628Y-76732753D01*
X119855410Y-76713614D01*
X118955590Y-76713614D01*
X118859372Y-76732753D01*
X118846345Y-76741457D01*
X118829205Y-76677489D01*
X118681815Y-76501835D01*
X118488186Y-76390044D01*
X118279024Y-76353163D01*
X117958500Y-76353163D01*
X117958500Y-77598000D01*
X116751163Y-77598000D01*
X116751163Y-77961588D01*
X116831795Y-78262512D01*
X116846624Y-78280184D01*
X116762544Y-78425814D01*
X116725663Y-78634976D01*
X116725663Y-78993000D01*
X117933000Y-78993000D01*
X117933000Y-80237837D01*
X118259088Y-80237837D01*
X118560012Y-80157205D01*
X118735665Y-80009815D01*
X118826151Y-79853088D01*
X118833872Y-79858247D01*
X118930090Y-79877386D01*
X119829910Y-79877386D01*
X119926128Y-79858247D01*
X120018215Y-79796715D01*
X120079747Y-79704628D01*
X120089937Y-79653400D01*
X121721507Y-79653400D01*
X121811372Y-79713447D01*
X121907590Y-79732586D01*
X123710410Y-79732586D01*
X123724400Y-79729803D01*
X123724400Y-81214457D01*
X123736579Y-81285939D01*
X123831836Y-81557355D01*
X121804549Y-81534829D01*
X121677243Y-81568184D01*
X121573449Y-81671978D01*
X121565824Y-81700436D01*
X121473725Y-81718756D01*
X121298942Y-81835542D01*
X121182156Y-82010325D01*
X121143614Y-82204087D01*
X121143614Y-84369113D01*
X121181107Y-84557600D01*
X120486969Y-84557600D01*
X120514224Y-84368041D01*
X120514224Y-83414600D01*
X117985776Y-83414600D01*
X117985776Y-84372575D01*
X118029736Y-84574658D01*
X117968562Y-84591050D01*
X117865035Y-84694577D01*
X117831585Y-84819412D01*
X117831586Y-84964000D01*
X114398602Y-84964000D01*
X114253186Y-84880044D01*
X114044024Y-84843163D01*
X113536000Y-84843163D01*
X113536000Y-84964000D01*
X113280000Y-84964000D01*
X113280000Y-84843163D01*
X112766412Y-84843163D01*
X112465489Y-84923795D01*
X112417575Y-84964000D01*
X109278400Y-84964000D01*
X109278400Y-82205159D01*
X117985776Y-82205159D01*
X117985776Y-83158600D01*
X119122000Y-83158600D01*
X119122000Y-81322376D01*
X119378000Y-81322376D01*
X119378000Y-83158600D01*
X120514224Y-83158600D01*
X120514224Y-82200625D01*
X120437309Y-81847051D01*
X120297382Y-81629321D01*
X120105270Y-81462855D01*
X119874041Y-81357257D01*
X119631441Y-81322376D01*
X119378000Y-81322376D01*
X119122000Y-81322376D01*
X118864025Y-81322376D01*
X118510451Y-81399291D01*
X118292721Y-81539218D01*
X118126255Y-81731330D01*
X118020657Y-81962559D01*
X117985776Y-82205159D01*
X109278400Y-82205159D01*
X109278400Y-79249000D01*
X116725663Y-79249000D01*
X116725663Y-79612588D01*
X116806295Y-79913512D01*
X116953685Y-80089165D01*
X117147314Y-80200956D01*
X117356476Y-80237837D01*
X117677000Y-80237837D01*
X117677000Y-79249000D01*
X116725663Y-79249000D01*
X109278400Y-79249000D01*
X109278400Y-76798886D01*
X109278400Y-76798886D01*
G37*
X109278400Y-76798886D02*
X110399114Y-76798886D01*
X110399114Y-77966410D01*
X110418253Y-78062628D01*
X110479785Y-78154715D01*
X110571872Y-78216247D01*
X110668090Y-78235386D01*
X110819910Y-78235386D01*
X110916128Y-78216247D01*
X111008215Y-78154715D01*
X111069747Y-78062628D01*
X111088886Y-77966410D01*
X111088886Y-76983976D01*
X116751163Y-76983976D01*
X116751163Y-77342000D01*
X117702500Y-77342000D01*
X117702500Y-76353163D01*
X117376412Y-76353163D01*
X117075489Y-76433795D01*
X116899835Y-76581185D01*
X116788044Y-76774814D01*
X116751163Y-76983976D01*
X111088886Y-76983976D01*
X111088886Y-76798886D01*
X112256410Y-76798886D01*
X112352628Y-76779747D01*
X112444715Y-76718215D01*
X112506247Y-76626128D01*
X112525386Y-76529910D01*
X112525386Y-76378090D01*
X112506247Y-76281872D01*
X112444715Y-76189785D01*
X112352628Y-76128253D01*
X112256410Y-76109114D01*
X111088886Y-76109114D01*
X111088886Y-74941590D01*
X111076317Y-74878400D01*
X143431683Y-74878400D01*
X143419114Y-74941590D01*
X143419114Y-76109114D01*
X142251590Y-76109114D01*
X142155372Y-76128253D01*
X142063285Y-76189785D01*
X142001753Y-76281872D01*
X141982614Y-76378090D01*
X141982614Y-76529910D01*
X142001753Y-76626128D01*
X142063285Y-76718215D01*
X142155372Y-76779747D01*
X142251590Y-76798886D01*
X143419114Y-76798886D01*
X143419114Y-77966410D01*
X143438253Y-78062628D01*
X143499785Y-78154715D01*
X143591872Y-78216247D01*
X143688090Y-78235386D01*
X143839910Y-78235386D01*
X143936128Y-78216247D01*
X144028215Y-78154715D01*
X144089747Y-78062628D01*
X144108886Y-77966410D01*
X144108886Y-76798886D01*
X145276410Y-76798886D01*
X145372628Y-76779747D01*
X145421601Y-76747024D01*
X145421601Y-84964000D01*
X141836602Y-84964000D01*
X141691186Y-84880044D01*
X141482024Y-84843163D01*
X140974000Y-84843163D01*
X140974000Y-84964000D01*
X140718000Y-84964000D01*
X140718000Y-84843163D01*
X140204412Y-84843163D01*
X139903489Y-84923795D01*
X139855575Y-84964000D01*
X135457214Y-84964000D01*
X135457215Y-84819412D01*
X135423765Y-84694577D01*
X135320238Y-84591050D01*
X135223245Y-84565060D01*
X135255224Y-84342641D01*
X135255224Y-83389200D01*
X132726776Y-83389200D01*
X132726776Y-84347175D01*
X132772551Y-84557600D01*
X132045397Y-84557600D01*
X132058844Y-84537475D01*
X132097386Y-84343713D01*
X132097386Y-82179759D01*
X132726776Y-82179759D01*
X132726776Y-83133200D01*
X133863000Y-83133200D01*
X133863000Y-81296976D01*
X134119000Y-81296976D01*
X134119000Y-83133200D01*
X135255224Y-83133200D01*
X135255224Y-82175225D01*
X135178309Y-81821651D01*
X135038382Y-81603921D01*
X134846270Y-81437455D01*
X134615041Y-81331857D01*
X134372441Y-81296976D01*
X134119000Y-81296976D01*
X133863000Y-81296976D01*
X133605025Y-81296976D01*
X133251451Y-81373891D01*
X133033721Y-81513818D01*
X132867255Y-81705930D01*
X132761657Y-81937159D01*
X132726776Y-82179759D01*
X132097386Y-82179759D01*
X132097386Y-82178687D01*
X132058844Y-81984925D01*
X131942058Y-81810142D01*
X131780792Y-81702387D01*
X131764834Y-81644127D01*
X131659892Y-81541493D01*
X131534694Y-81509432D01*
X129509465Y-81531935D01*
X129603430Y-81259175D01*
X129615200Y-81188875D01*
X129615200Y-79400087D01*
X129668728Y-79455517D01*
X129856720Y-79586175D01*
X130066510Y-79677830D01*
X130290108Y-79726991D01*
X130518995Y-79731785D01*
X130744454Y-79692030D01*
X130957898Y-79609241D01*
X131088434Y-79526400D01*
X133122563Y-79526400D01*
X133132753Y-79577628D01*
X133194285Y-79669715D01*
X133286372Y-79731247D01*
X133382590Y-79750386D01*
X134282410Y-79750386D01*
X134378628Y-79731247D01*
X134391655Y-79722543D01*
X134408795Y-79786512D01*
X134556185Y-79962165D01*
X134749814Y-80073956D01*
X134958976Y-80110837D01*
X135279500Y-80110837D01*
X135279500Y-79122000D01*
X135535500Y-79122000D01*
X135535500Y-80110837D01*
X135861588Y-80110837D01*
X136162512Y-80030205D01*
X136338165Y-79882815D01*
X136449956Y-79689186D01*
X136486837Y-79480024D01*
X136486837Y-79122000D01*
X135535500Y-79122000D01*
X135279500Y-79122000D01*
X135279500Y-78866000D01*
X136486837Y-78866000D01*
X136486837Y-78502412D01*
X136413430Y-78228451D01*
X136449956Y-78165186D01*
X136486837Y-77956024D01*
X136486837Y-77598000D01*
X135279500Y-77598000D01*
X135279500Y-76353163D01*
X135535500Y-76353163D01*
X135535500Y-77342000D01*
X136486837Y-77342000D01*
X136486837Y-76978412D01*
X136406205Y-76677489D01*
X136258815Y-76501835D01*
X136065186Y-76390044D01*
X135856024Y-76353163D01*
X135535500Y-76353163D01*
X135279500Y-76353163D01*
X134953412Y-76353163D01*
X134652489Y-76433795D01*
X134476835Y-76581185D01*
X134386349Y-76737912D01*
X134378628Y-76732753D01*
X134282410Y-76713614D01*
X133382590Y-76713614D01*
X133286372Y-76732753D01*
X133194285Y-76794285D01*
X133132753Y-76886372D01*
X133122563Y-76937600D01*
X133117876Y-76937600D01*
X132955031Y-76828790D01*
X132799732Y-76797899D01*
X132799726Y-76797899D01*
X132747299Y-76787471D01*
X132694872Y-76797899D01*
X129173329Y-76797899D01*
X129120901Y-76787471D01*
X129068473Y-76797899D01*
X129068468Y-76797899D01*
X128964507Y-76818578D01*
X128913169Y-76828789D01*
X128791830Y-76909866D01*
X128737063Y-76946461D01*
X128707359Y-76990915D01*
X128615361Y-77082913D01*
X126731827Y-77064447D01*
X126621435Y-77093449D01*
X126607459Y-77089850D01*
X124648778Y-77109053D01*
X124530640Y-76990915D01*
X124500937Y-76946461D01*
X124324831Y-76828790D01*
X124169532Y-76797899D01*
X124169526Y-76797899D01*
X124117099Y-76787471D01*
X124064672Y-76797899D01*
X120543127Y-76797899D01*
X120490700Y-76787471D01*
X120438273Y-76797899D01*
X120438268Y-76797899D01*
X120282969Y-76828790D01*
X120120124Y-76937600D01*
X120115437Y-76937600D01*
X120105247Y-76886372D01*
X120043715Y-76794285D01*
X119951628Y-76732753D01*
X119855410Y-76713614D01*
X118955590Y-76713614D01*
X118859372Y-76732753D01*
X118846345Y-76741457D01*
X118829205Y-76677489D01*
X118681815Y-76501835D01*
X118488186Y-76390044D01*
X118279024Y-76353163D01*
X117958500Y-76353163D01*
X117958500Y-77598000D01*
X116751163Y-77598000D01*
X116751163Y-77961588D01*
X116831795Y-78262512D01*
X116846624Y-78280184D01*
X116762544Y-78425814D01*
X116725663Y-78634976D01*
X116725663Y-78993000D01*
X117933000Y-78993000D01*
X117933000Y-80237837D01*
X118259088Y-80237837D01*
X118560012Y-80157205D01*
X118735665Y-80009815D01*
X118826151Y-79853088D01*
X118833872Y-79858247D01*
X118930090Y-79877386D01*
X119829910Y-79877386D01*
X119926128Y-79858247D01*
X120018215Y-79796715D01*
X120079747Y-79704628D01*
X120089937Y-79653400D01*
X121721507Y-79653400D01*
X121811372Y-79713447D01*
X121907590Y-79732586D01*
X123710410Y-79732586D01*
X123724400Y-79729803D01*
X123724400Y-81214457D01*
X123736579Y-81285939D01*
X123831836Y-81557355D01*
X121804549Y-81534829D01*
X121677243Y-81568184D01*
X121573449Y-81671978D01*
X121565824Y-81700436D01*
X121473725Y-81718756D01*
X121298942Y-81835542D01*
X121182156Y-82010325D01*
X121143614Y-82204087D01*
X121143614Y-84369113D01*
X121181107Y-84557600D01*
X120486969Y-84557600D01*
X120514224Y-84368041D01*
X120514224Y-83414600D01*
X117985776Y-83414600D01*
X117985776Y-84372575D01*
X118029736Y-84574658D01*
X117968562Y-84591050D01*
X117865035Y-84694577D01*
X117831585Y-84819412D01*
X117831586Y-84964000D01*
X114398602Y-84964000D01*
X114253186Y-84880044D01*
X114044024Y-84843163D01*
X113536000Y-84843163D01*
X113536000Y-84964000D01*
X113280000Y-84964000D01*
X113280000Y-84843163D01*
X112766412Y-84843163D01*
X112465489Y-84923795D01*
X112417575Y-84964000D01*
X109278400Y-84964000D01*
X109278400Y-82205159D01*
X117985776Y-82205159D01*
X117985776Y-83158600D01*
X119122000Y-83158600D01*
X119122000Y-81322376D01*
X119378000Y-81322376D01*
X119378000Y-83158600D01*
X120514224Y-83158600D01*
X120514224Y-82200625D01*
X120437309Y-81847051D01*
X120297382Y-81629321D01*
X120105270Y-81462855D01*
X119874041Y-81357257D01*
X119631441Y-81322376D01*
X119378000Y-81322376D01*
X119122000Y-81322376D01*
X118864025Y-81322376D01*
X118510451Y-81399291D01*
X118292721Y-81539218D01*
X118126255Y-81731330D01*
X118020657Y-81962559D01*
X117985776Y-82205159D01*
X109278400Y-82205159D01*
X109278400Y-79249000D01*
X116725663Y-79249000D01*
X116725663Y-79612588D01*
X116806295Y-79913512D01*
X116953685Y-80089165D01*
X117147314Y-80200956D01*
X117356476Y-80237837D01*
X117677000Y-80237837D01*
X117677000Y-79249000D01*
X116725663Y-79249000D01*
X109278400Y-79249000D01*
X109278400Y-76798886D01*
M02*
