G04 #@! TF.GenerationSoftware,KiCad,Pcbnew,(5.99.0-1251-g6aaee01f1)*
G04 #@! TF.CreationDate,2020-04-14T14:04:16-07:00*
G04 #@! TF.ProjectId,TMC2209_Driver,544d4332-3230-4395-9f44-72697665722e,rev?*
G04 #@! TF.SameCoordinates,PX67f3540PY6cb8080*
G04 #@! TF.FileFunction,Soldermask,Top*
G04 #@! TF.FilePolarity,Negative*
%FSLAX46Y46*%
G04 Gerber Fmt 4.6, Leading zero omitted, Abs format (unit mm)*
G04 Created by KiCad (PCBNEW (5.99.0-1251-g6aaee01f1)) date 2020-04-14 14:04:16*
%MOMM*%
%LPD*%
G01*
G04 APERTURE LIST*
%ADD10C,1.880000*%
%ADD11C,0.752000*%
%ADD12C,2.802000*%
G04 APERTURE END LIST*
G36*
G01*
X32649000Y11164937D02*
X32649000Y12335063D01*
G75*
G02*
X32914937Y12601000I265937J0D01*
G01*
X35985063Y12601000D01*
G75*
G02*
X36251000Y12335063I0J-265937D01*
G01*
X36251000Y11164937D01*
G75*
G02*
X35985063Y10899000I-265937J0D01*
G01*
X32914937Y10899000D01*
G75*
G02*
X32649000Y11164937I0J265937D01*
G01*
G37*
G36*
G01*
X27249000Y11164937D02*
X27249000Y12335063D01*
G75*
G02*
X27514937Y12601000I265937J0D01*
G01*
X30585063Y12601000D01*
G75*
G02*
X30851000Y12335063I0J-265937D01*
G01*
X30851000Y11164937D01*
G75*
G02*
X30585063Y10899000I-265937J0D01*
G01*
X27514937Y10899000D01*
G75*
G02*
X27249000Y11164937I0J265937D01*
G01*
G37*
G36*
G01*
X15781500Y21091000D02*
X15781500Y24791000D01*
G75*
G02*
X15832500Y24842000I51000J0D01*
G01*
X19532500Y24842000D01*
G75*
G02*
X19583500Y24791000I0J-51000D01*
G01*
X19583500Y21091000D01*
G75*
G02*
X19532500Y21040000I-51000J0D01*
G01*
X15832500Y21040000D01*
G75*
G02*
X15781500Y21091000I0J51000D01*
G01*
G37*
G36*
G01*
X16006500Y25041000D02*
X16006500Y25841000D01*
G75*
G02*
X16057500Y25892000I51000J0D01*
G01*
X16307500Y25892000D01*
G75*
G02*
X16358500Y25841000I0J-51000D01*
G01*
X16358500Y25041000D01*
G75*
G02*
X16307500Y24990000I-51000J0D01*
G01*
X16057500Y24990000D01*
G75*
G02*
X16006500Y25041000I0J51000D01*
G01*
G37*
G36*
G01*
X16506499Y25041000D02*
X16506499Y25841000D01*
G75*
G02*
X16557499Y25892000I51000J0D01*
G01*
X16807499Y25892000D01*
G75*
G02*
X16858499Y25841000I0J-51000D01*
G01*
X16858499Y25041000D01*
G75*
G02*
X16807499Y24990000I-51000J0D01*
G01*
X16557499Y24990000D01*
G75*
G02*
X16506499Y25041000I0J51000D01*
G01*
G37*
G36*
G01*
X17006501Y25041000D02*
X17006501Y25841000D01*
G75*
G02*
X17057501Y25892000I51000J0D01*
G01*
X17307501Y25892000D01*
G75*
G02*
X17358501Y25841000I0J-51000D01*
G01*
X17358501Y25041000D01*
G75*
G02*
X17307501Y24990000I-51000J0D01*
G01*
X17057501Y24990000D01*
G75*
G02*
X17006501Y25041000I0J51000D01*
G01*
G37*
G36*
G01*
X17506500Y25041000D02*
X17506500Y25841000D01*
G75*
G02*
X17557500Y25892000I51000J0D01*
G01*
X17807500Y25892000D01*
G75*
G02*
X17858500Y25841000I0J-51000D01*
G01*
X17858500Y25041000D01*
G75*
G02*
X17807500Y24990000I-51000J0D01*
G01*
X17557500Y24990000D01*
G75*
G02*
X17506500Y25041000I0J51000D01*
G01*
G37*
G36*
G01*
X18006499Y25041000D02*
X18006499Y25841000D01*
G75*
G02*
X18057499Y25892000I51000J0D01*
G01*
X18307499Y25892000D01*
G75*
G02*
X18358499Y25841000I0J-51000D01*
G01*
X18358499Y25041000D01*
G75*
G02*
X18307499Y24990000I-51000J0D01*
G01*
X18057499Y24990000D01*
G75*
G02*
X18006499Y25041000I0J51000D01*
G01*
G37*
G36*
G01*
X18506501Y25041000D02*
X18506501Y25841000D01*
G75*
G02*
X18557501Y25892000I51000J0D01*
G01*
X18807501Y25892000D01*
G75*
G02*
X18858501Y25841000I0J-51000D01*
G01*
X18858501Y25041000D01*
G75*
G02*
X18807501Y24990000I-51000J0D01*
G01*
X18557501Y24990000D01*
G75*
G02*
X18506501Y25041000I0J51000D01*
G01*
G37*
G36*
G01*
X19006500Y25041000D02*
X19006500Y25841000D01*
G75*
G02*
X19057500Y25892000I51000J0D01*
G01*
X19307500Y25892000D01*
G75*
G02*
X19358500Y25841000I0J-51000D01*
G01*
X19358500Y25041000D01*
G75*
G02*
X19307500Y24990000I-51000J0D01*
G01*
X19057500Y24990000D01*
G75*
G02*
X19006500Y25041000I0J51000D01*
G01*
G37*
G36*
G01*
X20582500Y24265000D02*
X19782500Y24265000D01*
G75*
G02*
X19731500Y24316000I0J51000D01*
G01*
X19731500Y24566000D01*
G75*
G02*
X19782500Y24617000I51000J0D01*
G01*
X20582500Y24617000D01*
G75*
G02*
X20633500Y24566000I0J-51000D01*
G01*
X20633500Y24316000D01*
G75*
G02*
X20582500Y24265000I-51000J0D01*
G01*
G37*
G36*
G01*
X20582500Y23765001D02*
X19782500Y23765001D01*
G75*
G02*
X19731500Y23816001I0J51000D01*
G01*
X19731500Y24066001D01*
G75*
G02*
X19782500Y24117001I51000J0D01*
G01*
X20582500Y24117001D01*
G75*
G02*
X20633500Y24066001I0J-51000D01*
G01*
X20633500Y23816001D01*
G75*
G02*
X20582500Y23765001I-51000J0D01*
G01*
G37*
G36*
G01*
X20582500Y23264999D02*
X19782500Y23264999D01*
G75*
G02*
X19731500Y23315999I0J51000D01*
G01*
X19731500Y23565999D01*
G75*
G02*
X19782500Y23616999I51000J0D01*
G01*
X20582500Y23616999D01*
G75*
G02*
X20633500Y23565999I0J-51000D01*
G01*
X20633500Y23315999D01*
G75*
G02*
X20582500Y23264999I-51000J0D01*
G01*
G37*
G36*
G01*
X20582500Y22765000D02*
X19782500Y22765000D01*
G75*
G02*
X19731500Y22816000I0J51000D01*
G01*
X19731500Y23066000D01*
G75*
G02*
X19782500Y23117000I51000J0D01*
G01*
X20582500Y23117000D01*
G75*
G02*
X20633500Y23066000I0J-51000D01*
G01*
X20633500Y22816000D01*
G75*
G02*
X20582500Y22765000I-51000J0D01*
G01*
G37*
G36*
G01*
X20582500Y22265001D02*
X19782500Y22265001D01*
G75*
G02*
X19731500Y22316001I0J51000D01*
G01*
X19731500Y22566001D01*
G75*
G02*
X19782500Y22617001I51000J0D01*
G01*
X20582500Y22617001D01*
G75*
G02*
X20633500Y22566001I0J-51000D01*
G01*
X20633500Y22316001D01*
G75*
G02*
X20582500Y22265001I-51000J0D01*
G01*
G37*
G36*
G01*
X20582500Y21764999D02*
X19782500Y21764999D01*
G75*
G02*
X19731500Y21815999I0J51000D01*
G01*
X19731500Y22065999D01*
G75*
G02*
X19782500Y22116999I51000J0D01*
G01*
X20582500Y22116999D01*
G75*
G02*
X20633500Y22065999I0J-51000D01*
G01*
X20633500Y21815999D01*
G75*
G02*
X20582500Y21764999I-51000J0D01*
G01*
G37*
G36*
G01*
X20582500Y21265000D02*
X19782500Y21265000D01*
G75*
G02*
X19731500Y21316000I0J51000D01*
G01*
X19731500Y21566000D01*
G75*
G02*
X19782500Y21617000I51000J0D01*
G01*
X20582500Y21617000D01*
G75*
G02*
X20633500Y21566000I0J-51000D01*
G01*
X20633500Y21316000D01*
G75*
G02*
X20582500Y21265000I-51000J0D01*
G01*
G37*
G36*
G01*
X19006500Y20041000D02*
X19006500Y20841000D01*
G75*
G02*
X19057500Y20892000I51000J0D01*
G01*
X19307500Y20892000D01*
G75*
G02*
X19358500Y20841000I0J-51000D01*
G01*
X19358500Y20041000D01*
G75*
G02*
X19307500Y19990000I-51000J0D01*
G01*
X19057500Y19990000D01*
G75*
G02*
X19006500Y20041000I0J51000D01*
G01*
G37*
G36*
G01*
X18506501Y20041000D02*
X18506501Y20841000D01*
G75*
G02*
X18557501Y20892000I51000J0D01*
G01*
X18807501Y20892000D01*
G75*
G02*
X18858501Y20841000I0J-51000D01*
G01*
X18858501Y20041000D01*
G75*
G02*
X18807501Y19990000I-51000J0D01*
G01*
X18557501Y19990000D01*
G75*
G02*
X18506501Y20041000I0J51000D01*
G01*
G37*
G36*
G01*
X18006499Y20041000D02*
X18006499Y20841000D01*
G75*
G02*
X18057499Y20892000I51000J0D01*
G01*
X18307499Y20892000D01*
G75*
G02*
X18358499Y20841000I0J-51000D01*
G01*
X18358499Y20041000D01*
G75*
G02*
X18307499Y19990000I-51000J0D01*
G01*
X18057499Y19990000D01*
G75*
G02*
X18006499Y20041000I0J51000D01*
G01*
G37*
G36*
G01*
X17506500Y20041000D02*
X17506500Y20841000D01*
G75*
G02*
X17557500Y20892000I51000J0D01*
G01*
X17807500Y20892000D01*
G75*
G02*
X17858500Y20841000I0J-51000D01*
G01*
X17858500Y20041000D01*
G75*
G02*
X17807500Y19990000I-51000J0D01*
G01*
X17557500Y19990000D01*
G75*
G02*
X17506500Y20041000I0J51000D01*
G01*
G37*
G36*
G01*
X17006501Y20041000D02*
X17006501Y20841000D01*
G75*
G02*
X17057501Y20892000I51000J0D01*
G01*
X17307501Y20892000D01*
G75*
G02*
X17358501Y20841000I0J-51000D01*
G01*
X17358501Y20041000D01*
G75*
G02*
X17307501Y19990000I-51000J0D01*
G01*
X17057501Y19990000D01*
G75*
G02*
X17006501Y20041000I0J51000D01*
G01*
G37*
G36*
G01*
X16506499Y20041000D02*
X16506499Y20841000D01*
G75*
G02*
X16557499Y20892000I51000J0D01*
G01*
X16807499Y20892000D01*
G75*
G02*
X16858499Y20841000I0J-51000D01*
G01*
X16858499Y20041000D01*
G75*
G02*
X16807499Y19990000I-51000J0D01*
G01*
X16557499Y19990000D01*
G75*
G02*
X16506499Y20041000I0J51000D01*
G01*
G37*
G36*
G01*
X16006500Y20041000D02*
X16006500Y20841000D01*
G75*
G02*
X16057500Y20892000I51000J0D01*
G01*
X16307500Y20892000D01*
G75*
G02*
X16358500Y20841000I0J-51000D01*
G01*
X16358500Y20041000D01*
G75*
G02*
X16307500Y19990000I-51000J0D01*
G01*
X16057500Y19990000D01*
G75*
G02*
X16006500Y20041000I0J51000D01*
G01*
G37*
G36*
G01*
X15582500Y21265000D02*
X14782500Y21265000D01*
G75*
G02*
X14731500Y21316000I0J51000D01*
G01*
X14731500Y21566000D01*
G75*
G02*
X14782500Y21617000I51000J0D01*
G01*
X15582500Y21617000D01*
G75*
G02*
X15633500Y21566000I0J-51000D01*
G01*
X15633500Y21316000D01*
G75*
G02*
X15582500Y21265000I-51000J0D01*
G01*
G37*
G36*
G01*
X15582500Y21764999D02*
X14782500Y21764999D01*
G75*
G02*
X14731500Y21815999I0J51000D01*
G01*
X14731500Y22065999D01*
G75*
G02*
X14782500Y22116999I51000J0D01*
G01*
X15582500Y22116999D01*
G75*
G02*
X15633500Y22065999I0J-51000D01*
G01*
X15633500Y21815999D01*
G75*
G02*
X15582500Y21764999I-51000J0D01*
G01*
G37*
G36*
G01*
X15582500Y22265001D02*
X14782500Y22265001D01*
G75*
G02*
X14731500Y22316001I0J51000D01*
G01*
X14731500Y22566001D01*
G75*
G02*
X14782500Y22617001I51000J0D01*
G01*
X15582500Y22617001D01*
G75*
G02*
X15633500Y22566001I0J-51000D01*
G01*
X15633500Y22316001D01*
G75*
G02*
X15582500Y22265001I-51000J0D01*
G01*
G37*
G36*
G01*
X15582500Y22765000D02*
X14782500Y22765000D01*
G75*
G02*
X14731500Y22816000I0J51000D01*
G01*
X14731500Y23066000D01*
G75*
G02*
X14782500Y23117000I51000J0D01*
G01*
X15582500Y23117000D01*
G75*
G02*
X15633500Y23066000I0J-51000D01*
G01*
X15633500Y22816000D01*
G75*
G02*
X15582500Y22765000I-51000J0D01*
G01*
G37*
G36*
G01*
X15582500Y23264999D02*
X14782500Y23264999D01*
G75*
G02*
X14731500Y23315999I0J51000D01*
G01*
X14731500Y23565999D01*
G75*
G02*
X14782500Y23616999I51000J0D01*
G01*
X15582500Y23616999D01*
G75*
G02*
X15633500Y23565999I0J-51000D01*
G01*
X15633500Y23315999D01*
G75*
G02*
X15582500Y23264999I-51000J0D01*
G01*
G37*
G36*
G01*
X15582500Y23765001D02*
X14782500Y23765001D01*
G75*
G02*
X14731500Y23816001I0J51000D01*
G01*
X14731500Y24066001D01*
G75*
G02*
X14782500Y24117001I51000J0D01*
G01*
X15582500Y24117001D01*
G75*
G02*
X15633500Y24066001I0J-51000D01*
G01*
X15633500Y23816001D01*
G75*
G02*
X15582500Y23765001I-51000J0D01*
G01*
G37*
G36*
G01*
X15582500Y24265000D02*
X14782500Y24265000D01*
G75*
G02*
X14731500Y24316000I0J51000D01*
G01*
X14731500Y24566000D01*
G75*
G02*
X14782500Y24617000I51000J0D01*
G01*
X15582500Y24617000D01*
G75*
G02*
X15633500Y24566000I0J-51000D01*
G01*
X15633500Y24316000D01*
G75*
G02*
X15582500Y24265000I-51000J0D01*
G01*
G37*
G36*
G01*
X2710800Y13431800D02*
X2710800Y13731800D01*
G75*
G02*
X2761800Y13782800I51000J0D01*
G01*
X3441800Y13782800D01*
G75*
G02*
X3492800Y13731800I0J-51000D01*
G01*
X3492800Y13431800D01*
G75*
G02*
X3441800Y13380800I-51000J0D01*
G01*
X2761800Y13380800D01*
G75*
G02*
X2710800Y13431800I0J51000D01*
G01*
G37*
G36*
G01*
X2710800Y12931800D02*
X2710800Y13231800D01*
G75*
G02*
X2761800Y13282800I51000J0D01*
G01*
X3441800Y13282800D01*
G75*
G02*
X3492800Y13231800I0J-51000D01*
G01*
X3492800Y12931800D01*
G75*
G02*
X3441800Y12880800I-51000J0D01*
G01*
X2761800Y12880800D01*
G75*
G02*
X2710800Y12931800I0J51000D01*
G01*
G37*
G36*
G01*
X2710800Y12431800D02*
X2710800Y12731800D01*
G75*
G02*
X2761800Y12782800I51000J0D01*
G01*
X3441800Y12782800D01*
G75*
G02*
X3492800Y12731800I0J-51000D01*
G01*
X3492800Y12431800D01*
G75*
G02*
X3441800Y12380800I-51000J0D01*
G01*
X2761800Y12380800D01*
G75*
G02*
X2710800Y12431800I0J51000D01*
G01*
G37*
G36*
G01*
X2710800Y11931800D02*
X2710800Y12231800D01*
G75*
G02*
X2761800Y12282800I51000J0D01*
G01*
X3441800Y12282800D01*
G75*
G02*
X3492800Y12231800I0J-51000D01*
G01*
X3492800Y11931800D01*
G75*
G02*
X3441800Y11880800I-51000J0D01*
G01*
X2761800Y11880800D01*
G75*
G02*
X2710800Y11931800I0J51000D01*
G01*
G37*
G36*
G01*
X5430800Y13431800D02*
X5430800Y13731800D01*
G75*
G02*
X5481800Y13782800I51000J0D01*
G01*
X6161800Y13782800D01*
G75*
G02*
X6212800Y13731800I0J-51000D01*
G01*
X6212800Y13431800D01*
G75*
G02*
X6161800Y13380800I-51000J0D01*
G01*
X5481800Y13380800D01*
G75*
G02*
X5430800Y13431800I0J51000D01*
G01*
G37*
G36*
G01*
X5430800Y12931800D02*
X5430800Y13231800D01*
G75*
G02*
X5481800Y13282800I51000J0D01*
G01*
X6161800Y13282800D01*
G75*
G02*
X6212800Y13231800I0J-51000D01*
G01*
X6212800Y12931800D01*
G75*
G02*
X6161800Y12880800I-51000J0D01*
G01*
X5481800Y12880800D01*
G75*
G02*
X5430800Y12931800I0J51000D01*
G01*
G37*
G36*
G01*
X5430800Y12431800D02*
X5430800Y12731800D01*
G75*
G02*
X5481800Y12782800I51000J0D01*
G01*
X6161800Y12782800D01*
G75*
G02*
X6212800Y12731800I0J-51000D01*
G01*
X6212800Y12431800D01*
G75*
G02*
X6161800Y12380800I-51000J0D01*
G01*
X5481800Y12380800D01*
G75*
G02*
X5430800Y12431800I0J51000D01*
G01*
G37*
G36*
G01*
X5430800Y11931800D02*
X5430800Y12231800D01*
G75*
G02*
X5481800Y12282800I51000J0D01*
G01*
X6161800Y12282800D01*
G75*
G02*
X6212800Y12231800I0J-51000D01*
G01*
X6212800Y11931800D01*
G75*
G02*
X6161800Y11880800I-51000J0D01*
G01*
X5481800Y11880800D01*
G75*
G02*
X5430800Y11931800I0J51000D01*
G01*
G37*
G36*
G01*
X3685800Y12051800D02*
X3685800Y13611800D01*
G75*
G02*
X3736800Y13662800I51000J0D01*
G01*
X5186800Y13662800D01*
G75*
G02*
X5237800Y13611800I0J-51000D01*
G01*
X5237800Y12051800D01*
G75*
G02*
X5186800Y12000800I-51000J0D01*
G01*
X3736800Y12000800D01*
G75*
G02*
X3685800Y12051800I0J51000D01*
G01*
G37*
G36*
G01*
X6398200Y15440400D02*
X6398200Y14490400D01*
G75*
G02*
X6347200Y14439400I-51000J0D01*
G01*
X5472200Y14439400D01*
G75*
G02*
X5421200Y14490400I0J51000D01*
G01*
X5421200Y15440400D01*
G75*
G02*
X5472200Y15491400I51000J0D01*
G01*
X6347200Y15491400D01*
G75*
G02*
X6398200Y15440400I0J-51000D01*
G01*
G37*
G36*
G01*
X4823200Y15440400D02*
X4823200Y14490400D01*
G75*
G02*
X4772200Y14439400I-51000J0D01*
G01*
X3897200Y14439400D01*
G75*
G02*
X3846200Y14490400I0J51000D01*
G01*
X3846200Y15440400D01*
G75*
G02*
X3897200Y15491400I51000J0D01*
G01*
X4772200Y15491400D01*
G75*
G02*
X4823200Y15440400I0J-51000D01*
G01*
G37*
G36*
G01*
X11338500Y14526000D02*
X11338500Y13576000D01*
G75*
G02*
X11287500Y13525000I-51000J0D01*
G01*
X10412500Y13525000D01*
G75*
G02*
X10361500Y13576000I0J51000D01*
G01*
X10361500Y14526000D01*
G75*
G02*
X10412500Y14577000I51000J0D01*
G01*
X11287500Y14577000D01*
G75*
G02*
X11338500Y14526000I0J-51000D01*
G01*
G37*
G36*
G01*
X9763500Y14526000D02*
X9763500Y13576000D01*
G75*
G02*
X9712500Y13525000I-51000J0D01*
G01*
X8837500Y13525000D01*
G75*
G02*
X8786500Y13576000I0J51000D01*
G01*
X8786500Y14526000D01*
G75*
G02*
X8837500Y14577000I51000J0D01*
G01*
X9712500Y14577000D01*
G75*
G02*
X9763500Y14526000I0J-51000D01*
G01*
G37*
G36*
G01*
X10509500Y12215000D02*
X10509500Y12615000D01*
G75*
G02*
X10560500Y12666000I51000J0D01*
G01*
X11210500Y12666000D01*
G75*
G02*
X11261500Y12615000I0J-51000D01*
G01*
X11261500Y12215000D01*
G75*
G02*
X11210500Y12164000I-51000J0D01*
G01*
X10560500Y12164000D01*
G75*
G02*
X10509500Y12215000I0J51000D01*
G01*
G37*
G36*
G01*
X10509500Y10915000D02*
X10509500Y11315000D01*
G75*
G02*
X10560500Y11366000I51000J0D01*
G01*
X11210500Y11366000D01*
G75*
G02*
X11261500Y11315000I0J-51000D01*
G01*
X11261500Y10915000D01*
G75*
G02*
X11210500Y10864000I-51000J0D01*
G01*
X10560500Y10864000D01*
G75*
G02*
X10509500Y10915000I0J51000D01*
G01*
G37*
G36*
G01*
X8609500Y11565000D02*
X8609500Y11965000D01*
G75*
G02*
X8660500Y12016000I51000J0D01*
G01*
X9310500Y12016000D01*
G75*
G02*
X9361500Y11965000I0J-51000D01*
G01*
X9361500Y11565000D01*
G75*
G02*
X9310500Y11514000I-51000J0D01*
G01*
X8660500Y11514000D01*
G75*
G02*
X8609500Y11565000I0J51000D01*
G01*
G37*
G36*
G01*
X8609500Y10915000D02*
X8609500Y11315000D01*
G75*
G02*
X8660500Y11366000I51000J0D01*
G01*
X9310500Y11366000D01*
G75*
G02*
X9361500Y11315000I0J-51000D01*
G01*
X9361500Y10915000D01*
G75*
G02*
X9310500Y10864000I-51000J0D01*
G01*
X8660500Y10864000D01*
G75*
G02*
X8609500Y10915000I0J51000D01*
G01*
G37*
G36*
G01*
X8609500Y12215000D02*
X8609500Y12615000D01*
G75*
G02*
X8660500Y12666000I51000J0D01*
G01*
X9310500Y12666000D01*
G75*
G02*
X9361500Y12615000I0J-51000D01*
G01*
X9361500Y12215000D01*
G75*
G02*
X9310500Y12164000I-51000J0D01*
G01*
X8660500Y12164000D01*
G75*
G02*
X8609500Y12215000I0J51000D01*
G01*
G37*
G36*
G01*
X12374000Y29607800D02*
X12374000Y31819000D01*
G75*
G02*
X12644400Y32089400I270400J0D01*
G01*
X13455600Y32089400D01*
G75*
G02*
X13726000Y31819000I0J-270400D01*
G01*
X13726000Y29607800D01*
G75*
G02*
X13455600Y29337400I-270400J0D01*
G01*
X12644400Y29337400D01*
G75*
G02*
X12374000Y29607800I0J270400D01*
G01*
G37*
G36*
G01*
X9574000Y29607800D02*
X9574000Y31819000D01*
G75*
G02*
X9844400Y32089400I270400J0D01*
G01*
X10655600Y32089400D01*
G75*
G02*
X10926000Y31819000I0J-270400D01*
G01*
X10926000Y29607800D01*
G75*
G02*
X10655600Y29337400I-270400J0D01*
G01*
X9844400Y29337400D01*
G75*
G02*
X9574000Y29607800I0J270400D01*
G01*
G37*
G36*
G01*
X22867000Y31844400D02*
X22867000Y29633200D01*
G75*
G02*
X22596600Y29362800I-270400J0D01*
G01*
X21785400Y29362800D01*
G75*
G02*
X21515000Y29633200I0J270400D01*
G01*
X21515000Y31844400D01*
G75*
G02*
X21785400Y32114800I270400J0D01*
G01*
X22596600Y32114800D01*
G75*
G02*
X22867000Y31844400I0J-270400D01*
G01*
G37*
G36*
G01*
X25667000Y31844400D02*
X25667000Y29633200D01*
G75*
G02*
X25396600Y29362800I-270400J0D01*
G01*
X24585400Y29362800D01*
G75*
G02*
X24315000Y29633200I0J270400D01*
G01*
X24315000Y31844400D01*
G75*
G02*
X24585400Y32114800I270400J0D01*
G01*
X25396600Y32114800D01*
G75*
G02*
X25667000Y31844400I0J-270400D01*
G01*
G37*
G36*
G01*
X8316500Y34404000D02*
X8316500Y35354000D01*
G75*
G02*
X8367500Y35405000I51000J0D01*
G01*
X9242500Y35405000D01*
G75*
G02*
X9293500Y35354000I0J-51000D01*
G01*
X9293500Y34404000D01*
G75*
G02*
X9242500Y34353000I-51000J0D01*
G01*
X8367500Y34353000D01*
G75*
G02*
X8316500Y34404000I0J51000D01*
G01*
G37*
G36*
G01*
X9891500Y34404000D02*
X9891500Y35354000D01*
G75*
G02*
X9942500Y35405000I51000J0D01*
G01*
X10817500Y35405000D01*
G75*
G02*
X10868500Y35354000I0J-51000D01*
G01*
X10868500Y34404000D01*
G75*
G02*
X10817500Y34353000I-51000J0D01*
G01*
X9942500Y34353000D01*
G75*
G02*
X9891500Y34404000I0J51000D01*
G01*
G37*
G36*
G01*
X8342000Y36055000D02*
X8342000Y37005000D01*
G75*
G02*
X8393000Y37056000I51000J0D01*
G01*
X9268000Y37056000D01*
G75*
G02*
X9319000Y37005000I0J-51000D01*
G01*
X9319000Y36055000D01*
G75*
G02*
X9268000Y36004000I-51000J0D01*
G01*
X8393000Y36004000D01*
G75*
G02*
X8342000Y36055000I0J51000D01*
G01*
G37*
G36*
G01*
X9917000Y36055000D02*
X9917000Y37005000D01*
G75*
G02*
X9968000Y37056000I51000J0D01*
G01*
X10843000Y37056000D01*
G75*
G02*
X10894000Y37005000I0J-51000D01*
G01*
X10894000Y36055000D01*
G75*
G02*
X10843000Y36004000I-51000J0D01*
G01*
X9968000Y36004000D01*
G75*
G02*
X9917000Y36055000I0J51000D01*
G01*
G37*
G36*
G01*
X26896000Y35481000D02*
X26896000Y34531000D01*
G75*
G02*
X26845000Y34480000I-51000J0D01*
G01*
X25970000Y34480000D01*
G75*
G02*
X25919000Y34531000I0J51000D01*
G01*
X25919000Y35481000D01*
G75*
G02*
X25970000Y35532000I51000J0D01*
G01*
X26845000Y35532000D01*
G75*
G02*
X26896000Y35481000I0J-51000D01*
G01*
G37*
G36*
G01*
X25321000Y35481000D02*
X25321000Y34531000D01*
G75*
G02*
X25270000Y34480000I-51000J0D01*
G01*
X24395000Y34480000D01*
G75*
G02*
X24344000Y34531000I0J51000D01*
G01*
X24344000Y35481000D01*
G75*
G02*
X24395000Y35532000I51000J0D01*
G01*
X25270000Y35532000D01*
G75*
G02*
X25321000Y35481000I0J-51000D01*
G01*
G37*
G36*
G01*
X26896000Y37005000D02*
X26896000Y36055000D01*
G75*
G02*
X26845000Y36004000I-51000J0D01*
G01*
X25970000Y36004000D01*
G75*
G02*
X25919000Y36055000I0J51000D01*
G01*
X25919000Y37005000D01*
G75*
G02*
X25970000Y37056000I51000J0D01*
G01*
X26845000Y37056000D01*
G75*
G02*
X26896000Y37005000I0J-51000D01*
G01*
G37*
G36*
G01*
X25321000Y37005000D02*
X25321000Y36055000D01*
G75*
G02*
X25270000Y36004000I-51000J0D01*
G01*
X24395000Y36004000D01*
G75*
G02*
X24344000Y36055000I0J51000D01*
G01*
X24344000Y37005000D01*
G75*
G02*
X24395000Y37056000I51000J0D01*
G01*
X25270000Y37056000D01*
G75*
G02*
X25321000Y37005000I0J-51000D01*
G01*
G37*
G36*
G01*
X11923500Y10401000D02*
X11923500Y11351000D01*
G75*
G02*
X11974500Y11402000I51000J0D01*
G01*
X12849500Y11402000D01*
G75*
G02*
X12900500Y11351000I0J-51000D01*
G01*
X12900500Y10401000D01*
G75*
G02*
X12849500Y10350000I-51000J0D01*
G01*
X11974500Y10350000D01*
G75*
G02*
X11923500Y10401000I0J51000D01*
G01*
G37*
G36*
G01*
X13498500Y10401000D02*
X13498500Y11351000D01*
G75*
G02*
X13549500Y11402000I51000J0D01*
G01*
X14424500Y11402000D01*
G75*
G02*
X14475500Y11351000I0J-51000D01*
G01*
X14475500Y10401000D01*
G75*
G02*
X14424500Y10350000I-51000J0D01*
G01*
X13549500Y10350000D01*
G75*
G02*
X13498500Y10401000I0J51000D01*
G01*
G37*
D10*
X21429000Y35437800D03*
X18889000Y35437800D03*
X16349000Y35437800D03*
G36*
G01*
X14749000Y36326800D02*
X14749000Y34548800D01*
G75*
G02*
X14698000Y34497800I-51000J0D01*
G01*
X12920000Y34497800D01*
G75*
G02*
X12869000Y34548800I0J51000D01*
G01*
X12869000Y36326800D01*
G75*
G02*
X12920000Y36377800I51000J0D01*
G01*
X14698000Y36377800D01*
G75*
G02*
X14749000Y36326800I0J-51000D01*
G01*
G37*
D11*
X9652800Y1014800D03*
X25652800Y1014800D03*
X24652800Y1014800D03*
X23652800Y1014800D03*
X22652800Y1014800D03*
X21652800Y1014800D03*
X8652800Y1014800D03*
X18652800Y1014800D03*
X17652800Y1014800D03*
X16652800Y1014800D03*
X15652800Y1014800D03*
X14652800Y1014800D03*
X13652800Y1014800D03*
X12652800Y1014800D03*
X11652800Y1014800D03*
X10652800Y1014800D03*
G36*
G01*
X22276800Y1014799D02*
X22276800Y5614801D01*
G75*
G02*
X22327799Y5665800I50999J0D01*
G01*
X22977801Y5665800D01*
G75*
G02*
X23028800Y5614801I0J-50999D01*
G01*
X23028800Y1014799D01*
G75*
G02*
X22977801Y963800I-50999J0D01*
G01*
X22327799Y963800D01*
G75*
G02*
X22276800Y1014799I0J50999D01*
G01*
G37*
G36*
G01*
X21276800Y1014799D02*
X21276800Y5614801D01*
G75*
G02*
X21327799Y5665800I50999J0D01*
G01*
X21977801Y5665800D01*
G75*
G02*
X22028800Y5614801I0J-50999D01*
G01*
X22028800Y1014799D01*
G75*
G02*
X21977801Y963800I-50999J0D01*
G01*
X21327799Y963800D01*
G75*
G02*
X21276800Y1014799I0J50999D01*
G01*
G37*
G36*
G01*
X27276800Y1014799D02*
X27276800Y5614801D01*
G75*
G02*
X27327799Y5665800I50999J0D01*
G01*
X27977801Y5665800D01*
G75*
G02*
X28028800Y5614801I0J-50999D01*
G01*
X28028800Y1014799D01*
G75*
G02*
X27977801Y963800I-50999J0D01*
G01*
X27327799Y963800D01*
G75*
G02*
X27276800Y1014799I0J50999D01*
G01*
G37*
G36*
G01*
X26276800Y2014799D02*
X26276800Y5614801D01*
G75*
G02*
X26327799Y5665800I50999J0D01*
G01*
X26977801Y5665800D01*
G75*
G02*
X27028800Y5614801I0J-50999D01*
G01*
X27028800Y2014799D01*
G75*
G02*
X26977801Y1963800I-50999J0D01*
G01*
X26327799Y1963800D01*
G75*
G02*
X26276800Y2014799I0J50999D01*
G01*
G37*
G36*
G01*
X25276800Y1014799D02*
X25276800Y5614801D01*
G75*
G02*
X25327799Y5665800I50999J0D01*
G01*
X25977801Y5665800D01*
G75*
G02*
X26028800Y5614801I0J-50999D01*
G01*
X26028800Y1014799D01*
G75*
G02*
X25977801Y963800I-50999J0D01*
G01*
X25327799Y963800D01*
G75*
G02*
X25276800Y1014799I0J50999D01*
G01*
G37*
G36*
G01*
X24276800Y1014799D02*
X24276800Y5614801D01*
G75*
G02*
X24327799Y5665800I50999J0D01*
G01*
X24977801Y5665800D01*
G75*
G02*
X25028800Y5614801I0J-50999D01*
G01*
X25028800Y1014799D01*
G75*
G02*
X24977801Y963800I-50999J0D01*
G01*
X24327799Y963800D01*
G75*
G02*
X24276800Y1014799I0J50999D01*
G01*
G37*
G36*
G01*
X23276800Y1014799D02*
X23276800Y5614801D01*
G75*
G02*
X23327799Y5665800I50999J0D01*
G01*
X23977801Y5665800D01*
G75*
G02*
X24028800Y5614801I0J-50999D01*
G01*
X24028800Y1014799D01*
G75*
G02*
X23977801Y963800I-50999J0D01*
G01*
X23327799Y963800D01*
G75*
G02*
X23276800Y1014799I0J50999D01*
G01*
G37*
G36*
G01*
X18276800Y1014799D02*
X18276800Y5614801D01*
G75*
G02*
X18327799Y5665800I50999J0D01*
G01*
X18977801Y5665800D01*
G75*
G02*
X19028800Y5614801I0J-50999D01*
G01*
X19028800Y1014799D01*
G75*
G02*
X18977801Y963800I-50999J0D01*
G01*
X18327799Y963800D01*
G75*
G02*
X18276800Y1014799I0J50999D01*
G01*
G37*
G36*
G01*
X17276800Y1014799D02*
X17276800Y5614801D01*
G75*
G02*
X17327799Y5665800I50999J0D01*
G01*
X17977801Y5665800D01*
G75*
G02*
X18028800Y5614801I0J-50999D01*
G01*
X18028800Y1014799D01*
G75*
G02*
X17977801Y963800I-50999J0D01*
G01*
X17327799Y963800D01*
G75*
G02*
X17276800Y1014799I0J50999D01*
G01*
G37*
G36*
G01*
X16276800Y1014799D02*
X16276800Y5614801D01*
G75*
G02*
X16327799Y5665800I50999J0D01*
G01*
X16977801Y5665800D01*
G75*
G02*
X17028800Y5614801I0J-50999D01*
G01*
X17028800Y1014799D01*
G75*
G02*
X16977801Y963800I-50999J0D01*
G01*
X16327799Y963800D01*
G75*
G02*
X16276800Y1014799I0J50999D01*
G01*
G37*
G36*
G01*
X15276800Y1014799D02*
X15276800Y5614801D01*
G75*
G02*
X15327799Y5665800I50999J0D01*
G01*
X15977801Y5665800D01*
G75*
G02*
X16028800Y5614801I0J-50999D01*
G01*
X16028800Y1014799D01*
G75*
G02*
X15977801Y963800I-50999J0D01*
G01*
X15327799Y963800D01*
G75*
G02*
X15276800Y1014799I0J50999D01*
G01*
G37*
G36*
G01*
X14276800Y1014799D02*
X14276800Y5614801D01*
G75*
G02*
X14327799Y5665800I50999J0D01*
G01*
X14977801Y5665800D01*
G75*
G02*
X15028800Y5614801I0J-50999D01*
G01*
X15028800Y1014799D01*
G75*
G02*
X14977801Y963800I-50999J0D01*
G01*
X14327799Y963800D01*
G75*
G02*
X14276800Y1014799I0J50999D01*
G01*
G37*
G36*
G01*
X13276800Y1014799D02*
X13276800Y5614801D01*
G75*
G02*
X13327799Y5665800I50999J0D01*
G01*
X13977801Y5665800D01*
G75*
G02*
X14028800Y5614801I0J-50999D01*
G01*
X14028800Y1014799D01*
G75*
G02*
X13977801Y963800I-50999J0D01*
G01*
X13327799Y963800D01*
G75*
G02*
X13276800Y1014799I0J50999D01*
G01*
G37*
G36*
G01*
X12276800Y1014799D02*
X12276800Y5614801D01*
G75*
G02*
X12327799Y5665800I50999J0D01*
G01*
X12977801Y5665800D01*
G75*
G02*
X13028800Y5614801I0J-50999D01*
G01*
X13028800Y1014799D01*
G75*
G02*
X12977801Y963800I-50999J0D01*
G01*
X12327799Y963800D01*
G75*
G02*
X12276800Y1014799I0J50999D01*
G01*
G37*
G36*
G01*
X11276800Y1014799D02*
X11276800Y5614801D01*
G75*
G02*
X11327799Y5665800I50999J0D01*
G01*
X11977801Y5665800D01*
G75*
G02*
X12028800Y5614801I0J-50999D01*
G01*
X12028800Y1014799D01*
G75*
G02*
X11977801Y963800I-50999J0D01*
G01*
X11327799Y963800D01*
G75*
G02*
X11276800Y1014799I0J50999D01*
G01*
G37*
G36*
G01*
X10276800Y1014799D02*
X10276800Y5614801D01*
G75*
G02*
X10327799Y5665800I50999J0D01*
G01*
X10977801Y5665800D01*
G75*
G02*
X11028800Y5614801I0J-50999D01*
G01*
X11028800Y1014799D01*
G75*
G02*
X10977801Y963800I-50999J0D01*
G01*
X10327799Y963800D01*
G75*
G02*
X10276800Y1014799I0J50999D01*
G01*
G37*
G36*
G01*
X9276800Y1014799D02*
X9276800Y5614801D01*
G75*
G02*
X9327799Y5665800I50999J0D01*
G01*
X9977801Y5665800D01*
G75*
G02*
X10028800Y5614801I0J-50999D01*
G01*
X10028800Y1014799D01*
G75*
G02*
X9977801Y963800I-50999J0D01*
G01*
X9327799Y963800D01*
G75*
G02*
X9276800Y1014799I0J50999D01*
G01*
G37*
G36*
G01*
X8276800Y1014799D02*
X8276800Y5614801D01*
G75*
G02*
X8327799Y5665800I50999J0D01*
G01*
X8977801Y5665800D01*
G75*
G02*
X9028800Y5614801I0J-50999D01*
G01*
X9028800Y1014799D01*
G75*
G02*
X8977801Y963800I-50999J0D01*
G01*
X8327799Y963800D01*
G75*
G02*
X8276800Y1014799I0J50999D01*
G01*
G37*
X27652800Y1014800D03*
D12*
X33750000Y3256000D03*
X2800000Y3256000D03*
G36*
G01*
X193000Y7936500D02*
X193000Y8063500D01*
G75*
G02*
X244000Y8114500I51000J0D01*
G01*
X3244000Y8114500D01*
G75*
G02*
X3295000Y8063500I0J-51000D01*
G01*
X3295000Y7936500D01*
G75*
G02*
X3244000Y7885500I-51000J0D01*
G01*
X244000Y7885500D01*
G75*
G02*
X193000Y7936500I0J51000D01*
G01*
G37*
G36*
G01*
X1629500Y6500000D02*
X1629500Y9500000D01*
G75*
G02*
X1680500Y9551000I51000J0D01*
G01*
X1807500Y9551000D01*
G75*
G02*
X1858500Y9500000I0J-51000D01*
G01*
X1858500Y6500000D01*
G75*
G02*
X1807500Y6449000I-51000J0D01*
G01*
X1680500Y6449000D01*
G75*
G02*
X1629500Y6500000I0J51000D01*
G01*
G37*
G36*
G01*
X33213000Y37482500D02*
X33213000Y37609500D01*
G75*
G02*
X33264000Y37660500I51000J0D01*
G01*
X36264000Y37660500D01*
G75*
G02*
X36315000Y37609500I0J-51000D01*
G01*
X36315000Y37482500D01*
G75*
G02*
X36264000Y37431500I-51000J0D01*
G01*
X33264000Y37431500D01*
G75*
G02*
X33213000Y37482500I0J51000D01*
G01*
G37*
G36*
G01*
X34649500Y36046000D02*
X34649500Y39046000D01*
G75*
G02*
X34700500Y39097000I51000J0D01*
G01*
X34827500Y39097000D01*
G75*
G02*
X34878500Y39046000I0J-51000D01*
G01*
X34878500Y36046000D01*
G75*
G02*
X34827500Y35995000I-51000J0D01*
G01*
X34700500Y35995000D01*
G75*
G02*
X34649500Y36046000I0J51000D01*
G01*
G37*
G36*
G01*
X33213000Y7936500D02*
X33213000Y8063500D01*
G75*
G02*
X33264000Y8114500I51000J0D01*
G01*
X36264000Y8114500D01*
G75*
G02*
X36315000Y8063500I0J-51000D01*
G01*
X36315000Y7936500D01*
G75*
G02*
X36264000Y7885500I-51000J0D01*
G01*
X33264000Y7885500D01*
G75*
G02*
X33213000Y7936500I0J51000D01*
G01*
G37*
G36*
G01*
X34649500Y6500000D02*
X34649500Y9500000D01*
G75*
G02*
X34700500Y9551000I51000J0D01*
G01*
X34827500Y9551000D01*
G75*
G02*
X34878500Y9500000I0J-51000D01*
G01*
X34878500Y6500000D01*
G75*
G02*
X34827500Y6449000I-51000J0D01*
G01*
X34700500Y6449000D01*
G75*
G02*
X34649500Y6500000I0J51000D01*
G01*
G37*
G36*
G01*
X193000Y37482500D02*
X193000Y37609500D01*
G75*
G02*
X244000Y37660500I51000J0D01*
G01*
X3244000Y37660500D01*
G75*
G02*
X3295000Y37609500I0J-51000D01*
G01*
X3295000Y37482500D01*
G75*
G02*
X3244000Y37431500I-51000J0D01*
G01*
X244000Y37431500D01*
G75*
G02*
X193000Y37482500I0J51000D01*
G01*
G37*
G36*
G01*
X1629500Y36046000D02*
X1629500Y39046000D01*
G75*
G02*
X1680500Y39097000I51000J0D01*
G01*
X1807500Y39097000D01*
G75*
G02*
X1858500Y39046000I0J-51000D01*
G01*
X1858500Y36046000D01*
G75*
G02*
X1807500Y35995000I-51000J0D01*
G01*
X1680500Y35995000D01*
G75*
G02*
X1629500Y36046000I0J51000D01*
G01*
G37*
G36*
G01*
X28370000Y26765000D02*
X28370000Y28515000D01*
G75*
G02*
X28421000Y28566000I51000J0D01*
G01*
X29671000Y28566000D01*
G75*
G02*
X29722000Y28515000I0J-51000D01*
G01*
X29722000Y26765000D01*
G75*
G02*
X29671000Y26714000I-51000J0D01*
G01*
X28421000Y26714000D01*
G75*
G02*
X28370000Y26765000I0J51000D01*
G01*
G37*
G36*
G01*
X31170000Y26765000D02*
X31170000Y28515000D01*
G75*
G02*
X31221000Y28566000I51000J0D01*
G01*
X32471000Y28566000D01*
G75*
G02*
X32522000Y28515000I0J-51000D01*
G01*
X32522000Y26765000D01*
G75*
G02*
X32471000Y26714000I-51000J0D01*
G01*
X31221000Y26714000D01*
G75*
G02*
X31170000Y26765000I0J51000D01*
G01*
G37*
G36*
G01*
X7884000Y28515000D02*
X7884000Y26765000D01*
G75*
G02*
X7833000Y26714000I-51000J0D01*
G01*
X6583000Y26714000D01*
G75*
G02*
X6532000Y26765000I0J51000D01*
G01*
X6532000Y28515000D01*
G75*
G02*
X6583000Y28566000I51000J0D01*
G01*
X7833000Y28566000D01*
G75*
G02*
X7884000Y28515000I0J-51000D01*
G01*
G37*
G36*
G01*
X5084000Y28515000D02*
X5084000Y26765000D01*
G75*
G02*
X5033000Y26714000I-51000J0D01*
G01*
X3783000Y26714000D01*
G75*
G02*
X3732000Y26765000I0J51000D01*
G01*
X3732000Y28515000D01*
G75*
G02*
X3783000Y28566000I51000J0D01*
G01*
X5033000Y28566000D01*
G75*
G02*
X5084000Y28515000I0J-51000D01*
G01*
G37*
G36*
G01*
X13774000Y27198000D02*
X13774000Y26558000D01*
G75*
G02*
X13723000Y26507000I-51000J0D01*
G01*
X13133000Y26507000D01*
G75*
G02*
X13082000Y26558000I0J51000D01*
G01*
X13082000Y27198000D01*
G75*
G02*
X13133000Y27249000I51000J0D01*
G01*
X13723000Y27249000D01*
G75*
G02*
X13774000Y27198000I0J-51000D01*
G01*
G37*
G36*
G01*
X12804000Y27198000D02*
X12804000Y26558000D01*
G75*
G02*
X12753000Y26507000I-51000J0D01*
G01*
X12163000Y26507000D01*
G75*
G02*
X12112000Y26558000I0J51000D01*
G01*
X12112000Y27198000D01*
G75*
G02*
X12163000Y27249000I51000J0D01*
G01*
X12753000Y27249000D01*
G75*
G02*
X12804000Y27198000I0J-51000D01*
G01*
G37*
G36*
G01*
X21510000Y26558000D02*
X21510000Y27198000D01*
G75*
G02*
X21561000Y27249000I51000J0D01*
G01*
X22151000Y27249000D01*
G75*
G02*
X22202000Y27198000I0J-51000D01*
G01*
X22202000Y26558000D01*
G75*
G02*
X22151000Y26507000I-51000J0D01*
G01*
X21561000Y26507000D01*
G75*
G02*
X21510000Y26558000I0J51000D01*
G01*
G37*
G36*
G01*
X22480000Y26558000D02*
X22480000Y27198000D01*
G75*
G02*
X22531000Y27249000I51000J0D01*
G01*
X23121000Y27249000D01*
G75*
G02*
X23172000Y27198000I0J-51000D01*
G01*
X23172000Y26558000D01*
G75*
G02*
X23121000Y26507000I-51000J0D01*
G01*
X22531000Y26507000D01*
G75*
G02*
X22480000Y26558000I0J51000D01*
G01*
G37*
G36*
G01*
X10247000Y20688000D02*
X10247000Y21638000D01*
G75*
G02*
X10298000Y21689000I51000J0D01*
G01*
X11173000Y21689000D01*
G75*
G02*
X11224000Y21638000I0J-51000D01*
G01*
X11224000Y20688000D01*
G75*
G02*
X11173000Y20637000I-51000J0D01*
G01*
X10298000Y20637000D01*
G75*
G02*
X10247000Y20688000I0J51000D01*
G01*
G37*
G36*
G01*
X11822000Y20688000D02*
X11822000Y21638000D01*
G75*
G02*
X11873000Y21689000I51000J0D01*
G01*
X12748000Y21689000D01*
G75*
G02*
X12799000Y21638000I0J-51000D01*
G01*
X12799000Y20688000D01*
G75*
G02*
X12748000Y20637000I-51000J0D01*
G01*
X11873000Y20637000D01*
G75*
G02*
X11822000Y20688000I0J51000D01*
G01*
G37*
G36*
G01*
X10221500Y22339000D02*
X10221500Y23289000D01*
G75*
G02*
X10272500Y23340000I51000J0D01*
G01*
X11147500Y23340000D01*
G75*
G02*
X11198500Y23289000I0J-51000D01*
G01*
X11198500Y22339000D01*
G75*
G02*
X11147500Y22288000I-51000J0D01*
G01*
X10272500Y22288000D01*
G75*
G02*
X10221500Y22339000I0J51000D01*
G01*
G37*
G36*
G01*
X11796500Y22339000D02*
X11796500Y23289000D01*
G75*
G02*
X11847500Y23340000I51000J0D01*
G01*
X12722500Y23340000D01*
G75*
G02*
X12773500Y23289000I0J-51000D01*
G01*
X12773500Y22339000D01*
G75*
G02*
X12722500Y22288000I-51000J0D01*
G01*
X11847500Y22288000D01*
G75*
G02*
X11796500Y22339000I0J51000D01*
G01*
G37*
G36*
G01*
X11872500Y18148000D02*
X11872500Y19098000D01*
G75*
G02*
X11923500Y19149000I51000J0D01*
G01*
X12798500Y19149000D01*
G75*
G02*
X12849500Y19098000I0J-51000D01*
G01*
X12849500Y18148000D01*
G75*
G02*
X12798500Y18097000I-51000J0D01*
G01*
X11923500Y18097000D01*
G75*
G02*
X11872500Y18148000I0J51000D01*
G01*
G37*
G36*
G01*
X13447500Y18148000D02*
X13447500Y19098000D01*
G75*
G02*
X13498500Y19149000I51000J0D01*
G01*
X14373500Y19149000D01*
G75*
G02*
X14424500Y19098000I0J-51000D01*
G01*
X14424500Y18148000D01*
G75*
G02*
X14373500Y18097000I-51000J0D01*
G01*
X13498500Y18097000D01*
G75*
G02*
X13447500Y18148000I0J51000D01*
G01*
G37*
G36*
G01*
X22312000Y19926000D02*
X22312000Y20876000D01*
G75*
G02*
X22363000Y20927000I51000J0D01*
G01*
X23238000Y20927000D01*
G75*
G02*
X23289000Y20876000I0J-51000D01*
G01*
X23289000Y19926000D01*
G75*
G02*
X23238000Y19875000I-51000J0D01*
G01*
X22363000Y19875000D01*
G75*
G02*
X22312000Y19926000I0J51000D01*
G01*
G37*
G36*
G01*
X23887000Y19926000D02*
X23887000Y20876000D01*
G75*
G02*
X23938000Y20927000I51000J0D01*
G01*
X24813000Y20927000D01*
G75*
G02*
X24864000Y20876000I0J-51000D01*
G01*
X24864000Y19926000D01*
G75*
G02*
X24813000Y19875000I-51000J0D01*
G01*
X23938000Y19875000D01*
G75*
G02*
X23887000Y19926000I0J51000D01*
G01*
G37*
G36*
X15278119Y5603994D02*
G01*
X15278800Y5602490D01*
X15278800Y1027113D01*
X15277800Y1025381D01*
X15275800Y1025381D01*
X15274838Y1026723D01*
X15273487Y1033513D01*
X15245224Y1090829D01*
X15192317Y1126182D01*
X15128820Y1130345D01*
X15071812Y1102233D01*
X15032100Y1033449D01*
X15030762Y1026723D01*
X15029443Y1025219D01*
X15027481Y1025609D01*
X15026800Y1027113D01*
X15026800Y5602490D01*
X15027800Y5604222D01*
X15029800Y5604222D01*
X15030762Y5602880D01*
X15032114Y5596085D01*
X15060378Y5538770D01*
X15113285Y5503418D01*
X15176782Y5499256D01*
X15233789Y5527369D01*
X15273499Y5596149D01*
X15274838Y5602880D01*
X15276157Y5604384D01*
X15278119Y5603994D01*
G37*
G36*
X14278119Y5603994D02*
G01*
X14278800Y5602490D01*
X14278800Y1027113D01*
X14277800Y1025381D01*
X14275800Y1025381D01*
X14274838Y1026723D01*
X14273487Y1033513D01*
X14245224Y1090829D01*
X14192317Y1126182D01*
X14128820Y1130345D01*
X14071812Y1102233D01*
X14032100Y1033449D01*
X14030762Y1026723D01*
X14029443Y1025219D01*
X14027481Y1025609D01*
X14026800Y1027113D01*
X14026800Y5602490D01*
X14027800Y5604222D01*
X14029800Y5604222D01*
X14030762Y5602880D01*
X14032114Y5596085D01*
X14060378Y5538770D01*
X14113285Y5503418D01*
X14176782Y5499256D01*
X14233789Y5527369D01*
X14273499Y5596149D01*
X14274838Y5602880D01*
X14276157Y5604384D01*
X14278119Y5603994D01*
G37*
G36*
X17278119Y5603994D02*
G01*
X17278800Y5602490D01*
X17278800Y1027113D01*
X17277800Y1025381D01*
X17275800Y1025381D01*
X17274838Y1026723D01*
X17273487Y1033513D01*
X17245224Y1090829D01*
X17192317Y1126182D01*
X17128820Y1130345D01*
X17071812Y1102233D01*
X17032100Y1033449D01*
X17030762Y1026723D01*
X17029443Y1025219D01*
X17027481Y1025609D01*
X17026800Y1027113D01*
X17026800Y5602490D01*
X17027800Y5604222D01*
X17029800Y5604222D01*
X17030762Y5602880D01*
X17032114Y5596085D01*
X17060378Y5538770D01*
X17113285Y5503418D01*
X17176782Y5499256D01*
X17233789Y5527369D01*
X17273499Y5596149D01*
X17274838Y5602880D01*
X17276157Y5604384D01*
X17278119Y5603994D01*
G37*
G36*
X22278119Y5603994D02*
G01*
X22278800Y5602490D01*
X22278800Y1027113D01*
X22277800Y1025381D01*
X22275800Y1025381D01*
X22274838Y1026723D01*
X22273487Y1033513D01*
X22245224Y1090829D01*
X22192317Y1126182D01*
X22128820Y1130345D01*
X22071812Y1102233D01*
X22032100Y1033449D01*
X22030762Y1026723D01*
X22029443Y1025219D01*
X22027481Y1025609D01*
X22026800Y1027113D01*
X22026800Y5602490D01*
X22027800Y5604222D01*
X22029800Y5604222D01*
X22030762Y5602880D01*
X22032114Y5596085D01*
X22060378Y5538770D01*
X22113285Y5503418D01*
X22176782Y5499256D01*
X22233789Y5527369D01*
X22273499Y5596149D01*
X22274838Y5602880D01*
X22276157Y5604384D01*
X22278119Y5603994D01*
G37*
G36*
X16278119Y5603994D02*
G01*
X16278800Y5602490D01*
X16278800Y1027113D01*
X16277800Y1025381D01*
X16275800Y1025381D01*
X16274838Y1026723D01*
X16273487Y1033513D01*
X16245224Y1090829D01*
X16192317Y1126182D01*
X16128820Y1130345D01*
X16071812Y1102233D01*
X16032100Y1033449D01*
X16030762Y1026723D01*
X16029443Y1025219D01*
X16027481Y1025609D01*
X16026800Y1027113D01*
X16026800Y5602490D01*
X16027800Y5604222D01*
X16029800Y5604222D01*
X16030762Y5602880D01*
X16032114Y5596085D01*
X16060378Y5538770D01*
X16113285Y5503418D01*
X16176782Y5499256D01*
X16233789Y5527369D01*
X16273499Y5596149D01*
X16274838Y5602880D01*
X16276157Y5604384D01*
X16278119Y5603994D01*
G37*
G36*
X13278119Y5603994D02*
G01*
X13278800Y5602490D01*
X13278800Y1027113D01*
X13277800Y1025381D01*
X13275800Y1025381D01*
X13274838Y1026723D01*
X13273487Y1033513D01*
X13245224Y1090829D01*
X13192317Y1126182D01*
X13128820Y1130345D01*
X13071812Y1102233D01*
X13032100Y1033449D01*
X13030762Y1026723D01*
X13029443Y1025219D01*
X13027481Y1025609D01*
X13026800Y1027113D01*
X13026800Y5602490D01*
X13027800Y5604222D01*
X13029800Y5604222D01*
X13030762Y5602880D01*
X13032114Y5596085D01*
X13060378Y5538770D01*
X13113285Y5503418D01*
X13176782Y5499256D01*
X13233789Y5527369D01*
X13273499Y5596149D01*
X13274838Y5602880D01*
X13276157Y5604384D01*
X13278119Y5603994D01*
G37*
G36*
X11278119Y5603994D02*
G01*
X11278800Y5602490D01*
X11278800Y1027113D01*
X11277800Y1025381D01*
X11275800Y1025381D01*
X11274838Y1026723D01*
X11273487Y1033513D01*
X11245224Y1090829D01*
X11192317Y1126182D01*
X11128820Y1130345D01*
X11071812Y1102233D01*
X11032100Y1033449D01*
X11030762Y1026723D01*
X11029443Y1025219D01*
X11027481Y1025609D01*
X11026800Y1027113D01*
X11026800Y5602490D01*
X11027800Y5604222D01*
X11029800Y5604222D01*
X11030762Y5602880D01*
X11032114Y5596085D01*
X11060378Y5538770D01*
X11113285Y5503418D01*
X11176782Y5499256D01*
X11233789Y5527369D01*
X11273499Y5596149D01*
X11274838Y5602880D01*
X11276157Y5604384D01*
X11278119Y5603994D01*
G37*
G36*
X12278119Y5603994D02*
G01*
X12278800Y5602490D01*
X12278800Y1027113D01*
X12277800Y1025381D01*
X12275800Y1025381D01*
X12274838Y1026723D01*
X12273487Y1033513D01*
X12245224Y1090829D01*
X12192317Y1126182D01*
X12128820Y1130345D01*
X12071812Y1102233D01*
X12032100Y1033449D01*
X12030762Y1026723D01*
X12029443Y1025219D01*
X12027481Y1025609D01*
X12026800Y1027113D01*
X12026800Y5602490D01*
X12027800Y5604222D01*
X12029800Y5604222D01*
X12030762Y5602880D01*
X12032114Y5596085D01*
X12060378Y5538770D01*
X12113285Y5503418D01*
X12176782Y5499256D01*
X12233789Y5527369D01*
X12273499Y5596149D01*
X12274838Y5602880D01*
X12276157Y5604384D01*
X12278119Y5603994D01*
G37*
G36*
X18278119Y5603994D02*
G01*
X18278800Y5602490D01*
X18278800Y1027113D01*
X18277800Y1025381D01*
X18275800Y1025381D01*
X18274838Y1026723D01*
X18273487Y1033513D01*
X18245224Y1090829D01*
X18192317Y1126182D01*
X18128820Y1130345D01*
X18071812Y1102233D01*
X18032100Y1033449D01*
X18030762Y1026723D01*
X18029443Y1025219D01*
X18027481Y1025609D01*
X18026800Y1027113D01*
X18026800Y5602490D01*
X18027800Y5604222D01*
X18029800Y5604222D01*
X18030762Y5602880D01*
X18032114Y5596085D01*
X18060378Y5538770D01*
X18113285Y5503418D01*
X18176782Y5499256D01*
X18233789Y5527369D01*
X18273499Y5596149D01*
X18274838Y5602880D01*
X18276157Y5604384D01*
X18278119Y5603994D01*
G37*
G36*
X10278119Y5603994D02*
G01*
X10278800Y5602490D01*
X10278800Y1027113D01*
X10277800Y1025381D01*
X10275800Y1025381D01*
X10274838Y1026723D01*
X10273487Y1033513D01*
X10245224Y1090829D01*
X10192317Y1126182D01*
X10128820Y1130345D01*
X10071812Y1102233D01*
X10032100Y1033449D01*
X10030762Y1026723D01*
X10029443Y1025219D01*
X10027481Y1025609D01*
X10026800Y1027113D01*
X10026800Y5602490D01*
X10027800Y5604222D01*
X10029800Y5604222D01*
X10030762Y5602880D01*
X10032114Y5596085D01*
X10060378Y5538770D01*
X10113285Y5503418D01*
X10176782Y5499256D01*
X10233789Y5527369D01*
X10273499Y5596149D01*
X10274838Y5602880D01*
X10276157Y5604384D01*
X10278119Y5603994D01*
G37*
G36*
X23278119Y5603994D02*
G01*
X23278800Y5602490D01*
X23278800Y1027113D01*
X23277800Y1025381D01*
X23275800Y1025381D01*
X23274838Y1026723D01*
X23273487Y1033513D01*
X23245224Y1090829D01*
X23192317Y1126182D01*
X23128820Y1130345D01*
X23071812Y1102233D01*
X23032100Y1033449D01*
X23030762Y1026723D01*
X23029443Y1025219D01*
X23027481Y1025609D01*
X23026800Y1027113D01*
X23026800Y5602490D01*
X23027800Y5604222D01*
X23029800Y5604222D01*
X23030762Y5602880D01*
X23032114Y5596085D01*
X23060378Y5538770D01*
X23113285Y5503418D01*
X23176782Y5499256D01*
X23233789Y5527369D01*
X23273499Y5596149D01*
X23274838Y5602880D01*
X23276157Y5604384D01*
X23278119Y5603994D01*
G37*
G36*
X24278119Y5603994D02*
G01*
X24278800Y5602490D01*
X24278800Y1027113D01*
X24277800Y1025381D01*
X24275800Y1025381D01*
X24274838Y1026723D01*
X24273487Y1033513D01*
X24245224Y1090829D01*
X24192317Y1126182D01*
X24128820Y1130345D01*
X24071812Y1102233D01*
X24032100Y1033449D01*
X24030762Y1026723D01*
X24029443Y1025219D01*
X24027481Y1025609D01*
X24026800Y1027113D01*
X24026800Y5602490D01*
X24027800Y5604222D01*
X24029800Y5604222D01*
X24030762Y5602880D01*
X24032114Y5596085D01*
X24060378Y5538770D01*
X24113285Y5503418D01*
X24176782Y5499256D01*
X24233789Y5527369D01*
X24273499Y5596149D01*
X24274838Y5602880D01*
X24276157Y5604384D01*
X24278119Y5603994D01*
G37*
G36*
X25278119Y5603994D02*
G01*
X25278800Y5602490D01*
X25278800Y1027113D01*
X25277800Y1025381D01*
X25275800Y1025381D01*
X25274838Y1026723D01*
X25273487Y1033513D01*
X25245224Y1090829D01*
X25192317Y1126182D01*
X25128820Y1130345D01*
X25071812Y1102233D01*
X25032100Y1033449D01*
X25030762Y1026723D01*
X25029443Y1025219D01*
X25027481Y1025609D01*
X25026800Y1027113D01*
X25026800Y5602490D01*
X25027800Y5604222D01*
X25029800Y5604222D01*
X25030762Y5602880D01*
X25032114Y5596085D01*
X25060378Y5538770D01*
X25113285Y5503418D01*
X25176782Y5499256D01*
X25233789Y5527369D01*
X25273499Y5596149D01*
X25274838Y5602880D01*
X25276157Y5604384D01*
X25278119Y5603994D01*
G37*
G36*
X9278119Y5603994D02*
G01*
X9278800Y5602490D01*
X9278800Y1027113D01*
X9277800Y1025381D01*
X9275800Y1025381D01*
X9274838Y1026723D01*
X9273487Y1033513D01*
X9245224Y1090829D01*
X9192317Y1126182D01*
X9128820Y1130345D01*
X9071812Y1102233D01*
X9032100Y1033449D01*
X9030762Y1026723D01*
X9029443Y1025219D01*
X9027481Y1025609D01*
X9026800Y1027113D01*
X9026800Y5602490D01*
X9027800Y5604222D01*
X9029800Y5604222D01*
X9030762Y5602880D01*
X9032114Y5596085D01*
X9060378Y5538770D01*
X9113285Y5503418D01*
X9176782Y5499256D01*
X9233789Y5527369D01*
X9273499Y5596149D01*
X9274838Y5602880D01*
X9276157Y5604384D01*
X9278119Y5603994D01*
G37*
G36*
X26278119Y5603994D02*
G01*
X26278800Y5602490D01*
X26278800Y2027110D01*
X26277800Y2025378D01*
X26275800Y2025378D01*
X26274838Y2026720D01*
X26274485Y2028492D01*
X26246221Y2085807D01*
X26193314Y2121159D01*
X26129817Y2125321D01*
X26072747Y2097177D01*
X26037337Y2044183D01*
X26030773Y2004429D01*
X26029504Y2002883D01*
X26027531Y2003209D01*
X26026800Y2004755D01*
X26026800Y5602490D01*
X26027800Y5604222D01*
X26029800Y5604222D01*
X26030762Y5602880D01*
X26032114Y5596085D01*
X26060378Y5538770D01*
X26113285Y5503418D01*
X26176782Y5499256D01*
X26233789Y5527369D01*
X26273499Y5596149D01*
X26274838Y5602880D01*
X26276157Y5604384D01*
X26278119Y5603994D01*
G37*
G36*
X27278119Y5603994D02*
G01*
X27278800Y5602490D01*
X27278800Y2004755D01*
X27277800Y2003023D01*
X27275800Y2003023D01*
X27274868Y2004237D01*
X27258259Y2066220D01*
X27213267Y2111213D01*
X27151801Y2127683D01*
X27090336Y2111213D01*
X27045270Y2066147D01*
X27031134Y2028590D01*
X27030762Y2026720D01*
X27029443Y2025216D01*
X27027481Y2025606D01*
X27026800Y2027110D01*
X27026800Y5602490D01*
X27027800Y5604222D01*
X27029800Y5604222D01*
X27030762Y5602880D01*
X27032114Y5596085D01*
X27060378Y5538770D01*
X27113285Y5503418D01*
X27176782Y5499256D01*
X27233789Y5527369D01*
X27273499Y5596149D01*
X27274838Y5602880D01*
X27276157Y5604384D01*
X27278119Y5603994D01*
G37*
G36*
X8630767Y11527114D02*
G01*
X8641762Y11519767D01*
X8660699Y11516000D01*
X9310301Y11516000D01*
X9329238Y11519767D01*
X9340233Y11527114D01*
X9342229Y11527245D01*
X9343340Y11525582D01*
X9343007Y11524340D01*
X9333791Y11510548D01*
X9334590Y11510014D01*
X9335475Y11508220D01*
X9334983Y11507032D01*
X9323872Y11494361D01*
X9311462Y11431950D01*
X9331943Y11371631D01*
X9332985Y11370589D01*
X9333234Y11370286D01*
X9343007Y11355660D01*
X9343138Y11353664D01*
X9341475Y11352553D01*
X9340233Y11352886D01*
X9329238Y11360233D01*
X9310301Y11364000D01*
X8660699Y11364000D01*
X8641762Y11360233D01*
X8630767Y11352886D01*
X8628771Y11352755D01*
X8627660Y11354418D01*
X8627993Y11355660D01*
X8637209Y11369452D01*
X8636410Y11369986D01*
X8635525Y11371780D01*
X8636017Y11372968D01*
X8647128Y11385639D01*
X8659538Y11448050D01*
X8639057Y11508369D01*
X8638015Y11509411D01*
X8637766Y11509714D01*
X8627993Y11524340D01*
X8627862Y11526336D01*
X8629525Y11527447D01*
X8630767Y11527114D01*
G37*
G36*
X3494762Y13719880D02*
G01*
X3495692Y13715206D01*
X3523955Y13657890D01*
X3576862Y13622538D01*
X3640429Y13618371D01*
X3684876Y13636782D01*
X3696141Y13644309D01*
X3698137Y13644440D01*
X3699248Y13642777D01*
X3698915Y13641535D01*
X3691567Y13630538D01*
X3687800Y13611601D01*
X3687800Y12051999D01*
X3691567Y12033062D01*
X3698915Y12022065D01*
X3699046Y12020069D01*
X3697383Y12018958D01*
X3696141Y12019291D01*
X3684931Y12026781D01*
X3624418Y12047323D01*
X3562008Y12034909D01*
X3514114Y11992906D01*
X3495705Y11948461D01*
X3494762Y11943721D01*
X3493443Y11942217D01*
X3491481Y11942607D01*
X3490800Y11944111D01*
X3490800Y12231601D01*
X3487033Y12250538D01*
X3476420Y12266420D01*
X3460538Y12277033D01*
X3441601Y12280800D01*
X2761999Y12280800D01*
X2743062Y12277033D01*
X2728242Y12267130D01*
X2726246Y12266999D01*
X2725237Y12269436D01*
X2743655Y12323692D01*
X2724638Y12394664D01*
X2725156Y12396596D01*
X2727681Y12396845D01*
X2743062Y12386567D01*
X2761999Y12382800D01*
X3441601Y12382800D01*
X3460538Y12386567D01*
X3476420Y12397180D01*
X3487033Y12413062D01*
X3490800Y12431999D01*
X3490800Y12731601D01*
X3487033Y12750538D01*
X3476420Y12766420D01*
X3460538Y12777033D01*
X3441601Y12780800D01*
X2761999Y12780800D01*
X2743062Y12777033D01*
X2728242Y12767130D01*
X2726246Y12766999D01*
X2725237Y12769436D01*
X2743655Y12823692D01*
X2724638Y12894664D01*
X2725156Y12896596D01*
X2727681Y12896845D01*
X2743062Y12886567D01*
X2761999Y12882800D01*
X3441601Y12882800D01*
X3460538Y12886567D01*
X3476420Y12897180D01*
X3487033Y12913062D01*
X3490800Y12931999D01*
X3490800Y13231601D01*
X3487033Y13250538D01*
X3476420Y13266420D01*
X3460538Y13277033D01*
X3441601Y13280800D01*
X2761999Y13280800D01*
X2743062Y13277033D01*
X2728242Y13267130D01*
X2726246Y13266999D01*
X2725237Y13269436D01*
X2743655Y13323692D01*
X2724638Y13394664D01*
X2725156Y13396596D01*
X2727681Y13396845D01*
X2743062Y13386567D01*
X2761999Y13382800D01*
X3441601Y13382800D01*
X3460538Y13386567D01*
X3476420Y13397180D01*
X3487033Y13413062D01*
X3490800Y13431999D01*
X3490800Y13719490D01*
X3491800Y13721222D01*
X3493800Y13721222D01*
X3494762Y13719880D01*
G37*
G36*
X5432119Y13720994D02*
G01*
X5432800Y13719490D01*
X5432800Y13431999D01*
X5436567Y13413062D01*
X5447180Y13397180D01*
X5463062Y13386567D01*
X5481999Y13382800D01*
X6161601Y13382800D01*
X6180538Y13386567D01*
X6195358Y13396470D01*
X6197354Y13396601D01*
X6198363Y13394164D01*
X6179945Y13339908D01*
X6198962Y13268936D01*
X6198444Y13267004D01*
X6195919Y13266755D01*
X6180538Y13277033D01*
X6161601Y13280800D01*
X5481999Y13280800D01*
X5463062Y13277033D01*
X5447180Y13266420D01*
X5436567Y13250538D01*
X5432800Y13231601D01*
X5432800Y12931999D01*
X5436567Y12913062D01*
X5447180Y12897180D01*
X5463062Y12886567D01*
X5481999Y12882800D01*
X6161601Y12882800D01*
X6180538Y12886567D01*
X6195358Y12896470D01*
X6197354Y12896601D01*
X6198363Y12894164D01*
X6179945Y12839908D01*
X6198962Y12768936D01*
X6198444Y12767004D01*
X6195919Y12766755D01*
X6180538Y12777033D01*
X6161601Y12780800D01*
X5481999Y12780800D01*
X5463062Y12777033D01*
X5447180Y12766420D01*
X5436567Y12750538D01*
X5432800Y12731601D01*
X5432800Y12431999D01*
X5436567Y12413062D01*
X5447180Y12397180D01*
X5463062Y12386567D01*
X5481999Y12382800D01*
X6161601Y12382800D01*
X6180538Y12386567D01*
X6195358Y12396470D01*
X6197354Y12396601D01*
X6198363Y12394164D01*
X6179945Y12339908D01*
X6198962Y12268936D01*
X6198444Y12267004D01*
X6195919Y12266755D01*
X6180538Y12277033D01*
X6161601Y12280800D01*
X5481999Y12280800D01*
X5463062Y12277033D01*
X5447180Y12266420D01*
X5436567Y12250538D01*
X5432800Y12231601D01*
X5432800Y11944111D01*
X5431800Y11942379D01*
X5429800Y11942379D01*
X5428838Y11943721D01*
X5427908Y11948394D01*
X5399645Y12005710D01*
X5346738Y12041062D01*
X5283171Y12045229D01*
X5238724Y12026818D01*
X5227459Y12019291D01*
X5225463Y12019160D01*
X5224352Y12020823D01*
X5224685Y12022065D01*
X5232033Y12033062D01*
X5235800Y12051999D01*
X5235800Y13611601D01*
X5232033Y13630538D01*
X5224685Y13641535D01*
X5224554Y13643531D01*
X5226217Y13644642D01*
X5227459Y13644309D01*
X5238669Y13636819D01*
X5299182Y13616277D01*
X5361592Y13628691D01*
X5409486Y13670694D01*
X5427895Y13715139D01*
X5428838Y13719880D01*
X5430157Y13721384D01*
X5432119Y13720994D01*
G37*
G36*
X8630767Y12177114D02*
G01*
X8641762Y12169767D01*
X8660699Y12166000D01*
X9310301Y12166000D01*
X9329238Y12169767D01*
X9340233Y12177114D01*
X9342229Y12177245D01*
X9343340Y12175582D01*
X9343007Y12174340D01*
X9333791Y12160548D01*
X9334590Y12160014D01*
X9335475Y12158220D01*
X9334983Y12157032D01*
X9323872Y12144361D01*
X9311462Y12081950D01*
X9331943Y12021631D01*
X9332985Y12020589D01*
X9333234Y12020286D01*
X9343007Y12005660D01*
X9343138Y12003664D01*
X9341475Y12002553D01*
X9340233Y12002886D01*
X9329238Y12010233D01*
X9310301Y12014000D01*
X8660699Y12014000D01*
X8641762Y12010233D01*
X8630767Y12002886D01*
X8628771Y12002755D01*
X8627660Y12004418D01*
X8627993Y12005660D01*
X8637209Y12019452D01*
X8636410Y12019986D01*
X8635525Y12021780D01*
X8636017Y12022968D01*
X8647128Y12035639D01*
X8659538Y12098050D01*
X8639057Y12158369D01*
X8638015Y12159411D01*
X8637766Y12159714D01*
X8627993Y12174340D01*
X8627862Y12176336D01*
X8629525Y12177447D01*
X8630767Y12177114D01*
G37*
G36*
X19467391Y21041000D02*
G01*
X19467391Y21039000D01*
X19466177Y21038068D01*
X19404194Y21021459D01*
X19359201Y20976466D01*
X19342740Y20915035D01*
X19351843Y20885029D01*
X19351389Y20883081D01*
X19350319Y20882486D01*
X19349857Y20882394D01*
X19353093Y20866125D01*
X19352450Y20864231D01*
X19350488Y20863841D01*
X19349468Y20864624D01*
X19342120Y20875620D01*
X19326238Y20886233D01*
X19307301Y20890000D01*
X19057699Y20890000D01*
X19038762Y20886233D01*
X19022880Y20875620D01*
X19012267Y20859738D01*
X19008500Y20840801D01*
X19008500Y20041199D01*
X19012267Y20022262D01*
X19019614Y20011267D01*
X19019745Y20009271D01*
X19018082Y20008160D01*
X19016840Y20008493D01*
X19003048Y20017709D01*
X19002517Y20016914D01*
X19000723Y20016029D01*
X18999535Y20016522D01*
X18986894Y20027613D01*
X18924486Y20040039D01*
X18864162Y20019575D01*
X18863120Y20018534D01*
X18862817Y20018286D01*
X18848161Y20008493D01*
X18846165Y20008362D01*
X18845054Y20010025D01*
X18845387Y20011267D01*
X18852734Y20022262D01*
X18856501Y20041199D01*
X18856501Y20840801D01*
X18852734Y20859738D01*
X18842121Y20875620D01*
X18826239Y20886233D01*
X18807302Y20890000D01*
X18557700Y20890000D01*
X18538763Y20886233D01*
X18522881Y20875620D01*
X18512268Y20859738D01*
X18508501Y20840801D01*
X18508501Y20041199D01*
X18512268Y20022262D01*
X18519615Y20011267D01*
X18519746Y20009271D01*
X18518083Y20008160D01*
X18516841Y20008493D01*
X18503049Y20017709D01*
X18502518Y20016915D01*
X18500724Y20016030D01*
X18499536Y20016523D01*
X18486893Y20027616D01*
X18424486Y20040042D01*
X18364160Y20019578D01*
X18363115Y20018533D01*
X18362812Y20018284D01*
X18348159Y20008493D01*
X18346163Y20008362D01*
X18345052Y20010025D01*
X18345385Y20011267D01*
X18352732Y20022262D01*
X18356499Y20041199D01*
X18356499Y20840801D01*
X18352732Y20859738D01*
X18342119Y20875620D01*
X18326237Y20886233D01*
X18307300Y20890000D01*
X18057698Y20890000D01*
X18038761Y20886233D01*
X18022879Y20875620D01*
X18012266Y20859738D01*
X18008499Y20840801D01*
X18008499Y20041199D01*
X18012266Y20022262D01*
X18019613Y20011267D01*
X18019744Y20009271D01*
X18018081Y20008160D01*
X18016839Y20008493D01*
X18003047Y20017709D01*
X18002516Y20016914D01*
X18000722Y20016029D01*
X17999534Y20016522D01*
X17986893Y20027613D01*
X17924485Y20040039D01*
X17864161Y20019575D01*
X17863119Y20018534D01*
X17862816Y20018286D01*
X17848160Y20008493D01*
X17846164Y20008362D01*
X17845053Y20010025D01*
X17845386Y20011267D01*
X17852733Y20022262D01*
X17856500Y20041199D01*
X17856500Y20840801D01*
X17852733Y20859738D01*
X17842120Y20875620D01*
X17826238Y20886233D01*
X17807301Y20890000D01*
X17557699Y20890000D01*
X17538762Y20886233D01*
X17522880Y20875620D01*
X17512267Y20859738D01*
X17508500Y20840801D01*
X17508500Y20041199D01*
X17512267Y20022262D01*
X17519614Y20011267D01*
X17519745Y20009271D01*
X17518082Y20008160D01*
X17516840Y20008493D01*
X17503048Y20017709D01*
X17502517Y20016914D01*
X17500723Y20016029D01*
X17499535Y20016522D01*
X17486894Y20027613D01*
X17424486Y20040039D01*
X17364162Y20019575D01*
X17363120Y20018534D01*
X17362817Y20018286D01*
X17348161Y20008493D01*
X17346165Y20008362D01*
X17345054Y20010025D01*
X17345387Y20011267D01*
X17352734Y20022262D01*
X17356501Y20041199D01*
X17356501Y20840801D01*
X17352734Y20859738D01*
X17342121Y20875620D01*
X17326239Y20886233D01*
X17307302Y20890000D01*
X17057700Y20890000D01*
X17038763Y20886233D01*
X17022881Y20875620D01*
X17012268Y20859738D01*
X17008501Y20840801D01*
X17008501Y20041199D01*
X17012268Y20022262D01*
X17019615Y20011267D01*
X17019746Y20009271D01*
X17018083Y20008160D01*
X17016841Y20008493D01*
X17003049Y20017709D01*
X17002518Y20016915D01*
X17000724Y20016030D01*
X16999536Y20016523D01*
X16986893Y20027616D01*
X16924486Y20040042D01*
X16864160Y20019578D01*
X16863115Y20018533D01*
X16862812Y20018284D01*
X16848159Y20008493D01*
X16846163Y20008362D01*
X16845052Y20010025D01*
X16845385Y20011267D01*
X16852732Y20022262D01*
X16856499Y20041199D01*
X16856499Y20840801D01*
X16852732Y20859738D01*
X16842119Y20875620D01*
X16826237Y20886233D01*
X16807300Y20890000D01*
X16557698Y20890000D01*
X16538761Y20886233D01*
X16522879Y20875620D01*
X16512266Y20859738D01*
X16508499Y20840801D01*
X16508499Y20041199D01*
X16512266Y20022262D01*
X16519613Y20011267D01*
X16519744Y20009271D01*
X16518081Y20008160D01*
X16516839Y20008493D01*
X16503047Y20017709D01*
X16502516Y20016914D01*
X16500722Y20016029D01*
X16499534Y20016522D01*
X16486893Y20027613D01*
X16424485Y20040039D01*
X16364161Y20019575D01*
X16363119Y20018534D01*
X16362816Y20018286D01*
X16348160Y20008493D01*
X16346164Y20008362D01*
X16345053Y20010025D01*
X16345386Y20011267D01*
X16352733Y20022262D01*
X16356500Y20041199D01*
X16356500Y20840801D01*
X16352733Y20859738D01*
X16342120Y20875620D01*
X16326238Y20886233D01*
X16307301Y20890000D01*
X16057699Y20890000D01*
X16038762Y20886233D01*
X16022880Y20875620D01*
X16015532Y20864624D01*
X16013738Y20863739D01*
X16012075Y20864850D01*
X16011907Y20866125D01*
X16015241Y20882888D01*
X16014494Y20883543D01*
X16014494Y20884829D01*
X16022006Y20906957D01*
X16009594Y20969367D01*
X15967662Y21017184D01*
X15898760Y21038086D01*
X15897393Y21039546D01*
X15897974Y21041460D01*
X15899341Y21042000D01*
X19465659Y21042000D01*
X19467391Y21041000D01*
G37*
G36*
X19585432Y24724677D02*
G01*
X19602041Y24662693D01*
X19647034Y24617701D01*
X19708465Y24601240D01*
X19738471Y24610343D01*
X19740419Y24609889D01*
X19741014Y24608819D01*
X19741106Y24608357D01*
X19757375Y24611593D01*
X19759269Y24610950D01*
X19759659Y24608988D01*
X19758876Y24607968D01*
X19747880Y24600620D01*
X19737267Y24584738D01*
X19733500Y24565801D01*
X19733500Y24316199D01*
X19737267Y24297262D01*
X19747880Y24281380D01*
X19763762Y24270767D01*
X19782699Y24267000D01*
X20582301Y24267000D01*
X20601238Y24270767D01*
X20612233Y24278114D01*
X20614229Y24278245D01*
X20615340Y24276582D01*
X20615007Y24275340D01*
X20605791Y24261548D01*
X20606597Y24261009D01*
X20607482Y24259215D01*
X20606991Y24258028D01*
X20595843Y24245299D01*
X20583468Y24182880D01*
X20603982Y24122574D01*
X20605022Y24121535D01*
X20605272Y24121231D01*
X20615008Y24106660D01*
X20615139Y24104664D01*
X20613476Y24103553D01*
X20612234Y24103886D01*
X20601238Y24111234D01*
X20582301Y24115001D01*
X19782699Y24115001D01*
X19763762Y24111234D01*
X19747880Y24100621D01*
X19737267Y24084739D01*
X19733500Y24065802D01*
X19733500Y23816200D01*
X19737267Y23797263D01*
X19747880Y23781381D01*
X19763762Y23770768D01*
X19782699Y23767001D01*
X20582301Y23767001D01*
X20601238Y23770768D01*
X20612233Y23778115D01*
X20614229Y23778246D01*
X20615340Y23776583D01*
X20615007Y23775341D01*
X20605791Y23761549D01*
X20606585Y23761018D01*
X20607470Y23759224D01*
X20606977Y23758036D01*
X20595884Y23745393D01*
X20583458Y23682986D01*
X20603922Y23622660D01*
X20604967Y23621615D01*
X20605216Y23621312D01*
X20615007Y23606659D01*
X20615138Y23604663D01*
X20613475Y23603552D01*
X20612233Y23603885D01*
X20601238Y23611232D01*
X20582301Y23614999D01*
X19782699Y23614999D01*
X19763762Y23611232D01*
X19747880Y23600619D01*
X19737267Y23584737D01*
X19733500Y23565800D01*
X19733500Y23316198D01*
X19737267Y23297261D01*
X19747880Y23281379D01*
X19763762Y23270766D01*
X19782699Y23266999D01*
X20582301Y23266999D01*
X20601238Y23270766D01*
X20612233Y23278113D01*
X20614229Y23278244D01*
X20615340Y23276581D01*
X20615007Y23275339D01*
X20605791Y23261547D01*
X20606597Y23261008D01*
X20607482Y23259214D01*
X20606991Y23258027D01*
X20595843Y23245298D01*
X20583468Y23182879D01*
X20603982Y23122573D01*
X20605022Y23121534D01*
X20605272Y23121230D01*
X20615008Y23106659D01*
X20615139Y23104663D01*
X20613476Y23103552D01*
X20612234Y23103885D01*
X20601238Y23111233D01*
X20582301Y23115000D01*
X19782699Y23115000D01*
X19763762Y23111233D01*
X19747880Y23100620D01*
X19737267Y23084738D01*
X19733500Y23065801D01*
X19733500Y22816199D01*
X19737267Y22797262D01*
X19747880Y22781380D01*
X19763762Y22770767D01*
X19782699Y22767000D01*
X20582301Y22767000D01*
X20601238Y22770767D01*
X20612233Y22778114D01*
X20614229Y22778245D01*
X20615340Y22776582D01*
X20615007Y22775340D01*
X20605791Y22761548D01*
X20606586Y22761017D01*
X20607471Y22759223D01*
X20606978Y22758035D01*
X20595887Y22745394D01*
X20583461Y22682986D01*
X20603925Y22622662D01*
X20604966Y22621620D01*
X20605214Y22621317D01*
X20615007Y22606661D01*
X20615138Y22604665D01*
X20613475Y22603554D01*
X20612233Y22603887D01*
X20601238Y22611234D01*
X20582301Y22615001D01*
X19782699Y22615001D01*
X19763762Y22611234D01*
X19747880Y22600621D01*
X19737267Y22584739D01*
X19733500Y22565802D01*
X19733500Y22316200D01*
X19737267Y22297263D01*
X19747880Y22281381D01*
X19763762Y22270768D01*
X19782699Y22267001D01*
X20582301Y22267001D01*
X20601238Y22270768D01*
X20612233Y22278115D01*
X20614229Y22278246D01*
X20615340Y22276583D01*
X20615007Y22275341D01*
X20605791Y22261549D01*
X20606585Y22261018D01*
X20607470Y22259224D01*
X20606977Y22258036D01*
X20595884Y22245393D01*
X20583458Y22182986D01*
X20603922Y22122660D01*
X20604967Y22121615D01*
X20605216Y22121312D01*
X20615007Y22106659D01*
X20615138Y22104663D01*
X20613475Y22103552D01*
X20612233Y22103885D01*
X20601238Y22111232D01*
X20582301Y22114999D01*
X19782699Y22114999D01*
X19763762Y22111232D01*
X19747880Y22100619D01*
X19737267Y22084737D01*
X19733500Y22065800D01*
X19733500Y21816198D01*
X19737267Y21797261D01*
X19747880Y21781379D01*
X19763762Y21770766D01*
X19782699Y21766999D01*
X20582301Y21766999D01*
X20601238Y21770766D01*
X20612233Y21778113D01*
X20614229Y21778244D01*
X20615340Y21776581D01*
X20615007Y21775339D01*
X20605791Y21761547D01*
X20606597Y21761008D01*
X20607482Y21759214D01*
X20606991Y21758027D01*
X20595843Y21745298D01*
X20583468Y21682879D01*
X20603982Y21622573D01*
X20605022Y21621534D01*
X20605272Y21621230D01*
X20615008Y21606659D01*
X20615139Y21604663D01*
X20613476Y21603552D01*
X20612234Y21603885D01*
X20601238Y21611233D01*
X20582301Y21615000D01*
X19782699Y21615000D01*
X19763762Y21611233D01*
X19747880Y21600620D01*
X19737267Y21584738D01*
X19733500Y21565801D01*
X19733500Y21316199D01*
X19737267Y21297262D01*
X19747880Y21281380D01*
X19758876Y21274032D01*
X19759761Y21272238D01*
X19758650Y21270575D01*
X19757375Y21270407D01*
X19740612Y21273741D01*
X19739957Y21272994D01*
X19738671Y21272994D01*
X19716543Y21280506D01*
X19654133Y21268094D01*
X19606316Y21226162D01*
X19585414Y21157260D01*
X19583954Y21155893D01*
X19582040Y21156474D01*
X19581500Y21157841D01*
X19581500Y24724159D01*
X19582500Y24725891D01*
X19584500Y24725891D01*
X19585432Y24724677D01*
G37*
G36*
X15782960Y24725526D02*
G01*
X15783500Y24724159D01*
X15783500Y21157841D01*
X15782500Y21156109D01*
X15780500Y21156109D01*
X15779568Y21157323D01*
X15762959Y21219306D01*
X15717967Y21264299D01*
X15656535Y21280760D01*
X15626529Y21271657D01*
X15624581Y21272111D01*
X15623986Y21273181D01*
X15623894Y21273643D01*
X15607625Y21270407D01*
X15605731Y21271050D01*
X15605341Y21273012D01*
X15606124Y21274032D01*
X15617120Y21281380D01*
X15627733Y21297262D01*
X15631500Y21316199D01*
X15631500Y21565801D01*
X15627733Y21584738D01*
X15617120Y21600620D01*
X15601238Y21611233D01*
X15582301Y21615000D01*
X14782699Y21615000D01*
X14763762Y21611233D01*
X14752767Y21603886D01*
X14750771Y21603755D01*
X14749660Y21605418D01*
X14749993Y21606660D01*
X14759209Y21620452D01*
X14758414Y21620983D01*
X14757529Y21622777D01*
X14758022Y21623965D01*
X14769113Y21636606D01*
X14781539Y21699014D01*
X14761075Y21759338D01*
X14760034Y21760380D01*
X14759786Y21760683D01*
X14749993Y21775339D01*
X14749862Y21777335D01*
X14751525Y21778446D01*
X14752767Y21778113D01*
X14763762Y21770766D01*
X14782699Y21766999D01*
X15582301Y21766999D01*
X15601238Y21770766D01*
X15617120Y21781379D01*
X15627733Y21797261D01*
X15631500Y21816198D01*
X15631500Y22065800D01*
X15627733Y22084737D01*
X15617120Y22100619D01*
X15601238Y22111232D01*
X15582301Y22114999D01*
X14782699Y22114999D01*
X14763762Y22111232D01*
X14752767Y22103885D01*
X14750771Y22103754D01*
X14749660Y22105417D01*
X14749993Y22106659D01*
X14759209Y22120451D01*
X14758415Y22120982D01*
X14757530Y22122776D01*
X14758023Y22123964D01*
X14769116Y22136607D01*
X14781542Y22199014D01*
X14761078Y22259340D01*
X14760033Y22260385D01*
X14759784Y22260688D01*
X14749993Y22275341D01*
X14749862Y22277337D01*
X14751525Y22278448D01*
X14752767Y22278115D01*
X14763762Y22270768D01*
X14782699Y22267001D01*
X15582301Y22267001D01*
X15601238Y22270768D01*
X15617120Y22281381D01*
X15627733Y22297263D01*
X15631500Y22316200D01*
X15631500Y22565802D01*
X15627733Y22584739D01*
X15617120Y22600621D01*
X15601238Y22611234D01*
X15582301Y22615001D01*
X14782699Y22615001D01*
X14763762Y22611234D01*
X14752767Y22603887D01*
X14750771Y22603756D01*
X14749660Y22605419D01*
X14749993Y22606661D01*
X14759209Y22620453D01*
X14758403Y22620992D01*
X14757518Y22622786D01*
X14758009Y22623973D01*
X14769157Y22636702D01*
X14781532Y22699121D01*
X14761018Y22759427D01*
X14759978Y22760466D01*
X14759728Y22760770D01*
X14749992Y22775341D01*
X14749861Y22777337D01*
X14751524Y22778448D01*
X14752766Y22778115D01*
X14763762Y22770767D01*
X14782699Y22767000D01*
X15582301Y22767000D01*
X15601238Y22770767D01*
X15617120Y22781380D01*
X15627733Y22797262D01*
X15631500Y22816199D01*
X15631500Y23065801D01*
X15627733Y23084738D01*
X15617120Y23100620D01*
X15601238Y23111233D01*
X15582301Y23115000D01*
X14782699Y23115000D01*
X14763762Y23111233D01*
X14752767Y23103886D01*
X14750771Y23103755D01*
X14749660Y23105418D01*
X14749993Y23106660D01*
X14759209Y23120452D01*
X14758414Y23120983D01*
X14757529Y23122777D01*
X14758022Y23123965D01*
X14769113Y23136606D01*
X14781539Y23199014D01*
X14761075Y23259338D01*
X14760034Y23260380D01*
X14759786Y23260683D01*
X14749993Y23275339D01*
X14749862Y23277335D01*
X14751525Y23278446D01*
X14752767Y23278113D01*
X14763762Y23270766D01*
X14782699Y23266999D01*
X15582301Y23266999D01*
X15601238Y23270766D01*
X15617120Y23281379D01*
X15627733Y23297261D01*
X15631500Y23316198D01*
X15631500Y23565800D01*
X15627733Y23584737D01*
X15617120Y23600619D01*
X15601238Y23611232D01*
X15582301Y23614999D01*
X14782699Y23614999D01*
X14763762Y23611232D01*
X14752767Y23603885D01*
X14750771Y23603754D01*
X14749660Y23605417D01*
X14749993Y23606659D01*
X14759209Y23620451D01*
X14758415Y23620982D01*
X14757530Y23622776D01*
X14758023Y23623964D01*
X14769116Y23636607D01*
X14781542Y23699014D01*
X14761078Y23759340D01*
X14760033Y23760385D01*
X14759784Y23760688D01*
X14749993Y23775341D01*
X14749862Y23777337D01*
X14751525Y23778448D01*
X14752767Y23778115D01*
X14763762Y23770768D01*
X14782699Y23767001D01*
X15582301Y23767001D01*
X15601238Y23770768D01*
X15617120Y23781381D01*
X15627733Y23797263D01*
X15631500Y23816200D01*
X15631500Y24065802D01*
X15627733Y24084739D01*
X15617120Y24100621D01*
X15601238Y24111234D01*
X15582301Y24115001D01*
X14782699Y24115001D01*
X14763762Y24111234D01*
X14752767Y24103887D01*
X14750771Y24103756D01*
X14749660Y24105419D01*
X14749993Y24106661D01*
X14759209Y24120453D01*
X14758414Y24120984D01*
X14757529Y24122778D01*
X14758022Y24123966D01*
X14769113Y24136607D01*
X14781539Y24199015D01*
X14761075Y24259339D01*
X14760034Y24260381D01*
X14759786Y24260684D01*
X14749993Y24275340D01*
X14749862Y24277336D01*
X14751525Y24278447D01*
X14752767Y24278114D01*
X14763762Y24270767D01*
X14782699Y24267000D01*
X15582301Y24267000D01*
X15601238Y24270767D01*
X15617120Y24281380D01*
X15627733Y24297262D01*
X15631500Y24316199D01*
X15631500Y24565801D01*
X15627733Y24584738D01*
X15617120Y24600620D01*
X15606124Y24607968D01*
X15605239Y24609762D01*
X15606350Y24611425D01*
X15607625Y24611593D01*
X15624388Y24608259D01*
X15625043Y24609006D01*
X15626329Y24609006D01*
X15648457Y24601494D01*
X15710867Y24613906D01*
X15758684Y24655838D01*
X15779586Y24724740D01*
X15781046Y24726107D01*
X15782960Y24725526D01*
G37*
G36*
X18848161Y25873507D02*
G01*
X18861953Y25864291D01*
X18862492Y25865097D01*
X18864286Y25865982D01*
X18865473Y25865491D01*
X18878202Y25854343D01*
X18940621Y25841968D01*
X19000927Y25862482D01*
X19001966Y25863522D01*
X19002270Y25863772D01*
X19016841Y25873508D01*
X19018837Y25873639D01*
X19019948Y25871976D01*
X19019615Y25870734D01*
X19012267Y25859738D01*
X19008500Y25840801D01*
X19008500Y25041199D01*
X19012267Y25022262D01*
X19022880Y25006380D01*
X19038762Y24995767D01*
X19057699Y24992000D01*
X19307301Y24992000D01*
X19326238Y24995767D01*
X19342120Y25006380D01*
X19349468Y25017376D01*
X19351262Y25018261D01*
X19352925Y25017150D01*
X19353093Y25015875D01*
X19349759Y24999112D01*
X19350506Y24998457D01*
X19350506Y24997171D01*
X19342994Y24975043D01*
X19355406Y24912633D01*
X19397338Y24864816D01*
X19466240Y24843914D01*
X19467607Y24842454D01*
X19467026Y24840540D01*
X19465659Y24840000D01*
X15899341Y24840000D01*
X15897609Y24841000D01*
X15897609Y24843000D01*
X15898823Y24843932D01*
X15960807Y24860541D01*
X16005799Y24905533D01*
X16022260Y24966965D01*
X16013157Y24996971D01*
X16013611Y24998919D01*
X16014681Y24999514D01*
X16015143Y24999606D01*
X16011907Y25015875D01*
X16012550Y25017769D01*
X16014512Y25018159D01*
X16015532Y25017376D01*
X16022880Y25006380D01*
X16038762Y24995767D01*
X16057699Y24992000D01*
X16307301Y24992000D01*
X16326238Y24995767D01*
X16342120Y25006380D01*
X16352733Y25022262D01*
X16356500Y25041199D01*
X16356500Y25840801D01*
X16352733Y25859738D01*
X16345386Y25870733D01*
X16345255Y25872729D01*
X16346918Y25873840D01*
X16348160Y25873507D01*
X16361952Y25864291D01*
X16362491Y25865097D01*
X16364285Y25865982D01*
X16365472Y25865491D01*
X16378201Y25854343D01*
X16440620Y25841968D01*
X16500926Y25862482D01*
X16501965Y25863522D01*
X16502269Y25863772D01*
X16516840Y25873508D01*
X16518836Y25873639D01*
X16519947Y25871976D01*
X16519614Y25870734D01*
X16512266Y25859738D01*
X16508499Y25840801D01*
X16508499Y25041199D01*
X16512266Y25022262D01*
X16522879Y25006380D01*
X16538761Y24995767D01*
X16557698Y24992000D01*
X16807300Y24992000D01*
X16826237Y24995767D01*
X16842119Y25006380D01*
X16852732Y25022262D01*
X16856499Y25041199D01*
X16856499Y25840801D01*
X16852732Y25859738D01*
X16845385Y25870733D01*
X16845254Y25872729D01*
X16846917Y25873840D01*
X16848159Y25873507D01*
X16861951Y25864291D01*
X16862482Y25865085D01*
X16864276Y25865970D01*
X16865464Y25865477D01*
X16878107Y25854384D01*
X16940514Y25841958D01*
X17000840Y25862422D01*
X17001885Y25863467D01*
X17002188Y25863716D01*
X17016841Y25873507D01*
X17018837Y25873638D01*
X17019948Y25871975D01*
X17019615Y25870733D01*
X17012268Y25859738D01*
X17008501Y25840801D01*
X17008501Y25041199D01*
X17012268Y25022262D01*
X17022881Y25006380D01*
X17038763Y24995767D01*
X17057700Y24992000D01*
X17307302Y24992000D01*
X17326239Y24995767D01*
X17342121Y25006380D01*
X17352734Y25022262D01*
X17356501Y25041199D01*
X17356501Y25840801D01*
X17352734Y25859738D01*
X17345387Y25870733D01*
X17345256Y25872729D01*
X17346919Y25873840D01*
X17348161Y25873507D01*
X17361953Y25864291D01*
X17362492Y25865097D01*
X17364286Y25865982D01*
X17365473Y25865491D01*
X17378202Y25854343D01*
X17440621Y25841968D01*
X17500927Y25862482D01*
X17501966Y25863522D01*
X17502270Y25863772D01*
X17516841Y25873508D01*
X17518837Y25873639D01*
X17519948Y25871976D01*
X17519615Y25870734D01*
X17512267Y25859738D01*
X17508500Y25840801D01*
X17508500Y25041199D01*
X17512267Y25022262D01*
X17522880Y25006380D01*
X17538762Y24995767D01*
X17557699Y24992000D01*
X17807301Y24992000D01*
X17826238Y24995767D01*
X17842120Y25006380D01*
X17852733Y25022262D01*
X17856500Y25041199D01*
X17856500Y25840801D01*
X17852733Y25859738D01*
X17845386Y25870733D01*
X17845255Y25872729D01*
X17846918Y25873840D01*
X17848160Y25873507D01*
X17861952Y25864291D01*
X17862491Y25865097D01*
X17864285Y25865982D01*
X17865472Y25865491D01*
X17878201Y25854343D01*
X17940620Y25841968D01*
X18000926Y25862482D01*
X18001965Y25863522D01*
X18002269Y25863772D01*
X18016840Y25873508D01*
X18018836Y25873639D01*
X18019947Y25871976D01*
X18019614Y25870734D01*
X18012266Y25859738D01*
X18008499Y25840801D01*
X18008499Y25041199D01*
X18012266Y25022262D01*
X18022879Y25006380D01*
X18038761Y24995767D01*
X18057698Y24992000D01*
X18307300Y24992000D01*
X18326237Y24995767D01*
X18342119Y25006380D01*
X18352732Y25022262D01*
X18356499Y25041199D01*
X18356499Y25840801D01*
X18352732Y25859738D01*
X18345385Y25870733D01*
X18345254Y25872729D01*
X18346917Y25873840D01*
X18348159Y25873507D01*
X18361951Y25864291D01*
X18362482Y25865085D01*
X18364276Y25865970D01*
X18365464Y25865477D01*
X18378107Y25854384D01*
X18440514Y25841958D01*
X18500840Y25862422D01*
X18501885Y25863467D01*
X18502188Y25863716D01*
X18516841Y25873507D01*
X18518837Y25873638D01*
X18519948Y25871975D01*
X18519615Y25870733D01*
X18512268Y25859738D01*
X18508501Y25840801D01*
X18508501Y25041199D01*
X18512268Y25022262D01*
X18522881Y25006380D01*
X18538763Y24995767D01*
X18557700Y24992000D01*
X18807302Y24992000D01*
X18826239Y24995767D01*
X18842121Y25006380D01*
X18852734Y25022262D01*
X18856501Y25041199D01*
X18856501Y25840801D01*
X18852734Y25859738D01*
X18845387Y25870733D01*
X18845256Y25872729D01*
X18846919Y25873840D01*
X18848161Y25873507D01*
G37*
M02*
