G04 #@! TF.GenerationSoftware,KiCad,Pcbnew,(5.99.0-1251-g6aaee01f1)*
G04 #@! TF.CreationDate,2020-04-14T14:04:16-07:00*
G04 #@! TF.ProjectId,TMC2209_Driver,544d4332-3230-4395-9f44-72697665722e,rev?*
G04 #@! TF.SameCoordinates,PX67f3540PY6cb8080*
G04 #@! TF.FileFunction,Legend,Top*
G04 #@! TF.FilePolarity,Positive*
%FSLAX46Y46*%
G04 Gerber Fmt 4.6, Leading zero omitted, Abs format (unit mm)*
G04 Created by KiCad (PCBNEW (5.99.0-1251-g6aaee01f1)) date 2020-04-14 14:04:16*
%MOMM*%
%LPD*%
G01*
G04 APERTURE LIST*
%ADD10C,0.150000*%
%ADD11C,0.100000*%
%ADD12C,0.300000*%
%ADD13C,0.120000*%
%ADD14C,0.152400*%
G04 APERTURE END LIST*
D10*
X7840000Y13354020D02*
X7840000Y13115924D01*
X7601904Y13211162D02*
X7840000Y13115924D01*
X8078095Y13211162D01*
X7697142Y12925448D02*
X7840000Y13115924D01*
X7982857Y12925448D01*
X2150400Y14801820D02*
X2150400Y14563724D01*
X1912304Y14658962D02*
X2150400Y14563724D01*
X2388495Y14658962D01*
X2007542Y14373248D02*
X2150400Y14563724D01*
X2293257Y14373248D01*
X1042819Y18721667D02*
X995200Y18769286D01*
X899961Y18912143D01*
X852342Y19007381D01*
X804723Y19150239D01*
X757104Y19388334D01*
X757104Y19578810D01*
X804723Y19816905D01*
X852342Y19959762D01*
X899961Y20055000D01*
X995200Y20197858D01*
X1042819Y20245477D01*
X1852342Y19150239D02*
X1757104Y19102620D01*
X1566628Y19102620D01*
X1471390Y19150239D01*
X1423771Y19197858D01*
X1376152Y19293096D01*
X1376152Y19578810D01*
X1423771Y19674048D01*
X1471390Y19721667D01*
X1566628Y19769286D01*
X1757104Y19769286D01*
X1852342Y19721667D01*
X2185676Y18721667D02*
X2233295Y18769286D01*
X2328533Y18912143D01*
X2376152Y19007381D01*
X2423771Y19150239D01*
X2471390Y19388334D01*
X2471390Y19578810D01*
X2423771Y19816905D01*
X2376152Y19959762D01*
X2328533Y20055000D01*
X2233295Y20197858D01*
X2185676Y20245477D01*
X3709485Y19102620D02*
X3709485Y19769286D01*
X3709485Y20102620D02*
X3661866Y20055000D01*
X3709485Y20007381D01*
X3757104Y20055000D01*
X3709485Y20102620D01*
X3709485Y20007381D01*
X4852342Y19007381D02*
X4757104Y19055000D01*
X4661866Y19150239D01*
X4519009Y19293096D01*
X4423771Y19340715D01*
X4328533Y19340715D01*
X4376152Y19102620D02*
X4280914Y19150239D01*
X4185676Y19245477D01*
X4138057Y19435953D01*
X4138057Y19769286D01*
X4185676Y19959762D01*
X4280914Y20055000D01*
X4376152Y20102620D01*
X4566628Y20102620D01*
X4661866Y20055000D01*
X4757104Y19959762D01*
X4804723Y19769286D01*
X4804723Y19435953D01*
X4757104Y19245477D01*
X4661866Y19150239D01*
X4566628Y19102620D01*
X4376152Y19102620D01*
X5661866Y19769286D02*
X5661866Y19102620D01*
X5233295Y19769286D02*
X5233295Y19245477D01*
X5280914Y19150239D01*
X5376152Y19102620D01*
X5519009Y19102620D01*
X5614247Y19150239D01*
X5661866Y19197858D01*
X6138057Y19102620D02*
X6138057Y19769286D01*
X6138057Y19578810D02*
X6185676Y19674048D01*
X6233295Y19721667D01*
X6328533Y19769286D01*
X6423771Y19769286D01*
X6661866Y19769286D02*
X6899961Y19102620D01*
X7138057Y19769286D02*
X6899961Y19102620D01*
X6804723Y18864524D01*
X6757104Y18816905D01*
X6661866Y18769286D01*
X7519009Y19197858D02*
X7566628Y19150239D01*
X7519009Y19102620D01*
X7471390Y19150239D01*
X7519009Y19197858D01*
X7519009Y19102620D01*
X8423771Y19769286D02*
X8423771Y19102620D01*
X7995200Y19769286D02*
X7995200Y19245477D01*
X8042819Y19150239D01*
X8138057Y19102620D01*
X8280914Y19102620D01*
X8376152Y19150239D01*
X8423771Y19197858D01*
X8852342Y19150239D02*
X8947580Y19102620D01*
X9138057Y19102620D01*
X9233295Y19150239D01*
X9280914Y19245477D01*
X9280914Y19293096D01*
X9233295Y19388334D01*
X9138057Y19435953D01*
X8995200Y19435953D01*
X8899961Y19483572D01*
X8852342Y19578810D01*
X8852342Y19626429D01*
X8899961Y19721667D01*
X8995200Y19769286D01*
X9138057Y19769286D01*
X9233295Y19721667D01*
X1614247Y17492620D02*
X1614247Y18492620D01*
X1947580Y17778334D01*
X2280914Y18492620D01*
X2280914Y17492620D01*
X3185676Y17492620D02*
X3185676Y18016429D01*
X3138057Y18111667D01*
X3042819Y18159286D01*
X2852342Y18159286D01*
X2757104Y18111667D01*
X3185676Y17540239D02*
X3090438Y17492620D01*
X2852342Y17492620D01*
X2757104Y17540239D01*
X2709485Y17635477D01*
X2709485Y17730715D01*
X2757104Y17825953D01*
X2852342Y17873572D01*
X3090438Y17873572D01*
X3185676Y17921191D01*
X3661866Y17492620D02*
X3661866Y18159286D01*
X3661866Y17968810D02*
X3709485Y18064048D01*
X3757104Y18111667D01*
X3852342Y18159286D01*
X3947580Y18159286D01*
X4995200Y18397381D02*
X5042819Y18445000D01*
X5138057Y18492620D01*
X5376152Y18492620D01*
X5471390Y18445000D01*
X5519009Y18397381D01*
X5566628Y18302143D01*
X5566628Y18206905D01*
X5519009Y18064048D01*
X4947580Y17492620D01*
X5566628Y17492620D01*
X6185676Y18492620D02*
X6280914Y18492620D01*
X6376152Y18445000D01*
X6423771Y18397381D01*
X6471390Y18302143D01*
X6519009Y18111667D01*
X6519009Y17873572D01*
X6471390Y17683096D01*
X6423771Y17587858D01*
X6376152Y17540239D01*
X6280914Y17492620D01*
X6185676Y17492620D01*
X6090438Y17540239D01*
X6042819Y17587858D01*
X5995200Y17683096D01*
X5947580Y17873572D01*
X5947580Y18111667D01*
X5995200Y18302143D01*
X6042819Y18397381D01*
X6090438Y18445000D01*
X6185676Y18492620D01*
X6899961Y18397381D02*
X6947580Y18445000D01*
X7042819Y18492620D01*
X7280914Y18492620D01*
X7376152Y18445000D01*
X7423771Y18397381D01*
X7471390Y18302143D01*
X7471390Y18206905D01*
X7423771Y18064048D01*
X6852342Y17492620D01*
X7471390Y17492620D01*
X8090438Y18492620D02*
X8185676Y18492620D01*
X8280914Y18445000D01*
X8328533Y18397381D01*
X8376152Y18302143D01*
X8423771Y18111667D01*
X8423771Y17873572D01*
X8376152Y17683096D01*
X8328533Y17587858D01*
X8280914Y17540239D01*
X8185676Y17492620D01*
X8090438Y17492620D01*
X7995200Y17540239D01*
X7947580Y17587858D01*
X7899961Y17683096D01*
X7852342Y17873572D01*
X7852342Y18111667D01*
X7899961Y18302143D01*
X7947580Y18397381D01*
X7995200Y18445000D01*
X8090438Y18492620D01*
D11*
X30196428Y34660715D02*
X30196428Y35160715D01*
X30196428Y35017858D02*
X30232142Y35089286D01*
X30267857Y35125000D01*
X30339285Y35160715D01*
X30410714Y35160715D01*
X30946428Y34696429D02*
X30875000Y34660715D01*
X30732142Y34660715D01*
X30660714Y34696429D01*
X30625000Y34767858D01*
X30625000Y35053572D01*
X30660714Y35125000D01*
X30732142Y35160715D01*
X30875000Y35160715D01*
X30946428Y35125000D01*
X30982142Y35053572D01*
X30982142Y34982143D01*
X30625000Y34910715D01*
X31232142Y35160715D02*
X31410714Y34660715D01*
X31589285Y35160715D01*
X32375000Y35410715D02*
X32875000Y35410715D01*
X32553571Y34660715D01*
D12*
X35428571Y15678572D02*
X33928571Y15678572D01*
X33928571Y16035715D01*
X34000000Y16250000D01*
X34142857Y16392858D01*
X34285714Y16464286D01*
X34571428Y16535715D01*
X34785714Y16535715D01*
X35071428Y16464286D01*
X35214285Y16392858D01*
X35357142Y16250000D01*
X35428571Y16035715D01*
X35428571Y15678572D01*
X35428571Y18035715D02*
X34714285Y17535715D01*
X35428571Y17178572D02*
X33928571Y17178572D01*
X33928571Y17750000D01*
X34000000Y17892858D01*
X34071428Y17964286D01*
X34214285Y18035715D01*
X34428571Y18035715D01*
X34571428Y17964286D01*
X34642857Y17892858D01*
X34714285Y17750000D01*
X34714285Y17178572D01*
X33928571Y18464286D02*
X35428571Y18964286D01*
X33928571Y19464286D01*
X34071428Y19892858D02*
X34000000Y19964286D01*
X33928571Y20107143D01*
X33928571Y20464286D01*
X34000000Y20607143D01*
X34071428Y20678572D01*
X34214285Y20750000D01*
X34357142Y20750000D01*
X34571428Y20678572D01*
X35428571Y19821429D01*
X35428571Y20750000D01*
X34071428Y21321429D02*
X34000000Y21392858D01*
X33928571Y21535715D01*
X33928571Y21892858D01*
X34000000Y22035715D01*
X34071428Y22107143D01*
X34214285Y22178572D01*
X34357142Y22178572D01*
X34571428Y22107143D01*
X35428571Y21250000D01*
X35428571Y22178572D01*
X33928571Y23107143D02*
X33928571Y23250000D01*
X34000000Y23392858D01*
X34071428Y23464286D01*
X34214285Y23535715D01*
X34500000Y23607143D01*
X34857142Y23607143D01*
X35142857Y23535715D01*
X35285714Y23464286D01*
X35357142Y23392858D01*
X35428571Y23250000D01*
X35428571Y23107143D01*
X35357142Y22964286D01*
X35285714Y22892858D01*
X35142857Y22821429D01*
X34857142Y22750000D01*
X34500000Y22750000D01*
X34214285Y22821429D01*
X34071428Y22892858D01*
X34000000Y22964286D01*
X33928571Y23107143D01*
X35428571Y24321429D02*
X35428571Y24607143D01*
X35357142Y24750000D01*
X35285714Y24821429D01*
X35071428Y24964286D01*
X34785714Y25035715D01*
X34214285Y25035715D01*
X34071428Y24964286D01*
X34000000Y24892858D01*
X33928571Y24750000D01*
X33928571Y24464286D01*
X34000000Y24321429D01*
X34071428Y24250000D01*
X34214285Y24178572D01*
X34571428Y24178572D01*
X34714285Y24250000D01*
X34785714Y24321429D01*
X34857142Y24464286D01*
X34857142Y24750000D01*
X34785714Y24892858D01*
X34714285Y24964286D01*
X34571428Y25035715D01*
X33928571Y26607143D02*
X35428571Y27107143D01*
X33928571Y27607143D01*
X35428571Y28892858D02*
X35428571Y28035715D01*
X35428571Y28464286D02*
X33928571Y28464286D01*
X34142857Y28321429D01*
X34285714Y28178572D01*
X34357142Y28035715D01*
D13*
X35160000Y8340000D02*
X35160000Y10690000D01*
X35160000Y15160000D02*
X35160000Y12810000D01*
X29404437Y15160000D02*
X35160000Y15160000D01*
X29404437Y8340000D02*
X35160000Y8340000D01*
X28340000Y9404437D02*
X28340000Y10690000D01*
X28340000Y14095563D02*
X28340000Y12810000D01*
X28340000Y14095563D02*
X29404437Y15160000D01*
X28340000Y9404437D02*
X29404437Y8340000D01*
X27312500Y13597500D02*
X28100000Y13597500D01*
X27706250Y13991250D02*
X27706250Y13203750D01*
D14*
X15737360Y25569900D02*
X15053600Y25569900D01*
X20311400Y24886140D02*
X20311400Y25569900D01*
X19627640Y20312100D02*
X20311400Y20312100D01*
X15053600Y20995860D02*
X15053600Y20312100D01*
X15053600Y25569900D02*
X15053600Y24886140D01*
X20311400Y25569900D02*
X19627640Y25569900D01*
X20311400Y20312100D02*
X20311400Y20995860D01*
X15053600Y20312100D02*
X15737360Y20312100D01*
D13*
X3011800Y11711800D02*
X5911800Y11711800D01*
X2651800Y13951800D02*
X5911800Y13951800D01*
X5284979Y15475400D02*
X4959421Y15475400D01*
X5284979Y14455400D02*
X4959421Y14455400D01*
X10225279Y14561000D02*
X9899721Y14561000D01*
X10225279Y13541000D02*
X9899721Y13541000D01*
X10635500Y12925000D02*
X8735500Y12925000D01*
X9235500Y10605000D02*
X10635500Y10605000D01*
X11047936Y32073400D02*
X12252064Y32073400D01*
X11047936Y29353400D02*
X12252064Y29353400D01*
X24193064Y29378800D02*
X22988936Y29378800D01*
X24193064Y32098800D02*
X22988936Y32098800D01*
X9429721Y34369000D02*
X9755279Y34369000D01*
X9429721Y35389000D02*
X9755279Y35389000D01*
X9455221Y36020000D02*
X9780779Y36020000D01*
X9455221Y37040000D02*
X9780779Y37040000D01*
X25782779Y35516000D02*
X25457221Y35516000D01*
X25782779Y34496000D02*
X25457221Y34496000D01*
X25782779Y37040000D02*
X25457221Y37040000D01*
X25782779Y36020000D02*
X25457221Y36020000D01*
X13036721Y10366000D02*
X13362279Y10366000D01*
X13036721Y11386000D02*
X13362279Y11386000D01*
D11*
X23969000Y49147800D02*
X11269000Y49147800D01*
D10*
X23969000Y49153800D02*
X23969000Y33913800D01*
X23969000Y33913800D02*
X11269000Y33913800D01*
X11269000Y49153800D02*
X11269000Y33913800D01*
D13*
X19252800Y5814800D02*
X19252800Y9014800D01*
X19252800Y9014800D02*
X21052800Y9014800D01*
X21052800Y9014800D02*
X21052800Y5814800D01*
X7952800Y5814800D02*
X19252800Y5814800D01*
X19252800Y5814800D02*
X19252800Y14800D01*
X19252800Y14800D02*
X7952800Y14800D01*
X7952800Y14800D02*
X7952800Y5814800D01*
X28352800Y5814800D02*
X21052800Y5814800D01*
X21052800Y14800D02*
X28352800Y14800D01*
X21052800Y5814800D02*
X21052800Y14800D01*
X28352800Y5814800D02*
X28352800Y14800D01*
X29843936Y26730000D02*
X31048064Y26730000D01*
X29843936Y28550000D02*
X31048064Y28550000D01*
X6410064Y28550000D02*
X5205936Y28550000D01*
X6410064Y26730000D02*
X5205936Y26730000D01*
X11360221Y20653000D02*
X11685779Y20653000D01*
X11360221Y21673000D02*
X11685779Y21673000D01*
X11334721Y22304000D02*
X11660279Y22304000D01*
X11334721Y23324000D02*
X11660279Y23324000D01*
X12985721Y18113000D02*
X13311279Y18113000D01*
X12985721Y19133000D02*
X13311279Y19133000D01*
X23425221Y19891000D02*
X23750779Y19891000D01*
X23425221Y20911000D02*
X23750779Y20911000D01*
D10*
X15206000Y26409620D02*
X15206000Y26171524D01*
X14967904Y26266762D02*
X15206000Y26171524D01*
X15444095Y26266762D01*
X15063142Y25981048D02*
X15206000Y26171524D01*
X15348857Y25981048D01*
M02*
