G04 #@! TF.GenerationSoftware,KiCad,Pcbnew,(5.1.0-1558-g0ba0c1724)*
G04 #@! TF.CreationDate,2020-03-09T19:15:21-07:00*
G04 #@! TF.ProjectId,TMC2130_Driver,544d4332-3133-4305-9f44-72697665722e,rev?*
G04 #@! TF.SameCoordinates,PX67f3540PY6cb8080*
G04 #@! TF.FileFunction,Soldermask,Top*
G04 #@! TF.FilePolarity,Negative*
%FSLAX46Y46*%
G04 Gerber Fmt 4.6, Leading zero omitted, Abs format (unit mm)*
G04 Created by KiCad (PCBNEW (5.1.0-1558-g0ba0c1724)) date 2020-03-09 19:15:21*
%MOMM*%
%LPD*%
G04 APERTURE LIST*
%ADD10C,0.100000*%
G04 APERTURE END LIST*
D10*
G36*
X2809157Y4658206D02*
G01*
X2863764Y4660113D01*
X2921626Y4652803D01*
X2985961Y4649713D01*
X3039288Y4637940D01*
X3087430Y4631858D01*
X3149258Y4613661D01*
X3218128Y4598456D01*
X3263047Y4580171D01*
X3303709Y4568203D01*
X3367351Y4537711D01*
X3438340Y4508813D01*
X3474327Y4486457D01*
X3507022Y4470792D01*
X3569994Y4427025D01*
X3640300Y4383349D01*
X3667423Y4359311D01*
X3692151Y4342124D01*
X3751712Y4284606D01*
X3818233Y4225650D01*
X3837079Y4202168D01*
X3854327Y4185512D01*
X3907597Y4114304D01*
X3967051Y4040226D01*
X3978689Y4019274D01*
X3989376Y4004988D01*
X4033429Y3920723D01*
X4082500Y3832378D01*
X4088405Y3815564D01*
X4093823Y3805200D01*
X4125765Y3709180D01*
X4161279Y3608051D01*
X4163238Y3596532D01*
X4164988Y3591270D01*
X4182172Y3485173D01*
X4201134Y3373656D01*
X4198362Y3109026D01*
X4177096Y2998071D01*
X4157668Y2892215D01*
X4155804Y2886980D01*
X4153607Y2875518D01*
X4116015Y2775240D01*
X4082040Y2679828D01*
X4076403Y2669575D01*
X4070148Y2652889D01*
X4019233Y2565583D01*
X3973428Y2482265D01*
X3962446Y2468209D01*
X3950372Y2447505D01*
X3889378Y2374685D01*
X3834630Y2304612D01*
X3817038Y2288322D01*
X3797703Y2265238D01*
X3729965Y2207690D01*
X3669208Y2151429D01*
X3644120Y2134761D01*
X3616506Y2111301D01*
X3545311Y2069112D01*
X3481430Y2026670D01*
X3448414Y2011693D01*
X3411963Y1990093D01*
X3340385Y1962688D01*
X3276117Y1933535D01*
X3235209Y1922421D01*
X3189922Y1905082D01*
X3181049Y1903317D01*
X3133845Y1874319D01*
X3103291Y1810858D01*
X3111897Y1740953D01*
X3126559Y1723351D01*
X3122955Y1720943D01*
X3148041Y1683399D01*
X3154448Y1651188D01*
X3154448Y1548812D01*
X3151999Y1536500D01*
X3148041Y1516601D01*
X3136769Y1499731D01*
X3119899Y1488459D01*
X3100000Y1484501D01*
X3087688Y1482052D01*
X1842947Y1482052D01*
X1775367Y1462209D01*
X1729244Y1408979D01*
X1717948Y1357053D01*
X1717948Y112312D01*
X1715499Y100000D01*
X1711541Y80101D01*
X1700269Y63231D01*
X1683399Y51959D01*
X1663500Y48001D01*
X1651188Y45552D01*
X1548812Y45552D01*
X1516601Y51959D01*
X1499731Y63231D01*
X1488459Y80101D01*
X1482052Y112312D01*
X1482052Y1357053D01*
X1462209Y1424633D01*
X1408979Y1470756D01*
X1357053Y1482052D01*
X112312Y1482052D01*
X80101Y1488459D01*
X63231Y1499731D01*
X51959Y1516601D01*
X45552Y1548812D01*
X45552Y1651188D01*
X51959Y1683399D01*
X63231Y1700269D01*
X80101Y1711541D01*
X112312Y1717948D01*
X1357053Y1717948D01*
X1424633Y1737791D01*
X1470756Y1791021D01*
X1482052Y1842947D01*
X1482052Y2066970D01*
X1717948Y2066970D01*
X1717948Y1842947D01*
X1737791Y1775367D01*
X1791021Y1729244D01*
X1842947Y1717948D01*
X2223544Y1717948D01*
X2291124Y1737791D01*
X2337247Y1791021D01*
X2347271Y1860736D01*
X2318012Y1924804D01*
X2280498Y1951410D01*
X2257391Y1958851D01*
X2216561Y1980151D01*
X2179438Y1994849D01*
X2116728Y2032232D01*
X2046593Y2068820D01*
X2014813Y2092986D01*
X1985784Y2110291D01*
X1925150Y2161168D01*
X1922842Y2162923D01*
X1858770Y2190963D01*
X1789223Y2179835D01*
X1736732Y2132872D01*
X1717948Y2066970D01*
X1482052Y2066970D01*
X1482052Y2752259D01*
X1474572Y2790036D01*
X1468950Y2802873D01*
X1465247Y2817779D01*
X1461724Y2826327D01*
X1438028Y2927357D01*
X1411632Y3033619D01*
X1410949Y3042809D01*
X1410243Y3045819D01*
X1402554Y3155781D01*
X1394012Y3270724D01*
X1404980Y3385682D01*
X1414951Y3495242D01*
X1415718Y3498231D01*
X1416594Y3507408D01*
X1445231Y3613175D01*
X1471018Y3713609D01*
X1474716Y3722072D01*
X1478731Y3736903D01*
X1522214Y3830794D01*
X1561273Y3920196D01*
X1569611Y3933134D01*
X1578648Y3952647D01*
X1633893Y4032880D01*
X1683403Y4109703D01*
X1697804Y4125697D01*
X1713486Y4148472D01*
X1777201Y4213877D01*
X1834258Y4277246D01*
X1855822Y4294584D01*
X1879392Y4318779D01*
X1948275Y4368917D01*
X2009957Y4418511D01*
X2039345Y4435206D01*
X2071620Y4458698D01*
X2142503Y4493808D01*
X2205986Y4529871D01*
X2243412Y4543790D01*
X2284675Y4564228D01*
X2354594Y4585138D01*
X2417294Y4608456D01*
X2462486Y4617404D01*
X2512465Y4632351D01*
X2578830Y4640441D01*
X2638445Y4652245D01*
X2690605Y4654066D01*
X2748477Y4661121D01*
X2809157Y4658206D01*
X2809157Y4658206D01*
G37*
G36*
X33759157Y4658206D02*
G01*
X33813764Y4660113D01*
X33871626Y4652803D01*
X33935961Y4649713D01*
X33989288Y4637940D01*
X34037430Y4631858D01*
X34099258Y4613661D01*
X34168128Y4598456D01*
X34213047Y4580171D01*
X34253709Y4568203D01*
X34317351Y4537711D01*
X34388340Y4508813D01*
X34424327Y4486457D01*
X34457022Y4470792D01*
X34519994Y4427025D01*
X34590300Y4383349D01*
X34617423Y4359311D01*
X34642151Y4342124D01*
X34701712Y4284606D01*
X34768233Y4225650D01*
X34787079Y4202168D01*
X34804327Y4185512D01*
X34857597Y4114304D01*
X34917051Y4040226D01*
X34928689Y4019274D01*
X34939376Y4004988D01*
X34983429Y3920723D01*
X35032500Y3832378D01*
X35038405Y3815564D01*
X35043823Y3805200D01*
X35075765Y3709180D01*
X35111279Y3608051D01*
X35113238Y3596532D01*
X35114988Y3591270D01*
X35132172Y3485173D01*
X35151134Y3373656D01*
X35149715Y3238228D01*
X35168694Y3170994D01*
X35196542Y3142347D01*
X35211541Y3119899D01*
X35217948Y3087688D01*
X35217948Y1842947D01*
X35237791Y1775367D01*
X35291021Y1729244D01*
X35342947Y1717948D01*
X36587688Y1717948D01*
X36619899Y1711541D01*
X36636769Y1700269D01*
X36648041Y1683399D01*
X36654448Y1651188D01*
X36654448Y1548812D01*
X36651999Y1536500D01*
X36648041Y1516601D01*
X36636769Y1499731D01*
X36619899Y1488459D01*
X36600000Y1484501D01*
X36587688Y1482052D01*
X35342947Y1482052D01*
X35275367Y1462209D01*
X35229244Y1408979D01*
X35217948Y1357053D01*
X35217948Y112312D01*
X35215499Y100000D01*
X35211541Y80101D01*
X35200269Y63231D01*
X35183399Y51959D01*
X35163500Y48001D01*
X35151188Y45552D01*
X35048812Y45552D01*
X35016601Y51959D01*
X34999731Y63231D01*
X34988459Y80101D01*
X34982052Y112312D01*
X34982052Y1357053D01*
X34962209Y1424633D01*
X34908979Y1470756D01*
X34857053Y1482052D01*
X33612312Y1482052D01*
X33580101Y1488459D01*
X33563231Y1499731D01*
X33551959Y1516601D01*
X33545552Y1548812D01*
X33545552Y1651188D01*
X33551959Y1683400D01*
X33556077Y1689562D01*
X33577123Y1756777D01*
X33558489Y1824700D01*
X33532317Y1843264D01*
X34204001Y1843264D01*
X34223673Y1775634D01*
X34276785Y1729376D01*
X34329000Y1717948D01*
X34857053Y1717948D01*
X34924633Y1737791D01*
X34970756Y1791021D01*
X34982052Y1842947D01*
X34982052Y2201315D01*
X34962209Y2268895D01*
X34908979Y2315018D01*
X34839264Y2325042D01*
X34772123Y2293030D01*
X34767037Y2288320D01*
X34747703Y2265238D01*
X34679966Y2207692D01*
X34619208Y2151429D01*
X34594120Y2134761D01*
X34566506Y2111301D01*
X34495311Y2069112D01*
X34431430Y2026670D01*
X34398414Y2011693D01*
X34361963Y1990093D01*
X34290385Y1962688D01*
X34277362Y1956781D01*
X34224016Y1910793D01*
X34204001Y1843264D01*
X33532317Y1843264D01*
X33481817Y1879082D01*
X33433704Y1885972D01*
X33384035Y1901967D01*
X33339053Y1911857D01*
X33276870Y1936477D01*
X33207391Y1958851D01*
X33166562Y1980151D01*
X33129438Y1994849D01*
X33066723Y2032235D01*
X32996593Y2068820D01*
X32964820Y2092981D01*
X32935787Y2110288D01*
X32875161Y2161159D01*
X32807337Y2212734D01*
X32784275Y2237422D01*
X32763083Y2255204D01*
X32707378Y2319739D01*
X32645034Y2386478D01*
X32629830Y2409581D01*
X32615769Y2425870D01*
X32567889Y2503697D01*
X32514326Y2585084D01*
X32505698Y2604786D01*
X32497635Y2617892D01*
X32460454Y2708099D01*
X32418950Y2802873D01*
X32415247Y2817779D01*
X32411724Y2826327D01*
X32388028Y2927357D01*
X32361632Y3033619D01*
X32360949Y3042809D01*
X32360243Y3045819D01*
X32352554Y3155781D01*
X32344012Y3270724D01*
X32354980Y3385682D01*
X32364951Y3495242D01*
X32365718Y3498231D01*
X32366594Y3507408D01*
X32395231Y3613175D01*
X32421018Y3713609D01*
X32424716Y3722072D01*
X32428731Y3736903D01*
X32472214Y3830794D01*
X32511273Y3920196D01*
X32519611Y3933134D01*
X32528648Y3952647D01*
X32583893Y4032880D01*
X32633403Y4109703D01*
X32647804Y4125697D01*
X32663486Y4148472D01*
X32727201Y4213877D01*
X32784258Y4277246D01*
X32805822Y4294584D01*
X32829392Y4318779D01*
X32898275Y4368917D01*
X32959957Y4418511D01*
X32989345Y4435206D01*
X33021620Y4458698D01*
X33092503Y4493808D01*
X33155986Y4529871D01*
X33193412Y4543790D01*
X33234675Y4564228D01*
X33304594Y4585138D01*
X33367294Y4608456D01*
X33412486Y4617404D01*
X33462465Y4632351D01*
X33528830Y4640441D01*
X33588445Y4652245D01*
X33640605Y4654066D01*
X33698477Y4661121D01*
X33759157Y4658206D01*
X33759157Y4658206D01*
G37*
G36*
X8997699Y5662841D02*
G01*
X9014569Y5651569D01*
X9025841Y5634699D01*
X9030203Y5612769D01*
X9062849Y5550359D01*
X9124055Y5515507D01*
X9194386Y5519278D01*
X9251514Y5560473D01*
X9275397Y5612769D01*
X9279759Y5634699D01*
X9291031Y5651569D01*
X9307901Y5662841D01*
X9340112Y5669248D01*
X9965488Y5669248D01*
X9997699Y5662841D01*
X10014569Y5651569D01*
X10025841Y5634699D01*
X10030203Y5612769D01*
X10062849Y5550359D01*
X10124055Y5515507D01*
X10194386Y5519278D01*
X10251514Y5560473D01*
X10275397Y5612769D01*
X10279759Y5634699D01*
X10291031Y5651569D01*
X10307901Y5662841D01*
X10340112Y5669248D01*
X10965488Y5669248D01*
X10997699Y5662841D01*
X11014569Y5651569D01*
X11025841Y5634699D01*
X11030203Y5612769D01*
X11062849Y5550359D01*
X11124055Y5515507D01*
X11194386Y5519278D01*
X11251514Y5560473D01*
X11275397Y5612769D01*
X11279759Y5634699D01*
X11291031Y5651569D01*
X11307901Y5662841D01*
X11340112Y5669248D01*
X11965488Y5669248D01*
X11997699Y5662841D01*
X12014569Y5651569D01*
X12025841Y5634699D01*
X12030203Y5612769D01*
X12062849Y5550359D01*
X12124055Y5515507D01*
X12194386Y5519278D01*
X12251514Y5560473D01*
X12275397Y5612769D01*
X12279759Y5634699D01*
X12291031Y5651569D01*
X12307901Y5662841D01*
X12340112Y5669248D01*
X12965488Y5669248D01*
X12997699Y5662841D01*
X13014569Y5651569D01*
X13025841Y5634699D01*
X13030203Y5612769D01*
X13062849Y5550359D01*
X13124055Y5515507D01*
X13194386Y5519278D01*
X13251514Y5560473D01*
X13275397Y5612769D01*
X13279759Y5634699D01*
X13291031Y5651569D01*
X13307901Y5662841D01*
X13340112Y5669248D01*
X13965488Y5669248D01*
X13997699Y5662841D01*
X14014569Y5651569D01*
X14025841Y5634699D01*
X14030203Y5612769D01*
X14062849Y5550359D01*
X14124055Y5515507D01*
X14194386Y5519278D01*
X14251514Y5560473D01*
X14275397Y5612769D01*
X14279759Y5634699D01*
X14291031Y5651569D01*
X14307901Y5662841D01*
X14340112Y5669248D01*
X14965488Y5669248D01*
X14997699Y5662841D01*
X15014569Y5651569D01*
X15025841Y5634699D01*
X15030203Y5612769D01*
X15062849Y5550359D01*
X15124055Y5515507D01*
X15194386Y5519278D01*
X15251514Y5560473D01*
X15275397Y5612769D01*
X15279759Y5634699D01*
X15291031Y5651569D01*
X15307901Y5662841D01*
X15340112Y5669248D01*
X15965488Y5669248D01*
X15997699Y5662841D01*
X16014569Y5651569D01*
X16025841Y5634699D01*
X16030203Y5612769D01*
X16062849Y5550359D01*
X16124055Y5515507D01*
X16194386Y5519278D01*
X16251514Y5560473D01*
X16275397Y5612769D01*
X16279759Y5634699D01*
X16291031Y5651569D01*
X16307901Y5662841D01*
X16340112Y5669248D01*
X16965488Y5669248D01*
X16997699Y5662841D01*
X17014569Y5651569D01*
X17025841Y5634699D01*
X17030203Y5612769D01*
X17062849Y5550359D01*
X17124055Y5515507D01*
X17194386Y5519278D01*
X17251514Y5560473D01*
X17275397Y5612769D01*
X17279759Y5634699D01*
X17291031Y5651569D01*
X17307901Y5662841D01*
X17340112Y5669248D01*
X17965488Y5669248D01*
X17997699Y5662841D01*
X18014569Y5651569D01*
X18025841Y5634699D01*
X18030203Y5612769D01*
X18062849Y5550359D01*
X18124055Y5515507D01*
X18194386Y5519278D01*
X18251514Y5560473D01*
X18275397Y5612769D01*
X18279759Y5634699D01*
X18291031Y5651569D01*
X18307901Y5662841D01*
X18340112Y5669248D01*
X18965488Y5669248D01*
X18997699Y5662841D01*
X19014569Y5651569D01*
X19025841Y5634699D01*
X19032248Y5602488D01*
X19032248Y1027114D01*
X19030068Y1016155D01*
X19028193Y998309D01*
X19027736Y945986D01*
X19008949Y893946D01*
X18994521Y848872D01*
X18990563Y843015D01*
X18985232Y828248D01*
X18955809Y791587D01*
X18934212Y759629D01*
X18922111Y749601D01*
X18906882Y730625D01*
X18874356Y710023D01*
X18851286Y690904D01*
X18828941Y681257D01*
X18801134Y663645D01*
X18772007Y656679D01*
X18752398Y648214D01*
X18719700Y644170D01*
X18679391Y634530D01*
X18658145Y636557D01*
X18645508Y634994D01*
X18604470Y641678D01*
X18554781Y646418D01*
X18543211Y651654D01*
X18539198Y652308D01*
X18493546Y674132D01*
X18440741Y698030D01*
X18398892Y737398D01*
X18361798Y770622D01*
X18359303Y774639D01*
X18349566Y783798D01*
X18326550Y827360D01*
X18304962Y862109D01*
X18301371Y875015D01*
X18291089Y894475D01*
X18284743Y934769D01*
X18272481Y978837D01*
X18235247Y1038624D01*
X18171602Y1068790D01*
X18101751Y1059757D01*
X18047871Y1014394D01*
X18033632Y968236D01*
X18032814Y968498D01*
X18027796Y952821D01*
X18027736Y945986D01*
X18008951Y893950D01*
X17994521Y848872D01*
X17990563Y843015D01*
X17985232Y828248D01*
X17955809Y791587D01*
X17934212Y759629D01*
X17922111Y749601D01*
X17906882Y730625D01*
X17874356Y710023D01*
X17851286Y690904D01*
X17828941Y681257D01*
X17801134Y663645D01*
X17772007Y656679D01*
X17752398Y648214D01*
X17719700Y644170D01*
X17679391Y634530D01*
X17658145Y636557D01*
X17645508Y634994D01*
X17604470Y641678D01*
X17554781Y646418D01*
X17543211Y651654D01*
X17539198Y652308D01*
X17493546Y674132D01*
X17440741Y698030D01*
X17398892Y737398D01*
X17361798Y770622D01*
X17359303Y774639D01*
X17349566Y783798D01*
X17326550Y827360D01*
X17304962Y862109D01*
X17301371Y875015D01*
X17291089Y894475D01*
X17284743Y934769D01*
X17272481Y978837D01*
X17235247Y1038624D01*
X17171602Y1068790D01*
X17101751Y1059757D01*
X17047871Y1014394D01*
X17033632Y968236D01*
X17032814Y968498D01*
X17027796Y952821D01*
X17027736Y945986D01*
X17008951Y893950D01*
X16994521Y848872D01*
X16990563Y843015D01*
X16985232Y828248D01*
X16955809Y791587D01*
X16934212Y759629D01*
X16922111Y749601D01*
X16906882Y730625D01*
X16874356Y710023D01*
X16851286Y690904D01*
X16828941Y681257D01*
X16801134Y663645D01*
X16772007Y656679D01*
X16752398Y648214D01*
X16719700Y644170D01*
X16679391Y634530D01*
X16658145Y636557D01*
X16645508Y634994D01*
X16604470Y641678D01*
X16554781Y646418D01*
X16543211Y651654D01*
X16539198Y652308D01*
X16493546Y674132D01*
X16440741Y698030D01*
X16398892Y737398D01*
X16361798Y770622D01*
X16359303Y774639D01*
X16349566Y783798D01*
X16326550Y827360D01*
X16304962Y862109D01*
X16301371Y875015D01*
X16291089Y894475D01*
X16284743Y934769D01*
X16272481Y978837D01*
X16235247Y1038624D01*
X16171602Y1068790D01*
X16101751Y1059757D01*
X16047871Y1014394D01*
X16033632Y968236D01*
X16032814Y968498D01*
X16027796Y952821D01*
X16027736Y945986D01*
X16008951Y893950D01*
X15994521Y848872D01*
X15990563Y843015D01*
X15985232Y828248D01*
X15955809Y791587D01*
X15934212Y759629D01*
X15922111Y749601D01*
X15906882Y730625D01*
X15874356Y710023D01*
X15851286Y690904D01*
X15828941Y681257D01*
X15801134Y663645D01*
X15772007Y656679D01*
X15752398Y648214D01*
X15719700Y644170D01*
X15679391Y634530D01*
X15658145Y636557D01*
X15645508Y634994D01*
X15604470Y641678D01*
X15554781Y646418D01*
X15543211Y651654D01*
X15539198Y652308D01*
X15493546Y674132D01*
X15440741Y698030D01*
X15398892Y737398D01*
X15361798Y770622D01*
X15359303Y774639D01*
X15349566Y783798D01*
X15326550Y827360D01*
X15304962Y862109D01*
X15301371Y875015D01*
X15291089Y894475D01*
X15284743Y934769D01*
X15272481Y978837D01*
X15235247Y1038624D01*
X15171602Y1068790D01*
X15101751Y1059757D01*
X15047871Y1014394D01*
X15033632Y968236D01*
X15032814Y968498D01*
X15027796Y952821D01*
X15027736Y945986D01*
X15008951Y893950D01*
X14994521Y848872D01*
X14990563Y843015D01*
X14985232Y828248D01*
X14955809Y791587D01*
X14934212Y759629D01*
X14922111Y749601D01*
X14906882Y730625D01*
X14874356Y710023D01*
X14851286Y690904D01*
X14828941Y681257D01*
X14801134Y663645D01*
X14772007Y656679D01*
X14752398Y648214D01*
X14719700Y644170D01*
X14679391Y634530D01*
X14658145Y636557D01*
X14645508Y634994D01*
X14604470Y641678D01*
X14554781Y646418D01*
X14543211Y651654D01*
X14539198Y652308D01*
X14493546Y674132D01*
X14440741Y698030D01*
X14398892Y737398D01*
X14361798Y770622D01*
X14359303Y774639D01*
X14349566Y783798D01*
X14326550Y827360D01*
X14304962Y862109D01*
X14301371Y875015D01*
X14291089Y894475D01*
X14284743Y934769D01*
X14272481Y978837D01*
X14235247Y1038624D01*
X14171602Y1068790D01*
X14101751Y1059757D01*
X14047871Y1014394D01*
X14033632Y968236D01*
X14032814Y968498D01*
X14027796Y952821D01*
X14027736Y945986D01*
X14008951Y893950D01*
X13994521Y848872D01*
X13990563Y843015D01*
X13985232Y828248D01*
X13955809Y791587D01*
X13934212Y759629D01*
X13922111Y749601D01*
X13906882Y730625D01*
X13874356Y710023D01*
X13851286Y690904D01*
X13828941Y681257D01*
X13801134Y663645D01*
X13772007Y656679D01*
X13752398Y648214D01*
X13719700Y644170D01*
X13679391Y634530D01*
X13658145Y636557D01*
X13645508Y634994D01*
X13604470Y641678D01*
X13554781Y646418D01*
X13543211Y651654D01*
X13539198Y652308D01*
X13493546Y674132D01*
X13440741Y698030D01*
X13398892Y737398D01*
X13361798Y770622D01*
X13359303Y774639D01*
X13349566Y783798D01*
X13326550Y827360D01*
X13304962Y862109D01*
X13301371Y875015D01*
X13291089Y894475D01*
X13284743Y934769D01*
X13272481Y978837D01*
X13235247Y1038624D01*
X13171602Y1068790D01*
X13101751Y1059757D01*
X13047871Y1014394D01*
X13033632Y968236D01*
X13032814Y968498D01*
X13027796Y952821D01*
X13027736Y945986D01*
X13008951Y893950D01*
X12994521Y848872D01*
X12990563Y843015D01*
X12985232Y828248D01*
X12955809Y791587D01*
X12934212Y759629D01*
X12922111Y749601D01*
X12906882Y730625D01*
X12874356Y710023D01*
X12851286Y690904D01*
X12828941Y681257D01*
X12801134Y663645D01*
X12772007Y656679D01*
X12752398Y648214D01*
X12719700Y644170D01*
X12679391Y634530D01*
X12658145Y636557D01*
X12645508Y634994D01*
X12604470Y641678D01*
X12554781Y646418D01*
X12543211Y651654D01*
X12539198Y652308D01*
X12493546Y674132D01*
X12440741Y698030D01*
X12398892Y737398D01*
X12361798Y770622D01*
X12359303Y774639D01*
X12349566Y783798D01*
X12326550Y827360D01*
X12304962Y862109D01*
X12301371Y875015D01*
X12291089Y894475D01*
X12284743Y934769D01*
X12272481Y978837D01*
X12235247Y1038624D01*
X12171602Y1068790D01*
X12101751Y1059757D01*
X12047871Y1014394D01*
X12033632Y968236D01*
X12032814Y968498D01*
X12027796Y952821D01*
X12027736Y945986D01*
X12008951Y893950D01*
X11994521Y848872D01*
X11990563Y843015D01*
X11985232Y828248D01*
X11955809Y791587D01*
X11934212Y759629D01*
X11922111Y749601D01*
X11906882Y730625D01*
X11874356Y710023D01*
X11851286Y690904D01*
X11828941Y681257D01*
X11801134Y663645D01*
X11772007Y656679D01*
X11752398Y648214D01*
X11719700Y644170D01*
X11679391Y634530D01*
X11658145Y636557D01*
X11645508Y634994D01*
X11604470Y641678D01*
X11554781Y646418D01*
X11543211Y651654D01*
X11539198Y652308D01*
X11493546Y674132D01*
X11440741Y698030D01*
X11398892Y737398D01*
X11361798Y770622D01*
X11359303Y774639D01*
X11349566Y783798D01*
X11326550Y827360D01*
X11304962Y862109D01*
X11301371Y875015D01*
X11291089Y894475D01*
X11284743Y934769D01*
X11272481Y978837D01*
X11235247Y1038624D01*
X11171602Y1068790D01*
X11101751Y1059757D01*
X11047871Y1014394D01*
X11033632Y968236D01*
X11032814Y968498D01*
X11027796Y952821D01*
X11027736Y945986D01*
X11008951Y893950D01*
X10994521Y848872D01*
X10990563Y843015D01*
X10985232Y828248D01*
X10955809Y791587D01*
X10934212Y759629D01*
X10922111Y749601D01*
X10906882Y730625D01*
X10874356Y710023D01*
X10851286Y690904D01*
X10828941Y681257D01*
X10801134Y663645D01*
X10772007Y656679D01*
X10752398Y648214D01*
X10719700Y644170D01*
X10679391Y634530D01*
X10658145Y636557D01*
X10645508Y634994D01*
X10604470Y641678D01*
X10554781Y646418D01*
X10543211Y651654D01*
X10539198Y652308D01*
X10493546Y674132D01*
X10440741Y698030D01*
X10398892Y737398D01*
X10361798Y770622D01*
X10359303Y774639D01*
X10349566Y783798D01*
X10326550Y827360D01*
X10304962Y862109D01*
X10301371Y875015D01*
X10291089Y894475D01*
X10284743Y934769D01*
X10272481Y978837D01*
X10235247Y1038624D01*
X10171602Y1068790D01*
X10101751Y1059757D01*
X10047871Y1014394D01*
X10033632Y968236D01*
X10032814Y968498D01*
X10027796Y952821D01*
X10027736Y945986D01*
X10008951Y893950D01*
X9994521Y848872D01*
X9990563Y843015D01*
X9985232Y828248D01*
X9955809Y791587D01*
X9934212Y759629D01*
X9922111Y749601D01*
X9906882Y730625D01*
X9874356Y710023D01*
X9851286Y690904D01*
X9828941Y681257D01*
X9801134Y663645D01*
X9772007Y656679D01*
X9752398Y648214D01*
X9719700Y644170D01*
X9679391Y634530D01*
X9658145Y636557D01*
X9645508Y634994D01*
X9604470Y641678D01*
X9554781Y646418D01*
X9543211Y651654D01*
X9539198Y652308D01*
X9493546Y674132D01*
X9440741Y698030D01*
X9398892Y737398D01*
X9361798Y770622D01*
X9359303Y774639D01*
X9349566Y783798D01*
X9326550Y827360D01*
X9304962Y862109D01*
X9301371Y875015D01*
X9291089Y894475D01*
X9284743Y934769D01*
X9272481Y978837D01*
X9235247Y1038624D01*
X9171602Y1068790D01*
X9101751Y1059757D01*
X9047871Y1014394D01*
X9033632Y968236D01*
X9032814Y968498D01*
X9027796Y952821D01*
X9027736Y945986D01*
X9008951Y893950D01*
X8994521Y848872D01*
X8990563Y843015D01*
X8985232Y828248D01*
X8955809Y791587D01*
X8934212Y759629D01*
X8922111Y749601D01*
X8906882Y730625D01*
X8874356Y710023D01*
X8851286Y690904D01*
X8828941Y681257D01*
X8801134Y663645D01*
X8772007Y656679D01*
X8752398Y648214D01*
X8719700Y644170D01*
X8679391Y634530D01*
X8658145Y636557D01*
X8645508Y634994D01*
X8604470Y641678D01*
X8554781Y646418D01*
X8543211Y651654D01*
X8539198Y652308D01*
X8493546Y674132D01*
X8440741Y698030D01*
X8398892Y737398D01*
X8361798Y770622D01*
X8359303Y774639D01*
X8349566Y783798D01*
X8326550Y827360D01*
X8304962Y862109D01*
X8301371Y875015D01*
X8291089Y894475D01*
X8284743Y934772D01*
X8276088Y965876D01*
X8276376Y987900D01*
X8271616Y1018127D01*
X8273352Y1028023D01*
X8273352Y5602488D01*
X8279759Y5634699D01*
X8291031Y5651569D01*
X8307901Y5662841D01*
X8340112Y5669248D01*
X8965488Y5669248D01*
X8997699Y5662841D01*
X8997699Y5662841D01*
G37*
G36*
X21997699Y5662841D02*
G01*
X22014569Y5651569D01*
X22025841Y5634699D01*
X22030203Y5612769D01*
X22062849Y5550359D01*
X22124055Y5515507D01*
X22194386Y5519278D01*
X22251514Y5560473D01*
X22275397Y5612769D01*
X22279759Y5634699D01*
X22291031Y5651569D01*
X22307901Y5662841D01*
X22340112Y5669248D01*
X22965488Y5669248D01*
X22997699Y5662841D01*
X23014569Y5651569D01*
X23025841Y5634699D01*
X23030203Y5612769D01*
X23062849Y5550359D01*
X23124055Y5515507D01*
X23194386Y5519278D01*
X23251514Y5560473D01*
X23275397Y5612769D01*
X23279759Y5634699D01*
X23291031Y5651569D01*
X23307901Y5662841D01*
X23340112Y5669248D01*
X23965488Y5669248D01*
X23997699Y5662841D01*
X24014569Y5651569D01*
X24025841Y5634699D01*
X24030203Y5612769D01*
X24062849Y5550359D01*
X24124055Y5515507D01*
X24194386Y5519278D01*
X24251514Y5560473D01*
X24275397Y5612769D01*
X24279759Y5634699D01*
X24291031Y5651569D01*
X24307901Y5662841D01*
X24340112Y5669248D01*
X24965488Y5669248D01*
X24997699Y5662841D01*
X25014569Y5651569D01*
X25025841Y5634699D01*
X25030203Y5612769D01*
X25062849Y5550359D01*
X25124055Y5515507D01*
X25194386Y5519278D01*
X25251514Y5560473D01*
X25275397Y5612769D01*
X25279759Y5634699D01*
X25291031Y5651569D01*
X25307901Y5662841D01*
X25340112Y5669248D01*
X25965488Y5669248D01*
X25997699Y5662841D01*
X26014569Y5651569D01*
X26025841Y5634699D01*
X26030203Y5612769D01*
X26062849Y5550359D01*
X26124055Y5515507D01*
X26194386Y5519278D01*
X26251514Y5560473D01*
X26275397Y5612769D01*
X26279759Y5634699D01*
X26291031Y5651569D01*
X26307901Y5662841D01*
X26340112Y5669248D01*
X26965488Y5669248D01*
X26997699Y5662841D01*
X27014569Y5651569D01*
X27025841Y5634699D01*
X27030203Y5612769D01*
X27062849Y5550359D01*
X27124055Y5515507D01*
X27194386Y5519278D01*
X27251514Y5560473D01*
X27275397Y5612769D01*
X27279759Y5634699D01*
X27291031Y5651569D01*
X27307901Y5662841D01*
X27340112Y5669248D01*
X27965488Y5669248D01*
X27997699Y5662841D01*
X28014569Y5651569D01*
X28025841Y5634699D01*
X28032248Y5602488D01*
X28032248Y1027114D01*
X28030068Y1016155D01*
X28028193Y998309D01*
X28027736Y945986D01*
X28008949Y893946D01*
X27994521Y848872D01*
X27990563Y843015D01*
X27985232Y828248D01*
X27955809Y791587D01*
X27934212Y759629D01*
X27922111Y749601D01*
X27906882Y730625D01*
X27874356Y710023D01*
X27851286Y690904D01*
X27828941Y681257D01*
X27801134Y663645D01*
X27772007Y656679D01*
X27752398Y648214D01*
X27719700Y644170D01*
X27679391Y634530D01*
X27658145Y636557D01*
X27645508Y634994D01*
X27604470Y641678D01*
X27554781Y646418D01*
X27543211Y651654D01*
X27539198Y652308D01*
X27493546Y674132D01*
X27440741Y698030D01*
X27398892Y737398D01*
X27361798Y770622D01*
X27359303Y774639D01*
X27349566Y783798D01*
X27326550Y827360D01*
X27304962Y862109D01*
X27301371Y875015D01*
X27291089Y894475D01*
X27284743Y934772D01*
X27276088Y965876D01*
X27276376Y987900D01*
X27271616Y1018127D01*
X27273352Y1028023D01*
X27273352Y1970088D01*
X27253509Y2037668D01*
X27200279Y2083791D01*
X27130564Y2093815D01*
X27066496Y2064556D01*
X27027093Y1996775D01*
X27025841Y1994901D01*
X27014569Y1978031D01*
X26997699Y1966759D01*
X26977800Y1962801D01*
X26965488Y1960352D01*
X26340112Y1960352D01*
X26307901Y1966759D01*
X26291031Y1978031D01*
X26279124Y1995852D01*
X26247197Y2056885D01*
X26185992Y2091737D01*
X26115660Y2087966D01*
X26058532Y2046770D01*
X26032248Y1970088D01*
X26032248Y1027114D01*
X26030068Y1016155D01*
X26028193Y998309D01*
X26027736Y945986D01*
X26008949Y893946D01*
X25994521Y848872D01*
X25990563Y843015D01*
X25985232Y828248D01*
X25955809Y791587D01*
X25934212Y759629D01*
X25922111Y749601D01*
X25906882Y730625D01*
X25874356Y710023D01*
X25851286Y690904D01*
X25828941Y681257D01*
X25801134Y663645D01*
X25772007Y656679D01*
X25752398Y648214D01*
X25719700Y644170D01*
X25679391Y634530D01*
X25658145Y636557D01*
X25645508Y634994D01*
X25604470Y641678D01*
X25554781Y646418D01*
X25543211Y651654D01*
X25539198Y652308D01*
X25493546Y674132D01*
X25440741Y698030D01*
X25398892Y737398D01*
X25361798Y770622D01*
X25359303Y774639D01*
X25349566Y783798D01*
X25326550Y827360D01*
X25304962Y862109D01*
X25301371Y875015D01*
X25291089Y894475D01*
X25284743Y934769D01*
X25272481Y978837D01*
X25235247Y1038624D01*
X25171602Y1068790D01*
X25101751Y1059757D01*
X25047871Y1014394D01*
X25033632Y968236D01*
X25032814Y968498D01*
X25027796Y952821D01*
X25027736Y945986D01*
X25008951Y893950D01*
X24994521Y848872D01*
X24990563Y843015D01*
X24985232Y828248D01*
X24955809Y791587D01*
X24934212Y759629D01*
X24922111Y749601D01*
X24906882Y730625D01*
X24874356Y710023D01*
X24851286Y690904D01*
X24828941Y681257D01*
X24801134Y663645D01*
X24772007Y656679D01*
X24752398Y648214D01*
X24719700Y644170D01*
X24679391Y634530D01*
X24658145Y636557D01*
X24645508Y634994D01*
X24604470Y641678D01*
X24554781Y646418D01*
X24543211Y651654D01*
X24539198Y652308D01*
X24493546Y674132D01*
X24440741Y698030D01*
X24398892Y737398D01*
X24361798Y770622D01*
X24359303Y774639D01*
X24349566Y783798D01*
X24326550Y827360D01*
X24304962Y862109D01*
X24301371Y875015D01*
X24291089Y894475D01*
X24284743Y934769D01*
X24272481Y978837D01*
X24235247Y1038624D01*
X24171602Y1068790D01*
X24101751Y1059757D01*
X24047871Y1014394D01*
X24033632Y968236D01*
X24032814Y968498D01*
X24027796Y952821D01*
X24027736Y945986D01*
X24008951Y893950D01*
X23994521Y848872D01*
X23990563Y843015D01*
X23985232Y828248D01*
X23955809Y791587D01*
X23934212Y759629D01*
X23922111Y749601D01*
X23906882Y730625D01*
X23874356Y710023D01*
X23851286Y690904D01*
X23828941Y681257D01*
X23801134Y663645D01*
X23772007Y656679D01*
X23752398Y648214D01*
X23719700Y644170D01*
X23679391Y634530D01*
X23658145Y636557D01*
X23645508Y634994D01*
X23604470Y641678D01*
X23554781Y646418D01*
X23543211Y651654D01*
X23539198Y652308D01*
X23493546Y674132D01*
X23440741Y698030D01*
X23398892Y737398D01*
X23361798Y770622D01*
X23359303Y774639D01*
X23349566Y783798D01*
X23326550Y827360D01*
X23304962Y862109D01*
X23301371Y875015D01*
X23291089Y894475D01*
X23284743Y934769D01*
X23272481Y978837D01*
X23235247Y1038624D01*
X23171602Y1068790D01*
X23101751Y1059757D01*
X23047871Y1014394D01*
X23033632Y968236D01*
X23032814Y968498D01*
X23027796Y952821D01*
X23027736Y945986D01*
X23008951Y893950D01*
X22994521Y848872D01*
X22990563Y843015D01*
X22985232Y828248D01*
X22955809Y791587D01*
X22934212Y759629D01*
X22922111Y749601D01*
X22906882Y730625D01*
X22874356Y710023D01*
X22851286Y690904D01*
X22828941Y681257D01*
X22801134Y663645D01*
X22772007Y656679D01*
X22752398Y648214D01*
X22719700Y644170D01*
X22679391Y634530D01*
X22658145Y636557D01*
X22645508Y634994D01*
X22604470Y641678D01*
X22554781Y646418D01*
X22543211Y651654D01*
X22539198Y652308D01*
X22493546Y674132D01*
X22440741Y698030D01*
X22398892Y737398D01*
X22361798Y770622D01*
X22359303Y774639D01*
X22349566Y783798D01*
X22326550Y827360D01*
X22304962Y862109D01*
X22301371Y875015D01*
X22291089Y894475D01*
X22284743Y934769D01*
X22272481Y978837D01*
X22235247Y1038624D01*
X22171602Y1068790D01*
X22101751Y1059757D01*
X22047871Y1014394D01*
X22033632Y968236D01*
X22032814Y968498D01*
X22027796Y952821D01*
X22027736Y945986D01*
X22008951Y893950D01*
X21994521Y848872D01*
X21990563Y843015D01*
X21985232Y828248D01*
X21955809Y791587D01*
X21934212Y759629D01*
X21922111Y749601D01*
X21906882Y730625D01*
X21874356Y710023D01*
X21851286Y690904D01*
X21828941Y681257D01*
X21801134Y663645D01*
X21772007Y656679D01*
X21752398Y648214D01*
X21719700Y644170D01*
X21679391Y634530D01*
X21658145Y636557D01*
X21645508Y634994D01*
X21604470Y641678D01*
X21554781Y646418D01*
X21543211Y651654D01*
X21539198Y652308D01*
X21493546Y674132D01*
X21440741Y698030D01*
X21398892Y737398D01*
X21361798Y770622D01*
X21359303Y774639D01*
X21349566Y783798D01*
X21326550Y827360D01*
X21304962Y862109D01*
X21301371Y875015D01*
X21291089Y894475D01*
X21284743Y934772D01*
X21276088Y965876D01*
X21276376Y987900D01*
X21271616Y1018127D01*
X21273352Y1028023D01*
X21273352Y5602488D01*
X21279759Y5634699D01*
X21291031Y5651569D01*
X21307901Y5662841D01*
X21340112Y5669248D01*
X21965488Y5669248D01*
X21997699Y5662841D01*
X21997699Y5662841D01*
G37*
G36*
X33636756Y11088236D02*
G01*
X33648228Y11082711D01*
X33656286Y11081205D01*
X33673543Y11070520D01*
X33718638Y11048803D01*
X33738738Y11030153D01*
X33751964Y11021964D01*
X33762264Y11008324D01*
X33785265Y10986983D01*
X33807617Y10948268D01*
X33819781Y10932160D01*
X33821750Y10923788D01*
X33829506Y10910354D01*
X33848419Y10810397D01*
X33851883Y10795669D01*
X33851883Y10792090D01*
X33853194Y10785161D01*
X33853194Y7812484D01*
X33838236Y7713244D01*
X33832711Y7701772D01*
X33831205Y7693714D01*
X33820520Y7676457D01*
X33798803Y7631362D01*
X33780153Y7611262D01*
X33771964Y7598036D01*
X33758324Y7587736D01*
X33736983Y7564735D01*
X33698268Y7542383D01*
X33682160Y7530219D01*
X33673788Y7528250D01*
X33660354Y7520494D01*
X33560397Y7501581D01*
X33545669Y7498117D01*
X33542090Y7498117D01*
X33535161Y7496806D01*
X32462484Y7496806D01*
X32363244Y7511764D01*
X32351772Y7517289D01*
X32343714Y7518795D01*
X32326457Y7529480D01*
X32281362Y7551197D01*
X32261262Y7569847D01*
X32248036Y7578036D01*
X32237736Y7591676D01*
X32214735Y7613017D01*
X32192383Y7651732D01*
X32180219Y7667840D01*
X32178250Y7676212D01*
X32170494Y7689646D01*
X32151581Y7789603D01*
X32148117Y7804331D01*
X32148117Y7807910D01*
X32146806Y7814839D01*
X32146806Y10787516D01*
X32161764Y10886756D01*
X32167289Y10898228D01*
X32168795Y10906286D01*
X32179480Y10923543D01*
X32201197Y10968638D01*
X32219847Y10988738D01*
X32228036Y11001964D01*
X32241676Y11012264D01*
X32263017Y11035265D01*
X32301732Y11057617D01*
X32317840Y11069781D01*
X32326212Y11071750D01*
X32339646Y11079506D01*
X32439603Y11098419D01*
X32454331Y11101883D01*
X32457910Y11101883D01*
X32464839Y11103194D01*
X33537516Y11103194D01*
X33636756Y11088236D01*
X33636756Y11088236D01*
G37*
G36*
X27269899Y10523041D02*
G01*
X27286769Y10511769D01*
X27298041Y10494899D01*
X27304448Y10462688D01*
X27304448Y9487312D01*
X27301999Y9475000D01*
X27298041Y9455101D01*
X27286769Y9438231D01*
X27286768Y9438230D01*
X27283275Y9433003D01*
X27270291Y9422358D01*
X27271859Y9420446D01*
X27233629Y9374800D01*
X27224779Y9304925D01*
X27255110Y9241358D01*
X27262023Y9236454D01*
X27261371Y9235804D01*
X27278933Y9218205D01*
X27278934Y9218205D01*
X27293266Y9203844D01*
X27301999Y9175000D01*
X27301999Y9164578D01*
X27304448Y9156490D01*
X27304448Y8037312D01*
X27301999Y8025000D01*
X27298041Y8005101D01*
X27286769Y7988231D01*
X27269899Y7976959D01*
X27250000Y7973001D01*
X27237688Y7970552D01*
X25762312Y7970552D01*
X25730101Y7976959D01*
X25713231Y7988231D01*
X25701959Y8005101D01*
X25695552Y8037312D01*
X25695552Y9162688D01*
X25701959Y9194899D01*
X25713231Y9211769D01*
X25724050Y9218998D01*
X25769215Y9273042D01*
X25777992Y9342926D01*
X25734740Y9410145D01*
X25738757Y9414171D01*
X25721161Y9431731D01*
X25721156Y9431734D01*
X25706795Y9446066D01*
X25699011Y9464802D01*
X25699011Y9464805D01*
X25696599Y9470610D01*
X25695552Y9481178D01*
X25695552Y10462688D01*
X25701959Y10494899D01*
X25713231Y10511769D01*
X25730101Y10523041D01*
X25762312Y10529448D01*
X27237688Y10529448D01*
X27269899Y10523041D01*
X27269899Y10523041D01*
G37*
G36*
X20544899Y10773041D02*
G01*
X20561769Y10761769D01*
X20573041Y10744899D01*
X20579448Y10712688D01*
X20579448Y9787312D01*
X20576999Y9775000D01*
X20573041Y9755101D01*
X20561769Y9738231D01*
X20544899Y9726959D01*
X20525000Y9723001D01*
X20512688Y9720552D01*
X19662312Y9720552D01*
X19630101Y9726959D01*
X19613231Y9738231D01*
X19601959Y9755101D01*
X19595552Y9787312D01*
X19595552Y10712688D01*
X19601959Y10744899D01*
X19613231Y10761769D01*
X19630101Y10773041D01*
X19662312Y10779448D01*
X20512688Y10779448D01*
X20544899Y10773041D01*
X20544899Y10773041D01*
G37*
G36*
X18969899Y10773041D02*
G01*
X18986769Y10761769D01*
X18998041Y10744899D01*
X19004448Y10712688D01*
X19004448Y9787312D01*
X19001999Y9775000D01*
X18998041Y9755101D01*
X18986769Y9738231D01*
X18969899Y9726959D01*
X18950000Y9723001D01*
X18937688Y9720552D01*
X18087312Y9720552D01*
X18055101Y9726959D01*
X18038231Y9738231D01*
X18026959Y9755101D01*
X18020552Y9787312D01*
X18020552Y10712688D01*
X18026959Y10744899D01*
X18038231Y10761769D01*
X18055101Y10773041D01*
X18087312Y10779448D01*
X18937688Y10779448D01*
X18969899Y10773041D01*
X18969899Y10773041D01*
G37*
G36*
X18899899Y13298041D02*
G01*
X18916769Y13286769D01*
X18928041Y13269899D01*
X18934311Y13238378D01*
X18966958Y13175968D01*
X19028163Y13141116D01*
X19126354Y13158832D01*
X19138230Y13166767D01*
X19138231Y13166769D01*
X19155101Y13178041D01*
X19175000Y13181999D01*
X19187312Y13184448D01*
X20612688Y13184448D01*
X20625000Y13181999D01*
X20644899Y13178041D01*
X20661769Y13166769D01*
X20661770Y13166767D01*
X20673646Y13158832D01*
X20740861Y13137786D01*
X20808784Y13156420D01*
X20865689Y13238378D01*
X20871959Y13269899D01*
X20883231Y13286769D01*
X20900101Y13298041D01*
X20932312Y13304448D01*
X21587688Y13304448D01*
X21619899Y13298041D01*
X21636769Y13286769D01*
X21648041Y13269899D01*
X21654448Y13237688D01*
X21654448Y12962312D01*
X21648041Y12930100D01*
X21640921Y12919445D01*
X21619875Y12852230D01*
X21640921Y12780555D01*
X21648041Y12769900D01*
X21654448Y12737688D01*
X21654448Y12462312D01*
X21648041Y12430100D01*
X21640921Y12419445D01*
X21619875Y12352230D01*
X21640921Y12280555D01*
X21648041Y12269900D01*
X21654448Y12237688D01*
X21654448Y11962312D01*
X21648041Y11930100D01*
X21640921Y11919445D01*
X21619875Y11852230D01*
X21640921Y11780555D01*
X21648041Y11769900D01*
X21654448Y11737688D01*
X21654448Y11462312D01*
X21651999Y11450000D01*
X21648041Y11430101D01*
X21636769Y11413231D01*
X21619899Y11401959D01*
X21600000Y11398001D01*
X21587688Y11395552D01*
X20932312Y11395552D01*
X20900101Y11401959D01*
X20883231Y11413231D01*
X20871959Y11430101D01*
X20865689Y11461622D01*
X20833042Y11524032D01*
X20771837Y11558884D01*
X20673646Y11541168D01*
X20661770Y11533233D01*
X20661769Y11533231D01*
X20644899Y11521959D01*
X20625000Y11518001D01*
X20612688Y11515552D01*
X19187312Y11515552D01*
X19175000Y11518001D01*
X19155101Y11521959D01*
X19138231Y11533231D01*
X19138230Y11533233D01*
X19126354Y11541168D01*
X19059139Y11562214D01*
X18991216Y11543580D01*
X18934311Y11461622D01*
X18931999Y11450000D01*
X18928041Y11430101D01*
X18916769Y11413231D01*
X18899899Y11401959D01*
X18880000Y11398001D01*
X18867688Y11395552D01*
X18212312Y11395552D01*
X18180101Y11401959D01*
X18163231Y11413231D01*
X18151959Y11430101D01*
X18145552Y11462312D01*
X18145552Y11737688D01*
X18151959Y11769900D01*
X18159079Y11780555D01*
X18180125Y11847770D01*
X18159079Y11919445D01*
X18151959Y11930100D01*
X18145552Y11962312D01*
X18145552Y12237688D01*
X18151959Y12269900D01*
X18159079Y12280555D01*
X18180125Y12347770D01*
X18159079Y12419445D01*
X18151959Y12430100D01*
X18145552Y12462312D01*
X18145552Y12737688D01*
X18151959Y12769900D01*
X18159079Y12780555D01*
X18180125Y12847770D01*
X18159079Y12919445D01*
X18151959Y12930100D01*
X18145552Y12962312D01*
X18145552Y13237688D01*
X18151959Y13269899D01*
X18163231Y13286769D01*
X18180101Y13298041D01*
X18212312Y13304448D01*
X18867688Y13304448D01*
X18899899Y13298041D01*
X18899899Y13298041D01*
G37*
G36*
X33636756Y16488236D02*
G01*
X33648228Y16482711D01*
X33656286Y16481205D01*
X33673543Y16470520D01*
X33718638Y16448803D01*
X33738738Y16430153D01*
X33751964Y16421964D01*
X33762264Y16408324D01*
X33785265Y16386983D01*
X33807617Y16348268D01*
X33819781Y16332160D01*
X33821750Y16323788D01*
X33829506Y16310354D01*
X33848419Y16210397D01*
X33851883Y16195669D01*
X33851883Y16192090D01*
X33853194Y16185161D01*
X33853194Y13212484D01*
X33838236Y13113244D01*
X33832711Y13101772D01*
X33831205Y13093714D01*
X33820520Y13076457D01*
X33798803Y13031362D01*
X33780153Y13011262D01*
X33771964Y12998036D01*
X33758324Y12987736D01*
X33736983Y12964735D01*
X33698268Y12942383D01*
X33682160Y12930219D01*
X33673788Y12928250D01*
X33660354Y12920494D01*
X33560397Y12901581D01*
X33545669Y12898117D01*
X33542090Y12898117D01*
X33535161Y12896806D01*
X32462484Y12896806D01*
X32363244Y12911764D01*
X32351772Y12917289D01*
X32343714Y12918795D01*
X32326457Y12929480D01*
X32281362Y12951197D01*
X32261262Y12969847D01*
X32248036Y12978036D01*
X32237736Y12991676D01*
X32214735Y13013017D01*
X32192383Y13051732D01*
X32180219Y13067840D01*
X32178250Y13076212D01*
X32170494Y13089646D01*
X32151581Y13189603D01*
X32148117Y13204331D01*
X32148117Y13207910D01*
X32146806Y13214839D01*
X32146806Y16187516D01*
X32161764Y16286756D01*
X32167289Y16298228D01*
X32168795Y16306286D01*
X32179480Y16323543D01*
X32201197Y16368638D01*
X32219847Y16388738D01*
X32228036Y16401964D01*
X32241676Y16412264D01*
X32263017Y16435265D01*
X32301732Y16457617D01*
X32317840Y16469781D01*
X32326212Y16471750D01*
X32339646Y16479506D01*
X32439603Y16498419D01*
X32454331Y16501883D01*
X32457910Y16501883D01*
X32464839Y16503194D01*
X33537516Y16503194D01*
X33636756Y16488236D01*
X33636756Y16488236D01*
G37*
G36*
X17419899Y16773041D02*
G01*
X17436769Y16761769D01*
X17448041Y16744899D01*
X17454448Y16712688D01*
X17454448Y15787312D01*
X17451999Y15775000D01*
X17448041Y15755101D01*
X17436769Y15738231D01*
X17419899Y15726959D01*
X17400000Y15723001D01*
X17387688Y15720552D01*
X16537312Y15720552D01*
X16505101Y15726959D01*
X16488231Y15738231D01*
X16476959Y15755101D01*
X16470552Y15787312D01*
X16470552Y16712688D01*
X16476959Y16744899D01*
X16488231Y16761769D01*
X16505101Y16773041D01*
X16537312Y16779448D01*
X17387688Y16779448D01*
X17419899Y16773041D01*
X17419899Y16773041D01*
G37*
G36*
X18994899Y16773041D02*
G01*
X19011769Y16761769D01*
X19023041Y16744899D01*
X19029448Y16712688D01*
X19029448Y15787312D01*
X19026999Y15775000D01*
X19023041Y15755101D01*
X19011769Y15738231D01*
X18994899Y15726959D01*
X18975000Y15723001D01*
X18962688Y15720552D01*
X18112312Y15720552D01*
X18080101Y15726959D01*
X18063231Y15738231D01*
X18051959Y15755101D01*
X18045552Y15787312D01*
X18045552Y16712688D01*
X18051959Y16744899D01*
X18063231Y16761769D01*
X18080101Y16773041D01*
X18112312Y16779448D01*
X18962688Y16779448D01*
X18994899Y16773041D01*
X18994899Y16773041D01*
G37*
G36*
X12169900Y19098041D02*
G01*
X12180555Y19090921D01*
X12247770Y19069875D01*
X12319445Y19090921D01*
X12330100Y19098041D01*
X12362312Y19104448D01*
X12637688Y19104448D01*
X12669900Y19098041D01*
X12680555Y19090921D01*
X12747770Y19069875D01*
X12819445Y19090921D01*
X12830100Y19098041D01*
X12862312Y19104448D01*
X13137688Y19104448D01*
X13169900Y19098041D01*
X13180555Y19090921D01*
X13247770Y19069875D01*
X13319445Y19090921D01*
X13330100Y19098041D01*
X13362312Y19104448D01*
X13637688Y19104448D01*
X13669900Y19098041D01*
X13680555Y19090921D01*
X13747770Y19069875D01*
X13819445Y19090921D01*
X13830100Y19098041D01*
X13862312Y19104448D01*
X14137688Y19104448D01*
X14169900Y19098041D01*
X14180555Y19090921D01*
X14247770Y19069875D01*
X14319445Y19090921D01*
X14330100Y19098041D01*
X14362312Y19104448D01*
X14637688Y19104448D01*
X14669900Y19098041D01*
X14680555Y19090921D01*
X14747770Y19069875D01*
X14819445Y19090921D01*
X14830100Y19098041D01*
X14862312Y19104448D01*
X15137688Y19104448D01*
X15169900Y19098041D01*
X15180555Y19090921D01*
X15247770Y19069875D01*
X15319445Y19090921D01*
X15330100Y19098041D01*
X15362312Y19104448D01*
X15637688Y19104448D01*
X15669900Y19098041D01*
X15680555Y19090921D01*
X15747770Y19069875D01*
X15819445Y19090921D01*
X15830100Y19098041D01*
X15862312Y19104448D01*
X16137688Y19104448D01*
X16169900Y19098041D01*
X16180555Y19090921D01*
X16247770Y19069875D01*
X16319445Y19090921D01*
X16330100Y19098041D01*
X16362312Y19104448D01*
X16637688Y19104448D01*
X16669900Y19098041D01*
X16680555Y19090921D01*
X16747770Y19069875D01*
X16819445Y19090921D01*
X16830100Y19098041D01*
X16862312Y19104448D01*
X17137688Y19104448D01*
X17169900Y19098041D01*
X17180555Y19090921D01*
X17247770Y19069875D01*
X17319445Y19090921D01*
X17330100Y19098041D01*
X17362312Y19104448D01*
X17637688Y19104448D01*
X17669899Y19098041D01*
X17686769Y19086769D01*
X17698041Y19069899D01*
X17704448Y19037688D01*
X17704448Y17562312D01*
X17701999Y17550000D01*
X17698041Y17530101D01*
X17686769Y17513231D01*
X17669899Y17501959D01*
X17650000Y17498001D01*
X17637688Y17495552D01*
X17362312Y17495552D01*
X17330100Y17501959D01*
X17319445Y17509079D01*
X17252230Y17530125D01*
X17180555Y17509079D01*
X17169900Y17501959D01*
X17137688Y17495552D01*
X16862312Y17495552D01*
X16830100Y17501959D01*
X16819445Y17509079D01*
X16752230Y17530125D01*
X16680555Y17509079D01*
X16669900Y17501959D01*
X16637688Y17495552D01*
X16362312Y17495552D01*
X16330100Y17501959D01*
X16319445Y17509079D01*
X16252230Y17530125D01*
X16180555Y17509079D01*
X16169900Y17501959D01*
X16137688Y17495552D01*
X15862312Y17495552D01*
X15830100Y17501959D01*
X15819445Y17509079D01*
X15752230Y17530125D01*
X15680555Y17509079D01*
X15669900Y17501959D01*
X15637688Y17495552D01*
X15362312Y17495552D01*
X15330100Y17501959D01*
X15319445Y17509079D01*
X15252230Y17530125D01*
X15180555Y17509079D01*
X15169900Y17501959D01*
X15137688Y17495552D01*
X14862312Y17495552D01*
X14830100Y17501959D01*
X14819445Y17509079D01*
X14752230Y17530125D01*
X14680555Y17509079D01*
X14669900Y17501959D01*
X14637688Y17495552D01*
X14362312Y17495552D01*
X14330100Y17501959D01*
X14319445Y17509079D01*
X14252230Y17530125D01*
X14180555Y17509079D01*
X14169900Y17501959D01*
X14137688Y17495552D01*
X13862312Y17495552D01*
X13830100Y17501959D01*
X13819445Y17509079D01*
X13752230Y17530125D01*
X13680555Y17509079D01*
X13669900Y17501959D01*
X13637688Y17495552D01*
X13362312Y17495552D01*
X13330100Y17501959D01*
X13319445Y17509079D01*
X13252230Y17530125D01*
X13180555Y17509079D01*
X13169900Y17501959D01*
X13137688Y17495552D01*
X12862312Y17495552D01*
X12830100Y17501959D01*
X12819445Y17509079D01*
X12752230Y17530125D01*
X12680555Y17509079D01*
X12669900Y17501959D01*
X12637688Y17495552D01*
X12362312Y17495552D01*
X12330100Y17501959D01*
X12319445Y17509079D01*
X12252230Y17530125D01*
X12180555Y17509079D01*
X12169900Y17501959D01*
X12137688Y17495552D01*
X11862312Y17495552D01*
X11830101Y17501959D01*
X11813231Y17513231D01*
X11801959Y17530101D01*
X11795552Y17562312D01*
X11795552Y19037688D01*
X11801959Y19069899D01*
X11813231Y19086769D01*
X11830101Y19098041D01*
X11862312Y19104448D01*
X12137688Y19104448D01*
X12169900Y19098041D01*
X12169900Y19098041D01*
G37*
G36*
X19719899Y19948041D02*
G01*
X19736769Y19936769D01*
X19748041Y19919899D01*
X19754448Y19887688D01*
X19754448Y19612312D01*
X19751999Y19600000D01*
X19748041Y19580101D01*
X19736769Y19563231D01*
X19719899Y19551959D01*
X19700000Y19548001D01*
X19687688Y19545552D01*
X18212312Y19545552D01*
X18180101Y19551959D01*
X18163231Y19563231D01*
X18151959Y19580101D01*
X18145552Y19612312D01*
X18145552Y19887688D01*
X18151959Y19919899D01*
X18163231Y19936769D01*
X18180101Y19948041D01*
X18212312Y19954448D01*
X19687688Y19954448D01*
X19719899Y19948041D01*
X19719899Y19948041D01*
G37*
G36*
X11319899Y19948041D02*
G01*
X11336769Y19936769D01*
X11348041Y19919899D01*
X11354448Y19887688D01*
X11354448Y19612312D01*
X11351999Y19600000D01*
X11348041Y19580101D01*
X11336769Y19563231D01*
X11319899Y19551959D01*
X11300000Y19548001D01*
X11287688Y19545552D01*
X9812312Y19545552D01*
X9780101Y19551959D01*
X9763231Y19563231D01*
X9751959Y19580101D01*
X9745552Y19612312D01*
X9745552Y19887688D01*
X9751959Y19919899D01*
X9763231Y19936769D01*
X9780101Y19948041D01*
X9812312Y19954448D01*
X11287688Y19954448D01*
X11319899Y19948041D01*
X11319899Y19948041D01*
G37*
G36*
X17319899Y25098041D02*
G01*
X17336769Y25086769D01*
X17348041Y25069899D01*
X17354448Y25037688D01*
X17354448Y19962312D01*
X17351999Y19950000D01*
X17348041Y19930101D01*
X17336769Y19913231D01*
X17319899Y19901959D01*
X17300000Y19898001D01*
X17287688Y19895552D01*
X12212312Y19895552D01*
X12180101Y19901959D01*
X12163231Y19913231D01*
X12151959Y19930101D01*
X12145552Y19962312D01*
X12145552Y25037688D01*
X12151959Y25069899D01*
X12163231Y25086769D01*
X12180101Y25098041D01*
X12212312Y25104448D01*
X17287688Y25104448D01*
X17319899Y25098041D01*
X17319899Y25098041D01*
G37*
G36*
X11319899Y20948041D02*
G01*
X11336769Y20936769D01*
X11348041Y20919899D01*
X11354448Y20887688D01*
X11354448Y20612312D01*
X11351999Y20600000D01*
X11348041Y20580101D01*
X11336769Y20563231D01*
X11319899Y20551959D01*
X11300000Y20548001D01*
X11287688Y20545552D01*
X9812312Y20545552D01*
X9780101Y20551959D01*
X9763231Y20563231D01*
X9751959Y20580101D01*
X9745552Y20612312D01*
X9745552Y20887688D01*
X9751959Y20919899D01*
X9763231Y20936769D01*
X9780101Y20948041D01*
X9812312Y20954448D01*
X11287688Y20954448D01*
X11319899Y20948041D01*
X11319899Y20948041D01*
G37*
G36*
X19719899Y20948041D02*
G01*
X19736769Y20936769D01*
X19748041Y20919899D01*
X19754448Y20887688D01*
X19754448Y20612312D01*
X19751999Y20600000D01*
X19748041Y20580101D01*
X19736769Y20563231D01*
X19719899Y20551959D01*
X19700000Y20548001D01*
X19687688Y20545552D01*
X18212312Y20545552D01*
X18180101Y20551959D01*
X18163231Y20563231D01*
X18151959Y20580101D01*
X18145552Y20612312D01*
X18145552Y20887688D01*
X18151959Y20919899D01*
X18163231Y20936769D01*
X18180101Y20948041D01*
X18212312Y20954448D01*
X19687688Y20954448D01*
X19719899Y20948041D01*
X19719899Y20948041D01*
G37*
G36*
X29950000Y22301999D02*
G01*
X29969899Y22298041D01*
X29986769Y22286769D01*
X29993375Y22276883D01*
X29996067Y22272853D01*
X30050111Y22227686D01*
X30119994Y22218908D01*
X30203933Y22272853D01*
X30206626Y22276883D01*
X30213231Y22286769D01*
X30230101Y22298041D01*
X30250000Y22301999D01*
X30262312Y22304448D01*
X31237688Y22304448D01*
X31250000Y22301999D01*
X31269899Y22298041D01*
X31286769Y22286769D01*
X31293375Y22276883D01*
X31296067Y22272853D01*
X31350111Y22227686D01*
X31419994Y22218908D01*
X31503933Y22272853D01*
X31506626Y22276883D01*
X31513231Y22286769D01*
X31530101Y22298041D01*
X31550000Y22301999D01*
X31562312Y22304448D01*
X32537688Y22304448D01*
X32569899Y22298041D01*
X32586769Y22286769D01*
X32598041Y22269899D01*
X32604448Y22237688D01*
X32604448Y20762312D01*
X32601999Y20750000D01*
X32598041Y20730101D01*
X32586769Y20713231D01*
X32569899Y20701959D01*
X32550000Y20698001D01*
X32537688Y20695552D01*
X31562312Y20695552D01*
X31530101Y20701959D01*
X31513231Y20713231D01*
X31503933Y20727147D01*
X31449889Y20772314D01*
X31380006Y20781092D01*
X31296067Y20727147D01*
X31286769Y20713231D01*
X31269899Y20701959D01*
X31250000Y20698001D01*
X31237688Y20695552D01*
X30262312Y20695552D01*
X30230101Y20701959D01*
X30213231Y20713231D01*
X30203933Y20727147D01*
X30149889Y20772314D01*
X30080006Y20781092D01*
X29996067Y20727147D01*
X29986769Y20713231D01*
X29969899Y20701959D01*
X29950000Y20698001D01*
X29937688Y20695552D01*
X28962312Y20695552D01*
X28930101Y20701959D01*
X28913231Y20713231D01*
X28901959Y20730101D01*
X28895552Y20762312D01*
X28895552Y22237688D01*
X28901959Y22269899D01*
X28913231Y22286769D01*
X28930101Y22298041D01*
X28962312Y22304448D01*
X29937688Y22304448D01*
X29950000Y22301999D01*
X29950000Y22301999D01*
G37*
G36*
X24211756Y22263236D02*
G01*
X24223228Y22257711D01*
X24231286Y22256205D01*
X24248543Y22245520D01*
X24293638Y22223803D01*
X24313738Y22205153D01*
X24326964Y22196964D01*
X24337264Y22183324D01*
X24360265Y22161983D01*
X24382617Y22123268D01*
X24394781Y22107160D01*
X24396750Y22098788D01*
X24404506Y22085354D01*
X24423419Y21985397D01*
X24426883Y21970669D01*
X24426883Y21967090D01*
X24428194Y21960161D01*
X24428194Y21237484D01*
X24413236Y21138244D01*
X24407711Y21126772D01*
X24406205Y21118714D01*
X24395520Y21101457D01*
X24373803Y21056362D01*
X24355153Y21036262D01*
X24346964Y21023036D01*
X24333324Y21012736D01*
X24311983Y20989735D01*
X24273268Y20967383D01*
X24257160Y20955219D01*
X24248788Y20953250D01*
X24235354Y20945494D01*
X24135397Y20926581D01*
X24120669Y20923117D01*
X24117090Y20923117D01*
X24110161Y20921806D01*
X22887484Y20921806D01*
X22788244Y20936764D01*
X22776772Y20942289D01*
X22768714Y20943795D01*
X22751457Y20954480D01*
X22706362Y20976197D01*
X22686262Y20994847D01*
X22673036Y21003036D01*
X22662736Y21016676D01*
X22639735Y21038017D01*
X22617383Y21076732D01*
X22605219Y21092840D01*
X22603250Y21101212D01*
X22595494Y21114646D01*
X22576581Y21214603D01*
X22573117Y21229331D01*
X22573117Y21232910D01*
X22571806Y21239839D01*
X22571806Y21962516D01*
X22586764Y22061756D01*
X22592289Y22073228D01*
X22593795Y22081286D01*
X22604480Y22098543D01*
X22626197Y22143638D01*
X22644847Y22163738D01*
X22653036Y22176964D01*
X22666676Y22187264D01*
X22688017Y22210265D01*
X22726732Y22232617D01*
X22742840Y22244781D01*
X22751212Y22246750D01*
X22764646Y22254506D01*
X22864603Y22273419D01*
X22879331Y22276883D01*
X22882910Y22276883D01*
X22889839Y22278194D01*
X24112516Y22278194D01*
X24211756Y22263236D01*
X24211756Y22263236D01*
G37*
G36*
X6261756Y22513236D02*
G01*
X6273228Y22507711D01*
X6281286Y22506205D01*
X6298543Y22495520D01*
X6343638Y22473803D01*
X6363738Y22455153D01*
X6376964Y22446964D01*
X6387264Y22433324D01*
X6410265Y22411983D01*
X6432617Y22373268D01*
X6444781Y22357160D01*
X6446750Y22348788D01*
X6454506Y22335354D01*
X6473419Y22235397D01*
X6476883Y22220669D01*
X6476883Y22217090D01*
X6478194Y22210161D01*
X6478194Y21487484D01*
X6463236Y21388244D01*
X6457711Y21376772D01*
X6456205Y21368714D01*
X6445520Y21351457D01*
X6423803Y21306362D01*
X6405153Y21286262D01*
X6396964Y21273036D01*
X6383324Y21262736D01*
X6361983Y21239735D01*
X6323268Y21217383D01*
X6307160Y21205219D01*
X6298788Y21203250D01*
X6285354Y21195494D01*
X6185397Y21176581D01*
X6170669Y21173117D01*
X6167090Y21173117D01*
X6160161Y21171806D01*
X4937484Y21171806D01*
X4838244Y21186764D01*
X4826772Y21192289D01*
X4818714Y21193795D01*
X4801457Y21204480D01*
X4756362Y21226197D01*
X4736262Y21244847D01*
X4723036Y21253036D01*
X4712736Y21266676D01*
X4689735Y21288017D01*
X4667383Y21326732D01*
X4655219Y21342840D01*
X4653250Y21351212D01*
X4645494Y21364646D01*
X4626581Y21464603D01*
X4623117Y21479331D01*
X4623117Y21482910D01*
X4621806Y21489839D01*
X4621806Y22212516D01*
X4636764Y22311756D01*
X4642289Y22323228D01*
X4643795Y22331286D01*
X4654480Y22348543D01*
X4676197Y22393638D01*
X4694847Y22413738D01*
X4703036Y22426964D01*
X4716676Y22437264D01*
X4738017Y22460265D01*
X4776732Y22482617D01*
X4792840Y22494781D01*
X4801212Y22496750D01*
X4814646Y22504506D01*
X4914603Y22523419D01*
X4929331Y22526883D01*
X4932910Y22526883D01*
X4939839Y22528194D01*
X6162516Y22528194D01*
X6261756Y22513236D01*
X6261756Y22513236D01*
G37*
G36*
X26039899Y21958041D02*
G01*
X26056769Y21946769D01*
X26068041Y21929899D01*
X26074448Y21897688D01*
X26074448Y21332312D01*
X26071999Y21320000D01*
X26068041Y21300101D01*
X26056769Y21283231D01*
X26039899Y21271959D01*
X26020000Y21268001D01*
X26007688Y21265552D01*
X25392312Y21265552D01*
X25360101Y21271959D01*
X25343231Y21283231D01*
X25331959Y21300101D01*
X25325552Y21332312D01*
X25325552Y21897688D01*
X25331959Y21929899D01*
X25343231Y21946769D01*
X25360101Y21958041D01*
X25392312Y21964448D01*
X26007688Y21964448D01*
X26039899Y21958041D01*
X26039899Y21958041D01*
G37*
G36*
X3739899Y22173041D02*
G01*
X3756769Y22161769D01*
X3768041Y22144899D01*
X3774448Y22112688D01*
X3774448Y21547312D01*
X3771999Y21535000D01*
X3768041Y21515101D01*
X3756769Y21498231D01*
X3739899Y21486959D01*
X3720000Y21483001D01*
X3707688Y21480552D01*
X3092312Y21480552D01*
X3060101Y21486959D01*
X3043231Y21498231D01*
X3031959Y21515101D01*
X3025552Y21547312D01*
X3025552Y22112688D01*
X3031959Y22144899D01*
X3043231Y22161769D01*
X3060101Y22173041D01*
X3092312Y22179448D01*
X3707688Y22179448D01*
X3739899Y22173041D01*
X3739899Y22173041D01*
G37*
G36*
X11319899Y21948041D02*
G01*
X11336769Y21936769D01*
X11348041Y21919899D01*
X11354448Y21887688D01*
X11354448Y21612312D01*
X11351999Y21600000D01*
X11348041Y21580101D01*
X11336769Y21563231D01*
X11319899Y21551959D01*
X11300000Y21548001D01*
X11287688Y21545552D01*
X9812312Y21545552D01*
X9780101Y21551959D01*
X9763231Y21563231D01*
X9751959Y21580101D01*
X9745552Y21612312D01*
X9745552Y21887688D01*
X9751959Y21919899D01*
X9763231Y21936769D01*
X9780101Y21948041D01*
X9812312Y21954448D01*
X11287688Y21954448D01*
X11319899Y21948041D01*
X11319899Y21948041D01*
G37*
G36*
X19719899Y21948041D02*
G01*
X19736769Y21936769D01*
X19748041Y21919899D01*
X19754448Y21887688D01*
X19754448Y21612312D01*
X19751999Y21600000D01*
X19748041Y21580101D01*
X19736769Y21563231D01*
X19719899Y21551959D01*
X19700000Y21548001D01*
X19687688Y21545552D01*
X18212312Y21545552D01*
X18180101Y21551959D01*
X18163231Y21563231D01*
X18151959Y21580101D01*
X18145552Y21612312D01*
X18145552Y21887688D01*
X18151959Y21919899D01*
X18163231Y21936769D01*
X18180101Y21948041D01*
X18212312Y21954448D01*
X19687688Y21954448D01*
X19719899Y21948041D01*
X19719899Y21948041D01*
G37*
G36*
X26039899Y22928041D02*
G01*
X26056769Y22916769D01*
X26068041Y22899899D01*
X26074448Y22867688D01*
X26074448Y22302312D01*
X26071999Y22290000D01*
X26068041Y22270101D01*
X26056769Y22253231D01*
X26039899Y22241959D01*
X26020000Y22238001D01*
X26007688Y22235552D01*
X25392312Y22235552D01*
X25360101Y22241959D01*
X25343231Y22253231D01*
X25331959Y22270101D01*
X25325552Y22302312D01*
X25325552Y22867688D01*
X25331959Y22899899D01*
X25343231Y22916769D01*
X25360101Y22928041D01*
X25392312Y22934448D01*
X26007688Y22934448D01*
X26039899Y22928041D01*
X26039899Y22928041D01*
G37*
G36*
X3739899Y23143041D02*
G01*
X3756769Y23131769D01*
X3768041Y23114899D01*
X3774448Y23082688D01*
X3774448Y22517312D01*
X3771999Y22505000D01*
X3768041Y22485101D01*
X3756769Y22468231D01*
X3739899Y22456959D01*
X3720000Y22453001D01*
X3707688Y22450552D01*
X3092312Y22450552D01*
X3060101Y22456959D01*
X3043231Y22468231D01*
X3031959Y22485101D01*
X3025552Y22517312D01*
X3025552Y23082688D01*
X3031959Y23114899D01*
X3043231Y23131769D01*
X3060101Y23143041D01*
X3092312Y23149448D01*
X3707688Y23149448D01*
X3739899Y23143041D01*
X3739899Y23143041D01*
G37*
G36*
X19719899Y22948041D02*
G01*
X19736769Y22936769D01*
X19748041Y22919899D01*
X19754448Y22887688D01*
X19754448Y22612312D01*
X19751999Y22600000D01*
X19748041Y22580101D01*
X19736769Y22563231D01*
X19719899Y22551959D01*
X19700000Y22548001D01*
X19687688Y22545552D01*
X18212312Y22545552D01*
X18180101Y22551959D01*
X18163231Y22563231D01*
X18151959Y22580101D01*
X18145552Y22612312D01*
X18145552Y22887688D01*
X18151959Y22919899D01*
X18163231Y22936769D01*
X18180101Y22948041D01*
X18212312Y22954448D01*
X19687688Y22954448D01*
X19719899Y22948041D01*
X19719899Y22948041D01*
G37*
G36*
X11319899Y22948041D02*
G01*
X11336769Y22936769D01*
X11348041Y22919899D01*
X11354448Y22887688D01*
X11354448Y22612312D01*
X11351999Y22600000D01*
X11348041Y22580101D01*
X11336769Y22563231D01*
X11319899Y22551959D01*
X11300000Y22548001D01*
X11287688Y22545552D01*
X9812312Y22545552D01*
X9780101Y22551959D01*
X9763231Y22563231D01*
X9751959Y22580101D01*
X9745552Y22612312D01*
X9745552Y22887688D01*
X9751959Y22919899D01*
X9763231Y22936769D01*
X9780101Y22948041D01*
X9812312Y22954448D01*
X11287688Y22954448D01*
X11319899Y22948041D01*
X11319899Y22948041D01*
G37*
G36*
X11319899Y25448041D02*
G01*
X11336769Y25436769D01*
X11348041Y25419899D01*
X11354448Y25387688D01*
X11354448Y25112312D01*
X11348041Y25080100D01*
X11340921Y25069445D01*
X11319875Y25002230D01*
X11340921Y24930555D01*
X11348041Y24919900D01*
X11354448Y24887688D01*
X11354448Y24612312D01*
X11348041Y24580100D01*
X11340921Y24569445D01*
X11319875Y24502230D01*
X11340921Y24430555D01*
X11348041Y24419900D01*
X11354448Y24387688D01*
X11354448Y24112312D01*
X11348041Y24080100D01*
X11340921Y24069445D01*
X11319875Y24002230D01*
X11340921Y23930555D01*
X11348041Y23919900D01*
X11354448Y23887688D01*
X11354448Y23612312D01*
X11351999Y23600000D01*
X11348041Y23580101D01*
X11336769Y23563231D01*
X11319899Y23551959D01*
X11300000Y23548001D01*
X11287688Y23545552D01*
X9812312Y23545552D01*
X9780101Y23551959D01*
X9763231Y23563231D01*
X9751959Y23580101D01*
X9745552Y23612312D01*
X9745552Y23887688D01*
X9751959Y23919900D01*
X9759079Y23930555D01*
X9780125Y23997770D01*
X9759079Y24069445D01*
X9751959Y24080100D01*
X9745552Y24112312D01*
X9745552Y24387688D01*
X9751959Y24419900D01*
X9759079Y24430555D01*
X9780125Y24497770D01*
X9759079Y24569445D01*
X9751959Y24580100D01*
X9745552Y24612312D01*
X9745552Y24887688D01*
X9751959Y24919900D01*
X9759079Y24930555D01*
X9780125Y24997770D01*
X9759079Y25069445D01*
X9751959Y25080100D01*
X9745552Y25112312D01*
X9745552Y25387688D01*
X9751959Y25419899D01*
X9763231Y25436769D01*
X9780101Y25448041D01*
X9812312Y25454448D01*
X11287688Y25454448D01*
X11319899Y25448041D01*
X11319899Y25448041D01*
G37*
G36*
X19719899Y23948041D02*
G01*
X19736769Y23936769D01*
X19748041Y23919899D01*
X19754448Y23887688D01*
X19754448Y23612312D01*
X19751999Y23600000D01*
X19748041Y23580101D01*
X19736769Y23563231D01*
X19719899Y23551959D01*
X19700000Y23548001D01*
X19687688Y23545552D01*
X18212312Y23545552D01*
X18180101Y23551959D01*
X18163231Y23563231D01*
X18151959Y23580101D01*
X18145552Y23612312D01*
X18145552Y23887688D01*
X18151959Y23919899D01*
X18163231Y23936769D01*
X18180101Y23948041D01*
X18212312Y23954448D01*
X19687688Y23954448D01*
X19719899Y23948041D01*
X19719899Y23948041D01*
G37*
G36*
X24211756Y25063236D02*
G01*
X24223228Y25057711D01*
X24231286Y25056205D01*
X24248543Y25045520D01*
X24293638Y25023803D01*
X24313738Y25005153D01*
X24326964Y24996964D01*
X24337264Y24983324D01*
X24360265Y24961983D01*
X24382617Y24923268D01*
X24394781Y24907160D01*
X24396750Y24898788D01*
X24404506Y24885354D01*
X24423419Y24785397D01*
X24426883Y24770669D01*
X24426883Y24767090D01*
X24428194Y24760161D01*
X24428194Y24037484D01*
X24413236Y23938244D01*
X24407711Y23926772D01*
X24406205Y23918714D01*
X24395520Y23901457D01*
X24373803Y23856362D01*
X24355153Y23836262D01*
X24346964Y23823036D01*
X24333324Y23812736D01*
X24311983Y23789735D01*
X24273268Y23767383D01*
X24257160Y23755219D01*
X24248788Y23753250D01*
X24235354Y23745494D01*
X24135397Y23726581D01*
X24120669Y23723117D01*
X24117090Y23723117D01*
X24110161Y23721806D01*
X22887484Y23721806D01*
X22788244Y23736764D01*
X22776772Y23742289D01*
X22768714Y23743795D01*
X22751457Y23754480D01*
X22706362Y23776197D01*
X22686262Y23794847D01*
X22673036Y23803036D01*
X22662736Y23816676D01*
X22639735Y23838017D01*
X22617383Y23876732D01*
X22605219Y23892840D01*
X22603250Y23901212D01*
X22595494Y23914646D01*
X22576581Y24014603D01*
X22573117Y24029331D01*
X22573117Y24032910D01*
X22571806Y24039839D01*
X22571806Y24762516D01*
X22586764Y24861756D01*
X22592289Y24873228D01*
X22593795Y24881286D01*
X22604480Y24898543D01*
X22626197Y24943638D01*
X22644847Y24963738D01*
X22653036Y24976964D01*
X22666676Y24987264D01*
X22688017Y25010265D01*
X22726732Y25032617D01*
X22742840Y25044781D01*
X22751212Y25046750D01*
X22764646Y25054506D01*
X22864603Y25073419D01*
X22879331Y25076883D01*
X22882910Y25076883D01*
X22889839Y25078194D01*
X24112516Y25078194D01*
X24211756Y25063236D01*
X24211756Y25063236D01*
G37*
G36*
X9339899Y24458041D02*
G01*
X9356769Y24446769D01*
X9368041Y24429899D01*
X9374448Y24397688D01*
X9374448Y23832312D01*
X9371999Y23820000D01*
X9368041Y23800101D01*
X9356769Y23783231D01*
X9339899Y23771959D01*
X9320000Y23768001D01*
X9307688Y23765552D01*
X8692312Y23765552D01*
X8660101Y23771959D01*
X8643231Y23783231D01*
X8631959Y23800101D01*
X8625552Y23832312D01*
X8625552Y24397688D01*
X8631959Y24429899D01*
X8643231Y24446769D01*
X8660101Y24458041D01*
X8692312Y24464448D01*
X9307688Y24464448D01*
X9339899Y24458041D01*
X9339899Y24458041D01*
G37*
G36*
X6261756Y25313236D02*
G01*
X6273228Y25307711D01*
X6281286Y25306205D01*
X6298543Y25295520D01*
X6343638Y25273803D01*
X6363738Y25255153D01*
X6376964Y25246964D01*
X6387264Y25233324D01*
X6410265Y25211983D01*
X6432617Y25173268D01*
X6444781Y25157160D01*
X6446750Y25148788D01*
X6454506Y25135354D01*
X6473419Y25035397D01*
X6476883Y25020669D01*
X6476883Y25017090D01*
X6478194Y25010161D01*
X6478194Y24287484D01*
X6463236Y24188244D01*
X6457711Y24176772D01*
X6456205Y24168714D01*
X6445520Y24151457D01*
X6423803Y24106362D01*
X6405153Y24086262D01*
X6396964Y24073036D01*
X6383324Y24062736D01*
X6361983Y24039735D01*
X6323268Y24017383D01*
X6307160Y24005219D01*
X6298788Y24003250D01*
X6285354Y23995494D01*
X6185397Y23976581D01*
X6170669Y23973117D01*
X6167090Y23973117D01*
X6160161Y23971806D01*
X4937484Y23971806D01*
X4838244Y23986764D01*
X4826772Y23992289D01*
X4818714Y23993795D01*
X4801457Y24004480D01*
X4756362Y24026197D01*
X4736262Y24044847D01*
X4723036Y24053036D01*
X4712736Y24066676D01*
X4689735Y24088017D01*
X4667383Y24126732D01*
X4655219Y24142840D01*
X4653250Y24151212D01*
X4645494Y24164646D01*
X4626581Y24264603D01*
X4623117Y24279331D01*
X4623117Y24282910D01*
X4621806Y24289839D01*
X4621806Y25012516D01*
X4636764Y25111756D01*
X4642289Y25123228D01*
X4643795Y25131286D01*
X4654480Y25148543D01*
X4676197Y25193638D01*
X4694847Y25213738D01*
X4703036Y25226964D01*
X4716676Y25237264D01*
X4738017Y25260265D01*
X4776732Y25282617D01*
X4792840Y25294781D01*
X4801212Y25296750D01*
X4814646Y25304506D01*
X4914603Y25323419D01*
X4929331Y25326883D01*
X4932910Y25326883D01*
X4939839Y25328194D01*
X6162516Y25328194D01*
X6261756Y25313236D01*
X6261756Y25313236D01*
G37*
G36*
X19719899Y25448041D02*
G01*
X19736769Y25436769D01*
X19748041Y25419899D01*
X19754448Y25387688D01*
X19754448Y25112312D01*
X19748041Y25080100D01*
X19740921Y25069445D01*
X19719875Y25002230D01*
X19740921Y24930555D01*
X19748041Y24919900D01*
X19754448Y24887688D01*
X19754448Y24612312D01*
X19751999Y24600000D01*
X19748041Y24580101D01*
X19736769Y24563231D01*
X19719899Y24551959D01*
X19700000Y24548001D01*
X19687688Y24545552D01*
X18212312Y24545552D01*
X18180101Y24551959D01*
X18163231Y24563231D01*
X18151959Y24580101D01*
X18145552Y24612312D01*
X18145552Y24887688D01*
X18151959Y24919900D01*
X18159079Y24930555D01*
X18180125Y24997770D01*
X18159079Y25069445D01*
X18151959Y25080100D01*
X18145552Y25112312D01*
X18145552Y25387688D01*
X18151959Y25419899D01*
X18163231Y25436769D01*
X18180101Y25448041D01*
X18212312Y25454448D01*
X19687688Y25454448D01*
X19719899Y25448041D01*
X19719899Y25448041D01*
G37*
G36*
X9339899Y25428041D02*
G01*
X9356769Y25416769D01*
X9368041Y25399899D01*
X9374448Y25367688D01*
X9374448Y24802312D01*
X9371999Y24790000D01*
X9368041Y24770101D01*
X9356769Y24753231D01*
X9339899Y24741959D01*
X9320000Y24738001D01*
X9307688Y24735552D01*
X8692312Y24735552D01*
X8660101Y24741959D01*
X8643231Y24753231D01*
X8631959Y24770101D01*
X8625552Y24802312D01*
X8625552Y25367688D01*
X8631959Y25399899D01*
X8643231Y25416769D01*
X8660101Y25428041D01*
X8692312Y25434448D01*
X9307688Y25434448D01*
X9339899Y25428041D01*
X9339899Y25428041D01*
G37*
G36*
X12169900Y27498041D02*
G01*
X12180555Y27490921D01*
X12247770Y27469875D01*
X12319445Y27490921D01*
X12330100Y27498041D01*
X12362312Y27504448D01*
X12637688Y27504448D01*
X12669900Y27498041D01*
X12680555Y27490921D01*
X12747770Y27469875D01*
X12819445Y27490921D01*
X12830100Y27498041D01*
X12862312Y27504448D01*
X13137688Y27504448D01*
X13169900Y27498041D01*
X13180555Y27490921D01*
X13247770Y27469875D01*
X13319445Y27490921D01*
X13330100Y27498041D01*
X13362312Y27504448D01*
X13637688Y27504448D01*
X13669900Y27498041D01*
X13680555Y27490921D01*
X13747770Y27469875D01*
X13819445Y27490921D01*
X13830100Y27498041D01*
X13862312Y27504448D01*
X14137688Y27504448D01*
X14169900Y27498041D01*
X14180555Y27490921D01*
X14247770Y27469875D01*
X14319445Y27490921D01*
X14330100Y27498041D01*
X14362312Y27504448D01*
X14637688Y27504448D01*
X14669900Y27498041D01*
X14680555Y27490921D01*
X14747770Y27469875D01*
X14819445Y27490921D01*
X14830100Y27498041D01*
X14862312Y27504448D01*
X15137688Y27504448D01*
X15169900Y27498041D01*
X15180555Y27490921D01*
X15247770Y27469875D01*
X15319445Y27490921D01*
X15330100Y27498041D01*
X15362312Y27504448D01*
X15637688Y27504448D01*
X15669900Y27498041D01*
X15680555Y27490921D01*
X15747770Y27469875D01*
X15819445Y27490921D01*
X15830100Y27498041D01*
X15862312Y27504448D01*
X16137688Y27504448D01*
X16169900Y27498041D01*
X16180555Y27490921D01*
X16247770Y27469875D01*
X16319445Y27490921D01*
X16330100Y27498041D01*
X16362312Y27504448D01*
X16637688Y27504448D01*
X16669900Y27498041D01*
X16680555Y27490921D01*
X16747770Y27469875D01*
X16819445Y27490921D01*
X16830100Y27498041D01*
X16862312Y27504448D01*
X17137688Y27504448D01*
X17169900Y27498041D01*
X17180555Y27490921D01*
X17247770Y27469875D01*
X17319445Y27490921D01*
X17330100Y27498041D01*
X17362312Y27504448D01*
X17637688Y27504448D01*
X17669899Y27498041D01*
X17686769Y27486769D01*
X17698041Y27469899D01*
X17704448Y27437688D01*
X17704448Y25962312D01*
X17701999Y25950000D01*
X17698041Y25930101D01*
X17686769Y25913231D01*
X17669899Y25901959D01*
X17650000Y25898001D01*
X17637688Y25895552D01*
X17362312Y25895552D01*
X17330100Y25901959D01*
X17319445Y25909079D01*
X17252230Y25930125D01*
X17180555Y25909079D01*
X17169900Y25901959D01*
X17137688Y25895552D01*
X16862312Y25895552D01*
X16830100Y25901959D01*
X16819445Y25909079D01*
X16752230Y25930125D01*
X16680555Y25909079D01*
X16669900Y25901959D01*
X16637688Y25895552D01*
X16362312Y25895552D01*
X16330100Y25901959D01*
X16319445Y25909079D01*
X16252230Y25930125D01*
X16180555Y25909079D01*
X16169900Y25901959D01*
X16137688Y25895552D01*
X15862312Y25895552D01*
X15830100Y25901959D01*
X15819445Y25909079D01*
X15752230Y25930125D01*
X15680555Y25909079D01*
X15669900Y25901959D01*
X15637688Y25895552D01*
X15362312Y25895552D01*
X15330100Y25901959D01*
X15319445Y25909079D01*
X15252230Y25930125D01*
X15180555Y25909079D01*
X15169900Y25901959D01*
X15137688Y25895552D01*
X14862312Y25895552D01*
X14830100Y25901959D01*
X14819445Y25909079D01*
X14752230Y25930125D01*
X14680555Y25909079D01*
X14669900Y25901959D01*
X14637688Y25895552D01*
X14362312Y25895552D01*
X14330100Y25901959D01*
X14319445Y25909079D01*
X14252230Y25930125D01*
X14180555Y25909079D01*
X14169900Y25901959D01*
X14137688Y25895552D01*
X13862312Y25895552D01*
X13830100Y25901959D01*
X13819445Y25909079D01*
X13752230Y25930125D01*
X13680555Y25909079D01*
X13669900Y25901959D01*
X13637688Y25895552D01*
X13362312Y25895552D01*
X13330100Y25901959D01*
X13319445Y25909079D01*
X13252230Y25930125D01*
X13180555Y25909079D01*
X13169900Y25901959D01*
X13137688Y25895552D01*
X12862312Y25895552D01*
X12830100Y25901959D01*
X12819445Y25909079D01*
X12752230Y25930125D01*
X12680555Y25909079D01*
X12669900Y25901959D01*
X12637688Y25895552D01*
X12362312Y25895552D01*
X12330100Y25901959D01*
X12319445Y25909079D01*
X12252230Y25930125D01*
X12180555Y25909079D01*
X12169900Y25901959D01*
X12137688Y25895552D01*
X11862312Y25895552D01*
X11830101Y25901959D01*
X11813231Y25913231D01*
X11801959Y25930101D01*
X11795552Y25962312D01*
X11795552Y27437688D01*
X11801959Y27469899D01*
X11813231Y27486769D01*
X11830101Y27498041D01*
X11862312Y27504448D01*
X12137688Y27504448D01*
X12169900Y27498041D01*
X12169900Y27498041D01*
G37*
G36*
X32019899Y28448041D02*
G01*
X32036769Y28436769D01*
X32048041Y28419899D01*
X32054448Y28387688D01*
X32054448Y26612312D01*
X32051999Y26600000D01*
X32048041Y26580101D01*
X32036769Y26563231D01*
X32019899Y26551959D01*
X32000000Y26548001D01*
X31987688Y26545552D01*
X29512312Y26545552D01*
X29480101Y26551959D01*
X29463231Y26563231D01*
X29451959Y26580101D01*
X29445552Y26612312D01*
X29445552Y28387688D01*
X29451959Y28419899D01*
X29463231Y28436769D01*
X29480101Y28448041D01*
X29512312Y28454448D01*
X31987688Y28454448D01*
X32019899Y28448041D01*
X32019899Y28448041D01*
G37*
G36*
X36019899Y28448041D02*
G01*
X36036769Y28436769D01*
X36048041Y28419899D01*
X36054448Y28387688D01*
X36054448Y26612312D01*
X36051999Y26600000D01*
X36048041Y26580101D01*
X36036769Y26563231D01*
X36019899Y26551959D01*
X36000000Y26548001D01*
X35987688Y26545552D01*
X33512312Y26545552D01*
X33480101Y26551959D01*
X33463231Y26563231D01*
X33451959Y26580101D01*
X33445552Y26612312D01*
X33445552Y28387688D01*
X33451959Y28419899D01*
X33463231Y28436769D01*
X33480101Y28448041D01*
X33512312Y28454448D01*
X35987688Y28454448D01*
X36019899Y28448041D01*
X36019899Y28448041D01*
G37*
G36*
X12244899Y29123041D02*
G01*
X12261769Y29111769D01*
X12273041Y29094899D01*
X12279448Y29062688D01*
X12279448Y28137312D01*
X12276999Y28125000D01*
X12273041Y28105101D01*
X12261769Y28088231D01*
X12244899Y28076959D01*
X12225000Y28073001D01*
X12212688Y28070552D01*
X11362312Y28070552D01*
X11330101Y28076959D01*
X11313231Y28088231D01*
X11301959Y28105101D01*
X11295552Y28137312D01*
X11295552Y29062688D01*
X11301959Y29094899D01*
X11313231Y29111769D01*
X11330101Y29123041D01*
X11362312Y29129448D01*
X12212688Y29129448D01*
X12244899Y29123041D01*
X12244899Y29123041D01*
G37*
G36*
X10669899Y29123041D02*
G01*
X10686769Y29111769D01*
X10698041Y29094899D01*
X10704448Y29062688D01*
X10704448Y28137312D01*
X10701999Y28125000D01*
X10698041Y28105101D01*
X10686769Y28088231D01*
X10669899Y28076959D01*
X10650000Y28073001D01*
X10637688Y28070552D01*
X9787312Y28070552D01*
X9755101Y28076959D01*
X9738231Y28088231D01*
X9726959Y28105101D01*
X9720552Y28137312D01*
X9720552Y29062688D01*
X9726959Y29094899D01*
X9738231Y29111769D01*
X9755101Y29123041D01*
X9787312Y29129448D01*
X10637688Y29129448D01*
X10669899Y29123041D01*
X10669899Y29123041D01*
G37*
G36*
X25044899Y30323041D02*
G01*
X25061769Y30311769D01*
X25073041Y30294899D01*
X25079448Y30262688D01*
X25079448Y28537312D01*
X25076999Y28525000D01*
X25073041Y28505101D01*
X25061769Y28488231D01*
X25044899Y28476959D01*
X25025000Y28473001D01*
X25012688Y28470552D01*
X23787312Y28470552D01*
X23755101Y28476959D01*
X23738231Y28488231D01*
X23726959Y28505101D01*
X23720552Y28537312D01*
X23720552Y30262688D01*
X23726959Y30294899D01*
X23738231Y30311769D01*
X23755101Y30323041D01*
X23787312Y30329448D01*
X25012688Y30329448D01*
X25044899Y30323041D01*
X25044899Y30323041D01*
G37*
G36*
X27844899Y30323041D02*
G01*
X27861769Y30311769D01*
X27873041Y30294899D01*
X27879448Y30262688D01*
X27879448Y28537312D01*
X27876999Y28525000D01*
X27873041Y28505101D01*
X27861769Y28488231D01*
X27844899Y28476959D01*
X27825000Y28473001D01*
X27812688Y28470552D01*
X26587312Y28470552D01*
X26555101Y28476959D01*
X26538231Y28488231D01*
X26526959Y28505101D01*
X26520552Y28537312D01*
X26520552Y30262688D01*
X26526959Y30294899D01*
X26538231Y30311769D01*
X26555101Y30323041D01*
X26587312Y30329448D01*
X27812688Y30329448D01*
X27844899Y30323041D01*
X27844899Y30323041D01*
G37*
G36*
X14694899Y29998041D02*
G01*
X14711769Y29986769D01*
X14723041Y29969899D01*
X14729448Y29937688D01*
X14729448Y29087312D01*
X14726999Y29075000D01*
X14723041Y29055101D01*
X14711769Y29038231D01*
X14694899Y29026959D01*
X14675000Y29023001D01*
X14662688Y29020552D01*
X13737312Y29020552D01*
X13705101Y29026959D01*
X13688231Y29038231D01*
X13676959Y29055101D01*
X13670552Y29087312D01*
X13670552Y29937688D01*
X13676959Y29969899D01*
X13688231Y29986769D01*
X13705101Y29998041D01*
X13737312Y30004448D01*
X14662688Y30004448D01*
X14694899Y29998041D01*
X14694899Y29998041D01*
G37*
G36*
X6844899Y31323041D02*
G01*
X6861769Y31311769D01*
X6873041Y31294899D01*
X6879448Y31262688D01*
X6879448Y29537312D01*
X6876999Y29525000D01*
X6873041Y29505101D01*
X6861769Y29488231D01*
X6844899Y29476959D01*
X6825000Y29473001D01*
X6812688Y29470552D01*
X5587312Y29470552D01*
X5555101Y29476959D01*
X5538231Y29488231D01*
X5526959Y29505101D01*
X5520552Y29537312D01*
X5520552Y31262688D01*
X5526959Y31294899D01*
X5538231Y31311769D01*
X5555101Y31323041D01*
X5587312Y31329448D01*
X6812688Y31329448D01*
X6844899Y31323041D01*
X6844899Y31323041D01*
G37*
G36*
X4044899Y31323041D02*
G01*
X4061769Y31311769D01*
X4073041Y31294899D01*
X4079448Y31262688D01*
X4079448Y29537312D01*
X4076999Y29525000D01*
X4073041Y29505101D01*
X4061769Y29488231D01*
X4044899Y29476959D01*
X4025000Y29473001D01*
X4012688Y29470552D01*
X2787312Y29470552D01*
X2755101Y29476959D01*
X2738231Y29488231D01*
X2726959Y29505101D01*
X2720552Y29537312D01*
X2720552Y31262688D01*
X2726959Y31294899D01*
X2738231Y31311769D01*
X2755101Y31323041D01*
X2787312Y31329448D01*
X4012688Y31329448D01*
X4044899Y31323041D01*
X4044899Y31323041D01*
G37*
G36*
X33711756Y31013236D02*
G01*
X33723228Y31007711D01*
X33731286Y31006205D01*
X33748543Y30995520D01*
X33793638Y30973803D01*
X33813738Y30955153D01*
X33826964Y30946964D01*
X33837264Y30933324D01*
X33860265Y30911983D01*
X33882617Y30873268D01*
X33894781Y30857160D01*
X33896750Y30848788D01*
X33904506Y30835354D01*
X33923419Y30735397D01*
X33926883Y30720669D01*
X33926883Y30717090D01*
X33928194Y30710161D01*
X33928194Y29987484D01*
X33913236Y29888244D01*
X33907711Y29876772D01*
X33906205Y29868714D01*
X33895520Y29851457D01*
X33873803Y29806362D01*
X33855153Y29786262D01*
X33846964Y29773036D01*
X33833324Y29762736D01*
X33811983Y29739735D01*
X33773268Y29717383D01*
X33757160Y29705219D01*
X33748788Y29703250D01*
X33735354Y29695494D01*
X33635397Y29676581D01*
X33620669Y29673117D01*
X33617090Y29673117D01*
X33610161Y29671806D01*
X32387484Y29671806D01*
X32288244Y29686764D01*
X32276772Y29692289D01*
X32268714Y29693795D01*
X32251457Y29704480D01*
X32206362Y29726197D01*
X32186262Y29744847D01*
X32173036Y29753036D01*
X32162736Y29766676D01*
X32139735Y29788017D01*
X32117383Y29826732D01*
X32105219Y29842840D01*
X32103250Y29851212D01*
X32095494Y29864646D01*
X32076581Y29964603D01*
X32073117Y29979331D01*
X32073117Y29982910D01*
X32071806Y29989839D01*
X32071806Y30712516D01*
X32086764Y30811756D01*
X32092289Y30823228D01*
X32093795Y30831286D01*
X32104480Y30848543D01*
X32126197Y30893638D01*
X32144847Y30913738D01*
X32153036Y30926964D01*
X32166676Y30937264D01*
X32188017Y30960265D01*
X32226732Y30982617D01*
X32242840Y30994781D01*
X32251212Y30996750D01*
X32264646Y31004506D01*
X32364603Y31023419D01*
X32379331Y31026883D01*
X32382910Y31026883D01*
X32389839Y31028194D01*
X33612516Y31028194D01*
X33711756Y31013236D01*
X33711756Y31013236D01*
G37*
G36*
X12951652Y30789383D02*
G01*
X12952027Y30789383D01*
X12954106Y30788994D01*
X13045430Y30774530D01*
X13053513Y30770412D01*
X13060347Y30769134D01*
X13080453Y30756685D01*
X13128620Y30732143D01*
X13142488Y30718275D01*
X13154039Y30711123D01*
X13167607Y30693156D01*
X13194643Y30666120D01*
X13208374Y30639172D01*
X13220447Y30623184D01*
X13223814Y30608868D01*
X13237030Y30582930D01*
X13251701Y30490300D01*
X13251883Y30489527D01*
X13251883Y30489152D01*
X13253194Y30480875D01*
X13253194Y30019125D01*
X13251883Y30010848D01*
X13251883Y30010473D01*
X13251494Y30008394D01*
X13237030Y29917070D01*
X13232912Y29908987D01*
X13231634Y29902153D01*
X13219185Y29882047D01*
X13194643Y29833880D01*
X13180775Y29820012D01*
X13173623Y29808461D01*
X13155656Y29794893D01*
X13128620Y29767857D01*
X13101672Y29754126D01*
X13085684Y29742053D01*
X13071368Y29738686D01*
X13045430Y29725470D01*
X12952800Y29710799D01*
X12952027Y29710617D01*
X12951652Y29710617D01*
X12943375Y29709306D01*
X12056625Y29709306D01*
X12048348Y29710617D01*
X12047973Y29710617D01*
X12045894Y29711006D01*
X11954570Y29725470D01*
X11946487Y29729588D01*
X11939653Y29730866D01*
X11919547Y29743315D01*
X11871380Y29767857D01*
X11857512Y29781725D01*
X11845961Y29788877D01*
X11832393Y29806844D01*
X11805357Y29833880D01*
X11791626Y29860828D01*
X11779553Y29876816D01*
X11776186Y29891132D01*
X11762970Y29917070D01*
X11748299Y30009700D01*
X11748117Y30010473D01*
X11748117Y30010848D01*
X11746806Y30019125D01*
X11746806Y30480875D01*
X11748117Y30489152D01*
X11748117Y30489527D01*
X11748506Y30491606D01*
X11762970Y30582930D01*
X11767088Y30591013D01*
X11768366Y30597847D01*
X11780815Y30617953D01*
X11805357Y30666120D01*
X11819225Y30679988D01*
X11826377Y30691539D01*
X11844344Y30705107D01*
X11871380Y30732143D01*
X11898328Y30745874D01*
X11914316Y30757947D01*
X11928632Y30761314D01*
X11954570Y30774530D01*
X12047200Y30789201D01*
X12047973Y30789383D01*
X12048348Y30789383D01*
X12056625Y30790694D01*
X12943375Y30790694D01*
X12951652Y30789383D01*
X12951652Y30789383D01*
G37*
G36*
X10944899Y31323041D02*
G01*
X10961769Y31311769D01*
X10973041Y31294899D01*
X10979448Y31262688D01*
X10979448Y30337312D01*
X10976999Y30325000D01*
X10973041Y30305101D01*
X10961769Y30288231D01*
X10944899Y30276959D01*
X10925000Y30273001D01*
X10912688Y30270552D01*
X10062312Y30270552D01*
X10030101Y30276959D01*
X10013231Y30288231D01*
X10001959Y30305101D01*
X9995552Y30337312D01*
X9995552Y31262688D01*
X10001959Y31294899D01*
X10013231Y31311769D01*
X10030101Y31323041D01*
X10062312Y31329448D01*
X10912688Y31329448D01*
X10944899Y31323041D01*
X10944899Y31323041D01*
G37*
G36*
X9369899Y31323041D02*
G01*
X9386769Y31311769D01*
X9398041Y31294899D01*
X9404448Y31262688D01*
X9404448Y30337312D01*
X9401999Y30325000D01*
X9398041Y30305101D01*
X9386769Y30288231D01*
X9369899Y30276959D01*
X9350000Y30273001D01*
X9337688Y30270552D01*
X8487312Y30270552D01*
X8455101Y30276959D01*
X8438231Y30288231D01*
X8426959Y30305101D01*
X8420552Y30337312D01*
X8420552Y31262688D01*
X8426959Y31294899D01*
X8438231Y31311769D01*
X8455101Y31323041D01*
X8487312Y31329448D01*
X9337688Y31329448D01*
X9369899Y31323041D01*
X9369899Y31323041D01*
G37*
G36*
X19694899Y31398041D02*
G01*
X19711769Y31386769D01*
X19723041Y31369899D01*
X19729448Y31337688D01*
X19729448Y30487312D01*
X19726999Y30475000D01*
X19723041Y30455101D01*
X19711769Y30438231D01*
X19694899Y30426959D01*
X19675000Y30423001D01*
X19662688Y30420552D01*
X18737312Y30420552D01*
X18705101Y30426959D01*
X18688231Y30438231D01*
X18676959Y30455101D01*
X18670552Y30487312D01*
X18670552Y31337688D01*
X18676959Y31369899D01*
X18688231Y31386769D01*
X18705101Y31398041D01*
X18737312Y31404448D01*
X19662688Y31404448D01*
X19694899Y31398041D01*
X19694899Y31398041D01*
G37*
G36*
X17494899Y31398041D02*
G01*
X17511769Y31386769D01*
X17523041Y31369899D01*
X17529448Y31337688D01*
X17529448Y30487312D01*
X17526999Y30475000D01*
X17523041Y30455101D01*
X17511769Y30438231D01*
X17494899Y30426959D01*
X17475000Y30423001D01*
X17462688Y30420552D01*
X16537312Y30420552D01*
X16505101Y30426959D01*
X16488231Y30438231D01*
X16476959Y30455101D01*
X16470552Y30487312D01*
X16470552Y31337688D01*
X16476959Y31369899D01*
X16488231Y31386769D01*
X16505101Y31398041D01*
X16537312Y31404448D01*
X17462688Y31404448D01*
X17494899Y31398041D01*
X17494899Y31398041D01*
G37*
G36*
X14694899Y31573041D02*
G01*
X14711769Y31561769D01*
X14723041Y31544899D01*
X14729448Y31512688D01*
X14729448Y30662312D01*
X14726999Y30650000D01*
X14723041Y30630101D01*
X14711769Y30613231D01*
X14694899Y30601959D01*
X14675000Y30598001D01*
X14662688Y30595552D01*
X13737312Y30595552D01*
X13705101Y30601959D01*
X13688231Y30613231D01*
X13676959Y30630101D01*
X13670552Y30662312D01*
X13670552Y31512688D01*
X13676959Y31544899D01*
X13688231Y31561769D01*
X13705101Y31573041D01*
X13737312Y31579448D01*
X14662688Y31579448D01*
X14694899Y31573041D01*
X14694899Y31573041D01*
G37*
G36*
X12951652Y32664383D02*
G01*
X12952027Y32664383D01*
X12954106Y32663994D01*
X13045430Y32649530D01*
X13053513Y32645412D01*
X13060347Y32644134D01*
X13080453Y32631685D01*
X13128620Y32607143D01*
X13142488Y32593275D01*
X13154039Y32586123D01*
X13167607Y32568156D01*
X13194643Y32541120D01*
X13208374Y32514172D01*
X13220447Y32498184D01*
X13223814Y32483868D01*
X13237030Y32457930D01*
X13251701Y32365300D01*
X13251883Y32364527D01*
X13251883Y32364152D01*
X13253194Y32355875D01*
X13253194Y31894125D01*
X13251883Y31885848D01*
X13251883Y31885473D01*
X13251494Y31883394D01*
X13237030Y31792070D01*
X13232912Y31783987D01*
X13231634Y31777153D01*
X13219185Y31757047D01*
X13194643Y31708880D01*
X13180775Y31695012D01*
X13173623Y31683461D01*
X13155656Y31669893D01*
X13128620Y31642857D01*
X13101672Y31629126D01*
X13085684Y31617053D01*
X13071368Y31613686D01*
X13045430Y31600470D01*
X12952800Y31585799D01*
X12952027Y31585617D01*
X12951652Y31585617D01*
X12943375Y31584306D01*
X12056625Y31584306D01*
X12048348Y31585617D01*
X12047973Y31585617D01*
X12045894Y31586006D01*
X11954570Y31600470D01*
X11946487Y31604588D01*
X11939653Y31605866D01*
X11919547Y31618315D01*
X11871380Y31642857D01*
X11857512Y31656725D01*
X11845961Y31663877D01*
X11832393Y31681844D01*
X11805357Y31708880D01*
X11791626Y31735828D01*
X11779553Y31751816D01*
X11776186Y31766132D01*
X11762970Y31792070D01*
X11748299Y31884700D01*
X11748117Y31885473D01*
X11748117Y31885848D01*
X11746806Y31894125D01*
X11746806Y32355875D01*
X11748117Y32364152D01*
X11748117Y32364527D01*
X11748506Y32366606D01*
X11762970Y32457930D01*
X11767088Y32466013D01*
X11768366Y32472847D01*
X11780815Y32492953D01*
X11805357Y32541120D01*
X11819225Y32554988D01*
X11826377Y32566539D01*
X11844344Y32580107D01*
X11871380Y32607143D01*
X11898328Y32620874D01*
X11914316Y32632947D01*
X11928632Y32636314D01*
X11954570Y32649530D01*
X12047200Y32664201D01*
X12047973Y32664383D01*
X12048348Y32664383D01*
X12056625Y32665694D01*
X12943375Y32665694D01*
X12951652Y32664383D01*
X12951652Y32664383D01*
G37*
G36*
X8569899Y33023041D02*
G01*
X8586769Y33011769D01*
X8598041Y32994899D01*
X8604448Y32962688D01*
X8604448Y32037312D01*
X8601999Y32025000D01*
X8598041Y32005101D01*
X8586769Y31988231D01*
X8569899Y31976959D01*
X8550000Y31973001D01*
X8537688Y31970552D01*
X7687312Y31970552D01*
X7655101Y31976959D01*
X7638231Y31988231D01*
X7626959Y32005101D01*
X7620552Y32037312D01*
X7620552Y32962688D01*
X7626959Y32994899D01*
X7638231Y33011769D01*
X7655101Y33023041D01*
X7687312Y33029448D01*
X8537688Y33029448D01*
X8569899Y33023041D01*
X8569899Y33023041D01*
G37*
G36*
X10144899Y33023041D02*
G01*
X10161769Y33011769D01*
X10173041Y32994899D01*
X10179448Y32962688D01*
X10179448Y32037312D01*
X10176999Y32025000D01*
X10173041Y32005101D01*
X10161769Y31988231D01*
X10144899Y31976959D01*
X10125000Y31973001D01*
X10112688Y31970552D01*
X9262312Y31970552D01*
X9230101Y31976959D01*
X9213231Y31988231D01*
X9201959Y32005101D01*
X9195552Y32037312D01*
X9195552Y32962688D01*
X9201959Y32994899D01*
X9213231Y33011769D01*
X9230101Y33023041D01*
X9262312Y33029448D01*
X10112688Y33029448D01*
X10144899Y33023041D01*
X10144899Y33023041D01*
G37*
G36*
X17494899Y32973041D02*
G01*
X17511769Y32961769D01*
X17523041Y32944899D01*
X17529448Y32912688D01*
X17529448Y32062312D01*
X17526999Y32050000D01*
X17523041Y32030101D01*
X17511769Y32013231D01*
X17494899Y32001959D01*
X17475000Y31998001D01*
X17462688Y31995552D01*
X16537312Y31995552D01*
X16505101Y32001959D01*
X16488231Y32013231D01*
X16476959Y32030101D01*
X16470552Y32062312D01*
X16470552Y32912688D01*
X16476959Y32944899D01*
X16488231Y32961769D01*
X16505101Y32973041D01*
X16537312Y32979448D01*
X17462688Y32979448D01*
X17494899Y32973041D01*
X17494899Y32973041D01*
G37*
G36*
X19694899Y32973041D02*
G01*
X19711769Y32961769D01*
X19723041Y32944899D01*
X19729448Y32912688D01*
X19729448Y32062312D01*
X19726999Y32050000D01*
X19723041Y32030101D01*
X19711769Y32013231D01*
X19694899Y32001959D01*
X19675000Y31998001D01*
X19662688Y31995552D01*
X18737312Y31995552D01*
X18705101Y32001959D01*
X18688231Y32013231D01*
X18676959Y32030101D01*
X18670552Y32062312D01*
X18670552Y32912688D01*
X18676959Y32944899D01*
X18688231Y32961769D01*
X18705101Y32973041D01*
X18737312Y32979448D01*
X19662688Y32979448D01*
X19694899Y32973041D01*
X19694899Y32973041D01*
G37*
G36*
X33711756Y33813236D02*
G01*
X33723228Y33807711D01*
X33731286Y33806205D01*
X33748543Y33795520D01*
X33793638Y33773803D01*
X33813738Y33755153D01*
X33826964Y33746964D01*
X33837264Y33733324D01*
X33860265Y33711983D01*
X33882617Y33673268D01*
X33894781Y33657160D01*
X33896750Y33648788D01*
X33904506Y33635354D01*
X33923419Y33535397D01*
X33926883Y33520669D01*
X33926883Y33517090D01*
X33928194Y33510161D01*
X33928194Y32787484D01*
X33913236Y32688244D01*
X33907711Y32676772D01*
X33906205Y32668714D01*
X33895520Y32651457D01*
X33873803Y32606362D01*
X33855153Y32586262D01*
X33846964Y32573036D01*
X33833324Y32562736D01*
X33811983Y32539735D01*
X33773268Y32517383D01*
X33757160Y32505219D01*
X33748788Y32503250D01*
X33735354Y32495494D01*
X33635397Y32476581D01*
X33620669Y32473117D01*
X33617090Y32473117D01*
X33610161Y32471806D01*
X32387484Y32471806D01*
X32288244Y32486764D01*
X32276772Y32492289D01*
X32268714Y32493795D01*
X32251457Y32504480D01*
X32206362Y32526197D01*
X32186262Y32544847D01*
X32173036Y32553036D01*
X32162736Y32566676D01*
X32139735Y32588017D01*
X32117383Y32626732D01*
X32105219Y32642840D01*
X32103250Y32651212D01*
X32095494Y32664646D01*
X32076581Y32764603D01*
X32073117Y32779331D01*
X32073117Y32782910D01*
X32071806Y32789839D01*
X32071806Y33512516D01*
X32086764Y33611756D01*
X32092289Y33623228D01*
X32093795Y33631286D01*
X32104480Y33648543D01*
X32126197Y33693638D01*
X32144847Y33713738D01*
X32153036Y33726964D01*
X32166676Y33737264D01*
X32188017Y33760265D01*
X32226732Y33782617D01*
X32242840Y33794781D01*
X32251212Y33796750D01*
X32264646Y33804506D01*
X32364603Y33823419D01*
X32379331Y33826883D01*
X32382910Y33826883D01*
X32389839Y33828194D01*
X33612516Y33828194D01*
X33711756Y33813236D01*
X33711756Y33813236D01*
G37*
G36*
X25759705Y36252006D02*
G01*
X25822304Y36253973D01*
X25872228Y36246601D01*
X25916049Y36244496D01*
X25975765Y36231312D01*
X26043220Y36221351D01*
X26085824Y36207013D01*
X26123364Y36198725D01*
X26184972Y36173646D01*
X26254869Y36150123D01*
X26289423Y36131127D01*
X26319997Y36118681D01*
X26381022Y36080770D01*
X26450559Y36042542D01*
X26476921Y36021194D01*
X26500333Y36006650D01*
X26558035Y35955510D01*
X26624105Y35902007D01*
X26642672Y35880497D01*
X26659215Y35865835D01*
X26710709Y35801675D01*
X26770022Y35732960D01*
X26781681Y35713246D01*
X26792101Y35700263D01*
X26834459Y35624004D01*
X26883698Y35540746D01*
X26889763Y35524437D01*
X26895190Y35514667D01*
X26925585Y35428114D01*
X26961538Y35331439D01*
X26963643Y35319742D01*
X26965534Y35314356D01*
X26981394Y35221085D01*
X27001083Y35111656D01*
X27000939Y35106142D01*
X27001021Y35105657D01*
X26998533Y34868167D01*
X26994102Y34845047D01*
X26993525Y34823020D01*
X26973588Y34738018D01*
X26958684Y34660256D01*
X26949776Y34636494D01*
X26942532Y34605608D01*
X26910116Y34530699D01*
X26884161Y34461463D01*
X26868632Y34434834D01*
X26853844Y34400662D01*
X26811791Y34337367D01*
X26777207Y34278065D01*
X26753915Y34250258D01*
X26730264Y34214660D01*
X26681535Y34163846D01*
X26640883Y34115313D01*
X26609100Y34088312D01*
X26575700Y34053482D01*
X26523238Y34015366D01*
X26479086Y33977856D01*
X26438545Y33953833D01*
X26395037Y33922222D01*
X26341637Y33896407D01*
X26296448Y33869630D01*
X26247391Y33850848D01*
X26193984Y33825030D01*
X26142180Y33810566D01*
X26098172Y33793717D01*
X26041355Y33782415D01*
X25978898Y33764977D01*
X25930858Y33760436D01*
X25889952Y33752299D01*
X25826669Y33750587D01*
X25756577Y33743961D01*
X25713983Y33747538D01*
X25677731Y33746557D01*
X25609777Y33756289D01*
X25534047Y33762648D01*
X25498087Y33772284D01*
X25467568Y33776654D01*
X25397184Y33799320D01*
X25318344Y33820445D01*
X25289634Y33833955D01*
X25265484Y33841732D01*
X25195301Y33878345D01*
X25116285Y33915527D01*
X25094916Y33930713D01*
X25077258Y33939925D01*
X25010179Y33990933D01*
X24934257Y34044888D01*
X24919771Y34059680D01*
X24908262Y34068432D01*
X24847438Y34133544D01*
X24778013Y34204438D01*
X24769470Y34217009D01*
X24763338Y34223573D01*
X24712105Y34301419D01*
X24652493Y34389136D01*
X24648556Y34397979D01*
X24646623Y34400916D01*
X24609112Y34486571D01*
X24561664Y34593142D01*
X24530545Y34719835D01*
X24510277Y34801428D01*
X24510179Y34802750D01*
X24508396Y34810008D01*
X24501532Y34919113D01*
X24494544Y35013145D01*
X24495190Y35019914D01*
X24494374Y35032880D01*
X24506077Y35134026D01*
X24514708Y35224489D01*
X24517914Y35236330D01*
X24520041Y35254712D01*
X24547655Y35346173D01*
X24570193Y35429414D01*
X24577645Y35445506D01*
X24584586Y35468494D01*
X24625275Y35548351D01*
X24659413Y35622064D01*
X24672568Y35641168D01*
X24685967Y35667466D01*
X24736682Y35734281D01*
X24779814Y35796920D01*
X24799804Y35817440D01*
X24820982Y35845341D01*
X24878576Y35898301D01*
X24927957Y35948992D01*
X24955519Y35969054D01*
X24985362Y35996496D01*
X25046696Y36035420D01*
X25099607Y36073933D01*
X25135028Y36091478D01*
X25173910Y36116153D01*
X25236010Y36141495D01*
X25289847Y36168162D01*
X25332915Y36181042D01*
X25380669Y36200530D01*
X25440860Y36213324D01*
X25493251Y36228992D01*
X25543245Y36235086D01*
X25599101Y36246959D01*
X25655064Y36248718D01*
X25703991Y36254682D01*
X25759705Y36252006D01*
X25759705Y36252006D01*
G37*
G36*
X30469899Y36248041D02*
G01*
X30486769Y36236769D01*
X30498041Y36219899D01*
X30504448Y36187688D01*
X30504448Y33812312D01*
X30501999Y33800000D01*
X30498041Y33780101D01*
X30486769Y33763231D01*
X30469899Y33751959D01*
X30450000Y33748001D01*
X30437688Y33745552D01*
X28062312Y33745552D01*
X28030101Y33751959D01*
X28013231Y33763231D01*
X28001959Y33780101D01*
X27995552Y33812312D01*
X27995552Y36187688D01*
X28001959Y36219899D01*
X28013231Y36236769D01*
X28030101Y36248041D01*
X28062312Y36254448D01*
X30437688Y36254448D01*
X30469899Y36248041D01*
X30469899Y36248041D01*
G37*
G36*
X14032058Y35939706D02*
G01*
X14078732Y35939380D01*
X14124452Y35929995D01*
X14176513Y35924523D01*
X14220101Y35910360D01*
X14259313Y35902311D01*
X14308472Y35881647D01*
X14364438Y35863462D01*
X14398461Y35843819D01*
X14429251Y35830876D01*
X14479002Y35797319D01*
X14535561Y35764664D01*
X14559888Y35742759D01*
X14582083Y35727789D01*
X14629113Y35680429D01*
X14682403Y35632447D01*
X14697782Y35611279D01*
X14711976Y35596986D01*
X14752705Y35535684D01*
X14798547Y35472588D01*
X14806512Y35454699D01*
X14813993Y35443439D01*
X14844752Y35368811D01*
X14878917Y35292076D01*
X14881619Y35279363D01*
X14884239Y35273007D01*
X14901517Y35185749D01*
X14919999Y35098798D01*
X14919999Y34901202D01*
X14916998Y34887085D01*
X14916910Y34880756D01*
X14897404Y34794899D01*
X14878917Y34707924D01*
X14876317Y34702084D01*
X14876264Y34701851D01*
X14801285Y34533446D01*
X14801145Y34533248D01*
X14798547Y34527412D01*
X14746309Y34455513D01*
X14695024Y34382811D01*
X14690041Y34378066D01*
X14682403Y34367553D01*
X14619958Y34311327D01*
X14561523Y34255681D01*
X14550118Y34248443D01*
X14535561Y34235336D01*
X14468008Y34196334D01*
X14405881Y34156907D01*
X14387102Y34149623D01*
X14364438Y34136538D01*
X14296227Y34114375D01*
X14234007Y34090241D01*
X14207647Y34085593D01*
X14176513Y34075477D01*
X14111556Y34068650D01*
X14052467Y34058231D01*
X14019079Y34058930D01*
X13980000Y34054823D01*
X13921472Y34060974D01*
X13868159Y34062091D01*
X13829064Y34070687D01*
X13783487Y34075477D01*
X13733696Y34091655D01*
X13688115Y34101677D01*
X13645348Y34120361D01*
X13595562Y34136538D01*
X13555876Y34159451D01*
X13519191Y34175478D01*
X13475397Y34205915D01*
X13424439Y34235336D01*
X13395247Y34261620D01*
X13367818Y34280684D01*
X13326128Y34323855D01*
X13277597Y34367553D01*
X13258356Y34394036D01*
X13239759Y34413294D01*
X13203602Y34469399D01*
X13161453Y34527412D01*
X13150811Y34551315D01*
X13139898Y34568248D01*
X13112808Y34636670D01*
X13081083Y34707924D01*
X13077011Y34727082D01*
X13072036Y34739647D01*
X13057463Y34819047D01*
X13040001Y34901202D01*
X13040001Y34914192D01*
X13038759Y34920959D01*
X13040001Y35009903D01*
X13040001Y35098798D01*
X13041330Y35105049D01*
X13041333Y35105292D01*
X13079659Y35285601D01*
X13079754Y35285822D01*
X13081083Y35292076D01*
X13117249Y35373305D01*
X13152283Y35455046D01*
X13156171Y35460724D01*
X13161453Y35472588D01*
X13210810Y35540522D01*
X13256429Y35607147D01*
X13266087Y35616605D01*
X13277597Y35632447D01*
X13335558Y35684636D01*
X13388137Y35736124D01*
X13404991Y35747153D01*
X13424439Y35764664D01*
X13486549Y35800523D01*
X13542395Y35837068D01*
X13567216Y35847096D01*
X13595562Y35863462D01*
X13657671Y35883643D01*
X13713312Y35906123D01*
X13746119Y35912381D01*
X13783487Y35924523D01*
X13842016Y35930675D01*
X13894393Y35940666D01*
X13934423Y35940387D01*
X13980000Y35945177D01*
X14032058Y35939706D01*
X14032058Y35939706D01*
G37*
G36*
X19112058Y35939706D02*
G01*
X19158732Y35939380D01*
X19204452Y35929995D01*
X19256513Y35924523D01*
X19300101Y35910360D01*
X19339313Y35902311D01*
X19388472Y35881647D01*
X19444438Y35863462D01*
X19478461Y35843819D01*
X19509251Y35830876D01*
X19559002Y35797319D01*
X19615561Y35764664D01*
X19639888Y35742759D01*
X19662083Y35727789D01*
X19709113Y35680429D01*
X19762403Y35632447D01*
X19777782Y35611279D01*
X19791976Y35596986D01*
X19832705Y35535684D01*
X19878547Y35472588D01*
X19886512Y35454699D01*
X19893993Y35443439D01*
X19924752Y35368811D01*
X19958917Y35292076D01*
X19961619Y35279363D01*
X19964239Y35273007D01*
X19981517Y35185749D01*
X19999999Y35098798D01*
X19999999Y34901202D01*
X19996998Y34887085D01*
X19996910Y34880756D01*
X19977404Y34794899D01*
X19958917Y34707924D01*
X19956317Y34702084D01*
X19956264Y34701851D01*
X19881285Y34533446D01*
X19881145Y34533248D01*
X19878547Y34527412D01*
X19826309Y34455513D01*
X19775024Y34382811D01*
X19770041Y34378066D01*
X19762403Y34367553D01*
X19699958Y34311327D01*
X19641523Y34255681D01*
X19630118Y34248443D01*
X19615561Y34235336D01*
X19548008Y34196334D01*
X19485881Y34156907D01*
X19467102Y34149623D01*
X19444438Y34136538D01*
X19376227Y34114375D01*
X19314007Y34090241D01*
X19287647Y34085593D01*
X19256513Y34075477D01*
X19191556Y34068650D01*
X19132467Y34058231D01*
X19099079Y34058930D01*
X19060000Y34054823D01*
X19001472Y34060974D01*
X18948159Y34062091D01*
X18909064Y34070687D01*
X18863487Y34075477D01*
X18813696Y34091655D01*
X18768115Y34101677D01*
X18725348Y34120361D01*
X18675562Y34136538D01*
X18635876Y34159451D01*
X18599191Y34175478D01*
X18555397Y34205915D01*
X18504439Y34235336D01*
X18475247Y34261620D01*
X18447818Y34280684D01*
X18406128Y34323855D01*
X18357597Y34367553D01*
X18338356Y34394036D01*
X18319759Y34413294D01*
X18283602Y34469399D01*
X18241453Y34527412D01*
X18230811Y34551315D01*
X18219898Y34568248D01*
X18192808Y34636670D01*
X18161083Y34707924D01*
X18157011Y34727082D01*
X18152036Y34739647D01*
X18137463Y34819047D01*
X18120001Y34901202D01*
X18120001Y34914192D01*
X18118759Y34920959D01*
X18120001Y35009903D01*
X18120001Y35098798D01*
X18121330Y35105049D01*
X18121333Y35105292D01*
X18159659Y35285601D01*
X18159754Y35285822D01*
X18161083Y35292076D01*
X18197249Y35373305D01*
X18232283Y35455046D01*
X18236171Y35460724D01*
X18241453Y35472588D01*
X18290810Y35540522D01*
X18336429Y35607147D01*
X18346087Y35616605D01*
X18357597Y35632447D01*
X18415558Y35684636D01*
X18468137Y35736124D01*
X18484991Y35747153D01*
X18504439Y35764664D01*
X18566549Y35800523D01*
X18622395Y35837068D01*
X18647216Y35847096D01*
X18675562Y35863462D01*
X18737671Y35883643D01*
X18793312Y35906123D01*
X18826119Y35912381D01*
X18863487Y35924523D01*
X18922016Y35930675D01*
X18974393Y35940666D01*
X19014423Y35940387D01*
X19060000Y35945177D01*
X19112058Y35939706D01*
X19112058Y35939706D01*
G37*
G36*
X16572058Y35939706D02*
G01*
X16618732Y35939380D01*
X16664452Y35929995D01*
X16716513Y35924523D01*
X16760101Y35910360D01*
X16799313Y35902311D01*
X16848472Y35881647D01*
X16904438Y35863462D01*
X16938461Y35843819D01*
X16969251Y35830876D01*
X17019002Y35797319D01*
X17075561Y35764664D01*
X17099888Y35742759D01*
X17122083Y35727789D01*
X17169113Y35680429D01*
X17222403Y35632447D01*
X17237782Y35611279D01*
X17251976Y35596986D01*
X17292705Y35535684D01*
X17338547Y35472588D01*
X17346512Y35454699D01*
X17353993Y35443439D01*
X17384752Y35368811D01*
X17418917Y35292076D01*
X17421619Y35279363D01*
X17424239Y35273007D01*
X17441517Y35185749D01*
X17459999Y35098798D01*
X17459999Y34901202D01*
X17456998Y34887085D01*
X17456910Y34880756D01*
X17437404Y34794899D01*
X17418917Y34707924D01*
X17416317Y34702084D01*
X17416264Y34701851D01*
X17341285Y34533446D01*
X17341145Y34533248D01*
X17338547Y34527412D01*
X17286309Y34455513D01*
X17235024Y34382811D01*
X17230041Y34378066D01*
X17222403Y34367553D01*
X17159958Y34311327D01*
X17101523Y34255681D01*
X17090118Y34248443D01*
X17075561Y34235336D01*
X17008008Y34196334D01*
X16945881Y34156907D01*
X16927102Y34149623D01*
X16904438Y34136538D01*
X16836227Y34114375D01*
X16774007Y34090241D01*
X16747647Y34085593D01*
X16716513Y34075477D01*
X16651556Y34068650D01*
X16592467Y34058231D01*
X16559079Y34058930D01*
X16520000Y34054823D01*
X16461472Y34060974D01*
X16408159Y34062091D01*
X16369064Y34070687D01*
X16323487Y34075477D01*
X16273696Y34091655D01*
X16228115Y34101677D01*
X16185348Y34120361D01*
X16135562Y34136538D01*
X16095876Y34159451D01*
X16059191Y34175478D01*
X16015397Y34205915D01*
X15964439Y34235336D01*
X15935247Y34261620D01*
X15907818Y34280684D01*
X15866128Y34323855D01*
X15817597Y34367553D01*
X15798356Y34394036D01*
X15779759Y34413294D01*
X15743602Y34469399D01*
X15701453Y34527412D01*
X15690811Y34551315D01*
X15679898Y34568248D01*
X15652808Y34636670D01*
X15621083Y34707924D01*
X15617011Y34727082D01*
X15612036Y34739647D01*
X15597463Y34819047D01*
X15580001Y34901202D01*
X15580001Y34914192D01*
X15578759Y34920959D01*
X15580001Y35009903D01*
X15580001Y35098798D01*
X15581330Y35105049D01*
X15581333Y35105292D01*
X15619659Y35285601D01*
X15619754Y35285822D01*
X15621083Y35292076D01*
X15657249Y35373305D01*
X15692283Y35455046D01*
X15696171Y35460724D01*
X15701453Y35472588D01*
X15750810Y35540522D01*
X15796429Y35607147D01*
X15806087Y35616605D01*
X15817597Y35632447D01*
X15875558Y35684636D01*
X15928137Y35736124D01*
X15944991Y35747153D01*
X15964439Y35764664D01*
X16026549Y35800523D01*
X16082395Y35837068D01*
X16107216Y35847096D01*
X16135562Y35863462D01*
X16197671Y35883643D01*
X16253312Y35906123D01*
X16286119Y35912381D01*
X16323487Y35924523D01*
X16382016Y35930675D01*
X16434393Y35940666D01*
X16474423Y35940387D01*
X16520000Y35945177D01*
X16572058Y35939706D01*
X16572058Y35939706D01*
G37*
G36*
X12348899Y35937041D02*
G01*
X12365769Y35925769D01*
X12377041Y35908899D01*
X12383448Y35876688D01*
X12383448Y34123312D01*
X12380999Y34111000D01*
X12377041Y34091101D01*
X12365769Y34074231D01*
X12348899Y34062959D01*
X12329000Y34059001D01*
X12316688Y34056552D01*
X10563312Y34056552D01*
X10531101Y34062959D01*
X10514231Y34074231D01*
X10502959Y34091101D01*
X10496552Y34123312D01*
X10496552Y35876688D01*
X10502959Y35908899D01*
X10514231Y35925769D01*
X10531101Y35937041D01*
X10563312Y35943448D01*
X12316688Y35943448D01*
X12348899Y35937041D01*
X12348899Y35937041D01*
G37*
G36*
X1827399Y39094041D02*
G01*
X1844269Y39082769D01*
X1855541Y39065899D01*
X1861948Y39033688D01*
X1861948Y37788947D01*
X1881791Y37721367D01*
X1935021Y37675244D01*
X1986947Y37663948D01*
X3231688Y37663948D01*
X3263899Y37657541D01*
X3280769Y37646269D01*
X3292041Y37629399D01*
X3298448Y37597188D01*
X3298448Y37494812D01*
X3295999Y37482500D01*
X3292041Y37462601D01*
X3280769Y37445731D01*
X3263899Y37434459D01*
X3244000Y37430501D01*
X3231688Y37428052D01*
X1986947Y37428052D01*
X1919367Y37408209D01*
X1873244Y37354979D01*
X1861948Y37303053D01*
X1861948Y36058312D01*
X1859499Y36046000D01*
X1855541Y36026101D01*
X1844269Y36009231D01*
X1827399Y35997959D01*
X1807500Y35994001D01*
X1795188Y35991552D01*
X1692812Y35991552D01*
X1660601Y35997959D01*
X1643731Y36009231D01*
X1632459Y36026101D01*
X1626052Y36058312D01*
X1626052Y37303053D01*
X1606209Y37370633D01*
X1552979Y37416756D01*
X1501053Y37428052D01*
X256312Y37428052D01*
X224101Y37434459D01*
X207231Y37445731D01*
X195959Y37462601D01*
X189552Y37494812D01*
X189552Y37597188D01*
X195959Y37629399D01*
X207231Y37646269D01*
X224101Y37657541D01*
X256312Y37663948D01*
X1501053Y37663948D01*
X1568633Y37683791D01*
X1614756Y37737021D01*
X1626052Y37788947D01*
X1626052Y39033688D01*
X1632459Y39065899D01*
X1643731Y39082769D01*
X1660601Y39094041D01*
X1692812Y39100448D01*
X1795188Y39100448D01*
X1827399Y39094041D01*
X1827399Y39094041D01*
G37*
G36*
X34847399Y39094041D02*
G01*
X34864269Y39082769D01*
X34875541Y39065899D01*
X34881948Y39033688D01*
X34881948Y37788947D01*
X34901791Y37721367D01*
X34955021Y37675244D01*
X35006947Y37663948D01*
X36251688Y37663948D01*
X36283899Y37657541D01*
X36300769Y37646269D01*
X36312041Y37629399D01*
X36318448Y37597188D01*
X36318448Y37494812D01*
X36315999Y37482500D01*
X36312041Y37462601D01*
X36300769Y37445731D01*
X36283899Y37434459D01*
X36264000Y37430501D01*
X36251688Y37428052D01*
X35006947Y37428052D01*
X34939367Y37408209D01*
X34893244Y37354979D01*
X34881948Y37303053D01*
X34881948Y36058312D01*
X34879499Y36046000D01*
X34875541Y36026101D01*
X34864269Y36009231D01*
X34847399Y35997959D01*
X34827500Y35994001D01*
X34815188Y35991552D01*
X34712812Y35991552D01*
X34680601Y35997959D01*
X34663731Y36009231D01*
X34652459Y36026101D01*
X34646052Y36058312D01*
X34646052Y37303053D01*
X34626209Y37370633D01*
X34572979Y37416756D01*
X34521053Y37428052D01*
X33276312Y37428052D01*
X33244101Y37434459D01*
X33227231Y37445731D01*
X33215959Y37462601D01*
X33209552Y37494812D01*
X33209552Y37597188D01*
X33215959Y37629399D01*
X33227231Y37646269D01*
X33244101Y37657541D01*
X33276312Y37663948D01*
X34521053Y37663948D01*
X34588633Y37683791D01*
X34634756Y37737021D01*
X34646052Y37788947D01*
X34646052Y39033688D01*
X34652459Y39065899D01*
X34663731Y39082769D01*
X34680601Y39094041D01*
X34712812Y39100448D01*
X34815188Y39100448D01*
X34847399Y39094041D01*
X34847399Y39094041D01*
G37*
M02*
