G04 #@! TF.GenerationSoftware,KiCad,Pcbnew,(5.99.0-1251-g6aaee01f1)*
G04 #@! TF.CreationDate,2020-04-08T18:30:41-07:00*
G04 #@! TF.ProjectId,TMC2660_Driver,544d4332-3636-4305-9f44-72697665722e,rev?*
G04 #@! TF.SameCoordinates,PX67f3540PY6cb8080*
G04 #@! TF.FileFunction,Copper,L3,Inr*
G04 #@! TF.FilePolarity,Positive*
%FSLAX46Y46*%
G04 Gerber Fmt 4.6, Leading zero omitted, Abs format (unit mm)*
G04 Created by KiCad (PCBNEW (5.99.0-1251-g6aaee01f1)) date 2020-04-08 18:30:41*
%MOMM*%
%LPD*%
G01*
G04 APERTURE LIST*
G04 #@! TA.AperFunction,ViaPad*
%ADD10C,1.778000*%
G04 #@! TD*
G04 #@! TA.AperFunction,ViaPad*
%ADD11R,1.778000X1.778000*%
G04 #@! TD*
G04 #@! TA.AperFunction,ViaPad*
%ADD12C,0.600000*%
G04 #@! TD*
G04 #@! TA.AperFunction,ViaPad*
%ADD13C,1.000000*%
G04 #@! TD*
G04 #@! TA.AperFunction,ViaPad*
%ADD14C,0.800000*%
G04 #@! TD*
G04 #@! TA.AperFunction,Conductor*
%ADD15C,0.127000*%
G04 #@! TD*
G04 #@! TA.AperFunction,Conductor*
%ADD16C,0.254000*%
G04 #@! TD*
G04 APERTURE END LIST*
D10*
X21429000Y35437800D03*
X18889000Y35437800D03*
X16349000Y35437800D03*
D11*
X13809000Y35437800D03*
D12*
X12128995Y11271005D03*
X22052410Y7147590D03*
D13*
X9150333Y12209846D03*
D12*
X7854717Y11728410D03*
X8400000Y10600000D03*
X4800000Y15100000D03*
X4000000Y14700000D03*
X11040721Y10131679D03*
D14*
X18749451Y10652410D03*
D12*
X22600000Y6200000D03*
X9400000Y10600000D03*
X5400000Y14500000D03*
X21600000Y6200000D03*
X5000000Y12300000D03*
X4200000Y12300000D03*
X5000000Y18000000D03*
X5000000Y17000000D03*
X5000000Y16000000D03*
X4000000Y16000000D03*
X4000000Y17000000D03*
X4000000Y18000000D03*
X2500000Y21500000D03*
X2500000Y20500000D03*
X2500000Y19500000D03*
X2500000Y18500000D03*
X1000000Y18500000D03*
X1000000Y19500000D03*
X1000000Y20500000D03*
X1000000Y21500000D03*
X16700000Y7400000D03*
X14300000Y8787770D03*
X13400000Y9240180D03*
X9775110Y9347590D03*
X15600000Y7600000D03*
X25600000Y10200000D03*
X27700000Y10200000D03*
X26700000Y10200000D03*
D13*
X30192000Y16210000D03*
X33750000Y15750000D03*
X32500000Y17500000D03*
X30192000Y18242000D03*
X30192000Y21290000D03*
X32224000Y21290000D03*
D14*
X15858054Y11320680D03*
D12*
X16257457Y9316543D03*
D14*
X14088400Y11434800D03*
D12*
X14952000Y30942000D03*
D13*
X1744000Y32974000D03*
X1744000Y30434000D03*
X4080800Y35514000D03*
X6112800Y36403000D03*
X19016000Y38308000D03*
X32063980Y31739560D03*
X27133840Y34769780D03*
D12*
X12029132Y7805928D03*
X9775110Y7948380D03*
X10902121Y7690257D03*
X8533650Y9106687D03*
X7103309Y34525115D03*
X5976289Y34244000D03*
X7865400Y34803024D03*
X6239800Y35285400D03*
X11167400Y8564600D03*
X5172048Y33980489D03*
X17238000Y16591000D03*
X19651000Y16845000D03*
X16857000Y8463000D03*
X20540000Y16972000D03*
D13*
X18127000Y8590000D03*
X18127000Y14686000D03*
D12*
X18127000Y17226000D03*
X18127000Y19385000D03*
D14*
X21810000Y14686000D03*
X18229569Y28631311D03*
X21556000Y33736000D03*
X31208000Y33228000D03*
X27144000Y37038000D03*
X4969800Y32720000D03*
X7586000Y36784000D03*
D13*
X15460000Y28148000D03*
X15460000Y25100000D03*
X13936000Y26624000D03*
X15460000Y22052000D03*
X16984000Y26624000D03*
X16984000Y23576000D03*
X16984000Y20528000D03*
X13936000Y23576000D03*
X19016000Y20528000D03*
X20540000Y22052000D03*
X19016000Y23576000D03*
X22064000Y23576000D03*
X20540000Y25100000D03*
X19016000Y26624000D03*
X22064000Y26624000D03*
X20540000Y28148000D03*
X25874000Y21499200D03*
X27271000Y20274000D03*
X27525000Y17353000D03*
X27144000Y25608000D03*
X25874000Y18877000D03*
X27144000Y22814000D03*
X25874000Y24338000D03*
X8729000Y17226000D03*
X10380000Y18369000D03*
X9110000Y19893000D03*
X10380000Y21207800D03*
X8983000Y22433000D03*
X10380000Y23830000D03*
X8983000Y25100000D03*
X26839200Y11892000D03*
D14*
X2250000Y29164000D03*
X2250000Y27894000D03*
X2250000Y26624000D03*
X33750000Y29545000D03*
X33750000Y28148000D03*
X33750000Y26750000D03*
D13*
X32532000Y13000000D03*
X30500000Y13000000D03*
X35000000Y10532000D03*
X35000000Y8500000D03*
D15*
X13057600Y8300000D02*
X12340599Y9017001D01*
X14027000Y8300000D02*
X13057600Y8300000D01*
X12340599Y9017001D02*
X10197401Y9017001D01*
X16000000Y8300000D02*
X14027000Y8300000D01*
X10075589Y8895189D02*
X9435257Y8895189D01*
X8968023Y9362423D02*
X7947599Y10382847D01*
X10197401Y9017001D02*
X10075589Y8895189D01*
X9435257Y8895189D02*
X8968023Y9362423D01*
X22600000Y6200000D02*
X22600000Y8700000D01*
X13281396Y10818604D02*
X11911842Y10818604D01*
X8154716Y11428411D02*
X7854717Y11728410D01*
X11911842Y10818604D02*
X11830446Y10900000D01*
X9900000Y10900000D02*
X9371589Y11428411D01*
X9371589Y11428411D02*
X8154716Y11428411D01*
X22600000Y8700000D02*
X21200000Y10100000D01*
X11830446Y10900000D02*
X9900000Y10900000D01*
X21200000Y10100000D02*
X14000000Y10100000D01*
X14000000Y10100000D02*
X13281396Y10818604D01*
X22052410Y7147590D02*
X22052410Y8847590D01*
X21600000Y8980184D02*
X21012006Y9568178D01*
X21600000Y6200000D02*
X21600000Y8980184D01*
X17268178Y9568178D02*
X16000000Y8300000D01*
X7947599Y10382847D02*
X7947599Y10452401D01*
X5400000Y14075736D02*
X5400000Y14500000D01*
X21012006Y9568178D02*
X17268178Y9568178D01*
X5400000Y13000000D02*
X5400000Y14075736D01*
X7947599Y10452401D02*
X5400000Y13000000D01*
X9840175Y10584089D02*
X9824264Y10600000D01*
X13210567Y10584089D02*
X9840175Y10584089D01*
X22052410Y8847590D02*
X21115911Y9784089D01*
X18394656Y9800000D02*
X13994656Y9800000D01*
X13994656Y9800000D02*
X13210567Y10584089D01*
X21115911Y9784089D02*
X18410567Y9784089D01*
X18410567Y9784089D02*
X18394656Y9800000D01*
X9824264Y10600000D02*
X9400000Y10600000D01*
X13182847Y9752401D02*
X12778036Y9347590D01*
X12778036Y9347590D02*
X10199374Y9347590D01*
X14172769Y9316543D02*
X13736911Y9752401D01*
X10199374Y9347590D02*
X9775110Y9347590D01*
X13736911Y9752401D02*
X13182847Y9752401D01*
X16257457Y9316543D02*
X14172769Y9316543D01*
G36*
X35658693Y39068054D02*
G01*
X35666145Y39067292D01*
X35666184Y39067288D01*
X35833487Y39050293D01*
X35961518Y39010171D01*
X36078874Y38945120D01*
X36180744Y38857806D01*
X36262978Y38751791D01*
X36322220Y38631396D01*
X36357076Y38497577D01*
X36367102Y38367292D01*
X36369758Y38353399D01*
X36370801Y38350040D01*
X36370800Y1053911D01*
X36368054Y1041307D01*
X36367292Y1033855D01*
X36367288Y1033816D01*
X36350293Y866510D01*
X36310172Y738483D01*
X36245123Y621130D01*
X36157806Y519256D01*
X36051789Y437021D01*
X35931402Y377783D01*
X35797576Y342924D01*
X35667291Y332898D01*
X35653399Y330242D01*
X35650044Y329200D01*
X31853911Y329200D01*
X31841307Y331946D01*
X31833855Y332708D01*
X31833816Y332712D01*
X31666510Y349707D01*
X31538483Y389828D01*
X31421130Y454877D01*
X31319256Y542194D01*
X31237021Y648211D01*
X31177783Y768598D01*
X31142924Y902424D01*
X31132898Y1032709D01*
X31130242Y1046601D01*
X31129200Y1049956D01*
X31129200Y3268577D01*
X32065787Y3268577D01*
X32083928Y3009148D01*
X32085441Y2999141D01*
X32144827Y2745951D01*
X32147921Y2736314D01*
X32247023Y2495874D01*
X32251618Y2486856D01*
X32387886Y2265355D01*
X32393864Y2257188D01*
X32563794Y2060322D01*
X32571001Y2053215D01*
X32770219Y1886051D01*
X32778470Y1880187D01*
X33001853Y1747025D01*
X33010934Y1742556D01*
X33252733Y1646821D01*
X33262412Y1643862D01*
X33516407Y1588018D01*
X33526435Y1586644D01*
X33786090Y1572127D01*
X33796209Y1572374D01*
X34054847Y1599558D01*
X34064795Y1601420D01*
X34315759Y1669606D01*
X34325281Y1673034D01*
X34562116Y1780466D01*
X34570968Y1785373D01*
X34787579Y1929290D01*
X34795532Y1935549D01*
X34986348Y2112245D01*
X34993199Y2119696D01*
X35153308Y2324627D01*
X35158880Y2333076D01*
X35284166Y2560971D01*
X35288315Y2570203D01*
X35375553Y2815195D01*
X35378172Y2824972D01*
X35425178Y3081086D01*
X35426212Y3091819D01*
X35429283Y3385041D01*
X35428474Y3395793D01*
X35386842Y3652836D01*
X35384428Y3662665D01*
X35302340Y3909432D01*
X35298385Y3918749D01*
X35177899Y4149216D01*
X35172506Y4157781D01*
X35016723Y4366020D01*
X35010029Y4373612D01*
X34822957Y4554266D01*
X34815135Y4560691D01*
X34601586Y4709111D01*
X34592839Y4714202D01*
X34358307Y4826572D01*
X34348858Y4830199D01*
X34099376Y4903624D01*
X34089469Y4905694D01*
X33831458Y4938289D01*
X33821347Y4938748D01*
X33561444Y4929672D01*
X33551390Y4928508D01*
X33296281Y4877995D01*
X33286542Y4875240D01*
X33042791Y4784590D01*
X33033618Y4780312D01*
X32807495Y4651857D01*
X32799124Y4646167D01*
X32596449Y4483211D01*
X32589095Y4476257D01*
X32415080Y4282995D01*
X32408932Y4274954D01*
X32268054Y4056354D01*
X32263271Y4047434D01*
X32159156Y3809123D01*
X32155861Y3799554D01*
X32091186Y3547662D01*
X32089463Y3537689D01*
X32065893Y3278698D01*
X32065787Y3268577D01*
X31129200Y3268577D01*
X31129200Y6875345D01*
X31133500Y6903949D01*
X31134015Y6918206D01*
X31133439Y6925681D01*
X31121126Y7085695D01*
X31118470Y7099587D01*
X31116000Y7107542D01*
X31115758Y7115949D01*
X31113730Y7130112D01*
X31111829Y7137386D01*
X31059127Y7339714D01*
X31054052Y7352916D01*
X31048327Y7363938D01*
X31045483Y7376015D01*
X31040734Y7389306D01*
X31037441Y7396035D01*
X31037379Y7396161D01*
X30944992Y7583916D01*
X30937365Y7595830D01*
X30929542Y7605472D01*
X30924289Y7616816D01*
X30916845Y7629036D01*
X30912233Y7634973D01*
X30784086Y7800179D01*
X30774221Y7810315D01*
X30764616Y7818190D01*
X30757221Y7828203D01*
X30747557Y7838603D01*
X30741873Y7843484D01*
X30741829Y7843521D01*
X30582980Y7979671D01*
X30571280Y7987616D01*
X30560285Y7993401D01*
X30551047Y8001704D01*
X30539537Y8009922D01*
X30532992Y8013565D01*
X30532895Y8013618D01*
X30349890Y8115060D01*
X30336830Y8120489D01*
X30324902Y8123943D01*
X30314057Y8130293D01*
X30300855Y8136115D01*
X30293730Y8138326D01*
X30094336Y8200812D01*
X30080450Y8203505D01*
X30068072Y8204490D01*
X30056276Y8208494D01*
X30042386Y8211521D01*
X30034933Y8212283D01*
X30034894Y8212287D01*
X29826760Y8233429D01*
X29812617Y8233274D01*
X29779674Y8229200D01*
X29324655Y8229200D01*
X29296051Y8233500D01*
X29281794Y8234015D01*
X29274342Y8233441D01*
X29114305Y8221126D01*
X29100413Y8218470D01*
X29092458Y8216000D01*
X29084051Y8215758D01*
X29069888Y8213730D01*
X29062614Y8211829D01*
X28860286Y8159127D01*
X28847084Y8154052D01*
X28836062Y8148327D01*
X28823985Y8145483D01*
X28810694Y8140734D01*
X28803965Y8137441D01*
X28803839Y8137379D01*
X28616084Y8044992D01*
X28604170Y8037365D01*
X28594528Y8029542D01*
X28583184Y8024289D01*
X28570964Y8016845D01*
X28565027Y8012233D01*
X28399821Y7884086D01*
X28389685Y7874221D01*
X28381810Y7864616D01*
X28371797Y7857221D01*
X28361397Y7847557D01*
X28356516Y7841873D01*
X28356479Y7841829D01*
X28220329Y7682980D01*
X28212384Y7671280D01*
X28206599Y7660285D01*
X28198296Y7651047D01*
X28190078Y7639537D01*
X28186435Y7632992D01*
X28186382Y7632895D01*
X28084940Y7449890D01*
X28079511Y7436830D01*
X28076057Y7424902D01*
X28069707Y7414057D01*
X28063885Y7400855D01*
X28061674Y7393730D01*
X27999188Y7194336D01*
X27996495Y7180450D01*
X27995510Y7168072D01*
X27991506Y7156276D01*
X27988479Y7142386D01*
X27987717Y7134933D01*
X27987713Y7134894D01*
X27966571Y6926760D01*
X27966726Y6912617D01*
X27970801Y6879666D01*
X27970800Y557842D01*
X27970031Y554900D01*
X27968962Y547486D01*
X27968955Y547435D01*
X27955644Y454488D01*
X27936613Y412630D01*
X27906600Y377799D01*
X27868019Y352792D01*
X27812896Y336307D01*
X27768164Y332983D01*
X27754265Y330363D01*
X27750485Y329200D01*
X21657842Y329200D01*
X21654900Y329969D01*
X21647486Y331038D01*
X21647435Y331045D01*
X21554488Y344356D01*
X21512630Y363387D01*
X21477799Y393400D01*
X21452792Y431981D01*
X21436307Y487104D01*
X21432983Y531836D01*
X21430363Y545735D01*
X21429200Y549515D01*
X21429200Y5589179D01*
X21588977Y5561007D01*
X21611023Y5561007D01*
X21808190Y5595772D01*
X21828907Y5603313D01*
X22002293Y5703418D01*
X22019182Y5717589D01*
X22100000Y5813905D01*
X22180818Y5717589D01*
X22197707Y5703418D01*
X22371093Y5603313D01*
X22391810Y5595772D01*
X22588977Y5561007D01*
X22611023Y5561007D01*
X22808190Y5595772D01*
X22828907Y5603313D01*
X23002293Y5703418D01*
X23019182Y5717589D01*
X23147873Y5870958D01*
X23158896Y5890051D01*
X23227371Y6078184D01*
X23231199Y6099897D01*
X23231199Y6300103D01*
X23227371Y6321816D01*
X23158896Y6509949D01*
X23147873Y6529042D01*
X23019182Y6682411D01*
X23002293Y6696582D01*
X22994700Y6700966D01*
X22994700Y8632688D01*
X22997422Y8640439D01*
X23000634Y8668634D01*
X22994700Y8721959D01*
X22994700Y8737363D01*
X22993118Y8751416D01*
X22989807Y8765931D01*
X22983933Y8818706D01*
X22974571Y8845554D01*
X22969972Y8852885D01*
X22968035Y8861377D01*
X22955729Y8886947D01*
X22922247Y8928964D01*
X22914296Y8941639D01*
X22905448Y8952742D01*
X22894871Y8963319D01*
X22861644Y9005015D01*
X22839467Y9022719D01*
X22831746Y9026443D01*
X21526696Y10331492D01*
X21523137Y10338903D01*
X21505471Y10361112D01*
X21463555Y10394633D01*
X21452674Y10405515D01*
X21441617Y10414334D01*
X21429021Y10422251D01*
X21387546Y10455419D01*
X21361941Y10467783D01*
X21353504Y10469715D01*
X21346130Y10474350D01*
X21319346Y10483730D01*
X21265966Y10489765D01*
X21251381Y10493105D01*
X21237271Y10494700D01*
X21222300Y10494700D01*
X21169333Y10500688D01*
X21141133Y10497525D01*
X21133043Y10494700D01*
X14163491Y10494700D01*
X13608091Y11050098D01*
X13604533Y11057507D01*
X13586867Y11079716D01*
X13544951Y11113237D01*
X13534070Y11124119D01*
X13523013Y11132938D01*
X13510417Y11140855D01*
X13468942Y11174023D01*
X13443337Y11186387D01*
X13434900Y11188319D01*
X13427526Y11192954D01*
X13400742Y11202334D01*
X13347362Y11208369D01*
X13332777Y11211709D01*
X13318667Y11213304D01*
X13303696Y11213304D01*
X13250729Y11219292D01*
X13222529Y11216129D01*
X13214439Y11213304D01*
X12760194Y11213304D01*
X12760194Y11371108D01*
X12756366Y11392821D01*
X12744127Y11426450D01*
X15126855Y11426450D01*
X15126855Y11214910D01*
X15129958Y11195321D01*
X15195327Y10994133D01*
X15204331Y10976462D01*
X15328672Y10805322D01*
X15342696Y10791298D01*
X15513836Y10666957D01*
X15531507Y10657953D01*
X15732695Y10592584D01*
X15752284Y10589481D01*
X15963824Y10589481D01*
X15983413Y10592584D01*
X16184601Y10657953D01*
X16202272Y10666957D01*
X16373412Y10791298D01*
X16387436Y10805322D01*
X16511777Y10976462D01*
X16520781Y10994133D01*
X16586150Y11195321D01*
X16589253Y11214910D01*
X16589253Y11426450D01*
X16586150Y11446039D01*
X16520781Y11647227D01*
X16511777Y11664898D01*
X16387436Y11836038D01*
X16373412Y11850062D01*
X16202272Y11974403D01*
X16184601Y11983407D01*
X15983413Y12048776D01*
X15963824Y12051879D01*
X15752284Y12051879D01*
X15732695Y12048776D01*
X15531507Y11983407D01*
X15513836Y11974403D01*
X15342696Y11850062D01*
X15328672Y11836038D01*
X15204331Y11664898D01*
X15195327Y11647227D01*
X15129958Y11446039D01*
X15126855Y11426450D01*
X12744127Y11426450D01*
X12687891Y11580954D01*
X12676868Y11600047D01*
X12548177Y11753416D01*
X12531288Y11767587D01*
X12357902Y11867692D01*
X12337185Y11875233D01*
X12140018Y11909998D01*
X12117972Y11909998D01*
X11920805Y11875233D01*
X11900088Y11867692D01*
X11726702Y11767587D01*
X11709813Y11753416D01*
X11581122Y11600047D01*
X11570099Y11580954D01*
X11501624Y11392821D01*
X11497796Y11371108D01*
X11497796Y11294700D01*
X10063490Y11294700D01*
X9698284Y11659905D01*
X9694726Y11667314D01*
X9677060Y11689523D01*
X9635144Y11723044D01*
X9624263Y11733926D01*
X9613206Y11742745D01*
X9600610Y11750662D01*
X9559135Y11783830D01*
X9533530Y11796194D01*
X9525093Y11798126D01*
X9517719Y11802761D01*
X9490935Y11812141D01*
X9437555Y11818176D01*
X9422970Y11821516D01*
X9408860Y11823111D01*
X9393889Y11823111D01*
X9340922Y11829099D01*
X9312722Y11825936D01*
X9304632Y11823111D01*
X8485916Y11823111D01*
X8485916Y11828513D01*
X8482088Y11850226D01*
X8413613Y12038359D01*
X8402590Y12057452D01*
X8273899Y12210821D01*
X8257010Y12224992D01*
X8083624Y12325097D01*
X8062907Y12332638D01*
X7865740Y12367403D01*
X7843694Y12367403D01*
X7646527Y12332638D01*
X7625810Y12325097D01*
X7452424Y12224992D01*
X7435535Y12210821D01*
X7306844Y12057452D01*
X7295821Y12038359D01*
X7227346Y11850226D01*
X7223518Y11828513D01*
X7223518Y11734671D01*
X5794700Y13163488D01*
X5794700Y13999034D01*
X5802293Y14003418D01*
X5819182Y14017589D01*
X5947873Y14170958D01*
X5958896Y14190051D01*
X6027371Y14378184D01*
X6031199Y14399897D01*
X6031199Y14586187D01*
X17294463Y14586187D01*
X17296791Y14568385D01*
X17355940Y14356533D01*
X17363171Y14340100D01*
X17479404Y14153365D01*
X17490956Y14139622D01*
X17654927Y13993016D01*
X17669871Y13983068D01*
X17868399Y13888375D01*
X17885535Y13883021D01*
X18102660Y13847855D01*
X18120610Y13847526D01*
X18338878Y13874712D01*
X18356199Y13879434D01*
X18558064Y13966789D01*
X18573363Y13976183D01*
X18742595Y14116683D01*
X18754643Y14129993D01*
X18877640Y14312344D01*
X18885468Y14328500D01*
X18952459Y14538411D01*
X18955453Y14556897D01*
X18958360Y14794824D01*
X18955818Y14813378D01*
X18893976Y15024863D01*
X18886545Y15041206D01*
X18768041Y15226506D01*
X18756322Y15240107D01*
X18590572Y15384700D01*
X18575507Y15394465D01*
X18375837Y15486725D01*
X18358637Y15491869D01*
X18141098Y15524381D01*
X18123145Y15524490D01*
X17905226Y15494639D01*
X17887965Y15489706D01*
X17687182Y15399892D01*
X17671999Y15390312D01*
X17504495Y15247754D01*
X17492610Y15234297D01*
X17371851Y15050458D01*
X17364221Y15034207D01*
X17299912Y14823864D01*
X17297150Y14806124D01*
X17294463Y14586187D01*
X6031199Y14586187D01*
X6031199Y14600103D01*
X6027371Y14621816D01*
X5958896Y14809949D01*
X5947873Y14829042D01*
X5819182Y14982411D01*
X5802293Y14996582D01*
X5628907Y15096687D01*
X5608190Y15104228D01*
X5431199Y15135436D01*
X5431199Y15200103D01*
X5427371Y15221816D01*
X5358896Y15409949D01*
X5347873Y15429042D01*
X5219182Y15582411D01*
X5202293Y15596582D01*
X5028907Y15696687D01*
X5008190Y15704228D01*
X4811023Y15738993D01*
X4788977Y15738993D01*
X4591810Y15704228D01*
X4571093Y15696687D01*
X4397707Y15596582D01*
X4380818Y15582411D01*
X4252127Y15429042D01*
X4241104Y15409949D01*
X4202960Y15305150D01*
X4011023Y15338993D01*
X3988977Y15338993D01*
X3791810Y15304228D01*
X3771093Y15296687D01*
X3597707Y15196582D01*
X3580818Y15182411D01*
X3452127Y15029042D01*
X3441104Y15009949D01*
X3372629Y14821816D01*
X3368801Y14800103D01*
X3368801Y14599897D01*
X3372629Y14578184D01*
X3441104Y14390051D01*
X3452127Y14370958D01*
X3580818Y14217589D01*
X3597707Y14203418D01*
X3771093Y14103313D01*
X3791810Y14095772D01*
X3988977Y14061007D01*
X4011023Y14061007D01*
X4208190Y14095772D01*
X4228907Y14103313D01*
X4402293Y14203418D01*
X4419182Y14217589D01*
X4547873Y14370958D01*
X4558896Y14390051D01*
X4597040Y14494850D01*
X4768801Y14464564D01*
X4768801Y14399897D01*
X4772629Y14378184D01*
X4841104Y14190051D01*
X4852127Y14170958D01*
X4980818Y14017589D01*
X4997707Y14003418D01*
X5005301Y13999034D01*
X5005300Y13067312D01*
X5002578Y13059561D01*
X4999366Y13031366D01*
X5005300Y12978041D01*
X5005300Y12962638D01*
X5006882Y12948585D01*
X5010193Y12934070D01*
X5016067Y12881295D01*
X5025429Y12854447D01*
X5030028Y12847116D01*
X5031965Y12838624D01*
X5044271Y12813054D01*
X5077753Y12771037D01*
X5085703Y12758363D01*
X5094552Y12747259D01*
X5105127Y12736685D01*
X5138355Y12694986D01*
X5160533Y12677281D01*
X5168256Y12673556D01*
X7561912Y10279899D01*
X7563665Y10264143D01*
X7573028Y10237295D01*
X7577627Y10229964D01*
X7579564Y10221471D01*
X7591870Y10195901D01*
X7625352Y10153884D01*
X7633302Y10141210D01*
X7642151Y10130106D01*
X7652726Y10119532D01*
X7685954Y10077833D01*
X7708132Y10060128D01*
X7715855Y10056403D01*
X8155215Y9617043D01*
X8131357Y9603269D01*
X8114468Y9589098D01*
X7985777Y9435729D01*
X7974754Y9416636D01*
X7906279Y9228503D01*
X7902451Y9206790D01*
X7902451Y9006584D01*
X7906279Y8984871D01*
X7974754Y8796738D01*
X7985777Y8777645D01*
X8114468Y8624276D01*
X8131357Y8610105D01*
X8304743Y8510000D01*
X8325460Y8502459D01*
X8522627Y8467694D01*
X8544673Y8467694D01*
X8741840Y8502459D01*
X8762557Y8510000D01*
X8935943Y8610105D01*
X8952832Y8624276D01*
X9041870Y8730387D01*
X9108563Y8663694D01*
X9112120Y8656286D01*
X9129786Y8634077D01*
X9171697Y8600560D01*
X9182581Y8589675D01*
X9193637Y8580857D01*
X9206235Y8572938D01*
X9247712Y8539769D01*
X9273317Y8527406D01*
X9281753Y8525474D01*
X9289127Y8520839D01*
X9315911Y8511459D01*
X9369291Y8505424D01*
X9383876Y8502084D01*
X9397986Y8500489D01*
X9412957Y8500489D01*
X9459817Y8495191D01*
X9372817Y8444962D01*
X9355928Y8430791D01*
X9227237Y8277422D01*
X9216214Y8258329D01*
X9147739Y8070196D01*
X9143911Y8048483D01*
X9143911Y7848277D01*
X9147739Y7826564D01*
X9216214Y7638431D01*
X9227237Y7619338D01*
X9355928Y7465969D01*
X9372817Y7451798D01*
X9546203Y7351693D01*
X9566920Y7344152D01*
X9764087Y7309387D01*
X9786133Y7309387D01*
X9983300Y7344152D01*
X10004017Y7351693D01*
X10177403Y7451798D01*
X10194292Y7465969D01*
X10276422Y7563848D01*
X10343225Y7380308D01*
X10354248Y7361215D01*
X10482939Y7207846D01*
X10499828Y7193675D01*
X10673214Y7093570D01*
X10693931Y7086029D01*
X10891098Y7051264D01*
X10913144Y7051264D01*
X11110311Y7086029D01*
X11131028Y7093570D01*
X11304414Y7193675D01*
X11321303Y7207846D01*
X11449994Y7361215D01*
X11461017Y7380308D01*
X11491658Y7464493D01*
X11609950Y7323517D01*
X11626839Y7309346D01*
X11800225Y7209241D01*
X11820942Y7201700D01*
X12018109Y7166935D01*
X12040155Y7166935D01*
X12237322Y7201700D01*
X12258039Y7209241D01*
X12431425Y7309346D01*
X12448314Y7323517D01*
X12577005Y7476886D01*
X12588028Y7495979D01*
X12656503Y7684112D01*
X12660331Y7705825D01*
X12660331Y7906031D01*
X12656503Y7927744D01*
X12588028Y8115877D01*
X12577005Y8134970D01*
X12448314Y8288339D01*
X12431425Y8302510D01*
X12258039Y8402615D01*
X12237322Y8410156D01*
X12040155Y8444921D01*
X12018109Y8444921D01*
X11820942Y8410156D01*
X11800225Y8402615D01*
X11774810Y8387942D01*
X11794771Y8442784D01*
X11798599Y8464497D01*
X11798599Y8622301D01*
X12177110Y8622301D01*
X12730907Y8068504D01*
X12734463Y8061097D01*
X12752129Y8038888D01*
X12794040Y8005371D01*
X12804924Y7994486D01*
X12815980Y7985668D01*
X12828578Y7977749D01*
X12870055Y7944580D01*
X12895660Y7932217D01*
X12904096Y7930285D01*
X12911470Y7925650D01*
X12938254Y7916270D01*
X12991634Y7910235D01*
X13006219Y7906895D01*
X13020329Y7905300D01*
X13035300Y7905300D01*
X13088267Y7899312D01*
X13116467Y7902475D01*
X13124557Y7905300D01*
X15039412Y7905300D01*
X14972629Y7721816D01*
X14968801Y7700103D01*
X14968801Y7499897D01*
X14972629Y7478184D01*
X15041104Y7290051D01*
X15052127Y7270958D01*
X15180818Y7117589D01*
X15197707Y7103418D01*
X15371093Y7003313D01*
X15391810Y6995772D01*
X15588977Y6961007D01*
X15611023Y6961007D01*
X15808190Y6995772D01*
X15828907Y7003313D01*
X16002293Y7103418D01*
X16019182Y7117589D01*
X16097227Y7210601D01*
X16141104Y7090051D01*
X16152127Y7070958D01*
X16280818Y6917589D01*
X16297707Y6903418D01*
X16471093Y6803313D01*
X16491810Y6795772D01*
X16688977Y6761007D01*
X16711023Y6761007D01*
X16908190Y6795772D01*
X16928907Y6803313D01*
X17102293Y6903418D01*
X17119182Y6917589D01*
X17247873Y7070958D01*
X17258896Y7090051D01*
X17327371Y7278184D01*
X17331199Y7299897D01*
X17331199Y7500103D01*
X17327371Y7521816D01*
X17258896Y7709949D01*
X17247873Y7729042D01*
X17119182Y7882411D01*
X17116984Y7884255D01*
X17259293Y7966418D01*
X17276182Y7980589D01*
X17404873Y8133958D01*
X17415896Y8153051D01*
X17417353Y8157054D01*
X17479404Y8057365D01*
X17490956Y8043622D01*
X17654927Y7897016D01*
X17669871Y7887068D01*
X17868399Y7792375D01*
X17885535Y7787021D01*
X18102660Y7751855D01*
X18120610Y7751526D01*
X18338878Y7778712D01*
X18356199Y7783434D01*
X18558064Y7870789D01*
X18573363Y7880183D01*
X18742595Y8020683D01*
X18754643Y8033993D01*
X18877640Y8216344D01*
X18885468Y8232500D01*
X18952459Y8442411D01*
X18955453Y8460897D01*
X18958360Y8698824D01*
X18955818Y8717378D01*
X18893976Y8928863D01*
X18886545Y8945206D01*
X18768041Y9130506D01*
X18756322Y9144107D01*
X18722653Y9173478D01*
X20848517Y9173478D01*
X21205301Y8816693D01*
X21205300Y7623723D01*
X21139035Y7718361D01*
X21129676Y7728967D01*
X21120468Y7737302D01*
X21113534Y7747718D01*
X21104292Y7758671D01*
X21098815Y7763839D01*
X20954278Y7900520D01*
X20942978Y7909026D01*
X20932284Y7915338D01*
X20923443Y7924102D01*
X20912305Y7932899D01*
X20905943Y7936853D01*
X20905891Y7936885D01*
X20736669Y8041806D01*
X20723890Y8047867D01*
X20712139Y8051902D01*
X20701732Y8058699D01*
X20689078Y8065068D01*
X20682052Y8067664D01*
X20681971Y8067694D01*
X20495096Y8136451D01*
X20481358Y8139819D01*
X20469040Y8141408D01*
X20457400Y8146005D01*
X20443559Y8149724D01*
X20436113Y8150841D01*
X20239423Y8180589D01*
X20225287Y8181126D01*
X20212900Y8180205D01*
X20200621Y8182359D01*
X20186405Y8183224D01*
X20178923Y8182833D01*
X20178910Y8182833D01*
X19980099Y8172413D01*
X19966147Y8170097D01*
X19954203Y8166706D01*
X19941700Y8166346D01*
X19927537Y8164318D01*
X19920264Y8162417D01*
X19727714Y8112262D01*
X19714512Y8107187D01*
X19703492Y8101462D01*
X19691339Y8098601D01*
X19677908Y8093783D01*
X19671206Y8090483D01*
X19671206Y8090484D01*
X19492581Y8002589D01*
X19480669Y7994964D01*
X19471024Y7987140D01*
X19459727Y7981908D01*
X19447592Y7974530D01*
X19441669Y7969943D01*
X19441626Y7969910D01*
X19284302Y7847877D01*
X19274165Y7838011D01*
X19266289Y7828406D01*
X19256225Y7820972D01*
X19245738Y7811208D01*
X19240942Y7805598D01*
X19111387Y7654443D01*
X19103442Y7642743D01*
X19097657Y7631748D01*
X19089303Y7622453D01*
X19081011Y7610810D01*
X19077414Y7604310D01*
X18980899Y7430192D01*
X18975469Y7417132D01*
X18972015Y7405205D01*
X18965678Y7394382D01*
X18959871Y7381228D01*
X18957626Y7374016D01*
X18898167Y7184282D01*
X18895474Y7170396D01*
X18894489Y7158017D01*
X18890485Y7146221D01*
X18887458Y7132331D01*
X18886696Y7124878D01*
X18886692Y7124838D01*
X18866572Y6926759D01*
X18866727Y6912615D01*
X18870801Y6879675D01*
X18870800Y557848D01*
X18870030Y554901D01*
X18868961Y547486D01*
X18868954Y547435D01*
X18855643Y454488D01*
X18836612Y412630D01*
X18806603Y377803D01*
X18768015Y352792D01*
X18712895Y336308D01*
X18668164Y332983D01*
X18654264Y330363D01*
X18650483Y329200D01*
X8557842Y329200D01*
X8554900Y329969D01*
X8547486Y331038D01*
X8547435Y331045D01*
X8454488Y344356D01*
X8412630Y363387D01*
X8377799Y393400D01*
X8352792Y431981D01*
X8336307Y487104D01*
X8332983Y531836D01*
X8330363Y545735D01*
X8329200Y549515D01*
X8329200Y6875345D01*
X8333500Y6903949D01*
X8334015Y6918206D01*
X8333439Y6925681D01*
X8321126Y7085695D01*
X8318470Y7099587D01*
X8316000Y7107542D01*
X8315758Y7115949D01*
X8313730Y7130112D01*
X8311829Y7137386D01*
X8259127Y7339714D01*
X8254052Y7352916D01*
X8248327Y7363938D01*
X8245483Y7376015D01*
X8240734Y7389306D01*
X8237441Y7396035D01*
X8237379Y7396161D01*
X8144992Y7583916D01*
X8137365Y7595830D01*
X8129542Y7605472D01*
X8124289Y7616816D01*
X8116845Y7629036D01*
X8112233Y7634973D01*
X7984086Y7800179D01*
X7974221Y7810315D01*
X7964616Y7818190D01*
X7957221Y7828203D01*
X7947557Y7838603D01*
X7941873Y7843484D01*
X7941829Y7843521D01*
X7782980Y7979671D01*
X7771280Y7987616D01*
X7760285Y7993401D01*
X7751047Y8001704D01*
X7739537Y8009922D01*
X7732992Y8013565D01*
X7732895Y8013618D01*
X7549890Y8115060D01*
X7536830Y8120489D01*
X7524902Y8123943D01*
X7514057Y8130293D01*
X7500855Y8136115D01*
X7493730Y8138326D01*
X7294336Y8200812D01*
X7280450Y8203505D01*
X7268072Y8204490D01*
X7256276Y8208494D01*
X7242386Y8211521D01*
X7234933Y8212283D01*
X7234894Y8212287D01*
X7026760Y8233429D01*
X7012617Y8233274D01*
X6979674Y8229200D01*
X6624655Y8229200D01*
X6596051Y8233500D01*
X6581794Y8234015D01*
X6574342Y8233441D01*
X6414305Y8221126D01*
X6400413Y8218470D01*
X6392458Y8216000D01*
X6384051Y8215758D01*
X6369888Y8213730D01*
X6362614Y8211829D01*
X6160286Y8159127D01*
X6147084Y8154052D01*
X6136062Y8148327D01*
X6123985Y8145483D01*
X6110694Y8140734D01*
X6103965Y8137441D01*
X6103839Y8137379D01*
X5916084Y8044992D01*
X5904170Y8037365D01*
X5894528Y8029542D01*
X5883184Y8024289D01*
X5870964Y8016845D01*
X5865027Y8012233D01*
X5699821Y7884086D01*
X5689685Y7874221D01*
X5681810Y7864616D01*
X5671797Y7857221D01*
X5661397Y7847557D01*
X5656516Y7841873D01*
X5656479Y7841829D01*
X5520329Y7682980D01*
X5512384Y7671280D01*
X5506599Y7660285D01*
X5498296Y7651047D01*
X5490078Y7639537D01*
X5486435Y7632992D01*
X5486382Y7632895D01*
X5384940Y7449890D01*
X5379511Y7436830D01*
X5376057Y7424902D01*
X5369707Y7414057D01*
X5363885Y7400855D01*
X5361674Y7393730D01*
X5299188Y7194336D01*
X5296495Y7180450D01*
X5295510Y7168072D01*
X5291506Y7156276D01*
X5288479Y7142386D01*
X5287717Y7134933D01*
X5287713Y7134894D01*
X5266571Y6926760D01*
X5266726Y6912617D01*
X5270800Y6879674D01*
X5270801Y1053915D01*
X5268054Y1041307D01*
X5267292Y1033855D01*
X5267288Y1033816D01*
X5250293Y866510D01*
X5210172Y738483D01*
X5145123Y621130D01*
X5057806Y519256D01*
X4951789Y437021D01*
X4831402Y377783D01*
X4697576Y342924D01*
X4567291Y332898D01*
X4553399Y330242D01*
X4550044Y329200D01*
X1053911Y329200D01*
X1041307Y331946D01*
X1033855Y332708D01*
X1033816Y332712D01*
X866510Y349707D01*
X738483Y389828D01*
X621130Y454877D01*
X519256Y542194D01*
X437021Y648211D01*
X377783Y768598D01*
X342924Y902424D01*
X332898Y1032709D01*
X330242Y1046601D01*
X329200Y1049956D01*
X329200Y3268577D01*
X1115787Y3268577D01*
X1133928Y3009148D01*
X1135441Y2999141D01*
X1194827Y2745951D01*
X1197921Y2736314D01*
X1297023Y2495874D01*
X1301618Y2486856D01*
X1437886Y2265355D01*
X1443864Y2257188D01*
X1613794Y2060322D01*
X1621001Y2053215D01*
X1820219Y1886051D01*
X1828470Y1880187D01*
X2051853Y1747025D01*
X2060934Y1742556D01*
X2302733Y1646821D01*
X2312412Y1643862D01*
X2566407Y1588018D01*
X2576435Y1586644D01*
X2836090Y1572127D01*
X2846209Y1572374D01*
X3104847Y1599558D01*
X3114795Y1601420D01*
X3365759Y1669606D01*
X3375281Y1673034D01*
X3612116Y1780466D01*
X3620968Y1785373D01*
X3837579Y1929290D01*
X3845532Y1935549D01*
X4036348Y2112245D01*
X4043199Y2119696D01*
X4203308Y2324627D01*
X4208880Y2333076D01*
X4334166Y2560971D01*
X4338315Y2570203D01*
X4425553Y2815195D01*
X4428172Y2824972D01*
X4475178Y3081086D01*
X4476212Y3091819D01*
X4479283Y3385041D01*
X4478474Y3395793D01*
X4436842Y3652836D01*
X4434428Y3662665D01*
X4352340Y3909432D01*
X4348385Y3918749D01*
X4227899Y4149216D01*
X4222506Y4157781D01*
X4066723Y4366020D01*
X4060029Y4373612D01*
X3872957Y4554266D01*
X3865135Y4560691D01*
X3651586Y4709111D01*
X3642839Y4714202D01*
X3408307Y4826572D01*
X3398858Y4830199D01*
X3149376Y4903624D01*
X3139469Y4905694D01*
X2881458Y4938289D01*
X2871347Y4938748D01*
X2611444Y4929672D01*
X2601390Y4928508D01*
X2346281Y4877995D01*
X2336542Y4875240D01*
X2092791Y4784590D01*
X2083618Y4780312D01*
X1857495Y4651857D01*
X1849124Y4646167D01*
X1646449Y4483211D01*
X1639095Y4476257D01*
X1465080Y4282995D01*
X1458932Y4274954D01*
X1318054Y4056354D01*
X1313271Y4047434D01*
X1209156Y3809123D01*
X1205861Y3799554D01*
X1141186Y3547662D01*
X1139463Y3537689D01*
X1115893Y3278698D01*
X1115787Y3268577D01*
X329200Y3268577D01*
X329200Y17126187D01*
X7896463Y17126187D01*
X7898791Y17108385D01*
X7957940Y16896533D01*
X7965171Y16880100D01*
X8081404Y16693365D01*
X8092956Y16679622D01*
X8256927Y16533016D01*
X8271871Y16523068D01*
X8470399Y16428375D01*
X8487535Y16423021D01*
X8704660Y16387855D01*
X8722610Y16387526D01*
X8940878Y16414712D01*
X8958199Y16419434D01*
X9160064Y16506789D01*
X9175363Y16516183D01*
X9344595Y16656683D01*
X9356643Y16669993D01*
X9370881Y16691103D01*
X16606801Y16691103D01*
X16606801Y16490897D01*
X16610629Y16469184D01*
X16679104Y16281051D01*
X16690127Y16261958D01*
X16818818Y16108589D01*
X16835707Y16094418D01*
X17009093Y15994313D01*
X17029810Y15986772D01*
X17226977Y15952007D01*
X17249023Y15952007D01*
X17446190Y15986772D01*
X17466907Y15994313D01*
X17640293Y16094418D01*
X17657182Y16108589D01*
X17785873Y16261958D01*
X17796896Y16281051D01*
X17865371Y16469184D01*
X17869199Y16490897D01*
X17869199Y16691103D01*
X17865371Y16712816D01*
X17796896Y16900949D01*
X17785873Y16920042D01*
X17764845Y16945103D01*
X19019801Y16945103D01*
X19019801Y16744897D01*
X19023629Y16723184D01*
X19092104Y16535051D01*
X19103127Y16515958D01*
X19231818Y16362589D01*
X19248707Y16348418D01*
X19422093Y16248313D01*
X19442810Y16240772D01*
X19639977Y16206007D01*
X19662023Y16206007D01*
X19859190Y16240772D01*
X19879907Y16248313D01*
X20053293Y16348418D01*
X20070182Y16362589D01*
X20155996Y16464859D01*
X20311093Y16375313D01*
X20331810Y16367772D01*
X20528977Y16333007D01*
X20551023Y16333007D01*
X20748190Y16367772D01*
X20768907Y16375313D01*
X20942293Y16475418D01*
X20959182Y16489589D01*
X21087873Y16642958D01*
X21098896Y16662051D01*
X21167371Y16850184D01*
X21171199Y16871897D01*
X21171199Y17072103D01*
X21167371Y17093816D01*
X21109365Y17253187D01*
X26692463Y17253187D01*
X26694791Y17235385D01*
X26753940Y17023533D01*
X26761171Y17007100D01*
X26877404Y16820365D01*
X26888956Y16806622D01*
X27052927Y16660016D01*
X27067871Y16650068D01*
X27266399Y16555375D01*
X27283535Y16550021D01*
X27500660Y16514855D01*
X27518610Y16514526D01*
X27736878Y16541712D01*
X27754199Y16546434D01*
X27956064Y16633789D01*
X27971363Y16643183D01*
X28140595Y16783683D01*
X28152643Y16796993D01*
X28275640Y16979344D01*
X28283468Y16995500D01*
X28350459Y17205411D01*
X28353453Y17223897D01*
X28356360Y17461824D01*
X28353818Y17480378D01*
X28291976Y17691863D01*
X28284545Y17708206D01*
X28166041Y17893506D01*
X28154322Y17907107D01*
X27988572Y18051700D01*
X27973507Y18061465D01*
X27773837Y18153725D01*
X27756637Y18158869D01*
X27539098Y18191381D01*
X27521145Y18191490D01*
X27303226Y18161639D01*
X27285965Y18156706D01*
X27085182Y18066892D01*
X27069999Y18057312D01*
X26902495Y17914754D01*
X26890610Y17901297D01*
X26769851Y17717458D01*
X26762221Y17701207D01*
X26697912Y17490864D01*
X26695150Y17473124D01*
X26692463Y17253187D01*
X21109365Y17253187D01*
X21098896Y17281949D01*
X21087873Y17301042D01*
X20959182Y17454411D01*
X20942293Y17468582D01*
X20768907Y17568687D01*
X20748190Y17576228D01*
X20551023Y17610993D01*
X20528977Y17610993D01*
X20331810Y17576228D01*
X20311093Y17568687D01*
X20137707Y17468582D01*
X20120818Y17454411D01*
X20035004Y17352141D01*
X19879907Y17441687D01*
X19859190Y17449228D01*
X19662023Y17483993D01*
X19639977Y17483993D01*
X19442810Y17449228D01*
X19422093Y17441687D01*
X19248707Y17341582D01*
X19231818Y17327411D01*
X19103127Y17174042D01*
X19092104Y17154949D01*
X19023629Y16966816D01*
X19019801Y16945103D01*
X17764845Y16945103D01*
X17657182Y17073411D01*
X17640293Y17087582D01*
X17466907Y17187687D01*
X17446190Y17195228D01*
X17249023Y17229993D01*
X17226977Y17229993D01*
X17029810Y17195228D01*
X17009093Y17187687D01*
X16835707Y17087582D01*
X16818818Y17073411D01*
X16690127Y16920042D01*
X16679104Y16900949D01*
X16610629Y16712816D01*
X16606801Y16691103D01*
X9370881Y16691103D01*
X9479640Y16852344D01*
X9487468Y16868500D01*
X9554459Y17078411D01*
X9557453Y17096897D01*
X9560360Y17334824D01*
X9557818Y17353378D01*
X9495976Y17564863D01*
X9488545Y17581206D01*
X9370041Y17766506D01*
X9358322Y17780107D01*
X9192572Y17924700D01*
X9177507Y17934465D01*
X8977837Y18026725D01*
X8960637Y18031869D01*
X8743098Y18064381D01*
X8725145Y18064490D01*
X8507226Y18034639D01*
X8489965Y18029706D01*
X8289182Y17939892D01*
X8273999Y17930312D01*
X8106495Y17787754D01*
X8094610Y17774297D01*
X7973851Y17590458D01*
X7966221Y17574207D01*
X7901912Y17363864D01*
X7899150Y17346124D01*
X7896463Y17126187D01*
X329200Y17126187D01*
X329200Y18269187D01*
X9547463Y18269187D01*
X9549791Y18251385D01*
X9608940Y18039533D01*
X9616171Y18023100D01*
X9732404Y17836365D01*
X9743956Y17822622D01*
X9907927Y17676016D01*
X9922871Y17666068D01*
X10121399Y17571375D01*
X10138535Y17566021D01*
X10355660Y17530855D01*
X10373610Y17530526D01*
X10591878Y17557712D01*
X10609199Y17562434D01*
X10811064Y17649789D01*
X10826363Y17659183D01*
X10995595Y17799683D01*
X11007643Y17812993D01*
X11130640Y17995344D01*
X11138468Y18011500D01*
X11205459Y18221411D01*
X11208453Y18239897D01*
X11211360Y18477824D01*
X11208818Y18496378D01*
X11146976Y18707863D01*
X11139545Y18724206D01*
X11105663Y18777187D01*
X25041463Y18777187D01*
X25043791Y18759385D01*
X25102940Y18547533D01*
X25110171Y18531100D01*
X25226404Y18344365D01*
X25237956Y18330622D01*
X25401927Y18184016D01*
X25416871Y18174068D01*
X25615399Y18079375D01*
X25632535Y18074021D01*
X25849660Y18038855D01*
X25867610Y18038526D01*
X26085878Y18065712D01*
X26103199Y18070434D01*
X26305064Y18157789D01*
X26320363Y18167183D01*
X26489595Y18307683D01*
X26501643Y18320993D01*
X26624640Y18503344D01*
X26632468Y18519500D01*
X26699459Y18729411D01*
X26702453Y18747897D01*
X26705360Y18985824D01*
X26702818Y19004378D01*
X26640976Y19215863D01*
X26633545Y19232206D01*
X26515041Y19417506D01*
X26503322Y19431107D01*
X26337572Y19575700D01*
X26322507Y19585465D01*
X26122837Y19677725D01*
X26105637Y19682869D01*
X25888098Y19715381D01*
X25870145Y19715490D01*
X25652226Y19685639D01*
X25634965Y19680706D01*
X25434182Y19590892D01*
X25418999Y19581312D01*
X25251495Y19438754D01*
X25239610Y19425297D01*
X25118851Y19241458D01*
X25111221Y19225207D01*
X25046912Y19014864D01*
X25044150Y18997124D01*
X25041463Y18777187D01*
X11105663Y18777187D01*
X11021041Y18909506D01*
X11009322Y18923107D01*
X10843572Y19067700D01*
X10828507Y19077465D01*
X10628837Y19169725D01*
X10611637Y19174869D01*
X10394098Y19207381D01*
X10376145Y19207490D01*
X10158226Y19177639D01*
X10140965Y19172706D01*
X9940182Y19082892D01*
X9924999Y19073312D01*
X9757495Y18930754D01*
X9745610Y18917297D01*
X9624851Y18733458D01*
X9617221Y18717207D01*
X9552912Y18506864D01*
X9550150Y18489124D01*
X9547463Y18269187D01*
X329200Y18269187D01*
X329200Y19793187D01*
X8277463Y19793187D01*
X8279791Y19775385D01*
X8338940Y19563533D01*
X8346171Y19547100D01*
X8462404Y19360365D01*
X8473956Y19346622D01*
X8637927Y19200016D01*
X8652871Y19190068D01*
X8851399Y19095375D01*
X8868535Y19090021D01*
X9085660Y19054855D01*
X9103610Y19054526D01*
X9321878Y19081712D01*
X9339199Y19086434D01*
X9541064Y19173789D01*
X9556363Y19183183D01*
X9725595Y19323683D01*
X9737643Y19336993D01*
X9860640Y19519344D01*
X9868468Y19535500D01*
X9935459Y19745411D01*
X9938453Y19763897D01*
X9941360Y20001824D01*
X9938818Y20020378D01*
X9876976Y20231863D01*
X9869545Y20248206D01*
X9751041Y20433506D01*
X9739322Y20447107D01*
X9573572Y20591700D01*
X9558507Y20601465D01*
X9358837Y20693725D01*
X9341637Y20698869D01*
X9124098Y20731381D01*
X9106145Y20731490D01*
X8888226Y20701639D01*
X8870965Y20696706D01*
X8670182Y20606892D01*
X8654999Y20597312D01*
X8487495Y20454754D01*
X8475610Y20441297D01*
X8354851Y20257458D01*
X8347221Y20241207D01*
X8282912Y20030864D01*
X8280150Y20013124D01*
X8277463Y19793187D01*
X329200Y19793187D01*
X329200Y21107987D01*
X9547463Y21107987D01*
X9549791Y21090185D01*
X9608940Y20878333D01*
X9616171Y20861900D01*
X9732404Y20675165D01*
X9743956Y20661422D01*
X9907927Y20514816D01*
X9922871Y20504868D01*
X10121399Y20410175D01*
X10138535Y20404821D01*
X10355660Y20369655D01*
X10373610Y20369326D01*
X10591878Y20396512D01*
X10609199Y20401234D01*
X10671483Y20428187D01*
X16151463Y20428187D01*
X16153791Y20410385D01*
X16212940Y20198533D01*
X16220171Y20182100D01*
X16336404Y19995365D01*
X16347956Y19981622D01*
X16511927Y19835016D01*
X16526871Y19825068D01*
X16725399Y19730375D01*
X16742535Y19725021D01*
X16959660Y19689855D01*
X16977610Y19689526D01*
X17195878Y19716712D01*
X17213199Y19721434D01*
X17415064Y19808789D01*
X17430363Y19818183D01*
X17599595Y19958683D01*
X17611643Y19971993D01*
X17734640Y20154344D01*
X17742468Y20170500D01*
X17809459Y20380411D01*
X17812453Y20398897D01*
X17812810Y20428187D01*
X18183463Y20428187D01*
X18185791Y20410385D01*
X18244940Y20198533D01*
X18252171Y20182100D01*
X18368404Y19995365D01*
X18379956Y19981622D01*
X18543927Y19835016D01*
X18558871Y19825068D01*
X18757399Y19730375D01*
X18774535Y19725021D01*
X18991660Y19689855D01*
X19009610Y19689526D01*
X19227878Y19716712D01*
X19245199Y19721434D01*
X19447064Y19808789D01*
X19462363Y19818183D01*
X19631595Y19958683D01*
X19643643Y19971993D01*
X19766640Y20154344D01*
X19774468Y20170500D01*
X19775644Y20174187D01*
X26438463Y20174187D01*
X26440791Y20156385D01*
X26499940Y19944533D01*
X26507171Y19928100D01*
X26623404Y19741365D01*
X26634956Y19727622D01*
X26798927Y19581016D01*
X26813871Y19571068D01*
X27012399Y19476375D01*
X27029535Y19471021D01*
X27246660Y19435855D01*
X27264610Y19435526D01*
X27482878Y19462712D01*
X27500199Y19467434D01*
X27702064Y19554789D01*
X27717363Y19564183D01*
X27886595Y19704683D01*
X27898643Y19717993D01*
X28021640Y19900344D01*
X28029468Y19916500D01*
X28096459Y20126411D01*
X28099453Y20144897D01*
X28102360Y20382824D01*
X28099818Y20401378D01*
X28037976Y20612863D01*
X28030545Y20629206D01*
X27912041Y20814506D01*
X27900322Y20828107D01*
X27734572Y20972700D01*
X27719507Y20982465D01*
X27519837Y21074725D01*
X27502637Y21079869D01*
X27285098Y21112381D01*
X27267145Y21112490D01*
X27049226Y21082639D01*
X27031965Y21077706D01*
X26831182Y20987892D01*
X26815999Y20978312D01*
X26648495Y20835754D01*
X26636610Y20822297D01*
X26515851Y20638458D01*
X26508221Y20622207D01*
X26443912Y20411864D01*
X26441150Y20394124D01*
X26438463Y20174187D01*
X19775644Y20174187D01*
X19841459Y20380411D01*
X19844453Y20398897D01*
X19847360Y20636824D01*
X19844818Y20655378D01*
X19782976Y20866863D01*
X19775545Y20883206D01*
X19657041Y21068506D01*
X19645322Y21082107D01*
X19479572Y21226700D01*
X19464507Y21236465D01*
X19264837Y21328725D01*
X19247637Y21333869D01*
X19030098Y21366381D01*
X19012145Y21366490D01*
X18794226Y21336639D01*
X18776965Y21331706D01*
X18576182Y21241892D01*
X18560999Y21232312D01*
X18393495Y21089754D01*
X18381610Y21076297D01*
X18260851Y20892458D01*
X18253221Y20876207D01*
X18188912Y20665864D01*
X18186150Y20648124D01*
X18183463Y20428187D01*
X17812810Y20428187D01*
X17815360Y20636824D01*
X17812818Y20655378D01*
X17750976Y20866863D01*
X17743545Y20883206D01*
X17625041Y21068506D01*
X17613322Y21082107D01*
X17447572Y21226700D01*
X17432507Y21236465D01*
X17232837Y21328725D01*
X17215637Y21333869D01*
X16998098Y21366381D01*
X16980145Y21366490D01*
X16762226Y21336639D01*
X16744965Y21331706D01*
X16544182Y21241892D01*
X16528999Y21232312D01*
X16361495Y21089754D01*
X16349610Y21076297D01*
X16228851Y20892458D01*
X16221221Y20876207D01*
X16156912Y20665864D01*
X16154150Y20648124D01*
X16151463Y20428187D01*
X10671483Y20428187D01*
X10811064Y20488589D01*
X10826363Y20497983D01*
X10995595Y20638483D01*
X11007643Y20651793D01*
X11130640Y20834144D01*
X11138468Y20850300D01*
X11205459Y21060211D01*
X11208453Y21078697D01*
X11211360Y21316624D01*
X11208818Y21335178D01*
X11146976Y21546663D01*
X11139545Y21563006D01*
X11021041Y21748306D01*
X11009322Y21761907D01*
X10843572Y21906500D01*
X10828507Y21916265D01*
X10750765Y21952187D01*
X14627463Y21952187D01*
X14629791Y21934385D01*
X14688940Y21722533D01*
X14696171Y21706100D01*
X14812404Y21519365D01*
X14823956Y21505622D01*
X14987927Y21359016D01*
X15002871Y21349068D01*
X15201399Y21254375D01*
X15218535Y21249021D01*
X15435660Y21213855D01*
X15453610Y21213526D01*
X15671878Y21240712D01*
X15689199Y21245434D01*
X15891064Y21332789D01*
X15906363Y21342183D01*
X16075595Y21482683D01*
X16087643Y21495993D01*
X16210640Y21678344D01*
X16218468Y21694500D01*
X16285459Y21904411D01*
X16288453Y21922897D01*
X16288810Y21952187D01*
X19707463Y21952187D01*
X19709791Y21934385D01*
X19768940Y21722533D01*
X19776171Y21706100D01*
X19892404Y21519365D01*
X19903956Y21505622D01*
X20067927Y21359016D01*
X20082871Y21349068D01*
X20281399Y21254375D01*
X20298535Y21249021D01*
X20515660Y21213855D01*
X20533610Y21213526D01*
X20751878Y21240712D01*
X20769199Y21245434D01*
X20971064Y21332789D01*
X20986363Y21342183D01*
X21055265Y21399387D01*
X25041463Y21399387D01*
X25043791Y21381585D01*
X25102940Y21169733D01*
X25110171Y21153300D01*
X25226404Y20966565D01*
X25237956Y20952822D01*
X25401927Y20806216D01*
X25416871Y20796268D01*
X25615399Y20701575D01*
X25632535Y20696221D01*
X25849660Y20661055D01*
X25867610Y20660726D01*
X26085878Y20687912D01*
X26103199Y20692634D01*
X26305064Y20779989D01*
X26320363Y20789383D01*
X26489595Y20929883D01*
X26501643Y20943193D01*
X26624640Y21125544D01*
X26632468Y21141700D01*
X26699459Y21351611D01*
X26702453Y21370097D01*
X26705360Y21608024D01*
X26702818Y21626578D01*
X26640976Y21838063D01*
X26633545Y21854406D01*
X26515041Y22039706D01*
X26503322Y22053307D01*
X26337572Y22197900D01*
X26322507Y22207665D01*
X26122837Y22299925D01*
X26105637Y22305069D01*
X25888098Y22337581D01*
X25870145Y22337690D01*
X25652226Y22307839D01*
X25634965Y22302906D01*
X25434182Y22213092D01*
X25418999Y22203512D01*
X25251495Y22060954D01*
X25239610Y22047497D01*
X25118851Y21863658D01*
X25111221Y21847407D01*
X25046912Y21637064D01*
X25044150Y21619324D01*
X25041463Y21399387D01*
X21055265Y21399387D01*
X21155595Y21482683D01*
X21167643Y21495993D01*
X21290640Y21678344D01*
X21298468Y21694500D01*
X21365459Y21904411D01*
X21368453Y21922897D01*
X21371360Y22160824D01*
X21368818Y22179378D01*
X21306976Y22390863D01*
X21299545Y22407206D01*
X21181041Y22592506D01*
X21169322Y22606107D01*
X21045428Y22714187D01*
X26311463Y22714187D01*
X26313791Y22696385D01*
X26372940Y22484533D01*
X26380171Y22468100D01*
X26496404Y22281365D01*
X26507956Y22267622D01*
X26671927Y22121016D01*
X26686871Y22111068D01*
X26885399Y22016375D01*
X26902535Y22011021D01*
X27119660Y21975855D01*
X27137610Y21975526D01*
X27355878Y22002712D01*
X27373199Y22007434D01*
X27575064Y22094789D01*
X27590363Y22104183D01*
X27759595Y22244683D01*
X27771643Y22257993D01*
X27894640Y22440344D01*
X27902468Y22456500D01*
X27969459Y22666411D01*
X27972453Y22684897D01*
X27975360Y22922824D01*
X27972818Y22941378D01*
X27910976Y23152863D01*
X27903545Y23169206D01*
X27785041Y23354506D01*
X27773322Y23368107D01*
X27607572Y23512700D01*
X27592507Y23522465D01*
X27392837Y23614725D01*
X27375637Y23619869D01*
X27158098Y23652381D01*
X27140145Y23652490D01*
X26922226Y23622639D01*
X26904965Y23617706D01*
X26704182Y23527892D01*
X26688999Y23518312D01*
X26521495Y23375754D01*
X26509610Y23362297D01*
X26388851Y23178458D01*
X26381221Y23162207D01*
X26316912Y22951864D01*
X26314150Y22934124D01*
X26311463Y22714187D01*
X21045428Y22714187D01*
X21003572Y22750700D01*
X20988507Y22760465D01*
X20788837Y22852725D01*
X20771637Y22857869D01*
X20554098Y22890381D01*
X20536145Y22890490D01*
X20318226Y22860639D01*
X20300965Y22855706D01*
X20100182Y22765892D01*
X20084999Y22756312D01*
X19917495Y22613754D01*
X19905610Y22600297D01*
X19784851Y22416458D01*
X19777221Y22400207D01*
X19712912Y22189864D01*
X19710150Y22172124D01*
X19707463Y21952187D01*
X16288810Y21952187D01*
X16291360Y22160824D01*
X16288818Y22179378D01*
X16226976Y22390863D01*
X16219545Y22407206D01*
X16101041Y22592506D01*
X16089322Y22606107D01*
X15923572Y22750700D01*
X15908507Y22760465D01*
X15708837Y22852725D01*
X15691637Y22857869D01*
X15474098Y22890381D01*
X15456145Y22890490D01*
X15238226Y22860639D01*
X15220965Y22855706D01*
X15020182Y22765892D01*
X15004999Y22756312D01*
X14837495Y22613754D01*
X14825610Y22600297D01*
X14704851Y22416458D01*
X14697221Y22400207D01*
X14632912Y22189864D01*
X14630150Y22172124D01*
X14627463Y21952187D01*
X10750765Y21952187D01*
X10628837Y22008525D01*
X10611637Y22013669D01*
X10394098Y22046181D01*
X10376145Y22046290D01*
X10158226Y22016439D01*
X10140965Y22011506D01*
X9940182Y21921692D01*
X9924999Y21912112D01*
X9757495Y21769554D01*
X9745610Y21756097D01*
X9624851Y21572258D01*
X9617221Y21556007D01*
X9552912Y21345664D01*
X9550150Y21327924D01*
X9547463Y21107987D01*
X329200Y21107987D01*
X329200Y22333187D01*
X8150463Y22333187D01*
X8152791Y22315385D01*
X8211940Y22103533D01*
X8219171Y22087100D01*
X8335404Y21900365D01*
X8346956Y21886622D01*
X8510927Y21740016D01*
X8525871Y21730068D01*
X8724399Y21635375D01*
X8741535Y21630021D01*
X8958660Y21594855D01*
X8976610Y21594526D01*
X9194878Y21621712D01*
X9212199Y21626434D01*
X9414064Y21713789D01*
X9429363Y21723183D01*
X9598595Y21863683D01*
X9610643Y21876993D01*
X9733640Y22059344D01*
X9741468Y22075500D01*
X9808459Y22285411D01*
X9811453Y22303897D01*
X9814360Y22541824D01*
X9811818Y22560378D01*
X9749976Y22771863D01*
X9742545Y22788206D01*
X9624041Y22973506D01*
X9612322Y22987107D01*
X9446572Y23131700D01*
X9431507Y23141465D01*
X9231837Y23233725D01*
X9214637Y23238869D01*
X8997098Y23271381D01*
X8979145Y23271490D01*
X8761226Y23241639D01*
X8743965Y23236706D01*
X8543182Y23146892D01*
X8527999Y23137312D01*
X8360495Y22994754D01*
X8348610Y22981297D01*
X8227851Y22797458D01*
X8220221Y22781207D01*
X8155912Y22570864D01*
X8153150Y22553124D01*
X8150463Y22333187D01*
X329200Y22333187D01*
X329200Y23730187D01*
X9547463Y23730187D01*
X9549791Y23712385D01*
X9608940Y23500533D01*
X9616171Y23484100D01*
X9732404Y23297365D01*
X9743956Y23283622D01*
X9907927Y23137016D01*
X9922871Y23127068D01*
X10121399Y23032375D01*
X10138535Y23027021D01*
X10355660Y22991855D01*
X10373610Y22991526D01*
X10591878Y23018712D01*
X10609199Y23023434D01*
X10811064Y23110789D01*
X10826363Y23120183D01*
X10995595Y23260683D01*
X11007643Y23273993D01*
X11130640Y23456344D01*
X11138468Y23472500D01*
X11139644Y23476187D01*
X13103463Y23476187D01*
X13105791Y23458385D01*
X13164940Y23246533D01*
X13172171Y23230100D01*
X13288404Y23043365D01*
X13299956Y23029622D01*
X13463927Y22883016D01*
X13478871Y22873068D01*
X13677399Y22778375D01*
X13694535Y22773021D01*
X13911660Y22737855D01*
X13929610Y22737526D01*
X14147878Y22764712D01*
X14165199Y22769434D01*
X14367064Y22856789D01*
X14382363Y22866183D01*
X14551595Y23006683D01*
X14563643Y23019993D01*
X14686640Y23202344D01*
X14694468Y23218500D01*
X14761459Y23428411D01*
X14764453Y23446897D01*
X14764810Y23476187D01*
X16151463Y23476187D01*
X16153791Y23458385D01*
X16212940Y23246533D01*
X16220171Y23230100D01*
X16336404Y23043365D01*
X16347956Y23029622D01*
X16511927Y22883016D01*
X16526871Y22873068D01*
X16725399Y22778375D01*
X16742535Y22773021D01*
X16959660Y22737855D01*
X16977610Y22737526D01*
X17195878Y22764712D01*
X17213199Y22769434D01*
X17415064Y22856789D01*
X17430363Y22866183D01*
X17599595Y23006683D01*
X17611643Y23019993D01*
X17734640Y23202344D01*
X17742468Y23218500D01*
X17809459Y23428411D01*
X17812453Y23446897D01*
X17812810Y23476187D01*
X18183463Y23476187D01*
X18185791Y23458385D01*
X18244940Y23246533D01*
X18252171Y23230100D01*
X18368404Y23043365D01*
X18379956Y23029622D01*
X18543927Y22883016D01*
X18558871Y22873068D01*
X18757399Y22778375D01*
X18774535Y22773021D01*
X18991660Y22737855D01*
X19009610Y22737526D01*
X19227878Y22764712D01*
X19245199Y22769434D01*
X19447064Y22856789D01*
X19462363Y22866183D01*
X19631595Y23006683D01*
X19643643Y23019993D01*
X19766640Y23202344D01*
X19774468Y23218500D01*
X19841459Y23428411D01*
X19844453Y23446897D01*
X19844810Y23476187D01*
X21231463Y23476187D01*
X21233791Y23458385D01*
X21292940Y23246533D01*
X21300171Y23230100D01*
X21416404Y23043365D01*
X21427956Y23029622D01*
X21591927Y22883016D01*
X21606871Y22873068D01*
X21805399Y22778375D01*
X21822535Y22773021D01*
X22039660Y22737855D01*
X22057610Y22737526D01*
X22275878Y22764712D01*
X22293199Y22769434D01*
X22495064Y22856789D01*
X22510363Y22866183D01*
X22679595Y23006683D01*
X22691643Y23019993D01*
X22814640Y23202344D01*
X22822468Y23218500D01*
X22889459Y23428411D01*
X22892453Y23446897D01*
X22895360Y23684824D01*
X22892818Y23703378D01*
X22830976Y23914863D01*
X22823545Y23931206D01*
X22705041Y24116506D01*
X22693322Y24130107D01*
X22569428Y24238187D01*
X25041463Y24238187D01*
X25043791Y24220385D01*
X25102940Y24008533D01*
X25110171Y23992100D01*
X25226404Y23805365D01*
X25237956Y23791622D01*
X25401927Y23645016D01*
X25416871Y23635068D01*
X25615399Y23540375D01*
X25632535Y23535021D01*
X25849660Y23499855D01*
X25867610Y23499526D01*
X26085878Y23526712D01*
X26103199Y23531434D01*
X26305064Y23618789D01*
X26320363Y23628183D01*
X26489595Y23768683D01*
X26501643Y23781993D01*
X26624640Y23964344D01*
X26632468Y23980500D01*
X26699459Y24190411D01*
X26702453Y24208897D01*
X26705360Y24446824D01*
X26702818Y24465378D01*
X26640976Y24676863D01*
X26633545Y24693206D01*
X26515041Y24878506D01*
X26503322Y24892107D01*
X26337572Y25036700D01*
X26322507Y25046465D01*
X26122837Y25138725D01*
X26105637Y25143869D01*
X25888098Y25176381D01*
X25870145Y25176490D01*
X25652226Y25146639D01*
X25634965Y25141706D01*
X25434182Y25051892D01*
X25418999Y25042312D01*
X25251495Y24899754D01*
X25239610Y24886297D01*
X25118851Y24702458D01*
X25111221Y24686207D01*
X25046912Y24475864D01*
X25044150Y24458124D01*
X25041463Y24238187D01*
X22569428Y24238187D01*
X22527572Y24274700D01*
X22512507Y24284465D01*
X22312837Y24376725D01*
X22295637Y24381869D01*
X22078098Y24414381D01*
X22060145Y24414490D01*
X21842226Y24384639D01*
X21824965Y24379706D01*
X21624182Y24289892D01*
X21608999Y24280312D01*
X21441495Y24137754D01*
X21429610Y24124297D01*
X21308851Y23940458D01*
X21301221Y23924207D01*
X21236912Y23713864D01*
X21234150Y23696124D01*
X21231463Y23476187D01*
X19844810Y23476187D01*
X19847360Y23684824D01*
X19844818Y23703378D01*
X19782976Y23914863D01*
X19775545Y23931206D01*
X19657041Y24116506D01*
X19645322Y24130107D01*
X19479572Y24274700D01*
X19464507Y24284465D01*
X19264837Y24376725D01*
X19247637Y24381869D01*
X19030098Y24414381D01*
X19012145Y24414490D01*
X18794226Y24384639D01*
X18776965Y24379706D01*
X18576182Y24289892D01*
X18560999Y24280312D01*
X18393495Y24137754D01*
X18381610Y24124297D01*
X18260851Y23940458D01*
X18253221Y23924207D01*
X18188912Y23713864D01*
X18186150Y23696124D01*
X18183463Y23476187D01*
X17812810Y23476187D01*
X17815360Y23684824D01*
X17812818Y23703378D01*
X17750976Y23914863D01*
X17743545Y23931206D01*
X17625041Y24116506D01*
X17613322Y24130107D01*
X17447572Y24274700D01*
X17432507Y24284465D01*
X17232837Y24376725D01*
X17215637Y24381869D01*
X16998098Y24414381D01*
X16980145Y24414490D01*
X16762226Y24384639D01*
X16744965Y24379706D01*
X16544182Y24289892D01*
X16528999Y24280312D01*
X16361495Y24137754D01*
X16349610Y24124297D01*
X16228851Y23940458D01*
X16221221Y23924207D01*
X16156912Y23713864D01*
X16154150Y23696124D01*
X16151463Y23476187D01*
X14764810Y23476187D01*
X14767360Y23684824D01*
X14764818Y23703378D01*
X14702976Y23914863D01*
X14695545Y23931206D01*
X14577041Y24116506D01*
X14565322Y24130107D01*
X14399572Y24274700D01*
X14384507Y24284465D01*
X14184837Y24376725D01*
X14167637Y24381869D01*
X13950098Y24414381D01*
X13932145Y24414490D01*
X13714226Y24384639D01*
X13696965Y24379706D01*
X13496182Y24289892D01*
X13480999Y24280312D01*
X13313495Y24137754D01*
X13301610Y24124297D01*
X13180851Y23940458D01*
X13173221Y23924207D01*
X13108912Y23713864D01*
X13106150Y23696124D01*
X13103463Y23476187D01*
X11139644Y23476187D01*
X11205459Y23682411D01*
X11208453Y23700897D01*
X11211360Y23938824D01*
X11208818Y23957378D01*
X11146976Y24168863D01*
X11139545Y24185206D01*
X11021041Y24370506D01*
X11009322Y24384107D01*
X10843572Y24528700D01*
X10828507Y24538465D01*
X10628837Y24630725D01*
X10611637Y24635869D01*
X10394098Y24668381D01*
X10376145Y24668490D01*
X10158226Y24638639D01*
X10140965Y24633706D01*
X9940182Y24543892D01*
X9924999Y24534312D01*
X9757495Y24391754D01*
X9745610Y24378297D01*
X9624851Y24194458D01*
X9617221Y24178207D01*
X9552912Y23967864D01*
X9550150Y23950124D01*
X9547463Y23730187D01*
X329200Y23730187D01*
X329200Y25000187D01*
X8150463Y25000187D01*
X8152791Y24982385D01*
X8211940Y24770533D01*
X8219171Y24754100D01*
X8335404Y24567365D01*
X8346956Y24553622D01*
X8510927Y24407016D01*
X8525871Y24397068D01*
X8724399Y24302375D01*
X8741535Y24297021D01*
X8958660Y24261855D01*
X8976610Y24261526D01*
X9194878Y24288712D01*
X9212199Y24293434D01*
X9414064Y24380789D01*
X9429363Y24390183D01*
X9598595Y24530683D01*
X9610643Y24543993D01*
X9733640Y24726344D01*
X9741468Y24742500D01*
X9808459Y24952411D01*
X9811453Y24970897D01*
X9811810Y25000187D01*
X14627463Y25000187D01*
X14629791Y24982385D01*
X14688940Y24770533D01*
X14696171Y24754100D01*
X14812404Y24567365D01*
X14823956Y24553622D01*
X14987927Y24407016D01*
X15002871Y24397068D01*
X15201399Y24302375D01*
X15218535Y24297021D01*
X15435660Y24261855D01*
X15453610Y24261526D01*
X15671878Y24288712D01*
X15689199Y24293434D01*
X15891064Y24380789D01*
X15906363Y24390183D01*
X16075595Y24530683D01*
X16087643Y24543993D01*
X16210640Y24726344D01*
X16218468Y24742500D01*
X16285459Y24952411D01*
X16288453Y24970897D01*
X16288810Y25000187D01*
X19707463Y25000187D01*
X19709791Y24982385D01*
X19768940Y24770533D01*
X19776171Y24754100D01*
X19892404Y24567365D01*
X19903956Y24553622D01*
X20067927Y24407016D01*
X20082871Y24397068D01*
X20281399Y24302375D01*
X20298535Y24297021D01*
X20515660Y24261855D01*
X20533610Y24261526D01*
X20751878Y24288712D01*
X20769199Y24293434D01*
X20971064Y24380789D01*
X20986363Y24390183D01*
X21155595Y24530683D01*
X21167643Y24543993D01*
X21290640Y24726344D01*
X21298468Y24742500D01*
X21365459Y24952411D01*
X21368453Y24970897D01*
X21371360Y25208824D01*
X21368818Y25227378D01*
X21306976Y25438863D01*
X21299545Y25455206D01*
X21265663Y25508187D01*
X26311463Y25508187D01*
X26313791Y25490385D01*
X26372940Y25278533D01*
X26380171Y25262100D01*
X26496404Y25075365D01*
X26507956Y25061622D01*
X26671927Y24915016D01*
X26686871Y24905068D01*
X26885399Y24810375D01*
X26902535Y24805021D01*
X27119660Y24769855D01*
X27137610Y24769526D01*
X27355878Y24796712D01*
X27373199Y24801434D01*
X27575064Y24888789D01*
X27590363Y24898183D01*
X27759595Y25038683D01*
X27771643Y25051993D01*
X27894640Y25234344D01*
X27902468Y25250500D01*
X27969459Y25460411D01*
X27972453Y25478897D01*
X27975360Y25716824D01*
X27972818Y25735378D01*
X27910976Y25946863D01*
X27903545Y25963206D01*
X27785041Y26148506D01*
X27773322Y26162107D01*
X27607572Y26306700D01*
X27592507Y26316465D01*
X27392837Y26408725D01*
X27375637Y26413869D01*
X27158098Y26446381D01*
X27140145Y26446490D01*
X26922226Y26416639D01*
X26904965Y26411706D01*
X26704182Y26321892D01*
X26688999Y26312312D01*
X26521495Y26169754D01*
X26509610Y26156297D01*
X26388851Y25972458D01*
X26381221Y25956207D01*
X26316912Y25745864D01*
X26314150Y25728124D01*
X26311463Y25508187D01*
X21265663Y25508187D01*
X21181041Y25640506D01*
X21169322Y25654107D01*
X21003572Y25798700D01*
X20988507Y25808465D01*
X20788837Y25900725D01*
X20771637Y25905869D01*
X20554098Y25938381D01*
X20536145Y25938490D01*
X20318226Y25908639D01*
X20300965Y25903706D01*
X20100182Y25813892D01*
X20084999Y25804312D01*
X19917495Y25661754D01*
X19905610Y25648297D01*
X19784851Y25464458D01*
X19777221Y25448207D01*
X19712912Y25237864D01*
X19710150Y25220124D01*
X19707463Y25000187D01*
X16288810Y25000187D01*
X16291360Y25208824D01*
X16288818Y25227378D01*
X16226976Y25438863D01*
X16219545Y25455206D01*
X16101041Y25640506D01*
X16089322Y25654107D01*
X15923572Y25798700D01*
X15908507Y25808465D01*
X15708837Y25900725D01*
X15691637Y25905869D01*
X15474098Y25938381D01*
X15456145Y25938490D01*
X15238226Y25908639D01*
X15220965Y25903706D01*
X15020182Y25813892D01*
X15004999Y25804312D01*
X14837495Y25661754D01*
X14825610Y25648297D01*
X14704851Y25464458D01*
X14697221Y25448207D01*
X14632912Y25237864D01*
X14630150Y25220124D01*
X14627463Y25000187D01*
X9811810Y25000187D01*
X9814360Y25208824D01*
X9811818Y25227378D01*
X9749976Y25438863D01*
X9742545Y25455206D01*
X9624041Y25640506D01*
X9612322Y25654107D01*
X9446572Y25798700D01*
X9431507Y25808465D01*
X9231837Y25900725D01*
X9214637Y25905869D01*
X8997098Y25938381D01*
X8979145Y25938490D01*
X8761226Y25908639D01*
X8743965Y25903706D01*
X8543182Y25813892D01*
X8527999Y25804312D01*
X8360495Y25661754D01*
X8348610Y25648297D01*
X8227851Y25464458D01*
X8220221Y25448207D01*
X8155912Y25237864D01*
X8153150Y25220124D01*
X8150463Y25000187D01*
X329200Y25000187D01*
X329200Y26524187D01*
X13103463Y26524187D01*
X13105791Y26506385D01*
X13164940Y26294533D01*
X13172171Y26278100D01*
X13288404Y26091365D01*
X13299956Y26077622D01*
X13463927Y25931016D01*
X13478871Y25921068D01*
X13677399Y25826375D01*
X13694535Y25821021D01*
X13911660Y25785855D01*
X13929610Y25785526D01*
X14147878Y25812712D01*
X14165199Y25817434D01*
X14367064Y25904789D01*
X14382363Y25914183D01*
X14551595Y26054683D01*
X14563643Y26067993D01*
X14686640Y26250344D01*
X14694468Y26266500D01*
X14761459Y26476411D01*
X14764453Y26494897D01*
X14764810Y26524187D01*
X16151463Y26524187D01*
X16153791Y26506385D01*
X16212940Y26294533D01*
X16220171Y26278100D01*
X16336404Y26091365D01*
X16347956Y26077622D01*
X16511927Y25931016D01*
X16526871Y25921068D01*
X16725399Y25826375D01*
X16742535Y25821021D01*
X16959660Y25785855D01*
X16977610Y25785526D01*
X17195878Y25812712D01*
X17213199Y25817434D01*
X17415064Y25904789D01*
X17430363Y25914183D01*
X17599595Y26054683D01*
X17611643Y26067993D01*
X17734640Y26250344D01*
X17742468Y26266500D01*
X17809459Y26476411D01*
X17812453Y26494897D01*
X17812810Y26524187D01*
X18183463Y26524187D01*
X18185791Y26506385D01*
X18244940Y26294533D01*
X18252171Y26278100D01*
X18368404Y26091365D01*
X18379956Y26077622D01*
X18543927Y25931016D01*
X18558871Y25921068D01*
X18757399Y25826375D01*
X18774535Y25821021D01*
X18991660Y25785855D01*
X19009610Y25785526D01*
X19227878Y25812712D01*
X19245199Y25817434D01*
X19447064Y25904789D01*
X19462363Y25914183D01*
X19631595Y26054683D01*
X19643643Y26067993D01*
X19766640Y26250344D01*
X19774468Y26266500D01*
X19841459Y26476411D01*
X19844453Y26494897D01*
X19844810Y26524187D01*
X21231463Y26524187D01*
X21233791Y26506385D01*
X21292940Y26294533D01*
X21300171Y26278100D01*
X21416404Y26091365D01*
X21427956Y26077622D01*
X21591927Y25931016D01*
X21606871Y25921068D01*
X21805399Y25826375D01*
X21822535Y25821021D01*
X22039660Y25785855D01*
X22057610Y25785526D01*
X22275878Y25812712D01*
X22293199Y25817434D01*
X22495064Y25904789D01*
X22510363Y25914183D01*
X22679595Y26054683D01*
X22691643Y26067993D01*
X22814640Y26250344D01*
X22822468Y26266500D01*
X22889459Y26476411D01*
X22892453Y26494897D01*
X22895360Y26732824D01*
X22892818Y26751378D01*
X22830976Y26962863D01*
X22823545Y26979206D01*
X22705041Y27164506D01*
X22693322Y27178107D01*
X22527572Y27322700D01*
X22512507Y27332465D01*
X22312837Y27424725D01*
X22295637Y27429869D01*
X22078098Y27462381D01*
X22060145Y27462490D01*
X21842226Y27432639D01*
X21824965Y27427706D01*
X21624182Y27337892D01*
X21608999Y27328312D01*
X21441495Y27185754D01*
X21429610Y27172297D01*
X21308851Y26988458D01*
X21301221Y26972207D01*
X21236912Y26761864D01*
X21234150Y26744124D01*
X21231463Y26524187D01*
X19844810Y26524187D01*
X19847360Y26732824D01*
X19844818Y26751378D01*
X19782976Y26962863D01*
X19775545Y26979206D01*
X19657041Y27164506D01*
X19645322Y27178107D01*
X19479572Y27322700D01*
X19464507Y27332465D01*
X19264837Y27424725D01*
X19247637Y27429869D01*
X19030098Y27462381D01*
X19012145Y27462490D01*
X18794226Y27432639D01*
X18776965Y27427706D01*
X18576182Y27337892D01*
X18560999Y27328312D01*
X18393495Y27185754D01*
X18381610Y27172297D01*
X18260851Y26988458D01*
X18253221Y26972207D01*
X18188912Y26761864D01*
X18186150Y26744124D01*
X18183463Y26524187D01*
X17812810Y26524187D01*
X17815360Y26732824D01*
X17812818Y26751378D01*
X17750976Y26962863D01*
X17743545Y26979206D01*
X17625041Y27164506D01*
X17613322Y27178107D01*
X17447572Y27322700D01*
X17432507Y27332465D01*
X17232837Y27424725D01*
X17215637Y27429869D01*
X16998098Y27462381D01*
X16980145Y27462490D01*
X16762226Y27432639D01*
X16744965Y27427706D01*
X16544182Y27337892D01*
X16528999Y27328312D01*
X16361495Y27185754D01*
X16349610Y27172297D01*
X16228851Y26988458D01*
X16221221Y26972207D01*
X16156912Y26761864D01*
X16154150Y26744124D01*
X16151463Y26524187D01*
X14764810Y26524187D01*
X14767360Y26732824D01*
X14764818Y26751378D01*
X14702976Y26962863D01*
X14695545Y26979206D01*
X14577041Y27164506D01*
X14565322Y27178107D01*
X14399572Y27322700D01*
X14384507Y27332465D01*
X14184837Y27424725D01*
X14167637Y27429869D01*
X13950098Y27462381D01*
X13932145Y27462490D01*
X13714226Y27432639D01*
X13696965Y27427706D01*
X13496182Y27337892D01*
X13480999Y27328312D01*
X13313495Y27185754D01*
X13301610Y27172297D01*
X13180851Y26988458D01*
X13173221Y26972207D01*
X13108912Y26761864D01*
X13106150Y26744124D01*
X13103463Y26524187D01*
X329200Y26524187D01*
X329200Y28048187D01*
X14627463Y28048187D01*
X14629791Y28030385D01*
X14688940Y27818533D01*
X14696171Y27802100D01*
X14812404Y27615365D01*
X14823956Y27601622D01*
X14987927Y27455016D01*
X15002871Y27445068D01*
X15201399Y27350375D01*
X15218535Y27345021D01*
X15435660Y27309855D01*
X15453610Y27309526D01*
X15671878Y27336712D01*
X15689199Y27341434D01*
X15891064Y27428789D01*
X15906363Y27438183D01*
X16075595Y27578683D01*
X16087643Y27591993D01*
X16210640Y27774344D01*
X16218468Y27790500D01*
X16285459Y28000411D01*
X16288453Y28018897D01*
X16288810Y28048187D01*
X19707463Y28048187D01*
X19709791Y28030385D01*
X19768940Y27818533D01*
X19776171Y27802100D01*
X19892404Y27615365D01*
X19903956Y27601622D01*
X20067927Y27455016D01*
X20082871Y27445068D01*
X20281399Y27350375D01*
X20298535Y27345021D01*
X20515660Y27309855D01*
X20533610Y27309526D01*
X20751878Y27336712D01*
X20769199Y27341434D01*
X20971064Y27428789D01*
X20986363Y27438183D01*
X21155595Y27578683D01*
X21167643Y27591993D01*
X21290640Y27774344D01*
X21298468Y27790500D01*
X21365459Y28000411D01*
X21368453Y28018897D01*
X21371360Y28256824D01*
X21368818Y28275378D01*
X21306976Y28486863D01*
X21299545Y28503206D01*
X21181041Y28688506D01*
X21169322Y28702107D01*
X21003572Y28846700D01*
X20988507Y28856465D01*
X20788837Y28948725D01*
X20771637Y28953869D01*
X20554098Y28986381D01*
X20536145Y28986490D01*
X20318226Y28956639D01*
X20300965Y28951706D01*
X20100182Y28861892D01*
X20084999Y28852312D01*
X19917495Y28709754D01*
X19905610Y28696297D01*
X19784851Y28512458D01*
X19777221Y28496207D01*
X19712912Y28285864D01*
X19710150Y28268124D01*
X19707463Y28048187D01*
X16288810Y28048187D01*
X16291360Y28256824D01*
X16288818Y28275378D01*
X16226976Y28486863D01*
X16219545Y28503206D01*
X16101041Y28688506D01*
X16089322Y28702107D01*
X15923572Y28846700D01*
X15908507Y28856465D01*
X15708837Y28948725D01*
X15691637Y28953869D01*
X15474098Y28986381D01*
X15456145Y28986490D01*
X15238226Y28956639D01*
X15220965Y28951706D01*
X15020182Y28861892D01*
X15004999Y28852312D01*
X14837495Y28709754D01*
X14825610Y28696297D01*
X14704851Y28512458D01*
X14697221Y28496207D01*
X14632912Y28285864D01*
X14630150Y28268124D01*
X14627463Y28048187D01*
X329200Y28048187D01*
X329200Y34080592D01*
X4540849Y34080592D01*
X4540849Y33880386D01*
X4544677Y33858673D01*
X4613152Y33670540D01*
X4624175Y33651447D01*
X4752866Y33498078D01*
X4769755Y33483907D01*
X4943141Y33383802D01*
X4963858Y33376261D01*
X5161025Y33341496D01*
X5183071Y33341496D01*
X5380238Y33376261D01*
X5400955Y33383802D01*
X5574341Y33483907D01*
X5591230Y33498078D01*
X5719921Y33651447D01*
X5724996Y33660237D01*
X5747381Y33647313D01*
X5768099Y33639772D01*
X5965266Y33605007D01*
X5987312Y33605007D01*
X6184479Y33639772D01*
X6205196Y33647313D01*
X6378582Y33747418D01*
X6395471Y33761589D01*
X6524162Y33914958D01*
X6535185Y33934051D01*
X6603660Y34122184D01*
X6606052Y34135751D01*
X6684127Y34042704D01*
X6701016Y34028533D01*
X6874402Y33928428D01*
X6895119Y33920887D01*
X7092286Y33886122D01*
X7114332Y33886122D01*
X7311499Y33920887D01*
X7332216Y33928428D01*
X7505602Y34028533D01*
X7522491Y34042704D01*
X7651182Y34196073D01*
X7653528Y34200136D01*
X7657210Y34198796D01*
X7854377Y34164031D01*
X7876423Y34164031D01*
X8073590Y34198796D01*
X8094307Y34206337D01*
X8267693Y34306442D01*
X8284582Y34320613D01*
X8413273Y34473982D01*
X8424296Y34493075D01*
X8492771Y34681208D01*
X8496599Y34702921D01*
X8496599Y34903127D01*
X8492771Y34924840D01*
X8424296Y35112973D01*
X8413273Y35132066D01*
X8284582Y35285435D01*
X8267693Y35299606D01*
X8094307Y35399711D01*
X8073590Y35407252D01*
X7876423Y35442017D01*
X7854377Y35442017D01*
X7657210Y35407252D01*
X7636493Y35399711D01*
X7463107Y35299606D01*
X7446218Y35285435D01*
X7317527Y35132066D01*
X7315181Y35128003D01*
X7311499Y35129343D01*
X7114332Y35164108D01*
X7092286Y35164108D01*
X6895119Y35129343D01*
X6874402Y35121802D01*
X6845994Y35105400D01*
X6867171Y35163584D01*
X6870999Y35185297D01*
X6870999Y35385503D01*
X6867171Y35407216D01*
X6798696Y35595349D01*
X6787673Y35614442D01*
X6658982Y35767811D01*
X6642093Y35781982D01*
X6468707Y35882087D01*
X6447990Y35889628D01*
X6250823Y35924393D01*
X6228777Y35924393D01*
X6031610Y35889628D01*
X6010893Y35882087D01*
X5837507Y35781982D01*
X5820618Y35767811D01*
X5691927Y35614442D01*
X5680904Y35595349D01*
X5612429Y35407216D01*
X5608601Y35385503D01*
X5608601Y35185297D01*
X5612429Y35163584D01*
X5680904Y34975451D01*
X5691927Y34956358D01*
X5780782Y34850464D01*
X5768099Y34848228D01*
X5747382Y34840687D01*
X5573996Y34740582D01*
X5557107Y34726411D01*
X5428416Y34573042D01*
X5423341Y34564252D01*
X5400956Y34577176D01*
X5380238Y34584717D01*
X5183071Y34619482D01*
X5161025Y34619482D01*
X4963858Y34584717D01*
X4943141Y34577176D01*
X4769755Y34477071D01*
X4752866Y34462900D01*
X4624175Y34309531D01*
X4613152Y34290438D01*
X4544677Y34102305D01*
X4540849Y34080592D01*
X329200Y34080592D01*
X329200Y36332990D01*
X12586819Y36332990D01*
X12586819Y34542610D01*
X12588032Y34530289D01*
X12607432Y34432762D01*
X12616930Y34409832D01*
X12675630Y34321981D01*
X12693181Y34304430D01*
X12781032Y34245730D01*
X12803962Y34236232D01*
X12901489Y34216832D01*
X12913810Y34215619D01*
X14704190Y34215619D01*
X14716511Y34216832D01*
X14814038Y34236232D01*
X14836968Y34245730D01*
X14924819Y34304430D01*
X14942370Y34321981D01*
X15001070Y34409832D01*
X15010568Y34432762D01*
X15029968Y34530289D01*
X15031181Y34542610D01*
X15031181Y35435005D01*
X15125821Y35435005D01*
X15146180Y35215542D01*
X15148417Y35203758D01*
X15209908Y34992103D01*
X15214333Y34980955D01*
X15314738Y34784747D01*
X15321191Y34774637D01*
X15456887Y34600955D01*
X15465136Y34592247D01*
X15631225Y34447359D01*
X15640971Y34440368D01*
X15831462Y34329499D01*
X15842355Y34324477D01*
X16050374Y34251630D01*
X16062020Y34248759D01*
X16280062Y34216562D01*
X16292040Y34215944D01*
X16512236Y34225559D01*
X16524114Y34227217D01*
X16738520Y34278296D01*
X16749871Y34282171D01*
X16950749Y34372871D01*
X16961163Y34378823D01*
X17141266Y34505872D01*
X17150366Y34513685D01*
X17303196Y34672499D01*
X17310654Y34681892D01*
X17430696Y34866740D01*
X17436243Y34877374D01*
X17519166Y35081586D01*
X17522602Y35093077D01*
X17565429Y35309367D01*
X17566632Y35321468D01*
X17566928Y35435005D01*
X17665821Y35435005D01*
X17686180Y35215542D01*
X17688417Y35203758D01*
X17749908Y34992103D01*
X17754333Y34980955D01*
X17854738Y34784747D01*
X17861191Y34774637D01*
X17996887Y34600955D01*
X18005136Y34592247D01*
X18171225Y34447359D01*
X18180971Y34440368D01*
X18371462Y34329499D01*
X18382355Y34324477D01*
X18590374Y34251630D01*
X18602020Y34248759D01*
X18820062Y34216562D01*
X18832040Y34215944D01*
X19052236Y34225559D01*
X19064114Y34227217D01*
X19278520Y34278296D01*
X19289871Y34282171D01*
X19490749Y34372871D01*
X19501163Y34378823D01*
X19681266Y34505872D01*
X19690366Y34513685D01*
X19843196Y34672499D01*
X19850654Y34681892D01*
X19970696Y34866740D01*
X19976243Y34877374D01*
X20059166Y35081586D01*
X20062602Y35093077D01*
X20105429Y35309367D01*
X20106632Y35321468D01*
X20106928Y35435005D01*
X20205821Y35435005D01*
X20226180Y35215542D01*
X20228417Y35203758D01*
X20289908Y34992103D01*
X20294333Y34980955D01*
X20394738Y34784747D01*
X20401191Y34774637D01*
X20536887Y34600955D01*
X20545136Y34592247D01*
X20711225Y34447359D01*
X20720971Y34440368D01*
X20911462Y34329499D01*
X20922355Y34324477D01*
X21130374Y34251630D01*
X21142020Y34248759D01*
X21360062Y34216562D01*
X21372040Y34215944D01*
X21592236Y34225559D01*
X21604114Y34227217D01*
X21818520Y34278296D01*
X21829871Y34282171D01*
X22030749Y34372871D01*
X22041163Y34378823D01*
X22221266Y34505872D01*
X22230366Y34513685D01*
X22383196Y34672499D01*
X22390654Y34681892D01*
X22510696Y34866740D01*
X22516243Y34877374D01*
X22599166Y35081586D01*
X22602602Y35093077D01*
X22645429Y35309367D01*
X22646632Y35321468D01*
X22647223Y35547756D01*
X22646084Y35559862D01*
X22604392Y35776372D01*
X22601015Y35787881D01*
X22519163Y35992526D01*
X22513671Y36003189D01*
X22394599Y36188662D01*
X22387190Y36198094D01*
X22235194Y36357706D01*
X22226135Y36365567D01*
X22046699Y36493557D01*
X22036317Y36499563D01*
X21835917Y36591314D01*
X21824586Y36595249D01*
X21610451Y36647450D01*
X21598581Y36649171D01*
X21378438Y36659938D01*
X21366457Y36659383D01*
X21148249Y36628327D01*
X21136589Y36625517D01*
X20928191Y36553760D01*
X20917272Y36548795D01*
X20726204Y36438925D01*
X20716421Y36431986D01*
X20549574Y36287969D01*
X20541280Y36279304D01*
X20404677Y36106335D01*
X20398171Y36096258D01*
X20296740Y35900579D01*
X20292257Y35889454D01*
X20229658Y35678125D01*
X20227360Y35666353D01*
X20205852Y35446999D01*
X20205821Y35435005D01*
X20106928Y35435005D01*
X20107223Y35547756D01*
X20106084Y35559862D01*
X20064392Y35776372D01*
X20061015Y35787881D01*
X19979163Y35992526D01*
X19973671Y36003189D01*
X19854599Y36188662D01*
X19847190Y36198094D01*
X19695194Y36357706D01*
X19686135Y36365567D01*
X19506699Y36493557D01*
X19496317Y36499563D01*
X19295917Y36591314D01*
X19284586Y36595249D01*
X19070451Y36647450D01*
X19058581Y36649171D01*
X18838438Y36659938D01*
X18826457Y36659383D01*
X18608249Y36628327D01*
X18596589Y36625517D01*
X18388191Y36553760D01*
X18377272Y36548795D01*
X18186204Y36438925D01*
X18176421Y36431986D01*
X18009574Y36287969D01*
X18001280Y36279304D01*
X17864677Y36106335D01*
X17858171Y36096258D01*
X17756740Y35900579D01*
X17752257Y35889454D01*
X17689658Y35678125D01*
X17687360Y35666353D01*
X17665852Y35446999D01*
X17665821Y35435005D01*
X17566928Y35435005D01*
X17567223Y35547756D01*
X17566084Y35559862D01*
X17524392Y35776372D01*
X17521015Y35787881D01*
X17439163Y35992526D01*
X17433671Y36003189D01*
X17314599Y36188662D01*
X17307190Y36198094D01*
X17155194Y36357706D01*
X17146135Y36365567D01*
X16966699Y36493557D01*
X16956317Y36499563D01*
X16755917Y36591314D01*
X16744586Y36595249D01*
X16530451Y36647450D01*
X16518581Y36649171D01*
X16298438Y36659938D01*
X16286457Y36659383D01*
X16068249Y36628327D01*
X16056589Y36625517D01*
X15848191Y36553760D01*
X15837272Y36548795D01*
X15646204Y36438925D01*
X15636421Y36431986D01*
X15469574Y36287969D01*
X15461280Y36279304D01*
X15324677Y36106335D01*
X15318171Y36096258D01*
X15216740Y35900579D01*
X15212257Y35889454D01*
X15149658Y35678125D01*
X15147360Y35666353D01*
X15125852Y35446999D01*
X15125821Y35435005D01*
X15031181Y35435005D01*
X15031181Y36332990D01*
X15029968Y36345311D01*
X15010568Y36442838D01*
X15001070Y36465768D01*
X14942370Y36553619D01*
X14924819Y36571170D01*
X14836968Y36629870D01*
X14814038Y36639368D01*
X14716511Y36658768D01*
X14704190Y36659981D01*
X12913810Y36659981D01*
X12901489Y36658768D01*
X12803962Y36639368D01*
X12781032Y36629870D01*
X12693181Y36571170D01*
X12675630Y36553619D01*
X12616930Y36465768D01*
X12607432Y36442838D01*
X12588032Y36345311D01*
X12586819Y36332990D01*
X329200Y36332990D01*
X329200Y38346089D01*
X331946Y38358693D01*
X332708Y38366145D01*
X332712Y38366184D01*
X349707Y38533487D01*
X389829Y38661518D01*
X454880Y38778874D01*
X542194Y38880744D01*
X648209Y38962978D01*
X768604Y39022220D01*
X902423Y39057076D01*
X1032708Y39067102D01*
X1046600Y39069758D01*
X1049955Y39070800D01*
X35646089Y39070800D01*
X35658693Y39068054D01*
G37*
D16*
X35658693Y39068054D02*
X35666145Y39067292D01*
X35666184Y39067288D01*
X35833487Y39050293D01*
X35961518Y39010171D01*
X36078874Y38945120D01*
X36180744Y38857806D01*
X36262978Y38751791D01*
X36322220Y38631396D01*
X36357076Y38497577D01*
X36367102Y38367292D01*
X36369758Y38353399D01*
X36370801Y38350040D01*
X36370800Y1053911D01*
X36368054Y1041307D01*
X36367292Y1033855D01*
X36367288Y1033816D01*
X36350293Y866510D01*
X36310172Y738483D01*
X36245123Y621130D01*
X36157806Y519256D01*
X36051789Y437021D01*
X35931402Y377783D01*
X35797576Y342924D01*
X35667291Y332898D01*
X35653399Y330242D01*
X35650044Y329200D01*
X31853911Y329200D01*
X31841307Y331946D01*
X31833855Y332708D01*
X31833816Y332712D01*
X31666510Y349707D01*
X31538483Y389828D01*
X31421130Y454877D01*
X31319256Y542194D01*
X31237021Y648211D01*
X31177783Y768598D01*
X31142924Y902424D01*
X31132898Y1032709D01*
X31130242Y1046601D01*
X31129200Y1049956D01*
X31129200Y3268577D01*
X32065787Y3268577D01*
X32083928Y3009148D01*
X32085441Y2999141D01*
X32144827Y2745951D01*
X32147921Y2736314D01*
X32247023Y2495874D01*
X32251618Y2486856D01*
X32387886Y2265355D01*
X32393864Y2257188D01*
X32563794Y2060322D01*
X32571001Y2053215D01*
X32770219Y1886051D01*
X32778470Y1880187D01*
X33001853Y1747025D01*
X33010934Y1742556D01*
X33252733Y1646821D01*
X33262412Y1643862D01*
X33516407Y1588018D01*
X33526435Y1586644D01*
X33786090Y1572127D01*
X33796209Y1572374D01*
X34054847Y1599558D01*
X34064795Y1601420D01*
X34315759Y1669606D01*
X34325281Y1673034D01*
X34562116Y1780466D01*
X34570968Y1785373D01*
X34787579Y1929290D01*
X34795532Y1935549D01*
X34986348Y2112245D01*
X34993199Y2119696D01*
X35153308Y2324627D01*
X35158880Y2333076D01*
X35284166Y2560971D01*
X35288315Y2570203D01*
X35375553Y2815195D01*
X35378172Y2824972D01*
X35425178Y3081086D01*
X35426212Y3091819D01*
X35429283Y3385041D01*
X35428474Y3395793D01*
X35386842Y3652836D01*
X35384428Y3662665D01*
X35302340Y3909432D01*
X35298385Y3918749D01*
X35177899Y4149216D01*
X35172506Y4157781D01*
X35016723Y4366020D01*
X35010029Y4373612D01*
X34822957Y4554266D01*
X34815135Y4560691D01*
X34601586Y4709111D01*
X34592839Y4714202D01*
X34358307Y4826572D01*
X34348858Y4830199D01*
X34099376Y4903624D01*
X34089469Y4905694D01*
X33831458Y4938289D01*
X33821347Y4938748D01*
X33561444Y4929672D01*
X33551390Y4928508D01*
X33296281Y4877995D01*
X33286542Y4875240D01*
X33042791Y4784590D01*
X33033618Y4780312D01*
X32807495Y4651857D01*
X32799124Y4646167D01*
X32596449Y4483211D01*
X32589095Y4476257D01*
X32415080Y4282995D01*
X32408932Y4274954D01*
X32268054Y4056354D01*
X32263271Y4047434D01*
X32159156Y3809123D01*
X32155861Y3799554D01*
X32091186Y3547662D01*
X32089463Y3537689D01*
X32065893Y3278698D01*
X32065787Y3268577D01*
X31129200Y3268577D01*
X31129200Y6875345D01*
X31133500Y6903949D01*
X31134015Y6918206D01*
X31133439Y6925681D01*
X31121126Y7085695D01*
X31118470Y7099587D01*
X31116000Y7107542D01*
X31115758Y7115949D01*
X31113730Y7130112D01*
X31111829Y7137386D01*
X31059127Y7339714D01*
X31054052Y7352916D01*
X31048327Y7363938D01*
X31045483Y7376015D01*
X31040734Y7389306D01*
X31037441Y7396035D01*
X31037379Y7396161D01*
X30944992Y7583916D01*
X30937365Y7595830D01*
X30929542Y7605472D01*
X30924289Y7616816D01*
X30916845Y7629036D01*
X30912233Y7634973D01*
X30784086Y7800179D01*
X30774221Y7810315D01*
X30764616Y7818190D01*
X30757221Y7828203D01*
X30747557Y7838603D01*
X30741873Y7843484D01*
X30741829Y7843521D01*
X30582980Y7979671D01*
X30571280Y7987616D01*
X30560285Y7993401D01*
X30551047Y8001704D01*
X30539537Y8009922D01*
X30532992Y8013565D01*
X30532895Y8013618D01*
X30349890Y8115060D01*
X30336830Y8120489D01*
X30324902Y8123943D01*
X30314057Y8130293D01*
X30300855Y8136115D01*
X30293730Y8138326D01*
X30094336Y8200812D01*
X30080450Y8203505D01*
X30068072Y8204490D01*
X30056276Y8208494D01*
X30042386Y8211521D01*
X30034933Y8212283D01*
X30034894Y8212287D01*
X29826760Y8233429D01*
X29812617Y8233274D01*
X29779674Y8229200D01*
X29324655Y8229200D01*
X29296051Y8233500D01*
X29281794Y8234015D01*
X29274342Y8233441D01*
X29114305Y8221126D01*
X29100413Y8218470D01*
X29092458Y8216000D01*
X29084051Y8215758D01*
X29069888Y8213730D01*
X29062614Y8211829D01*
X28860286Y8159127D01*
X28847084Y8154052D01*
X28836062Y8148327D01*
X28823985Y8145483D01*
X28810694Y8140734D01*
X28803965Y8137441D01*
X28803839Y8137379D01*
X28616084Y8044992D01*
X28604170Y8037365D01*
X28594528Y8029542D01*
X28583184Y8024289D01*
X28570964Y8016845D01*
X28565027Y8012233D01*
X28399821Y7884086D01*
X28389685Y7874221D01*
X28381810Y7864616D01*
X28371797Y7857221D01*
X28361397Y7847557D01*
X28356516Y7841873D01*
X28356479Y7841829D01*
X28220329Y7682980D01*
X28212384Y7671280D01*
X28206599Y7660285D01*
X28198296Y7651047D01*
X28190078Y7639537D01*
X28186435Y7632992D01*
X28186382Y7632895D01*
X28084940Y7449890D01*
X28079511Y7436830D01*
X28076057Y7424902D01*
X28069707Y7414057D01*
X28063885Y7400855D01*
X28061674Y7393730D01*
X27999188Y7194336D01*
X27996495Y7180450D01*
X27995510Y7168072D01*
X27991506Y7156276D01*
X27988479Y7142386D01*
X27987717Y7134933D01*
X27987713Y7134894D01*
X27966571Y6926760D01*
X27966726Y6912617D01*
X27970801Y6879666D01*
X27970800Y557842D01*
X27970031Y554900D01*
X27968962Y547486D01*
X27968955Y547435D01*
X27955644Y454488D01*
X27936613Y412630D01*
X27906600Y377799D01*
X27868019Y352792D01*
X27812896Y336307D01*
X27768164Y332983D01*
X27754265Y330363D01*
X27750485Y329200D01*
X21657842Y329200D01*
X21654900Y329969D01*
X21647486Y331038D01*
X21647435Y331045D01*
X21554488Y344356D01*
X21512630Y363387D01*
X21477799Y393400D01*
X21452792Y431981D01*
X21436307Y487104D01*
X21432983Y531836D01*
X21430363Y545735D01*
X21429200Y549515D01*
X21429200Y5589179D01*
X21588977Y5561007D01*
X21611023Y5561007D01*
X21808190Y5595772D01*
X21828907Y5603313D01*
X22002293Y5703418D01*
X22019182Y5717589D01*
X22100000Y5813905D01*
X22180818Y5717589D01*
X22197707Y5703418D01*
X22371093Y5603313D01*
X22391810Y5595772D01*
X22588977Y5561007D01*
X22611023Y5561007D01*
X22808190Y5595772D01*
X22828907Y5603313D01*
X23002293Y5703418D01*
X23019182Y5717589D01*
X23147873Y5870958D01*
X23158896Y5890051D01*
X23227371Y6078184D01*
X23231199Y6099897D01*
X23231199Y6300103D01*
X23227371Y6321816D01*
X23158896Y6509949D01*
X23147873Y6529042D01*
X23019182Y6682411D01*
X23002293Y6696582D01*
X22994700Y6700966D01*
X22994700Y8632688D01*
X22997422Y8640439D01*
X23000634Y8668634D01*
X22994700Y8721959D01*
X22994700Y8737363D01*
X22993118Y8751416D01*
X22989807Y8765931D01*
X22983933Y8818706D01*
X22974571Y8845554D01*
X22969972Y8852885D01*
X22968035Y8861377D01*
X22955729Y8886947D01*
X22922247Y8928964D01*
X22914296Y8941639D01*
X22905448Y8952742D01*
X22894871Y8963319D01*
X22861644Y9005015D01*
X22839467Y9022719D01*
X22831746Y9026443D01*
X21526696Y10331492D01*
X21523137Y10338903D01*
X21505471Y10361112D01*
X21463555Y10394633D01*
X21452674Y10405515D01*
X21441617Y10414334D01*
X21429021Y10422251D01*
X21387546Y10455419D01*
X21361941Y10467783D01*
X21353504Y10469715D01*
X21346130Y10474350D01*
X21319346Y10483730D01*
X21265966Y10489765D01*
X21251381Y10493105D01*
X21237271Y10494700D01*
X21222300Y10494700D01*
X21169333Y10500688D01*
X21141133Y10497525D01*
X21133043Y10494700D01*
X14163491Y10494700D01*
X13608091Y11050098D01*
X13604533Y11057507D01*
X13586867Y11079716D01*
X13544951Y11113237D01*
X13534070Y11124119D01*
X13523013Y11132938D01*
X13510417Y11140855D01*
X13468942Y11174023D01*
X13443337Y11186387D01*
X13434900Y11188319D01*
X13427526Y11192954D01*
X13400742Y11202334D01*
X13347362Y11208369D01*
X13332777Y11211709D01*
X13318667Y11213304D01*
X13303696Y11213304D01*
X13250729Y11219292D01*
X13222529Y11216129D01*
X13214439Y11213304D01*
X12760194Y11213304D01*
X12760194Y11371108D01*
X12756366Y11392821D01*
X12744127Y11426450D01*
X15126855Y11426450D01*
X15126855Y11214910D01*
X15129958Y11195321D01*
X15195327Y10994133D01*
X15204331Y10976462D01*
X15328672Y10805322D01*
X15342696Y10791298D01*
X15513836Y10666957D01*
X15531507Y10657953D01*
X15732695Y10592584D01*
X15752284Y10589481D01*
X15963824Y10589481D01*
X15983413Y10592584D01*
X16184601Y10657953D01*
X16202272Y10666957D01*
X16373412Y10791298D01*
X16387436Y10805322D01*
X16511777Y10976462D01*
X16520781Y10994133D01*
X16586150Y11195321D01*
X16589253Y11214910D01*
X16589253Y11426450D01*
X16586150Y11446039D01*
X16520781Y11647227D01*
X16511777Y11664898D01*
X16387436Y11836038D01*
X16373412Y11850062D01*
X16202272Y11974403D01*
X16184601Y11983407D01*
X15983413Y12048776D01*
X15963824Y12051879D01*
X15752284Y12051879D01*
X15732695Y12048776D01*
X15531507Y11983407D01*
X15513836Y11974403D01*
X15342696Y11850062D01*
X15328672Y11836038D01*
X15204331Y11664898D01*
X15195327Y11647227D01*
X15129958Y11446039D01*
X15126855Y11426450D01*
X12744127Y11426450D01*
X12687891Y11580954D01*
X12676868Y11600047D01*
X12548177Y11753416D01*
X12531288Y11767587D01*
X12357902Y11867692D01*
X12337185Y11875233D01*
X12140018Y11909998D01*
X12117972Y11909998D01*
X11920805Y11875233D01*
X11900088Y11867692D01*
X11726702Y11767587D01*
X11709813Y11753416D01*
X11581122Y11600047D01*
X11570099Y11580954D01*
X11501624Y11392821D01*
X11497796Y11371108D01*
X11497796Y11294700D01*
X10063490Y11294700D01*
X9698284Y11659905D01*
X9694726Y11667314D01*
X9677060Y11689523D01*
X9635144Y11723044D01*
X9624263Y11733926D01*
X9613206Y11742745D01*
X9600610Y11750662D01*
X9559135Y11783830D01*
X9533530Y11796194D01*
X9525093Y11798126D01*
X9517719Y11802761D01*
X9490935Y11812141D01*
X9437555Y11818176D01*
X9422970Y11821516D01*
X9408860Y11823111D01*
X9393889Y11823111D01*
X9340922Y11829099D01*
X9312722Y11825936D01*
X9304632Y11823111D01*
X8485916Y11823111D01*
X8485916Y11828513D01*
X8482088Y11850226D01*
X8413613Y12038359D01*
X8402590Y12057452D01*
X8273899Y12210821D01*
X8257010Y12224992D01*
X8083624Y12325097D01*
X8062907Y12332638D01*
X7865740Y12367403D01*
X7843694Y12367403D01*
X7646527Y12332638D01*
X7625810Y12325097D01*
X7452424Y12224992D01*
X7435535Y12210821D01*
X7306844Y12057452D01*
X7295821Y12038359D01*
X7227346Y11850226D01*
X7223518Y11828513D01*
X7223518Y11734671D01*
X5794700Y13163488D01*
X5794700Y13999034D01*
X5802293Y14003418D01*
X5819182Y14017589D01*
X5947873Y14170958D01*
X5958896Y14190051D01*
X6027371Y14378184D01*
X6031199Y14399897D01*
X6031199Y14586187D01*
X17294463Y14586187D01*
X17296791Y14568385D01*
X17355940Y14356533D01*
X17363171Y14340100D01*
X17479404Y14153365D01*
X17490956Y14139622D01*
X17654927Y13993016D01*
X17669871Y13983068D01*
X17868399Y13888375D01*
X17885535Y13883021D01*
X18102660Y13847855D01*
X18120610Y13847526D01*
X18338878Y13874712D01*
X18356199Y13879434D01*
X18558064Y13966789D01*
X18573363Y13976183D01*
X18742595Y14116683D01*
X18754643Y14129993D01*
X18877640Y14312344D01*
X18885468Y14328500D01*
X18952459Y14538411D01*
X18955453Y14556897D01*
X18958360Y14794824D01*
X18955818Y14813378D01*
X18893976Y15024863D01*
X18886545Y15041206D01*
X18768041Y15226506D01*
X18756322Y15240107D01*
X18590572Y15384700D01*
X18575507Y15394465D01*
X18375837Y15486725D01*
X18358637Y15491869D01*
X18141098Y15524381D01*
X18123145Y15524490D01*
X17905226Y15494639D01*
X17887965Y15489706D01*
X17687182Y15399892D01*
X17671999Y15390312D01*
X17504495Y15247754D01*
X17492610Y15234297D01*
X17371851Y15050458D01*
X17364221Y15034207D01*
X17299912Y14823864D01*
X17297150Y14806124D01*
X17294463Y14586187D01*
X6031199Y14586187D01*
X6031199Y14600103D01*
X6027371Y14621816D01*
X5958896Y14809949D01*
X5947873Y14829042D01*
X5819182Y14982411D01*
X5802293Y14996582D01*
X5628907Y15096687D01*
X5608190Y15104228D01*
X5431199Y15135436D01*
X5431199Y15200103D01*
X5427371Y15221816D01*
X5358896Y15409949D01*
X5347873Y15429042D01*
X5219182Y15582411D01*
X5202293Y15596582D01*
X5028907Y15696687D01*
X5008190Y15704228D01*
X4811023Y15738993D01*
X4788977Y15738993D01*
X4591810Y15704228D01*
X4571093Y15696687D01*
X4397707Y15596582D01*
X4380818Y15582411D01*
X4252127Y15429042D01*
X4241104Y15409949D01*
X4202960Y15305150D01*
X4011023Y15338993D01*
X3988977Y15338993D01*
X3791810Y15304228D01*
X3771093Y15296687D01*
X3597707Y15196582D01*
X3580818Y15182411D01*
X3452127Y15029042D01*
X3441104Y15009949D01*
X3372629Y14821816D01*
X3368801Y14800103D01*
X3368801Y14599897D01*
X3372629Y14578184D01*
X3441104Y14390051D01*
X3452127Y14370958D01*
X3580818Y14217589D01*
X3597707Y14203418D01*
X3771093Y14103313D01*
X3791810Y14095772D01*
X3988977Y14061007D01*
X4011023Y14061007D01*
X4208190Y14095772D01*
X4228907Y14103313D01*
X4402293Y14203418D01*
X4419182Y14217589D01*
X4547873Y14370958D01*
X4558896Y14390051D01*
X4597040Y14494850D01*
X4768801Y14464564D01*
X4768801Y14399897D01*
X4772629Y14378184D01*
X4841104Y14190051D01*
X4852127Y14170958D01*
X4980818Y14017589D01*
X4997707Y14003418D01*
X5005301Y13999034D01*
X5005300Y13067312D01*
X5002578Y13059561D01*
X4999366Y13031366D01*
X5005300Y12978041D01*
X5005300Y12962638D01*
X5006882Y12948585D01*
X5010193Y12934070D01*
X5016067Y12881295D01*
X5025429Y12854447D01*
X5030028Y12847116D01*
X5031965Y12838624D01*
X5044271Y12813054D01*
X5077753Y12771037D01*
X5085703Y12758363D01*
X5094552Y12747259D01*
X5105127Y12736685D01*
X5138355Y12694986D01*
X5160533Y12677281D01*
X5168256Y12673556D01*
X7561912Y10279899D01*
X7563665Y10264143D01*
X7573028Y10237295D01*
X7577627Y10229964D01*
X7579564Y10221471D01*
X7591870Y10195901D01*
X7625352Y10153884D01*
X7633302Y10141210D01*
X7642151Y10130106D01*
X7652726Y10119532D01*
X7685954Y10077833D01*
X7708132Y10060128D01*
X7715855Y10056403D01*
X8155215Y9617043D01*
X8131357Y9603269D01*
X8114468Y9589098D01*
X7985777Y9435729D01*
X7974754Y9416636D01*
X7906279Y9228503D01*
X7902451Y9206790D01*
X7902451Y9006584D01*
X7906279Y8984871D01*
X7974754Y8796738D01*
X7985777Y8777645D01*
X8114468Y8624276D01*
X8131357Y8610105D01*
X8304743Y8510000D01*
X8325460Y8502459D01*
X8522627Y8467694D01*
X8544673Y8467694D01*
X8741840Y8502459D01*
X8762557Y8510000D01*
X8935943Y8610105D01*
X8952832Y8624276D01*
X9041870Y8730387D01*
X9108563Y8663694D01*
X9112120Y8656286D01*
X9129786Y8634077D01*
X9171697Y8600560D01*
X9182581Y8589675D01*
X9193637Y8580857D01*
X9206235Y8572938D01*
X9247712Y8539769D01*
X9273317Y8527406D01*
X9281753Y8525474D01*
X9289127Y8520839D01*
X9315911Y8511459D01*
X9369291Y8505424D01*
X9383876Y8502084D01*
X9397986Y8500489D01*
X9412957Y8500489D01*
X9459817Y8495191D01*
X9372817Y8444962D01*
X9355928Y8430791D01*
X9227237Y8277422D01*
X9216214Y8258329D01*
X9147739Y8070196D01*
X9143911Y8048483D01*
X9143911Y7848277D01*
X9147739Y7826564D01*
X9216214Y7638431D01*
X9227237Y7619338D01*
X9355928Y7465969D01*
X9372817Y7451798D01*
X9546203Y7351693D01*
X9566920Y7344152D01*
X9764087Y7309387D01*
X9786133Y7309387D01*
X9983300Y7344152D01*
X10004017Y7351693D01*
X10177403Y7451798D01*
X10194292Y7465969D01*
X10276422Y7563848D01*
X10343225Y7380308D01*
X10354248Y7361215D01*
X10482939Y7207846D01*
X10499828Y7193675D01*
X10673214Y7093570D01*
X10693931Y7086029D01*
X10891098Y7051264D01*
X10913144Y7051264D01*
X11110311Y7086029D01*
X11131028Y7093570D01*
X11304414Y7193675D01*
X11321303Y7207846D01*
X11449994Y7361215D01*
X11461017Y7380308D01*
X11491658Y7464493D01*
X11609950Y7323517D01*
X11626839Y7309346D01*
X11800225Y7209241D01*
X11820942Y7201700D01*
X12018109Y7166935D01*
X12040155Y7166935D01*
X12237322Y7201700D01*
X12258039Y7209241D01*
X12431425Y7309346D01*
X12448314Y7323517D01*
X12577005Y7476886D01*
X12588028Y7495979D01*
X12656503Y7684112D01*
X12660331Y7705825D01*
X12660331Y7906031D01*
X12656503Y7927744D01*
X12588028Y8115877D01*
X12577005Y8134970D01*
X12448314Y8288339D01*
X12431425Y8302510D01*
X12258039Y8402615D01*
X12237322Y8410156D01*
X12040155Y8444921D01*
X12018109Y8444921D01*
X11820942Y8410156D01*
X11800225Y8402615D01*
X11774810Y8387942D01*
X11794771Y8442784D01*
X11798599Y8464497D01*
X11798599Y8622301D01*
X12177110Y8622301D01*
X12730907Y8068504D01*
X12734463Y8061097D01*
X12752129Y8038888D01*
X12794040Y8005371D01*
X12804924Y7994486D01*
X12815980Y7985668D01*
X12828578Y7977749D01*
X12870055Y7944580D01*
X12895660Y7932217D01*
X12904096Y7930285D01*
X12911470Y7925650D01*
X12938254Y7916270D01*
X12991634Y7910235D01*
X13006219Y7906895D01*
X13020329Y7905300D01*
X13035300Y7905300D01*
X13088267Y7899312D01*
X13116467Y7902475D01*
X13124557Y7905300D01*
X15039412Y7905300D01*
X14972629Y7721816D01*
X14968801Y7700103D01*
X14968801Y7499897D01*
X14972629Y7478184D01*
X15041104Y7290051D01*
X15052127Y7270958D01*
X15180818Y7117589D01*
X15197707Y7103418D01*
X15371093Y7003313D01*
X15391810Y6995772D01*
X15588977Y6961007D01*
X15611023Y6961007D01*
X15808190Y6995772D01*
X15828907Y7003313D01*
X16002293Y7103418D01*
X16019182Y7117589D01*
X16097227Y7210601D01*
X16141104Y7090051D01*
X16152127Y7070958D01*
X16280818Y6917589D01*
X16297707Y6903418D01*
X16471093Y6803313D01*
X16491810Y6795772D01*
X16688977Y6761007D01*
X16711023Y6761007D01*
X16908190Y6795772D01*
X16928907Y6803313D01*
X17102293Y6903418D01*
X17119182Y6917589D01*
X17247873Y7070958D01*
X17258896Y7090051D01*
X17327371Y7278184D01*
X17331199Y7299897D01*
X17331199Y7500103D01*
X17327371Y7521816D01*
X17258896Y7709949D01*
X17247873Y7729042D01*
X17119182Y7882411D01*
X17116984Y7884255D01*
X17259293Y7966418D01*
X17276182Y7980589D01*
X17404873Y8133958D01*
X17415896Y8153051D01*
X17417353Y8157054D01*
X17479404Y8057365D01*
X17490956Y8043622D01*
X17654927Y7897016D01*
X17669871Y7887068D01*
X17868399Y7792375D01*
X17885535Y7787021D01*
X18102660Y7751855D01*
X18120610Y7751526D01*
X18338878Y7778712D01*
X18356199Y7783434D01*
X18558064Y7870789D01*
X18573363Y7880183D01*
X18742595Y8020683D01*
X18754643Y8033993D01*
X18877640Y8216344D01*
X18885468Y8232500D01*
X18952459Y8442411D01*
X18955453Y8460897D01*
X18958360Y8698824D01*
X18955818Y8717378D01*
X18893976Y8928863D01*
X18886545Y8945206D01*
X18768041Y9130506D01*
X18756322Y9144107D01*
X18722653Y9173478D01*
X20848517Y9173478D01*
X21205301Y8816693D01*
X21205300Y7623723D01*
X21139035Y7718361D01*
X21129676Y7728967D01*
X21120468Y7737302D01*
X21113534Y7747718D01*
X21104292Y7758671D01*
X21098815Y7763839D01*
X20954278Y7900520D01*
X20942978Y7909026D01*
X20932284Y7915338D01*
X20923443Y7924102D01*
X20912305Y7932899D01*
X20905943Y7936853D01*
X20905891Y7936885D01*
X20736669Y8041806D01*
X20723890Y8047867D01*
X20712139Y8051902D01*
X20701732Y8058699D01*
X20689078Y8065068D01*
X20682052Y8067664D01*
X20681971Y8067694D01*
X20495096Y8136451D01*
X20481358Y8139819D01*
X20469040Y8141408D01*
X20457400Y8146005D01*
X20443559Y8149724D01*
X20436113Y8150841D01*
X20239423Y8180589D01*
X20225287Y8181126D01*
X20212900Y8180205D01*
X20200621Y8182359D01*
X20186405Y8183224D01*
X20178923Y8182833D01*
X20178910Y8182833D01*
X19980099Y8172413D01*
X19966147Y8170097D01*
X19954203Y8166706D01*
X19941700Y8166346D01*
X19927537Y8164318D01*
X19920264Y8162417D01*
X19727714Y8112262D01*
X19714512Y8107187D01*
X19703492Y8101462D01*
X19691339Y8098601D01*
X19677908Y8093783D01*
X19671206Y8090483D01*
X19671206Y8090484D01*
X19492581Y8002589D01*
X19480669Y7994964D01*
X19471024Y7987140D01*
X19459727Y7981908D01*
X19447592Y7974530D01*
X19441669Y7969943D01*
X19441626Y7969910D01*
X19284302Y7847877D01*
X19274165Y7838011D01*
X19266289Y7828406D01*
X19256225Y7820972D01*
X19245738Y7811208D01*
X19240942Y7805598D01*
X19111387Y7654443D01*
X19103442Y7642743D01*
X19097657Y7631748D01*
X19089303Y7622453D01*
X19081011Y7610810D01*
X19077414Y7604310D01*
X18980899Y7430192D01*
X18975469Y7417132D01*
X18972015Y7405205D01*
X18965678Y7394382D01*
X18959871Y7381228D01*
X18957626Y7374016D01*
X18898167Y7184282D01*
X18895474Y7170396D01*
X18894489Y7158017D01*
X18890485Y7146221D01*
X18887458Y7132331D01*
X18886696Y7124878D01*
X18886692Y7124838D01*
X18866572Y6926759D01*
X18866727Y6912615D01*
X18870801Y6879675D01*
X18870800Y557848D01*
X18870030Y554901D01*
X18868961Y547486D01*
X18868954Y547435D01*
X18855643Y454488D01*
X18836612Y412630D01*
X18806603Y377803D01*
X18768015Y352792D01*
X18712895Y336308D01*
X18668164Y332983D01*
X18654264Y330363D01*
X18650483Y329200D01*
X8557842Y329200D01*
X8554900Y329969D01*
X8547486Y331038D01*
X8547435Y331045D01*
X8454488Y344356D01*
X8412630Y363387D01*
X8377799Y393400D01*
X8352792Y431981D01*
X8336307Y487104D01*
X8332983Y531836D01*
X8330363Y545735D01*
X8329200Y549515D01*
X8329200Y6875345D01*
X8333500Y6903949D01*
X8334015Y6918206D01*
X8333439Y6925681D01*
X8321126Y7085695D01*
X8318470Y7099587D01*
X8316000Y7107542D01*
X8315758Y7115949D01*
X8313730Y7130112D01*
X8311829Y7137386D01*
X8259127Y7339714D01*
X8254052Y7352916D01*
X8248327Y7363938D01*
X8245483Y7376015D01*
X8240734Y7389306D01*
X8237441Y7396035D01*
X8237379Y7396161D01*
X8144992Y7583916D01*
X8137365Y7595830D01*
X8129542Y7605472D01*
X8124289Y7616816D01*
X8116845Y7629036D01*
X8112233Y7634973D01*
X7984086Y7800179D01*
X7974221Y7810315D01*
X7964616Y7818190D01*
X7957221Y7828203D01*
X7947557Y7838603D01*
X7941873Y7843484D01*
X7941829Y7843521D01*
X7782980Y7979671D01*
X7771280Y7987616D01*
X7760285Y7993401D01*
X7751047Y8001704D01*
X7739537Y8009922D01*
X7732992Y8013565D01*
X7732895Y8013618D01*
X7549890Y8115060D01*
X7536830Y8120489D01*
X7524902Y8123943D01*
X7514057Y8130293D01*
X7500855Y8136115D01*
X7493730Y8138326D01*
X7294336Y8200812D01*
X7280450Y8203505D01*
X7268072Y8204490D01*
X7256276Y8208494D01*
X7242386Y8211521D01*
X7234933Y8212283D01*
X7234894Y8212287D01*
X7026760Y8233429D01*
X7012617Y8233274D01*
X6979674Y8229200D01*
X6624655Y8229200D01*
X6596051Y8233500D01*
X6581794Y8234015D01*
X6574342Y8233441D01*
X6414305Y8221126D01*
X6400413Y8218470D01*
X6392458Y8216000D01*
X6384051Y8215758D01*
X6369888Y8213730D01*
X6362614Y8211829D01*
X6160286Y8159127D01*
X6147084Y8154052D01*
X6136062Y8148327D01*
X6123985Y8145483D01*
X6110694Y8140734D01*
X6103965Y8137441D01*
X6103839Y8137379D01*
X5916084Y8044992D01*
X5904170Y8037365D01*
X5894528Y8029542D01*
X5883184Y8024289D01*
X5870964Y8016845D01*
X5865027Y8012233D01*
X5699821Y7884086D01*
X5689685Y7874221D01*
X5681810Y7864616D01*
X5671797Y7857221D01*
X5661397Y7847557D01*
X5656516Y7841873D01*
X5656479Y7841829D01*
X5520329Y7682980D01*
X5512384Y7671280D01*
X5506599Y7660285D01*
X5498296Y7651047D01*
X5490078Y7639537D01*
X5486435Y7632992D01*
X5486382Y7632895D01*
X5384940Y7449890D01*
X5379511Y7436830D01*
X5376057Y7424902D01*
X5369707Y7414057D01*
X5363885Y7400855D01*
X5361674Y7393730D01*
X5299188Y7194336D01*
X5296495Y7180450D01*
X5295510Y7168072D01*
X5291506Y7156276D01*
X5288479Y7142386D01*
X5287717Y7134933D01*
X5287713Y7134894D01*
X5266571Y6926760D01*
X5266726Y6912617D01*
X5270800Y6879674D01*
X5270801Y1053915D01*
X5268054Y1041307D01*
X5267292Y1033855D01*
X5267288Y1033816D01*
X5250293Y866510D01*
X5210172Y738483D01*
X5145123Y621130D01*
X5057806Y519256D01*
X4951789Y437021D01*
X4831402Y377783D01*
X4697576Y342924D01*
X4567291Y332898D01*
X4553399Y330242D01*
X4550044Y329200D01*
X1053911Y329200D01*
X1041307Y331946D01*
X1033855Y332708D01*
X1033816Y332712D01*
X866510Y349707D01*
X738483Y389828D01*
X621130Y454877D01*
X519256Y542194D01*
X437021Y648211D01*
X377783Y768598D01*
X342924Y902424D01*
X332898Y1032709D01*
X330242Y1046601D01*
X329200Y1049956D01*
X329200Y3268577D01*
X1115787Y3268577D01*
X1133928Y3009148D01*
X1135441Y2999141D01*
X1194827Y2745951D01*
X1197921Y2736314D01*
X1297023Y2495874D01*
X1301618Y2486856D01*
X1437886Y2265355D01*
X1443864Y2257188D01*
X1613794Y2060322D01*
X1621001Y2053215D01*
X1820219Y1886051D01*
X1828470Y1880187D01*
X2051853Y1747025D01*
X2060934Y1742556D01*
X2302733Y1646821D01*
X2312412Y1643862D01*
X2566407Y1588018D01*
X2576435Y1586644D01*
X2836090Y1572127D01*
X2846209Y1572374D01*
X3104847Y1599558D01*
X3114795Y1601420D01*
X3365759Y1669606D01*
X3375281Y1673034D01*
X3612116Y1780466D01*
X3620968Y1785373D01*
X3837579Y1929290D01*
X3845532Y1935549D01*
X4036348Y2112245D01*
X4043199Y2119696D01*
X4203308Y2324627D01*
X4208880Y2333076D01*
X4334166Y2560971D01*
X4338315Y2570203D01*
X4425553Y2815195D01*
X4428172Y2824972D01*
X4475178Y3081086D01*
X4476212Y3091819D01*
X4479283Y3385041D01*
X4478474Y3395793D01*
X4436842Y3652836D01*
X4434428Y3662665D01*
X4352340Y3909432D01*
X4348385Y3918749D01*
X4227899Y4149216D01*
X4222506Y4157781D01*
X4066723Y4366020D01*
X4060029Y4373612D01*
X3872957Y4554266D01*
X3865135Y4560691D01*
X3651586Y4709111D01*
X3642839Y4714202D01*
X3408307Y4826572D01*
X3398858Y4830199D01*
X3149376Y4903624D01*
X3139469Y4905694D01*
X2881458Y4938289D01*
X2871347Y4938748D01*
X2611444Y4929672D01*
X2601390Y4928508D01*
X2346281Y4877995D01*
X2336542Y4875240D01*
X2092791Y4784590D01*
X2083618Y4780312D01*
X1857495Y4651857D01*
X1849124Y4646167D01*
X1646449Y4483211D01*
X1639095Y4476257D01*
X1465080Y4282995D01*
X1458932Y4274954D01*
X1318054Y4056354D01*
X1313271Y4047434D01*
X1209156Y3809123D01*
X1205861Y3799554D01*
X1141186Y3547662D01*
X1139463Y3537689D01*
X1115893Y3278698D01*
X1115787Y3268577D01*
X329200Y3268577D01*
X329200Y17126187D01*
X7896463Y17126187D01*
X7898791Y17108385D01*
X7957940Y16896533D01*
X7965171Y16880100D01*
X8081404Y16693365D01*
X8092956Y16679622D01*
X8256927Y16533016D01*
X8271871Y16523068D01*
X8470399Y16428375D01*
X8487535Y16423021D01*
X8704660Y16387855D01*
X8722610Y16387526D01*
X8940878Y16414712D01*
X8958199Y16419434D01*
X9160064Y16506789D01*
X9175363Y16516183D01*
X9344595Y16656683D01*
X9356643Y16669993D01*
X9370881Y16691103D01*
X16606801Y16691103D01*
X16606801Y16490897D01*
X16610629Y16469184D01*
X16679104Y16281051D01*
X16690127Y16261958D01*
X16818818Y16108589D01*
X16835707Y16094418D01*
X17009093Y15994313D01*
X17029810Y15986772D01*
X17226977Y15952007D01*
X17249023Y15952007D01*
X17446190Y15986772D01*
X17466907Y15994313D01*
X17640293Y16094418D01*
X17657182Y16108589D01*
X17785873Y16261958D01*
X17796896Y16281051D01*
X17865371Y16469184D01*
X17869199Y16490897D01*
X17869199Y16691103D01*
X17865371Y16712816D01*
X17796896Y16900949D01*
X17785873Y16920042D01*
X17764845Y16945103D01*
X19019801Y16945103D01*
X19019801Y16744897D01*
X19023629Y16723184D01*
X19092104Y16535051D01*
X19103127Y16515958D01*
X19231818Y16362589D01*
X19248707Y16348418D01*
X19422093Y16248313D01*
X19442810Y16240772D01*
X19639977Y16206007D01*
X19662023Y16206007D01*
X19859190Y16240772D01*
X19879907Y16248313D01*
X20053293Y16348418D01*
X20070182Y16362589D01*
X20155996Y16464859D01*
X20311093Y16375313D01*
X20331810Y16367772D01*
X20528977Y16333007D01*
X20551023Y16333007D01*
X20748190Y16367772D01*
X20768907Y16375313D01*
X20942293Y16475418D01*
X20959182Y16489589D01*
X21087873Y16642958D01*
X21098896Y16662051D01*
X21167371Y16850184D01*
X21171199Y16871897D01*
X21171199Y17072103D01*
X21167371Y17093816D01*
X21109365Y17253187D01*
X26692463Y17253187D01*
X26694791Y17235385D01*
X26753940Y17023533D01*
X26761171Y17007100D01*
X26877404Y16820365D01*
X26888956Y16806622D01*
X27052927Y16660016D01*
X27067871Y16650068D01*
X27266399Y16555375D01*
X27283535Y16550021D01*
X27500660Y16514855D01*
X27518610Y16514526D01*
X27736878Y16541712D01*
X27754199Y16546434D01*
X27956064Y16633789D01*
X27971363Y16643183D01*
X28140595Y16783683D01*
X28152643Y16796993D01*
X28275640Y16979344D01*
X28283468Y16995500D01*
X28350459Y17205411D01*
X28353453Y17223897D01*
X28356360Y17461824D01*
X28353818Y17480378D01*
X28291976Y17691863D01*
X28284545Y17708206D01*
X28166041Y17893506D01*
X28154322Y17907107D01*
X27988572Y18051700D01*
X27973507Y18061465D01*
X27773837Y18153725D01*
X27756637Y18158869D01*
X27539098Y18191381D01*
X27521145Y18191490D01*
X27303226Y18161639D01*
X27285965Y18156706D01*
X27085182Y18066892D01*
X27069999Y18057312D01*
X26902495Y17914754D01*
X26890610Y17901297D01*
X26769851Y17717458D01*
X26762221Y17701207D01*
X26697912Y17490864D01*
X26695150Y17473124D01*
X26692463Y17253187D01*
X21109365Y17253187D01*
X21098896Y17281949D01*
X21087873Y17301042D01*
X20959182Y17454411D01*
X20942293Y17468582D01*
X20768907Y17568687D01*
X20748190Y17576228D01*
X20551023Y17610993D01*
X20528977Y17610993D01*
X20331810Y17576228D01*
X20311093Y17568687D01*
X20137707Y17468582D01*
X20120818Y17454411D01*
X20035004Y17352141D01*
X19879907Y17441687D01*
X19859190Y17449228D01*
X19662023Y17483993D01*
X19639977Y17483993D01*
X19442810Y17449228D01*
X19422093Y17441687D01*
X19248707Y17341582D01*
X19231818Y17327411D01*
X19103127Y17174042D01*
X19092104Y17154949D01*
X19023629Y16966816D01*
X19019801Y16945103D01*
X17764845Y16945103D01*
X17657182Y17073411D01*
X17640293Y17087582D01*
X17466907Y17187687D01*
X17446190Y17195228D01*
X17249023Y17229993D01*
X17226977Y17229993D01*
X17029810Y17195228D01*
X17009093Y17187687D01*
X16835707Y17087582D01*
X16818818Y17073411D01*
X16690127Y16920042D01*
X16679104Y16900949D01*
X16610629Y16712816D01*
X16606801Y16691103D01*
X9370881Y16691103D01*
X9479640Y16852344D01*
X9487468Y16868500D01*
X9554459Y17078411D01*
X9557453Y17096897D01*
X9560360Y17334824D01*
X9557818Y17353378D01*
X9495976Y17564863D01*
X9488545Y17581206D01*
X9370041Y17766506D01*
X9358322Y17780107D01*
X9192572Y17924700D01*
X9177507Y17934465D01*
X8977837Y18026725D01*
X8960637Y18031869D01*
X8743098Y18064381D01*
X8725145Y18064490D01*
X8507226Y18034639D01*
X8489965Y18029706D01*
X8289182Y17939892D01*
X8273999Y17930312D01*
X8106495Y17787754D01*
X8094610Y17774297D01*
X7973851Y17590458D01*
X7966221Y17574207D01*
X7901912Y17363864D01*
X7899150Y17346124D01*
X7896463Y17126187D01*
X329200Y17126187D01*
X329200Y18269187D01*
X9547463Y18269187D01*
X9549791Y18251385D01*
X9608940Y18039533D01*
X9616171Y18023100D01*
X9732404Y17836365D01*
X9743956Y17822622D01*
X9907927Y17676016D01*
X9922871Y17666068D01*
X10121399Y17571375D01*
X10138535Y17566021D01*
X10355660Y17530855D01*
X10373610Y17530526D01*
X10591878Y17557712D01*
X10609199Y17562434D01*
X10811064Y17649789D01*
X10826363Y17659183D01*
X10995595Y17799683D01*
X11007643Y17812993D01*
X11130640Y17995344D01*
X11138468Y18011500D01*
X11205459Y18221411D01*
X11208453Y18239897D01*
X11211360Y18477824D01*
X11208818Y18496378D01*
X11146976Y18707863D01*
X11139545Y18724206D01*
X11105663Y18777187D01*
X25041463Y18777187D01*
X25043791Y18759385D01*
X25102940Y18547533D01*
X25110171Y18531100D01*
X25226404Y18344365D01*
X25237956Y18330622D01*
X25401927Y18184016D01*
X25416871Y18174068D01*
X25615399Y18079375D01*
X25632535Y18074021D01*
X25849660Y18038855D01*
X25867610Y18038526D01*
X26085878Y18065712D01*
X26103199Y18070434D01*
X26305064Y18157789D01*
X26320363Y18167183D01*
X26489595Y18307683D01*
X26501643Y18320993D01*
X26624640Y18503344D01*
X26632468Y18519500D01*
X26699459Y18729411D01*
X26702453Y18747897D01*
X26705360Y18985824D01*
X26702818Y19004378D01*
X26640976Y19215863D01*
X26633545Y19232206D01*
X26515041Y19417506D01*
X26503322Y19431107D01*
X26337572Y19575700D01*
X26322507Y19585465D01*
X26122837Y19677725D01*
X26105637Y19682869D01*
X25888098Y19715381D01*
X25870145Y19715490D01*
X25652226Y19685639D01*
X25634965Y19680706D01*
X25434182Y19590892D01*
X25418999Y19581312D01*
X25251495Y19438754D01*
X25239610Y19425297D01*
X25118851Y19241458D01*
X25111221Y19225207D01*
X25046912Y19014864D01*
X25044150Y18997124D01*
X25041463Y18777187D01*
X11105663Y18777187D01*
X11021041Y18909506D01*
X11009322Y18923107D01*
X10843572Y19067700D01*
X10828507Y19077465D01*
X10628837Y19169725D01*
X10611637Y19174869D01*
X10394098Y19207381D01*
X10376145Y19207490D01*
X10158226Y19177639D01*
X10140965Y19172706D01*
X9940182Y19082892D01*
X9924999Y19073312D01*
X9757495Y18930754D01*
X9745610Y18917297D01*
X9624851Y18733458D01*
X9617221Y18717207D01*
X9552912Y18506864D01*
X9550150Y18489124D01*
X9547463Y18269187D01*
X329200Y18269187D01*
X329200Y19793187D01*
X8277463Y19793187D01*
X8279791Y19775385D01*
X8338940Y19563533D01*
X8346171Y19547100D01*
X8462404Y19360365D01*
X8473956Y19346622D01*
X8637927Y19200016D01*
X8652871Y19190068D01*
X8851399Y19095375D01*
X8868535Y19090021D01*
X9085660Y19054855D01*
X9103610Y19054526D01*
X9321878Y19081712D01*
X9339199Y19086434D01*
X9541064Y19173789D01*
X9556363Y19183183D01*
X9725595Y19323683D01*
X9737643Y19336993D01*
X9860640Y19519344D01*
X9868468Y19535500D01*
X9935459Y19745411D01*
X9938453Y19763897D01*
X9941360Y20001824D01*
X9938818Y20020378D01*
X9876976Y20231863D01*
X9869545Y20248206D01*
X9751041Y20433506D01*
X9739322Y20447107D01*
X9573572Y20591700D01*
X9558507Y20601465D01*
X9358837Y20693725D01*
X9341637Y20698869D01*
X9124098Y20731381D01*
X9106145Y20731490D01*
X8888226Y20701639D01*
X8870965Y20696706D01*
X8670182Y20606892D01*
X8654999Y20597312D01*
X8487495Y20454754D01*
X8475610Y20441297D01*
X8354851Y20257458D01*
X8347221Y20241207D01*
X8282912Y20030864D01*
X8280150Y20013124D01*
X8277463Y19793187D01*
X329200Y19793187D01*
X329200Y21107987D01*
X9547463Y21107987D01*
X9549791Y21090185D01*
X9608940Y20878333D01*
X9616171Y20861900D01*
X9732404Y20675165D01*
X9743956Y20661422D01*
X9907927Y20514816D01*
X9922871Y20504868D01*
X10121399Y20410175D01*
X10138535Y20404821D01*
X10355660Y20369655D01*
X10373610Y20369326D01*
X10591878Y20396512D01*
X10609199Y20401234D01*
X10671483Y20428187D01*
X16151463Y20428187D01*
X16153791Y20410385D01*
X16212940Y20198533D01*
X16220171Y20182100D01*
X16336404Y19995365D01*
X16347956Y19981622D01*
X16511927Y19835016D01*
X16526871Y19825068D01*
X16725399Y19730375D01*
X16742535Y19725021D01*
X16959660Y19689855D01*
X16977610Y19689526D01*
X17195878Y19716712D01*
X17213199Y19721434D01*
X17415064Y19808789D01*
X17430363Y19818183D01*
X17599595Y19958683D01*
X17611643Y19971993D01*
X17734640Y20154344D01*
X17742468Y20170500D01*
X17809459Y20380411D01*
X17812453Y20398897D01*
X17812810Y20428187D01*
X18183463Y20428187D01*
X18185791Y20410385D01*
X18244940Y20198533D01*
X18252171Y20182100D01*
X18368404Y19995365D01*
X18379956Y19981622D01*
X18543927Y19835016D01*
X18558871Y19825068D01*
X18757399Y19730375D01*
X18774535Y19725021D01*
X18991660Y19689855D01*
X19009610Y19689526D01*
X19227878Y19716712D01*
X19245199Y19721434D01*
X19447064Y19808789D01*
X19462363Y19818183D01*
X19631595Y19958683D01*
X19643643Y19971993D01*
X19766640Y20154344D01*
X19774468Y20170500D01*
X19775644Y20174187D01*
X26438463Y20174187D01*
X26440791Y20156385D01*
X26499940Y19944533D01*
X26507171Y19928100D01*
X26623404Y19741365D01*
X26634956Y19727622D01*
X26798927Y19581016D01*
X26813871Y19571068D01*
X27012399Y19476375D01*
X27029535Y19471021D01*
X27246660Y19435855D01*
X27264610Y19435526D01*
X27482878Y19462712D01*
X27500199Y19467434D01*
X27702064Y19554789D01*
X27717363Y19564183D01*
X27886595Y19704683D01*
X27898643Y19717993D01*
X28021640Y19900344D01*
X28029468Y19916500D01*
X28096459Y20126411D01*
X28099453Y20144897D01*
X28102360Y20382824D01*
X28099818Y20401378D01*
X28037976Y20612863D01*
X28030545Y20629206D01*
X27912041Y20814506D01*
X27900322Y20828107D01*
X27734572Y20972700D01*
X27719507Y20982465D01*
X27519837Y21074725D01*
X27502637Y21079869D01*
X27285098Y21112381D01*
X27267145Y21112490D01*
X27049226Y21082639D01*
X27031965Y21077706D01*
X26831182Y20987892D01*
X26815999Y20978312D01*
X26648495Y20835754D01*
X26636610Y20822297D01*
X26515851Y20638458D01*
X26508221Y20622207D01*
X26443912Y20411864D01*
X26441150Y20394124D01*
X26438463Y20174187D01*
X19775644Y20174187D01*
X19841459Y20380411D01*
X19844453Y20398897D01*
X19847360Y20636824D01*
X19844818Y20655378D01*
X19782976Y20866863D01*
X19775545Y20883206D01*
X19657041Y21068506D01*
X19645322Y21082107D01*
X19479572Y21226700D01*
X19464507Y21236465D01*
X19264837Y21328725D01*
X19247637Y21333869D01*
X19030098Y21366381D01*
X19012145Y21366490D01*
X18794226Y21336639D01*
X18776965Y21331706D01*
X18576182Y21241892D01*
X18560999Y21232312D01*
X18393495Y21089754D01*
X18381610Y21076297D01*
X18260851Y20892458D01*
X18253221Y20876207D01*
X18188912Y20665864D01*
X18186150Y20648124D01*
X18183463Y20428187D01*
X17812810Y20428187D01*
X17815360Y20636824D01*
X17812818Y20655378D01*
X17750976Y20866863D01*
X17743545Y20883206D01*
X17625041Y21068506D01*
X17613322Y21082107D01*
X17447572Y21226700D01*
X17432507Y21236465D01*
X17232837Y21328725D01*
X17215637Y21333869D01*
X16998098Y21366381D01*
X16980145Y21366490D01*
X16762226Y21336639D01*
X16744965Y21331706D01*
X16544182Y21241892D01*
X16528999Y21232312D01*
X16361495Y21089754D01*
X16349610Y21076297D01*
X16228851Y20892458D01*
X16221221Y20876207D01*
X16156912Y20665864D01*
X16154150Y20648124D01*
X16151463Y20428187D01*
X10671483Y20428187D01*
X10811064Y20488589D01*
X10826363Y20497983D01*
X10995595Y20638483D01*
X11007643Y20651793D01*
X11130640Y20834144D01*
X11138468Y20850300D01*
X11205459Y21060211D01*
X11208453Y21078697D01*
X11211360Y21316624D01*
X11208818Y21335178D01*
X11146976Y21546663D01*
X11139545Y21563006D01*
X11021041Y21748306D01*
X11009322Y21761907D01*
X10843572Y21906500D01*
X10828507Y21916265D01*
X10750765Y21952187D01*
X14627463Y21952187D01*
X14629791Y21934385D01*
X14688940Y21722533D01*
X14696171Y21706100D01*
X14812404Y21519365D01*
X14823956Y21505622D01*
X14987927Y21359016D01*
X15002871Y21349068D01*
X15201399Y21254375D01*
X15218535Y21249021D01*
X15435660Y21213855D01*
X15453610Y21213526D01*
X15671878Y21240712D01*
X15689199Y21245434D01*
X15891064Y21332789D01*
X15906363Y21342183D01*
X16075595Y21482683D01*
X16087643Y21495993D01*
X16210640Y21678344D01*
X16218468Y21694500D01*
X16285459Y21904411D01*
X16288453Y21922897D01*
X16288810Y21952187D01*
X19707463Y21952187D01*
X19709791Y21934385D01*
X19768940Y21722533D01*
X19776171Y21706100D01*
X19892404Y21519365D01*
X19903956Y21505622D01*
X20067927Y21359016D01*
X20082871Y21349068D01*
X20281399Y21254375D01*
X20298535Y21249021D01*
X20515660Y21213855D01*
X20533610Y21213526D01*
X20751878Y21240712D01*
X20769199Y21245434D01*
X20971064Y21332789D01*
X20986363Y21342183D01*
X21055265Y21399387D01*
X25041463Y21399387D01*
X25043791Y21381585D01*
X25102940Y21169733D01*
X25110171Y21153300D01*
X25226404Y20966565D01*
X25237956Y20952822D01*
X25401927Y20806216D01*
X25416871Y20796268D01*
X25615399Y20701575D01*
X25632535Y20696221D01*
X25849660Y20661055D01*
X25867610Y20660726D01*
X26085878Y20687912D01*
X26103199Y20692634D01*
X26305064Y20779989D01*
X26320363Y20789383D01*
X26489595Y20929883D01*
X26501643Y20943193D01*
X26624640Y21125544D01*
X26632468Y21141700D01*
X26699459Y21351611D01*
X26702453Y21370097D01*
X26705360Y21608024D01*
X26702818Y21626578D01*
X26640976Y21838063D01*
X26633545Y21854406D01*
X26515041Y22039706D01*
X26503322Y22053307D01*
X26337572Y22197900D01*
X26322507Y22207665D01*
X26122837Y22299925D01*
X26105637Y22305069D01*
X25888098Y22337581D01*
X25870145Y22337690D01*
X25652226Y22307839D01*
X25634965Y22302906D01*
X25434182Y22213092D01*
X25418999Y22203512D01*
X25251495Y22060954D01*
X25239610Y22047497D01*
X25118851Y21863658D01*
X25111221Y21847407D01*
X25046912Y21637064D01*
X25044150Y21619324D01*
X25041463Y21399387D01*
X21055265Y21399387D01*
X21155595Y21482683D01*
X21167643Y21495993D01*
X21290640Y21678344D01*
X21298468Y21694500D01*
X21365459Y21904411D01*
X21368453Y21922897D01*
X21371360Y22160824D01*
X21368818Y22179378D01*
X21306976Y22390863D01*
X21299545Y22407206D01*
X21181041Y22592506D01*
X21169322Y22606107D01*
X21045428Y22714187D01*
X26311463Y22714187D01*
X26313791Y22696385D01*
X26372940Y22484533D01*
X26380171Y22468100D01*
X26496404Y22281365D01*
X26507956Y22267622D01*
X26671927Y22121016D01*
X26686871Y22111068D01*
X26885399Y22016375D01*
X26902535Y22011021D01*
X27119660Y21975855D01*
X27137610Y21975526D01*
X27355878Y22002712D01*
X27373199Y22007434D01*
X27575064Y22094789D01*
X27590363Y22104183D01*
X27759595Y22244683D01*
X27771643Y22257993D01*
X27894640Y22440344D01*
X27902468Y22456500D01*
X27969459Y22666411D01*
X27972453Y22684897D01*
X27975360Y22922824D01*
X27972818Y22941378D01*
X27910976Y23152863D01*
X27903545Y23169206D01*
X27785041Y23354506D01*
X27773322Y23368107D01*
X27607572Y23512700D01*
X27592507Y23522465D01*
X27392837Y23614725D01*
X27375637Y23619869D01*
X27158098Y23652381D01*
X27140145Y23652490D01*
X26922226Y23622639D01*
X26904965Y23617706D01*
X26704182Y23527892D01*
X26688999Y23518312D01*
X26521495Y23375754D01*
X26509610Y23362297D01*
X26388851Y23178458D01*
X26381221Y23162207D01*
X26316912Y22951864D01*
X26314150Y22934124D01*
X26311463Y22714187D01*
X21045428Y22714187D01*
X21003572Y22750700D01*
X20988507Y22760465D01*
X20788837Y22852725D01*
X20771637Y22857869D01*
X20554098Y22890381D01*
X20536145Y22890490D01*
X20318226Y22860639D01*
X20300965Y22855706D01*
X20100182Y22765892D01*
X20084999Y22756312D01*
X19917495Y22613754D01*
X19905610Y22600297D01*
X19784851Y22416458D01*
X19777221Y22400207D01*
X19712912Y22189864D01*
X19710150Y22172124D01*
X19707463Y21952187D01*
X16288810Y21952187D01*
X16291360Y22160824D01*
X16288818Y22179378D01*
X16226976Y22390863D01*
X16219545Y22407206D01*
X16101041Y22592506D01*
X16089322Y22606107D01*
X15923572Y22750700D01*
X15908507Y22760465D01*
X15708837Y22852725D01*
X15691637Y22857869D01*
X15474098Y22890381D01*
X15456145Y22890490D01*
X15238226Y22860639D01*
X15220965Y22855706D01*
X15020182Y22765892D01*
X15004999Y22756312D01*
X14837495Y22613754D01*
X14825610Y22600297D01*
X14704851Y22416458D01*
X14697221Y22400207D01*
X14632912Y22189864D01*
X14630150Y22172124D01*
X14627463Y21952187D01*
X10750765Y21952187D01*
X10628837Y22008525D01*
X10611637Y22013669D01*
X10394098Y22046181D01*
X10376145Y22046290D01*
X10158226Y22016439D01*
X10140965Y22011506D01*
X9940182Y21921692D01*
X9924999Y21912112D01*
X9757495Y21769554D01*
X9745610Y21756097D01*
X9624851Y21572258D01*
X9617221Y21556007D01*
X9552912Y21345664D01*
X9550150Y21327924D01*
X9547463Y21107987D01*
X329200Y21107987D01*
X329200Y22333187D01*
X8150463Y22333187D01*
X8152791Y22315385D01*
X8211940Y22103533D01*
X8219171Y22087100D01*
X8335404Y21900365D01*
X8346956Y21886622D01*
X8510927Y21740016D01*
X8525871Y21730068D01*
X8724399Y21635375D01*
X8741535Y21630021D01*
X8958660Y21594855D01*
X8976610Y21594526D01*
X9194878Y21621712D01*
X9212199Y21626434D01*
X9414064Y21713789D01*
X9429363Y21723183D01*
X9598595Y21863683D01*
X9610643Y21876993D01*
X9733640Y22059344D01*
X9741468Y22075500D01*
X9808459Y22285411D01*
X9811453Y22303897D01*
X9814360Y22541824D01*
X9811818Y22560378D01*
X9749976Y22771863D01*
X9742545Y22788206D01*
X9624041Y22973506D01*
X9612322Y22987107D01*
X9446572Y23131700D01*
X9431507Y23141465D01*
X9231837Y23233725D01*
X9214637Y23238869D01*
X8997098Y23271381D01*
X8979145Y23271490D01*
X8761226Y23241639D01*
X8743965Y23236706D01*
X8543182Y23146892D01*
X8527999Y23137312D01*
X8360495Y22994754D01*
X8348610Y22981297D01*
X8227851Y22797458D01*
X8220221Y22781207D01*
X8155912Y22570864D01*
X8153150Y22553124D01*
X8150463Y22333187D01*
X329200Y22333187D01*
X329200Y23730187D01*
X9547463Y23730187D01*
X9549791Y23712385D01*
X9608940Y23500533D01*
X9616171Y23484100D01*
X9732404Y23297365D01*
X9743956Y23283622D01*
X9907927Y23137016D01*
X9922871Y23127068D01*
X10121399Y23032375D01*
X10138535Y23027021D01*
X10355660Y22991855D01*
X10373610Y22991526D01*
X10591878Y23018712D01*
X10609199Y23023434D01*
X10811064Y23110789D01*
X10826363Y23120183D01*
X10995595Y23260683D01*
X11007643Y23273993D01*
X11130640Y23456344D01*
X11138468Y23472500D01*
X11139644Y23476187D01*
X13103463Y23476187D01*
X13105791Y23458385D01*
X13164940Y23246533D01*
X13172171Y23230100D01*
X13288404Y23043365D01*
X13299956Y23029622D01*
X13463927Y22883016D01*
X13478871Y22873068D01*
X13677399Y22778375D01*
X13694535Y22773021D01*
X13911660Y22737855D01*
X13929610Y22737526D01*
X14147878Y22764712D01*
X14165199Y22769434D01*
X14367064Y22856789D01*
X14382363Y22866183D01*
X14551595Y23006683D01*
X14563643Y23019993D01*
X14686640Y23202344D01*
X14694468Y23218500D01*
X14761459Y23428411D01*
X14764453Y23446897D01*
X14764810Y23476187D01*
X16151463Y23476187D01*
X16153791Y23458385D01*
X16212940Y23246533D01*
X16220171Y23230100D01*
X16336404Y23043365D01*
X16347956Y23029622D01*
X16511927Y22883016D01*
X16526871Y22873068D01*
X16725399Y22778375D01*
X16742535Y22773021D01*
X16959660Y22737855D01*
X16977610Y22737526D01*
X17195878Y22764712D01*
X17213199Y22769434D01*
X17415064Y22856789D01*
X17430363Y22866183D01*
X17599595Y23006683D01*
X17611643Y23019993D01*
X17734640Y23202344D01*
X17742468Y23218500D01*
X17809459Y23428411D01*
X17812453Y23446897D01*
X17812810Y23476187D01*
X18183463Y23476187D01*
X18185791Y23458385D01*
X18244940Y23246533D01*
X18252171Y23230100D01*
X18368404Y23043365D01*
X18379956Y23029622D01*
X18543927Y22883016D01*
X18558871Y22873068D01*
X18757399Y22778375D01*
X18774535Y22773021D01*
X18991660Y22737855D01*
X19009610Y22737526D01*
X19227878Y22764712D01*
X19245199Y22769434D01*
X19447064Y22856789D01*
X19462363Y22866183D01*
X19631595Y23006683D01*
X19643643Y23019993D01*
X19766640Y23202344D01*
X19774468Y23218500D01*
X19841459Y23428411D01*
X19844453Y23446897D01*
X19844810Y23476187D01*
X21231463Y23476187D01*
X21233791Y23458385D01*
X21292940Y23246533D01*
X21300171Y23230100D01*
X21416404Y23043365D01*
X21427956Y23029622D01*
X21591927Y22883016D01*
X21606871Y22873068D01*
X21805399Y22778375D01*
X21822535Y22773021D01*
X22039660Y22737855D01*
X22057610Y22737526D01*
X22275878Y22764712D01*
X22293199Y22769434D01*
X22495064Y22856789D01*
X22510363Y22866183D01*
X22679595Y23006683D01*
X22691643Y23019993D01*
X22814640Y23202344D01*
X22822468Y23218500D01*
X22889459Y23428411D01*
X22892453Y23446897D01*
X22895360Y23684824D01*
X22892818Y23703378D01*
X22830976Y23914863D01*
X22823545Y23931206D01*
X22705041Y24116506D01*
X22693322Y24130107D01*
X22569428Y24238187D01*
X25041463Y24238187D01*
X25043791Y24220385D01*
X25102940Y24008533D01*
X25110171Y23992100D01*
X25226404Y23805365D01*
X25237956Y23791622D01*
X25401927Y23645016D01*
X25416871Y23635068D01*
X25615399Y23540375D01*
X25632535Y23535021D01*
X25849660Y23499855D01*
X25867610Y23499526D01*
X26085878Y23526712D01*
X26103199Y23531434D01*
X26305064Y23618789D01*
X26320363Y23628183D01*
X26489595Y23768683D01*
X26501643Y23781993D01*
X26624640Y23964344D01*
X26632468Y23980500D01*
X26699459Y24190411D01*
X26702453Y24208897D01*
X26705360Y24446824D01*
X26702818Y24465378D01*
X26640976Y24676863D01*
X26633545Y24693206D01*
X26515041Y24878506D01*
X26503322Y24892107D01*
X26337572Y25036700D01*
X26322507Y25046465D01*
X26122837Y25138725D01*
X26105637Y25143869D01*
X25888098Y25176381D01*
X25870145Y25176490D01*
X25652226Y25146639D01*
X25634965Y25141706D01*
X25434182Y25051892D01*
X25418999Y25042312D01*
X25251495Y24899754D01*
X25239610Y24886297D01*
X25118851Y24702458D01*
X25111221Y24686207D01*
X25046912Y24475864D01*
X25044150Y24458124D01*
X25041463Y24238187D01*
X22569428Y24238187D01*
X22527572Y24274700D01*
X22512507Y24284465D01*
X22312837Y24376725D01*
X22295637Y24381869D01*
X22078098Y24414381D01*
X22060145Y24414490D01*
X21842226Y24384639D01*
X21824965Y24379706D01*
X21624182Y24289892D01*
X21608999Y24280312D01*
X21441495Y24137754D01*
X21429610Y24124297D01*
X21308851Y23940458D01*
X21301221Y23924207D01*
X21236912Y23713864D01*
X21234150Y23696124D01*
X21231463Y23476187D01*
X19844810Y23476187D01*
X19847360Y23684824D01*
X19844818Y23703378D01*
X19782976Y23914863D01*
X19775545Y23931206D01*
X19657041Y24116506D01*
X19645322Y24130107D01*
X19479572Y24274700D01*
X19464507Y24284465D01*
X19264837Y24376725D01*
X19247637Y24381869D01*
X19030098Y24414381D01*
X19012145Y24414490D01*
X18794226Y24384639D01*
X18776965Y24379706D01*
X18576182Y24289892D01*
X18560999Y24280312D01*
X18393495Y24137754D01*
X18381610Y24124297D01*
X18260851Y23940458D01*
X18253221Y23924207D01*
X18188912Y23713864D01*
X18186150Y23696124D01*
X18183463Y23476187D01*
X17812810Y23476187D01*
X17815360Y23684824D01*
X17812818Y23703378D01*
X17750976Y23914863D01*
X17743545Y23931206D01*
X17625041Y24116506D01*
X17613322Y24130107D01*
X17447572Y24274700D01*
X17432507Y24284465D01*
X17232837Y24376725D01*
X17215637Y24381869D01*
X16998098Y24414381D01*
X16980145Y24414490D01*
X16762226Y24384639D01*
X16744965Y24379706D01*
X16544182Y24289892D01*
X16528999Y24280312D01*
X16361495Y24137754D01*
X16349610Y24124297D01*
X16228851Y23940458D01*
X16221221Y23924207D01*
X16156912Y23713864D01*
X16154150Y23696124D01*
X16151463Y23476187D01*
X14764810Y23476187D01*
X14767360Y23684824D01*
X14764818Y23703378D01*
X14702976Y23914863D01*
X14695545Y23931206D01*
X14577041Y24116506D01*
X14565322Y24130107D01*
X14399572Y24274700D01*
X14384507Y24284465D01*
X14184837Y24376725D01*
X14167637Y24381869D01*
X13950098Y24414381D01*
X13932145Y24414490D01*
X13714226Y24384639D01*
X13696965Y24379706D01*
X13496182Y24289892D01*
X13480999Y24280312D01*
X13313495Y24137754D01*
X13301610Y24124297D01*
X13180851Y23940458D01*
X13173221Y23924207D01*
X13108912Y23713864D01*
X13106150Y23696124D01*
X13103463Y23476187D01*
X11139644Y23476187D01*
X11205459Y23682411D01*
X11208453Y23700897D01*
X11211360Y23938824D01*
X11208818Y23957378D01*
X11146976Y24168863D01*
X11139545Y24185206D01*
X11021041Y24370506D01*
X11009322Y24384107D01*
X10843572Y24528700D01*
X10828507Y24538465D01*
X10628837Y24630725D01*
X10611637Y24635869D01*
X10394098Y24668381D01*
X10376145Y24668490D01*
X10158226Y24638639D01*
X10140965Y24633706D01*
X9940182Y24543892D01*
X9924999Y24534312D01*
X9757495Y24391754D01*
X9745610Y24378297D01*
X9624851Y24194458D01*
X9617221Y24178207D01*
X9552912Y23967864D01*
X9550150Y23950124D01*
X9547463Y23730187D01*
X329200Y23730187D01*
X329200Y25000187D01*
X8150463Y25000187D01*
X8152791Y24982385D01*
X8211940Y24770533D01*
X8219171Y24754100D01*
X8335404Y24567365D01*
X8346956Y24553622D01*
X8510927Y24407016D01*
X8525871Y24397068D01*
X8724399Y24302375D01*
X8741535Y24297021D01*
X8958660Y24261855D01*
X8976610Y24261526D01*
X9194878Y24288712D01*
X9212199Y24293434D01*
X9414064Y24380789D01*
X9429363Y24390183D01*
X9598595Y24530683D01*
X9610643Y24543993D01*
X9733640Y24726344D01*
X9741468Y24742500D01*
X9808459Y24952411D01*
X9811453Y24970897D01*
X9811810Y25000187D01*
X14627463Y25000187D01*
X14629791Y24982385D01*
X14688940Y24770533D01*
X14696171Y24754100D01*
X14812404Y24567365D01*
X14823956Y24553622D01*
X14987927Y24407016D01*
X15002871Y24397068D01*
X15201399Y24302375D01*
X15218535Y24297021D01*
X15435660Y24261855D01*
X15453610Y24261526D01*
X15671878Y24288712D01*
X15689199Y24293434D01*
X15891064Y24380789D01*
X15906363Y24390183D01*
X16075595Y24530683D01*
X16087643Y24543993D01*
X16210640Y24726344D01*
X16218468Y24742500D01*
X16285459Y24952411D01*
X16288453Y24970897D01*
X16288810Y25000187D01*
X19707463Y25000187D01*
X19709791Y24982385D01*
X19768940Y24770533D01*
X19776171Y24754100D01*
X19892404Y24567365D01*
X19903956Y24553622D01*
X20067927Y24407016D01*
X20082871Y24397068D01*
X20281399Y24302375D01*
X20298535Y24297021D01*
X20515660Y24261855D01*
X20533610Y24261526D01*
X20751878Y24288712D01*
X20769199Y24293434D01*
X20971064Y24380789D01*
X20986363Y24390183D01*
X21155595Y24530683D01*
X21167643Y24543993D01*
X21290640Y24726344D01*
X21298468Y24742500D01*
X21365459Y24952411D01*
X21368453Y24970897D01*
X21371360Y25208824D01*
X21368818Y25227378D01*
X21306976Y25438863D01*
X21299545Y25455206D01*
X21265663Y25508187D01*
X26311463Y25508187D01*
X26313791Y25490385D01*
X26372940Y25278533D01*
X26380171Y25262100D01*
X26496404Y25075365D01*
X26507956Y25061622D01*
X26671927Y24915016D01*
X26686871Y24905068D01*
X26885399Y24810375D01*
X26902535Y24805021D01*
X27119660Y24769855D01*
X27137610Y24769526D01*
X27355878Y24796712D01*
X27373199Y24801434D01*
X27575064Y24888789D01*
X27590363Y24898183D01*
X27759595Y25038683D01*
X27771643Y25051993D01*
X27894640Y25234344D01*
X27902468Y25250500D01*
X27969459Y25460411D01*
X27972453Y25478897D01*
X27975360Y25716824D01*
X27972818Y25735378D01*
X27910976Y25946863D01*
X27903545Y25963206D01*
X27785041Y26148506D01*
X27773322Y26162107D01*
X27607572Y26306700D01*
X27592507Y26316465D01*
X27392837Y26408725D01*
X27375637Y26413869D01*
X27158098Y26446381D01*
X27140145Y26446490D01*
X26922226Y26416639D01*
X26904965Y26411706D01*
X26704182Y26321892D01*
X26688999Y26312312D01*
X26521495Y26169754D01*
X26509610Y26156297D01*
X26388851Y25972458D01*
X26381221Y25956207D01*
X26316912Y25745864D01*
X26314150Y25728124D01*
X26311463Y25508187D01*
X21265663Y25508187D01*
X21181041Y25640506D01*
X21169322Y25654107D01*
X21003572Y25798700D01*
X20988507Y25808465D01*
X20788837Y25900725D01*
X20771637Y25905869D01*
X20554098Y25938381D01*
X20536145Y25938490D01*
X20318226Y25908639D01*
X20300965Y25903706D01*
X20100182Y25813892D01*
X20084999Y25804312D01*
X19917495Y25661754D01*
X19905610Y25648297D01*
X19784851Y25464458D01*
X19777221Y25448207D01*
X19712912Y25237864D01*
X19710150Y25220124D01*
X19707463Y25000187D01*
X16288810Y25000187D01*
X16291360Y25208824D01*
X16288818Y25227378D01*
X16226976Y25438863D01*
X16219545Y25455206D01*
X16101041Y25640506D01*
X16089322Y25654107D01*
X15923572Y25798700D01*
X15908507Y25808465D01*
X15708837Y25900725D01*
X15691637Y25905869D01*
X15474098Y25938381D01*
X15456145Y25938490D01*
X15238226Y25908639D01*
X15220965Y25903706D01*
X15020182Y25813892D01*
X15004999Y25804312D01*
X14837495Y25661754D01*
X14825610Y25648297D01*
X14704851Y25464458D01*
X14697221Y25448207D01*
X14632912Y25237864D01*
X14630150Y25220124D01*
X14627463Y25000187D01*
X9811810Y25000187D01*
X9814360Y25208824D01*
X9811818Y25227378D01*
X9749976Y25438863D01*
X9742545Y25455206D01*
X9624041Y25640506D01*
X9612322Y25654107D01*
X9446572Y25798700D01*
X9431507Y25808465D01*
X9231837Y25900725D01*
X9214637Y25905869D01*
X8997098Y25938381D01*
X8979145Y25938490D01*
X8761226Y25908639D01*
X8743965Y25903706D01*
X8543182Y25813892D01*
X8527999Y25804312D01*
X8360495Y25661754D01*
X8348610Y25648297D01*
X8227851Y25464458D01*
X8220221Y25448207D01*
X8155912Y25237864D01*
X8153150Y25220124D01*
X8150463Y25000187D01*
X329200Y25000187D01*
X329200Y26524187D01*
X13103463Y26524187D01*
X13105791Y26506385D01*
X13164940Y26294533D01*
X13172171Y26278100D01*
X13288404Y26091365D01*
X13299956Y26077622D01*
X13463927Y25931016D01*
X13478871Y25921068D01*
X13677399Y25826375D01*
X13694535Y25821021D01*
X13911660Y25785855D01*
X13929610Y25785526D01*
X14147878Y25812712D01*
X14165199Y25817434D01*
X14367064Y25904789D01*
X14382363Y25914183D01*
X14551595Y26054683D01*
X14563643Y26067993D01*
X14686640Y26250344D01*
X14694468Y26266500D01*
X14761459Y26476411D01*
X14764453Y26494897D01*
X14764810Y26524187D01*
X16151463Y26524187D01*
X16153791Y26506385D01*
X16212940Y26294533D01*
X16220171Y26278100D01*
X16336404Y26091365D01*
X16347956Y26077622D01*
X16511927Y25931016D01*
X16526871Y25921068D01*
X16725399Y25826375D01*
X16742535Y25821021D01*
X16959660Y25785855D01*
X16977610Y25785526D01*
X17195878Y25812712D01*
X17213199Y25817434D01*
X17415064Y25904789D01*
X17430363Y25914183D01*
X17599595Y26054683D01*
X17611643Y26067993D01*
X17734640Y26250344D01*
X17742468Y26266500D01*
X17809459Y26476411D01*
X17812453Y26494897D01*
X17812810Y26524187D01*
X18183463Y26524187D01*
X18185791Y26506385D01*
X18244940Y26294533D01*
X18252171Y26278100D01*
X18368404Y26091365D01*
X18379956Y26077622D01*
X18543927Y25931016D01*
X18558871Y25921068D01*
X18757399Y25826375D01*
X18774535Y25821021D01*
X18991660Y25785855D01*
X19009610Y25785526D01*
X19227878Y25812712D01*
X19245199Y25817434D01*
X19447064Y25904789D01*
X19462363Y25914183D01*
X19631595Y26054683D01*
X19643643Y26067993D01*
X19766640Y26250344D01*
X19774468Y26266500D01*
X19841459Y26476411D01*
X19844453Y26494897D01*
X19844810Y26524187D01*
X21231463Y26524187D01*
X21233791Y26506385D01*
X21292940Y26294533D01*
X21300171Y26278100D01*
X21416404Y26091365D01*
X21427956Y26077622D01*
X21591927Y25931016D01*
X21606871Y25921068D01*
X21805399Y25826375D01*
X21822535Y25821021D01*
X22039660Y25785855D01*
X22057610Y25785526D01*
X22275878Y25812712D01*
X22293199Y25817434D01*
X22495064Y25904789D01*
X22510363Y25914183D01*
X22679595Y26054683D01*
X22691643Y26067993D01*
X22814640Y26250344D01*
X22822468Y26266500D01*
X22889459Y26476411D01*
X22892453Y26494897D01*
X22895360Y26732824D01*
X22892818Y26751378D01*
X22830976Y26962863D01*
X22823545Y26979206D01*
X22705041Y27164506D01*
X22693322Y27178107D01*
X22527572Y27322700D01*
X22512507Y27332465D01*
X22312837Y27424725D01*
X22295637Y27429869D01*
X22078098Y27462381D01*
X22060145Y27462490D01*
X21842226Y27432639D01*
X21824965Y27427706D01*
X21624182Y27337892D01*
X21608999Y27328312D01*
X21441495Y27185754D01*
X21429610Y27172297D01*
X21308851Y26988458D01*
X21301221Y26972207D01*
X21236912Y26761864D01*
X21234150Y26744124D01*
X21231463Y26524187D01*
X19844810Y26524187D01*
X19847360Y26732824D01*
X19844818Y26751378D01*
X19782976Y26962863D01*
X19775545Y26979206D01*
X19657041Y27164506D01*
X19645322Y27178107D01*
X19479572Y27322700D01*
X19464507Y27332465D01*
X19264837Y27424725D01*
X19247637Y27429869D01*
X19030098Y27462381D01*
X19012145Y27462490D01*
X18794226Y27432639D01*
X18776965Y27427706D01*
X18576182Y27337892D01*
X18560999Y27328312D01*
X18393495Y27185754D01*
X18381610Y27172297D01*
X18260851Y26988458D01*
X18253221Y26972207D01*
X18188912Y26761864D01*
X18186150Y26744124D01*
X18183463Y26524187D01*
X17812810Y26524187D01*
X17815360Y26732824D01*
X17812818Y26751378D01*
X17750976Y26962863D01*
X17743545Y26979206D01*
X17625041Y27164506D01*
X17613322Y27178107D01*
X17447572Y27322700D01*
X17432507Y27332465D01*
X17232837Y27424725D01*
X17215637Y27429869D01*
X16998098Y27462381D01*
X16980145Y27462490D01*
X16762226Y27432639D01*
X16744965Y27427706D01*
X16544182Y27337892D01*
X16528999Y27328312D01*
X16361495Y27185754D01*
X16349610Y27172297D01*
X16228851Y26988458D01*
X16221221Y26972207D01*
X16156912Y26761864D01*
X16154150Y26744124D01*
X16151463Y26524187D01*
X14764810Y26524187D01*
X14767360Y26732824D01*
X14764818Y26751378D01*
X14702976Y26962863D01*
X14695545Y26979206D01*
X14577041Y27164506D01*
X14565322Y27178107D01*
X14399572Y27322700D01*
X14384507Y27332465D01*
X14184837Y27424725D01*
X14167637Y27429869D01*
X13950098Y27462381D01*
X13932145Y27462490D01*
X13714226Y27432639D01*
X13696965Y27427706D01*
X13496182Y27337892D01*
X13480999Y27328312D01*
X13313495Y27185754D01*
X13301610Y27172297D01*
X13180851Y26988458D01*
X13173221Y26972207D01*
X13108912Y26761864D01*
X13106150Y26744124D01*
X13103463Y26524187D01*
X329200Y26524187D01*
X329200Y28048187D01*
X14627463Y28048187D01*
X14629791Y28030385D01*
X14688940Y27818533D01*
X14696171Y27802100D01*
X14812404Y27615365D01*
X14823956Y27601622D01*
X14987927Y27455016D01*
X15002871Y27445068D01*
X15201399Y27350375D01*
X15218535Y27345021D01*
X15435660Y27309855D01*
X15453610Y27309526D01*
X15671878Y27336712D01*
X15689199Y27341434D01*
X15891064Y27428789D01*
X15906363Y27438183D01*
X16075595Y27578683D01*
X16087643Y27591993D01*
X16210640Y27774344D01*
X16218468Y27790500D01*
X16285459Y28000411D01*
X16288453Y28018897D01*
X16288810Y28048187D01*
X19707463Y28048187D01*
X19709791Y28030385D01*
X19768940Y27818533D01*
X19776171Y27802100D01*
X19892404Y27615365D01*
X19903956Y27601622D01*
X20067927Y27455016D01*
X20082871Y27445068D01*
X20281399Y27350375D01*
X20298535Y27345021D01*
X20515660Y27309855D01*
X20533610Y27309526D01*
X20751878Y27336712D01*
X20769199Y27341434D01*
X20971064Y27428789D01*
X20986363Y27438183D01*
X21155595Y27578683D01*
X21167643Y27591993D01*
X21290640Y27774344D01*
X21298468Y27790500D01*
X21365459Y28000411D01*
X21368453Y28018897D01*
X21371360Y28256824D01*
X21368818Y28275378D01*
X21306976Y28486863D01*
X21299545Y28503206D01*
X21181041Y28688506D01*
X21169322Y28702107D01*
X21003572Y28846700D01*
X20988507Y28856465D01*
X20788837Y28948725D01*
X20771637Y28953869D01*
X20554098Y28986381D01*
X20536145Y28986490D01*
X20318226Y28956639D01*
X20300965Y28951706D01*
X20100182Y28861892D01*
X20084999Y28852312D01*
X19917495Y28709754D01*
X19905610Y28696297D01*
X19784851Y28512458D01*
X19777221Y28496207D01*
X19712912Y28285864D01*
X19710150Y28268124D01*
X19707463Y28048187D01*
X16288810Y28048187D01*
X16291360Y28256824D01*
X16288818Y28275378D01*
X16226976Y28486863D01*
X16219545Y28503206D01*
X16101041Y28688506D01*
X16089322Y28702107D01*
X15923572Y28846700D01*
X15908507Y28856465D01*
X15708837Y28948725D01*
X15691637Y28953869D01*
X15474098Y28986381D01*
X15456145Y28986490D01*
X15238226Y28956639D01*
X15220965Y28951706D01*
X15020182Y28861892D01*
X15004999Y28852312D01*
X14837495Y28709754D01*
X14825610Y28696297D01*
X14704851Y28512458D01*
X14697221Y28496207D01*
X14632912Y28285864D01*
X14630150Y28268124D01*
X14627463Y28048187D01*
X329200Y28048187D01*
X329200Y34080592D01*
X4540849Y34080592D01*
X4540849Y33880386D01*
X4544677Y33858673D01*
X4613152Y33670540D01*
X4624175Y33651447D01*
X4752866Y33498078D01*
X4769755Y33483907D01*
X4943141Y33383802D01*
X4963858Y33376261D01*
X5161025Y33341496D01*
X5183071Y33341496D01*
X5380238Y33376261D01*
X5400955Y33383802D01*
X5574341Y33483907D01*
X5591230Y33498078D01*
X5719921Y33651447D01*
X5724996Y33660237D01*
X5747381Y33647313D01*
X5768099Y33639772D01*
X5965266Y33605007D01*
X5987312Y33605007D01*
X6184479Y33639772D01*
X6205196Y33647313D01*
X6378582Y33747418D01*
X6395471Y33761589D01*
X6524162Y33914958D01*
X6535185Y33934051D01*
X6603660Y34122184D01*
X6606052Y34135751D01*
X6684127Y34042704D01*
X6701016Y34028533D01*
X6874402Y33928428D01*
X6895119Y33920887D01*
X7092286Y33886122D01*
X7114332Y33886122D01*
X7311499Y33920887D01*
X7332216Y33928428D01*
X7505602Y34028533D01*
X7522491Y34042704D01*
X7651182Y34196073D01*
X7653528Y34200136D01*
X7657210Y34198796D01*
X7854377Y34164031D01*
X7876423Y34164031D01*
X8073590Y34198796D01*
X8094307Y34206337D01*
X8267693Y34306442D01*
X8284582Y34320613D01*
X8413273Y34473982D01*
X8424296Y34493075D01*
X8492771Y34681208D01*
X8496599Y34702921D01*
X8496599Y34903127D01*
X8492771Y34924840D01*
X8424296Y35112973D01*
X8413273Y35132066D01*
X8284582Y35285435D01*
X8267693Y35299606D01*
X8094307Y35399711D01*
X8073590Y35407252D01*
X7876423Y35442017D01*
X7854377Y35442017D01*
X7657210Y35407252D01*
X7636493Y35399711D01*
X7463107Y35299606D01*
X7446218Y35285435D01*
X7317527Y35132066D01*
X7315181Y35128003D01*
X7311499Y35129343D01*
X7114332Y35164108D01*
X7092286Y35164108D01*
X6895119Y35129343D01*
X6874402Y35121802D01*
X6845994Y35105400D01*
X6867171Y35163584D01*
X6870999Y35185297D01*
X6870999Y35385503D01*
X6867171Y35407216D01*
X6798696Y35595349D01*
X6787673Y35614442D01*
X6658982Y35767811D01*
X6642093Y35781982D01*
X6468707Y35882087D01*
X6447990Y35889628D01*
X6250823Y35924393D01*
X6228777Y35924393D01*
X6031610Y35889628D01*
X6010893Y35882087D01*
X5837507Y35781982D01*
X5820618Y35767811D01*
X5691927Y35614442D01*
X5680904Y35595349D01*
X5612429Y35407216D01*
X5608601Y35385503D01*
X5608601Y35185297D01*
X5612429Y35163584D01*
X5680904Y34975451D01*
X5691927Y34956358D01*
X5780782Y34850464D01*
X5768099Y34848228D01*
X5747382Y34840687D01*
X5573996Y34740582D01*
X5557107Y34726411D01*
X5428416Y34573042D01*
X5423341Y34564252D01*
X5400956Y34577176D01*
X5380238Y34584717D01*
X5183071Y34619482D01*
X5161025Y34619482D01*
X4963858Y34584717D01*
X4943141Y34577176D01*
X4769755Y34477071D01*
X4752866Y34462900D01*
X4624175Y34309531D01*
X4613152Y34290438D01*
X4544677Y34102305D01*
X4540849Y34080592D01*
X329200Y34080592D01*
X329200Y36332990D01*
X12586819Y36332990D01*
X12586819Y34542610D01*
X12588032Y34530289D01*
X12607432Y34432762D01*
X12616930Y34409832D01*
X12675630Y34321981D01*
X12693181Y34304430D01*
X12781032Y34245730D01*
X12803962Y34236232D01*
X12901489Y34216832D01*
X12913810Y34215619D01*
X14704190Y34215619D01*
X14716511Y34216832D01*
X14814038Y34236232D01*
X14836968Y34245730D01*
X14924819Y34304430D01*
X14942370Y34321981D01*
X15001070Y34409832D01*
X15010568Y34432762D01*
X15029968Y34530289D01*
X15031181Y34542610D01*
X15031181Y35435005D01*
X15125821Y35435005D01*
X15146180Y35215542D01*
X15148417Y35203758D01*
X15209908Y34992103D01*
X15214333Y34980955D01*
X15314738Y34784747D01*
X15321191Y34774637D01*
X15456887Y34600955D01*
X15465136Y34592247D01*
X15631225Y34447359D01*
X15640971Y34440368D01*
X15831462Y34329499D01*
X15842355Y34324477D01*
X16050374Y34251630D01*
X16062020Y34248759D01*
X16280062Y34216562D01*
X16292040Y34215944D01*
X16512236Y34225559D01*
X16524114Y34227217D01*
X16738520Y34278296D01*
X16749871Y34282171D01*
X16950749Y34372871D01*
X16961163Y34378823D01*
X17141266Y34505872D01*
X17150366Y34513685D01*
X17303196Y34672499D01*
X17310654Y34681892D01*
X17430696Y34866740D01*
X17436243Y34877374D01*
X17519166Y35081586D01*
X17522602Y35093077D01*
X17565429Y35309367D01*
X17566632Y35321468D01*
X17566928Y35435005D01*
X17665821Y35435005D01*
X17686180Y35215542D01*
X17688417Y35203758D01*
X17749908Y34992103D01*
X17754333Y34980955D01*
X17854738Y34784747D01*
X17861191Y34774637D01*
X17996887Y34600955D01*
X18005136Y34592247D01*
X18171225Y34447359D01*
X18180971Y34440368D01*
X18371462Y34329499D01*
X18382355Y34324477D01*
X18590374Y34251630D01*
X18602020Y34248759D01*
X18820062Y34216562D01*
X18832040Y34215944D01*
X19052236Y34225559D01*
X19064114Y34227217D01*
X19278520Y34278296D01*
X19289871Y34282171D01*
X19490749Y34372871D01*
X19501163Y34378823D01*
X19681266Y34505872D01*
X19690366Y34513685D01*
X19843196Y34672499D01*
X19850654Y34681892D01*
X19970696Y34866740D01*
X19976243Y34877374D01*
X20059166Y35081586D01*
X20062602Y35093077D01*
X20105429Y35309367D01*
X20106632Y35321468D01*
X20106928Y35435005D01*
X20205821Y35435005D01*
X20226180Y35215542D01*
X20228417Y35203758D01*
X20289908Y34992103D01*
X20294333Y34980955D01*
X20394738Y34784747D01*
X20401191Y34774637D01*
X20536887Y34600955D01*
X20545136Y34592247D01*
X20711225Y34447359D01*
X20720971Y34440368D01*
X20911462Y34329499D01*
X20922355Y34324477D01*
X21130374Y34251630D01*
X21142020Y34248759D01*
X21360062Y34216562D01*
X21372040Y34215944D01*
X21592236Y34225559D01*
X21604114Y34227217D01*
X21818520Y34278296D01*
X21829871Y34282171D01*
X22030749Y34372871D01*
X22041163Y34378823D01*
X22221266Y34505872D01*
X22230366Y34513685D01*
X22383196Y34672499D01*
X22390654Y34681892D01*
X22510696Y34866740D01*
X22516243Y34877374D01*
X22599166Y35081586D01*
X22602602Y35093077D01*
X22645429Y35309367D01*
X22646632Y35321468D01*
X22647223Y35547756D01*
X22646084Y35559862D01*
X22604392Y35776372D01*
X22601015Y35787881D01*
X22519163Y35992526D01*
X22513671Y36003189D01*
X22394599Y36188662D01*
X22387190Y36198094D01*
X22235194Y36357706D01*
X22226135Y36365567D01*
X22046699Y36493557D01*
X22036317Y36499563D01*
X21835917Y36591314D01*
X21824586Y36595249D01*
X21610451Y36647450D01*
X21598581Y36649171D01*
X21378438Y36659938D01*
X21366457Y36659383D01*
X21148249Y36628327D01*
X21136589Y36625517D01*
X20928191Y36553760D01*
X20917272Y36548795D01*
X20726204Y36438925D01*
X20716421Y36431986D01*
X20549574Y36287969D01*
X20541280Y36279304D01*
X20404677Y36106335D01*
X20398171Y36096258D01*
X20296740Y35900579D01*
X20292257Y35889454D01*
X20229658Y35678125D01*
X20227360Y35666353D01*
X20205852Y35446999D01*
X20205821Y35435005D01*
X20106928Y35435005D01*
X20107223Y35547756D01*
X20106084Y35559862D01*
X20064392Y35776372D01*
X20061015Y35787881D01*
X19979163Y35992526D01*
X19973671Y36003189D01*
X19854599Y36188662D01*
X19847190Y36198094D01*
X19695194Y36357706D01*
X19686135Y36365567D01*
X19506699Y36493557D01*
X19496317Y36499563D01*
X19295917Y36591314D01*
X19284586Y36595249D01*
X19070451Y36647450D01*
X19058581Y36649171D01*
X18838438Y36659938D01*
X18826457Y36659383D01*
X18608249Y36628327D01*
X18596589Y36625517D01*
X18388191Y36553760D01*
X18377272Y36548795D01*
X18186204Y36438925D01*
X18176421Y36431986D01*
X18009574Y36287969D01*
X18001280Y36279304D01*
X17864677Y36106335D01*
X17858171Y36096258D01*
X17756740Y35900579D01*
X17752257Y35889454D01*
X17689658Y35678125D01*
X17687360Y35666353D01*
X17665852Y35446999D01*
X17665821Y35435005D01*
X17566928Y35435005D01*
X17567223Y35547756D01*
X17566084Y35559862D01*
X17524392Y35776372D01*
X17521015Y35787881D01*
X17439163Y35992526D01*
X17433671Y36003189D01*
X17314599Y36188662D01*
X17307190Y36198094D01*
X17155194Y36357706D01*
X17146135Y36365567D01*
X16966699Y36493557D01*
X16956317Y36499563D01*
X16755917Y36591314D01*
X16744586Y36595249D01*
X16530451Y36647450D01*
X16518581Y36649171D01*
X16298438Y36659938D01*
X16286457Y36659383D01*
X16068249Y36628327D01*
X16056589Y36625517D01*
X15848191Y36553760D01*
X15837272Y36548795D01*
X15646204Y36438925D01*
X15636421Y36431986D01*
X15469574Y36287969D01*
X15461280Y36279304D01*
X15324677Y36106335D01*
X15318171Y36096258D01*
X15216740Y35900579D01*
X15212257Y35889454D01*
X15149658Y35678125D01*
X15147360Y35666353D01*
X15125852Y35446999D01*
X15125821Y35435005D01*
X15031181Y35435005D01*
X15031181Y36332990D01*
X15029968Y36345311D01*
X15010568Y36442838D01*
X15001070Y36465768D01*
X14942370Y36553619D01*
X14924819Y36571170D01*
X14836968Y36629870D01*
X14814038Y36639368D01*
X14716511Y36658768D01*
X14704190Y36659981D01*
X12913810Y36659981D01*
X12901489Y36658768D01*
X12803962Y36639368D01*
X12781032Y36629870D01*
X12693181Y36571170D01*
X12675630Y36553619D01*
X12616930Y36465768D01*
X12607432Y36442838D01*
X12588032Y36345311D01*
X12586819Y36332990D01*
X329200Y36332990D01*
X329200Y38346089D01*
X331946Y38358693D01*
X332708Y38366145D01*
X332712Y38366184D01*
X349707Y38533487D01*
X389829Y38661518D01*
X454880Y38778874D01*
X542194Y38880744D01*
X648209Y38962978D01*
X768604Y39022220D01*
X902423Y39057076D01*
X1032708Y39067102D01*
X1046600Y39069758D01*
X1049955Y39070800D01*
X35646089Y39070800D01*
X35658693Y39068054D01*
M02*
