G04 #@! TF.GenerationSoftware,KiCad,Pcbnew,5.99.0-unknown-d20d310~86~ubuntu19.10.1*
G04 #@! TF.CreationDate,2019-12-18T16:01:44-08:00*
G04 #@! TF.ProjectId,TMC2209_Driver,544d4332-3230-4395-9f44-72697665722e,rev?*
G04 #@! TF.SameCoordinates,PX67f3540PY6cb8080*
G04 #@! TF.FileFunction,Copper,L1,Top*
G04 #@! TF.FilePolarity,Positive*
%FSLAX46Y46*%
G04 Gerber Fmt 4.6, Leading zero omitted, Abs format (unit mm)*
G04 Created by KiCad (PCBNEW 5.99.0-unknown-d20d310~86~ubuntu19.10.1) date 2019-12-18 16:01:44*
%MOMM*%
%LPD*%
G04 APERTURE LIST*
%ADD10R,0.590000X0.640000*%
%ADD11R,3.700000X3.700000*%
%ADD12R,0.250000X0.800000*%
%ADD13R,0.800000X0.250000*%
%ADD14R,0.680000X0.300000*%
%ADD15R,1.450000X1.560000*%
%ADD16R,0.875000X0.950000*%
%ADD17R,0.650000X0.400000*%
%ADD18C,1.778000*%
%ADD19R,1.778000X1.778000*%
%ADD20C,0.650000*%
%ADD21R,0.650000X4.600000*%
%ADD22R,0.650000X3.600000*%
%ADD23R,3.000000X0.127000*%
%ADD24R,0.127000X3.000000*%
%ADD25R,1.250000X1.750000*%
%ADD26C,0.800000*%
%ADD27C,0.600000*%
%ADD28C,0.635000*%
%ADD29C,0.508000*%
%ADD30C,1.000000*%
%ADD31C,0.254000*%
%ADD32C,0.508000*%
%ADD33C,0.250000*%
%ADD34C,0.152400*%
%ADD35C,0.650000*%
%ADD36C,0.203200*%
%ADD37C,1.500000*%
G04 APERTURE END LIST*
G04 #@! TA.AperFunction,SMDPad,CuDef*
G36*
X13520671Y31569370D02*
G01*
X13601777Y31515177D01*
X13655970Y31434071D01*
X13675000Y31338400D01*
X13675000Y30088400D01*
X13655970Y29992729D01*
X13601777Y29911623D01*
X13520671Y29857430D01*
X13425000Y29838400D01*
X12675000Y29838400D01*
X12579329Y29857430D01*
X12498223Y29911623D01*
X12444030Y29992729D01*
X12425000Y30088400D01*
X12425000Y31338400D01*
X12444030Y31434071D01*
X12498223Y31515177D01*
X12579329Y31569370D01*
X12675000Y31588400D01*
X13425000Y31588400D01*
X13520671Y31569370D01*
G37*
G04 #@! TD.AperFunction*
G04 #@! TA.AperFunction,SMDPad,CuDef*
G36*
X10720671Y31569370D02*
G01*
X10801777Y31515177D01*
X10855970Y31434071D01*
X10875000Y31338400D01*
X10875000Y30088400D01*
X10855970Y29992729D01*
X10801777Y29911623D01*
X10720671Y29857430D01*
X10625000Y29838400D01*
X9875000Y29838400D01*
X9779329Y29857430D01*
X9698223Y29911623D01*
X9644030Y29992729D01*
X9625000Y30088400D01*
X9625000Y31338400D01*
X9644030Y31434071D01*
X9698223Y31515177D01*
X9779329Y31569370D01*
X9875000Y31588400D01*
X10625000Y31588400D01*
X10720671Y31569370D01*
G37*
G04 #@! TD.AperFunction*
G04 #@! TA.AperFunction,SMDPad,CuDef*
G36*
X22661671Y31594770D02*
G01*
X22742777Y31540577D01*
X22796970Y31459471D01*
X22816000Y31363800D01*
X22816000Y30113800D01*
X22796970Y30018129D01*
X22742777Y29937023D01*
X22661671Y29882830D01*
X22566000Y29863800D01*
X21816000Y29863800D01*
X21720329Y29882830D01*
X21639223Y29937023D01*
X21585030Y30018129D01*
X21566000Y30113800D01*
X21566000Y31363800D01*
X21585030Y31459471D01*
X21639223Y31540577D01*
X21720329Y31594770D01*
X21816000Y31613800D01*
X22566000Y31613800D01*
X22661671Y31594770D01*
G37*
G04 #@! TD.AperFunction*
G04 #@! TA.AperFunction,SMDPad,CuDef*
G36*
X25461671Y31594770D02*
G01*
X25542777Y31540577D01*
X25596970Y31459471D01*
X25616000Y31363800D01*
X25616000Y30113800D01*
X25596970Y30018129D01*
X25542777Y29937023D01*
X25461671Y29882830D01*
X25366000Y29863800D01*
X24616000Y29863800D01*
X24520329Y29882830D01*
X24439223Y29937023D01*
X24385030Y30018129D01*
X24366000Y30113800D01*
X24366000Y31363800D01*
X24385030Y31459471D01*
X24439223Y31540577D01*
X24520329Y31594770D01*
X24616000Y31613800D01*
X25366000Y31613800D01*
X25461671Y31594770D01*
G37*
G04 #@! TD.AperFunction*
G04 #@! TA.AperFunction,SMDPad,CuDef*
G36*
X35795671Y13780970D02*
G01*
X35876777Y13726777D01*
X35930970Y13645671D01*
X35950000Y13550000D01*
X35950000Y12450000D01*
X35930970Y12354329D01*
X35876777Y12273223D01*
X35795671Y12219030D01*
X35700000Y12200000D01*
X32700000Y12200000D01*
X32604329Y12219030D01*
X32523223Y12273223D01*
X32469030Y12354329D01*
X32450000Y12450000D01*
X32450000Y13550000D01*
X32469030Y13645671D01*
X32523223Y13726777D01*
X32604329Y13780970D01*
X32700000Y13800000D01*
X35700000Y13800000D01*
X35795671Y13780970D01*
G37*
G04 #@! TD.AperFunction*
G04 #@! TA.AperFunction,SMDPad,CuDef*
G36*
X30395671Y13780970D02*
G01*
X30476777Y13726777D01*
X30530970Y13645671D01*
X30550000Y13550000D01*
X30550000Y12450000D01*
X30530970Y12354329D01*
X30476777Y12273223D01*
X30395671Y12219030D01*
X30300000Y12200000D01*
X27300000Y12200000D01*
X27204329Y12219030D01*
X27123223Y12273223D01*
X27069030Y12354329D01*
X27050000Y12450000D01*
X27050000Y13550000D01*
X27069030Y13645671D01*
X27123223Y13726777D01*
X27204329Y13780970D01*
X27300000Y13800000D01*
X30300000Y13800000D01*
X30395671Y13780970D01*
G37*
G04 #@! TD.AperFunction*
D10*
X11012500Y22814000D03*
X11982500Y22814000D03*
D11*
X17682500Y22941000D03*
D12*
X16182500Y25441000D03*
X16682499Y25441000D03*
X17182501Y25441000D03*
X17682500Y25441000D03*
X18182499Y25441000D03*
X18682501Y25441000D03*
X19182500Y25441000D03*
D13*
X20182500Y24441000D03*
X20182500Y23941001D03*
X20182500Y23440999D03*
X20182500Y22941000D03*
X20182500Y22441001D03*
X20182500Y21940999D03*
X20182500Y21441000D03*
D12*
X19182500Y20441000D03*
X18682501Y20441000D03*
X18182499Y20441000D03*
X17682500Y20441000D03*
X17182501Y20441000D03*
X16682499Y20441000D03*
X16182500Y20441000D03*
D13*
X15182500Y21441000D03*
X15182500Y21940999D03*
X15182500Y22441001D03*
X15182500Y22941000D03*
X15182500Y23440999D03*
X15182500Y23941001D03*
X15182500Y24441000D03*
D14*
X3101800Y13581800D03*
X3101800Y13081800D03*
X3101800Y12581800D03*
X3101800Y12081800D03*
X5821800Y13581800D03*
X5821800Y13081800D03*
X5821800Y12581800D03*
X5821800Y12081800D03*
D15*
X4461800Y12831800D03*
D16*
X5909700Y14965400D03*
X4334700Y14965400D03*
X10850000Y14051000D03*
X9275000Y14051000D03*
D17*
X10885500Y12415000D03*
X10885500Y11115000D03*
X8985500Y11765000D03*
X8985500Y11115000D03*
X8985500Y12415000D03*
D16*
X8805000Y34879000D03*
X10380000Y34879000D03*
X8830500Y36530000D03*
X10405500Y36530000D03*
X26407500Y35006000D03*
X24832500Y35006000D03*
X26407500Y36530000D03*
X24832500Y36530000D03*
X12412000Y10876000D03*
X13987000Y10876000D03*
D18*
X21429000Y35437800D03*
X18889000Y35437800D03*
X16349000Y35437800D03*
D19*
X13809000Y35437800D03*
D20*
X9652800Y1014800D03*
X25652800Y1014800D03*
X24652800Y1014800D03*
X23652800Y1014800D03*
X22652800Y1014800D03*
X21652800Y1014800D03*
X8652800Y1014800D03*
X18652800Y1014800D03*
X17652800Y1014800D03*
X16652800Y1014800D03*
X15652800Y1014800D03*
X14652800Y1014800D03*
X13652800Y1014800D03*
X12652800Y1014800D03*
X11652800Y1014800D03*
X10652800Y1014800D03*
D21*
X22652800Y3314800D03*
X21652800Y3314800D03*
X27652800Y3314800D03*
D22*
X26652800Y3814800D03*
D21*
X25652800Y3314800D03*
X24652800Y3314800D03*
X23652800Y3314800D03*
X18652800Y3314800D03*
X17652800Y3314800D03*
X16652800Y3314800D03*
X15652800Y3314800D03*
X14652800Y3314800D03*
X13652800Y3314800D03*
X12652800Y3314800D03*
X11652800Y3314800D03*
X10652800Y3314800D03*
X9652800Y3314800D03*
X8652800Y3314800D03*
D20*
X27652800Y1014800D03*
D23*
X1744000Y8000000D03*
D24*
X1744000Y8000000D03*
D23*
X34764000Y37546000D03*
D24*
X34764000Y37546000D03*
D23*
X34764000Y8000000D03*
D24*
X34764000Y8000000D03*
D23*
X1744000Y37546000D03*
D24*
X1744000Y37546000D03*
D25*
X29046000Y27640000D03*
X31846000Y27640000D03*
X7208000Y27640000D03*
X4408000Y27640000D03*
D10*
X13428000Y26878000D03*
X12458000Y26878000D03*
X21856000Y26878000D03*
X22826000Y26878000D03*
D16*
X10735500Y21163000D03*
X12310500Y21163000D03*
X12361000Y18623000D03*
X13936000Y18623000D03*
X22800500Y20401000D03*
X24375500Y20401000D03*
D26*
X33200000Y11800000D03*
X34300000Y11800000D03*
X35300000Y11800000D03*
D27*
X9668800Y6862800D03*
X9797749Y10948379D03*
X8620401Y10948379D03*
X15683714Y9694099D03*
X21491077Y7755937D03*
X18152400Y8640800D03*
X16653800Y7400979D03*
X15002800Y6532600D03*
X7800859Y10719768D03*
X7257181Y9249019D03*
X6519200Y11028400D03*
X18406400Y15016200D03*
X17483320Y7056829D03*
X18739754Y8116988D03*
X3081143Y11532112D03*
X9059200Y8717000D03*
X16370726Y9287672D03*
X22699000Y9987000D03*
X9603597Y8166166D03*
X14799600Y11866600D03*
X18660400Y6380200D03*
X12541045Y11741645D03*
X11654006Y11799326D03*
X13529600Y11866600D03*
X14113800Y6354800D03*
X12285000Y6380200D03*
X6798600Y13085800D03*
X3496600Y14990800D03*
X20772955Y14930947D03*
X16547180Y15605831D03*
X19198233Y14947462D03*
X17296740Y16765207D03*
X17936500Y15638500D03*
X8475000Y13987500D03*
D28*
X12996200Y24541200D03*
X13682000Y24541200D03*
X14393200Y25582600D03*
X13707400Y25582600D03*
X12996200Y25582600D03*
X21657600Y24592000D03*
X22343400Y24566600D03*
X21683000Y25633400D03*
X20971800Y25633400D03*
X22368800Y25633400D03*
D29*
X17238000Y26497000D03*
X17111000Y28224200D03*
X15968000Y32720000D03*
X17060200Y32720000D03*
X18127000Y26497000D03*
X18330200Y32720000D03*
X18254000Y28224200D03*
X19422400Y32720000D03*
X17085600Y21671000D03*
X18355600Y21671000D03*
X18355600Y22941000D03*
X17720600Y23576000D03*
X16450600Y23576000D03*
X16450600Y22306000D03*
X17085600Y22941000D03*
X17720600Y22306000D03*
X18355600Y24211000D03*
X18927100Y23576000D03*
X18927100Y22306000D03*
X17085600Y24211000D03*
D27*
X11269000Y26878000D03*
X24350000Y26878000D03*
X25493000Y20401000D03*
X11269000Y18623000D03*
X9694200Y23804600D03*
X22851400Y14813000D03*
X8652800Y7980400D03*
X25848600Y22687000D03*
X26794710Y21010600D03*
D30*
X28414000Y30942000D03*
X30446000Y30942000D03*
X32224000Y30942000D03*
X34002000Y30942000D03*
X28414000Y33228000D03*
X30446000Y33228000D03*
X32224000Y33228000D03*
X34002000Y33228000D03*
X4030000Y30942000D03*
X1998000Y33228000D03*
X1998000Y30942000D03*
X5808000Y30942000D03*
X7586000Y33228000D03*
X5808000Y33228000D03*
X7586000Y30942000D03*
X4030000Y33228000D03*
D27*
X21886200Y10291800D03*
X21714328Y8976928D03*
D31*
X16182500Y25441000D02*
X15803500Y25441000D01*
X15803500Y25441000D02*
X13604500Y27640000D01*
X13604500Y27640000D02*
X8087000Y27640000D01*
X8087000Y27640000D02*
X7208000Y27640000D01*
D32*
X34200000Y12800000D02*
X33200000Y11800000D01*
X34200000Y13000000D02*
X34200000Y12800000D01*
X34200000Y11900000D02*
X34300000Y11800000D01*
X34200000Y13000000D02*
X34200000Y11900000D01*
X34200000Y12900000D02*
X35300000Y11800000D01*
X34200000Y13000000D02*
X34200000Y12900000D01*
D33*
X22040000Y27640000D02*
X21856000Y27456000D01*
X21856000Y27456000D02*
X21856000Y26878000D01*
X29046000Y27640000D02*
X22040000Y27640000D01*
D34*
X9668800Y6862800D02*
X9668800Y3330800D01*
X9668800Y3330800D02*
X9652800Y3314800D01*
D32*
X8947968Y11152532D02*
X8824554Y11152532D01*
X8824554Y11152532D02*
X8620401Y10948379D01*
D34*
X10652800Y10093328D02*
X10097748Y10648380D01*
D32*
X8985500Y11115000D02*
X8947968Y11152532D01*
D34*
X10652800Y3314800D02*
X10652800Y10093328D01*
X10097748Y10648380D02*
X9797749Y10948379D01*
X11652800Y3314800D02*
X11652800Y6174200D01*
X11652800Y6174200D02*
X11661187Y6182587D01*
X11661187Y6182587D02*
X11661187Y9986913D01*
X10885500Y10762600D02*
X10885500Y11115000D01*
X11661187Y9986913D02*
X10885500Y10762600D01*
D35*
X15002800Y6956864D02*
X15002800Y6532600D01*
X14906312Y11759888D02*
X14906312Y7053352D01*
X14906312Y7053352D02*
X15002800Y6956864D01*
D34*
X15652800Y3314800D02*
X15652800Y8757400D01*
D35*
X14799600Y11866600D02*
X14906312Y11759888D01*
D34*
X15652800Y8757400D02*
X15652800Y9663185D01*
X21652800Y7594214D02*
X21491077Y7755937D01*
X19904347Y8284547D02*
X21479147Y8284547D01*
X21652800Y3314800D02*
X21652800Y7594214D01*
X18862947Y8284547D02*
X19904347Y8284547D01*
X19904347Y8284547D02*
X22166253Y8284547D01*
X22166253Y8284547D02*
X22647592Y7803208D01*
X22647592Y7803208D02*
X22652800Y7803208D01*
X22652800Y7803208D02*
X22652800Y3314800D01*
X18152400Y8640800D02*
X18576664Y8640800D01*
X18912792Y8976928D02*
X21290064Y8976928D01*
X18576664Y8640800D02*
X18912792Y8976928D01*
X21290064Y8976928D02*
X21714328Y8976928D01*
X22357051Y9645051D02*
X17808549Y9645051D01*
X17483320Y8583284D02*
X17483320Y8454320D01*
X17483320Y8454320D02*
X17483320Y7481093D01*
X17483320Y8454320D02*
X17483320Y9319822D01*
X17483320Y9319822D02*
X17808549Y9645051D01*
X16953799Y7700978D02*
X16653800Y7400979D01*
X16953799Y9627359D02*
X16953799Y7700978D01*
X17618240Y10291800D02*
X16953799Y9627359D01*
X21886200Y10291800D02*
X17618240Y10291800D01*
X16370726Y9287672D02*
X16070727Y8987673D01*
X16070727Y8987673D02*
X16070727Y5871873D01*
X16652800Y5289800D02*
X16652800Y3314800D01*
X16070727Y5871873D02*
X16652800Y5289800D01*
X7716227Y10059239D02*
X8739846Y10059239D01*
X9603597Y8590430D02*
X9603597Y8166166D01*
X5911800Y12581800D02*
X6363091Y12581800D01*
X7458257Y10317209D02*
X7716227Y10059239D01*
X6965361Y9739529D02*
X7003452Y9777620D01*
X6363091Y12581800D02*
X7800859Y11144032D01*
X8739846Y10059239D02*
X9603597Y9195488D01*
X4334809Y10317209D02*
X7458257Y10317209D01*
X7800859Y11144032D02*
X7800859Y10719768D01*
X9603597Y9195488D02*
X9603597Y8590430D01*
X4076839Y10059239D02*
X4334809Y10317209D01*
X3413871Y9739529D02*
X6965361Y9739529D01*
X7003452Y9777620D02*
X7510910Y9777620D01*
X7549001Y9739529D02*
X8583129Y9739529D01*
X7510910Y9777620D02*
X7549001Y9739529D01*
X3269381Y9249019D02*
X7257181Y9249019D01*
X6519200Y11028400D02*
X6519200Y11384400D01*
X6519200Y11384400D02*
X5821800Y12081800D01*
X3860329Y10059239D02*
X4076839Y10059239D01*
X2472491Y11112709D02*
X3525961Y10059239D01*
X3525961Y10059239D02*
X4076839Y10059239D01*
X2472491Y12342492D02*
X2472491Y11112709D01*
X1693190Y12571256D02*
X1693190Y10825210D01*
X2212087Y13090153D02*
X1693190Y12571256D01*
X1693190Y10825210D02*
X1693192Y10825208D01*
X3101800Y13581800D02*
X2693575Y13581800D01*
X1693192Y10825208D02*
X3269381Y9249019D01*
X2212087Y13100313D02*
X2212087Y13090153D01*
X2693575Y13581800D02*
X2212087Y13100313D01*
D32*
X24832500Y36530000D02*
X24832500Y36567500D01*
X20184401Y36733201D02*
X19777999Y36326799D01*
X24832500Y36567500D02*
X24666799Y36733201D01*
X24666799Y36733201D02*
X20184401Y36733201D01*
X19777999Y36326799D02*
X18889000Y35437800D01*
X10405500Y36530000D02*
X11351000Y36530000D01*
X15053599Y36733201D02*
X15460001Y36326799D01*
X11351000Y36530000D02*
X11554201Y36733201D01*
X11554201Y36733201D02*
X15053599Y36733201D01*
X15460001Y36326799D02*
X16349000Y35437800D01*
D34*
X16682499Y20441000D02*
X16682499Y15741150D01*
X16682499Y15741150D02*
X16547180Y15605831D01*
X17182501Y20441000D02*
X17182501Y16879446D01*
X17182501Y16879446D02*
X17296740Y16765207D01*
X17682500Y20441000D02*
X17682500Y17161777D01*
X17682500Y17161777D02*
X17825341Y17018936D01*
X17825341Y17018936D02*
X17825341Y15749659D01*
X17825341Y15749659D02*
X17936500Y15638500D01*
X18406400Y15016200D02*
X19182500Y15792300D01*
X19182500Y15792300D02*
X19182500Y20441000D01*
D31*
X15182500Y21940999D02*
X14654577Y21940999D01*
X13876578Y21163000D02*
X13002000Y21163000D01*
X14654577Y21940999D02*
X13876578Y21163000D01*
X13002000Y21163000D02*
X12310500Y21163000D01*
X15182500Y22441001D02*
X14528500Y22441001D01*
X14528500Y22441001D02*
X14147098Y22059599D01*
X14147098Y22059599D02*
X11426901Y22059599D01*
X11426901Y22059599D02*
X10710000Y22776500D01*
X10710000Y22776500D02*
X10710000Y22814000D01*
D34*
X17483320Y7481093D02*
X17483320Y7056829D01*
X22699000Y9987000D02*
X22357051Y9645051D01*
X1998000Y11155400D02*
X1998000Y12445000D01*
X1998000Y12445000D02*
X2634800Y13081800D01*
X2634800Y13081800D02*
X3101800Y13081800D01*
X1743989Y10774411D02*
X2836200Y9682200D01*
X3413871Y9739529D02*
X1998000Y11155400D01*
X3011800Y13081800D02*
X2711800Y13081800D01*
X3081143Y11956376D02*
X3081143Y11532112D01*
X3011800Y12581800D02*
X2711800Y12581800D01*
X2836200Y9682200D02*
X3269381Y9249019D01*
X3081143Y12012457D02*
X3081143Y11956376D01*
X8583129Y9739529D02*
X9000429Y9322229D01*
X2711800Y12581800D02*
X2472491Y12342492D01*
X3011800Y12081800D02*
X3081143Y12012457D01*
X2836200Y9682200D02*
X2940990Y9577410D01*
X9000429Y8775771D02*
X9059200Y8717000D01*
X9000429Y9322229D02*
X9000429Y8775771D01*
X15652800Y9663185D02*
X15683714Y9694099D01*
X20862312Y8284547D02*
X20742547Y8284547D01*
D35*
X18652800Y6372600D02*
X18660400Y6380200D01*
X18652800Y3314800D02*
X18652800Y6372600D01*
D36*
X8985500Y11765000D02*
X11619680Y11765000D01*
D32*
X11345200Y14051000D02*
X13529600Y11866600D01*
D31*
X12412000Y10876000D02*
X12412000Y11612600D01*
X12412000Y11612600D02*
X12541045Y11741645D01*
D36*
X11619680Y11765000D02*
X11654006Y11799326D01*
D32*
X10850000Y14051000D02*
X11345200Y14051000D01*
D36*
X13987000Y6481600D02*
X14113800Y6354800D01*
X13987000Y10876000D02*
X13987000Y6481600D01*
X12386600Y6481800D02*
X12285000Y6380200D01*
X12386600Y10172400D02*
X12386600Y6481800D01*
X12412000Y10876000D02*
X12412000Y10197800D01*
X12412000Y10197800D02*
X12386600Y10172400D01*
X6794600Y13081800D02*
X6798600Y13085800D01*
X5911800Y13081800D02*
X6794600Y13081800D01*
X10850000Y14051000D02*
X10850000Y14088500D01*
X10850000Y14088500D02*
X9973100Y14965400D01*
X9973100Y14965400D02*
X6550400Y14965400D01*
X6550400Y14965400D02*
X5909700Y14965400D01*
X5911800Y13581800D02*
X5911800Y14963300D01*
X5911800Y14963300D02*
X5909700Y14965400D01*
D32*
X3522000Y14965400D02*
X3496600Y14990800D01*
X4334700Y14965400D02*
X3522000Y14965400D01*
D35*
X19198233Y14947462D02*
X20756440Y14947462D01*
X20717723Y14930947D02*
X20772955Y14930947D01*
X20756440Y14947462D02*
X20772955Y14930947D01*
D31*
X10850000Y14051000D02*
X10850000Y12450500D01*
X10850000Y12450500D02*
X10885500Y12415000D01*
X10850000Y14013500D02*
X10850000Y14051000D01*
D32*
X8538500Y14051000D02*
X8475000Y13987500D01*
X9275000Y14051000D02*
X8538500Y14051000D01*
D31*
X17682500Y23614100D02*
X17720600Y23576000D01*
X17682500Y25288100D02*
X17682500Y23614100D01*
X20029600Y22941000D02*
X17682500Y22941000D01*
X17182501Y23440999D02*
X17682500Y22941000D01*
X15335400Y23440999D02*
X17182501Y23440999D01*
X18682501Y21426401D02*
X18927100Y21671000D01*
X18682501Y20593900D02*
X18682501Y21426401D01*
D32*
X13250200Y34879000D02*
X13809000Y35437800D01*
X10380000Y34879000D02*
X13250200Y34879000D01*
X21860800Y35006000D02*
X21429000Y35437800D01*
X24832500Y35006000D02*
X21860800Y35006000D01*
D31*
X22800500Y20438500D02*
X22800500Y20401000D01*
X21798000Y21441000D02*
X22800500Y20438500D01*
X20029600Y21441000D02*
X21798000Y21441000D01*
X15869400Y20593900D02*
X16182500Y20593900D01*
X13936000Y18660500D02*
X15869400Y20593900D01*
X13936000Y18623000D02*
X13936000Y18660500D01*
X12412000Y22941000D02*
X12285000Y22814000D01*
X15335400Y22941000D02*
X12412000Y22941000D01*
D32*
X12458000Y26878000D02*
X11269000Y26878000D01*
D37*
X4408000Y27640000D02*
X4408000Y29542000D01*
X31846000Y27640000D02*
X31846000Y29669000D01*
D32*
X22826000Y26878000D02*
X24350000Y26878000D01*
X24375500Y20401000D02*
X25493000Y20401000D01*
X12361000Y18623000D02*
X11269000Y18623000D01*
D35*
X27652800Y6264800D02*
X27652000Y6265600D01*
X27652800Y3314800D02*
X27652800Y6264800D01*
X27652000Y6265600D02*
X27652000Y8336000D01*
X26652800Y6264800D02*
X26661400Y6273400D01*
X26652800Y3814800D02*
X26652800Y6264800D01*
X26661400Y6273400D02*
X26661400Y8107400D01*
X25652800Y3314800D02*
X25652800Y7987800D01*
X25652800Y7987800D02*
X25899400Y8234400D01*
X24652800Y6264800D02*
X24654800Y6266800D01*
X24652800Y3314800D02*
X24652800Y6264800D01*
X24654800Y6266800D02*
X24654800Y8488400D01*
X23652800Y6264800D02*
X23664200Y6276200D01*
X23652800Y3314800D02*
X23652800Y6264800D01*
X23664200Y6276200D02*
X23664200Y8437600D01*
X13986800Y10875800D02*
X13987000Y10876000D01*
X12564400Y10723600D02*
X12412000Y10876000D01*
D31*
X21784600Y3446600D02*
X21652800Y3314800D01*
X18682501Y23941001D02*
X17682500Y22941000D01*
X20029600Y23941001D02*
X18682501Y23941001D01*
X14626601Y23941001D02*
X14388600Y23703000D01*
X15335400Y23941001D02*
X14626601Y23941001D01*
X14388600Y23703000D02*
X9795800Y23703000D01*
X9795800Y23703000D02*
X9694200Y23804600D01*
D35*
X22800500Y20401000D02*
X22800500Y14863900D01*
X22800500Y14863900D02*
X22851400Y14813000D01*
D31*
X8652800Y7980400D02*
X8652800Y3314800D01*
D34*
X25112000Y23423600D02*
X25848600Y22687000D01*
X26394711Y21410599D02*
X26794710Y21010600D01*
X25864311Y21940999D02*
X26394711Y21410599D01*
X20029600Y21940999D02*
X25864311Y21940999D01*
X18739754Y8116988D02*
X18739754Y8161354D01*
X18739754Y8161354D02*
X18862947Y8284547D01*
X22166253Y8284547D02*
X21479147Y8284547D01*
X21479147Y8284547D02*
X20742547Y8284547D01*
X25094601Y23440999D02*
X25848600Y22687000D01*
X20182500Y23440999D02*
X25094601Y23440999D01*
G36*
X15559855Y24847355D02*
G01*
X15551114Y24803410D01*
X15551114Y24347387D01*
X14770090Y24347387D01*
X14765133Y24346401D01*
X14695736Y24346401D01*
X14673673Y24354149D01*
X14604048Y24346401D01*
X14580914Y24346401D01*
X14558881Y24341375D01*
X14489792Y24333687D01*
X14469572Y24321003D01*
X14446277Y24315689D01*
X14409270Y24286200D01*
X12690400Y24286200D01*
X12690400Y25964600D01*
X14442610Y25964600D01*
X15559855Y24847355D01*
G37*
D31*
X15559855Y24847355D02*
X15551114Y24803410D01*
X15551114Y24347387D01*
X14770090Y24347387D01*
X14765133Y24346401D01*
X14695736Y24346401D01*
X14673673Y24354149D01*
X14604048Y24346401D01*
X14580914Y24346401D01*
X14558881Y24341375D01*
X14489792Y24333687D01*
X14469572Y24321003D01*
X14446277Y24315689D01*
X14409270Y24286200D01*
X12690400Y24286200D01*
X12690400Y25964600D01*
X14442610Y25964600D01*
X15559855Y24847355D01*
G36*
X22649200Y24260800D02*
G01*
X20787167Y24260800D01*
X20783215Y24266715D01*
X20691128Y24328248D01*
X20594910Y24347387D01*
X19813886Y24347387D01*
X19813886Y24803410D01*
X19800931Y24868541D01*
X20871590Y25939200D01*
X22649200Y25939200D01*
X22649200Y24260800D01*
G37*
X22649200Y24260800D02*
X20787167Y24260800D01*
X20783215Y24266715D01*
X20691128Y24328248D01*
X20594910Y24347387D01*
X19813886Y24347387D01*
X19813886Y24803410D01*
X19800931Y24868541D01*
X20871590Y25939200D01*
X22649200Y25939200D01*
X22649200Y24260800D01*
G36*
X22395200Y29440246D02*
G01*
X20979795Y29415843D01*
X18737600Y26052550D01*
X18737600Y25072386D01*
X18649980Y25072386D01*
X18783800Y27458846D01*
X20369605Y32062086D01*
X22395200Y32084592D01*
X22395200Y29440246D01*
G37*
X22395200Y29440246D02*
X20979795Y29415843D01*
X18737600Y26052550D01*
X18737600Y25072386D01*
X18649980Y25072386D01*
X18783800Y27458846D01*
X20369605Y32062086D01*
X22395200Y32084592D01*
X22395200Y29440246D01*
G36*
X20210800Y36506829D02*
G01*
X20210800Y32842695D01*
X18383176Y27537510D01*
X18293698Y25941802D01*
X18276115Y25853410D01*
X18276115Y25628240D01*
X18244946Y25072386D01*
X18088886Y25072386D01*
X18088886Y25853410D01*
X18075200Y25922214D01*
X18075200Y25999263D01*
X17872000Y26329463D01*
X17872000Y36529759D01*
X20210800Y36506829D01*
G37*
X20210800Y36506829D02*
X20210800Y32842695D01*
X18383176Y27537510D01*
X18293698Y25941802D01*
X18276115Y25853410D01*
X18276115Y25628240D01*
X18244946Y25072386D01*
X18088886Y25072386D01*
X18088886Y25853410D01*
X18075200Y25922214D01*
X18075200Y25999263D01*
X17872000Y26329463D01*
X17872000Y36529759D01*
X20210800Y36506829D01*
G36*
X17467600Y26304063D02*
G01*
X17264400Y25973863D01*
X17264400Y25072386D01*
X17096126Y25072386D01*
X17088885Y25228795D01*
X17088885Y25853410D01*
X17069746Y25949627D01*
X17054454Y25972513D01*
X16982011Y27537288D01*
X15128800Y32817667D01*
X15128800Y36481429D01*
X17467600Y36504359D01*
X17467600Y26304063D01*
G37*
X17467600Y26304063D02*
X17264400Y25973863D01*
X17264400Y25072386D01*
X17096126Y25072386D01*
X17088885Y25228795D01*
X17088885Y25853410D01*
X17069746Y25949627D01*
X17054454Y25972513D01*
X16982011Y27537288D01*
X15128800Y32817667D01*
X15128800Y36481429D01*
X17467600Y36504359D01*
X17467600Y26304063D01*
G36*
X14974329Y32036638D02*
G01*
X16580787Y27459335D01*
X16691293Y25072386D01*
X16602000Y25072386D01*
X16602000Y26027150D01*
X14359805Y29390443D01*
X12944400Y29414846D01*
X12944400Y32059192D01*
X14974329Y32036638D01*
G37*
X14974329Y32036638D02*
X16580787Y27459335D01*
X16691293Y25072386D01*
X16602000Y25072386D01*
X16602000Y26027150D01*
X14359805Y29390443D01*
X12944400Y29414846D01*
X12944400Y32059192D01*
X14974329Y32036638D01*
G36*
X32844916Y39057520D02*
G01*
X32734228Y38891865D01*
X32664619Y38705189D01*
X32639821Y38507507D01*
X32661165Y38309422D01*
X32727506Y38121559D01*
X32835286Y37953997D01*
X32978722Y37815725D01*
X33041936Y37778265D01*
X33001753Y37718128D01*
X32982614Y37621910D01*
X32982614Y37470090D01*
X33001753Y37373872D01*
X33063285Y37281785D01*
X33155372Y37220253D01*
X33251590Y37201114D01*
X34419114Y37201114D01*
X34419114Y36033590D01*
X34438253Y35937372D01*
X34499785Y35845285D01*
X34591872Y35783753D01*
X34688090Y35764614D01*
X34839910Y35764614D01*
X34936128Y35783753D01*
X35028215Y35845285D01*
X35089747Y35937372D01*
X35108886Y36033590D01*
X35108886Y37201114D01*
X36276410Y37201114D01*
X36372628Y37220253D01*
X36421601Y37252976D01*
X36421601Y29036000D01*
X32836602Y29036000D01*
X32691186Y29119956D01*
X32482024Y29156837D01*
X31974000Y29156837D01*
X31974000Y29036000D01*
X31718000Y29036000D01*
X31718000Y29156837D01*
X31204412Y29156837D01*
X30903489Y29076205D01*
X30855575Y29036000D01*
X26457214Y29036000D01*
X26457215Y29180588D01*
X26423765Y29305423D01*
X26320238Y29408950D01*
X26195403Y29442400D01*
X25949130Y29442400D01*
X26114745Y29633530D01*
X26220343Y29864759D01*
X26255224Y30107359D01*
X26255224Y30610800D01*
X23726776Y30610800D01*
X23726776Y30102825D01*
X23803691Y29749251D01*
X23943618Y29531521D01*
X24046469Y29442400D01*
X22799600Y29442400D01*
X22799600Y29642555D01*
X22942058Y29737742D01*
X23058844Y29912525D01*
X23097386Y30106287D01*
X23097386Y31370241D01*
X23726776Y31370241D01*
X23726776Y30866800D01*
X24863000Y30866800D01*
X24863000Y32253024D01*
X25119000Y32253024D01*
X25119000Y30866800D01*
X26255224Y30866800D01*
X26255224Y31374775D01*
X26178309Y31728349D01*
X26038382Y31946079D01*
X25846270Y32112545D01*
X25615041Y32218143D01*
X25372441Y32253024D01*
X25119000Y32253024D01*
X24863000Y32253024D01*
X24605025Y32253024D01*
X24251451Y32176109D01*
X24033721Y32036182D01*
X23867255Y31844070D01*
X23761657Y31612841D01*
X23726776Y31370241D01*
X23097386Y31370241D01*
X23097386Y31371313D01*
X23058844Y31565075D01*
X22942058Y31739858D01*
X22799600Y31835045D01*
X22799600Y32228944D01*
X22764834Y32355873D01*
X22659892Y32458507D01*
X22534694Y32490568D01*
X20509465Y32468065D01*
X20603430Y32740825D01*
X20615200Y32811125D01*
X20615200Y34599913D01*
X20668728Y34544483D01*
X20856720Y34413825D01*
X21066510Y34322170D01*
X21290108Y34273009D01*
X21518995Y34268215D01*
X21744454Y34307970D01*
X21957898Y34390759D01*
X22088434Y34473600D01*
X24122563Y34473600D01*
X24132753Y34422372D01*
X24194285Y34330285D01*
X24286372Y34268753D01*
X24382590Y34249614D01*
X25282410Y34249614D01*
X25378628Y34268753D01*
X25391655Y34277457D01*
X25408795Y34213488D01*
X25556185Y34037835D01*
X25749814Y33926044D01*
X25958976Y33889163D01*
X26279500Y33889163D01*
X26279500Y34878000D01*
X26535500Y34878000D01*
X26535500Y33889163D01*
X26861588Y33889163D01*
X27162512Y33969795D01*
X27338165Y34117185D01*
X27449956Y34310814D01*
X27486837Y34519976D01*
X27486837Y34878000D01*
X26535500Y34878000D01*
X26279500Y34878000D01*
X26279500Y35134000D01*
X27486837Y35134000D01*
X27486837Y35497588D01*
X27413430Y35771549D01*
X27449956Y35834814D01*
X27486837Y36043976D01*
X27486837Y36402000D01*
X26279500Y36402000D01*
X26279500Y37646837D01*
X26535500Y37646837D01*
X26535500Y36658000D01*
X27486837Y36658000D01*
X27486837Y37021588D01*
X27406205Y37322511D01*
X27258815Y37498165D01*
X27065186Y37609956D01*
X26856024Y37646837D01*
X26535500Y37646837D01*
X26279500Y37646837D01*
X25953412Y37646837D01*
X25652489Y37566205D01*
X25476835Y37418815D01*
X25386349Y37262088D01*
X25378628Y37267247D01*
X25282410Y37286386D01*
X24382590Y37286386D01*
X24286373Y37267247D01*
X24283910Y37265601D01*
X20236827Y37265601D01*
X20184400Y37276029D01*
X20131973Y37265601D01*
X20131968Y37265601D01*
X19976669Y37234710D01*
X19878669Y37169228D01*
X19855331Y37153634D01*
X19800563Y37117039D01*
X19770859Y37072585D01*
X19615361Y36917087D01*
X17731827Y36935553D01*
X17621435Y36906551D01*
X17607459Y36910150D01*
X15648778Y36890947D01*
X15467140Y37072585D01*
X15437437Y37117039D01*
X15261331Y37234710D01*
X15106032Y37265601D01*
X15106026Y37265601D01*
X15053599Y37276029D01*
X15001172Y37265601D01*
X11606629Y37265601D01*
X11554201Y37276029D01*
X11501773Y37265601D01*
X11501768Y37265601D01*
X11397807Y37244922D01*
X11346469Y37234711D01*
X11225130Y37153634D01*
X11170363Y37117039D01*
X11140659Y37072585D01*
X11130474Y37062400D01*
X11115437Y37062400D01*
X11105247Y37113628D01*
X11043715Y37205715D01*
X10951628Y37267247D01*
X10855410Y37286386D01*
X9955590Y37286386D01*
X9859372Y37267247D01*
X9846345Y37258543D01*
X9829205Y37322511D01*
X9681815Y37498165D01*
X9488186Y37609956D01*
X9279024Y37646837D01*
X8958500Y37646837D01*
X8958500Y36402000D01*
X7751163Y36402000D01*
X7751163Y36038412D01*
X7831795Y35737488D01*
X7846624Y35719816D01*
X7762544Y35574186D01*
X7725663Y35365024D01*
X7725663Y35007000D01*
X8933000Y35007000D01*
X8933000Y33762163D01*
X9259088Y33762163D01*
X9560012Y33842795D01*
X9735665Y33990185D01*
X9826151Y34146912D01*
X9833872Y34141753D01*
X9930090Y34122614D01*
X10829910Y34122614D01*
X10926128Y34141753D01*
X11018215Y34203285D01*
X11079747Y34295372D01*
X11089937Y34346600D01*
X12721507Y34346600D01*
X12811372Y34286553D01*
X12907590Y34267414D01*
X14710410Y34267414D01*
X14724400Y34270197D01*
X14724400Y32785543D01*
X14736579Y32714061D01*
X14831836Y32442645D01*
X12804549Y32465171D01*
X12677243Y32431816D01*
X12573450Y32328023D01*
X12540000Y32203188D01*
X12540000Y31844427D01*
X12473725Y31831244D01*
X12298942Y31714458D01*
X12182156Y31539675D01*
X12143614Y31345913D01*
X12143614Y30080887D01*
X12182156Y29887125D01*
X12298942Y29712342D01*
X12473725Y29595556D01*
X12540000Y29582373D01*
X12540000Y29442400D01*
X11230139Y29442400D01*
X11373745Y29608130D01*
X11479343Y29839359D01*
X11514224Y30081959D01*
X11514224Y30585400D01*
X8985776Y30585400D01*
X8985776Y30077425D01*
X9062691Y29723851D01*
X9202618Y29506121D01*
X9276156Y29442400D01*
X9093397Y29442400D01*
X8968562Y29408950D01*
X8865035Y29305423D01*
X8831585Y29180588D01*
X8831586Y29036000D01*
X5398602Y29036000D01*
X5253186Y29119956D01*
X5044024Y29156837D01*
X4536000Y29156837D01*
X4536000Y29036000D01*
X4280000Y29036000D01*
X4280000Y29156837D01*
X3766412Y29156837D01*
X3465489Y29076205D01*
X3417575Y29036000D01*
X278400Y29036000D01*
X278400Y31344841D01*
X8985776Y31344841D01*
X8985776Y30841400D01*
X10122000Y30841400D01*
X10122000Y32227624D01*
X10378000Y32227624D01*
X10378000Y30841400D01*
X11514224Y30841400D01*
X11514224Y31349375D01*
X11437309Y31702949D01*
X11297382Y31920679D01*
X11105270Y32087145D01*
X10874041Y32192743D01*
X10631441Y32227624D01*
X10378000Y32227624D01*
X10122000Y32227624D01*
X9864025Y32227624D01*
X9510451Y32150709D01*
X9292721Y32010782D01*
X9126255Y31818670D01*
X9020657Y31587441D01*
X8985776Y31344841D01*
X278400Y31344841D01*
X278400Y34751000D01*
X7725663Y34751000D01*
X7725663Y34387412D01*
X7806295Y34086488D01*
X7953685Y33910835D01*
X8147314Y33799044D01*
X8356476Y33762163D01*
X8677000Y33762163D01*
X8677000Y34751000D01*
X7725663Y34751000D01*
X278400Y34751000D01*
X278400Y37201114D01*
X1399114Y37201114D01*
X1399114Y36033590D01*
X1418253Y35937372D01*
X1479785Y35845285D01*
X1571872Y35783753D01*
X1668090Y35764614D01*
X1819910Y35764614D01*
X1916128Y35783753D01*
X2008215Y35845285D01*
X2069747Y35937372D01*
X2088886Y36033590D01*
X2088886Y37016024D01*
X7751163Y37016024D01*
X7751163Y36658000D01*
X8702500Y36658000D01*
X8702500Y37646837D01*
X8376412Y37646837D01*
X8075489Y37566205D01*
X7899835Y37418815D01*
X7788044Y37225186D01*
X7751163Y37016024D01*
X2088886Y37016024D01*
X2088886Y37201114D01*
X3256410Y37201114D01*
X3352628Y37220253D01*
X3444715Y37281785D01*
X3506247Y37373872D01*
X3525386Y37470090D01*
X3525386Y37621910D01*
X3506247Y37718128D01*
X3464097Y37781209D01*
X3581150Y37865786D01*
X3711464Y38016490D01*
X3803613Y38193129D01*
X3852779Y38386718D01*
X3854626Y38598382D01*
X3808847Y38792798D01*
X3719794Y38971020D01*
X3594112Y39121600D01*
X32913753Y39121600D01*
X32844916Y39057520D01*
G37*
X32844916Y39057520D02*
X32734228Y38891865D01*
X32664619Y38705189D01*
X32639821Y38507507D01*
X32661165Y38309422D01*
X32727506Y38121559D01*
X32835286Y37953997D01*
X32978722Y37815725D01*
X33041936Y37778265D01*
X33001753Y37718128D01*
X32982614Y37621910D01*
X32982614Y37470090D01*
X33001753Y37373872D01*
X33063285Y37281785D01*
X33155372Y37220253D01*
X33251590Y37201114D01*
X34419114Y37201114D01*
X34419114Y36033590D01*
X34438253Y35937372D01*
X34499785Y35845285D01*
X34591872Y35783753D01*
X34688090Y35764614D01*
X34839910Y35764614D01*
X34936128Y35783753D01*
X35028215Y35845285D01*
X35089747Y35937372D01*
X35108886Y36033590D01*
X35108886Y37201114D01*
X36276410Y37201114D01*
X36372628Y37220253D01*
X36421601Y37252976D01*
X36421601Y29036000D01*
X32836602Y29036000D01*
X32691186Y29119956D01*
X32482024Y29156837D01*
X31974000Y29156837D01*
X31974000Y29036000D01*
X31718000Y29036000D01*
X31718000Y29156837D01*
X31204412Y29156837D01*
X30903489Y29076205D01*
X30855575Y29036000D01*
X26457214Y29036000D01*
X26457215Y29180588D01*
X26423765Y29305423D01*
X26320238Y29408950D01*
X26195403Y29442400D01*
X25949130Y29442400D01*
X26114745Y29633530D01*
X26220343Y29864759D01*
X26255224Y30107359D01*
X26255224Y30610800D01*
X23726776Y30610800D01*
X23726776Y30102825D01*
X23803691Y29749251D01*
X23943618Y29531521D01*
X24046469Y29442400D01*
X22799600Y29442400D01*
X22799600Y29642555D01*
X22942058Y29737742D01*
X23058844Y29912525D01*
X23097386Y30106287D01*
X23097386Y31370241D01*
X23726776Y31370241D01*
X23726776Y30866800D01*
X24863000Y30866800D01*
X24863000Y32253024D01*
X25119000Y32253024D01*
X25119000Y30866800D01*
X26255224Y30866800D01*
X26255224Y31374775D01*
X26178309Y31728349D01*
X26038382Y31946079D01*
X25846270Y32112545D01*
X25615041Y32218143D01*
X25372441Y32253024D01*
X25119000Y32253024D01*
X24863000Y32253024D01*
X24605025Y32253024D01*
X24251451Y32176109D01*
X24033721Y32036182D01*
X23867255Y31844070D01*
X23761657Y31612841D01*
X23726776Y31370241D01*
X23097386Y31370241D01*
X23097386Y31371313D01*
X23058844Y31565075D01*
X22942058Y31739858D01*
X22799600Y31835045D01*
X22799600Y32228944D01*
X22764834Y32355873D01*
X22659892Y32458507D01*
X22534694Y32490568D01*
X20509465Y32468065D01*
X20603430Y32740825D01*
X20615200Y32811125D01*
X20615200Y34599913D01*
X20668728Y34544483D01*
X20856720Y34413825D01*
X21066510Y34322170D01*
X21290108Y34273009D01*
X21518995Y34268215D01*
X21744454Y34307970D01*
X21957898Y34390759D01*
X22088434Y34473600D01*
X24122563Y34473600D01*
X24132753Y34422372D01*
X24194285Y34330285D01*
X24286372Y34268753D01*
X24382590Y34249614D01*
X25282410Y34249614D01*
X25378628Y34268753D01*
X25391655Y34277457D01*
X25408795Y34213488D01*
X25556185Y34037835D01*
X25749814Y33926044D01*
X25958976Y33889163D01*
X26279500Y33889163D01*
X26279500Y34878000D01*
X26535500Y34878000D01*
X26535500Y33889163D01*
X26861588Y33889163D01*
X27162512Y33969795D01*
X27338165Y34117185D01*
X27449956Y34310814D01*
X27486837Y34519976D01*
X27486837Y34878000D01*
X26535500Y34878000D01*
X26279500Y34878000D01*
X26279500Y35134000D01*
X27486837Y35134000D01*
X27486837Y35497588D01*
X27413430Y35771549D01*
X27449956Y35834814D01*
X27486837Y36043976D01*
X27486837Y36402000D01*
X26279500Y36402000D01*
X26279500Y37646837D01*
X26535500Y37646837D01*
X26535500Y36658000D01*
X27486837Y36658000D01*
X27486837Y37021588D01*
X27406205Y37322511D01*
X27258815Y37498165D01*
X27065186Y37609956D01*
X26856024Y37646837D01*
X26535500Y37646837D01*
X26279500Y37646837D01*
X25953412Y37646837D01*
X25652489Y37566205D01*
X25476835Y37418815D01*
X25386349Y37262088D01*
X25378628Y37267247D01*
X25282410Y37286386D01*
X24382590Y37286386D01*
X24286373Y37267247D01*
X24283910Y37265601D01*
X20236827Y37265601D01*
X20184400Y37276029D01*
X20131973Y37265601D01*
X20131968Y37265601D01*
X19976669Y37234710D01*
X19878669Y37169228D01*
X19855331Y37153634D01*
X19800563Y37117039D01*
X19770859Y37072585D01*
X19615361Y36917087D01*
X17731827Y36935553D01*
X17621435Y36906551D01*
X17607459Y36910150D01*
X15648778Y36890947D01*
X15467140Y37072585D01*
X15437437Y37117039D01*
X15261331Y37234710D01*
X15106032Y37265601D01*
X15106026Y37265601D01*
X15053599Y37276029D01*
X15001172Y37265601D01*
X11606629Y37265601D01*
X11554201Y37276029D01*
X11501773Y37265601D01*
X11501768Y37265601D01*
X11397807Y37244922D01*
X11346469Y37234711D01*
X11225130Y37153634D01*
X11170363Y37117039D01*
X11140659Y37072585D01*
X11130474Y37062400D01*
X11115437Y37062400D01*
X11105247Y37113628D01*
X11043715Y37205715D01*
X10951628Y37267247D01*
X10855410Y37286386D01*
X9955590Y37286386D01*
X9859372Y37267247D01*
X9846345Y37258543D01*
X9829205Y37322511D01*
X9681815Y37498165D01*
X9488186Y37609956D01*
X9279024Y37646837D01*
X8958500Y37646837D01*
X8958500Y36402000D01*
X7751163Y36402000D01*
X7751163Y36038412D01*
X7831795Y35737488D01*
X7846624Y35719816D01*
X7762544Y35574186D01*
X7725663Y35365024D01*
X7725663Y35007000D01*
X8933000Y35007000D01*
X8933000Y33762163D01*
X9259088Y33762163D01*
X9560012Y33842795D01*
X9735665Y33990185D01*
X9826151Y34146912D01*
X9833872Y34141753D01*
X9930090Y34122614D01*
X10829910Y34122614D01*
X10926128Y34141753D01*
X11018215Y34203285D01*
X11079747Y34295372D01*
X11089937Y34346600D01*
X12721507Y34346600D01*
X12811372Y34286553D01*
X12907590Y34267414D01*
X14710410Y34267414D01*
X14724400Y34270197D01*
X14724400Y32785543D01*
X14736579Y32714061D01*
X14831836Y32442645D01*
X12804549Y32465171D01*
X12677243Y32431816D01*
X12573450Y32328023D01*
X12540000Y32203188D01*
X12540000Y31844427D01*
X12473725Y31831244D01*
X12298942Y31714458D01*
X12182156Y31539675D01*
X12143614Y31345913D01*
X12143614Y30080887D01*
X12182156Y29887125D01*
X12298942Y29712342D01*
X12473725Y29595556D01*
X12540000Y29582373D01*
X12540000Y29442400D01*
X11230139Y29442400D01*
X11373745Y29608130D01*
X11479343Y29839359D01*
X11514224Y30081959D01*
X11514224Y30585400D01*
X8985776Y30585400D01*
X8985776Y30077425D01*
X9062691Y29723851D01*
X9202618Y29506121D01*
X9276156Y29442400D01*
X9093397Y29442400D01*
X8968562Y29408950D01*
X8865035Y29305423D01*
X8831585Y29180588D01*
X8831586Y29036000D01*
X5398602Y29036000D01*
X5253186Y29119956D01*
X5044024Y29156837D01*
X4536000Y29156837D01*
X4536000Y29036000D01*
X4280000Y29036000D01*
X4280000Y29156837D01*
X3766412Y29156837D01*
X3465489Y29076205D01*
X3417575Y29036000D01*
X278400Y29036000D01*
X278400Y31344841D01*
X8985776Y31344841D01*
X8985776Y30841400D01*
X10122000Y30841400D01*
X10122000Y32227624D01*
X10378000Y32227624D01*
X10378000Y30841400D01*
X11514224Y30841400D01*
X11514224Y31349375D01*
X11437309Y31702949D01*
X11297382Y31920679D01*
X11105270Y32087145D01*
X10874041Y32192743D01*
X10631441Y32227624D01*
X10378000Y32227624D01*
X10122000Y32227624D01*
X9864025Y32227624D01*
X9510451Y32150709D01*
X9292721Y32010782D01*
X9126255Y31818670D01*
X9020657Y31587441D01*
X8985776Y31344841D01*
X278400Y31344841D01*
X278400Y34751000D01*
X7725663Y34751000D01*
X7725663Y34387412D01*
X7806295Y34086488D01*
X7953685Y33910835D01*
X8147314Y33799044D01*
X8356476Y33762163D01*
X8677000Y33762163D01*
X8677000Y34751000D01*
X7725663Y34751000D01*
X278400Y34751000D01*
X278400Y37201114D01*
X1399114Y37201114D01*
X1399114Y36033590D01*
X1418253Y35937372D01*
X1479785Y35845285D01*
X1571872Y35783753D01*
X1668090Y35764614D01*
X1819910Y35764614D01*
X1916128Y35783753D01*
X2008215Y35845285D01*
X2069747Y35937372D01*
X2088886Y36033590D01*
X2088886Y37016024D01*
X7751163Y37016024D01*
X7751163Y36658000D01*
X8702500Y36658000D01*
X8702500Y37646837D01*
X8376412Y37646837D01*
X8075489Y37566205D01*
X7899835Y37418815D01*
X7788044Y37225186D01*
X7751163Y37016024D01*
X2088886Y37016024D01*
X2088886Y37201114D01*
X3256410Y37201114D01*
X3352628Y37220253D01*
X3444715Y37281785D01*
X3506247Y37373872D01*
X3525386Y37470090D01*
X3525386Y37621910D01*
X3506247Y37718128D01*
X3464097Y37781209D01*
X3581150Y37865786D01*
X3711464Y38016490D01*
X3803613Y38193129D01*
X3852779Y38386718D01*
X3854626Y38598382D01*
X3808847Y38792798D01*
X3719794Y38971020D01*
X3594112Y39121600D01*
X32913753Y39121600D01*
X32844916Y39057520D01*
G36*
X3328800Y27572105D02*
G01*
X3354398Y27369482D01*
X3449819Y27128476D01*
X3449819Y26752590D01*
X3472901Y26636552D01*
X3545660Y26527660D01*
X3654552Y26454901D01*
X3770590Y26431819D01*
X5045410Y26431819D01*
X5161448Y26454901D01*
X5270340Y26527660D01*
X5343099Y26636552D01*
X5366181Y26752590D01*
X5366181Y27142775D01*
X5421336Y27243102D01*
X5472630Y27512000D01*
X5941163Y27512000D01*
X5941163Y26748412D01*
X6021795Y26447488D01*
X6169185Y26271835D01*
X6362814Y26160044D01*
X6571976Y26123163D01*
X7080000Y26123163D01*
X7080000Y27512000D01*
X7336000Y27512000D01*
X7336000Y26123163D01*
X7849588Y26123163D01*
X8150512Y26203795D01*
X8326165Y26351185D01*
X8437956Y26544814D01*
X8474837Y26753976D01*
X8474837Y27512000D01*
X7336000Y27512000D01*
X7080000Y27512000D01*
X5941163Y27512000D01*
X5472630Y27512000D01*
X5487200Y27588374D01*
X5487200Y28580800D01*
X5950821Y28580800D01*
X5941163Y28526024D01*
X5941163Y27768000D01*
X8474837Y27768000D01*
X8474837Y28531588D01*
X8461651Y28580800D01*
X8983986Y28580800D01*
X8984000Y23323196D01*
X9277166Y23322740D01*
X9283519Y23315169D01*
X9475682Y23204225D01*
X9694200Y23165694D01*
X9912718Y23204225D01*
X9986460Y23246800D01*
X10404288Y23246800D01*
X10384319Y23146410D01*
X10384319Y23134632D01*
X10327495Y23083468D01*
X10280133Y22937703D01*
X10259501Y22897210D01*
X10258064Y22869780D01*
X10253800Y22856656D01*
X10253800Y22788411D01*
X10248987Y22696570D01*
X10268910Y22657470D01*
X10283931Y22586803D01*
X10393347Y22436204D01*
X10407401Y22365552D01*
X10464674Y22279837D01*
X10281412Y22279837D01*
X9980489Y22199205D01*
X9804835Y22051815D01*
X9693044Y21858186D01*
X9656163Y21649024D01*
X9656163Y21291000D01*
X10863500Y21291000D01*
X10863500Y20046163D01*
X11189588Y20046163D01*
X11490512Y20126795D01*
X11666165Y20274185D01*
X11731197Y20386824D01*
X11744552Y20377901D01*
X11860590Y20354819D01*
X12760410Y20354819D01*
X12876448Y20377901D01*
X12985340Y20450660D01*
X13058099Y20559552D01*
X13081181Y20675590D01*
X13081181Y20706800D01*
X13864667Y20706800D01*
X13956506Y20701987D01*
X13995608Y20721910D01*
X14066277Y20736931D01*
X14223174Y20850924D01*
X14241628Y20882886D01*
X14501998Y21143257D01*
X14545160Y21078660D01*
X14654052Y21005901D01*
X14770090Y20982819D01*
X15518370Y20982819D01*
X15522401Y20962552D01*
X15547981Y20924268D01*
X15522804Y20905976D01*
X15504352Y20874017D01*
X14061518Y19431181D01*
X13486090Y19431181D01*
X13370052Y19408099D01*
X13261160Y19335340D01*
X13188401Y19226448D01*
X13165319Y19110410D01*
X13165319Y18135590D01*
X13188401Y18019552D01*
X13261160Y17910660D01*
X13370052Y17837901D01*
X13486090Y17814819D01*
X14385910Y17814819D01*
X14501948Y17837901D01*
X14610840Y17910660D01*
X14683599Y18019552D01*
X14706681Y18135590D01*
X14706681Y18786019D01*
X15781773Y19861110D01*
X15820160Y19803660D01*
X15929052Y19730901D01*
X16045090Y19707819D01*
X16277099Y19707819D01*
X16277100Y16176437D01*
X16136499Y16095262D01*
X15993871Y15925284D01*
X15917981Y15716776D01*
X15917981Y15494886D01*
X15993871Y15286378D01*
X16136499Y15116400D01*
X16328662Y15005456D01*
X16547180Y14966925D01*
X16765698Y15005456D01*
X16957861Y15116400D01*
X17100489Y15286378D01*
X17176379Y15494886D01*
X17176379Y15716776D01*
X17100488Y15925284D01*
X17087899Y15940287D01*
X17087899Y16163126D01*
X17296740Y16126301D01*
X17419942Y16148025D01*
X17419942Y16001750D01*
X17383191Y15957953D01*
X17307301Y15749445D01*
X17307301Y15527555D01*
X17383191Y15319047D01*
X17525819Y15149069D01*
X17717982Y15038125D01*
X17777201Y15027683D01*
X17777201Y14905255D01*
X17853091Y14696747D01*
X17995719Y14526769D01*
X18187882Y14415825D01*
X18406400Y14377294D01*
X18624918Y14415825D01*
X18735132Y14479456D01*
X18883143Y14362773D01*
X19153873Y14293262D01*
X20609039Y14293262D01*
X20673363Y14276747D01*
X20677104Y14276747D01*
X20689831Y14272941D01*
X20786705Y14276747D01*
X20827246Y14276747D01*
X20839773Y14278832D01*
X20907450Y14281492D01*
X20946487Y14296594D01*
X20987790Y14303469D01*
X21047412Y14335639D01*
X21110570Y14360073D01*
X21142609Y14387005D01*
X21179458Y14406888D01*
X21225442Y14456633D01*
X21277283Y14500210D01*
X21298874Y14536073D01*
X21327292Y14566815D01*
X21354679Y14628761D01*
X21389617Y14686794D01*
X21398429Y14727724D01*
X21415354Y14766007D01*
X21421199Y14833486D01*
X21435455Y14899705D01*
X21430534Y14941274D01*
X21434147Y14982983D01*
X21417818Y15048718D01*
X21409194Y15121581D01*
X21392857Y15149208D01*
X21381643Y15194351D01*
X21263505Y15377314D01*
X21251588Y15386709D01*
X21246992Y15393827D01*
X21191524Y15437555D01*
X21180638Y15448441D01*
X21149379Y15470779D01*
X21071529Y15532152D01*
X21058992Y15535371D01*
X21048223Y15543066D01*
X20839564Y15605468D01*
X20742690Y15601662D01*
X19549147Y15601662D01*
X19556909Y15611368D01*
X19562238Y15634636D01*
X19574951Y15654863D01*
X19582829Y15724544D01*
X19587900Y15746684D01*
X19587900Y15769394D01*
X19595730Y15838650D01*
X19587900Y15861072D01*
X19587900Y19868104D01*
X19617599Y19912552D01*
X19640681Y20028590D01*
X19640681Y20776870D01*
X19660948Y20780901D01*
X19769840Y20853660D01*
X19842599Y20962552D01*
X19846630Y20982819D01*
X20594910Y20982819D01*
X20604869Y20984800D01*
X21609037Y20984800D01*
X22029819Y20564017D01*
X22029819Y19913590D01*
X22052901Y19797552D01*
X22125660Y19688660D01*
X22146300Y19674869D01*
X22146301Y14933696D01*
X22138000Y14895144D01*
X22146301Y14825008D01*
X22146301Y14809609D01*
X22152609Y14771713D01*
X22164261Y14673266D01*
X22170849Y14662126D01*
X22173023Y14649065D01*
X22276442Y14457397D01*
X22347650Y14391573D01*
X22427201Y14312021D01*
X22559616Y14217396D01*
X22768275Y14154994D01*
X22985895Y14163546D01*
X23189013Y14242125D01*
X23355728Y14382264D01*
X23468060Y14568847D01*
X23513900Y14781758D01*
X23487639Y15003635D01*
X23454700Y15059331D01*
X23454700Y19674869D01*
X23475340Y19688660D01*
X23548099Y19797552D01*
X23571181Y19913590D01*
X23571181Y20888410D01*
X23604819Y20888410D01*
X23604819Y19913590D01*
X23627901Y19797552D01*
X23700660Y19688660D01*
X23809552Y19615901D01*
X23925590Y19592819D01*
X24825410Y19592819D01*
X24941448Y19615901D01*
X25050340Y19688660D01*
X25123099Y19797552D01*
X25127127Y19817800D01*
X25244734Y19817800D01*
X25274482Y19800625D01*
X25493000Y19762094D01*
X25711518Y19800625D01*
X25903681Y19911569D01*
X26046309Y20081547D01*
X26122199Y20290055D01*
X26122199Y20511945D01*
X26046309Y20720453D01*
X25903681Y20890431D01*
X25711518Y21001375D01*
X25493000Y21039906D01*
X25274482Y21001375D01*
X25244734Y20984200D01*
X25127127Y20984200D01*
X25123099Y21004448D01*
X25050340Y21113340D01*
X24941448Y21186099D01*
X24825410Y21209181D01*
X23925590Y21209181D01*
X23809552Y21186099D01*
X23700660Y21113340D01*
X23627901Y21004448D01*
X23604819Y20888410D01*
X23571181Y20888410D01*
X23548099Y21004448D01*
X23475340Y21113340D01*
X23366448Y21186099D01*
X23250410Y21209181D01*
X22674983Y21209181D01*
X22348564Y21535599D01*
X25696390Y21535599D01*
X26165511Y21066477D01*
X26165511Y20899655D01*
X26241401Y20691147D01*
X26384029Y20521169D01*
X26576192Y20410225D01*
X26794710Y20371694D01*
X27013228Y20410225D01*
X27205391Y20521169D01*
X27348019Y20691147D01*
X27423909Y20899655D01*
X27423909Y21121545D01*
X27348019Y21330053D01*
X27205391Y21500031D01*
X27013228Y21610975D01*
X26794710Y21649506D01*
X26738955Y21639675D01*
X26714528Y21664102D01*
X26714524Y21664109D01*
X26209692Y22168939D01*
X26259281Y22197569D01*
X26401909Y22367547D01*
X26477799Y22576055D01*
X26477799Y22797945D01*
X26401909Y23006453D01*
X26259281Y23176431D01*
X26067118Y23287375D01*
X26009130Y23297600D01*
X26304800Y23297600D01*
X26304811Y27512000D01*
X27779163Y27512000D01*
X27779163Y26748412D01*
X27859795Y26447488D01*
X28007185Y26271835D01*
X28200814Y26160044D01*
X28409976Y26123163D01*
X28918000Y26123163D01*
X28918000Y27512000D01*
X29174000Y27512000D01*
X29174000Y26123163D01*
X29687588Y26123163D01*
X29988512Y26203795D01*
X30164165Y26351185D01*
X30275956Y26544814D01*
X30312837Y26753976D01*
X30312837Y27512000D01*
X29174000Y27512000D01*
X28918000Y27512000D01*
X27779163Y27512000D01*
X26304811Y27512000D01*
X26304814Y28580800D01*
X27788821Y28580800D01*
X27779163Y28526024D01*
X27779163Y27768000D01*
X30312837Y27768000D01*
X30312837Y28531588D01*
X30299651Y28580800D01*
X30766801Y28580800D01*
X30766800Y27572105D01*
X30792398Y27369482D01*
X30887819Y27128476D01*
X30887819Y26752590D01*
X30910901Y26636552D01*
X30983660Y26527660D01*
X31092552Y26454901D01*
X31208590Y26431819D01*
X32483410Y26431819D01*
X32599448Y26454901D01*
X32708340Y26527660D01*
X32781099Y26636552D01*
X32804181Y26752590D01*
X32804181Y27142775D01*
X32859336Y27243102D01*
X32925200Y27588374D01*
X32925200Y28580800D01*
X36370801Y28580800D01*
X36370800Y8377905D01*
X36276410Y8396681D01*
X35160681Y8396681D01*
X35160681Y9512410D01*
X35137599Y9628448D01*
X35064840Y9737340D01*
X34955948Y9810099D01*
X34839910Y9833181D01*
X34688090Y9833181D01*
X34572052Y9810099D01*
X34463160Y9737340D01*
X34390401Y9628448D01*
X34367319Y9512410D01*
X34367319Y8396681D01*
X33251590Y8396681D01*
X33135552Y8373599D01*
X33026660Y8300840D01*
X32953901Y8191948D01*
X32930819Y8075910D01*
X32930819Y7954000D01*
X30612931Y7954000D01*
X30577577Y7984302D01*
X30560286Y7993400D01*
X30545754Y8006461D01*
X30532944Y8013592D01*
X30343666Y8118510D01*
X30324900Y8123944D01*
X30307790Y8133962D01*
X30293734Y8138324D01*
X30087545Y8202940D01*
X30068073Y8204490D01*
X30049502Y8210794D01*
X30034913Y8212285D01*
X29819680Y8234148D01*
X29779673Y8229200D01*
X29324656Y8229200D01*
X29288951Y8234568D01*
X29274342Y8233441D01*
X29107209Y8220580D01*
X29092459Y8216000D01*
X29076854Y8215551D01*
X29062614Y8211829D01*
X28853399Y8157333D01*
X28836060Y8148326D01*
X28817073Y8143855D01*
X28803902Y8137410D01*
X28609698Y8041849D01*
X28594529Y8029543D01*
X28576650Y8021263D01*
X28565027Y8012233D01*
X28489953Y7954000D01*
X23034224Y7954000D01*
X23027487Y7983533D01*
X22998416Y8020015D01*
X22978226Y8062062D01*
X22941517Y8091419D01*
X22912224Y8128181D01*
X22880768Y8143353D01*
X22501802Y8522319D01*
X22491679Y8543401D01*
X22436953Y8587167D01*
X22420609Y8603512D01*
X22401483Y8615533D01*
X22347188Y8658954D01*
X22323915Y8664285D01*
X22303686Y8676998D01*
X22275887Y8680141D01*
X22343527Y8865983D01*
X22343527Y9087873D01*
X22288339Y9239502D01*
X22309979Y9231903D01*
X22379603Y9239651D01*
X22402738Y9239651D01*
X22424771Y9244677D01*
X22493859Y9252365D01*
X22514079Y9265050D01*
X22537374Y9270363D01*
X22592231Y9314075D01*
X22611457Y9326136D01*
X22627501Y9342181D01*
X22646532Y9357346D01*
X22699000Y9348094D01*
X22917518Y9386625D01*
X23109681Y9497569D01*
X23252309Y9667547D01*
X23328199Y9876055D01*
X23328199Y10097945D01*
X23252309Y10306453D01*
X23109681Y10476431D01*
X22917518Y10587375D01*
X22699000Y10625906D01*
X22480482Y10587375D01*
X22453806Y10571973D01*
X22439509Y10611253D01*
X22296881Y10781231D01*
X22104718Y10892175D01*
X21886200Y10930706D01*
X21667682Y10892175D01*
X21475520Y10781231D01*
X21405009Y10697200D01*
X17687375Y10697200D01*
X17665312Y10704948D01*
X17595687Y10697200D01*
X17572553Y10697200D01*
X17550520Y10692174D01*
X17481431Y10684486D01*
X17461211Y10671802D01*
X17437916Y10666488D01*
X17383066Y10622780D01*
X17363833Y10610715D01*
X17347781Y10594663D01*
X17293267Y10551223D01*
X17282948Y10529830D01*
X16716028Y9962909D01*
X16694944Y9952785D01*
X16651184Y9898064D01*
X16634834Y9881715D01*
X16625616Y9867048D01*
X16589244Y9888047D01*
X16370726Y9926578D01*
X16274833Y9909669D01*
X16237023Y10013552D01*
X16094395Y10183530D01*
X15902232Y10294474D01*
X15683714Y10333005D01*
X15560512Y10311281D01*
X15560512Y11690093D01*
X15568812Y11728645D01*
X15560512Y11798772D01*
X15560512Y11814180D01*
X15554199Y11852106D01*
X15542551Y11950522D01*
X15535965Y11961659D01*
X15533791Y11974722D01*
X15430371Y12166391D01*
X15359150Y12232227D01*
X15223799Y12367579D01*
X15091383Y12462204D01*
X14882724Y12524606D01*
X14665104Y12516055D01*
X14461985Y12437475D01*
X14295272Y12297337D01*
X14182940Y12110753D01*
X14155947Y11985381D01*
X14082909Y12186053D01*
X13940281Y12356031D01*
X13762019Y12458949D01*
X13348968Y12872000D01*
X26410776Y12872000D01*
X26410776Y12439025D01*
X26487691Y12085451D01*
X26627618Y11867721D01*
X26819730Y11701255D01*
X27050959Y11595657D01*
X27293559Y11560776D01*
X28672000Y11560776D01*
X28672000Y12872000D01*
X28928000Y12872000D01*
X28928000Y11560776D01*
X30310975Y11560776D01*
X30664549Y11637691D01*
X30882279Y11777618D01*
X31048745Y11969730D01*
X31154343Y12200959D01*
X31189224Y12443559D01*
X31189224Y12872000D01*
X28928000Y12872000D01*
X28672000Y12872000D01*
X26410776Y12872000D01*
X13348968Y12872000D01*
X12664527Y13556441D01*
X26410776Y13556441D01*
X26410776Y13128000D01*
X28672000Y13128000D01*
X28672000Y14439224D01*
X28928000Y14439224D01*
X28928000Y13128000D01*
X31189224Y13128000D01*
X31189224Y13557346D01*
X32117280Y13557346D01*
X32117280Y12439712D01*
X32175047Y12194101D01*
X32307367Y12018882D01*
X32471395Y11917320D01*
X32470801Y11915493D01*
X32470801Y11684507D01*
X32542180Y11464824D01*
X32677951Y11277951D01*
X32864824Y11142180D01*
X33084507Y11070801D01*
X33315493Y11070801D01*
X33535176Y11142180D01*
X33722049Y11277951D01*
X33750000Y11316422D01*
X33777951Y11277951D01*
X33964824Y11142180D01*
X34184507Y11070801D01*
X34415493Y11070801D01*
X34635176Y11142180D01*
X34800000Y11261931D01*
X34964824Y11142180D01*
X35184507Y11070801D01*
X35415493Y11070801D01*
X35635176Y11142180D01*
X35822049Y11277951D01*
X35957820Y11464824D01*
X36029199Y11684507D01*
X36029199Y11915493D01*
X36012265Y11967612D01*
X36131118Y12057367D01*
X36245113Y12241475D01*
X36282720Y12442654D01*
X36282720Y13560288D01*
X36224953Y13805899D01*
X36092633Y13981118D01*
X35908525Y14095113D01*
X35707346Y14132720D01*
X32689712Y14132720D01*
X32444101Y14074953D01*
X32268882Y13942633D01*
X32154887Y13758525D01*
X32117280Y13557346D01*
X31189224Y13557346D01*
X31189224Y13560975D01*
X31112309Y13914549D01*
X30972382Y14132279D01*
X30780270Y14298745D01*
X30549041Y14404343D01*
X30306441Y14439224D01*
X28928000Y14439224D01*
X28672000Y14439224D01*
X27289025Y14439224D01*
X26935451Y14362309D01*
X26717721Y14222382D01*
X26551255Y14030270D01*
X26445657Y13799041D01*
X26410776Y13556441D01*
X12664527Y13556441D01*
X11826533Y14394435D01*
X11821497Y14404736D01*
X11748743Y14472224D01*
X11719291Y14501677D01*
X11710460Y14507735D01*
X11657507Y14556856D01*
X11625228Y14566205D01*
X11613560Y14574208D01*
X11597599Y14654448D01*
X11524840Y14763340D01*
X11415948Y14836099D01*
X11299910Y14859181D01*
X10688562Y14859181D01*
X10329673Y15218069D01*
X10318914Y15240474D01*
X10260760Y15286982D01*
X10243392Y15304350D01*
X10223073Y15317121D01*
X10165373Y15363264D01*
X10140646Y15368927D01*
X10119145Y15382441D01*
X10045082Y15390814D01*
X10021569Y15396200D01*
X9997437Y15396200D01*
X9923845Y15404520D01*
X9900020Y15396200D01*
X6680381Y15396200D01*
X6680381Y15452810D01*
X6657299Y15568848D01*
X6584540Y15677740D01*
X6475648Y15750499D01*
X6359610Y15773581D01*
X5459790Y15773581D01*
X5343752Y15750499D01*
X5234860Y15677740D01*
X5162101Y15568848D01*
X5139019Y15452810D01*
X5139019Y14477990D01*
X5162101Y14361952D01*
X5234860Y14253060D01*
X5343752Y14180301D01*
X5459790Y14157219D01*
X5481001Y14157219D01*
X5481000Y14064981D01*
X5469390Y14064981D01*
X5353352Y14041899D01*
X5244460Y13969140D01*
X5224903Y13939870D01*
X5199210Y13944981D01*
X3724390Y13944981D01*
X3698697Y13939870D01*
X3679140Y13969140D01*
X3570248Y14041899D01*
X3454210Y14064981D01*
X2749390Y14064981D01*
X2633352Y14041899D01*
X2524460Y13969140D01*
X2516502Y13957229D01*
X2513251Y13956488D01*
X2458403Y13912782D01*
X2439170Y13900718D01*
X2423111Y13884659D01*
X2368602Y13841223D01*
X2358283Y13819830D01*
X1974316Y13435863D01*
X1953232Y13425739D01*
X1909471Y13371018D01*
X1893121Y13354669D01*
X1881099Y13335541D01*
X1868906Y13320294D01*
X1455419Y12906806D01*
X1434335Y12896682D01*
X1390575Y12841961D01*
X1374225Y12825612D01*
X1362203Y12806484D01*
X1318781Y12752188D01*
X1313452Y12728918D01*
X1300739Y12708692D01*
X1292861Y12639011D01*
X1287790Y12616871D01*
X1287790Y12594162D01*
X1279960Y12524908D01*
X1287790Y12502484D01*
X1287791Y10894348D01*
X1280042Y10872283D01*
X1287791Y10802649D01*
X1287791Y10779524D01*
X1292815Y10757502D01*
X1300504Y10688402D01*
X1313191Y10668178D01*
X1318504Y10644886D01*
X1362210Y10590036D01*
X1374276Y10570804D01*
X1390327Y10554753D01*
X1433768Y10500237D01*
X1455163Y10489917D01*
X2933831Y9011248D01*
X2943953Y8990166D01*
X2998671Y8946406D01*
X3015025Y8930052D01*
X3034158Y8918028D01*
X3088446Y8874611D01*
X3111715Y8869281D01*
X3131946Y8856566D01*
X3201627Y8848689D01*
X3223764Y8843619D01*
X3246474Y8843619D01*
X3315732Y8835789D01*
X3338154Y8843619D01*
X6775990Y8843619D01*
X6846501Y8759588D01*
X7038663Y8648644D01*
X7257181Y8610113D01*
X7475699Y8648644D01*
X7667862Y8759588D01*
X7810490Y8929566D01*
X7886380Y9138074D01*
X7886380Y9334129D01*
X8415208Y9334129D01*
X8595029Y9154306D01*
X8595029Y9142684D01*
X8505891Y9036453D01*
X8430001Y8827945D01*
X8430001Y8606055D01*
X8438906Y8581590D01*
X8434282Y8580775D01*
X8242119Y8469831D01*
X8099491Y8299853D01*
X8023601Y8091345D01*
X8023601Y7954000D01*
X7812931Y7954000D01*
X7777577Y7984302D01*
X7760286Y7993400D01*
X7745754Y8006461D01*
X7732944Y8013592D01*
X7543666Y8118510D01*
X7524900Y8123944D01*
X7507790Y8133962D01*
X7493734Y8138324D01*
X7287545Y8202940D01*
X7268073Y8204490D01*
X7249502Y8210794D01*
X7234913Y8212285D01*
X7019680Y8234148D01*
X6979673Y8229200D01*
X6624656Y8229200D01*
X6588951Y8234568D01*
X6574342Y8233441D01*
X6407209Y8220580D01*
X6392459Y8216000D01*
X6376854Y8215551D01*
X6362614Y8211829D01*
X6153399Y8157333D01*
X6136060Y8148326D01*
X6117073Y8143855D01*
X6103902Y8137410D01*
X5909698Y8041849D01*
X5894529Y8029543D01*
X5876650Y8021263D01*
X5865027Y8012233D01*
X5789953Y7954000D01*
X3577181Y7954000D01*
X3577181Y8075910D01*
X3554099Y8191948D01*
X3481340Y8300840D01*
X3372448Y8373599D01*
X3256410Y8396681D01*
X2140681Y8396681D01*
X2140681Y9512410D01*
X2117599Y9628448D01*
X2044840Y9737340D01*
X1935948Y9810099D01*
X1819910Y9833181D01*
X1668090Y9833181D01*
X1552052Y9810099D01*
X1443160Y9737340D01*
X1370401Y9628448D01*
X1347319Y9512410D01*
X1347319Y8396681D01*
X329200Y8396681D01*
X329200Y15101745D01*
X2867401Y15101745D01*
X2867401Y14879855D01*
X2943291Y14671347D01*
X3085919Y14501369D01*
X3278082Y14390425D01*
X3496600Y14351894D01*
X3585967Y14367652D01*
X3587101Y14361952D01*
X3659860Y14253060D01*
X3768752Y14180301D01*
X3884790Y14157219D01*
X4784610Y14157219D01*
X4900648Y14180301D01*
X5009540Y14253060D01*
X5082299Y14361952D01*
X5105381Y14477990D01*
X5105381Y15452810D01*
X5082299Y15568848D01*
X5009540Y15677740D01*
X4900648Y15750499D01*
X4784610Y15773581D01*
X3884790Y15773581D01*
X3768752Y15750499D01*
X3659860Y15677740D01*
X3613940Y15609016D01*
X3496600Y15629706D01*
X3278082Y15591175D01*
X3085919Y15480231D01*
X2943291Y15310253D01*
X2867401Y15101745D01*
X329200Y15101745D01*
X329200Y18733945D01*
X10639801Y18733945D01*
X10639801Y18512055D01*
X10715691Y18303547D01*
X10858319Y18133569D01*
X11050482Y18022625D01*
X11269000Y17984094D01*
X11487518Y18022625D01*
X11517266Y18039800D01*
X11609373Y18039800D01*
X11613401Y18019552D01*
X11686160Y17910660D01*
X11795052Y17837901D01*
X11911090Y17814819D01*
X12810910Y17814819D01*
X12926948Y17837901D01*
X13035840Y17910660D01*
X13108599Y18019552D01*
X13131681Y18135590D01*
X13131681Y19110410D01*
X13108599Y19226448D01*
X13035840Y19335340D01*
X12926948Y19408099D01*
X12810910Y19431181D01*
X11911090Y19431181D01*
X11795052Y19408099D01*
X11686160Y19335340D01*
X11613401Y19226448D01*
X11609373Y19206200D01*
X11517266Y19206200D01*
X11487518Y19223375D01*
X11269000Y19261906D01*
X11050482Y19223375D01*
X10858319Y19112431D01*
X10715691Y18942453D01*
X10639801Y18733945D01*
X329200Y18733945D01*
X329200Y21035000D01*
X9656163Y21035000D01*
X9656163Y20671412D01*
X9736795Y20370488D01*
X9884185Y20194835D01*
X10077814Y20083044D01*
X10286976Y20046163D01*
X10607500Y20046163D01*
X10607500Y21035000D01*
X9656163Y21035000D01*
X329200Y21035000D01*
X329200Y28580800D01*
X3328801Y28580800D01*
X3328800Y27572105D01*
G37*
X3328800Y27572105D02*
X3354398Y27369482D01*
X3449819Y27128476D01*
X3449819Y26752590D01*
X3472901Y26636552D01*
X3545660Y26527660D01*
X3654552Y26454901D01*
X3770590Y26431819D01*
X5045410Y26431819D01*
X5161448Y26454901D01*
X5270340Y26527660D01*
X5343099Y26636552D01*
X5366181Y26752590D01*
X5366181Y27142775D01*
X5421336Y27243102D01*
X5472630Y27512000D01*
X5941163Y27512000D01*
X5941163Y26748412D01*
X6021795Y26447488D01*
X6169185Y26271835D01*
X6362814Y26160044D01*
X6571976Y26123163D01*
X7080000Y26123163D01*
X7080000Y27512000D01*
X7336000Y27512000D01*
X7336000Y26123163D01*
X7849588Y26123163D01*
X8150512Y26203795D01*
X8326165Y26351185D01*
X8437956Y26544814D01*
X8474837Y26753976D01*
X8474837Y27512000D01*
X7336000Y27512000D01*
X7080000Y27512000D01*
X5941163Y27512000D01*
X5472630Y27512000D01*
X5487200Y27588374D01*
X5487200Y28580800D01*
X5950821Y28580800D01*
X5941163Y28526024D01*
X5941163Y27768000D01*
X8474837Y27768000D01*
X8474837Y28531588D01*
X8461651Y28580800D01*
X8983986Y28580800D01*
X8984000Y23323196D01*
X9277166Y23322740D01*
X9283519Y23315169D01*
X9475682Y23204225D01*
X9694200Y23165694D01*
X9912718Y23204225D01*
X9986460Y23246800D01*
X10404288Y23246800D01*
X10384319Y23146410D01*
X10384319Y23134632D01*
X10327495Y23083468D01*
X10280133Y22937703D01*
X10259501Y22897210D01*
X10258064Y22869780D01*
X10253800Y22856656D01*
X10253800Y22788411D01*
X10248987Y22696570D01*
X10268910Y22657470D01*
X10283931Y22586803D01*
X10393347Y22436204D01*
X10407401Y22365552D01*
X10464674Y22279837D01*
X10281412Y22279837D01*
X9980489Y22199205D01*
X9804835Y22051815D01*
X9693044Y21858186D01*
X9656163Y21649024D01*
X9656163Y21291000D01*
X10863500Y21291000D01*
X10863500Y20046163D01*
X11189588Y20046163D01*
X11490512Y20126795D01*
X11666165Y20274185D01*
X11731197Y20386824D01*
X11744552Y20377901D01*
X11860590Y20354819D01*
X12760410Y20354819D01*
X12876448Y20377901D01*
X12985340Y20450660D01*
X13058099Y20559552D01*
X13081181Y20675590D01*
X13081181Y20706800D01*
X13864667Y20706800D01*
X13956506Y20701987D01*
X13995608Y20721910D01*
X14066277Y20736931D01*
X14223174Y20850924D01*
X14241628Y20882886D01*
X14501998Y21143257D01*
X14545160Y21078660D01*
X14654052Y21005901D01*
X14770090Y20982819D01*
X15518370Y20982819D01*
X15522401Y20962552D01*
X15547981Y20924268D01*
X15522804Y20905976D01*
X15504352Y20874017D01*
X14061518Y19431181D01*
X13486090Y19431181D01*
X13370052Y19408099D01*
X13261160Y19335340D01*
X13188401Y19226448D01*
X13165319Y19110410D01*
X13165319Y18135590D01*
X13188401Y18019552D01*
X13261160Y17910660D01*
X13370052Y17837901D01*
X13486090Y17814819D01*
X14385910Y17814819D01*
X14501948Y17837901D01*
X14610840Y17910660D01*
X14683599Y18019552D01*
X14706681Y18135590D01*
X14706681Y18786019D01*
X15781773Y19861110D01*
X15820160Y19803660D01*
X15929052Y19730901D01*
X16045090Y19707819D01*
X16277099Y19707819D01*
X16277100Y16176437D01*
X16136499Y16095262D01*
X15993871Y15925284D01*
X15917981Y15716776D01*
X15917981Y15494886D01*
X15993871Y15286378D01*
X16136499Y15116400D01*
X16328662Y15005456D01*
X16547180Y14966925D01*
X16765698Y15005456D01*
X16957861Y15116400D01*
X17100489Y15286378D01*
X17176379Y15494886D01*
X17176379Y15716776D01*
X17100488Y15925284D01*
X17087899Y15940287D01*
X17087899Y16163126D01*
X17296740Y16126301D01*
X17419942Y16148025D01*
X17419942Y16001750D01*
X17383191Y15957953D01*
X17307301Y15749445D01*
X17307301Y15527555D01*
X17383191Y15319047D01*
X17525819Y15149069D01*
X17717982Y15038125D01*
X17777201Y15027683D01*
X17777201Y14905255D01*
X17853091Y14696747D01*
X17995719Y14526769D01*
X18187882Y14415825D01*
X18406400Y14377294D01*
X18624918Y14415825D01*
X18735132Y14479456D01*
X18883143Y14362773D01*
X19153873Y14293262D01*
X20609039Y14293262D01*
X20673363Y14276747D01*
X20677104Y14276747D01*
X20689831Y14272941D01*
X20786705Y14276747D01*
X20827246Y14276747D01*
X20839773Y14278832D01*
X20907450Y14281492D01*
X20946487Y14296594D01*
X20987790Y14303469D01*
X21047412Y14335639D01*
X21110570Y14360073D01*
X21142609Y14387005D01*
X21179458Y14406888D01*
X21225442Y14456633D01*
X21277283Y14500210D01*
X21298874Y14536073D01*
X21327292Y14566815D01*
X21354679Y14628761D01*
X21389617Y14686794D01*
X21398429Y14727724D01*
X21415354Y14766007D01*
X21421199Y14833486D01*
X21435455Y14899705D01*
X21430534Y14941274D01*
X21434147Y14982983D01*
X21417818Y15048718D01*
X21409194Y15121581D01*
X21392857Y15149208D01*
X21381643Y15194351D01*
X21263505Y15377314D01*
X21251588Y15386709D01*
X21246992Y15393827D01*
X21191524Y15437555D01*
X21180638Y15448441D01*
X21149379Y15470779D01*
X21071529Y15532152D01*
X21058992Y15535371D01*
X21048223Y15543066D01*
X20839564Y15605468D01*
X20742690Y15601662D01*
X19549147Y15601662D01*
X19556909Y15611368D01*
X19562238Y15634636D01*
X19574951Y15654863D01*
X19582829Y15724544D01*
X19587900Y15746684D01*
X19587900Y15769394D01*
X19595730Y15838650D01*
X19587900Y15861072D01*
X19587900Y19868104D01*
X19617599Y19912552D01*
X19640681Y20028590D01*
X19640681Y20776870D01*
X19660948Y20780901D01*
X19769840Y20853660D01*
X19842599Y20962552D01*
X19846630Y20982819D01*
X20594910Y20982819D01*
X20604869Y20984800D01*
X21609037Y20984800D01*
X22029819Y20564017D01*
X22029819Y19913590D01*
X22052901Y19797552D01*
X22125660Y19688660D01*
X22146300Y19674869D01*
X22146301Y14933696D01*
X22138000Y14895144D01*
X22146301Y14825008D01*
X22146301Y14809609D01*
X22152609Y14771713D01*
X22164261Y14673266D01*
X22170849Y14662126D01*
X22173023Y14649065D01*
X22276442Y14457397D01*
X22347650Y14391573D01*
X22427201Y14312021D01*
X22559616Y14217396D01*
X22768275Y14154994D01*
X22985895Y14163546D01*
X23189013Y14242125D01*
X23355728Y14382264D01*
X23468060Y14568847D01*
X23513900Y14781758D01*
X23487639Y15003635D01*
X23454700Y15059331D01*
X23454700Y19674869D01*
X23475340Y19688660D01*
X23548099Y19797552D01*
X23571181Y19913590D01*
X23571181Y20888410D01*
X23604819Y20888410D01*
X23604819Y19913590D01*
X23627901Y19797552D01*
X23700660Y19688660D01*
X23809552Y19615901D01*
X23925590Y19592819D01*
X24825410Y19592819D01*
X24941448Y19615901D01*
X25050340Y19688660D01*
X25123099Y19797552D01*
X25127127Y19817800D01*
X25244734Y19817800D01*
X25274482Y19800625D01*
X25493000Y19762094D01*
X25711518Y19800625D01*
X25903681Y19911569D01*
X26046309Y20081547D01*
X26122199Y20290055D01*
X26122199Y20511945D01*
X26046309Y20720453D01*
X25903681Y20890431D01*
X25711518Y21001375D01*
X25493000Y21039906D01*
X25274482Y21001375D01*
X25244734Y20984200D01*
X25127127Y20984200D01*
X25123099Y21004448D01*
X25050340Y21113340D01*
X24941448Y21186099D01*
X24825410Y21209181D01*
X23925590Y21209181D01*
X23809552Y21186099D01*
X23700660Y21113340D01*
X23627901Y21004448D01*
X23604819Y20888410D01*
X23571181Y20888410D01*
X23548099Y21004448D01*
X23475340Y21113340D01*
X23366448Y21186099D01*
X23250410Y21209181D01*
X22674983Y21209181D01*
X22348564Y21535599D01*
X25696390Y21535599D01*
X26165511Y21066477D01*
X26165511Y20899655D01*
X26241401Y20691147D01*
X26384029Y20521169D01*
X26576192Y20410225D01*
X26794710Y20371694D01*
X27013228Y20410225D01*
X27205391Y20521169D01*
X27348019Y20691147D01*
X27423909Y20899655D01*
X27423909Y21121545D01*
X27348019Y21330053D01*
X27205391Y21500031D01*
X27013228Y21610975D01*
X26794710Y21649506D01*
X26738955Y21639675D01*
X26714528Y21664102D01*
X26714524Y21664109D01*
X26209692Y22168939D01*
X26259281Y22197569D01*
X26401909Y22367547D01*
X26477799Y22576055D01*
X26477799Y22797945D01*
X26401909Y23006453D01*
X26259281Y23176431D01*
X26067118Y23287375D01*
X26009130Y23297600D01*
X26304800Y23297600D01*
X26304811Y27512000D01*
X27779163Y27512000D01*
X27779163Y26748412D01*
X27859795Y26447488D01*
X28007185Y26271835D01*
X28200814Y26160044D01*
X28409976Y26123163D01*
X28918000Y26123163D01*
X28918000Y27512000D01*
X29174000Y27512000D01*
X29174000Y26123163D01*
X29687588Y26123163D01*
X29988512Y26203795D01*
X30164165Y26351185D01*
X30275956Y26544814D01*
X30312837Y26753976D01*
X30312837Y27512000D01*
X29174000Y27512000D01*
X28918000Y27512000D01*
X27779163Y27512000D01*
X26304811Y27512000D01*
X26304814Y28580800D01*
X27788821Y28580800D01*
X27779163Y28526024D01*
X27779163Y27768000D01*
X30312837Y27768000D01*
X30312837Y28531588D01*
X30299651Y28580800D01*
X30766801Y28580800D01*
X30766800Y27572105D01*
X30792398Y27369482D01*
X30887819Y27128476D01*
X30887819Y26752590D01*
X30910901Y26636552D01*
X30983660Y26527660D01*
X31092552Y26454901D01*
X31208590Y26431819D01*
X32483410Y26431819D01*
X32599448Y26454901D01*
X32708340Y26527660D01*
X32781099Y26636552D01*
X32804181Y26752590D01*
X32804181Y27142775D01*
X32859336Y27243102D01*
X32925200Y27588374D01*
X32925200Y28580800D01*
X36370801Y28580800D01*
X36370800Y8377905D01*
X36276410Y8396681D01*
X35160681Y8396681D01*
X35160681Y9512410D01*
X35137599Y9628448D01*
X35064840Y9737340D01*
X34955948Y9810099D01*
X34839910Y9833181D01*
X34688090Y9833181D01*
X34572052Y9810099D01*
X34463160Y9737340D01*
X34390401Y9628448D01*
X34367319Y9512410D01*
X34367319Y8396681D01*
X33251590Y8396681D01*
X33135552Y8373599D01*
X33026660Y8300840D01*
X32953901Y8191948D01*
X32930819Y8075910D01*
X32930819Y7954000D01*
X30612931Y7954000D01*
X30577577Y7984302D01*
X30560286Y7993400D01*
X30545754Y8006461D01*
X30532944Y8013592D01*
X30343666Y8118510D01*
X30324900Y8123944D01*
X30307790Y8133962D01*
X30293734Y8138324D01*
X30087545Y8202940D01*
X30068073Y8204490D01*
X30049502Y8210794D01*
X30034913Y8212285D01*
X29819680Y8234148D01*
X29779673Y8229200D01*
X29324656Y8229200D01*
X29288951Y8234568D01*
X29274342Y8233441D01*
X29107209Y8220580D01*
X29092459Y8216000D01*
X29076854Y8215551D01*
X29062614Y8211829D01*
X28853399Y8157333D01*
X28836060Y8148326D01*
X28817073Y8143855D01*
X28803902Y8137410D01*
X28609698Y8041849D01*
X28594529Y8029543D01*
X28576650Y8021263D01*
X28565027Y8012233D01*
X28489953Y7954000D01*
X23034224Y7954000D01*
X23027487Y7983533D01*
X22998416Y8020015D01*
X22978226Y8062062D01*
X22941517Y8091419D01*
X22912224Y8128181D01*
X22880768Y8143353D01*
X22501802Y8522319D01*
X22491679Y8543401D01*
X22436953Y8587167D01*
X22420609Y8603512D01*
X22401483Y8615533D01*
X22347188Y8658954D01*
X22323915Y8664285D01*
X22303686Y8676998D01*
X22275887Y8680141D01*
X22343527Y8865983D01*
X22343527Y9087873D01*
X22288339Y9239502D01*
X22309979Y9231903D01*
X22379603Y9239651D01*
X22402738Y9239651D01*
X22424771Y9244677D01*
X22493859Y9252365D01*
X22514079Y9265050D01*
X22537374Y9270363D01*
X22592231Y9314075D01*
X22611457Y9326136D01*
X22627501Y9342181D01*
X22646532Y9357346D01*
X22699000Y9348094D01*
X22917518Y9386625D01*
X23109681Y9497569D01*
X23252309Y9667547D01*
X23328199Y9876055D01*
X23328199Y10097945D01*
X23252309Y10306453D01*
X23109681Y10476431D01*
X22917518Y10587375D01*
X22699000Y10625906D01*
X22480482Y10587375D01*
X22453806Y10571973D01*
X22439509Y10611253D01*
X22296881Y10781231D01*
X22104718Y10892175D01*
X21886200Y10930706D01*
X21667682Y10892175D01*
X21475520Y10781231D01*
X21405009Y10697200D01*
X17687375Y10697200D01*
X17665312Y10704948D01*
X17595687Y10697200D01*
X17572553Y10697200D01*
X17550520Y10692174D01*
X17481431Y10684486D01*
X17461211Y10671802D01*
X17437916Y10666488D01*
X17383066Y10622780D01*
X17363833Y10610715D01*
X17347781Y10594663D01*
X17293267Y10551223D01*
X17282948Y10529830D01*
X16716028Y9962909D01*
X16694944Y9952785D01*
X16651184Y9898064D01*
X16634834Y9881715D01*
X16625616Y9867048D01*
X16589244Y9888047D01*
X16370726Y9926578D01*
X16274833Y9909669D01*
X16237023Y10013552D01*
X16094395Y10183530D01*
X15902232Y10294474D01*
X15683714Y10333005D01*
X15560512Y10311281D01*
X15560512Y11690093D01*
X15568812Y11728645D01*
X15560512Y11798772D01*
X15560512Y11814180D01*
X15554199Y11852106D01*
X15542551Y11950522D01*
X15535965Y11961659D01*
X15533791Y11974722D01*
X15430371Y12166391D01*
X15359150Y12232227D01*
X15223799Y12367579D01*
X15091383Y12462204D01*
X14882724Y12524606D01*
X14665104Y12516055D01*
X14461985Y12437475D01*
X14295272Y12297337D01*
X14182940Y12110753D01*
X14155947Y11985381D01*
X14082909Y12186053D01*
X13940281Y12356031D01*
X13762019Y12458949D01*
X13348968Y12872000D01*
X26410776Y12872000D01*
X26410776Y12439025D01*
X26487691Y12085451D01*
X26627618Y11867721D01*
X26819730Y11701255D01*
X27050959Y11595657D01*
X27293559Y11560776D01*
X28672000Y11560776D01*
X28672000Y12872000D01*
X28928000Y12872000D01*
X28928000Y11560776D01*
X30310975Y11560776D01*
X30664549Y11637691D01*
X30882279Y11777618D01*
X31048745Y11969730D01*
X31154343Y12200959D01*
X31189224Y12443559D01*
X31189224Y12872000D01*
X28928000Y12872000D01*
X28672000Y12872000D01*
X26410776Y12872000D01*
X13348968Y12872000D01*
X12664527Y13556441D01*
X26410776Y13556441D01*
X26410776Y13128000D01*
X28672000Y13128000D01*
X28672000Y14439224D01*
X28928000Y14439224D01*
X28928000Y13128000D01*
X31189224Y13128000D01*
X31189224Y13557346D01*
X32117280Y13557346D01*
X32117280Y12439712D01*
X32175047Y12194101D01*
X32307367Y12018882D01*
X32471395Y11917320D01*
X32470801Y11915493D01*
X32470801Y11684507D01*
X32542180Y11464824D01*
X32677951Y11277951D01*
X32864824Y11142180D01*
X33084507Y11070801D01*
X33315493Y11070801D01*
X33535176Y11142180D01*
X33722049Y11277951D01*
X33750000Y11316422D01*
X33777951Y11277951D01*
X33964824Y11142180D01*
X34184507Y11070801D01*
X34415493Y11070801D01*
X34635176Y11142180D01*
X34800000Y11261931D01*
X34964824Y11142180D01*
X35184507Y11070801D01*
X35415493Y11070801D01*
X35635176Y11142180D01*
X35822049Y11277951D01*
X35957820Y11464824D01*
X36029199Y11684507D01*
X36029199Y11915493D01*
X36012265Y11967612D01*
X36131118Y12057367D01*
X36245113Y12241475D01*
X36282720Y12442654D01*
X36282720Y13560288D01*
X36224953Y13805899D01*
X36092633Y13981118D01*
X35908525Y14095113D01*
X35707346Y14132720D01*
X32689712Y14132720D01*
X32444101Y14074953D01*
X32268882Y13942633D01*
X32154887Y13758525D01*
X32117280Y13557346D01*
X31189224Y13557346D01*
X31189224Y13560975D01*
X31112309Y13914549D01*
X30972382Y14132279D01*
X30780270Y14298745D01*
X30549041Y14404343D01*
X30306441Y14439224D01*
X28928000Y14439224D01*
X28672000Y14439224D01*
X27289025Y14439224D01*
X26935451Y14362309D01*
X26717721Y14222382D01*
X26551255Y14030270D01*
X26445657Y13799041D01*
X26410776Y13556441D01*
X12664527Y13556441D01*
X11826533Y14394435D01*
X11821497Y14404736D01*
X11748743Y14472224D01*
X11719291Y14501677D01*
X11710460Y14507735D01*
X11657507Y14556856D01*
X11625228Y14566205D01*
X11613560Y14574208D01*
X11597599Y14654448D01*
X11524840Y14763340D01*
X11415948Y14836099D01*
X11299910Y14859181D01*
X10688562Y14859181D01*
X10329673Y15218069D01*
X10318914Y15240474D01*
X10260760Y15286982D01*
X10243392Y15304350D01*
X10223073Y15317121D01*
X10165373Y15363264D01*
X10140646Y15368927D01*
X10119145Y15382441D01*
X10045082Y15390814D01*
X10021569Y15396200D01*
X9997437Y15396200D01*
X9923845Y15404520D01*
X9900020Y15396200D01*
X6680381Y15396200D01*
X6680381Y15452810D01*
X6657299Y15568848D01*
X6584540Y15677740D01*
X6475648Y15750499D01*
X6359610Y15773581D01*
X5459790Y15773581D01*
X5343752Y15750499D01*
X5234860Y15677740D01*
X5162101Y15568848D01*
X5139019Y15452810D01*
X5139019Y14477990D01*
X5162101Y14361952D01*
X5234860Y14253060D01*
X5343752Y14180301D01*
X5459790Y14157219D01*
X5481001Y14157219D01*
X5481000Y14064981D01*
X5469390Y14064981D01*
X5353352Y14041899D01*
X5244460Y13969140D01*
X5224903Y13939870D01*
X5199210Y13944981D01*
X3724390Y13944981D01*
X3698697Y13939870D01*
X3679140Y13969140D01*
X3570248Y14041899D01*
X3454210Y14064981D01*
X2749390Y14064981D01*
X2633352Y14041899D01*
X2524460Y13969140D01*
X2516502Y13957229D01*
X2513251Y13956488D01*
X2458403Y13912782D01*
X2439170Y13900718D01*
X2423111Y13884659D01*
X2368602Y13841223D01*
X2358283Y13819830D01*
X1974316Y13435863D01*
X1953232Y13425739D01*
X1909471Y13371018D01*
X1893121Y13354669D01*
X1881099Y13335541D01*
X1868906Y13320294D01*
X1455419Y12906806D01*
X1434335Y12896682D01*
X1390575Y12841961D01*
X1374225Y12825612D01*
X1362203Y12806484D01*
X1318781Y12752188D01*
X1313452Y12728918D01*
X1300739Y12708692D01*
X1292861Y12639011D01*
X1287790Y12616871D01*
X1287790Y12594162D01*
X1279960Y12524908D01*
X1287790Y12502484D01*
X1287791Y10894348D01*
X1280042Y10872283D01*
X1287791Y10802649D01*
X1287791Y10779524D01*
X1292815Y10757502D01*
X1300504Y10688402D01*
X1313191Y10668178D01*
X1318504Y10644886D01*
X1362210Y10590036D01*
X1374276Y10570804D01*
X1390327Y10554753D01*
X1433768Y10500237D01*
X1455163Y10489917D01*
X2933831Y9011248D01*
X2943953Y8990166D01*
X2998671Y8946406D01*
X3015025Y8930052D01*
X3034158Y8918028D01*
X3088446Y8874611D01*
X3111715Y8869281D01*
X3131946Y8856566D01*
X3201627Y8848689D01*
X3223764Y8843619D01*
X3246474Y8843619D01*
X3315732Y8835789D01*
X3338154Y8843619D01*
X6775990Y8843619D01*
X6846501Y8759588D01*
X7038663Y8648644D01*
X7257181Y8610113D01*
X7475699Y8648644D01*
X7667862Y8759588D01*
X7810490Y8929566D01*
X7886380Y9138074D01*
X7886380Y9334129D01*
X8415208Y9334129D01*
X8595029Y9154306D01*
X8595029Y9142684D01*
X8505891Y9036453D01*
X8430001Y8827945D01*
X8430001Y8606055D01*
X8438906Y8581590D01*
X8434282Y8580775D01*
X8242119Y8469831D01*
X8099491Y8299853D01*
X8023601Y8091345D01*
X8023601Y7954000D01*
X7812931Y7954000D01*
X7777577Y7984302D01*
X7760286Y7993400D01*
X7745754Y8006461D01*
X7732944Y8013592D01*
X7543666Y8118510D01*
X7524900Y8123944D01*
X7507790Y8133962D01*
X7493734Y8138324D01*
X7287545Y8202940D01*
X7268073Y8204490D01*
X7249502Y8210794D01*
X7234913Y8212285D01*
X7019680Y8234148D01*
X6979673Y8229200D01*
X6624656Y8229200D01*
X6588951Y8234568D01*
X6574342Y8233441D01*
X6407209Y8220580D01*
X6392459Y8216000D01*
X6376854Y8215551D01*
X6362614Y8211829D01*
X6153399Y8157333D01*
X6136060Y8148326D01*
X6117073Y8143855D01*
X6103902Y8137410D01*
X5909698Y8041849D01*
X5894529Y8029543D01*
X5876650Y8021263D01*
X5865027Y8012233D01*
X5789953Y7954000D01*
X3577181Y7954000D01*
X3577181Y8075910D01*
X3554099Y8191948D01*
X3481340Y8300840D01*
X3372448Y8373599D01*
X3256410Y8396681D01*
X2140681Y8396681D01*
X2140681Y9512410D01*
X2117599Y9628448D01*
X2044840Y9737340D01*
X1935948Y9810099D01*
X1819910Y9833181D01*
X1668090Y9833181D01*
X1552052Y9810099D01*
X1443160Y9737340D01*
X1370401Y9628448D01*
X1347319Y9512410D01*
X1347319Y8396681D01*
X329200Y8396681D01*
X329200Y15101745D01*
X2867401Y15101745D01*
X2867401Y14879855D01*
X2943291Y14671347D01*
X3085919Y14501369D01*
X3278082Y14390425D01*
X3496600Y14351894D01*
X3585967Y14367652D01*
X3587101Y14361952D01*
X3659860Y14253060D01*
X3768752Y14180301D01*
X3884790Y14157219D01*
X4784610Y14157219D01*
X4900648Y14180301D01*
X5009540Y14253060D01*
X5082299Y14361952D01*
X5105381Y14477990D01*
X5105381Y15452810D01*
X5082299Y15568848D01*
X5009540Y15677740D01*
X4900648Y15750499D01*
X4784610Y15773581D01*
X3884790Y15773581D01*
X3768752Y15750499D01*
X3659860Y15677740D01*
X3613940Y15609016D01*
X3496600Y15629706D01*
X3278082Y15591175D01*
X3085919Y15480231D01*
X2943291Y15310253D01*
X2867401Y15101745D01*
X329200Y15101745D01*
X329200Y18733945D01*
X10639801Y18733945D01*
X10639801Y18512055D01*
X10715691Y18303547D01*
X10858319Y18133569D01*
X11050482Y18022625D01*
X11269000Y17984094D01*
X11487518Y18022625D01*
X11517266Y18039800D01*
X11609373Y18039800D01*
X11613401Y18019552D01*
X11686160Y17910660D01*
X11795052Y17837901D01*
X11911090Y17814819D01*
X12810910Y17814819D01*
X12926948Y17837901D01*
X13035840Y17910660D01*
X13108599Y18019552D01*
X13131681Y18135590D01*
X13131681Y19110410D01*
X13108599Y19226448D01*
X13035840Y19335340D01*
X12926948Y19408099D01*
X12810910Y19431181D01*
X11911090Y19431181D01*
X11795052Y19408099D01*
X11686160Y19335340D01*
X11613401Y19226448D01*
X11609373Y19206200D01*
X11517266Y19206200D01*
X11487518Y19223375D01*
X11269000Y19261906D01*
X11050482Y19223375D01*
X10858319Y19112431D01*
X10715691Y18942453D01*
X10639801Y18733945D01*
X329200Y18733945D01*
X329200Y21035000D01*
X9656163Y21035000D01*
X9656163Y20671412D01*
X9736795Y20370488D01*
X9884185Y20194835D01*
X10077814Y20083044D01*
X10286976Y20046163D01*
X10607500Y20046163D01*
X10607500Y21035000D01*
X9656163Y21035000D01*
X329200Y21035000D01*
X329200Y28580800D01*
X3328801Y28580800D01*
X3328800Y27572105D01*
G36*
X26052800Y23549600D02*
G01*
X25487480Y23549600D01*
X25278155Y23758925D01*
X25231467Y23771435D01*
X25189616Y23795598D01*
X20862296Y23795599D01*
X20863886Y23803591D01*
X20863886Y23856400D01*
X22791788Y23856400D01*
X22916623Y23889850D01*
X23020150Y23993377D01*
X23053600Y24118212D01*
X23053600Y26081788D01*
X23020150Y26206623D01*
X22950159Y26276614D01*
X23133410Y26276614D01*
X23229628Y26295753D01*
X23304226Y26345600D01*
X24112257Y26345600D01*
X24285432Y26293150D01*
X24500305Y26309119D01*
X24695024Y26401370D01*
X24843475Y26557534D01*
X24926040Y26757353D01*
X24928815Y26984537D01*
X24851158Y27186314D01*
X24706566Y27346059D01*
X24514159Y27443040D01*
X24299740Y27464252D01*
X24104897Y27410400D01*
X23304226Y27410400D01*
X23229628Y27460247D01*
X23133410Y27479386D01*
X22518590Y27479386D01*
X22422372Y27460247D01*
X22330285Y27398715D01*
X22268753Y27306628D01*
X22249614Y27210410D01*
X22249614Y26545590D01*
X22268753Y26449372D01*
X22330285Y26357285D01*
X22350766Y26343600D01*
X20811141Y26343600D01*
X20738661Y26334058D01*
X20634271Y26273788D01*
X19432870Y25072386D01*
X19142000Y25072386D01*
X19142000Y25930109D01*
X21198699Y29015157D01*
X22523563Y29038000D01*
X26052815Y29038000D01*
X26052800Y23549600D01*
G37*
X26052800Y23549600D02*
X25487480Y23549600D01*
X25278155Y23758925D01*
X25231467Y23771435D01*
X25189616Y23795598D01*
X20862296Y23795599D01*
X20863886Y23803591D01*
X20863886Y23856400D01*
X22791788Y23856400D01*
X22916623Y23889850D01*
X23020150Y23993377D01*
X23053600Y24118212D01*
X23053600Y26081788D01*
X23020150Y26206623D01*
X22950159Y26276614D01*
X23133410Y26276614D01*
X23229628Y26295753D01*
X23304226Y26345600D01*
X24112257Y26345600D01*
X24285432Y26293150D01*
X24500305Y26309119D01*
X24695024Y26401370D01*
X24843475Y26557534D01*
X24926040Y26757353D01*
X24928815Y26984537D01*
X24851158Y27186314D01*
X24706566Y27346059D01*
X24514159Y27443040D01*
X24299740Y27464252D01*
X24104897Y27410400D01*
X23304226Y27410400D01*
X23229628Y27460247D01*
X23133410Y27479386D01*
X22518590Y27479386D01*
X22422372Y27460247D01*
X22330285Y27398715D01*
X22268753Y27306628D01*
X22249614Y27210410D01*
X22249614Y26545590D01*
X22268753Y26449372D01*
X22330285Y26357285D01*
X22350766Y26343600D01*
X20811141Y26343600D01*
X20738661Y26334058D01*
X20634271Y26273788D01*
X19432870Y25072386D01*
X19142000Y25072386D01*
X19142000Y25930109D01*
X21198699Y29015157D01*
X22523563Y29038000D01*
X26052815Y29038000D01*
X26052800Y23549600D01*
G36*
X12797015Y29012928D02*
G01*
X14140901Y28989757D01*
X16197600Y25904709D01*
X16197600Y25072386D01*
X15906730Y25072386D01*
X14685819Y26293298D01*
X14627820Y26337802D01*
X14511388Y26369000D01*
X12961543Y26369000D01*
X13015247Y26449372D01*
X13034386Y26545590D01*
X13034386Y27210410D01*
X13015247Y27306628D01*
X12953715Y27398715D01*
X12861628Y27460247D01*
X12765410Y27479386D01*
X12150590Y27479386D01*
X12054372Y27460247D01*
X11979774Y27410400D01*
X11497915Y27410400D01*
X11433159Y27443040D01*
X11218740Y27464252D01*
X11011061Y27406852D01*
X10837970Y27278538D01*
X10722676Y27096514D01*
X10680641Y26885189D01*
X10717501Y26672900D01*
X10828313Y26488112D01*
X10998217Y26355607D01*
X11204432Y26293150D01*
X11419305Y26309119D01*
X11496307Y26345600D01*
X11979774Y26345600D01*
X12054372Y26295753D01*
X12150590Y26276614D01*
X12364041Y26276614D01*
X12319450Y26232023D01*
X12286000Y26107188D01*
X12286000Y24143612D01*
X12295435Y24108400D01*
X10197095Y24108400D01*
X10195358Y24112914D01*
X10050766Y24272659D01*
X9858359Y24369640D01*
X9643940Y24390852D01*
X9436261Y24333452D01*
X9263170Y24205138D01*
X9235998Y24162240D01*
X9235985Y29038000D01*
X12709505Y29038000D01*
X12797015Y29012928D01*
G37*
X12797015Y29012928D02*
X14140901Y28989757D01*
X16197600Y25904709D01*
X16197600Y25072386D01*
X15906730Y25072386D01*
X14685819Y26293298D01*
X14627820Y26337802D01*
X14511388Y26369000D01*
X12961543Y26369000D01*
X13015247Y26449372D01*
X13034386Y26545590D01*
X13034386Y27210410D01*
X13015247Y27306628D01*
X12953715Y27398715D01*
X12861628Y27460247D01*
X12765410Y27479386D01*
X12150590Y27479386D01*
X12054372Y27460247D01*
X11979774Y27410400D01*
X11497915Y27410400D01*
X11433159Y27443040D01*
X11218740Y27464252D01*
X11011061Y27406852D01*
X10837970Y27278538D01*
X10722676Y27096514D01*
X10680641Y26885189D01*
X10717501Y26672900D01*
X10828313Y26488112D01*
X10998217Y26355607D01*
X11204432Y26293150D01*
X11419305Y26309119D01*
X11496307Y26345600D01*
X11979774Y26345600D01*
X12054372Y26295753D01*
X12150590Y26276614D01*
X12364041Y26276614D01*
X12319450Y26232023D01*
X12286000Y26107188D01*
X12286000Y24143612D01*
X12295435Y24108400D01*
X10197095Y24108400D01*
X10195358Y24112914D01*
X10050766Y24272659D01*
X9858359Y24369640D01*
X9643940Y24390852D01*
X9436261Y24333452D01*
X9263170Y24205138D01*
X9235998Y24162240D01*
X9235985Y29038000D01*
X12709505Y29038000D01*
X12797015Y29012928D01*
M02*
