G04 #@! TF.GenerationSoftware,KiCad,Pcbnew,5.99.0-unknown-d20d310~86~ubuntu19.10.1*
G04 #@! TF.CreationDate,2019-12-18T16:01:45-08:00*
G04 #@! TF.ProjectId,TMC2209_Driver,544d4332-3230-4395-9f44-72697665722e,rev?*
G04 #@! TF.SameCoordinates,PX67f3540PY6cb8080*
G04 #@! TF.FileFunction,Legend,Top*
G04 #@! TF.FilePolarity,Positive*
%FSLAX46Y46*%
G04 Gerber Fmt 4.6, Leading zero omitted, Abs format (unit mm)*
G04 Created by KiCad (PCBNEW 5.99.0-unknown-d20d310~86~ubuntu19.10.1) date 2019-12-18 16:01:45*
%MOMM*%
%LPD*%
G04 APERTURE LIST*
%ADD10C,0.100000*%
%ADD11C,0.150000*%
%ADD12C,0.300000*%
%ADD13C,0.120000*%
%ADD14C,0.152400*%
G04 APERTURE END LIST*
D10*
X8100000Y13110715D02*
X8100000Y12932143D01*
X7921428Y13003572D02*
X8100000Y12932143D01*
X8278571Y13003572D01*
X7992857Y12789286D02*
X8100000Y12932143D01*
X8207142Y12789286D01*
X2500000Y14710715D02*
X2500000Y14532143D01*
X2321428Y14603572D02*
X2500000Y14532143D01*
X2678571Y14603572D01*
X2392857Y14389286D02*
X2500000Y14532143D01*
X2607142Y14389286D01*
D11*
X1042819Y18721667D02*
X995200Y18769286D01*
X899961Y18912143D01*
X852342Y19007381D01*
X804723Y19150239D01*
X757104Y19388334D01*
X757104Y19578810D01*
X804723Y19816905D01*
X852342Y19959762D01*
X899961Y20055000D01*
X995200Y20197858D01*
X1042819Y20245477D01*
X1852342Y19150239D02*
X1757104Y19102620D01*
X1566628Y19102620D01*
X1471390Y19150239D01*
X1423771Y19197858D01*
X1376152Y19293096D01*
X1376152Y19578810D01*
X1423771Y19674048D01*
X1471390Y19721667D01*
X1566628Y19769286D01*
X1757104Y19769286D01*
X1852342Y19721667D01*
X2185676Y18721667D02*
X2233295Y18769286D01*
X2328533Y18912143D01*
X2376152Y19007381D01*
X2423771Y19150239D01*
X2471390Y19388334D01*
X2471390Y19578810D01*
X2423771Y19816905D01*
X2376152Y19959762D01*
X2328533Y20055000D01*
X2233295Y20197858D01*
X2185676Y20245477D01*
X3709485Y19102620D02*
X3709485Y19769286D01*
X3709485Y20102620D02*
X3661866Y20055000D01*
X3709485Y20007381D01*
X3757104Y20055000D01*
X3709485Y20102620D01*
X3709485Y20007381D01*
X4852342Y19007381D02*
X4757104Y19055000D01*
X4661866Y19150239D01*
X4519009Y19293096D01*
X4423771Y19340715D01*
X4328533Y19340715D01*
X4376152Y19102620D02*
X4280914Y19150239D01*
X4185676Y19245477D01*
X4138057Y19435953D01*
X4138057Y19769286D01*
X4185676Y19959762D01*
X4280914Y20055000D01*
X4376152Y20102620D01*
X4566628Y20102620D01*
X4661866Y20055000D01*
X4757104Y19959762D01*
X4804723Y19769286D01*
X4804723Y19435953D01*
X4757104Y19245477D01*
X4661866Y19150239D01*
X4566628Y19102620D01*
X4376152Y19102620D01*
X5661866Y19769286D02*
X5661866Y19102620D01*
X5233295Y19769286D02*
X5233295Y19245477D01*
X5280914Y19150239D01*
X5376152Y19102620D01*
X5519009Y19102620D01*
X5614247Y19150239D01*
X5661866Y19197858D01*
X6138057Y19102620D02*
X6138057Y19769286D01*
X6138057Y19578810D02*
X6185676Y19674048D01*
X6233295Y19721667D01*
X6328533Y19769286D01*
X6423771Y19769286D01*
X6661866Y19769286D02*
X6899961Y19102620D01*
X7138057Y19769286D02*
X6899961Y19102620D01*
X6804723Y18864524D01*
X6757104Y18816905D01*
X6661866Y18769286D01*
X7519009Y19197858D02*
X7566628Y19150239D01*
X7519009Y19102620D01*
X7471390Y19150239D01*
X7519009Y19197858D01*
X7519009Y19102620D01*
X8423771Y19769286D02*
X8423771Y19102620D01*
X7995200Y19769286D02*
X7995200Y19245477D01*
X8042819Y19150239D01*
X8138057Y19102620D01*
X8280914Y19102620D01*
X8376152Y19150239D01*
X8423771Y19197858D01*
X8852342Y19150239D02*
X8947580Y19102620D01*
X9138057Y19102620D01*
X9233295Y19150239D01*
X9280914Y19245477D01*
X9280914Y19293096D01*
X9233295Y19388334D01*
X9138057Y19435953D01*
X8995200Y19435953D01*
X8899961Y19483572D01*
X8852342Y19578810D01*
X8852342Y19626429D01*
X8899961Y19721667D01*
X8995200Y19769286D01*
X9138057Y19769286D01*
X9233295Y19721667D01*
X1590438Y17492620D02*
X1590438Y18492620D01*
X1828533Y18492620D01*
X1971390Y18445000D01*
X2066628Y18349762D01*
X2114247Y18254524D01*
X2161866Y18064048D01*
X2161866Y17921191D01*
X2114247Y17730715D01*
X2066628Y17635477D01*
X1971390Y17540239D01*
X1828533Y17492620D01*
X1590438Y17492620D01*
X2971390Y17540239D02*
X2876152Y17492620D01*
X2685676Y17492620D01*
X2590438Y17540239D01*
X2542819Y17635477D01*
X2542819Y18016429D01*
X2590438Y18111667D01*
X2685676Y18159286D01*
X2876152Y18159286D01*
X2971390Y18111667D01*
X3019009Y18016429D01*
X3019009Y17921191D01*
X2542819Y17825953D01*
X3876152Y17540239D02*
X3780914Y17492620D01*
X3590438Y17492620D01*
X3495200Y17540239D01*
X3447580Y17587858D01*
X3399961Y17683096D01*
X3399961Y17968810D01*
X3447580Y18064048D01*
X3495200Y18111667D01*
X3590438Y18159286D01*
X3780914Y18159286D01*
X3876152Y18111667D01*
X5019009Y18397381D02*
X5066628Y18445000D01*
X5161866Y18492620D01*
X5399961Y18492620D01*
X5495200Y18445000D01*
X5542819Y18397381D01*
X5590438Y18302143D01*
X5590438Y18206905D01*
X5542819Y18064048D01*
X4971390Y17492620D01*
X5590438Y17492620D01*
X6209485Y18492620D02*
X6304723Y18492620D01*
X6399961Y18445000D01*
X6447580Y18397381D01*
X6495200Y18302143D01*
X6542819Y18111667D01*
X6542819Y17873572D01*
X6495200Y17683096D01*
X6447580Y17587858D01*
X6399961Y17540239D01*
X6304723Y17492620D01*
X6209485Y17492620D01*
X6114247Y17540239D01*
X6066628Y17587858D01*
X6019009Y17683096D01*
X5971390Y17873572D01*
X5971390Y18111667D01*
X6019009Y18302143D01*
X6066628Y18397381D01*
X6114247Y18445000D01*
X6209485Y18492620D01*
X7495200Y17492620D02*
X6923771Y17492620D01*
X7209485Y17492620D02*
X7209485Y18492620D01*
X7114247Y18349762D01*
X7019009Y18254524D01*
X6923771Y18206905D01*
X7971390Y17492620D02*
X8161866Y17492620D01*
X8257104Y17540239D01*
X8304723Y17587858D01*
X8399961Y17730715D01*
X8447580Y17921191D01*
X8447580Y18302143D01*
X8399961Y18397381D01*
X8352342Y18445000D01*
X8257104Y18492620D01*
X8066628Y18492620D01*
X7971390Y18445000D01*
X7923771Y18397381D01*
X7876152Y18302143D01*
X7876152Y18064048D01*
X7923771Y17968810D01*
X7971390Y17921191D01*
X8066628Y17873572D01*
X8257104Y17873572D01*
X8352342Y17921191D01*
X8399961Y17968810D01*
X8447580Y18064048D01*
D10*
X29296428Y35060715D02*
X29296428Y35560715D01*
X29296428Y35417858D02*
X29332142Y35489286D01*
X29367857Y35525000D01*
X29439285Y35560715D01*
X29510714Y35560715D01*
X30046428Y35096429D02*
X29975000Y35060715D01*
X29832142Y35060715D01*
X29760714Y35096429D01*
X29725000Y35167858D01*
X29725000Y35453572D01*
X29760714Y35525000D01*
X29832142Y35560715D01*
X29975000Y35560715D01*
X30046428Y35525000D01*
X30082142Y35453572D01*
X30082142Y35382143D01*
X29725000Y35310715D01*
X30332142Y35560715D02*
X30510714Y35060715D01*
X30689285Y35560715D01*
X31475000Y35810715D02*
X31975000Y35810715D01*
X31653571Y35060715D01*
D12*
X35078571Y17128572D02*
X33578571Y17128572D01*
X33578571Y17485715D01*
X33650000Y17700000D01*
X33792857Y17842858D01*
X33935714Y17914286D01*
X34221428Y17985715D01*
X34435714Y17985715D01*
X34721428Y17914286D01*
X34864285Y17842858D01*
X35007142Y17700000D01*
X35078571Y17485715D01*
X35078571Y17128572D01*
X35078571Y19485715D02*
X34364285Y18985715D01*
X35078571Y18628572D02*
X33578571Y18628572D01*
X33578571Y19200000D01*
X33650000Y19342858D01*
X33721428Y19414286D01*
X33864285Y19485715D01*
X34078571Y19485715D01*
X34221428Y19414286D01*
X34292857Y19342858D01*
X34364285Y19200000D01*
X34364285Y18628572D01*
X33578571Y19914286D02*
X35078571Y20414286D01*
X33578571Y20914286D01*
X33721428Y21342858D02*
X33650000Y21414286D01*
X33578571Y21557143D01*
X33578571Y21914286D01*
X33650000Y22057143D01*
X33721428Y22128572D01*
X33864285Y22200000D01*
X34007142Y22200000D01*
X34221428Y22128572D01*
X35078571Y21271429D01*
X35078571Y22200000D01*
X33721428Y22771429D02*
X33650000Y22842858D01*
X33578571Y22985715D01*
X33578571Y23342858D01*
X33650000Y23485715D01*
X33721428Y23557143D01*
X33864285Y23628572D01*
X34007142Y23628572D01*
X34221428Y23557143D01*
X35078571Y22700000D01*
X35078571Y23628572D01*
X33578571Y24557143D02*
X33578571Y24700000D01*
X33650000Y24842858D01*
X33721428Y24914286D01*
X33864285Y24985715D01*
X34150000Y25057143D01*
X34507142Y25057143D01*
X34792857Y24985715D01*
X34935714Y24914286D01*
X35007142Y24842858D01*
X35078571Y24700000D01*
X35078571Y24557143D01*
X35007142Y24414286D01*
X34935714Y24342858D01*
X34792857Y24271429D01*
X34507142Y24200000D01*
X34150000Y24200000D01*
X33864285Y24271429D01*
X33721428Y24342858D01*
X33650000Y24414286D01*
X33578571Y24557143D01*
X35078571Y25771429D02*
X35078571Y26057143D01*
X35007142Y26200000D01*
X34935714Y26271429D01*
X34721428Y26414286D01*
X34435714Y26485715D01*
X33864285Y26485715D01*
X33721428Y26414286D01*
X33650000Y26342858D01*
X33578571Y26200000D01*
X33578571Y25914286D01*
X33650000Y25771429D01*
X33721428Y25700000D01*
X33864285Y25628572D01*
X34221428Y25628572D01*
X34364285Y25700000D01*
X34435714Y25771429D01*
X34507142Y25914286D01*
X34507142Y26200000D01*
X34435714Y26342858D01*
X34364285Y26414286D01*
X34221428Y26485715D01*
X33578571Y28057143D02*
X35078571Y28557143D01*
X33578571Y29057143D01*
X35078571Y30342858D02*
X35078571Y29485715D01*
X35078571Y29914286D02*
X33578571Y29914286D01*
X33792857Y29771429D01*
X33935714Y29628572D01*
X34007142Y29485715D01*
D13*
X11047936Y31623400D02*
X12252064Y31623400D01*
X11047936Y29803400D02*
X12252064Y29803400D01*
X24193064Y29828800D02*
X22988936Y29828800D01*
X24193064Y31648800D02*
X22988936Y31648800D01*
X34910000Y9590000D02*
X34910000Y11940000D01*
X34910000Y16410000D02*
X34910000Y14060000D01*
X29154437Y16410000D02*
X34910000Y16410000D01*
X29154437Y9590000D02*
X34910000Y9590000D01*
X28090000Y10654437D02*
X28090000Y11940000D01*
X28090000Y15345563D02*
X28090000Y14060000D01*
X28090000Y15345563D02*
X29154437Y16410000D01*
X28090000Y10654437D02*
X29154437Y9590000D01*
X27062500Y14847500D02*
X27850000Y14847500D01*
X27456250Y15241250D02*
X27456250Y14453750D01*
D14*
X15053600Y20312100D02*
X15737360Y20312100D01*
X20311400Y20312100D02*
X20311400Y20995860D01*
X20311400Y25569900D02*
X19627640Y25569900D01*
X15053600Y25569900D02*
X15053600Y24886140D01*
X15053600Y20995860D02*
X15053600Y20312100D01*
X19627640Y20312100D02*
X20311400Y20312100D01*
X20311400Y24886140D02*
X20311400Y25569900D01*
X15737360Y25569900D02*
X15053600Y25569900D01*
D13*
X2651800Y13951800D02*
X5911800Y13951800D01*
X3011800Y11711800D02*
X5911800Y11711800D01*
X5284979Y14455400D02*
X4959421Y14455400D01*
X5284979Y15475400D02*
X4959421Y15475400D01*
X10225279Y13541000D02*
X9899721Y13541000D01*
X10225279Y14561000D02*
X9899721Y14561000D01*
X9235500Y10605000D02*
X10635500Y10605000D01*
X10635500Y12925000D02*
X8735500Y12925000D01*
X9429721Y35389000D02*
X9755279Y35389000D01*
X9429721Y34369000D02*
X9755279Y34369000D01*
X9455221Y37040000D02*
X9780779Y37040000D01*
X9455221Y36020000D02*
X9780779Y36020000D01*
X25782779Y34496000D02*
X25457221Y34496000D01*
X25782779Y35516000D02*
X25457221Y35516000D01*
X25782779Y36020000D02*
X25457221Y36020000D01*
X25782779Y37040000D02*
X25457221Y37040000D01*
X13036721Y11386000D02*
X13362279Y11386000D01*
X13036721Y10366000D02*
X13362279Y10366000D01*
D11*
X11269000Y49153800D02*
X11269000Y33913800D01*
X23969000Y33913800D02*
X11269000Y33913800D01*
X23969000Y49153800D02*
X23969000Y33913800D01*
D10*
X23969000Y49147800D02*
X11269000Y49147800D01*
D13*
X28352800Y5814800D02*
X28352800Y14800D01*
X21052800Y5814800D02*
X21052800Y14800D01*
X21052800Y14800D02*
X28352800Y14800D01*
X28352800Y5814800D02*
X21052800Y5814800D01*
X7952800Y14800D02*
X7952800Y5814800D01*
X19252800Y14800D02*
X7952800Y14800D01*
X19252800Y5814800D02*
X19252800Y14800D01*
X7952800Y5814800D02*
X19252800Y5814800D01*
X21052800Y9014800D02*
X21052800Y5814800D01*
X19252800Y9014800D02*
X21052800Y9014800D01*
X19252800Y5814800D02*
X19252800Y9014800D01*
X29843936Y28550000D02*
X31048064Y28550000D01*
X29843936Y26730000D02*
X31048064Y26730000D01*
X6410064Y26730000D02*
X5205936Y26730000D01*
X6410064Y28550000D02*
X5205936Y28550000D01*
X11360221Y21673000D02*
X11685779Y21673000D01*
X11360221Y20653000D02*
X11685779Y20653000D01*
X12985721Y19133000D02*
X13311279Y19133000D01*
X12985721Y18113000D02*
X13311279Y18113000D01*
X23425221Y20911000D02*
X23750779Y20911000D01*
X23425221Y19891000D02*
X23750779Y19891000D01*
D11*
X15206000Y26409620D02*
X15206000Y26171524D01*
X14967904Y26266762D02*
X15206000Y26171524D01*
X15444095Y26266762D01*
X15063142Y25981048D02*
X15206000Y26171524D01*
X15348857Y25981048D01*
M02*
