G04 #@! TF.GenerationSoftware,KiCad,Pcbnew,(5.1.0-1558-g0ba0c1724)*
G04 #@! TF.CreationDate,2019-11-22T01:18:09-08:00*
G04 #@! TF.ProjectId,TMC2209_Driver,544d4332-3230-4395-9f44-72697665722e,rev?*
G04 #@! TF.SameCoordinates,Original*
G04 #@! TF.FileFunction,Copper,L2,Bot*
G04 #@! TF.FilePolarity,Positive*
%FSLAX46Y46*%
G04 Gerber Fmt 4.6, Leading zero omitted, Abs format (unit mm)*
G04 Created by KiCad (PCBNEW (5.1.0-1558-g0ba0c1724)) date 2019-11-22 01:18:09*
%MOMM*%
%LPD*%
G04 APERTURE LIST*
%ADD10C,1.778000*%
%ADD11R,1.778000X1.778000*%
%ADD12O,0.650000X0.650000*%
%ADD13R,0.650000X4.600000*%
%ADD14R,0.650000X3.600000*%
%ADD15C,0.600000*%
%ADD16C,0.635000*%
%ADD17C,0.508000*%
%ADD18C,1.000000*%
%ADD19C,0.152400*%
%ADD20C,0.650000*%
%ADD21C,0.250000*%
%ADD22C,0.254000*%
%ADD23C,0.203200*%
G04 APERTURE END LIST*
D10*
X130429000Y-78562200D03*
X127889000Y-78562200D03*
X125349000Y-78562200D03*
D11*
X122809000Y-78562200D03*
D12*
X118652800Y-112985200D03*
X136652800Y-112985200D03*
X135652800Y-112985200D03*
X130652800Y-112985200D03*
X127652800Y-112985200D03*
X134652800Y-112985200D03*
X131652800Y-112985200D03*
X119652800Y-112985200D03*
X133652800Y-112985200D03*
X132652800Y-112985200D03*
X126652800Y-112985200D03*
X125652800Y-112985200D03*
X124652800Y-112985200D03*
X123652800Y-112985200D03*
X122652800Y-112985200D03*
X121652800Y-112985200D03*
X120652800Y-112985200D03*
D13*
X131652800Y-110685200D03*
X130652800Y-110685200D03*
X136652800Y-110685200D03*
X135652800Y-110685200D03*
X134652800Y-110685200D03*
X133652800Y-110685200D03*
X132652800Y-110685200D03*
X127652800Y-110685200D03*
X126652800Y-110685200D03*
X125652800Y-110685200D03*
X124652800Y-110685200D03*
X123652800Y-110685200D03*
X122652800Y-110685200D03*
X121652800Y-110685200D03*
X120652800Y-110685200D03*
X119652800Y-110685200D03*
X118652800Y-110685200D03*
D14*
X117652800Y-110185200D03*
D15*
X118668800Y-107137200D03*
X118797749Y-103051621D03*
X117620401Y-103051621D03*
X124683714Y-104305901D03*
X130491077Y-106244063D03*
X127152400Y-105359200D03*
X125653800Y-106599021D03*
X124002800Y-107467400D03*
X116800859Y-103280232D03*
X116257181Y-104750981D03*
X115519200Y-102971600D03*
X127406400Y-98983800D03*
X126483320Y-106943171D03*
X127739754Y-105883012D03*
X112081143Y-102467888D03*
X118059200Y-105283000D03*
X125370726Y-104712328D03*
X131699000Y-104013000D03*
X118603597Y-105833834D03*
X123799600Y-102133400D03*
X127660400Y-107619800D03*
X121541045Y-102258355D03*
X120654006Y-102200674D03*
X122529600Y-102133400D03*
X123113800Y-107645200D03*
X121285000Y-107619800D03*
X115798600Y-100914200D03*
X112496600Y-99009200D03*
X129772955Y-99069053D03*
X125547180Y-98394169D03*
X128198233Y-99052538D03*
X126296740Y-97234793D03*
X126936500Y-98361500D03*
X117475000Y-100012500D03*
D16*
X121996200Y-89458800D03*
X122682000Y-89458800D03*
X123393200Y-88417400D03*
X122707400Y-88417400D03*
X121996200Y-88417400D03*
X130657600Y-89408000D03*
X131343400Y-89433400D03*
X130683000Y-88366600D03*
X129971800Y-88366600D03*
X131368800Y-88366600D03*
D17*
X126238000Y-87503000D03*
X126111000Y-85775800D03*
X124968000Y-81280000D03*
X126060200Y-81280000D03*
X127127000Y-87503000D03*
X127330200Y-81280000D03*
X127254000Y-85775800D03*
X128422400Y-81280000D03*
X126085600Y-92329000D03*
X127355600Y-92329000D03*
X127355600Y-91059000D03*
X126720600Y-90424000D03*
X125450600Y-90424000D03*
X125450600Y-91694000D03*
X126085600Y-91059000D03*
X126720600Y-91694000D03*
X127355600Y-89789000D03*
X127927100Y-90424000D03*
X127927100Y-91694000D03*
X126085600Y-89789000D03*
D15*
X120269000Y-87122000D03*
X133350000Y-87122000D03*
X134493000Y-93599000D03*
X120269000Y-95377000D03*
X118694200Y-90195400D03*
X131851400Y-99187000D03*
X117652800Y-106019600D03*
X134848600Y-91313000D03*
X135794710Y-92989400D03*
D18*
X137414000Y-83058000D03*
X139446000Y-83058000D03*
X141224000Y-83058000D03*
X143002000Y-83058000D03*
X137414000Y-80772000D03*
X139446000Y-80772000D03*
X141224000Y-80772000D03*
X143002000Y-80772000D03*
X113030000Y-83058000D03*
X110998000Y-80772000D03*
X110998000Y-83058000D03*
X114808000Y-83058000D03*
X116586000Y-80772000D03*
X114808000Y-80772000D03*
X116586000Y-83058000D03*
X113030000Y-80772000D03*
D15*
X130886200Y-103708200D03*
X130714328Y-105023072D03*
D19*
X118846556Y-106959444D02*
X118668800Y-107137200D01*
X119235002Y-106959444D02*
X118846556Y-106959444D01*
X122439899Y-104305901D02*
X120331699Y-104305901D01*
X117100858Y-103580231D02*
X119606029Y-103580231D01*
X119606029Y-103580231D02*
X120331699Y-104305901D01*
X126183321Y-107243170D02*
X125520398Y-107243170D01*
X126483320Y-106943171D02*
X126183321Y-107243170D01*
X125520398Y-107243170D02*
X125191017Y-106913789D01*
X123745824Y-106959444D02*
X119235002Y-106959444D01*
X123791479Y-106913789D02*
X123745824Y-106959444D01*
X125191017Y-106913789D02*
X123791479Y-106913789D01*
X125653800Y-106599021D02*
X118232221Y-106599021D01*
X118232221Y-106599021D02*
X118194121Y-106560921D01*
X118194121Y-106560921D02*
X117652800Y-106019600D01*
X127739754Y-105883012D02*
X127315490Y-105883012D01*
X127128091Y-106070411D02*
X119783081Y-106070411D01*
X119027861Y-105833834D02*
X118603597Y-105833834D01*
X127315490Y-105883012D02*
X127128091Y-106070411D01*
X119783081Y-106070411D02*
X119546503Y-105833834D01*
X119546503Y-105833834D02*
X119027861Y-105833834D01*
X127152400Y-105359200D02*
X126852401Y-105659199D01*
X119426736Y-105283000D02*
X118483464Y-105283000D01*
X126852401Y-105659199D02*
X119802935Y-105659199D01*
X118483464Y-105283000D02*
X118059200Y-105283000D01*
X119802935Y-105659199D02*
X119426736Y-105283000D01*
X128814134Y-104529020D02*
X127118980Y-104529020D01*
X127118980Y-104529020D02*
X126314200Y-105333800D01*
X126314200Y-105333800D02*
X119908604Y-105333800D01*
X119908604Y-105333800D02*
X119325784Y-104750981D01*
X119325784Y-104750981D02*
X116257181Y-104750981D01*
X124180609Y-104851191D02*
X125231863Y-104851191D01*
X119631235Y-104625365D02*
X123954783Y-104625365D01*
X119107779Y-104101910D02*
X119631235Y-104625365D01*
X123954783Y-104625365D02*
X124180609Y-104851191D01*
X122439899Y-104305901D02*
X124259450Y-104305901D01*
X121547275Y-104305901D02*
X122439899Y-104305901D01*
X130191078Y-105944064D02*
X130491077Y-106244063D01*
X128814134Y-104529020D02*
X128814134Y-104567120D01*
X128814134Y-104567120D02*
X130191078Y-105944064D01*
X130652800Y-107878600D02*
X130652800Y-108258200D01*
X126296740Y-97234793D02*
X127776971Y-97234793D01*
X129266535Y-103575279D02*
X130981579Y-105290323D01*
X129266535Y-103498681D02*
X129266535Y-103575279D01*
X129157045Y-103389191D02*
X129266535Y-103498681D01*
X129157045Y-98614867D02*
X129157045Y-103389191D01*
X127776971Y-97234793D02*
X129157045Y-98614867D01*
X131019678Y-107511722D02*
X130652800Y-107878600D01*
X130652800Y-108258200D02*
X130652800Y-110685200D01*
X131019678Y-105952234D02*
X131019678Y-107511722D01*
X130981579Y-105914135D02*
X131019678Y-105952234D01*
X130981579Y-105290323D02*
X130981579Y-105914135D01*
X125231863Y-104851191D02*
X125370726Y-104712328D01*
X118859290Y-104101910D02*
X119107779Y-104101910D01*
X119116935Y-104101910D02*
X118859290Y-104101910D01*
X118859290Y-104101910D02*
X116608504Y-104101910D01*
D20*
X124332178Y-107796778D02*
X127059158Y-107796778D01*
X127236136Y-107619800D02*
X127660400Y-107619800D01*
X124002800Y-107467400D02*
X124332178Y-107796778D01*
X127059158Y-107796778D02*
X127236136Y-107619800D01*
D19*
X117100858Y-103580231D02*
X116800859Y-103280232D01*
X115956845Y-103409245D02*
X115519200Y-102971600D01*
X115956845Y-103450251D02*
X115956845Y-103409245D01*
X127046738Y-99343462D02*
X127406400Y-98983800D01*
X127046738Y-99673662D02*
X127046738Y-99343462D01*
X125171200Y-101549200D02*
X122250200Y-101549200D01*
X122250200Y-101549200D02*
X121541045Y-102258355D01*
X127046738Y-99673662D02*
X125171200Y-101549200D01*
X126636501Y-99372699D02*
X124840999Y-101168201D01*
X124840999Y-101168201D02*
X121848867Y-101168203D01*
X120816396Y-102200674D02*
X120654006Y-102200674D01*
X121848867Y-101168203D02*
X120816396Y-102200674D01*
X126936500Y-98361500D02*
X126636501Y-98661499D01*
X126636501Y-98661499D02*
X126636501Y-99372699D01*
D21*
X120787240Y-102067440D02*
X120654006Y-102200674D01*
D19*
X126568264Y-97745599D02*
X126550469Y-97763394D01*
X127792530Y-97745599D02*
X126568264Y-97745599D01*
X126550469Y-97763394D02*
X126177955Y-97763394D01*
X128814134Y-98767203D02*
X127792530Y-97745599D01*
X128814134Y-104529020D02*
X128814134Y-98767203D01*
X126177955Y-97763394D02*
X125547180Y-98394169D01*
X116256844Y-103750250D02*
X115956845Y-103450251D01*
X116608504Y-104101910D02*
X116256844Y-103750250D01*
X124259450Y-104305901D02*
X124683714Y-104305901D01*
D22*
X118694200Y-90195400D02*
X118694200Y-103214089D01*
D19*
X131699000Y-104013000D02*
X132123264Y-104013000D01*
X135178800Y-100957464D02*
X135178800Y-100584000D01*
X135178800Y-92208885D02*
X135178800Y-100584000D01*
X132123264Y-104013000D02*
X135178800Y-100957464D01*
D20*
X126212600Y-102158800D02*
X128198233Y-100173167D01*
X128198233Y-100173167D02*
X128198233Y-99052538D01*
X124390685Y-102158800D02*
X126212600Y-102158800D01*
X123799600Y-102133400D02*
X124365285Y-102133400D01*
X124365285Y-102133400D02*
X124390685Y-102158800D01*
X123095285Y-102133400D02*
X123799600Y-102133400D01*
X122529600Y-102133400D02*
X123095285Y-102133400D01*
D23*
X123113800Y-107645200D02*
X122652800Y-108106200D01*
X122652800Y-108106200D02*
X122652800Y-110685200D01*
X121285000Y-107619800D02*
X121652800Y-107987600D01*
X121652800Y-107987600D02*
X121652800Y-110685200D01*
D20*
X131851400Y-99187000D02*
X129890902Y-99187000D01*
X129890902Y-99187000D02*
X129772955Y-99069053D01*
X136652800Y-110685200D02*
X136652800Y-105741000D01*
X135652800Y-107735200D02*
X135636000Y-107718400D01*
X135652800Y-110685200D02*
X135652800Y-107735200D01*
X135636000Y-107718400D02*
X135636000Y-105206800D01*
X134652800Y-107735200D02*
X134645400Y-107727800D01*
X134652800Y-110685200D02*
X134652800Y-107735200D01*
X134645400Y-107727800D02*
X134645400Y-105333800D01*
X133652800Y-107735200D02*
X133654800Y-107733200D01*
X133652800Y-110685200D02*
X133652800Y-107735200D01*
X133654800Y-107733200D02*
X133654800Y-105765600D01*
X132652800Y-107735200D02*
X132664200Y-107723800D01*
X132652800Y-110685200D02*
X132652800Y-107735200D01*
X132664200Y-107723800D02*
X132664200Y-105841800D01*
D19*
X135686800Y-103479600D02*
X135686800Y-93097310D01*
X134848600Y-91313000D02*
X134848600Y-91878685D01*
D22*
X135686800Y-93097310D02*
X135794710Y-92989400D01*
D19*
X134848600Y-91878685D02*
X135178800Y-92208885D01*
X130886200Y-104132464D02*
X131401736Y-104648000D01*
X130886200Y-103708200D02*
X130886200Y-104132464D01*
X134518400Y-104648000D02*
X135686800Y-103479600D01*
X131401736Y-104648000D02*
X134518400Y-104648000D01*
D22*
G36*
X109280647Y-75645181D02*
G01*
X109299835Y-75456276D01*
X109343034Y-75318426D01*
X109413073Y-75192072D01*
X109507079Y-75082393D01*
X109621233Y-74993847D01*
X109750860Y-74930063D01*
X109894031Y-74892770D01*
X110038312Y-74881667D01*
X110047589Y-74878400D01*
X144648904Y-74878400D01*
X144654819Y-74880647D01*
X144843724Y-74899835D01*
X144981574Y-74943034D01*
X145107928Y-75013073D01*
X145217607Y-75107079D01*
X145306153Y-75221233D01*
X145369937Y-75350860D01*
X145407230Y-75494031D01*
X145418333Y-75638312D01*
X145421601Y-75647592D01*
X145421600Y-106109500D01*
X139609187Y-106109500D01*
X139542793Y-106052593D01*
X139531670Y-106047264D01*
X139522798Y-106038697D01*
X139317010Y-105924626D01*
X139305045Y-105921643D01*
X139294633Y-105915035D01*
X139070109Y-105844674D01*
X139057787Y-105844158D01*
X139046261Y-105839779D01*
X138812174Y-105816001D01*
X138777604Y-105821600D01*
X138325826Y-105821600D01*
X138294767Y-105815788D01*
X138108705Y-105830105D01*
X138100369Y-105833040D01*
X138091533Y-105832979D01*
X137863846Y-105892287D01*
X137853124Y-105898377D01*
X137841021Y-105900774D01*
X137629906Y-106004656D01*
X137620629Y-106012778D01*
X137609262Y-106017556D01*
X137490728Y-106109500D01*
X131374278Y-106109500D01*
X131374278Y-105906628D01*
X131374277Y-105906624D01*
X131374277Y-105857219D01*
X131350114Y-105815368D01*
X131337604Y-105768680D01*
X131336179Y-105767255D01*
X131336179Y-105244717D01*
X131336178Y-105244713D01*
X131336178Y-105195306D01*
X131312013Y-105153453D01*
X131299505Y-105106769D01*
X131290924Y-105098188D01*
X131292194Y-104994213D01*
X131306719Y-105002599D01*
X131356126Y-105002599D01*
X131356130Y-105002600D01*
X134564006Y-105002600D01*
X134564010Y-105002599D01*
X134613415Y-105002599D01*
X134655266Y-104978436D01*
X134701954Y-104965926D01*
X134849357Y-104818523D01*
X134849357Y-104818521D01*
X135995724Y-103672156D01*
X136004726Y-103663155D01*
X136017234Y-103616470D01*
X136041399Y-103574617D01*
X136041399Y-103525210D01*
X136041400Y-103525206D01*
X136041400Y-93512617D01*
X136139733Y-93466030D01*
X136288185Y-93309866D01*
X136370750Y-93110047D01*
X136373525Y-92882863D01*
X136295868Y-92681086D01*
X136151276Y-92521341D01*
X135958869Y-92424360D01*
X135744450Y-92403148D01*
X135536771Y-92460548D01*
X135533400Y-92463047D01*
X135533400Y-92163279D01*
X135533399Y-92163275D01*
X135533399Y-92113868D01*
X135509234Y-92072015D01*
X135496726Y-92025331D01*
X135450819Y-91979425D01*
X135226470Y-91755077D01*
X135342075Y-91633466D01*
X135424640Y-91433647D01*
X135427415Y-91206463D01*
X135349758Y-91004686D01*
X135205166Y-90844941D01*
X135012759Y-90747960D01*
X134798340Y-90726748D01*
X134590661Y-90784148D01*
X134417570Y-90912462D01*
X134302276Y-91094486D01*
X134260241Y-91305811D01*
X134297101Y-91518100D01*
X134407913Y-91702888D01*
X134494001Y-91770027D01*
X134494001Y-91973700D01*
X134518167Y-92015556D01*
X134530675Y-92062239D01*
X134576581Y-92108144D01*
X134824200Y-92355764D01*
X134824201Y-100553905D01*
X134824200Y-100810585D01*
X132071852Y-103562934D01*
X132055566Y-103544941D01*
X131863159Y-103447960D01*
X131648740Y-103426748D01*
X131441061Y-103484148D01*
X131424510Y-103496418D01*
X131387358Y-103399886D01*
X131242766Y-103240141D01*
X131050359Y-103143160D01*
X130835940Y-103121948D01*
X130628261Y-103179348D01*
X130455170Y-103307662D01*
X130339876Y-103489686D01*
X130297841Y-103701011D01*
X130334701Y-103913300D01*
X130445513Y-104098088D01*
X130531601Y-104165227D01*
X130531601Y-104227479D01*
X130555767Y-104269335D01*
X130568275Y-104316018D01*
X130614181Y-104361923D01*
X130691824Y-104439566D01*
X130664068Y-104436820D01*
X130637028Y-104444294D01*
X129621134Y-103428400D01*
X129621134Y-103403665D01*
X129596969Y-103361811D01*
X129584460Y-103315126D01*
X129511645Y-103242312D01*
X129511645Y-99664782D01*
X129566390Y-99696388D01*
X129631960Y-99742301D01*
X129657997Y-99749278D01*
X129681344Y-99762757D01*
X129760176Y-99776657D01*
X129837500Y-99797376D01*
X129917227Y-99790400D01*
X131904187Y-99790400D01*
X132060958Y-99762757D01*
X132245241Y-99656362D01*
X132382021Y-99493354D01*
X132454799Y-99293395D01*
X132454799Y-99080605D01*
X132382021Y-98880646D01*
X132245241Y-98717638D01*
X132060958Y-98611243D01*
X131904187Y-98583600D01*
X130131649Y-98583600D01*
X130031897Y-98513752D01*
X129826356Y-98458677D01*
X129614374Y-98477223D01*
X129511644Y-98525128D01*
X129511644Y-98519850D01*
X129487479Y-98477997D01*
X129474971Y-98431313D01*
X129409984Y-98366327D01*
X128107928Y-97064272D01*
X128107928Y-97064270D01*
X127960525Y-96916867D01*
X127913837Y-96904357D01*
X127871986Y-96880194D01*
X127822581Y-96880194D01*
X127822577Y-96880193D01*
X126756003Y-96880193D01*
X126653306Y-96766734D01*
X126460899Y-96669753D01*
X126246480Y-96648541D01*
X126038801Y-96705941D01*
X125865710Y-96834255D01*
X125750416Y-97016279D01*
X125708381Y-97227604D01*
X125745241Y-97439893D01*
X125840734Y-97599136D01*
X125619797Y-97820073D01*
X125496920Y-97807917D01*
X125289241Y-97865317D01*
X125116150Y-97993631D01*
X125000856Y-98175655D01*
X124958821Y-98386980D01*
X124995681Y-98599269D01*
X125106493Y-98784057D01*
X125276397Y-98916562D01*
X125482612Y-98979019D01*
X125697485Y-98963050D01*
X125892204Y-98870799D01*
X126040655Y-98714635D01*
X126123220Y-98514816D01*
X126125634Y-98317194D01*
X126324835Y-98117994D01*
X126406006Y-98117994D01*
X126390176Y-98142986D01*
X126348141Y-98354311D01*
X126362058Y-98434464D01*
X126318575Y-98477947D01*
X126306067Y-98524630D01*
X126281902Y-98566483D01*
X126281902Y-98615890D01*
X126281901Y-98615894D01*
X126281902Y-99225819D01*
X124694121Y-100813601D01*
X121818772Y-100813604D01*
X121753852Y-100813604D01*
X121711993Y-100837771D01*
X121665312Y-100850279D01*
X121633868Y-100881723D01*
X121633865Y-100881725D01*
X120859249Y-101656342D01*
X120818165Y-101635634D01*
X120603746Y-101614422D01*
X120396067Y-101671822D01*
X120222976Y-101800136D01*
X120107682Y-101982160D01*
X120065647Y-102193485D01*
X120102507Y-102405774D01*
X120213319Y-102590562D01*
X120383223Y-102723067D01*
X120589438Y-102785524D01*
X120804311Y-102769555D01*
X120999030Y-102677304D01*
X121071849Y-102600702D01*
X121100358Y-102648243D01*
X121270262Y-102780748D01*
X121476477Y-102843205D01*
X121691350Y-102827236D01*
X121886069Y-102734985D01*
X122034520Y-102578821D01*
X122061296Y-102514020D01*
X122135759Y-102602762D01*
X122320042Y-102709157D01*
X122476813Y-102736800D01*
X124193846Y-102736800D01*
X124259969Y-102748459D01*
X124337283Y-102769176D01*
X124417025Y-102762200D01*
X126186260Y-102762200D01*
X126266002Y-102769176D01*
X126343316Y-102748459D01*
X126422157Y-102734557D01*
X126445505Y-102721078D01*
X126471542Y-102714101D01*
X126537110Y-102668189D01*
X126606441Y-102628162D01*
X126657906Y-102566828D01*
X128459535Y-100765200D01*
X128459534Y-104174420D01*
X127073374Y-104174420D01*
X127073370Y-104174421D01*
X127023967Y-104174421D01*
X126982111Y-104198585D01*
X126935425Y-104211095D01*
X126903981Y-104242539D01*
X126903978Y-104242541D01*
X126167321Y-104979200D01*
X125886346Y-104979200D01*
X125946766Y-104832975D01*
X125949541Y-104605791D01*
X125871884Y-104404014D01*
X125727292Y-104244269D01*
X125534885Y-104147288D01*
X125320466Y-104126076D01*
X125242605Y-104147596D01*
X125184872Y-103997587D01*
X125040280Y-103837842D01*
X124847873Y-103740861D01*
X124633454Y-103719649D01*
X124425775Y-103777049D01*
X124252684Y-103905363D01*
X124223587Y-103951301D01*
X120478579Y-103951301D01*
X119936986Y-103409709D01*
X119936986Y-103409708D01*
X119789583Y-103262305D01*
X119742895Y-103249795D01*
X119701044Y-103225632D01*
X119651639Y-103225632D01*
X119651635Y-103225631D01*
X119351739Y-103225631D01*
X119373789Y-103172268D01*
X119376564Y-102945084D01*
X119298907Y-102743307D01*
X119154315Y-102583562D01*
X119099600Y-102555984D01*
X119099600Y-90608517D01*
X119187675Y-90515866D01*
X119270240Y-90316047D01*
X119273015Y-90088863D01*
X119195358Y-89887086D01*
X119050766Y-89727341D01*
X118858359Y-89630360D01*
X118643940Y-89609148D01*
X118436261Y-89666548D01*
X118263170Y-89794862D01*
X118147876Y-89976886D01*
X118105841Y-90188211D01*
X118142701Y-90400500D01*
X118253513Y-90585288D01*
X118288800Y-90612808D01*
X118288801Y-102774099D01*
X118251425Y-102833107D01*
X118209390Y-103044432D01*
X118240852Y-103225631D01*
X117379040Y-103225631D01*
X117379674Y-103173695D01*
X117302017Y-102971918D01*
X117157425Y-102812173D01*
X116965018Y-102715192D01*
X116750599Y-102693980D01*
X116542920Y-102751380D01*
X116369829Y-102879694D01*
X116254535Y-103061718D01*
X116230688Y-103181608D01*
X116095796Y-103046717D01*
X116098015Y-102865063D01*
X116020358Y-102663286D01*
X115875766Y-102503541D01*
X115683359Y-102406560D01*
X115468940Y-102385348D01*
X115261261Y-102442748D01*
X115088170Y-102571062D01*
X114972876Y-102753086D01*
X114930841Y-102964411D01*
X114967701Y-103176700D01*
X115078513Y-103361488D01*
X115248417Y-103493993D01*
X115454632Y-103556450D01*
X115592337Y-103546216D01*
X115617080Y-103570959D01*
X115626411Y-103587120D01*
X115638919Y-103633803D01*
X115786322Y-103781208D01*
X115786323Y-103781208D01*
X116041843Y-104036729D01*
X116041845Y-104036730D01*
X116177872Y-104172758D01*
X115999242Y-104222129D01*
X115826151Y-104350443D01*
X115710857Y-104532467D01*
X115668822Y-104743792D01*
X115705682Y-104956081D01*
X115816494Y-105140869D01*
X115986398Y-105273374D01*
X116192613Y-105335831D01*
X116407486Y-105319862D01*
X116602205Y-105227611D01*
X116718209Y-105105581D01*
X117504702Y-105105581D01*
X117470841Y-105275811D01*
X117502973Y-105460867D01*
X117394861Y-105490748D01*
X117221770Y-105619062D01*
X117106476Y-105801086D01*
X117064441Y-106012411D01*
X117081299Y-106109500D01*
X116809187Y-106109500D01*
X116742793Y-106052593D01*
X116731670Y-106047264D01*
X116722798Y-106038697D01*
X116517010Y-105924626D01*
X116505045Y-105921643D01*
X116494633Y-105915035D01*
X116270109Y-105844674D01*
X116257787Y-105844158D01*
X116246261Y-105839779D01*
X116012174Y-105816001D01*
X115977604Y-105821600D01*
X115225826Y-105821600D01*
X115194767Y-105815788D01*
X115008705Y-105830105D01*
X115000369Y-105833040D01*
X114991533Y-105832979D01*
X114763846Y-105892287D01*
X114753124Y-105898377D01*
X114741021Y-105900774D01*
X114529906Y-106004656D01*
X114520629Y-106012778D01*
X114509262Y-106017556D01*
X114390728Y-106109500D01*
X109278400Y-106109500D01*
X109278400Y-77428012D01*
X120574800Y-77428012D01*
X120574800Y-89856388D01*
X120608250Y-89981223D01*
X120711777Y-90084750D01*
X120836612Y-90118200D01*
X124146388Y-90118200D01*
X124271223Y-90084750D01*
X124374750Y-89981223D01*
X124408200Y-89856388D01*
X124408200Y-87735161D01*
X125920401Y-88567385D01*
X126024741Y-88594200D01*
X126655173Y-88594200D01*
X126714719Y-88578187D01*
X126774478Y-88594200D01*
X127427761Y-88594200D01*
X127530272Y-88568375D01*
X129083800Y-87732589D01*
X129083800Y-89856388D01*
X129117250Y-89981223D01*
X129220777Y-90084750D01*
X129345612Y-90118200D01*
X132807788Y-90118200D01*
X132932623Y-90084750D01*
X133036150Y-89981223D01*
X133069600Y-89856388D01*
X133069600Y-77428012D01*
X133036150Y-77303177D01*
X132932623Y-77199650D01*
X132807788Y-77166200D01*
X129345612Y-77166200D01*
X129333672Y-77169399D01*
X129313123Y-77148850D01*
X129188288Y-77115400D01*
X126754754Y-77115400D01*
X126647966Y-77144117D01*
X126635588Y-77140800D01*
X124202112Y-77140800D01*
X124107320Y-77166200D01*
X120836612Y-77166200D01*
X120711777Y-77199650D01*
X120608250Y-77303177D01*
X120574800Y-77428012D01*
X109278400Y-77428012D01*
X109278400Y-75651096D01*
X109280647Y-75645181D01*
X109280647Y-75645181D01*
G37*
X109280647Y-75645181D02*
X109299835Y-75456276D01*
X109343034Y-75318426D01*
X109413073Y-75192072D01*
X109507079Y-75082393D01*
X109621233Y-74993847D01*
X109750860Y-74930063D01*
X109894031Y-74892770D01*
X110038312Y-74881667D01*
X110047589Y-74878400D01*
X144648904Y-74878400D01*
X144654819Y-74880647D01*
X144843724Y-74899835D01*
X144981574Y-74943034D01*
X145107928Y-75013073D01*
X145217607Y-75107079D01*
X145306153Y-75221233D01*
X145369937Y-75350860D01*
X145407230Y-75494031D01*
X145418333Y-75638312D01*
X145421601Y-75647592D01*
X145421600Y-106109500D01*
X139609187Y-106109500D01*
X139542793Y-106052593D01*
X139531670Y-106047264D01*
X139522798Y-106038697D01*
X139317010Y-105924626D01*
X139305045Y-105921643D01*
X139294633Y-105915035D01*
X139070109Y-105844674D01*
X139057787Y-105844158D01*
X139046261Y-105839779D01*
X138812174Y-105816001D01*
X138777604Y-105821600D01*
X138325826Y-105821600D01*
X138294767Y-105815788D01*
X138108705Y-105830105D01*
X138100369Y-105833040D01*
X138091533Y-105832979D01*
X137863846Y-105892287D01*
X137853124Y-105898377D01*
X137841021Y-105900774D01*
X137629906Y-106004656D01*
X137620629Y-106012778D01*
X137609262Y-106017556D01*
X137490728Y-106109500D01*
X131374278Y-106109500D01*
X131374278Y-105906628D01*
X131374277Y-105906624D01*
X131374277Y-105857219D01*
X131350114Y-105815368D01*
X131337604Y-105768680D01*
X131336179Y-105767255D01*
X131336179Y-105244717D01*
X131336178Y-105244713D01*
X131336178Y-105195306D01*
X131312013Y-105153453D01*
X131299505Y-105106769D01*
X131290924Y-105098188D01*
X131292194Y-104994213D01*
X131306719Y-105002599D01*
X131356126Y-105002599D01*
X131356130Y-105002600D01*
X134564006Y-105002600D01*
X134564010Y-105002599D01*
X134613415Y-105002599D01*
X134655266Y-104978436D01*
X134701954Y-104965926D01*
X134849357Y-104818523D01*
X134849357Y-104818521D01*
X135995724Y-103672156D01*
X136004726Y-103663155D01*
X136017234Y-103616470D01*
X136041399Y-103574617D01*
X136041399Y-103525210D01*
X136041400Y-103525206D01*
X136041400Y-93512617D01*
X136139733Y-93466030D01*
X136288185Y-93309866D01*
X136370750Y-93110047D01*
X136373525Y-92882863D01*
X136295868Y-92681086D01*
X136151276Y-92521341D01*
X135958869Y-92424360D01*
X135744450Y-92403148D01*
X135536771Y-92460548D01*
X135533400Y-92463047D01*
X135533400Y-92163279D01*
X135533399Y-92163275D01*
X135533399Y-92113868D01*
X135509234Y-92072015D01*
X135496726Y-92025331D01*
X135450819Y-91979425D01*
X135226470Y-91755077D01*
X135342075Y-91633466D01*
X135424640Y-91433647D01*
X135427415Y-91206463D01*
X135349758Y-91004686D01*
X135205166Y-90844941D01*
X135012759Y-90747960D01*
X134798340Y-90726748D01*
X134590661Y-90784148D01*
X134417570Y-90912462D01*
X134302276Y-91094486D01*
X134260241Y-91305811D01*
X134297101Y-91518100D01*
X134407913Y-91702888D01*
X134494001Y-91770027D01*
X134494001Y-91973700D01*
X134518167Y-92015556D01*
X134530675Y-92062239D01*
X134576581Y-92108144D01*
X134824200Y-92355764D01*
X134824201Y-100553905D01*
X134824200Y-100810585D01*
X132071852Y-103562934D01*
X132055566Y-103544941D01*
X131863159Y-103447960D01*
X131648740Y-103426748D01*
X131441061Y-103484148D01*
X131424510Y-103496418D01*
X131387358Y-103399886D01*
X131242766Y-103240141D01*
X131050359Y-103143160D01*
X130835940Y-103121948D01*
X130628261Y-103179348D01*
X130455170Y-103307662D01*
X130339876Y-103489686D01*
X130297841Y-103701011D01*
X130334701Y-103913300D01*
X130445513Y-104098088D01*
X130531601Y-104165227D01*
X130531601Y-104227479D01*
X130555767Y-104269335D01*
X130568275Y-104316018D01*
X130614181Y-104361923D01*
X130691824Y-104439566D01*
X130664068Y-104436820D01*
X130637028Y-104444294D01*
X129621134Y-103428400D01*
X129621134Y-103403665D01*
X129596969Y-103361811D01*
X129584460Y-103315126D01*
X129511645Y-103242312D01*
X129511645Y-99664782D01*
X129566390Y-99696388D01*
X129631960Y-99742301D01*
X129657997Y-99749278D01*
X129681344Y-99762757D01*
X129760176Y-99776657D01*
X129837500Y-99797376D01*
X129917227Y-99790400D01*
X131904187Y-99790400D01*
X132060958Y-99762757D01*
X132245241Y-99656362D01*
X132382021Y-99493354D01*
X132454799Y-99293395D01*
X132454799Y-99080605D01*
X132382021Y-98880646D01*
X132245241Y-98717638D01*
X132060958Y-98611243D01*
X131904187Y-98583600D01*
X130131649Y-98583600D01*
X130031897Y-98513752D01*
X129826356Y-98458677D01*
X129614374Y-98477223D01*
X129511644Y-98525128D01*
X129511644Y-98519850D01*
X129487479Y-98477997D01*
X129474971Y-98431313D01*
X129409984Y-98366327D01*
X128107928Y-97064272D01*
X128107928Y-97064270D01*
X127960525Y-96916867D01*
X127913837Y-96904357D01*
X127871986Y-96880194D01*
X127822581Y-96880194D01*
X127822577Y-96880193D01*
X126756003Y-96880193D01*
X126653306Y-96766734D01*
X126460899Y-96669753D01*
X126246480Y-96648541D01*
X126038801Y-96705941D01*
X125865710Y-96834255D01*
X125750416Y-97016279D01*
X125708381Y-97227604D01*
X125745241Y-97439893D01*
X125840734Y-97599136D01*
X125619797Y-97820073D01*
X125496920Y-97807917D01*
X125289241Y-97865317D01*
X125116150Y-97993631D01*
X125000856Y-98175655D01*
X124958821Y-98386980D01*
X124995681Y-98599269D01*
X125106493Y-98784057D01*
X125276397Y-98916562D01*
X125482612Y-98979019D01*
X125697485Y-98963050D01*
X125892204Y-98870799D01*
X126040655Y-98714635D01*
X126123220Y-98514816D01*
X126125634Y-98317194D01*
X126324835Y-98117994D01*
X126406006Y-98117994D01*
X126390176Y-98142986D01*
X126348141Y-98354311D01*
X126362058Y-98434464D01*
X126318575Y-98477947D01*
X126306067Y-98524630D01*
X126281902Y-98566483D01*
X126281902Y-98615890D01*
X126281901Y-98615894D01*
X126281902Y-99225819D01*
X124694121Y-100813601D01*
X121818772Y-100813604D01*
X121753852Y-100813604D01*
X121711993Y-100837771D01*
X121665312Y-100850279D01*
X121633868Y-100881723D01*
X121633865Y-100881725D01*
X120859249Y-101656342D01*
X120818165Y-101635634D01*
X120603746Y-101614422D01*
X120396067Y-101671822D01*
X120222976Y-101800136D01*
X120107682Y-101982160D01*
X120065647Y-102193485D01*
X120102507Y-102405774D01*
X120213319Y-102590562D01*
X120383223Y-102723067D01*
X120589438Y-102785524D01*
X120804311Y-102769555D01*
X120999030Y-102677304D01*
X121071849Y-102600702D01*
X121100358Y-102648243D01*
X121270262Y-102780748D01*
X121476477Y-102843205D01*
X121691350Y-102827236D01*
X121886069Y-102734985D01*
X122034520Y-102578821D01*
X122061296Y-102514020D01*
X122135759Y-102602762D01*
X122320042Y-102709157D01*
X122476813Y-102736800D01*
X124193846Y-102736800D01*
X124259969Y-102748459D01*
X124337283Y-102769176D01*
X124417025Y-102762200D01*
X126186260Y-102762200D01*
X126266002Y-102769176D01*
X126343316Y-102748459D01*
X126422157Y-102734557D01*
X126445505Y-102721078D01*
X126471542Y-102714101D01*
X126537110Y-102668189D01*
X126606441Y-102628162D01*
X126657906Y-102566828D01*
X128459535Y-100765200D01*
X128459534Y-104174420D01*
X127073374Y-104174420D01*
X127073370Y-104174421D01*
X127023967Y-104174421D01*
X126982111Y-104198585D01*
X126935425Y-104211095D01*
X126903981Y-104242539D01*
X126903978Y-104242541D01*
X126167321Y-104979200D01*
X125886346Y-104979200D01*
X125946766Y-104832975D01*
X125949541Y-104605791D01*
X125871884Y-104404014D01*
X125727292Y-104244269D01*
X125534885Y-104147288D01*
X125320466Y-104126076D01*
X125242605Y-104147596D01*
X125184872Y-103997587D01*
X125040280Y-103837842D01*
X124847873Y-103740861D01*
X124633454Y-103719649D01*
X124425775Y-103777049D01*
X124252684Y-103905363D01*
X124223587Y-103951301D01*
X120478579Y-103951301D01*
X119936986Y-103409709D01*
X119936986Y-103409708D01*
X119789583Y-103262305D01*
X119742895Y-103249795D01*
X119701044Y-103225632D01*
X119651639Y-103225632D01*
X119651635Y-103225631D01*
X119351739Y-103225631D01*
X119373789Y-103172268D01*
X119376564Y-102945084D01*
X119298907Y-102743307D01*
X119154315Y-102583562D01*
X119099600Y-102555984D01*
X119099600Y-90608517D01*
X119187675Y-90515866D01*
X119270240Y-90316047D01*
X119273015Y-90088863D01*
X119195358Y-89887086D01*
X119050766Y-89727341D01*
X118858359Y-89630360D01*
X118643940Y-89609148D01*
X118436261Y-89666548D01*
X118263170Y-89794862D01*
X118147876Y-89976886D01*
X118105841Y-90188211D01*
X118142701Y-90400500D01*
X118253513Y-90585288D01*
X118288800Y-90612808D01*
X118288801Y-102774099D01*
X118251425Y-102833107D01*
X118209390Y-103044432D01*
X118240852Y-103225631D01*
X117379040Y-103225631D01*
X117379674Y-103173695D01*
X117302017Y-102971918D01*
X117157425Y-102812173D01*
X116965018Y-102715192D01*
X116750599Y-102693980D01*
X116542920Y-102751380D01*
X116369829Y-102879694D01*
X116254535Y-103061718D01*
X116230688Y-103181608D01*
X116095796Y-103046717D01*
X116098015Y-102865063D01*
X116020358Y-102663286D01*
X115875766Y-102503541D01*
X115683359Y-102406560D01*
X115468940Y-102385348D01*
X115261261Y-102442748D01*
X115088170Y-102571062D01*
X114972876Y-102753086D01*
X114930841Y-102964411D01*
X114967701Y-103176700D01*
X115078513Y-103361488D01*
X115248417Y-103493993D01*
X115454632Y-103556450D01*
X115592337Y-103546216D01*
X115617080Y-103570959D01*
X115626411Y-103587120D01*
X115638919Y-103633803D01*
X115786322Y-103781208D01*
X115786323Y-103781208D01*
X116041843Y-104036729D01*
X116041845Y-104036730D01*
X116177872Y-104172758D01*
X115999242Y-104222129D01*
X115826151Y-104350443D01*
X115710857Y-104532467D01*
X115668822Y-104743792D01*
X115705682Y-104956081D01*
X115816494Y-105140869D01*
X115986398Y-105273374D01*
X116192613Y-105335831D01*
X116407486Y-105319862D01*
X116602205Y-105227611D01*
X116718209Y-105105581D01*
X117504702Y-105105581D01*
X117470841Y-105275811D01*
X117502973Y-105460867D01*
X117394861Y-105490748D01*
X117221770Y-105619062D01*
X117106476Y-105801086D01*
X117064441Y-106012411D01*
X117081299Y-106109500D01*
X116809187Y-106109500D01*
X116742793Y-106052593D01*
X116731670Y-106047264D01*
X116722798Y-106038697D01*
X116517010Y-105924626D01*
X116505045Y-105921643D01*
X116494633Y-105915035D01*
X116270109Y-105844674D01*
X116257787Y-105844158D01*
X116246261Y-105839779D01*
X116012174Y-105816001D01*
X115977604Y-105821600D01*
X115225826Y-105821600D01*
X115194767Y-105815788D01*
X115008705Y-105830105D01*
X115000369Y-105833040D01*
X114991533Y-105832979D01*
X114763846Y-105892287D01*
X114753124Y-105898377D01*
X114741021Y-105900774D01*
X114529906Y-106004656D01*
X114520629Y-106012778D01*
X114509262Y-106017556D01*
X114390728Y-106109500D01*
X109278400Y-106109500D01*
X109278400Y-77428012D01*
X120574800Y-77428012D01*
X120574800Y-89856388D01*
X120608250Y-89981223D01*
X120711777Y-90084750D01*
X120836612Y-90118200D01*
X124146388Y-90118200D01*
X124271223Y-90084750D01*
X124374750Y-89981223D01*
X124408200Y-89856388D01*
X124408200Y-87735161D01*
X125920401Y-88567385D01*
X126024741Y-88594200D01*
X126655173Y-88594200D01*
X126714719Y-88578187D01*
X126774478Y-88594200D01*
X127427761Y-88594200D01*
X127530272Y-88568375D01*
X129083800Y-87732589D01*
X129083800Y-89856388D01*
X129117250Y-89981223D01*
X129220777Y-90084750D01*
X129345612Y-90118200D01*
X132807788Y-90118200D01*
X132932623Y-90084750D01*
X133036150Y-89981223D01*
X133069600Y-89856388D01*
X133069600Y-77428012D01*
X133036150Y-77303177D01*
X132932623Y-77199650D01*
X132807788Y-77166200D01*
X129345612Y-77166200D01*
X129333672Y-77169399D01*
X129313123Y-77148850D01*
X129188288Y-77115400D01*
X126754754Y-77115400D01*
X126647966Y-77144117D01*
X126635588Y-77140800D01*
X124202112Y-77140800D01*
X124107320Y-77166200D01*
X120836612Y-77166200D01*
X120711777Y-77199650D01*
X120608250Y-77303177D01*
X120574800Y-77428012D01*
X109278400Y-77428012D01*
X109278400Y-75651096D01*
X109280647Y-75645181D01*
G36*
X129045700Y-81203541D02*
G01*
X129033155Y-87300627D01*
X127380392Y-88189800D01*
X126916840Y-88189800D01*
X126897627Y-77519800D01*
X129045700Y-77519800D01*
X129045700Y-81203541D01*
X129045700Y-81203541D01*
G37*
X129045700Y-81203541D02*
X129033155Y-87300627D01*
X127380392Y-88189800D01*
X126916840Y-88189800D01*
X126897627Y-77519800D01*
X129045700Y-77519800D01*
X129045700Y-81203541D01*
G36*
X126512301Y-88189800D02*
G01*
X126073054Y-88189800D01*
X124457623Y-87300764D01*
X124344700Y-81228040D01*
X124344700Y-77545200D01*
X126493225Y-77545200D01*
X126512301Y-88189800D01*
X126512301Y-88189800D01*
G37*
X126512301Y-88189800D02*
X126073054Y-88189800D01*
X124457623Y-87300764D01*
X124344700Y-81228040D01*
X124344700Y-77545200D01*
X126493225Y-77545200D01*
X126512301Y-88189800D01*
G36*
X132665200Y-89713800D02*
G01*
X129488200Y-89713800D01*
X129488200Y-77570600D01*
X132665200Y-77570600D01*
X132665200Y-89713800D01*
X132665200Y-89713800D01*
G37*
X132665200Y-89713800D02*
X129488200Y-89713800D01*
X129488200Y-77570600D01*
X132665200Y-77570600D01*
X132665200Y-89713800D01*
G36*
X123940300Y-81229778D02*
G01*
X123940337Y-81233782D01*
X124003800Y-84646684D01*
X124003800Y-89713800D01*
X120979200Y-89713800D01*
X120979200Y-77570600D01*
X123940300Y-77570600D01*
X123940300Y-81229778D01*
X123940300Y-81229778D01*
G37*
X123940300Y-81229778D02*
X123940337Y-81233782D01*
X124003800Y-84646684D01*
X124003800Y-89713800D01*
X120979200Y-89713800D01*
X120979200Y-77570600D01*
X123940300Y-77570600D01*
X123940300Y-81229778D01*
M02*
