G04 #@! TF.GenerationSoftware,KiCad,Pcbnew,(5.1.0-1558-g0ba0c1724)*
G04 #@! TF.CreationDate,2019-10-02T21:32:34-07:00*
G04 #@! TF.ProjectId,TMC2660_Driver,544d4332-3636-4305-9f44-72697665722e,rev?*
G04 #@! TF.SameCoordinates,Original*
G04 #@! TF.FileFunction,Legend,Top*
G04 #@! TF.FilePolarity,Positive*
%FSLAX46Y46*%
G04 Gerber Fmt 4.6, Leading zero omitted, Abs format (unit mm)*
G04 Created by KiCad (PCBNEW (5.1.0-1558-g0ba0c1724)) date 2019-10-02 21:32:34*
%MOMM*%
%LPD*%
G04 APERTURE LIST*
%ADD10C,0.150000*%
%ADD11C,0.100000*%
%ADD12C,0.300000*%
%ADD13C,0.120000*%
%ADD14C,0.152400*%
G04 APERTURE END LIST*
D10*
X132080000Y-94956380D02*
X132080000Y-95194476D01*
X131841904Y-95099238D02*
X132080000Y-95194476D01*
X132318095Y-95099238D01*
X131937142Y-95384952D02*
X132080000Y-95194476D01*
X132222857Y-95384952D01*
X123301619Y-102136333D02*
X123254000Y-102088714D01*
X123158761Y-101945857D01*
X123111142Y-101850619D01*
X123063523Y-101707761D01*
X123015904Y-101469666D01*
X123015904Y-101279190D01*
X123063523Y-101041095D01*
X123111142Y-100898238D01*
X123158761Y-100803000D01*
X123254000Y-100660142D01*
X123301619Y-100612523D01*
X124111142Y-101707761D02*
X124015904Y-101755380D01*
X123825428Y-101755380D01*
X123730190Y-101707761D01*
X123682571Y-101660142D01*
X123634952Y-101564904D01*
X123634952Y-101279190D01*
X123682571Y-101183952D01*
X123730190Y-101136333D01*
X123825428Y-101088714D01*
X124015904Y-101088714D01*
X124111142Y-101136333D01*
X124444476Y-102136333D02*
X124492095Y-102088714D01*
X124587333Y-101945857D01*
X124634952Y-101850619D01*
X124682571Y-101707761D01*
X124730190Y-101469666D01*
X124730190Y-101279190D01*
X124682571Y-101041095D01*
X124634952Y-100898238D01*
X124587333Y-100803000D01*
X124492095Y-100660142D01*
X124444476Y-100612523D01*
X125968285Y-101755380D02*
X125968285Y-101088714D01*
X125968285Y-100755380D02*
X125920666Y-100803000D01*
X125968285Y-100850619D01*
X126015904Y-100803000D01*
X125968285Y-100755380D01*
X125968285Y-100850619D01*
X127111142Y-101850619D02*
X127015904Y-101803000D01*
X126920666Y-101707761D01*
X126777809Y-101564904D01*
X126682571Y-101517285D01*
X126587333Y-101517285D01*
X126634952Y-101755380D02*
X126539714Y-101707761D01*
X126444476Y-101612523D01*
X126396857Y-101422047D01*
X126396857Y-101088714D01*
X126444476Y-100898238D01*
X126539714Y-100803000D01*
X126634952Y-100755380D01*
X126825428Y-100755380D01*
X126920666Y-100803000D01*
X127015904Y-100898238D01*
X127063523Y-101088714D01*
X127063523Y-101422047D01*
X127015904Y-101612523D01*
X126920666Y-101707761D01*
X126825428Y-101755380D01*
X126634952Y-101755380D01*
X127920666Y-101088714D02*
X127920666Y-101755380D01*
X127492095Y-101088714D02*
X127492095Y-101612523D01*
X127539714Y-101707761D01*
X127634952Y-101755380D01*
X127777809Y-101755380D01*
X127873047Y-101707761D01*
X127920666Y-101660142D01*
X128396857Y-101755380D02*
X128396857Y-101088714D01*
X128396857Y-101279190D02*
X128444476Y-101183952D01*
X128492095Y-101136333D01*
X128587333Y-101088714D01*
X128682571Y-101088714D01*
X128920666Y-101088714D02*
X129158761Y-101755380D01*
X129396857Y-101088714D02*
X129158761Y-101755380D01*
X129063523Y-101993476D01*
X129015904Y-102041095D01*
X128920666Y-102088714D01*
X129777809Y-101660142D02*
X129825428Y-101707761D01*
X129777809Y-101755380D01*
X129730190Y-101707761D01*
X129777809Y-101660142D01*
X129777809Y-101755380D01*
X130682571Y-101088714D02*
X130682571Y-101755380D01*
X130254000Y-101088714D02*
X130254000Y-101612523D01*
X130301619Y-101707761D01*
X130396857Y-101755380D01*
X130539714Y-101755380D01*
X130634952Y-101707761D01*
X130682571Y-101660142D01*
X131111142Y-101707761D02*
X131206380Y-101755380D01*
X131396857Y-101755380D01*
X131492095Y-101707761D01*
X131539714Y-101612523D01*
X131539714Y-101564904D01*
X131492095Y-101469666D01*
X131396857Y-101422047D01*
X131254000Y-101422047D01*
X131158761Y-101374428D01*
X131111142Y-101279190D01*
X131111142Y-101231571D01*
X131158761Y-101136333D01*
X131254000Y-101088714D01*
X131396857Y-101088714D01*
X131492095Y-101136333D01*
X124158761Y-102365380D02*
X124349238Y-102365380D01*
X124444476Y-102413000D01*
X124539714Y-102508238D01*
X124587333Y-102698714D01*
X124587333Y-103032047D01*
X124539714Y-103222523D01*
X124444476Y-103317761D01*
X124349238Y-103365380D01*
X124158761Y-103365380D01*
X124063523Y-103317761D01*
X123968285Y-103222523D01*
X123920666Y-103032047D01*
X123920666Y-102698714D01*
X123968285Y-102508238D01*
X124063523Y-102413000D01*
X124158761Y-102365380D01*
X125444476Y-103317761D02*
X125349238Y-103365380D01*
X125158761Y-103365380D01*
X125063523Y-103317761D01*
X125015904Y-103270142D01*
X124968285Y-103174904D01*
X124968285Y-102889190D01*
X125015904Y-102793952D01*
X125063523Y-102746333D01*
X125158761Y-102698714D01*
X125349238Y-102698714D01*
X125444476Y-102746333D01*
X125730190Y-102698714D02*
X126111142Y-102698714D01*
X125873047Y-102365380D02*
X125873047Y-103222523D01*
X125920666Y-103317761D01*
X126015904Y-103365380D01*
X126111142Y-103365380D01*
X127158761Y-102460619D02*
X127206380Y-102413000D01*
X127301619Y-102365380D01*
X127539714Y-102365380D01*
X127634952Y-102413000D01*
X127682571Y-102460619D01*
X127730190Y-102555857D01*
X127730190Y-102651095D01*
X127682571Y-102793952D01*
X127111142Y-103365380D01*
X127730190Y-103365380D01*
X128349238Y-102365380D02*
X128444476Y-102365380D01*
X128539714Y-102413000D01*
X128587333Y-102460619D01*
X128634952Y-102555857D01*
X128682571Y-102746333D01*
X128682571Y-102984428D01*
X128634952Y-103174904D01*
X128587333Y-103270142D01*
X128539714Y-103317761D01*
X128444476Y-103365380D01*
X128349238Y-103365380D01*
X128254000Y-103317761D01*
X128206380Y-103270142D01*
X128158761Y-103174904D01*
X128111142Y-102984428D01*
X128111142Y-102746333D01*
X128158761Y-102555857D01*
X128206380Y-102460619D01*
X128254000Y-102413000D01*
X128349238Y-102365380D01*
X129634952Y-103365380D02*
X129063523Y-103365380D01*
X129349238Y-103365380D02*
X129349238Y-102365380D01*
X129254000Y-102508238D01*
X129158761Y-102603476D01*
X129063523Y-102651095D01*
X130111142Y-103365380D02*
X130301619Y-103365380D01*
X130396857Y-103317761D01*
X130444476Y-103270142D01*
X130539714Y-103127285D01*
X130587333Y-102936809D01*
X130587333Y-102555857D01*
X130539714Y-102460619D01*
X130492095Y-102413000D01*
X130396857Y-102365380D01*
X130206380Y-102365380D01*
X130111142Y-102413000D01*
X130063523Y-102460619D01*
X130015904Y-102555857D01*
X130015904Y-102793952D01*
X130063523Y-102889190D01*
X130111142Y-102936809D01*
X130206380Y-102984428D01*
X130396857Y-102984428D01*
X130492095Y-102936809D01*
X130539714Y-102889190D01*
X130587333Y-102793952D01*
D11*
X144357285Y-85631571D02*
X143857285Y-85631571D01*
X144000142Y-85631571D02*
X143928714Y-85595857D01*
X143893000Y-85560142D01*
X143857285Y-85488714D01*
X143857285Y-85417285D01*
X144321571Y-84881571D02*
X144357285Y-84953000D01*
X144357285Y-85095857D01*
X144321571Y-85167285D01*
X144250142Y-85203000D01*
X143964428Y-85203000D01*
X143893000Y-85167285D01*
X143857285Y-85095857D01*
X143857285Y-84953000D01*
X143893000Y-84881571D01*
X143964428Y-84845857D01*
X144035857Y-84845857D01*
X144107285Y-85203000D01*
X143857285Y-84595857D02*
X144357285Y-84417285D01*
X143857285Y-84238714D01*
X143678714Y-83417285D02*
X143643000Y-83381571D01*
X143607285Y-83310142D01*
X143607285Y-83131571D01*
X143643000Y-83060142D01*
X143678714Y-83024428D01*
X143750142Y-82988714D01*
X143821571Y-82988714D01*
X143928714Y-83024428D01*
X144357285Y-83453000D01*
X144357285Y-82988714D01*
D12*
X144442571Y-100551428D02*
X142942571Y-100551428D01*
X142942571Y-100194285D01*
X143014000Y-99980000D01*
X143156857Y-99837142D01*
X143299714Y-99765714D01*
X143585428Y-99694285D01*
X143799714Y-99694285D01*
X144085428Y-99765714D01*
X144228285Y-99837142D01*
X144371142Y-99980000D01*
X144442571Y-100194285D01*
X144442571Y-100551428D01*
X144442571Y-98194285D02*
X143728285Y-98694285D01*
X144442571Y-99051428D02*
X142942571Y-99051428D01*
X142942571Y-98480000D01*
X143014000Y-98337142D01*
X143085428Y-98265714D01*
X143228285Y-98194285D01*
X143442571Y-98194285D01*
X143585428Y-98265714D01*
X143656857Y-98337142D01*
X143728285Y-98480000D01*
X143728285Y-99051428D01*
X142942571Y-97765714D02*
X144442571Y-97265714D01*
X142942571Y-96765714D01*
X143085428Y-96337142D02*
X143014000Y-96265714D01*
X142942571Y-96122857D01*
X142942571Y-95765714D01*
X143014000Y-95622857D01*
X143085428Y-95551428D01*
X143228285Y-95480000D01*
X143371142Y-95480000D01*
X143585428Y-95551428D01*
X144442571Y-96408571D01*
X144442571Y-95480000D01*
X142942571Y-94194285D02*
X142942571Y-94480000D01*
X143014000Y-94622857D01*
X143085428Y-94694285D01*
X143299714Y-94837142D01*
X143585428Y-94908571D01*
X144156857Y-94908571D01*
X144299714Y-94837142D01*
X144371142Y-94765714D01*
X144442571Y-94622857D01*
X144442571Y-94337142D01*
X144371142Y-94194285D01*
X144299714Y-94122857D01*
X144156857Y-94051428D01*
X143799714Y-94051428D01*
X143656857Y-94122857D01*
X143585428Y-94194285D01*
X143514000Y-94337142D01*
X143514000Y-94622857D01*
X143585428Y-94765714D01*
X143656857Y-94837142D01*
X143799714Y-94908571D01*
X142942571Y-92765714D02*
X142942571Y-93051428D01*
X143014000Y-93194285D01*
X143085428Y-93265714D01*
X143299714Y-93408571D01*
X143585428Y-93480000D01*
X144156857Y-93480000D01*
X144299714Y-93408571D01*
X144371142Y-93337142D01*
X144442571Y-93194285D01*
X144442571Y-92908571D01*
X144371142Y-92765714D01*
X144299714Y-92694285D01*
X144156857Y-92622857D01*
X143799714Y-92622857D01*
X143656857Y-92694285D01*
X143585428Y-92765714D01*
X143514000Y-92908571D01*
X143514000Y-93194285D01*
X143585428Y-93337142D01*
X143656857Y-93408571D01*
X143799714Y-93480000D01*
X142942571Y-91694285D02*
X142942571Y-91551428D01*
X143014000Y-91408571D01*
X143085428Y-91337142D01*
X143228285Y-91265714D01*
X143514000Y-91194285D01*
X143871142Y-91194285D01*
X144156857Y-91265714D01*
X144299714Y-91337142D01*
X144371142Y-91408571D01*
X144442571Y-91551428D01*
X144442571Y-91694285D01*
X144371142Y-91837142D01*
X144299714Y-91908571D01*
X144156857Y-91980000D01*
X143871142Y-92051428D01*
X143514000Y-92051428D01*
X143228285Y-91980000D01*
X143085428Y-91908571D01*
X143014000Y-91837142D01*
X142942571Y-91694285D01*
X142942571Y-89622857D02*
X144442571Y-89122857D01*
X142942571Y-88622857D01*
X144442571Y-87337142D02*
X144442571Y-88194285D01*
X144442571Y-87765714D02*
X142942571Y-87765714D01*
X143156857Y-87908571D01*
X143299714Y-88051428D01*
X143371142Y-88194285D01*
D11*
X132969000Y-64852200D02*
X120269000Y-64852200D01*
D10*
X132969000Y-64846200D02*
X132969000Y-80086200D01*
X132969000Y-80086200D02*
X120269000Y-80086200D01*
X120269000Y-64846200D02*
X120269000Y-80086200D01*
D13*
X128252800Y-108185200D02*
X128252800Y-104985200D01*
X128252800Y-104985200D02*
X130052800Y-104985200D01*
X130052800Y-104985200D02*
X130052800Y-108185200D01*
X116952800Y-108185200D02*
X128252800Y-108185200D01*
X128252800Y-108185200D02*
X128252800Y-113985200D01*
X128252800Y-113985200D02*
X116952800Y-113985200D01*
X116952800Y-113985200D02*
X116952800Y-108185200D01*
X137352800Y-108185200D02*
X130052800Y-108185200D01*
X130052800Y-113985200D02*
X137352800Y-113985200D01*
X130052800Y-108185200D02*
X130052800Y-113985200D01*
X137352800Y-108185200D02*
X137352800Y-113985200D01*
D14*
X131334606Y-93766640D02*
G75*
G03X131334606Y-93766640I-463646J0D01*
G01*
D11*
X132101600Y-84992200D02*
X122101600Y-84992200D01*
X122101600Y-94992200D02*
X122101600Y-84992200D01*
X131251600Y-94992200D02*
X122101600Y-94992200D01*
X132101600Y-84992200D02*
X132101600Y-94142200D01*
X132101600Y-94142200D02*
X131251600Y-94992200D01*
D13*
X137374800Y-86806664D02*
X137374800Y-85602536D01*
X140094800Y-86806664D02*
X140094800Y-85602536D01*
X138495721Y-82806000D02*
X138821279Y-82806000D01*
X138495721Y-81786000D02*
X138821279Y-81786000D01*
X114133800Y-86781264D02*
X114133800Y-85577136D01*
X116853800Y-86781264D02*
X116853800Y-85577136D01*
X115732779Y-82167000D02*
X115407221Y-82167000D01*
X115732779Y-83187000D02*
X115407221Y-83187000D01*
X138521221Y-81282000D02*
X138846779Y-81282000D01*
X138521221Y-80262000D02*
X138846779Y-80262000D01*
X117312121Y-78386400D02*
X117637679Y-78386400D01*
X117312121Y-77366400D02*
X117637679Y-77366400D01*
X117312121Y-76786200D02*
X117637679Y-76786200D01*
X117312121Y-75766200D02*
X117637679Y-75766200D01*
X135493879Y-75563000D02*
X135168321Y-75563000D01*
X135493879Y-76583000D02*
X135168321Y-76583000D01*
X135443279Y-77087000D02*
X135117721Y-77087000D01*
X135443279Y-78107000D02*
X135117721Y-78107000D01*
X115758279Y-80643000D02*
X115432721Y-80643000D01*
X115758279Y-81663000D02*
X115432721Y-81663000D01*
X128996221Y-99824000D02*
X129321779Y-99824000D01*
X128996221Y-98804000D02*
X129321779Y-98804000D01*
X129792000Y-81498221D02*
X129792000Y-81823779D01*
X130812000Y-81498221D02*
X130812000Y-81823779D01*
X120493064Y-99801000D02*
X119288936Y-99801000D01*
X120493064Y-101621000D02*
X119288936Y-101621000D01*
X133840136Y-101595600D02*
X135044264Y-101595600D01*
X133840136Y-99775600D02*
X135044264Y-99775600D01*
M02*
