G04 #@! TF.GenerationSoftware,KiCad,Pcbnew,(5.1.0-1558-g0ba0c1724)*
G04 #@! TF.CreationDate,2019-10-01T21:27:49-07:00*
G04 #@! TF.ProjectId,TMC2660_Driver,544d4332-3636-4305-9f44-72697665722e,rev?*
G04 #@! TF.SameCoordinates,Original*
G04 #@! TF.FileFunction,Copper,L4,Bot*
G04 #@! TF.FilePolarity,Positive*
%FSLAX46Y46*%
G04 Gerber Fmt 4.6, Leading zero omitted, Abs format (unit mm)*
G04 Created by KiCad (PCBNEW (5.1.0-1558-g0ba0c1724)) date 2019-10-01 21:27:49*
%MOMM*%
%LPD*%
G04 APERTURE LIST*
%ADD10C,1.778000*%
%ADD11R,1.778000X1.778000*%
%ADD12O,0.650000X0.650000*%
%ADD13R,0.650000X4.600000*%
%ADD14R,0.650000X3.600000*%
%ADD15C,0.600000*%
%ADD16C,1.000000*%
%ADD17C,0.800000*%
%ADD18C,0.127000*%
%ADD19C,2.000000*%
%ADD20C,0.800000*%
%ADD21C,0.254000*%
%ADD22C,0.152400*%
G04 APERTURE END LIST*
D10*
X130429000Y-78562200D03*
X127889000Y-78562200D03*
X125349000Y-78562200D03*
D11*
X122809000Y-78562200D03*
D12*
X118652800Y-112985200D03*
X136652800Y-112985200D03*
X135652800Y-112985200D03*
X130652800Y-112985200D03*
X127652800Y-112985200D03*
X134652800Y-112985200D03*
X131652800Y-112985200D03*
X119652800Y-112985200D03*
X133652800Y-112985200D03*
X132652800Y-112985200D03*
X126652800Y-112985200D03*
X125652800Y-112985200D03*
X124652800Y-112985200D03*
X123652800Y-112985200D03*
X122652800Y-112985200D03*
X121652800Y-112985200D03*
X120652800Y-112985200D03*
D13*
X131652800Y-110685200D03*
X130652800Y-110685200D03*
X136652800Y-110685200D03*
X135652800Y-110685200D03*
X134652800Y-110685200D03*
X133652800Y-110685200D03*
X132652800Y-110685200D03*
X127652800Y-110685200D03*
X126652800Y-110685200D03*
X125652800Y-110685200D03*
X124652800Y-110685200D03*
X123652800Y-110685200D03*
X122652800Y-110685200D03*
X121652800Y-110685200D03*
X120652800Y-110685200D03*
X119652800Y-110685200D03*
X118652800Y-110685200D03*
D14*
X117652800Y-110185200D03*
D15*
X117670871Y-103113177D03*
D16*
X118770400Y-102285800D03*
X135839200Y-102108000D03*
D17*
X139192000Y-103251000D03*
X141097000Y-103251000D03*
D16*
X117983000Y-88900000D03*
X119380000Y-90170000D03*
X117983000Y-91567000D03*
X119380000Y-92792200D03*
X118110000Y-94107000D03*
X119380000Y-95631000D03*
X117729000Y-96774000D03*
X134874000Y-89662000D03*
X136144000Y-91186000D03*
X134874000Y-95123000D03*
X136144000Y-88392000D03*
X136525000Y-96647000D03*
X136271000Y-93726000D03*
X134874000Y-92500800D03*
X129540000Y-85852000D03*
X131064000Y-87376000D03*
X128016000Y-87376000D03*
X129540000Y-88900000D03*
X131064000Y-90424000D03*
X128016000Y-90424000D03*
X129540000Y-91948000D03*
X128016000Y-93472000D03*
X122936000Y-90424000D03*
X125984000Y-93472000D03*
X125984000Y-90424000D03*
X125984000Y-87376000D03*
X124460000Y-91948000D03*
X122936000Y-87376000D03*
X124460000Y-88900000D03*
X124460000Y-85852000D03*
D17*
X116586000Y-77216000D03*
X114046000Y-81026000D03*
X114554000Y-85598000D03*
X115570000Y-85598000D03*
X116586000Y-85598000D03*
X136144000Y-76962000D03*
X140208000Y-80772000D03*
X130556000Y-80264000D03*
X139700000Y-85852000D03*
X138684000Y-85852000D03*
X137668000Y-85852000D03*
X127229569Y-85368689D03*
X130810000Y-99314000D03*
D15*
X127127000Y-94615000D03*
X127127000Y-96774000D03*
D16*
X127127000Y-99314000D03*
X127127000Y-105410000D03*
D15*
X129540000Y-97028000D03*
X125857000Y-105537000D03*
X128651000Y-97155000D03*
X125222000Y-104648000D03*
X126238000Y-97409000D03*
X114172048Y-80019511D03*
X120167400Y-105435400D03*
X115239800Y-78714600D03*
X116865400Y-79196976D03*
X114976289Y-79756000D03*
X116103309Y-79474885D03*
X117533650Y-104893313D03*
X119902121Y-106309743D03*
X118775110Y-106051620D03*
X120046001Y-103829105D03*
X121029132Y-106194072D03*
X118775110Y-104651586D03*
D16*
X114173000Y-95453200D03*
X114173000Y-98399600D03*
X114198400Y-92405200D03*
X114147600Y-89585800D03*
X139192000Y-101092000D03*
X141224000Y-101092000D03*
X141224000Y-97790000D03*
X139192000Y-97790000D03*
X139192000Y-95758000D03*
X141224000Y-95758000D03*
X141224000Y-92710000D03*
X139192000Y-92710000D03*
X138938000Y-89408000D03*
X141224000Y-89408000D03*
X138684000Y-78892400D03*
X138684000Y-77216000D03*
X128016000Y-75692000D03*
X115112800Y-77597000D03*
X113080800Y-78486000D03*
X131318000Y-105410000D03*
D18*
X118652800Y-110685200D02*
X118652800Y-107476800D01*
X117970870Y-103413176D02*
X117670871Y-103113177D01*
X118652800Y-107476800D02*
X118211600Y-107035600D01*
X118211600Y-107035600D02*
X118211600Y-103653906D01*
X118211600Y-103653906D02*
X117970870Y-103413176D01*
D19*
X131686235Y-78562200D02*
X131762435Y-78486000D01*
X130429000Y-78562200D02*
X131686235Y-78562200D01*
X131762435Y-78486000D02*
X132842000Y-78486000D01*
X132842000Y-78486000D02*
X133985000Y-79629000D01*
X133985000Y-79629000D02*
X133985000Y-81280000D01*
X128228990Y-79333990D02*
X128228990Y-79473473D01*
X127889000Y-78562200D02*
X127889000Y-78994000D01*
X127889000Y-78994000D02*
X128228990Y-79333990D01*
X128228990Y-79473473D02*
X128778000Y-80022483D01*
X128778000Y-80022483D02*
X128778000Y-81280000D01*
D20*
X136652800Y-107585200D02*
X136652000Y-107584400D01*
X136652800Y-110685200D02*
X136652800Y-107585200D01*
X136652000Y-107584400D02*
X136652000Y-105054400D01*
X135652800Y-107585200D02*
X135636000Y-107568400D01*
X135652800Y-110685200D02*
X135652800Y-107585200D01*
X135636000Y-107568400D02*
X135636000Y-105105200D01*
X134652800Y-110685200D02*
X134652800Y-105174000D01*
X133652800Y-110685200D02*
X133652800Y-105208800D01*
X132652800Y-110685200D02*
X132652800Y-105170000D01*
D19*
X122809000Y-78562200D02*
X122809000Y-79629000D01*
X122809000Y-79629000D02*
X123444000Y-80264000D01*
X125349000Y-77304965D02*
X124244035Y-76200000D01*
X125349000Y-78562200D02*
X125349000Y-77304965D01*
X121233198Y-76200000D02*
X120015000Y-77418198D01*
X124244035Y-76200000D02*
X121233198Y-76200000D01*
X120015000Y-77418198D02*
X120015000Y-81153000D01*
X123444000Y-80264000D02*
X123444000Y-80899000D01*
D18*
X117652800Y-105012463D02*
X117533650Y-104893313D01*
X117652800Y-110185200D02*
X117652800Y-105012463D01*
X120167400Y-105435400D02*
X120465622Y-105733622D01*
X119338611Y-107629211D02*
X119338611Y-104536495D01*
X119652800Y-110685200D02*
X119652800Y-107943400D01*
X119652800Y-107943400D02*
X119338611Y-107629211D01*
X120652800Y-107673400D02*
X120652800Y-108258200D01*
X119746002Y-104129104D02*
X120046001Y-103829105D01*
X120652800Y-108258200D02*
X120652800Y-110685200D01*
X119338611Y-104536495D02*
X119746002Y-104129104D01*
X120465622Y-105733622D02*
X120465622Y-107486222D01*
X120465622Y-107486222D02*
X120652800Y-107673400D01*
D21*
G36*
X141254819Y-74880647D02*
G01*
X141443724Y-74899835D01*
X141581574Y-74943034D01*
X141707928Y-75013073D01*
X141817607Y-75107079D01*
X141906153Y-75221233D01*
X141969937Y-75350860D01*
X142007230Y-75494031D01*
X142018333Y-75638312D01*
X142021601Y-75647592D01*
X142021600Y-103548903D01*
X142019353Y-103554818D01*
X142000165Y-103743723D01*
X141956965Y-103881575D01*
X141886927Y-104007928D01*
X141792920Y-104117607D01*
X141678765Y-104206155D01*
X141549145Y-104269936D01*
X141405969Y-104307230D01*
X141261690Y-104318333D01*
X141252413Y-104321600D01*
X138325826Y-104321600D01*
X138294767Y-104315788D01*
X138108705Y-104330105D01*
X138100369Y-104333040D01*
X138091533Y-104332979D01*
X137863846Y-104392287D01*
X137853124Y-104398377D01*
X137841021Y-104400774D01*
X137629906Y-104504656D01*
X137620629Y-104512778D01*
X137609262Y-104517556D01*
X137423346Y-104661767D01*
X137415887Y-104671593D01*
X137405711Y-104678561D01*
X137252593Y-104857207D01*
X137247264Y-104868330D01*
X137238697Y-104877202D01*
X137124626Y-105082990D01*
X137121643Y-105094955D01*
X137115035Y-105105367D01*
X137044674Y-105329891D01*
X137044158Y-105342213D01*
X137039779Y-105353739D01*
X137016001Y-105587826D01*
X137021601Y-105622402D01*
X137021601Y-106046000D01*
X130378400Y-106046000D01*
X130378400Y-105629256D01*
X130384254Y-105601716D01*
X130377314Y-105469285D01*
X130375669Y-105464221D01*
X130375966Y-105458903D01*
X130329917Y-105238479D01*
X130324357Y-105227473D01*
X130322556Y-105215275D01*
X130233126Y-105008611D01*
X130225463Y-104998943D01*
X130221246Y-104987356D01*
X130092085Y-104802896D01*
X130082640Y-104794971D01*
X130076178Y-104784466D01*
X129912565Y-104629745D01*
X129901716Y-104623878D01*
X129893273Y-104614888D01*
X129701892Y-104496226D01*
X129690086Y-104492662D01*
X129680009Y-104485553D01*
X129468676Y-104407797D01*
X129456393Y-104406679D01*
X129445092Y-104401742D01*
X129222442Y-104368069D01*
X129210184Y-104369444D01*
X129198120Y-104366880D01*
X128973246Y-104378665D01*
X128961516Y-104382476D01*
X128949188Y-104382390D01*
X128731273Y-104439152D01*
X128720551Y-104445243D01*
X128708455Y-104447638D01*
X128506405Y-104547058D01*
X128497123Y-104555184D01*
X128485757Y-104559962D01*
X128307826Y-104697977D01*
X128300369Y-104707801D01*
X128290197Y-104714766D01*
X128143652Y-104885742D01*
X128138322Y-104896867D01*
X128129756Y-104905737D01*
X128020585Y-105102685D01*
X128017600Y-105114655D01*
X128010993Y-105125067D01*
X127953096Y-105309815D01*
X127953295Y-105287016D01*
X127880321Y-105049069D01*
X127740890Y-104843519D01*
X127547184Y-104688053D01*
X127316327Y-104596417D01*
X127068731Y-104576712D01*
X126826287Y-104630684D01*
X126610430Y-104753556D01*
X126440245Y-104934469D01*
X126339972Y-105138700D01*
X126265593Y-105050058D01*
X126074407Y-104939678D01*
X125857000Y-104901343D01*
X125791780Y-104912843D01*
X125848000Y-104758380D01*
X125848000Y-104537620D01*
X125772495Y-104330172D01*
X125630593Y-104161058D01*
X125439407Y-104050678D01*
X125222000Y-104012343D01*
X125004593Y-104050678D01*
X124813407Y-104161058D01*
X124671505Y-104330172D01*
X124596000Y-104537620D01*
X124596000Y-104758380D01*
X124671505Y-104965828D01*
X124813407Y-105134942D01*
X125004593Y-105245322D01*
X125222000Y-105283657D01*
X125287220Y-105272157D01*
X125231000Y-105426620D01*
X125231000Y-105647380D01*
X125306505Y-105854828D01*
X125448407Y-106023942D01*
X125486613Y-106046000D01*
X121641413Y-106046000D01*
X121579627Y-105876244D01*
X121437725Y-105707130D01*
X121246539Y-105596750D01*
X121029132Y-105558415D01*
X120832245Y-105593132D01*
X120821105Y-105547780D01*
X120793400Y-105516355D01*
X120793400Y-105325020D01*
X120717895Y-105117572D01*
X120575993Y-104948458D01*
X120384807Y-104838078D01*
X120167400Y-104799743D01*
X119949993Y-104838078D01*
X119758807Y-104948458D01*
X119728111Y-104985040D01*
X119728111Y-104697830D01*
X119973895Y-104452048D01*
X120046001Y-104464762D01*
X120263408Y-104426427D01*
X120454594Y-104316047D01*
X120596496Y-104146933D01*
X120672001Y-103939485D01*
X120672001Y-103718724D01*
X120666642Y-103704000D01*
X121847075Y-103704000D01*
X121919885Y-103695797D01*
X121944637Y-103683877D01*
X122032803Y-103704000D01*
X127054075Y-103704000D01*
X127126885Y-103695797D01*
X127164498Y-103677683D01*
X127279803Y-103704000D01*
X132301131Y-103704000D01*
X132374385Y-103695682D01*
X132385918Y-103690103D01*
X132446803Y-103704000D01*
X137468075Y-103704000D01*
X137540885Y-103695797D01*
X137666278Y-103635410D01*
X137757636Y-103520852D01*
X137787000Y-103392197D01*
X137787000Y-80259925D01*
X137778797Y-80187115D01*
X137718410Y-80061722D01*
X137603852Y-79970364D01*
X137475197Y-79941000D01*
X135311000Y-79941000D01*
X135311000Y-79642313D01*
X135312552Y-79494151D01*
X135295316Y-79414432D01*
X135286223Y-79333370D01*
X135263978Y-79269487D01*
X135249686Y-79203385D01*
X135215216Y-79129463D01*
X135188390Y-79052431D01*
X135152545Y-78995067D01*
X135123775Y-78933370D01*
X135076269Y-78872999D01*
X135030747Y-78800150D01*
X134973880Y-78742886D01*
X134972948Y-78741701D01*
X134938080Y-78706834D01*
X134821130Y-78589065D01*
X134818888Y-78587642D01*
X133789108Y-77557862D01*
X133685369Y-77451927D01*
X133616799Y-77407736D01*
X133553062Y-77356855D01*
X133492167Y-77327417D01*
X133435313Y-77290777D01*
X133358665Y-77262880D01*
X133285229Y-77227379D01*
X133219323Y-77212164D01*
X133155351Y-77188880D01*
X133079068Y-77179783D01*
X132995370Y-77160460D01*
X132914642Y-77160178D01*
X132913143Y-77160000D01*
X132863401Y-77160000D01*
X132697890Y-77159422D01*
X132695304Y-77160000D01*
X131775749Y-77160000D01*
X131627587Y-77158448D01*
X131547870Y-77175684D01*
X131466805Y-77184776D01*
X131402925Y-77207022D01*
X131336821Y-77221314D01*
X131304898Y-77236200D01*
X130354262Y-77236200D01*
X130133370Y-77260977D01*
X129852432Y-77358809D01*
X129600150Y-77516452D01*
X129389065Y-77726071D01*
X129229665Y-77977245D01*
X129158786Y-78176295D01*
X129092391Y-77985632D01*
X128934748Y-77733350D01*
X128725129Y-77522264D01*
X128473954Y-77362865D01*
X128193707Y-77263073D01*
X127898315Y-77227849D01*
X127602461Y-77258945D01*
X127320847Y-77354814D01*
X127067472Y-77510692D01*
X126854927Y-77718831D01*
X126693777Y-77968888D01*
X126675000Y-78020478D01*
X126675000Y-77318183D01*
X126676551Y-77170116D01*
X126659317Y-77090406D01*
X126650223Y-77009335D01*
X126627976Y-76945450D01*
X126613685Y-76879350D01*
X126579219Y-76805438D01*
X126552390Y-76728397D01*
X126516547Y-76671035D01*
X126487775Y-76609335D01*
X126440269Y-76548964D01*
X126394747Y-76476115D01*
X126337880Y-76418851D01*
X126336948Y-76417666D01*
X126302080Y-76382799D01*
X126185130Y-76265030D01*
X126182888Y-76263607D01*
X125191143Y-75271862D01*
X125087404Y-75165927D01*
X125018834Y-75121736D01*
X124955097Y-75070855D01*
X124894202Y-75041417D01*
X124837348Y-75004777D01*
X124760700Y-74976880D01*
X124687264Y-74941379D01*
X124621358Y-74926164D01*
X124557386Y-74902880D01*
X124481103Y-74893783D01*
X124414471Y-74878400D01*
X141248904Y-74878400D01*
X141254819Y-74880647D01*
X141254819Y-74880647D01*
G37*
X141254819Y-74880647D02*
X141443724Y-74899835D01*
X141581574Y-74943034D01*
X141707928Y-75013073D01*
X141817607Y-75107079D01*
X141906153Y-75221233D01*
X141969937Y-75350860D01*
X142007230Y-75494031D01*
X142018333Y-75638312D01*
X142021601Y-75647592D01*
X142021600Y-103548903D01*
X142019353Y-103554818D01*
X142000165Y-103743723D01*
X141956965Y-103881575D01*
X141886927Y-104007928D01*
X141792920Y-104117607D01*
X141678765Y-104206155D01*
X141549145Y-104269936D01*
X141405969Y-104307230D01*
X141261690Y-104318333D01*
X141252413Y-104321600D01*
X138325826Y-104321600D01*
X138294767Y-104315788D01*
X138108705Y-104330105D01*
X138100369Y-104333040D01*
X138091533Y-104332979D01*
X137863846Y-104392287D01*
X137853124Y-104398377D01*
X137841021Y-104400774D01*
X137629906Y-104504656D01*
X137620629Y-104512778D01*
X137609262Y-104517556D01*
X137423346Y-104661767D01*
X137415887Y-104671593D01*
X137405711Y-104678561D01*
X137252593Y-104857207D01*
X137247264Y-104868330D01*
X137238697Y-104877202D01*
X137124626Y-105082990D01*
X137121643Y-105094955D01*
X137115035Y-105105367D01*
X137044674Y-105329891D01*
X137044158Y-105342213D01*
X137039779Y-105353739D01*
X137016001Y-105587826D01*
X137021601Y-105622402D01*
X137021601Y-106046000D01*
X130378400Y-106046000D01*
X130378400Y-105629256D01*
X130384254Y-105601716D01*
X130377314Y-105469285D01*
X130375669Y-105464221D01*
X130375966Y-105458903D01*
X130329917Y-105238479D01*
X130324357Y-105227473D01*
X130322556Y-105215275D01*
X130233126Y-105008611D01*
X130225463Y-104998943D01*
X130221246Y-104987356D01*
X130092085Y-104802896D01*
X130082640Y-104794971D01*
X130076178Y-104784466D01*
X129912565Y-104629745D01*
X129901716Y-104623878D01*
X129893273Y-104614888D01*
X129701892Y-104496226D01*
X129690086Y-104492662D01*
X129680009Y-104485553D01*
X129468676Y-104407797D01*
X129456393Y-104406679D01*
X129445092Y-104401742D01*
X129222442Y-104368069D01*
X129210184Y-104369444D01*
X129198120Y-104366880D01*
X128973246Y-104378665D01*
X128961516Y-104382476D01*
X128949188Y-104382390D01*
X128731273Y-104439152D01*
X128720551Y-104445243D01*
X128708455Y-104447638D01*
X128506405Y-104547058D01*
X128497123Y-104555184D01*
X128485757Y-104559962D01*
X128307826Y-104697977D01*
X128300369Y-104707801D01*
X128290197Y-104714766D01*
X128143652Y-104885742D01*
X128138322Y-104896867D01*
X128129756Y-104905737D01*
X128020585Y-105102685D01*
X128017600Y-105114655D01*
X128010993Y-105125067D01*
X127953096Y-105309815D01*
X127953295Y-105287016D01*
X127880321Y-105049069D01*
X127740890Y-104843519D01*
X127547184Y-104688053D01*
X127316327Y-104596417D01*
X127068731Y-104576712D01*
X126826287Y-104630684D01*
X126610430Y-104753556D01*
X126440245Y-104934469D01*
X126339972Y-105138700D01*
X126265593Y-105050058D01*
X126074407Y-104939678D01*
X125857000Y-104901343D01*
X125791780Y-104912843D01*
X125848000Y-104758380D01*
X125848000Y-104537620D01*
X125772495Y-104330172D01*
X125630593Y-104161058D01*
X125439407Y-104050678D01*
X125222000Y-104012343D01*
X125004593Y-104050678D01*
X124813407Y-104161058D01*
X124671505Y-104330172D01*
X124596000Y-104537620D01*
X124596000Y-104758380D01*
X124671505Y-104965828D01*
X124813407Y-105134942D01*
X125004593Y-105245322D01*
X125222000Y-105283657D01*
X125287220Y-105272157D01*
X125231000Y-105426620D01*
X125231000Y-105647380D01*
X125306505Y-105854828D01*
X125448407Y-106023942D01*
X125486613Y-106046000D01*
X121641413Y-106046000D01*
X121579627Y-105876244D01*
X121437725Y-105707130D01*
X121246539Y-105596750D01*
X121029132Y-105558415D01*
X120832245Y-105593132D01*
X120821105Y-105547780D01*
X120793400Y-105516355D01*
X120793400Y-105325020D01*
X120717895Y-105117572D01*
X120575993Y-104948458D01*
X120384807Y-104838078D01*
X120167400Y-104799743D01*
X119949993Y-104838078D01*
X119758807Y-104948458D01*
X119728111Y-104985040D01*
X119728111Y-104697830D01*
X119973895Y-104452048D01*
X120046001Y-104464762D01*
X120263408Y-104426427D01*
X120454594Y-104316047D01*
X120596496Y-104146933D01*
X120672001Y-103939485D01*
X120672001Y-103718724D01*
X120666642Y-103704000D01*
X121847075Y-103704000D01*
X121919885Y-103695797D01*
X121944637Y-103683877D01*
X122032803Y-103704000D01*
X127054075Y-103704000D01*
X127126885Y-103695797D01*
X127164498Y-103677683D01*
X127279803Y-103704000D01*
X132301131Y-103704000D01*
X132374385Y-103695682D01*
X132385918Y-103690103D01*
X132446803Y-103704000D01*
X137468075Y-103704000D01*
X137540885Y-103695797D01*
X137666278Y-103635410D01*
X137757636Y-103520852D01*
X137787000Y-103392197D01*
X137787000Y-80259925D01*
X137778797Y-80187115D01*
X137718410Y-80061722D01*
X137603852Y-79970364D01*
X137475197Y-79941000D01*
X135311000Y-79941000D01*
X135311000Y-79642313D01*
X135312552Y-79494151D01*
X135295316Y-79414432D01*
X135286223Y-79333370D01*
X135263978Y-79269487D01*
X135249686Y-79203385D01*
X135215216Y-79129463D01*
X135188390Y-79052431D01*
X135152545Y-78995067D01*
X135123775Y-78933370D01*
X135076269Y-78872999D01*
X135030747Y-78800150D01*
X134973880Y-78742886D01*
X134972948Y-78741701D01*
X134938080Y-78706834D01*
X134821130Y-78589065D01*
X134818888Y-78587642D01*
X133789108Y-77557862D01*
X133685369Y-77451927D01*
X133616799Y-77407736D01*
X133553062Y-77356855D01*
X133492167Y-77327417D01*
X133435313Y-77290777D01*
X133358665Y-77262880D01*
X133285229Y-77227379D01*
X133219323Y-77212164D01*
X133155351Y-77188880D01*
X133079068Y-77179783D01*
X132995370Y-77160460D01*
X132914642Y-77160178D01*
X132913143Y-77160000D01*
X132863401Y-77160000D01*
X132697890Y-77159422D01*
X132695304Y-77160000D01*
X131775749Y-77160000D01*
X131627587Y-77158448D01*
X131547870Y-77175684D01*
X131466805Y-77184776D01*
X131402925Y-77207022D01*
X131336821Y-77221314D01*
X131304898Y-77236200D01*
X130354262Y-77236200D01*
X130133370Y-77260977D01*
X129852432Y-77358809D01*
X129600150Y-77516452D01*
X129389065Y-77726071D01*
X129229665Y-77977245D01*
X129158786Y-78176295D01*
X129092391Y-77985632D01*
X128934748Y-77733350D01*
X128725129Y-77522264D01*
X128473954Y-77362865D01*
X128193707Y-77263073D01*
X127898315Y-77227849D01*
X127602461Y-77258945D01*
X127320847Y-77354814D01*
X127067472Y-77510692D01*
X126854927Y-77718831D01*
X126693777Y-77968888D01*
X126675000Y-78020478D01*
X126675000Y-77318183D01*
X126676551Y-77170116D01*
X126659317Y-77090406D01*
X126650223Y-77009335D01*
X126627976Y-76945450D01*
X126613685Y-76879350D01*
X126579219Y-76805438D01*
X126552390Y-76728397D01*
X126516547Y-76671035D01*
X126487775Y-76609335D01*
X126440269Y-76548964D01*
X126394747Y-76476115D01*
X126337880Y-76418851D01*
X126336948Y-76417666D01*
X126302080Y-76382799D01*
X126185130Y-76265030D01*
X126182888Y-76263607D01*
X125191143Y-75271862D01*
X125087404Y-75165927D01*
X125018834Y-75121736D01*
X124955097Y-75070855D01*
X124894202Y-75041417D01*
X124837348Y-75004777D01*
X124760700Y-74976880D01*
X124687264Y-74941379D01*
X124621358Y-74926164D01*
X124557386Y-74902880D01*
X124481103Y-74893783D01*
X124414471Y-74878400D01*
X141248904Y-74878400D01*
X141254819Y-74880647D01*
G36*
X112280647Y-75645181D02*
G01*
X112299835Y-75456276D01*
X112343034Y-75318426D01*
X112413073Y-75192072D01*
X112507079Y-75082393D01*
X112621233Y-74993847D01*
X112750860Y-74930063D01*
X112894031Y-74892770D01*
X113038312Y-74881667D01*
X113047589Y-74878400D01*
X121070820Y-74878400D01*
X121018636Y-74889683D01*
X120937568Y-74898777D01*
X120873679Y-74921025D01*
X120807583Y-74935316D01*
X120733672Y-74969781D01*
X120656630Y-74996610D01*
X120599268Y-75032453D01*
X120537568Y-75061225D01*
X120477197Y-75108731D01*
X120404348Y-75154253D01*
X120347084Y-75211120D01*
X120345899Y-75212052D01*
X120311033Y-75246919D01*
X120193263Y-75363870D01*
X120191840Y-75366112D01*
X119086862Y-76471090D01*
X118980926Y-76574829D01*
X118936740Y-76643393D01*
X118885855Y-76707136D01*
X118856415Y-76768034D01*
X118819777Y-76824886D01*
X118791884Y-76901524D01*
X118756380Y-76974968D01*
X118741162Y-77040880D01*
X118717880Y-77104848D01*
X118708783Y-77181129D01*
X118689460Y-77264828D01*
X118689178Y-77345557D01*
X118689000Y-77347056D01*
X118689000Y-77396794D01*
X118688422Y-77562308D01*
X118689000Y-77564894D01*
X118689001Y-79941000D01*
X116832925Y-79941000D01*
X116760115Y-79949203D01*
X116634722Y-80009590D01*
X116543364Y-80124148D01*
X116514000Y-80252803D01*
X116514000Y-103385075D01*
X116522203Y-103457885D01*
X116582590Y-103583278D01*
X116697148Y-103674636D01*
X116825803Y-103704000D01*
X117442207Y-103704000D01*
X117453464Y-103710499D01*
X117670871Y-103748834D01*
X117742978Y-103736120D01*
X117822101Y-103815243D01*
X117822101Y-104337008D01*
X117751057Y-104295991D01*
X117533650Y-104257656D01*
X117316243Y-104295991D01*
X117125057Y-104406371D01*
X116983155Y-104575485D01*
X116931264Y-104718055D01*
X116928407Y-104715887D01*
X116921439Y-104705711D01*
X116742793Y-104552593D01*
X116731670Y-104547264D01*
X116722798Y-104538697D01*
X116517010Y-104424626D01*
X116505045Y-104421643D01*
X116494633Y-104415035D01*
X116270109Y-104344674D01*
X116257787Y-104344158D01*
X116246261Y-104339779D01*
X116012174Y-104316001D01*
X115977604Y-104321600D01*
X113051097Y-104321600D01*
X113045182Y-104319353D01*
X112856277Y-104300165D01*
X112718425Y-104256965D01*
X112592072Y-104186927D01*
X112482393Y-104092920D01*
X112393845Y-103978765D01*
X112330064Y-103849145D01*
X112292770Y-103705969D01*
X112281667Y-103561690D01*
X112278400Y-103552413D01*
X112278400Y-79909131D01*
X113546048Y-79909131D01*
X113546048Y-80129891D01*
X113621553Y-80337339D01*
X113763455Y-80506453D01*
X113954641Y-80616833D01*
X114172048Y-80655168D01*
X114389455Y-80616833D01*
X114580641Y-80506453D01*
X114722542Y-80337339D01*
X114724045Y-80333209D01*
X114758882Y-80353322D01*
X114976289Y-80391657D01*
X115193696Y-80353322D01*
X115384882Y-80242942D01*
X115526784Y-80073828D01*
X115602289Y-79866380D01*
X115602289Y-79851676D01*
X115694716Y-79961827D01*
X115885902Y-80072207D01*
X116103309Y-80110542D01*
X116320716Y-80072207D01*
X116511902Y-79961827D01*
X116651896Y-79794986D01*
X116865400Y-79832633D01*
X117082807Y-79794298D01*
X117273993Y-79683918D01*
X117415895Y-79514804D01*
X117491400Y-79307356D01*
X117491400Y-79086596D01*
X117415895Y-78879148D01*
X117273993Y-78710034D01*
X117082807Y-78599654D01*
X116865400Y-78561319D01*
X116647993Y-78599654D01*
X116456807Y-78710034D01*
X116316813Y-78876875D01*
X116103309Y-78839228D01*
X115885902Y-78877563D01*
X115836222Y-78906246D01*
X115865800Y-78824980D01*
X115865800Y-78604220D01*
X115790295Y-78396772D01*
X115648393Y-78227658D01*
X115457207Y-78117278D01*
X115239800Y-78078943D01*
X115022393Y-78117278D01*
X114831207Y-78227658D01*
X114689305Y-78396772D01*
X114613800Y-78604220D01*
X114613800Y-78824980D01*
X114689305Y-79032428D01*
X114790554Y-79153093D01*
X114758882Y-79158678D01*
X114567696Y-79269058D01*
X114425795Y-79438172D01*
X114424292Y-79442302D01*
X114389455Y-79422189D01*
X114172048Y-79383854D01*
X113954641Y-79422189D01*
X113763455Y-79532569D01*
X113621553Y-79701683D01*
X113546048Y-79909131D01*
X112278400Y-79909131D01*
X112278400Y-75651096D01*
X112280647Y-75645181D01*
X112280647Y-75645181D01*
G37*
X112280647Y-75645181D02*
X112299835Y-75456276D01*
X112343034Y-75318426D01*
X112413073Y-75192072D01*
X112507079Y-75082393D01*
X112621233Y-74993847D01*
X112750860Y-74930063D01*
X112894031Y-74892770D01*
X113038312Y-74881667D01*
X113047589Y-74878400D01*
X121070820Y-74878400D01*
X121018636Y-74889683D01*
X120937568Y-74898777D01*
X120873679Y-74921025D01*
X120807583Y-74935316D01*
X120733672Y-74969781D01*
X120656630Y-74996610D01*
X120599268Y-75032453D01*
X120537568Y-75061225D01*
X120477197Y-75108731D01*
X120404348Y-75154253D01*
X120347084Y-75211120D01*
X120345899Y-75212052D01*
X120311033Y-75246919D01*
X120193263Y-75363870D01*
X120191840Y-75366112D01*
X119086862Y-76471090D01*
X118980926Y-76574829D01*
X118936740Y-76643393D01*
X118885855Y-76707136D01*
X118856415Y-76768034D01*
X118819777Y-76824886D01*
X118791884Y-76901524D01*
X118756380Y-76974968D01*
X118741162Y-77040880D01*
X118717880Y-77104848D01*
X118708783Y-77181129D01*
X118689460Y-77264828D01*
X118689178Y-77345557D01*
X118689000Y-77347056D01*
X118689000Y-77396794D01*
X118688422Y-77562308D01*
X118689000Y-77564894D01*
X118689001Y-79941000D01*
X116832925Y-79941000D01*
X116760115Y-79949203D01*
X116634722Y-80009590D01*
X116543364Y-80124148D01*
X116514000Y-80252803D01*
X116514000Y-103385075D01*
X116522203Y-103457885D01*
X116582590Y-103583278D01*
X116697148Y-103674636D01*
X116825803Y-103704000D01*
X117442207Y-103704000D01*
X117453464Y-103710499D01*
X117670871Y-103748834D01*
X117742978Y-103736120D01*
X117822101Y-103815243D01*
X117822101Y-104337008D01*
X117751057Y-104295991D01*
X117533650Y-104257656D01*
X117316243Y-104295991D01*
X117125057Y-104406371D01*
X116983155Y-104575485D01*
X116931264Y-104718055D01*
X116928407Y-104715887D01*
X116921439Y-104705711D01*
X116742793Y-104552593D01*
X116731670Y-104547264D01*
X116722798Y-104538697D01*
X116517010Y-104424626D01*
X116505045Y-104421643D01*
X116494633Y-104415035D01*
X116270109Y-104344674D01*
X116257787Y-104344158D01*
X116246261Y-104339779D01*
X116012174Y-104316001D01*
X115977604Y-104321600D01*
X113051097Y-104321600D01*
X113045182Y-104319353D01*
X112856277Y-104300165D01*
X112718425Y-104256965D01*
X112592072Y-104186927D01*
X112482393Y-104092920D01*
X112393845Y-103978765D01*
X112330064Y-103849145D01*
X112292770Y-103705969D01*
X112281667Y-103561690D01*
X112278400Y-103552413D01*
X112278400Y-79909131D01*
X113546048Y-79909131D01*
X113546048Y-80129891D01*
X113621553Y-80337339D01*
X113763455Y-80506453D01*
X113954641Y-80616833D01*
X114172048Y-80655168D01*
X114389455Y-80616833D01*
X114580641Y-80506453D01*
X114722542Y-80337339D01*
X114724045Y-80333209D01*
X114758882Y-80353322D01*
X114976289Y-80391657D01*
X115193696Y-80353322D01*
X115384882Y-80242942D01*
X115526784Y-80073828D01*
X115602289Y-79866380D01*
X115602289Y-79851676D01*
X115694716Y-79961827D01*
X115885902Y-80072207D01*
X116103309Y-80110542D01*
X116320716Y-80072207D01*
X116511902Y-79961827D01*
X116651896Y-79794986D01*
X116865400Y-79832633D01*
X117082807Y-79794298D01*
X117273993Y-79683918D01*
X117415895Y-79514804D01*
X117491400Y-79307356D01*
X117491400Y-79086596D01*
X117415895Y-78879148D01*
X117273993Y-78710034D01*
X117082807Y-78599654D01*
X116865400Y-78561319D01*
X116647993Y-78599654D01*
X116456807Y-78710034D01*
X116316813Y-78876875D01*
X116103309Y-78839228D01*
X115885902Y-78877563D01*
X115836222Y-78906246D01*
X115865800Y-78824980D01*
X115865800Y-78604220D01*
X115790295Y-78396772D01*
X115648393Y-78227658D01*
X115457207Y-78117278D01*
X115239800Y-78078943D01*
X115022393Y-78117278D01*
X114831207Y-78227658D01*
X114689305Y-78396772D01*
X114613800Y-78604220D01*
X114613800Y-78824980D01*
X114689305Y-79032428D01*
X114790554Y-79153093D01*
X114758882Y-79158678D01*
X114567696Y-79269058D01*
X114425795Y-79438172D01*
X114424292Y-79442302D01*
X114389455Y-79422189D01*
X114172048Y-79383854D01*
X113954641Y-79422189D01*
X113763455Y-79532569D01*
X113621553Y-79701683D01*
X113546048Y-79909131D01*
X112278400Y-79909131D01*
X112278400Y-75651096D01*
X112280647Y-75645181D01*
D22*
G36*
X137385800Y-80342200D02*
G01*
X137385800Y-85233745D01*
X137357645Y-85242893D01*
X137184610Y-85368610D01*
X137058893Y-85541644D01*
X136992800Y-85745059D01*
X136992800Y-85958941D01*
X137058893Y-86162356D01*
X137184610Y-86335390D01*
X137357645Y-86461107D01*
X137385800Y-86470255D01*
X137385800Y-103302800D01*
X132536200Y-103302800D01*
X132536200Y-102101158D01*
X135055279Y-102101158D01*
X135087922Y-102331966D01*
X135186989Y-102542971D01*
X135343720Y-102715519D01*
X135544259Y-102834353D01*
X135770874Y-102888968D01*
X136003530Y-102874535D01*
X136221658Y-102792328D01*
X136405971Y-102649618D01*
X136540173Y-102459021D01*
X136612493Y-102237102D01*
X136614628Y-101992414D01*
X136546193Y-101769266D01*
X136415337Y-101576356D01*
X136233543Y-101430451D01*
X136016884Y-101344451D01*
X135784514Y-101325958D01*
X135556980Y-101376610D01*
X135354398Y-101491926D01*
X135194679Y-101661713D01*
X135091946Y-101870957D01*
X135055279Y-102101158D01*
X132536200Y-102101158D01*
X132536200Y-80342200D01*
X137385800Y-80342200D01*
X137385800Y-80342200D01*
G37*
X137385800Y-80342200D02*
X137385800Y-85233745D01*
X137357645Y-85242893D01*
X137184610Y-85368610D01*
X137058893Y-85541644D01*
X136992800Y-85745059D01*
X136992800Y-85958941D01*
X137058893Y-86162356D01*
X137184610Y-86335390D01*
X137357645Y-86461107D01*
X137385800Y-86470255D01*
X137385800Y-103302800D01*
X132536200Y-103302800D01*
X132536200Y-102101158D01*
X135055279Y-102101158D01*
X135087922Y-102331966D01*
X135186989Y-102542971D01*
X135343720Y-102715519D01*
X135544259Y-102834353D01*
X135770874Y-102888968D01*
X136003530Y-102874535D01*
X136221658Y-102792328D01*
X136405971Y-102649618D01*
X136540173Y-102459021D01*
X136612493Y-102237102D01*
X136614628Y-101992414D01*
X136546193Y-101769266D01*
X136415337Y-101576356D01*
X136233543Y-101430451D01*
X136016884Y-101344451D01*
X135784514Y-101325958D01*
X135556980Y-101376610D01*
X135354398Y-101491926D01*
X135194679Y-101661713D01*
X135091946Y-101870957D01*
X135055279Y-102101158D01*
X132536200Y-102101158D01*
X132536200Y-80342200D01*
X137385800Y-80342200D01*
G36*
X127833993Y-98975266D02*
G01*
X127703137Y-98782356D01*
X127521343Y-98636451D01*
X127360884Y-98572759D01*
X127358688Y-97304418D01*
X127502435Y-97221426D01*
X127632822Y-97066036D01*
X127637356Y-97053577D01*
X128075800Y-97053577D01*
X128075800Y-97256423D01*
X128145178Y-97447036D01*
X128275565Y-97602426D01*
X128451235Y-97703849D01*
X128651000Y-97739073D01*
X128850765Y-97703849D01*
X129026435Y-97602426D01*
X129148783Y-97456617D01*
X129164565Y-97475426D01*
X129340235Y-97576849D01*
X129540000Y-97612073D01*
X129739765Y-97576849D01*
X129915435Y-97475426D01*
X130045822Y-97320036D01*
X130115200Y-97129423D01*
X130115200Y-96926577D01*
X130045822Y-96735964D01*
X129915435Y-96580574D01*
X129739765Y-96479151D01*
X129540000Y-96443927D01*
X129340235Y-96479151D01*
X129164565Y-96580574D01*
X129042217Y-96726383D01*
X129026435Y-96707574D01*
X128850765Y-96606151D01*
X128651000Y-96570927D01*
X128451235Y-96606151D01*
X128275565Y-96707574D01*
X128145178Y-96862964D01*
X128075800Y-97053577D01*
X127637356Y-97053577D01*
X127702200Y-96875423D01*
X127702200Y-96672577D01*
X127632822Y-96481964D01*
X127502435Y-96326574D01*
X127356850Y-96242521D01*
X127354955Y-95147574D01*
X127502435Y-95062426D01*
X127632822Y-94907036D01*
X127702200Y-94716423D01*
X127702200Y-94513577D01*
X127632822Y-94322964D01*
X127502435Y-94167574D01*
X127353110Y-94081362D01*
X127339197Y-86043016D01*
X127539925Y-85977796D01*
X127712959Y-85852079D01*
X127838676Y-85679045D01*
X127904769Y-85475630D01*
X127904769Y-85261748D01*
X127838676Y-85058333D01*
X127712959Y-84885299D01*
X127539925Y-84759582D01*
X127336861Y-84693603D01*
X127329330Y-80342200D01*
X129880800Y-80342200D01*
X129880800Y-80370941D01*
X129946893Y-80574356D01*
X130072610Y-80747390D01*
X130245644Y-80873107D01*
X130449059Y-80939200D01*
X130662941Y-80939200D01*
X130866356Y-80873107D01*
X131039390Y-80747390D01*
X131165107Y-80574356D01*
X131231200Y-80370941D01*
X131231200Y-80342200D01*
X132178930Y-80342200D01*
X132185800Y-84311425D01*
X132185800Y-103302800D01*
X127369070Y-103302800D01*
X127363446Y-100053357D01*
X127509458Y-99998328D01*
X127693771Y-99855618D01*
X127827973Y-99665021D01*
X127900293Y-99443102D01*
X127902352Y-99207059D01*
X130134800Y-99207059D01*
X130134800Y-99420941D01*
X130200893Y-99624356D01*
X130326610Y-99797390D01*
X130499644Y-99923107D01*
X130703059Y-99989200D01*
X130916941Y-99989200D01*
X131120356Y-99923107D01*
X131293390Y-99797390D01*
X131419107Y-99624356D01*
X131485200Y-99420941D01*
X131485200Y-99207059D01*
X131419107Y-99003644D01*
X131293390Y-98830610D01*
X131120356Y-98704893D01*
X130916941Y-98638800D01*
X130703059Y-98638800D01*
X130499644Y-98704893D01*
X130326610Y-98830610D01*
X130200893Y-99003644D01*
X130134800Y-99207059D01*
X127902352Y-99207059D01*
X127902428Y-99198414D01*
X127833993Y-98975266D01*
X127833993Y-98975266D01*
G37*
X127833993Y-98975266D02*
X127703137Y-98782356D01*
X127521343Y-98636451D01*
X127360884Y-98572759D01*
X127358688Y-97304418D01*
X127502435Y-97221426D01*
X127632822Y-97066036D01*
X127637356Y-97053577D01*
X128075800Y-97053577D01*
X128075800Y-97256423D01*
X128145178Y-97447036D01*
X128275565Y-97602426D01*
X128451235Y-97703849D01*
X128651000Y-97739073D01*
X128850765Y-97703849D01*
X129026435Y-97602426D01*
X129148783Y-97456617D01*
X129164565Y-97475426D01*
X129340235Y-97576849D01*
X129540000Y-97612073D01*
X129739765Y-97576849D01*
X129915435Y-97475426D01*
X130045822Y-97320036D01*
X130115200Y-97129423D01*
X130115200Y-96926577D01*
X130045822Y-96735964D01*
X129915435Y-96580574D01*
X129739765Y-96479151D01*
X129540000Y-96443927D01*
X129340235Y-96479151D01*
X129164565Y-96580574D01*
X129042217Y-96726383D01*
X129026435Y-96707574D01*
X128850765Y-96606151D01*
X128651000Y-96570927D01*
X128451235Y-96606151D01*
X128275565Y-96707574D01*
X128145178Y-96862964D01*
X128075800Y-97053577D01*
X127637356Y-97053577D01*
X127702200Y-96875423D01*
X127702200Y-96672577D01*
X127632822Y-96481964D01*
X127502435Y-96326574D01*
X127356850Y-96242521D01*
X127354955Y-95147574D01*
X127502435Y-95062426D01*
X127632822Y-94907036D01*
X127702200Y-94716423D01*
X127702200Y-94513577D01*
X127632822Y-94322964D01*
X127502435Y-94167574D01*
X127353110Y-94081362D01*
X127339197Y-86043016D01*
X127539925Y-85977796D01*
X127712959Y-85852079D01*
X127838676Y-85679045D01*
X127904769Y-85475630D01*
X127904769Y-85261748D01*
X127838676Y-85058333D01*
X127712959Y-84885299D01*
X127539925Y-84759582D01*
X127336861Y-84693603D01*
X127329330Y-80342200D01*
X129880800Y-80342200D01*
X129880800Y-80370941D01*
X129946893Y-80574356D01*
X130072610Y-80747390D01*
X130245644Y-80873107D01*
X130449059Y-80939200D01*
X130662941Y-80939200D01*
X130866356Y-80873107D01*
X131039390Y-80747390D01*
X131165107Y-80574356D01*
X131231200Y-80370941D01*
X131231200Y-80342200D01*
X132178930Y-80342200D01*
X132185800Y-84311425D01*
X132185800Y-103302800D01*
X127369070Y-103302800D01*
X127363446Y-100053357D01*
X127509458Y-99998328D01*
X127693771Y-99855618D01*
X127827973Y-99665021D01*
X127900293Y-99443102D01*
X127902352Y-99207059D01*
X130134800Y-99207059D01*
X130134800Y-99420941D01*
X130200893Y-99624356D01*
X130326610Y-99797390D01*
X130499644Y-99923107D01*
X130703059Y-99989200D01*
X130916941Y-99989200D01*
X131120356Y-99923107D01*
X131293390Y-99797390D01*
X131419107Y-99624356D01*
X131485200Y-99420941D01*
X131485200Y-99207059D01*
X131419107Y-99003644D01*
X131293390Y-98830610D01*
X131120356Y-98704893D01*
X130916941Y-98638800D01*
X130703059Y-98638800D01*
X130499644Y-98704893D01*
X130326610Y-98830610D01*
X130200893Y-99003644D01*
X130134800Y-99207059D01*
X127902352Y-99207059D01*
X127902428Y-99198414D01*
X127833993Y-98975266D01*
G36*
X126971800Y-84742496D02*
G01*
X126919214Y-84759582D01*
X126746179Y-84885299D01*
X126620462Y-85058333D01*
X126554369Y-85261748D01*
X126554369Y-85475630D01*
X126620462Y-85679045D01*
X126746179Y-85852079D01*
X126919214Y-85977796D01*
X126971800Y-85994882D01*
X126971800Y-94058293D01*
X126927235Y-94066151D01*
X126751565Y-94167574D01*
X126621178Y-94322964D01*
X126551800Y-94513577D01*
X126551800Y-94716423D01*
X126621178Y-94907036D01*
X126751565Y-95062426D01*
X126927235Y-95163849D01*
X126971800Y-95171707D01*
X126971800Y-96217293D01*
X126927235Y-96225151D01*
X126751565Y-96326574D01*
X126621178Y-96481964D01*
X126551800Y-96672577D01*
X126551800Y-96875423D01*
X126575101Y-96939442D01*
X126437765Y-96860151D01*
X126238000Y-96824927D01*
X126038235Y-96860151D01*
X125862565Y-96961574D01*
X125732178Y-97116964D01*
X125662800Y-97307577D01*
X125662800Y-97510423D01*
X125732178Y-97701036D01*
X125862565Y-97856426D01*
X126038235Y-97957849D01*
X126238000Y-97993073D01*
X126437765Y-97957849D01*
X126613435Y-97856426D01*
X126743822Y-97701036D01*
X126813200Y-97510423D01*
X126813200Y-97307577D01*
X126789899Y-97243558D01*
X126927235Y-97322849D01*
X126971800Y-97330707D01*
X126971800Y-98554334D01*
X126844780Y-98582611D01*
X126642198Y-98697926D01*
X126482479Y-98867713D01*
X126379746Y-99076957D01*
X126343079Y-99307158D01*
X126375722Y-99537966D01*
X126474789Y-99748971D01*
X126631520Y-99921519D01*
X126832059Y-100040353D01*
X126971800Y-100074031D01*
X126971800Y-103302800D01*
X122122200Y-103302800D01*
X122122200Y-80342200D01*
X126971800Y-80342200D01*
X126971800Y-84742496D01*
X126971800Y-84742496D01*
G37*
X126971800Y-84742496D02*
X126919214Y-84759582D01*
X126746179Y-84885299D01*
X126620462Y-85058333D01*
X126554369Y-85261748D01*
X126554369Y-85475630D01*
X126620462Y-85679045D01*
X126746179Y-85852079D01*
X126919214Y-85977796D01*
X126971800Y-85994882D01*
X126971800Y-94058293D01*
X126927235Y-94066151D01*
X126751565Y-94167574D01*
X126621178Y-94322964D01*
X126551800Y-94513577D01*
X126551800Y-94716423D01*
X126621178Y-94907036D01*
X126751565Y-95062426D01*
X126927235Y-95163849D01*
X126971800Y-95171707D01*
X126971800Y-96217293D01*
X126927235Y-96225151D01*
X126751565Y-96326574D01*
X126621178Y-96481964D01*
X126551800Y-96672577D01*
X126551800Y-96875423D01*
X126575101Y-96939442D01*
X126437765Y-96860151D01*
X126238000Y-96824927D01*
X126038235Y-96860151D01*
X125862565Y-96961574D01*
X125732178Y-97116964D01*
X125662800Y-97307577D01*
X125662800Y-97510423D01*
X125732178Y-97701036D01*
X125862565Y-97856426D01*
X126038235Y-97957849D01*
X126238000Y-97993073D01*
X126437765Y-97957849D01*
X126613435Y-97856426D01*
X126743822Y-97701036D01*
X126813200Y-97510423D01*
X126813200Y-97307577D01*
X126789899Y-97243558D01*
X126927235Y-97322849D01*
X126971800Y-97330707D01*
X126971800Y-98554334D01*
X126844780Y-98582611D01*
X126642198Y-98697926D01*
X126482479Y-98867713D01*
X126379746Y-99076957D01*
X126343079Y-99307158D01*
X126375722Y-99537966D01*
X126474789Y-99748971D01*
X126631520Y-99921519D01*
X126832059Y-100040353D01*
X126971800Y-100074031D01*
X126971800Y-103302800D01*
X122122200Y-103302800D01*
X122122200Y-80342200D01*
X126971800Y-80342200D01*
X126971800Y-84742496D01*
G36*
X117069390Y-86081390D02*
G01*
X117195107Y-85908356D01*
X117261200Y-85704941D01*
X117261200Y-85491059D01*
X117195107Y-85287644D01*
X117069390Y-85114610D01*
X116915200Y-85002584D01*
X116915200Y-80342200D01*
X121748695Y-80342200D01*
X121759354Y-80355745D01*
X121764800Y-80364461D01*
X121764800Y-103302800D01*
X120284813Y-103302800D01*
X120245765Y-103280256D01*
X120046001Y-103245032D01*
X119846237Y-103280256D01*
X119807189Y-103302800D01*
X118339487Y-103302800D01*
X118246071Y-103209384D01*
X118246071Y-103011754D01*
X118176693Y-102821141D01*
X118046306Y-102665751D01*
X117870636Y-102564328D01*
X117670871Y-102529104D01*
X117471106Y-102564328D01*
X117295436Y-102665751D01*
X117165049Y-102821141D01*
X117095671Y-103011754D01*
X117095671Y-103214600D01*
X117127774Y-103302800D01*
X116915200Y-103302800D01*
X116915200Y-102278958D01*
X117986479Y-102278958D01*
X118019122Y-102509766D01*
X118118189Y-102720771D01*
X118274920Y-102893319D01*
X118475459Y-103012153D01*
X118702074Y-103066768D01*
X118934730Y-103052335D01*
X119152858Y-102970128D01*
X119337171Y-102827418D01*
X119471373Y-102636821D01*
X119543693Y-102414902D01*
X119545828Y-102170214D01*
X119477393Y-101947066D01*
X119346537Y-101754156D01*
X119164743Y-101608251D01*
X118948084Y-101522251D01*
X118715714Y-101503758D01*
X118488180Y-101554410D01*
X118285598Y-101669726D01*
X118125879Y-101839513D01*
X118023146Y-102048757D01*
X117986479Y-102278958D01*
X116915200Y-102278958D01*
X116915200Y-86193416D01*
X117069390Y-86081390D01*
X117069390Y-86081390D01*
G37*
X117069390Y-86081390D02*
X117195107Y-85908356D01*
X117261200Y-85704941D01*
X117261200Y-85491059D01*
X117195107Y-85287644D01*
X117069390Y-85114610D01*
X116915200Y-85002584D01*
X116915200Y-80342200D01*
X121748695Y-80342200D01*
X121759354Y-80355745D01*
X121764800Y-80364461D01*
X121764800Y-103302800D01*
X120284813Y-103302800D01*
X120245765Y-103280256D01*
X120046001Y-103245032D01*
X119846237Y-103280256D01*
X119807189Y-103302800D01*
X118339487Y-103302800D01*
X118246071Y-103209384D01*
X118246071Y-103011754D01*
X118176693Y-102821141D01*
X118046306Y-102665751D01*
X117870636Y-102564328D01*
X117670871Y-102529104D01*
X117471106Y-102564328D01*
X117295436Y-102665751D01*
X117165049Y-102821141D01*
X117095671Y-103011754D01*
X117095671Y-103214600D01*
X117127774Y-103302800D01*
X116915200Y-103302800D01*
X116915200Y-102278958D01*
X117986479Y-102278958D01*
X118019122Y-102509766D01*
X118118189Y-102720771D01*
X118274920Y-102893319D01*
X118475459Y-103012153D01*
X118702074Y-103066768D01*
X118934730Y-103052335D01*
X119152858Y-102970128D01*
X119337171Y-102827418D01*
X119471373Y-102636821D01*
X119543693Y-102414902D01*
X119545828Y-102170214D01*
X119477393Y-101947066D01*
X119346537Y-101754156D01*
X119164743Y-101608251D01*
X118948084Y-101522251D01*
X118715714Y-101503758D01*
X118488180Y-101554410D01*
X118285598Y-101669726D01*
X118125879Y-101839513D01*
X118023146Y-102048757D01*
X117986479Y-102278958D01*
X116915200Y-102278958D01*
X116915200Y-86193416D01*
X117069390Y-86081390D01*
M02*
