M48
; DRILL file {KiCad (5.1.0-1558-g0ba0c1724)} date Tue 01 Oct 2019 09:27:52 PM PDT
; FORMAT={-:-/ absolute / metric / decimal}
; #@! TF.CreationDate,2019-10-01T21:27:52-07:00
; #@! TF.GenerationSoftware,Kicad,Pcbnew,(5.1.0-1558-g0ba0c1724)
; #@! TF.FileFunction,Plated,1,4,PTH
FMAT,2
METRIC
T1C0.300
T2C0.400
T3C0.500
T4C1.000
%
G90
G05
T1
X114.172Y-80.02
X114.976Y-79.756
X115.24Y-78.715
X116.103Y-79.475
X116.865Y-79.197
X117.534Y-104.893
X117.671Y-103.113
X118.775Y-104.652
X118.775Y-106.052
X119.902Y-106.31
X120.046Y-103.829
X120.167Y-105.435
X121.029Y-106.194
X125.222Y-104.648
X125.857Y-105.537
X126.238Y-97.409
X127.127Y-94.615
X127.127Y-96.774
X128.651Y-97.155
X129.54Y-97.028
T2
X114.046Y-81.026
X114.554Y-85.598
X115.57Y-85.598
X116.586Y-77.216
X116.586Y-85.598
X127.23Y-85.369
X130.556Y-80.264
X130.81Y-99.314
X136.144Y-76.962
X137.668Y-85.852
X138.684Y-85.852
X139.192Y-103.251
X139.7Y-85.852
X140.208Y-80.772
X141.097Y-103.251
T3
X113.081Y-78.486
X114.148Y-89.586
X114.173Y-95.453
X114.173Y-98.4
X114.198Y-92.405
X115.113Y-77.597
X117.729Y-96.774
X117.983Y-88.9
X117.983Y-91.567
X118.11Y-94.107
X118.77Y-102.286
X119.38Y-90.17
X119.38Y-92.792
X119.38Y-95.631
X122.936Y-87.376
X122.936Y-90.424
X124.46Y-85.852
X124.46Y-88.9
X124.46Y-91.948
X125.984Y-87.376
X125.984Y-90.424
X125.984Y-93.472
X127.127Y-99.314
X127.127Y-105.41
X128.016Y-75.692
X128.016Y-87.376
X128.016Y-90.424
X128.016Y-93.472
X129.54Y-85.852
X129.54Y-88.9
X129.54Y-91.948
X131.064Y-87.376
X131.064Y-90.424
X131.318Y-105.41
X134.874Y-89.662
X134.874Y-92.501
X134.874Y-95.123
X135.839Y-102.108
X136.144Y-88.392
X136.144Y-91.186
X136.271Y-93.726
X136.525Y-96.647
X138.684Y-77.216
X138.684Y-78.892
X138.938Y-89.408
X139.192Y-92.71
X139.192Y-95.758
X139.192Y-97.79
X139.192Y-101.092
X141.224Y-89.408
X141.224Y-92.71
X141.224Y-95.758
X141.224Y-97.79
X141.224Y-101.092
T4
X122.809Y-78.562
X125.349Y-78.562
X127.889Y-78.562
X130.429Y-78.562
T0
M30
