G04 #@! TF.GenerationSoftware,KiCad,Pcbnew,(5.99.0-1251-g6aaee01f1)*
G04 #@! TF.CreationDate,2020-04-14T14:04:16-07:00*
G04 #@! TF.ProjectId,TMC2209_Driver,544d4332-3230-4395-9f44-72697665722e,rev?*
G04 #@! TF.SameCoordinates,PX67f3540PY6cb8080*
G04 #@! TF.FileFunction,Copper,L1,Top*
G04 #@! TF.FilePolarity,Positive*
%FSLAX46Y46*%
G04 Gerber Fmt 4.6, Leading zero omitted, Abs format (unit mm)*
G04 Created by KiCad (PCBNEW (5.99.0-1251-g6aaee01f1)) date 2020-04-14 14:04:16*
%MOMM*%
%LPD*%
G01*
G04 APERTURE LIST*
G04 #@! TA.AperFunction,SMDPad,CuDef*
%ADD10R,3.700000X3.700000*%
G04 #@! TD*
G04 #@! TA.AperFunction,SMDPad,CuDef*
%ADD11R,0.250000X0.800000*%
G04 #@! TD*
G04 #@! TA.AperFunction,SMDPad,CuDef*
%ADD12R,0.800000X0.250000*%
G04 #@! TD*
G04 #@! TA.AperFunction,SMDPad,CuDef*
%ADD13R,0.680000X0.300000*%
G04 #@! TD*
G04 #@! TA.AperFunction,SMDPad,CuDef*
%ADD14R,1.450000X1.560000*%
G04 #@! TD*
G04 #@! TA.AperFunction,SMDPad,CuDef*
%ADD15R,0.875000X0.950000*%
G04 #@! TD*
G04 #@! TA.AperFunction,SMDPad,CuDef*
%ADD16R,0.650000X0.400000*%
G04 #@! TD*
G04 #@! TA.AperFunction,ComponentPad*
%ADD17C,1.778000*%
G04 #@! TD*
G04 #@! TA.AperFunction,ComponentPad*
%ADD18R,1.778000X1.778000*%
G04 #@! TD*
G04 #@! TA.AperFunction,ConnectorPad*
%ADD19C,0.650000*%
G04 #@! TD*
G04 #@! TA.AperFunction,ConnectorPad*
%ADD20R,0.650000X4.600000*%
G04 #@! TD*
G04 #@! TA.AperFunction,ConnectorPad*
%ADD21R,0.650000X3.600000*%
G04 #@! TD*
G04 #@! TA.AperFunction,SMDPad,CuDef*
%ADD22R,3.000000X0.127000*%
G04 #@! TD*
G04 #@! TA.AperFunction,SMDPad,CuDef*
%ADD23R,0.127000X3.000000*%
G04 #@! TD*
G04 #@! TA.AperFunction,SMDPad,CuDef*
%ADD24R,1.250000X1.750000*%
G04 #@! TD*
G04 #@! TA.AperFunction,SMDPad,CuDef*
%ADD25R,0.590000X0.640000*%
G04 #@! TD*
G04 #@! TA.AperFunction,ViaPad*
%ADD26C,0.600000*%
G04 #@! TD*
G04 #@! TA.AperFunction,ViaPad*
%ADD27C,0.800000*%
G04 #@! TD*
G04 #@! TA.AperFunction,ViaPad*
%ADD28C,1.000000*%
G04 #@! TD*
G04 #@! TA.AperFunction,ViaPad*
%ADD29C,0.508000*%
G04 #@! TD*
G04 #@! TA.AperFunction,ViaPad*
%ADD30C,0.635000*%
G04 #@! TD*
G04 #@! TA.AperFunction,Conductor*
%ADD31C,0.250000*%
G04 #@! TD*
G04 #@! TA.AperFunction,Conductor*
%ADD32C,0.650000*%
G04 #@! TD*
G04 #@! TA.AperFunction,Conductor*
%ADD33C,0.152400*%
G04 #@! TD*
G04 #@! TA.AperFunction,Conductor*
%ADD34C,0.254000*%
G04 #@! TD*
G04 #@! TA.AperFunction,Conductor*
%ADD35C,0.508000*%
G04 #@! TD*
G04 #@! TA.AperFunction,Conductor*
%ADD36C,1.500000*%
G04 #@! TD*
G04 #@! TA.AperFunction,Conductor*
%ADD37C,0.203200*%
G04 #@! TD*
G04 APERTURE END LIST*
G04 #@! TA.AperFunction,SMDPad,CuDef*
G36*
G01*
X32700000Y11200000D02*
X32700000Y12300000D01*
G75*
G02*
X32950000Y12550000I250000J0D01*
G01*
X35950000Y12550000D01*
G75*
G02*
X36200000Y12300000I0J-250000D01*
G01*
X36200000Y11200000D01*
G75*
G02*
X35950000Y10950000I-250000J0D01*
G01*
X32950000Y10950000D01*
G75*
G02*
X32700000Y11200000I0J250000D01*
G01*
G37*
G04 #@! TD.AperFunction*
G04 #@! TA.AperFunction,SMDPad,CuDef*
G36*
G01*
X27300000Y11200000D02*
X27300000Y12300000D01*
G75*
G02*
X27550000Y12550000I250000J0D01*
G01*
X30550000Y12550000D01*
G75*
G02*
X30800000Y12300000I0J-250000D01*
G01*
X30800000Y11200000D01*
G75*
G02*
X30550000Y10950000I-250000J0D01*
G01*
X27550000Y10950000D01*
G75*
G02*
X27300000Y11200000I0J250000D01*
G01*
G37*
G04 #@! TD.AperFunction*
D10*
X17682500Y22941000D03*
D11*
X16182500Y25441000D03*
X16682499Y25441000D03*
X17182501Y25441000D03*
X17682500Y25441000D03*
X18182499Y25441000D03*
X18682501Y25441000D03*
X19182500Y25441000D03*
D12*
X20182500Y24441000D03*
X20182500Y23941001D03*
X20182500Y23440999D03*
X20182500Y22941000D03*
X20182500Y22441001D03*
X20182500Y21940999D03*
X20182500Y21441000D03*
D11*
X19182500Y20441000D03*
X18682501Y20441000D03*
X18182499Y20441000D03*
X17682500Y20441000D03*
X17182501Y20441000D03*
X16682499Y20441000D03*
X16182500Y20441000D03*
D12*
X15182500Y21441000D03*
X15182500Y21940999D03*
X15182500Y22441001D03*
X15182500Y22941000D03*
X15182500Y23440999D03*
X15182500Y23941001D03*
X15182500Y24441000D03*
D13*
X3101800Y13581800D03*
X3101800Y13081800D03*
X3101800Y12581800D03*
X3101800Y12081800D03*
X5821800Y13581800D03*
X5821800Y13081800D03*
X5821800Y12581800D03*
X5821800Y12081800D03*
D14*
X4461800Y12831800D03*
D15*
X5909700Y14965400D03*
X4334700Y14965400D03*
X10850000Y14051000D03*
X9275000Y14051000D03*
D16*
X10885500Y12415000D03*
X10885500Y11115000D03*
X8985500Y11765000D03*
X8985500Y11115000D03*
X8985500Y12415000D03*
G04 #@! TA.AperFunction,SMDPad,CuDef*
G36*
G01*
X12425000Y29638400D02*
X12425000Y31788400D01*
G75*
G02*
X12675000Y32038400I250000J0D01*
G01*
X13425000Y32038400D01*
G75*
G02*
X13675000Y31788400I0J-250000D01*
G01*
X13675000Y29638400D01*
G75*
G02*
X13425000Y29388400I-250000J0D01*
G01*
X12675000Y29388400D01*
G75*
G02*
X12425000Y29638400I0J250000D01*
G01*
G37*
G04 #@! TD.AperFunction*
G04 #@! TA.AperFunction,SMDPad,CuDef*
G36*
G01*
X9625000Y29638400D02*
X9625000Y31788400D01*
G75*
G02*
X9875000Y32038400I250000J0D01*
G01*
X10625000Y32038400D01*
G75*
G02*
X10875000Y31788400I0J-250000D01*
G01*
X10875000Y29638400D01*
G75*
G02*
X10625000Y29388400I-250000J0D01*
G01*
X9875000Y29388400D01*
G75*
G02*
X9625000Y29638400I0J250000D01*
G01*
G37*
G04 #@! TD.AperFunction*
G04 #@! TA.AperFunction,SMDPad,CuDef*
G36*
G01*
X22816000Y31813800D02*
X22816000Y29663800D01*
G75*
G02*
X22566000Y29413800I-250000J0D01*
G01*
X21816000Y29413800D01*
G75*
G02*
X21566000Y29663800I0J250000D01*
G01*
X21566000Y31813800D01*
G75*
G02*
X21816000Y32063800I250000J0D01*
G01*
X22566000Y32063800D01*
G75*
G02*
X22816000Y31813800I0J-250000D01*
G01*
G37*
G04 #@! TD.AperFunction*
G04 #@! TA.AperFunction,SMDPad,CuDef*
G36*
G01*
X25616000Y31813800D02*
X25616000Y29663800D01*
G75*
G02*
X25366000Y29413800I-250000J0D01*
G01*
X24616000Y29413800D01*
G75*
G02*
X24366000Y29663800I0J250000D01*
G01*
X24366000Y31813800D01*
G75*
G02*
X24616000Y32063800I250000J0D01*
G01*
X25366000Y32063800D01*
G75*
G02*
X25616000Y31813800I0J-250000D01*
G01*
G37*
G04 #@! TD.AperFunction*
D15*
X8805000Y34879000D03*
X10380000Y34879000D03*
X8830500Y36530000D03*
X10405500Y36530000D03*
X26407500Y35006000D03*
X24832500Y35006000D03*
X26407500Y36530000D03*
X24832500Y36530000D03*
X12412000Y10876000D03*
X13987000Y10876000D03*
D17*
X21429000Y35437800D03*
X18889000Y35437800D03*
X16349000Y35437800D03*
D18*
X13809000Y35437800D03*
D19*
X9652800Y1014800D03*
X25652800Y1014800D03*
X24652800Y1014800D03*
X23652800Y1014800D03*
X22652800Y1014800D03*
X21652800Y1014800D03*
X8652800Y1014800D03*
X18652800Y1014800D03*
X17652800Y1014800D03*
X16652800Y1014800D03*
X15652800Y1014800D03*
X14652800Y1014800D03*
X13652800Y1014800D03*
X12652800Y1014800D03*
X11652800Y1014800D03*
X10652800Y1014800D03*
D20*
X22652800Y3314800D03*
X21652800Y3314800D03*
X27652800Y3314800D03*
D21*
X26652800Y3814800D03*
D20*
X25652800Y3314800D03*
X24652800Y3314800D03*
X23652800Y3314800D03*
X18652800Y3314800D03*
X17652800Y3314800D03*
X16652800Y3314800D03*
X15652800Y3314800D03*
X14652800Y3314800D03*
X13652800Y3314800D03*
X12652800Y3314800D03*
X11652800Y3314800D03*
X10652800Y3314800D03*
X9652800Y3314800D03*
X8652800Y3314800D03*
D19*
X27652800Y1014800D03*
D22*
X1744000Y8000000D03*
D23*
X1744000Y8000000D03*
D22*
X34764000Y37546000D03*
D23*
X34764000Y37546000D03*
D22*
X34764000Y8000000D03*
D23*
X34764000Y8000000D03*
D22*
X1744000Y37546000D03*
D23*
X1744000Y37546000D03*
D24*
X29046000Y27640000D03*
X31846000Y27640000D03*
X7208000Y27640000D03*
X4408000Y27640000D03*
D25*
X13428000Y26878000D03*
X12458000Y26878000D03*
X21856000Y26878000D03*
X22826000Y26878000D03*
D15*
X10735500Y21163000D03*
X12310500Y21163000D03*
X10710000Y22814000D03*
X12285000Y22814000D03*
X12361000Y18623000D03*
X13936000Y18623000D03*
X22800500Y20401000D03*
X24375500Y20401000D03*
D26*
X4055400Y12400000D03*
X4842800Y12400000D03*
X4842800Y13263600D03*
X4055400Y13263600D03*
D27*
X35500000Y10500000D03*
X35500000Y13000000D03*
D26*
X21714328Y8976928D03*
X21886200Y10291800D03*
D28*
X4030000Y33228000D03*
X7586000Y30942000D03*
X5808000Y33228000D03*
X7586000Y33228000D03*
X5808000Y30942000D03*
X1998000Y30942000D03*
X1998000Y33228000D03*
X4030000Y30942000D03*
X34002000Y33228000D03*
X32224000Y33228000D03*
X30446000Y33228000D03*
X28414000Y33228000D03*
X34002000Y30942000D03*
X32224000Y30942000D03*
X30446000Y30942000D03*
X28414000Y30942000D03*
D26*
X26794710Y21010600D03*
X25848600Y22687000D03*
X8652800Y7980400D03*
X22851400Y14813000D03*
X9694200Y23804600D03*
X11269000Y18623000D03*
X25493000Y20401000D03*
X24350000Y26878000D03*
X11269000Y26878000D03*
D29*
X17085600Y24211000D03*
X18927100Y22306000D03*
X18927100Y23576000D03*
X18355600Y24211000D03*
X17720600Y22306000D03*
X17085600Y22941000D03*
X16450600Y22306000D03*
X16450600Y23576000D03*
X17720600Y23576000D03*
X18355600Y22941000D03*
X18355600Y21671000D03*
X17085600Y21671000D03*
X19422400Y32720000D03*
X18254000Y28224200D03*
X18330200Y32720000D03*
X18127000Y26497000D03*
X17060200Y32720000D03*
X15968000Y32720000D03*
X17111000Y28224200D03*
X17238000Y26497000D03*
D30*
X22368800Y25633400D03*
X20971800Y25633400D03*
X21683000Y25633400D03*
X22343400Y24566600D03*
X21657600Y24592000D03*
X12996200Y25582600D03*
X13707400Y25582600D03*
X14393200Y25582600D03*
X13682000Y24541200D03*
X12996200Y24541200D03*
D26*
X8475000Y13987500D03*
X17936500Y15638500D03*
X17296740Y16765207D03*
X19198233Y14947462D03*
X16547180Y15605831D03*
X20772955Y14930947D03*
X3496600Y14990800D03*
X6798600Y13085800D03*
X12285000Y6380200D03*
X14113800Y6354800D03*
X13529600Y11866600D03*
X11654006Y11799326D03*
X12541045Y11741645D03*
X18660400Y6380200D03*
X14799600Y11866600D03*
X9603597Y8166166D03*
X22699000Y9987000D03*
X16370726Y9287672D03*
X9059200Y8717000D03*
X3081143Y11532112D03*
X18739754Y8116988D03*
X17483320Y7056829D03*
X18406400Y15016200D03*
X6519200Y11028400D03*
X7257181Y9249019D03*
X7800859Y10719768D03*
X15002800Y6532600D03*
X16653800Y7400979D03*
X18152400Y8640800D03*
X21491077Y7755937D03*
X15683714Y9694099D03*
X8620401Y10948379D03*
X9797749Y10948379D03*
X9668800Y6862800D03*
D31*
X29050000Y11750000D02*
X28250000Y12550000D01*
X10964200Y17302200D02*
X7738400Y20528000D01*
X7738400Y25430200D02*
X10430800Y28122600D01*
X10430800Y28122600D02*
X13500900Y28122600D01*
X16986400Y12550000D02*
X12234200Y17302200D01*
X28250000Y12550000D02*
X16986400Y12550000D01*
X7738400Y20528000D02*
X7738400Y25430200D01*
X13500900Y28122600D02*
X16182500Y25441000D01*
X12234200Y17302200D02*
X10964200Y17302200D01*
X19182500Y25441000D02*
X19182500Y25571300D01*
X21479800Y27868600D02*
X24213954Y27868600D01*
X19182500Y25571300D02*
X21479800Y27868600D01*
X24213954Y27868600D02*
X29050000Y23032554D01*
X29050000Y23032554D02*
X29050000Y11750000D01*
X16182500Y25441000D02*
X16182500Y25444300D01*
X16182500Y25444300D02*
X14748800Y26878000D01*
X14748800Y26878000D02*
X13428000Y26878000D01*
X29046000Y27640000D02*
X22473678Y27640000D01*
X22473678Y27640000D02*
X21856000Y27022322D01*
X21856000Y27022322D02*
X21856000Y26878000D01*
X19182500Y25441000D02*
X19255400Y25441000D01*
X19255400Y25441000D02*
X20692400Y26878000D01*
X20692400Y26878000D02*
X21856000Y26878000D01*
D32*
X34450000Y11550000D02*
X35500000Y10500000D01*
X34450000Y11750000D02*
X34450000Y11550000D01*
X34450000Y11950000D02*
X35500000Y13000000D01*
X34450000Y11750000D02*
X34450000Y11950000D01*
D33*
X20182500Y23440999D02*
X25094601Y23440999D01*
X25094601Y23440999D02*
X25848600Y22687000D01*
X21479147Y8284547D02*
X20742547Y8284547D01*
X22166253Y8284547D02*
X21479147Y8284547D01*
X18739754Y8161354D02*
X18862947Y8284547D01*
X18739754Y8116988D02*
X18739754Y8161354D01*
X20029600Y21940999D02*
X25864311Y21940999D01*
X25864311Y21940999D02*
X26394711Y21410599D01*
X26394711Y21410599D02*
X26794710Y21010600D01*
X25112000Y23423600D02*
X25848600Y22687000D01*
D34*
X8652800Y7980400D02*
X8652800Y3314800D01*
D32*
X22800500Y14863900D02*
X22851400Y14813000D01*
X22800500Y20401000D02*
X22800500Y14863900D01*
D34*
X9795800Y23703000D02*
X9694200Y23804600D01*
X14388600Y23703000D02*
X9795800Y23703000D01*
X15335400Y23941001D02*
X14626601Y23941001D01*
X14626601Y23941001D02*
X14388600Y23703000D01*
X20029600Y23941001D02*
X18682501Y23941001D01*
X18682501Y23941001D02*
X17682500Y22941000D01*
X21784600Y3446600D02*
X21652800Y3314800D01*
D32*
X12564400Y10723600D02*
X12412000Y10876000D01*
X13986800Y10875800D02*
X13987000Y10876000D01*
X23664200Y6276200D02*
X23664200Y8437600D01*
X23652800Y3314800D02*
X23652800Y6264800D01*
X23652800Y6264800D02*
X23664200Y6276200D01*
X24654800Y6266800D02*
X24654800Y8488400D01*
X24652800Y3314800D02*
X24652800Y6264800D01*
X24652800Y6264800D02*
X24654800Y6266800D01*
X25652800Y7987800D02*
X25899400Y8234400D01*
X25652800Y3314800D02*
X25652800Y7987800D01*
X26661400Y6273400D02*
X26661400Y8107400D01*
X26652800Y3814800D02*
X26652800Y6264800D01*
X26652800Y6264800D02*
X26661400Y6273400D01*
X27652000Y6265600D02*
X27652000Y8336000D01*
X27652800Y3314800D02*
X27652800Y6264800D01*
X27652800Y6264800D02*
X27652000Y6265600D01*
D35*
X12361000Y18623000D02*
X11269000Y18623000D01*
X24375500Y20401000D02*
X25493000Y20401000D01*
X22826000Y26878000D02*
X24350000Y26878000D01*
D36*
X31846000Y27640000D02*
X31846000Y29669000D01*
X4408000Y27640000D02*
X4408000Y29542000D01*
D35*
X12458000Y26878000D02*
X11269000Y26878000D01*
D34*
X15335400Y22941000D02*
X12412000Y22941000D01*
X12412000Y22941000D02*
X12285000Y22814000D01*
X13936000Y18623000D02*
X13936000Y18660500D01*
X13936000Y18660500D02*
X15869400Y20593900D01*
X15869400Y20593900D02*
X16182500Y20593900D01*
X20029600Y21441000D02*
X21798000Y21441000D01*
X21798000Y21441000D02*
X22800500Y20438500D01*
X22800500Y20438500D02*
X22800500Y20401000D01*
D35*
X24832500Y35006000D02*
X21860800Y35006000D01*
X21860800Y35006000D02*
X21429000Y35437800D01*
X10380000Y34879000D02*
X13250200Y34879000D01*
X13250200Y34879000D02*
X13809000Y35437800D01*
D34*
X18682501Y20593900D02*
X18682501Y21426401D01*
X18682501Y21426401D02*
X18927100Y21671000D01*
X15335400Y23440999D02*
X17182501Y23440999D01*
X17182501Y23440999D02*
X17682500Y22941000D01*
X20029600Y22941000D02*
X17682500Y22941000D01*
X17682500Y25288100D02*
X17682500Y23614100D01*
X17682500Y23614100D02*
X17720600Y23576000D01*
D35*
X9275000Y14051000D02*
X8538500Y14051000D01*
X8538500Y14051000D02*
X8475000Y13987500D01*
D34*
X10850000Y14013500D02*
X10850000Y14051000D01*
X10850000Y12450500D02*
X10885500Y12415000D01*
X10850000Y14051000D02*
X10850000Y12450500D01*
D32*
X20756440Y14947462D02*
X20772955Y14930947D01*
X20717723Y14930947D02*
X20772955Y14930947D01*
X19198233Y14947462D02*
X20756440Y14947462D01*
D35*
X4334700Y14965400D02*
X3522000Y14965400D01*
X3522000Y14965400D02*
X3496600Y14990800D01*
D37*
X5911800Y14963300D02*
X5909700Y14965400D01*
X5911800Y13581800D02*
X5911800Y14963300D01*
X6550400Y14965400D02*
X5909700Y14965400D01*
X9973100Y14965400D02*
X6550400Y14965400D01*
X10850000Y14088500D02*
X9973100Y14965400D01*
X10850000Y14051000D02*
X10850000Y14088500D01*
X5911800Y13081800D02*
X6794600Y13081800D01*
X6794600Y13081800D02*
X6798600Y13085800D01*
X12412000Y10197800D02*
X12386600Y10172400D01*
X12412000Y10876000D02*
X12412000Y10197800D01*
X12386600Y10172400D02*
X12386600Y6481800D01*
X12386600Y6481800D02*
X12285000Y6380200D01*
X13987000Y10876000D02*
X13987000Y6481600D01*
X13987000Y6481600D02*
X14113800Y6354800D01*
D35*
X10850000Y14051000D02*
X11345200Y14051000D01*
D37*
X11619680Y11765000D02*
X11654006Y11799326D01*
D34*
X12412000Y11612600D02*
X12541045Y11741645D01*
X12412000Y10876000D02*
X12412000Y11612600D01*
D35*
X11345200Y14051000D02*
X13529600Y11866600D01*
D37*
X8985500Y11765000D02*
X11619680Y11765000D01*
D32*
X18652800Y3314800D02*
X18652800Y6372600D01*
X18652800Y6372600D02*
X18660400Y6380200D01*
D33*
X20862312Y8284547D02*
X20742547Y8284547D01*
X15652800Y9663185D02*
X15683714Y9694099D01*
X9000429Y9322229D02*
X9000429Y8775771D01*
X9000429Y8775771D02*
X9059200Y8717000D01*
X2836200Y9682200D02*
X2940990Y9577410D01*
X3011800Y12081800D02*
X3081143Y12012457D01*
X2711800Y12581800D02*
X2472491Y12342492D01*
X8583129Y9739529D02*
X9000429Y9322229D01*
X3081143Y12012457D02*
X3081143Y11956376D01*
X2836200Y9682200D02*
X3269381Y9249019D01*
X3011800Y12581800D02*
X2711800Y12581800D01*
X3081143Y11956376D02*
X3081143Y11532112D01*
X3011800Y13081800D02*
X2711800Y13081800D01*
X3413871Y9739529D02*
X1998000Y11155400D01*
X1743989Y10774411D02*
X2836200Y9682200D01*
X2634800Y13081800D02*
X3101800Y13081800D01*
X1998000Y12445000D02*
X2634800Y13081800D01*
X1998000Y11155400D02*
X1998000Y12445000D01*
X22699000Y9987000D02*
X22357051Y9645051D01*
X17483320Y7481093D02*
X17483320Y7056829D01*
D34*
X10710000Y22776500D02*
X10710000Y22814000D01*
X11426901Y22059599D02*
X10710000Y22776500D01*
X14147098Y22059599D02*
X11426901Y22059599D01*
X14528500Y22441001D02*
X14147098Y22059599D01*
X15182500Y22441001D02*
X14528500Y22441001D01*
X13002000Y21163000D02*
X12310500Y21163000D01*
X14654577Y21940999D02*
X13876578Y21163000D01*
X13876578Y21163000D02*
X13002000Y21163000D01*
X15182500Y21940999D02*
X14654577Y21940999D01*
D33*
X19182500Y15792300D02*
X19182500Y20441000D01*
X18406400Y15016200D02*
X19182500Y15792300D01*
X17825341Y15749659D02*
X17936500Y15638500D01*
X17825341Y17018936D02*
X17825341Y15749659D01*
X17682500Y17161777D02*
X17825341Y17018936D01*
X17682500Y20441000D02*
X17682500Y17161777D01*
X17182501Y16879446D02*
X17296740Y16765207D01*
X17182501Y20441000D02*
X17182501Y16879446D01*
X16682499Y15741150D02*
X16547180Y15605831D01*
X16682499Y20441000D02*
X16682499Y15741150D01*
D35*
X15460001Y36326799D02*
X16349000Y35437800D01*
X11554201Y36733201D02*
X15053599Y36733201D01*
X11351000Y36530000D02*
X11554201Y36733201D01*
X15053599Y36733201D02*
X15460001Y36326799D01*
X10405500Y36530000D02*
X11351000Y36530000D01*
X19777999Y36326799D02*
X18889000Y35437800D01*
X24666799Y36733201D02*
X20184401Y36733201D01*
X24832500Y36567500D02*
X24666799Y36733201D01*
X20184401Y36733201D02*
X19777999Y36326799D01*
X24832500Y36530000D02*
X24832500Y36567500D01*
D33*
X2693575Y13581800D02*
X2212087Y13100313D01*
X2212087Y13100313D02*
X2212087Y13090153D01*
X1693192Y10825208D02*
X3269381Y9249019D01*
X3101800Y13581800D02*
X2693575Y13581800D01*
X1693190Y10825210D02*
X1693192Y10825208D01*
X2212087Y13090153D02*
X1693190Y12571256D01*
X1693190Y12571256D02*
X1693190Y10825210D01*
X2472491Y12342492D02*
X2472491Y11112709D01*
X3525961Y10059239D02*
X4076839Y10059239D01*
X2472491Y11112709D02*
X3525961Y10059239D01*
X3860329Y10059239D02*
X4076839Y10059239D01*
X6519200Y11384400D02*
X5821800Y12081800D01*
X6519200Y11028400D02*
X6519200Y11384400D01*
X3269381Y9249019D02*
X7257181Y9249019D01*
X7510910Y9777620D02*
X7549001Y9739529D01*
X7549001Y9739529D02*
X8583129Y9739529D01*
X7003452Y9777620D02*
X7510910Y9777620D01*
X3413871Y9739529D02*
X6965361Y9739529D01*
X4076839Y10059239D02*
X4334809Y10317209D01*
X9603597Y9195488D02*
X9603597Y8590430D01*
X7800859Y11144032D02*
X7800859Y10719768D01*
X4334809Y10317209D02*
X7458257Y10317209D01*
X8739846Y10059239D02*
X9603597Y9195488D01*
X6363091Y12581800D02*
X7800859Y11144032D01*
X6965361Y9739529D02*
X7003452Y9777620D01*
X7458257Y10317209D02*
X7716227Y10059239D01*
X5911800Y12581800D02*
X6363091Y12581800D01*
X9603597Y8590430D02*
X9603597Y8166166D01*
X7716227Y10059239D02*
X8739846Y10059239D01*
X16070727Y5871873D02*
X16652800Y5289800D01*
X16652800Y5289800D02*
X16652800Y3314800D01*
X16070727Y8987673D02*
X16070727Y5871873D01*
X16370726Y9287672D02*
X16070727Y8987673D01*
X21886200Y10291800D02*
X17618240Y10291800D01*
X17618240Y10291800D02*
X16953799Y9627359D01*
X16953799Y9627359D02*
X16953799Y7700978D01*
X16953799Y7700978D02*
X16653800Y7400979D01*
X17483320Y9319822D02*
X17808549Y9645051D01*
X17483320Y8454320D02*
X17483320Y9319822D01*
X17483320Y8454320D02*
X17483320Y7481093D01*
X17483320Y8583284D02*
X17483320Y8454320D01*
X22357051Y9645051D02*
X17808549Y9645051D01*
X21290064Y8976928D02*
X21714328Y8976928D01*
X18576664Y8640800D02*
X18912792Y8976928D01*
X18912792Y8976928D02*
X21290064Y8976928D01*
X18152400Y8640800D02*
X18576664Y8640800D01*
X22652800Y7803208D02*
X22652800Y3314800D01*
X22647592Y7803208D02*
X22652800Y7803208D01*
X22166253Y8284547D02*
X22647592Y7803208D01*
X19904347Y8284547D02*
X22166253Y8284547D01*
X18862947Y8284547D02*
X19904347Y8284547D01*
X21652800Y3314800D02*
X21652800Y7594214D01*
X19904347Y8284547D02*
X21479147Y8284547D01*
X21652800Y7594214D02*
X21491077Y7755937D01*
X15652800Y8757400D02*
X15652800Y9663185D01*
D32*
X14799600Y11866600D02*
X14906312Y11759888D01*
D33*
X15652800Y3314800D02*
X15652800Y8757400D01*
D32*
X14906312Y7053352D02*
X15002800Y6956864D01*
X14906312Y11759888D02*
X14906312Y7053352D01*
X15002800Y6956864D02*
X15002800Y6532600D01*
D33*
X11661187Y9986913D02*
X10885500Y10762600D01*
X10885500Y10762600D02*
X10885500Y11115000D01*
X11661187Y6182587D02*
X11661187Y9986913D01*
X11652800Y6174200D02*
X11661187Y6182587D01*
X11652800Y3314800D02*
X11652800Y6174200D01*
X10097748Y10648380D02*
X9797749Y10948379D01*
X10652800Y3314800D02*
X10652800Y10093328D01*
D35*
X8985500Y11115000D02*
X8947968Y11152532D01*
D33*
X10652800Y10093328D02*
X10097748Y10648380D01*
D35*
X8824554Y11152532D02*
X8620401Y10948379D01*
X8947968Y11152532D02*
X8824554Y11152532D01*
D33*
X9668800Y3330800D02*
X9652800Y3314800D01*
X9668800Y6862800D02*
X9668800Y3330800D01*
G36*
X15559855Y24847355D02*
G01*
X15552327Y24809510D01*
X15551114Y24797190D01*
X15551114Y24347387D01*
X15383064Y24347387D01*
X15374093Y24348401D01*
X14696077Y24348401D01*
X14687636Y24351365D01*
X14659441Y24354577D01*
X14603942Y24348401D01*
X14587808Y24348401D01*
X14573753Y24346818D01*
X14558540Y24343348D01*
X14503612Y24337235D01*
X14476765Y24327873D01*
X14468802Y24322878D01*
X14459575Y24320773D01*
X14434004Y24308466D01*
X14406063Y24286200D01*
X12690400Y24286200D01*
X12690400Y25964600D01*
X14442610Y25964600D01*
X15559855Y24847355D01*
G37*
D34*
X15559855Y24847355D02*
X15552327Y24809510D01*
X15551114Y24797190D01*
X15551114Y24347387D01*
X15383064Y24347387D01*
X15374093Y24348401D01*
X14696077Y24348401D01*
X14687636Y24351365D01*
X14659441Y24354577D01*
X14603942Y24348401D01*
X14587808Y24348401D01*
X14573753Y24346818D01*
X14558540Y24343348D01*
X14503612Y24337235D01*
X14476765Y24327873D01*
X14468802Y24322878D01*
X14459575Y24320773D01*
X14434004Y24308466D01*
X14406063Y24286200D01*
X12690400Y24286200D01*
X12690400Y25964600D01*
X14442610Y25964600D01*
X15559855Y24847355D01*
G36*
X22649200Y24260800D02*
G01*
X20785640Y24260800D01*
X20772695Y24273745D01*
X20701649Y24321218D01*
X20678717Y24330717D01*
X20601010Y24346174D01*
X20588690Y24347387D01*
X20077264Y24347387D01*
X20068293Y24348401D01*
X19813886Y24348401D01*
X19813886Y24797190D01*
X19812673Y24809510D01*
X19800931Y24868541D01*
X20871590Y25939200D01*
X22649200Y25939200D01*
X22649200Y24260800D01*
G37*
X22649200Y24260800D02*
X20785640Y24260800D01*
X20772695Y24273745D01*
X20701649Y24321218D01*
X20678717Y24330717D01*
X20601010Y24346174D01*
X20588690Y24347387D01*
X20077264Y24347387D01*
X20068293Y24348401D01*
X19813886Y24348401D01*
X19813886Y24797190D01*
X19812673Y24809510D01*
X19800931Y24868541D01*
X20871590Y25939200D01*
X22649200Y25939200D01*
X22649200Y24260800D01*
G36*
X22395200Y29440246D02*
G01*
X21014813Y29416447D01*
X20960368Y29386702D01*
X18748413Y26068769D01*
X18737600Y26033057D01*
X18737600Y25072386D01*
X18649980Y25072386D01*
X18783800Y27458846D01*
X20369605Y32062086D01*
X22395200Y32084592D01*
X22395200Y29440246D01*
G37*
X22395200Y29440246D02*
X21014813Y29416447D01*
X20960368Y29386702D01*
X18748413Y26068769D01*
X18737600Y26033057D01*
X18737600Y25072386D01*
X18649980Y25072386D01*
X18783800Y27458846D01*
X20369605Y32062086D01*
X22395200Y32084592D01*
X22395200Y29440246D01*
G36*
X20210800Y36506829D02*
G01*
X20210800Y32842695D01*
X18386037Y27545814D01*
X18382685Y27528741D01*
X18293543Y25939047D01*
X18292785Y25937217D01*
X18277328Y25859510D01*
X18276115Y25847190D01*
X18276115Y25628240D01*
X18244946Y25072386D01*
X18089900Y25072386D01*
X18089900Y25326893D01*
X18088886Y25335897D01*
X18088886Y25847190D01*
X18087673Y25859510D01*
X18075200Y25922214D01*
X18075200Y25981088D01*
X18065674Y26014742D01*
X17872000Y26329463D01*
X17872000Y36529759D01*
X20210800Y36506829D01*
G37*
X20210800Y36506829D02*
X20210800Y32842695D01*
X18386037Y27545814D01*
X18382685Y27528741D01*
X18293543Y25939047D01*
X18292785Y25937217D01*
X18277328Y25859510D01*
X18276115Y25847190D01*
X18276115Y25628240D01*
X18244946Y25072386D01*
X18089900Y25072386D01*
X18089900Y25326893D01*
X18088886Y25335897D01*
X18088886Y25847190D01*
X18087673Y25859510D01*
X18075200Y25922214D01*
X18075200Y25981088D01*
X18065674Y26014742D01*
X17872000Y26329463D01*
X17872000Y36529759D01*
X20210800Y36506829D01*
G36*
X17467600Y26304063D02*
G01*
X17273926Y25989342D01*
X17264400Y25955688D01*
X17264400Y25072386D01*
X17096126Y25072386D01*
X17088885Y25228795D01*
X17088885Y25847190D01*
X17087672Y25859510D01*
X17072215Y25937217D01*
X17062716Y25960148D01*
X17054454Y25972513D01*
X16982440Y27528008D01*
X16978934Y27546053D01*
X15128800Y32817667D01*
X15128800Y36481429D01*
X17467600Y36504359D01*
X17467600Y26304063D01*
G37*
X17467600Y26304063D02*
X17273926Y25989342D01*
X17264400Y25955688D01*
X17264400Y25072386D01*
X17096126Y25072386D01*
X17088885Y25228795D01*
X17088885Y25847190D01*
X17087672Y25859510D01*
X17072215Y25937217D01*
X17062716Y25960148D01*
X17054454Y25972513D01*
X16982440Y27528008D01*
X16978934Y27546053D01*
X15128800Y32817667D01*
X15128800Y36481429D01*
X17467600Y36504359D01*
X17467600Y26304063D01*
G36*
X14974329Y32036638D02*
G01*
X16580787Y27459335D01*
X16691293Y25072386D01*
X16602000Y25072386D01*
X16602000Y26007657D01*
X16591187Y26043369D01*
X14379232Y29361302D01*
X14324787Y29391047D01*
X12944400Y29414846D01*
X12944400Y32059192D01*
X14974329Y32036638D01*
G37*
X14974329Y32036638D02*
X16580787Y27459335D01*
X16691293Y25072386D01*
X16602000Y25072386D01*
X16602000Y26007657D01*
X16591187Y26043369D01*
X14379232Y29361302D01*
X14324787Y29391047D01*
X12944400Y29414846D01*
X12944400Y32059192D01*
X14974329Y32036638D01*
G36*
X34420327Y39064510D02*
G01*
X34419114Y39052190D01*
X34419114Y37890886D01*
X33257810Y37890886D01*
X33245490Y37889673D01*
X33167783Y37874216D01*
X33144851Y37864717D01*
X33073805Y37817244D01*
X33056256Y37799695D01*
X33008783Y37728649D01*
X32999284Y37705717D01*
X32983827Y37628010D01*
X32982614Y37615690D01*
X32982614Y37476310D01*
X32983827Y37463990D01*
X32999284Y37386283D01*
X33008783Y37363351D01*
X33056256Y37292305D01*
X33073805Y37274756D01*
X33144851Y37227283D01*
X33167783Y37217784D01*
X33245490Y37202327D01*
X33257810Y37201114D01*
X34419114Y37201114D01*
X34419114Y36039810D01*
X34420327Y36027490D01*
X34435784Y35949783D01*
X34445283Y35926851D01*
X34492756Y35855805D01*
X34510305Y35838256D01*
X34581351Y35790783D01*
X34604283Y35781284D01*
X34681990Y35765827D01*
X34694310Y35764614D01*
X34833690Y35764614D01*
X34846010Y35765827D01*
X34923717Y35781284D01*
X34946649Y35790783D01*
X35017695Y35838256D01*
X35035244Y35855805D01*
X35082717Y35926851D01*
X35092216Y35949783D01*
X35107673Y36027490D01*
X35108886Y36039810D01*
X35108886Y37201114D01*
X36270190Y37201114D01*
X36282510Y37202327D01*
X36360217Y37217784D01*
X36383149Y37227283D01*
X36421601Y37252977D01*
X36421601Y29036000D01*
X32836602Y29036000D01*
X32700880Y29114359D01*
X32680163Y29121900D01*
X32487462Y29155878D01*
X32476501Y29156837D01*
X32047809Y29156837D01*
X31974000Y29083028D01*
X31974000Y29036000D01*
X31718000Y29036000D01*
X31718000Y29083028D01*
X31644191Y29156837D01*
X31212742Y29156837D01*
X31196366Y29154681D01*
X30917142Y29079863D01*
X30892662Y29067120D01*
X30855575Y29036000D01*
X26457214Y29036000D01*
X26457215Y29172258D01*
X26455059Y29188634D01*
X26428210Y29288834D01*
X26411622Y29317566D01*
X26332381Y29396807D01*
X26303649Y29413395D01*
X26223245Y29434940D01*
X26254582Y29652894D01*
X26255224Y29661871D01*
X26255224Y30536991D01*
X26181415Y30610800D01*
X25192808Y30610801D01*
X25192807Y30610800D01*
X23800585Y30610801D01*
X23726776Y30536992D01*
X23726776Y29659617D01*
X23728220Y29646187D01*
X23772551Y29442400D01*
X23045397Y29442400D01*
X23051815Y29452005D01*
X23061313Y29474935D01*
X23096173Y29650187D01*
X23097386Y29662507D01*
X23097386Y31815093D01*
X23097324Y31815729D01*
X23726776Y31815729D01*
X23726776Y30940609D01*
X23800585Y30866800D01*
X24789191Y30866799D01*
X24863000Y30940608D01*
X24863000Y30940609D01*
X25118999Y30940609D01*
X25192808Y30866800D01*
X26181415Y30866799D01*
X26255224Y30940608D01*
X26255224Y31817983D01*
X26253780Y31831413D01*
X26180745Y32167153D01*
X26172115Y32187987D01*
X26043304Y32388420D01*
X26031501Y32402041D01*
X25853151Y32556583D01*
X25837989Y32566327D01*
X25623323Y32664361D01*
X25606030Y32669439D01*
X25376906Y32702382D01*
X25367929Y32703024D01*
X25192809Y32703024D01*
X25119000Y32629215D01*
X25118999Y30940609D01*
X24863000Y30940609D01*
X24863001Y32629215D01*
X24789192Y32703024D01*
X24611817Y32703024D01*
X24598387Y32701580D01*
X24262647Y32628545D01*
X24241813Y32619915D01*
X24041380Y32491104D01*
X24027759Y32479301D01*
X23873217Y32300951D01*
X23863473Y32285789D01*
X23765439Y32071123D01*
X23760361Y32053830D01*
X23727418Y31824706D01*
X23726776Y31815729D01*
X23097324Y31815729D01*
X23096173Y31827413D01*
X23061313Y32002665D01*
X23051815Y32025595D01*
X22949088Y32179337D01*
X22931537Y32196888D01*
X22780792Y32297613D01*
X22769423Y32339119D01*
X22752415Y32368019D01*
X22672170Y32446500D01*
X22643256Y32462767D01*
X22542764Y32488501D01*
X22526365Y32490475D01*
X20509464Y32468065D01*
X20601721Y32735865D01*
X20604296Y32745999D01*
X20614334Y32805950D01*
X20615200Y32816371D01*
X20615200Y34599913D01*
X20664427Y34548937D01*
X20673813Y34540949D01*
X20851635Y34417359D01*
X20862394Y34411346D01*
X21060836Y34324649D01*
X21072558Y34320841D01*
X21284060Y34274339D01*
X21296298Y34272880D01*
X21512804Y34268345D01*
X21525093Y34269290D01*
X21738357Y34306894D01*
X21750227Y34310209D01*
X21952125Y34388520D01*
X21963126Y34394077D01*
X22085283Y34471600D01*
X24122961Y34471600D01*
X24130284Y34434783D01*
X24139783Y34411851D01*
X24187256Y34340805D01*
X24204805Y34323256D01*
X24275851Y34275783D01*
X24298783Y34266284D01*
X24376490Y34250827D01*
X24388810Y34249614D01*
X25276190Y34249614D01*
X25288510Y34250827D01*
X25366217Y34266284D01*
X25389149Y34275783D01*
X25391655Y34277457D01*
X25405137Y34227141D01*
X25417880Y34202661D01*
X25548990Y34046410D01*
X25565879Y34032239D01*
X25740120Y33931641D01*
X25760837Y33924100D01*
X25953538Y33890122D01*
X25964499Y33889163D01*
X26205691Y33889163D01*
X26279500Y33962972D01*
X26535499Y33962972D01*
X26609308Y33889163D01*
X26853258Y33889163D01*
X26869634Y33891319D01*
X27148859Y33966137D01*
X27173339Y33978880D01*
X27329590Y34109990D01*
X27343761Y34126879D01*
X27444359Y34301120D01*
X27451900Y34321837D01*
X27485878Y34514538D01*
X27486837Y34525499D01*
X27486837Y34804191D01*
X27413028Y34878000D01*
X26609309Y34878001D01*
X26535500Y34804192D01*
X26535499Y33962972D01*
X26279500Y33962972D01*
X26279501Y34804192D01*
X26279500Y34804193D01*
X26279501Y35559191D01*
X26279500Y35559192D01*
X26279500Y35976809D01*
X26535499Y35976809D01*
X26535500Y35976808D01*
X26535499Y35207809D01*
X26609308Y35134000D01*
X27413028Y35133999D01*
X27486837Y35207808D01*
X27486837Y35489258D01*
X27484681Y35505634D01*
X27413429Y35771549D01*
X27444359Y35825120D01*
X27451900Y35845837D01*
X27485878Y36038538D01*
X27486837Y36049499D01*
X27486837Y36328191D01*
X27413028Y36402000D01*
X26609309Y36402001D01*
X26535500Y36328192D01*
X26535499Y35976809D01*
X26279500Y35976809D01*
X26279501Y36328192D01*
X26279500Y36328193D01*
X26279500Y36731809D01*
X26535499Y36731809D01*
X26609308Y36658000D01*
X27413028Y36657999D01*
X27486837Y36731808D01*
X27486837Y37013258D01*
X27484681Y37029634D01*
X27409863Y37308858D01*
X27397120Y37333338D01*
X27266010Y37489590D01*
X27249121Y37503761D01*
X27074880Y37604359D01*
X27054163Y37611900D01*
X26861462Y37645878D01*
X26850501Y37646837D01*
X26609309Y37646837D01*
X26535500Y37573028D01*
X26535499Y36731809D01*
X26279500Y36731809D01*
X26279501Y37573028D01*
X26205692Y37646837D01*
X25961742Y37646837D01*
X25945366Y37644681D01*
X25666142Y37569863D01*
X25641662Y37557120D01*
X25485410Y37426010D01*
X25471239Y37409121D01*
X25386018Y37261514D01*
X25366217Y37269716D01*
X25288510Y37285173D01*
X25276190Y37286386D01*
X24388810Y37286386D01*
X24376490Y37285173D01*
X24298783Y37269716D01*
X24293677Y37267601D01*
X20237029Y37267601D01*
X20196809Y37275601D01*
X20171990Y37275601D01*
X20125678Y37266389D01*
X20125668Y37266388D01*
X19988298Y37239063D01*
X19965368Y37229565D01*
X19809641Y37125512D01*
X19792091Y37107962D01*
X19769306Y37073862D01*
X19612559Y36917114D01*
X17740316Y36935469D01*
X17723617Y36933396D01*
X17621589Y36906592D01*
X17621492Y36906536D01*
X17615526Y36908072D01*
X17599129Y36910068D01*
X15651581Y36890975D01*
X15468694Y37073861D01*
X15445910Y37107961D01*
X15428359Y37125512D01*
X15272632Y37229565D01*
X15249702Y37239063D01*
X15118404Y37265180D01*
X15066009Y37275602D01*
X15041189Y37275602D01*
X15000965Y37267601D01*
X11606835Y37267601D01*
X11566611Y37275602D01*
X11541791Y37275602D01*
X11489396Y37265180D01*
X11358098Y37239063D01*
X11335168Y37229565D01*
X11179441Y37125512D01*
X11161890Y37107961D01*
X11139104Y37073858D01*
X11129646Y37064400D01*
X11115039Y37064400D01*
X11107716Y37101217D01*
X11098217Y37124149D01*
X11050744Y37195195D01*
X11033195Y37212744D01*
X10962149Y37260217D01*
X10939217Y37269716D01*
X10861510Y37285173D01*
X10849190Y37286386D01*
X9961810Y37286386D01*
X9949490Y37285173D01*
X9871783Y37269716D01*
X9848851Y37260217D01*
X9846345Y37258543D01*
X9832863Y37308858D01*
X9820120Y37333338D01*
X9689010Y37489590D01*
X9672121Y37503761D01*
X9497880Y37604359D01*
X9477163Y37611900D01*
X9284462Y37645878D01*
X9273501Y37646837D01*
X9032309Y37646837D01*
X8958500Y37573028D01*
X8958500Y35584691D01*
X8933000Y35559191D01*
X8933000Y33835972D01*
X9006809Y33762163D01*
X9250758Y33762163D01*
X9267134Y33764319D01*
X9546359Y33839137D01*
X9570839Y33851880D01*
X9727090Y33982990D01*
X9741261Y33999879D01*
X9826482Y34147486D01*
X9846283Y34139284D01*
X9923990Y34123827D01*
X9936310Y34122614D01*
X10823690Y34122614D01*
X10836010Y34123827D01*
X10913717Y34139284D01*
X10936649Y34148783D01*
X11007695Y34196256D01*
X11025244Y34213805D01*
X11072717Y34284851D01*
X11082216Y34307783D01*
X11089539Y34344600D01*
X12726261Y34344600D01*
X12729805Y34341056D01*
X12800851Y34293583D01*
X12823783Y34284084D01*
X12901490Y34268627D01*
X12913810Y34267414D01*
X14704190Y34267414D01*
X14716510Y34268627D01*
X14724400Y34270196D01*
X14724400Y32790881D01*
X14725297Y32780280D01*
X14735682Y32719324D01*
X14738347Y32709024D01*
X14831836Y32442645D01*
X12813059Y32465077D01*
X12796316Y32463014D01*
X12694046Y32436218D01*
X12664960Y32419533D01*
X12585593Y32340166D01*
X12569005Y32311434D01*
X12565824Y32299564D01*
X12486135Y32283713D01*
X12463205Y32274215D01*
X12309463Y32171488D01*
X12291912Y32153937D01*
X12189185Y32000195D01*
X12179687Y31977265D01*
X12144827Y31802013D01*
X12143614Y31789693D01*
X12143614Y29637107D01*
X12144827Y29624787D01*
X12179687Y29449535D01*
X12182642Y29442400D01*
X11486970Y29442400D01*
X11513582Y29627494D01*
X11514224Y29636471D01*
X11514224Y30511591D01*
X11440415Y30585400D01*
X9059585Y30585400D01*
X8985776Y30511591D01*
X8985776Y29634217D01*
X8987220Y29620787D01*
X9029736Y29425342D01*
X8985151Y29413395D01*
X8956419Y29396807D01*
X8877178Y29317566D01*
X8860590Y29288834D01*
X8833741Y29188634D01*
X8831585Y29172258D01*
X8831586Y29036000D01*
X5398602Y29036000D01*
X5262880Y29114359D01*
X5242163Y29121900D01*
X5049462Y29155878D01*
X5038501Y29156837D01*
X4609809Y29156837D01*
X4536000Y29083028D01*
X4536000Y29036000D01*
X4280001Y29036000D01*
X4280001Y29083028D01*
X4206192Y29156837D01*
X3774742Y29156837D01*
X3758366Y29154681D01*
X3479142Y29079863D01*
X3454662Y29067120D01*
X3417575Y29036000D01*
X278400Y29036000D01*
X278400Y31790329D01*
X8985776Y31790329D01*
X8985776Y30915209D01*
X9059585Y30841400D01*
X10048191Y30841400D01*
X10122000Y30915209D01*
X10122000Y32603815D01*
X10378000Y32603815D01*
X10378000Y30915209D01*
X10451809Y30841400D01*
X11440415Y30841400D01*
X11514224Y30915209D01*
X11514224Y31792583D01*
X11512780Y31806013D01*
X11439745Y32141753D01*
X11431115Y32162587D01*
X11302304Y32363020D01*
X11290501Y32376641D01*
X11112151Y32531183D01*
X11096989Y32540927D01*
X10882323Y32638961D01*
X10865030Y32644039D01*
X10635906Y32676982D01*
X10626929Y32677624D01*
X10451809Y32677624D01*
X10378000Y32603815D01*
X10122000Y32603815D01*
X10048191Y32677624D01*
X9870817Y32677624D01*
X9857387Y32676180D01*
X9521647Y32603145D01*
X9500813Y32594515D01*
X9300380Y32465704D01*
X9286759Y32453901D01*
X9132217Y32275551D01*
X9122473Y32260389D01*
X9024439Y32045723D01*
X9019361Y32028430D01*
X8986418Y31799306D01*
X8985776Y31790329D01*
X278400Y31790329D01*
X278400Y34677191D01*
X7725663Y34677191D01*
X7725663Y34395742D01*
X7727819Y34379366D01*
X7802637Y34100141D01*
X7815380Y34075661D01*
X7946490Y33919410D01*
X7963379Y33905239D01*
X8137620Y33804641D01*
X8158337Y33797100D01*
X8351038Y33763122D01*
X8361999Y33762163D01*
X8603191Y33762163D01*
X8677000Y33835972D01*
X8677000Y34677191D01*
X8603191Y34751000D01*
X7799472Y34751000D01*
X7725663Y34677191D01*
X278400Y34677191D01*
X278400Y35359501D01*
X7725663Y35359501D01*
X7725663Y35080809D01*
X7799472Y35007000D01*
X8603191Y35007000D01*
X8677000Y35080809D01*
X8677000Y35824309D01*
X8702500Y35849809D01*
X8702500Y36328191D01*
X8628691Y36402000D01*
X7824972Y36402000D01*
X7751163Y36328191D01*
X7751163Y36046742D01*
X7753319Y36030366D01*
X7828137Y35751141D01*
X7840881Y35726660D01*
X7846624Y35719816D01*
X7768141Y35583880D01*
X7760600Y35563163D01*
X7726622Y35370462D01*
X7725663Y35359501D01*
X278400Y35359501D01*
X278400Y37201114D01*
X1399114Y37201114D01*
X1399114Y36039810D01*
X1400327Y36027490D01*
X1415784Y35949783D01*
X1425283Y35926851D01*
X1472756Y35855805D01*
X1490305Y35838256D01*
X1561351Y35790783D01*
X1584283Y35781284D01*
X1661990Y35765827D01*
X1674310Y35764614D01*
X1813690Y35764614D01*
X1826010Y35765827D01*
X1903717Y35781284D01*
X1926649Y35790783D01*
X1997695Y35838256D01*
X2015244Y35855805D01*
X2062717Y35926851D01*
X2072216Y35949783D01*
X2087673Y36027490D01*
X2088886Y36039810D01*
X2088886Y37010501D01*
X7751163Y37010501D01*
X7751163Y36731809D01*
X7824972Y36658000D01*
X8628691Y36658000D01*
X8702500Y36731809D01*
X8702500Y37573028D01*
X8628691Y37646837D01*
X8384742Y37646837D01*
X8368366Y37644681D01*
X8089142Y37569863D01*
X8064662Y37557120D01*
X7908410Y37426010D01*
X7894239Y37409121D01*
X7793641Y37234880D01*
X7786100Y37214163D01*
X7752122Y37021462D01*
X7751163Y37010501D01*
X2088886Y37010501D01*
X2088886Y37201114D01*
X3250190Y37201114D01*
X3262510Y37202327D01*
X3340217Y37217784D01*
X3363149Y37227283D01*
X3434195Y37274756D01*
X3451744Y37292305D01*
X3499217Y37363351D01*
X3508716Y37386283D01*
X3524173Y37463990D01*
X3525386Y37476310D01*
X3525386Y37615690D01*
X3524173Y37628010D01*
X3508716Y37705717D01*
X3499217Y37728649D01*
X3451744Y37799695D01*
X3434195Y37817244D01*
X3363149Y37864717D01*
X3340217Y37874216D01*
X3262510Y37889673D01*
X3250190Y37890886D01*
X2088886Y37890886D01*
X2088886Y39052190D01*
X2087673Y39064510D01*
X2076317Y39121600D01*
X34431683Y39121600D01*
X34420327Y39064510D01*
G37*
X34420327Y39064510D02*
X34419114Y39052190D01*
X34419114Y37890886D01*
X33257810Y37890886D01*
X33245490Y37889673D01*
X33167783Y37874216D01*
X33144851Y37864717D01*
X33073805Y37817244D01*
X33056256Y37799695D01*
X33008783Y37728649D01*
X32999284Y37705717D01*
X32983827Y37628010D01*
X32982614Y37615690D01*
X32982614Y37476310D01*
X32983827Y37463990D01*
X32999284Y37386283D01*
X33008783Y37363351D01*
X33056256Y37292305D01*
X33073805Y37274756D01*
X33144851Y37227283D01*
X33167783Y37217784D01*
X33245490Y37202327D01*
X33257810Y37201114D01*
X34419114Y37201114D01*
X34419114Y36039810D01*
X34420327Y36027490D01*
X34435784Y35949783D01*
X34445283Y35926851D01*
X34492756Y35855805D01*
X34510305Y35838256D01*
X34581351Y35790783D01*
X34604283Y35781284D01*
X34681990Y35765827D01*
X34694310Y35764614D01*
X34833690Y35764614D01*
X34846010Y35765827D01*
X34923717Y35781284D01*
X34946649Y35790783D01*
X35017695Y35838256D01*
X35035244Y35855805D01*
X35082717Y35926851D01*
X35092216Y35949783D01*
X35107673Y36027490D01*
X35108886Y36039810D01*
X35108886Y37201114D01*
X36270190Y37201114D01*
X36282510Y37202327D01*
X36360217Y37217784D01*
X36383149Y37227283D01*
X36421601Y37252977D01*
X36421601Y29036000D01*
X32836602Y29036000D01*
X32700880Y29114359D01*
X32680163Y29121900D01*
X32487462Y29155878D01*
X32476501Y29156837D01*
X32047809Y29156837D01*
X31974000Y29083028D01*
X31974000Y29036000D01*
X31718000Y29036000D01*
X31718000Y29083028D01*
X31644191Y29156837D01*
X31212742Y29156837D01*
X31196366Y29154681D01*
X30917142Y29079863D01*
X30892662Y29067120D01*
X30855575Y29036000D01*
X26457214Y29036000D01*
X26457215Y29172258D01*
X26455059Y29188634D01*
X26428210Y29288834D01*
X26411622Y29317566D01*
X26332381Y29396807D01*
X26303649Y29413395D01*
X26223245Y29434940D01*
X26254582Y29652894D01*
X26255224Y29661871D01*
X26255224Y30536991D01*
X26181415Y30610800D01*
X25192808Y30610801D01*
X25192807Y30610800D01*
X23800585Y30610801D01*
X23726776Y30536992D01*
X23726776Y29659617D01*
X23728220Y29646187D01*
X23772551Y29442400D01*
X23045397Y29442400D01*
X23051815Y29452005D01*
X23061313Y29474935D01*
X23096173Y29650187D01*
X23097386Y29662507D01*
X23097386Y31815093D01*
X23097324Y31815729D01*
X23726776Y31815729D01*
X23726776Y30940609D01*
X23800585Y30866800D01*
X24789191Y30866799D01*
X24863000Y30940608D01*
X24863000Y30940609D01*
X25118999Y30940609D01*
X25192808Y30866800D01*
X26181415Y30866799D01*
X26255224Y30940608D01*
X26255224Y31817983D01*
X26253780Y31831413D01*
X26180745Y32167153D01*
X26172115Y32187987D01*
X26043304Y32388420D01*
X26031501Y32402041D01*
X25853151Y32556583D01*
X25837989Y32566327D01*
X25623323Y32664361D01*
X25606030Y32669439D01*
X25376906Y32702382D01*
X25367929Y32703024D01*
X25192809Y32703024D01*
X25119000Y32629215D01*
X25118999Y30940609D01*
X24863000Y30940609D01*
X24863001Y32629215D01*
X24789192Y32703024D01*
X24611817Y32703024D01*
X24598387Y32701580D01*
X24262647Y32628545D01*
X24241813Y32619915D01*
X24041380Y32491104D01*
X24027759Y32479301D01*
X23873217Y32300951D01*
X23863473Y32285789D01*
X23765439Y32071123D01*
X23760361Y32053830D01*
X23727418Y31824706D01*
X23726776Y31815729D01*
X23097324Y31815729D01*
X23096173Y31827413D01*
X23061313Y32002665D01*
X23051815Y32025595D01*
X22949088Y32179337D01*
X22931537Y32196888D01*
X22780792Y32297613D01*
X22769423Y32339119D01*
X22752415Y32368019D01*
X22672170Y32446500D01*
X22643256Y32462767D01*
X22542764Y32488501D01*
X22526365Y32490475D01*
X20509464Y32468065D01*
X20601721Y32735865D01*
X20604296Y32745999D01*
X20614334Y32805950D01*
X20615200Y32816371D01*
X20615200Y34599913D01*
X20664427Y34548937D01*
X20673813Y34540949D01*
X20851635Y34417359D01*
X20862394Y34411346D01*
X21060836Y34324649D01*
X21072558Y34320841D01*
X21284060Y34274339D01*
X21296298Y34272880D01*
X21512804Y34268345D01*
X21525093Y34269290D01*
X21738357Y34306894D01*
X21750227Y34310209D01*
X21952125Y34388520D01*
X21963126Y34394077D01*
X22085283Y34471600D01*
X24122961Y34471600D01*
X24130284Y34434783D01*
X24139783Y34411851D01*
X24187256Y34340805D01*
X24204805Y34323256D01*
X24275851Y34275783D01*
X24298783Y34266284D01*
X24376490Y34250827D01*
X24388810Y34249614D01*
X25276190Y34249614D01*
X25288510Y34250827D01*
X25366217Y34266284D01*
X25389149Y34275783D01*
X25391655Y34277457D01*
X25405137Y34227141D01*
X25417880Y34202661D01*
X25548990Y34046410D01*
X25565879Y34032239D01*
X25740120Y33931641D01*
X25760837Y33924100D01*
X25953538Y33890122D01*
X25964499Y33889163D01*
X26205691Y33889163D01*
X26279500Y33962972D01*
X26535499Y33962972D01*
X26609308Y33889163D01*
X26853258Y33889163D01*
X26869634Y33891319D01*
X27148859Y33966137D01*
X27173339Y33978880D01*
X27329590Y34109990D01*
X27343761Y34126879D01*
X27444359Y34301120D01*
X27451900Y34321837D01*
X27485878Y34514538D01*
X27486837Y34525499D01*
X27486837Y34804191D01*
X27413028Y34878000D01*
X26609309Y34878001D01*
X26535500Y34804192D01*
X26535499Y33962972D01*
X26279500Y33962972D01*
X26279501Y34804192D01*
X26279500Y34804193D01*
X26279501Y35559191D01*
X26279500Y35559192D01*
X26279500Y35976809D01*
X26535499Y35976809D01*
X26535500Y35976808D01*
X26535499Y35207809D01*
X26609308Y35134000D01*
X27413028Y35133999D01*
X27486837Y35207808D01*
X27486837Y35489258D01*
X27484681Y35505634D01*
X27413429Y35771549D01*
X27444359Y35825120D01*
X27451900Y35845837D01*
X27485878Y36038538D01*
X27486837Y36049499D01*
X27486837Y36328191D01*
X27413028Y36402000D01*
X26609309Y36402001D01*
X26535500Y36328192D01*
X26535499Y35976809D01*
X26279500Y35976809D01*
X26279501Y36328192D01*
X26279500Y36328193D01*
X26279500Y36731809D01*
X26535499Y36731809D01*
X26609308Y36658000D01*
X27413028Y36657999D01*
X27486837Y36731808D01*
X27486837Y37013258D01*
X27484681Y37029634D01*
X27409863Y37308858D01*
X27397120Y37333338D01*
X27266010Y37489590D01*
X27249121Y37503761D01*
X27074880Y37604359D01*
X27054163Y37611900D01*
X26861462Y37645878D01*
X26850501Y37646837D01*
X26609309Y37646837D01*
X26535500Y37573028D01*
X26535499Y36731809D01*
X26279500Y36731809D01*
X26279501Y37573028D01*
X26205692Y37646837D01*
X25961742Y37646837D01*
X25945366Y37644681D01*
X25666142Y37569863D01*
X25641662Y37557120D01*
X25485410Y37426010D01*
X25471239Y37409121D01*
X25386018Y37261514D01*
X25366217Y37269716D01*
X25288510Y37285173D01*
X25276190Y37286386D01*
X24388810Y37286386D01*
X24376490Y37285173D01*
X24298783Y37269716D01*
X24293677Y37267601D01*
X20237029Y37267601D01*
X20196809Y37275601D01*
X20171990Y37275601D01*
X20125678Y37266389D01*
X20125668Y37266388D01*
X19988298Y37239063D01*
X19965368Y37229565D01*
X19809641Y37125512D01*
X19792091Y37107962D01*
X19769306Y37073862D01*
X19612559Y36917114D01*
X17740316Y36935469D01*
X17723617Y36933396D01*
X17621589Y36906592D01*
X17621492Y36906536D01*
X17615526Y36908072D01*
X17599129Y36910068D01*
X15651581Y36890975D01*
X15468694Y37073861D01*
X15445910Y37107961D01*
X15428359Y37125512D01*
X15272632Y37229565D01*
X15249702Y37239063D01*
X15118404Y37265180D01*
X15066009Y37275602D01*
X15041189Y37275602D01*
X15000965Y37267601D01*
X11606835Y37267601D01*
X11566611Y37275602D01*
X11541791Y37275602D01*
X11489396Y37265180D01*
X11358098Y37239063D01*
X11335168Y37229565D01*
X11179441Y37125512D01*
X11161890Y37107961D01*
X11139104Y37073858D01*
X11129646Y37064400D01*
X11115039Y37064400D01*
X11107716Y37101217D01*
X11098217Y37124149D01*
X11050744Y37195195D01*
X11033195Y37212744D01*
X10962149Y37260217D01*
X10939217Y37269716D01*
X10861510Y37285173D01*
X10849190Y37286386D01*
X9961810Y37286386D01*
X9949490Y37285173D01*
X9871783Y37269716D01*
X9848851Y37260217D01*
X9846345Y37258543D01*
X9832863Y37308858D01*
X9820120Y37333338D01*
X9689010Y37489590D01*
X9672121Y37503761D01*
X9497880Y37604359D01*
X9477163Y37611900D01*
X9284462Y37645878D01*
X9273501Y37646837D01*
X9032309Y37646837D01*
X8958500Y37573028D01*
X8958500Y35584691D01*
X8933000Y35559191D01*
X8933000Y33835972D01*
X9006809Y33762163D01*
X9250758Y33762163D01*
X9267134Y33764319D01*
X9546359Y33839137D01*
X9570839Y33851880D01*
X9727090Y33982990D01*
X9741261Y33999879D01*
X9826482Y34147486D01*
X9846283Y34139284D01*
X9923990Y34123827D01*
X9936310Y34122614D01*
X10823690Y34122614D01*
X10836010Y34123827D01*
X10913717Y34139284D01*
X10936649Y34148783D01*
X11007695Y34196256D01*
X11025244Y34213805D01*
X11072717Y34284851D01*
X11082216Y34307783D01*
X11089539Y34344600D01*
X12726261Y34344600D01*
X12729805Y34341056D01*
X12800851Y34293583D01*
X12823783Y34284084D01*
X12901490Y34268627D01*
X12913810Y34267414D01*
X14704190Y34267414D01*
X14716510Y34268627D01*
X14724400Y34270196D01*
X14724400Y32790881D01*
X14725297Y32780280D01*
X14735682Y32719324D01*
X14738347Y32709024D01*
X14831836Y32442645D01*
X12813059Y32465077D01*
X12796316Y32463014D01*
X12694046Y32436218D01*
X12664960Y32419533D01*
X12585593Y32340166D01*
X12569005Y32311434D01*
X12565824Y32299564D01*
X12486135Y32283713D01*
X12463205Y32274215D01*
X12309463Y32171488D01*
X12291912Y32153937D01*
X12189185Y32000195D01*
X12179687Y31977265D01*
X12144827Y31802013D01*
X12143614Y31789693D01*
X12143614Y29637107D01*
X12144827Y29624787D01*
X12179687Y29449535D01*
X12182642Y29442400D01*
X11486970Y29442400D01*
X11513582Y29627494D01*
X11514224Y29636471D01*
X11514224Y30511591D01*
X11440415Y30585400D01*
X9059585Y30585400D01*
X8985776Y30511591D01*
X8985776Y29634217D01*
X8987220Y29620787D01*
X9029736Y29425342D01*
X8985151Y29413395D01*
X8956419Y29396807D01*
X8877178Y29317566D01*
X8860590Y29288834D01*
X8833741Y29188634D01*
X8831585Y29172258D01*
X8831586Y29036000D01*
X5398602Y29036000D01*
X5262880Y29114359D01*
X5242163Y29121900D01*
X5049462Y29155878D01*
X5038501Y29156837D01*
X4609809Y29156837D01*
X4536000Y29083028D01*
X4536000Y29036000D01*
X4280001Y29036000D01*
X4280001Y29083028D01*
X4206192Y29156837D01*
X3774742Y29156837D01*
X3758366Y29154681D01*
X3479142Y29079863D01*
X3454662Y29067120D01*
X3417575Y29036000D01*
X278400Y29036000D01*
X278400Y31790329D01*
X8985776Y31790329D01*
X8985776Y30915209D01*
X9059585Y30841400D01*
X10048191Y30841400D01*
X10122000Y30915209D01*
X10122000Y32603815D01*
X10378000Y32603815D01*
X10378000Y30915209D01*
X10451809Y30841400D01*
X11440415Y30841400D01*
X11514224Y30915209D01*
X11514224Y31792583D01*
X11512780Y31806013D01*
X11439745Y32141753D01*
X11431115Y32162587D01*
X11302304Y32363020D01*
X11290501Y32376641D01*
X11112151Y32531183D01*
X11096989Y32540927D01*
X10882323Y32638961D01*
X10865030Y32644039D01*
X10635906Y32676982D01*
X10626929Y32677624D01*
X10451809Y32677624D01*
X10378000Y32603815D01*
X10122000Y32603815D01*
X10048191Y32677624D01*
X9870817Y32677624D01*
X9857387Y32676180D01*
X9521647Y32603145D01*
X9500813Y32594515D01*
X9300380Y32465704D01*
X9286759Y32453901D01*
X9132217Y32275551D01*
X9122473Y32260389D01*
X9024439Y32045723D01*
X9019361Y32028430D01*
X8986418Y31799306D01*
X8985776Y31790329D01*
X278400Y31790329D01*
X278400Y34677191D01*
X7725663Y34677191D01*
X7725663Y34395742D01*
X7727819Y34379366D01*
X7802637Y34100141D01*
X7815380Y34075661D01*
X7946490Y33919410D01*
X7963379Y33905239D01*
X8137620Y33804641D01*
X8158337Y33797100D01*
X8351038Y33763122D01*
X8361999Y33762163D01*
X8603191Y33762163D01*
X8677000Y33835972D01*
X8677000Y34677191D01*
X8603191Y34751000D01*
X7799472Y34751000D01*
X7725663Y34677191D01*
X278400Y34677191D01*
X278400Y35359501D01*
X7725663Y35359501D01*
X7725663Y35080809D01*
X7799472Y35007000D01*
X8603191Y35007000D01*
X8677000Y35080809D01*
X8677000Y35824309D01*
X8702500Y35849809D01*
X8702500Y36328191D01*
X8628691Y36402000D01*
X7824972Y36402000D01*
X7751163Y36328191D01*
X7751163Y36046742D01*
X7753319Y36030366D01*
X7828137Y35751141D01*
X7840881Y35726660D01*
X7846624Y35719816D01*
X7768141Y35583880D01*
X7760600Y35563163D01*
X7726622Y35370462D01*
X7725663Y35359501D01*
X278400Y35359501D01*
X278400Y37201114D01*
X1399114Y37201114D01*
X1399114Y36039810D01*
X1400327Y36027490D01*
X1415784Y35949783D01*
X1425283Y35926851D01*
X1472756Y35855805D01*
X1490305Y35838256D01*
X1561351Y35790783D01*
X1584283Y35781284D01*
X1661990Y35765827D01*
X1674310Y35764614D01*
X1813690Y35764614D01*
X1826010Y35765827D01*
X1903717Y35781284D01*
X1926649Y35790783D01*
X1997695Y35838256D01*
X2015244Y35855805D01*
X2062717Y35926851D01*
X2072216Y35949783D01*
X2087673Y36027490D01*
X2088886Y36039810D01*
X2088886Y37010501D01*
X7751163Y37010501D01*
X7751163Y36731809D01*
X7824972Y36658000D01*
X8628691Y36658000D01*
X8702500Y36731809D01*
X8702500Y37573028D01*
X8628691Y37646837D01*
X8384742Y37646837D01*
X8368366Y37644681D01*
X8089142Y37569863D01*
X8064662Y37557120D01*
X7908410Y37426010D01*
X7894239Y37409121D01*
X7793641Y37234880D01*
X7786100Y37214163D01*
X7752122Y37021462D01*
X7751163Y37010501D01*
X2088886Y37010501D01*
X2088886Y37201114D01*
X3250190Y37201114D01*
X3262510Y37202327D01*
X3340217Y37217784D01*
X3363149Y37227283D01*
X3434195Y37274756D01*
X3451744Y37292305D01*
X3499217Y37363351D01*
X3508716Y37386283D01*
X3524173Y37463990D01*
X3525386Y37476310D01*
X3525386Y37615690D01*
X3524173Y37628010D01*
X3508716Y37705717D01*
X3499217Y37728649D01*
X3451744Y37799695D01*
X3434195Y37817244D01*
X3363149Y37864717D01*
X3340217Y37874216D01*
X3262510Y37889673D01*
X3250190Y37890886D01*
X2088886Y37890886D01*
X2088886Y39052190D01*
X2087673Y39064510D01*
X2076317Y39121600D01*
X34431683Y39121600D01*
X34420327Y39064510D01*
G36*
X3326800Y27578237D02*
G01*
X3327257Y27570662D01*
X3349385Y27387803D01*
X3353009Y27373049D01*
X3440101Y27142568D01*
X3447139Y27129105D01*
X3449819Y27125206D01*
X3449819Y26758810D01*
X3451032Y26746489D01*
X3470432Y26648962D01*
X3479930Y26626032D01*
X3538630Y26538181D01*
X3556181Y26520630D01*
X3644032Y26461930D01*
X3666962Y26452432D01*
X3764489Y26433032D01*
X3776810Y26431819D01*
X5039190Y26431819D01*
X5051511Y26433032D01*
X5149038Y26452432D01*
X5171968Y26461930D01*
X5259819Y26520630D01*
X5277370Y26538181D01*
X5336070Y26626032D01*
X5345568Y26648962D01*
X5364968Y26746489D01*
X5366181Y26758810D01*
X5366181Y27124148D01*
X5370637Y27132458D01*
X5460197Y27362169D01*
X5464019Y27377214D01*
X5471722Y27438192D01*
X5941163Y27438192D01*
X5941163Y26756742D01*
X5943319Y26740366D01*
X6018137Y26461141D01*
X6030880Y26436661D01*
X6161990Y26280410D01*
X6178879Y26266239D01*
X6353120Y26165641D01*
X6373837Y26158100D01*
X6566538Y26124122D01*
X6577499Y26123163D01*
X7006191Y26123163D01*
X7080000Y26196972D01*
X7335999Y26196972D01*
X7409808Y26123163D01*
X7841258Y26123163D01*
X7857634Y26125319D01*
X8136859Y26200137D01*
X8161339Y26212880D01*
X8317590Y26343990D01*
X8331761Y26360879D01*
X8432359Y26535120D01*
X8439900Y26555837D01*
X8473878Y26748538D01*
X8474837Y26759499D01*
X8474837Y27438191D01*
X8401028Y27512000D01*
X7409809Y27512001D01*
X7336000Y27438192D01*
X7335999Y26196972D01*
X7080000Y26196972D01*
X7080001Y27438191D01*
X7006192Y27512000D01*
X6014972Y27512001D01*
X5941163Y27438192D01*
X5471722Y27438192D01*
X5488703Y27572607D01*
X5489200Y27580511D01*
X5489200Y28580800D01*
X5950822Y28580800D01*
X5942122Y28531462D01*
X5941163Y28520501D01*
X5941163Y27841809D01*
X6014972Y27768000D01*
X8401028Y27767999D01*
X8474837Y27841808D01*
X8474837Y28523259D01*
X8472681Y28539634D01*
X8461651Y28580800D01*
X8983986Y28580800D01*
X8984000Y23396866D01*
X9057671Y23323081D01*
X9274552Y23322744D01*
X9275018Y23322189D01*
X9291907Y23308018D01*
X9465293Y23207913D01*
X9486010Y23200372D01*
X9683177Y23165607D01*
X9705223Y23165607D01*
X9902390Y23200372D01*
X9923108Y23207913D01*
X9939319Y23217273D01*
X9939319Y22332810D01*
X9940532Y22320489D01*
X9959932Y22222962D01*
X9969430Y22200032D01*
X9974404Y22192588D01*
X9969662Y22190120D01*
X9813410Y22059010D01*
X9799239Y22042121D01*
X9698641Y21867880D01*
X9691100Y21847163D01*
X9657122Y21654462D01*
X9656163Y21643501D01*
X9656163Y21364809D01*
X9729972Y21291000D01*
X10863500Y21291000D01*
X10863500Y20119972D01*
X10937309Y20046163D01*
X11181258Y20046163D01*
X11197634Y20048319D01*
X11476859Y20123137D01*
X11501339Y20135880D01*
X11657590Y20266990D01*
X11671761Y20283879D01*
X11731197Y20386825D01*
X11734032Y20384930D01*
X11756962Y20375432D01*
X11854489Y20356032D01*
X11866810Y20354819D01*
X12754190Y20354819D01*
X12766511Y20356032D01*
X12864038Y20375432D01*
X12886968Y20384930D01*
X12974819Y20443630D01*
X12992370Y20461181D01*
X13051070Y20549032D01*
X13060568Y20571962D01*
X13079968Y20669489D01*
X13081181Y20681810D01*
X13081181Y20704800D01*
X13831450Y20704800D01*
X13864168Y20698292D01*
X13888988Y20698292D01*
X14042949Y20728917D01*
X14065879Y20738415D01*
X14196401Y20825626D01*
X14213952Y20843177D01*
X14232487Y20870917D01*
X14503131Y21141561D01*
X14538130Y21089181D01*
X14555681Y21071630D01*
X14643532Y21012930D01*
X14666462Y21003432D01*
X14763989Y20984032D01*
X14776310Y20982819D01*
X15518369Y20982819D01*
X15519932Y20974962D01*
X15529430Y20952032D01*
X15545814Y20927511D01*
X15532026Y20913723D01*
X15513491Y20885983D01*
X14058690Y19431181D01*
X13492310Y19431181D01*
X13479989Y19429968D01*
X13382462Y19410568D01*
X13359532Y19401070D01*
X13271681Y19342370D01*
X13254130Y19324819D01*
X13195430Y19236968D01*
X13185932Y19214038D01*
X13166532Y19116511D01*
X13165319Y19104190D01*
X13165319Y18141810D01*
X13166532Y18129489D01*
X13185932Y18031962D01*
X13195430Y18009032D01*
X13254130Y17921181D01*
X13271681Y17903630D01*
X13359532Y17844930D01*
X13382462Y17835432D01*
X13479989Y17816032D01*
X13492310Y17814819D01*
X14379690Y17814819D01*
X14392011Y17816032D01*
X14489538Y17835432D01*
X14512468Y17844930D01*
X14600319Y17903630D01*
X14617870Y17921181D01*
X14676570Y18009032D01*
X14686068Y18031962D01*
X14705468Y18129489D01*
X14706681Y18141810D01*
X14706681Y18783190D01*
X15782906Y19859414D01*
X15813130Y19814181D01*
X15830681Y19796630D01*
X15918532Y19737930D01*
X15941462Y19728432D01*
X16038989Y19709032D01*
X16051310Y19707819D01*
X16275099Y19707819D01*
X16275100Y16177592D01*
X16144887Y16102413D01*
X16127998Y16088242D01*
X15999307Y15934873D01*
X15988284Y15915780D01*
X15919809Y15727647D01*
X15915981Y15705934D01*
X15915981Y15505728D01*
X15919809Y15484015D01*
X15988284Y15295882D01*
X15999307Y15276789D01*
X16127998Y15123420D01*
X16144887Y15109249D01*
X16318273Y15009144D01*
X16338990Y15001603D01*
X16536157Y14966838D01*
X16558203Y14966838D01*
X16755370Y15001603D01*
X16776087Y15009144D01*
X16949473Y15109249D01*
X16966362Y15123420D01*
X17095053Y15276789D01*
X17106076Y15295882D01*
X17174551Y15484015D01*
X17178379Y15505728D01*
X17178379Y15705934D01*
X17174551Y15727647D01*
X17106076Y15915780D01*
X17095052Y15934874D01*
X17089899Y15941015D01*
X17089899Y16160741D01*
X17285717Y16126214D01*
X17307763Y16126214D01*
X17417942Y16145641D01*
X17417942Y16002478D01*
X17388628Y15967543D01*
X17377604Y15948449D01*
X17309129Y15760316D01*
X17305301Y15738603D01*
X17305301Y15538397D01*
X17309129Y15516684D01*
X17377604Y15328551D01*
X17388627Y15309458D01*
X17517318Y15156089D01*
X17534207Y15141918D01*
X17707593Y15041813D01*
X17728310Y15034272D01*
X17775201Y15026004D01*
X17775201Y14916097D01*
X17779029Y14894384D01*
X17847504Y14706251D01*
X17858527Y14687158D01*
X17987218Y14533789D01*
X18004107Y14519618D01*
X18177493Y14419513D01*
X18198210Y14411972D01*
X18395377Y14377207D01*
X18417423Y14377207D01*
X18614590Y14411972D01*
X18635307Y14419513D01*
X18738561Y14479127D01*
X18800622Y14417067D01*
X18816667Y14405409D01*
X18983983Y14320157D01*
X19002845Y14314028D01*
X19141684Y14292039D01*
X19151555Y14291262D01*
X20561805Y14291262D01*
X20661174Y14275524D01*
X20671045Y14274747D01*
X20866848Y14274747D01*
X20886437Y14277850D01*
X20926614Y14290904D01*
X20968342Y14297513D01*
X20987204Y14303642D01*
X21024850Y14322823D01*
X21065030Y14335879D01*
X21082701Y14344883D01*
X21116873Y14369712D01*
X21154520Y14388893D01*
X21170566Y14400551D01*
X21200441Y14430426D01*
X21234619Y14455259D01*
X21248643Y14469283D01*
X21273476Y14503461D01*
X21303351Y14533336D01*
X21315009Y14549382D01*
X21334190Y14587029D01*
X21359019Y14621201D01*
X21368023Y14638872D01*
X21381079Y14679052D01*
X21400260Y14716698D01*
X21406389Y14735560D01*
X21412998Y14777288D01*
X21426052Y14817465D01*
X21429155Y14837054D01*
X21429155Y14879301D01*
X21435764Y14921031D01*
X21435764Y14940863D01*
X21429155Y14982593D01*
X21429155Y15024839D01*
X21426052Y15044428D01*
X21412998Y15084604D01*
X21406389Y15126335D01*
X21400260Y15145198D01*
X21381077Y15182845D01*
X21368024Y15223019D01*
X21359020Y15240691D01*
X21334189Y15274869D01*
X21315007Y15312514D01*
X21303350Y15328559D01*
X21154052Y15477857D01*
X21138007Y15489514D01*
X21100362Y15508696D01*
X21066184Y15533527D01*
X21048513Y15542531D01*
X21008339Y15555584D01*
X20970690Y15574767D01*
X20951828Y15580895D01*
X20910092Y15587506D01*
X20869920Y15600559D01*
X20850332Y15603661D01*
X19551856Y15603662D01*
X19562010Y15624689D01*
X19564109Y15633855D01*
X19569143Y15641864D01*
X19578522Y15668647D01*
X19584804Y15724210D01*
X19588305Y15739497D01*
X19589900Y15753607D01*
X19589900Y15769286D01*
X19596133Y15824417D01*
X19592970Y15852619D01*
X19589900Y15861410D01*
X19589900Y19871097D01*
X19610570Y19902031D01*
X19620068Y19924962D01*
X19639468Y20022489D01*
X19640681Y20034810D01*
X19640681Y20776869D01*
X19648538Y20778432D01*
X19671468Y20787930D01*
X19759319Y20846630D01*
X19776870Y20864181D01*
X19835570Y20952032D01*
X19845068Y20974962D01*
X19846631Y20982819D01*
X19990529Y20982819D01*
X19990723Y20982800D01*
X21608208Y20982800D01*
X22029819Y20561188D01*
X22029819Y19919810D01*
X22031032Y19907489D01*
X22050432Y19809962D01*
X22059930Y19787032D01*
X22118631Y19699181D01*
X22136181Y19681630D01*
X22144300Y19676205D01*
X22144301Y14770008D01*
X22147403Y14750419D01*
X22160458Y14710242D01*
X22167068Y14668512D01*
X22173196Y14649651D01*
X22192374Y14612012D01*
X22205432Y14571826D01*
X22214435Y14554155D01*
X22239268Y14519975D01*
X22258448Y14482334D01*
X22270106Y14466289D01*
X22420403Y14315991D01*
X22427932Y14309561D01*
X22541655Y14226935D01*
X22559327Y14217931D01*
X22737919Y14159903D01*
X22757508Y14156801D01*
X22945291Y14156801D01*
X22964880Y14159903D01*
X23143473Y14217931D01*
X23161145Y14226935D01*
X23313064Y14337313D01*
X23327087Y14351336D01*
X23437465Y14503255D01*
X23446469Y14520927D01*
X23504497Y14699520D01*
X23507599Y14719109D01*
X23507599Y14906892D01*
X23504496Y14926481D01*
X23456700Y15073584D01*
X23456700Y19676205D01*
X23464819Y19681630D01*
X23482369Y19699181D01*
X23541070Y19787032D01*
X23550568Y19809962D01*
X23569968Y19907489D01*
X23571181Y19919810D01*
X23571181Y20882190D01*
X23604819Y20882190D01*
X23604819Y19919810D01*
X23606032Y19907489D01*
X23625432Y19809962D01*
X23634930Y19787032D01*
X23693630Y19699181D01*
X23711181Y19681630D01*
X23799032Y19622930D01*
X23821962Y19613432D01*
X23919489Y19594032D01*
X23931810Y19592819D01*
X24819190Y19592819D01*
X24831511Y19594032D01*
X24929038Y19613432D01*
X24951968Y19622930D01*
X25039819Y19681630D01*
X25057370Y19699181D01*
X25116070Y19787032D01*
X25125568Y19809962D01*
X25126729Y19815800D01*
X25244197Y19815800D01*
X25264093Y19804313D01*
X25284810Y19796772D01*
X25481977Y19762007D01*
X25504023Y19762007D01*
X25701190Y19796772D01*
X25721907Y19804313D01*
X25895293Y19904418D01*
X25912182Y19918589D01*
X26040873Y20071958D01*
X26051896Y20091051D01*
X26120371Y20279184D01*
X26124199Y20300897D01*
X26124199Y20501103D01*
X26120371Y20522816D01*
X26051896Y20710949D01*
X26040873Y20730042D01*
X25912182Y20883411D01*
X25895293Y20897582D01*
X25721907Y20997687D01*
X25701190Y21005228D01*
X25504023Y21039993D01*
X25481977Y21039993D01*
X25284810Y21005228D01*
X25264093Y20997687D01*
X25244197Y20986200D01*
X25126729Y20986200D01*
X25125568Y20992038D01*
X25116070Y21014968D01*
X25057370Y21102819D01*
X25039819Y21120370D01*
X24951968Y21179070D01*
X24929038Y21188568D01*
X24831511Y21207968D01*
X24819190Y21209181D01*
X23931810Y21209181D01*
X23919489Y21207968D01*
X23821962Y21188568D01*
X23799032Y21179070D01*
X23711181Y21120370D01*
X23693630Y21102819D01*
X23634930Y21014968D01*
X23625432Y20992038D01*
X23606032Y20894511D01*
X23604819Y20882190D01*
X23571181Y20882190D01*
X23569968Y20894511D01*
X23550568Y20992038D01*
X23541070Y21014968D01*
X23482370Y21102819D01*
X23464819Y21120370D01*
X23376968Y21179070D01*
X23354038Y21188568D01*
X23256511Y21207968D01*
X23244190Y21209181D01*
X22677812Y21209181D01*
X22353393Y21533599D01*
X25695561Y21533599D01*
X26163511Y21065650D01*
X26163511Y20910497D01*
X26167339Y20888784D01*
X26235814Y20700651D01*
X26246837Y20681558D01*
X26375528Y20528189D01*
X26392417Y20514018D01*
X26565803Y20413913D01*
X26586520Y20406372D01*
X26783687Y20371607D01*
X26805733Y20371607D01*
X27002900Y20406372D01*
X27023617Y20413913D01*
X27197003Y20514018D01*
X27213892Y20528189D01*
X27342583Y20681558D01*
X27353606Y20700651D01*
X27422081Y20888784D01*
X27425909Y20910497D01*
X27425909Y21110703D01*
X27422081Y21132416D01*
X27353606Y21320549D01*
X27342583Y21339642D01*
X27213892Y21493011D01*
X27197003Y21507182D01*
X27023617Y21607287D01*
X27002900Y21614828D01*
X26805733Y21649593D01*
X26783687Y21649593D01*
X26739634Y21641825D01*
X26212949Y22168511D01*
X26250893Y22190418D01*
X26267782Y22204589D01*
X26396473Y22357958D01*
X26407496Y22377051D01*
X26475971Y22565184D01*
X26479799Y22586897D01*
X26479799Y22787103D01*
X26475971Y22808816D01*
X26407496Y22996949D01*
X26396473Y23016042D01*
X26267782Y23169411D01*
X26250893Y23183582D01*
X26077507Y23283687D01*
X26056790Y23291228D01*
X26020652Y23297600D01*
X26230991Y23297600D01*
X26304800Y23371409D01*
X26304810Y27438191D01*
X27779163Y27438191D01*
X27779163Y26756742D01*
X27781319Y26740366D01*
X27856137Y26461141D01*
X27868880Y26436661D01*
X27999990Y26280410D01*
X28016879Y26266239D01*
X28191120Y26165641D01*
X28211837Y26158100D01*
X28404538Y26124122D01*
X28415499Y26123163D01*
X28844191Y26123163D01*
X28918000Y26196972D01*
X28918000Y27438191D01*
X29174000Y27438191D01*
X29174000Y26196972D01*
X29247809Y26123163D01*
X29679258Y26123163D01*
X29695634Y26125319D01*
X29974859Y26200137D01*
X29999339Y26212880D01*
X30155590Y26343990D01*
X30169761Y26360879D01*
X30270359Y26535120D01*
X30277900Y26555837D01*
X30311878Y26748538D01*
X30312837Y26759499D01*
X30312837Y27438191D01*
X30239028Y27512000D01*
X29247809Y27512000D01*
X29174000Y27438191D01*
X28918000Y27438191D01*
X28844191Y27512000D01*
X27852972Y27512000D01*
X27779163Y27438191D01*
X26304810Y27438191D01*
X26304814Y28580800D01*
X27788822Y28580800D01*
X27780122Y28531462D01*
X27779163Y28520501D01*
X27779163Y27841809D01*
X27852972Y27768000D01*
X30239028Y27768000D01*
X30312837Y27841809D01*
X30312837Y28523259D01*
X30310681Y28539634D01*
X30299651Y28580800D01*
X30764801Y28580800D01*
X30764800Y27578237D01*
X30765257Y27570662D01*
X30787385Y27387803D01*
X30791009Y27373049D01*
X30878101Y27142568D01*
X30885139Y27129105D01*
X30887819Y27125206D01*
X30887819Y26758810D01*
X30889032Y26746489D01*
X30908432Y26648962D01*
X30917930Y26626032D01*
X30976630Y26538181D01*
X30994181Y26520630D01*
X31082032Y26461930D01*
X31104962Y26452432D01*
X31202489Y26433032D01*
X31214810Y26431819D01*
X32477190Y26431819D01*
X32489511Y26433032D01*
X32587038Y26452432D01*
X32609968Y26461930D01*
X32697819Y26520630D01*
X32715370Y26538181D01*
X32774070Y26626032D01*
X32783568Y26648962D01*
X32802968Y26746489D01*
X32804181Y26758810D01*
X32804181Y27124148D01*
X32808637Y27132458D01*
X32898197Y27362169D01*
X32902019Y27377214D01*
X32926703Y27572607D01*
X32927200Y27580511D01*
X32927200Y28580800D01*
X36370801Y28580800D01*
X36370800Y12693819D01*
X36349791Y12721640D01*
X36332534Y12737371D01*
X36208457Y12814196D01*
X36228097Y12874641D01*
X36231199Y12894230D01*
X36231199Y13105770D01*
X36228096Y13125359D01*
X36162727Y13326547D01*
X36153723Y13344218D01*
X36029382Y13515358D01*
X36015358Y13529382D01*
X35844218Y13653723D01*
X35826547Y13662727D01*
X35625359Y13728096D01*
X35605770Y13731199D01*
X35394230Y13731199D01*
X35374641Y13728096D01*
X35173453Y13662727D01*
X35155782Y13653723D01*
X34984642Y13529382D01*
X34970618Y13515358D01*
X34846277Y13344218D01*
X34837273Y13326547D01*
X34807785Y13235790D01*
X34454715Y12882720D01*
X32947045Y12882720D01*
X32932573Y12881041D01*
X32707178Y12828029D01*
X32683380Y12816857D01*
X32528360Y12699791D01*
X32512629Y12682534D01*
X32411140Y12518624D01*
X32402705Y12496849D01*
X32368355Y12313097D01*
X32367280Y12301495D01*
X32367280Y11197045D01*
X32368959Y11182573D01*
X32421971Y10957178D01*
X32433143Y10933380D01*
X32550209Y10778360D01*
X32567466Y10762629D01*
X32731376Y10661140D01*
X32753151Y10652705D01*
X32936903Y10618355D01*
X32948505Y10617280D01*
X34454715Y10617280D01*
X34807785Y10264210D01*
X34837273Y10173453D01*
X34846277Y10155782D01*
X34970618Y9984642D01*
X34984642Y9970618D01*
X35155782Y9846277D01*
X35173453Y9837273D01*
X35374641Y9771904D01*
X35394230Y9768801D01*
X35605770Y9768801D01*
X35625359Y9771904D01*
X35826547Y9837273D01*
X35844218Y9846277D01*
X36015358Y9970618D01*
X36029382Y9984642D01*
X36153723Y10155782D01*
X36162727Y10173453D01*
X36228096Y10374641D01*
X36231199Y10394230D01*
X36231199Y10605770D01*
X36228097Y10625359D01*
X36210288Y10680170D01*
X36216620Y10683143D01*
X36370800Y10799575D01*
X36370800Y8377906D01*
X36282511Y8395468D01*
X36270190Y8396681D01*
X35160681Y8396681D01*
X35160681Y9506190D01*
X35159468Y9518511D01*
X35140068Y9616038D01*
X35130570Y9638968D01*
X35071870Y9726819D01*
X35054319Y9744370D01*
X34966468Y9803070D01*
X34943538Y9812568D01*
X34846011Y9831968D01*
X34833690Y9833181D01*
X34694310Y9833181D01*
X34681989Y9831968D01*
X34584462Y9812568D01*
X34561532Y9803070D01*
X34473681Y9744370D01*
X34456130Y9726819D01*
X34397430Y9638968D01*
X34387932Y9616038D01*
X34368532Y9518511D01*
X34367319Y9506190D01*
X34367319Y8396681D01*
X33257810Y8396681D01*
X33245489Y8395468D01*
X33147962Y8376068D01*
X33125032Y8366570D01*
X33037181Y8307870D01*
X33019630Y8290319D01*
X32960930Y8202468D01*
X32951432Y8179538D01*
X32932032Y8082011D01*
X32930819Y8069690D01*
X32930819Y7954000D01*
X30612931Y7954000D01*
X30582980Y7979671D01*
X30571280Y7987616D01*
X30560285Y7993401D01*
X30551047Y8001704D01*
X30539537Y8009922D01*
X30532895Y8013618D01*
X30349890Y8115060D01*
X30336830Y8120489D01*
X30324902Y8123943D01*
X30314057Y8130293D01*
X30300855Y8136115D01*
X30293730Y8138326D01*
X30094336Y8200812D01*
X30080450Y8203505D01*
X30068072Y8204490D01*
X30056276Y8208494D01*
X30042386Y8211521D01*
X30034894Y8212287D01*
X29826760Y8233429D01*
X29812617Y8233274D01*
X29779674Y8229200D01*
X29324655Y8229200D01*
X29296051Y8233500D01*
X29281794Y8234015D01*
X29274342Y8233441D01*
X29114305Y8221126D01*
X29100413Y8218470D01*
X29092458Y8216000D01*
X29084051Y8215758D01*
X29069888Y8213730D01*
X29062614Y8211829D01*
X28860286Y8159127D01*
X28847084Y8154052D01*
X28836062Y8148327D01*
X28823985Y8145483D01*
X28810694Y8140734D01*
X28803839Y8137379D01*
X28616084Y8044992D01*
X28604170Y8037365D01*
X28594528Y8029542D01*
X28583184Y8024289D01*
X28570964Y8016845D01*
X28565027Y8012233D01*
X28489953Y7954000D01*
X23036275Y7954000D01*
X23032572Y7970233D01*
X23020266Y7995804D01*
X23000122Y8021084D01*
X22986130Y8050221D01*
X22968465Y8072429D01*
X22942939Y8092843D01*
X22922571Y8118403D01*
X22900393Y8136107D01*
X22881946Y8145005D01*
X22503457Y8523492D01*
X22499583Y8531560D01*
X22481918Y8553769D01*
X22438294Y8588654D01*
X22426897Y8600052D01*
X22415841Y8608870D01*
X22402646Y8617164D01*
X22359467Y8651693D01*
X22333864Y8664057D01*
X22324697Y8666157D01*
X22316686Y8671192D01*
X22289903Y8680571D01*
X22278635Y8681845D01*
X22341699Y8855112D01*
X22345527Y8876825D01*
X22345527Y9077031D01*
X22341699Y9098744D01*
X22291663Y9236215D01*
X22296016Y9234687D01*
X22324211Y9231475D01*
X22379710Y9237651D01*
X22395843Y9237651D01*
X22409898Y9239234D01*
X22425108Y9242703D01*
X22480039Y9248817D01*
X22506885Y9258178D01*
X22514850Y9263175D01*
X22524079Y9265280D01*
X22549649Y9277586D01*
X22593395Y9312446D01*
X22606659Y9320766D01*
X22617766Y9329616D01*
X22628843Y9340693D01*
X22647072Y9355220D01*
X22687977Y9348007D01*
X22710023Y9348007D01*
X22907190Y9382772D01*
X22927907Y9390313D01*
X23101293Y9490418D01*
X23118182Y9504589D01*
X23246873Y9657958D01*
X23257896Y9677051D01*
X23326371Y9865184D01*
X23330199Y9886897D01*
X23330199Y10087103D01*
X23326371Y10108816D01*
X23257896Y10296949D01*
X23246873Y10316042D01*
X23118182Y10469411D01*
X23101293Y10483582D01*
X22927907Y10583687D01*
X22907190Y10591228D01*
X22710023Y10625993D01*
X22687977Y10625993D01*
X22490810Y10591228D01*
X22470092Y10583687D01*
X22454869Y10574898D01*
X22445096Y10601749D01*
X22434073Y10620842D01*
X22305382Y10774211D01*
X22288493Y10788382D01*
X22115107Y10888487D01*
X22094390Y10896028D01*
X21897223Y10930793D01*
X21875177Y10930793D01*
X21678010Y10896028D01*
X21657293Y10888487D01*
X21483907Y10788382D01*
X21467018Y10774211D01*
X21404077Y10699200D01*
X17687716Y10699200D01*
X17679275Y10702164D01*
X17651080Y10705376D01*
X17595581Y10699200D01*
X17579447Y10699200D01*
X17565391Y10697617D01*
X17550183Y10694148D01*
X17495251Y10688035D01*
X17468403Y10678672D01*
X17460439Y10673676D01*
X17451214Y10671572D01*
X17425644Y10659266D01*
X17381904Y10624411D01*
X17368627Y10616083D01*
X17357523Y10607234D01*
X17346444Y10596154D01*
X17303046Y10561572D01*
X17285342Y10539395D01*
X17281296Y10531007D01*
X16714854Y9964563D01*
X16706786Y9960689D01*
X16684577Y9943023D01*
X16649687Y9899395D01*
X16638295Y9888003D01*
X16629476Y9876947D01*
X16624948Y9869744D01*
X16599634Y9884359D01*
X16578916Y9891900D01*
X16381749Y9926665D01*
X16359703Y9926665D01*
X16276138Y9911930D01*
X16242610Y10004048D01*
X16231587Y10023141D01*
X16102896Y10176510D01*
X16086007Y10190681D01*
X15912621Y10290786D01*
X15891904Y10298327D01*
X15694737Y10333092D01*
X15672691Y10333092D01*
X15562512Y10313665D01*
X15562512Y11548191D01*
X26660776Y11548191D01*
X26660776Y11195817D01*
X26662220Y11182387D01*
X26735255Y10846647D01*
X26743885Y10825813D01*
X26872696Y10625380D01*
X26884499Y10611759D01*
X27062849Y10457217D01*
X27078011Y10447473D01*
X27292677Y10349439D01*
X27309970Y10344361D01*
X27539094Y10311418D01*
X27548071Y10310776D01*
X28848191Y10310776D01*
X28922000Y10384585D01*
X28922000Y11548191D01*
X29178000Y11548191D01*
X29178000Y10384585D01*
X29251809Y10310776D01*
X30554183Y10310776D01*
X30567613Y10312220D01*
X30903353Y10385255D01*
X30924187Y10393885D01*
X31124620Y10522696D01*
X31138241Y10534499D01*
X31292783Y10712849D01*
X31302527Y10728011D01*
X31400561Y10942677D01*
X31405639Y10959970D01*
X31438582Y11189094D01*
X31439224Y11198071D01*
X31439224Y11548191D01*
X31365415Y11622000D01*
X29251809Y11622000D01*
X29178000Y11548191D01*
X28922000Y11548191D01*
X28848191Y11622000D01*
X26734585Y11622000D01*
X26660776Y11548191D01*
X15562512Y11548191D01*
X15562512Y11853781D01*
X15559409Y11873370D01*
X15546355Y11913547D01*
X15539746Y11955275D01*
X15533617Y11974137D01*
X15514436Y12011783D01*
X15501380Y12051962D01*
X15492377Y12069632D01*
X15467546Y12103810D01*
X15448364Y12141455D01*
X15436707Y12157500D01*
X15292277Y12301929D01*
X26660776Y12301929D01*
X26660776Y11951809D01*
X26734585Y11878000D01*
X28848191Y11878000D01*
X28922000Y11951809D01*
X28922000Y13115415D01*
X29178000Y13115415D01*
X29178000Y11951809D01*
X29251809Y11878000D01*
X31365415Y11878000D01*
X31439224Y11951809D01*
X31439224Y12304183D01*
X31437780Y12317613D01*
X31364745Y12653353D01*
X31356115Y12674187D01*
X31227304Y12874620D01*
X31215501Y12888241D01*
X31037151Y13042783D01*
X31021989Y13052527D01*
X30807323Y13150561D01*
X30790030Y13155639D01*
X30560906Y13188582D01*
X30551929Y13189224D01*
X29251809Y13189224D01*
X29178000Y13115415D01*
X28922000Y13115415D01*
X28848191Y13189224D01*
X27545817Y13189224D01*
X27532387Y13187780D01*
X27196647Y13114745D01*
X27175813Y13106115D01*
X26975380Y12977304D01*
X26961759Y12965501D01*
X26807217Y12787151D01*
X26797473Y12771989D01*
X26699439Y12557323D01*
X26694361Y12540030D01*
X26661418Y12310906D01*
X26660776Y12301929D01*
X15292277Y12301929D01*
X15230596Y12363610D01*
X15223067Y12370040D01*
X15109344Y12452665D01*
X15091673Y12461669D01*
X14913081Y12519697D01*
X14893492Y12522799D01*
X14705708Y12522799D01*
X14686119Y12519697D01*
X14507527Y12461669D01*
X14489856Y12452665D01*
X14337936Y12342288D01*
X14323912Y12328264D01*
X14213535Y12176344D01*
X14204531Y12158673D01*
X14152871Y11999680D01*
X14088496Y12176549D01*
X14077473Y12195642D01*
X13948782Y12349011D01*
X13931893Y12363182D01*
X13763247Y12460550D01*
X11777076Y14446719D01*
X11734357Y14497630D01*
X11717468Y14511801D01*
X11659919Y14545027D01*
X11612803Y14578019D01*
X11600068Y14642038D01*
X11590570Y14664968D01*
X11531870Y14752819D01*
X11514319Y14770370D01*
X11426468Y14829070D01*
X11403538Y14838568D01*
X11306011Y14857968D01*
X11293690Y14859181D01*
X10691390Y14859181D01*
X10331328Y15219242D01*
X10326819Y15228632D01*
X10309153Y15250841D01*
X10262100Y15288469D01*
X10249680Y15300890D01*
X10238624Y15309708D01*
X10224227Y15318757D01*
X10177653Y15356002D01*
X10152051Y15368365D01*
X10141426Y15370799D01*
X10132143Y15376633D01*
X10105361Y15386012D01*
X10045416Y15392789D01*
X10028758Y15396604D01*
X10014646Y15398200D01*
X9997544Y15398200D01*
X9938077Y15404923D01*
X9909876Y15401760D01*
X9899682Y15398200D01*
X6680381Y15398200D01*
X6680381Y15446590D01*
X6679168Y15458911D01*
X6659768Y15556438D01*
X6650270Y15579368D01*
X6591570Y15667219D01*
X6574019Y15684770D01*
X6486168Y15743470D01*
X6463238Y15752968D01*
X6365711Y15772368D01*
X6353390Y15773581D01*
X5466010Y15773581D01*
X5453689Y15772368D01*
X5356162Y15752968D01*
X5333232Y15743470D01*
X5245381Y15684770D01*
X5227830Y15667219D01*
X5169130Y15579368D01*
X5159632Y15556438D01*
X5140232Y15458911D01*
X5139019Y15446590D01*
X5139019Y14484210D01*
X5140232Y14471889D01*
X5159632Y14374362D01*
X5169130Y14351432D01*
X5227830Y14263581D01*
X5245381Y14246030D01*
X5333232Y14187330D01*
X5356162Y14177832D01*
X5453689Y14158432D01*
X5466010Y14157219D01*
X5479001Y14157219D01*
X5479000Y14064981D01*
X5475610Y14064981D01*
X5463289Y14063768D01*
X5365762Y14044368D01*
X5342832Y14034870D01*
X5254981Y13976170D01*
X5237430Y13958619D01*
X5224903Y13939871D01*
X5205311Y13943768D01*
X5192990Y13944981D01*
X3730610Y13944981D01*
X3718289Y13943768D01*
X3698697Y13939871D01*
X3686170Y13958619D01*
X3668619Y13976170D01*
X3580768Y14034870D01*
X3557838Y14044368D01*
X3460311Y14063768D01*
X3447990Y14064981D01*
X2755610Y14064981D01*
X2743289Y14063768D01*
X2645762Y14044368D01*
X2622832Y14034870D01*
X2534981Y13976170D01*
X2517431Y13958620D01*
X2516016Y13956503D01*
X2500978Y13949265D01*
X2457244Y13914414D01*
X2443966Y13906086D01*
X2432860Y13897235D01*
X2421780Y13886155D01*
X2378381Y13851572D01*
X2360677Y13829395D01*
X2356631Y13821007D01*
X1973142Y13437517D01*
X1965074Y13433643D01*
X1942865Y13415977D01*
X1907976Y13372351D01*
X1896581Y13360956D01*
X1887761Y13349897D01*
X1879464Y13336696D01*
X1867428Y13321645D01*
X1454245Y12908460D01*
X1446177Y12904586D01*
X1423968Y12886920D01*
X1389078Y12843292D01*
X1377686Y12831900D01*
X1368867Y12820844D01*
X1360567Y12807639D01*
X1326044Y12764469D01*
X1313681Y12738867D01*
X1311582Y12729701D01*
X1306545Y12721688D01*
X1297166Y12694906D01*
X1290883Y12639329D01*
X1287385Y12624059D01*
X1285790Y12609948D01*
X1285790Y12594271D01*
X1279557Y12539137D01*
X1282720Y12510936D01*
X1285790Y12502145D01*
X1285791Y10894688D01*
X1282826Y10886245D01*
X1279614Y10858050D01*
X1285791Y10802542D01*
X1285791Y10786417D01*
X1287374Y10772363D01*
X1290841Y10757161D01*
X1296956Y10702222D01*
X1306318Y10675376D01*
X1311314Y10667411D01*
X1313419Y10658184D01*
X1325726Y10632613D01*
X1360578Y10588877D01*
X1368906Y10575601D01*
X1377755Y10564495D01*
X1388837Y10553413D01*
X1423420Y10510015D01*
X1445598Y10492311D01*
X1453986Y10488265D01*
X2932176Y9010074D01*
X2936050Y9002007D01*
X2953716Y8979798D01*
X2997330Y8944920D01*
X3008736Y8933513D01*
X3019795Y8924693D01*
X3033004Y8916391D01*
X3076166Y8881873D01*
X3101768Y8869510D01*
X3110935Y8867410D01*
X3118950Y8862373D01*
X3145731Y8852995D01*
X3201304Y8846712D01*
X3216578Y8843214D01*
X3230688Y8841619D01*
X3246366Y8841619D01*
X3301500Y8835386D01*
X3329701Y8838549D01*
X3338492Y8841619D01*
X6775058Y8841619D01*
X6837999Y8766608D01*
X6854888Y8752437D01*
X7028274Y8652332D01*
X7048991Y8644791D01*
X7246158Y8610026D01*
X7268204Y8610026D01*
X7465371Y8644791D01*
X7486088Y8652332D01*
X7659474Y8752437D01*
X7676363Y8766608D01*
X7805054Y8919977D01*
X7816077Y8939070D01*
X7884552Y9127203D01*
X7888380Y9148916D01*
X7888380Y9332129D01*
X8414380Y9332129D01*
X8593029Y9153480D01*
X8593029Y9143411D01*
X8511327Y9046042D01*
X8500304Y9026949D01*
X8431829Y8838816D01*
X8428001Y8817103D01*
X8428001Y8616896D01*
X8431829Y8595184D01*
X8436717Y8581755D01*
X8423892Y8577087D01*
X8250507Y8476982D01*
X8233618Y8462811D01*
X8104927Y8309442D01*
X8093904Y8290349D01*
X8025429Y8102216D01*
X8021601Y8080503D01*
X8021601Y7954000D01*
X7812931Y7954000D01*
X7782980Y7979671D01*
X7771280Y7987616D01*
X7760285Y7993401D01*
X7751047Y8001704D01*
X7739537Y8009922D01*
X7732895Y8013618D01*
X7549890Y8115060D01*
X7536830Y8120489D01*
X7524902Y8123943D01*
X7514057Y8130293D01*
X7500855Y8136115D01*
X7493730Y8138326D01*
X7294336Y8200812D01*
X7280450Y8203505D01*
X7268072Y8204490D01*
X7256276Y8208494D01*
X7242386Y8211521D01*
X7234894Y8212287D01*
X7026760Y8233429D01*
X7012617Y8233274D01*
X6979674Y8229200D01*
X6624655Y8229200D01*
X6596051Y8233500D01*
X6581794Y8234015D01*
X6574342Y8233441D01*
X6414305Y8221126D01*
X6400413Y8218470D01*
X6392458Y8216000D01*
X6384051Y8215758D01*
X6369888Y8213730D01*
X6362614Y8211829D01*
X6160286Y8159127D01*
X6147084Y8154052D01*
X6136062Y8148327D01*
X6123985Y8145483D01*
X6110694Y8140734D01*
X6103839Y8137379D01*
X5916084Y8044992D01*
X5904170Y8037365D01*
X5894528Y8029542D01*
X5883184Y8024289D01*
X5870964Y8016845D01*
X5865027Y8012233D01*
X5789953Y7954000D01*
X3577181Y7954000D01*
X3577181Y8069690D01*
X3575968Y8082011D01*
X3556568Y8179538D01*
X3547070Y8202468D01*
X3488370Y8290319D01*
X3470819Y8307870D01*
X3382968Y8366570D01*
X3360038Y8376068D01*
X3262511Y8395468D01*
X3250190Y8396681D01*
X2140681Y8396681D01*
X2140681Y9506190D01*
X2139468Y9518511D01*
X2120068Y9616038D01*
X2110570Y9638968D01*
X2051870Y9726819D01*
X2034319Y9744370D01*
X1946468Y9803070D01*
X1923538Y9812568D01*
X1826011Y9831968D01*
X1813690Y9833181D01*
X1674310Y9833181D01*
X1661989Y9831968D01*
X1564462Y9812568D01*
X1541532Y9803070D01*
X1453681Y9744370D01*
X1436130Y9726819D01*
X1377430Y9638968D01*
X1367932Y9616038D01*
X1348532Y9518511D01*
X1347319Y9506190D01*
X1347319Y8396681D01*
X329200Y8396681D01*
X329200Y15090903D01*
X2865401Y15090903D01*
X2865401Y14890697D01*
X2869229Y14868984D01*
X2937704Y14680851D01*
X2948727Y14661758D01*
X3077418Y14508389D01*
X3094307Y14494218D01*
X3267693Y14394113D01*
X3288410Y14386572D01*
X3485577Y14351807D01*
X3507623Y14351807D01*
X3588097Y14365997D01*
X3594130Y14351432D01*
X3652830Y14263581D01*
X3670381Y14246030D01*
X3758232Y14187330D01*
X3781162Y14177832D01*
X3878689Y14158432D01*
X3891010Y14157219D01*
X4778390Y14157219D01*
X4790711Y14158432D01*
X4888238Y14177832D01*
X4911168Y14187330D01*
X4999019Y14246030D01*
X5016570Y14263581D01*
X5075270Y14351432D01*
X5084768Y14374362D01*
X5104168Y14471889D01*
X5105381Y14484210D01*
X5105381Y15446590D01*
X5104168Y15458911D01*
X5084768Y15556438D01*
X5075270Y15579368D01*
X5016570Y15667219D01*
X4999019Y15684770D01*
X4911168Y15743470D01*
X4888238Y15752968D01*
X4790711Y15772368D01*
X4778390Y15773581D01*
X3891010Y15773581D01*
X3878689Y15772368D01*
X3781162Y15752968D01*
X3758232Y15743470D01*
X3670381Y15684770D01*
X3652830Y15667219D01*
X3615154Y15610833D01*
X3507623Y15629793D01*
X3485577Y15629793D01*
X3288410Y15595028D01*
X3267693Y15587487D01*
X3094307Y15487382D01*
X3077418Y15473211D01*
X2948727Y15319842D01*
X2937704Y15300749D01*
X2869229Y15112616D01*
X2865401Y15090903D01*
X329200Y15090903D01*
X329200Y18723103D01*
X10637801Y18723103D01*
X10637801Y18522897D01*
X10641629Y18501184D01*
X10710104Y18313051D01*
X10721127Y18293958D01*
X10849818Y18140589D01*
X10866707Y18126418D01*
X11040093Y18026313D01*
X11060810Y18018772D01*
X11257977Y17984007D01*
X11280023Y17984007D01*
X11477190Y18018772D01*
X11497907Y18026313D01*
X11517803Y18037800D01*
X11609771Y18037800D01*
X11610932Y18031962D01*
X11620430Y18009032D01*
X11679130Y17921181D01*
X11696681Y17903630D01*
X11784532Y17844930D01*
X11807462Y17835432D01*
X11904989Y17816032D01*
X11917310Y17814819D01*
X12804690Y17814819D01*
X12817011Y17816032D01*
X12914538Y17835432D01*
X12937468Y17844930D01*
X13025319Y17903630D01*
X13042870Y17921181D01*
X13101570Y18009032D01*
X13111068Y18031962D01*
X13130468Y18129489D01*
X13131681Y18141810D01*
X13131681Y19104190D01*
X13130468Y19116511D01*
X13111068Y19214038D01*
X13101570Y19236968D01*
X13042870Y19324819D01*
X13025319Y19342370D01*
X12937468Y19401070D01*
X12914538Y19410568D01*
X12817011Y19429968D01*
X12804690Y19431181D01*
X11917310Y19431181D01*
X11904989Y19429968D01*
X11807462Y19410568D01*
X11784532Y19401070D01*
X11696681Y19342370D01*
X11679130Y19324819D01*
X11620430Y19236968D01*
X11610932Y19214038D01*
X11609771Y19208200D01*
X11517803Y19208200D01*
X11497907Y19219687D01*
X11477190Y19227228D01*
X11280023Y19261993D01*
X11257977Y19261993D01*
X11060810Y19227228D01*
X11040093Y19219687D01*
X10866707Y19119582D01*
X10849818Y19105411D01*
X10721127Y18952042D01*
X10710104Y18932949D01*
X10641629Y18744816D01*
X10637801Y18723103D01*
X329200Y18723103D01*
X329200Y20961191D01*
X9656163Y20961191D01*
X9656163Y20679742D01*
X9658319Y20663366D01*
X9733137Y20384141D01*
X9745880Y20359661D01*
X9876990Y20203410D01*
X9893879Y20189239D01*
X10068120Y20088641D01*
X10088837Y20081100D01*
X10281538Y20047122D01*
X10292499Y20046163D01*
X10533691Y20046163D01*
X10607500Y20119972D01*
X10607500Y20961191D01*
X10533691Y21035000D01*
X9729972Y21035000D01*
X9656163Y20961191D01*
X329200Y20961191D01*
X329200Y28580800D01*
X3326801Y28580800D01*
X3326800Y27578237D01*
G37*
X3326800Y27578237D02*
X3327257Y27570662D01*
X3349385Y27387803D01*
X3353009Y27373049D01*
X3440101Y27142568D01*
X3447139Y27129105D01*
X3449819Y27125206D01*
X3449819Y26758810D01*
X3451032Y26746489D01*
X3470432Y26648962D01*
X3479930Y26626032D01*
X3538630Y26538181D01*
X3556181Y26520630D01*
X3644032Y26461930D01*
X3666962Y26452432D01*
X3764489Y26433032D01*
X3776810Y26431819D01*
X5039190Y26431819D01*
X5051511Y26433032D01*
X5149038Y26452432D01*
X5171968Y26461930D01*
X5259819Y26520630D01*
X5277370Y26538181D01*
X5336070Y26626032D01*
X5345568Y26648962D01*
X5364968Y26746489D01*
X5366181Y26758810D01*
X5366181Y27124148D01*
X5370637Y27132458D01*
X5460197Y27362169D01*
X5464019Y27377214D01*
X5471722Y27438192D01*
X5941163Y27438192D01*
X5941163Y26756742D01*
X5943319Y26740366D01*
X6018137Y26461141D01*
X6030880Y26436661D01*
X6161990Y26280410D01*
X6178879Y26266239D01*
X6353120Y26165641D01*
X6373837Y26158100D01*
X6566538Y26124122D01*
X6577499Y26123163D01*
X7006191Y26123163D01*
X7080000Y26196972D01*
X7335999Y26196972D01*
X7409808Y26123163D01*
X7841258Y26123163D01*
X7857634Y26125319D01*
X8136859Y26200137D01*
X8161339Y26212880D01*
X8317590Y26343990D01*
X8331761Y26360879D01*
X8432359Y26535120D01*
X8439900Y26555837D01*
X8473878Y26748538D01*
X8474837Y26759499D01*
X8474837Y27438191D01*
X8401028Y27512000D01*
X7409809Y27512001D01*
X7336000Y27438192D01*
X7335999Y26196972D01*
X7080000Y26196972D01*
X7080001Y27438191D01*
X7006192Y27512000D01*
X6014972Y27512001D01*
X5941163Y27438192D01*
X5471722Y27438192D01*
X5488703Y27572607D01*
X5489200Y27580511D01*
X5489200Y28580800D01*
X5950822Y28580800D01*
X5942122Y28531462D01*
X5941163Y28520501D01*
X5941163Y27841809D01*
X6014972Y27768000D01*
X8401028Y27767999D01*
X8474837Y27841808D01*
X8474837Y28523259D01*
X8472681Y28539634D01*
X8461651Y28580800D01*
X8983986Y28580800D01*
X8984000Y23396866D01*
X9057671Y23323081D01*
X9274552Y23322744D01*
X9275018Y23322189D01*
X9291907Y23308018D01*
X9465293Y23207913D01*
X9486010Y23200372D01*
X9683177Y23165607D01*
X9705223Y23165607D01*
X9902390Y23200372D01*
X9923108Y23207913D01*
X9939319Y23217273D01*
X9939319Y22332810D01*
X9940532Y22320489D01*
X9959932Y22222962D01*
X9969430Y22200032D01*
X9974404Y22192588D01*
X9969662Y22190120D01*
X9813410Y22059010D01*
X9799239Y22042121D01*
X9698641Y21867880D01*
X9691100Y21847163D01*
X9657122Y21654462D01*
X9656163Y21643501D01*
X9656163Y21364809D01*
X9729972Y21291000D01*
X10863500Y21291000D01*
X10863500Y20119972D01*
X10937309Y20046163D01*
X11181258Y20046163D01*
X11197634Y20048319D01*
X11476859Y20123137D01*
X11501339Y20135880D01*
X11657590Y20266990D01*
X11671761Y20283879D01*
X11731197Y20386825D01*
X11734032Y20384930D01*
X11756962Y20375432D01*
X11854489Y20356032D01*
X11866810Y20354819D01*
X12754190Y20354819D01*
X12766511Y20356032D01*
X12864038Y20375432D01*
X12886968Y20384930D01*
X12974819Y20443630D01*
X12992370Y20461181D01*
X13051070Y20549032D01*
X13060568Y20571962D01*
X13079968Y20669489D01*
X13081181Y20681810D01*
X13081181Y20704800D01*
X13831450Y20704800D01*
X13864168Y20698292D01*
X13888988Y20698292D01*
X14042949Y20728917D01*
X14065879Y20738415D01*
X14196401Y20825626D01*
X14213952Y20843177D01*
X14232487Y20870917D01*
X14503131Y21141561D01*
X14538130Y21089181D01*
X14555681Y21071630D01*
X14643532Y21012930D01*
X14666462Y21003432D01*
X14763989Y20984032D01*
X14776310Y20982819D01*
X15518369Y20982819D01*
X15519932Y20974962D01*
X15529430Y20952032D01*
X15545814Y20927511D01*
X15532026Y20913723D01*
X15513491Y20885983D01*
X14058690Y19431181D01*
X13492310Y19431181D01*
X13479989Y19429968D01*
X13382462Y19410568D01*
X13359532Y19401070D01*
X13271681Y19342370D01*
X13254130Y19324819D01*
X13195430Y19236968D01*
X13185932Y19214038D01*
X13166532Y19116511D01*
X13165319Y19104190D01*
X13165319Y18141810D01*
X13166532Y18129489D01*
X13185932Y18031962D01*
X13195430Y18009032D01*
X13254130Y17921181D01*
X13271681Y17903630D01*
X13359532Y17844930D01*
X13382462Y17835432D01*
X13479989Y17816032D01*
X13492310Y17814819D01*
X14379690Y17814819D01*
X14392011Y17816032D01*
X14489538Y17835432D01*
X14512468Y17844930D01*
X14600319Y17903630D01*
X14617870Y17921181D01*
X14676570Y18009032D01*
X14686068Y18031962D01*
X14705468Y18129489D01*
X14706681Y18141810D01*
X14706681Y18783190D01*
X15782906Y19859414D01*
X15813130Y19814181D01*
X15830681Y19796630D01*
X15918532Y19737930D01*
X15941462Y19728432D01*
X16038989Y19709032D01*
X16051310Y19707819D01*
X16275099Y19707819D01*
X16275100Y16177592D01*
X16144887Y16102413D01*
X16127998Y16088242D01*
X15999307Y15934873D01*
X15988284Y15915780D01*
X15919809Y15727647D01*
X15915981Y15705934D01*
X15915981Y15505728D01*
X15919809Y15484015D01*
X15988284Y15295882D01*
X15999307Y15276789D01*
X16127998Y15123420D01*
X16144887Y15109249D01*
X16318273Y15009144D01*
X16338990Y15001603D01*
X16536157Y14966838D01*
X16558203Y14966838D01*
X16755370Y15001603D01*
X16776087Y15009144D01*
X16949473Y15109249D01*
X16966362Y15123420D01*
X17095053Y15276789D01*
X17106076Y15295882D01*
X17174551Y15484015D01*
X17178379Y15505728D01*
X17178379Y15705934D01*
X17174551Y15727647D01*
X17106076Y15915780D01*
X17095052Y15934874D01*
X17089899Y15941015D01*
X17089899Y16160741D01*
X17285717Y16126214D01*
X17307763Y16126214D01*
X17417942Y16145641D01*
X17417942Y16002478D01*
X17388628Y15967543D01*
X17377604Y15948449D01*
X17309129Y15760316D01*
X17305301Y15738603D01*
X17305301Y15538397D01*
X17309129Y15516684D01*
X17377604Y15328551D01*
X17388627Y15309458D01*
X17517318Y15156089D01*
X17534207Y15141918D01*
X17707593Y15041813D01*
X17728310Y15034272D01*
X17775201Y15026004D01*
X17775201Y14916097D01*
X17779029Y14894384D01*
X17847504Y14706251D01*
X17858527Y14687158D01*
X17987218Y14533789D01*
X18004107Y14519618D01*
X18177493Y14419513D01*
X18198210Y14411972D01*
X18395377Y14377207D01*
X18417423Y14377207D01*
X18614590Y14411972D01*
X18635307Y14419513D01*
X18738561Y14479127D01*
X18800622Y14417067D01*
X18816667Y14405409D01*
X18983983Y14320157D01*
X19002845Y14314028D01*
X19141684Y14292039D01*
X19151555Y14291262D01*
X20561805Y14291262D01*
X20661174Y14275524D01*
X20671045Y14274747D01*
X20866848Y14274747D01*
X20886437Y14277850D01*
X20926614Y14290904D01*
X20968342Y14297513D01*
X20987204Y14303642D01*
X21024850Y14322823D01*
X21065030Y14335879D01*
X21082701Y14344883D01*
X21116873Y14369712D01*
X21154520Y14388893D01*
X21170566Y14400551D01*
X21200441Y14430426D01*
X21234619Y14455259D01*
X21248643Y14469283D01*
X21273476Y14503461D01*
X21303351Y14533336D01*
X21315009Y14549382D01*
X21334190Y14587029D01*
X21359019Y14621201D01*
X21368023Y14638872D01*
X21381079Y14679052D01*
X21400260Y14716698D01*
X21406389Y14735560D01*
X21412998Y14777288D01*
X21426052Y14817465D01*
X21429155Y14837054D01*
X21429155Y14879301D01*
X21435764Y14921031D01*
X21435764Y14940863D01*
X21429155Y14982593D01*
X21429155Y15024839D01*
X21426052Y15044428D01*
X21412998Y15084604D01*
X21406389Y15126335D01*
X21400260Y15145198D01*
X21381077Y15182845D01*
X21368024Y15223019D01*
X21359020Y15240691D01*
X21334189Y15274869D01*
X21315007Y15312514D01*
X21303350Y15328559D01*
X21154052Y15477857D01*
X21138007Y15489514D01*
X21100362Y15508696D01*
X21066184Y15533527D01*
X21048513Y15542531D01*
X21008339Y15555584D01*
X20970690Y15574767D01*
X20951828Y15580895D01*
X20910092Y15587506D01*
X20869920Y15600559D01*
X20850332Y15603661D01*
X19551856Y15603662D01*
X19562010Y15624689D01*
X19564109Y15633855D01*
X19569143Y15641864D01*
X19578522Y15668647D01*
X19584804Y15724210D01*
X19588305Y15739497D01*
X19589900Y15753607D01*
X19589900Y15769286D01*
X19596133Y15824417D01*
X19592970Y15852619D01*
X19589900Y15861410D01*
X19589900Y19871097D01*
X19610570Y19902031D01*
X19620068Y19924962D01*
X19639468Y20022489D01*
X19640681Y20034810D01*
X19640681Y20776869D01*
X19648538Y20778432D01*
X19671468Y20787930D01*
X19759319Y20846630D01*
X19776870Y20864181D01*
X19835570Y20952032D01*
X19845068Y20974962D01*
X19846631Y20982819D01*
X19990529Y20982819D01*
X19990723Y20982800D01*
X21608208Y20982800D01*
X22029819Y20561188D01*
X22029819Y19919810D01*
X22031032Y19907489D01*
X22050432Y19809962D01*
X22059930Y19787032D01*
X22118631Y19699181D01*
X22136181Y19681630D01*
X22144300Y19676205D01*
X22144301Y14770008D01*
X22147403Y14750419D01*
X22160458Y14710242D01*
X22167068Y14668512D01*
X22173196Y14649651D01*
X22192374Y14612012D01*
X22205432Y14571826D01*
X22214435Y14554155D01*
X22239268Y14519975D01*
X22258448Y14482334D01*
X22270106Y14466289D01*
X22420403Y14315991D01*
X22427932Y14309561D01*
X22541655Y14226935D01*
X22559327Y14217931D01*
X22737919Y14159903D01*
X22757508Y14156801D01*
X22945291Y14156801D01*
X22964880Y14159903D01*
X23143473Y14217931D01*
X23161145Y14226935D01*
X23313064Y14337313D01*
X23327087Y14351336D01*
X23437465Y14503255D01*
X23446469Y14520927D01*
X23504497Y14699520D01*
X23507599Y14719109D01*
X23507599Y14906892D01*
X23504496Y14926481D01*
X23456700Y15073584D01*
X23456700Y19676205D01*
X23464819Y19681630D01*
X23482369Y19699181D01*
X23541070Y19787032D01*
X23550568Y19809962D01*
X23569968Y19907489D01*
X23571181Y19919810D01*
X23571181Y20882190D01*
X23604819Y20882190D01*
X23604819Y19919810D01*
X23606032Y19907489D01*
X23625432Y19809962D01*
X23634930Y19787032D01*
X23693630Y19699181D01*
X23711181Y19681630D01*
X23799032Y19622930D01*
X23821962Y19613432D01*
X23919489Y19594032D01*
X23931810Y19592819D01*
X24819190Y19592819D01*
X24831511Y19594032D01*
X24929038Y19613432D01*
X24951968Y19622930D01*
X25039819Y19681630D01*
X25057370Y19699181D01*
X25116070Y19787032D01*
X25125568Y19809962D01*
X25126729Y19815800D01*
X25244197Y19815800D01*
X25264093Y19804313D01*
X25284810Y19796772D01*
X25481977Y19762007D01*
X25504023Y19762007D01*
X25701190Y19796772D01*
X25721907Y19804313D01*
X25895293Y19904418D01*
X25912182Y19918589D01*
X26040873Y20071958D01*
X26051896Y20091051D01*
X26120371Y20279184D01*
X26124199Y20300897D01*
X26124199Y20501103D01*
X26120371Y20522816D01*
X26051896Y20710949D01*
X26040873Y20730042D01*
X25912182Y20883411D01*
X25895293Y20897582D01*
X25721907Y20997687D01*
X25701190Y21005228D01*
X25504023Y21039993D01*
X25481977Y21039993D01*
X25284810Y21005228D01*
X25264093Y20997687D01*
X25244197Y20986200D01*
X25126729Y20986200D01*
X25125568Y20992038D01*
X25116070Y21014968D01*
X25057370Y21102819D01*
X25039819Y21120370D01*
X24951968Y21179070D01*
X24929038Y21188568D01*
X24831511Y21207968D01*
X24819190Y21209181D01*
X23931810Y21209181D01*
X23919489Y21207968D01*
X23821962Y21188568D01*
X23799032Y21179070D01*
X23711181Y21120370D01*
X23693630Y21102819D01*
X23634930Y21014968D01*
X23625432Y20992038D01*
X23606032Y20894511D01*
X23604819Y20882190D01*
X23571181Y20882190D01*
X23569968Y20894511D01*
X23550568Y20992038D01*
X23541070Y21014968D01*
X23482370Y21102819D01*
X23464819Y21120370D01*
X23376968Y21179070D01*
X23354038Y21188568D01*
X23256511Y21207968D01*
X23244190Y21209181D01*
X22677812Y21209181D01*
X22353393Y21533599D01*
X25695561Y21533599D01*
X26163511Y21065650D01*
X26163511Y20910497D01*
X26167339Y20888784D01*
X26235814Y20700651D01*
X26246837Y20681558D01*
X26375528Y20528189D01*
X26392417Y20514018D01*
X26565803Y20413913D01*
X26586520Y20406372D01*
X26783687Y20371607D01*
X26805733Y20371607D01*
X27002900Y20406372D01*
X27023617Y20413913D01*
X27197003Y20514018D01*
X27213892Y20528189D01*
X27342583Y20681558D01*
X27353606Y20700651D01*
X27422081Y20888784D01*
X27425909Y20910497D01*
X27425909Y21110703D01*
X27422081Y21132416D01*
X27353606Y21320549D01*
X27342583Y21339642D01*
X27213892Y21493011D01*
X27197003Y21507182D01*
X27023617Y21607287D01*
X27002900Y21614828D01*
X26805733Y21649593D01*
X26783687Y21649593D01*
X26739634Y21641825D01*
X26212949Y22168511D01*
X26250893Y22190418D01*
X26267782Y22204589D01*
X26396473Y22357958D01*
X26407496Y22377051D01*
X26475971Y22565184D01*
X26479799Y22586897D01*
X26479799Y22787103D01*
X26475971Y22808816D01*
X26407496Y22996949D01*
X26396473Y23016042D01*
X26267782Y23169411D01*
X26250893Y23183582D01*
X26077507Y23283687D01*
X26056790Y23291228D01*
X26020652Y23297600D01*
X26230991Y23297600D01*
X26304800Y23371409D01*
X26304810Y27438191D01*
X27779163Y27438191D01*
X27779163Y26756742D01*
X27781319Y26740366D01*
X27856137Y26461141D01*
X27868880Y26436661D01*
X27999990Y26280410D01*
X28016879Y26266239D01*
X28191120Y26165641D01*
X28211837Y26158100D01*
X28404538Y26124122D01*
X28415499Y26123163D01*
X28844191Y26123163D01*
X28918000Y26196972D01*
X28918000Y27438191D01*
X29174000Y27438191D01*
X29174000Y26196972D01*
X29247809Y26123163D01*
X29679258Y26123163D01*
X29695634Y26125319D01*
X29974859Y26200137D01*
X29999339Y26212880D01*
X30155590Y26343990D01*
X30169761Y26360879D01*
X30270359Y26535120D01*
X30277900Y26555837D01*
X30311878Y26748538D01*
X30312837Y26759499D01*
X30312837Y27438191D01*
X30239028Y27512000D01*
X29247809Y27512000D01*
X29174000Y27438191D01*
X28918000Y27438191D01*
X28844191Y27512000D01*
X27852972Y27512000D01*
X27779163Y27438191D01*
X26304810Y27438191D01*
X26304814Y28580800D01*
X27788822Y28580800D01*
X27780122Y28531462D01*
X27779163Y28520501D01*
X27779163Y27841809D01*
X27852972Y27768000D01*
X30239028Y27768000D01*
X30312837Y27841809D01*
X30312837Y28523259D01*
X30310681Y28539634D01*
X30299651Y28580800D01*
X30764801Y28580800D01*
X30764800Y27578237D01*
X30765257Y27570662D01*
X30787385Y27387803D01*
X30791009Y27373049D01*
X30878101Y27142568D01*
X30885139Y27129105D01*
X30887819Y27125206D01*
X30887819Y26758810D01*
X30889032Y26746489D01*
X30908432Y26648962D01*
X30917930Y26626032D01*
X30976630Y26538181D01*
X30994181Y26520630D01*
X31082032Y26461930D01*
X31104962Y26452432D01*
X31202489Y26433032D01*
X31214810Y26431819D01*
X32477190Y26431819D01*
X32489511Y26433032D01*
X32587038Y26452432D01*
X32609968Y26461930D01*
X32697819Y26520630D01*
X32715370Y26538181D01*
X32774070Y26626032D01*
X32783568Y26648962D01*
X32802968Y26746489D01*
X32804181Y26758810D01*
X32804181Y27124148D01*
X32808637Y27132458D01*
X32898197Y27362169D01*
X32902019Y27377214D01*
X32926703Y27572607D01*
X32927200Y27580511D01*
X32927200Y28580800D01*
X36370801Y28580800D01*
X36370800Y12693819D01*
X36349791Y12721640D01*
X36332534Y12737371D01*
X36208457Y12814196D01*
X36228097Y12874641D01*
X36231199Y12894230D01*
X36231199Y13105770D01*
X36228096Y13125359D01*
X36162727Y13326547D01*
X36153723Y13344218D01*
X36029382Y13515358D01*
X36015358Y13529382D01*
X35844218Y13653723D01*
X35826547Y13662727D01*
X35625359Y13728096D01*
X35605770Y13731199D01*
X35394230Y13731199D01*
X35374641Y13728096D01*
X35173453Y13662727D01*
X35155782Y13653723D01*
X34984642Y13529382D01*
X34970618Y13515358D01*
X34846277Y13344218D01*
X34837273Y13326547D01*
X34807785Y13235790D01*
X34454715Y12882720D01*
X32947045Y12882720D01*
X32932573Y12881041D01*
X32707178Y12828029D01*
X32683380Y12816857D01*
X32528360Y12699791D01*
X32512629Y12682534D01*
X32411140Y12518624D01*
X32402705Y12496849D01*
X32368355Y12313097D01*
X32367280Y12301495D01*
X32367280Y11197045D01*
X32368959Y11182573D01*
X32421971Y10957178D01*
X32433143Y10933380D01*
X32550209Y10778360D01*
X32567466Y10762629D01*
X32731376Y10661140D01*
X32753151Y10652705D01*
X32936903Y10618355D01*
X32948505Y10617280D01*
X34454715Y10617280D01*
X34807785Y10264210D01*
X34837273Y10173453D01*
X34846277Y10155782D01*
X34970618Y9984642D01*
X34984642Y9970618D01*
X35155782Y9846277D01*
X35173453Y9837273D01*
X35374641Y9771904D01*
X35394230Y9768801D01*
X35605770Y9768801D01*
X35625359Y9771904D01*
X35826547Y9837273D01*
X35844218Y9846277D01*
X36015358Y9970618D01*
X36029382Y9984642D01*
X36153723Y10155782D01*
X36162727Y10173453D01*
X36228096Y10374641D01*
X36231199Y10394230D01*
X36231199Y10605770D01*
X36228097Y10625359D01*
X36210288Y10680170D01*
X36216620Y10683143D01*
X36370800Y10799575D01*
X36370800Y8377906D01*
X36282511Y8395468D01*
X36270190Y8396681D01*
X35160681Y8396681D01*
X35160681Y9506190D01*
X35159468Y9518511D01*
X35140068Y9616038D01*
X35130570Y9638968D01*
X35071870Y9726819D01*
X35054319Y9744370D01*
X34966468Y9803070D01*
X34943538Y9812568D01*
X34846011Y9831968D01*
X34833690Y9833181D01*
X34694310Y9833181D01*
X34681989Y9831968D01*
X34584462Y9812568D01*
X34561532Y9803070D01*
X34473681Y9744370D01*
X34456130Y9726819D01*
X34397430Y9638968D01*
X34387932Y9616038D01*
X34368532Y9518511D01*
X34367319Y9506190D01*
X34367319Y8396681D01*
X33257810Y8396681D01*
X33245489Y8395468D01*
X33147962Y8376068D01*
X33125032Y8366570D01*
X33037181Y8307870D01*
X33019630Y8290319D01*
X32960930Y8202468D01*
X32951432Y8179538D01*
X32932032Y8082011D01*
X32930819Y8069690D01*
X32930819Y7954000D01*
X30612931Y7954000D01*
X30582980Y7979671D01*
X30571280Y7987616D01*
X30560285Y7993401D01*
X30551047Y8001704D01*
X30539537Y8009922D01*
X30532895Y8013618D01*
X30349890Y8115060D01*
X30336830Y8120489D01*
X30324902Y8123943D01*
X30314057Y8130293D01*
X30300855Y8136115D01*
X30293730Y8138326D01*
X30094336Y8200812D01*
X30080450Y8203505D01*
X30068072Y8204490D01*
X30056276Y8208494D01*
X30042386Y8211521D01*
X30034894Y8212287D01*
X29826760Y8233429D01*
X29812617Y8233274D01*
X29779674Y8229200D01*
X29324655Y8229200D01*
X29296051Y8233500D01*
X29281794Y8234015D01*
X29274342Y8233441D01*
X29114305Y8221126D01*
X29100413Y8218470D01*
X29092458Y8216000D01*
X29084051Y8215758D01*
X29069888Y8213730D01*
X29062614Y8211829D01*
X28860286Y8159127D01*
X28847084Y8154052D01*
X28836062Y8148327D01*
X28823985Y8145483D01*
X28810694Y8140734D01*
X28803839Y8137379D01*
X28616084Y8044992D01*
X28604170Y8037365D01*
X28594528Y8029542D01*
X28583184Y8024289D01*
X28570964Y8016845D01*
X28565027Y8012233D01*
X28489953Y7954000D01*
X23036275Y7954000D01*
X23032572Y7970233D01*
X23020266Y7995804D01*
X23000122Y8021084D01*
X22986130Y8050221D01*
X22968465Y8072429D01*
X22942939Y8092843D01*
X22922571Y8118403D01*
X22900393Y8136107D01*
X22881946Y8145005D01*
X22503457Y8523492D01*
X22499583Y8531560D01*
X22481918Y8553769D01*
X22438294Y8588654D01*
X22426897Y8600052D01*
X22415841Y8608870D01*
X22402646Y8617164D01*
X22359467Y8651693D01*
X22333864Y8664057D01*
X22324697Y8666157D01*
X22316686Y8671192D01*
X22289903Y8680571D01*
X22278635Y8681845D01*
X22341699Y8855112D01*
X22345527Y8876825D01*
X22345527Y9077031D01*
X22341699Y9098744D01*
X22291663Y9236215D01*
X22296016Y9234687D01*
X22324211Y9231475D01*
X22379710Y9237651D01*
X22395843Y9237651D01*
X22409898Y9239234D01*
X22425108Y9242703D01*
X22480039Y9248817D01*
X22506885Y9258178D01*
X22514850Y9263175D01*
X22524079Y9265280D01*
X22549649Y9277586D01*
X22593395Y9312446D01*
X22606659Y9320766D01*
X22617766Y9329616D01*
X22628843Y9340693D01*
X22647072Y9355220D01*
X22687977Y9348007D01*
X22710023Y9348007D01*
X22907190Y9382772D01*
X22927907Y9390313D01*
X23101293Y9490418D01*
X23118182Y9504589D01*
X23246873Y9657958D01*
X23257896Y9677051D01*
X23326371Y9865184D01*
X23330199Y9886897D01*
X23330199Y10087103D01*
X23326371Y10108816D01*
X23257896Y10296949D01*
X23246873Y10316042D01*
X23118182Y10469411D01*
X23101293Y10483582D01*
X22927907Y10583687D01*
X22907190Y10591228D01*
X22710023Y10625993D01*
X22687977Y10625993D01*
X22490810Y10591228D01*
X22470092Y10583687D01*
X22454869Y10574898D01*
X22445096Y10601749D01*
X22434073Y10620842D01*
X22305382Y10774211D01*
X22288493Y10788382D01*
X22115107Y10888487D01*
X22094390Y10896028D01*
X21897223Y10930793D01*
X21875177Y10930793D01*
X21678010Y10896028D01*
X21657293Y10888487D01*
X21483907Y10788382D01*
X21467018Y10774211D01*
X21404077Y10699200D01*
X17687716Y10699200D01*
X17679275Y10702164D01*
X17651080Y10705376D01*
X17595581Y10699200D01*
X17579447Y10699200D01*
X17565391Y10697617D01*
X17550183Y10694148D01*
X17495251Y10688035D01*
X17468403Y10678672D01*
X17460439Y10673676D01*
X17451214Y10671572D01*
X17425644Y10659266D01*
X17381904Y10624411D01*
X17368627Y10616083D01*
X17357523Y10607234D01*
X17346444Y10596154D01*
X17303046Y10561572D01*
X17285342Y10539395D01*
X17281296Y10531007D01*
X16714854Y9964563D01*
X16706786Y9960689D01*
X16684577Y9943023D01*
X16649687Y9899395D01*
X16638295Y9888003D01*
X16629476Y9876947D01*
X16624948Y9869744D01*
X16599634Y9884359D01*
X16578916Y9891900D01*
X16381749Y9926665D01*
X16359703Y9926665D01*
X16276138Y9911930D01*
X16242610Y10004048D01*
X16231587Y10023141D01*
X16102896Y10176510D01*
X16086007Y10190681D01*
X15912621Y10290786D01*
X15891904Y10298327D01*
X15694737Y10333092D01*
X15672691Y10333092D01*
X15562512Y10313665D01*
X15562512Y11548191D01*
X26660776Y11548191D01*
X26660776Y11195817D01*
X26662220Y11182387D01*
X26735255Y10846647D01*
X26743885Y10825813D01*
X26872696Y10625380D01*
X26884499Y10611759D01*
X27062849Y10457217D01*
X27078011Y10447473D01*
X27292677Y10349439D01*
X27309970Y10344361D01*
X27539094Y10311418D01*
X27548071Y10310776D01*
X28848191Y10310776D01*
X28922000Y10384585D01*
X28922000Y11548191D01*
X29178000Y11548191D01*
X29178000Y10384585D01*
X29251809Y10310776D01*
X30554183Y10310776D01*
X30567613Y10312220D01*
X30903353Y10385255D01*
X30924187Y10393885D01*
X31124620Y10522696D01*
X31138241Y10534499D01*
X31292783Y10712849D01*
X31302527Y10728011D01*
X31400561Y10942677D01*
X31405639Y10959970D01*
X31438582Y11189094D01*
X31439224Y11198071D01*
X31439224Y11548191D01*
X31365415Y11622000D01*
X29251809Y11622000D01*
X29178000Y11548191D01*
X28922000Y11548191D01*
X28848191Y11622000D01*
X26734585Y11622000D01*
X26660776Y11548191D01*
X15562512Y11548191D01*
X15562512Y11853781D01*
X15559409Y11873370D01*
X15546355Y11913547D01*
X15539746Y11955275D01*
X15533617Y11974137D01*
X15514436Y12011783D01*
X15501380Y12051962D01*
X15492377Y12069632D01*
X15467546Y12103810D01*
X15448364Y12141455D01*
X15436707Y12157500D01*
X15292277Y12301929D01*
X26660776Y12301929D01*
X26660776Y11951809D01*
X26734585Y11878000D01*
X28848191Y11878000D01*
X28922000Y11951809D01*
X28922000Y13115415D01*
X29178000Y13115415D01*
X29178000Y11951809D01*
X29251809Y11878000D01*
X31365415Y11878000D01*
X31439224Y11951809D01*
X31439224Y12304183D01*
X31437780Y12317613D01*
X31364745Y12653353D01*
X31356115Y12674187D01*
X31227304Y12874620D01*
X31215501Y12888241D01*
X31037151Y13042783D01*
X31021989Y13052527D01*
X30807323Y13150561D01*
X30790030Y13155639D01*
X30560906Y13188582D01*
X30551929Y13189224D01*
X29251809Y13189224D01*
X29178000Y13115415D01*
X28922000Y13115415D01*
X28848191Y13189224D01*
X27545817Y13189224D01*
X27532387Y13187780D01*
X27196647Y13114745D01*
X27175813Y13106115D01*
X26975380Y12977304D01*
X26961759Y12965501D01*
X26807217Y12787151D01*
X26797473Y12771989D01*
X26699439Y12557323D01*
X26694361Y12540030D01*
X26661418Y12310906D01*
X26660776Y12301929D01*
X15292277Y12301929D01*
X15230596Y12363610D01*
X15223067Y12370040D01*
X15109344Y12452665D01*
X15091673Y12461669D01*
X14913081Y12519697D01*
X14893492Y12522799D01*
X14705708Y12522799D01*
X14686119Y12519697D01*
X14507527Y12461669D01*
X14489856Y12452665D01*
X14337936Y12342288D01*
X14323912Y12328264D01*
X14213535Y12176344D01*
X14204531Y12158673D01*
X14152871Y11999680D01*
X14088496Y12176549D01*
X14077473Y12195642D01*
X13948782Y12349011D01*
X13931893Y12363182D01*
X13763247Y12460550D01*
X11777076Y14446719D01*
X11734357Y14497630D01*
X11717468Y14511801D01*
X11659919Y14545027D01*
X11612803Y14578019D01*
X11600068Y14642038D01*
X11590570Y14664968D01*
X11531870Y14752819D01*
X11514319Y14770370D01*
X11426468Y14829070D01*
X11403538Y14838568D01*
X11306011Y14857968D01*
X11293690Y14859181D01*
X10691390Y14859181D01*
X10331328Y15219242D01*
X10326819Y15228632D01*
X10309153Y15250841D01*
X10262100Y15288469D01*
X10249680Y15300890D01*
X10238624Y15309708D01*
X10224227Y15318757D01*
X10177653Y15356002D01*
X10152051Y15368365D01*
X10141426Y15370799D01*
X10132143Y15376633D01*
X10105361Y15386012D01*
X10045416Y15392789D01*
X10028758Y15396604D01*
X10014646Y15398200D01*
X9997544Y15398200D01*
X9938077Y15404923D01*
X9909876Y15401760D01*
X9899682Y15398200D01*
X6680381Y15398200D01*
X6680381Y15446590D01*
X6679168Y15458911D01*
X6659768Y15556438D01*
X6650270Y15579368D01*
X6591570Y15667219D01*
X6574019Y15684770D01*
X6486168Y15743470D01*
X6463238Y15752968D01*
X6365711Y15772368D01*
X6353390Y15773581D01*
X5466010Y15773581D01*
X5453689Y15772368D01*
X5356162Y15752968D01*
X5333232Y15743470D01*
X5245381Y15684770D01*
X5227830Y15667219D01*
X5169130Y15579368D01*
X5159632Y15556438D01*
X5140232Y15458911D01*
X5139019Y15446590D01*
X5139019Y14484210D01*
X5140232Y14471889D01*
X5159632Y14374362D01*
X5169130Y14351432D01*
X5227830Y14263581D01*
X5245381Y14246030D01*
X5333232Y14187330D01*
X5356162Y14177832D01*
X5453689Y14158432D01*
X5466010Y14157219D01*
X5479001Y14157219D01*
X5479000Y14064981D01*
X5475610Y14064981D01*
X5463289Y14063768D01*
X5365762Y14044368D01*
X5342832Y14034870D01*
X5254981Y13976170D01*
X5237430Y13958619D01*
X5224903Y13939871D01*
X5205311Y13943768D01*
X5192990Y13944981D01*
X3730610Y13944981D01*
X3718289Y13943768D01*
X3698697Y13939871D01*
X3686170Y13958619D01*
X3668619Y13976170D01*
X3580768Y14034870D01*
X3557838Y14044368D01*
X3460311Y14063768D01*
X3447990Y14064981D01*
X2755610Y14064981D01*
X2743289Y14063768D01*
X2645762Y14044368D01*
X2622832Y14034870D01*
X2534981Y13976170D01*
X2517431Y13958620D01*
X2516016Y13956503D01*
X2500978Y13949265D01*
X2457244Y13914414D01*
X2443966Y13906086D01*
X2432860Y13897235D01*
X2421780Y13886155D01*
X2378381Y13851572D01*
X2360677Y13829395D01*
X2356631Y13821007D01*
X1973142Y13437517D01*
X1965074Y13433643D01*
X1942865Y13415977D01*
X1907976Y13372351D01*
X1896581Y13360956D01*
X1887761Y13349897D01*
X1879464Y13336696D01*
X1867428Y13321645D01*
X1454245Y12908460D01*
X1446177Y12904586D01*
X1423968Y12886920D01*
X1389078Y12843292D01*
X1377686Y12831900D01*
X1368867Y12820844D01*
X1360567Y12807639D01*
X1326044Y12764469D01*
X1313681Y12738867D01*
X1311582Y12729701D01*
X1306545Y12721688D01*
X1297166Y12694906D01*
X1290883Y12639329D01*
X1287385Y12624059D01*
X1285790Y12609948D01*
X1285790Y12594271D01*
X1279557Y12539137D01*
X1282720Y12510936D01*
X1285790Y12502145D01*
X1285791Y10894688D01*
X1282826Y10886245D01*
X1279614Y10858050D01*
X1285791Y10802542D01*
X1285791Y10786417D01*
X1287374Y10772363D01*
X1290841Y10757161D01*
X1296956Y10702222D01*
X1306318Y10675376D01*
X1311314Y10667411D01*
X1313419Y10658184D01*
X1325726Y10632613D01*
X1360578Y10588877D01*
X1368906Y10575601D01*
X1377755Y10564495D01*
X1388837Y10553413D01*
X1423420Y10510015D01*
X1445598Y10492311D01*
X1453986Y10488265D01*
X2932176Y9010074D01*
X2936050Y9002007D01*
X2953716Y8979798D01*
X2997330Y8944920D01*
X3008736Y8933513D01*
X3019795Y8924693D01*
X3033004Y8916391D01*
X3076166Y8881873D01*
X3101768Y8869510D01*
X3110935Y8867410D01*
X3118950Y8862373D01*
X3145731Y8852995D01*
X3201304Y8846712D01*
X3216578Y8843214D01*
X3230688Y8841619D01*
X3246366Y8841619D01*
X3301500Y8835386D01*
X3329701Y8838549D01*
X3338492Y8841619D01*
X6775058Y8841619D01*
X6837999Y8766608D01*
X6854888Y8752437D01*
X7028274Y8652332D01*
X7048991Y8644791D01*
X7246158Y8610026D01*
X7268204Y8610026D01*
X7465371Y8644791D01*
X7486088Y8652332D01*
X7659474Y8752437D01*
X7676363Y8766608D01*
X7805054Y8919977D01*
X7816077Y8939070D01*
X7884552Y9127203D01*
X7888380Y9148916D01*
X7888380Y9332129D01*
X8414380Y9332129D01*
X8593029Y9153480D01*
X8593029Y9143411D01*
X8511327Y9046042D01*
X8500304Y9026949D01*
X8431829Y8838816D01*
X8428001Y8817103D01*
X8428001Y8616896D01*
X8431829Y8595184D01*
X8436717Y8581755D01*
X8423892Y8577087D01*
X8250507Y8476982D01*
X8233618Y8462811D01*
X8104927Y8309442D01*
X8093904Y8290349D01*
X8025429Y8102216D01*
X8021601Y8080503D01*
X8021601Y7954000D01*
X7812931Y7954000D01*
X7782980Y7979671D01*
X7771280Y7987616D01*
X7760285Y7993401D01*
X7751047Y8001704D01*
X7739537Y8009922D01*
X7732895Y8013618D01*
X7549890Y8115060D01*
X7536830Y8120489D01*
X7524902Y8123943D01*
X7514057Y8130293D01*
X7500855Y8136115D01*
X7493730Y8138326D01*
X7294336Y8200812D01*
X7280450Y8203505D01*
X7268072Y8204490D01*
X7256276Y8208494D01*
X7242386Y8211521D01*
X7234894Y8212287D01*
X7026760Y8233429D01*
X7012617Y8233274D01*
X6979674Y8229200D01*
X6624655Y8229200D01*
X6596051Y8233500D01*
X6581794Y8234015D01*
X6574342Y8233441D01*
X6414305Y8221126D01*
X6400413Y8218470D01*
X6392458Y8216000D01*
X6384051Y8215758D01*
X6369888Y8213730D01*
X6362614Y8211829D01*
X6160286Y8159127D01*
X6147084Y8154052D01*
X6136062Y8148327D01*
X6123985Y8145483D01*
X6110694Y8140734D01*
X6103839Y8137379D01*
X5916084Y8044992D01*
X5904170Y8037365D01*
X5894528Y8029542D01*
X5883184Y8024289D01*
X5870964Y8016845D01*
X5865027Y8012233D01*
X5789953Y7954000D01*
X3577181Y7954000D01*
X3577181Y8069690D01*
X3575968Y8082011D01*
X3556568Y8179538D01*
X3547070Y8202468D01*
X3488370Y8290319D01*
X3470819Y8307870D01*
X3382968Y8366570D01*
X3360038Y8376068D01*
X3262511Y8395468D01*
X3250190Y8396681D01*
X2140681Y8396681D01*
X2140681Y9506190D01*
X2139468Y9518511D01*
X2120068Y9616038D01*
X2110570Y9638968D01*
X2051870Y9726819D01*
X2034319Y9744370D01*
X1946468Y9803070D01*
X1923538Y9812568D01*
X1826011Y9831968D01*
X1813690Y9833181D01*
X1674310Y9833181D01*
X1661989Y9831968D01*
X1564462Y9812568D01*
X1541532Y9803070D01*
X1453681Y9744370D01*
X1436130Y9726819D01*
X1377430Y9638968D01*
X1367932Y9616038D01*
X1348532Y9518511D01*
X1347319Y9506190D01*
X1347319Y8396681D01*
X329200Y8396681D01*
X329200Y15090903D01*
X2865401Y15090903D01*
X2865401Y14890697D01*
X2869229Y14868984D01*
X2937704Y14680851D01*
X2948727Y14661758D01*
X3077418Y14508389D01*
X3094307Y14494218D01*
X3267693Y14394113D01*
X3288410Y14386572D01*
X3485577Y14351807D01*
X3507623Y14351807D01*
X3588097Y14365997D01*
X3594130Y14351432D01*
X3652830Y14263581D01*
X3670381Y14246030D01*
X3758232Y14187330D01*
X3781162Y14177832D01*
X3878689Y14158432D01*
X3891010Y14157219D01*
X4778390Y14157219D01*
X4790711Y14158432D01*
X4888238Y14177832D01*
X4911168Y14187330D01*
X4999019Y14246030D01*
X5016570Y14263581D01*
X5075270Y14351432D01*
X5084768Y14374362D01*
X5104168Y14471889D01*
X5105381Y14484210D01*
X5105381Y15446590D01*
X5104168Y15458911D01*
X5084768Y15556438D01*
X5075270Y15579368D01*
X5016570Y15667219D01*
X4999019Y15684770D01*
X4911168Y15743470D01*
X4888238Y15752968D01*
X4790711Y15772368D01*
X4778390Y15773581D01*
X3891010Y15773581D01*
X3878689Y15772368D01*
X3781162Y15752968D01*
X3758232Y15743470D01*
X3670381Y15684770D01*
X3652830Y15667219D01*
X3615154Y15610833D01*
X3507623Y15629793D01*
X3485577Y15629793D01*
X3288410Y15595028D01*
X3267693Y15587487D01*
X3094307Y15487382D01*
X3077418Y15473211D01*
X2948727Y15319842D01*
X2937704Y15300749D01*
X2869229Y15112616D01*
X2865401Y15090903D01*
X329200Y15090903D01*
X329200Y18723103D01*
X10637801Y18723103D01*
X10637801Y18522897D01*
X10641629Y18501184D01*
X10710104Y18313051D01*
X10721127Y18293958D01*
X10849818Y18140589D01*
X10866707Y18126418D01*
X11040093Y18026313D01*
X11060810Y18018772D01*
X11257977Y17984007D01*
X11280023Y17984007D01*
X11477190Y18018772D01*
X11497907Y18026313D01*
X11517803Y18037800D01*
X11609771Y18037800D01*
X11610932Y18031962D01*
X11620430Y18009032D01*
X11679130Y17921181D01*
X11696681Y17903630D01*
X11784532Y17844930D01*
X11807462Y17835432D01*
X11904989Y17816032D01*
X11917310Y17814819D01*
X12804690Y17814819D01*
X12817011Y17816032D01*
X12914538Y17835432D01*
X12937468Y17844930D01*
X13025319Y17903630D01*
X13042870Y17921181D01*
X13101570Y18009032D01*
X13111068Y18031962D01*
X13130468Y18129489D01*
X13131681Y18141810D01*
X13131681Y19104190D01*
X13130468Y19116511D01*
X13111068Y19214038D01*
X13101570Y19236968D01*
X13042870Y19324819D01*
X13025319Y19342370D01*
X12937468Y19401070D01*
X12914538Y19410568D01*
X12817011Y19429968D01*
X12804690Y19431181D01*
X11917310Y19431181D01*
X11904989Y19429968D01*
X11807462Y19410568D01*
X11784532Y19401070D01*
X11696681Y19342370D01*
X11679130Y19324819D01*
X11620430Y19236968D01*
X11610932Y19214038D01*
X11609771Y19208200D01*
X11517803Y19208200D01*
X11497907Y19219687D01*
X11477190Y19227228D01*
X11280023Y19261993D01*
X11257977Y19261993D01*
X11060810Y19227228D01*
X11040093Y19219687D01*
X10866707Y19119582D01*
X10849818Y19105411D01*
X10721127Y18952042D01*
X10710104Y18932949D01*
X10641629Y18744816D01*
X10637801Y18723103D01*
X329200Y18723103D01*
X329200Y20961191D01*
X9656163Y20961191D01*
X9656163Y20679742D01*
X9658319Y20663366D01*
X9733137Y20384141D01*
X9745880Y20359661D01*
X9876990Y20203410D01*
X9893879Y20189239D01*
X10068120Y20088641D01*
X10088837Y20081100D01*
X10281538Y20047122D01*
X10292499Y20046163D01*
X10533691Y20046163D01*
X10607500Y20119972D01*
X10607500Y20961191D01*
X10533691Y21035000D01*
X9729972Y21035000D01*
X9656163Y20961191D01*
X329200Y20961191D01*
X329200Y28580800D01*
X3326801Y28580800D01*
X3326800Y27578237D01*
G36*
X26052800Y23549600D02*
G01*
X25490307Y23549600D01*
X25291334Y23748574D01*
X25262602Y23765163D01*
X25232241Y23773298D01*
X25205025Y23789011D01*
X25172978Y23797598D01*
X20862684Y23797599D01*
X20863886Y23809811D01*
X20863886Y23856400D01*
X22783459Y23856400D01*
X22799834Y23858556D01*
X22900034Y23885405D01*
X22928766Y23901993D01*
X23008007Y23981234D01*
X23024595Y24009966D01*
X23051444Y24110166D01*
X23053600Y24126541D01*
X23053600Y26073459D01*
X23051444Y26089834D01*
X23024595Y26190034D01*
X23008007Y26218766D01*
X22950159Y26276614D01*
X23127190Y26276614D01*
X23139510Y26277827D01*
X23217217Y26293284D01*
X23240149Y26302783D01*
X23301234Y26343600D01*
X24111738Y26343600D01*
X24274393Y26294492D01*
X24297521Y26291959D01*
X24489523Y26306396D01*
X24512012Y26312359D01*
X24685944Y26394948D01*
X24704779Y26408607D01*
X24837318Y26548274D01*
X24849973Y26567798D01*
X24923482Y26746147D01*
X24928275Y26769650D01*
X24930585Y26973202D01*
X24926327Y26996809D01*
X24856881Y27176780D01*
X24844673Y27196586D01*
X24715337Y27339224D01*
X24696817Y27353307D01*
X24524803Y27439820D01*
X24502455Y27446291D01*
X24310830Y27465081D01*
X24287650Y27463073D01*
X24104932Y27412400D01*
X23301234Y27412400D01*
X23240149Y27453217D01*
X23217217Y27462716D01*
X23139510Y27478173D01*
X23127190Y27479386D01*
X22524810Y27479386D01*
X22512490Y27478173D01*
X22434783Y27462716D01*
X22411851Y27453217D01*
X22340805Y27405744D01*
X22323256Y27388195D01*
X22275783Y27317149D01*
X22266284Y27294217D01*
X22250827Y27216510D01*
X22249614Y27204190D01*
X22249614Y26551810D01*
X22250827Y26539490D01*
X22266284Y26461783D01*
X22275783Y26438851D01*
X22323256Y26367805D01*
X22340805Y26350256D01*
X22350766Y26343600D01*
X20815275Y26343600D01*
X20807043Y26343060D01*
X20751206Y26335709D01*
X20727703Y26327731D01*
X20641485Y26277953D01*
X20628381Y26267898D01*
X19432870Y25072386D01*
X19142000Y25072386D01*
X19142000Y25930109D01*
X21198699Y29015157D01*
X22523563Y29038000D01*
X26052815Y29038000D01*
X26052800Y23549600D01*
G37*
X26052800Y23549600D02*
X25490307Y23549600D01*
X25291334Y23748574D01*
X25262602Y23765163D01*
X25232241Y23773298D01*
X25205025Y23789011D01*
X25172978Y23797598D01*
X20862684Y23797599D01*
X20863886Y23809811D01*
X20863886Y23856400D01*
X22783459Y23856400D01*
X22799834Y23858556D01*
X22900034Y23885405D01*
X22928766Y23901993D01*
X23008007Y23981234D01*
X23024595Y24009966D01*
X23051444Y24110166D01*
X23053600Y24126541D01*
X23053600Y26073459D01*
X23051444Y26089834D01*
X23024595Y26190034D01*
X23008007Y26218766D01*
X22950159Y26276614D01*
X23127190Y26276614D01*
X23139510Y26277827D01*
X23217217Y26293284D01*
X23240149Y26302783D01*
X23301234Y26343600D01*
X24111738Y26343600D01*
X24274393Y26294492D01*
X24297521Y26291959D01*
X24489523Y26306396D01*
X24512012Y26312359D01*
X24685944Y26394948D01*
X24704779Y26408607D01*
X24837318Y26548274D01*
X24849973Y26567798D01*
X24923482Y26746147D01*
X24928275Y26769650D01*
X24930585Y26973202D01*
X24926327Y26996809D01*
X24856881Y27176780D01*
X24844673Y27196586D01*
X24715337Y27339224D01*
X24696817Y27353307D01*
X24524803Y27439820D01*
X24502455Y27446291D01*
X24310830Y27465081D01*
X24287650Y27463073D01*
X24104932Y27412400D01*
X23301234Y27412400D01*
X23240149Y27453217D01*
X23217217Y27462716D01*
X23139510Y27478173D01*
X23127190Y27479386D01*
X22524810Y27479386D01*
X22512490Y27478173D01*
X22434783Y27462716D01*
X22411851Y27453217D01*
X22340805Y27405744D01*
X22323256Y27388195D01*
X22275783Y27317149D01*
X22266284Y27294217D01*
X22250827Y27216510D01*
X22249614Y27204190D01*
X22249614Y26551810D01*
X22250827Y26539490D01*
X22266284Y26461783D01*
X22275783Y26438851D01*
X22323256Y26367805D01*
X22340805Y26350256D01*
X22350766Y26343600D01*
X20815275Y26343600D01*
X20807043Y26343060D01*
X20751206Y26335709D01*
X20727703Y26327731D01*
X20641485Y26277953D01*
X20628381Y26267898D01*
X19432870Y25072386D01*
X19142000Y25072386D01*
X19142000Y25930109D01*
X21198699Y29015157D01*
X22523563Y29038000D01*
X26052815Y29038000D01*
X26052800Y23549600D01*
G36*
X12789008Y29015222D02*
G01*
X12805344Y29012784D01*
X14140901Y28989757D01*
X16197600Y25904709D01*
X16197600Y25072386D01*
X15906730Y25072386D01*
X14688742Y26290375D01*
X14682539Y26295815D01*
X14637858Y26330099D01*
X14615598Y26341077D01*
X14519434Y26366844D01*
X14503059Y26369000D01*
X12961543Y26369000D01*
X13008217Y26438851D01*
X13017716Y26461783D01*
X13033173Y26539490D01*
X13034386Y26551810D01*
X13034386Y27204190D01*
X13033173Y27216510D01*
X13017716Y27294217D01*
X13008217Y27317149D01*
X12960744Y27388195D01*
X12943195Y27405744D01*
X12872149Y27453217D01*
X12849217Y27462716D01*
X12771510Y27478173D01*
X12759190Y27479386D01*
X12156810Y27479386D01*
X12144490Y27478173D01*
X12066783Y27462716D01*
X12043851Y27453217D01*
X11982766Y27412400D01*
X11498322Y27412400D01*
X11443803Y27439820D01*
X11421455Y27446291D01*
X11229830Y27465081D01*
X11206650Y27463073D01*
X11021109Y27411618D01*
X11000206Y27401400D01*
X10845628Y27286601D01*
X10829805Y27269544D01*
X10726919Y27106793D01*
X10718297Y27085183D01*
X10680899Y26896306D01*
X10680635Y26873041D01*
X10713738Y26683364D01*
X10721867Y26661564D01*
X10821036Y26496521D01*
X10836467Y26479110D01*
X10988401Y26360832D01*
X11009067Y26350143D01*
X11193393Y26294492D01*
X11216521Y26291959D01*
X11408523Y26306396D01*
X11431012Y26312359D01*
X11496806Y26343600D01*
X11982766Y26343600D01*
X12043851Y26302783D01*
X12066783Y26293284D01*
X12144490Y26277827D01*
X12156810Y26276614D01*
X12364041Y26276614D01*
X12331593Y26244166D01*
X12315005Y26215434D01*
X12288156Y26115234D01*
X12286000Y26098859D01*
X12286000Y24151941D01*
X12288156Y24135566D01*
X12294899Y24110400D01*
X10196754Y24110400D01*
X10188873Y24123186D01*
X10059537Y24265824D01*
X10041017Y24279907D01*
X9869003Y24366420D01*
X9846655Y24372891D01*
X9655030Y24391681D01*
X9631850Y24389673D01*
X9446309Y24338218D01*
X9425406Y24328000D01*
X9270828Y24213201D01*
X9255005Y24196144D01*
X9235998Y24166078D01*
X9235985Y29038000D01*
X12709507Y29038000D01*
X12789008Y29015222D01*
G37*
X12789008Y29015222D02*
X12805344Y29012784D01*
X14140901Y28989757D01*
X16197600Y25904709D01*
X16197600Y25072386D01*
X15906730Y25072386D01*
X14688742Y26290375D01*
X14682539Y26295815D01*
X14637858Y26330099D01*
X14615598Y26341077D01*
X14519434Y26366844D01*
X14503059Y26369000D01*
X12961543Y26369000D01*
X13008217Y26438851D01*
X13017716Y26461783D01*
X13033173Y26539490D01*
X13034386Y26551810D01*
X13034386Y27204190D01*
X13033173Y27216510D01*
X13017716Y27294217D01*
X13008217Y27317149D01*
X12960744Y27388195D01*
X12943195Y27405744D01*
X12872149Y27453217D01*
X12849217Y27462716D01*
X12771510Y27478173D01*
X12759190Y27479386D01*
X12156810Y27479386D01*
X12144490Y27478173D01*
X12066783Y27462716D01*
X12043851Y27453217D01*
X11982766Y27412400D01*
X11498322Y27412400D01*
X11443803Y27439820D01*
X11421455Y27446291D01*
X11229830Y27465081D01*
X11206650Y27463073D01*
X11021109Y27411618D01*
X11000206Y27401400D01*
X10845628Y27286601D01*
X10829805Y27269544D01*
X10726919Y27106793D01*
X10718297Y27085183D01*
X10680899Y26896306D01*
X10680635Y26873041D01*
X10713738Y26683364D01*
X10721867Y26661564D01*
X10821036Y26496521D01*
X10836467Y26479110D01*
X10988401Y26360832D01*
X11009067Y26350143D01*
X11193393Y26294492D01*
X11216521Y26291959D01*
X11408523Y26306396D01*
X11431012Y26312359D01*
X11496806Y26343600D01*
X11982766Y26343600D01*
X12043851Y26302783D01*
X12066783Y26293284D01*
X12144490Y26277827D01*
X12156810Y26276614D01*
X12364041Y26276614D01*
X12331593Y26244166D01*
X12315005Y26215434D01*
X12288156Y26115234D01*
X12286000Y26098859D01*
X12286000Y24151941D01*
X12288156Y24135566D01*
X12294899Y24110400D01*
X10196754Y24110400D01*
X10188873Y24123186D01*
X10059537Y24265824D01*
X10041017Y24279907D01*
X9869003Y24366420D01*
X9846655Y24372891D01*
X9655030Y24391681D01*
X9631850Y24389673D01*
X9446309Y24338218D01*
X9425406Y24328000D01*
X9270828Y24213201D01*
X9255005Y24196144D01*
X9235998Y24166078D01*
X9235985Y29038000D01*
X12709507Y29038000D01*
X12789008Y29015222D01*
M02*
