M48
; DRILL file {KiCad (5.99.0-8442-g3b424d3868)} date 01/17/21 09:13:48
; FORMAT={-:-/ absolute / metric / decimal}
; #@! TF.CreationDate,2021-01-17T09:13:48+01:00
; #@! TF.GenerationSoftware,Kicad,Pcbnew,(5.99.0-8442-g3b424d3868)
; #@! TF.FileFunction,Plated,1,2,PTH
FMAT,2
METRIC
T1C0.300
T2C0.500
T3C1.000
%
G90
G05
T1
X13.886Y56.449
X13.896Y44.429
X16.066Y45.08
X16.176Y55.739
X18.936Y45.919
X20.026Y45.399
X20.136Y51.599
X21.466Y52.559
X21.916Y45.409
X21.926Y56.509
X22.936Y56.689
X23.266Y55.339
X24.036Y45.34
X38.099Y58.072
X42.762Y54.85
X43.726Y57.129
T2
X27.216Y55.519
X37.626Y45.739
T3
X10.886Y64.379
X10.886Y61.839
X13.426Y64.379
X13.426Y61.839
X15.966Y64.379
X15.966Y61.839
X18.506Y64.379
X18.506Y61.839
X21.046Y64.379
X21.046Y61.839
X32.296Y64.409
X32.296Y61.869
X34.836Y64.409
X34.836Y61.869
X37.376Y64.409
X37.376Y61.869
X39.916Y64.409
X39.916Y61.869
X42.456Y64.409
X42.456Y61.869
T0
M30
