%TF.GenerationSoftware,KiCad,Pcbnew,(5.99.0-8442-g3b424d3868)*%
%TF.CreationDate,2021-01-17T09:13:46+01:00*%
%TF.ProjectId,WiFi-Addon,57694669-2d41-4646-946f-6e2e6b696361,rev?*%
%TF.SameCoordinates,PX160b110PY9be08a8*%
%TF.FileFunction,Copper,L2,Bot*%
%TF.FilePolarity,Positive*%
%FSLAX46Y46*%
G04 Gerber Fmt 4.6, Leading zero omitted, Abs format (unit mm)*
G04 Created by KiCad (PCBNEW (5.99.0-8442-g3b424d3868)) date 2021-01-17 09:13:46*
%MOMM*%
%LPD*%
G01*
G04 APERTURE LIST*
%TA.AperFunction,SMDPad,CuDef*%
%ADD10R,2.500000X1.100000*%
%TD*%
%TA.AperFunction,SMDPad,CuDef*%
%ADD11R,1.100000X2.500000*%
%TD*%
%TA.AperFunction,ComponentPad*%
%ADD12R,1.700000X1.700000*%
%TD*%
%TA.AperFunction,ComponentPad*%
%ADD13O,1.700000X1.700000*%
%TD*%
%TA.AperFunction,ViaPad*%
%ADD14C,1.000000*%
%TD*%
%TA.AperFunction,ViaPad*%
%ADD15C,0.700000*%
%TD*%
%TA.AperFunction,Conductor*%
%ADD16C,0.500000*%
%TD*%
%TA.AperFunction,Conductor*%
%ADD17C,0.127000*%
%TD*%
G04 APERTURE END LIST*
D10*
X29586000Y45459000D03*
X29586000Y47459000D03*
X29586000Y49459000D03*
X29586000Y51459000D03*
X29586000Y53459000D03*
X29586000Y55459000D03*
D11*
X13886000Y42749000D03*
X15886000Y42749000D03*
X17886000Y42749000D03*
X19886000Y42749000D03*
X21886000Y42749000D03*
X23886000Y42749000D03*
X25886000Y42749000D03*
X27886000Y42749000D03*
X27886000Y58149000D03*
X25886000Y58149000D03*
X23886000Y58149000D03*
X21886000Y58149000D03*
X19886000Y58149000D03*
X17886000Y58149000D03*
X15886000Y58149000D03*
X13886000Y58149000D03*
D12*
X42456000Y61869000D03*
D13*
X42456000Y64409000D03*
X39916000Y61869000D03*
X39916000Y64409000D03*
X37376000Y61869000D03*
X37376000Y64409000D03*
X34836000Y61869000D03*
X34836000Y64409000D03*
X32296000Y61869000D03*
X32296000Y64409000D03*
D12*
X21046000Y61839000D03*
D13*
X21046000Y64379000D03*
X18506000Y61839000D03*
X18506000Y64379000D03*
X15966000Y61839000D03*
X15966000Y64379000D03*
X13426000Y61839000D03*
X13426000Y64379000D03*
X10886000Y61839000D03*
X10886000Y64379000D03*
D14*
X27216000Y55519000D03*
X37626000Y45739000D03*
D15*
X38098500Y58071500D03*
X20136000Y51599000D03*
X43726000Y57129000D03*
X20026000Y45399000D03*
X22936000Y56689000D03*
X13886000Y56449000D03*
X42762404Y54849510D03*
X21916000Y45409000D03*
X21466000Y52559000D03*
X21926000Y56509000D03*
X16176000Y55739000D03*
X23266000Y55339000D03*
X24036000Y45339510D03*
X13896000Y44429000D03*
X16066000Y45079510D03*
X18936000Y45919000D03*
D16*
X27216000Y55519000D02*
X27216000Y56169000D01*
X27886000Y56839000D02*
X27886000Y57449000D01*
X27216000Y56169000D02*
X27886000Y56839000D01*
X27886000Y57449000D02*
X28196000Y57449000D01*
X45376000Y53489000D02*
X45376000Y57039000D01*
X44343500Y58071500D02*
X38098500Y58071500D01*
X45376000Y57039000D02*
X44343500Y58071500D01*
X45376000Y53489000D02*
X37626000Y45739000D01*
D17*
X43106000Y54309000D02*
X28216000Y54309000D01*
X26546000Y52639000D02*
X22476000Y52639000D01*
X19886000Y43449000D02*
X19886000Y45259000D01*
X20136000Y51599000D02*
X21436000Y51599000D01*
X28216000Y54309000D02*
X26546000Y52639000D01*
X43726000Y54929000D02*
X43106000Y54309000D01*
X22476000Y52639000D02*
X21436000Y51599000D01*
X43726000Y57129000D02*
X43726000Y54929000D01*
X19886000Y45259000D02*
X20026000Y45399000D01*
X22936000Y56689000D02*
X23126000Y56689000D01*
X23126000Y56689000D02*
X23886000Y57449000D01*
X19886000Y58218424D02*
X18445424Y59659000D01*
X13886000Y57449000D02*
X13886000Y56449000D01*
X18445424Y59659000D02*
X15326578Y59659000D01*
X15326578Y59659000D02*
X13886000Y58218422D01*
X42501894Y54589000D02*
X42762404Y54849510D01*
X26456775Y52908999D02*
X28136776Y54589000D01*
X21466000Y52559000D02*
X21815999Y52908999D01*
X21916000Y45409000D02*
X21916000Y43479000D01*
X21815999Y52908999D02*
X26456775Y52908999D01*
X28136776Y54589000D02*
X42501894Y54589000D01*
X21926000Y56509000D02*
X21926000Y57409000D01*
X16176000Y55739000D02*
X16846000Y55069000D01*
X25886000Y55469000D02*
X25886000Y57449000D01*
X22656000Y55069000D02*
X23096000Y54629000D01*
X25046000Y54629000D02*
X25886000Y55469000D01*
X23096000Y54629000D02*
X25046000Y54629000D01*
X16846000Y55069000D02*
X22656000Y55069000D01*
X18536000Y55339000D02*
X17886000Y55989000D01*
X23266000Y55339000D02*
X18536000Y55339000D01*
X17886000Y55989000D02*
X17886000Y57449000D01*
X24036000Y43599000D02*
X24036000Y45339510D01*
X13896000Y44429000D02*
X13896000Y43459000D01*
X16066000Y43629000D02*
X16066000Y45079510D01*
X19285999Y46268999D02*
X24736001Y46268999D01*
X18936000Y45919000D02*
X19285999Y46268999D01*
X24736001Y46268999D02*
X25886000Y45119000D01*
X25886000Y45119000D02*
X25886000Y43449000D01*
%TA.AperFunction,Conductor*%
G36*
X45848606Y68196245D02*
G01*
X45857497Y68194354D01*
X45863687Y68194272D01*
X45863689Y68194272D01*
X45935997Y68193317D01*
X45991061Y68192590D01*
X45996445Y68192403D01*
X46025255Y68190785D01*
X46068723Y68188344D01*
X46075764Y68187750D01*
X46163339Y68177883D01*
X46310444Y68161309D01*
X46317385Y68160329D01*
X46374294Y68150660D01*
X46381214Y68149283D01*
X46611445Y68096734D01*
X46618288Y68094969D01*
X46673691Y68079008D01*
X46680425Y68076861D01*
X46804480Y68033452D01*
X46903339Y67998860D01*
X46909938Y67996341D01*
X46963213Y67974273D01*
X46969662Y67971387D01*
X47054103Y67930722D01*
X47182463Y67868908D01*
X47188703Y67865684D01*
X47239162Y67837796D01*
X47245236Y67834213D01*
X47445241Y67708542D01*
X47451119Y67704615D01*
X47498116Y67671268D01*
X47503761Y67667019D01*
X47688405Y67519772D01*
X47693784Y67515231D01*
X47736820Y67476771D01*
X47741954Y67471916D01*
X47908916Y67304954D01*
X47913770Y67299821D01*
X47952231Y67256784D01*
X47956772Y67251405D01*
X48104019Y67066761D01*
X48108268Y67061116D01*
X48141615Y67014119D01*
X48145542Y67008241D01*
X48271213Y66808236D01*
X48274804Y66802148D01*
X48302666Y66751735D01*
X48305910Y66745457D01*
X48318958Y66718363D01*
X48408403Y66532629D01*
X48411280Y66526199D01*
X48433347Y66472923D01*
X48435867Y66466321D01*
X48513857Y66243438D01*
X48516004Y66236704D01*
X48531970Y66181285D01*
X48533735Y66174442D01*
X48586283Y65944214D01*
X48587660Y65937294D01*
X48597329Y65880385D01*
X48598309Y65873443D01*
X48616968Y65707834D01*
X48624750Y65638766D01*
X48625344Y65631725D01*
X48629403Y65559455D01*
X48629590Y65554053D01*
X48631136Y65437030D01*
X48631354Y65420497D01*
X48632640Y65414451D01*
X48632640Y65414449D01*
X48633244Y65411610D01*
X48636000Y65385400D01*
X48636000Y43512600D01*
X48633244Y43486390D01*
X48631354Y43477503D01*
X48631272Y43471322D01*
X48631272Y43471319D01*
X48629590Y43343947D01*
X48629403Y43338545D01*
X48625344Y43266275D01*
X48624750Y43259234D01*
X48622550Y43239706D01*
X48598309Y43024557D01*
X48597329Y43017615D01*
X48587662Y42960717D01*
X48586283Y42953786D01*
X48533735Y42723558D01*
X48531970Y42716715D01*
X48516004Y42661296D01*
X48513857Y42654562D01*
X48449209Y42469807D01*
X48435867Y42431679D01*
X48433347Y42425077D01*
X48411280Y42371801D01*
X48408403Y42365371D01*
X48341264Y42225955D01*
X48305910Y42152543D01*
X48302666Y42146265D01*
X48274804Y42095852D01*
X48271213Y42089764D01*
X48145542Y41889759D01*
X48141615Y41883881D01*
X48108268Y41836884D01*
X48104019Y41831239D01*
X47956772Y41646595D01*
X47952231Y41641216D01*
X47935976Y41623027D01*
X47913771Y41598180D01*
X47908916Y41593046D01*
X47741954Y41426084D01*
X47736821Y41421230D01*
X47693784Y41382769D01*
X47688405Y41378228D01*
X47503761Y41230981D01*
X47498116Y41226732D01*
X47451119Y41193385D01*
X47445241Y41189458D01*
X47245236Y41063787D01*
X47239162Y41060204D01*
X47188703Y41032316D01*
X47182463Y41029092D01*
X47054103Y40967278D01*
X46969662Y40926613D01*
X46963213Y40923727D01*
X46909938Y40901659D01*
X46903339Y40899140D01*
X46804480Y40864548D01*
X46680425Y40821139D01*
X46673691Y40818992D01*
X46618288Y40803031D01*
X46611445Y40801266D01*
X46381214Y40748717D01*
X46374294Y40747340D01*
X46317385Y40737671D01*
X46310444Y40736691D01*
X46163339Y40720117D01*
X46075764Y40710250D01*
X46068723Y40709656D01*
X46025255Y40707215D01*
X45996445Y40705597D01*
X45991061Y40705410D01*
X45935997Y40704683D01*
X45863689Y40703728D01*
X45863687Y40703728D01*
X45857497Y40703646D01*
X45848606Y40701755D01*
X45822404Y40699000D01*
X13012000Y40699000D01*
X12943879Y40719002D01*
X12897386Y40772658D01*
X12886000Y40825000D01*
X12886000Y41432797D01*
X12906002Y41500918D01*
X12959658Y41547411D01*
X13029932Y41557515D01*
X13094512Y41528021D01*
X13132896Y41468295D01*
X13135579Y41457379D01*
X13143186Y41419134D01*
X13188427Y41351427D01*
X13256134Y41306186D01*
X13268303Y41303766D01*
X13268304Y41303765D01*
X13324963Y41292495D01*
X13336000Y41290300D01*
X14436000Y41290300D01*
X14447037Y41292495D01*
X14503696Y41303765D01*
X14503697Y41303766D01*
X14515866Y41306186D01*
X14583573Y41351427D01*
X14628814Y41419134D01*
X14644700Y41499000D01*
X14644700Y43999000D01*
X15127300Y43999000D01*
X15127300Y41499000D01*
X15143186Y41419134D01*
X15188427Y41351427D01*
X15256134Y41306186D01*
X15268303Y41303766D01*
X15268304Y41303765D01*
X15324963Y41292495D01*
X15336000Y41290300D01*
X16436000Y41290300D01*
X16447037Y41292495D01*
X16503696Y41303765D01*
X16503697Y41303766D01*
X16515866Y41306186D01*
X16583573Y41351427D01*
X16628814Y41419134D01*
X16644700Y41499000D01*
X16644700Y43999000D01*
X17127300Y43999000D01*
X17127300Y41499000D01*
X17143186Y41419134D01*
X17188427Y41351427D01*
X17256134Y41306186D01*
X17268303Y41303766D01*
X17268304Y41303765D01*
X17324963Y41292495D01*
X17336000Y41290300D01*
X18436000Y41290300D01*
X18447037Y41292495D01*
X18503696Y41303765D01*
X18503697Y41303766D01*
X18515866Y41306186D01*
X18583573Y41351427D01*
X18628814Y41419134D01*
X18644700Y41499000D01*
X18644700Y43999000D01*
X18628814Y44078866D01*
X18583573Y44146573D01*
X18515866Y44191814D01*
X18503697Y44194234D01*
X18503696Y44194235D01*
X18442068Y44206493D01*
X18436000Y44207700D01*
X17336000Y44207700D01*
X17329932Y44206493D01*
X17268304Y44194235D01*
X17268303Y44194234D01*
X17256134Y44191814D01*
X17188427Y44146573D01*
X17143186Y44078866D01*
X17127300Y43999000D01*
X16644700Y43999000D01*
X16628814Y44078866D01*
X16583573Y44146573D01*
X16515866Y44191814D01*
X16503697Y44194234D01*
X16503696Y44194235D01*
X16436000Y44207700D01*
X16436498Y44210202D01*
X16381019Y44232604D01*
X16340008Y44290557D01*
X16333200Y44331415D01*
X16333200Y44525127D01*
X16353202Y44593248D01*
X16388378Y44629339D01*
X16432736Y44659484D01*
X16432741Y44659488D01*
X16439843Y44664315D01*
X16445386Y44670874D01*
X16445388Y44670876D01*
X16532183Y44773585D01*
X16537726Y44780144D01*
X16555433Y44818818D01*
X16597279Y44910219D01*
X16597279Y44910220D01*
X16600854Y44918028D01*
X16624577Y45067809D01*
X16624700Y45079510D01*
X16604119Y45229756D01*
X16543892Y45368932D01*
X16538487Y45375606D01*
X16538485Y45375610D01*
X16453859Y45480113D01*
X16448456Y45486785D01*
X16424507Y45503805D01*
X16331845Y45569656D01*
X16324843Y45574632D01*
X16182160Y45626001D01*
X16173600Y45626630D01*
X16173598Y45626630D01*
X16092697Y45632571D01*
X16030919Y45637108D01*
X15882262Y45607133D01*
X15747142Y45538286D01*
X15635514Y45435639D01*
X15555602Y45306754D01*
X15553205Y45298503D01*
X15553204Y45298501D01*
X15536124Y45239709D01*
X15513294Y45161127D01*
X15513204Y45152539D01*
X15512817Y45115614D01*
X15511706Y45009486D01*
X15550955Y44863005D01*
X15628150Y44732475D01*
X15737604Y44627512D01*
X15745176Y44623452D01*
X15746858Y44622230D01*
X15790214Y44566009D01*
X15798800Y44520292D01*
X15798800Y44333700D01*
X15778798Y44265579D01*
X15725142Y44219086D01*
X15672800Y44207700D01*
X15336000Y44207700D01*
X15329932Y44206493D01*
X15268304Y44194235D01*
X15268303Y44194234D01*
X15256134Y44191814D01*
X15188427Y44146573D01*
X15143186Y44078866D01*
X15127300Y43999000D01*
X14644700Y43999000D01*
X14628814Y44078866D01*
X14583573Y44146573D01*
X14570559Y44155269D01*
X14526184Y44184920D01*
X14526183Y44184921D01*
X14515866Y44191814D01*
X14511775Y44192628D01*
X14460937Y44233594D01*
X14438514Y44300956D01*
X14439985Y44325168D01*
X14453855Y44412741D01*
X14454577Y44417299D01*
X14454700Y44429000D01*
X14434119Y44579246D01*
X14373892Y44718422D01*
X14368487Y44725096D01*
X14368485Y44725100D01*
X14283859Y44829603D01*
X14278456Y44836275D01*
X14271380Y44841304D01*
X14161845Y44919146D01*
X14154843Y44924122D01*
X14012160Y44975491D01*
X14003600Y44976120D01*
X14003598Y44976120D01*
X13911069Y44982915D01*
X13860919Y44986598D01*
X13712262Y44956623D01*
X13577142Y44887776D01*
X13465514Y44785129D01*
X13385602Y44656244D01*
X13383205Y44647993D01*
X13383204Y44647991D01*
X13375720Y44622230D01*
X13343294Y44510617D01*
X13341706Y44358976D01*
X13343929Y44350678D01*
X13343930Y44350673D01*
X13345507Y44344787D01*
X13343815Y44273811D01*
X13304018Y44215017D01*
X13272016Y44195772D01*
X13268305Y44194235D01*
X13256134Y44191814D01*
X13188427Y44146573D01*
X13143186Y44078866D01*
X13140766Y44066697D01*
X13140765Y44066696D01*
X13135579Y44040622D01*
X13102672Y43977712D01*
X13040977Y43942580D01*
X12970082Y43946380D01*
X12912496Y43987905D01*
X12886502Y44053972D01*
X12886000Y44065203D01*
X12886000Y45848976D01*
X18381706Y45848976D01*
X18420955Y45702495D01*
X18498150Y45571965D01*
X18607604Y45467002D01*
X18615172Y45462944D01*
X18615175Y45462942D01*
X18688939Y45423391D01*
X18741253Y45395341D01*
X18824444Y45376745D01*
X18880864Y45364133D01*
X18880866Y45364133D01*
X18889249Y45362259D01*
X19040690Y45370196D01*
X19184418Y45418566D01*
X19200322Y45429374D01*
X19275370Y45480377D01*
X19342955Y45502123D01*
X19411567Y45483879D01*
X19459423Y45431436D01*
X19472186Y45374847D01*
X19472042Y45361046D01*
X19471706Y45328976D01*
X19510955Y45182495D01*
X19588150Y45051965D01*
X19592106Y45048171D01*
X19618183Y44983748D01*
X19618800Y44971293D01*
X19618800Y44333700D01*
X19598798Y44265579D01*
X19545142Y44219086D01*
X19492800Y44207700D01*
X19336000Y44207700D01*
X19329932Y44206493D01*
X19268304Y44194235D01*
X19268303Y44194234D01*
X19256134Y44191814D01*
X19188427Y44146573D01*
X19143186Y44078866D01*
X19127300Y43999000D01*
X19127300Y41499000D01*
X19143186Y41419134D01*
X19188427Y41351427D01*
X19256134Y41306186D01*
X19268303Y41303766D01*
X19268304Y41303765D01*
X19324963Y41292495D01*
X19336000Y41290300D01*
X20436000Y41290300D01*
X20447037Y41292495D01*
X20503696Y41303765D01*
X20503697Y41303766D01*
X20515866Y41306186D01*
X20583573Y41351427D01*
X20628814Y41419134D01*
X20644700Y41499000D01*
X20644700Y43999000D01*
X20628814Y44078866D01*
X20583573Y44146573D01*
X20515866Y44191814D01*
X20503697Y44194234D01*
X20503696Y44194235D01*
X20442068Y44206493D01*
X20436000Y44207700D01*
X20279200Y44207700D01*
X20211079Y44227702D01*
X20164586Y44281358D01*
X20153200Y44333700D01*
X20153200Y44767231D01*
X20173202Y44835352D01*
X20226858Y44881845D01*
X20239005Y44886648D01*
X20274418Y44898566D01*
X20399843Y44983805D01*
X20405386Y44990364D01*
X20405388Y44990366D01*
X20480720Y45079510D01*
X20497726Y45099634D01*
X20502305Y45109634D01*
X20557279Y45229709D01*
X20557279Y45229710D01*
X20560854Y45237518D01*
X20584577Y45387299D01*
X20584700Y45399000D01*
X20564119Y45549246D01*
X20556380Y45567131D01*
X20530043Y45627991D01*
X20503892Y45688422D01*
X20416368Y45796505D01*
X20389042Y45862031D01*
X20401481Y45931930D01*
X20449736Y45984007D01*
X20514288Y46001799D01*
X21419718Y46001799D01*
X21487839Y45981797D01*
X21534332Y45928141D01*
X21544436Y45857867D01*
X21514942Y45793287D01*
X21505004Y45783051D01*
X21485514Y45765129D01*
X21405602Y45636244D01*
X21403205Y45627993D01*
X21403204Y45627991D01*
X21377143Y45538286D01*
X21363294Y45490617D01*
X21361706Y45338976D01*
X21400955Y45192495D01*
X21478150Y45061965D01*
X21587604Y44957002D01*
X21595176Y44952942D01*
X21596858Y44951720D01*
X21640214Y44895499D01*
X21648800Y44849782D01*
X21648800Y44333700D01*
X21628798Y44265579D01*
X21575142Y44219086D01*
X21522800Y44207700D01*
X21336000Y44207700D01*
X21329932Y44206493D01*
X21268304Y44194235D01*
X21268303Y44194234D01*
X21256134Y44191814D01*
X21188427Y44146573D01*
X21143186Y44078866D01*
X21127300Y43999000D01*
X21127300Y41499000D01*
X21143186Y41419134D01*
X21188427Y41351427D01*
X21256134Y41306186D01*
X21268303Y41303766D01*
X21268304Y41303765D01*
X21324963Y41292495D01*
X21336000Y41290300D01*
X22436000Y41290300D01*
X22447037Y41292495D01*
X22503696Y41303765D01*
X22503697Y41303766D01*
X22515866Y41306186D01*
X22583573Y41351427D01*
X22628814Y41419134D01*
X22644700Y41499000D01*
X22644700Y43999000D01*
X22628814Y44078866D01*
X22583573Y44146573D01*
X22515866Y44191814D01*
X22503697Y44194234D01*
X22503696Y44194235D01*
X22442068Y44206493D01*
X22436000Y44207700D01*
X22309200Y44207700D01*
X22241079Y44227702D01*
X22194586Y44281358D01*
X22183200Y44333700D01*
X22183200Y44854617D01*
X22203202Y44922738D01*
X22238378Y44958829D01*
X22282736Y44988974D01*
X22282741Y44988978D01*
X22289843Y44993805D01*
X22295386Y45000364D01*
X22295388Y45000366D01*
X22366136Y45084086D01*
X22387726Y45109634D01*
X22404054Y45145296D01*
X22447279Y45239709D01*
X22447279Y45239710D01*
X22450854Y45247518D01*
X22474577Y45397299D01*
X22474700Y45409000D01*
X22454119Y45559246D01*
X22446364Y45577168D01*
X22433396Y45607133D01*
X22393892Y45698422D01*
X22314466Y45796505D01*
X22287140Y45862032D01*
X22299579Y45931930D01*
X22347834Y45984007D01*
X22412386Y46001799D01*
X23615288Y46001799D01*
X23683409Y45981797D01*
X23729902Y45928141D01*
X23740006Y45857867D01*
X23710512Y45793287D01*
X23700574Y45783051D01*
X23605514Y45695639D01*
X23525602Y45566754D01*
X23523205Y45558503D01*
X23523204Y45558501D01*
X23518464Y45542184D01*
X23483294Y45421127D01*
X23483204Y45412539D01*
X23482665Y45361046D01*
X23481706Y45269486D01*
X23520955Y45123005D01*
X23598150Y44992475D01*
X23707604Y44887512D01*
X23715176Y44883452D01*
X23716858Y44882230D01*
X23760214Y44826009D01*
X23768800Y44780292D01*
X23768800Y44333700D01*
X23748798Y44265579D01*
X23695142Y44219086D01*
X23642800Y44207700D01*
X23336000Y44207700D01*
X23329932Y44206493D01*
X23268304Y44194235D01*
X23268303Y44194234D01*
X23256134Y44191814D01*
X23188427Y44146573D01*
X23143186Y44078866D01*
X23127300Y43999000D01*
X23127300Y41499000D01*
X23143186Y41419134D01*
X23188427Y41351427D01*
X23256134Y41306186D01*
X23268303Y41303766D01*
X23268304Y41303765D01*
X23324963Y41292495D01*
X23336000Y41290300D01*
X24436000Y41290300D01*
X24447037Y41292495D01*
X24503696Y41303765D01*
X24503697Y41303766D01*
X24515866Y41306186D01*
X24583573Y41351427D01*
X24628814Y41419134D01*
X24644700Y41499000D01*
X24644700Y43999000D01*
X24628814Y44078866D01*
X24583573Y44146573D01*
X24515866Y44191814D01*
X24503697Y44194234D01*
X24503696Y44194235D01*
X24442068Y44206493D01*
X24436000Y44207700D01*
X24429200Y44207700D01*
X24428891Y44207791D01*
X24423650Y44208307D01*
X24423748Y44209301D01*
X24361079Y44227702D01*
X24314586Y44281358D01*
X24303200Y44333700D01*
X24303200Y44785127D01*
X24323202Y44853248D01*
X24358378Y44889339D01*
X24402736Y44919484D01*
X24402741Y44919488D01*
X24409843Y44924315D01*
X24415386Y44930874D01*
X24415388Y44930876D01*
X24502183Y45033585D01*
X24507726Y45040144D01*
X24516523Y45059357D01*
X24567279Y45170219D01*
X24567279Y45170220D01*
X24570854Y45178028D01*
X24594577Y45327809D01*
X24594700Y45339510D01*
X24574119Y45489756D01*
X24568040Y45503805D01*
X24540799Y45566754D01*
X24513892Y45628932D01*
X24508487Y45635606D01*
X24508485Y45635610D01*
X24423859Y45740113D01*
X24418456Y45746785D01*
X24381437Y45773093D01*
X24337496Y45828858D01*
X24330680Y45899527D01*
X24363153Y45962662D01*
X24424604Y45998219D01*
X24454426Y46001799D01*
X24573134Y46001799D01*
X24641255Y45981797D01*
X24662225Y45964898D01*
X25581897Y45045225D01*
X25615921Y44982915D01*
X25618800Y44956132D01*
X25618800Y44333700D01*
X25598798Y44265579D01*
X25545142Y44219086D01*
X25492800Y44207700D01*
X25336000Y44207700D01*
X25329932Y44206493D01*
X25268304Y44194235D01*
X25268303Y44194234D01*
X25256134Y44191814D01*
X25188427Y44146573D01*
X25143186Y44078866D01*
X25127300Y43999000D01*
X25127300Y41499000D01*
X25143186Y41419134D01*
X25188427Y41351427D01*
X25256134Y41306186D01*
X25268303Y41303766D01*
X25268304Y41303765D01*
X25324963Y41292495D01*
X25336000Y41290300D01*
X26436000Y41290300D01*
X26447037Y41292495D01*
X26503696Y41303765D01*
X26503697Y41303766D01*
X26515866Y41306186D01*
X26583573Y41351427D01*
X26590464Y41361740D01*
X26590466Y41361742D01*
X26619013Y41404465D01*
X26673490Y41449993D01*
X26743934Y41458840D01*
X26807978Y41428199D01*
X26844674Y41369961D01*
X26866819Y41294542D01*
X26874233Y41278308D01*
X26943426Y41170640D01*
X26955112Y41157153D01*
X27051840Y41073338D01*
X27066848Y41063693D01*
X27183275Y41010523D01*
X27200388Y41005498D01*
X27331554Y40986639D01*
X27340495Y40986000D01*
X28433743Y40986000D01*
X28438250Y40986161D01*
X28502269Y40990740D01*
X28515491Y40993126D01*
X28640458Y41029819D01*
X28656692Y41037233D01*
X28764360Y41106426D01*
X28777847Y41118112D01*
X28861662Y41214840D01*
X28871307Y41229848D01*
X28924477Y41346275D01*
X28929502Y41363388D01*
X28948361Y41494554D01*
X28949000Y41503495D01*
X28949000Y42130214D01*
X45960767Y42130214D01*
X45998343Y41965488D01*
X46001567Y41958921D01*
X46001568Y41958919D01*
X46064257Y41831239D01*
X46072807Y41813824D01*
X46180163Y41683358D01*
X46314654Y41581089D01*
X46321342Y41578118D01*
X46321346Y41578116D01*
X46374318Y41554587D01*
X46469065Y41512502D01*
X46476260Y41511149D01*
X46582866Y41491102D01*
X46635113Y41481277D01*
X46642421Y41481615D01*
X46642424Y41481615D01*
X46796573Y41488750D01*
X46796576Y41488750D01*
X46803890Y41489089D01*
X46810933Y41491102D01*
X46810934Y41491102D01*
X46896217Y41515476D01*
X46966343Y41535518D01*
X46972729Y41539094D01*
X46972733Y41539096D01*
X47107367Y41614495D01*
X47107369Y41614496D01*
X47113759Y41618075D01*
X47184878Y41683358D01*
X47232838Y41727382D01*
X47232839Y41727383D01*
X47238228Y41732330D01*
X47333074Y41872154D01*
X47366120Y41958919D01*
X47390604Y42023204D01*
X47390605Y42023209D01*
X47393210Y42030048D01*
X47415410Y42197542D01*
X47415500Y42209000D01*
X47415047Y42212882D01*
X47415047Y42212890D01*
X47396782Y42369549D01*
X47396782Y42369550D01*
X47395934Y42376821D01*
X47338286Y42535640D01*
X47245647Y42676938D01*
X47122988Y42793134D01*
X47045176Y42838330D01*
X46983220Y42874317D01*
X46983217Y42874318D01*
X46976887Y42877995D01*
X46969879Y42880117D01*
X46969878Y42880118D01*
X46937561Y42889906D01*
X46815183Y42926971D01*
X46807874Y42927424D01*
X46807871Y42927425D01*
X46736926Y42931826D01*
X46646550Y42937433D01*
X46639334Y42936193D01*
X46639332Y42936193D01*
X46487247Y42910060D01*
X46487245Y42910059D01*
X46480032Y42908820D01*
X46324563Y42842667D01*
X46188482Y42742523D01*
X46079089Y42613759D01*
X46002253Y42463283D01*
X45962094Y42299167D01*
X45960767Y42130214D01*
X28949000Y42130214D01*
X28949000Y42476885D01*
X28944525Y42492124D01*
X28943135Y42493329D01*
X28935452Y42495000D01*
X27758000Y42495000D01*
X27689879Y42515002D01*
X27643386Y42568658D01*
X27632000Y42621000D01*
X27632000Y42877000D01*
X27652002Y42945121D01*
X27705658Y42991614D01*
X27758000Y43003000D01*
X28930885Y43003000D01*
X28946124Y43007475D01*
X28947329Y43008865D01*
X28949000Y43016548D01*
X28949000Y43996743D01*
X28948839Y44001250D01*
X28944260Y44065269D01*
X28941874Y44078491D01*
X28905181Y44203458D01*
X28897767Y44219692D01*
X28828574Y44327360D01*
X28816888Y44340847D01*
X28720160Y44424662D01*
X28705149Y44434309D01*
X28649578Y44459687D01*
X28595923Y44506180D01*
X28575921Y44574300D01*
X28595923Y44642421D01*
X28649579Y44688914D01*
X28701921Y44700300D01*
X30836000Y44700300D01*
X30847037Y44702495D01*
X30903696Y44713765D01*
X30903697Y44713766D01*
X30915866Y44716186D01*
X30983573Y44761427D01*
X31028814Y44829134D01*
X31033331Y44851840D01*
X31043493Y44902932D01*
X31044700Y44909000D01*
X31044700Y46009000D01*
X31033200Y46066817D01*
X31031235Y46076696D01*
X31031234Y46076697D01*
X31028814Y46088866D01*
X30983573Y46156573D01*
X30915866Y46201814D01*
X30903697Y46204234D01*
X30903696Y46204235D01*
X30842068Y46216493D01*
X30836000Y46217700D01*
X28336000Y46217700D01*
X28329932Y46216493D01*
X28268304Y46204235D01*
X28268303Y46204234D01*
X28256134Y46201814D01*
X28188427Y46156573D01*
X28143186Y46088866D01*
X28140766Y46076697D01*
X28140765Y46076696D01*
X28138800Y46066817D01*
X28127300Y46009000D01*
X28127300Y44909000D01*
X28128507Y44902932D01*
X28138670Y44851840D01*
X28143186Y44829134D01*
X28188427Y44761427D01*
X28198740Y44754536D01*
X28198743Y44754533D01*
X28216356Y44742764D01*
X28261883Y44688287D01*
X28270730Y44617844D01*
X28240089Y44553800D01*
X28179686Y44516489D01*
X28146353Y44512000D01*
X27338257Y44512000D01*
X27333750Y44511839D01*
X27269731Y44507260D01*
X27256509Y44504874D01*
X27131542Y44468181D01*
X27115308Y44460767D01*
X27007640Y44391574D01*
X26994153Y44379888D01*
X26910338Y44283160D01*
X26900693Y44268152D01*
X26847524Y44151726D01*
X26841821Y44132306D01*
X26803436Y44072581D01*
X26738855Y44043088D01*
X26668581Y44053193D01*
X26616160Y44097804D01*
X26590466Y44136258D01*
X26590464Y44136260D01*
X26583573Y44146573D01*
X26515866Y44191814D01*
X26503697Y44194234D01*
X26503696Y44194235D01*
X26442068Y44206493D01*
X26436000Y44207700D01*
X26279200Y44207700D01*
X26211079Y44227702D01*
X26164586Y44281358D01*
X26153200Y44333700D01*
X26153200Y45081459D01*
X26155621Y45106039D01*
X26155778Y45106828D01*
X26158199Y45119000D01*
X26153200Y45144133D01*
X26153200Y45144137D01*
X26137480Y45223166D01*
X26137480Y45223167D01*
X26092713Y45290165D01*
X26092711Y45290167D01*
X26078474Y45311474D01*
X26067483Y45318818D01*
X26048390Y45334488D01*
X24951491Y46431386D01*
X24935821Y46450479D01*
X24935369Y46451155D01*
X24928475Y46461473D01*
X24908381Y46474900D01*
X24883645Y46491428D01*
X24850485Y46513585D01*
X24850486Y46513585D01*
X24840168Y46520479D01*
X24828000Y46522899D01*
X24827998Y46522900D01*
X24824330Y46523629D01*
X24824328Y46523630D01*
X24761151Y46536197D01*
X24761143Y46536198D01*
X24761138Y46536199D01*
X24761132Y46536199D01*
X24736001Y46541198D01*
X24723829Y46538777D01*
X24723040Y46538620D01*
X24698460Y46536199D01*
X19323541Y46536199D01*
X19298961Y46538620D01*
X19298172Y46538777D01*
X19298170Y46538777D01*
X19285999Y46541198D01*
X19260869Y46536199D01*
X19260862Y46536199D01*
X19260855Y46536198D01*
X19260850Y46536197D01*
X19197674Y46523630D01*
X19181833Y46520479D01*
X19181831Y46520478D01*
X19181832Y46520478D01*
X19178187Y46518043D01*
X19178188Y46518043D01*
X19130869Y46486426D01*
X19063116Y46465211D01*
X19051645Y46465529D01*
X18900919Y46476598D01*
X18752262Y46446623D01*
X18617142Y46377776D01*
X18610820Y46371963D01*
X18610819Y46371962D01*
X18563701Y46328635D01*
X18505514Y46275129D01*
X18425602Y46146244D01*
X18423205Y46137993D01*
X18423204Y46137991D01*
X18402527Y46066817D01*
X18383294Y46000617D01*
X18383204Y45992029D01*
X18382833Y45956598D01*
X18381706Y45848976D01*
X12886000Y45848976D01*
X12886000Y48009000D01*
X28127300Y48009000D01*
X28127300Y46909000D01*
X28143186Y46829134D01*
X28188427Y46761427D01*
X28256134Y46716186D01*
X28268303Y46713766D01*
X28268304Y46713765D01*
X28324963Y46702495D01*
X28336000Y46700300D01*
X30836000Y46700300D01*
X30847037Y46702495D01*
X30903696Y46713765D01*
X30903697Y46713766D01*
X30915866Y46716186D01*
X30983573Y46761427D01*
X31028814Y46829134D01*
X31044700Y46909000D01*
X31044700Y48009000D01*
X31028814Y48088866D01*
X30983573Y48156573D01*
X30915866Y48201814D01*
X30903697Y48204234D01*
X30903696Y48204235D01*
X30842068Y48216493D01*
X30836000Y48217700D01*
X28336000Y48217700D01*
X28329932Y48216493D01*
X28268304Y48204235D01*
X28268303Y48204234D01*
X28256134Y48201814D01*
X28188427Y48156573D01*
X28143186Y48088866D01*
X28127300Y48009000D01*
X12886000Y48009000D01*
X12886000Y50009000D01*
X28127300Y50009000D01*
X28127300Y48909000D01*
X28143186Y48829134D01*
X28188427Y48761427D01*
X28256134Y48716186D01*
X28268303Y48713766D01*
X28268304Y48713765D01*
X28324963Y48702495D01*
X28336000Y48700300D01*
X30836000Y48700300D01*
X30847037Y48702495D01*
X30903696Y48713765D01*
X30903697Y48713766D01*
X30915866Y48716186D01*
X30983573Y48761427D01*
X31028814Y48829134D01*
X31044700Y48909000D01*
X31044700Y50009000D01*
X31028814Y50088866D01*
X30983573Y50156573D01*
X30915866Y50201814D01*
X30903697Y50204234D01*
X30903696Y50204235D01*
X30842068Y50216493D01*
X30836000Y50217700D01*
X28336000Y50217700D01*
X28329932Y50216493D01*
X28268304Y50204235D01*
X28268303Y50204234D01*
X28256134Y50201814D01*
X28188427Y50156573D01*
X28143186Y50088866D01*
X28127300Y50009000D01*
X12886000Y50009000D01*
X12886000Y51528976D01*
X19581706Y51528976D01*
X19620955Y51382495D01*
X19698150Y51251965D01*
X19807604Y51147002D01*
X19815172Y51142944D01*
X19815175Y51142942D01*
X19888939Y51103391D01*
X19941253Y51075341D01*
X20024444Y51056745D01*
X20080864Y51044133D01*
X20080866Y51044133D01*
X20089249Y51042259D01*
X20240690Y51050196D01*
X20384418Y51098566D01*
X20509843Y51183805D01*
X20515386Y51190364D01*
X20515388Y51190366D01*
X20597158Y51287128D01*
X20656404Y51326248D01*
X20693396Y51331800D01*
X21398459Y51331800D01*
X21423039Y51329379D01*
X21436000Y51326801D01*
X21461131Y51331800D01*
X21461137Y51331800D01*
X21461142Y51331801D01*
X21461150Y51331802D01*
X21524327Y51344369D01*
X21524329Y51344370D01*
X21527996Y51345099D01*
X21527998Y51345100D01*
X21540167Y51347520D01*
X21607164Y51392287D01*
X21628474Y51406526D01*
X21635820Y51417520D01*
X21651490Y51436613D01*
X22223877Y52009000D01*
X28127300Y52009000D01*
X28127300Y50909000D01*
X28143186Y50829134D01*
X28188427Y50761427D01*
X28256134Y50716186D01*
X28268303Y50713766D01*
X28268304Y50713765D01*
X28324963Y50702495D01*
X28336000Y50700300D01*
X30836000Y50700300D01*
X30847037Y50702495D01*
X30903696Y50713765D01*
X30903697Y50713766D01*
X30915866Y50716186D01*
X30983573Y50761427D01*
X31028814Y50829134D01*
X31044700Y50909000D01*
X31044700Y52009000D01*
X31028814Y52088866D01*
X30983573Y52156573D01*
X30915866Y52201814D01*
X30903697Y52204234D01*
X30903696Y52204235D01*
X30842068Y52216493D01*
X30836000Y52217700D01*
X28336000Y52217700D01*
X28329932Y52216493D01*
X28268304Y52204235D01*
X28268303Y52204234D01*
X28256134Y52201814D01*
X28188427Y52156573D01*
X28143186Y52088866D01*
X28127300Y52009000D01*
X22223877Y52009000D01*
X22549772Y52334895D01*
X22612084Y52368921D01*
X22638867Y52371800D01*
X26508459Y52371800D01*
X26533039Y52369379D01*
X26546000Y52366801D01*
X26571131Y52371800D01*
X26571137Y52371800D01*
X26571142Y52371801D01*
X26571150Y52371802D01*
X26634327Y52384369D01*
X26634329Y52384370D01*
X26637996Y52385099D01*
X26637998Y52385100D01*
X26650167Y52387520D01*
X26717164Y52432287D01*
X26738474Y52446526D01*
X26745820Y52457520D01*
X26761490Y52476613D01*
X27912205Y53627327D01*
X27974517Y53661353D01*
X28045333Y53656288D01*
X28102168Y53613741D01*
X28126979Y53547221D01*
X28127300Y53538232D01*
X28127300Y52909000D01*
X28143186Y52829134D01*
X28188427Y52761427D01*
X28256134Y52716186D01*
X28268303Y52713766D01*
X28268304Y52713765D01*
X28324963Y52702495D01*
X28336000Y52700300D01*
X30836000Y52700300D01*
X30847037Y52702495D01*
X30903696Y52713765D01*
X30903697Y52713766D01*
X30915866Y52716186D01*
X30983573Y52761427D01*
X31028814Y52829134D01*
X31044700Y52909000D01*
X31044700Y53915800D01*
X31064702Y53983921D01*
X31118358Y54030414D01*
X31170700Y54041800D01*
X43068459Y54041800D01*
X43093039Y54039379D01*
X43106000Y54036801D01*
X43131131Y54041800D01*
X43131137Y54041800D01*
X43131142Y54041801D01*
X43131150Y54041802D01*
X43194327Y54054369D01*
X43194329Y54054370D01*
X43197996Y54055099D01*
X43197998Y54055100D01*
X43210167Y54057520D01*
X43277164Y54102287D01*
X43298474Y54116526D01*
X43305818Y54127517D01*
X43321488Y54146611D01*
X43888393Y54713515D01*
X43907486Y54729184D01*
X43908158Y54729633D01*
X43918474Y54736526D01*
X43932711Y54757833D01*
X43932713Y54757835D01*
X43962583Y54802539D01*
X43970363Y54814182D01*
X43970585Y54814514D01*
X43970586Y54814516D01*
X43977480Y54824834D01*
X43983719Y54856200D01*
X43993198Y54903851D01*
X43993201Y54903875D01*
X43994221Y54909000D01*
X43998199Y54929000D01*
X43995621Y54941962D01*
X43993200Y54966542D01*
X43993200Y56574617D01*
X44013202Y56642738D01*
X44048378Y56678829D01*
X44092736Y56708974D01*
X44092741Y56708978D01*
X44099843Y56713805D01*
X44105386Y56720364D01*
X44105388Y56720366D01*
X44180135Y56808818D01*
X44197726Y56829634D01*
X44215427Y56868295D01*
X44257279Y56959709D01*
X44257279Y56959710D01*
X44260854Y56967518D01*
X44284577Y57117299D01*
X44284700Y57129000D01*
X44279828Y57164565D01*
X44278423Y57174824D01*
X44288995Y57245029D01*
X44335844Y57298374D01*
X44404097Y57317921D01*
X44472083Y57297465D01*
X44492351Y57281021D01*
X44705803Y57067568D01*
X44885396Y56887975D01*
X44919421Y56825663D01*
X44922300Y56798880D01*
X44922300Y53729118D01*
X44902298Y53660997D01*
X44885395Y53640023D01*
X37724803Y46479432D01*
X37662491Y46445406D01*
X37635050Y46442529D01*
X37544544Y46443003D01*
X37537164Y46441231D01*
X37537162Y46441231D01*
X37386346Y46405024D01*
X37386342Y46405023D01*
X37378967Y46403252D01*
X37227652Y46325152D01*
X37221930Y46320160D01*
X37221928Y46320159D01*
X37176974Y46280943D01*
X37099333Y46213213D01*
X37094966Y46206999D01*
X37019191Y46099182D01*
X37001420Y46073897D01*
X36984486Y46030464D01*
X36951357Y45945491D01*
X36939565Y45915247D01*
X36938573Y45907714D01*
X36938573Y45907713D01*
X36918800Y45757518D01*
X36917339Y45746421D01*
X36923005Y45695104D01*
X36932717Y45607133D01*
X36936025Y45577168D01*
X36938634Y45570037D01*
X36938635Y45570035D01*
X36950254Y45538286D01*
X36994544Y45417257D01*
X36998781Y45410951D01*
X36998783Y45410948D01*
X37059443Y45320677D01*
X37089518Y45275921D01*
X37215463Y45161319D01*
X37222140Y45157694D01*
X37222141Y45157693D01*
X37358433Y45083692D01*
X37358435Y45083691D01*
X37365110Y45080067D01*
X37372459Y45078139D01*
X37522468Y45038785D01*
X37522470Y45038785D01*
X37529818Y45036857D01*
X37621210Y45035421D01*
X37692482Y45034301D01*
X37692485Y45034301D01*
X37700079Y45034182D01*
X37777723Y45051965D01*
X37858661Y45070502D01*
X37858665Y45070503D01*
X37866064Y45072198D01*
X38018189Y45148709D01*
X38147672Y45259298D01*
X38247039Y45397581D01*
X38310552Y45555575D01*
X38334545Y45724158D01*
X38334700Y45739000D01*
X38334205Y45743088D01*
X38334039Y45746112D01*
X38350270Y45815228D01*
X38370754Y45842126D01*
X38697597Y46168969D01*
X44072676Y46168969D01*
X44075375Y46159944D01*
X44109057Y46047318D01*
X44109058Y46047315D01*
X44111756Y46038295D01*
X44116987Y46030466D01*
X44116988Y46030464D01*
X44182298Y45932720D01*
X44182300Y45932718D01*
X44187531Y45924889D01*
X44208629Y45907713D01*
X44286000Y45844723D01*
X44286002Y45844722D01*
X44293303Y45838778D01*
X44419719Y45787574D01*
X44429103Y45786761D01*
X44429104Y45786761D01*
X44546222Y45776617D01*
X44546225Y45776617D01*
X44555602Y45775805D01*
X44564803Y45777786D01*
X44564804Y45777786D01*
X44626690Y45791110D01*
X44688939Y45804512D01*
X44807940Y45871156D01*
X44870393Y45936623D01*
X44895585Y45963031D01*
X44895586Y45963032D01*
X44902085Y45969845D01*
X44908057Y45981797D01*
X44958839Y46083426D01*
X44958840Y46083428D01*
X44963050Y46091854D01*
X44972103Y46146244D01*
X44984630Y46221508D01*
X44984630Y46221513D01*
X44985443Y46226395D01*
X44985500Y46233600D01*
X44965222Y46368476D01*
X44960757Y46377776D01*
X44910259Y46482938D01*
X44910258Y46482939D01*
X44906182Y46491428D01*
X44876416Y46523629D01*
X44819994Y46584665D01*
X44813599Y46591583D01*
X44805455Y46596313D01*
X44805453Y46596315D01*
X44738092Y46635441D01*
X44695659Y46660088D01*
X44601479Y46681918D01*
X44571966Y46688759D01*
X44571965Y46688759D01*
X44562789Y46690886D01*
X44553394Y46690221D01*
X44553391Y46690221D01*
X44482844Y46685226D01*
X44426738Y46681253D01*
X44299533Y46632041D01*
X44192422Y46547602D01*
X44187067Y46539855D01*
X44187066Y46539853D01*
X44125764Y46451155D01*
X44114875Y46435400D01*
X44073747Y46305356D01*
X44072676Y46168969D01*
X38697597Y46168969D01*
X42697598Y50168969D01*
X44072676Y50168969D01*
X44075375Y50159944D01*
X44109057Y50047318D01*
X44109058Y50047315D01*
X44111756Y50038295D01*
X44116987Y50030466D01*
X44116988Y50030464D01*
X44182298Y49932720D01*
X44182300Y49932718D01*
X44187531Y49924889D01*
X44194835Y49918943D01*
X44286000Y49844723D01*
X44286002Y49844722D01*
X44293303Y49838778D01*
X44419719Y49787574D01*
X44429103Y49786761D01*
X44429104Y49786761D01*
X44546222Y49776617D01*
X44546225Y49776617D01*
X44555602Y49775805D01*
X44564803Y49777786D01*
X44564804Y49777786D01*
X44626690Y49791110D01*
X44688939Y49804512D01*
X44807940Y49871156D01*
X44902085Y49969845D01*
X44906295Y49978270D01*
X44958839Y50083426D01*
X44958840Y50083428D01*
X44963050Y50091854D01*
X44964597Y50101147D01*
X44984630Y50221508D01*
X44984630Y50221513D01*
X44985443Y50226395D01*
X44985500Y50233600D01*
X44965222Y50368476D01*
X44937400Y50426417D01*
X44910259Y50482938D01*
X44910258Y50482939D01*
X44906182Y50491428D01*
X44813599Y50591583D01*
X44805455Y50596313D01*
X44805453Y50596315D01*
X44738092Y50635441D01*
X44695659Y50660088D01*
X44601479Y50681918D01*
X44571966Y50688759D01*
X44571965Y50688759D01*
X44562789Y50690886D01*
X44553394Y50690221D01*
X44553391Y50690221D01*
X44482844Y50685226D01*
X44426738Y50681253D01*
X44299533Y50632041D01*
X44192422Y50547602D01*
X44187067Y50539855D01*
X44187066Y50539853D01*
X44153598Y50491428D01*
X44114875Y50435400D01*
X44073747Y50305356D01*
X44072676Y50168969D01*
X42697598Y50168969D01*
X45673229Y53144600D01*
X45684319Y53154455D01*
X45688871Y53158043D01*
X45710378Y53174998D01*
X45743975Y53223608D01*
X45746272Y53226823D01*
X45775788Y53266785D01*
X45781383Y53274360D01*
X45783792Y53281220D01*
X45787925Y53287200D01*
X45790764Y53296177D01*
X45790766Y53296181D01*
X45805745Y53343546D01*
X45806998Y53347302D01*
X45823454Y53394161D01*
X45826575Y53403048D01*
X45826857Y53410243D01*
X45826887Y53410398D01*
X45829053Y53417244D01*
X45829700Y53425465D01*
X45829700Y53480103D01*
X45829797Y53485050D01*
X45831560Y53529923D01*
X45831930Y53539335D01*
X45830114Y53546184D01*
X45829700Y53553706D01*
X45829700Y57005639D01*
X45830573Y57020448D01*
X45833367Y57044056D01*
X45834474Y57053408D01*
X45823856Y57111545D01*
X45823206Y57115450D01*
X45815822Y57164565D01*
X45815822Y57164566D01*
X45814422Y57173876D01*
X45811275Y57180430D01*
X45809969Y57187580D01*
X45782745Y57239989D01*
X45780977Y57243528D01*
X45759463Y57288331D01*
X45759460Y57288335D01*
X45755382Y57296828D01*
X45750493Y57302116D01*
X45750403Y57302249D01*
X45747096Y57308617D01*
X45741741Y57314888D01*
X45703105Y57353524D01*
X45699676Y57357090D01*
X45669194Y57390065D01*
X45662799Y57396983D01*
X45656673Y57400541D01*
X45651060Y57405569D01*
X44687900Y58368729D01*
X44678045Y58379819D01*
X44663338Y58398475D01*
X44657502Y58405878D01*
X44608859Y58439497D01*
X44605705Y58441750D01*
X44558139Y58476883D01*
X44551281Y58479292D01*
X44545300Y58483425D01*
X44536325Y58486263D01*
X44536324Y58486264D01*
X44488964Y58501242D01*
X44485235Y58502486D01*
X44454958Y58513119D01*
X44438337Y58518956D01*
X44438335Y58518956D01*
X44429452Y58522076D01*
X44422250Y58522358D01*
X44422101Y58522387D01*
X44415256Y58524553D01*
X44407035Y58525200D01*
X44352407Y58525200D01*
X44347461Y58525297D01*
X44346248Y58525345D01*
X44293165Y58527430D01*
X44286316Y58525614D01*
X44278794Y58525200D01*
X38455841Y58525200D01*
X38382854Y58548492D01*
X38357343Y58566622D01*
X38214660Y58617991D01*
X38206100Y58618620D01*
X38206098Y58618620D01*
X38125197Y58624561D01*
X38063419Y58629098D01*
X37914762Y58599123D01*
X37779642Y58530276D01*
X37773320Y58524463D01*
X37773319Y58524462D01*
X37749430Y58502495D01*
X37668014Y58427629D01*
X37588102Y58298744D01*
X37545794Y58153117D01*
X37544206Y58001476D01*
X37583455Y57854995D01*
X37660650Y57724465D01*
X37770104Y57619502D01*
X37777672Y57615444D01*
X37777675Y57615442D01*
X37860438Y57571066D01*
X37903753Y57547841D01*
X37984345Y57529826D01*
X38043364Y57516633D01*
X38043366Y57516633D01*
X38051749Y57514759D01*
X38203190Y57522696D01*
X38346918Y57571066D01*
X38354017Y57575891D01*
X38354022Y57575893D01*
X38383626Y57596012D01*
X38454448Y57617800D01*
X43151396Y57617800D01*
X43219517Y57597798D01*
X43266010Y57544142D01*
X43276114Y57473868D01*
X43258482Y57425404D01*
X43220132Y57363552D01*
X43220129Y57363545D01*
X43215602Y57356244D01*
X43213205Y57347993D01*
X43213204Y57347991D01*
X43195872Y57288331D01*
X43173294Y57210617D01*
X43171706Y57058976D01*
X43210955Y56912495D01*
X43288150Y56781965D01*
X43397604Y56677002D01*
X43405176Y56672942D01*
X43406858Y56671720D01*
X43450214Y56615499D01*
X43458800Y56569782D01*
X43458800Y55224915D01*
X43438798Y55156794D01*
X43385142Y55110301D01*
X43314868Y55100197D01*
X43250288Y55129691D01*
X43234880Y55145620D01*
X43225832Y55156794D01*
X43144860Y55256785D01*
X43108054Y55282942D01*
X43028249Y55339656D01*
X43021247Y55344632D01*
X42878564Y55396001D01*
X42870004Y55396630D01*
X42870002Y55396630D01*
X42789101Y55402571D01*
X42727323Y55407108D01*
X42578666Y55377133D01*
X42443546Y55308286D01*
X42437224Y55302473D01*
X42437223Y55302472D01*
X42409007Y55276526D01*
X42331918Y55205639D01*
X42252006Y55076754D01*
X42241235Y55039678D01*
X42214323Y54947047D01*
X42176110Y54887212D01*
X42111614Y54857534D01*
X42093326Y54856200D01*
X31170700Y54856200D01*
X31102579Y54876202D01*
X31056086Y54929858D01*
X31044700Y54982200D01*
X31044700Y56009000D01*
X31039766Y56033805D01*
X31031235Y56076696D01*
X31031234Y56076697D01*
X31028814Y56088866D01*
X30983573Y56156573D01*
X30915866Y56201814D01*
X30903697Y56204234D01*
X30903696Y56204235D01*
X30842068Y56216493D01*
X30836000Y56217700D01*
X28336000Y56217700D01*
X28329932Y56216493D01*
X28268304Y56204235D01*
X28268303Y56204234D01*
X28256134Y56201814D01*
X28245819Y56194922D01*
X28245815Y56194920D01*
X28217756Y56176171D01*
X28180678Y56164561D01*
X28174652Y56136861D01*
X28168829Y56127244D01*
X28150080Y56099185D01*
X28150079Y56099182D01*
X28143186Y56088866D01*
X28140766Y56076697D01*
X28140765Y56076696D01*
X28132234Y56033805D01*
X28127300Y56009000D01*
X28127300Y55787656D01*
X28107298Y55719535D01*
X28053642Y55673042D01*
X27983368Y55662938D01*
X27918788Y55692432D01*
X27883434Y55743118D01*
X27846736Y55840235D01*
X27844052Y55847338D01*
X27839544Y55853897D01*
X27777914Y55943571D01*
X27755815Y56011040D01*
X27773701Y56079747D01*
X27792660Y56104032D01*
X27974969Y56286341D01*
X28031750Y56317347D01*
X28051072Y56361735D01*
X28058659Y56370031D01*
X28183226Y56494598D01*
X28194317Y56504454D01*
X28212980Y56519166D01*
X28220378Y56524998D01*
X28253997Y56573641D01*
X28256250Y56576795D01*
X28291383Y56624361D01*
X28293350Y56629964D01*
X28296428Y56635034D01*
X28296518Y56635164D01*
X28297013Y56635881D01*
X28352172Y56680578D01*
X28400705Y56690300D01*
X28436000Y56690300D01*
X28455622Y56694203D01*
X28503696Y56703765D01*
X28503697Y56703766D01*
X28515866Y56706186D01*
X28527269Y56713805D01*
X28573260Y56744536D01*
X28583573Y56751427D01*
X28628814Y56819134D01*
X28644700Y56899000D01*
X28644700Y57361557D01*
X28647954Y57390009D01*
X28650584Y57401352D01*
X28653286Y57413011D01*
X28645015Y57529826D01*
X28644700Y57538725D01*
X28644700Y59399000D01*
X28628814Y59478866D01*
X28583573Y59546573D01*
X28515866Y59591814D01*
X28503697Y59594234D01*
X28503696Y59594235D01*
X28442068Y59606493D01*
X28436000Y59607700D01*
X27336000Y59607700D01*
X27329932Y59606493D01*
X27268304Y59594235D01*
X27268303Y59594234D01*
X27256134Y59591814D01*
X27188427Y59546573D01*
X27143186Y59478866D01*
X27127300Y59399000D01*
X27127300Y56899000D01*
X27128507Y56892932D01*
X27143186Y56819134D01*
X27139103Y56818322D01*
X27144234Y56770709D01*
X27109326Y56703955D01*
X26918770Y56513398D01*
X26907689Y56503551D01*
X26881622Y56483002D01*
X26848003Y56434359D01*
X26845750Y56431205D01*
X26810617Y56383639D01*
X26808208Y56376781D01*
X26804075Y56370800D01*
X26801237Y56361825D01*
X26801236Y56361824D01*
X26786258Y56314464D01*
X26785014Y56310735D01*
X26776861Y56287518D01*
X26769523Y56266623D01*
X26765424Y56254952D01*
X26765142Y56247750D01*
X26765113Y56247601D01*
X26762947Y56240756D01*
X26762300Y56232535D01*
X26762300Y56177907D01*
X26762203Y56172961D01*
X26760070Y56118665D01*
X26759053Y56118705D01*
X26748142Y56057214D01*
X26718136Y56018340D01*
X26689333Y55993213D01*
X26668697Y55963851D01*
X26605908Y55874511D01*
X26591420Y55853897D01*
X26573074Y55806842D01*
X26542062Y55727299D01*
X26529565Y55695247D01*
X26528573Y55687714D01*
X26528573Y55687713D01*
X26509492Y55542774D01*
X26507339Y55526421D01*
X26515022Y55456830D01*
X26525179Y55364834D01*
X26526025Y55357168D01*
X26528634Y55350037D01*
X26528635Y55350035D01*
X26533698Y55336200D01*
X26584544Y55197257D01*
X26588781Y55190951D01*
X26588783Y55190948D01*
X26660612Y55084056D01*
X26679518Y55055921D01*
X26805463Y54941319D01*
X26812140Y54937694D01*
X26812141Y54937693D01*
X26948433Y54863692D01*
X26948435Y54863691D01*
X26955110Y54860067D01*
X26962459Y54858139D01*
X27112468Y54818785D01*
X27112470Y54818785D01*
X27119818Y54816857D01*
X27211210Y54815421D01*
X27282482Y54814301D01*
X27282485Y54814301D01*
X27290079Y54814182D01*
X27348762Y54827622D01*
X27448661Y54850502D01*
X27448665Y54850503D01*
X27456064Y54852198D01*
X27608189Y54928709D01*
X27737672Y55039298D01*
X27837039Y55177581D01*
X27884393Y55295378D01*
X27928359Y55351123D01*
X27995484Y55374248D01*
X28064456Y55357411D01*
X28113376Y55305959D01*
X28127300Y55248382D01*
X28127300Y54961272D01*
X28107298Y54893151D01*
X28049518Y54844863D01*
X28044781Y54842901D01*
X28032609Y54840480D01*
X27965611Y54795713D01*
X27965609Y54795711D01*
X27944302Y54781474D01*
X27937409Y54771158D01*
X27936958Y54770483D01*
X27921288Y54751390D01*
X26383003Y53213104D01*
X26320691Y53179079D01*
X26293908Y53176199D01*
X21853541Y53176199D01*
X21828961Y53178620D01*
X21828172Y53178777D01*
X21828170Y53178777D01*
X21815999Y53181198D01*
X21790869Y53176199D01*
X21790862Y53176199D01*
X21790855Y53176198D01*
X21790850Y53176197D01*
X21724693Y53163037D01*
X21711833Y53160479D01*
X21711831Y53160478D01*
X21711832Y53160478D01*
X21688069Y53144600D01*
X21660869Y53126426D01*
X21593116Y53105211D01*
X21581645Y53105529D01*
X21430919Y53116598D01*
X21282262Y53086623D01*
X21147142Y53017776D01*
X21035514Y52915129D01*
X20955602Y52786244D01*
X20953205Y52777993D01*
X20953204Y52777991D01*
X20934545Y52713765D01*
X20913294Y52640617D01*
X20911706Y52488976D01*
X20950955Y52342495D01*
X21028150Y52211965D01*
X21137604Y52107002D01*
X21145176Y52102942D01*
X21152125Y52097893D01*
X21151257Y52096699D01*
X21195194Y52053427D01*
X21210814Y51984170D01*
X21186511Y51917463D01*
X21130002Y51874484D01*
X21085070Y51866200D01*
X20691986Y51866200D01*
X20623865Y51886202D01*
X20594066Y51912905D01*
X20523859Y51999603D01*
X20518456Y52006275D01*
X20394843Y52094122D01*
X20252160Y52145491D01*
X20243600Y52146120D01*
X20243598Y52146120D01*
X20162697Y52152061D01*
X20100919Y52156598D01*
X19952262Y52126623D01*
X19817142Y52057776D01*
X19705514Y51955129D01*
X19625602Y51826244D01*
X19583294Y51680617D01*
X19581706Y51528976D01*
X12886000Y51528976D01*
X12886000Y56832797D01*
X12906002Y56900918D01*
X12959658Y56947411D01*
X13029932Y56957515D01*
X13094512Y56928021D01*
X13132896Y56868295D01*
X13135579Y56857379D01*
X13143186Y56819134D01*
X13188427Y56751427D01*
X13198740Y56744536D01*
X13244732Y56713805D01*
X13256134Y56706186D01*
X13267431Y56703939D01*
X13322230Y56659781D01*
X13344652Y56592418D01*
X13339729Y56552768D01*
X13333294Y56530617D01*
X13331706Y56378976D01*
X13370955Y56232495D01*
X13448150Y56101965D01*
X13557604Y55997002D01*
X13565172Y55992944D01*
X13565175Y55992942D01*
X13626248Y55960196D01*
X13691253Y55925341D01*
X13774444Y55906745D01*
X13830864Y55894133D01*
X13830866Y55894133D01*
X13839249Y55892259D01*
X13990690Y55900196D01*
X14134418Y55948566D01*
X14148287Y55957991D01*
X14171175Y55973546D01*
X14259843Y56033805D01*
X14265386Y56040364D01*
X14265388Y56040366D01*
X14331589Y56118705D01*
X14357726Y56149634D01*
X14369537Y56175430D01*
X14417279Y56279709D01*
X14417279Y56279710D01*
X14420854Y56287518D01*
X14444577Y56437299D01*
X14444700Y56449000D01*
X14434290Y56524998D01*
X14428036Y56570653D01*
X14438608Y56640858D01*
X14485457Y56694203D01*
X14504006Y56703827D01*
X14515866Y56706186D01*
X14527269Y56713805D01*
X14573260Y56744536D01*
X14583573Y56751427D01*
X14628814Y56819134D01*
X14644700Y56899000D01*
X14644700Y58547054D01*
X14664702Y58615175D01*
X14681605Y58636150D01*
X14912205Y58866749D01*
X14974517Y58900774D01*
X15045333Y58895709D01*
X15102168Y58853162D01*
X15126979Y58786641D01*
X15127300Y58777657D01*
X15127300Y56899000D01*
X15143186Y56819134D01*
X15188427Y56751427D01*
X15198740Y56744536D01*
X15244732Y56713805D01*
X15256134Y56706186D01*
X15268303Y56703766D01*
X15268304Y56703765D01*
X15316378Y56694203D01*
X15336000Y56690300D01*
X16436000Y56690300D01*
X16455622Y56694203D01*
X16503696Y56703765D01*
X16503697Y56703766D01*
X16515866Y56706186D01*
X16527269Y56713805D01*
X16573260Y56744536D01*
X16583573Y56751427D01*
X16628814Y56819134D01*
X16644700Y56899000D01*
X16644700Y59265800D01*
X16664702Y59333921D01*
X16718358Y59380414D01*
X16770700Y59391800D01*
X17001300Y59391800D01*
X17069421Y59371798D01*
X17115914Y59318142D01*
X17127300Y59265800D01*
X17127300Y56899000D01*
X17143186Y56819134D01*
X17188427Y56751427D01*
X17198740Y56744536D01*
X17244732Y56713805D01*
X17256134Y56706186D01*
X17268303Y56703766D01*
X17268304Y56703765D01*
X17316378Y56694203D01*
X17336000Y56690300D01*
X17492800Y56690300D01*
X17560921Y56670298D01*
X17607414Y56616642D01*
X17618800Y56564300D01*
X17618800Y56026541D01*
X17616379Y56001961D01*
X17613801Y55989000D01*
X17618800Y55963867D01*
X17618800Y55963863D01*
X17618801Y55963856D01*
X17618802Y55963851D01*
X17625243Y55931474D01*
X17629025Y55912462D01*
X17631554Y55899747D01*
X17634520Y55884833D01*
X17659574Y55847338D01*
X17693526Y55796526D01*
X17703842Y55789633D01*
X17704517Y55789182D01*
X17723611Y55773512D01*
X17945827Y55551295D01*
X17979852Y55488983D01*
X17974787Y55418167D01*
X17932240Y55361332D01*
X17865719Y55336521D01*
X17856731Y55336200D01*
X17008867Y55336200D01*
X16940746Y55356202D01*
X16919772Y55373105D01*
X16756867Y55536010D01*
X16722841Y55598322D01*
X16721513Y55644816D01*
X16733855Y55722741D01*
X16734577Y55727299D01*
X16734700Y55739000D01*
X16714119Y55889246D01*
X16709381Y55900196D01*
X16681829Y55963863D01*
X16653892Y56028422D01*
X16648487Y56035096D01*
X16648485Y56035100D01*
X16563859Y56139603D01*
X16558456Y56146275D01*
X16542743Y56157442D01*
X16441845Y56229146D01*
X16434843Y56234122D01*
X16292160Y56285491D01*
X16283600Y56286120D01*
X16283598Y56286120D01*
X16196788Y56292495D01*
X16140919Y56296598D01*
X15992262Y56266623D01*
X15857142Y56197776D01*
X15850820Y56191963D01*
X15850819Y56191962D01*
X15821869Y56165341D01*
X15745514Y56095129D01*
X15665602Y55966244D01*
X15663205Y55957993D01*
X15663204Y55957991D01*
X15645368Y55896598D01*
X15623294Y55820617D01*
X15623204Y55812029D01*
X15622965Y55789182D01*
X15621706Y55668976D01*
X15660955Y55522495D01*
X15738150Y55391965D01*
X15847604Y55287002D01*
X15855172Y55282944D01*
X15855175Y55282942D01*
X15919631Y55248382D01*
X15981253Y55215341D01*
X16057309Y55198340D01*
X16120864Y55184133D01*
X16120866Y55184133D01*
X16129249Y55182259D01*
X16280690Y55190196D01*
X16280793Y55188232D01*
X16340452Y55182419D01*
X16382493Y55154630D01*
X16630510Y54906613D01*
X16646180Y54887520D01*
X16653526Y54876526D01*
X16663842Y54869633D01*
X16674836Y54862287D01*
X16731515Y54824414D01*
X16731517Y54824413D01*
X16741833Y54817520D01*
X16752788Y54815341D01*
X16758615Y54814182D01*
X16820856Y54801801D01*
X16820861Y54801800D01*
X16820864Y54801800D01*
X16820872Y54801799D01*
X16846000Y54796801D01*
X16858961Y54799379D01*
X16883541Y54801800D01*
X22493133Y54801800D01*
X22561254Y54781798D01*
X22582228Y54764895D01*
X22880510Y54466613D01*
X22896180Y54447520D01*
X22903526Y54436526D01*
X22924836Y54422287D01*
X22991833Y54377520D01*
X23004006Y54375099D01*
X23007671Y54374370D01*
X23007673Y54374369D01*
X23070850Y54361802D01*
X23070858Y54361801D01*
X23070863Y54361800D01*
X23070869Y54361800D01*
X23096000Y54356801D01*
X23108961Y54359379D01*
X23133541Y54361800D01*
X25008459Y54361800D01*
X25033039Y54359379D01*
X25046000Y54356801D01*
X25071131Y54361800D01*
X25071137Y54361800D01*
X25071142Y54361801D01*
X25071150Y54361802D01*
X25134327Y54374369D01*
X25134329Y54374370D01*
X25137996Y54375099D01*
X25137998Y54375100D01*
X25150167Y54377520D01*
X25217164Y54422287D01*
X25238474Y54436526D01*
X25245820Y54447520D01*
X25261488Y54466611D01*
X26048393Y55253515D01*
X26067486Y55269184D01*
X26068158Y55269633D01*
X26078474Y55276526D01*
X26091071Y55295378D01*
X26092711Y55297832D01*
X26092713Y55297835D01*
X26123981Y55344632D01*
X26128318Y55351123D01*
X26137480Y55364834D01*
X26153200Y55443863D01*
X26153200Y55443868D01*
X26158199Y55469000D01*
X26155621Y55481962D01*
X26153200Y55506542D01*
X26153200Y56564300D01*
X26173202Y56632421D01*
X26226858Y56678914D01*
X26279200Y56690300D01*
X26436000Y56690300D01*
X26455622Y56694203D01*
X26503696Y56703765D01*
X26503697Y56703766D01*
X26515866Y56706186D01*
X26527269Y56713805D01*
X26573260Y56744536D01*
X26583573Y56751427D01*
X26628814Y56819134D01*
X26644700Y56899000D01*
X26644700Y59399000D01*
X26628814Y59478866D01*
X26583573Y59546573D01*
X26515866Y59591814D01*
X26503697Y59594234D01*
X26503696Y59594235D01*
X26442068Y59606493D01*
X26436000Y59607700D01*
X25336000Y59607700D01*
X25329932Y59606493D01*
X25268304Y59594235D01*
X25268303Y59594234D01*
X25256134Y59591814D01*
X25188427Y59546573D01*
X25143186Y59478866D01*
X25127300Y59399000D01*
X25127300Y56899000D01*
X25143186Y56819134D01*
X25188427Y56751427D01*
X25198740Y56744536D01*
X25244732Y56713805D01*
X25256134Y56706186D01*
X25268303Y56703766D01*
X25268304Y56703765D01*
X25316378Y56694203D01*
X25336000Y56690300D01*
X25492800Y56690300D01*
X25560921Y56670298D01*
X25607414Y56616642D01*
X25618800Y56564300D01*
X25618800Y55631869D01*
X25598798Y55563748D01*
X25581896Y55542774D01*
X24972228Y54933105D01*
X24909915Y54899080D01*
X24883132Y54896200D01*
X23868322Y54896200D01*
X23800201Y54916202D01*
X23753708Y54969858D01*
X23743604Y55040132D01*
X23753758Y55074651D01*
X23797279Y55169709D01*
X23797279Y55169710D01*
X23800854Y55177518D01*
X23824577Y55327299D01*
X23824700Y55339000D01*
X23804119Y55489246D01*
X23743892Y55628422D01*
X23738487Y55635096D01*
X23738485Y55635100D01*
X23653859Y55739603D01*
X23648456Y55746275D01*
X23524843Y55834122D01*
X23382160Y55885491D01*
X23373600Y55886120D01*
X23373598Y55886120D01*
X23283874Y55892709D01*
X23230919Y55896598D01*
X23082262Y55866623D01*
X22947142Y55797776D01*
X22940820Y55791963D01*
X22940819Y55791962D01*
X22930298Y55782287D01*
X22835514Y55695129D01*
X22830989Y55687831D01*
X22817332Y55665804D01*
X22764436Y55618449D01*
X22710245Y55606200D01*
X18698869Y55606200D01*
X18630748Y55626202D01*
X18609774Y55643104D01*
X18190105Y56062772D01*
X18156080Y56125085D01*
X18153200Y56151868D01*
X18153200Y56564300D01*
X18173202Y56632421D01*
X18226858Y56678914D01*
X18279200Y56690300D01*
X18436000Y56690300D01*
X18455622Y56694203D01*
X18503696Y56703765D01*
X18503697Y56703766D01*
X18515866Y56706186D01*
X18527269Y56713805D01*
X18573260Y56744536D01*
X18583573Y56751427D01*
X18628814Y56819134D01*
X18644700Y56899000D01*
X18644700Y58777657D01*
X18664702Y58845778D01*
X18718358Y58892271D01*
X18788632Y58902375D01*
X18853212Y58872881D01*
X18859795Y58866752D01*
X19090395Y58636152D01*
X19124421Y58573840D01*
X19127300Y58547057D01*
X19127300Y56899000D01*
X19143186Y56819134D01*
X19188427Y56751427D01*
X19198740Y56744536D01*
X19244732Y56713805D01*
X19256134Y56706186D01*
X19268303Y56703766D01*
X19268304Y56703765D01*
X19316378Y56694203D01*
X19336000Y56690300D01*
X20436000Y56690300D01*
X20455622Y56694203D01*
X20503696Y56703765D01*
X20503697Y56703766D01*
X20515866Y56706186D01*
X20527269Y56713805D01*
X20573260Y56744536D01*
X20583573Y56751427D01*
X20628814Y56819134D01*
X20644700Y56899000D01*
X20644700Y59399000D01*
X21127300Y59399000D01*
X21127300Y56899000D01*
X21143186Y56819134D01*
X21188427Y56751427D01*
X21198740Y56744536D01*
X21244732Y56713805D01*
X21256134Y56706186D01*
X21268304Y56703765D01*
X21268307Y56703764D01*
X21271755Y56703078D01*
X21278569Y56699513D01*
X21279770Y56699016D01*
X21279725Y56698908D01*
X21334664Y56670169D01*
X21369795Y56608474D01*
X21373164Y56578182D01*
X21371706Y56438976D01*
X21410955Y56292495D01*
X21488150Y56161965D01*
X21597604Y56057002D01*
X21605172Y56052944D01*
X21605175Y56052942D01*
X21677555Y56014133D01*
X21731253Y55985341D01*
X21814444Y55966745D01*
X21870864Y55954133D01*
X21870866Y55954133D01*
X21879249Y55952259D01*
X22030690Y55960196D01*
X22174418Y56008566D01*
X22183986Y56015068D01*
X22254179Y56062772D01*
X22299843Y56093805D01*
X22305386Y56100364D01*
X22305388Y56100366D01*
X22392183Y56203074D01*
X22392185Y56203077D01*
X22397726Y56209634D01*
X22401300Y56217440D01*
X22404584Y56222615D01*
X22457974Y56269413D01*
X22528189Y56279917D01*
X22594374Y56247883D01*
X22594456Y56247996D01*
X22595087Y56247538D01*
X22598177Y56246042D01*
X22601402Y56242949D01*
X22601404Y56242947D01*
X22607604Y56237002D01*
X22615172Y56232944D01*
X22615175Y56232942D01*
X22688939Y56193391D01*
X22741253Y56165341D01*
X22811520Y56149634D01*
X22880864Y56134133D01*
X22880866Y56134133D01*
X22889249Y56132259D01*
X23040690Y56140196D01*
X23184418Y56188566D01*
X23309843Y56273805D01*
X23315386Y56280364D01*
X23315388Y56280366D01*
X23376691Y56352909D01*
X23407726Y56389634D01*
X23430317Y56438976D01*
X23467279Y56519709D01*
X23467279Y56519710D01*
X23470854Y56527518D01*
X23479802Y56584012D01*
X23510215Y56648164D01*
X23570483Y56685691D01*
X23604251Y56690300D01*
X24436000Y56690300D01*
X24455622Y56694203D01*
X24503696Y56703765D01*
X24503697Y56703766D01*
X24515866Y56706186D01*
X24527269Y56713805D01*
X24573260Y56744536D01*
X24583573Y56751427D01*
X24628814Y56819134D01*
X24644700Y56899000D01*
X24644700Y59399000D01*
X24628814Y59478866D01*
X24583573Y59546573D01*
X24515866Y59591814D01*
X24503697Y59594234D01*
X24503696Y59594235D01*
X24442068Y59606493D01*
X24436000Y59607700D01*
X23336000Y59607700D01*
X23329932Y59606493D01*
X23268304Y59594235D01*
X23268303Y59594234D01*
X23256134Y59591814D01*
X23188427Y59546573D01*
X23143186Y59478866D01*
X23127300Y59399000D01*
X23127300Y57365566D01*
X23107298Y57297445D01*
X23053642Y57250952D01*
X22992072Y57239904D01*
X22942722Y57243528D01*
X22900919Y57246598D01*
X22845835Y57235491D01*
X22795605Y57225363D01*
X22724874Y57231506D01*
X22668693Y57274913D01*
X22644700Y57348877D01*
X22644700Y59399000D01*
X22628814Y59478866D01*
X22583573Y59546573D01*
X22515866Y59591814D01*
X22503697Y59594234D01*
X22503696Y59594235D01*
X22442068Y59606493D01*
X22436000Y59607700D01*
X21336000Y59607700D01*
X21329932Y59606493D01*
X21268304Y59594235D01*
X21268303Y59594234D01*
X21256134Y59591814D01*
X21188427Y59546573D01*
X21143186Y59478866D01*
X21127300Y59399000D01*
X20644700Y59399000D01*
X20628814Y59478866D01*
X20583573Y59546573D01*
X20515866Y59591814D01*
X20503697Y59594234D01*
X20503696Y59594235D01*
X20442068Y59606493D01*
X20436000Y59607700D01*
X19336000Y59607700D01*
X19329932Y59606493D01*
X19268304Y59594235D01*
X19268303Y59594234D01*
X19256134Y59591814D01*
X19188427Y59546573D01*
X19181536Y59536260D01*
X19181533Y59536257D01*
X19172504Y59522745D01*
X19118026Y59477219D01*
X19047583Y59468373D01*
X18978646Y59503655D01*
X18660914Y59821387D01*
X18645244Y59840480D01*
X18644791Y59841158D01*
X18637898Y59851474D01*
X18627581Y59858368D01*
X18616308Y59865900D01*
X18559910Y59903585D01*
X18549591Y59910480D01*
X18537422Y59912900D01*
X18537420Y59912901D01*
X18533753Y59913630D01*
X18533751Y59913631D01*
X18470574Y59926198D01*
X18470566Y59926199D01*
X18470561Y59926200D01*
X18470555Y59926200D01*
X18445424Y59931199D01*
X18433252Y59928778D01*
X18432463Y59928621D01*
X18407883Y59926200D01*
X15364119Y59926200D01*
X15339539Y59928621D01*
X15338750Y59928778D01*
X15326578Y59931199D01*
X15301447Y59926200D01*
X15301441Y59926200D01*
X15301436Y59926199D01*
X15301428Y59926198D01*
X15238251Y59913631D01*
X15238249Y59913630D01*
X15222411Y59910480D01*
X15212092Y59903585D01*
X15212090Y59903584D01*
X15155414Y59865714D01*
X15155410Y59865711D01*
X15144421Y59858368D01*
X15144420Y59858367D01*
X15134104Y59851474D01*
X15127211Y59841158D01*
X15126760Y59840483D01*
X15111090Y59821390D01*
X14793354Y59503654D01*
X14731042Y59469628D01*
X14660227Y59474693D01*
X14599494Y59522746D01*
X14590464Y59536260D01*
X14583573Y59546573D01*
X14515866Y59591814D01*
X14503697Y59594234D01*
X14503696Y59594235D01*
X14442068Y59606493D01*
X14436000Y59607700D01*
X13336000Y59607700D01*
X13329932Y59606493D01*
X13268304Y59594235D01*
X13268303Y59594234D01*
X13256134Y59591814D01*
X13188427Y59546573D01*
X13143186Y59478866D01*
X13140766Y59466697D01*
X13140765Y59466696D01*
X13133658Y59430964D01*
X13100751Y59368054D01*
X13039057Y59332921D01*
X12968162Y59336721D01*
X12910575Y59378246D01*
X12889183Y59420045D01*
X12886000Y59430885D01*
X12886000Y59449000D01*
X5262000Y59449000D01*
X5193879Y59469002D01*
X5147386Y59522658D01*
X5136000Y59575000D01*
X5136000Y61566577D01*
X9554255Y61566577D01*
X9562638Y61514529D01*
X9565212Y61504207D01*
X9636230Y61296190D01*
X9640497Y61286467D01*
X9745556Y61093375D01*
X9751402Y61084509D01*
X9887486Y60911887D01*
X9894750Y60904125D01*
X10057967Y60756906D01*
X10066444Y60750472D01*
X10252122Y60632864D01*
X10261567Y60627947D01*
X10464406Y60543306D01*
X10474545Y60540050D01*
X10614345Y60507904D01*
X10628422Y60508743D01*
X10632000Y60518001D01*
X10632000Y61566885D01*
X10627525Y61582124D01*
X10626135Y61583329D01*
X10618452Y61585000D01*
X9569403Y61585000D01*
X9556222Y61581130D01*
X9554255Y61566577D01*
X5136000Y61566577D01*
X5136000Y62110826D01*
X9555008Y62110826D01*
X9556427Y62097586D01*
X9571062Y62093000D01*
X11014000Y62093000D01*
X11082121Y62072998D01*
X11128614Y62019342D01*
X11140000Y61967000D01*
X11140000Y60519059D01*
X11144151Y60504921D01*
X11154798Y60503226D01*
X11158192Y60503904D01*
X11369333Y60565046D01*
X11379259Y60568857D01*
X11577065Y60664693D01*
X11586212Y60670124D01*
X11765041Y60797917D01*
X11773149Y60804818D01*
X11927893Y60960918D01*
X11934706Y60969067D01*
X12060940Y61149012D01*
X12066295Y61158213D01*
X12160399Y61356844D01*
X12164123Y61366803D01*
X12193037Y61470012D01*
X12230674Y61530212D01*
X12294883Y61560507D01*
X12365277Y61551278D01*
X12419508Y61505457D01*
X12435485Y61470752D01*
X12441646Y61449267D01*
X12536092Y61265494D01*
X12664435Y61103565D01*
X12669122Y61099576D01*
X12669125Y61099573D01*
X12810909Y60978906D01*
X12821786Y60969649D01*
X12827164Y60966643D01*
X12827166Y60966642D01*
X12858901Y60948906D01*
X13002150Y60868847D01*
X13198660Y60804997D01*
X13403828Y60780532D01*
X13409963Y60781004D01*
X13409965Y60781004D01*
X13603699Y60795911D01*
X13603703Y60795912D01*
X13609841Y60796384D01*
X13808852Y60851949D01*
X13814356Y60854729D01*
X13814358Y60854730D01*
X13987779Y60942331D01*
X13987781Y60942332D01*
X13993280Y60945110D01*
X14156100Y61072319D01*
X14174275Y61093375D01*
X14287082Y61224063D01*
X14287083Y61224065D01*
X14291111Y61228731D01*
X14393171Y61408388D01*
X14458391Y61604447D01*
X14484287Y61809439D01*
X14484700Y61839000D01*
X14483251Y61853782D01*
X14907403Y61853782D01*
X14907919Y61847638D01*
X14922174Y61677884D01*
X14924693Y61647884D01*
X14981646Y61449267D01*
X15076092Y61265494D01*
X15204435Y61103565D01*
X15209122Y61099576D01*
X15209125Y61099573D01*
X15350909Y60978906D01*
X15361786Y60969649D01*
X15367164Y60966643D01*
X15367166Y60966642D01*
X15398901Y60948906D01*
X15542150Y60868847D01*
X15738660Y60804997D01*
X15943828Y60780532D01*
X15949963Y60781004D01*
X15949965Y60781004D01*
X16143699Y60795911D01*
X16143703Y60795912D01*
X16149841Y60796384D01*
X16348852Y60851949D01*
X16354356Y60854729D01*
X16354358Y60854730D01*
X16527779Y60942331D01*
X16527781Y60942332D01*
X16533280Y60945110D01*
X16696100Y61072319D01*
X16714275Y61093375D01*
X16827082Y61224063D01*
X16827083Y61224065D01*
X16831111Y61228731D01*
X16933171Y61408388D01*
X16998391Y61604447D01*
X17024287Y61809439D01*
X17024700Y61839000D01*
X17023251Y61853782D01*
X17447403Y61853782D01*
X17447919Y61847638D01*
X17462174Y61677884D01*
X17464693Y61647884D01*
X17521646Y61449267D01*
X17616092Y61265494D01*
X17744435Y61103565D01*
X17749122Y61099576D01*
X17749125Y61099573D01*
X17890909Y60978906D01*
X17901786Y60969649D01*
X17907164Y60966643D01*
X17907166Y60966642D01*
X17938901Y60948906D01*
X18082150Y60868847D01*
X18278660Y60804997D01*
X18483828Y60780532D01*
X18489963Y60781004D01*
X18489965Y60781004D01*
X18683699Y60795911D01*
X18683703Y60795912D01*
X18689841Y60796384D01*
X18888852Y60851949D01*
X18894356Y60854729D01*
X18894358Y60854730D01*
X19067779Y60942331D01*
X19067781Y60942332D01*
X19073280Y60945110D01*
X19236100Y61072319D01*
X19254275Y61093375D01*
X19367082Y61224063D01*
X19367083Y61224065D01*
X19371111Y61228731D01*
X19473171Y61408388D01*
X19538391Y61604447D01*
X19564287Y61809439D01*
X19564700Y61839000D01*
X19544537Y62044636D01*
X19537332Y62068502D01*
X19505640Y62173468D01*
X19484817Y62242439D01*
X19387814Y62424876D01*
X19296932Y62536308D01*
X19261118Y62580221D01*
X19261115Y62580224D01*
X19257223Y62584996D01*
X19252474Y62588925D01*
X19131505Y62689000D01*
X19987300Y62689000D01*
X19987300Y60989000D01*
X19988507Y60982932D01*
X19999271Y60928818D01*
X20003186Y60909134D01*
X20048427Y60841427D01*
X20116134Y60796186D01*
X20128303Y60793766D01*
X20128304Y60793765D01*
X20184963Y60782495D01*
X20196000Y60780300D01*
X21896000Y60780300D01*
X21907037Y60782495D01*
X21963696Y60793765D01*
X21963697Y60793766D01*
X21975866Y60796186D01*
X22043573Y60841427D01*
X22088814Y60909134D01*
X22092730Y60928818D01*
X22103493Y60982932D01*
X22104700Y60989000D01*
X22104700Y61596577D01*
X30964255Y61596577D01*
X30972638Y61544529D01*
X30975212Y61534207D01*
X31046230Y61326190D01*
X31050497Y61316467D01*
X31155556Y61123375D01*
X31161402Y61114509D01*
X31297486Y60941887D01*
X31304750Y60934125D01*
X31467967Y60786906D01*
X31476444Y60780472D01*
X31662122Y60662864D01*
X31671567Y60657947D01*
X31874406Y60573306D01*
X31884545Y60570050D01*
X32024345Y60537904D01*
X32038422Y60538743D01*
X32042000Y60548001D01*
X32042000Y61596885D01*
X32037525Y61612124D01*
X32036135Y61613329D01*
X32028452Y61615000D01*
X30979403Y61615000D01*
X30966222Y61611130D01*
X30964255Y61596577D01*
X22104700Y61596577D01*
X22104700Y62140826D01*
X30965008Y62140826D01*
X30966427Y62127586D01*
X30981062Y62123000D01*
X32424000Y62123000D01*
X32492121Y62102998D01*
X32538614Y62049342D01*
X32550000Y61997000D01*
X32550000Y60549059D01*
X32554151Y60534921D01*
X32564798Y60533226D01*
X32568192Y60533904D01*
X32779333Y60595046D01*
X32789259Y60598857D01*
X32987065Y60694693D01*
X32996212Y60700124D01*
X33175041Y60827917D01*
X33183149Y60834818D01*
X33337893Y60990918D01*
X33344706Y60999067D01*
X33470940Y61179012D01*
X33476295Y61188213D01*
X33570399Y61386844D01*
X33574123Y61396803D01*
X33603037Y61500012D01*
X33640674Y61560212D01*
X33704883Y61590507D01*
X33775277Y61581278D01*
X33829508Y61535457D01*
X33845485Y61500752D01*
X33851646Y61479267D01*
X33946092Y61295494D01*
X34074435Y61133565D01*
X34079122Y61129576D01*
X34079125Y61129573D01*
X34227094Y61003642D01*
X34231786Y60999649D01*
X34237164Y60996643D01*
X34237166Y60996642D01*
X34268901Y60978906D01*
X34412150Y60898847D01*
X34608660Y60834997D01*
X34813828Y60810532D01*
X34819963Y60811004D01*
X34819965Y60811004D01*
X35013699Y60825911D01*
X35013703Y60825912D01*
X35019841Y60826384D01*
X35218852Y60881949D01*
X35224356Y60884729D01*
X35224358Y60884730D01*
X35397779Y60972331D01*
X35397781Y60972332D01*
X35403280Y60975110D01*
X35566100Y61102319D01*
X35606404Y61149012D01*
X35697082Y61254063D01*
X35697083Y61254065D01*
X35701111Y61258731D01*
X35803171Y61438388D01*
X35868391Y61634447D01*
X35894287Y61839439D01*
X35894700Y61869000D01*
X35893251Y61883782D01*
X36317403Y61883782D01*
X36317919Y61877638D01*
X36321164Y61839000D01*
X36334693Y61677884D01*
X36391646Y61479267D01*
X36486092Y61295494D01*
X36614435Y61133565D01*
X36619122Y61129576D01*
X36619125Y61129573D01*
X36767094Y61003642D01*
X36771786Y60999649D01*
X36777164Y60996643D01*
X36777166Y60996642D01*
X36808901Y60978906D01*
X36952150Y60898847D01*
X37148660Y60834997D01*
X37353828Y60810532D01*
X37359963Y60811004D01*
X37359965Y60811004D01*
X37553699Y60825911D01*
X37553703Y60825912D01*
X37559841Y60826384D01*
X37758852Y60881949D01*
X37764356Y60884729D01*
X37764358Y60884730D01*
X37937779Y60972331D01*
X37937781Y60972332D01*
X37943280Y60975110D01*
X38106100Y61102319D01*
X38146404Y61149012D01*
X38237082Y61254063D01*
X38237083Y61254065D01*
X38241111Y61258731D01*
X38343171Y61438388D01*
X38408391Y61634447D01*
X38434287Y61839439D01*
X38434700Y61869000D01*
X38433251Y61883782D01*
X38857403Y61883782D01*
X38857919Y61877638D01*
X38861164Y61839000D01*
X38874693Y61677884D01*
X38931646Y61479267D01*
X39026092Y61295494D01*
X39154435Y61133565D01*
X39159122Y61129576D01*
X39159125Y61129573D01*
X39307094Y61003642D01*
X39311786Y60999649D01*
X39317164Y60996643D01*
X39317166Y60996642D01*
X39348901Y60978906D01*
X39492150Y60898847D01*
X39688660Y60834997D01*
X39893828Y60810532D01*
X39899963Y60811004D01*
X39899965Y60811004D01*
X40093699Y60825911D01*
X40093703Y60825912D01*
X40099841Y60826384D01*
X40298852Y60881949D01*
X40304356Y60884729D01*
X40304358Y60884730D01*
X40477779Y60972331D01*
X40477781Y60972332D01*
X40483280Y60975110D01*
X40646100Y61102319D01*
X40686404Y61149012D01*
X40777082Y61254063D01*
X40777083Y61254065D01*
X40781111Y61258731D01*
X40883171Y61438388D01*
X40948391Y61634447D01*
X40974287Y61839439D01*
X40974700Y61869000D01*
X40954537Y62074636D01*
X40894817Y62272439D01*
X40797814Y62454876D01*
X40695585Y62580221D01*
X40671118Y62610221D01*
X40671115Y62610224D01*
X40667223Y62614996D01*
X40662474Y62618925D01*
X40541505Y62719000D01*
X41397300Y62719000D01*
X41397300Y61019000D01*
X41413186Y60939134D01*
X41458427Y60871427D01*
X41468740Y60864536D01*
X41513638Y60834536D01*
X41526134Y60826186D01*
X41538303Y60823766D01*
X41538304Y60823765D01*
X41594963Y60812495D01*
X41606000Y60810300D01*
X43306000Y60810300D01*
X43317037Y60812495D01*
X43373696Y60823765D01*
X43373697Y60823766D01*
X43385866Y60826186D01*
X43398363Y60834536D01*
X43443260Y60864536D01*
X43453573Y60871427D01*
X43498814Y60939134D01*
X43514700Y61019000D01*
X43514700Y62719000D01*
X43507202Y62756696D01*
X43501235Y62786696D01*
X43501234Y62786697D01*
X43498814Y62798866D01*
X43453573Y62866573D01*
X43385866Y62911814D01*
X43373697Y62914234D01*
X43373696Y62914235D01*
X43312068Y62926493D01*
X43306000Y62927700D01*
X41606000Y62927700D01*
X41599932Y62926493D01*
X41538304Y62914235D01*
X41538303Y62914234D01*
X41526134Y62911814D01*
X41458427Y62866573D01*
X41413186Y62798866D01*
X41410766Y62786697D01*
X41410765Y62786696D01*
X41404798Y62756696D01*
X41397300Y62719000D01*
X40541505Y62719000D01*
X40512768Y62742773D01*
X40512764Y62742775D01*
X40508018Y62746702D01*
X40326263Y62844977D01*
X40193834Y62885970D01*
X40134768Y62904254D01*
X40134765Y62904255D01*
X40128881Y62906076D01*
X40122756Y62906720D01*
X40122755Y62906720D01*
X39929519Y62927030D01*
X39929518Y62927030D01*
X39923391Y62927674D01*
X39847291Y62920749D01*
X39723757Y62909507D01*
X39723753Y62909506D01*
X39717619Y62908948D01*
X39519404Y62850610D01*
X39336295Y62754882D01*
X39331494Y62751022D01*
X39331491Y62751020D01*
X39199803Y62645140D01*
X39175266Y62625412D01*
X39042452Y62467131D01*
X39039484Y62461733D01*
X39039481Y62461728D01*
X38965195Y62326601D01*
X38942911Y62286066D01*
X38880435Y62089116D01*
X38879749Y62082999D01*
X38879748Y62082995D01*
X38870102Y61997000D01*
X38857403Y61883782D01*
X38433251Y61883782D01*
X38414537Y62074636D01*
X38354817Y62272439D01*
X38257814Y62454876D01*
X38155585Y62580221D01*
X38131118Y62610221D01*
X38131115Y62610224D01*
X38127223Y62614996D01*
X38122474Y62618925D01*
X37972768Y62742773D01*
X37972764Y62742775D01*
X37968018Y62746702D01*
X37786263Y62844977D01*
X37653834Y62885970D01*
X37594768Y62904254D01*
X37594765Y62904255D01*
X37588881Y62906076D01*
X37582756Y62906720D01*
X37582755Y62906720D01*
X37389519Y62927030D01*
X37389518Y62927030D01*
X37383391Y62927674D01*
X37307291Y62920749D01*
X37183757Y62909507D01*
X37183753Y62909506D01*
X37177619Y62908948D01*
X36979404Y62850610D01*
X36796295Y62754882D01*
X36791494Y62751022D01*
X36791491Y62751020D01*
X36659803Y62645140D01*
X36635266Y62625412D01*
X36502452Y62467131D01*
X36499484Y62461733D01*
X36499481Y62461728D01*
X36425195Y62326601D01*
X36402911Y62286066D01*
X36340435Y62089116D01*
X36339749Y62082999D01*
X36339748Y62082995D01*
X36330102Y61997000D01*
X36317403Y61883782D01*
X35893251Y61883782D01*
X35874537Y62074636D01*
X35814817Y62272439D01*
X35717814Y62454876D01*
X35615585Y62580221D01*
X35591118Y62610221D01*
X35591115Y62610224D01*
X35587223Y62614996D01*
X35582474Y62618925D01*
X35432768Y62742773D01*
X35432764Y62742775D01*
X35428018Y62746702D01*
X35246263Y62844977D01*
X35113834Y62885970D01*
X35054768Y62904254D01*
X35054765Y62904255D01*
X35048881Y62906076D01*
X35042756Y62906720D01*
X35042755Y62906720D01*
X34849519Y62927030D01*
X34849518Y62927030D01*
X34843391Y62927674D01*
X34767291Y62920749D01*
X34643757Y62909507D01*
X34643753Y62909506D01*
X34637619Y62908948D01*
X34439404Y62850610D01*
X34256295Y62754882D01*
X34251494Y62751022D01*
X34251491Y62751020D01*
X34119803Y62645140D01*
X34095266Y62625412D01*
X33962452Y62467131D01*
X33959484Y62461733D01*
X33959481Y62461728D01*
X33885195Y62326601D01*
X33862911Y62286066D01*
X33851532Y62250193D01*
X33845503Y62231188D01*
X33805840Y62172304D01*
X33740638Y62144211D01*
X33670598Y62155828D01*
X33617958Y62203468D01*
X33603442Y62237631D01*
X33582952Y62316573D01*
X33579420Y62326601D01*
X33489147Y62527002D01*
X33483967Y62536308D01*
X33361218Y62718634D01*
X33354557Y62726920D01*
X33202830Y62885970D01*
X33194873Y62893010D01*
X33018523Y63024218D01*
X33009486Y63029822D01*
X32813550Y63129441D01*
X32803699Y63133441D01*
X32663551Y63176958D01*
X32604426Y63216261D01*
X32575935Y63281291D01*
X32587125Y63351400D01*
X32634442Y63404330D01*
X32667029Y63418648D01*
X32678852Y63421949D01*
X32684356Y63424729D01*
X32684358Y63424730D01*
X32857779Y63512331D01*
X32857781Y63512332D01*
X32863280Y63515110D01*
X33026100Y63642319D01*
X33057240Y63678395D01*
X33157082Y63794063D01*
X33157083Y63794065D01*
X33161111Y63798731D01*
X33263171Y63978388D01*
X33328391Y64174447D01*
X33354287Y64379439D01*
X33354700Y64409000D01*
X33353251Y64423782D01*
X33777403Y64423782D01*
X33777919Y64417638D01*
X33788322Y64293759D01*
X33794693Y64217884D01*
X33851646Y64019267D01*
X33946092Y63835494D01*
X34074435Y63673565D01*
X34079122Y63669576D01*
X34079125Y63669573D01*
X34224208Y63546098D01*
X34231786Y63539649D01*
X34412150Y63438847D01*
X34608660Y63374997D01*
X34813828Y63350532D01*
X34819963Y63351004D01*
X34819965Y63351004D01*
X35013699Y63365911D01*
X35013703Y63365912D01*
X35019841Y63366384D01*
X35218852Y63421949D01*
X35224356Y63424729D01*
X35224358Y63424730D01*
X35397779Y63512331D01*
X35397781Y63512332D01*
X35403280Y63515110D01*
X35566100Y63642319D01*
X35597240Y63678395D01*
X35697082Y63794063D01*
X35697083Y63794065D01*
X35701111Y63798731D01*
X35803171Y63978388D01*
X35868391Y64174447D01*
X35894287Y64379439D01*
X35894700Y64409000D01*
X35893251Y64423782D01*
X36317403Y64423782D01*
X36317919Y64417638D01*
X36328322Y64293759D01*
X36334693Y64217884D01*
X36391646Y64019267D01*
X36486092Y63835494D01*
X36614435Y63673565D01*
X36619122Y63669576D01*
X36619125Y63669573D01*
X36764208Y63546098D01*
X36771786Y63539649D01*
X36952150Y63438847D01*
X37148660Y63374997D01*
X37353828Y63350532D01*
X37359963Y63351004D01*
X37359965Y63351004D01*
X37553699Y63365911D01*
X37553703Y63365912D01*
X37559841Y63366384D01*
X37758852Y63421949D01*
X37764356Y63424729D01*
X37764358Y63424730D01*
X37937779Y63512331D01*
X37937781Y63512332D01*
X37943280Y63515110D01*
X38106100Y63642319D01*
X38137240Y63678395D01*
X38237082Y63794063D01*
X38237083Y63794065D01*
X38241111Y63798731D01*
X38343171Y63978388D01*
X38408391Y64174447D01*
X38434287Y64379439D01*
X38434700Y64409000D01*
X38433251Y64423782D01*
X38857403Y64423782D01*
X38857919Y64417638D01*
X38868322Y64293759D01*
X38874693Y64217884D01*
X38931646Y64019267D01*
X39026092Y63835494D01*
X39154435Y63673565D01*
X39159122Y63669576D01*
X39159125Y63669573D01*
X39304208Y63546098D01*
X39311786Y63539649D01*
X39492150Y63438847D01*
X39688660Y63374997D01*
X39893828Y63350532D01*
X39899963Y63351004D01*
X39899965Y63351004D01*
X40093699Y63365911D01*
X40093703Y63365912D01*
X40099841Y63366384D01*
X40298852Y63421949D01*
X40304356Y63424729D01*
X40304358Y63424730D01*
X40477779Y63512331D01*
X40477781Y63512332D01*
X40483280Y63515110D01*
X40646100Y63642319D01*
X40677240Y63678395D01*
X40777082Y63794063D01*
X40777083Y63794065D01*
X40781111Y63798731D01*
X40883171Y63978388D01*
X40948391Y64174447D01*
X40974287Y64379439D01*
X40974700Y64409000D01*
X40973251Y64423782D01*
X41397403Y64423782D01*
X41397919Y64417638D01*
X41408322Y64293759D01*
X41414693Y64217884D01*
X41471646Y64019267D01*
X41566092Y63835494D01*
X41694435Y63673565D01*
X41699122Y63669576D01*
X41699125Y63669573D01*
X41844208Y63546098D01*
X41851786Y63539649D01*
X42032150Y63438847D01*
X42228660Y63374997D01*
X42433828Y63350532D01*
X42439963Y63351004D01*
X42439965Y63351004D01*
X42633699Y63365911D01*
X42633703Y63365912D01*
X42639841Y63366384D01*
X42838852Y63421949D01*
X42844356Y63424729D01*
X42844358Y63424730D01*
X43017779Y63512331D01*
X43017781Y63512332D01*
X43023280Y63515110D01*
X43186100Y63642319D01*
X43217240Y63678395D01*
X43317082Y63794063D01*
X43317083Y63794065D01*
X43321111Y63798731D01*
X43423171Y63978388D01*
X43488391Y64174447D01*
X43514287Y64379439D01*
X43514700Y64409000D01*
X43494537Y64614636D01*
X43434817Y64812439D01*
X43337814Y64994876D01*
X43235585Y65120221D01*
X43211118Y65150221D01*
X43211115Y65150224D01*
X43207223Y65154996D01*
X43202474Y65158925D01*
X43052768Y65282773D01*
X43052764Y65282775D01*
X43048018Y65286702D01*
X42866263Y65384977D01*
X42731537Y65426681D01*
X42674768Y65444254D01*
X42674765Y65444255D01*
X42668881Y65446076D01*
X42662756Y65446720D01*
X42662755Y65446720D01*
X42469519Y65467030D01*
X42469518Y65467030D01*
X42463391Y65467674D01*
X42387291Y65460749D01*
X42263757Y65449507D01*
X42263753Y65449506D01*
X42257619Y65448948D01*
X42059404Y65390610D01*
X41876295Y65294882D01*
X41871494Y65291022D01*
X41871491Y65291020D01*
X41720073Y65169277D01*
X41715266Y65165412D01*
X41582452Y65007131D01*
X41579484Y65001733D01*
X41579481Y65001728D01*
X41559222Y64964876D01*
X41482911Y64826066D01*
X41420435Y64629116D01*
X41419749Y64622999D01*
X41419748Y64622995D01*
X41412457Y64557995D01*
X41397403Y64423782D01*
X40973251Y64423782D01*
X40954537Y64614636D01*
X40894817Y64812439D01*
X40797814Y64994876D01*
X40695585Y65120221D01*
X40671118Y65150221D01*
X40671115Y65150224D01*
X40667223Y65154996D01*
X40662474Y65158925D01*
X40512768Y65282773D01*
X40512764Y65282775D01*
X40508018Y65286702D01*
X40326263Y65384977D01*
X40191537Y65426681D01*
X40134768Y65444254D01*
X40134765Y65444255D01*
X40128881Y65446076D01*
X40122756Y65446720D01*
X40122755Y65446720D01*
X39929519Y65467030D01*
X39929518Y65467030D01*
X39923391Y65467674D01*
X39847291Y65460749D01*
X39723757Y65449507D01*
X39723753Y65449506D01*
X39717619Y65448948D01*
X39519404Y65390610D01*
X39336295Y65294882D01*
X39331494Y65291022D01*
X39331491Y65291020D01*
X39180073Y65169277D01*
X39175266Y65165412D01*
X39042452Y65007131D01*
X39039484Y65001733D01*
X39039481Y65001728D01*
X39019222Y64964876D01*
X38942911Y64826066D01*
X38880435Y64629116D01*
X38879749Y64622999D01*
X38879748Y64622995D01*
X38872457Y64557995D01*
X38857403Y64423782D01*
X38433251Y64423782D01*
X38414537Y64614636D01*
X38354817Y64812439D01*
X38257814Y64994876D01*
X38155585Y65120221D01*
X38131118Y65150221D01*
X38131115Y65150224D01*
X38127223Y65154996D01*
X38122474Y65158925D01*
X37972768Y65282773D01*
X37972764Y65282775D01*
X37968018Y65286702D01*
X37786263Y65384977D01*
X37651537Y65426681D01*
X37594768Y65444254D01*
X37594765Y65444255D01*
X37588881Y65446076D01*
X37582756Y65446720D01*
X37582755Y65446720D01*
X37389519Y65467030D01*
X37389518Y65467030D01*
X37383391Y65467674D01*
X37307291Y65460749D01*
X37183757Y65449507D01*
X37183753Y65449506D01*
X37177619Y65448948D01*
X36979404Y65390610D01*
X36796295Y65294882D01*
X36791494Y65291022D01*
X36791491Y65291020D01*
X36640073Y65169277D01*
X36635266Y65165412D01*
X36502452Y65007131D01*
X36499484Y65001733D01*
X36499481Y65001728D01*
X36479222Y64964876D01*
X36402911Y64826066D01*
X36340435Y64629116D01*
X36339749Y64622999D01*
X36339748Y64622995D01*
X36332457Y64557995D01*
X36317403Y64423782D01*
X35893251Y64423782D01*
X35874537Y64614636D01*
X35814817Y64812439D01*
X35717814Y64994876D01*
X35615585Y65120221D01*
X35591118Y65150221D01*
X35591115Y65150224D01*
X35587223Y65154996D01*
X35582474Y65158925D01*
X35432768Y65282773D01*
X35432764Y65282775D01*
X35428018Y65286702D01*
X35246263Y65384977D01*
X35111537Y65426681D01*
X35054768Y65444254D01*
X35054765Y65444255D01*
X35048881Y65446076D01*
X35042756Y65446720D01*
X35042755Y65446720D01*
X34849519Y65467030D01*
X34849518Y65467030D01*
X34843391Y65467674D01*
X34767291Y65460749D01*
X34643757Y65449507D01*
X34643753Y65449506D01*
X34637619Y65448948D01*
X34439404Y65390610D01*
X34256295Y65294882D01*
X34251494Y65291022D01*
X34251491Y65291020D01*
X34100073Y65169277D01*
X34095266Y65165412D01*
X33962452Y65007131D01*
X33959484Y65001733D01*
X33959481Y65001728D01*
X33939222Y64964876D01*
X33862911Y64826066D01*
X33800435Y64629116D01*
X33799749Y64622999D01*
X33799748Y64622995D01*
X33792457Y64557995D01*
X33777403Y64423782D01*
X33353251Y64423782D01*
X33334537Y64614636D01*
X33274817Y64812439D01*
X33177814Y64994876D01*
X33075585Y65120221D01*
X33051118Y65150221D01*
X33051115Y65150224D01*
X33047223Y65154996D01*
X33042474Y65158925D01*
X32892768Y65282773D01*
X32892764Y65282775D01*
X32888018Y65286702D01*
X32706263Y65384977D01*
X32571537Y65426681D01*
X32514768Y65444254D01*
X32514765Y65444255D01*
X32508881Y65446076D01*
X32502756Y65446720D01*
X32502755Y65446720D01*
X32309519Y65467030D01*
X32309518Y65467030D01*
X32303391Y65467674D01*
X32227291Y65460749D01*
X32103757Y65449507D01*
X32103753Y65449506D01*
X32097619Y65448948D01*
X31899404Y65390610D01*
X31716295Y65294882D01*
X31711494Y65291022D01*
X31711491Y65291020D01*
X31560073Y65169277D01*
X31555266Y65165412D01*
X31422452Y65007131D01*
X31419484Y65001733D01*
X31419481Y65001728D01*
X31399222Y64964876D01*
X31322911Y64826066D01*
X31260435Y64629116D01*
X31259749Y64622999D01*
X31259748Y64622995D01*
X31252457Y64557995D01*
X31237403Y64423782D01*
X31237919Y64417638D01*
X31248322Y64293759D01*
X31254693Y64217884D01*
X31311646Y64019267D01*
X31406092Y63835494D01*
X31534435Y63673565D01*
X31539122Y63669576D01*
X31539125Y63669573D01*
X31684208Y63546098D01*
X31691786Y63539649D01*
X31872150Y63438847D01*
X31929523Y63420205D01*
X31988127Y63380133D01*
X32015765Y63314736D01*
X32003658Y63244780D01*
X31955653Y63192473D01*
X31916464Y63177059D01*
X31909558Y63175610D01*
X31899358Y63172549D01*
X31694932Y63091818D01*
X31685396Y63087084D01*
X31497486Y62973058D01*
X31488896Y62966794D01*
X31322884Y62822736D01*
X31315464Y62815105D01*
X31176100Y62645140D01*
X31170075Y62636373D01*
X31061342Y62445356D01*
X31056877Y62435692D01*
X30981882Y62229084D01*
X30979111Y62218816D01*
X30965008Y62140826D01*
X22104700Y62140826D01*
X22104700Y62689000D01*
X22097526Y62725068D01*
X22091235Y62756696D01*
X22091234Y62756697D01*
X22088814Y62768866D01*
X22043573Y62836573D01*
X21998675Y62866573D01*
X21986182Y62874921D01*
X21975866Y62881814D01*
X21963697Y62884234D01*
X21963696Y62884235D01*
X21902068Y62896493D01*
X21896000Y62897700D01*
X20196000Y62897700D01*
X20189932Y62896493D01*
X20128304Y62884235D01*
X20128303Y62884234D01*
X20116134Y62881814D01*
X20105818Y62874921D01*
X20093325Y62866573D01*
X20048427Y62836573D01*
X20003186Y62768866D01*
X20000766Y62756697D01*
X20000765Y62756696D01*
X19994474Y62725068D01*
X19987300Y62689000D01*
X19131505Y62689000D01*
X19102768Y62712773D01*
X19102764Y62712775D01*
X19098018Y62716702D01*
X18916263Y62814977D01*
X18801150Y62850610D01*
X18724768Y62874254D01*
X18724765Y62874255D01*
X18718881Y62876076D01*
X18712756Y62876720D01*
X18712755Y62876720D01*
X18519519Y62897030D01*
X18519518Y62897030D01*
X18513391Y62897674D01*
X18437291Y62890749D01*
X18313757Y62879507D01*
X18313753Y62879506D01*
X18307619Y62878948D01*
X18109404Y62820610D01*
X17926295Y62724882D01*
X17921494Y62721022D01*
X17921491Y62721020D01*
X17796698Y62620684D01*
X17765266Y62595412D01*
X17632452Y62437131D01*
X17629484Y62431733D01*
X17629481Y62431728D01*
X17546175Y62280193D01*
X17532911Y62256066D01*
X17470435Y62059116D01*
X17469749Y62052999D01*
X17469748Y62052995D01*
X17460102Y61967000D01*
X17447403Y61853782D01*
X17023251Y61853782D01*
X17004537Y62044636D01*
X16997332Y62068502D01*
X16965640Y62173468D01*
X16944817Y62242439D01*
X16847814Y62424876D01*
X16756932Y62536308D01*
X16721118Y62580221D01*
X16721115Y62580224D01*
X16717223Y62584996D01*
X16712474Y62588925D01*
X16562768Y62712773D01*
X16562764Y62712775D01*
X16558018Y62716702D01*
X16376263Y62814977D01*
X16261150Y62850610D01*
X16184768Y62874254D01*
X16184765Y62874255D01*
X16178881Y62876076D01*
X16172756Y62876720D01*
X16172755Y62876720D01*
X15979519Y62897030D01*
X15979518Y62897030D01*
X15973391Y62897674D01*
X15897291Y62890749D01*
X15773757Y62879507D01*
X15773753Y62879506D01*
X15767619Y62878948D01*
X15569404Y62820610D01*
X15386295Y62724882D01*
X15381494Y62721022D01*
X15381491Y62721020D01*
X15256698Y62620684D01*
X15225266Y62595412D01*
X15092452Y62437131D01*
X15089484Y62431733D01*
X15089481Y62431728D01*
X15006175Y62280193D01*
X14992911Y62256066D01*
X14930435Y62059116D01*
X14929749Y62052999D01*
X14929748Y62052995D01*
X14920102Y61967000D01*
X14907403Y61853782D01*
X14483251Y61853782D01*
X14464537Y62044636D01*
X14457332Y62068502D01*
X14425640Y62173468D01*
X14404817Y62242439D01*
X14307814Y62424876D01*
X14216932Y62536308D01*
X14181118Y62580221D01*
X14181115Y62580224D01*
X14177223Y62584996D01*
X14172474Y62588925D01*
X14022768Y62712773D01*
X14022764Y62712775D01*
X14018018Y62716702D01*
X13836263Y62814977D01*
X13721150Y62850610D01*
X13644768Y62874254D01*
X13644765Y62874255D01*
X13638881Y62876076D01*
X13632756Y62876720D01*
X13632755Y62876720D01*
X13439519Y62897030D01*
X13439518Y62897030D01*
X13433391Y62897674D01*
X13357291Y62890749D01*
X13233757Y62879507D01*
X13233753Y62879506D01*
X13227619Y62878948D01*
X13029404Y62820610D01*
X12846295Y62724882D01*
X12841494Y62721022D01*
X12841491Y62721020D01*
X12716698Y62620684D01*
X12685266Y62595412D01*
X12552452Y62437131D01*
X12549484Y62431733D01*
X12549481Y62431728D01*
X12466175Y62280193D01*
X12452911Y62256066D01*
X12451048Y62250193D01*
X12435503Y62201188D01*
X12395840Y62142304D01*
X12330638Y62114211D01*
X12260598Y62125828D01*
X12207958Y62173468D01*
X12193442Y62207631D01*
X12172952Y62286573D01*
X12169420Y62296601D01*
X12079147Y62497002D01*
X12073967Y62506308D01*
X11951218Y62688634D01*
X11944557Y62696920D01*
X11792830Y62855970D01*
X11784873Y62863010D01*
X11608523Y62994218D01*
X11599486Y62999822D01*
X11403550Y63099441D01*
X11393699Y63103441D01*
X11253551Y63146958D01*
X11194426Y63186261D01*
X11165935Y63251291D01*
X11177125Y63321400D01*
X11224442Y63374330D01*
X11257029Y63388648D01*
X11268852Y63391949D01*
X11274356Y63394729D01*
X11274358Y63394730D01*
X11447779Y63482331D01*
X11447781Y63482332D01*
X11453280Y63485110D01*
X11616100Y63612319D01*
X11620126Y63616983D01*
X11747082Y63764063D01*
X11747083Y63764065D01*
X11751111Y63768731D01*
X11853171Y63948388D01*
X11918391Y64144447D01*
X11944287Y64349439D01*
X11944700Y64379000D01*
X11943251Y64393782D01*
X12367403Y64393782D01*
X12367919Y64387638D01*
X12382174Y64217884D01*
X12384693Y64187884D01*
X12441646Y63989267D01*
X12536092Y63805494D01*
X12664435Y63643565D01*
X12669122Y63639576D01*
X12669125Y63639573D01*
X12781844Y63543642D01*
X12821786Y63509649D01*
X12827164Y63506643D01*
X12827166Y63506642D01*
X12858901Y63488906D01*
X13002150Y63408847D01*
X13198660Y63344997D01*
X13403828Y63320532D01*
X13409963Y63321004D01*
X13409965Y63321004D01*
X13603699Y63335911D01*
X13603703Y63335912D01*
X13609841Y63336384D01*
X13808852Y63391949D01*
X13814356Y63394729D01*
X13814358Y63394730D01*
X13987779Y63482331D01*
X13987781Y63482332D01*
X13993280Y63485110D01*
X14156100Y63612319D01*
X14160126Y63616983D01*
X14287082Y63764063D01*
X14287083Y63764065D01*
X14291111Y63768731D01*
X14393171Y63948388D01*
X14458391Y64144447D01*
X14484287Y64349439D01*
X14484700Y64379000D01*
X14483251Y64393782D01*
X14907403Y64393782D01*
X14907919Y64387638D01*
X14922174Y64217884D01*
X14924693Y64187884D01*
X14981646Y63989267D01*
X15076092Y63805494D01*
X15204435Y63643565D01*
X15209122Y63639576D01*
X15209125Y63639573D01*
X15321844Y63543642D01*
X15361786Y63509649D01*
X15367164Y63506643D01*
X15367166Y63506642D01*
X15398901Y63488906D01*
X15542150Y63408847D01*
X15738660Y63344997D01*
X15943828Y63320532D01*
X15949963Y63321004D01*
X15949965Y63321004D01*
X16143699Y63335911D01*
X16143703Y63335912D01*
X16149841Y63336384D01*
X16348852Y63391949D01*
X16354356Y63394729D01*
X16354358Y63394730D01*
X16527779Y63482331D01*
X16527781Y63482332D01*
X16533280Y63485110D01*
X16696100Y63612319D01*
X16700126Y63616983D01*
X16827082Y63764063D01*
X16827083Y63764065D01*
X16831111Y63768731D01*
X16933171Y63948388D01*
X16998391Y64144447D01*
X17024287Y64349439D01*
X17024700Y64379000D01*
X17023251Y64393782D01*
X17447403Y64393782D01*
X17447919Y64387638D01*
X17462174Y64217884D01*
X17464693Y64187884D01*
X17521646Y63989267D01*
X17616092Y63805494D01*
X17744435Y63643565D01*
X17749122Y63639576D01*
X17749125Y63639573D01*
X17861844Y63543642D01*
X17901786Y63509649D01*
X17907164Y63506643D01*
X17907166Y63506642D01*
X17938901Y63488906D01*
X18082150Y63408847D01*
X18278660Y63344997D01*
X18483828Y63320532D01*
X18489963Y63321004D01*
X18489965Y63321004D01*
X18683699Y63335911D01*
X18683703Y63335912D01*
X18689841Y63336384D01*
X18888852Y63391949D01*
X18894356Y63394729D01*
X18894358Y63394730D01*
X19067779Y63482331D01*
X19067781Y63482332D01*
X19073280Y63485110D01*
X19236100Y63612319D01*
X19240126Y63616983D01*
X19367082Y63764063D01*
X19367083Y63764065D01*
X19371111Y63768731D01*
X19473171Y63948388D01*
X19538391Y64144447D01*
X19564287Y64349439D01*
X19564700Y64379000D01*
X19563251Y64393782D01*
X19987403Y64393782D01*
X19987919Y64387638D01*
X20002174Y64217884D01*
X20004693Y64187884D01*
X20061646Y63989267D01*
X20156092Y63805494D01*
X20284435Y63643565D01*
X20289122Y63639576D01*
X20289125Y63639573D01*
X20401844Y63543642D01*
X20441786Y63509649D01*
X20447164Y63506643D01*
X20447166Y63506642D01*
X20478901Y63488906D01*
X20622150Y63408847D01*
X20818660Y63344997D01*
X21023828Y63320532D01*
X21029963Y63321004D01*
X21029965Y63321004D01*
X21223699Y63335911D01*
X21223703Y63335912D01*
X21229841Y63336384D01*
X21428852Y63391949D01*
X21434356Y63394729D01*
X21434358Y63394730D01*
X21607779Y63482331D01*
X21607781Y63482332D01*
X21613280Y63485110D01*
X21776100Y63612319D01*
X21780126Y63616983D01*
X21907082Y63764063D01*
X21907083Y63764065D01*
X21911111Y63768731D01*
X22013171Y63948388D01*
X22078391Y64144447D01*
X22104287Y64349439D01*
X22104700Y64379000D01*
X22084537Y64584636D01*
X22077332Y64608502D01*
X22026598Y64776539D01*
X22024817Y64782439D01*
X21927814Y64964876D01*
X21854287Y65055029D01*
X21801118Y65120221D01*
X21801115Y65120224D01*
X21797223Y65124996D01*
X21792474Y65128925D01*
X21642768Y65252773D01*
X21642764Y65252775D01*
X21638018Y65256702D01*
X21456263Y65354977D01*
X21341150Y65390610D01*
X21264768Y65414254D01*
X21264765Y65414255D01*
X21258881Y65416076D01*
X21252756Y65416720D01*
X21252755Y65416720D01*
X21059519Y65437030D01*
X21059518Y65437030D01*
X21053391Y65437674D01*
X20977291Y65430749D01*
X20853757Y65419507D01*
X20853753Y65419506D01*
X20847619Y65418948D01*
X20649404Y65360610D01*
X20466295Y65264882D01*
X20461494Y65261022D01*
X20461491Y65261020D01*
X20336698Y65160684D01*
X20305266Y65135412D01*
X20172452Y64977131D01*
X20169484Y64971733D01*
X20169481Y64971728D01*
X20086175Y64820193D01*
X20072911Y64796066D01*
X20010435Y64599116D01*
X20009749Y64592999D01*
X20009748Y64592995D01*
X20005410Y64554317D01*
X19987403Y64393782D01*
X19563251Y64393782D01*
X19544537Y64584636D01*
X19537332Y64608502D01*
X19486598Y64776539D01*
X19484817Y64782439D01*
X19387814Y64964876D01*
X19314287Y65055029D01*
X19261118Y65120221D01*
X19261115Y65120224D01*
X19257223Y65124996D01*
X19252474Y65128925D01*
X19102768Y65252773D01*
X19102764Y65252775D01*
X19098018Y65256702D01*
X18916263Y65354977D01*
X18801150Y65390610D01*
X18724768Y65414254D01*
X18724765Y65414255D01*
X18718881Y65416076D01*
X18712756Y65416720D01*
X18712755Y65416720D01*
X18519519Y65437030D01*
X18519518Y65437030D01*
X18513391Y65437674D01*
X18437291Y65430749D01*
X18313757Y65419507D01*
X18313753Y65419506D01*
X18307619Y65418948D01*
X18109404Y65360610D01*
X17926295Y65264882D01*
X17921494Y65261022D01*
X17921491Y65261020D01*
X17796698Y65160684D01*
X17765266Y65135412D01*
X17632452Y64977131D01*
X17629484Y64971733D01*
X17629481Y64971728D01*
X17546175Y64820193D01*
X17532911Y64796066D01*
X17470435Y64599116D01*
X17469749Y64592999D01*
X17469748Y64592995D01*
X17465410Y64554317D01*
X17447403Y64393782D01*
X17023251Y64393782D01*
X17004537Y64584636D01*
X16997332Y64608502D01*
X16946598Y64776539D01*
X16944817Y64782439D01*
X16847814Y64964876D01*
X16774287Y65055029D01*
X16721118Y65120221D01*
X16721115Y65120224D01*
X16717223Y65124996D01*
X16712474Y65128925D01*
X16562768Y65252773D01*
X16562764Y65252775D01*
X16558018Y65256702D01*
X16376263Y65354977D01*
X16261150Y65390610D01*
X16184768Y65414254D01*
X16184765Y65414255D01*
X16178881Y65416076D01*
X16172756Y65416720D01*
X16172755Y65416720D01*
X15979519Y65437030D01*
X15979518Y65437030D01*
X15973391Y65437674D01*
X15897291Y65430749D01*
X15773757Y65419507D01*
X15773753Y65419506D01*
X15767619Y65418948D01*
X15569404Y65360610D01*
X15386295Y65264882D01*
X15381494Y65261022D01*
X15381491Y65261020D01*
X15256698Y65160684D01*
X15225266Y65135412D01*
X15092452Y64977131D01*
X15089484Y64971733D01*
X15089481Y64971728D01*
X15006175Y64820193D01*
X14992911Y64796066D01*
X14930435Y64599116D01*
X14929749Y64592999D01*
X14929748Y64592995D01*
X14925410Y64554317D01*
X14907403Y64393782D01*
X14483251Y64393782D01*
X14464537Y64584636D01*
X14457332Y64608502D01*
X14406598Y64776539D01*
X14404817Y64782439D01*
X14307814Y64964876D01*
X14234287Y65055029D01*
X14181118Y65120221D01*
X14181115Y65120224D01*
X14177223Y65124996D01*
X14172474Y65128925D01*
X14022768Y65252773D01*
X14022764Y65252775D01*
X14018018Y65256702D01*
X13836263Y65354977D01*
X13721150Y65390610D01*
X13644768Y65414254D01*
X13644765Y65414255D01*
X13638881Y65416076D01*
X13632756Y65416720D01*
X13632755Y65416720D01*
X13439519Y65437030D01*
X13439518Y65437030D01*
X13433391Y65437674D01*
X13357291Y65430749D01*
X13233757Y65419507D01*
X13233753Y65419506D01*
X13227619Y65418948D01*
X13029404Y65360610D01*
X12846295Y65264882D01*
X12841494Y65261022D01*
X12841491Y65261020D01*
X12716698Y65160684D01*
X12685266Y65135412D01*
X12552452Y64977131D01*
X12549484Y64971733D01*
X12549481Y64971728D01*
X12466175Y64820193D01*
X12452911Y64796066D01*
X12390435Y64599116D01*
X12389749Y64592999D01*
X12389748Y64592995D01*
X12385410Y64554317D01*
X12367403Y64393782D01*
X11943251Y64393782D01*
X11924537Y64584636D01*
X11917332Y64608502D01*
X11866598Y64776539D01*
X11864817Y64782439D01*
X11767814Y64964876D01*
X11694287Y65055029D01*
X11641118Y65120221D01*
X11641115Y65120224D01*
X11637223Y65124996D01*
X11632474Y65128925D01*
X11482768Y65252773D01*
X11482764Y65252775D01*
X11478018Y65256702D01*
X11296263Y65354977D01*
X11181150Y65390610D01*
X11104768Y65414254D01*
X11104765Y65414255D01*
X11098881Y65416076D01*
X11092756Y65416720D01*
X11092755Y65416720D01*
X10899519Y65437030D01*
X10899518Y65437030D01*
X10893391Y65437674D01*
X10817291Y65430749D01*
X10693757Y65419507D01*
X10693753Y65419506D01*
X10687619Y65418948D01*
X10489404Y65360610D01*
X10306295Y65264882D01*
X10301494Y65261022D01*
X10301491Y65261020D01*
X10176698Y65160684D01*
X10145266Y65135412D01*
X10012452Y64977131D01*
X10009484Y64971733D01*
X10009481Y64971728D01*
X9926175Y64820193D01*
X9912911Y64796066D01*
X9850435Y64599116D01*
X9849749Y64592999D01*
X9849748Y64592995D01*
X9845410Y64554317D01*
X9827403Y64393782D01*
X9827919Y64387638D01*
X9842174Y64217884D01*
X9844693Y64187884D01*
X9901646Y63989267D01*
X9996092Y63805494D01*
X10124435Y63643565D01*
X10129122Y63639576D01*
X10129125Y63639573D01*
X10241844Y63543642D01*
X10281786Y63509649D01*
X10287164Y63506643D01*
X10287166Y63506642D01*
X10318901Y63488906D01*
X10462150Y63408847D01*
X10519523Y63390205D01*
X10578127Y63350133D01*
X10605765Y63284736D01*
X10593658Y63214780D01*
X10545653Y63162473D01*
X10506464Y63147059D01*
X10499558Y63145610D01*
X10489358Y63142549D01*
X10284932Y63061818D01*
X10275396Y63057084D01*
X10087486Y62943058D01*
X10078896Y62936794D01*
X9912884Y62792736D01*
X9905464Y62785105D01*
X9766100Y62615140D01*
X9760075Y62606373D01*
X9651342Y62415356D01*
X9646877Y62405692D01*
X9571882Y62199084D01*
X9569111Y62188816D01*
X9555008Y62110826D01*
X5136000Y62110826D01*
X5136000Y63381573D01*
X5156002Y63449694D01*
X5209658Y63496187D01*
X5279932Y63506291D01*
X5344512Y63476797D01*
X5359295Y63461634D01*
X5440163Y63363358D01*
X5574654Y63261089D01*
X5581342Y63258118D01*
X5581346Y63258116D01*
X5644978Y63229852D01*
X5729065Y63192502D01*
X5736260Y63191149D01*
X5842866Y63171102D01*
X5895113Y63161277D01*
X5902421Y63161615D01*
X5902424Y63161615D01*
X6056573Y63168750D01*
X6056576Y63168750D01*
X6063890Y63169089D01*
X6070933Y63171102D01*
X6070934Y63171102D01*
X6141077Y63191149D01*
X6226343Y63215518D01*
X6232729Y63219094D01*
X6232733Y63219096D01*
X6367367Y63294495D01*
X6367369Y63294496D01*
X6373759Y63298075D01*
X6379154Y63303027D01*
X6492838Y63407382D01*
X6492839Y63407383D01*
X6498228Y63412330D01*
X6503571Y63420206D01*
X6582552Y63536642D01*
X6593074Y63552154D01*
X6627889Y63643565D01*
X6650604Y63703204D01*
X6650605Y63703209D01*
X6653210Y63710048D01*
X6675410Y63877542D01*
X6675500Y63889000D01*
X6675047Y63892882D01*
X6675047Y63892890D01*
X6656782Y64049549D01*
X6656782Y64049550D01*
X6655934Y64056821D01*
X6598286Y64215640D01*
X6505647Y64356938D01*
X6382988Y64473134D01*
X6305176Y64518330D01*
X6243220Y64554317D01*
X6243217Y64554318D01*
X6236887Y64557995D01*
X6229879Y64560117D01*
X6229878Y64560118D01*
X6148926Y64584636D01*
X6075183Y64606971D01*
X6067874Y64607424D01*
X6067871Y64607425D01*
X5996926Y64611826D01*
X5906550Y64617433D01*
X5899334Y64616193D01*
X5899332Y64616193D01*
X5747247Y64590060D01*
X5747245Y64590059D01*
X5740032Y64588820D01*
X5584563Y64522667D01*
X5448482Y64422523D01*
X5389387Y64352963D01*
X5358025Y64316048D01*
X5298676Y64277083D01*
X5227683Y64276390D01*
X5167585Y64314189D01*
X5137463Y64378479D01*
X5136000Y64397627D01*
X5136000Y65385404D01*
X5138755Y65411606D01*
X5140646Y65420497D01*
X5140865Y65437030D01*
X5142410Y65554054D01*
X5142597Y65559456D01*
X5146656Y65631723D01*
X5147250Y65638764D01*
X5157117Y65726339D01*
X5173691Y65873444D01*
X5174671Y65880385D01*
X5184340Y65937294D01*
X5185717Y65944214D01*
X5238266Y66174445D01*
X5240031Y66181288D01*
X5255992Y66236691D01*
X5258139Y66243425D01*
X5336138Y66466333D01*
X5338659Y66472938D01*
X5360727Y66526213D01*
X5363613Y66532662D01*
X5430737Y66672046D01*
X5466092Y66745463D01*
X5469316Y66751703D01*
X5497204Y66802162D01*
X5500787Y66808236D01*
X5626458Y67008241D01*
X5630385Y67014119D01*
X5663732Y67061116D01*
X5667981Y67066761D01*
X5815228Y67251405D01*
X5819769Y67256784D01*
X5858230Y67299821D01*
X5863084Y67304954D01*
X6030046Y67471916D01*
X6035180Y67476771D01*
X6078216Y67515231D01*
X6083595Y67519772D01*
X6268239Y67667019D01*
X6273884Y67671268D01*
X6320881Y67704615D01*
X6326759Y67708542D01*
X6526764Y67834213D01*
X6532852Y67837804D01*
X6583265Y67865666D01*
X6589543Y67868910D01*
X6641403Y67893885D01*
X6802371Y67971403D01*
X6808790Y67974275D01*
X6840976Y67987607D01*
X6862077Y67996347D01*
X6868679Y67998867D01*
X7091562Y68076857D01*
X7098296Y68079004D01*
X7153715Y68094970D01*
X7160558Y68096735D01*
X7390786Y68149283D01*
X7397706Y68150660D01*
X7454615Y68160329D01*
X7461557Y68161309D01*
X7627166Y68179968D01*
X7696234Y68187750D01*
X7703275Y68188344D01*
X7744842Y68190679D01*
X7775553Y68192403D01*
X7780941Y68192590D01*
X7819421Y68193098D01*
X7908319Y68194272D01*
X7908322Y68194272D01*
X7914503Y68194354D01*
X7920549Y68195640D01*
X7920551Y68195640D01*
X7923390Y68196244D01*
X7949600Y68199000D01*
X45822404Y68199000D01*
X45848606Y68196245D01*
G37*
%TD.AperFunction*%
M02*
