%TF.GenerationSoftware,KiCad,Pcbnew,(5.99.0-8442-g3b424d3868)*%
%TF.CreationDate,2021-01-17T09:13:46+01:00*%
%TF.ProjectId,WiFi-Addon,57694669-2d41-4646-946f-6e2e6b696361,rev?*%
%TF.SameCoordinates,PX160b110PY9be08a8*%
%TF.FileFunction,Legend,Bot*%
%TF.FilePolarity,Positive*%
%FSLAX46Y46*%
G04 Gerber Fmt 4.6, Leading zero omitted, Abs format (unit mm)*
G04 Created by KiCad (PCBNEW (5.99.0-8442-g3b424d3868)) date 2021-01-17 09:13:46*
%MOMM*%
%LPD*%
G01*
G04 APERTURE LIST*
%ADD10C,0.150000*%
%ADD11C,0.152400*%
%ADD12C,0.010000*%
%ADD13R,2.500000X1.100000*%
%ADD14R,1.100000X2.500000*%
%ADD15R,1.700000X1.700000*%
%ADD16O,1.700000X1.700000*%
%ADD17C,1.448000*%
%ADD18C,0.500000*%
G04 APERTURE END LIST*
D10*
X46002785Y66306143D02*
X46002785Y67506143D01*
X45545642Y67506143D01*
X45431357Y67449000D01*
X45374214Y67391858D01*
X45317071Y67277572D01*
X45317071Y67106143D01*
X45374214Y66991858D01*
X45431357Y66934715D01*
X45545642Y66877572D01*
X46002785Y66877572D01*
X44802785Y66306143D02*
X44802785Y67106143D01*
X44802785Y66877572D02*
X44745642Y66991858D01*
X44688500Y67049000D01*
X44574214Y67106143D01*
X44459928Y67106143D01*
X44059928Y67106143D02*
X44059928Y66306143D01*
X44059928Y66991858D02*
X44002785Y67049000D01*
X43888500Y67106143D01*
X43717071Y67106143D01*
X43602785Y67049000D01*
X43545642Y66934715D01*
X43545642Y66306143D01*
X43145642Y67106143D02*
X42688500Y67106143D01*
X42974214Y67506143D02*
X42974214Y66477572D01*
X42917071Y66363286D01*
X42802785Y66306143D01*
X42688500Y66306143D01*
X42288500Y66306143D02*
X42288500Y67106143D01*
X42288500Y66877572D02*
X42231357Y66991858D01*
X42174214Y67049000D01*
X42059928Y67106143D01*
X41945642Y67106143D01*
X41145642Y66934715D02*
X40974214Y66877572D01*
X40917071Y66820429D01*
X40859928Y66706143D01*
X40859928Y66534715D01*
X40917071Y66420429D01*
X40974214Y66363286D01*
X41088500Y66306143D01*
X41545642Y66306143D01*
X41545642Y67506143D01*
X41145642Y67506143D01*
X41031357Y67449000D01*
X40974214Y67391858D01*
X40917071Y67277572D01*
X40917071Y67163286D01*
X40974214Y67049000D01*
X41031357Y66991858D01*
X41145642Y66934715D01*
X41545642Y66934715D01*
X40174214Y66306143D02*
X40288500Y66363286D01*
X40345642Y66420429D01*
X40402785Y66534715D01*
X40402785Y66877572D01*
X40345642Y66991858D01*
X40288500Y67049000D01*
X40174214Y67106143D01*
X40002785Y67106143D01*
X39888500Y67049000D01*
X39831357Y66991858D01*
X39774214Y66877572D01*
X39774214Y66534715D01*
X39831357Y66420429D01*
X39888500Y66363286D01*
X40002785Y66306143D01*
X40174214Y66306143D01*
X38745642Y66306143D02*
X38745642Y66934715D01*
X38802785Y67049000D01*
X38917071Y67106143D01*
X39145642Y67106143D01*
X39259928Y67049000D01*
X38745642Y66363286D02*
X38859928Y66306143D01*
X39145642Y66306143D01*
X39259928Y66363286D01*
X39317071Y66477572D01*
X39317071Y66591858D01*
X39259928Y66706143D01*
X39145642Y66763286D01*
X38859928Y66763286D01*
X38745642Y66820429D01*
X38174214Y66306143D02*
X38174214Y67106143D01*
X38174214Y66877572D02*
X38117071Y66991858D01*
X38059928Y67049000D01*
X37945642Y67106143D01*
X37831357Y67106143D01*
X36917071Y66306143D02*
X36917071Y67506143D01*
X36917071Y66363286D02*
X37031357Y66306143D01*
X37259928Y66306143D01*
X37374214Y66363286D01*
X37431357Y66420429D01*
X37488500Y66534715D01*
X37488500Y66877572D01*
X37431357Y66991858D01*
X37374214Y67049000D01*
X37259928Y67106143D01*
X37031357Y67106143D01*
X36917071Y67049000D01*
X36517071Y67506143D02*
X36117071Y66306143D01*
X35717071Y67506143D01*
X35374214Y67391858D02*
X35317071Y67449000D01*
X35202785Y67506143D01*
X34917071Y67506143D01*
X34802785Y67449000D01*
X34745642Y67391858D01*
X34688500Y67277572D01*
X34688500Y67163286D01*
X34745642Y66991858D01*
X35431357Y66306143D01*
X34688500Y66306143D01*
X32459928Y67506143D02*
X32174214Y66306143D01*
X31945642Y67163286D01*
X31717071Y66306143D01*
X31431357Y67506143D01*
X30974214Y66306143D02*
X30974214Y67506143D01*
X30002785Y66934715D02*
X30402785Y66934715D01*
X30402785Y66306143D02*
X30402785Y67506143D01*
X29831357Y67506143D01*
X29374214Y66306143D02*
X29374214Y67506143D01*
X27888500Y66306143D02*
X27888500Y67506143D01*
X27488500Y66649000D01*
X27088500Y67506143D01*
X27088500Y66306143D01*
X26345642Y66306143D02*
X26459928Y66363286D01*
X26517071Y66420429D01*
X26574214Y66534715D01*
X26574214Y66877572D01*
X26517071Y66991858D01*
X26459928Y67049000D01*
X26345642Y67106143D01*
X26174214Y67106143D01*
X26059928Y67049000D01*
X26002785Y66991858D01*
X25945642Y66877572D01*
X25945642Y66534715D01*
X26002785Y66420429D01*
X26059928Y66363286D01*
X26174214Y66306143D01*
X26345642Y66306143D01*
X24917071Y66306143D02*
X24917071Y67506143D01*
X24917071Y66363286D02*
X25031357Y66306143D01*
X25259928Y66306143D01*
X25374214Y66363286D01*
X25431357Y66420429D01*
X25488500Y66534715D01*
X25488500Y66877572D01*
X25431357Y66991858D01*
X25374214Y67049000D01*
X25259928Y67106143D01*
X25031357Y67106143D01*
X24917071Y67049000D01*
X23831357Y67106143D02*
X23831357Y66306143D01*
X24345642Y67106143D02*
X24345642Y66477572D01*
X24288500Y66363286D01*
X24174214Y66306143D01*
X24002785Y66306143D01*
X23888500Y66363286D01*
X23831357Y66420429D01*
X23088500Y66306143D02*
X23202785Y66363286D01*
X23259928Y66477572D01*
X23259928Y67506143D01*
X22174214Y66363286D02*
X22288500Y66306143D01*
X22517071Y66306143D01*
X22631357Y66363286D01*
X22688500Y66477572D01*
X22688500Y66934715D01*
X22631357Y67049000D01*
X22517071Y67106143D01*
X22288500Y67106143D01*
X22174214Y67049000D01*
X22117071Y66934715D01*
X22117071Y66820429D01*
X22688500Y66706143D01*
X26412666Y60670429D02*
X26079333Y60670429D01*
X25936476Y60146620D02*
X26412666Y60146620D01*
X26412666Y61146620D01*
X25936476Y61146620D01*
X25603142Y61146620D02*
X24936476Y60146620D01*
X24936476Y61146620D02*
X25603142Y60146620D01*
X24555523Y60146620D02*
X24555523Y61146620D01*
X24174571Y61146620D01*
X24079333Y61099000D01*
X24031714Y61051381D01*
X23984095Y60956143D01*
X23984095Y60813286D01*
X24031714Y60718048D01*
X24079333Y60670429D01*
X24174571Y60622810D01*
X24555523Y60622810D01*
X23031714Y60146620D02*
X23603142Y60146620D01*
X23317428Y60146620D02*
X23317428Y61146620D01*
X23412666Y61003762D01*
X23507904Y60908524D01*
X23603142Y60860905D01*
X47942666Y60670429D02*
X47609333Y60670429D01*
X47466476Y60146620D02*
X47942666Y60146620D01*
X47942666Y61146620D01*
X47466476Y61146620D01*
X47133142Y61146620D02*
X46466476Y60146620D01*
X46466476Y61146620D02*
X47133142Y60146620D01*
X46085523Y60146620D02*
X46085523Y61146620D01*
X45704571Y61146620D01*
X45609333Y61099000D01*
X45561714Y61051381D01*
X45514095Y60956143D01*
X45514095Y60813286D01*
X45561714Y60718048D01*
X45609333Y60670429D01*
X45704571Y60622810D01*
X46085523Y60622810D01*
X45133142Y61051381D02*
X45085523Y61099000D01*
X44990285Y61146620D01*
X44752190Y61146620D01*
X44656952Y61099000D01*
X44609333Y61051381D01*
X44561714Y60956143D01*
X44561714Y60860905D01*
X44609333Y60718048D01*
X45180761Y60146620D01*
X44561714Y60146620D01*
X11370880Y55498048D02*
X12085166Y55498048D01*
X12228023Y55545667D01*
X12323261Y55640905D01*
X12370880Y55783762D01*
X12370880Y55879000D01*
X12370880Y54545667D02*
X12370880Y55021858D01*
X11370880Y55021858D01*
X12275642Y53640905D02*
X12323261Y53688524D01*
X12370880Y53831381D01*
X12370880Y53926620D01*
X12323261Y54069477D01*
X12228023Y54164715D01*
X12132785Y54212334D01*
X11942309Y54259953D01*
X11799452Y54259953D01*
X11608976Y54212334D01*
X11513738Y54164715D01*
X11418500Y54069477D01*
X11370880Y53926620D01*
X11370880Y53831381D01*
X11418500Y53688524D01*
X11466119Y53640905D01*
X11370880Y52926620D02*
X12085166Y52926620D01*
X12228023Y52974239D01*
X12323261Y53069477D01*
X12370880Y53212334D01*
X12370880Y53307572D01*
X12370880Y51974239D02*
X12370880Y52450429D01*
X11370880Y52450429D01*
X12275642Y51069477D02*
X12323261Y51117096D01*
X12370880Y51259953D01*
X12370880Y51355191D01*
X12323261Y51498048D01*
X12228023Y51593286D01*
X12132785Y51640905D01*
X11942309Y51688524D01*
X11799452Y51688524D01*
X11608976Y51640905D01*
X11513738Y51593286D01*
X11418500Y51498048D01*
X11370880Y51355191D01*
X11370880Y51259953D01*
X11418500Y51117096D01*
X11466119Y51069477D01*
X11370880Y50355191D02*
X12085166Y50355191D01*
X12228023Y50402810D01*
X12323261Y50498048D01*
X12370880Y50640905D01*
X12370880Y50736143D01*
X12370880Y49402810D02*
X12370880Y49879000D01*
X11370880Y49879000D01*
X12275642Y48498048D02*
X12323261Y48545667D01*
X12370880Y48688524D01*
X12370880Y48783762D01*
X12323261Y48926620D01*
X12228023Y49021858D01*
X12132785Y49069477D01*
X11942309Y49117096D01*
X11799452Y49117096D01*
X11608976Y49069477D01*
X11513738Y49021858D01*
X11418500Y48926620D01*
X11370880Y48783762D01*
X11370880Y48688524D01*
X11418500Y48545667D01*
X11466119Y48498048D01*
X11370880Y47783762D02*
X12085166Y47783762D01*
X12228023Y47831381D01*
X12323261Y47926620D01*
X12370880Y48069477D01*
X12370880Y48164715D01*
X12370880Y46831381D02*
X12370880Y47307572D01*
X11370880Y47307572D01*
X12275642Y45926620D02*
X12323261Y45974239D01*
X12370880Y46117096D01*
X12370880Y46212334D01*
X12323261Y46355191D01*
X12228023Y46450429D01*
X12132785Y46498048D01*
X11942309Y46545667D01*
X11799452Y46545667D01*
X11608976Y46498048D01*
X11513738Y46450429D01*
X11418500Y46355191D01*
X11370880Y46212334D01*
X11370880Y46117096D01*
X11418500Y45974239D01*
X11466119Y45926620D01*
D11*
X28745000Y58465000D02*
X29507000Y58465000D01*
X29507000Y58465000D02*
X29507000Y42463000D01*
X29507000Y42463000D02*
X28745000Y42463000D01*
D12*
X42606154Y43126880D02*
X42600428Y43047020D01*
X42600428Y43047020D02*
X42593851Y42999961D01*
X42593851Y42999961D02*
X42584738Y42979434D01*
X42584738Y42979434D02*
X42571402Y42979171D01*
X42571402Y42979171D02*
X42567077Y42981622D01*
X42567077Y42981622D02*
X42509556Y42999364D01*
X42509556Y42999364D02*
X42434732Y42998328D01*
X42434732Y42998328D02*
X42358661Y42980090D01*
X42358661Y42980090D02*
X42311082Y42956495D01*
X42311082Y42956495D02*
X42262298Y42918802D01*
X42262298Y42918802D02*
X42226636Y42876145D01*
X42226636Y42876145D02*
X42202155Y42821943D01*
X42202155Y42821943D02*
X42186913Y42749616D01*
X42186913Y42749616D02*
X42178970Y42652581D01*
X42178970Y42652581D02*
X42176384Y42524258D01*
X42176384Y42524258D02*
X42176338Y42499642D01*
X42176338Y42499642D02*
X42176308Y42223130D01*
X42176308Y42223130D02*
X42237839Y42201680D01*
X42237839Y42201680D02*
X42281541Y42187088D01*
X42281541Y42187088D02*
X42305518Y42180294D01*
X42305518Y42180294D02*
X42306223Y42180231D01*
X42306223Y42180231D02*
X42308585Y42198655D01*
X42308585Y42198655D02*
X42310594Y42249474D01*
X42310594Y42249474D02*
X42312099Y42326007D01*
X42312099Y42326007D02*
X42312947Y42421570D01*
X42312947Y42421570D02*
X42313077Y42479671D01*
X42313077Y42479671D02*
X42313349Y42594229D01*
X42313349Y42594229D02*
X42314748Y42676333D01*
X42314748Y42676333D02*
X42318151Y42732607D01*
X42318151Y42732607D02*
X42324433Y42769674D01*
X42324433Y42769674D02*
X42334471Y42794156D01*
X42334471Y42794156D02*
X42349139Y42812675D01*
X42349139Y42812675D02*
X42358298Y42821594D01*
X42358298Y42821594D02*
X42421211Y42857534D01*
X42421211Y42857534D02*
X42489864Y42860225D01*
X42489864Y42860225D02*
X42552152Y42829830D01*
X42552152Y42829830D02*
X42563671Y42818856D01*
X42563671Y42818856D02*
X42580567Y42798221D01*
X42580567Y42798221D02*
X42592286Y42773744D01*
X42592286Y42773744D02*
X42599767Y42738353D01*
X42599767Y42738353D02*
X42603946Y42684974D01*
X42603946Y42684974D02*
X42605763Y42606534D01*
X42605763Y42606534D02*
X42606154Y42498383D01*
X42606154Y42498383D02*
X42606154Y42223130D01*
X42606154Y42223130D02*
X42667685Y42201680D01*
X42667685Y42201680D02*
X42711387Y42187088D01*
X42711387Y42187088D02*
X42735364Y42180294D01*
X42735364Y42180294D02*
X42736070Y42180231D01*
X42736070Y42180231D02*
X42737874Y42198931D01*
X42737874Y42198931D02*
X42739500Y42251678D01*
X42739500Y42251678D02*
X42740883Y42333443D01*
X42740883Y42333443D02*
X42741958Y42439195D01*
X42741958Y42439195D02*
X42742660Y42563906D01*
X42742660Y42563906D02*
X42742923Y42702545D01*
X42742923Y42702545D02*
X42742923Y43237194D01*
X42742923Y43237194D02*
X42615923Y43290764D01*
X42615923Y43290764D02*
X42606154Y43126880D01*
X42606154Y43126880D02*
X42606154Y43126880D01*
G36*
X42742923Y43237194D02*
G01*
X42742923Y42702545D01*
X42742660Y42563906D01*
X42741958Y42439195D01*
X42740883Y42333443D01*
X42739500Y42251678D01*
X42737874Y42198931D01*
X42736070Y42180231D01*
X42735364Y42180294D01*
X42711387Y42187088D01*
X42667685Y42201680D01*
X42606154Y42223130D01*
X42606154Y42498383D01*
X42605763Y42606534D01*
X42603946Y42684974D01*
X42599767Y42738353D01*
X42592286Y42773744D01*
X42580567Y42798221D01*
X42563671Y42818856D01*
X42552152Y42829830D01*
X42489864Y42860225D01*
X42421211Y42857534D01*
X42358298Y42821594D01*
X42349139Y42812675D01*
X42334471Y42794156D01*
X42324433Y42769674D01*
X42318151Y42732607D01*
X42314748Y42676333D01*
X42313349Y42594229D01*
X42313077Y42479671D01*
X42312947Y42421570D01*
X42312099Y42326007D01*
X42310594Y42249474D01*
X42308585Y42198655D01*
X42306223Y42180231D01*
X42305518Y42180294D01*
X42281541Y42187088D01*
X42237839Y42201680D01*
X42176308Y42223130D01*
X42176338Y42499642D01*
X42176384Y42524258D01*
X42178970Y42652581D01*
X42186913Y42749616D01*
X42202155Y42821943D01*
X42226636Y42876145D01*
X42262298Y42918802D01*
X42311082Y42956495D01*
X42358661Y42980090D01*
X42434732Y42998328D01*
X42509556Y42999364D01*
X42567077Y42981622D01*
X42571402Y42979171D01*
X42584738Y42979434D01*
X42593851Y42999961D01*
X42600428Y43047020D01*
X42606154Y43126880D01*
X42615923Y43290764D01*
X42742923Y43237194D01*
G37*
X42742923Y43237194D02*
X42742923Y42702545D01*
X42742660Y42563906D01*
X42741958Y42439195D01*
X42740883Y42333443D01*
X42739500Y42251678D01*
X42737874Y42198931D01*
X42736070Y42180231D01*
X42735364Y42180294D01*
X42711387Y42187088D01*
X42667685Y42201680D01*
X42606154Y42223130D01*
X42606154Y42498383D01*
X42605763Y42606534D01*
X42603946Y42684974D01*
X42599767Y42738353D01*
X42592286Y42773744D01*
X42580567Y42798221D01*
X42563671Y42818856D01*
X42552152Y42829830D01*
X42489864Y42860225D01*
X42421211Y42857534D01*
X42358298Y42821594D01*
X42349139Y42812675D01*
X42334471Y42794156D01*
X42324433Y42769674D01*
X42318151Y42732607D01*
X42314748Y42676333D01*
X42313349Y42594229D01*
X42313077Y42479671D01*
X42312947Y42421570D01*
X42312099Y42326007D01*
X42310594Y42249474D01*
X42308585Y42198655D01*
X42306223Y42180231D01*
X42305518Y42180294D01*
X42281541Y42187088D01*
X42237839Y42201680D01*
X42176308Y42223130D01*
X42176338Y42499642D01*
X42176384Y42524258D01*
X42178970Y42652581D01*
X42186913Y42749616D01*
X42202155Y42821943D01*
X42226636Y42876145D01*
X42262298Y42918802D01*
X42311082Y42956495D01*
X42358661Y42980090D01*
X42434732Y42998328D01*
X42509556Y42999364D01*
X42567077Y42981622D01*
X42571402Y42979171D01*
X42584738Y42979434D01*
X42593851Y42999961D01*
X42600428Y43047020D01*
X42606154Y43126880D01*
X42615923Y43290764D01*
X42742923Y43237194D01*
X37520776Y42971162D02*
X37443472Y42920639D01*
X37443472Y42920639D02*
X37406186Y42875410D01*
X37406186Y42875410D02*
X37376647Y42793337D01*
X37376647Y42793337D02*
X37374301Y42728393D01*
X37374301Y42728393D02*
X37379615Y42641555D01*
X37379615Y42641555D02*
X37579885Y42553897D01*
X37579885Y42553897D02*
X37677261Y42509113D01*
X37677261Y42509113D02*
X37740887Y42473087D01*
X37740887Y42473087D02*
X37773971Y42441883D01*
X37773971Y42441883D02*
X37779720Y42411564D01*
X37779720Y42411564D02*
X37761342Y42378195D01*
X37761342Y42378195D02*
X37741077Y42356077D01*
X37741077Y42356077D02*
X37682111Y42320607D01*
X37682111Y42320607D02*
X37617976Y42318121D01*
X37617976Y42318121D02*
X37559074Y42345765D01*
X37559074Y42345765D02*
X37515803Y42400680D01*
X37515803Y42400680D02*
X37508064Y42420072D01*
X37508064Y42420072D02*
X37470994Y42480636D01*
X37470994Y42480636D02*
X37428346Y42506448D01*
X37428346Y42506448D02*
X37369846Y42528529D01*
X37369846Y42528529D02*
X37369846Y42444816D01*
X37369846Y42444816D02*
X37375018Y42387850D01*
X37375018Y42387850D02*
X37395277Y42339811D01*
X37395277Y42339811D02*
X37437738Y42284654D01*
X37437738Y42284654D02*
X37444049Y42277486D01*
X37444049Y42277486D02*
X37491280Y42228415D01*
X37491280Y42228415D02*
X37531879Y42202080D01*
X37531879Y42202080D02*
X37582672Y42189965D01*
X37582672Y42189965D02*
X37624780Y42185997D01*
X37624780Y42185997D02*
X37700098Y42185009D01*
X37700098Y42185009D02*
X37753714Y42197534D01*
X37753714Y42197534D02*
X37787162Y42216131D01*
X37787162Y42216131D02*
X37839732Y42257025D01*
X37839732Y42257025D02*
X37876121Y42301252D01*
X37876121Y42301252D02*
X37899150Y42356874D01*
X37899150Y42356874D02*
X37911641Y42431953D01*
X37911641Y42431953D02*
X37916413Y42534551D01*
X37916413Y42534551D02*
X37916794Y42586624D01*
X37916794Y42586624D02*
X37915499Y42649052D01*
X37915499Y42649052D02*
X37797529Y42649052D01*
X37797529Y42649052D02*
X37796161Y42615562D01*
X37796161Y42615562D02*
X37792751Y42610077D01*
X37792751Y42610077D02*
X37770247Y42617528D01*
X37770247Y42617528D02*
X37721818Y42637247D01*
X37721818Y42637247D02*
X37657092Y42665282D01*
X37657092Y42665282D02*
X37643557Y42671308D01*
X37643557Y42671308D02*
X37561756Y42712904D01*
X37561756Y42712904D02*
X37516688Y42749462D01*
X37516688Y42749462D02*
X37506783Y42783704D01*
X37506783Y42783704D02*
X37530474Y42818352D01*
X37530474Y42818352D02*
X37550040Y42833661D01*
X37550040Y42833661D02*
X37620640Y42864279D01*
X37620640Y42864279D02*
X37686720Y42859220D01*
X37686720Y42859220D02*
X37742041Y42821849D01*
X37742041Y42821849D02*
X37780364Y42755527D01*
X37780364Y42755527D02*
X37792651Y42702884D01*
X37792651Y42702884D02*
X37797529Y42649052D01*
X37797529Y42649052D02*
X37915499Y42649052D01*
X37915499Y42649052D02*
X37914270Y42708280D01*
X37914270Y42708280D02*
X37904968Y42798290D01*
X37904968Y42798290D02*
X37886540Y42863833D01*
X37886540Y42863833D02*
X37856640Y42912088D01*
X37856640Y42912088D02*
X37812920Y42950233D01*
X37812920Y42950233D02*
X37793859Y42962560D01*
X37793859Y42962560D02*
X37707274Y42994664D01*
X37707274Y42994664D02*
X37612478Y42996684D01*
X37612478Y42996684D02*
X37520776Y42971162D01*
X37520776Y42971162D02*
X37520776Y42971162D01*
G36*
X37916413Y42534551D02*
G01*
X37911641Y42431953D01*
X37899150Y42356874D01*
X37876121Y42301252D01*
X37839732Y42257025D01*
X37787162Y42216131D01*
X37753714Y42197534D01*
X37700098Y42185009D01*
X37624780Y42185997D01*
X37582672Y42189965D01*
X37531879Y42202080D01*
X37491280Y42228415D01*
X37444049Y42277486D01*
X37437738Y42284654D01*
X37395277Y42339811D01*
X37375018Y42387850D01*
X37369846Y42444816D01*
X37369846Y42528529D01*
X37428346Y42506448D01*
X37470994Y42480636D01*
X37508064Y42420072D01*
X37515803Y42400680D01*
X37559074Y42345765D01*
X37617976Y42318121D01*
X37682111Y42320607D01*
X37741077Y42356077D01*
X37761342Y42378195D01*
X37779720Y42411564D01*
X37773971Y42441883D01*
X37740887Y42473087D01*
X37677261Y42509113D01*
X37579885Y42553897D01*
X37379615Y42641555D01*
X37374301Y42728393D01*
X37376299Y42783704D01*
X37506783Y42783704D01*
X37516688Y42749462D01*
X37561756Y42712904D01*
X37643557Y42671308D01*
X37657092Y42665282D01*
X37721818Y42637247D01*
X37770247Y42617528D01*
X37792751Y42610077D01*
X37796161Y42615562D01*
X37797529Y42649052D01*
X37792651Y42702884D01*
X37780364Y42755527D01*
X37742041Y42821849D01*
X37686720Y42859220D01*
X37620640Y42864279D01*
X37550040Y42833661D01*
X37530474Y42818352D01*
X37506783Y42783704D01*
X37376299Y42783704D01*
X37376647Y42793337D01*
X37406186Y42875410D01*
X37443472Y42920639D01*
X37520776Y42971162D01*
X37612478Y42996684D01*
X37707274Y42994664D01*
X37793859Y42962560D01*
X37812920Y42950233D01*
X37856640Y42912088D01*
X37886540Y42863833D01*
X37904968Y42798290D01*
X37914270Y42708280D01*
X37915499Y42649052D01*
X37916794Y42586624D01*
X37916413Y42534551D01*
G37*
X37916413Y42534551D02*
X37911641Y42431953D01*
X37899150Y42356874D01*
X37876121Y42301252D01*
X37839732Y42257025D01*
X37787162Y42216131D01*
X37753714Y42197534D01*
X37700098Y42185009D01*
X37624780Y42185997D01*
X37582672Y42189965D01*
X37531879Y42202080D01*
X37491280Y42228415D01*
X37444049Y42277486D01*
X37437738Y42284654D01*
X37395277Y42339811D01*
X37375018Y42387850D01*
X37369846Y42444816D01*
X37369846Y42528529D01*
X37428346Y42506448D01*
X37470994Y42480636D01*
X37508064Y42420072D01*
X37515803Y42400680D01*
X37559074Y42345765D01*
X37617976Y42318121D01*
X37682111Y42320607D01*
X37741077Y42356077D01*
X37761342Y42378195D01*
X37779720Y42411564D01*
X37773971Y42441883D01*
X37740887Y42473087D01*
X37677261Y42509113D01*
X37579885Y42553897D01*
X37379615Y42641555D01*
X37374301Y42728393D01*
X37376299Y42783704D01*
X37506783Y42783704D01*
X37516688Y42749462D01*
X37561756Y42712904D01*
X37643557Y42671308D01*
X37657092Y42665282D01*
X37721818Y42637247D01*
X37770247Y42617528D01*
X37792751Y42610077D01*
X37796161Y42615562D01*
X37797529Y42649052D01*
X37792651Y42702884D01*
X37780364Y42755527D01*
X37742041Y42821849D01*
X37686720Y42859220D01*
X37620640Y42864279D01*
X37550040Y42833661D01*
X37530474Y42818352D01*
X37506783Y42783704D01*
X37376299Y42783704D01*
X37376647Y42793337D01*
X37406186Y42875410D01*
X37443472Y42920639D01*
X37520776Y42971162D01*
X37612478Y42996684D01*
X37707274Y42994664D01*
X37793859Y42962560D01*
X37812920Y42950233D01*
X37856640Y42912088D01*
X37886540Y42863833D01*
X37904968Y42798290D01*
X37914270Y42708280D01*
X37915499Y42649052D01*
X37916794Y42586624D01*
X37916413Y42534551D01*
X39370071Y42982338D02*
X39367089Y42930932D01*
X39367089Y42930932D02*
X39364753Y42852808D01*
X39364753Y42852808D02*
X39363251Y42754143D01*
X39363251Y42754143D02*
X39362769Y42650657D01*
X39362769Y42650657D02*
X39362769Y42300467D01*
X39362769Y42300467D02*
X39424599Y42238637D01*
X39424599Y42238637D02*
X39467207Y42200538D01*
X39467207Y42200538D02*
X39504610Y42185105D01*
X39504610Y42185105D02*
X39555730Y42186082D01*
X39555730Y42186082D02*
X39576022Y42188567D01*
X39576022Y42188567D02*
X39639446Y42195800D01*
X39639446Y42195800D02*
X39691905Y42199945D01*
X39691905Y42199945D02*
X39704692Y42200328D01*
X39704692Y42200328D02*
X39747801Y42197824D01*
X39747801Y42197824D02*
X39809456Y42191538D01*
X39809456Y42191538D02*
X39833362Y42188567D01*
X39833362Y42188567D02*
X39892078Y42183972D01*
X39892078Y42183972D02*
X39931536Y42193954D01*
X39931536Y42193954D02*
X39970662Y42224772D01*
X39970662Y42224772D02*
X39984785Y42238637D01*
X39984785Y42238637D02*
X40046615Y42300467D01*
X40046615Y42300467D02*
X40046615Y42955497D01*
X40046615Y42955497D02*
X39996850Y42978171D01*
X39996850Y42978171D02*
X39953998Y42994966D01*
X39953998Y42994966D02*
X39928927Y43000846D01*
X39928927Y43000846D02*
X39922499Y42982264D01*
X39922499Y42982264D02*
X39916491Y42930345D01*
X39916491Y42930345D02*
X39911303Y42850828D01*
X39911303Y42850828D02*
X39907336Y42749454D01*
X39907336Y42749454D02*
X39905423Y42663808D01*
X39905423Y42663808D02*
X39900077Y42326769D01*
X39900077Y42326769D02*
X39853440Y42320175D01*
X39853440Y42320175D02*
X39811024Y42324786D01*
X39811024Y42324786D02*
X39790240Y42339713D01*
X39790240Y42339713D02*
X39784430Y42367623D01*
X39784430Y42367623D02*
X39779470Y42427075D01*
X39779470Y42427075D02*
X39775754Y42510534D01*
X39775754Y42510534D02*
X39773676Y42610468D01*
X39773676Y42610468D02*
X39773376Y42661896D01*
X39773376Y42661896D02*
X39773077Y42957946D01*
X39773077Y42957946D02*
X39711546Y42979396D01*
X39711546Y42979396D02*
X39667996Y42993980D01*
X39667996Y42993980D02*
X39644306Y43000781D01*
X39644306Y43000781D02*
X39643623Y43000846D01*
X39643623Y43000846D02*
X39641246Y42982358D01*
X39641246Y42982358D02*
X39638634Y42931094D01*
X39638634Y42931094D02*
X39636005Y42853351D01*
X39636005Y42853351D02*
X39633579Y42755426D01*
X39633579Y42755426D02*
X39631885Y42663808D01*
X39631885Y42663808D02*
X39626539Y42326769D01*
X39626539Y42326769D02*
X39509308Y42326769D01*
X39509308Y42326769D02*
X39503928Y42634254D01*
X39503928Y42634254D02*
X39498549Y42941739D01*
X39498549Y42941739D02*
X39441399Y42971293D01*
X39441399Y42971293D02*
X39399203Y42991587D01*
X39399203Y42991587D02*
X39374230Y43000796D01*
X39374230Y43000796D02*
X39373509Y43000846D01*
X39373509Y43000846D02*
X39370071Y42982338D01*
X39370071Y42982338D02*
X39370071Y42982338D01*
G36*
X39953998Y42994966D02*
G01*
X39996850Y42978171D01*
X40046615Y42955497D01*
X40046615Y42300467D01*
X39984785Y42238637D01*
X39970662Y42224772D01*
X39931536Y42193954D01*
X39892078Y42183972D01*
X39833362Y42188567D01*
X39809456Y42191538D01*
X39747801Y42197824D01*
X39704692Y42200328D01*
X39691905Y42199945D01*
X39639446Y42195800D01*
X39576022Y42188567D01*
X39555730Y42186082D01*
X39504610Y42185105D01*
X39467207Y42200538D01*
X39424599Y42238637D01*
X39362769Y42300467D01*
X39362769Y42650657D01*
X39363251Y42754143D01*
X39364753Y42852808D01*
X39367089Y42930932D01*
X39370071Y42982338D01*
X39373509Y43000846D01*
X39374230Y43000796D01*
X39399203Y42991587D01*
X39441399Y42971293D01*
X39498549Y42941739D01*
X39503928Y42634254D01*
X39509308Y42326769D01*
X39626539Y42326769D01*
X39631885Y42663808D01*
X39633579Y42755426D01*
X39636005Y42853351D01*
X39638634Y42931094D01*
X39641246Y42982358D01*
X39643623Y43000846D01*
X39644306Y43000781D01*
X39667996Y42993980D01*
X39711546Y42979396D01*
X39773077Y42957946D01*
X39773376Y42661896D01*
X39773676Y42610468D01*
X39775754Y42510534D01*
X39779470Y42427075D01*
X39784430Y42367623D01*
X39790240Y42339713D01*
X39811024Y42324786D01*
X39853440Y42320175D01*
X39900077Y42326769D01*
X39905423Y42663808D01*
X39907336Y42749454D01*
X39911303Y42850828D01*
X39916491Y42930345D01*
X39922499Y42982264D01*
X39928927Y43000846D01*
X39953998Y42994966D01*
G37*
X39953998Y42994966D02*
X39996850Y42978171D01*
X40046615Y42955497D01*
X40046615Y42300467D01*
X39984785Y42238637D01*
X39970662Y42224772D01*
X39931536Y42193954D01*
X39892078Y42183972D01*
X39833362Y42188567D01*
X39809456Y42191538D01*
X39747801Y42197824D01*
X39704692Y42200328D01*
X39691905Y42199945D01*
X39639446Y42195800D01*
X39576022Y42188567D01*
X39555730Y42186082D01*
X39504610Y42185105D01*
X39467207Y42200538D01*
X39424599Y42238637D01*
X39362769Y42300467D01*
X39362769Y42650657D01*
X39363251Y42754143D01*
X39364753Y42852808D01*
X39367089Y42930932D01*
X39370071Y42982338D01*
X39373509Y43000846D01*
X39374230Y43000796D01*
X39399203Y42991587D01*
X39441399Y42971293D01*
X39498549Y42941739D01*
X39503928Y42634254D01*
X39509308Y42326769D01*
X39626539Y42326769D01*
X39631885Y42663808D01*
X39633579Y42755426D01*
X39636005Y42853351D01*
X39638634Y42931094D01*
X39641246Y42982358D01*
X39643623Y43000846D01*
X39644306Y43000781D01*
X39667996Y42993980D01*
X39711546Y42979396D01*
X39773077Y42957946D01*
X39773376Y42661896D01*
X39773676Y42610468D01*
X39775754Y42510534D01*
X39779470Y42427075D01*
X39784430Y42367623D01*
X39790240Y42339713D01*
X39811024Y42324786D01*
X39853440Y42320175D01*
X39900077Y42326769D01*
X39905423Y42663808D01*
X39907336Y42749454D01*
X39911303Y42850828D01*
X39916491Y42930345D01*
X39922499Y42982264D01*
X39928927Y43000846D01*
X39953998Y42994966D01*
X38195193Y42982218D02*
X38171839Y42972012D01*
X38171839Y42972012D02*
X38116098Y42927866D01*
X38116098Y42927866D02*
X38068431Y42864033D01*
X38068431Y42864033D02*
X38038952Y42795913D01*
X38038952Y42795913D02*
X38034154Y42762330D01*
X38034154Y42762330D02*
X38050240Y42715444D01*
X38050240Y42715444D02*
X38085525Y42690635D01*
X38085525Y42690635D02*
X38123356Y42675613D01*
X38123356Y42675613D02*
X38140679Y42672845D01*
X38140679Y42672845D02*
X38149114Y42692934D01*
X38149114Y42692934D02*
X38165770Y42736649D01*
X38165770Y42736649D02*
X38173077Y42756402D01*
X38173077Y42756402D02*
X38214052Y42824729D01*
X38214052Y42824729D02*
X38273378Y42858809D01*
X38273378Y42858809D02*
X38349448Y42857761D01*
X38349448Y42857761D02*
X38355082Y42856419D01*
X38355082Y42856419D02*
X38395695Y42837164D01*
X38395695Y42837164D02*
X38425552Y42799625D01*
X38425552Y42799625D02*
X38445945Y42739191D01*
X38445945Y42739191D02*
X38458164Y42651249D01*
X38458164Y42651249D02*
X38463500Y42531187D01*
X38463500Y42531187D02*
X38464000Y42467302D01*
X38464000Y42467302D02*
X38464248Y42366597D01*
X38464248Y42366597D02*
X38465874Y42297946D01*
X38465874Y42297946D02*
X38470199Y42254327D01*
X38470199Y42254327D02*
X38478546Y42228718D01*
X38478546Y42228718D02*
X38492235Y42214097D01*
X38492235Y42214097D02*
X38512589Y42203442D01*
X38512589Y42203442D02*
X38513766Y42202905D01*
X38513766Y42202905D02*
X38552962Y42186333D01*
X38552962Y42186333D02*
X38572381Y42180231D01*
X38572381Y42180231D02*
X38575365Y42198681D01*
X38575365Y42198681D02*
X38577919Y42249677D01*
X38577919Y42249677D02*
X38579860Y42326692D01*
X38579860Y42326692D02*
X38581003Y42423195D01*
X38581003Y42423195D02*
X38581231Y42493816D01*
X38581231Y42493816D02*
X38580068Y42630475D01*
X38580068Y42630475D02*
X38575521Y42734149D01*
X38575521Y42734149D02*
X38566001Y42810892D01*
X38566001Y42810892D02*
X38549919Y42866754D01*
X38549919Y42866754D02*
X38525687Y42907788D01*
X38525687Y42907788D02*
X38491714Y42940046D01*
X38491714Y42940046D02*
X38458167Y42962560D01*
X38458167Y42962560D02*
X38377501Y42992524D01*
X38377501Y42992524D02*
X38283619Y42999282D01*
X38283619Y42999282D02*
X38195193Y42982218D01*
X38195193Y42982218D02*
X38195193Y42982218D01*
G36*
X38377501Y42992524D02*
G01*
X38458167Y42962560D01*
X38491714Y42940046D01*
X38525687Y42907788D01*
X38549919Y42866754D01*
X38566001Y42810892D01*
X38575521Y42734149D01*
X38580068Y42630475D01*
X38581231Y42493816D01*
X38581003Y42423195D01*
X38579860Y42326692D01*
X38577919Y42249677D01*
X38575365Y42198681D01*
X38572381Y42180231D01*
X38552962Y42186333D01*
X38513766Y42202905D01*
X38512589Y42203442D01*
X38492235Y42214097D01*
X38478546Y42228718D01*
X38470199Y42254327D01*
X38465874Y42297946D01*
X38464248Y42366597D01*
X38464000Y42467302D01*
X38463500Y42531187D01*
X38458164Y42651249D01*
X38445945Y42739191D01*
X38425552Y42799625D01*
X38395695Y42837164D01*
X38355082Y42856419D01*
X38349448Y42857761D01*
X38273378Y42858809D01*
X38214052Y42824729D01*
X38173077Y42756402D01*
X38165770Y42736649D01*
X38149114Y42692934D01*
X38140679Y42672845D01*
X38123356Y42675613D01*
X38085525Y42690635D01*
X38050240Y42715444D01*
X38034154Y42762330D01*
X38038952Y42795913D01*
X38068431Y42864033D01*
X38116098Y42927866D01*
X38171839Y42972012D01*
X38195193Y42982218D01*
X38283619Y42999282D01*
X38377501Y42992524D01*
G37*
X38377501Y42992524D02*
X38458167Y42962560D01*
X38491714Y42940046D01*
X38525687Y42907788D01*
X38549919Y42866754D01*
X38566001Y42810892D01*
X38575521Y42734149D01*
X38580068Y42630475D01*
X38581231Y42493816D01*
X38581003Y42423195D01*
X38579860Y42326692D01*
X38577919Y42249677D01*
X38575365Y42198681D01*
X38572381Y42180231D01*
X38552962Y42186333D01*
X38513766Y42202905D01*
X38512589Y42203442D01*
X38492235Y42214097D01*
X38478546Y42228718D01*
X38470199Y42254327D01*
X38465874Y42297946D01*
X38464248Y42366597D01*
X38464000Y42467302D01*
X38463500Y42531187D01*
X38458164Y42651249D01*
X38445945Y42739191D01*
X38425552Y42799625D01*
X38395695Y42837164D01*
X38355082Y42856419D01*
X38349448Y42857761D01*
X38273378Y42858809D01*
X38214052Y42824729D01*
X38173077Y42756402D01*
X38165770Y42736649D01*
X38149114Y42692934D01*
X38140679Y42672845D01*
X38123356Y42675613D01*
X38085525Y42690635D01*
X38050240Y42715444D01*
X38034154Y42762330D01*
X38038952Y42795913D01*
X38068431Y42864033D01*
X38116098Y42927866D01*
X38171839Y42972012D01*
X38195193Y42982218D01*
X38283619Y42999282D01*
X38377501Y42992524D01*
X41052638Y42994330D02*
X40963883Y42961579D01*
X40963883Y42961579D02*
X40891978Y42903650D01*
X40891978Y42903650D02*
X40863856Y42862872D01*
X40863856Y42862872D02*
X40833198Y42788046D01*
X40833198Y42788046D02*
X40833835Y42733942D01*
X40833835Y42733942D02*
X40866013Y42697554D01*
X40866013Y42697554D02*
X40877919Y42691367D01*
X40877919Y42691367D02*
X40929325Y42672075D01*
X40929325Y42672075D02*
X40955578Y42677018D01*
X40955578Y42677018D02*
X40964470Y42709413D01*
X40964470Y42709413D02*
X40964923Y42727308D01*
X40964923Y42727308D02*
X40981203Y42793141D01*
X40981203Y42793141D02*
X41023635Y42839193D01*
X41023635Y42839193D02*
X41082612Y42861436D01*
X41082612Y42861436D02*
X41148525Y42855839D01*
X41148525Y42855839D02*
X41202105Y42826771D01*
X41202105Y42826771D02*
X41220202Y42810190D01*
X41220202Y42810190D02*
X41233029Y42790075D01*
X41233029Y42790075D02*
X41241694Y42759668D01*
X41241694Y42759668D02*
X41247304Y42712212D01*
X41247304Y42712212D02*
X41250965Y42640950D01*
X41250965Y42640950D02*
X41253785Y42539125D01*
X41253785Y42539125D02*
X41254516Y42506885D01*
X41254516Y42506885D02*
X41257180Y42396590D01*
X41257180Y42396590D02*
X41260208Y42318964D01*
X41260208Y42318964D02*
X41264750Y42267604D01*
X41264750Y42267604D02*
X41271954Y42236110D01*
X41271954Y42236110D02*
X41282967Y42218080D01*
X41282967Y42218080D02*
X41298940Y42207112D01*
X41298940Y42207112D02*
X41309166Y42202267D01*
X41309166Y42202267D02*
X41352594Y42185699D01*
X41352594Y42185699D02*
X41378158Y42180231D01*
X41378158Y42180231D02*
X41386605Y42198493D01*
X41386605Y42198493D02*
X41391761Y42253704D01*
X41391761Y42253704D02*
X41393654Y42346501D01*
X41393654Y42346501D02*
X41392311Y42477522D01*
X41392311Y42477522D02*
X41391893Y42497731D01*
X41391893Y42497731D02*
X41388942Y42617267D01*
X41388942Y42617267D02*
X41385452Y42704551D01*
X41385452Y42704551D02*
X41380486Y42766409D01*
X41380486Y42766409D02*
X41373107Y42809664D01*
X41373107Y42809664D02*
X41362376Y42841140D01*
X41362376Y42841140D02*
X41347355Y42867661D01*
X41347355Y42867661D02*
X41339498Y42879025D01*
X41339498Y42879025D02*
X41294447Y42929308D01*
X41294447Y42929308D02*
X41244060Y42968419D01*
X41244060Y42968419D02*
X41237892Y42971833D01*
X41237892Y42971833D02*
X41147542Y42998788D01*
X41147542Y42998788D02*
X41052638Y42994330D01*
X41052638Y42994330D02*
X41052638Y42994330D01*
G36*
X41237892Y42971833D02*
G01*
X41244060Y42968419D01*
X41294447Y42929308D01*
X41339498Y42879025D01*
X41347355Y42867661D01*
X41362376Y42841140D01*
X41373107Y42809664D01*
X41380486Y42766409D01*
X41385452Y42704551D01*
X41388942Y42617267D01*
X41391893Y42497731D01*
X41392311Y42477522D01*
X41393654Y42346501D01*
X41391761Y42253704D01*
X41386605Y42198493D01*
X41378158Y42180231D01*
X41352594Y42185699D01*
X41309166Y42202267D01*
X41298940Y42207112D01*
X41282967Y42218080D01*
X41271954Y42236110D01*
X41264750Y42267604D01*
X41260208Y42318964D01*
X41257180Y42396590D01*
X41254516Y42506885D01*
X41253785Y42539125D01*
X41250965Y42640950D01*
X41247304Y42712212D01*
X41241694Y42759668D01*
X41233029Y42790075D01*
X41220202Y42810190D01*
X41202105Y42826771D01*
X41148525Y42855839D01*
X41082612Y42861436D01*
X41023635Y42839193D01*
X40981203Y42793141D01*
X40964923Y42727308D01*
X40964470Y42709413D01*
X40955578Y42677018D01*
X40929325Y42672075D01*
X40877919Y42691367D01*
X40866013Y42697554D01*
X40833835Y42733942D01*
X40833198Y42788046D01*
X40863856Y42862872D01*
X40891978Y42903650D01*
X40963883Y42961579D01*
X41052638Y42994330D01*
X41147542Y42998788D01*
X41237892Y42971833D01*
G37*
X41237892Y42971833D02*
X41244060Y42968419D01*
X41294447Y42929308D01*
X41339498Y42879025D01*
X41347355Y42867661D01*
X41362376Y42841140D01*
X41373107Y42809664D01*
X41380486Y42766409D01*
X41385452Y42704551D01*
X41388942Y42617267D01*
X41391893Y42497731D01*
X41392311Y42477522D01*
X41393654Y42346501D01*
X41391761Y42253704D01*
X41386605Y42198493D01*
X41378158Y42180231D01*
X41352594Y42185699D01*
X41309166Y42202267D01*
X41298940Y42207112D01*
X41282967Y42218080D01*
X41271954Y42236110D01*
X41264750Y42267604D01*
X41260208Y42318964D01*
X41257180Y42396590D01*
X41254516Y42506885D01*
X41253785Y42539125D01*
X41250965Y42640950D01*
X41247304Y42712212D01*
X41241694Y42759668D01*
X41233029Y42790075D01*
X41220202Y42810190D01*
X41202105Y42826771D01*
X41148525Y42855839D01*
X41082612Y42861436D01*
X41023635Y42839193D01*
X40981203Y42793141D01*
X40964923Y42727308D01*
X40964470Y42709413D01*
X40955578Y42677018D01*
X40929325Y42672075D01*
X40877919Y42691367D01*
X40866013Y42697554D01*
X40833835Y42733942D01*
X40833198Y42788046D01*
X40863856Y42862872D01*
X40891978Y42903650D01*
X40963883Y42961579D01*
X41052638Y42994330D01*
X41147542Y42998788D01*
X41237892Y42971833D01*
X43494336Y43023911D02*
X43431633Y42987642D01*
X43431633Y42987642D02*
X43388039Y42951642D01*
X43388039Y42951642D02*
X43356155Y42913925D01*
X43356155Y42913925D02*
X43334190Y42867801D01*
X43334190Y42867801D02*
X43320351Y42806579D01*
X43320351Y42806579D02*
X43312847Y42723569D01*
X43312847Y42723569D02*
X43309883Y42612081D01*
X43309883Y42612081D02*
X43309539Y42531938D01*
X43309539Y42531938D02*
X43309539Y42236935D01*
X43309539Y42236935D02*
X43475615Y42162485D01*
X43475615Y42162485D02*
X43485385Y42485598D01*
X43485385Y42485598D02*
X43489421Y42606271D01*
X43489421Y42606271D02*
X43493656Y42693859D01*
X43493656Y42693859D02*
X43498903Y42754350D01*
X43498903Y42754350D02*
X43505975Y42793732D01*
X43505975Y42793732D02*
X43515689Y42817993D01*
X43515689Y42817993D02*
X43528856Y42833120D01*
X43528856Y42833120D02*
X43533081Y42836394D01*
X43533081Y42836394D02*
X43597091Y42861966D01*
X43597091Y42861966D02*
X43661792Y42851847D01*
X43661792Y42851847D02*
X43700308Y42825000D01*
X43700308Y42825000D02*
X43715975Y42805976D01*
X43715975Y42805976D02*
X43726820Y42781012D01*
X43726820Y42781012D02*
X43733712Y42743166D01*
X43733712Y42743166D02*
X43737521Y42685498D01*
X43737521Y42685498D02*
X43739117Y42601065D01*
X43739117Y42601065D02*
X43739385Y42513072D01*
X43739385Y42513072D02*
X43739437Y42402677D01*
X43739437Y42402677D02*
X43741328Y42324537D01*
X43741328Y42324537D02*
X43747655Y42271835D01*
X43747655Y42271835D02*
X43761017Y42237758D01*
X43761017Y42237758D02*
X43784015Y42215489D01*
X43784015Y42215489D02*
X43819246Y42198213D01*
X43819246Y42198213D02*
X43866303Y42180262D01*
X43866303Y42180262D02*
X43917697Y42160722D01*
X43917697Y42160722D02*
X43911579Y42507515D01*
X43911579Y42507515D02*
X43909116Y42632532D01*
X43909116Y42632532D02*
X43906233Y42724918D01*
X43906233Y42724918D02*
X43902102Y42791119D01*
X43902102Y42791119D02*
X43895893Y42837580D01*
X43895893Y42837580D02*
X43886774Y42870744D01*
X43886774Y42870744D02*
X43873917Y42897056D01*
X43873917Y42897056D02*
X43858416Y42920271D01*
X43858416Y42920271D02*
X43783629Y42994431D01*
X43783629Y42994431D02*
X43692372Y43037316D01*
X43692372Y43037316D02*
X43593117Y43047588D01*
X43593117Y43047588D02*
X43494336Y43023911D01*
X43494336Y43023911D02*
X43494336Y43023911D01*
G36*
X43692372Y43037316D02*
G01*
X43783629Y42994431D01*
X43858416Y42920271D01*
X43873917Y42897056D01*
X43886774Y42870744D01*
X43895893Y42837580D01*
X43902102Y42791119D01*
X43906233Y42724918D01*
X43909116Y42632532D01*
X43911579Y42507515D01*
X43917697Y42160722D01*
X43866303Y42180262D01*
X43819246Y42198213D01*
X43784015Y42215489D01*
X43761017Y42237758D01*
X43747655Y42271835D01*
X43741328Y42324537D01*
X43739437Y42402677D01*
X43739385Y42513072D01*
X43739117Y42601065D01*
X43737521Y42685498D01*
X43733712Y42743166D01*
X43726820Y42781012D01*
X43715975Y42805976D01*
X43700308Y42825000D01*
X43661792Y42851847D01*
X43597091Y42861966D01*
X43533081Y42836394D01*
X43528856Y42833120D01*
X43515689Y42817993D01*
X43505975Y42793732D01*
X43498903Y42754350D01*
X43493656Y42693859D01*
X43489421Y42606271D01*
X43485385Y42485598D01*
X43475615Y42162485D01*
X43309539Y42236935D01*
X43309539Y42531938D01*
X43309883Y42612081D01*
X43312847Y42723569D01*
X43320351Y42806579D01*
X43334190Y42867801D01*
X43356155Y42913925D01*
X43388039Y42951642D01*
X43431633Y42987642D01*
X43494336Y43023911D01*
X43593117Y43047588D01*
X43692372Y43037316D01*
G37*
X43692372Y43037316D02*
X43783629Y42994431D01*
X43858416Y42920271D01*
X43873917Y42897056D01*
X43886774Y42870744D01*
X43895893Y42837580D01*
X43902102Y42791119D01*
X43906233Y42724918D01*
X43909116Y42632532D01*
X43911579Y42507515D01*
X43917697Y42160722D01*
X43866303Y42180262D01*
X43819246Y42198213D01*
X43784015Y42215489D01*
X43761017Y42237758D01*
X43747655Y42271835D01*
X43741328Y42324537D01*
X43739437Y42402677D01*
X43739385Y42513072D01*
X43739117Y42601065D01*
X43737521Y42685498D01*
X43733712Y42743166D01*
X43726820Y42781012D01*
X43715975Y42805976D01*
X43700308Y42825000D01*
X43661792Y42851847D01*
X43597091Y42861966D01*
X43533081Y42836394D01*
X43528856Y42833120D01*
X43515689Y42817993D01*
X43505975Y42793732D01*
X43498903Y42754350D01*
X43493656Y42693859D01*
X43489421Y42606271D01*
X43485385Y42485598D01*
X43475615Y42162485D01*
X43309539Y42236935D01*
X43309539Y42531938D01*
X43309883Y42612081D01*
X43312847Y42723569D01*
X43320351Y42806579D01*
X43334190Y42867801D01*
X43356155Y42913925D01*
X43388039Y42951642D01*
X43431633Y42987642D01*
X43494336Y43023911D01*
X43593117Y43047588D01*
X43692372Y43037316D01*
X45749114Y43031744D02*
X45657536Y42983591D01*
X45657536Y42983591D02*
X45589951Y42906095D01*
X45589951Y42906095D02*
X45565943Y42856273D01*
X45565943Y42856273D02*
X45547262Y42781467D01*
X45547262Y42781467D02*
X45537699Y42686948D01*
X45537699Y42686948D02*
X45536792Y42583790D01*
X45536792Y42583790D02*
X45544079Y42483065D01*
X45544079Y42483065D02*
X45559097Y42395847D01*
X45559097Y42395847D02*
X45581385Y42333209D01*
X45581385Y42333209D02*
X45588235Y42322421D01*
X45588235Y42322421D02*
X45669368Y42241895D01*
X45669368Y42241895D02*
X45765734Y42193664D01*
X45765734Y42193664D02*
X45870299Y42179550D01*
X45870299Y42179550D02*
X45976032Y42201371D01*
X45976032Y42201371D02*
X46005457Y42214453D01*
X46005457Y42214453D02*
X46062759Y42254769D01*
X46062759Y42254769D02*
X46113050Y42308225D01*
X46113050Y42308225D02*
X46117803Y42315005D01*
X46117803Y42315005D02*
X46137122Y42347679D01*
X46137122Y42347679D02*
X46149892Y42382606D01*
X46149892Y42382606D02*
X46157436Y42428586D01*
X46157436Y42428586D02*
X46161076Y42494416D01*
X46161076Y42494416D02*
X46162135Y42588895D01*
X46162135Y42588895D02*
X46162154Y42610077D01*
X46162154Y42610077D02*
X46162106Y42616818D01*
X46162106Y42616818D02*
X45966769Y42616818D01*
X45966769Y42616818D02*
X45965632Y42527651D01*
X45965632Y42527651D02*
X45961159Y42468480D01*
X45961159Y42468480D02*
X45951754Y42430259D01*
X45951754Y42430259D02*
X45935824Y42403947D01*
X45935824Y42403947D02*
X45927692Y42395154D01*
X45927692Y42395154D02*
X45880942Y42361739D01*
X45880942Y42361739D02*
X45835553Y42363263D01*
X45835553Y42363263D02*
X45789660Y42392248D01*
X45789660Y42392248D02*
X45762288Y42423191D01*
X45762288Y42423191D02*
X45746077Y42468357D01*
X45746077Y42468357D02*
X45736974Y42539580D01*
X45736974Y42539580D02*
X45736349Y42547886D01*
X45736349Y42547886D02*
X45734796Y42676963D01*
X45734796Y42676963D02*
X45751035Y42772828D01*
X45751035Y42772828D02*
X45784848Y42834893D01*
X45784848Y42834893D02*
X45836016Y42862568D01*
X45836016Y42862568D02*
X45854280Y42864077D01*
X45854280Y42864077D02*
X45902240Y42856487D01*
X45902240Y42856487D02*
X45935047Y42830192D01*
X45935047Y42830192D02*
X45955105Y42779905D01*
X45955105Y42779905D02*
X45964822Y42700336D01*
X45964822Y42700336D02*
X45966769Y42616818D01*
X45966769Y42616818D02*
X46162106Y42616818D01*
X46162106Y42616818D02*
X46161426Y42710751D01*
X46161426Y42710751D02*
X46158371Y42781094D01*
X46158371Y42781094D02*
X46151678Y42829837D01*
X46151678Y42829837D02*
X46140040Y42865712D01*
X46140040Y42865712D02*
X46122147Y42897452D01*
X46122147Y42897452D02*
X46118192Y42903352D01*
X46118192Y42903352D02*
X46051733Y42982896D01*
X46051733Y42982896D02*
X45979315Y43029071D01*
X45979315Y43029071D02*
X45891151Y43047401D01*
X45891151Y43047401D02*
X45861213Y43048297D01*
X45861213Y43048297D02*
X45749114Y43031744D01*
X45749114Y43031744D02*
X45749114Y43031744D01*
G36*
X46162135Y42588895D02*
G01*
X46161076Y42494416D01*
X46157436Y42428586D01*
X46149892Y42382606D01*
X46137122Y42347679D01*
X46117803Y42315005D01*
X46113050Y42308225D01*
X46062759Y42254769D01*
X46005457Y42214453D01*
X45976032Y42201371D01*
X45870299Y42179550D01*
X45765734Y42193664D01*
X45669368Y42241895D01*
X45588235Y42322421D01*
X45581385Y42333209D01*
X45559097Y42395847D01*
X45544079Y42483065D01*
X45536792Y42583790D01*
X45537611Y42676963D01*
X45734796Y42676963D01*
X45736349Y42547886D01*
X45736974Y42539580D01*
X45746077Y42468357D01*
X45762288Y42423191D01*
X45789660Y42392248D01*
X45835553Y42363263D01*
X45880942Y42361739D01*
X45927692Y42395154D01*
X45935824Y42403947D01*
X45951754Y42430259D01*
X45961159Y42468480D01*
X45965632Y42527651D01*
X45966769Y42616818D01*
X45964822Y42700336D01*
X45955105Y42779905D01*
X45935047Y42830192D01*
X45902240Y42856487D01*
X45854280Y42864077D01*
X45836016Y42862568D01*
X45784848Y42834893D01*
X45751035Y42772828D01*
X45734796Y42676963D01*
X45537611Y42676963D01*
X45537699Y42686948D01*
X45547262Y42781467D01*
X45565943Y42856273D01*
X45589951Y42906095D01*
X45657536Y42983591D01*
X45749114Y43031744D01*
X45861213Y43048297D01*
X45891151Y43047401D01*
X45979315Y43029071D01*
X46051733Y42982896D01*
X46118192Y42903352D01*
X46122147Y42897452D01*
X46140040Y42865712D01*
X46151678Y42829837D01*
X46158371Y42781094D01*
X46161426Y42710751D01*
X46162106Y42616818D01*
X46162154Y42610077D01*
X46162135Y42588895D01*
G37*
X46162135Y42588895D02*
X46161076Y42494416D01*
X46157436Y42428586D01*
X46149892Y42382606D01*
X46137122Y42347679D01*
X46117803Y42315005D01*
X46113050Y42308225D01*
X46062759Y42254769D01*
X46005457Y42214453D01*
X45976032Y42201371D01*
X45870299Y42179550D01*
X45765734Y42193664D01*
X45669368Y42241895D01*
X45588235Y42322421D01*
X45581385Y42333209D01*
X45559097Y42395847D01*
X45544079Y42483065D01*
X45536792Y42583790D01*
X45537611Y42676963D01*
X45734796Y42676963D01*
X45736349Y42547886D01*
X45736974Y42539580D01*
X45746077Y42468357D01*
X45762288Y42423191D01*
X45789660Y42392248D01*
X45835553Y42363263D01*
X45880942Y42361739D01*
X45927692Y42395154D01*
X45935824Y42403947D01*
X45951754Y42430259D01*
X45961159Y42468480D01*
X45965632Y42527651D01*
X45966769Y42616818D01*
X45964822Y42700336D01*
X45955105Y42779905D01*
X45935047Y42830192D01*
X45902240Y42856487D01*
X45854280Y42864077D01*
X45836016Y42862568D01*
X45784848Y42834893D01*
X45751035Y42772828D01*
X45734796Y42676963D01*
X45537611Y42676963D01*
X45537699Y42686948D01*
X45547262Y42781467D01*
X45565943Y42856273D01*
X45589951Y42906095D01*
X45657536Y42983591D01*
X45749114Y43031744D01*
X45861213Y43048297D01*
X45891151Y43047401D01*
X45979315Y43029071D01*
X46051733Y42982896D01*
X46118192Y42903352D01*
X46122147Y42897452D01*
X46140040Y42865712D01*
X46151678Y42829837D01*
X46158371Y42781094D01*
X46161426Y42710751D01*
X46162106Y42616818D01*
X46162154Y42610077D01*
X46162135Y42588895D01*
X41626122Y49331224D02*
X41520388Y49330645D01*
X41520388Y49330645D02*
X41443868Y49329078D01*
X41443868Y49329078D02*
X41391628Y49326028D01*
X41391628Y49326028D02*
X41358737Y49321004D01*
X41358737Y49321004D02*
X41340263Y49313511D01*
X41340263Y49313511D02*
X41331273Y49303056D01*
X41331273Y49303056D02*
X41326837Y49289147D01*
X41326837Y49289147D02*
X41326406Y49287346D01*
X41326406Y49287346D02*
X41319667Y49254855D01*
X41319667Y49254855D02*
X41307192Y49190748D01*
X41307192Y49190748D02*
X41290281Y49101849D01*
X41290281Y49101849D02*
X41270229Y48994981D01*
X41270229Y48994981D02*
X41248336Y48876967D01*
X41248336Y48876967D02*
X41247571Y48872822D01*
X41247571Y48872822D02*
X41225641Y48757169D01*
X41225641Y48757169D02*
X41205123Y48654986D01*
X41205123Y48654986D02*
X41187341Y48572402D01*
X41187341Y48572402D02*
X41173619Y48515544D01*
X41173619Y48515544D02*
X41165282Y48490542D01*
X41165282Y48490542D02*
X41164884Y48490099D01*
X41164884Y48490099D02*
X41140323Y48477890D01*
X41140323Y48477890D02*
X41089685Y48457544D01*
X41089685Y48457544D02*
X41023905Y48433455D01*
X41023905Y48433455D02*
X41023539Y48433326D01*
X41023539Y48433326D02*
X40940683Y48402182D01*
X40940683Y48402182D02*
X40843000Y48362509D01*
X40843000Y48362509D02*
X40750923Y48322619D01*
X40750923Y48322619D02*
X40746566Y48320647D01*
X40746566Y48320647D02*
X40596593Y48252580D01*
X40596593Y48252580D02*
X40264502Y48479361D01*
X40264502Y48479361D02*
X40162626Y48548496D01*
X40162626Y48548496D02*
X40070343Y48610303D01*
X40070343Y48610303D02*
X39992997Y48661267D01*
X39992997Y48661267D02*
X39935936Y48697873D01*
X39935936Y48697873D02*
X39904505Y48716606D01*
X39904505Y48716606D02*
X39901521Y48717996D01*
X39901521Y48717996D02*
X39878679Y48711810D01*
X39878679Y48711810D02*
X39836018Y48681965D01*
X39836018Y48681965D02*
X39771872Y48627053D01*
X39771872Y48627053D02*
X39684579Y48545666D01*
X39684579Y48545666D02*
X39595465Y48459078D01*
X39595465Y48459078D02*
X39509559Y48373753D01*
X39509559Y48373753D02*
X39432673Y48295892D01*
X39432673Y48295892D02*
X39369436Y48230303D01*
X39369436Y48230303D02*
X39324477Y48181795D01*
X39324477Y48181795D02*
X39302424Y48155175D01*
X39302424Y48155175D02*
X39301604Y48153805D01*
X39301604Y48153805D02*
X39299166Y48135537D01*
X39299166Y48135537D02*
X39308350Y48105705D01*
X39308350Y48105705D02*
X39331426Y48060279D01*
X39331426Y48060279D02*
X39370663Y47995230D01*
X39370663Y47995230D02*
X39428330Y47906530D01*
X39428330Y47906530D02*
X39505205Y47792343D01*
X39505205Y47792343D02*
X39573430Y47691838D01*
X39573430Y47691838D02*
X39634418Y47601697D01*
X39634418Y47601697D02*
X39684644Y47527151D01*
X39684644Y47527151D02*
X39720584Y47473435D01*
X39720584Y47473435D02*
X39738713Y47445782D01*
X39738713Y47445782D02*
X39739854Y47443905D01*
X39739854Y47443905D02*
X39737641Y47417410D01*
X39737641Y47417410D02*
X39720862Y47365914D01*
X39720862Y47365914D02*
X39692858Y47299149D01*
X39692858Y47299149D02*
X39682878Y47277828D01*
X39682878Y47277828D02*
X39639328Y47182841D01*
X39639328Y47182841D02*
X39592866Y47075063D01*
X39592866Y47075063D02*
X39555123Y46981808D01*
X39555123Y46981808D02*
X39527927Y46912594D01*
X39527927Y46912594D02*
X39506325Y46859994D01*
X39506325Y46859994D02*
X39493842Y46832503D01*
X39493842Y46832503D02*
X39492291Y46830384D01*
X39492291Y46830384D02*
X39469332Y46826876D01*
X39469332Y46826876D02*
X39415214Y46817262D01*
X39415214Y46817262D02*
X39337132Y46802911D01*
X39337132Y46802911D02*
X39242281Y46785193D01*
X39242281Y46785193D02*
X39137857Y46765475D01*
X39137857Y46765475D02*
X39031056Y46745126D01*
X39031056Y46745126D02*
X38929074Y46725514D01*
X38929074Y46725514D02*
X38839106Y46708009D01*
X38839106Y46708009D02*
X38768347Y46693978D01*
X38768347Y46693978D02*
X38723994Y46684791D01*
X38723994Y46684791D02*
X38713115Y46682193D01*
X38713115Y46682193D02*
X38701878Y46675782D01*
X38701878Y46675782D02*
X38693395Y46661303D01*
X38693395Y46661303D02*
X38687286Y46633867D01*
X38687286Y46633867D02*
X38683168Y46588589D01*
X38683168Y46588589D02*
X38680659Y46520580D01*
X38680659Y46520580D02*
X38679379Y46424953D01*
X38679379Y46424953D02*
X38678946Y46296820D01*
X38678946Y46296820D02*
X38678923Y46244299D01*
X38678923Y46244299D02*
X38678923Y45817155D01*
X38678923Y45817155D02*
X38781500Y45796909D01*
X38781500Y45796909D02*
X38838569Y45785930D01*
X38838569Y45785930D02*
X38923731Y45769905D01*
X38923731Y45769905D02*
X39026628Y45750767D01*
X39026628Y45750767D02*
X39136904Y45730449D01*
X39136904Y45730449D02*
X39167385Y45724868D01*
X39167385Y45724868D02*
X39269145Y45705083D01*
X39269145Y45705083D02*
X39357795Y45685627D01*
X39357795Y45685627D02*
X39425892Y45668303D01*
X39425892Y45668303D02*
X39465996Y45654912D01*
X39465996Y45654912D02*
X39472677Y45650921D01*
X39472677Y45650921D02*
X39489081Y45622658D01*
X39489081Y45622658D02*
X39512601Y45567891D01*
X39512601Y45567891D02*
X39538684Y45497412D01*
X39538684Y45497412D02*
X39543858Y45482231D01*
X39543858Y45482231D02*
X39578044Y45388104D01*
X39578044Y45388104D02*
X39620477Y45281899D01*
X39620477Y45281899D02*
X39662003Y45186527D01*
X39662003Y45186527D02*
X39662208Y45186084D01*
X39662208Y45186084D02*
X39731360Y45036475D01*
X39731360Y45036475D02*
X39276488Y44367383D01*
X39276488Y44367383D02*
X39568500Y44074884D01*
X39568500Y44074884D02*
X39656820Y43987830D01*
X39656820Y43987830D02*
X39737375Y43911091D01*
X39737375Y43911091D02*
X39805640Y43848763D01*
X39805640Y43848763D02*
X39857092Y43804944D01*
X39857092Y43804944D02*
X39887206Y43783730D01*
X39887206Y43783730D02*
X39891526Y43782384D01*
X39891526Y43782384D02*
X39916889Y43792984D01*
X39916889Y43792984D02*
X39968642Y43822453D01*
X39968642Y43822453D02*
X40041132Y43867295D01*
X40041132Y43867295D02*
X40128706Y43924016D01*
X40128706Y43924016D02*
X40223388Y43987538D01*
X40223388Y43987538D02*
X40319484Y44052332D01*
X40319484Y44052332D02*
X40405163Y44108713D01*
X40405163Y44108713D02*
X40474984Y44153212D01*
X40474984Y44153212D02*
X40523506Y44182361D01*
X40523506Y44182361D02*
X40545218Y44192692D01*
X40545218Y44192692D02*
X40571707Y44183950D01*
X40571707Y44183950D02*
X40621938Y44160913D01*
X40621938Y44160913D02*
X40685549Y44128369D01*
X40685549Y44128369D02*
X40692292Y44124751D01*
X40692292Y44124751D02*
X40777954Y44081790D01*
X40777954Y44081790D02*
X40836694Y44060721D01*
X40836694Y44060721D02*
X40873228Y44060497D01*
X40873228Y44060497D02*
X40892269Y44080072D01*
X40892269Y44080072D02*
X40892380Y44080346D01*
X40892380Y44080346D02*
X40901898Y44103528D01*
X40901898Y44103528D02*
X40924597Y44158559D01*
X40924597Y44158559D02*
X40958718Y44241178D01*
X40958718Y44241178D02*
X41002500Y44347128D01*
X41002500Y44347128D02*
X41054184Y44472148D01*
X41054184Y44472148D02*
X41112008Y44611980D01*
X41112008Y44611980D02*
X41168009Y44747363D01*
X41168009Y44747363D02*
X41229553Y44896766D01*
X41229553Y44896766D02*
X41286061Y45035168D01*
X41286061Y45035168D02*
X41335839Y45158327D01*
X41335839Y45158327D02*
X41377194Y45261998D01*
X41377194Y45261998D02*
X41408432Y45341941D01*
X41408432Y45341941D02*
X41427859Y45393912D01*
X41427859Y45393912D02*
X41433846Y45413308D01*
X41433846Y45413308D02*
X41418832Y45435557D01*
X41418832Y45435557D02*
X41379561Y45471018D01*
X41379561Y45471018D02*
X41327193Y45510113D01*
X41327193Y45510113D02*
X41178059Y45633755D01*
X41178059Y45633755D02*
X41061489Y45775478D01*
X41061489Y45775478D02*
X40978882Y45932296D01*
X40978882Y45932296D02*
X40931634Y46101225D01*
X40931634Y46101225D02*
X40921143Y46279278D01*
X40921143Y46279278D02*
X40928769Y46361461D01*
X40928769Y46361461D02*
X40970318Y46531969D01*
X40970318Y46531969D02*
X41041877Y46682541D01*
X41041877Y46682541D02*
X41139005Y46811691D01*
X41139005Y46811691D02*
X41257266Y46917936D01*
X41257266Y46917936D02*
X41392220Y46999790D01*
X41392220Y46999790D02*
X41539429Y47055768D01*
X41539429Y47055768D02*
X41694456Y47084385D01*
X41694456Y47084385D02*
X41852861Y47084156D01*
X41852861Y47084156D02*
X42010206Y47053595D01*
X42010206Y47053595D02*
X42162054Y46991218D01*
X42162054Y46991218D02*
X42303965Y46895540D01*
X42303965Y46895540D02*
X42363197Y46841428D01*
X42363197Y46841428D02*
X42476797Y46702480D01*
X42476797Y46702480D02*
X42555894Y46550639D01*
X42555894Y46550639D02*
X42601014Y46390333D01*
X42601014Y46390333D02*
X42612684Y46225988D01*
X42612684Y46225988D02*
X42591431Y46062029D01*
X42591431Y46062029D02*
X42537780Y45902882D01*
X42537780Y45902882D02*
X42452260Y45752975D01*
X42452260Y45752975D02*
X42335395Y45616733D01*
X42335395Y45616733D02*
X42204807Y45510113D01*
X42204807Y45510113D02*
X42150412Y45469358D01*
X42150412Y45469358D02*
X42111986Y45434282D01*
X42111986Y45434282D02*
X42098154Y45413274D01*
X42098154Y45413274D02*
X42105397Y45390365D01*
X42105397Y45390365D02*
X42125995Y45335635D01*
X42125995Y45335635D02*
X42158254Y45253328D01*
X42158254Y45253328D02*
X42200479Y45147685D01*
X42200479Y45147685D02*
X42250977Y45022950D01*
X42250977Y45022950D02*
X42308052Y44883364D01*
X42308052Y44883364D02*
X42364146Y44747330D01*
X42364146Y44747330D02*
X42426033Y44597799D01*
X42426033Y44597799D02*
X42483356Y44459233D01*
X42483356Y44459233D02*
X42534356Y44335893D01*
X42534356Y44335893D02*
X42577273Y44232036D01*
X42577273Y44232036D02*
X42610347Y44151920D01*
X42610347Y44151920D02*
X42631819Y44099805D01*
X42631819Y44099805D02*
X42639775Y44080346D01*
X42639775Y44080346D02*
X42658571Y44060577D01*
X42658571Y44060577D02*
X42694926Y44060635D01*
X42694926Y44060635D02*
X42753521Y44081559D01*
X42753521Y44081559D02*
X42839032Y44124387D01*
X42839032Y44124387D02*
X42839708Y44124751D01*
X42839708Y44124751D02*
X42904093Y44157988D01*
X42904093Y44157988D02*
X42956139Y44182198D01*
X42956139Y44182198D02*
X42985488Y44192596D01*
X42985488Y44192596D02*
X42986783Y44192692D01*
X42986783Y44192692D02*
X43008876Y44182145D01*
X43008876Y44182145D02*
X43057652Y44152816D01*
X43057652Y44152816D02*
X43127669Y44108173D01*
X43127669Y44108173D02*
X43213486Y44051686D01*
X43213486Y44051686D02*
X43308612Y43987538D01*
X43308612Y43987538D02*
X43405460Y43922589D01*
X43405460Y43922589D02*
X43492747Y43866104D01*
X43492747Y43866104D02*
X43564819Y43821579D01*
X43564819Y43821579D02*
X43616023Y43792510D01*
X43616023Y43792510D02*
X43640474Y43782384D01*
X43640474Y43782384D02*
X43662990Y43795693D01*
X43662990Y43795693D02*
X43708258Y43832888D01*
X43708258Y43832888D02*
X43771756Y43889872D01*
X43771756Y43889872D02*
X43848961Y43962551D01*
X43848961Y43962551D02*
X43935349Y44046829D01*
X43935349Y44046829D02*
X43963601Y44074984D01*
X43963601Y44074984D02*
X44255713Y44367584D01*
X44255713Y44367584D02*
X44033369Y44693896D01*
X44033369Y44693896D02*
X43965798Y44794103D01*
X43965798Y44794103D02*
X43906493Y44884037D01*
X43906493Y44884037D02*
X43858783Y44958490D01*
X43858783Y44958490D02*
X43825993Y45012249D01*
X43825993Y45012249D02*
X43811452Y45040106D01*
X43811452Y45040106D02*
X43811026Y45042088D01*
X43811026Y45042088D02*
X43818692Y45068345D01*
X43818692Y45068345D02*
X43839311Y45121163D01*
X43839311Y45121163D02*
X43869315Y45191690D01*
X43869315Y45191690D02*
X43890375Y45238907D01*
X43890375Y45238907D02*
X43929752Y45329306D01*
X43929752Y45329306D02*
X43966835Y45420634D01*
X43966835Y45420634D02*
X43995585Y45497800D01*
X43995585Y45497800D02*
X44003395Y45521308D01*
X44003395Y45521308D02*
X44025583Y45584084D01*
X44025583Y45584084D02*
X44047273Y45632589D01*
X44047273Y45632589D02*
X44059187Y45650921D01*
X44059187Y45650921D02*
X44085477Y45662141D01*
X44085477Y45662141D02*
X44142858Y45678046D01*
X44142858Y45678046D02*
X44223882Y45696833D01*
X44223882Y45696833D02*
X44321105Y45716701D01*
X44321105Y45716701D02*
X44364615Y45724868D01*
X44364615Y45724868D02*
X44475104Y45745171D01*
X44475104Y45745171D02*
X44581084Y45764830D01*
X44581084Y45764830D02*
X44672199Y45781912D01*
X44672199Y45781912D02*
X44738092Y45794482D01*
X44738092Y45794482D02*
X44750500Y45796909D01*
X44750500Y45796909D02*
X44853077Y45817155D01*
X44853077Y45817155D02*
X44853077Y46244299D01*
X44853077Y46244299D02*
X44852847Y46384754D01*
X44852847Y46384754D02*
X44851901Y46491021D01*
X44851901Y46491021D02*
X44849859Y46567987D01*
X44849859Y46567987D02*
X44846338Y46620540D01*
X44846338Y46620540D02*
X44840957Y46653567D01*
X44840957Y46653567D02*
X44833334Y46671955D01*
X44833334Y46671955D02*
X44823088Y46680592D01*
X44823088Y46680592D02*
X44818885Y46682193D01*
X44818885Y46682193D02*
X44793530Y46687873D01*
X44793530Y46687873D02*
X44737516Y46699205D01*
X44737516Y46699205D02*
X44658036Y46714821D01*
X44658036Y46714821D02*
X44562288Y46733353D01*
X44562288Y46733353D02*
X44457467Y46753431D01*
X44457467Y46753431D02*
X44350768Y46773688D01*
X44350768Y46773688D02*
X44249387Y46792754D01*
X44249387Y46792754D02*
X44160521Y46809261D01*
X44160521Y46809261D02*
X44091363Y46821841D01*
X44091363Y46821841D02*
X44049111Y46829125D01*
X44049111Y46829125D02*
X44039710Y46830384D01*
X44039710Y46830384D02*
X44031193Y46847237D01*
X44031193Y46847237D02*
X44012340Y46892130D01*
X44012340Y46892130D02*
X43986676Y46956570D01*
X43986676Y46956570D02*
X43976877Y46981808D01*
X43976877Y46981808D02*
X43937352Y47079314D01*
X43937352Y47079314D02*
X43890808Y47187041D01*
X43890808Y47187041D02*
X43849123Y47277828D01*
X43849123Y47277828D02*
X43818450Y47347247D01*
X43818450Y47347247D02*
X43798044Y47404290D01*
X43798044Y47404290D02*
X43791232Y47439223D01*
X43791232Y47439223D02*
X43792318Y47443905D01*
X43792318Y47443905D02*
X43806715Y47466009D01*
X43806715Y47466009D02*
X43839588Y47515169D01*
X43839588Y47515169D02*
X43887410Y47586152D01*
X43887410Y47586152D02*
X43946652Y47673722D01*
X43946652Y47673722D02*
X44013785Y47772643D01*
X44013785Y47772643D02*
X44027059Y47792170D01*
X44027059Y47792170D02*
X44104954Y47907860D01*
X44104954Y47907860D02*
X44162213Y47995956D01*
X44162213Y47995956D02*
X44201119Y48060514D01*
X44201119Y48060514D02*
X44223956Y48105589D01*
X44223956Y48105589D02*
X44233006Y48135237D01*
X44233006Y48135237D02*
X44230552Y48153515D01*
X44230552Y48153515D02*
X44230489Y48153631D01*
X44230489Y48153631D02*
X44211173Y48177639D01*
X44211173Y48177639D02*
X44168449Y48224053D01*
X44168449Y48224053D02*
X44106949Y48288063D01*
X44106949Y48288063D02*
X44031302Y48364855D01*
X44031302Y48364855D02*
X43946139Y48449618D01*
X43946139Y48449618D02*
X43936535Y48459078D01*
X43936535Y48459078D02*
X43829210Y48563011D01*
X43829210Y48563011D02*
X43746385Y48639325D01*
X43746385Y48639325D02*
X43686395Y48689429D01*
X43686395Y48689429D02*
X43647577Y48714730D01*
X43647577Y48714730D02*
X43630480Y48717996D01*
X43630480Y48717996D02*
X43605527Y48703750D01*
X43605527Y48703750D02*
X43553745Y48670844D01*
X43553745Y48670844D02*
X43480480Y48622792D01*
X43480480Y48622792D02*
X43391080Y48563110D01*
X43391080Y48563110D02*
X43290889Y48495312D01*
X43290889Y48495312D02*
X43267499Y48479361D01*
X43267499Y48479361D02*
X42935407Y48252580D01*
X42935407Y48252580D02*
X42785435Y48320647D01*
X42785435Y48320647D02*
X42694230Y48360315D01*
X42694230Y48360315D02*
X42596331Y48400209D01*
X42596331Y48400209D02*
X42512169Y48432017D01*
X42512169Y48432017D02*
X42508462Y48433326D01*
X42508462Y48433326D02*
X42442631Y48457424D01*
X42442631Y48457424D02*
X42391884Y48477800D01*
X42391884Y48477800D02*
X42367158Y48490064D01*
X42367158Y48490064D02*
X42367116Y48490099D01*
X42367116Y48490099D02*
X42359271Y48512266D01*
X42359271Y48512266D02*
X42345934Y48566783D01*
X42345934Y48566783D02*
X42328430Y48647520D01*
X42328430Y48647520D02*
X42308083Y48748350D01*
X42308083Y48748350D02*
X42286218Y48863144D01*
X42286218Y48863144D02*
X42284429Y48872822D01*
X42284429Y48872822D02*
X42262496Y48991096D01*
X42262496Y48991096D02*
X42242360Y49098458D01*
X42242360Y49098458D02*
X42225320Y49188083D01*
X42225320Y49188083D02*
X42212672Y49253149D01*
X42212672Y49253149D02*
X42205716Y49286832D01*
X42205716Y49286832D02*
X42205594Y49287346D01*
X42205594Y49287346D02*
X42201361Y49301675D01*
X42201361Y49301675D02*
X42193129Y49312493D01*
X42193129Y49312493D02*
X42175967Y49320294D01*
X42175967Y49320294D02*
X42144942Y49325571D01*
X42144942Y49325571D02*
X42095122Y49328818D01*
X42095122Y49328818D02*
X42021576Y49330528D01*
X42021576Y49330528D02*
X41919371Y49331193D01*
X41919371Y49331193D02*
X41783575Y49331307D01*
X41783575Y49331307D02*
X41766000Y49331308D01*
X41766000Y49331308D02*
X41626122Y49331224D01*
X41626122Y49331224D02*
X41626122Y49331224D01*
G36*
X41783575Y49331307D02*
G01*
X41919371Y49331193D01*
X42021576Y49330528D01*
X42095122Y49328818D01*
X42144942Y49325571D01*
X42175967Y49320294D01*
X42193129Y49312493D01*
X42201361Y49301675D01*
X42205594Y49287346D01*
X42205716Y49286832D01*
X42212672Y49253149D01*
X42225320Y49188083D01*
X42242360Y49098458D01*
X42262496Y48991096D01*
X42284429Y48872822D01*
X42286218Y48863144D01*
X42308083Y48748350D01*
X42328430Y48647520D01*
X42345934Y48566783D01*
X42359271Y48512266D01*
X42367116Y48490099D01*
X42367158Y48490064D01*
X42391884Y48477800D01*
X42442631Y48457424D01*
X42508462Y48433326D01*
X42512169Y48432017D01*
X42596331Y48400209D01*
X42694230Y48360315D01*
X42785435Y48320647D01*
X42935407Y48252580D01*
X43267499Y48479361D01*
X43290889Y48495312D01*
X43391080Y48563110D01*
X43480480Y48622792D01*
X43553745Y48670844D01*
X43605527Y48703750D01*
X43630480Y48717996D01*
X43647577Y48714730D01*
X43686395Y48689429D01*
X43746385Y48639325D01*
X43829210Y48563011D01*
X43936535Y48459078D01*
X43946139Y48449618D01*
X44031302Y48364855D01*
X44106949Y48288063D01*
X44168449Y48224053D01*
X44211173Y48177639D01*
X44230489Y48153631D01*
X44230552Y48153515D01*
X44233006Y48135237D01*
X44223956Y48105589D01*
X44201119Y48060514D01*
X44162213Y47995956D01*
X44104954Y47907860D01*
X44027059Y47792170D01*
X44013785Y47772643D01*
X43946652Y47673722D01*
X43887410Y47586152D01*
X43839588Y47515169D01*
X43806715Y47466009D01*
X43792318Y47443905D01*
X43791232Y47439223D01*
X43798044Y47404290D01*
X43818450Y47347247D01*
X43849123Y47277828D01*
X43890808Y47187041D01*
X43937352Y47079314D01*
X43976877Y46981808D01*
X43986676Y46956570D01*
X44012340Y46892130D01*
X44031193Y46847237D01*
X44039710Y46830384D01*
X44049111Y46829125D01*
X44091363Y46821841D01*
X44160521Y46809261D01*
X44249387Y46792754D01*
X44350768Y46773688D01*
X44457467Y46753431D01*
X44562288Y46733353D01*
X44658036Y46714821D01*
X44737516Y46699205D01*
X44793530Y46687873D01*
X44818885Y46682193D01*
X44823088Y46680592D01*
X44833334Y46671955D01*
X44840957Y46653567D01*
X44846338Y46620540D01*
X44849859Y46567987D01*
X44851901Y46491021D01*
X44852847Y46384754D01*
X44853077Y46244299D01*
X44853077Y45817155D01*
X44750500Y45796909D01*
X44738092Y45794482D01*
X44672199Y45781912D01*
X44581084Y45764830D01*
X44475104Y45745171D01*
X44364615Y45724868D01*
X44321105Y45716701D01*
X44223882Y45696833D01*
X44142858Y45678046D01*
X44085477Y45662141D01*
X44059187Y45650921D01*
X44047273Y45632589D01*
X44025583Y45584084D01*
X44003395Y45521308D01*
X43995585Y45497800D01*
X43966835Y45420634D01*
X43929752Y45329306D01*
X43890375Y45238907D01*
X43869315Y45191690D01*
X43839311Y45121163D01*
X43818692Y45068345D01*
X43811026Y45042088D01*
X43811452Y45040106D01*
X43825993Y45012249D01*
X43858783Y44958490D01*
X43906493Y44884037D01*
X43965798Y44794103D01*
X44033369Y44693896D01*
X44255713Y44367584D01*
X43963601Y44074984D01*
X43935349Y44046829D01*
X43848961Y43962551D01*
X43771756Y43889872D01*
X43708258Y43832888D01*
X43662990Y43795693D01*
X43640474Y43782384D01*
X43616023Y43792510D01*
X43564819Y43821579D01*
X43492747Y43866104D01*
X43405460Y43922589D01*
X43308612Y43987538D01*
X43213486Y44051686D01*
X43127669Y44108173D01*
X43057652Y44152816D01*
X43008876Y44182145D01*
X42986783Y44192692D01*
X42985488Y44192596D01*
X42956139Y44182198D01*
X42904093Y44157988D01*
X42839708Y44124751D01*
X42839032Y44124387D01*
X42753521Y44081559D01*
X42694926Y44060635D01*
X42658571Y44060577D01*
X42639775Y44080346D01*
X42631819Y44099805D01*
X42610347Y44151920D01*
X42577273Y44232036D01*
X42534356Y44335893D01*
X42483356Y44459233D01*
X42426033Y44597799D01*
X42364146Y44747330D01*
X42308052Y44883364D01*
X42250977Y45022950D01*
X42200479Y45147685D01*
X42158254Y45253328D01*
X42125995Y45335635D01*
X42105397Y45390365D01*
X42098154Y45413274D01*
X42111986Y45434282D01*
X42150412Y45469358D01*
X42204807Y45510113D01*
X42335395Y45616733D01*
X42452260Y45752975D01*
X42537780Y45902882D01*
X42591431Y46062029D01*
X42612684Y46225988D01*
X42601014Y46390333D01*
X42555894Y46550639D01*
X42476797Y46702480D01*
X42363197Y46841428D01*
X42303965Y46895540D01*
X42162054Y46991218D01*
X42010206Y47053595D01*
X41852861Y47084156D01*
X41694456Y47084385D01*
X41539429Y47055768D01*
X41392220Y46999790D01*
X41257266Y46917936D01*
X41139005Y46811691D01*
X41041877Y46682541D01*
X40970318Y46531969D01*
X40928769Y46361461D01*
X40921143Y46279278D01*
X40931634Y46101225D01*
X40978882Y45932296D01*
X41061489Y45775478D01*
X41178059Y45633755D01*
X41327193Y45510113D01*
X41379561Y45471018D01*
X41418832Y45435557D01*
X41433846Y45413308D01*
X41427859Y45393912D01*
X41408432Y45341941D01*
X41377194Y45261998D01*
X41335839Y45158327D01*
X41286061Y45035168D01*
X41229553Y44896766D01*
X41168009Y44747363D01*
X41112008Y44611980D01*
X41054184Y44472148D01*
X41002500Y44347128D01*
X40958718Y44241178D01*
X40924597Y44158559D01*
X40901898Y44103528D01*
X40892380Y44080346D01*
X40892269Y44080072D01*
X40873228Y44060497D01*
X40836694Y44060721D01*
X40777954Y44081790D01*
X40692292Y44124751D01*
X40685549Y44128369D01*
X40621938Y44160913D01*
X40571707Y44183950D01*
X40545218Y44192692D01*
X40523506Y44182361D01*
X40474984Y44153212D01*
X40405163Y44108713D01*
X40319484Y44052332D01*
X40223388Y43987538D01*
X40128706Y43924016D01*
X40041132Y43867295D01*
X39968642Y43822453D01*
X39916889Y43792984D01*
X39891526Y43782384D01*
X39887206Y43783730D01*
X39857092Y43804944D01*
X39805640Y43848763D01*
X39737375Y43911091D01*
X39656820Y43987830D01*
X39568500Y44074884D01*
X39276488Y44367383D01*
X39731360Y45036475D01*
X39662208Y45186084D01*
X39662003Y45186527D01*
X39620477Y45281899D01*
X39578044Y45388104D01*
X39543858Y45482231D01*
X39538684Y45497412D01*
X39512601Y45567891D01*
X39489081Y45622658D01*
X39472677Y45650921D01*
X39465996Y45654912D01*
X39425892Y45668303D01*
X39357795Y45685627D01*
X39269145Y45705083D01*
X39167385Y45724868D01*
X39136904Y45730449D01*
X39026628Y45750767D01*
X38923731Y45769905D01*
X38838569Y45785930D01*
X38781500Y45796909D01*
X38678923Y45817155D01*
X38678923Y46244299D01*
X38678946Y46296820D01*
X38679379Y46424953D01*
X38680659Y46520580D01*
X38683168Y46588589D01*
X38687286Y46633867D01*
X38693395Y46661303D01*
X38701878Y46675782D01*
X38713115Y46682193D01*
X38723994Y46684791D01*
X38768347Y46693978D01*
X38839106Y46708009D01*
X38929074Y46725514D01*
X39031056Y46745126D01*
X39137857Y46765475D01*
X39242281Y46785193D01*
X39337132Y46802911D01*
X39415214Y46817262D01*
X39469332Y46826876D01*
X39492291Y46830384D01*
X39493842Y46832503D01*
X39506325Y46859994D01*
X39527927Y46912594D01*
X39555123Y46981808D01*
X39592866Y47075063D01*
X39639328Y47182841D01*
X39682878Y47277828D01*
X39692858Y47299149D01*
X39720862Y47365914D01*
X39737641Y47417410D01*
X39739854Y47443905D01*
X39738713Y47445782D01*
X39720584Y47473435D01*
X39684644Y47527151D01*
X39634418Y47601697D01*
X39573430Y47691838D01*
X39505205Y47792343D01*
X39428330Y47906530D01*
X39370663Y47995230D01*
X39331426Y48060279D01*
X39308350Y48105705D01*
X39299166Y48135537D01*
X39301604Y48153805D01*
X39302424Y48155175D01*
X39324477Y48181795D01*
X39369436Y48230303D01*
X39432673Y48295892D01*
X39509559Y48373753D01*
X39595465Y48459078D01*
X39684579Y48545666D01*
X39771872Y48627053D01*
X39836018Y48681965D01*
X39878679Y48711810D01*
X39901521Y48717996D01*
X39904505Y48716606D01*
X39935936Y48697873D01*
X39992997Y48661267D01*
X40070343Y48610303D01*
X40162626Y48548496D01*
X40264502Y48479361D01*
X40596593Y48252580D01*
X40746566Y48320647D01*
X40750923Y48322619D01*
X40843000Y48362509D01*
X40940683Y48402182D01*
X41023539Y48433326D01*
X41023905Y48433455D01*
X41089685Y48457544D01*
X41140323Y48477890D01*
X41164884Y48490099D01*
X41165282Y48490542D01*
X41173619Y48515544D01*
X41187341Y48572402D01*
X41205123Y48654986D01*
X41225641Y48757169D01*
X41247571Y48872822D01*
X41248336Y48876967D01*
X41270229Y48994981D01*
X41290281Y49101849D01*
X41307192Y49190748D01*
X41319667Y49254855D01*
X41326406Y49287346D01*
X41326837Y49289147D01*
X41331273Y49303056D01*
X41340263Y49313511D01*
X41358737Y49321004D01*
X41391628Y49326028D01*
X41443868Y49329078D01*
X41520388Y49330645D01*
X41626122Y49331224D01*
X41766000Y49331308D01*
X41783575Y49331307D01*
G37*
X41783575Y49331307D02*
X41919371Y49331193D01*
X42021576Y49330528D01*
X42095122Y49328818D01*
X42144942Y49325571D01*
X42175967Y49320294D01*
X42193129Y49312493D01*
X42201361Y49301675D01*
X42205594Y49287346D01*
X42205716Y49286832D01*
X42212672Y49253149D01*
X42225320Y49188083D01*
X42242360Y49098458D01*
X42262496Y48991096D01*
X42284429Y48872822D01*
X42286218Y48863144D01*
X42308083Y48748350D01*
X42328430Y48647520D01*
X42345934Y48566783D01*
X42359271Y48512266D01*
X42367116Y48490099D01*
X42367158Y48490064D01*
X42391884Y48477800D01*
X42442631Y48457424D01*
X42508462Y48433326D01*
X42512169Y48432017D01*
X42596331Y48400209D01*
X42694230Y48360315D01*
X42785435Y48320647D01*
X42935407Y48252580D01*
X43267499Y48479361D01*
X43290889Y48495312D01*
X43391080Y48563110D01*
X43480480Y48622792D01*
X43553745Y48670844D01*
X43605527Y48703750D01*
X43630480Y48717996D01*
X43647577Y48714730D01*
X43686395Y48689429D01*
X43746385Y48639325D01*
X43829210Y48563011D01*
X43936535Y48459078D01*
X43946139Y48449618D01*
X44031302Y48364855D01*
X44106949Y48288063D01*
X44168449Y48224053D01*
X44211173Y48177639D01*
X44230489Y48153631D01*
X44230552Y48153515D01*
X44233006Y48135237D01*
X44223956Y48105589D01*
X44201119Y48060514D01*
X44162213Y47995956D01*
X44104954Y47907860D01*
X44027059Y47792170D01*
X44013785Y47772643D01*
X43946652Y47673722D01*
X43887410Y47586152D01*
X43839588Y47515169D01*
X43806715Y47466009D01*
X43792318Y47443905D01*
X43791232Y47439223D01*
X43798044Y47404290D01*
X43818450Y47347247D01*
X43849123Y47277828D01*
X43890808Y47187041D01*
X43937352Y47079314D01*
X43976877Y46981808D01*
X43986676Y46956570D01*
X44012340Y46892130D01*
X44031193Y46847237D01*
X44039710Y46830384D01*
X44049111Y46829125D01*
X44091363Y46821841D01*
X44160521Y46809261D01*
X44249387Y46792754D01*
X44350768Y46773688D01*
X44457467Y46753431D01*
X44562288Y46733353D01*
X44658036Y46714821D01*
X44737516Y46699205D01*
X44793530Y46687873D01*
X44818885Y46682193D01*
X44823088Y46680592D01*
X44833334Y46671955D01*
X44840957Y46653567D01*
X44846338Y46620540D01*
X44849859Y46567987D01*
X44851901Y46491021D01*
X44852847Y46384754D01*
X44853077Y46244299D01*
X44853077Y45817155D01*
X44750500Y45796909D01*
X44738092Y45794482D01*
X44672199Y45781912D01*
X44581084Y45764830D01*
X44475104Y45745171D01*
X44364615Y45724868D01*
X44321105Y45716701D01*
X44223882Y45696833D01*
X44142858Y45678046D01*
X44085477Y45662141D01*
X44059187Y45650921D01*
X44047273Y45632589D01*
X44025583Y45584084D01*
X44003395Y45521308D01*
X43995585Y45497800D01*
X43966835Y45420634D01*
X43929752Y45329306D01*
X43890375Y45238907D01*
X43869315Y45191690D01*
X43839311Y45121163D01*
X43818692Y45068345D01*
X43811026Y45042088D01*
X43811452Y45040106D01*
X43825993Y45012249D01*
X43858783Y44958490D01*
X43906493Y44884037D01*
X43965798Y44794103D01*
X44033369Y44693896D01*
X44255713Y44367584D01*
X43963601Y44074984D01*
X43935349Y44046829D01*
X43848961Y43962551D01*
X43771756Y43889872D01*
X43708258Y43832888D01*
X43662990Y43795693D01*
X43640474Y43782384D01*
X43616023Y43792510D01*
X43564819Y43821579D01*
X43492747Y43866104D01*
X43405460Y43922589D01*
X43308612Y43987538D01*
X43213486Y44051686D01*
X43127669Y44108173D01*
X43057652Y44152816D01*
X43008876Y44182145D01*
X42986783Y44192692D01*
X42985488Y44192596D01*
X42956139Y44182198D01*
X42904093Y44157988D01*
X42839708Y44124751D01*
X42839032Y44124387D01*
X42753521Y44081559D01*
X42694926Y44060635D01*
X42658571Y44060577D01*
X42639775Y44080346D01*
X42631819Y44099805D01*
X42610347Y44151920D01*
X42577273Y44232036D01*
X42534356Y44335893D01*
X42483356Y44459233D01*
X42426033Y44597799D01*
X42364146Y44747330D01*
X42308052Y44883364D01*
X42250977Y45022950D01*
X42200479Y45147685D01*
X42158254Y45253328D01*
X42125995Y45335635D01*
X42105397Y45390365D01*
X42098154Y45413274D01*
X42111986Y45434282D01*
X42150412Y45469358D01*
X42204807Y45510113D01*
X42335395Y45616733D01*
X42452260Y45752975D01*
X42537780Y45902882D01*
X42591431Y46062029D01*
X42612684Y46225988D01*
X42601014Y46390333D01*
X42555894Y46550639D01*
X42476797Y46702480D01*
X42363197Y46841428D01*
X42303965Y46895540D01*
X42162054Y46991218D01*
X42010206Y47053595D01*
X41852861Y47084156D01*
X41694456Y47084385D01*
X41539429Y47055768D01*
X41392220Y46999790D01*
X41257266Y46917936D01*
X41139005Y46811691D01*
X41041877Y46682541D01*
X40970318Y46531969D01*
X40928769Y46361461D01*
X40921143Y46279278D01*
X40931634Y46101225D01*
X40978882Y45932296D01*
X41061489Y45775478D01*
X41178059Y45633755D01*
X41327193Y45510113D01*
X41379561Y45471018D01*
X41418832Y45435557D01*
X41433846Y45413308D01*
X41427859Y45393912D01*
X41408432Y45341941D01*
X41377194Y45261998D01*
X41335839Y45158327D01*
X41286061Y45035168D01*
X41229553Y44896766D01*
X41168009Y44747363D01*
X41112008Y44611980D01*
X41054184Y44472148D01*
X41002500Y44347128D01*
X40958718Y44241178D01*
X40924597Y44158559D01*
X40901898Y44103528D01*
X40892380Y44080346D01*
X40892269Y44080072D01*
X40873228Y44060497D01*
X40836694Y44060721D01*
X40777954Y44081790D01*
X40692292Y44124751D01*
X40685549Y44128369D01*
X40621938Y44160913D01*
X40571707Y44183950D01*
X40545218Y44192692D01*
X40523506Y44182361D01*
X40474984Y44153212D01*
X40405163Y44108713D01*
X40319484Y44052332D01*
X40223388Y43987538D01*
X40128706Y43924016D01*
X40041132Y43867295D01*
X39968642Y43822453D01*
X39916889Y43792984D01*
X39891526Y43782384D01*
X39887206Y43783730D01*
X39857092Y43804944D01*
X39805640Y43848763D01*
X39737375Y43911091D01*
X39656820Y43987830D01*
X39568500Y44074884D01*
X39276488Y44367383D01*
X39731360Y45036475D01*
X39662208Y45186084D01*
X39662003Y45186527D01*
X39620477Y45281899D01*
X39578044Y45388104D01*
X39543858Y45482231D01*
X39538684Y45497412D01*
X39512601Y45567891D01*
X39489081Y45622658D01*
X39472677Y45650921D01*
X39465996Y45654912D01*
X39425892Y45668303D01*
X39357795Y45685627D01*
X39269145Y45705083D01*
X39167385Y45724868D01*
X39136904Y45730449D01*
X39026628Y45750767D01*
X38923731Y45769905D01*
X38838569Y45785930D01*
X38781500Y45796909D01*
X38678923Y45817155D01*
X38678923Y46244299D01*
X38678946Y46296820D01*
X38679379Y46424953D01*
X38680659Y46520580D01*
X38683168Y46588589D01*
X38687286Y46633867D01*
X38693395Y46661303D01*
X38701878Y46675782D01*
X38713115Y46682193D01*
X38723994Y46684791D01*
X38768347Y46693978D01*
X38839106Y46708009D01*
X38929074Y46725514D01*
X39031056Y46745126D01*
X39137857Y46765475D01*
X39242281Y46785193D01*
X39337132Y46802911D01*
X39415214Y46817262D01*
X39469332Y46826876D01*
X39492291Y46830384D01*
X39493842Y46832503D01*
X39506325Y46859994D01*
X39527927Y46912594D01*
X39555123Y46981808D01*
X39592866Y47075063D01*
X39639328Y47182841D01*
X39682878Y47277828D01*
X39692858Y47299149D01*
X39720862Y47365914D01*
X39737641Y47417410D01*
X39739854Y47443905D01*
X39738713Y47445782D01*
X39720584Y47473435D01*
X39684644Y47527151D01*
X39634418Y47601697D01*
X39573430Y47691838D01*
X39505205Y47792343D01*
X39428330Y47906530D01*
X39370663Y47995230D01*
X39331426Y48060279D01*
X39308350Y48105705D01*
X39299166Y48135537D01*
X39301604Y48153805D01*
X39302424Y48155175D01*
X39324477Y48181795D01*
X39369436Y48230303D01*
X39432673Y48295892D01*
X39509559Y48373753D01*
X39595465Y48459078D01*
X39684579Y48545666D01*
X39771872Y48627053D01*
X39836018Y48681965D01*
X39878679Y48711810D01*
X39901521Y48717996D01*
X39904505Y48716606D01*
X39935936Y48697873D01*
X39992997Y48661267D01*
X40070343Y48610303D01*
X40162626Y48548496D01*
X40264502Y48479361D01*
X40596593Y48252580D01*
X40746566Y48320647D01*
X40750923Y48322619D01*
X40843000Y48362509D01*
X40940683Y48402182D01*
X41023539Y48433326D01*
X41023905Y48433455D01*
X41089685Y48457544D01*
X41140323Y48477890D01*
X41164884Y48490099D01*
X41165282Y48490542D01*
X41173619Y48515544D01*
X41187341Y48572402D01*
X41205123Y48654986D01*
X41225641Y48757169D01*
X41247571Y48872822D01*
X41248336Y48876967D01*
X41270229Y48994981D01*
X41290281Y49101849D01*
X41307192Y49190748D01*
X41319667Y49254855D01*
X41326406Y49287346D01*
X41326837Y49289147D01*
X41331273Y49303056D01*
X41340263Y49313511D01*
X41358737Y49321004D01*
X41391628Y49326028D01*
X41443868Y49329078D01*
X41520388Y49330645D01*
X41626122Y49331224D01*
X41766000Y49331308D01*
X41783575Y49331307D01*
X41712499Y42992697D02*
X41635940Y42964267D01*
X41635940Y42964267D02*
X41635064Y42963721D01*
X41635064Y42963721D02*
X41587715Y42928873D01*
X41587715Y42928873D02*
X41552759Y42888148D01*
X41552759Y42888148D02*
X41528175Y42835075D01*
X41528175Y42835075D02*
X41511938Y42763186D01*
X41511938Y42763186D02*
X41502025Y42666008D01*
X41502025Y42666008D02*
X41496414Y42537072D01*
X41496414Y42537072D02*
X41495923Y42518702D01*
X41495923Y42518702D02*
X41488859Y42241713D01*
X41488859Y42241713D02*
X41548305Y42210972D01*
X41548305Y42210972D02*
X41591319Y42190198D01*
X41591319Y42190198D02*
X41617290Y42180354D01*
X41617290Y42180354D02*
X41618491Y42180231D01*
X41618491Y42180231D02*
X41622986Y42198394D01*
X41622986Y42198394D02*
X41626556Y42247388D01*
X41626556Y42247388D02*
X41628752Y42318969D01*
X41628752Y42318969D02*
X41629231Y42376932D01*
X41629231Y42376932D02*
X41629242Y42470830D01*
X41629242Y42470830D02*
X41633534Y42529797D01*
X41633534Y42529797D02*
X41648497Y42557921D01*
X41648497Y42557921D02*
X41680518Y42559294D01*
X41680518Y42559294D02*
X41735986Y42538002D01*
X41735986Y42538002D02*
X41819731Y42498864D01*
X41819731Y42498864D02*
X41881311Y42466357D01*
X41881311Y42466357D02*
X41912983Y42438155D01*
X41912983Y42438155D02*
X41922294Y42407418D01*
X41922294Y42407418D02*
X41922308Y42405896D01*
X41922308Y42405896D02*
X41906943Y42352946D01*
X41906943Y42352946D02*
X41861453Y42324340D01*
X41861453Y42324340D02*
X41791834Y42320197D01*
X41791834Y42320197D02*
X41741687Y42320916D01*
X41741687Y42320916D02*
X41715246Y42306473D01*
X41715246Y42306473D02*
X41698757Y42271782D01*
X41698757Y42271782D02*
X41689267Y42227584D01*
X41689267Y42227584D02*
X41702943Y42202507D01*
X41702943Y42202507D02*
X41708093Y42198918D01*
X41708093Y42198918D02*
X41756575Y42184504D01*
X41756575Y42184504D02*
X41824469Y42182463D01*
X41824469Y42182463D02*
X41894388Y42192017D01*
X41894388Y42192017D02*
X41943932Y42209478D01*
X41943932Y42209478D02*
X42012430Y42267636D01*
X42012430Y42267636D02*
X42051366Y42348592D01*
X42051366Y42348592D02*
X42059077Y42411840D01*
X42059077Y42411840D02*
X42053193Y42468889D01*
X42053193Y42468889D02*
X42031899Y42515458D01*
X42031899Y42515458D02*
X41989735Y42556819D01*
X41989735Y42556819D02*
X41921241Y42598245D01*
X41921241Y42598245D02*
X41820956Y42645007D01*
X41820956Y42645007D02*
X41814846Y42647650D01*
X41814846Y42647650D02*
X41724510Y42689383D01*
X41724510Y42689383D02*
X41668765Y42723609D01*
X41668765Y42723609D02*
X41644871Y42754365D01*
X41644871Y42754365D02*
X41650087Y42785689D01*
X41650087Y42785689D02*
X41681672Y42821617D01*
X41681672Y42821617D02*
X41691117Y42829884D01*
X41691117Y42829884D02*
X41754383Y42861942D01*
X41754383Y42861942D02*
X41819936Y42860593D01*
X41819936Y42860593D02*
X41877028Y42829162D01*
X41877028Y42829162D02*
X41914907Y42770976D01*
X41914907Y42770976D02*
X41918426Y42759554D01*
X41918426Y42759554D02*
X41952700Y42704163D01*
X41952700Y42704163D02*
X41996191Y42677482D01*
X41996191Y42677482D02*
X42059077Y42651040D01*
X42059077Y42651040D02*
X42059077Y42719452D01*
X42059077Y42719452D02*
X42039948Y42818890D01*
X42039948Y42818890D02*
X41983169Y42910098D01*
X41983169Y42910098D02*
X41953622Y42940611D01*
X41953622Y42940611D02*
X41886458Y42979772D01*
X41886458Y42979772D02*
X41801044Y42997500D01*
X41801044Y42997500D02*
X41712499Y42992697D01*
X41712499Y42992697D02*
X41712499Y42992697D01*
G36*
X41886458Y42979772D02*
G01*
X41953622Y42940611D01*
X41983169Y42910098D01*
X42039948Y42818890D01*
X42059077Y42719452D01*
X42059077Y42651040D01*
X41996191Y42677482D01*
X41952700Y42704163D01*
X41918426Y42759554D01*
X41914907Y42770976D01*
X41877028Y42829162D01*
X41819936Y42860593D01*
X41754383Y42861942D01*
X41691117Y42829884D01*
X41681672Y42821617D01*
X41650087Y42785689D01*
X41644871Y42754365D01*
X41668765Y42723609D01*
X41724510Y42689383D01*
X41814846Y42647650D01*
X41820956Y42645007D01*
X41921241Y42598245D01*
X41989735Y42556819D01*
X42031899Y42515458D01*
X42053193Y42468889D01*
X42059077Y42411840D01*
X42051366Y42348592D01*
X42012430Y42267636D01*
X41943932Y42209478D01*
X41894388Y42192017D01*
X41824469Y42182463D01*
X41756575Y42184504D01*
X41708093Y42198918D01*
X41702943Y42202507D01*
X41689267Y42227584D01*
X41698757Y42271782D01*
X41715246Y42306473D01*
X41741687Y42320916D01*
X41791834Y42320197D01*
X41861453Y42324340D01*
X41906943Y42352946D01*
X41922308Y42405896D01*
X41922294Y42407418D01*
X41912983Y42438155D01*
X41881311Y42466357D01*
X41819731Y42498864D01*
X41735986Y42538002D01*
X41680518Y42559294D01*
X41648497Y42557921D01*
X41633534Y42529797D01*
X41629242Y42470830D01*
X41629231Y42376932D01*
X41628752Y42318969D01*
X41626556Y42247388D01*
X41622986Y42198394D01*
X41618491Y42180231D01*
X41617290Y42180354D01*
X41591319Y42190198D01*
X41548305Y42210972D01*
X41488859Y42241713D01*
X41495923Y42518702D01*
X41496414Y42537072D01*
X41502025Y42666008D01*
X41511938Y42763186D01*
X41528175Y42835075D01*
X41552759Y42888148D01*
X41587715Y42928873D01*
X41635064Y42963721D01*
X41635940Y42964267D01*
X41712499Y42992697D01*
X41801044Y42997500D01*
X41886458Y42979772D01*
G37*
X41886458Y42979772D02*
X41953622Y42940611D01*
X41983169Y42910098D01*
X42039948Y42818890D01*
X42059077Y42719452D01*
X42059077Y42651040D01*
X41996191Y42677482D01*
X41952700Y42704163D01*
X41918426Y42759554D01*
X41914907Y42770976D01*
X41877028Y42829162D01*
X41819936Y42860593D01*
X41754383Y42861942D01*
X41691117Y42829884D01*
X41681672Y42821617D01*
X41650087Y42785689D01*
X41644871Y42754365D01*
X41668765Y42723609D01*
X41724510Y42689383D01*
X41814846Y42647650D01*
X41820956Y42645007D01*
X41921241Y42598245D01*
X41989735Y42556819D01*
X42031899Y42515458D01*
X42053193Y42468889D01*
X42059077Y42411840D01*
X42051366Y42348592D01*
X42012430Y42267636D01*
X41943932Y42209478D01*
X41894388Y42192017D01*
X41824469Y42182463D01*
X41756575Y42184504D01*
X41708093Y42198918D01*
X41702943Y42202507D01*
X41689267Y42227584D01*
X41698757Y42271782D01*
X41715246Y42306473D01*
X41741687Y42320916D01*
X41791834Y42320197D01*
X41861453Y42324340D01*
X41906943Y42352946D01*
X41922308Y42405896D01*
X41922294Y42407418D01*
X41912983Y42438155D01*
X41881311Y42466357D01*
X41819731Y42498864D01*
X41735986Y42538002D01*
X41680518Y42559294D01*
X41648497Y42557921D01*
X41633534Y42529797D01*
X41629242Y42470830D01*
X41629231Y42376932D01*
X41628752Y42318969D01*
X41626556Y42247388D01*
X41622986Y42198394D01*
X41618491Y42180231D01*
X41617290Y42180354D01*
X41591319Y42190198D01*
X41548305Y42210972D01*
X41488859Y42241713D01*
X41495923Y42518702D01*
X41496414Y42537072D01*
X41502025Y42666008D01*
X41511938Y42763186D01*
X41528175Y42835075D01*
X41552759Y42888148D01*
X41587715Y42928873D01*
X41635064Y42963721D01*
X41635940Y42964267D01*
X41712499Y42992697D01*
X41801044Y42997500D01*
X41886458Y42979772D01*
X44997114Y43034495D02*
X44922461Y42997273D01*
X44922461Y42997273D02*
X44856569Y42928739D01*
X44856569Y42928739D02*
X44838423Y42903352D01*
X44838423Y42903352D02*
X44818655Y42870134D01*
X44818655Y42870134D02*
X44805828Y42834055D01*
X44805828Y42834055D02*
X44798490Y42785902D01*
X44798490Y42785902D02*
X44795187Y42716464D01*
X44795187Y42716464D02*
X44794462Y42624794D01*
X44794462Y42624794D02*
X44797737Y42499170D01*
X44797737Y42499170D02*
X44809123Y42404846D01*
X44809123Y42404846D02*
X44830959Y42334477D01*
X44830959Y42334477D02*
X44865581Y42280714D01*
X44865581Y42280714D02*
X44915330Y42236212D01*
X44915330Y42236212D02*
X44918986Y42233577D01*
X44918986Y42233577D02*
X44968015Y42206623D01*
X44968015Y42206623D02*
X45027055Y42193288D01*
X45027055Y42193288D02*
X45102141Y42190000D01*
X45102141Y42190000D02*
X45224205Y42190000D01*
X45224205Y42190000D02*
X45224256Y42071503D01*
X45224256Y42071503D02*
X45225392Y42005508D01*
X45225392Y42005508D02*
X45232314Y41966798D01*
X45232314Y41966798D02*
X45250402Y41943581D01*
X45250402Y41943581D02*
X45285038Y41924067D01*
X45285038Y41924067D02*
X45293355Y41920080D01*
X45293355Y41920080D02*
X45332280Y41901397D01*
X45332280Y41901397D02*
X45362417Y41889597D01*
X45362417Y41889597D02*
X45384826Y41888578D01*
X45384826Y41888578D02*
X45400567Y41902239D01*
X45400567Y41902239D02*
X45410698Y41934478D01*
X45410698Y41934478D02*
X45416277Y41989196D01*
X45416277Y41989196D02*
X45418365Y42070289D01*
X45418365Y42070289D02*
X45418019Y42181656D01*
X45418019Y42181656D02*
X45416300Y42327198D01*
X45416300Y42327198D02*
X45415763Y42370731D01*
X45415763Y42370731D02*
X45413828Y42520795D01*
X45413828Y42520795D02*
X45412096Y42618958D01*
X45412096Y42618958D02*
X45224308Y42618958D01*
X45224308Y42618958D02*
X45223252Y42535636D01*
X45223252Y42535636D02*
X45218562Y42481120D01*
X45218562Y42481120D02*
X45207949Y42445163D01*
X45207949Y42445163D02*
X45189128Y42417518D01*
X45189128Y42417518D02*
X45176350Y42404035D01*
X45176350Y42404035D02*
X45124110Y42364583D01*
X45124110Y42364583D02*
X45077858Y42361372D01*
X45077858Y42361372D02*
X45030133Y42393951D01*
X45030133Y42393951D02*
X45028923Y42395154D01*
X45028923Y42395154D02*
X45009506Y42420332D01*
X45009506Y42420332D02*
X44997693Y42454553D01*
X44997693Y42454553D02*
X44991735Y42507252D01*
X44991735Y42507252D02*
X44989880Y42587869D01*
X44989880Y42587869D02*
X44989846Y42605729D01*
X44989846Y42605729D02*
X44994330Y42716825D01*
X44994330Y42716825D02*
X45008926Y42793839D01*
X45008926Y42793839D02*
X45035350Y42840853D01*
X45035350Y42840853D02*
X45075317Y42861950D01*
X45075317Y42861950D02*
X45098416Y42864077D01*
X45098416Y42864077D02*
X45153238Y42854100D01*
X45153238Y42854100D02*
X45190842Y42821248D01*
X45190842Y42821248D02*
X45213477Y42761143D01*
X45213477Y42761143D02*
X45223394Y42669402D01*
X45223394Y42669402D02*
X45224308Y42618958D01*
X45224308Y42618958D02*
X45412096Y42618958D01*
X45412096Y42618958D02*
X45411778Y42636940D01*
X45411778Y42636940D02*
X45409127Y42724321D01*
X45409127Y42724321D02*
X45405394Y42788095D01*
X45405394Y42788095D02*
X45400093Y42833418D01*
X45400093Y42833418D02*
X45392742Y42865445D01*
X45392742Y42865445D02*
X45382857Y42889332D01*
X45382857Y42889332D02*
X45369954Y42910236D01*
X45369954Y42910236D02*
X45364421Y42918102D01*
X45364421Y42918102D02*
X45291031Y42992405D01*
X45291031Y42992405D02*
X45198240Y43034533D01*
X45198240Y43034533D02*
X45090904Y43046278D01*
X45090904Y43046278D02*
X44997114Y43034495D01*
X44997114Y43034495D02*
X44997114Y43034495D01*
G36*
X45415763Y42370731D02*
G01*
X45416300Y42327198D01*
X45418019Y42181656D01*
X45418365Y42070289D01*
X45416277Y41989196D01*
X45410698Y41934478D01*
X45400567Y41902239D01*
X45384826Y41888578D01*
X45362417Y41889597D01*
X45332280Y41901397D01*
X45293355Y41920080D01*
X45285038Y41924067D01*
X45250402Y41943581D01*
X45232314Y41966798D01*
X45225392Y42005508D01*
X45224256Y42071503D01*
X45224205Y42190000D01*
X45102141Y42190000D01*
X45027055Y42193288D01*
X44968015Y42206623D01*
X44918986Y42233577D01*
X44915330Y42236212D01*
X44865581Y42280714D01*
X44830959Y42334477D01*
X44809123Y42404846D01*
X44797737Y42499170D01*
X44794959Y42605729D01*
X44989846Y42605729D01*
X44989880Y42587869D01*
X44991735Y42507252D01*
X44997693Y42454553D01*
X45009506Y42420332D01*
X45028923Y42395154D01*
X45030133Y42393951D01*
X45077858Y42361372D01*
X45124110Y42364583D01*
X45176350Y42404035D01*
X45189128Y42417518D01*
X45207949Y42445163D01*
X45218562Y42481120D01*
X45223252Y42535636D01*
X45224308Y42618958D01*
X45223394Y42669402D01*
X45213477Y42761143D01*
X45190842Y42821248D01*
X45153238Y42854100D01*
X45098416Y42864077D01*
X45075317Y42861950D01*
X45035350Y42840853D01*
X45008926Y42793839D01*
X44994330Y42716825D01*
X44989846Y42605729D01*
X44794959Y42605729D01*
X44794462Y42624794D01*
X44795187Y42716464D01*
X44798490Y42785902D01*
X44805828Y42834055D01*
X44818655Y42870134D01*
X44838423Y42903352D01*
X44856569Y42928739D01*
X44922461Y42997273D01*
X44997114Y43034495D01*
X45090904Y43046278D01*
X45198240Y43034533D01*
X45291031Y42992405D01*
X45364421Y42918102D01*
X45369954Y42910236D01*
X45382857Y42889332D01*
X45392742Y42865445D01*
X45400093Y42833418D01*
X45405394Y42788095D01*
X45409127Y42724321D01*
X45411778Y42636940D01*
X45412096Y42618958D01*
X45413828Y42520795D01*
X45415763Y42370731D01*
G37*
X45415763Y42370731D02*
X45416300Y42327198D01*
X45418019Y42181656D01*
X45418365Y42070289D01*
X45416277Y41989196D01*
X45410698Y41934478D01*
X45400567Y41902239D01*
X45384826Y41888578D01*
X45362417Y41889597D01*
X45332280Y41901397D01*
X45293355Y41920080D01*
X45285038Y41924067D01*
X45250402Y41943581D01*
X45232314Y41966798D01*
X45225392Y42005508D01*
X45224256Y42071503D01*
X45224205Y42190000D01*
X45102141Y42190000D01*
X45027055Y42193288D01*
X44968015Y42206623D01*
X44918986Y42233577D01*
X44915330Y42236212D01*
X44865581Y42280714D01*
X44830959Y42334477D01*
X44809123Y42404846D01*
X44797737Y42499170D01*
X44794959Y42605729D01*
X44989846Y42605729D01*
X44989880Y42587869D01*
X44991735Y42507252D01*
X44997693Y42454553D01*
X45009506Y42420332D01*
X45028923Y42395154D01*
X45030133Y42393951D01*
X45077858Y42361372D01*
X45124110Y42364583D01*
X45176350Y42404035D01*
X45189128Y42417518D01*
X45207949Y42445163D01*
X45218562Y42481120D01*
X45223252Y42535636D01*
X45224308Y42618958D01*
X45223394Y42669402D01*
X45213477Y42761143D01*
X45190842Y42821248D01*
X45153238Y42854100D01*
X45098416Y42864077D01*
X45075317Y42861950D01*
X45035350Y42840853D01*
X45008926Y42793839D01*
X44994330Y42716825D01*
X44989846Y42605729D01*
X44794959Y42605729D01*
X44794462Y42624794D01*
X44795187Y42716464D01*
X44798490Y42785902D01*
X44805828Y42834055D01*
X44818655Y42870134D01*
X44838423Y42903352D01*
X44856569Y42928739D01*
X44922461Y42997273D01*
X44997114Y43034495D01*
X45090904Y43046278D01*
X45198240Y43034533D01*
X45291031Y42992405D01*
X45364421Y42918102D01*
X45369954Y42910236D01*
X45382857Y42889332D01*
X45392742Y42865445D01*
X45400093Y42833418D01*
X45405394Y42788095D01*
X45409127Y42724321D01*
X45411778Y42636940D01*
X45412096Y42618958D01*
X45413828Y42520795D01*
X45415763Y42370731D01*
X40163919Y42838711D02*
X40164167Y42692680D01*
X40164167Y42692680D02*
X40165128Y42580345D01*
X40165128Y42580345D02*
X40167206Y42496322D01*
X40167206Y42496322D02*
X40170807Y42435231D01*
X40170807Y42435231D02*
X40176335Y42391691D01*
X40176335Y42391691D02*
X40184196Y42360321D01*
X40184196Y42360321D02*
X40194793Y42335738D01*
X40194793Y42335738D02*
X40202818Y42321706D01*
X40202818Y42321706D02*
X40269272Y42245612D01*
X40269272Y42245612D02*
X40353530Y42197916D01*
X40353530Y42197916D02*
X40446751Y42180801D01*
X40446751Y42180801D02*
X40540100Y42196454D01*
X40540100Y42196454D02*
X40595688Y42224582D01*
X40595688Y42224582D02*
X40654043Y42273240D01*
X40654043Y42273240D02*
X40693814Y42332667D01*
X40693814Y42332667D02*
X40717810Y42410493D01*
X40717810Y42410493D02*
X40728839Y42514348D01*
X40728839Y42514348D02*
X40730401Y42590538D01*
X40730401Y42590538D02*
X40730191Y42596014D01*
X40730191Y42596014D02*
X40593692Y42596014D01*
X40593692Y42596014D02*
X40592859Y42508645D01*
X40592859Y42508645D02*
X40589039Y42450808D01*
X40589039Y42450808D02*
X40580254Y42412971D01*
X40580254Y42412971D02*
X40564526Y42385602D01*
X40564526Y42385602D02*
X40545734Y42364958D01*
X40545734Y42364958D02*
X40482625Y42325110D01*
X40482625Y42325110D02*
X40414863Y42321705D01*
X40414863Y42321705D02*
X40350821Y42354975D01*
X40350821Y42354975D02*
X40345836Y42359483D01*
X40345836Y42359483D02*
X40324561Y42382933D01*
X40324561Y42382933D02*
X40311221Y42410834D01*
X40311221Y42410834D02*
X40303999Y42452359D01*
X40303999Y42452359D02*
X40301077Y42516684D01*
X40301077Y42516684D02*
X40300615Y42587800D01*
X40300615Y42587800D02*
X40301617Y42677142D01*
X40301617Y42677142D02*
X40305762Y42736742D01*
X40305762Y42736742D02*
X40314764Y42775911D01*
X40314764Y42775911D02*
X40330333Y42803960D01*
X40330333Y42803960D02*
X40343098Y42818856D01*
X40343098Y42818856D02*
X40402400Y42856425D01*
X40402400Y42856425D02*
X40470699Y42860943D01*
X40470699Y42860943D02*
X40535890Y42832247D01*
X40535890Y42832247D02*
X40548472Y42821594D01*
X40548472Y42821594D02*
X40569889Y42797937D01*
X40569889Y42797937D02*
X40583256Y42769749D01*
X40583256Y42769749D02*
X40590434Y42727755D01*
X40590434Y42727755D02*
X40593281Y42662681D01*
X40593281Y42662681D02*
X40593692Y42596014D01*
X40593692Y42596014D02*
X40730191Y42596014D01*
X40730191Y42596014D02*
X40725678Y42713235D01*
X40725678Y42713235D02*
X40709638Y42805423D01*
X40709638Y42805423D02*
X40679472Y42874731D01*
X40679472Y42874731D02*
X40632371Y42928789D01*
X40632371Y42928789D02*
X40595688Y42956495D01*
X40595688Y42956495D02*
X40529010Y42986428D01*
X40529010Y42986428D02*
X40451728Y43000322D01*
X40451728Y43000322D02*
X40379890Y42996603D01*
X40379890Y42996603D02*
X40339692Y42981600D01*
X40339692Y42981600D02*
X40323918Y42977330D01*
X40323918Y42977330D02*
X40313450Y42993250D01*
X40313450Y42993250D02*
X40306144Y43035911D01*
X40306144Y43035911D02*
X40300615Y43100894D01*
X40300615Y43100894D02*
X40294563Y43173268D01*
X40294563Y43173268D02*
X40286156Y43216813D01*
X40286156Y43216813D02*
X40270859Y43241713D01*
X40270859Y43241713D02*
X40244136Y43258155D01*
X40244136Y43258155D02*
X40227346Y43265436D01*
X40227346Y43265436D02*
X40163846Y43292037D01*
X40163846Y43292037D02*
X40163919Y42838711D01*
X40163919Y42838711D02*
X40163919Y42838711D01*
G36*
X40728839Y42514348D02*
G01*
X40717810Y42410493D01*
X40693814Y42332667D01*
X40654043Y42273240D01*
X40595688Y42224582D01*
X40540100Y42196454D01*
X40446751Y42180801D01*
X40353530Y42197916D01*
X40269272Y42245612D01*
X40202818Y42321706D01*
X40194793Y42335738D01*
X40184196Y42360321D01*
X40176335Y42391691D01*
X40170807Y42435231D01*
X40167206Y42496322D01*
X40165128Y42580345D01*
X40165064Y42587800D01*
X40300615Y42587800D01*
X40301077Y42516684D01*
X40303999Y42452359D01*
X40311221Y42410834D01*
X40324561Y42382933D01*
X40345836Y42359483D01*
X40350821Y42354975D01*
X40414863Y42321705D01*
X40482625Y42325110D01*
X40545734Y42364958D01*
X40564526Y42385602D01*
X40580254Y42412971D01*
X40589039Y42450808D01*
X40592859Y42508645D01*
X40593692Y42596014D01*
X40593281Y42662681D01*
X40590434Y42727755D01*
X40583256Y42769749D01*
X40569889Y42797937D01*
X40548472Y42821594D01*
X40535890Y42832247D01*
X40470699Y42860943D01*
X40402400Y42856425D01*
X40343098Y42818856D01*
X40330333Y42803960D01*
X40314764Y42775911D01*
X40305762Y42736742D01*
X40301617Y42677142D01*
X40300615Y42587800D01*
X40165064Y42587800D01*
X40164167Y42692680D01*
X40163919Y42838711D01*
X40163846Y43292037D01*
X40227346Y43265436D01*
X40244136Y43258155D01*
X40270859Y43241713D01*
X40286156Y43216813D01*
X40294563Y43173268D01*
X40300615Y43100894D01*
X40306144Y43035911D01*
X40313450Y42993250D01*
X40323918Y42977330D01*
X40339692Y42981600D01*
X40379890Y42996603D01*
X40451728Y43000322D01*
X40529010Y42986428D01*
X40595688Y42956495D01*
X40632371Y42928789D01*
X40679472Y42874731D01*
X40709638Y42805423D01*
X40725678Y42713235D01*
X40730191Y42596014D01*
X40730401Y42590538D01*
X40728839Y42514348D01*
G37*
X40728839Y42514348D02*
X40717810Y42410493D01*
X40693814Y42332667D01*
X40654043Y42273240D01*
X40595688Y42224582D01*
X40540100Y42196454D01*
X40446751Y42180801D01*
X40353530Y42197916D01*
X40269272Y42245612D01*
X40202818Y42321706D01*
X40194793Y42335738D01*
X40184196Y42360321D01*
X40176335Y42391691D01*
X40170807Y42435231D01*
X40167206Y42496322D01*
X40165128Y42580345D01*
X40165064Y42587800D01*
X40300615Y42587800D01*
X40301077Y42516684D01*
X40303999Y42452359D01*
X40311221Y42410834D01*
X40324561Y42382933D01*
X40345836Y42359483D01*
X40350821Y42354975D01*
X40414863Y42321705D01*
X40482625Y42325110D01*
X40545734Y42364958D01*
X40564526Y42385602D01*
X40580254Y42412971D01*
X40589039Y42450808D01*
X40592859Y42508645D01*
X40593692Y42596014D01*
X40593281Y42662681D01*
X40590434Y42727755D01*
X40583256Y42769749D01*
X40569889Y42797937D01*
X40548472Y42821594D01*
X40535890Y42832247D01*
X40470699Y42860943D01*
X40402400Y42856425D01*
X40343098Y42818856D01*
X40330333Y42803960D01*
X40314764Y42775911D01*
X40305762Y42736742D01*
X40301617Y42677142D01*
X40300615Y42587800D01*
X40165064Y42587800D01*
X40164167Y42692680D01*
X40163919Y42838711D01*
X40163846Y43292037D01*
X40227346Y43265436D01*
X40244136Y43258155D01*
X40270859Y43241713D01*
X40286156Y43216813D01*
X40294563Y43173268D01*
X40300615Y43100894D01*
X40306144Y43035911D01*
X40313450Y42993250D01*
X40323918Y42977330D01*
X40339692Y42981600D01*
X40379890Y42996603D01*
X40451728Y43000322D01*
X40529010Y42986428D01*
X40595688Y42956495D01*
X40632371Y42928789D01*
X40679472Y42874731D01*
X40709638Y42805423D01*
X40725678Y42713235D01*
X40730191Y42596014D01*
X40730401Y42590538D01*
X40728839Y42514348D01*
X44231746Y43019255D02*
X44154714Y42967433D01*
X44154714Y42967433D02*
X44095184Y42892588D01*
X44095184Y42892588D02*
X44059622Y42797346D01*
X44059622Y42797346D02*
X44052429Y42727244D01*
X44052429Y42727244D02*
X44053246Y42697991D01*
X44053246Y42697991D02*
X44060086Y42675593D01*
X44060086Y42675593D02*
X44078888Y42655526D01*
X44078888Y42655526D02*
X44115592Y42633267D01*
X44115592Y42633267D02*
X44176138Y42604291D01*
X44176138Y42604291D02*
X44266466Y42564073D01*
X44266466Y42564073D02*
X44266923Y42563871D01*
X44266923Y42563871D02*
X44350067Y42525790D01*
X44350067Y42525790D02*
X44418247Y42491975D01*
X44418247Y42491975D02*
X44464495Y42466067D01*
X44464495Y42466067D02*
X44481842Y42451705D01*
X44481842Y42451705D02*
X44481846Y42451589D01*
X44481846Y42451589D02*
X44466557Y42420315D01*
X44466557Y42420315D02*
X44430804Y42385843D01*
X44430804Y42385843D02*
X44389758Y42361010D01*
X44389758Y42361010D02*
X44368963Y42356077D01*
X44368963Y42356077D02*
X44312230Y42373138D01*
X44312230Y42373138D02*
X44263373Y42415867D01*
X44263373Y42415867D02*
X44239535Y42462845D01*
X44239535Y42462845D02*
X44216603Y42497478D01*
X44216603Y42497478D02*
X44171682Y42536919D01*
X44171682Y42536919D02*
X44118877Y42570991D01*
X44118877Y42570991D02*
X44072290Y42589520D01*
X44072290Y42589520D02*
X44062548Y42590538D01*
X44062548Y42590538D02*
X44051582Y42573785D01*
X44051582Y42573785D02*
X44050921Y42530961D01*
X44050921Y42530961D02*
X44058980Y42473219D01*
X44058980Y42473219D02*
X44074173Y42411711D01*
X44074173Y42411711D02*
X44094914Y42357591D01*
X44094914Y42357591D02*
X44095962Y42355490D01*
X44095962Y42355490D02*
X44158379Y42268340D01*
X44158379Y42268340D02*
X44239274Y42209061D01*
X44239274Y42209061D02*
X44331144Y42179966D01*
X44331144Y42179966D02*
X44426487Y42183366D01*
X44426487Y42183366D02*
X44517802Y42221572D01*
X44517802Y42221572D02*
X44521862Y42224259D01*
X44521862Y42224259D02*
X44593694Y42289358D01*
X44593694Y42289358D02*
X44640927Y42374295D01*
X44640927Y42374295D02*
X44667066Y42485979D01*
X44667066Y42485979D02*
X44670574Y42517357D01*
X44670574Y42517357D02*
X44676787Y42665464D01*
X44676787Y42665464D02*
X44669339Y42734532D01*
X44669339Y42734532D02*
X44481846Y42734532D01*
X44481846Y42734532D02*
X44479410Y42691448D01*
X44479410Y42691448D02*
X44466086Y42678874D01*
X44466086Y42678874D02*
X44432868Y42688281D01*
X44432868Y42688281D02*
X44380506Y42710517D01*
X44380506Y42710517D02*
X44321976Y42738390D01*
X44321976Y42738390D02*
X44320521Y42739128D01*
X44320521Y42739128D02*
X44270911Y42765223D01*
X44270911Y42765223D02*
X44251000Y42782637D01*
X44251000Y42782637D02*
X44255910Y42800893D01*
X44255910Y42800893D02*
X44276584Y42824880D01*
X44276584Y42824880D02*
X44329181Y42859594D01*
X44329181Y42859594D02*
X44385823Y42862144D01*
X44385823Y42862144D02*
X44436631Y42836881D01*
X44436631Y42836881D02*
X44471724Y42788153D01*
X44471724Y42788153D02*
X44481846Y42734532D01*
X44481846Y42734532D02*
X44669339Y42734532D01*
X44669339Y42734532D02*
X44664008Y42783964D01*
X44664008Y42783964D02*
X44631222Y42877945D01*
X44631222Y42877945D02*
X44585579Y42943785D01*
X44585579Y42943785D02*
X44503198Y43010319D01*
X44503198Y43010319D02*
X44412454Y43043324D01*
X44412454Y43043324D02*
X44319815Y43045427D01*
X44319815Y43045427D02*
X44231746Y43019255D01*
X44231746Y43019255D02*
X44231746Y43019255D01*
G36*
X44670574Y42517357D02*
G01*
X44667066Y42485979D01*
X44640927Y42374295D01*
X44593694Y42289358D01*
X44521862Y42224259D01*
X44517802Y42221572D01*
X44426487Y42183366D01*
X44331144Y42179966D01*
X44239274Y42209061D01*
X44158379Y42268340D01*
X44095962Y42355490D01*
X44094914Y42357591D01*
X44074173Y42411711D01*
X44058980Y42473219D01*
X44050921Y42530961D01*
X44051582Y42573785D01*
X44062548Y42590538D01*
X44072290Y42589520D01*
X44118877Y42570991D01*
X44171682Y42536919D01*
X44216603Y42497478D01*
X44239535Y42462845D01*
X44263373Y42415867D01*
X44312230Y42373138D01*
X44368963Y42356077D01*
X44389758Y42361010D01*
X44430804Y42385843D01*
X44466557Y42420315D01*
X44481846Y42451589D01*
X44481842Y42451705D01*
X44464495Y42466067D01*
X44418247Y42491975D01*
X44350067Y42525790D01*
X44266923Y42563871D01*
X44266466Y42564073D01*
X44176138Y42604291D01*
X44115592Y42633267D01*
X44078888Y42655526D01*
X44060086Y42675593D01*
X44053246Y42697991D01*
X44052429Y42727244D01*
X44058113Y42782637D01*
X44251000Y42782637D01*
X44270911Y42765223D01*
X44320521Y42739128D01*
X44321976Y42738390D01*
X44380506Y42710517D01*
X44432868Y42688281D01*
X44466086Y42678874D01*
X44479410Y42691448D01*
X44481846Y42734532D01*
X44471724Y42788153D01*
X44436631Y42836881D01*
X44385823Y42862144D01*
X44329181Y42859594D01*
X44276584Y42824880D01*
X44255910Y42800893D01*
X44251000Y42782637D01*
X44058113Y42782637D01*
X44059622Y42797346D01*
X44095184Y42892588D01*
X44154714Y42967433D01*
X44231746Y43019255D01*
X44319815Y43045427D01*
X44412454Y43043324D01*
X44503198Y43010319D01*
X44585579Y42943785D01*
X44631222Y42877945D01*
X44664008Y42783964D01*
X44669339Y42734532D01*
X44676787Y42665464D01*
X44670574Y42517357D01*
G37*
X44670574Y42517357D02*
X44667066Y42485979D01*
X44640927Y42374295D01*
X44593694Y42289358D01*
X44521862Y42224259D01*
X44517802Y42221572D01*
X44426487Y42183366D01*
X44331144Y42179966D01*
X44239274Y42209061D01*
X44158379Y42268340D01*
X44095962Y42355490D01*
X44094914Y42357591D01*
X44074173Y42411711D01*
X44058980Y42473219D01*
X44050921Y42530961D01*
X44051582Y42573785D01*
X44062548Y42590538D01*
X44072290Y42589520D01*
X44118877Y42570991D01*
X44171682Y42536919D01*
X44216603Y42497478D01*
X44239535Y42462845D01*
X44263373Y42415867D01*
X44312230Y42373138D01*
X44368963Y42356077D01*
X44389758Y42361010D01*
X44430804Y42385843D01*
X44466557Y42420315D01*
X44481846Y42451589D01*
X44481842Y42451705D01*
X44464495Y42466067D01*
X44418247Y42491975D01*
X44350067Y42525790D01*
X44266923Y42563871D01*
X44266466Y42564073D01*
X44176138Y42604291D01*
X44115592Y42633267D01*
X44078888Y42655526D01*
X44060086Y42675593D01*
X44053246Y42697991D01*
X44052429Y42727244D01*
X44058113Y42782637D01*
X44251000Y42782637D01*
X44270911Y42765223D01*
X44320521Y42739128D01*
X44321976Y42738390D01*
X44380506Y42710517D01*
X44432868Y42688281D01*
X44466086Y42678874D01*
X44479410Y42691448D01*
X44481846Y42734532D01*
X44471724Y42788153D01*
X44436631Y42836881D01*
X44385823Y42862144D01*
X44329181Y42859594D01*
X44276584Y42824880D01*
X44255910Y42800893D01*
X44251000Y42782637D01*
X44058113Y42782637D01*
X44059622Y42797346D01*
X44095184Y42892588D01*
X44154714Y42967433D01*
X44231746Y43019255D01*
X44319815Y43045427D01*
X44412454Y43043324D01*
X44503198Y43010319D01*
X44585579Y42943785D01*
X44631222Y42877945D01*
X44664008Y42783964D01*
X44669339Y42734532D01*
X44676787Y42665464D01*
X44670574Y42517357D01*
X38878667Y42985472D02*
X38822410Y42959883D01*
X38822410Y42959883D02*
X38778253Y42928876D01*
X38778253Y42928876D02*
X38745899Y42894205D01*
X38745899Y42894205D02*
X38723562Y42849480D01*
X38723562Y42849480D02*
X38709454Y42788308D01*
X38709454Y42788308D02*
X38701789Y42704299D01*
X38701789Y42704299D02*
X38698780Y42591060D01*
X38698780Y42591060D02*
X38698462Y42516491D01*
X38698462Y42516491D02*
X38698462Y42225580D01*
X38698462Y42225580D02*
X38748227Y42202905D01*
X38748227Y42202905D02*
X38787424Y42186333D01*
X38787424Y42186333D02*
X38806843Y42180231D01*
X38806843Y42180231D02*
X38810558Y42198390D01*
X38810558Y42198390D02*
X38813505Y42247352D01*
X38813505Y42247352D02*
X38815309Y42318847D01*
X38815309Y42318847D02*
X38815692Y42375615D01*
X38815692Y42375615D02*
X38817339Y42457629D01*
X38817339Y42457629D02*
X38821778Y42522691D01*
X38821778Y42522691D02*
X38828260Y42562533D01*
X38828260Y42562533D02*
X38833410Y42571000D01*
X38833410Y42571000D02*
X38868023Y42562354D01*
X38868023Y42562354D02*
X38922360Y42540177D01*
X38922360Y42540177D02*
X38985278Y42510114D01*
X38985278Y42510114D02*
X39045632Y42477808D01*
X39045632Y42477808D02*
X39092279Y42448902D01*
X39092279Y42448902D02*
X39114074Y42429039D01*
X39114074Y42429039D02*
X39114161Y42428825D01*
X39114161Y42428825D02*
X39112286Y42392065D01*
X39112286Y42392065D02*
X39095475Y42356974D01*
X39095475Y42356974D02*
X39065961Y42328472D01*
X39065961Y42328472D02*
X39022884Y42318939D01*
X39022884Y42318939D02*
X38986068Y42320050D01*
X38986068Y42320050D02*
X38933926Y42320867D01*
X38933926Y42320867D02*
X38906556Y42308651D01*
X38906556Y42308651D02*
X38890118Y42276376D01*
X38890118Y42276376D02*
X38888045Y42270290D01*
X38888045Y42270290D02*
X38880919Y42224261D01*
X38880919Y42224261D02*
X38899976Y42196313D01*
X38899976Y42196313D02*
X38949647Y42182993D01*
X38949647Y42182993D02*
X39003303Y42180530D01*
X39003303Y42180530D02*
X39099858Y42198790D01*
X39099858Y42198790D02*
X39149841Y42224869D01*
X39149841Y42224869D02*
X39211571Y42286132D01*
X39211571Y42286132D02*
X39244310Y42361330D01*
X39244310Y42361330D02*
X39247247Y42440789D01*
X39247247Y42440789D02*
X39219576Y42514833D01*
X39219576Y42514833D02*
X39177953Y42561231D01*
X39177953Y42561231D02*
X39136396Y42587207D01*
X39136396Y42587207D02*
X39071078Y42620093D01*
X39071078Y42620093D02*
X38994962Y42653443D01*
X38994962Y42653443D02*
X38982274Y42658539D01*
X38982274Y42658539D02*
X38898667Y42695435D01*
X38898667Y42695435D02*
X38850470Y42727954D01*
X38850470Y42727954D02*
X38834970Y42760282D01*
X38834970Y42760282D02*
X38849450Y42796606D01*
X38849450Y42796606D02*
X38874308Y42825000D01*
X38874308Y42825000D02*
X38933061Y42859961D01*
X38933061Y42859961D02*
X38997707Y42862583D01*
X38997707Y42862583D02*
X39056992Y42835642D01*
X39056992Y42835642D02*
X39099661Y42781912D01*
X39099661Y42781912D02*
X39105261Y42768050D01*
X39105261Y42768050D02*
X39137867Y42717064D01*
X39137867Y42717064D02*
X39185470Y42679213D01*
X39185470Y42679213D02*
X39245539Y42648150D01*
X39245539Y42648150D02*
X39245539Y42736232D01*
X39245539Y42736232D02*
X39242003Y42790049D01*
X39242003Y42790049D02*
X39226844Y42832466D01*
X39226844Y42832466D02*
X39193232Y42877721D01*
X39193232Y42877721D02*
X39160965Y42912580D01*
X39160965Y42912580D02*
X39110791Y42961938D01*
X39110791Y42961938D02*
X39071807Y42988453D01*
X39071807Y42988453D02*
X39029936Y42999089D01*
X39029936Y42999089D02*
X38982540Y43000846D01*
X38982540Y43000846D02*
X38878667Y42985472D01*
X38878667Y42985472D02*
X38878667Y42985472D01*
G36*
X39029936Y42999089D02*
G01*
X39071807Y42988453D01*
X39110791Y42961938D01*
X39160965Y42912580D01*
X39193232Y42877721D01*
X39226844Y42832466D01*
X39242003Y42790049D01*
X39245539Y42736232D01*
X39245539Y42648150D01*
X39185470Y42679213D01*
X39137867Y42717064D01*
X39105261Y42768050D01*
X39099661Y42781912D01*
X39056992Y42835642D01*
X38997707Y42862583D01*
X38933061Y42859961D01*
X38874308Y42825000D01*
X38849450Y42796606D01*
X38834970Y42760282D01*
X38850470Y42727954D01*
X38898667Y42695435D01*
X38982274Y42658539D01*
X38994962Y42653443D01*
X39071078Y42620093D01*
X39136396Y42587207D01*
X39177953Y42561231D01*
X39219576Y42514833D01*
X39247247Y42440789D01*
X39244310Y42361330D01*
X39211571Y42286132D01*
X39149841Y42224869D01*
X39099858Y42198790D01*
X39003303Y42180530D01*
X38949647Y42182993D01*
X38899976Y42196313D01*
X38880919Y42224261D01*
X38888045Y42270290D01*
X38890118Y42276376D01*
X38906556Y42308651D01*
X38933926Y42320867D01*
X38986068Y42320050D01*
X39022884Y42318939D01*
X39065961Y42328472D01*
X39095475Y42356974D01*
X39112286Y42392065D01*
X39114161Y42428825D01*
X39114074Y42429039D01*
X39092279Y42448902D01*
X39045632Y42477808D01*
X38985278Y42510114D01*
X38922360Y42540177D01*
X38868023Y42562354D01*
X38833410Y42571000D01*
X38828260Y42562533D01*
X38821778Y42522691D01*
X38817339Y42457629D01*
X38815692Y42375615D01*
X38815309Y42318847D01*
X38813505Y42247352D01*
X38810558Y42198390D01*
X38806843Y42180231D01*
X38787424Y42186333D01*
X38748227Y42202905D01*
X38698462Y42225580D01*
X38698462Y42516491D01*
X38698780Y42591060D01*
X38701789Y42704299D01*
X38709454Y42788308D01*
X38723562Y42849480D01*
X38745899Y42894205D01*
X38778253Y42928876D01*
X38822410Y42959883D01*
X38878667Y42985472D01*
X38982540Y43000846D01*
X39029936Y42999089D01*
G37*
X39029936Y42999089D02*
X39071807Y42988453D01*
X39110791Y42961938D01*
X39160965Y42912580D01*
X39193232Y42877721D01*
X39226844Y42832466D01*
X39242003Y42790049D01*
X39245539Y42736232D01*
X39245539Y42648150D01*
X39185470Y42679213D01*
X39137867Y42717064D01*
X39105261Y42768050D01*
X39099661Y42781912D01*
X39056992Y42835642D01*
X38997707Y42862583D01*
X38933061Y42859961D01*
X38874308Y42825000D01*
X38849450Y42796606D01*
X38834970Y42760282D01*
X38850470Y42727954D01*
X38898667Y42695435D01*
X38982274Y42658539D01*
X38994962Y42653443D01*
X39071078Y42620093D01*
X39136396Y42587207D01*
X39177953Y42561231D01*
X39219576Y42514833D01*
X39247247Y42440789D01*
X39244310Y42361330D01*
X39211571Y42286132D01*
X39149841Y42224869D01*
X39099858Y42198790D01*
X39003303Y42180530D01*
X38949647Y42182993D01*
X38899976Y42196313D01*
X38880919Y42224261D01*
X38888045Y42270290D01*
X38890118Y42276376D01*
X38906556Y42308651D01*
X38933926Y42320867D01*
X38986068Y42320050D01*
X39022884Y42318939D01*
X39065961Y42328472D01*
X39095475Y42356974D01*
X39112286Y42392065D01*
X39114161Y42428825D01*
X39114074Y42429039D01*
X39092279Y42448902D01*
X39045632Y42477808D01*
X38985278Y42510114D01*
X38922360Y42540177D01*
X38868023Y42562354D01*
X38833410Y42571000D01*
X38828260Y42562533D01*
X38821778Y42522691D01*
X38817339Y42457629D01*
X38815692Y42375615D01*
X38815309Y42318847D01*
X38813505Y42247352D01*
X38810558Y42198390D01*
X38806843Y42180231D01*
X38787424Y42186333D01*
X38748227Y42202905D01*
X38698462Y42225580D01*
X38698462Y42516491D01*
X38698780Y42591060D01*
X38701789Y42704299D01*
X38709454Y42788308D01*
X38723562Y42849480D01*
X38745899Y42894205D01*
X38778253Y42928876D01*
X38822410Y42959883D01*
X38878667Y42985472D01*
X38982540Y43000846D01*
X39029936Y42999089D01*
%LPC*%
D13*
X29586000Y45459000D03*
X29586000Y47459000D03*
X29586000Y49459000D03*
X29586000Y51459000D03*
X29586000Y53459000D03*
X29586000Y55459000D03*
D14*
X13886000Y42749000D03*
X15886000Y42749000D03*
X17886000Y42749000D03*
X19886000Y42749000D03*
X21886000Y42749000D03*
X23886000Y42749000D03*
X25886000Y42749000D03*
X27886000Y42749000D03*
X27886000Y58149000D03*
X25886000Y58149000D03*
X23886000Y58149000D03*
X21886000Y58149000D03*
X19886000Y58149000D03*
X17886000Y58149000D03*
X15886000Y58149000D03*
X13886000Y58149000D03*
D15*
X42456000Y61869000D03*
D16*
X42456000Y64409000D03*
X39916000Y61869000D03*
X39916000Y64409000D03*
X37376000Y61869000D03*
X37376000Y64409000D03*
X34836000Y61869000D03*
X34836000Y64409000D03*
X32296000Y61869000D03*
X32296000Y64409000D03*
D15*
X21046000Y61839000D03*
D16*
X21046000Y64379000D03*
X18506000Y61839000D03*
X18506000Y64379000D03*
X15966000Y61839000D03*
X15966000Y64379000D03*
X13426000Y61839000D03*
X13426000Y64379000D03*
X10886000Y61839000D03*
X10886000Y64379000D03*
D17*
X46686000Y42209000D03*
D18*
X44526800Y50233600D03*
X44526800Y46233600D03*
D17*
X5946000Y63889000D03*
M02*
