%TF.GenerationSoftware,KiCad,Pcbnew,(5.99.0-8442-g3b424d3868)*%
%TF.CreationDate,2021-01-17T09:13:46+01:00*%
%TF.ProjectId,WiFi-Addon,57694669-2d41-4646-946f-6e2e6b696361,rev?*%
%TF.SameCoordinates,PX160b110PY9be08a8*%
%TF.FileFunction,Soldermask,Bot*%
%TF.FilePolarity,Negative*%
%FSLAX46Y46*%
G04 Gerber Fmt 4.6, Leading zero omitted, Abs format (unit mm)*
G04 Created by KiCad (PCBNEW (5.99.0-8442-g3b424d3868)) date 2021-01-17 09:13:46*
%MOMM*%
%LPD*%
G01*
G04 APERTURE LIST*
%ADD10R,2.500000X1.100000*%
%ADD11R,1.100000X2.500000*%
%ADD12R,1.700000X1.700000*%
%ADD13O,1.700000X1.700000*%
%ADD14C,1.448000*%
%ADD15C,0.500000*%
G04 APERTURE END LIST*
D10*
X29586000Y45459000D03*
X29586000Y47459000D03*
X29586000Y49459000D03*
X29586000Y51459000D03*
X29586000Y53459000D03*
X29586000Y55459000D03*
D11*
X13886000Y42749000D03*
X15886000Y42749000D03*
X17886000Y42749000D03*
X19886000Y42749000D03*
X21886000Y42749000D03*
X23886000Y42749000D03*
X25886000Y42749000D03*
X27886000Y42749000D03*
X27886000Y58149000D03*
X25886000Y58149000D03*
X23886000Y58149000D03*
X21886000Y58149000D03*
X19886000Y58149000D03*
X17886000Y58149000D03*
X15886000Y58149000D03*
X13886000Y58149000D03*
D12*
X42456000Y61869000D03*
D13*
X42456000Y64409000D03*
X39916000Y61869000D03*
X39916000Y64409000D03*
X37376000Y61869000D03*
X37376000Y64409000D03*
X34836000Y61869000D03*
X34836000Y64409000D03*
X32296000Y61869000D03*
X32296000Y64409000D03*
D12*
X21046000Y61839000D03*
D13*
X21046000Y64379000D03*
X18506000Y61839000D03*
X18506000Y64379000D03*
X15966000Y61839000D03*
X15966000Y64379000D03*
X13426000Y61839000D03*
X13426000Y64379000D03*
X10886000Y61839000D03*
X10886000Y64379000D03*
D14*
X46686000Y42209000D03*
D15*
X44526800Y50233600D03*
X44526800Y46233600D03*
D14*
X5946000Y63889000D03*
M02*
