%TF.GenerationSoftware,KiCad,Pcbnew,(5.99.0-8442-g3b424d3868)*%
%TF.CreationDate,2021-01-17T16:03:47+01:00*%
%TF.ProjectId,WiFi-Addon,57694669-2d41-4646-946f-6e2e6b696361,rev?*%
%TF.SameCoordinates,PX160b110PY9be08a8*%
%TF.FileFunction,Legend,Bot*%
%TF.FilePolarity,Positive*%
%FSLAX46Y46*%
G04 Gerber Fmt 4.6, Leading zero omitted, Abs format (unit mm)*
G04 Created by KiCad (PCBNEW (5.99.0-8442-g3b424d3868)) date 2021-01-17 16:03:47*
%MOMM*%
%LPD*%
G01*
G04 APERTURE LIST*
%ADD10C,0.150000*%
%ADD11C,0.120000*%
%ADD12C,0.100000*%
%ADD13R,0.950000X0.875000*%
%ADD14C,1.448000*%
%ADD15R,1.700000X1.700000*%
%ADD16O,1.700000X1.700000*%
%ADD17R,3.000000X0.127000*%
%ADD18R,0.127000X3.000000*%
%ADD19R,0.875000X0.950000*%
%ADD20R,1.400000X0.300000*%
%ADD21R,0.900000X1.200000*%
%ADD22C,0.500000*%
%ADD23R,1.350000X0.400000*%
%ADD24R,1.900000X1.900000*%
%ADD25R,1.900000X1.800000*%
%ADD26R,1.500000X2.000000*%
%ADD27R,3.800000X2.000000*%
G04 APERTURE END LIST*
D10*
X6739333Y60545667D02*
X6691714Y60593286D01*
X6548857Y60688524D01*
X6453619Y60736143D01*
X6310761Y60783762D01*
X6072666Y60831381D01*
X5882190Y60831381D01*
X5644095Y60783762D01*
X5501238Y60736143D01*
X5406000Y60688524D01*
X5263142Y60593286D01*
X5215523Y60545667D01*
X6263142Y59593286D02*
X6310761Y59640905D01*
X6358380Y59783762D01*
X6358380Y59879000D01*
X6310761Y60021858D01*
X6215523Y60117096D01*
X6120285Y60164715D01*
X5929809Y60212334D01*
X5786952Y60212334D01*
X5596476Y60164715D01*
X5501238Y60117096D01*
X5406000Y60021858D01*
X5358380Y59879000D01*
X5358380Y59783762D01*
X5406000Y59640905D01*
X5453619Y59593286D01*
X6739333Y59259953D02*
X6691714Y59212334D01*
X6548857Y59117096D01*
X6453619Y59069477D01*
X6310761Y59021858D01*
X6072666Y58974239D01*
X5882190Y58974239D01*
X5644095Y59021858D01*
X5501238Y59069477D01*
X5406000Y59117096D01*
X5263142Y59212334D01*
X5215523Y59259953D01*
X5453619Y57783762D02*
X5406000Y57736143D01*
X5358380Y57640905D01*
X5358380Y57402810D01*
X5406000Y57307572D01*
X5453619Y57259953D01*
X5548857Y57212334D01*
X5644095Y57212334D01*
X5786952Y57259953D01*
X6358380Y57831381D01*
X6358380Y57212334D01*
X5358380Y56593286D02*
X5358380Y56498048D01*
X5406000Y56402810D01*
X5453619Y56355191D01*
X5548857Y56307572D01*
X5739333Y56259953D01*
X5977428Y56259953D01*
X6167904Y56307572D01*
X6263142Y56355191D01*
X6310761Y56402810D01*
X6358380Y56498048D01*
X6358380Y56593286D01*
X6310761Y56688524D01*
X6263142Y56736143D01*
X6167904Y56783762D01*
X5977428Y56831381D01*
X5739333Y56831381D01*
X5548857Y56783762D01*
X5453619Y56736143D01*
X5406000Y56688524D01*
X5358380Y56593286D01*
X5453619Y55879000D02*
X5406000Y55831381D01*
X5358380Y55736143D01*
X5358380Y55498048D01*
X5406000Y55402810D01*
X5453619Y55355191D01*
X5548857Y55307572D01*
X5644095Y55307572D01*
X5786952Y55355191D01*
X6358380Y55926620D01*
X6358380Y55307572D01*
X6358380Y54355191D02*
X6358380Y54926620D01*
X6358380Y54640905D02*
X5358380Y54640905D01*
X5501238Y54736143D01*
X5596476Y54831381D01*
X5644095Y54926620D01*
X6358380Y53164715D02*
X5358380Y53164715D01*
X5739333Y53164715D02*
X5691714Y53069477D01*
X5691714Y52879001D01*
X5739333Y52783762D01*
X5786952Y52736143D01*
X5882190Y52688524D01*
X6167904Y52688524D01*
X6263142Y52736143D01*
X6310761Y52783762D01*
X6358380Y52879000D01*
X6358380Y53069477D01*
X6310761Y53164715D01*
X5691714Y52355191D02*
X6358380Y52117096D01*
X5691714Y51879000D02*
X6358380Y52117096D01*
X6596476Y52212334D01*
X6644095Y52259953D01*
X6691714Y52355191D01*
X6358380Y50736143D02*
X5358380Y50736143D01*
X5834571Y50736143D02*
X5834571Y50164715D01*
X6358380Y50164715D02*
X5358380Y50164715D01*
X6358380Y49688524D02*
X5691714Y49688524D01*
X5358380Y49688524D02*
X5406000Y49736143D01*
X5453619Y49688524D01*
X5406000Y49640905D01*
X5358380Y49688524D01*
X5453619Y49688524D01*
X5691714Y49212334D02*
X6548857Y49212334D01*
X6644095Y49259953D01*
X6691714Y49355191D01*
X6691714Y49402810D01*
X5358380Y49212334D02*
X5406000Y49259953D01*
X5453619Y49212334D01*
X5406000Y49164715D01*
X5358380Y49212334D01*
X5453619Y49212334D01*
X6358380Y48307572D02*
X5834571Y48307572D01*
X5739333Y48355191D01*
X5691714Y48450429D01*
X5691714Y48640905D01*
X5739333Y48736143D01*
X6310761Y48307572D02*
X6358380Y48402810D01*
X6358380Y48640905D01*
X6310761Y48736143D01*
X6215523Y48783762D01*
X6120285Y48783762D01*
X6025047Y48736143D01*
X5977428Y48640905D01*
X5977428Y48402810D01*
X5929809Y48307572D01*
X6358380Y47926620D02*
X5691714Y47402810D01*
X5691714Y47926620D02*
X6358380Y47402810D01*
X6453619Y47259953D02*
X6453619Y46498048D01*
X6358380Y46259953D02*
X5358380Y46259953D01*
X5358380Y45879000D01*
X5406000Y45783762D01*
X5453619Y45736143D01*
X5548857Y45688524D01*
X5691714Y45688524D01*
X5786952Y45736143D01*
X5834571Y45783762D01*
X5882190Y45879000D01*
X5882190Y46259953D01*
X6358380Y44783762D02*
X6358380Y45259953D01*
X5358380Y45259953D01*
X43337428Y46072143D02*
X42937428Y44872143D01*
X42537428Y46072143D01*
X42137428Y44872143D02*
X42137428Y46072143D01*
X41566000Y44872143D02*
X41566000Y46072143D01*
X40880285Y44872143D01*
X40880285Y46072143D01*
X39394571Y45329286D02*
X38480285Y45329286D01*
X36994571Y46072143D02*
X36994571Y45100715D01*
X36937428Y44986429D01*
X36880285Y44929286D01*
X36766000Y44872143D01*
X36537428Y44872143D01*
X36423142Y44929286D01*
X36366000Y44986429D01*
X36308857Y45100715D01*
X36308857Y46072143D01*
X35794571Y44929286D02*
X35623142Y44872143D01*
X35337428Y44872143D01*
X35223142Y44929286D01*
X35166000Y44986429D01*
X35108857Y45100715D01*
X35108857Y45215000D01*
X35166000Y45329286D01*
X35223142Y45386429D01*
X35337428Y45443572D01*
X35566000Y45500715D01*
X35680285Y45557858D01*
X35737428Y45615000D01*
X35794571Y45729286D01*
X35794571Y45843572D01*
X35737428Y45957858D01*
X35680285Y46015000D01*
X35566000Y46072143D01*
X35280285Y46072143D01*
X35108857Y46015000D01*
X34194571Y45500715D02*
X34023142Y45443572D01*
X33966000Y45386429D01*
X33908857Y45272143D01*
X33908857Y45100715D01*
X33966000Y44986429D01*
X34023142Y44929286D01*
X34137428Y44872143D01*
X34594571Y44872143D01*
X34594571Y46072143D01*
X34194571Y46072143D01*
X34080285Y46015000D01*
X34023142Y45957858D01*
X33966000Y45843572D01*
X33966000Y45729286D01*
X34023142Y45615000D01*
X34080285Y45557858D01*
X34194571Y45500715D01*
X34594571Y45500715D01*
X41337428Y42940143D02*
X41337428Y44140143D01*
X40880285Y44140143D01*
X40766000Y44083000D01*
X40708857Y44025858D01*
X40651714Y43911572D01*
X40651714Y43740143D01*
X40708857Y43625858D01*
X40766000Y43568715D01*
X40880285Y43511572D01*
X41337428Y43511572D01*
X39908857Y44140143D02*
X39680285Y44140143D01*
X39566000Y44083000D01*
X39451714Y43968715D01*
X39394571Y43740143D01*
X39394571Y43340143D01*
X39451714Y43111572D01*
X39566000Y42997286D01*
X39680285Y42940143D01*
X39908857Y42940143D01*
X40023142Y42997286D01*
X40137428Y43111572D01*
X40194571Y43340143D01*
X40194571Y43740143D01*
X40137428Y43968715D01*
X40023142Y44083000D01*
X39908857Y44140143D01*
X38994571Y44140143D02*
X38708857Y42940143D01*
X38480285Y43797286D01*
X38251714Y42940143D01*
X37966000Y44140143D01*
X37508857Y43568715D02*
X37108857Y43568715D01*
X36937428Y42940143D02*
X37508857Y42940143D01*
X37508857Y44140143D01*
X36937428Y44140143D01*
X35737428Y42940143D02*
X36137428Y43511572D01*
X36423142Y42940143D02*
X36423142Y44140143D01*
X35966000Y44140143D01*
X35851714Y44083000D01*
X35794571Y44025858D01*
X35737428Y43911572D01*
X35737428Y43740143D01*
X35794571Y43625858D01*
X35851714Y43568715D01*
X35966000Y43511572D01*
X36423142Y43511572D01*
D11*
X16616000Y58911779D02*
X16616000Y58586221D01*
X17636000Y58911779D02*
X17636000Y58586221D01*
X20576000Y58586221D02*
X20576000Y58911779D01*
X19556000Y58586221D02*
X19556000Y58911779D01*
X43642800Y60719000D02*
X30822800Y60719000D01*
X43642800Y65919000D02*
X42312800Y65919000D01*
X41042800Y63319000D02*
X41042800Y65919000D01*
X30822800Y60719000D02*
X30822800Y65919000D01*
X43642800Y64589000D02*
X43642800Y65919000D01*
X43642800Y63319000D02*
X41042800Y63319000D01*
X41042800Y65919000D02*
X30822800Y65919000D01*
X43642800Y60719000D02*
X43642800Y63319000D01*
X22256000Y64589000D02*
X22256000Y65919000D01*
X22256000Y65919000D02*
X20926000Y65919000D01*
X22256000Y63319000D02*
X19656000Y63319000D01*
X9436000Y60719000D02*
X9436000Y65919000D01*
X22256000Y60719000D02*
X22256000Y63319000D01*
X19656000Y65919000D02*
X9436000Y65919000D01*
X22256000Y60719000D02*
X9436000Y60719000D01*
X19656000Y63319000D02*
X19656000Y65919000D01*
X10906000Y42861779D02*
X10906000Y42536221D01*
X11926000Y42861779D02*
X11926000Y42536221D01*
X19106000Y58586221D02*
X19106000Y58911779D01*
X18086000Y58586221D02*
X18086000Y58911779D01*
X13666000Y58901779D02*
X13666000Y58576221D01*
X14686000Y58901779D02*
X14686000Y58576221D01*
X28986000Y61516221D02*
X28986000Y61841779D01*
X30006000Y61516221D02*
X30006000Y61841779D01*
X28948779Y63409000D02*
X28623221Y63409000D01*
X28948779Y64429000D02*
X28623221Y64429000D01*
D10*
X28921000Y46144000D02*
X25571000Y46144000D01*
X28921000Y49494000D02*
X25571000Y49494000D01*
X28921000Y49494000D02*
X28921000Y49269000D01*
X28921000Y46144000D02*
X28921000Y46444000D01*
X28921000Y49269000D02*
X30146000Y49269000D01*
X25571000Y46144000D02*
X25571000Y46444000D01*
X25571000Y49494000D02*
X25571000Y49194000D01*
D11*
X44026000Y54866221D02*
X44026000Y55191779D01*
X45046000Y54866221D02*
X45046000Y55191779D01*
X9246000Y58901779D02*
X9246000Y58576221D01*
X10266000Y58901779D02*
X10266000Y58576221D01*
X27506000Y61516221D02*
X27506000Y61841779D01*
X28526000Y61516221D02*
X28526000Y61841779D01*
X32048779Y48429000D02*
X31723221Y48429000D01*
X32048779Y49449000D02*
X31723221Y49449000D01*
X43046000Y57699000D02*
X46946000Y57699000D01*
X43046000Y59699000D02*
X46946000Y59699000D01*
X43046000Y57699000D02*
X43046000Y59699000D01*
D12*
X48826800Y52284400D02*
X48826800Y44284400D01*
X48803034Y44335222D02*
G75*
G03*
X48076801Y44584399I-526234J-350822D01*
G01*
X48176800Y51921184D02*
G75*
G03*
X48826799Y52284401I0J763216D01*
G01*
D11*
X32048779Y46959000D02*
X31723221Y46959000D01*
X32048779Y47979000D02*
X31723221Y47979000D01*
X15136000Y58901779D02*
X15136000Y58576221D01*
X16156000Y58901779D02*
X16156000Y58576221D01*
X46928779Y53779000D02*
X46603221Y53779000D01*
X46928779Y54799000D02*
X46603221Y54799000D01*
X24276000Y55536221D02*
X24276000Y55861779D01*
X25296000Y55536221D02*
X25296000Y55861779D01*
X25738779Y49939000D02*
X25413221Y49939000D01*
X25738779Y50959000D02*
X25413221Y50959000D01*
X10716000Y58901779D02*
X10716000Y58576221D01*
X11736000Y58901779D02*
X11736000Y58576221D01*
X13206000Y58901779D02*
X13206000Y58576221D01*
X12186000Y58901779D02*
X12186000Y58576221D01*
X35706000Y57209000D02*
X35706000Y56879000D01*
X36086000Y59589000D02*
X34816000Y59589000D01*
X36466000Y48219000D02*
X36466000Y54219000D01*
X40786000Y48219000D02*
X41546000Y48219000D01*
X37356000Y56879000D02*
X37356000Y54219000D01*
X39006000Y57276071D02*
X39006000Y56879000D01*
X41546000Y48219000D02*
X41546000Y54219000D01*
X40786000Y57276071D02*
X40786000Y56879000D01*
X38246000Y48219000D02*
X39006000Y48219000D01*
X40786000Y54219000D02*
X40786000Y48219000D01*
X36366000Y54219000D02*
X36366000Y48219000D01*
X36006000Y54219000D02*
X36006000Y48219000D01*
X39896000Y56879000D02*
X39896000Y54219000D01*
X36126000Y54219000D02*
X36126000Y48219000D01*
X35766000Y54219000D02*
X35766000Y48219000D01*
X34756000Y54219000D02*
X34756000Y56879000D01*
X35706000Y54219000D02*
X35706000Y48219000D01*
X36246000Y54219000D02*
X36246000Y48219000D01*
X34816000Y59589000D02*
X34816000Y58319000D01*
X39006000Y48219000D02*
X39006000Y54219000D01*
X41546000Y57276071D02*
X41546000Y56879000D01*
X38246000Y54219000D02*
X38246000Y48219000D01*
X35886000Y54219000D02*
X35886000Y48219000D01*
X35706000Y48219000D02*
X36466000Y48219000D01*
X42496000Y54219000D02*
X34756000Y54219000D01*
X36466000Y57209000D02*
X36466000Y56879000D01*
X38246000Y57276071D02*
X38246000Y56879000D01*
X34756000Y56879000D02*
X42496000Y56879000D01*
X42496000Y56879000D02*
X42496000Y54219000D01*
X46928779Y56279000D02*
X46603221Y56279000D01*
X46928779Y55259000D02*
X46603221Y55259000D01*
X26796000Y55536221D02*
X26796000Y55861779D01*
X25776000Y55536221D02*
X25776000Y55861779D01*
X27216000Y53799000D02*
X28476000Y53799000D01*
X34036000Y57559000D02*
X34036000Y53799000D01*
X34036000Y53799000D02*
X32776000Y53799000D01*
X27216000Y59809000D02*
X27216000Y53799000D01*
%LPC*%
D13*
X17126000Y59536500D03*
X17126000Y57961500D03*
X20066000Y57961500D03*
X20066000Y59536500D03*
D14*
X46686000Y42209000D03*
X5946000Y62369000D03*
D15*
X42312800Y64589000D03*
D16*
X42312800Y62049000D03*
X39772800Y64589000D03*
X39772800Y62049000D03*
X37232800Y64589000D03*
X37232800Y62049000D03*
X34692800Y64589000D03*
X34692800Y62049000D03*
X32152800Y64589000D03*
X32152800Y62049000D03*
D15*
X20926000Y64589000D03*
D16*
X20926000Y62049000D03*
X18386000Y64589000D03*
X18386000Y62049000D03*
X15846000Y64589000D03*
X15846000Y62049000D03*
X13306000Y64589000D03*
X13306000Y62049000D03*
X10766000Y64589000D03*
X10766000Y62049000D03*
D13*
X11416000Y43486500D03*
X11416000Y41911500D03*
X18596000Y57961500D03*
X18596000Y59536500D03*
D17*
X44346000Y42439000D03*
D18*
X44346000Y42439000D03*
D13*
X14176000Y59526500D03*
X14176000Y57951500D03*
X29496000Y60891500D03*
X29496000Y62466500D03*
D19*
X29573500Y63919000D03*
X27998500Y63919000D03*
D20*
X29446000Y48819000D03*
X29446000Y48319000D03*
X29446000Y47819000D03*
X29446000Y47319000D03*
X29446000Y46819000D03*
X25046000Y46819000D03*
X25046000Y47319000D03*
X25046000Y47819000D03*
X25046000Y48319000D03*
X25046000Y48819000D03*
D13*
X44536000Y54241500D03*
X44536000Y55816500D03*
X9756000Y59526500D03*
X9756000Y57951500D03*
X28016000Y60891500D03*
X28016000Y62466500D03*
D19*
X32673500Y48939000D03*
X31098500Y48939000D03*
D21*
X43646000Y58699000D03*
X46946000Y58699000D03*
D22*
X44526800Y46284400D03*
X44526800Y50284400D03*
D23*
X44001800Y49584400D03*
X44001800Y48934400D03*
X44001800Y48284400D03*
X44001800Y47634400D03*
X44001800Y46984400D03*
D24*
X46676800Y49484400D03*
D25*
X46676800Y52284400D03*
X46676800Y44284400D03*
D24*
X46676800Y47084400D03*
D19*
X32673500Y47469000D03*
X31098500Y47469000D03*
D13*
X15646000Y59526500D03*
X15646000Y57951500D03*
D19*
X47553500Y54289000D03*
X45978500Y54289000D03*
D13*
X24786000Y54911500D03*
X24786000Y56486500D03*
D19*
X26363500Y50449000D03*
X24788500Y50449000D03*
D18*
X7126000Y64449000D03*
D17*
X7126000Y64449000D03*
D13*
X11226000Y59526500D03*
X11226000Y57951500D03*
X12696000Y59526500D03*
X12696000Y57951500D03*
D15*
X36086000Y58319000D03*
D16*
X38626000Y58319000D03*
X41166000Y58319000D03*
D19*
X47553500Y55769000D03*
X45978500Y55769000D03*
D13*
X26286000Y54911500D03*
X26286000Y56486500D03*
D26*
X28326000Y58859000D03*
D27*
X30626000Y52559000D03*
D26*
X30626000Y58859000D03*
X32926000Y58859000D03*
M02*
