G04 #@! TF.GenerationSoftware,KiCad,Pcbnew,5.99.0-unknown-43a4cf795~104~ubuntu20.04.1*
G04 #@! TF.CreationDate,2020-11-14T20:52:21-08:00*
G04 #@! TF.ProjectId,TMC2660_Driver,544d4332-3636-4305-9f44-72697665722e,rev?*
G04 #@! TF.SameCoordinates,PX67f3540PY6cb8080*
G04 #@! TF.FileFunction,Paste,Top*
G04 #@! TF.FilePolarity,Positive*
%FSLAX46Y46*%
G04 Gerber Fmt 4.6, Leading zero omitted, Abs format (unit mm)*
G04 Created by KiCad (PCBNEW 5.99.0-unknown-43a4cf795~104~ubuntu20.04.1) date 2020-11-14 20:52:21*
%MOMM*%
%LPD*%
G01*
G04 APERTURE LIST*
G04 Aperture macros list*
%AMRoundRect*
0 Rectangle with rounded corners*
0 $1 Rounding radius*
0 $2 $3 $4 $5 $6 $7 $8 $9 X,Y pos of 4 corners*
0 Add a 4 corners polygon primitive as box body*
4,1,4,$2,$3,$4,$5,$6,$7,$8,$9,$2,$3,0*
0 Add four circle primitives for the rounded corners*
1,1,$1+$1,$2,$3,0*
1,1,$1+$1,$4,$5,0*
1,1,$1+$1,$6,$7,0*
1,1,$1+$1,$8,$9,0*
0 Add four rect primitives between the rounded corners*
20,1,$1+$1,$2,$3,$4,$5,0*
20,1,$1+$1,$4,$5,$6,$7,0*
20,1,$1+$1,$6,$7,$8,$9,0*
20,1,$1+$1,$8,$9,$2,$3,0*%
G04 Aperture macros list end*
%ADD10R,0.875000X0.950000*%
%ADD11RoundRect,0.250000X0.425000X1.425000X-0.425000X1.425000X-0.425000X-1.425000X0.425000X-1.425000X0*%
%ADD12RoundRect,0.250000X-0.425000X-1.425000X0.425000X-1.425000X0.425000X1.425000X-0.425000X1.425000X0*%
%ADD13R,0.950000X0.875000*%
%ADD14R,1.250000X1.750000*%
%ADD15R,1.600000X0.500000*%
%ADD16R,1.600000X1.300000*%
%ADD17R,0.500000X1.600000*%
%ADD18R,0.590000X0.640000*%
%ADD19R,0.650000X0.700000*%
%ADD20R,0.500000X0.700000*%
%ADD21R,0.700000X1.400000*%
%ADD22R,0.300000X0.680000*%
%ADD23RoundRect,0.250000X0.550000X-1.500000X0.550000X1.500000X-0.550000X1.500000X-0.550000X-1.500000X0*%
%ADD24R,0.650000X0.400000*%
G04 APERTURE END LIST*
D10*
X7383000Y32847000D03*
X5808000Y32847000D03*
X27068000Y36403000D03*
X25493000Y36403000D03*
X27118600Y37927000D03*
X25543600Y37927000D03*
X7687400Y37723800D03*
X9262400Y37723800D03*
X7687400Y36123600D03*
X9262400Y36123600D03*
X28896500Y33228000D03*
X30471500Y33228000D03*
X7357500Y31323000D03*
X5782500Y31323000D03*
D11*
X9650000Y27894000D03*
X3850000Y27894000D03*
D10*
X28871000Y31704000D03*
X30446000Y31704000D03*
D12*
X26350000Y28148000D03*
X32150000Y28148000D03*
D13*
X21302000Y33126500D03*
X21302000Y31551500D03*
D14*
X11459500Y13479500D03*
X8659500Y13479500D03*
D15*
X23951600Y20007800D03*
D16*
X23951600Y21207800D03*
D15*
X23951600Y22407800D03*
D16*
X23951600Y23607800D03*
X23951600Y25207800D03*
D15*
X23951600Y26407800D03*
D16*
X23951600Y27607800D03*
D17*
X22101600Y29857800D03*
X21301600Y29857800D03*
X20501600Y29857800D03*
X19701600Y29857800D03*
X18901600Y29857800D03*
X18101600Y29857800D03*
X17301600Y29857800D03*
X16501600Y29857800D03*
X15701600Y29857800D03*
X14901600Y29857800D03*
X14101600Y29857800D03*
D16*
X12251600Y27607800D03*
D15*
X12251600Y26407800D03*
D16*
X12251600Y25207800D03*
X12251600Y23607800D03*
D15*
X12251600Y22407800D03*
D16*
X12251600Y21207800D03*
D15*
X12251600Y20007800D03*
D17*
X14101600Y18157800D03*
X14901600Y18157800D03*
X15701600Y18157800D03*
X16501600Y18157800D03*
X17301600Y18157800D03*
X18101600Y18157800D03*
X18901600Y18157800D03*
X19701600Y18157800D03*
X20501600Y18157800D03*
X21301600Y18157800D03*
X22101600Y18157800D03*
D14*
X24042200Y13314400D03*
X26842200Y13314400D03*
D18*
X15818000Y15448000D03*
X14848000Y15448000D03*
D10*
X19371500Y14686000D03*
X20946500Y14686000D03*
X16399700Y10368000D03*
X17974700Y10368000D03*
D13*
X6700000Y11212500D03*
X6700000Y12787500D03*
D19*
X4200000Y12300000D03*
D20*
X5100000Y12300000D03*
D21*
X4600000Y12300000D03*
D22*
X5350000Y13660000D03*
X4850000Y13660000D03*
X4350000Y13660000D03*
X3850000Y13660000D03*
X3850000Y10940000D03*
X4350000Y10940000D03*
X4850000Y10940000D03*
X5350000Y10940000D03*
D23*
X32500000Y9800000D03*
X32500000Y15200000D03*
D24*
X14886000Y10099000D03*
X14886000Y10749000D03*
X14886000Y11399000D03*
X12986000Y11399000D03*
X12986000Y10099000D03*
M02*
