G04 #@! TF.GenerationSoftware,KiCad,Pcbnew,5.99.0-unknown-43a4cf795~104~ubuntu20.04.1*
G04 #@! TF.CreationDate,2020-11-14T20:52:21-08:00*
G04 #@! TF.ProjectId,TMC2660_Driver,544d4332-3636-4305-9f44-72697665722e,rev?*
G04 #@! TF.SameCoordinates,PX67f3540PY6cb8080*
G04 #@! TF.FileFunction,Copper,L2,Inr*
G04 #@! TF.FilePolarity,Positive*
%FSLAX46Y46*%
G04 Gerber Fmt 4.6, Leading zero omitted, Abs format (unit mm)*
G04 Created by KiCad (PCBNEW 5.99.0-unknown-43a4cf795~104~ubuntu20.04.1) date 2020-11-14 20:52:21*
%MOMM*%
%LPD*%
G01*
G04 APERTURE LIST*
G04 #@! TA.AperFunction,ComponentPad*
%ADD10R,1.778000X1.778000*%
G04 #@! TD*
G04 #@! TA.AperFunction,ComponentPad*
%ADD11C,1.778000*%
G04 #@! TD*
G04 #@! TA.AperFunction,ViaPad*
%ADD12C,1.000000*%
G04 #@! TD*
G04 #@! TA.AperFunction,ViaPad*
%ADD13C,0.600000*%
G04 #@! TD*
G04 #@! TA.AperFunction,ViaPad*
%ADD14C,0.800000*%
G04 #@! TD*
G04 #@! TA.AperFunction,Conductor*
%ADD15C,0.127000*%
G04 #@! TD*
G04 #@! TA.AperFunction,Conductor*
%ADD16C,0.800000*%
G04 #@! TD*
G04 APERTURE END LIST*
D10*
X13809000Y35437800D03*
D11*
X16349000Y35437800D03*
X18889000Y35437800D03*
X21429000Y35437800D03*
D12*
X6112800Y36403000D03*
X30500000Y13000000D03*
X32532000Y13000000D03*
D13*
X27700000Y10200000D03*
D14*
X2250000Y27894000D03*
D13*
X18127000Y19385000D03*
X1000000Y20500000D03*
D14*
X33750000Y29545000D03*
D13*
X14113800Y11371300D03*
X5000000Y18000000D03*
D12*
X30192000Y16210000D03*
X30192000Y21290000D03*
D13*
X25600000Y10200000D03*
D14*
X7586000Y36784000D03*
D13*
X1000000Y19500000D03*
X5000000Y16000000D03*
D12*
X32224000Y21290000D03*
D14*
X21556000Y33736000D03*
D12*
X1744000Y30434000D03*
X32063980Y31739560D03*
D13*
X1000000Y18500000D03*
D14*
X18749451Y10652410D03*
D13*
X18127000Y17226000D03*
X5000000Y17000000D03*
D14*
X2250000Y29164000D03*
D12*
X19016000Y38308000D03*
D14*
X2250000Y26624000D03*
X21810000Y14686000D03*
D12*
X4080800Y35514000D03*
X30192000Y18242000D03*
D13*
X4200000Y12300000D03*
D14*
X27144000Y37038000D03*
D13*
X2500000Y21500000D03*
X5000000Y12300000D03*
D14*
X4969800Y32720000D03*
X33750000Y28148000D03*
D13*
X4000000Y17000000D03*
D12*
X26839200Y11892000D03*
X9150333Y12209846D03*
D13*
X26700000Y10200000D03*
D14*
X33750000Y26750000D03*
D12*
X1744000Y32974000D03*
D13*
X1000000Y21500000D03*
D12*
X33750000Y15750000D03*
D13*
X2500000Y19500000D03*
D14*
X31208000Y33228000D03*
D13*
X2500000Y20500000D03*
D14*
X18229569Y28631311D03*
D13*
X2500000Y18500000D03*
X4000000Y16000000D03*
D12*
X27133840Y34769780D03*
D13*
X4000000Y18000000D03*
D12*
X32500000Y17500000D03*
X25874000Y21499200D03*
X27271000Y20274000D03*
X27525000Y17353000D03*
X27144000Y25608000D03*
X25874000Y18877000D03*
X27144000Y22814000D03*
X25874000Y24338000D03*
X20540000Y25100000D03*
X19016000Y23576000D03*
X22064000Y23576000D03*
X20540000Y22052000D03*
X19016000Y20528000D03*
X20540000Y28148000D03*
X8983000Y22433000D03*
X10380000Y21207800D03*
X8983000Y25100000D03*
X10380000Y18369000D03*
X9110000Y19893000D03*
X8729000Y17226000D03*
X10380000Y23830000D03*
X15460000Y28148000D03*
X15460000Y25100000D03*
X13936000Y26624000D03*
X15460000Y22052000D03*
X16984000Y26624000D03*
X16984000Y23576000D03*
X16984000Y20528000D03*
X13936000Y23576000D03*
D13*
X11186145Y10214360D03*
X8121266Y35043789D03*
X8400000Y10600000D03*
X5782600Y35399700D03*
X5976289Y34244000D03*
X8533650Y9106687D03*
X5172048Y33980489D03*
X10902121Y7690257D03*
X9775110Y7948380D03*
X9775110Y9347590D03*
X19651000Y16845000D03*
X16257457Y9316543D03*
X20540000Y16972000D03*
X16857000Y8463000D03*
X11146790Y8564600D03*
X6657638Y34879544D03*
X12089619Y7768115D03*
X12128995Y11271005D03*
X17238000Y16591000D03*
D14*
X15858054Y11320680D03*
D13*
X9400000Y10600000D03*
X22052410Y7147590D03*
X4800000Y15100000D03*
X4000000Y14700000D03*
X22600000Y6200000D03*
X7854717Y11728410D03*
X21600000Y6200000D03*
X5400000Y14500000D03*
X16700000Y7400000D03*
X13400000Y9240180D03*
X15600000Y7600000D03*
X14300000Y8787770D03*
D12*
X18127000Y14686000D03*
X18127000Y8590000D03*
D13*
X14596400Y7066000D03*
X7318903Y33926103D03*
D15*
X8121266Y35043789D02*
X8121266Y33648966D01*
X8121266Y33648966D02*
X7827300Y33355000D01*
X7827300Y33355000D02*
X7827300Y14546300D01*
X9210990Y14063700D02*
X11186145Y12088545D01*
X8309900Y14063700D02*
X9210990Y14063700D01*
X11186145Y12088545D02*
X11186145Y10214360D01*
X7827300Y14546300D02*
X8309900Y14063700D01*
X8400000Y10600000D02*
X8307118Y10692882D01*
X8307118Y10692882D02*
X8307118Y11941166D01*
X8307118Y11941166D02*
X6611506Y13636778D01*
X5782600Y35082200D02*
X6611506Y34253294D01*
X6611506Y13636778D02*
X6611506Y34018806D01*
X6611506Y34253294D02*
X6611506Y34018806D01*
X5782600Y35399700D02*
X5782600Y35082200D01*
X4719647Y33763336D02*
X4719647Y34263645D01*
X8233651Y9406686D02*
X8533650Y9106687D01*
X5976289Y34244000D02*
X5676290Y34543999D01*
X4719647Y34263645D02*
X5000001Y34543999D01*
X6070169Y32270969D02*
X6070169Y32412814D01*
X6070169Y25472831D02*
X6070169Y32270969D01*
X4954895Y33528088D02*
X4719647Y33763336D01*
X6070169Y11570169D02*
X8233651Y9406686D01*
X6070169Y32412814D02*
X4954895Y33528088D01*
X5676290Y34543999D02*
X5000001Y34543999D01*
X6070169Y25472831D02*
X6070169Y11570169D01*
X6323889Y32828648D02*
X5172048Y33980489D01*
X7947598Y10482848D02*
X6356208Y12074238D01*
X8182846Y10147598D02*
X7947598Y10382846D01*
X6356208Y12074238D02*
X6356208Y25572008D01*
X6356208Y25572008D02*
X6323889Y25604327D01*
X10602122Y7990256D02*
X10602122Y9162630D01*
X7947598Y10382846D02*
X7947598Y10482848D01*
X6323889Y25604327D02*
X6323889Y32828648D01*
X10902121Y7690257D02*
X10602122Y7990256D01*
X9617153Y10147599D02*
X8182846Y10147598D01*
X10602122Y9162630D02*
X9617153Y10147599D01*
X19651000Y16845000D02*
X18635000Y16845000D01*
X9775110Y7948380D02*
X9775110Y9347590D01*
X16557456Y9616542D02*
X16257457Y9316543D01*
X16257457Y14467457D02*
X16257457Y11738831D01*
X16257457Y11738831D02*
X16557456Y11438832D01*
X16557456Y11438832D02*
X16557456Y9616542D01*
X18635000Y16845000D02*
X16257457Y14467457D01*
X16862691Y11631336D02*
X16862691Y11101030D01*
X16857000Y11095339D02*
X16857000Y8887264D01*
X16862691Y11101030D02*
X16857000Y11095339D01*
X16857000Y14559000D02*
X16857000Y11637027D01*
X19450989Y15882989D02*
X18180989Y15882989D01*
X20540000Y16972000D02*
X19450989Y15882989D01*
X18180989Y15882989D02*
X16857000Y14559000D01*
X16857000Y11637027D02*
X16862691Y11631336D01*
X16857000Y8887264D02*
X16857000Y8463000D01*
X11146790Y8988864D02*
X11146790Y8564600D01*
X9852401Y10283253D02*
X11146790Y8988864D01*
X9302217Y11052401D02*
X9617153Y11052401D01*
X8523029Y12030599D02*
X8523029Y11831589D01*
X9617153Y11052401D02*
X9852401Y10817153D01*
X8523029Y11831589D02*
X9302217Y11052401D01*
X6827416Y34709766D02*
X6827416Y13726212D01*
X6827416Y13726212D02*
X8523029Y12030599D01*
X9852401Y10817153D02*
X9852401Y10283253D01*
X6657638Y34879544D02*
X6827416Y34709766D01*
X12029132Y11171142D02*
X12029132Y7828602D01*
X12029132Y7828602D02*
X12089619Y7768115D01*
X15858054Y15211054D02*
X17238000Y16591000D01*
X15858054Y11320680D02*
X15858054Y15211054D01*
D16*
X18127000Y14686000D02*
X17627001Y14186001D01*
X17627001Y9089999D02*
X18127000Y8590000D01*
X17627001Y14186001D02*
X17627001Y9089999D01*
D15*
X7979700Y13314400D02*
X9503700Y13314400D01*
X11967500Y7066000D02*
X14596400Y7066000D01*
X9503700Y13314400D02*
X10494300Y12323800D01*
X11599200Y7434300D02*
X11967500Y7066000D01*
X11599200Y8945600D02*
X11599200Y7434300D01*
X7318903Y33926103D02*
X7318903Y13975197D01*
X7318903Y13975197D02*
X7979700Y13314400D01*
X10494300Y10050500D02*
X11599200Y8945600D01*
X10494300Y12323800D02*
X10494300Y10050500D01*
G04 #@! TA.AperFunction,Conductor*
G36*
X35658901Y39194406D02*
G01*
X35658998Y39195114D01*
X35666058Y39194143D01*
X35672962Y39192382D01*
X35680080Y39192213D01*
X35680083Y39192213D01*
X35764421Y39190216D01*
X35786018Y39187830D01*
X35838967Y39177298D01*
X35918107Y39161556D01*
X35941743Y39154386D01*
X36017631Y39122952D01*
X36062495Y39104369D01*
X36084276Y39092726D01*
X36192941Y39020119D01*
X36212035Y39004449D01*
X36304448Y38912036D01*
X36320118Y38892943D01*
X36392726Y38784277D01*
X36404370Y38762493D01*
X36454385Y38641746D01*
X36461555Y38618109D01*
X36487830Y38486015D01*
X36490216Y38464421D01*
X36492378Y38373158D01*
X36494114Y38366301D01*
X36495071Y38359298D01*
X36494406Y38359207D01*
X36496801Y38339985D01*
X36496800Y1060177D01*
X36494406Y1041103D01*
X36495115Y1041006D01*
X36494144Y1033948D01*
X36492382Y1027039D01*
X36492213Y1019913D01*
X36492213Y1019911D01*
X36490216Y935579D01*
X36487830Y913981D01*
X36461556Y781893D01*
X36454386Y758256D01*
X36404371Y637508D01*
X36392727Y615724D01*
X36320120Y507060D01*
X36304451Y487967D01*
X36212039Y395554D01*
X36192945Y379884D01*
X36088661Y310203D01*
X36084280Y307276D01*
X36062499Y295633D01*
X35941743Y245613D01*
X35918110Y238445D01*
X35874463Y229763D01*
X35786015Y212170D01*
X35764418Y209784D01*
X35680230Y207790D01*
X35680226Y207789D01*
X35673159Y207622D01*
X35666303Y205886D01*
X35659299Y204929D01*
X35659208Y205594D01*
X35639990Y203200D01*
X31860177Y203200D01*
X31841103Y205594D01*
X31841006Y204885D01*
X31833948Y205856D01*
X31827039Y207618D01*
X31819913Y207787D01*
X31819911Y207787D01*
X31735579Y209784D01*
X31713981Y212170D01*
X31581893Y238444D01*
X31558256Y245614D01*
X31439232Y294915D01*
X31437507Y295629D01*
X31415724Y307273D01*
X31307060Y379880D01*
X31287967Y395549D01*
X31195554Y487961D01*
X31179884Y507055D01*
X31107276Y615720D01*
X31095632Y637503D01*
X31091750Y646875D01*
X31045613Y758257D01*
X31038444Y781893D01*
X31012170Y913985D01*
X31009784Y935582D01*
X31007790Y1019770D01*
X31007789Y1019774D01*
X31007622Y1026841D01*
X31005886Y1033697D01*
X31004929Y1040701D01*
X31005594Y1040792D01*
X31003200Y1060010D01*
X31003200Y3147271D01*
X32195097Y3147271D01*
X32232483Y2900069D01*
X32308910Y2662026D01*
X32422413Y2439263D01*
X32425398Y2435184D01*
X32425399Y2435183D01*
X32567078Y2241603D01*
X32567082Y2241599D01*
X32570072Y2237513D01*
X32748087Y2061967D01*
X32752212Y2059035D01*
X32752215Y2059033D01*
X32947754Y1920070D01*
X32947758Y1920067D01*
X32951879Y1917139D01*
X32956417Y1914906D01*
X32956422Y1914903D01*
X33110735Y1838972D01*
X33176204Y1806757D01*
X33181050Y1805276D01*
X33181051Y1805275D01*
X33410444Y1735143D01*
X33410446Y1735143D01*
X33415292Y1733661D01*
X33662991Y1699730D01*
X33744212Y1701715D01*
X33907867Y1705715D01*
X33907870Y1705715D01*
X33912929Y1705839D01*
X34158674Y1751829D01*
X34393906Y1836517D01*
X34612571Y1957726D01*
X34616549Y1960856D01*
X34616553Y1960859D01*
X34805069Y2109206D01*
X34805071Y2109207D01*
X34809045Y2112335D01*
X34978272Y2296368D01*
X35115899Y2505091D01*
X35117974Y2509708D01*
X35216311Y2728516D01*
X35216313Y2728522D01*
X35218385Y2733132D01*
X35283093Y2974625D01*
X35308358Y3223357D01*
X35308700Y3256000D01*
X35288649Y3505207D01*
X35254649Y3643633D01*
X35230220Y3743088D01*
X35229013Y3748002D01*
X35131326Y3978140D01*
X34998100Y4189698D01*
X34905311Y4294947D01*
X34836112Y4373438D01*
X34836109Y4373441D01*
X34832764Y4377235D01*
X34715447Y4473600D01*
X34643477Y4532717D01*
X34643474Y4532719D01*
X34639571Y4535925D01*
X34423492Y4661686D01*
X34190086Y4751283D01*
X34185140Y4752316D01*
X34185134Y4752318D01*
X33950311Y4801374D01*
X33950312Y4801374D01*
X33945357Y4802409D01*
X33940308Y4802638D01*
X33940302Y4802639D01*
X33826115Y4807824D01*
X33695602Y4813750D01*
X33690582Y4813169D01*
X33690578Y4813169D01*
X33452277Y4785597D01*
X33447247Y4785015D01*
X33442376Y4783637D01*
X33442373Y4783636D01*
X33331849Y4752360D01*
X33206681Y4716941D01*
X33093387Y4664112D01*
X32984675Y4613419D01*
X32984671Y4613417D01*
X32980093Y4611282D01*
X32975912Y4608440D01*
X32975911Y4608440D01*
X32777500Y4473600D01*
X32777496Y4473597D01*
X32773313Y4470754D01*
X32591660Y4298974D01*
X32439809Y4100361D01*
X32321665Y3880024D01*
X32240269Y3643633D01*
X32197715Y3397269D01*
X32195097Y3147271D01*
X31003200Y3147271D01*
X31003200Y6843390D01*
X31005771Y6868711D01*
X31007233Y6875836D01*
X31007233Y6875841D01*
X31008665Y6882819D01*
X31005874Y7000651D01*
X31005895Y7007368D01*
X31005975Y7010064D01*
X31006187Y7017189D01*
X31005387Y7021210D01*
X31005295Y7025103D01*
X31002905Y7034544D01*
X31001477Y7040869D01*
X30962272Y7237961D01*
X30961596Y7241644D01*
X30961050Y7244891D01*
X30961050Y7244892D01*
X30960148Y7250253D01*
X30959531Y7251743D01*
X30959256Y7253125D01*
X30956959Y7258260D01*
X30955960Y7260494D01*
X30954567Y7263727D01*
X30873997Y7458239D01*
X30872619Y7461710D01*
X30871463Y7464754D01*
X30871463Y7464755D01*
X30869525Y7469856D01*
X30868628Y7471198D01*
X30868089Y7472500D01*
X30865037Y7476803D01*
X30865035Y7476806D01*
X30863401Y7479109D01*
X30861399Y7482017D01*
X30744460Y7657030D01*
X30742431Y7660165D01*
X30740689Y7662947D01*
X30737800Y7667562D01*
X30736660Y7668702D01*
X30735877Y7669874D01*
X30729969Y7675461D01*
X30727483Y7677879D01*
X30578609Y7826752D01*
X30576006Y7829434D01*
X30573768Y7831809D01*
X30573767Y7831809D01*
X30570037Y7835768D01*
X30568699Y7836662D01*
X30567700Y7837661D01*
X30563243Y7840462D01*
X30563241Y7840464D01*
X30560829Y7841980D01*
X30557877Y7843893D01*
X30467931Y7903993D01*
X30382847Y7960844D01*
X30379797Y7962949D01*
X30377124Y7964852D01*
X30377121Y7964853D01*
X30372682Y7968014D01*
X30371192Y7968631D01*
X30370019Y7969415D01*
X30362433Y7972312D01*
X30359193Y7973602D01*
X30164686Y8054169D01*
X30161258Y8055649D01*
X30158260Y8056996D01*
X30158261Y8056996D01*
X30153318Y8059217D01*
X30151741Y8059531D01*
X30150434Y8060072D01*
X30142377Y8061442D01*
X30138981Y8062069D01*
X29941386Y8101373D01*
X29934862Y8102853D01*
X29925301Y8105291D01*
X29921203Y8105388D01*
X29917382Y8106148D01*
X29910315Y8105951D01*
X29910312Y8105951D01*
X29907660Y8105877D01*
X29901166Y8105863D01*
X29790080Y8108493D01*
X29790078Y8108493D01*
X29783017Y8108660D01*
X29768926Y8105795D01*
X29768587Y8105726D01*
X29743482Y8103200D01*
X29356610Y8103200D01*
X29331289Y8105771D01*
X29324164Y8107233D01*
X29324159Y8107233D01*
X29317181Y8108665D01*
X29199349Y8105874D01*
X29192646Y8105895D01*
X29182811Y8106187D01*
X29178790Y8105387D01*
X29174897Y8105295D01*
X29165456Y8102905D01*
X29159133Y8101477D01*
X28985340Y8066907D01*
X28962039Y8062272D01*
X28958356Y8061596D01*
X28955109Y8061050D01*
X28955108Y8061050D01*
X28949747Y8060148D01*
X28948257Y8059531D01*
X28946875Y8059256D01*
X28942074Y8057108D01*
X28942073Y8057108D01*
X28939506Y8055960D01*
X28936273Y8054567D01*
X28741761Y7973997D01*
X28738295Y7972621D01*
X28730144Y7969525D01*
X28728802Y7968628D01*
X28727500Y7968089D01*
X28723197Y7965037D01*
X28723194Y7965035D01*
X28720891Y7963401D01*
X28717987Y7961402D01*
X28717965Y7961387D01*
X28542970Y7844460D01*
X28539835Y7842431D01*
X28532438Y7837800D01*
X28531298Y7836660D01*
X28530126Y7835877D01*
X28524539Y7829969D01*
X28522121Y7827483D01*
X28373248Y7678609D01*
X28370566Y7676006D01*
X28364232Y7670037D01*
X28363338Y7668699D01*
X28362339Y7667700D01*
X28359538Y7663243D01*
X28359536Y7663241D01*
X28358020Y7660829D01*
X28356107Y7657877D01*
X28239563Y7483455D01*
X28239175Y7482875D01*
X28237051Y7479797D01*
X28235784Y7478017D01*
X28231986Y7472682D01*
X28231369Y7471192D01*
X28230585Y7470019D01*
X28228704Y7465094D01*
X28227696Y7462454D01*
X28226398Y7459193D01*
X28145831Y7264686D01*
X28144351Y7261258D01*
X28140783Y7253318D01*
X28140469Y7251741D01*
X28139928Y7250434D01*
X28138558Y7242377D01*
X28137931Y7238981D01*
X28100097Y7048774D01*
X28098630Y7041400D01*
X28097147Y7034862D01*
X28094709Y7025301D01*
X28094612Y7021203D01*
X28093852Y7017382D01*
X28094049Y7010315D01*
X28094049Y7010312D01*
X28094123Y7007660D01*
X28094137Y7001166D01*
X28092011Y6911338D01*
X28091340Y6883017D01*
X28093497Y6872408D01*
X28094275Y6868582D01*
X28096801Y6843477D01*
X28096800Y560530D01*
X28094426Y541892D01*
X28095270Y541773D01*
X28094273Y534718D01*
X28092485Y527816D01*
X28091392Y487961D01*
X28091159Y479448D01*
X28086915Y450300D01*
X28074529Y404077D01*
X28061948Y373705D01*
X28040349Y336294D01*
X28020327Y310203D01*
X27989798Y279674D01*
X27963703Y259650D01*
X27926299Y238055D01*
X27895912Y225468D01*
X27885148Y222584D01*
X27849710Y213088D01*
X27820554Y208841D01*
X27790532Y208018D01*
X27779450Y207714D01*
X27779449Y207714D01*
X27772381Y207520D01*
X27765530Y205758D01*
X27758531Y204775D01*
X27758418Y205576D01*
X27739641Y203200D01*
X21660530Y203200D01*
X21641892Y205574D01*
X21641773Y204730D01*
X21634718Y205727D01*
X21627816Y207515D01*
X21579445Y208841D01*
X21550300Y213085D01*
X21504077Y225471D01*
X21473705Y238052D01*
X21436294Y259651D01*
X21410203Y279673D01*
X21379674Y310202D01*
X21359650Y336297D01*
X21338055Y373701D01*
X21325468Y404089D01*
X21324797Y406595D01*
X21315832Y440049D01*
X21313088Y450290D01*
X21308841Y479448D01*
X21308608Y487967D01*
X21307520Y527619D01*
X21305758Y534470D01*
X21304775Y541469D01*
X21305576Y541582D01*
X21303200Y560359D01*
X21303200Y5593790D01*
X21323202Y5661911D01*
X21376858Y5708404D01*
X21447132Y5718508D01*
X21466773Y5714057D01*
X21518668Y5697844D01*
X21662876Y5695201D01*
X21711305Y5708404D01*
X21793367Y5730776D01*
X21793370Y5730777D01*
X21802029Y5733138D01*
X21809679Y5737835D01*
X21809681Y5737836D01*
X21917289Y5803907D01*
X21917292Y5803910D01*
X21924941Y5808606D01*
X21930966Y5815263D01*
X21930969Y5815265D01*
X22007528Y5899846D01*
X22068071Y5936927D01*
X22139051Y5935390D01*
X22197394Y5896367D01*
X22260935Y5820776D01*
X22268406Y5815803D01*
X22268407Y5815802D01*
X22286277Y5803907D01*
X22380999Y5740855D01*
X22518668Y5697844D01*
X22662876Y5695201D01*
X22711305Y5708404D01*
X22793367Y5730776D01*
X22793370Y5730777D01*
X22802029Y5733138D01*
X22809679Y5737835D01*
X22809681Y5737836D01*
X22917289Y5803907D01*
X22917292Y5803910D01*
X22924941Y5808606D01*
X22930969Y5815265D01*
X23015709Y5908886D01*
X23021731Y5915539D01*
X23084619Y6045338D01*
X23108548Y6187571D01*
X23108700Y6200000D01*
X23088253Y6342775D01*
X23028556Y6474073D01*
X22953482Y6561201D01*
X22940265Y6576540D01*
X22940263Y6576542D01*
X22934407Y6583338D01*
X22813375Y6661786D01*
X22675191Y6703112D01*
X22666215Y6703167D01*
X22666214Y6703167D01*
X22597130Y6703589D01*
X22529133Y6724007D01*
X22482969Y6777946D01*
X22473294Y6848280D01*
X22484508Y6884526D01*
X22506916Y6930776D01*
X22537029Y6992928D01*
X22539459Y7007368D01*
X22560151Y7130364D01*
X22560958Y7135161D01*
X22561110Y7147590D01*
X22548666Y7234484D01*
X22541936Y7281479D01*
X22541935Y7281482D01*
X22540663Y7290365D01*
X22533528Y7306059D01*
X22505444Y7367825D01*
X22480966Y7421663D01*
X22448628Y7459193D01*
X22392675Y7524130D01*
X22392673Y7524132D01*
X22386817Y7530928D01*
X22265785Y7609376D01*
X22127601Y7650702D01*
X22118625Y7650757D01*
X22118624Y7650757D01*
X22056628Y7651136D01*
X21983371Y7651583D01*
X21974739Y7649116D01*
X21853326Y7614417D01*
X21853323Y7614416D01*
X21844692Y7611949D01*
X21722711Y7534985D01*
X21716769Y7528257D01*
X21716768Y7528256D01*
X21670518Y7475887D01*
X21627235Y7426878D01*
X21623420Y7418753D01*
X21623419Y7418751D01*
X21575012Y7315647D01*
X21565938Y7296319D01*
X21564557Y7287450D01*
X21550445Y7196813D01*
X21543748Y7153805D01*
X21544912Y7144903D01*
X21544912Y7144900D01*
X21551087Y7097680D01*
X21562449Y7010790D01*
X21613471Y6894833D01*
X21620538Y6878773D01*
X21617480Y6877427D01*
X21632154Y6824710D01*
X21611193Y6756878D01*
X21556886Y6711148D01*
X21531536Y6703989D01*
X21530961Y6703993D01*
X21463822Y6684805D01*
X21392830Y6685317D01*
X21333383Y6724131D01*
X21304356Y6788923D01*
X21303200Y6805954D01*
X21303200Y6843584D01*
X21305680Y6868460D01*
X21305731Y6868711D01*
X21308724Y6883574D01*
X21308407Y6895201D01*
X21305393Y7005643D01*
X21305363Y7011160D01*
X21305411Y7014086D01*
X21305411Y7014087D01*
X21305450Y7016471D01*
X21305451Y7016474D01*
X21305456Y7016810D01*
X21305529Y7021219D01*
X21304884Y7024252D01*
X21304805Y7027155D01*
X21303046Y7034001D01*
X21303045Y7034006D01*
X21302359Y7036673D01*
X21301145Y7041843D01*
X21298653Y7053571D01*
X21256530Y7251741D01*
X21256270Y7252964D01*
X21256270Y7252965D01*
X21255632Y7255965D01*
X21255075Y7258817D01*
X21254981Y7259029D01*
X21254973Y7259065D01*
X21254755Y7259536D01*
X21252233Y7265200D01*
X21252232Y7265204D01*
X21158429Y7475887D01*
X21158426Y7475891D01*
X21157480Y7478017D01*
X21156324Y7480734D01*
X21156186Y7480925D01*
X21156172Y7480955D01*
X21155892Y7481329D01*
X21066408Y7604494D01*
X21017313Y7672068D01*
X21017311Y7672070D01*
X21015263Y7674889D01*
X21013593Y7677270D01*
X21013421Y7677425D01*
X21013399Y7677455D01*
X21013010Y7677795D01*
X21008325Y7682014D01*
X21008320Y7682019D01*
X20837996Y7835379D01*
X20837995Y7835380D01*
X20835227Y7837872D01*
X20833117Y7839836D01*
X20832918Y7839951D01*
X20832889Y7839977D01*
X20832412Y7840243D01*
X20798935Y7859571D01*
X20627605Y7958489D01*
X20627602Y7958490D01*
X20625278Y7959832D01*
X20622787Y7961326D01*
X20622567Y7961398D01*
X20622533Y7961417D01*
X20622014Y7961577D01*
X20616207Y7963464D01*
X20616200Y7963467D01*
X20450109Y8017433D01*
X20394530Y8035492D01*
X20391793Y8036432D01*
X20391564Y8036456D01*
X20391527Y8036468D01*
X20390990Y8036516D01*
X20337024Y8042188D01*
X20158087Y8060995D01*
X20158085Y8060995D01*
X20153157Y8061513D01*
X20150232Y8061870D01*
X20149998Y8061845D01*
X20149964Y8061849D01*
X20149487Y8061792D01*
X20142979Y8061108D01*
X20142978Y8061108D01*
X20080746Y8054567D01*
X19911534Y8036782D01*
X19908659Y8036528D01*
X19908440Y8036457D01*
X19908403Y8036453D01*
X19907906Y8036283D01*
X19901944Y8034346D01*
X19901940Y8034345D01*
X19685047Y7963872D01*
X19685043Y7963870D01*
X19680432Y7962372D01*
X19677637Y7961515D01*
X19677435Y7961398D01*
X19677400Y7961387D01*
X19676958Y7961123D01*
X19671346Y7957883D01*
X19537965Y7880876D01*
X19469824Y7841535D01*
X19467257Y7840109D01*
X19467083Y7839952D01*
X19467053Y7839935D01*
X19466697Y7839605D01*
X19461887Y7835274D01*
X19298082Y7687781D01*
X19288926Y7679537D01*
X19286717Y7677614D01*
X19286580Y7677425D01*
X19286553Y7677401D01*
X19286263Y7676989D01*
X19282464Y7671760D01*
X19282463Y7671759D01*
X19178203Y7528256D01*
X19145653Y7483455D01*
X19143908Y7481135D01*
X19143814Y7480923D01*
X19143791Y7480892D01*
X19143578Y7480393D01*
X19138701Y7469440D01*
X19047641Y7264917D01*
X19047640Y7264913D01*
X19046305Y7261915D01*
X19045068Y7259257D01*
X19045019Y7259028D01*
X19045005Y7258996D01*
X19044909Y7258509D01*
X19010197Y7095201D01*
X18998981Y7042436D01*
X18997713Y7037058D01*
X18997059Y7034532D01*
X18996373Y7031881D01*
X18996371Y7031876D01*
X18996299Y7031596D01*
X18995201Y7027352D01*
X18995116Y7024254D01*
X18994512Y7021410D01*
X18994628Y7013580D01*
X18994658Y7011566D01*
X18994625Y7006274D01*
X18993780Y6975321D01*
X18991598Y6895366D01*
X18991281Y6883771D01*
X18994366Y6868314D01*
X18996801Y6843663D01*
X18996800Y560533D01*
X18994424Y541892D01*
X18995269Y541773D01*
X18994272Y534719D01*
X18992484Y527816D01*
X18991391Y487961D01*
X18991158Y479448D01*
X18986911Y450288D01*
X18974530Y404084D01*
X18961944Y373699D01*
X18940597Y336723D01*
X18940352Y336299D01*
X18920327Y310203D01*
X18889797Y279673D01*
X18863706Y259651D01*
X18826301Y238056D01*
X18795919Y225471D01*
X18749704Y213088D01*
X18720552Y208842D01*
X18690418Y208016D01*
X18679450Y207715D01*
X18679449Y207715D01*
X18672381Y207521D01*
X18665530Y205759D01*
X18658531Y204776D01*
X18658419Y205576D01*
X18639637Y203200D01*
X8560530Y203200D01*
X8541892Y205574D01*
X8541773Y204730D01*
X8534718Y205727D01*
X8527816Y207515D01*
X8479445Y208841D01*
X8450300Y213085D01*
X8404077Y225471D01*
X8373705Y238052D01*
X8336294Y259651D01*
X8310203Y279673D01*
X8279674Y310202D01*
X8259650Y336297D01*
X8238055Y373701D01*
X8225468Y404089D01*
X8224797Y406595D01*
X8215832Y440049D01*
X8213088Y450290D01*
X8208841Y479448D01*
X8208608Y487967D01*
X8207520Y527619D01*
X8205758Y534470D01*
X8204775Y541469D01*
X8205576Y541582D01*
X8203200Y560359D01*
X8203200Y6843390D01*
X8205771Y6868711D01*
X8207233Y6875836D01*
X8207233Y6875841D01*
X8208665Y6882819D01*
X8205874Y7000651D01*
X8205895Y7007368D01*
X8205975Y7010064D01*
X8206187Y7017189D01*
X8205387Y7021210D01*
X8205295Y7025103D01*
X8202905Y7034544D01*
X8201477Y7040869D01*
X8162272Y7237961D01*
X8161596Y7241644D01*
X8161050Y7244891D01*
X8161050Y7244892D01*
X8160148Y7250253D01*
X8159531Y7251743D01*
X8159256Y7253125D01*
X8156959Y7258260D01*
X8155960Y7260494D01*
X8154567Y7263727D01*
X8073997Y7458239D01*
X8072619Y7461710D01*
X8071463Y7464754D01*
X8071463Y7464755D01*
X8069525Y7469856D01*
X8068628Y7471198D01*
X8068089Y7472500D01*
X8065037Y7476803D01*
X8065035Y7476806D01*
X8063401Y7479109D01*
X8061399Y7482017D01*
X7944460Y7657030D01*
X7942431Y7660165D01*
X7940689Y7662947D01*
X7937800Y7667562D01*
X7936660Y7668702D01*
X7935877Y7669874D01*
X7929969Y7675461D01*
X7927483Y7677879D01*
X7778609Y7826752D01*
X7776006Y7829434D01*
X7773768Y7831809D01*
X7773767Y7831809D01*
X7770037Y7835768D01*
X7768699Y7836662D01*
X7767700Y7837661D01*
X7763243Y7840462D01*
X7763241Y7840464D01*
X7760829Y7841980D01*
X7757877Y7843893D01*
X7667931Y7903993D01*
X7582847Y7960844D01*
X7579797Y7962949D01*
X7577124Y7964852D01*
X7577121Y7964853D01*
X7572682Y7968014D01*
X7571192Y7968631D01*
X7570019Y7969415D01*
X7562433Y7972312D01*
X7559193Y7973602D01*
X7364686Y8054169D01*
X7361258Y8055649D01*
X7358260Y8056996D01*
X7358261Y8056996D01*
X7353318Y8059217D01*
X7351741Y8059531D01*
X7350434Y8060072D01*
X7342377Y8061442D01*
X7338981Y8062069D01*
X7141386Y8101373D01*
X7134862Y8102853D01*
X7125301Y8105291D01*
X7121203Y8105388D01*
X7117382Y8106148D01*
X7110315Y8105951D01*
X7110312Y8105951D01*
X7107660Y8105877D01*
X7101166Y8105863D01*
X6990080Y8108493D01*
X6990078Y8108493D01*
X6983017Y8108660D01*
X6968926Y8105795D01*
X6968587Y8105726D01*
X6943482Y8103200D01*
X6656610Y8103200D01*
X6631289Y8105771D01*
X6624164Y8107233D01*
X6624159Y8107233D01*
X6617181Y8108665D01*
X6499349Y8105874D01*
X6492646Y8105895D01*
X6482811Y8106187D01*
X6478790Y8105387D01*
X6474897Y8105295D01*
X6465456Y8102905D01*
X6459133Y8101477D01*
X6285340Y8066907D01*
X6262039Y8062272D01*
X6258356Y8061596D01*
X6255109Y8061050D01*
X6255108Y8061050D01*
X6249747Y8060148D01*
X6248257Y8059531D01*
X6246875Y8059256D01*
X6242074Y8057108D01*
X6242073Y8057108D01*
X6239506Y8055960D01*
X6236273Y8054567D01*
X6041761Y7973997D01*
X6038295Y7972621D01*
X6030144Y7969525D01*
X6028802Y7968628D01*
X6027500Y7968089D01*
X6023197Y7965037D01*
X6023194Y7965035D01*
X6020891Y7963401D01*
X6017987Y7961402D01*
X6017965Y7961387D01*
X5842970Y7844460D01*
X5839835Y7842431D01*
X5832438Y7837800D01*
X5831298Y7836660D01*
X5830126Y7835877D01*
X5824539Y7829969D01*
X5822121Y7827483D01*
X5673248Y7678609D01*
X5670566Y7676006D01*
X5664232Y7670037D01*
X5663338Y7668699D01*
X5662339Y7667700D01*
X5659538Y7663243D01*
X5659536Y7663241D01*
X5658020Y7660829D01*
X5656107Y7657877D01*
X5539563Y7483455D01*
X5539175Y7482875D01*
X5537051Y7479797D01*
X5535784Y7478017D01*
X5531986Y7472682D01*
X5531369Y7471192D01*
X5530585Y7470019D01*
X5528704Y7465094D01*
X5527696Y7462454D01*
X5526398Y7459193D01*
X5445831Y7264686D01*
X5444351Y7261258D01*
X5440783Y7253318D01*
X5440469Y7251741D01*
X5439928Y7250434D01*
X5438558Y7242377D01*
X5437931Y7238981D01*
X5400097Y7048774D01*
X5398630Y7041400D01*
X5397147Y7034862D01*
X5394709Y7025301D01*
X5394612Y7021203D01*
X5393852Y7017382D01*
X5394049Y7010315D01*
X5394049Y7010312D01*
X5394123Y7007660D01*
X5394137Y7001166D01*
X5392011Y6911338D01*
X5391340Y6883017D01*
X5393497Y6872408D01*
X5394274Y6868587D01*
X5396800Y6843482D01*
X5396801Y1060181D01*
X5394407Y1041103D01*
X5395115Y1041006D01*
X5394144Y1033948D01*
X5392382Y1027039D01*
X5392213Y1019913D01*
X5392213Y1019911D01*
X5390216Y935579D01*
X5387830Y913981D01*
X5361556Y781893D01*
X5354386Y758256D01*
X5304371Y637508D01*
X5292727Y615724D01*
X5220120Y507060D01*
X5204451Y487967D01*
X5112039Y395554D01*
X5092945Y379884D01*
X4988661Y310203D01*
X4984280Y307276D01*
X4962499Y295633D01*
X4841743Y245613D01*
X4818110Y238445D01*
X4774463Y229763D01*
X4686015Y212170D01*
X4664418Y209784D01*
X4580230Y207790D01*
X4580226Y207789D01*
X4573159Y207622D01*
X4566303Y205886D01*
X4559299Y204929D01*
X4559208Y205594D01*
X4539990Y203200D01*
X1060177Y203200D01*
X1041103Y205594D01*
X1041006Y204885D01*
X1033948Y205856D01*
X1027039Y207618D01*
X1019913Y207787D01*
X1019911Y207787D01*
X935579Y209784D01*
X913981Y212170D01*
X781893Y238444D01*
X758256Y245614D01*
X639232Y294915D01*
X637507Y295629D01*
X615724Y307273D01*
X507060Y379880D01*
X487967Y395549D01*
X395554Y487961D01*
X379884Y507055D01*
X307276Y615720D01*
X295632Y637503D01*
X291750Y646875D01*
X245613Y758257D01*
X238444Y781893D01*
X212170Y913985D01*
X209784Y935582D01*
X207790Y1019770D01*
X207789Y1019774D01*
X207622Y1026841D01*
X205886Y1033697D01*
X204929Y1040701D01*
X205594Y1040792D01*
X203200Y1060010D01*
X203200Y3147271D01*
X1245097Y3147271D01*
X1282483Y2900069D01*
X1358910Y2662026D01*
X1472413Y2439263D01*
X1475398Y2435184D01*
X1475399Y2435183D01*
X1617078Y2241603D01*
X1617082Y2241599D01*
X1620072Y2237513D01*
X1798087Y2061967D01*
X1802212Y2059035D01*
X1802215Y2059033D01*
X1997754Y1920070D01*
X1997758Y1920067D01*
X2001879Y1917139D01*
X2006417Y1914906D01*
X2006422Y1914903D01*
X2160735Y1838972D01*
X2226204Y1806757D01*
X2231050Y1805276D01*
X2231051Y1805275D01*
X2460444Y1735143D01*
X2460446Y1735143D01*
X2465292Y1733661D01*
X2712991Y1699730D01*
X2794212Y1701715D01*
X2957867Y1705715D01*
X2957870Y1705715D01*
X2962929Y1705839D01*
X3208674Y1751829D01*
X3443906Y1836517D01*
X3662571Y1957726D01*
X3666549Y1960856D01*
X3666553Y1960859D01*
X3855069Y2109206D01*
X3855071Y2109207D01*
X3859045Y2112335D01*
X4028272Y2296368D01*
X4165899Y2505091D01*
X4167974Y2509708D01*
X4266311Y2728516D01*
X4266313Y2728522D01*
X4268385Y2733132D01*
X4333093Y2974625D01*
X4358358Y3223357D01*
X4358700Y3256000D01*
X4338649Y3505207D01*
X4304649Y3643633D01*
X4280220Y3743088D01*
X4279013Y3748002D01*
X4181326Y3978140D01*
X4048100Y4189698D01*
X3955311Y4294947D01*
X3886112Y4373438D01*
X3886109Y4373441D01*
X3882764Y4377235D01*
X3765447Y4473600D01*
X3693477Y4532717D01*
X3693474Y4532719D01*
X3689571Y4535925D01*
X3473492Y4661686D01*
X3240086Y4751283D01*
X3235140Y4752316D01*
X3235134Y4752318D01*
X3000311Y4801374D01*
X3000312Y4801374D01*
X2995357Y4802409D01*
X2990308Y4802638D01*
X2990302Y4802639D01*
X2876115Y4807824D01*
X2745602Y4813750D01*
X2740582Y4813169D01*
X2740578Y4813169D01*
X2502277Y4785597D01*
X2497247Y4785015D01*
X2492376Y4783637D01*
X2492373Y4783636D01*
X2381849Y4752360D01*
X2256681Y4716941D01*
X2143387Y4664112D01*
X2034675Y4613419D01*
X2034671Y4613417D01*
X2030093Y4611282D01*
X2025912Y4608440D01*
X2025911Y4608440D01*
X1827500Y4473600D01*
X1827496Y4473597D01*
X1823313Y4470754D01*
X1641660Y4298974D01*
X1489809Y4100361D01*
X1371665Y3880024D01*
X1290269Y3643633D01*
X1247715Y3397269D01*
X1245097Y3147271D01*
X203200Y3147271D01*
X203200Y14706215D01*
X3491338Y14706215D01*
X3492502Y14697313D01*
X3492502Y14697310D01*
X3497776Y14656977D01*
X3510039Y14563200D01*
X3568128Y14431183D01*
X3573904Y14424312D01*
X3652427Y14330898D01*
X3660935Y14320776D01*
X3668406Y14315803D01*
X3668407Y14315802D01*
X3773525Y14245830D01*
X3780999Y14240855D01*
X3918668Y14197844D01*
X4062876Y14195201D01*
X4103580Y14206298D01*
X4193367Y14230776D01*
X4193370Y14230777D01*
X4202029Y14233138D01*
X4209679Y14237835D01*
X4209681Y14237836D01*
X4317289Y14303907D01*
X4317292Y14303910D01*
X4324941Y14308606D01*
X4331455Y14315802D01*
X4415709Y14408886D01*
X4421731Y14415539D01*
X4484619Y14545338D01*
X4484873Y14545215D01*
X4521555Y14599467D01*
X4586807Y14627445D01*
X4639397Y14622610D01*
X4688565Y14607249D01*
X4718668Y14597844D01*
X4727639Y14597680D01*
X4727643Y14597679D01*
X4771193Y14596881D01*
X4838935Y14575633D01*
X4884437Y14521134D01*
X4893819Y14487239D01*
X4910039Y14363200D01*
X4968128Y14231183D01*
X5060935Y14120776D01*
X5068406Y14115803D01*
X5068407Y14115802D01*
X5156339Y14057270D01*
X5180999Y14040855D01*
X5318668Y13997844D01*
X5462876Y13995201D01*
X5493031Y14003422D01*
X5593367Y14030776D01*
X5593370Y14030777D01*
X5602029Y14033138D01*
X5611043Y14038672D01*
X5612573Y14039088D01*
X5617916Y14041400D01*
X5618250Y14040629D01*
X5679559Y14057270D01*
X5747254Y14035873D01*
X5792635Y13981273D01*
X5802970Y13931297D01*
X5802970Y11607716D01*
X5800549Y11583136D01*
X5797970Y11570169D01*
X5800391Y11557998D01*
X5814742Y11485853D01*
X5818690Y11466003D01*
X5825583Y11455687D01*
X5863456Y11399005D01*
X5863461Y11398998D01*
X5870802Y11388012D01*
X5877696Y11377695D01*
X5888012Y11370802D01*
X5888687Y11370351D01*
X5907780Y11354681D01*
X7996521Y9265938D01*
X8030547Y9203626D01*
X8031926Y9157460D01*
X8024988Y9112902D01*
X8026152Y9104000D01*
X8026152Y9103997D01*
X8032079Y9058672D01*
X8043689Y8969887D01*
X8101778Y8837870D01*
X8122946Y8812688D01*
X8187791Y8735546D01*
X8194585Y8727463D01*
X8202056Y8722490D01*
X8202057Y8722489D01*
X8219927Y8710594D01*
X8314649Y8647542D01*
X8452318Y8604531D01*
X8596526Y8601888D01*
X8632623Y8611729D01*
X8727017Y8637463D01*
X8727020Y8637464D01*
X8735679Y8639825D01*
X8743329Y8644522D01*
X8743331Y8644523D01*
X8850939Y8710594D01*
X8850942Y8710597D01*
X8858591Y8715293D01*
X8865105Y8722489D01*
X8949359Y8815573D01*
X8955381Y8822226D01*
X9018269Y8952025D01*
X9020367Y8964492D01*
X9041391Y9089461D01*
X9042198Y9094258D01*
X9042350Y9106687D01*
X9030612Y9188648D01*
X9023176Y9240576D01*
X9023175Y9240579D01*
X9021903Y9249462D01*
X8962206Y9380760D01*
X8868057Y9490025D01*
X8747025Y9568473D01*
X8608841Y9609799D01*
X8599865Y9609854D01*
X8599864Y9609854D01*
X8464611Y9610680D01*
X8464626Y9613102D01*
X8407298Y9621737D01*
X8371313Y9646902D01*
X8352912Y9665303D01*
X8318886Y9727615D01*
X8323951Y9798430D01*
X8366498Y9855266D01*
X8433018Y9880077D01*
X8442007Y9880398D01*
X8889259Y9880399D01*
X9294454Y9880400D01*
X9362573Y9860398D01*
X9409067Y9806743D01*
X9419171Y9736469D01*
X9388895Y9670994D01*
X9355880Y9633611D01*
X9355876Y9633605D01*
X9349935Y9626878D01*
X9346120Y9618753D01*
X9346119Y9618751D01*
X9302665Y9526196D01*
X9288638Y9496319D01*
X9287257Y9487450D01*
X9268264Y9365466D01*
X9266448Y9353805D01*
X9267612Y9344903D01*
X9267612Y9344900D01*
X9273071Y9303154D01*
X9285149Y9210790D01*
X9343238Y9078773D01*
X9436045Y8968366D01*
X9451732Y8957924D01*
X9497353Y8903527D01*
X9507911Y8853038D01*
X9507910Y8444694D01*
X9487908Y8376573D01*
X9458755Y8347660D01*
X9459840Y8346385D01*
X9452999Y8340563D01*
X9445411Y8335775D01*
X9349935Y8227668D01*
X9346120Y8219543D01*
X9346119Y8219541D01*
X9292753Y8105874D01*
X9288638Y8097109D01*
X9287257Y8088240D01*
X9267964Y7964330D01*
X9266448Y7954595D01*
X9267612Y7945693D01*
X9267612Y7945690D01*
X9270775Y7921502D01*
X9285149Y7811580D01*
X9343238Y7679563D01*
X9369661Y7648129D01*
X9427853Y7578902D01*
X9436045Y7569156D01*
X9443516Y7564183D01*
X9443517Y7564182D01*
X9548635Y7494210D01*
X9556109Y7489235D01*
X9693778Y7446224D01*
X9837986Y7443581D01*
X9891752Y7458239D01*
X9968477Y7479156D01*
X9968480Y7479157D01*
X9977139Y7481518D01*
X9984789Y7486215D01*
X9984791Y7486216D01*
X10092399Y7552287D01*
X10092402Y7552290D01*
X10100051Y7556986D01*
X10106565Y7564182D01*
X10145464Y7607158D01*
X10189365Y7655660D01*
X10249907Y7692740D01*
X10320887Y7691203D01*
X10379768Y7651536D01*
X10407716Y7587442D01*
X10412160Y7553457D01*
X10470249Y7421440D01*
X10563056Y7311033D01*
X10570527Y7306060D01*
X10570528Y7306059D01*
X10672831Y7237961D01*
X10683120Y7231112D01*
X10820789Y7188101D01*
X10964997Y7185458D01*
X10984511Y7190778D01*
X11095488Y7221033D01*
X11095491Y7221034D01*
X11104150Y7223395D01*
X11224109Y7297050D01*
X11292624Y7315647D01*
X11360319Y7294250D01*
X11394800Y7259676D01*
X11406727Y7241826D01*
X11417043Y7234933D01*
X11417715Y7234484D01*
X11436809Y7218814D01*
X11752015Y6903607D01*
X11767684Y6884514D01*
X11775026Y6873526D01*
X11785342Y6866633D01*
X11796333Y6859289D01*
X11796335Y6859287D01*
X11841039Y6829417D01*
X11853014Y6821415D01*
X11853016Y6821414D01*
X11863334Y6814520D01*
X11875505Y6812099D01*
X11942351Y6798802D01*
X11942356Y6798801D01*
X11942363Y6798800D01*
X11942370Y6798800D01*
X11967500Y6793801D01*
X11979671Y6796222D01*
X11979673Y6796222D01*
X11980462Y6796379D01*
X12005042Y6798800D01*
X14104480Y6798800D01*
X14172601Y6778798D01*
X14200930Y6753876D01*
X14251556Y6693649D01*
X14251563Y6693643D01*
X14257335Y6686776D01*
X14264806Y6681803D01*
X14264807Y6681802D01*
X14291013Y6664358D01*
X14377399Y6606855D01*
X14515068Y6563844D01*
X14659276Y6561201D01*
X14678790Y6566521D01*
X14789767Y6596776D01*
X14789770Y6596777D01*
X14798429Y6599138D01*
X14806079Y6603835D01*
X14806081Y6603836D01*
X14913689Y6669907D01*
X14913692Y6669910D01*
X14921341Y6674606D01*
X14927855Y6681802D01*
X14995809Y6756878D01*
X15018131Y6781539D01*
X15081019Y6911338D01*
X15091784Y6975321D01*
X15104141Y7048774D01*
X15104948Y7053571D01*
X15105100Y7066000D01*
X15104109Y7072916D01*
X15104222Y7073699D01*
X15104094Y7075671D01*
X15104511Y7075698D01*
X15114250Y7143182D01*
X15160770Y7196813D01*
X15228901Y7216780D01*
X15298654Y7195668D01*
X15334798Y7171609D01*
X15380999Y7140855D01*
X15518668Y7097844D01*
X15662876Y7095201D01*
X15713073Y7108886D01*
X15793367Y7130776D01*
X15793370Y7130777D01*
X15802029Y7133138D01*
X15809679Y7137835D01*
X15809681Y7137836D01*
X15917289Y7203907D01*
X15917292Y7203910D01*
X15924941Y7208606D01*
X15942124Y7227589D01*
X16002493Y7294285D01*
X16063037Y7331366D01*
X16134016Y7329829D01*
X16192898Y7290161D01*
X16211237Y7260478D01*
X16268128Y7131183D01*
X16317109Y7072913D01*
X16347249Y7037058D01*
X16360935Y7020776D01*
X16368406Y7015803D01*
X16368407Y7015802D01*
X16429221Y6975321D01*
X16480999Y6940855D01*
X16618668Y6897844D01*
X16762876Y6895201D01*
X16782390Y6900521D01*
X16893367Y6930776D01*
X16893370Y6930777D01*
X16902029Y6933138D01*
X16909679Y6937835D01*
X16909681Y6937836D01*
X17017289Y7003907D01*
X17017292Y7003910D01*
X17024941Y7008606D01*
X17031455Y7015802D01*
X17105714Y7097844D01*
X17121731Y7115539D01*
X17184619Y7245338D01*
X17186923Y7259029D01*
X17207741Y7382774D01*
X17208548Y7387571D01*
X17208700Y7400000D01*
X17199649Y7463200D01*
X17189526Y7533889D01*
X17189525Y7533892D01*
X17188253Y7542775D01*
X17128556Y7674073D01*
X17071870Y7739860D01*
X17040265Y7776540D01*
X17040263Y7776542D01*
X17034407Y7783338D01*
X17027459Y7787842D01*
X16989462Y7847402D01*
X16989699Y7918398D01*
X17028282Y7977995D01*
X17055876Y7995278D01*
X17059029Y7996138D01*
X17123123Y8035492D01*
X17174289Y8066907D01*
X17174292Y8066910D01*
X17181941Y8071606D01*
X17209477Y8102027D01*
X17272709Y8171886D01*
X17278731Y8178539D01*
X17299185Y8220755D01*
X17346888Y8273338D01*
X17415447Y8291783D01*
X17483094Y8270235D01*
X17517158Y8236092D01*
X17550405Y8186616D01*
X17590518Y8126921D01*
X17716463Y8012319D01*
X17723140Y8008694D01*
X17723141Y8008693D01*
X17859433Y7934692D01*
X17859435Y7934691D01*
X17866110Y7931067D01*
X17873459Y7929139D01*
X18023468Y7889785D01*
X18023470Y7889785D01*
X18030818Y7887857D01*
X18122210Y7886421D01*
X18193482Y7885301D01*
X18193485Y7885301D01*
X18201079Y7885182D01*
X18279365Y7903112D01*
X18359661Y7921502D01*
X18359665Y7921503D01*
X18367064Y7923198D01*
X18519189Y7999709D01*
X18648672Y8110298D01*
X18748039Y8248581D01*
X18811552Y8406575D01*
X18835545Y8575158D01*
X18835700Y8590000D01*
X18834262Y8601888D01*
X18823635Y8689697D01*
X18815243Y8759049D01*
X18755052Y8918338D01*
X18717298Y8973271D01*
X18662906Y9052413D01*
X18662904Y9052415D01*
X18658604Y9058672D01*
X18647410Y9068646D01*
X18537132Y9166899D01*
X18531465Y9171948D01*
X18524759Y9175499D01*
X18524757Y9175500D01*
X18426071Y9227751D01*
X18380975Y9251628D01*
X18366488Y9255267D01*
X18332159Y9263890D01*
X18273761Y9296999D01*
X18267606Y9303154D01*
X18233580Y9365466D01*
X18230701Y9392249D01*
X18230701Y13883751D01*
X18250703Y13951872D01*
X18267606Y13972846D01*
X18272549Y13977789D01*
X18333514Y14011514D01*
X18359663Y14017503D01*
X18367064Y14019198D01*
X18519189Y14095709D01*
X18648672Y14206298D01*
X18748039Y14344581D01*
X18811552Y14502575D01*
X18835545Y14671158D01*
X18835700Y14686000D01*
X18834332Y14697310D01*
X18816155Y14847509D01*
X18815243Y14855049D01*
X18755052Y15014338D01*
X18711478Y15077739D01*
X18662906Y15148413D01*
X18662904Y15148415D01*
X18658604Y15154672D01*
X18650620Y15161786D01*
X18537132Y15262899D01*
X18531465Y15267948D01*
X18524759Y15271499D01*
X18524757Y15271500D01*
X18442183Y15315220D01*
X18380975Y15347628D01*
X18324594Y15361790D01*
X18310825Y15365249D01*
X18249629Y15401244D01*
X18217609Y15464610D01*
X18224930Y15535228D01*
X18252426Y15576548D01*
X18254762Y15578884D01*
X18317074Y15612910D01*
X18343857Y15615789D01*
X19413447Y15615789D01*
X19438027Y15613368D01*
X19438816Y15613211D01*
X19438818Y15613211D01*
X19450989Y15610790D01*
X19476119Y15615789D01*
X19476126Y15615789D01*
X19476133Y15615790D01*
X19476138Y15615791D01*
X19502660Y15621067D01*
X19555155Y15631509D01*
X19643463Y15690515D01*
X19650807Y15701506D01*
X19666477Y15720600D01*
X20378631Y16432753D01*
X20440943Y16466778D01*
X20470032Y16469636D01*
X20602876Y16467201D01*
X20612571Y16469844D01*
X20733367Y16502776D01*
X20733370Y16502777D01*
X20742029Y16505138D01*
X20749679Y16509835D01*
X20749681Y16509836D01*
X20857289Y16575907D01*
X20857292Y16575910D01*
X20864941Y16580606D01*
X20897020Y16616046D01*
X20955709Y16680886D01*
X20961731Y16687539D01*
X21024619Y16817338D01*
X21033795Y16871876D01*
X21047741Y16954774D01*
X21048548Y16959571D01*
X21048700Y16972000D01*
X21037448Y17050568D01*
X21029526Y17105889D01*
X21029525Y17105892D01*
X21028253Y17114775D01*
X20968556Y17246073D01*
X20920449Y17301904D01*
X20880265Y17348540D01*
X20880263Y17348542D01*
X20874407Y17355338D01*
X20866565Y17360421D01*
X26816339Y17360421D01*
X26825682Y17275794D01*
X26832363Y17215281D01*
X26835025Y17191168D01*
X26837634Y17184037D01*
X26837635Y17184035D01*
X26842927Y17169575D01*
X26893544Y17031257D01*
X26897781Y17024951D01*
X26897783Y17024948D01*
X26984281Y16896226D01*
X26988518Y16889921D01*
X27114463Y16775319D01*
X27121140Y16771694D01*
X27121141Y16771693D01*
X27257433Y16697692D01*
X27257435Y16697691D01*
X27264110Y16694067D01*
X27271459Y16692139D01*
X27421468Y16652785D01*
X27421470Y16652785D01*
X27428818Y16650857D01*
X27520210Y16649421D01*
X27591482Y16648301D01*
X27591485Y16648301D01*
X27599079Y16648182D01*
X27657762Y16661622D01*
X27757661Y16684502D01*
X27757665Y16684503D01*
X27765064Y16686198D01*
X27917189Y16762709D01*
X28046672Y16873298D01*
X28146039Y17011581D01*
X28209552Y17169575D01*
X28233545Y17338158D01*
X28233700Y17353000D01*
X28232927Y17359395D01*
X28214155Y17514509D01*
X28213243Y17522049D01*
X28153052Y17681338D01*
X28088477Y17775296D01*
X28060906Y17815413D01*
X28060904Y17815415D01*
X28056604Y17821672D01*
X27986239Y17884365D01*
X27935132Y17929899D01*
X27929465Y17934948D01*
X27922759Y17938499D01*
X27922757Y17938500D01*
X27854220Y17974788D01*
X27778975Y18014628D01*
X27613824Y18056112D01*
X27606226Y18056152D01*
X27606224Y18056152D01*
X27532811Y18056536D01*
X27443544Y18057003D01*
X27436165Y18055231D01*
X27436161Y18055231D01*
X27285346Y18019024D01*
X27285342Y18019023D01*
X27277967Y18017252D01*
X27126652Y17939152D01*
X27120930Y17934160D01*
X27120928Y17934159D01*
X27066606Y17886771D01*
X26998333Y17827213D01*
X26973106Y17791319D01*
X26905182Y17694672D01*
X26900420Y17687897D01*
X26891174Y17664182D01*
X26848348Y17554338D01*
X26838565Y17529247D01*
X26837573Y17521714D01*
X26837573Y17521713D01*
X26820898Y17395049D01*
X26816339Y17360421D01*
X20866565Y17360421D01*
X20753375Y17433786D01*
X20615191Y17475112D01*
X20606215Y17475167D01*
X20606214Y17475167D01*
X20544218Y17475546D01*
X20470961Y17475993D01*
X20462329Y17473526D01*
X20340916Y17438827D01*
X20340913Y17438826D01*
X20332282Y17436359D01*
X20210301Y17359395D01*
X20204359Y17352667D01*
X20204358Y17352666D01*
X20126690Y17264723D01*
X20066604Y17226904D01*
X19995610Y17227574D01*
X19963716Y17242397D01*
X19871907Y17301904D01*
X19864375Y17306786D01*
X19726191Y17348112D01*
X19717215Y17348167D01*
X19717214Y17348167D01*
X19655218Y17348546D01*
X19581961Y17348993D01*
X19573329Y17346526D01*
X19451916Y17311827D01*
X19451913Y17311826D01*
X19443282Y17309359D01*
X19321301Y17232395D01*
X19272463Y17177096D01*
X19252766Y17154793D01*
X19192680Y17116974D01*
X19158324Y17112200D01*
X18672541Y17112200D01*
X18647961Y17114621D01*
X18647172Y17114778D01*
X18635000Y17117199D01*
X18609869Y17112200D01*
X18609863Y17112200D01*
X18609858Y17112199D01*
X18609850Y17112198D01*
X18546673Y17099631D01*
X18546671Y17099630D01*
X18530833Y17096480D01*
X18463835Y17051713D01*
X18463833Y17051711D01*
X18442526Y17037474D01*
X18435633Y17027158D01*
X18435182Y17026483D01*
X18419512Y17007390D01*
X17956935Y16544813D01*
X17894623Y16510787D01*
X17823808Y16515852D01*
X17766972Y16558399D01*
X17743113Y16616046D01*
X17727526Y16724889D01*
X17727525Y16724892D01*
X17726253Y16733775D01*
X17714650Y16759296D01*
X17691931Y16809263D01*
X17666556Y16865073D01*
X17625626Y16912575D01*
X17578265Y16967540D01*
X17578263Y16967542D01*
X17572407Y16974338D01*
X17451375Y17052786D01*
X17313191Y17094112D01*
X17304215Y17094167D01*
X17304214Y17094167D01*
X17242218Y17094546D01*
X17168961Y17094993D01*
X17160329Y17092526D01*
X17038916Y17057827D01*
X17038913Y17057826D01*
X17030282Y17055359D01*
X16908301Y16978395D01*
X16812825Y16870288D01*
X16809010Y16862163D01*
X16809009Y16862161D01*
X16757508Y16752467D01*
X16751528Y16739729D01*
X16750147Y16730860D01*
X16735332Y16635709D01*
X16729338Y16597215D01*
X16730502Y16588313D01*
X16730502Y16588310D01*
X16737133Y16537602D01*
X16726133Y16467463D01*
X16701292Y16432170D01*
X15695665Y15426542D01*
X15676572Y15410872D01*
X15665581Y15403528D01*
X15658688Y15393212D01*
X15658687Y15393211D01*
X15651346Y15382225D01*
X15651341Y15382218D01*
X15606575Y15315220D01*
X15604154Y15303051D01*
X15604154Y15303050D01*
X15597172Y15267948D01*
X15585855Y15211054D01*
X15588276Y15198883D01*
X15588276Y15198881D01*
X15588434Y15198087D01*
X15590855Y15173507D01*
X15590854Y11938472D01*
X15570852Y11870351D01*
X15541558Y11838510D01*
X15427638Y11751096D01*
X15330904Y11625030D01*
X15270095Y11478223D01*
X15249354Y11320680D01*
X15270095Y11163137D01*
X15273254Y11155510D01*
X15273255Y11155507D01*
X15300499Y11089734D01*
X15330904Y11016330D01*
X15427638Y10890264D01*
X15553704Y10793530D01*
X15627108Y10763125D01*
X15692881Y10735881D01*
X15692884Y10735880D01*
X15700511Y10732721D01*
X15858054Y10711980D01*
X15866242Y10713058D01*
X16007409Y10731643D01*
X16015597Y10732721D01*
X16116039Y10774325D01*
X16186628Y10781914D01*
X16250115Y10750135D01*
X16286342Y10689077D01*
X16290256Y10657916D01*
X16290257Y9943118D01*
X16270255Y9874997D01*
X16216599Y9828504D01*
X16189108Y9820532D01*
X16188418Y9820536D01*
X16179784Y9818068D01*
X16179781Y9818068D01*
X16058373Y9783370D01*
X16058370Y9783369D01*
X16049739Y9780902D01*
X15927758Y9703938D01*
X15832282Y9595831D01*
X15828467Y9587706D01*
X15828466Y9587704D01*
X15782606Y9490025D01*
X15770985Y9465272D01*
X15769604Y9456403D01*
X15751489Y9340059D01*
X15748795Y9322758D01*
X15749959Y9313856D01*
X15749959Y9313853D01*
X15755383Y9272373D01*
X15767496Y9179743D01*
X15825585Y9047726D01*
X15858292Y9008817D01*
X15896928Y8962854D01*
X15918392Y8937319D01*
X15925863Y8932346D01*
X15925864Y8932345D01*
X15968529Y8903945D01*
X16038456Y8857398D01*
X16176125Y8814387D01*
X16268844Y8812688D01*
X16336586Y8791441D01*
X16382088Y8736943D01*
X16390903Y8666495D01*
X16380592Y8633164D01*
X16370528Y8611729D01*
X16369147Y8602860D01*
X16352611Y8496656D01*
X16348338Y8469215D01*
X16367039Y8326200D01*
X16425128Y8194183D01*
X16517935Y8083776D01*
X16525406Y8078803D01*
X16530345Y8074387D01*
X16567796Y8014071D01*
X16566693Y7943083D01*
X16527386Y7883961D01*
X16499282Y7866360D01*
X16492282Y7864359D01*
X16484695Y7859572D01*
X16484693Y7859571D01*
X16446968Y7835768D01*
X16370301Y7787395D01*
X16364359Y7780667D01*
X16364358Y7780666D01*
X16298862Y7706505D01*
X16238776Y7668686D01*
X16167783Y7669356D01*
X16108421Y7708302D01*
X16089522Y7743352D01*
X16088253Y7742775D01*
X16060707Y7803360D01*
X16028556Y7874073D01*
X15990363Y7918398D01*
X15940265Y7976540D01*
X15940263Y7976542D01*
X15934407Y7983338D01*
X15813375Y8061786D01*
X15675191Y8103112D01*
X15666215Y8103167D01*
X15666214Y8103167D01*
X15604218Y8103546D01*
X15530961Y8103993D01*
X15522329Y8101526D01*
X15400916Y8066827D01*
X15400913Y8066826D01*
X15392282Y8064359D01*
X15270301Y7987395D01*
X15264359Y7980667D01*
X15264358Y7980666D01*
X15216619Y7926611D01*
X15174825Y7879288D01*
X15171010Y7871163D01*
X15171009Y7871161D01*
X15129777Y7783338D01*
X15113528Y7748729D01*
X15112147Y7739860D01*
X15093843Y7622302D01*
X15091338Y7606215D01*
X15092502Y7597313D01*
X15092502Y7597311D01*
X15093261Y7591511D01*
X15082261Y7521372D01*
X15035087Y7468314D01*
X14966717Y7449183D01*
X14899793Y7469440D01*
X14889846Y7475887D01*
X14809775Y7527786D01*
X14785704Y7534985D01*
X14751423Y7545237D01*
X14671591Y7569112D01*
X14662615Y7569167D01*
X14662614Y7569167D01*
X14600618Y7569546D01*
X14527361Y7569993D01*
X14518729Y7567526D01*
X14397316Y7532827D01*
X14397313Y7532826D01*
X14388682Y7530359D01*
X14266701Y7453395D01*
X14198166Y7375793D01*
X14138080Y7337974D01*
X14103724Y7333200D01*
X12639512Y7333200D01*
X12571391Y7353202D01*
X12524898Y7406858D01*
X12514794Y7477132D01*
X12526120Y7514139D01*
X12544603Y7552287D01*
X12574238Y7613453D01*
X12576503Y7626913D01*
X12597360Y7750889D01*
X12598167Y7755686D01*
X12598319Y7768115D01*
X12588009Y7840109D01*
X12579145Y7902004D01*
X12579144Y7902007D01*
X12577872Y7910890D01*
X12560827Y7948380D01*
X12555168Y7960825D01*
X12518175Y8042188D01*
X12492375Y8072130D01*
X12429884Y8144655D01*
X12429882Y8144657D01*
X12424026Y8151453D01*
X12416495Y8156334D01*
X12416492Y8156337D01*
X12353800Y8196972D01*
X12307516Y8250807D01*
X12296332Y8302704D01*
X12296332Y9246395D01*
X12891338Y9246395D01*
X12892502Y9237493D01*
X12892502Y9237490D01*
X12898889Y9188648D01*
X12910039Y9103380D01*
X12968128Y8971363D01*
X13060935Y8860956D01*
X13068406Y8855983D01*
X13068407Y8855982D01*
X13105939Y8830999D01*
X13180999Y8781035D01*
X13318668Y8738024D01*
X13462876Y8735381D01*
X13522034Y8751509D01*
X13593367Y8770956D01*
X13593370Y8770957D01*
X13602029Y8773318D01*
X13614114Y8780738D01*
X13682631Y8799334D01*
X13750326Y8777935D01*
X13795705Y8723335D01*
X13804975Y8689697D01*
X13810039Y8650970D01*
X13868128Y8518953D01*
X13960935Y8408546D01*
X13968406Y8403573D01*
X13968407Y8403572D01*
X14066873Y8338028D01*
X14080999Y8328625D01*
X14218668Y8285614D01*
X14362876Y8282971D01*
X14382390Y8288291D01*
X14493367Y8318546D01*
X14493370Y8318547D01*
X14502029Y8320908D01*
X14509679Y8325605D01*
X14509681Y8325606D01*
X14617289Y8391677D01*
X14617292Y8391680D01*
X14624941Y8396376D01*
X14631455Y8403572D01*
X14715709Y8496656D01*
X14721731Y8503309D01*
X14784619Y8633108D01*
X14786540Y8644523D01*
X14807741Y8770544D01*
X14808548Y8775341D01*
X14808700Y8787770D01*
X14798931Y8855982D01*
X14789526Y8921659D01*
X14789525Y8921662D01*
X14788253Y8930545D01*
X14728556Y9061843D01*
X14676917Y9121773D01*
X14640265Y9164310D01*
X14640263Y9164312D01*
X14634407Y9171108D01*
X14513375Y9249556D01*
X14500265Y9253477D01*
X14475131Y9260993D01*
X14375191Y9290882D01*
X14366215Y9290937D01*
X14366214Y9290937D01*
X14304218Y9291316D01*
X14230961Y9291763D01*
X14222329Y9289296D01*
X14100916Y9254597D01*
X14100913Y9254596D01*
X14092282Y9252129D01*
X14084690Y9247339D01*
X14076495Y9243673D01*
X14075683Y9245489D01*
X14018468Y9229203D01*
X13950516Y9249769D01*
X13904469Y9303809D01*
X13894786Y9337337D01*
X13889526Y9374069D01*
X13889525Y9374072D01*
X13888253Y9382955D01*
X13828556Y9514253D01*
X13779621Y9571045D01*
X13740265Y9616720D01*
X13740263Y9616722D01*
X13734407Y9623518D01*
X13613375Y9701966D01*
X13475191Y9743292D01*
X13466215Y9743347D01*
X13466214Y9743347D01*
X13404218Y9743726D01*
X13330961Y9744173D01*
X13322329Y9741706D01*
X13200916Y9707007D01*
X13200913Y9707006D01*
X13192282Y9704539D01*
X13070301Y9627575D01*
X13064359Y9620847D01*
X13064358Y9620846D01*
X13048208Y9602559D01*
X12974825Y9519468D01*
X12971010Y9511343D01*
X12971009Y9511341D01*
X12957810Y9483227D01*
X12913528Y9388909D01*
X12912147Y9380040D01*
X12898265Y9290882D01*
X12891338Y9246395D01*
X12296332Y9246395D01*
X12296332Y10712351D01*
X12316334Y10780472D01*
X12356403Y10819726D01*
X12453936Y10879611D01*
X12550726Y10986544D01*
X12613614Y11116343D01*
X12618922Y11147890D01*
X12636736Y11253779D01*
X12637543Y11258576D01*
X12637695Y11271005D01*
X12625712Y11354681D01*
X12618521Y11404894D01*
X12618520Y11404897D01*
X12617248Y11413780D01*
X12557551Y11545078D01*
X12488660Y11625030D01*
X12469260Y11647545D01*
X12469258Y11647547D01*
X12463402Y11654343D01*
X12342370Y11732791D01*
X12204186Y11774117D01*
X12195210Y11774172D01*
X12195209Y11774172D01*
X12133213Y11774551D01*
X12059956Y11774998D01*
X12051324Y11772531D01*
X11929911Y11737832D01*
X11929908Y11737831D01*
X11921277Y11735364D01*
X11799296Y11658400D01*
X11703820Y11550293D01*
X11700005Y11542168D01*
X11700004Y11542166D01*
X11693400Y11528099D01*
X11646344Y11474936D01*
X11578016Y11455654D01*
X11510110Y11476374D01*
X11464186Y11530517D01*
X11453345Y11581647D01*
X11453345Y12051003D01*
X11455766Y12075583D01*
X11455923Y12076372D01*
X11455923Y12076374D01*
X11458344Y12088545D01*
X11453345Y12113677D01*
X11453345Y12113682D01*
X11449043Y12135312D01*
X11443946Y12160931D01*
X11437625Y12192711D01*
X11430733Y12203026D01*
X11430732Y12203028D01*
X11422728Y12215006D01*
X11392858Y12259710D01*
X11392853Y12259716D01*
X11385512Y12270703D01*
X11378619Y12281019D01*
X11367628Y12288363D01*
X11348535Y12304033D01*
X9426481Y14226086D01*
X9410811Y14245179D01*
X9410358Y14245857D01*
X9410356Y14245859D01*
X9403464Y14256174D01*
X9315156Y14315180D01*
X9262661Y14325622D01*
X9236139Y14330898D01*
X9236134Y14330899D01*
X9236127Y14330900D01*
X9236120Y14330900D01*
X9210990Y14335899D01*
X9198819Y14333478D01*
X9198817Y14333478D01*
X9198028Y14333321D01*
X9173448Y14330900D01*
X8472769Y14330900D01*
X8404648Y14350902D01*
X8383674Y14367804D01*
X8131405Y14620072D01*
X8097380Y14682385D01*
X8094500Y14709168D01*
X8094500Y16567103D01*
X8114502Y16635224D01*
X8168158Y16681717D01*
X8238432Y16691821D01*
X8305298Y16660298D01*
X8312842Y16653433D01*
X8312846Y16653430D01*
X8318463Y16648319D01*
X8325140Y16644694D01*
X8325141Y16644693D01*
X8461433Y16570692D01*
X8461435Y16570691D01*
X8468110Y16567067D01*
X8475459Y16565139D01*
X8625468Y16525785D01*
X8625470Y16525785D01*
X8632818Y16523857D01*
X8724210Y16522421D01*
X8795482Y16521301D01*
X8795485Y16521301D01*
X8803079Y16521182D01*
X8889150Y16540895D01*
X8961661Y16557502D01*
X8961665Y16557503D01*
X8969064Y16559198D01*
X9121189Y16635709D01*
X9250672Y16746298D01*
X9350039Y16884581D01*
X9413552Y17042575D01*
X9437545Y17211158D01*
X9437700Y17226000D01*
X9436927Y17232395D01*
X9424621Y17334078D01*
X9417243Y17395049D01*
X9357052Y17554338D01*
X9281477Y17664301D01*
X9264906Y17688413D01*
X9264904Y17688415D01*
X9260604Y17694672D01*
X9133465Y17807948D01*
X9126759Y17811499D01*
X9126757Y17811500D01*
X8991213Y17883266D01*
X8982975Y17887628D01*
X8817824Y17929112D01*
X8810226Y17929152D01*
X8810224Y17929152D01*
X8736811Y17929536D01*
X8647544Y17930003D01*
X8640165Y17928231D01*
X8640161Y17928231D01*
X8489346Y17892024D01*
X8489342Y17892023D01*
X8481967Y17890252D01*
X8468432Y17883266D01*
X8349097Y17821672D01*
X8330652Y17812152D01*
X8303327Y17788315D01*
X8238846Y17758609D01*
X8168539Y17768479D01*
X8114729Y17814793D01*
X8094500Y17883266D01*
X8094500Y18376421D01*
X9671339Y18376421D01*
X9679287Y18304433D01*
X9689035Y18216139D01*
X9690025Y18207168D01*
X9692634Y18200037D01*
X9692635Y18200035D01*
X9702207Y18173878D01*
X9748544Y18047257D01*
X9752781Y18040951D01*
X9752783Y18040948D01*
X9827362Y17929963D01*
X9843518Y17905921D01*
X9969463Y17791319D01*
X9976140Y17787694D01*
X9976141Y17787693D01*
X10112433Y17713692D01*
X10112435Y17713691D01*
X10119110Y17710067D01*
X10126459Y17708139D01*
X10276468Y17668785D01*
X10276470Y17668785D01*
X10283818Y17666857D01*
X10375210Y17665421D01*
X10446482Y17664301D01*
X10446485Y17664301D01*
X10454079Y17664182D01*
X10526711Y17680817D01*
X10612661Y17700502D01*
X10612665Y17700503D01*
X10620064Y17702198D01*
X10772189Y17778709D01*
X10901672Y17889298D01*
X11001039Y18027581D01*
X11064552Y18185575D01*
X11088545Y18354158D01*
X11088700Y18369000D01*
X11068243Y18538049D01*
X11008052Y18697338D01*
X10911604Y18837672D01*
X10859134Y18884421D01*
X25165339Y18884421D01*
X25184025Y18715168D01*
X25186634Y18708037D01*
X25186635Y18708035D01*
X25190550Y18697338D01*
X25242544Y18555257D01*
X25246781Y18548951D01*
X25246783Y18548948D01*
X25333281Y18420226D01*
X25337518Y18413921D01*
X25463463Y18299319D01*
X25470140Y18295694D01*
X25470141Y18295693D01*
X25606433Y18221692D01*
X25606435Y18221691D01*
X25613110Y18218067D01*
X25620459Y18216139D01*
X25770468Y18176785D01*
X25770470Y18176785D01*
X25777818Y18174857D01*
X25869210Y18173421D01*
X25940482Y18172301D01*
X25940485Y18172301D01*
X25948079Y18172182D01*
X26006762Y18185622D01*
X26106661Y18208502D01*
X26106665Y18208503D01*
X26114064Y18210198D01*
X26266189Y18286709D01*
X26395672Y18397298D01*
X26495039Y18535581D01*
X26558552Y18693575D01*
X26582545Y18862158D01*
X26582700Y18877000D01*
X26562243Y19046049D01*
X26502052Y19205338D01*
X26437477Y19299296D01*
X26409906Y19339413D01*
X26409904Y19339415D01*
X26405604Y19345672D01*
X26335239Y19408365D01*
X26284132Y19453899D01*
X26278465Y19458948D01*
X26271759Y19462499D01*
X26271757Y19462500D01*
X26203220Y19498788D01*
X26127975Y19538628D01*
X25962824Y19580112D01*
X25955226Y19580152D01*
X25955224Y19580152D01*
X25881811Y19580536D01*
X25792544Y19581003D01*
X25785165Y19579231D01*
X25785161Y19579231D01*
X25634346Y19543024D01*
X25634342Y19543023D01*
X25626967Y19541252D01*
X25475652Y19463152D01*
X25469930Y19458160D01*
X25469928Y19458159D01*
X25418503Y19413298D01*
X25347333Y19351213D01*
X25322106Y19315319D01*
X25261870Y19229611D01*
X25249420Y19211897D01*
X25240174Y19188182D01*
X25194577Y19071231D01*
X25187565Y19053247D01*
X25186573Y19045714D01*
X25186573Y19045713D01*
X25173433Y18945899D01*
X25165339Y18884421D01*
X10859134Y18884421D01*
X10784465Y18950948D01*
X10777759Y18954499D01*
X10777757Y18954500D01*
X10709220Y18990788D01*
X10633975Y19030628D01*
X10468824Y19072112D01*
X10461226Y19072152D01*
X10461224Y19072152D01*
X10387811Y19072536D01*
X10298544Y19073003D01*
X10291165Y19071231D01*
X10291161Y19071231D01*
X10140346Y19035024D01*
X10140342Y19035023D01*
X10132967Y19033252D01*
X9981652Y18955152D01*
X9853333Y18843213D01*
X9848966Y18836999D01*
X9768648Y18722718D01*
X9755420Y18703897D01*
X9748647Y18686524D01*
X9697468Y18555257D01*
X9693565Y18545247D01*
X9692573Y18537714D01*
X9692573Y18537713D01*
X9674900Y18403467D01*
X9671339Y18376421D01*
X8094500Y18376421D01*
X8094500Y19900421D01*
X8401339Y19900421D01*
X8420025Y19731168D01*
X8422634Y19724037D01*
X8422635Y19724035D01*
X8437392Y19683709D01*
X8478544Y19571257D01*
X8482781Y19564951D01*
X8482783Y19564948D01*
X8554543Y19458159D01*
X8573518Y19429921D01*
X8699463Y19315319D01*
X8706140Y19311694D01*
X8706141Y19311693D01*
X8842433Y19237692D01*
X8842435Y19237691D01*
X8849110Y19234067D01*
X8856459Y19232139D01*
X9006468Y19192785D01*
X9006470Y19192785D01*
X9013818Y19190857D01*
X9105210Y19189421D01*
X9176482Y19188301D01*
X9176485Y19188301D01*
X9184079Y19188182D01*
X9256711Y19204817D01*
X9342661Y19224502D01*
X9342665Y19224503D01*
X9350064Y19226198D01*
X9502189Y19302709D01*
X9631672Y19413298D01*
X9731039Y19551581D01*
X9794552Y19709575D01*
X9818545Y19878158D01*
X9818700Y19893000D01*
X9814658Y19926407D01*
X9799907Y20048298D01*
X9798243Y20062049D01*
X9738052Y20221338D01*
X9704691Y20269879D01*
X9645906Y20355413D01*
X9645904Y20355415D01*
X9641604Y20361672D01*
X9514465Y20474948D01*
X9507759Y20478499D01*
X9507757Y20478500D01*
X9439220Y20514788D01*
X9363975Y20554628D01*
X9198824Y20596112D01*
X9191226Y20596152D01*
X9191224Y20596152D01*
X9117811Y20596536D01*
X9028544Y20597003D01*
X9021165Y20595231D01*
X9021161Y20595231D01*
X8870346Y20559024D01*
X8870342Y20559023D01*
X8862967Y20557252D01*
X8711652Y20479152D01*
X8583333Y20367213D01*
X8575040Y20355413D01*
X8507391Y20259158D01*
X8485420Y20227897D01*
X8454492Y20148572D01*
X8434813Y20098096D01*
X8423565Y20069247D01*
X8422573Y20061714D01*
X8422573Y20061713D01*
X8405573Y19932581D01*
X8401339Y19900421D01*
X8094500Y19900421D01*
X8094500Y21215221D01*
X9671339Y21215221D01*
X9676205Y21171148D01*
X9683049Y21109159D01*
X9690025Y21045968D01*
X9692634Y21038837D01*
X9692635Y21038835D01*
X9700507Y21017324D01*
X9748544Y20886057D01*
X9752781Y20879751D01*
X9752783Y20879748D01*
X9839281Y20751026D01*
X9843518Y20744721D01*
X9969463Y20630119D01*
X9976140Y20626494D01*
X9976141Y20626493D01*
X10112433Y20552492D01*
X10112435Y20552491D01*
X10119110Y20548867D01*
X10126459Y20546939D01*
X10276468Y20507585D01*
X10276470Y20507585D01*
X10283818Y20505657D01*
X10375210Y20504221D01*
X10446482Y20503101D01*
X10446485Y20503101D01*
X10454079Y20502982D01*
X10516511Y20517281D01*
X10595715Y20535421D01*
X16275339Y20535421D01*
X16282573Y20469899D01*
X16286370Y20435509D01*
X16294025Y20366168D01*
X16296634Y20359037D01*
X16296635Y20359035D01*
X16301927Y20344575D01*
X16352544Y20206257D01*
X16356781Y20199951D01*
X16356783Y20199948D01*
X16410696Y20119718D01*
X16447518Y20064921D01*
X16573463Y19950319D01*
X16580140Y19946694D01*
X16580141Y19946693D01*
X16716433Y19872692D01*
X16716435Y19872691D01*
X16723110Y19869067D01*
X16730459Y19867139D01*
X16880468Y19827785D01*
X16880470Y19827785D01*
X16887818Y19825857D01*
X16979210Y19824421D01*
X17050482Y19823301D01*
X17050485Y19823301D01*
X17058079Y19823182D01*
X17116762Y19836622D01*
X17216661Y19859502D01*
X17216665Y19859503D01*
X17224064Y19861198D01*
X17376189Y19937709D01*
X17505672Y20048298D01*
X17520657Y20069151D01*
X17546442Y20105035D01*
X17605039Y20186581D01*
X17668552Y20344575D01*
X17692545Y20513158D01*
X17692700Y20528000D01*
X17691803Y20535421D01*
X18307339Y20535421D01*
X18314573Y20469899D01*
X18318370Y20435509D01*
X18326025Y20366168D01*
X18328634Y20359037D01*
X18328635Y20359035D01*
X18333927Y20344575D01*
X18384544Y20206257D01*
X18388781Y20199951D01*
X18388783Y20199948D01*
X18442696Y20119718D01*
X18479518Y20064921D01*
X18605463Y19950319D01*
X18612140Y19946694D01*
X18612141Y19946693D01*
X18748433Y19872692D01*
X18748435Y19872691D01*
X18755110Y19869067D01*
X18762459Y19867139D01*
X18912468Y19827785D01*
X18912470Y19827785D01*
X18919818Y19825857D01*
X19011210Y19824421D01*
X19082482Y19823301D01*
X19082485Y19823301D01*
X19090079Y19823182D01*
X19148762Y19836622D01*
X19248661Y19859502D01*
X19248665Y19859503D01*
X19256064Y19861198D01*
X19408189Y19937709D01*
X19537672Y20048298D01*
X19552657Y20069151D01*
X19578442Y20105035D01*
X19637039Y20186581D01*
X19675164Y20281421D01*
X26562339Y20281421D01*
X26581025Y20112168D01*
X26583634Y20105037D01*
X26583635Y20105035D01*
X26604398Y20048298D01*
X26639544Y19952257D01*
X26643781Y19945951D01*
X26643783Y19945948D01*
X26700733Y19861198D01*
X26734518Y19810921D01*
X26860463Y19696319D01*
X26867140Y19692694D01*
X26867141Y19692693D01*
X27003433Y19618692D01*
X27003435Y19618691D01*
X27010110Y19615067D01*
X27017459Y19613139D01*
X27167468Y19573785D01*
X27167470Y19573785D01*
X27174818Y19571857D01*
X27266210Y19570421D01*
X27337482Y19569301D01*
X27337485Y19569301D01*
X27345079Y19569182D01*
X27403762Y19582622D01*
X27503661Y19605502D01*
X27503665Y19605503D01*
X27511064Y19607198D01*
X27663189Y19683709D01*
X27792672Y19794298D01*
X27892039Y19932581D01*
X27955552Y20090575D01*
X27979545Y20259158D01*
X27979700Y20274000D01*
X27959243Y20443049D01*
X27899052Y20602338D01*
X27839142Y20689509D01*
X27806906Y20736413D01*
X27806904Y20736415D01*
X27802604Y20742672D01*
X27698067Y20835811D01*
X27681132Y20850899D01*
X27675465Y20855948D01*
X27668759Y20859499D01*
X27668757Y20859500D01*
X27581885Y20905496D01*
X27524975Y20935628D01*
X27359824Y20977112D01*
X27352226Y20977152D01*
X27352224Y20977152D01*
X27278811Y20977536D01*
X27189544Y20978003D01*
X27182165Y20976231D01*
X27182161Y20976231D01*
X27031346Y20940024D01*
X27031342Y20940023D01*
X27023967Y20938252D01*
X26872652Y20860152D01*
X26866930Y20855160D01*
X26866928Y20855159D01*
X26802534Y20798985D01*
X26744333Y20748213D01*
X26739966Y20741999D01*
X26652473Y20617509D01*
X26646420Y20608897D01*
X26624927Y20553771D01*
X26594196Y20474948D01*
X26584565Y20450247D01*
X26583573Y20442714D01*
X26583573Y20442713D01*
X26573634Y20367213D01*
X26562339Y20281421D01*
X19675164Y20281421D01*
X19700552Y20344575D01*
X19724545Y20513158D01*
X19724700Y20528000D01*
X19723333Y20539302D01*
X19705155Y20689509D01*
X19704243Y20697049D01*
X19644052Y20856338D01*
X19623627Y20886057D01*
X19551906Y20990413D01*
X19551904Y20990415D01*
X19547604Y20996672D01*
X19521985Y21019498D01*
X19426132Y21104899D01*
X19420465Y21109948D01*
X19413759Y21113499D01*
X19413757Y21113500D01*
X19316799Y21164836D01*
X19269975Y21189628D01*
X19104824Y21231112D01*
X19097226Y21231152D01*
X19097224Y21231152D01*
X19023811Y21231536D01*
X18934544Y21232003D01*
X18927165Y21230231D01*
X18927161Y21230231D01*
X18776346Y21194024D01*
X18776342Y21194023D01*
X18768967Y21192252D01*
X18617652Y21114152D01*
X18489333Y21002213D01*
X18391420Y20862897D01*
X18380860Y20835811D01*
X18346516Y20747723D01*
X18329565Y20704247D01*
X18328573Y20696714D01*
X18328573Y20696713D01*
X18308523Y20544411D01*
X18307339Y20535421D01*
X17691803Y20535421D01*
X17691333Y20539302D01*
X17673155Y20689509D01*
X17672243Y20697049D01*
X17612052Y20856338D01*
X17591627Y20886057D01*
X17519906Y20990413D01*
X17519904Y20990415D01*
X17515604Y20996672D01*
X17489985Y21019498D01*
X17394132Y21104899D01*
X17388465Y21109948D01*
X17381759Y21113499D01*
X17381757Y21113500D01*
X17284799Y21164836D01*
X17237975Y21189628D01*
X17072824Y21231112D01*
X17065226Y21231152D01*
X17065224Y21231152D01*
X16991811Y21231536D01*
X16902544Y21232003D01*
X16895165Y21230231D01*
X16895161Y21230231D01*
X16744346Y21194024D01*
X16744342Y21194023D01*
X16736967Y21192252D01*
X16585652Y21114152D01*
X16457333Y21002213D01*
X16359420Y20862897D01*
X16348860Y20835811D01*
X16314516Y20747723D01*
X16297565Y20704247D01*
X16296573Y20696714D01*
X16296573Y20696713D01*
X16276523Y20544411D01*
X16275339Y20535421D01*
X10595715Y20535421D01*
X10612661Y20539302D01*
X10612665Y20539303D01*
X10620064Y20540998D01*
X10772189Y20617509D01*
X10901672Y20728098D01*
X11001039Y20866381D01*
X11064552Y21024375D01*
X11088545Y21192958D01*
X11088700Y21207800D01*
X11068243Y21376849D01*
X11008052Y21536138D01*
X10995667Y21554159D01*
X10915906Y21670213D01*
X10915904Y21670215D01*
X10911604Y21676472D01*
X10807067Y21769611D01*
X10790132Y21784699D01*
X10784465Y21789748D01*
X10777759Y21793299D01*
X10777757Y21793300D01*
X10688962Y21840314D01*
X10633975Y21869428D01*
X10468824Y21910912D01*
X10461226Y21910952D01*
X10461224Y21910952D01*
X10387811Y21911336D01*
X10298544Y21911803D01*
X10291165Y21910031D01*
X10291161Y21910031D01*
X10140346Y21873824D01*
X10140342Y21873823D01*
X10132967Y21872052D01*
X9981652Y21793952D01*
X9975930Y21788960D01*
X9975928Y21788959D01*
X9916817Y21737393D01*
X9853333Y21682013D01*
X9838360Y21660709D01*
X9780560Y21578467D01*
X9755420Y21542697D01*
X9728761Y21474319D01*
X9697082Y21393067D01*
X9693565Y21384047D01*
X9692573Y21376514D01*
X9692573Y21376513D01*
X9683649Y21308724D01*
X9671339Y21215221D01*
X8094500Y21215221D01*
X8094500Y22102710D01*
X8114502Y22170831D01*
X8168158Y22217324D01*
X8238432Y22227428D01*
X8303012Y22197934D01*
X8338826Y22146011D01*
X8351544Y22111257D01*
X8355781Y22104951D01*
X8355783Y22104948D01*
X8442281Y21976226D01*
X8446518Y21969921D01*
X8572463Y21855319D01*
X8579140Y21851694D01*
X8579141Y21851693D01*
X8715433Y21777692D01*
X8715435Y21777691D01*
X8722110Y21774067D01*
X8729459Y21772139D01*
X8879468Y21732785D01*
X8879470Y21732785D01*
X8886818Y21730857D01*
X8978210Y21729421D01*
X9049482Y21728301D01*
X9049485Y21728301D01*
X9057079Y21728182D01*
X9115762Y21741622D01*
X9215661Y21764502D01*
X9215665Y21764503D01*
X9223064Y21766198D01*
X9375189Y21842709D01*
X9504672Y21953298D01*
X9580929Y22059421D01*
X14751339Y22059421D01*
X14760283Y21978407D01*
X14767735Y21910912D01*
X14770025Y21890168D01*
X14772634Y21883037D01*
X14772635Y21883035D01*
X14787392Y21842709D01*
X14828544Y21730257D01*
X14832781Y21723951D01*
X14832783Y21723948D01*
X14870437Y21667913D01*
X14923518Y21588921D01*
X15049463Y21474319D01*
X15056140Y21470694D01*
X15056141Y21470693D01*
X15192433Y21396692D01*
X15192435Y21396691D01*
X15199110Y21393067D01*
X15206459Y21391139D01*
X15356468Y21351785D01*
X15356470Y21351785D01*
X15363818Y21349857D01*
X15455210Y21348421D01*
X15526482Y21347301D01*
X15526485Y21347301D01*
X15534079Y21347182D01*
X15630690Y21369309D01*
X15692661Y21383502D01*
X15692665Y21383503D01*
X15700064Y21385198D01*
X15852189Y21461709D01*
X15981672Y21572298D01*
X16081039Y21710581D01*
X16144552Y21868575D01*
X16168545Y22037158D01*
X16168700Y22052000D01*
X16167803Y22059421D01*
X19831339Y22059421D01*
X19840283Y21978407D01*
X19847735Y21910912D01*
X19850025Y21890168D01*
X19852634Y21883037D01*
X19852635Y21883035D01*
X19867392Y21842709D01*
X19908544Y21730257D01*
X19912781Y21723951D01*
X19912783Y21723948D01*
X19950437Y21667913D01*
X20003518Y21588921D01*
X20129463Y21474319D01*
X20136140Y21470694D01*
X20136141Y21470693D01*
X20272433Y21396692D01*
X20272435Y21396691D01*
X20279110Y21393067D01*
X20286459Y21391139D01*
X20436468Y21351785D01*
X20436470Y21351785D01*
X20443818Y21349857D01*
X20535210Y21348421D01*
X20606482Y21347301D01*
X20606485Y21347301D01*
X20614079Y21347182D01*
X20710690Y21369309D01*
X20772661Y21383502D01*
X20772665Y21383503D01*
X20780064Y21385198D01*
X20932189Y21461709D01*
X20984774Y21506621D01*
X25165339Y21506621D01*
X25170674Y21458296D01*
X25182942Y21347182D01*
X25184025Y21337368D01*
X25186634Y21330237D01*
X25186635Y21330235D01*
X25191927Y21315775D01*
X25242544Y21177457D01*
X25246781Y21171151D01*
X25246783Y21171148D01*
X25330901Y21045968D01*
X25337518Y21036121D01*
X25463463Y20921519D01*
X25470140Y20917894D01*
X25470141Y20917893D01*
X25606433Y20843892D01*
X25606435Y20843891D01*
X25613110Y20840267D01*
X25620459Y20838339D01*
X25770468Y20798985D01*
X25770470Y20798985D01*
X25777818Y20797057D01*
X25869210Y20795621D01*
X25940482Y20794501D01*
X25940485Y20794501D01*
X25948079Y20794382D01*
X26006762Y20807822D01*
X26106661Y20830702D01*
X26106665Y20830703D01*
X26114064Y20832398D01*
X26266189Y20908909D01*
X26395672Y21019498D01*
X26495039Y21157781D01*
X26558552Y21315775D01*
X26582545Y21484358D01*
X26582700Y21499200D01*
X26577437Y21542697D01*
X26563155Y21660709D01*
X26562243Y21668249D01*
X26502052Y21827538D01*
X26419011Y21948365D01*
X26409906Y21961613D01*
X26409904Y21961615D01*
X26405604Y21967872D01*
X26278465Y22081148D01*
X26271759Y22084699D01*
X26271757Y22084700D01*
X26156921Y22145502D01*
X26127975Y22160828D01*
X25962824Y22202312D01*
X25955226Y22202352D01*
X25955224Y22202352D01*
X25881811Y22202736D01*
X25792544Y22203203D01*
X25785165Y22201431D01*
X25785161Y22201431D01*
X25634346Y22165224D01*
X25634342Y22165223D01*
X25626967Y22163452D01*
X25475652Y22085352D01*
X25469930Y22080360D01*
X25469928Y22080359D01*
X25425132Y22041281D01*
X25347333Y21973413D01*
X25342966Y21967199D01*
X25255473Y21842709D01*
X25249420Y21834097D01*
X25230161Y21784699D01*
X25208126Y21728182D01*
X25187565Y21675447D01*
X25186573Y21667914D01*
X25186573Y21667913D01*
X25168290Y21529035D01*
X25165339Y21506621D01*
X20984774Y21506621D01*
X21061672Y21572298D01*
X21161039Y21710581D01*
X21224552Y21868575D01*
X21248545Y22037158D01*
X21248700Y22052000D01*
X21245269Y22080359D01*
X21237385Y22145502D01*
X21228243Y22221049D01*
X21168052Y22380338D01*
X21129045Y22437094D01*
X21075906Y22514413D01*
X21075904Y22514415D01*
X21071604Y22520672D01*
X20944465Y22633948D01*
X20937759Y22637499D01*
X20937757Y22637500D01*
X20869220Y22673788D01*
X20793975Y22713628D01*
X20628824Y22755112D01*
X20621226Y22755152D01*
X20621224Y22755152D01*
X20547811Y22755536D01*
X20458544Y22756003D01*
X20451165Y22754231D01*
X20451161Y22754231D01*
X20300346Y22718024D01*
X20300342Y22718023D01*
X20292967Y22716252D01*
X20141652Y22638152D01*
X20013333Y22526213D01*
X20008966Y22519999D01*
X19937391Y22418158D01*
X19915420Y22386897D01*
X19897318Y22340467D01*
X19864813Y22257096D01*
X19853565Y22228247D01*
X19852573Y22220714D01*
X19852573Y22220713D01*
X19833535Y22076099D01*
X19831339Y22059421D01*
X16167803Y22059421D01*
X16165269Y22080359D01*
X16157385Y22145502D01*
X16148243Y22221049D01*
X16088052Y22380338D01*
X16049045Y22437094D01*
X15995906Y22514413D01*
X15995904Y22514415D01*
X15991604Y22520672D01*
X15864465Y22633948D01*
X15857759Y22637499D01*
X15857757Y22637500D01*
X15789220Y22673788D01*
X15713975Y22713628D01*
X15548824Y22755112D01*
X15541226Y22755152D01*
X15541224Y22755152D01*
X15467811Y22755536D01*
X15378544Y22756003D01*
X15371165Y22754231D01*
X15371161Y22754231D01*
X15220346Y22718024D01*
X15220342Y22718023D01*
X15212967Y22716252D01*
X15061652Y22638152D01*
X14933333Y22526213D01*
X14928966Y22519999D01*
X14857391Y22418158D01*
X14835420Y22386897D01*
X14817318Y22340467D01*
X14784813Y22257096D01*
X14773565Y22228247D01*
X14772573Y22220714D01*
X14772573Y22220713D01*
X14753535Y22076099D01*
X14751339Y22059421D01*
X9580929Y22059421D01*
X9604039Y22091581D01*
X9667552Y22249575D01*
X9691545Y22418158D01*
X9691700Y22433000D01*
X9687658Y22466407D01*
X9672155Y22594509D01*
X9671243Y22602049D01*
X9611052Y22761338D01*
X9577691Y22809879D01*
X9569759Y22821421D01*
X26435339Y22821421D01*
X26441972Y22761338D01*
X26447036Y22715477D01*
X26454025Y22652168D01*
X26456634Y22645037D01*
X26456635Y22645035D01*
X26460981Y22633159D01*
X26512544Y22492257D01*
X26516781Y22485951D01*
X26516783Y22485948D01*
X26603281Y22357226D01*
X26607518Y22350921D01*
X26733463Y22236319D01*
X26740140Y22232694D01*
X26740141Y22232693D01*
X26876433Y22158692D01*
X26876435Y22158691D01*
X26883110Y22155067D01*
X26890459Y22153139D01*
X27040468Y22113785D01*
X27040470Y22113785D01*
X27047818Y22111857D01*
X27139210Y22110421D01*
X27210482Y22109301D01*
X27210485Y22109301D01*
X27218079Y22109182D01*
X27276762Y22122622D01*
X27376661Y22145502D01*
X27376665Y22145503D01*
X27384064Y22147198D01*
X27536189Y22223709D01*
X27665672Y22334298D01*
X27765039Y22472581D01*
X27828552Y22630575D01*
X27852545Y22799158D01*
X27852700Y22814000D01*
X27832243Y22983049D01*
X27772052Y23142338D01*
X27707477Y23236296D01*
X27679906Y23276413D01*
X27679904Y23276415D01*
X27675604Y23282672D01*
X27605239Y23345365D01*
X27554132Y23390899D01*
X27548465Y23395948D01*
X27541759Y23399499D01*
X27541757Y23399500D01*
X27473220Y23435788D01*
X27397975Y23475628D01*
X27232824Y23517112D01*
X27225226Y23517152D01*
X27225224Y23517152D01*
X27151811Y23517536D01*
X27062544Y23518003D01*
X27055165Y23516231D01*
X27055161Y23516231D01*
X26904346Y23480024D01*
X26904342Y23480023D01*
X26896967Y23478252D01*
X26745652Y23400152D01*
X26739930Y23395160D01*
X26739928Y23395159D01*
X26688503Y23350298D01*
X26617333Y23288213D01*
X26593468Y23254257D01*
X26531870Y23166611D01*
X26519420Y23148897D01*
X26497927Y23093771D01*
X26467196Y23014948D01*
X26457565Y22990247D01*
X26456573Y22982714D01*
X26456573Y22982713D01*
X26441906Y22871301D01*
X26435339Y22821421D01*
X9569759Y22821421D01*
X9518906Y22895413D01*
X9518904Y22895415D01*
X9514604Y22901672D01*
X9387465Y23014948D01*
X9380759Y23018499D01*
X9380757Y23018500D01*
X9312220Y23054788D01*
X9236975Y23094628D01*
X9071824Y23136112D01*
X9064226Y23136152D01*
X9064224Y23136152D01*
X8990811Y23136536D01*
X8901544Y23137003D01*
X8894165Y23135231D01*
X8894161Y23135231D01*
X8743346Y23099024D01*
X8743342Y23099023D01*
X8735967Y23097252D01*
X8584652Y23019152D01*
X8578930Y23014160D01*
X8578928Y23014159D01*
X8559633Y22997327D01*
X8456333Y22907213D01*
X8451966Y22900999D01*
X8380391Y22799158D01*
X8358420Y22767897D01*
X8353092Y22754231D01*
X8337893Y22715248D01*
X8294512Y22659047D01*
X8227633Y22635220D01*
X8158489Y22651334D01*
X8109033Y22702271D01*
X8094500Y22761018D01*
X8094500Y23837421D01*
X9671339Y23837421D01*
X9679287Y23765433D01*
X9689035Y23677139D01*
X9690025Y23668168D01*
X9692634Y23661037D01*
X9692635Y23661035D01*
X9702207Y23634878D01*
X9748544Y23508257D01*
X9752781Y23501951D01*
X9752783Y23501948D01*
X9824543Y23395159D01*
X9843518Y23366921D01*
X9969463Y23252319D01*
X9976140Y23248694D01*
X9976141Y23248693D01*
X10112433Y23174692D01*
X10112435Y23174691D01*
X10119110Y23171067D01*
X10126459Y23169139D01*
X10276468Y23129785D01*
X10276470Y23129785D01*
X10283818Y23127857D01*
X10375210Y23126421D01*
X10446482Y23125301D01*
X10446485Y23125301D01*
X10454079Y23125182D01*
X10526711Y23141817D01*
X10612661Y23161502D01*
X10612665Y23161503D01*
X10620064Y23163198D01*
X10772189Y23239709D01*
X10901672Y23350298D01*
X11001039Y23488581D01*
X11039164Y23583421D01*
X13227339Y23583421D01*
X13234864Y23515261D01*
X13239036Y23477477D01*
X13246025Y23414168D01*
X13248634Y23407037D01*
X13248635Y23407035D01*
X13269398Y23350298D01*
X13304544Y23254257D01*
X13308781Y23247951D01*
X13308783Y23247948D01*
X13384526Y23135231D01*
X13399518Y23112921D01*
X13525463Y22998319D01*
X13532140Y22994694D01*
X13532141Y22994693D01*
X13668433Y22920692D01*
X13668435Y22920691D01*
X13675110Y22917067D01*
X13682459Y22915139D01*
X13832468Y22875785D01*
X13832470Y22875785D01*
X13839818Y22873857D01*
X13931210Y22872421D01*
X14002482Y22871301D01*
X14002485Y22871301D01*
X14010079Y22871182D01*
X14068762Y22884622D01*
X14168661Y22907502D01*
X14168665Y22907503D01*
X14176064Y22909198D01*
X14328189Y22985709D01*
X14457672Y23096298D01*
X14557039Y23234581D01*
X14620552Y23392575D01*
X14644545Y23561158D01*
X14644700Y23576000D01*
X14643802Y23583421D01*
X16275339Y23583421D01*
X16282864Y23515261D01*
X16287036Y23477477D01*
X16294025Y23414168D01*
X16296634Y23407037D01*
X16296635Y23407035D01*
X16317398Y23350298D01*
X16352544Y23254257D01*
X16356781Y23247951D01*
X16356783Y23247948D01*
X16432526Y23135231D01*
X16447518Y23112921D01*
X16573463Y22998319D01*
X16580140Y22994694D01*
X16580141Y22994693D01*
X16716433Y22920692D01*
X16716435Y22920691D01*
X16723110Y22917067D01*
X16730459Y22915139D01*
X16880468Y22875785D01*
X16880470Y22875785D01*
X16887818Y22873857D01*
X16979210Y22872421D01*
X17050482Y22871301D01*
X17050485Y22871301D01*
X17058079Y22871182D01*
X17116762Y22884622D01*
X17216661Y22907502D01*
X17216665Y22907503D01*
X17224064Y22909198D01*
X17376189Y22985709D01*
X17505672Y23096298D01*
X17605039Y23234581D01*
X17668552Y23392575D01*
X17692545Y23561158D01*
X17692700Y23576000D01*
X17691802Y23583421D01*
X18307339Y23583421D01*
X18314864Y23515261D01*
X18319036Y23477477D01*
X18326025Y23414168D01*
X18328634Y23407037D01*
X18328635Y23407035D01*
X18349398Y23350298D01*
X18384544Y23254257D01*
X18388781Y23247951D01*
X18388783Y23247948D01*
X18464526Y23135231D01*
X18479518Y23112921D01*
X18605463Y22998319D01*
X18612140Y22994694D01*
X18612141Y22994693D01*
X18748433Y22920692D01*
X18748435Y22920691D01*
X18755110Y22917067D01*
X18762459Y22915139D01*
X18912468Y22875785D01*
X18912470Y22875785D01*
X18919818Y22873857D01*
X19011210Y22872421D01*
X19082482Y22871301D01*
X19082485Y22871301D01*
X19090079Y22871182D01*
X19148762Y22884622D01*
X19248661Y22907502D01*
X19248665Y22907503D01*
X19256064Y22909198D01*
X19408189Y22985709D01*
X19537672Y23096298D01*
X19637039Y23234581D01*
X19700552Y23392575D01*
X19724545Y23561158D01*
X19724700Y23576000D01*
X19723802Y23583421D01*
X21355339Y23583421D01*
X21362864Y23515261D01*
X21367036Y23477477D01*
X21374025Y23414168D01*
X21376634Y23407037D01*
X21376635Y23407035D01*
X21397398Y23350298D01*
X21432544Y23254257D01*
X21436781Y23247951D01*
X21436783Y23247948D01*
X21512526Y23135231D01*
X21527518Y23112921D01*
X21653463Y22998319D01*
X21660140Y22994694D01*
X21660141Y22994693D01*
X21796433Y22920692D01*
X21796435Y22920691D01*
X21803110Y22917067D01*
X21810459Y22915139D01*
X21960468Y22875785D01*
X21960470Y22875785D01*
X21967818Y22873857D01*
X22059210Y22872421D01*
X22130482Y22871301D01*
X22130485Y22871301D01*
X22138079Y22871182D01*
X22196762Y22884622D01*
X22296661Y22907502D01*
X22296665Y22907503D01*
X22304064Y22909198D01*
X22456189Y22985709D01*
X22585672Y23096298D01*
X22685039Y23234581D01*
X22748552Y23392575D01*
X22772545Y23561158D01*
X22772700Y23576000D01*
X22752243Y23745049D01*
X22692052Y23904338D01*
X22628656Y23996581D01*
X22599906Y24038413D01*
X22599904Y24038415D01*
X22595604Y24044672D01*
X22468465Y24157948D01*
X22461759Y24161499D01*
X22461757Y24161500D01*
X22393220Y24197788D01*
X22317975Y24237628D01*
X22152824Y24279112D01*
X22145226Y24279152D01*
X22145224Y24279152D01*
X22071811Y24279536D01*
X21982544Y24280003D01*
X21975165Y24278231D01*
X21975161Y24278231D01*
X21824346Y24242024D01*
X21824342Y24242023D01*
X21816967Y24240252D01*
X21665652Y24162152D01*
X21659930Y24157160D01*
X21659928Y24157159D01*
X21648883Y24147524D01*
X21537333Y24050213D01*
X21439420Y23910897D01*
X21377565Y23752247D01*
X21376573Y23744714D01*
X21376573Y23744713D01*
X21361906Y23633301D01*
X21355339Y23583421D01*
X19723802Y23583421D01*
X19704243Y23745049D01*
X19644052Y23904338D01*
X19580656Y23996581D01*
X19551906Y24038413D01*
X19551904Y24038415D01*
X19547604Y24044672D01*
X19420465Y24157948D01*
X19413759Y24161499D01*
X19413757Y24161500D01*
X19345220Y24197788D01*
X19269975Y24237628D01*
X19104824Y24279112D01*
X19097226Y24279152D01*
X19097224Y24279152D01*
X19023811Y24279536D01*
X18934544Y24280003D01*
X18927165Y24278231D01*
X18927161Y24278231D01*
X18776346Y24242024D01*
X18776342Y24242023D01*
X18768967Y24240252D01*
X18617652Y24162152D01*
X18611930Y24157160D01*
X18611928Y24157159D01*
X18600883Y24147524D01*
X18489333Y24050213D01*
X18391420Y23910897D01*
X18329565Y23752247D01*
X18328573Y23744714D01*
X18328573Y23744713D01*
X18313906Y23633301D01*
X18307339Y23583421D01*
X17691802Y23583421D01*
X17672243Y23745049D01*
X17612052Y23904338D01*
X17548656Y23996581D01*
X17519906Y24038413D01*
X17519904Y24038415D01*
X17515604Y24044672D01*
X17388465Y24157948D01*
X17381759Y24161499D01*
X17381757Y24161500D01*
X17313220Y24197788D01*
X17237975Y24237628D01*
X17072824Y24279112D01*
X17065226Y24279152D01*
X17065224Y24279152D01*
X16991811Y24279536D01*
X16902544Y24280003D01*
X16895165Y24278231D01*
X16895161Y24278231D01*
X16744346Y24242024D01*
X16744342Y24242023D01*
X16736967Y24240252D01*
X16585652Y24162152D01*
X16579930Y24157160D01*
X16579928Y24157159D01*
X16568883Y24147524D01*
X16457333Y24050213D01*
X16359420Y23910897D01*
X16297565Y23752247D01*
X16296573Y23744714D01*
X16296573Y23744713D01*
X16281906Y23633301D01*
X16275339Y23583421D01*
X14643802Y23583421D01*
X14624243Y23745049D01*
X14564052Y23904338D01*
X14500656Y23996581D01*
X14471906Y24038413D01*
X14471904Y24038415D01*
X14467604Y24044672D01*
X14340465Y24157948D01*
X14333759Y24161499D01*
X14333757Y24161500D01*
X14265220Y24197788D01*
X14189975Y24237628D01*
X14024824Y24279112D01*
X14017226Y24279152D01*
X14017224Y24279152D01*
X13943811Y24279536D01*
X13854544Y24280003D01*
X13847165Y24278231D01*
X13847161Y24278231D01*
X13696346Y24242024D01*
X13696342Y24242023D01*
X13688967Y24240252D01*
X13537652Y24162152D01*
X13531930Y24157160D01*
X13531928Y24157159D01*
X13520883Y24147524D01*
X13409333Y24050213D01*
X13311420Y23910897D01*
X13249565Y23752247D01*
X13248573Y23744714D01*
X13248573Y23744713D01*
X13233906Y23633301D01*
X13227339Y23583421D01*
X11039164Y23583421D01*
X11064552Y23646575D01*
X11088545Y23815158D01*
X11088700Y23830000D01*
X11068243Y23999049D01*
X11008052Y24158338D01*
X10950537Y24242024D01*
X10915906Y24292413D01*
X10915904Y24292415D01*
X10911604Y24298672D01*
X10859134Y24345421D01*
X25165339Y24345421D01*
X25169943Y24303723D01*
X25177036Y24239477D01*
X25184025Y24176168D01*
X25186634Y24169037D01*
X25186635Y24169035D01*
X25190740Y24157817D01*
X25242544Y24016257D01*
X25246781Y24009951D01*
X25246783Y24009948D01*
X25333281Y23881226D01*
X25337518Y23874921D01*
X25463463Y23760319D01*
X25470140Y23756694D01*
X25470141Y23756693D01*
X25606433Y23682692D01*
X25606435Y23682691D01*
X25613110Y23679067D01*
X25620459Y23677139D01*
X25770468Y23637785D01*
X25770470Y23637785D01*
X25777818Y23635857D01*
X25869210Y23634421D01*
X25940482Y23633301D01*
X25940485Y23633301D01*
X25948079Y23633182D01*
X26006762Y23646622D01*
X26106661Y23669502D01*
X26106665Y23669503D01*
X26114064Y23671198D01*
X26266189Y23747709D01*
X26395672Y23858298D01*
X26495039Y23996581D01*
X26558552Y24154575D01*
X26582545Y24323158D01*
X26582700Y24338000D01*
X26562243Y24507049D01*
X26502052Y24666338D01*
X26405604Y24806672D01*
X26294281Y24905857D01*
X26284132Y24914899D01*
X26278465Y24919948D01*
X26271759Y24923499D01*
X26271757Y24923500D01*
X26203220Y24959788D01*
X26127975Y24999628D01*
X25962824Y25041112D01*
X25955226Y25041152D01*
X25955224Y25041152D01*
X25881811Y25041536D01*
X25792544Y25042003D01*
X25785165Y25040231D01*
X25785161Y25040231D01*
X25634346Y25004024D01*
X25634342Y25004023D01*
X25626967Y25002252D01*
X25475652Y24924152D01*
X25469930Y24919160D01*
X25469928Y24919159D01*
X25451750Y24903301D01*
X25347333Y24812213D01*
X25249420Y24672897D01*
X25231318Y24626467D01*
X25194577Y24532231D01*
X25187565Y24514247D01*
X25186573Y24506714D01*
X25186573Y24506713D01*
X25171906Y24395301D01*
X25165339Y24345421D01*
X10859134Y24345421D01*
X10800281Y24397857D01*
X10790132Y24406899D01*
X10784465Y24411948D01*
X10777759Y24415499D01*
X10777757Y24415500D01*
X10709220Y24451788D01*
X10633975Y24491628D01*
X10468824Y24533112D01*
X10461226Y24533152D01*
X10461224Y24533152D01*
X10387811Y24533536D01*
X10298544Y24534003D01*
X10291165Y24532231D01*
X10291161Y24532231D01*
X10140346Y24496024D01*
X10140342Y24496023D01*
X10132967Y24494252D01*
X9981652Y24416152D01*
X9975930Y24411160D01*
X9975928Y24411159D01*
X9957750Y24395301D01*
X9853333Y24304213D01*
X9848966Y24297999D01*
X9768648Y24183718D01*
X9755420Y24164897D01*
X9748647Y24147524D01*
X9697468Y24016257D01*
X9693565Y24006247D01*
X9692573Y23998714D01*
X9692573Y23998713D01*
X9674900Y23864467D01*
X9671339Y23837421D01*
X8094500Y23837421D01*
X8094500Y24769710D01*
X8114502Y24837831D01*
X8168158Y24884324D01*
X8238432Y24894428D01*
X8303012Y24864934D01*
X8338826Y24813011D01*
X8351544Y24778257D01*
X8355781Y24771951D01*
X8355783Y24771948D01*
X8442281Y24643226D01*
X8446518Y24636921D01*
X8572463Y24522319D01*
X8579140Y24518694D01*
X8579141Y24518693D01*
X8715433Y24444692D01*
X8715435Y24444691D01*
X8722110Y24441067D01*
X8729459Y24439139D01*
X8879468Y24399785D01*
X8879470Y24399785D01*
X8886818Y24397857D01*
X8978210Y24396421D01*
X9049482Y24395301D01*
X9049485Y24395301D01*
X9057079Y24395182D01*
X9130283Y24411948D01*
X9215661Y24431502D01*
X9215665Y24431503D01*
X9223064Y24433198D01*
X9375189Y24509709D01*
X9504672Y24620298D01*
X9604039Y24758581D01*
X9667552Y24916575D01*
X9691545Y25085158D01*
X9691700Y25100000D01*
X9690802Y25107421D01*
X14751339Y25107421D01*
X14758561Y25042003D01*
X14769035Y24947139D01*
X14770025Y24938168D01*
X14772634Y24931037D01*
X14772635Y24931035D01*
X14789729Y24884324D01*
X14828544Y24778257D01*
X14832781Y24771951D01*
X14832783Y24771948D01*
X14919281Y24643226D01*
X14923518Y24636921D01*
X15049463Y24522319D01*
X15056140Y24518694D01*
X15056141Y24518693D01*
X15192433Y24444692D01*
X15192435Y24444691D01*
X15199110Y24441067D01*
X15206459Y24439139D01*
X15356468Y24399785D01*
X15356470Y24399785D01*
X15363818Y24397857D01*
X15455210Y24396421D01*
X15526482Y24395301D01*
X15526485Y24395301D01*
X15534079Y24395182D01*
X15607283Y24411948D01*
X15692661Y24431502D01*
X15692665Y24431503D01*
X15700064Y24433198D01*
X15852189Y24509709D01*
X15981672Y24620298D01*
X16081039Y24758581D01*
X16144552Y24916575D01*
X16168545Y25085158D01*
X16168700Y25100000D01*
X16167802Y25107421D01*
X19831339Y25107421D01*
X19838561Y25042003D01*
X19849035Y24947139D01*
X19850025Y24938168D01*
X19852634Y24931037D01*
X19852635Y24931035D01*
X19869729Y24884324D01*
X19908544Y24778257D01*
X19912781Y24771951D01*
X19912783Y24771948D01*
X19999281Y24643226D01*
X20003518Y24636921D01*
X20129463Y24522319D01*
X20136140Y24518694D01*
X20136141Y24518693D01*
X20272433Y24444692D01*
X20272435Y24444691D01*
X20279110Y24441067D01*
X20286459Y24439139D01*
X20436468Y24399785D01*
X20436470Y24399785D01*
X20443818Y24397857D01*
X20535210Y24396421D01*
X20606482Y24395301D01*
X20606485Y24395301D01*
X20614079Y24395182D01*
X20687283Y24411948D01*
X20772661Y24431502D01*
X20772665Y24431503D01*
X20780064Y24433198D01*
X20932189Y24509709D01*
X21061672Y24620298D01*
X21161039Y24758581D01*
X21224552Y24916575D01*
X21248545Y25085158D01*
X21248700Y25100000D01*
X21228243Y25269049D01*
X21168052Y25428338D01*
X21071604Y25568672D01*
X21019134Y25615421D01*
X26435339Y25615421D01*
X26454025Y25446168D01*
X26456634Y25439037D01*
X26456635Y25439035D01*
X26460550Y25428338D01*
X26512544Y25286257D01*
X26516781Y25279951D01*
X26516783Y25279948D01*
X26603281Y25151226D01*
X26607518Y25144921D01*
X26733463Y25030319D01*
X26740140Y25026694D01*
X26740141Y25026693D01*
X26876433Y24952692D01*
X26876435Y24952691D01*
X26883110Y24949067D01*
X26890459Y24947139D01*
X27040468Y24907785D01*
X27040470Y24907785D01*
X27047818Y24905857D01*
X27139210Y24904421D01*
X27210482Y24903301D01*
X27210485Y24903301D01*
X27218079Y24903182D01*
X27291283Y24919948D01*
X27376661Y24939502D01*
X27376665Y24939503D01*
X27384064Y24941198D01*
X27536189Y25017709D01*
X27665672Y25128298D01*
X27765039Y25266581D01*
X27828552Y25424575D01*
X27852545Y25593158D01*
X27852700Y25608000D01*
X27832243Y25777049D01*
X27772052Y25936338D01*
X27707477Y26030296D01*
X27679906Y26070413D01*
X27679904Y26070415D01*
X27675604Y26076672D01*
X27605239Y26139365D01*
X27554132Y26184899D01*
X27548465Y26189948D01*
X27541759Y26193499D01*
X27541757Y26193500D01*
X27473220Y26229788D01*
X27397975Y26269628D01*
X27232824Y26311112D01*
X27225226Y26311152D01*
X27225224Y26311152D01*
X27151811Y26311536D01*
X27062544Y26312003D01*
X27055165Y26310231D01*
X27055161Y26310231D01*
X26904346Y26274024D01*
X26904342Y26274023D01*
X26896967Y26272252D01*
X26745652Y26194152D01*
X26739930Y26189160D01*
X26739928Y26189159D01*
X26688503Y26144298D01*
X26617333Y26082213D01*
X26592106Y26046319D01*
X26531870Y25960611D01*
X26519420Y25942897D01*
X26510174Y25919182D01*
X26464577Y25802231D01*
X26457565Y25784247D01*
X26456573Y25776714D01*
X26456573Y25776713D01*
X26443433Y25676899D01*
X26435339Y25615421D01*
X21019134Y25615421D01*
X20944465Y25681948D01*
X20937759Y25685499D01*
X20937757Y25685500D01*
X20869220Y25721788D01*
X20793975Y25761628D01*
X20628824Y25803112D01*
X20621226Y25803152D01*
X20621224Y25803152D01*
X20547811Y25803536D01*
X20458544Y25804003D01*
X20451165Y25802231D01*
X20451161Y25802231D01*
X20300346Y25766024D01*
X20300342Y25766023D01*
X20292967Y25764252D01*
X20141652Y25686152D01*
X20013333Y25574213D01*
X20008966Y25567999D01*
X19928648Y25453718D01*
X19915420Y25434897D01*
X19908647Y25417524D01*
X19857468Y25286257D01*
X19853565Y25276247D01*
X19852573Y25268714D01*
X19852573Y25268713D01*
X19834900Y25134467D01*
X19831339Y25107421D01*
X16167802Y25107421D01*
X16148243Y25269049D01*
X16088052Y25428338D01*
X15991604Y25568672D01*
X15864465Y25681948D01*
X15857759Y25685499D01*
X15857757Y25685500D01*
X15789220Y25721788D01*
X15713975Y25761628D01*
X15548824Y25803112D01*
X15541226Y25803152D01*
X15541224Y25803152D01*
X15467811Y25803536D01*
X15378544Y25804003D01*
X15371165Y25802231D01*
X15371161Y25802231D01*
X15220346Y25766024D01*
X15220342Y25766023D01*
X15212967Y25764252D01*
X15061652Y25686152D01*
X14933333Y25574213D01*
X14928966Y25567999D01*
X14848648Y25453718D01*
X14835420Y25434897D01*
X14828647Y25417524D01*
X14777468Y25286257D01*
X14773565Y25276247D01*
X14772573Y25268714D01*
X14772573Y25268713D01*
X14754900Y25134467D01*
X14751339Y25107421D01*
X9690802Y25107421D01*
X9671243Y25269049D01*
X9611052Y25428338D01*
X9514604Y25568672D01*
X9387465Y25681948D01*
X9380759Y25685499D01*
X9380757Y25685500D01*
X9312220Y25721788D01*
X9236975Y25761628D01*
X9071824Y25803112D01*
X9064226Y25803152D01*
X9064224Y25803152D01*
X8990811Y25803536D01*
X8901544Y25804003D01*
X8894165Y25802231D01*
X8894161Y25802231D01*
X8743346Y25766024D01*
X8743342Y25766023D01*
X8735967Y25764252D01*
X8584652Y25686152D01*
X8456333Y25574213D01*
X8451966Y25567999D01*
X8371648Y25453718D01*
X8358420Y25434897D01*
X8351647Y25417524D01*
X8337893Y25382248D01*
X8294512Y25326047D01*
X8227633Y25302220D01*
X8158489Y25318334D01*
X8109033Y25369271D01*
X8094500Y25428018D01*
X8094500Y26631421D01*
X13227339Y26631421D01*
X13246025Y26462168D01*
X13248634Y26455037D01*
X13248635Y26455035D01*
X13253927Y26440575D01*
X13304544Y26302257D01*
X13308781Y26295951D01*
X13308783Y26295948D01*
X13380543Y26189159D01*
X13399518Y26160921D01*
X13525463Y26046319D01*
X13532140Y26042694D01*
X13532141Y26042693D01*
X13668433Y25968692D01*
X13668435Y25968691D01*
X13675110Y25965067D01*
X13682459Y25963139D01*
X13832468Y25923785D01*
X13832470Y25923785D01*
X13839818Y25921857D01*
X13931210Y25920421D01*
X14002482Y25919301D01*
X14002485Y25919301D01*
X14010079Y25919182D01*
X14082711Y25935817D01*
X14168661Y25955502D01*
X14168665Y25955503D01*
X14176064Y25957198D01*
X14328189Y26033709D01*
X14457672Y26144298D01*
X14557039Y26282581D01*
X14620552Y26440575D01*
X14644545Y26609158D01*
X14644700Y26624000D01*
X14643802Y26631421D01*
X16275339Y26631421D01*
X16294025Y26462168D01*
X16296634Y26455037D01*
X16296635Y26455035D01*
X16301927Y26440575D01*
X16352544Y26302257D01*
X16356781Y26295951D01*
X16356783Y26295948D01*
X16428543Y26189159D01*
X16447518Y26160921D01*
X16573463Y26046319D01*
X16580140Y26042694D01*
X16580141Y26042693D01*
X16716433Y25968692D01*
X16716435Y25968691D01*
X16723110Y25965067D01*
X16730459Y25963139D01*
X16880468Y25923785D01*
X16880470Y25923785D01*
X16887818Y25921857D01*
X16979210Y25920421D01*
X17050482Y25919301D01*
X17050485Y25919301D01*
X17058079Y25919182D01*
X17130711Y25935817D01*
X17216661Y25955502D01*
X17216665Y25955503D01*
X17224064Y25957198D01*
X17376189Y26033709D01*
X17505672Y26144298D01*
X17605039Y26282581D01*
X17668552Y26440575D01*
X17692545Y26609158D01*
X17692700Y26624000D01*
X17672243Y26793049D01*
X17612052Y26952338D01*
X17515604Y27092672D01*
X17388465Y27205948D01*
X17381759Y27209499D01*
X17381757Y27209500D01*
X17313220Y27245788D01*
X17237975Y27285628D01*
X17072824Y27327112D01*
X17065226Y27327152D01*
X17065224Y27327152D01*
X16991811Y27327536D01*
X16902544Y27328003D01*
X16895165Y27326231D01*
X16895161Y27326231D01*
X16744346Y27290024D01*
X16744342Y27290023D01*
X16736967Y27288252D01*
X16585652Y27210152D01*
X16457333Y27098213D01*
X16359420Y26958897D01*
X16297565Y26800247D01*
X16275339Y26631421D01*
X14643802Y26631421D01*
X14624243Y26793049D01*
X14564052Y26952338D01*
X14467604Y27092672D01*
X14340465Y27205948D01*
X14333759Y27209499D01*
X14333757Y27209500D01*
X14265220Y27245788D01*
X14189975Y27285628D01*
X14024824Y27327112D01*
X14017226Y27327152D01*
X14017224Y27327152D01*
X13943811Y27327536D01*
X13854544Y27328003D01*
X13847165Y27326231D01*
X13847161Y27326231D01*
X13696346Y27290024D01*
X13696342Y27290023D01*
X13688967Y27288252D01*
X13537652Y27210152D01*
X13409333Y27098213D01*
X13311420Y26958897D01*
X13249565Y26800247D01*
X13227339Y26631421D01*
X8094500Y26631421D01*
X8094500Y28155421D01*
X14751339Y28155421D01*
X14770025Y27986168D01*
X14772634Y27979037D01*
X14772635Y27979035D01*
X14777927Y27964575D01*
X14828544Y27826257D01*
X14832781Y27819951D01*
X14832783Y27819948D01*
X14919281Y27691226D01*
X14923518Y27684921D01*
X15049463Y27570319D01*
X15056140Y27566694D01*
X15056141Y27566693D01*
X15192433Y27492692D01*
X15192435Y27492691D01*
X15199110Y27489067D01*
X15206459Y27487139D01*
X15356468Y27447785D01*
X15356470Y27447785D01*
X15363818Y27445857D01*
X15455210Y27444421D01*
X15526482Y27443301D01*
X15526485Y27443301D01*
X15534079Y27443182D01*
X15592762Y27456622D01*
X15692661Y27479502D01*
X15692665Y27479503D01*
X15700064Y27481198D01*
X15852189Y27557709D01*
X15981672Y27668298D01*
X16081039Y27806581D01*
X16144552Y27964575D01*
X16168545Y28133158D01*
X16168700Y28148000D01*
X16167802Y28155421D01*
X19831339Y28155421D01*
X19850025Y27986168D01*
X19852634Y27979037D01*
X19852635Y27979035D01*
X19857927Y27964575D01*
X19908544Y27826257D01*
X19912781Y27819951D01*
X19912783Y27819948D01*
X19999281Y27691226D01*
X20003518Y27684921D01*
X20129463Y27570319D01*
X20136140Y27566694D01*
X20136141Y27566693D01*
X20272433Y27492692D01*
X20272435Y27492691D01*
X20279110Y27489067D01*
X20286459Y27487139D01*
X20436468Y27447785D01*
X20436470Y27447785D01*
X20443818Y27445857D01*
X20535210Y27444421D01*
X20606482Y27443301D01*
X20606485Y27443301D01*
X20614079Y27443182D01*
X20672762Y27456622D01*
X20772661Y27479502D01*
X20772665Y27479503D01*
X20780064Y27481198D01*
X20932189Y27557709D01*
X21061672Y27668298D01*
X21161039Y27806581D01*
X21224552Y27964575D01*
X21248545Y28133158D01*
X21248700Y28148000D01*
X21228243Y28317049D01*
X21168052Y28476338D01*
X21071604Y28616672D01*
X20944465Y28729948D01*
X20937759Y28733499D01*
X20937757Y28733500D01*
X20869220Y28769788D01*
X20793975Y28809628D01*
X20628824Y28851112D01*
X20621226Y28851152D01*
X20621224Y28851152D01*
X20547811Y28851536D01*
X20458544Y28852003D01*
X20451165Y28850231D01*
X20451161Y28850231D01*
X20300346Y28814024D01*
X20300342Y28814023D01*
X20292967Y28812252D01*
X20141652Y28734152D01*
X20013333Y28622213D01*
X19915420Y28482897D01*
X19853565Y28324247D01*
X19831339Y28155421D01*
X16167802Y28155421D01*
X16148243Y28317049D01*
X16088052Y28476338D01*
X15991604Y28616672D01*
X15864465Y28729948D01*
X15857759Y28733499D01*
X15857757Y28733500D01*
X15789220Y28769788D01*
X15713975Y28809628D01*
X15548824Y28851112D01*
X15541226Y28851152D01*
X15541224Y28851152D01*
X15467811Y28851536D01*
X15378544Y28852003D01*
X15371165Y28850231D01*
X15371161Y28850231D01*
X15220346Y28814024D01*
X15220342Y28814023D01*
X15212967Y28812252D01*
X15061652Y28734152D01*
X14933333Y28622213D01*
X14835420Y28482897D01*
X14773565Y28324247D01*
X14751339Y28155421D01*
X8094500Y28155421D01*
X8094500Y33192132D01*
X8114502Y33260253D01*
X8131405Y33281228D01*
X8283659Y33433481D01*
X8302752Y33449150D01*
X8303424Y33449599D01*
X8313740Y33456492D01*
X8320634Y33466809D01*
X8327977Y33477798D01*
X8327979Y33477801D01*
X8357155Y33521466D01*
X8357155Y33521467D01*
X8372745Y33544799D01*
X8372746Y33544800D01*
X8388466Y33623829D01*
X8388466Y33623834D01*
X8393465Y33648966D01*
X8390887Y33661928D01*
X8388466Y33686508D01*
X8388466Y34546955D01*
X8408468Y34615076D01*
X8433983Y34643901D01*
X8438556Y34647697D01*
X8446207Y34652395D01*
X8542997Y34759328D01*
X8605885Y34889127D01*
X8609571Y34911033D01*
X8629007Y35026563D01*
X8629814Y35031360D01*
X8629966Y35043789D01*
X8618477Y35124012D01*
X8610792Y35177678D01*
X8610791Y35177681D01*
X8609519Y35186564D01*
X8549822Y35317862D01*
X8496209Y35380083D01*
X8461531Y35420329D01*
X8461529Y35420331D01*
X8455673Y35427127D01*
X8334641Y35505575D01*
X8196457Y35546901D01*
X8187481Y35546956D01*
X8187480Y35546956D01*
X8125484Y35547335D01*
X8052227Y35547782D01*
X8043595Y35545315D01*
X7922182Y35510616D01*
X7922179Y35510615D01*
X7913548Y35508148D01*
X7791567Y35431184D01*
X7785625Y35424456D01*
X7785624Y35424455D01*
X7735695Y35367920D01*
X7696091Y35323077D01*
X7692276Y35314952D01*
X7692275Y35314950D01*
X7664638Y35256084D01*
X7634794Y35192518D01*
X7633413Y35183649D01*
X7624434Y35125979D01*
X7612604Y35050004D01*
X7631305Y34906989D01*
X7689394Y34774972D01*
X7715962Y34743366D01*
X7768093Y34681349D01*
X7782201Y34664565D01*
X7797886Y34654124D01*
X7843507Y34599731D01*
X7854066Y34549239D01*
X7854066Y34409744D01*
X7834064Y34341623D01*
X7780408Y34295130D01*
X7710134Y34285026D01*
X7654135Y34310714D01*
X7653310Y34309441D01*
X7539810Y34383007D01*
X7532278Y34387889D01*
X7394094Y34429215D01*
X7385118Y34429270D01*
X7385117Y34429270D01*
X7326310Y34429629D01*
X7249864Y34430096D01*
X7241236Y34427630D01*
X7237716Y34427148D01*
X7167511Y34437720D01*
X7114167Y34484569D01*
X7094616Y34551982D01*
X7094616Y34597636D01*
X7107224Y34652575D01*
X7142257Y34724882D01*
X7152681Y34786838D01*
X7165379Y34862318D01*
X7166186Y34867115D01*
X7166338Y34879544D01*
X7145891Y35022319D01*
X7141781Y35031360D01*
X7096530Y35130883D01*
X7086194Y35153617D01*
X7045673Y35200644D01*
X6997903Y35256084D01*
X6997901Y35256086D01*
X6992045Y35262882D01*
X6871013Y35341330D01*
X6732829Y35382656D01*
X6723853Y35382711D01*
X6723852Y35382711D01*
X6661856Y35383090D01*
X6588599Y35383537D01*
X6449920Y35343903D01*
X6449351Y35345895D01*
X6390691Y35337926D01*
X6326341Y35367920D01*
X6288423Y35427942D01*
X6284867Y35444618D01*
X6270853Y35542475D01*
X6211156Y35673773D01*
X6185356Y35703715D01*
X6122865Y35776240D01*
X6122863Y35776242D01*
X6117007Y35783038D01*
X5995975Y35861486D01*
X5857791Y35902812D01*
X5848815Y35902867D01*
X5848814Y35902867D01*
X5786818Y35903246D01*
X5713561Y35903693D01*
X5704929Y35901226D01*
X5583516Y35866527D01*
X5583513Y35866526D01*
X5574882Y35864059D01*
X5452901Y35787095D01*
X5357425Y35678988D01*
X5296128Y35548429D01*
X5294747Y35539560D01*
X5276825Y35424455D01*
X5273938Y35405915D01*
X5275102Y35397013D01*
X5275102Y35397010D01*
X5277316Y35380083D01*
X5292639Y35262900D01*
X5350728Y35130883D01*
X5418714Y35050004D01*
X5443535Y35020476D01*
X5441305Y35018602D01*
X5470977Y34970821D01*
X5469878Y34899833D01*
X5430574Y34840708D01*
X5365544Y34812219D01*
X5349546Y34811199D01*
X5037542Y34811199D01*
X5012962Y34813620D01*
X5012173Y34813777D01*
X5012171Y34813777D01*
X5000000Y34816198D01*
X4979996Y34812219D01*
X4974873Y34811200D01*
X4974865Y34811199D01*
X4974862Y34811199D01*
X4974857Y34811198D01*
X4914168Y34799126D01*
X4914167Y34799126D01*
X4895835Y34795479D01*
X4895834Y34795478D01*
X4895833Y34795478D01*
X4828836Y34750712D01*
X4828834Y34750710D01*
X4807527Y34736473D01*
X4800634Y34726157D01*
X4800185Y34725485D01*
X4784516Y34706392D01*
X4557256Y34479131D01*
X4538162Y34463461D01*
X4527174Y34456119D01*
X4520281Y34445803D01*
X4520280Y34445802D01*
X4512939Y34434816D01*
X4512934Y34434809D01*
X4468168Y34367811D01*
X4465747Y34355642D01*
X4465747Y34355641D01*
X4462959Y34341623D01*
X4447448Y34263645D01*
X4449869Y34251474D01*
X4450027Y34250680D01*
X4452448Y34226098D01*
X4452447Y33800878D01*
X4450026Y33776298D01*
X4447448Y33763336D01*
X4452447Y33738204D01*
X4452447Y33738200D01*
X4468167Y33659171D01*
X4475059Y33648856D01*
X4475060Y33648854D01*
X4511143Y33594852D01*
X4527173Y33570862D01*
X4537489Y33563969D01*
X4538164Y33563518D01*
X4557258Y33547848D01*
X4783729Y33321376D01*
X4783740Y33321366D01*
X5766064Y32339041D01*
X5800090Y32276729D01*
X5802066Y32258342D01*
X5802344Y32258370D01*
X5802345Y32258360D01*
X5802588Y32253495D01*
X5802969Y32249946D01*
X5802969Y32245833D01*
X5802970Y32245828D01*
X5802969Y25497968D01*
X5802969Y25497967D01*
X5802970Y20180407D01*
X5802970Y15069800D01*
X5782968Y15001679D01*
X5729312Y14955186D01*
X5659038Y14945083D01*
X5624121Y14955419D01*
X5620907Y14956904D01*
X5613375Y14961786D01*
X5475191Y15003112D01*
X5466215Y15003167D01*
X5466214Y15003167D01*
X5431008Y15003382D01*
X5363011Y15023800D01*
X5316847Y15077739D01*
X5307051Y15111517D01*
X5294539Y15198881D01*
X5288253Y15242775D01*
X5228556Y15374073D01*
X5202756Y15404015D01*
X5140265Y15476540D01*
X5140263Y15476542D01*
X5134407Y15483338D01*
X5013375Y15561786D01*
X4875191Y15603112D01*
X4866215Y15603167D01*
X4866214Y15603167D01*
X4804218Y15603546D01*
X4730961Y15603993D01*
X4722329Y15601526D01*
X4600916Y15566827D01*
X4600913Y15566826D01*
X4592282Y15564359D01*
X4470301Y15487395D01*
X4374825Y15379288D01*
X4371010Y15371163D01*
X4371009Y15371161D01*
X4324219Y15271500D01*
X4313528Y15248729D01*
X4311232Y15249807D01*
X4279575Y15201728D01*
X4214671Y15172952D01*
X4162022Y15177144D01*
X4075191Y15203112D01*
X4066215Y15203167D01*
X4066214Y15203167D01*
X4004218Y15203546D01*
X3930961Y15203993D01*
X3922329Y15201526D01*
X3800916Y15166827D01*
X3800913Y15166826D01*
X3792282Y15164359D01*
X3670301Y15087395D01*
X3574825Y14979288D01*
X3571010Y14971163D01*
X3571009Y14971161D01*
X3517343Y14856855D01*
X3513528Y14848729D01*
X3491338Y14706215D01*
X203200Y14706215D01*
X203200Y36326800D01*
X12711300Y36326800D01*
X12711300Y34548800D01*
X12712507Y34542732D01*
X12723678Y34486572D01*
X12727186Y34468934D01*
X12772427Y34401227D01*
X12840134Y34355986D01*
X12852303Y34353566D01*
X12852304Y34353565D01*
X12908963Y34342295D01*
X12920000Y34340100D01*
X14698000Y34340100D01*
X14709037Y34342295D01*
X14765696Y34353565D01*
X14765697Y34353566D01*
X14777866Y34355986D01*
X14845573Y34401227D01*
X14890814Y34468934D01*
X14894323Y34486572D01*
X14905493Y34542732D01*
X14906700Y34548800D01*
X14906700Y35336405D01*
X15255993Y35336405D01*
X15269952Y35262882D01*
X15293453Y35139101D01*
X15294886Y35131551D01*
X15371813Y34937748D01*
X15375039Y34932694D01*
X15375041Y34932690D01*
X15475713Y34774972D01*
X15484001Y34761988D01*
X15488116Y34757644D01*
X15488120Y34757639D01*
X15621606Y34616728D01*
X15627399Y34610613D01*
X15796835Y34489086D01*
X15802287Y34486573D01*
X15802288Y34486572D01*
X15968941Y34409744D01*
X15986194Y34401790D01*
X15992010Y34400356D01*
X15992013Y34400355D01*
X16182820Y34353312D01*
X16182821Y34353312D01*
X16188645Y34351876D01*
X16194636Y34351567D01*
X16194638Y34351567D01*
X16254821Y34348466D01*
X16396881Y34341145D01*
X16402816Y34341974D01*
X16402820Y34341974D01*
X16563693Y34364440D01*
X16603390Y34369984D01*
X16776882Y34429215D01*
X16795040Y34435414D01*
X16795041Y34435415D01*
X16800719Y34437353D01*
X16805927Y34440330D01*
X16805930Y34440331D01*
X16886835Y34486572D01*
X16981750Y34540820D01*
X17071692Y34618046D01*
X17135398Y34672745D01*
X17135400Y34672747D01*
X17139949Y34676653D01*
X17269609Y34839950D01*
X17287730Y34874685D01*
X17363277Y35019503D01*
X17363278Y35019505D01*
X17366050Y35024819D01*
X17425794Y35224589D01*
X17428966Y35256084D01*
X17437053Y35336405D01*
X17795993Y35336405D01*
X17809952Y35262882D01*
X17833453Y35139101D01*
X17834886Y35131551D01*
X17911813Y34937748D01*
X17915039Y34932694D01*
X17915041Y34932690D01*
X18015713Y34774972D01*
X18024001Y34761988D01*
X18028116Y34757644D01*
X18028120Y34757639D01*
X18161606Y34616728D01*
X18167399Y34610613D01*
X18336835Y34489086D01*
X18342287Y34486573D01*
X18342288Y34486572D01*
X18508941Y34409744D01*
X18526194Y34401790D01*
X18532010Y34400356D01*
X18532013Y34400355D01*
X18722820Y34353312D01*
X18722821Y34353312D01*
X18728645Y34351876D01*
X18734636Y34351567D01*
X18734638Y34351567D01*
X18794821Y34348466D01*
X18936881Y34341145D01*
X18942816Y34341974D01*
X18942820Y34341974D01*
X19103693Y34364440D01*
X19143390Y34369984D01*
X19316882Y34429215D01*
X19335040Y34435414D01*
X19335041Y34435415D01*
X19340719Y34437353D01*
X19345927Y34440330D01*
X19345930Y34440331D01*
X19426835Y34486572D01*
X19521750Y34540820D01*
X19611692Y34618046D01*
X19675398Y34672745D01*
X19675400Y34672747D01*
X19679949Y34676653D01*
X19809609Y34839950D01*
X19827730Y34874685D01*
X19903277Y35019503D01*
X19903278Y35019505D01*
X19906050Y35024819D01*
X19965794Y35224589D01*
X19968966Y35256084D01*
X19977053Y35336405D01*
X20335993Y35336405D01*
X20349952Y35262882D01*
X20373453Y35139101D01*
X20374886Y35131551D01*
X20451813Y34937748D01*
X20455039Y34932694D01*
X20455041Y34932690D01*
X20555713Y34774972D01*
X20564001Y34761988D01*
X20568116Y34757644D01*
X20568120Y34757639D01*
X20701606Y34616728D01*
X20707399Y34610613D01*
X20876835Y34489086D01*
X20882287Y34486573D01*
X20882288Y34486572D01*
X21048941Y34409744D01*
X21066194Y34401790D01*
X21072010Y34400356D01*
X21072013Y34400355D01*
X21262820Y34353312D01*
X21262821Y34353312D01*
X21268645Y34351876D01*
X21274636Y34351567D01*
X21274638Y34351567D01*
X21334821Y34348466D01*
X21476881Y34341145D01*
X21482816Y34341974D01*
X21482820Y34341974D01*
X21643693Y34364440D01*
X21683390Y34369984D01*
X21856882Y34429215D01*
X21875040Y34435414D01*
X21875041Y34435415D01*
X21880719Y34437353D01*
X21885927Y34440330D01*
X21885930Y34440331D01*
X21966835Y34486572D01*
X22061750Y34540820D01*
X22151692Y34618046D01*
X22215398Y34672745D01*
X22215400Y34672747D01*
X22219949Y34676653D01*
X22349609Y34839950D01*
X22367730Y34874685D01*
X22443277Y35019503D01*
X22443278Y35019505D01*
X22446050Y35024819D01*
X22505794Y35224589D01*
X22508966Y35256084D01*
X22517207Y35337926D01*
X22526685Y35432052D01*
X22526700Y35437800D01*
X22520700Y35500693D01*
X22517560Y35533596D01*
X22506896Y35645370D01*
X22448199Y35845450D01*
X22419981Y35900239D01*
X22355472Y36025491D01*
X22355470Y36025494D01*
X22352726Y36030822D01*
X22223923Y36194795D01*
X22066438Y36331455D01*
X22061255Y36334453D01*
X22061250Y36334457D01*
X21891142Y36432865D01*
X21885951Y36435868D01*
X21688977Y36504269D01*
X21683042Y36505130D01*
X21683040Y36505130D01*
X21488562Y36533328D01*
X21488559Y36533328D01*
X21482622Y36534189D01*
X21274333Y36524549D01*
X21268509Y36523145D01*
X21268506Y36523145D01*
X21077457Y36477102D01*
X21077455Y36477101D01*
X21071624Y36475696D01*
X21066166Y36473214D01*
X21066162Y36473213D01*
X20977422Y36432865D01*
X20881810Y36389393D01*
X20711740Y36268753D01*
X20567551Y36118131D01*
X20454445Y35942961D01*
X20452202Y35937395D01*
X20387255Y35776240D01*
X20376504Y35749564D01*
X20375354Y35743674D01*
X20338812Y35556555D01*
X20336539Y35544917D01*
X20336523Y35538931D01*
X20336523Y35538928D01*
X20336436Y35505575D01*
X20335993Y35336405D01*
X19977053Y35336405D01*
X19977207Y35337926D01*
X19986685Y35432052D01*
X19986700Y35437800D01*
X19980700Y35500693D01*
X19977560Y35533596D01*
X19966896Y35645370D01*
X19908199Y35845450D01*
X19879981Y35900239D01*
X19815472Y36025491D01*
X19815470Y36025494D01*
X19812726Y36030822D01*
X19683923Y36194795D01*
X19526438Y36331455D01*
X19521255Y36334453D01*
X19521250Y36334457D01*
X19351142Y36432865D01*
X19345951Y36435868D01*
X19148977Y36504269D01*
X19143042Y36505130D01*
X19143040Y36505130D01*
X18948562Y36533328D01*
X18948559Y36533328D01*
X18942622Y36534189D01*
X18734333Y36524549D01*
X18728509Y36523145D01*
X18728506Y36523145D01*
X18537457Y36477102D01*
X18537455Y36477101D01*
X18531624Y36475696D01*
X18526166Y36473214D01*
X18526162Y36473213D01*
X18437422Y36432865D01*
X18341810Y36389393D01*
X18171740Y36268753D01*
X18027551Y36118131D01*
X17914445Y35942961D01*
X17912202Y35937395D01*
X17847255Y35776240D01*
X17836504Y35749564D01*
X17835354Y35743674D01*
X17798812Y35556555D01*
X17796539Y35544917D01*
X17796523Y35538931D01*
X17796523Y35538928D01*
X17796436Y35505575D01*
X17795993Y35336405D01*
X17437053Y35336405D01*
X17437207Y35337926D01*
X17446685Y35432052D01*
X17446700Y35437800D01*
X17440700Y35500693D01*
X17437560Y35533596D01*
X17426896Y35645370D01*
X17368199Y35845450D01*
X17339981Y35900239D01*
X17275472Y36025491D01*
X17275470Y36025494D01*
X17272726Y36030822D01*
X17143923Y36194795D01*
X16986438Y36331455D01*
X16981255Y36334453D01*
X16981250Y36334457D01*
X16811142Y36432865D01*
X16805951Y36435868D01*
X16608977Y36504269D01*
X16603042Y36505130D01*
X16603040Y36505130D01*
X16408562Y36533328D01*
X16408559Y36533328D01*
X16402622Y36534189D01*
X16194333Y36524549D01*
X16188509Y36523145D01*
X16188506Y36523145D01*
X15997457Y36477102D01*
X15997455Y36477101D01*
X15991624Y36475696D01*
X15986166Y36473214D01*
X15986162Y36473213D01*
X15897422Y36432865D01*
X15801810Y36389393D01*
X15631740Y36268753D01*
X15487551Y36118131D01*
X15374445Y35942961D01*
X15372202Y35937395D01*
X15307255Y35776240D01*
X15296504Y35749564D01*
X15295354Y35743674D01*
X15258812Y35556555D01*
X15256539Y35544917D01*
X15256523Y35538931D01*
X15256523Y35538928D01*
X15256436Y35505575D01*
X15255993Y35336405D01*
X14906700Y35336405D01*
X14906700Y36326800D01*
X14904505Y36337837D01*
X14893235Y36394496D01*
X14893234Y36394497D01*
X14890814Y36406666D01*
X14845573Y36474373D01*
X14777866Y36519614D01*
X14765697Y36522034D01*
X14765696Y36522035D01*
X14704068Y36534293D01*
X14698000Y36535500D01*
X12920000Y36535500D01*
X12913932Y36534293D01*
X12852304Y36522035D01*
X12852303Y36522034D01*
X12840134Y36519614D01*
X12772427Y36474373D01*
X12727186Y36406666D01*
X12724766Y36394497D01*
X12724765Y36394496D01*
X12713495Y36337837D01*
X12711300Y36326800D01*
X203200Y36326800D01*
X203200Y38339826D01*
X205594Y38358901D01*
X204886Y38358998D01*
X205857Y38366058D01*
X207618Y38372962D01*
X207852Y38382819D01*
X209784Y38464421D01*
X212170Y38486020D01*
X238444Y38618107D01*
X245614Y38641743D01*
X290635Y38750434D01*
X295631Y38762495D01*
X307274Y38784276D01*
X379881Y38892941D01*
X395551Y38912035D01*
X487964Y39004448D01*
X507057Y39020118D01*
X507059Y39020119D01*
X615722Y39092726D01*
X637507Y39104370D01*
X758254Y39154385D01*
X781891Y39161555D01*
X913985Y39187830D01*
X935582Y39190216D01*
X1019771Y39192210D01*
X1019775Y39192211D01*
X1026842Y39192378D01*
X1033698Y39194114D01*
X1040702Y39195071D01*
X1040793Y39194406D01*
X1060011Y39196800D01*
X35639826Y39196800D01*
X35658901Y39194406D01*
G37*
G04 #@! TD.AperFunction*
G04 #@! TA.AperFunction,Conductor*
G36*
X9408953Y13027198D02*
G01*
X9429928Y13010295D01*
X10190196Y12250026D01*
X10224221Y12187714D01*
X10227100Y12160931D01*
X10227101Y11251768D01*
X10227101Y11124522D01*
X10207099Y11056401D01*
X10153443Y11009908D01*
X10083169Y10999804D01*
X10018589Y11029297D01*
X10012006Y11035426D01*
X9832641Y11214790D01*
X9816970Y11233886D01*
X9816521Y11234558D01*
X9816519Y11234560D01*
X9809627Y11244875D01*
X9721319Y11303881D01*
X9668824Y11314323D01*
X9642302Y11319599D01*
X9642297Y11319600D01*
X9642290Y11319601D01*
X9642283Y11319601D01*
X9617153Y11324600D01*
X9604982Y11322179D01*
X9604980Y11322179D01*
X9604191Y11322022D01*
X9579611Y11319601D01*
X9465086Y11319601D01*
X9396965Y11339603D01*
X9375991Y11356505D01*
X8827366Y11905129D01*
X8793341Y11967442D01*
X8792997Y12006018D01*
X8792807Y12006018D01*
X8792807Y12018428D01*
X8795228Y12030599D01*
X8790229Y12055731D01*
X8790229Y12055736D01*
X8774509Y12134765D01*
X8767617Y12145080D01*
X8767616Y12145082D01*
X8735834Y12192646D01*
X8735830Y12192652D01*
X8729749Y12201753D01*
X8729742Y12201764D01*
X8729740Y12201766D01*
X8715503Y12223073D01*
X8704515Y12230415D01*
X8685422Y12246084D01*
X8099401Y12832104D01*
X8065376Y12894417D01*
X8070440Y12965232D01*
X8112987Y13022068D01*
X8179507Y13046879D01*
X8188496Y13047200D01*
X9340832Y13047200D01*
X9408953Y13027198D01*
G37*
G04 #@! TD.AperFunction*
M02*
