M48
; DRILL file {KiCad 5.99.0-unknown-6cc39d8011~107~ubuntu20.04.1} date Mon Jan 18 06:27:24 2021
; FORMAT={-:-/ absolute / metric / decimal}
; #@! TF.CreationDate,2021-01-18T06:27:24-08:00
; #@! TF.GenerationSoftware,Kicad,Pcbnew,5.99.0-unknown-6cc39d8011~107~ubuntu20.04.1
; #@! TF.FileFunction,Plated,1,2,PTH
FMAT,2
METRIC
T1C0.200
T2C0.400
T3C0.500
T4C1.000
%
G90
G05
T1
X1.0Y30.0
X1.0Y28.0
X1.0Y26.0
X1.0Y24.0
X1.0Y22.0
X1.0Y20.0
X1.0Y18.0
X1.0Y16.0
X1.0Y14.0
X1.0Y12.0
X1.0Y10.0
X1.0Y8.0
X3.0Y26.0
X3.0Y20.0
X3.0Y18.0
X3.0Y12.0
X3.0Y10.0
X3.0Y8.0
X5.0Y26.0
X5.0Y10.0
X5.0Y8.0
X6.25Y18.0
X7.0Y26.0
X9.182Y9.165
X9.25Y12.75
X9.5Y18.0
X10.006Y7.683
X10.164Y6.641
X11.95Y14.05
X12.0Y28.0
X13.34Y13.8
X13.581Y6.725
X14.0Y28.0
X14.67Y24.57
X14.774Y15.763
X16.0Y28.0
X16.0Y23.0
X16.0Y21.0
X16.0Y8.25
X16.0Y7.0
X16.032Y25.099
X17.0Y15.978
X17.309Y13.691
X17.75Y8.25
X17.75Y7.0
X18.0Y28.0
X18.0Y23.0
X18.039Y25.099
X19.0Y15.0
X19.0Y11.0
X20.0Y28.0
X20.026Y25.099
X21.0Y13.0
X21.5Y21.5
X22.0Y28.0
X22.18Y15.392
X22.75Y21.5
X23.0Y11.0
X24.25Y21.5
X25.0Y13.0
X25.0Y11.0
X27.0Y32.75
X27.0Y13.0
X27.0Y11.0
X28.5Y32.75
X29.0Y13.0
X29.0Y11.0
X30.0Y32.75
X31.0Y15.0
X31.0Y13.0
X31.0Y11.0
T2
X11.6Y7.4
X13.2Y9.2
T3
X1.4Y34.8
X1.4Y33.2
X2.6Y36.8
X2.6Y32.4
X4.4Y36.8
X4.4Y32.4
X6.2Y36.8
X6.2Y32.4
T4
X3.48Y15.4
X3.52Y22.6
X3.6Y28.8
X6.02Y15.4
X6.06Y22.6
X6.14Y28.8
X8.56Y15.4
X8.6Y22.6
X8.68Y28.8
X13.33Y30.62
X13.33Y23.45
X13.33Y20.91
X13.33Y17.92
X15.87Y30.62
X15.87Y17.92
X16.37Y35.44
X18.41Y30.62
X18.41Y17.92
X18.91Y35.44
X20.95Y30.62
X20.95Y17.92
X21.45Y35.44
X23.49Y30.62
X23.49Y17.92
X23.99Y35.44
X26.0Y28.08
X26.0Y25.54
X26.0Y23.0
X26.0Y20.46
X26.03Y30.62
X26.03Y17.92
X28.54Y28.08
X28.54Y25.54
X28.54Y23.0
X28.54Y20.46
X28.57Y30.62
X28.57Y17.92
X31.08Y28.08
X31.08Y25.54
X31.08Y23.0
X31.08Y20.46
X31.11Y30.62
X31.11Y17.92
T0
M30
