M48
; DRILL file {KiCad (5.99.0-8491-gb8dfcb34c4)} date 01/19/21 19:46:55
; FORMAT={-:-/ absolute / metric / decimal}
; #@! TF.CreationDate,2021-01-19T19:46:55+01:00
; #@! TF.GenerationSoftware,Kicad,Pcbnew,(5.99.0-8491-gb8dfcb34c4)
; #@! TF.FileFunction,Plated,1,2,PTH
FMAT,2
METRIC
T1C0.200
T2C0.400
T3C0.500
T4C1.000
%
G90
G05
T1
X1.0Y22.5
X1.0Y20.5
X1.0Y18.5
X1.5Y9.5
X3.25Y9.5
X5.75Y18.75
X7.956Y10.543
X9.182Y6.842
X9.25Y14.5
X9.75Y11.0
X10.526Y7.472
X10.75Y14.5
X11.0Y18.75
X11.25Y12.5
X11.75Y11.0
X12.0Y9.25
X12.25Y14.5
X12.25Y12.5
X12.63Y6.188
X12.651Y8.3
X13.75Y27.5
X14.0Y11.0
X14.5Y8.5
X14.5Y7.0
X15.086Y20.561
X16.0Y27.5
X16.0Y8.5
X16.0Y7.0
X17.0Y15.0
X18.25Y27.5
X18.25Y11.25
X18.5Y15.0
X19.5Y12.25
X20.0Y15.0
X21.5Y15.0
X21.75Y8.75
X22.25Y7.25
X23.25Y8.75
X30.0Y15.0
X30.75Y26.75
X30.75Y25.0
X30.75Y23.25
X31.25Y15.0
T2
X13.5Y12.75
X16.25Y12.75
X27.0Y32.75
X28.5Y32.75
X30.0Y32.75
T3
X1.4Y34.8
X1.4Y33.2
X2.6Y36.8
X4.4Y36.8
X4.4Y32.4
X6.2Y36.8
X6.2Y32.4
T4
X3.42Y28.25
X3.42Y25.71
X3.42Y23.17
X3.42Y20.63
X3.42Y17.0
X3.42Y12.25
X5.96Y28.25
X5.96Y25.71
X5.96Y23.17
X5.96Y20.63
X5.96Y17.0
X5.96Y12.25
X8.5Y28.25
X8.5Y25.71
X8.5Y23.17
X8.5Y20.63
X8.5Y17.0
X8.5Y12.25
X13.33Y30.62
X13.33Y23.45
X13.33Y20.91
X13.33Y17.92
X15.87Y30.62
X15.87Y17.92
X16.37Y35.44
X18.41Y30.62
X18.41Y17.92
X18.91Y35.44
X20.95Y30.62
X20.95Y17.92
X21.45Y35.44
X23.49Y30.62
X23.49Y17.92
X23.99Y35.44
X26.03Y30.62
X26.03Y17.92
X28.57Y30.62
X28.57Y17.92
X31.11Y30.62
X31.11Y17.92
T0
M30
